<svg width="206.57mm" height="103.72mm" version="1.1" viewBox="0 0 206.56283 103.72402" xmlns="http://www.w3.org/2000/svg" xmlns:cc="http://creativecommons.org/ns#" xmlns:dc="http://purl.org/dc/elements/1.1/" xmlns:rdf="http://www.w3.org/1999/02/22-rdf-syntax-ns#">
 <g fill="none" stroke="#000">
  <g transform="translate(-1.5221 -121.07)" stroke-width=".5" stroke="#fff">
   <polygon fill="#e2b584" transform="matrix(.97166 0 0 .97166 -245.76 -10.846)" points="291.79 182.8 293.06 179.99 295.58 177.88 300.08 176.19 303.32 175.35 305.43 175.63 307.4 176.47 309.5 181.39 310.77 182.8 313.02 181.95 314.99 178.58 316.67 175.91 318.44 174.28 318.5 174.22 319.63 173.55 318.5 171.13 319.35 171.13 318.5 170.28 318.5 169.44 318.5 167.61 319.49 166.77 318.5 165.93 320.19 164.66 318.5 163.96 318.5 161.57 319.2 161.01 318.5 159.18 319.77 158.05 320.82 156.08 319.77 153.55 320.61 152.57 320.61 150.46 321.88 148.35 321.56 148.35 320.33 148.35 315.97 148.35 315.69 150.88 312.88 151.73 310.91 150.18 304.58 152.57 301.07 152.85 297.41 152.71 296.99 152.01 295.02 153.55 295.3 155.24 290.66 157.52 286.73 157.52 284.2 156.37 283.35 156.37 281.53 154.54 281.66 153.55 280.54 152.71 274.22 149.06 273.51 149.9 270.56 149.62 267.89 153.98 266.62 155.8 263.53 157.52 261.7 157.52 261.7 158.9 258.75 160.3 257.48 160.72 256.36 160.72 254.57 161.3 255.04 161.23 255.97 163.76 255.97 165.64 256.47 167.61 257.65 169.59 258.35 171.27 258.84 173.75 258.15 174.74 258.84 175.43 258.84 177.7 257.56 178.58 259.43 180.08 258.74 180.08 259.43 181.46 257.75 181.96 259.43 183.04 258.25 184.82 259.43 184.82 259.43 185.81 259.93 185.81 259.43 187.1 261.02 187.79 261.02 189.28 261.71 190.26 262.15 192.27 263.67 192.92 265.92 190.53 269.01 188.98 270.14 188.98 272.11 188.14 274.64 187.3 276.32 185.89 278.57 185.05 280.96 185.05 283.07 186.17 284.76 185.47 287.43 185.89 289.54 186.73 290.52 188.14 291.09 190.53 291.09 193.76 292.63 194.75 295.16 194.75 295.58 193.34 296.29 189.55 294.6 187.86 292.77 187.86 291.79 186.45 291.09 183.92"/>
   <polygon fill="#abacda" transform="matrix(.97166 0 0 .97166 -245.76 -10.846)" points="295.08 215.33 295.08 214.95 295.08 212.95 296.2 212.95 297.83 209.95 299.83 207.86 302.26 205.58 305.2 205.83 306.08 206.95 308.96 204.95 308.96 203.45 310.58 202.7 312.96 202.7 314.7 200.7 317.33 198.2 320.27 196.79 319.91 196.42 319.58 196.08 317.33 196.08 317.96 194.75 320.27 194.2 320.7 193.7 323.2 193.7 323.2 192.33 321.88 190.7 321.88 189.08 320.58 189.08 321.88 187.58 321.33 186.83 319.83 188.08 318.27 187.2 317.33 185.95 319.2 185.95 318.27 184.82 317.33 184.08 317.96 182.08 319.2 181.33 317.96 179.83 319.2 177.95 319.2 175.45 318.44 174.28 316.67 175.91 314.99 178.58 313.02 181.95 310.77 182.8 309.5 181.39 307.4 176.47 305.43 175.63 303.32 175.35 300.08 176.19 295.58 177.88 293.06 179.99 291.79 182.8 291.09 183.92 291.79 186.45 292.77 187.86 294.6 187.86 296.29 189.55 295.58 193.34 295.16 194.75 292.63 194.75 291.09 193.76 291.09 190.53 290.52 188.14 289.54 186.73 287.43 185.89 284.76 185.47 283.07 186.17 280.96 185.05 278.57 185.05 276.32 185.89 274.64 187.3 272.11 188.14 270.14 188.98 269.01 188.98 265.92 190.53 263.67 192.92 262.15 192.27 262.3 192.94 262.18 192.91 262.3 196.79 262.3 197.95 262.3 200.08 260.83 200.08 260.08 201.7 260.83 203.95 262.3 207.86 263.58 207.86 264.33 209.05 265.58 210.2 265.58 213.7 265.58 215.7 263.83 217.45 262.3 217.45 262.3 222.45 262.3 225.05 262.14 225.05 262.57 225.92 260.66 227.56 258.94 228.65 261.66 229.83 262.93 229.37 264.2 229.19 265.58 229.19 268.02 228.46 269.02 228.56 271.02 227.74 272.29 228.28 274.38 226.38 276.2 225.01 277.56 225.19 280.74 224.47 280.74 224.82 282.7 222.45 283.58 223.08 286.08 221.33 286.83 223.08 289.2 222.45 290.96 218.2 292.46 218.2 293.08 215.33"/>
   <polygon  fill="#e7de69" transform="matrix(.97166 0 0 .97166 -245.76 -10.846)" points="376.08 186.05 378.3 186.94 379.84 184.82 381.39 183.62 384.27 183.84 386.92 184.82 386.92 186.28 391.12 186.28 394.22 186.05 396.88 188.93 400.64 187.38 403.74 184.82 409.7 182.29 409.7 179.42 411.26 176.54 412.36 176.54 414.57 176.54 415.9 174.28 417.13 174.28 417.45 174.28 420.55 173.22 421.66 170.57 424.09 168.8 426.96 168.36 428.95 168.8 436.48 167.91 438.69 167.91 442.01 168.14 442.01 169.24 443.56 171.55 452.4 174.28 454.4 173 453.73 169.68 452.4 167.91 452.4 163.27 455.06 163.27 457.49 163.27 458.82 160.84 462.14 161.72 462.14 163.27 463.47 161.5 463.47 158.84 465.13 157.38 465.24 157.3 466.78 155.75 465.02 152.21 462.58 152.21 462.58 150.22 461.48 148.35 462.58 146.23 461.48 144.46 459.7 142.92 457.81 141.21 457.49 140.92 454.17 144.24 450.86 144.46 447.1 145.79 441.56 146.01 436.7 148.35 435.59 146.23 433.38 148.35 432.27 146.01 427.85 145.13 421.66 144.69 416.57 145.79 413.69 145.79 408.82 146.23 403.95 148.35 397.54 148.35 395.99 150.44 392.9 148.35 388.25 150.66 384.27 147.12 378.52 145.35 378.74 142.69 375.2 140.04 370.99 139.16 368.12 138.05 362.81 136.06 357.5 137.61 351.53 136.06 350.2 138.71 350.64 140.92 343.78 144.91 340.24 144.91 336.26 143.58 332.06 144.91 330.07 144.91 328.52 147.12 326.75 146.23 325.42 149.33 323.2 147.56 321.56 148.35 321.88 148.35 320.61 150.46 320.61 152.57 319.77 153.55 320.82 156.08 319.77 158.05 318.5 159.18 319.2 161.01 318.5 161.57 318.5 163.96 320.19 164.66 318.5 165.93 319.49 166.77 318.5 167.61 318.5 169.44 318.5 170.28 319.35 171.13 318.5 171.13 319.63 173.55 318.5 174.22 318.44 174.28 319.2 175.45 319.2 177.95 317.96 179.83 319.2 181.33 317.96 182.08 317.33 184.08 318.27 184.82 319.2 185.95 317.33 185.95 318.27 187.2 319.83 188.08 321.33 186.83 321.88 187.58 320.58 189.08 321.88 189.08 321.88 190.7 323.2 192.33 323.2 193.7 320.7 193.7 320.27 194.2 317.96 194.75 317.33 196.08 319.58 196.08 319.91 196.42 326.53 194.75 326.71 194.75 331.62 194.75 331.62 197.34 333.39 198.44 336.04 196.01 339.58 196.23 341.79 196.23 344.45 197.34 344.45 195.79 348.65 195.79 351.53 195.79 353.52 195.79 355.28 195.79 356.62 193.35 358.61 193.35 358.61 195.79 359.71 195.79 361.26 195.79 361.26 194.75 363.25 192.91 363.25 190.26 365.68 191.36 367.9 188.93 370.77 187.82 373.65 187.82"/>
  </g>
  <g>
   <path d="m13.968 93.712 1.831 4.5775h4.3486l3.4331-1.1444 4.5775 2.7465 2.7465-3.2042 13.275 0.22886 10.986 2.7465 8.2395-3.2042h2.7465l3.662 3.2042h2.7465l3.662-2.9754v-3.4331l2.0599-3.2043 9.6127-2.9753 5.493-2.7465 6.1796-2.9754 2.2887-2.5176h4.3486l5.7219-2.7465 3.8909-4.3486 4.8064-2.5176 0.22886-2.7465 5.493-2.2887 0.9155-2.2887h3.2042l4.1197-2.0599 3.662-6.1796-1.6021-2.7465-3.8909-1.831-2.9754-1.831-1.6021-0.9155-1.3732-4.1197-0.68661-2.7465-0.9155-1.3732-1.3732-0.68662h-3.4331" stroke-width=".5px"/>
   <path d="m120.39 37.409-3.1991-1.1502-2.2851-2.0703h-1.8281l-2.7421 0.6901-4.1131-0.92013-4.1132-0.46008-3.1991-0.6901-1.5996-0.69008-3.6562-0.92013h-4.5702l-9.3689 0.69008h-8.4548l-3.8847 0.69011-4.3417-2.5304-4.7987 7.5911 2.2851 5.0607 0.91402 5.0607-5.2557 4.6007-1.5996 1.1502-2.9706 0.69008-3.1991 1.3802-2.0566 2.7604-0.2285 2.3003-2.9706 1.8402-5.2557 2.0703-3.1991 0.23005-3.6561 1.3802-1.5996 2.0703-1.1425 2.0703-1.371 1.1502-3.8847 0.23003-4.7987 0.46008-4.5702 0.46006-0.68554 3.6805v1.8403l-2.9706 4.1406-0.2285 1.3802 0.45701 2.3003-1.371 1.1502-0.68553 1.8403v3.2205l-0.2285 2.3003 1.5996 2.5304h2.0566l2.5136-2.9904" stroke-width=".5px"/>
   <path d="m54.584 53.511 2.0566-4.9509v-8.1015l-1.3711-4.0507-2.5136-3.8257-0.45702-1.3502v-2.9255l-1.3711-0.45009v-1.5753l2.5136-0.22506 3.1991 1.8003 6.3982 2.7005" stroke-width=".5px"/>
  </g>
 </g>
 <g fill-rule="evenodd" stroke-width=".28741">
  <ellipse cx="120.49" cy="37.403" rx="2.1506" ry="2.2861"/>
  <ellipse cx="13.936" cy="94.099" rx="2.1506" ry="2.2861"/>
  <ellipse cx="51.194" cy="26.423" rx="2.1506" ry="2.2861"/>
  <ellipse cx="42.555" cy="62.601" rx="2.1506" ry="2.2861"/>
 </g>
 <g fill="#000000" font-family="sans-serif" font-size="3.5278px" letter-spacing="0px" stroke-width=".26458" word-spacing="0px">
  <text x="118.32986" y="32.003132" style="line-height:1.25" xml:space="preserve"><tspan x="118.32986" y="32.003132" font-size="5.6444px" stroke-width=".26458">Tezpur</tspan></text>
  <text x="24.375828" y="28.583349" style="line-height:1.25" xml:space="preserve"><tspan x="24.375828" y="28.583349" font-size="5.6444px" stroke-width=".26458">Udalguri</tspan></text>
  <text x="20.056101" y="61.521259" style="line-height:1.25" xml:space="preserve"><tspan x="20.056101" y="61.521259" font-size="5.6444px" stroke-width=".26458">Mangaldoi</tspan></text>
  <text x="19.447853" y="92.915222" style="line-height:1.25" xml:space="preserve"><tspan x="19.447853" y="92.915222" font-size="5.6444px" stroke-width=".26458">Guwahati</tspan></text>
 </g>
</svg>
