<svg width="205.83mm" height="237.19mm" version="1.1" viewBox="0 0 205.83232 237.19417" xmlns="http://www.w3.org/2000/svg" xmlns:cc="http://creativecommons.org/ns#" xmlns:dc="http://purl.org/dc/elements/1.1/" xmlns:rdf="http://www.w3.org/1999/02/22-rdf-syntax-ns#">
 <metadata>
  <rdf:RDF>
   <cc:Work rdf:about="">
    <dc:format>image/svg+xml</dc:format>
    <dc:type rdf:resource="http://purl.org/dc/dcmitype/StillImage"/>
    <dc:title/>
   </cc:Work>
  </rdf:RDF>
 </metadata>
 <g transform="translate(-1.8298 -44.123)" stroke="#fff" stroke-width=".5">
  <g fill="#e2b584">
   <path id="Jogulamba" class="enabled" d="m35.852 235.6-2.9976-1.3322-1.3322 3.6636-4.3298-0.33303-0.99917 3.6636 0.66612 3.3306-1.3322 3.6636 1.3322 4.6628v4.3298l-0.66612 1.9984 1.3322 3.3306 0.33302 2.6644 0.66612 2.6644v2.9976l6.6611 0.99918 1.6653-0.33302 3.6636 3.6636 4.3298 0.33303 2.3314-1.3322 6.9941 2.6644 4.6628-0.66611 3.3306-2.9976 3.6636 2.9976h4.9959l2.6644 1.9984 1.6653-4.3298h1.9984v2.6644l2.9976 1.9984 1.3322 0.99919 2.9976 0.66613 0.99916-1.6653 3.9968 0.33302-0.66613-4.3298 2.6644-2.3314h2.9976l2.6644-4.3298-3.3306 2.3314h-3.9967s-4.3298-0.33302-4.3298-2.9976c0-2.6644-6.6611-5.995-6.6611-5.995s-6.9941-6.3281-9.3255-7.6603-2.9976-10.325-2.9976-10.325l-3.3306-2.6644-18.984-11.324s-5.9951-0.33303-7.6603 1.9984c-1.6653 2.3314-0.66612 4.3298-0.66612 4.3298z" fill="#dcc" />
   <path id="Wanaparthy" class="enabled" d="m44.179 229.26 5.995-4.3298-1.3322-1.9984 4.6628-0.66612 1.3322 3.3306 2.6644-0.66613 1.9984 2.6644 0.66612-6.9941h6.3281l-1.6653-2.3314-0.99916-6.3281 3.3306 2.9976-0.66612 1.6653 2.3314 0.99918 6.6611-4.6628-2.9976-5.662 2.6644-2.3314h3.6636l4.3298 2.3314 0.99916-0.99918 0.66612 1.9984-0.99916 3.3306s-2.6644 6.6611 0.66612 8.3263c3.3306 1.6653 5.6619 1.3322 5.6619 1.3322l1.3322 2.6644 0.99917 0.99917 2.9976-0.99917 3.9968 0.66612s1.9984 0 1.9984 1.3322-0.66612 2.6644-0.66612 2.6644l0.66612 0.99915-1.6653 3.6636-4.3298-1.3322 0.33303 2.9976-2.6644 0.33303-1.3322-2.3314s-5.3289 0.66612-4.3298 2.9976c0.99918 2.3314 3.3306 3.6636 3.3306 3.6636l0.66612 4.3298v1.3322s1.6653 0.66613 1.3322 3.6636c-0.3331 2.9976-2.6644 4.3298-2.6644 4.3298l2.6644 1.9984s0.99917 4.996 0 5.329c-0.99917 0.33302 4.6628 0.66612 4.6628 0.66612l-0.33303 6.6612-3.3306 2.3314h-3.9968l-5.662-4.3297-15.321-11.99-2.3314-10.658z" fill="#f3d6e9" />
   <path id="Nagarkurnool" class="enabled" d="m89.141 194.96 0.99919 2.9976 2.3314-1.3322 1.3322-2.9976 7.3273 4.996 2.9976 1.3322 1.3322 1.6653 2.9976-0.99917 1.9984-1.3322 3.6636-3.9968 3.3306-0.99918 0.99919-3.9968-0.66612-3.3306 4.9958-1.6653 5.662 2.6644 2.9976-0.99918-0.66613 2.9976 2.3314-0.66612 2.3314-3.9968 0.99917 3.6636-3.9968 2.6644 6.3282 0.33302 2.3314 2.3314 1.9984-1.6653 1.3322 4.996-3.9968 3.6636-0.33302 1.6653h-3.6636v2.6644l2.3314 1.3322 1.3322 2.6644-3.3306 3.9968 8.6595 0.66612 1.3322 2.3314 5.662-3.6636 4.6628 0.33302h2.3314l0.99917 3.3306 4.3298 2.3314h2.3314l18.984 11.99 1.9984 1.6653-0.33303 7.9933-1.3322 2.9976-3.6636 1.3322-4.6628-2.3314-4.996-0.33303-3.3306-0.99917-11.657 5.3289-0.99917 2.6644 1.6653 2.3314 0.33303 1.9984-1.6653 2.6644-2.3314-0.99918-1.3322-3.3306-0.99917-2.3314-2.3314 0.33302 1.3322 4.996-1.3322 3.9968-3.6636 3.6636h-5.329l-7.3273-4.3298-2.6644-2.9976-3.3306 1.9984-2.6646 3.3306-9.6587-3.6636h-5.995l-2.6644 1.9984-2.3314 1.9984-0.66613 0.99917-6.6612-0.66611c1.0157 1.3058 1.1914-0.95176-0.55074-0.70812-6.742 0.94285-2.7535-3.5403-4.1121-5.287l-2.6644-1.9984 3.6636-6.6612c-2.3314-1.3322-2.9976-6.9942-2.9976-6.9942s-6.9941-6.9941 0.99917-6.6611c7.9933 0.33302 1.3322 2.3314 1.3322 2.3314l2.6644-0.33302-0.33302-2.9976 4.3298 1.3322 1.6653-3.6636-1.9984-4.9959-3.9968-0.66613-2.9976 0.99918-2.3314-3.6636-6.6611-1.6653 0.33302-7.9933 0.33302-5.3289 2.6644-6.6612z" fill="#abacda" />
   <path id="Rangareddy" class="enabled" d="m108.46 117.36 1.9984 1.3322 0.33303 3.6636 3.6636 4.6628-2.9976 2.9976-1.9984 2.6644 5.662-0.99918 1.6653 1.9984-1.6653 2.9976 4.996 0.99919 1.3322-2.3314 0.33303-2.3314h6.3281l2.3314-0.33302 3.9968-0.33303 2.3314 0.99918 1.3322-1.9984c7.3273-2.9976 7.4439-0.82904 4.3298 5.6619l2.6644 6.6612 5.995 3.6636-5.329 0.33303-0.66612 6.6612 6.9942 2.3314 2.3314 6.3281-0.99918 2.3314-4.6628 0.3331 2.3314 3.3306-4.996 2.9976-5.662 0.33304-1.3322 2.6644 3.3306 3.3306-0.66612 4.3298 2.3314 1.6653 1.6653-3.3306-0.16662 8.9925-4.4964 4.3298-2.3314-2.3314-6.3281-0.33303 3.9968-2.6644-0.99919-3.6636-2.3314 3.9968-2.3314 0.66611 0.66612-2.9976-2.9976 0.99917-5.662-2.6644-4.9958 1.6653-4.3298-5.329-4.6628 6.9941h-3.3306l-0.99916-4.996-3.3306-0.33302-0.33301-8.6595-2.6646-2.3314-6.6611 1.9984 1.9984-3.9968-7.3273-2.6644-2.9976 3.6636-2.3314-2.6644h-4.6628l-8.6595-6.3281 12.323-10.658 1.3322-6.9942-1.3322-4.3298-4.996-6.6611 2.6644-4.6628 3.3306-1.6653-1.6653-3.3306 3.9968-6.3282 2.9976 3.9968 7.3273 0.66613 3.3306 1.3322 0.99917 3.9968h3.3306l1.6653-4.3298 1.6653-2.9976h2.6644z" fill="#a3b0a3" />
   <path id="Sangareddy" class="enabled" d="m42.847 72.064-3.3306-2.3314-3.9968-1.6653-0.33303-1.9984 5.9949-0.66612v-4.6628l-0.66612-3.3306-3.6636-3.3306 1.9984-2.3314v-2.3314l2.6644-4.3298h4.3298l3.9968 2.9976 3.6636 3.6636 0.33303 1.9984h6.9941l1.6653-0.99916 2.6644 2.3314 1.9984 0.3331-1.3323 2.9976 2.3314 0.66612 1.6653-0.66612v1.6653l-1.9984 1.9984 0.66612 1.6653-2.6644 1.6653h-2.6644l0.33302 4.996-2.9976 2.9976-0.33302 2.6644-2.6644 1.9984 2.3314 3.3306-0.33303 3.6636 3.3306 1.3322 3.3306 4.6628 4.3298-3.6636h2.3314l0.99918-3.3306 2.3314 0.33303 0.33302-3.9968 2.6644 3.9968 0.33302-2.9976 3.3306-0.99918-0.3331 3.6636 1.6653 3.6636v2.9976l3.9968 0.3331 0.99917-1.9984 1.3322 3.3306 2.9976 2.9976-0.99917 2.3314 4.3298 0.66613 1.6653 3.3306 4.996 2.3314 0.33303 1.9984 0.66612-7.6603 0.33303-2.3314 3.6636 2.6644 7.3273 2.3314-0.99917 3.6636h-2.9976l-2.9976 8.6595 1.6653 5.329-1.9984-1.3322-1.3322 2.9976h-2.6644l-3.3306 7.3273h-3.3306l-0.99918-3.9968-10.658-1.9984-2.9976-3.9968-3.9968 6.3281h-2.6642l-1.9984-3.3306-1.6653 2.3314-1.3322-1.3322 1.3322-3.3306h-2.3314l-1.3322-4.6628-5.6619-1.6653v-2.3314l-7.3273-2.6644-2.6644 1.6653 2.3314 2.6644-1.6653 3.9968-6.9942 2.9976-12.656-3.3306-1.3322-1.9984-2.3314 2.9976-0.99917-2.3314-4.996-2.3314 0.99918-3.6636v-6.6611l8.9925-1.9984 2.3314-4.3298-5.329-0.99917 1.6653-6.9941 1.3322 1.6653 2.9976-3.3306 2.9976-3.9968-2.9976-0.33302 4.6628-0.33302v-2.3314h2.6644l-0.99917-6.3281z" fill="#c2f0c2" />
   <path id="medak" class="enabled" d="m128.11 56.406v7.6603l0.3331 2.6644 0.66612 4.996-4.996 4.996 0.99918 5.9951-1.9984 1.9984 5.6619 0.99917-2.3314 1.3322-3.6636 3.3306-2.3314 3.6636 4.6628 8.6595-1.9984 1.6653-18.318-8.3265-1.3322 7.9933-4.996-2.3314-1.6653-3.3306-4.3298-0.66613 0.99918-2.3314-4.3298-6.3281-0.99916 1.9984-3.9968-0.3331-1.6653-6.6611 0.33302-3.6636-3.3306 0.99917-0.33302 2.9976-2.6644-3.9968-0.33302 3.9968-2.3314-0.33302-0.99918 3.3306h-2.3314l-4.3298 3.6636-3.3306-4.6628-3.3306-1.3322 0.33302-3.6636-2.3314-3.3306 2.6644-1.9984 0.33303-2.6644 2.9976-2.9976-0.33302-4.996 5.329-1.6653 16.32 1.9984 1.3322-1.9984 2.9976 2.6644 2.6644-1.6653 1.3322-3.3306-0.99918-6.3281 4.3298-1.9984 2.6644 7.3273 2.3314-0.99917 3.9968-5.329 5.329 7.6603 4.3298-0.99917v-2.3314h1.6653v3.3306h4.6628l-0.66611-1.9984 3.9968-3.6636z" fill="#e7de69" />
   <path id="Vikarabad" class="enabled" d="m25.862 172.98 3.9968-5.9949-1.3322-5.662-2.6644-2.3314v-2.3314l-3.6636-0.33303-1.9984-1.3322-3.9968-1.9984 2.3314-3.9968 1.3322-2.9976 5.662-5.662-1.9984-0.99918 2.9976-3.3306v-3.6636h3.6636l1.9984-0.99916 0.33303-2.9976-1.9984-1.3322 2.3314-1.3322 4.3298 0.99918v-1.6653l2.6644 0.99919 0.33302-3.6636h6.9941v-3.9968l6.9941-2.9976v-1.9984l1.6653-1.9984-2.3314-2.6644 2.6644-1.6653 4.3298 0.99916 2.9976 1.6653v2.3314l5.6619 1.6653 1.3322 4.6628h2.3314l-1.3322 3.3306 1.3322 1.3322 1.6653-2.3314 1.9984 3.3306h2.6644l1.6653 3.3306-3.3306 1.6653-2.6644 4.6628 4.9959 6.6611 1.3322 4.3298v3.6636l-1.3322 3.3306-9.6587 9.3255-2.6644 1.3322 8.6595 6.3281-1.9984 3.3306 1.9984 1.6652-2.6644 9.9917-2.6644-0.99917-1.9984-6.9942-2.9976-1.6653-0.99916-3.6636-3.3306 0.99919-1.6653-3.9968-15.987-2.3314-10.325 11.657-1.6653-1.9984z" fill="#fcc" />
  <path id="Mahabubnagar" class="enabled" d="m3.5458 217.61 4.996 0.66613 0.3331-1.9984 6.6611 1.6653 1.6653-3.6636h3.3306l0.3331-2.6644-2.3314-2.6644h3.9968l1.6653-1.3322v-2.3314l1.9984-3.6636h-3.6636l-2.6644-1.3322 5.9951-0.99917v-4.3298l-3.3306 0.99916-0.66612-2.6644 0.66612-3.9968h3.6636l-0.99921-5.662 0.66612-10.658 5.995 1.6653 1.6653 1.9984 3.9968-2.9976 6.3281-8.6595 3.3306 1.3322 12.656 0.99918 1.6653 3.9968 2.6644 0.33303 0.66612-1.3322 1.6653 1.9984-0.66612 1.6653 2.9976 1.6653 1.9984 6.9941 2.6644 0.99917 0.66612-4.6628 1.9984-5.329-1.9984-1.6653 1.9984-3.3306h4.6628l2.3314 2.6644 1.6653-1.6653 1.3322-1.9984 7.3274 2.6644-1.9984 3.9968 6.6611-1.9984 2.6644 2.3314 0.3331 8.6595 3.3306 0.33303 0.66612 2.9976 0.33303 1.9984h3.3306l1.9984-1.6653 2.6644-5.329 4.3298 5.329 0.66613 3.3306-0.99914 3.9968-3.3306 0.99916-8.6596 6.3282-1.3322-1.6653-10.325-6.3282-1.3322 2.9976-2.3314 1.3322-0.99919-2.9976-5.9949 12.323-4.3298-2.3314h-3.6636l-2.6644 2.3314 2.9976 5.662-6.6611 4.6628-2.3314-0.99916 0.66612-1.6653-3.3306-2.9976 0.99916 6.3282 1.6653 2.3314h-6.3281l-0.66612 6.9941-1.9984-2.6644-2.6644 0.66612-1.3322-3.3306-4.6628 0.66611 1.3322 1.9984-5.995 4.3298s-6.3281 1.3322-8.9925 1.3322-5.9951-2.9976-5.9951-2.9976l-3.6636-0.99912-4.6628 1.9984-3.3306-1.3322-4.3298-0.66613-1.9984-1.6653-3.9968-0.33302z" fill="#a69d98"/>
   <path id="Yadadri Bhuvangiri" class="enabled" d="m147.09 105.04 7.3273-6.9941 0.33303-5.329 12.989 0.33303 0.33304 5.3289 4.996 5.329 2.6644-2.3314 6.3281 10.325-2.3314 6.3282 5.9949 1.9984 3.6636 3.9967 2.3314-2.9976 0.99917 3.6636 3.3306 1.6653 2.6644-3.3306 4.996 3.3306 2.6644 7.6603-5.995 0.99918-2.9976 2.3314-1.6653-2.3314h-6.9941l6.3281 4.3298-7.9933-0.99917-1.3322 4.3298-6.9941-0.66612-0.99916 3.6636-11.657-2.6644 1.6653 2.6644-2.9976 3.9968 2.9976 3.9968-5.6619 6.3281-2.3314 4.6628-5.3289-1.6653-2.3314-6.3282-6.9941-2.3314 0.66613-6.6612 5.329-0.33302-5.9952-3.6636-2.6644-6.6611 2.9976-8.6595-4.3297-3.9968-2.9976-9.9917 5.9951-9.6587z"/>
   <path id="Hydrabad" class="enabled" d="m109.46 132.67 5.662-0.99917v4.996l4.996 0.99919 4.996-11.657-4.6628-2.9976-9.6587-0.66611 3.6636 4.6628z" fill="#f45" />
   <path id="Medchal" class="enabled" d="m138.1 131.35 7.3273-2.9976-7.3273-13.988 2.9976-6.9941-5.329-5.329-3.6636 3.3306-1.3322-2.9976-3.6636 1.6653-1.9984-1.3323-1.9984 1.6653-7.3273-3.3306-0.99916 3.6636h-2.9976l-2.9976 8.6595 1.9984 8.9925 14.321 3.6636-3.3306 6.9941 14.988 0.33302z" fill="#85c5e3" />
  </g>
 </g>
 <g fill="none" stroke="#000">
  <path d="m116.79 85.725 0.68862 0.69704 1.9128-1.4812 2.0658-0.43565 2.4484-1.307 2.7545-0.26139 2.2189-0.08713 0.68861 0.08713 0.91816-0.60991 2.9075-1.1327h0.61209l1.2242-0.69704 1.3007-0.26139 0.76513-0.52278 1.4537-0.69704 0.61211-0.95843 1.1477-0.60991 1.3772-0.95843h1.4537l2.6014-2.004 1.9128-0.43565 1.6068-0.8713h1.4538l1.3007-0.78417 5.0499-0.52278 1.3007-0.43565 2.1424-1.5683 2.4484-1.1327 1.3007-1.1327 1.3007-0.8713 2.1424-0.26139 1.2242 0.08713 2.0658 0.60991" stroke-width=".5px"/>
  <path d="m116.79 85.723-0.88802 1.2432h-1.5984l-0.53281 2.8417-1.9536 0.88802-2.3088 5.5057-4.7953 3.7297-3.0193 3.0193-2.1312 2.3088-1.4208 3.0193v1.2432l-2.8417 3.3745-4.2625 4.9729-0.53281 1.9536-1.4208 1.5984-0.53281 3.3745-0.53281 3.9073-0.88802 4.9729-1.5984 4.7953-0.1776 2.1312-2.3089 5.5057 1.9536 4.6177 3.9073 7.1042v1.5984l1.5984 3.3745v5.8609l-0.53281 2.3088 9.7682 4.6177" stroke-width=".5px"/>
  <path d="m83.046 146.11-3.3843 3.8458-2.1536 1.3845-5.0764 5.9994-3.2304 2.9228-1.9998 4.3072-1.5383 4.4611-2.4613 3.6919 1.2306 11.999-1.846 2.1536 2.4613 2.1536 0.46149 6.6147 0.46149 4.9226 0.46149 1.2306 1.9998 1.2306 0.15383 2.1536-1.9998 2.4613-2.3075 0.30766-2.9228 1.9998-4.6149-2.3074-1.0768-1.0768-1.5383-0.92298-1.3845-1.6921-1.2306-2.6151" stroke-width=".5px"/>
  <path d="m83.047 146.1-5.6313 2.6318-2.9721 0.43864-2.6592 0.65795-0.78212 0.87728-1.5642-0.21932-0.93854 0.87728-2.1899 0.21931-0.78212 0.87729-0.46927 2.1932" stroke-width=".5px"/>
  <path d="m116.79 85.721v-0.88002l-0.43639-0.47386-0.68577-0.33847-0.49874-0.0677-0.68577-0.40616-0.24937 0.13539-0.74811-0.13539-0.37406 0.47386-0.62342 0.13539-0.49875 0.60924-0.99747-0.27078-0.68577 0.33847-0.12468 1.0831-0.49875 1.1508-1.1222 0.06769-0.37405 0.67694-0.74811 0.33847-0.12469 0.40616-1.6832 0.74463-0.3117 0.40617-1.5586 0.33847-0.31171-0.20308-0.31171-0.13538-0.31172 0.13538-0.68576-0.40616h-1.4339l-0.49874 1.557h-0.56108l-0.62342 0.40617-0.24936-0.33847-0.49874 0.20308-1.1222 0.88002-2.2443 0.13538-1.7456 1.8277h-0.93513l-0.56109-0.54155h-0.31171l-0.68577 0.94772h-0.81045l-0.62342-0.27078-0.37405-0.74463h-0.68577l-1.6832 1.3539h-0.68577l-1.2468-0.67694-0.81045 0.67694-1.9326 0.33847-0.8728-1.2185-0.74811-0.0677-0.8728-0.33847-0.99748-0.40616h-0.68577l-0.99748 0.60925-0.18703 0.74463-0.4364 0.0677-0.18703 0.54155-1.0598 0.40616-1.2468-0.13539-0.62342-0.20308-0.8728-0.67694-1.1845 0.0677-0.68577 0.06769-0.81045-0.13539-1.3092 0.94771h-0.62342l-0.81045 0.27078-0.8728 0.27078h-0.68577l-0.68577-0.27078-0.68577-0.54155-0.56108-0.54155-0.62342-0.20308-0.49874-0.27078-0.74811-0.40616-0.99748-0.67694-2.9301-1.4216" stroke-width=".5px"/>
  <path d="m77.18 59.484v0.80461l0.12379 0.55704v0.74272l0.24757 0.68082v1.3616l1.6092 0.43325 1.9806 0.43325 1.6711 0.37136h0.8665l0.80461 0.37136 1.2998 1.0522 2.3519 0.80461 1.9187 0.61893 0.8665 0.55704 2.29 0.68082-0.30947 0.99029 0.58332 1.9588 0.30588 1.3 0.53529 3.7853 1.6059 4.0529 0.65 0.72647 2.2176 0.72647 2.7912 0.19117 2.7529 1.3 0.45882 0.68823 0.0383 0.30588-0.30588 1.8353 1.1167 2.502" stroke-width=".5px"/>
  <path d="m79.307 33.866-2.1205-1.4509-0.78124 0.66963-0.78124-0.22321-0.89284 0.33482-0.22321 1.1161 0.14788 1.951 0.84402 2.2788v3.0385l1.1816 2.2788 0.3376 2.532 0.50641 0.33761-0.33761 3.1229 0.33761 1.266 0.2532 2.3632 0.59081 1.0128 0.1688 1.266 1.9412 1.1816-0.1688 1.266-0.59081 1.1816 1.266 0.3376v1.6036l0.50641 1.7724-0.67521 1.3504" stroke-width=".5px"/>
  <path d="m116.67 59.74 0.19764 1.7633 0.59288 1.2514 0.13174 0.85322 0.0659 0.28441-0.39526 1.3083 0.46113 0.85322-0.13176 1.422 0.26352 0.79634-0.46114 0.85322-0.32938 1.1376-0.85639 1.3083-0.13174 1.0239-0.65877 1.8202-0.13175 1.0807 0.13175 0.79634-0.19763 0.96698 0.92227 1.2514 0.46114-0.34129 0.39524 1.1376 0.13176 1.0239-0.0659 0.62569-0.2635 0.73946-0.92226 0.96698-0.19763 0.45505-0.0659 0.9101" stroke-width=".5px"/>
  <path d="m79.29 33.857 0.51777 1.0355 0.94925 1.0355 0.60407 1.0355 0.25889 0.94925 0.0863 1.1218 0.69036 0.69036h1.0355l0.51777 1.2944v0.77666l0.17259 0.69036 0.25889 0.77666v2.1574l-0.17259 0.77666v0.86296l0.17259 0.77666 0.77666 0.34518 2.5889 2.2437 0.94925 0.43148 4.7463-2.0711 1.9848-1.1218 1.0355 0.43148 1.2944 0.77666 0.17259 1.3807h1.1218l0.51777 0.86296 0.69037 0.34518 1.1218-0.08629 0.94926 0.17259 1.2081 0.86296 1.0355 0.86296 0.77666-0.86296 0.86295-0.51777 0.86296-0.17259 0.94926 0.17259 0.77665 0.34518 0.86296-0.17259 0.94925 0.43148 0.51777 0.77666 0.86296 0.25889 0.17259 0.25889 0.86295 0.08629 1.0356 0.17259 0.60407 0.34518 0.25888 0.25889 1.2081-0.69036" stroke-width=".5px"/>
  <path d="m116.14 53.964 0.38008 1.0298v0.93215l-0.0717 0.93215 0.0717 1.219 0.14685 1.663" stroke-width=".5px"/>
  <path d="m57.326 91.679 0.19172-0.99523-0.09586-0.72381-0.19172-0.90476 0.28758-1.3571 0.09586-1.5381 1.5337-1.1762 0.28758-1.2667 1.0544-0.3619 0.86272-0.72381 0.86272-0.27143 1.5337-0.45238 0.38343-0.09047 1.0544-0.72381 1.2462-0.72381 2.1089-0.81428 2.684-0.63333 0.95858-1.5381v-0.45238l0.38343-0.81428 0.28758-1.2667-0.57515-1.9905 0.95858-2.0809 0.67101-1.719 0.38343-1.9 0.38343-1.5381 0.57515-0.90476 0.38343-1.3571 1.9172 0.27143" stroke-width=".5px"/>
  <path d="m57.326 91.678v2.3496l-0.1776 1.9881-0.88799 1.9881-1.0656 1.9881-0.5328 2.3496-0.3552 1.6266v1.6266l0.7104 2.5303 2.3088 4.3377 2.3088 0.18073 1.5984 1.0844 1.9536-0.18075 2.3088 1.2652 2.0697 0.10997 1.0215 0.41584 1.4302 1.1436v0.83168l0.40862 1.1436 0.51078 0.83167 0.10216 3.0148v1.1436l-0.61293 1.4554 0.40862 0.41584 0.20431 1.6634 0.20431 0.93564 0.10215 1.1436v1.2475l-0.40862 0.83167 0.40862 1.3515-0.71508 1.9752-0.91939 1.6634-0.61293 1.4554-0.51077 1.3515-0.10216 1.4554-0.61293 2.1832-1.1237 2.1832-0.51077 0.93563-0.30646 1.4554-0.30646 1.5594 0.20431 1.3515-0.20431 2.2871" stroke-width=".5px"/>
  <path d="m89.973 170.97-1.6229 2.8908-0.61294 1.7367-1.2259 1.1237-0.7151 1.8388-0.10216 1.328-1.6345 0.61294v4.6992l-0.81726 0.81726-3.3712 0.7151-1.6345 0.30648-1.328 0.51078-1.0216 0.61295-1.4302 0.20431h-1.4302l-1.328 0.30648-1.941-0.40863-1.5324-0.71511-2.5539-0.40863-1.328-0.40863" stroke-width=".5px"/>
  <path d="m73.027 188.37-0.64176 1.0909-0.2567 1.0267-0.51341 1.0909-0.77011 0.77004-0.77011 0.32085-1.1552 2.4384-0.70594 1.0267 0.32088 0.96254-0.06418 1.0909-0.19253 1.0909-0.77011 1.5401-1.0746 0.97597" stroke-width=".5px"/>
  <path d="m65.059 154.65 4.143 5.6115" stroke-width=".5px"/>
  <path d="m64.343 186.74-1.7561 0.13785" stroke-width=".5px"/>
 </g>
 <g fill-rule="evenodd" stroke-width=".43468">
  <ellipse cx="116" cy="84.554" rx="1.7882" ry="1.9258"/>
  <ellipse cx="170.98" cy="67.222" rx="1.7882" ry="1.9258"/>
  <ellipse cx="116.89" cy="60.021" rx="1.7882" ry="1.9258"/>
  <ellipse cx="79.041" cy="33.562" rx="1.7882" ry="1.9258"/>
  <ellipse cx="57.606" cy="92.006" rx="1.7882" ry="1.9258"/>
  <ellipse cx="99.638" cy="175.57" rx="1.7882" ry="1.9258"/>
  <ellipse cx="65.309" cy="154.97" rx="1.7882" ry="1.9258"/>
  <ellipse cx="51.745" cy="201.36" rx="1.7882" ry="1.9258"/>
  <ellipse cx="72.845" cy="188.63" rx="1.7882" ry="1.9258"/>
 </g>
 <path d="m77.18 59.484 2.5397-0.09494" fill="none" stroke="#000" stroke-width=".5px"/>
 <ellipse cx="77.366" cy="59.686" rx="1.7882" ry="1.9258" fill-rule="evenodd" stroke-width=".43468"/>
 <g fill="#000000" font-family="sans-serif" font-size="3.5278px" letter-spacing="0px" stroke-width=".26459" word-spacing="0px">
  <text x="116.55202" y="90.666016" style="line-height:1.25" xml:space="preserve"><tspan x="116.55202" y="90.666016" font-size="4.939px" stroke-width=".26459">Hyderabad</tspan></text>
  <text x="60.955059" y="89.326324" style="line-height:1.25" xml:space="preserve"><tspan x="60.955059" y="89.326324" font-size="4.939px" stroke-width=".26459">Vikarabad</tspan></text>
  <text x="165.45058" y="74.254868" style="line-height:1.25" xml:space="preserve"><tspan x="165.45058" y="74.254868" font-size="4.939px" stroke-width=".26459">Bhuvanagiri</tspan></text>
  <text x="121.2841" y="60.243572" style="line-height:1.25" xml:space="preserve"><tspan x="121.2841" y="60.243572" font-size="4.939px" stroke-width=".26459">Medchal</tspan></text>
  <text x="44.878826" y="58.681015" style="line-height:1.25" xml:space="preserve"><tspan x="44.878826" y="58.681015" font-size="4.939px" stroke-width=".26459">Sangareddy</tspan></text>
  <text x="82.72496" y="31.384911" style="line-height:1.25" xml:space="preserve"><tspan x="82.72496" y="31.384911" font-size="4.939px" stroke-width=".26459">Medak</tspan></text>
  <text x="29.304976" y="204.70679" style="line-height:1.25" xml:space="preserve"><tspan x="29.304976" y="204.70679" font-size="4.939px" stroke-width=".26459">Gadwal</tspan></text>
  <text x="76.026527" y="193.65437" style="line-height:1.25" xml:space="preserve"><tspan x="76.026527" y="193.65437" font-size="4.939px" stroke-width=".26459">Wanaparthy</tspan></text>
  <text x="102.48532" y="177.41069" style="line-height:1.25" xml:space="preserve"><tspan x="102.48532" y="177.41069" font-size="4.939px" stroke-width=".26459">Nagarkurnool</tspan></text>
  <text x="28.802595" y="154.97095" style="line-height:1.25" xml:space="preserve"><tspan x="28.802595" y="154.97095" font-size="4.939px" stroke-width=".26459">Mahbubnagar</tspan></text>
 </g>
</svg>
