<svg width="275.65mm" height="151.2mm" version="1.1" viewBox="0 0 275.64746 151.20395" xmlns="http://www.w3.org/2000/svg">
 <g transform="translate(67.528 -79.598)" stroke="#fff" stroke-width=".5">
  <path id="Nalgonda" class="enabled" d="m12.092 188.28-1.4041 2.8082-1.9657-1.404 0.56164-3.6506-2.8081-2.8082 1.1233-2.2464 2.5274 0.56159 2.2464-0.84249 4.2123-2.5273-1.9657-2.8082 3.9314-0.2811 0.84244-1.9657 4.4931 1.4041 1.9657-3.9314 3.3698-3.3698 1.4041-1.9657-2.5274-3.3698 2.5274-3.3699-1.4041-2.2464 3.6506 0.84242 6.178 1.4041 0.84244-3.0889h2.5274l1.9657 2.2465 1.4041-1.6849 1.1233-3.6506 4.7738 1.404 1.9657-0.56157-0.28079-1.6849-5.0546-1.9657h5.897l1.4041 1.9657 2.5274-1.9657 4.4931 0.28049 0.56164-1.1233 3.3698 5.0547 0.28079 3.3699 2.2465 1.9657 0.84246 5.3355 3.9314 4.2123 3.3698 16.849 4.4931 6.4588-0.28079 7.8627 1.6849 3.0889-3.3698 3.9314-2.8081-1.1233-2.8081 2.2464-6.4587 0.28049-2.8081 2.5274-1.6849 2.2465-10.671 0.56157s-5.0546 3.6506-5.0546 5.3355v5.3355l-1.4041 6.178-16.006-10.109-5.6163-1.9657-0.84245-2.8082-5.897-0.28049-4.7738 3.0889-1.1233-1.9657-7.3012-0.5616 2.8081-3.3698-3.0889-3.3698v-2.2465h3.0889l0.28079-1.404 3.3698-3.0889-1.1233-4.2123-2.1061 2.2464 2.1061-2.2464 2.1061-2.2464z" fill="#e2b584" />
  <path id="Suryapet" class="enabled" d="m69.657 139.69 0.56164-2.8081 7.3012 2.5273 3.6506-0.84242v2.8082l5.0547 4.2122 2.2464-1.404 1.4041 3.0889-0.56164 2.8082 3.6506 3.6506v3.3698l3.9314 0.56157 2.5274 3.3698-1.6849 1.6849 0.56164 3.6506 1.9657 2.8082h2.2464l4.7738 5.0547 2.8081 1.9657 1.1233 5.6163-3.3698 4.493-1.1233 3.6506 3.3698 0.84249 1.9657 2.8081 1.1232 0.56157-1.6849 2.8082 0.56164 2.5273-3.0889 2.8082-1.6849 1.404-2.5274 4.2123-3.3698 0.56158-2.5274-0.84244-1.6849-4.7738-3.0889 0.56158-10.952-0.56158 10.952 0.56158c-10.952-0.56158-12.257 0.0615-10.952-0.56158l-1.6849-3.0889 0.28079-7.8628-4.4931-6.4587-3.3698-16.849-3.9314-4.2123-0.84249-5.3355-2.2464-1.9657-0.28079-3.3698-3.3698-5.0548-2.2465-6.4587-4.2123-2.8082 9.2669-1.1232z" fill="#abacda" />
  <path id="Khammam" class="enabled" d="m123.02 132.68 10.109-0.56159v4.2123l1.6849 0.84242 3.0889-3.9313 1.1233 3.0889h4.2123l2.8081 2.2464h4.2123l0.56163 4.4931s-0.84245 8.4244 0.56164 9.2668c1.4041 0.84248 4.7738 4.2123 4.7738 4.2123h3.0889l2.2464-1.404 2.2464 2.2465 3.3698-6.4588 4.2123 1.6849 1.4041-1.9656 2.5274 1.404-1.1232 7.3012-1.1233 1.1232 4.2123 1.1233 1.4041 2.2465-0.56157 3.3698-2.5274-0.28047-1.4041 3.0889 0.28048 2.8081-0.84249 3.6506-5.3355-1.404-7.0204-2.8081-3.9314 2.2464 0.84244-3.9313-4.493-2.2465-1.4041-1.1233-3.0889 2.8082-2.2464 0.28047-1.9657 4.493-2.5274 1.6849-1.6849 1.1233-3.3698-5.897-1.6849 1.404 1.9657 5.3355-1.9657 2.2465 6.7395 2.5274 3.0889 3.0889v-3.0889l3.0889 0.84241 0.84244-1.404 3.9314 2.5273-0.56163 2.2465 0.56163 1.404-2.2464 0.56157 0.56163 3.3698-1.4041 0.56159 2.2465 0.84248 1.9657 2.2464h-2.5274l-0.28079 2.2465-4.4931-1.4041-3.6506-0.28047-0.56164-2.2464-2.5274-2.5274-2.2464-0.56159-1.6849 1.9657-1.4041-2.5274-2.8081-2.8081-0.84246-5.3355-3.3698-5.3355-3.0889 1.4041-1.9657-1.1233v-1.9657l-1.6849-1.1233-1.9657 3.9314-8.1436 3.0889-1.1232-5.6163-7.582-7.0204h-2.2462l-2.5274-6.4588 1.6849-1.6849-2.5274-3.3698-3.9314-0.5616v-3.3699l6.178-2.2464v-1.9657l5.0548-2.5274 2.2464 0.28047v2.8082l3.9314 1.1233 2.8081-1.1233 2.5274 0.56157 1.4041-1.9657h2.5274l3.9314-9.5476h1.9657z" fill="#c2f0c2" />
  <path id="Bhadradri kothagudem" class="enabled" d="m120.78 120.89 2.2464-3.0889-1.1233-1.685 4.7738-2.2464 2.2464-7.582v-3.9313l3.0889-2.8082 3.6506-5.6162 2.2464-1.9657 4.7738 1.9657 5.897 0.28048 3.0889-0.84242 2.5274-3.0889s0.84242-1.9657 1.9657-1.9657c1.1232 0 5.0548-0.84248 5.0548-0.84248l3.3698 2.5274 2.8081-4.7738 2.5274-2.2465 0.28048-3.0889 4.7738 0.84248-1.6849 2.2464 1.1233 5.3355 3.9313-1.9656 2.2465-2.5274 2.2464 0.56157-1.9656 4.493-0.2811 3.3699 1.4041 3.0889 0.84242 7.0204 1.9657 4.2123 0.56158 6.178 3.6506 3.6506 3.0889-1.9657 0.56157 3.0889-1.1233 1.6849-2.5274 0.28048-3.0889-1.9656-3.0889-0.28109s-1.6849-2.5274-2.5274-1.1233c-0.84242 1.4041-1.4041 1.9657-1.4041 1.9657l-3.0889-0.84242 1.1233 4.493-2.2465 3.3699 1.6849 1.9657 5.8971-1.1233 3.0889 1.6849-3.0889 2.8081 0.2811 4.7739 3.3698 2.2464 0.28048 2.8081 1.6849-1.404 3.6506 1.9657 3.0889-2.2464 2.8082 2.2464-1.9657 3.0889 1.9657 1.404 3.9313-2.2464 0.84242 3.6506h3.6506l1.9657 4.2123-1.9657 2.2464-7.8627-1.4041-0.56157 1.1233v2.5273l1.9657 3.0889-3.9314 1.6849-4.2123 0.56157-1.6849 1.1233-1.6849 0.28047-2.5274 2.5274-6.7395-0.84242-5.6162-3.3698 2.2464-8.4245-2.5274-1.4041-1.4041 1.9657-4.2123-1.6849-3.3698 6.4587-2.2464-2.2464-2.2464 1.4041h-3.0882l-5.3355-4.7738-0.56164-13.198h-4.2123l-2.8081-2.2464h-4.2123l-1.1233-3.0889-3.0889 3.9314-1.6849-0.84248v-4.2123l-10.109 0.56157 1.9657-4.6335 1.9657-4.6335 1.9657 0.28047-2.2464-5.3355-3.9314 1.6849z" fill="#a3b0a3" />
  <path id="Mahabubabad" class="enabled" d="m117.97 91.4 14.041 8.1437-3.0889 2.8081-2.2464 11.513-4.7738 2.2465 1.1233 1.6849-2.2464 3.0889 5.897-2.5274 2.2464 5.3355-1.9657-0.28049-3.9314 9.2669 2.5274 6.4587h-1.9657l-3.9314 9.5477h-2.5274l-1.4041 1.9656-2.5274-0.56159h-6.7395v-2.8081l-2.2464-0.28049-5.0546 2.5274v1.9657l-6.178 2.2464-3.6506-3.6506 0.56164-2.8081-1.4041-3.0889-2.2464 1.4041-5.0547-4.2123v-2.8082l-3.6506 0.84242-1.6849-12.075 3.6506 1.1233 4.7738-6.4587 8.1437 0.28048 4.4931-3.0889 3.3698 0.84242-0.28078-5.6163 2.8081-5.6162 4.2123-0.2811-1.6849-6.178 4.4931-6.1779 0.28085-5.0546 2.8081 2.2464z" fill="#f3d6e9" />
 </g>
 <g fill="none" stroke="#000">
  <path d="m8.6742 71.142 3.4432 1.9676h2.4595l1.2297 2.7054 3.4432 0.98378 3.6892 2.4595 2.2135-0.98378 7.3784 1.7216 3.1973 0.49189 0.73783 1.4757h1.7216l4.673 1.7216 0.24594-0.49189 4.673 2.4595 4.9189 0.24595 9.5919 3.1973 14.511-0.49189 3.1973 1.4757 4.427 1.2297 0.98378 1.7216 2.4595-0.73784 2.7054 0.73784 1.7216 1.9676h1.7216l3.1973 2.2135 4.427-1.4757 3.1973-0.24595 3.4432 0.24595 1.9676 1.4757 2.4595-0.24595 6.3946-0.24594 1.9676-0.73784 1.7216 1.2297 1.9676-0.49189 3.9351 1.9676 1.7216-0.98378 1.7216-0.24594 0.73782 1.4757 2.2135-1.4757 3.1973 0.24594 2.9513-0.49189 3.4433 0.49189h3.4432l4.673-2.2135 3.1973-1.4757 7.8703-1.4757 2.7054-2.4595 1.2297-0.49189 2.4595-1.2297 2.4594-0.24594 4.1811 0.98378 2.7054-0.73784 3.9352-0.49189 4.9189-1.7216" stroke-width=".5px"/>
  <path d="m237.38 51.473-4.6786 0.23393-7.9536 0.93573-4.9126 1.1697-2.1054 0.46786-2.1054 0.46786-1.1697-1.6375-3.275-1.1697-1.6375-0.46786-2.3393 4.9125-1.6375 2.5732v1.1697l-2.1054 1.4036-1.8714 0.93572-0.70178 2.8072-0.23394 0.70179-1.1696 2.5732-1.4036 2.1054-0.46787 1.8714-0.46786 3.275-1.1696 1.1697-1.4036 2.3393-1.6375 3.0411-1.1696 1.8714-3.275 1.8715" stroke-width=".5px"/>
  <path d="m8.6779 71.128 7.5844-1.8073h2.9359l3.9145-0.67774 6.1165-3.3887 4.1592-1.3555 3.1806-1.1296 4.8932-0.45183 6.3611-3.1628 3.4252-0.22592 3.4252-2.2591 4.4039-0.67774 3.6699 0.67774 3.9145 2.711 6.6058 1.5814 2.4466 1.8073 4.8932 0.67774 10.52 0.67774 1.7126-1.1296 2.9359 1.8073 2.9359 2.9369 3.9145-1.3555 3.1806-0.45183 4.1592-1.8073 2.9359-1.5814 3.6699-2.4851 2.9359-0.67774h2.9359l0.73398-2.4851 1.468-1.3555 3.9145-1.3555 2.2019-0.90366 2.9359-0.90366 2.4466-0.90366 2.6912-0.90366 2.9359-0.90366 1.7126-1.1296 2.6912 0.22592-0.48932 1.5814h3.6699l2.6912 1.1296 6.1165-2.0332h3.6699l3.1806 0.45183 2.4466 0.67774 4.1592-1.1296h3.9145l4.1592 1.8073 3.6699 0.90366 3.4253 0.67774 4.6485-1.3555 1.2233 0.90366 7.0951-0.22592 6.3611-2.2591 3.4253 1.5814" stroke-width=".5px"/>
  <path d="m85.409 93.032 1.7493 3.4987 2.1867 3.0614 0.65601 1.968 1.312 1.7494 3.28 1.7494-1.968 1.312v0.87467h-1.5307" stroke-width=".5px"/>
  <path d="m108.28 95.737-3.9443 1.9624-3.0162 2.9436-2.0881 2.2077-1.3921 1.7171-3.2482 0.4906" stroke-width=".5px"/>
 </g>
 <g fill-rule="evenodd" stroke-width=".4955">
  <ellipse cx="8.3455" cy="70.842" rx="3.0969" ry="3.4066"/>
  <ellipse cx="91.571" cy="107.45" rx="3.0969" ry="3.4066"/>
  <ellipse cx="237.43" cy="51.229" rx="3.0969" ry="3.4066"/>
  <ellipse cx="189.59" cy="85.994" rx="3.0969" ry="3.4066"/>
  <ellipse cx="173.83" cy="49.975" rx="3.0969" ry="3.4066"/>
  <ellipse cx="148.29" cy="97.103" rx="3.0969" ry="3.4066"/>
 </g>
 <path d="m173.83 49.382 0.67504 4.9164-0.90004 2.5753 1.1251 0.23412-0.22503 1.1706 1.8001 1.6388v4.2141l0.67503 2.107v3.5117l3.3752 2.8094v2.5753l1.8001 3.7458 2.7002 3.9799 0.67504 2.107 2.9252 1.1706" fill="none" stroke="#000" stroke-width=".5px"/>
 <path d="m173.61 56.874-1.4772 6.8842-1.1079 4.0356-1.6618 1.1869-1.4772 2.1365-1.6618 0.94955h-1.4772l-2.2157 0.94955-0.92323 1.6617-0.92322 2.1365-0.18463 2.6113-0.3693 2.1365-1.8464 3.3234-2.0311 3.086-2.0311 1.1869-2.2157 2.6113-2.585 2.3739-1.2925 3.5608" fill="none" stroke="#000" stroke-width=".5px"/>
 <g fill="#000000" font-family="sans-serif" font-size="3.5279px" letter-spacing="0px" stroke-width=".26459" word-spacing="0px">
  <text x="3.3943915" y="85.457031" style="line-height:1.25" xml:space="preserve"><tspan x="3.3943915" y="85.457031" font-size="4.939px" stroke-width=".26459">Hyderabad</tspan></text>
  <text x="93.867142" y="114.91125" style="line-height:1.25" xml:space="preserve"><tspan x="93.867142" y="114.91125" font-size="4.939px" stroke-width=".26459">Nalgonda</tspan></text>
  <text x="151.77716" y="106.17484" style="line-height:1.25" xml:space="preserve"><tspan x="151.77716" y="106.17484" font-size="4.939px" stroke-width=".26459">Suryapet</tspan></text>
  <text x="194.71045" y="86.205872" style="line-height:1.25" xml:space="preserve"><tspan x="194.71045" y="86.205872" font-size="4.939px" stroke-width=".26459">Khammam</tspan></text>
  <text x="171.99574" y="41.525299" style="line-height:1.25" xml:space="preserve"><tspan x="171.99574" y="41.525299" font-size="4.939px" stroke-width=".26459">Mahabubabad</tspan></text>
  <text x="227.40965" y="45.019871" style="line-height:1.25" xml:space="preserve"><tspan x="227.40965" y="45.019871" font-size="4.939px" stroke-width=".26459">Kothagudem</tspan></text>
 </g>
</svg>
