<svg width="175.66mm" height="215.96mm" version="1.1" viewBox="0 0 175.6514 215.95807" xmlns="http://www.w3.org/2000/svg">
 <g transform="translate(-21.682 -32.649)" stroke="#fff" stroke-width=".5px">
  <path d="m102.73 240.82 8.2541-6.7842 0.33921 1.4699 0.79149-0.45228 0.56535-1.0176-1.4699-4.2966 1.2438 0.33921 0.90456-0.11307 1.0176 0.79149 2.3745-0.90456-0.11307-0.33921 1.1307-0.11307 0.22614-1.3568-2.6006-0.79149v-0.90455l-1.1307 0.22614-0.22613-1.4699-1.583-1.2438-1.3568-1.9222-0.56535 1.2438-0.56535-0.33921v-1.2438l-1.0176-0.45227-0.56535-0.79149h0.67842l0.79149-1.3568s3.0529 1.3568 3.166 0.90456-0.11307-1.9222-0.11307-1.9222l-0.79149-0.56535-0.22614-1.8091h-0.79149l0.67842-1.1307-2.1483-1.1307-0.11307-1.696-0.90456-0.56535-0.56535-2.8267 0.56535-0.45228-0.45228-0.79149-1.2438 0.22614-0.56535-3.0529-1.1307-0.33921-1.696-2.9398s-0.56535-1.583 0.11307-1.8091 0.67842-1.583 0.67842-1.583l0.90456-1.4699-0.67842-0.56535h-1.3568l-1.8091-1.9222-1.6961-1.2438 0.33922-1.2438-1.6961-1.583-1.583-0.22614-0.56535 1.0176-1.2438-0.22614-1.0176 0.56535-1.2438-0.11307-0.45228-1.583-0.67842-0.79148-0.56535-5.4274-2.0352-0.45229 0.56535 1.4699-2.3745 1.583-1.2438-0.45228-1.8091 0.79149-1.1307-0.45228-1.1307-2.4875-1.2438 0.11307-1.2438-0.7915-0.45228 1.0176-1.696-0.67842v1.0176l-1.2438-0.90456s-2.4875 1.0176-2.0353 1.696c0.45228 0.67842-0.90455 0.22614-0.90455 0.22614h-2.9398l-1.1307-0.67842-1.0176 1.1307-1.8091-0.45228 1.4699 1.583s-2.0352 0-2.0352 0.67842-0.22614 1.8091-0.22614 1.8091l-2.2614-0.11306v-1.2438l-1.583-0.45228-1.2438 1.3568-1.3568-0.33922-0.11307 1.0176-1.583-0.11307v1.2438h-1.696l-0.22614 1.0176s-2.2614 2.3745-1.4699 4.6359-2.4875 2.4875-2.4875 2.4875l-0.67841-0.33921 0.11306 1.0176-1.696 0.11307 1.0176 1.8091-2.0353 0.79149-2.0353 0.11307-0.90456-0.56535-0.90455 0.90456 0.67842 1.8091 0.11306 1.1307 1.3568 0.22613-1.4699 1.3568 1.0176 0.56535-0.22614 2.0353 0.33921 8.3672 1.3568 1.2438v2.3745l0.79149 0.79148-0.11307 1.1307h1.0176l0.22614 2.1483 3.166 4.4097 3.279 1.4699 3.5052-0.56535-0.33921-0.45228 1.2438-0.79149-1.1307-1.583-1.4699-0.33921 0.11307-0.90455-0.33921-2.1483-1.0176-3.6182-1.3568-2.9398 0.11307-2.7137-1.0176-1.2438 1.3568-1.0176-0.56535-1.9222 1.0176-0.90455-0.79149-1.4699h2.1483l-0.33921-2.1483 1.4699-1.0176-1.696-1.0176 0.22615-0.79149 1.2438 0.79149 0.45228-1.8091 0.56535-0.11307 0.33921 2.2614 4.1836-0.67842 1.3568 0.56535-1.1307 1.3568 1.3568 0.22614 2.1483 2.2614-1.2438 0.67842-0.90456 0.22614 0.79149 1.2438 1.8091-0.90456 1.2438 0.79149-0.11307 1.696-1.3568 0.56535 2.1483 0.67842 1.9222-0.22614 0.79149 1.696h-2.2614l0.22614 1.1307 0.79149 0.67841-1.3568 1.8091h1.4699l1.3568-0.22614-1.583 1.1307 0.67842 1.2438 1.8091-1.0176-0.45228 1.2438-1.696 0.90455 0.45228 0.67842h1.0176l0.56535 0.67842 0.45227 1.0176h-1.3568l0.45228 1.0176 0.90455 0.11307 0.11307 1.583 1.583 0.22614-0.56535 2.1483 1.1307 1.2438-1.696 0.79149 1.4699 0.45228-0.45228 2.6006h2.9398l-1.696 2.2614 0.79149 0.67842-0.22614 2.7137h1.1307l3.9574 3.8444 1.9222-1.2438 1.0176 0.33921 1.2438 1.3568-0.79149 1.4699 1.696 0.45228 0.56535 0.90456-0.45228 1.0176 1.3568-1.0176 0.67842-2.4875 0.90455 0.22613 1.9222-3.0529 0.90456 1.1307 1.0176-0.90456h2.3745l0.33921 1.0176 2.0353-1.696 1.9222 0.33921z" fill="#9c9"/>
  <path d="m55.917 183.07 0.0919-1.6536-1.1943-1.2862-0.55122-1.4699 1.9292-3.8585-0.91869-1.4699h1.1943l-1.7455-1.2862 0.0919-3.2154 2.0211-1.0106 3.9504-1.9292 1.0106-0.27561 1.4699 1.1024 1.378-0.45934-0.27561-0.9187 1.2862-0.91869c0.38854-2.264-1.209-2.3615-4.1341-1.0106 0 0-2.9398 2.0211-3.9504 1.7455s0.18374-3.5829-0.64308-4.0422c-0.82683-0.45935 3.491-3.3073 3.491-3.3073l2.2967-2.6642 3.1236-4.1341 1.378-2.2967 1.9292-0.73496 0.45935 0.73496-0.73496 1.2862v0.82683l1.5618-0.55122 0.82682-0.18373 1.2863-0.45652-9e-5 -3e-3 4.0422-0.73495 1.7455-1.378-2.4805-3.3992s2.5723-1.0106 2.4805-1.7455c-0.0919-0.73495 2.3886-1.378 2.3886-1.9292 0-0.55122-1.7455-2.2049-0.73495-2.6642s2.2049-0.91869 2.2049-0.91869l2.3886-0.18374 1.5618 1.1024 2.2049-0.0919 0.91869-1.4699 2.6642 0.64309 2.113 0.0919 1.7455 1.0106 3.3073-0.64309 0.36748 0.36748 0.55122 1.5618v3.3992l-1.378 1.5618 0.2756 1.4699 1.2862 0.36748 0.36748 2.2967 0.55122 1.5618-0.45935 4.0422 0.91869 6.2471 1.6536 0.82682 1.0106 1.378-0.73495 0.27561 0.91869 0.82682-0.0919 1.2862-1.5618 0.0919 0.18373 0.91869-1.6536 1.1943s0.91869 0.73495 1.378 0.55121c0.45935-0.18374 2.113-1.0106 2.113-1.0106l0.82682 0.64309 0.18374 1.4699v1.5618l1.9292 0.55122 0.36748 1.9292 2.7561 1.9292 0.64307 3.3073 1.0106 2.2967-0.73495 0.91869h1.6536l1.1943-0.55122-0.0919 1.9293 1.1943-0.9187 3.0317-0.18374-1.0106-3.491-0.91869-1.1943 1.1943-1.8374 1.6536 0.27561 0.64309 0.27561 0.64308 0.82682 1.4699-0.27561 1.4699 0.64309 0.36747 2.0211-1.4699 2.2049 0.91869 0.64309 2.6642 0.18373-1.378 1.2862 0.0919 0.64309-1.9293 1.1024-1.4699-0.18374-1.378 1.5618-0.27561 3.491-1.5618 0.45935-0.55121 1.1024h-1.0106l-0.0919 1.5618-1.1024 0.64308-0.36748 1.5618-2.2049 2.113-0.55122 0.64309-0.73495 2.4805v1.7455l-1.0106 0.0919v2.4805l0.55122 0.36747-0.2756 1.5618 1.1024 0.18374 0.82683 1.2862 0.36747 1.9292-0.73495 0.45935 0.36748 0.91869 0.18373 0.91869 1.1024 1.1024-0.18374 0.82682 1.1943 0.55122-0.18374 1.6536 0.64308 1.6536 0.18374 2.7561-0.36747 0.55122 0.82682 0.45934v1.7455l0.45939 1.0105 0.0919 0.18374v0.64308l0.18373 0.36748 1.2862-0.0919 1.1943 0.91869-1.6819 1.6112-2.6006-0.79149v-0.90455l-1.1307 0.22614-0.22613-1.4699-2.9398-3.166-0.56535 1.2438-0.56535-0.33921v-1.2438l-1.583-1.2438h0.67842l0.79149-1.3568 3.0246 1.0035 0.0283-2.0211-0.79149-0.56535-0.22614-1.8091h-0.79149l0.67842-1.1307-2.1483-1.1307-0.11307-1.696-0.90456-0.56535-0.56535-2.8267 0.56535-0.45228-0.45228-0.79149-1.2438 0.22614-0.56535-3.0529-1.1307-0.33921-1.696-2.9398 0.79149-3.3921 0.90456-1.4699-0.67842-0.56535h-1.3568l-3.5052-3.166 0.33922-1.2438-1.6961-1.583-1.583-0.22614-0.56535 1.0176-1.2438-0.22614-1.0176 0.56535-1.2438-0.11307-0.45228-1.583-0.67842-0.79148-0.56535-5.4274-2.0352-0.45229 0.56534 1.4699-2.3745 1.583-1.2438-0.45228-1.8091 0.79149-1.1307-0.45228-1.1307-2.4875-1.2438 0.11307-1.2438-0.7915-0.45228 1.0176-1.696-0.67842v1.0176l-1.2438-0.90456-2.9398 1.9222h-2.9398l-1.1307-0.67842-1.0176 1.1307-1.8091-0.45228 1.4699 1.583-1.9999 0.30388-0.26147 2.1836-2.2614-0.11306v-1.2438l-1.583-0.45228-9e-5 3e-5 9e-5 -3e-5 -2.6006 1.0176-2.2049-4.5157z" fill="#fcc"/>
  <path d="m99.096 137.32 0.9187 5.3284-1.3781 1.5618 0.2756 1.4699 1.2862 0.36748 0.36748 2.2967 0.55122 1.5618-0.45935 4.0422 0.91869 6.2471 1.6536 0.82682 1.0106 1.378 0.1838 1.1024-0.0919 1.2862-1.378 1.0106-1.6537 1.1943h3e-5l1.5367 0.74327 2.7811-0.55953 0.18374 3.0317 1.9292 0.55122 0.36748 1.9292 2.7561 1.9292 0.64308 3.3073 1.0106 2.2967-0.73495 0.91869 2.8479-0.55122-0.0919 1.9293 1.1943-0.9187 3.0317-0.18374-1.9292-4.6853 1.1943-1.8374 2.2967 0.55122 0.64308 0.82682 1.4699-0.27561 1.4699 0.64309 0.36747 2.0211-1.4699 2.2049 3.5829 0.82682 2.7723-2.2752 1.3834 1.0376 1.3834-0.17293 1.0376 0.69172h1.9022l-0.34586-3.8045 1.9022-1.5564 1.5564-1.2105 1.0376 0.17293v-0.86465l0.51879-1.0376-0.34586-1.2105-1.0376-1.9022v-0.86465h-1.3834l1.2105-1.7293-1.0376-6.7443-0.51879-0.86465 0.51879-1.7293-2.0752-2.9398 0.51879-2.421-0.86465-1.3834v-1.7293l-0.86465-1.7293 1.5564-1.3834h1.9022l-0.5188-1.3834-0.86465-1.9022 1.7293-2.2481 1.3834 0.17293h1.2105l1.7293 3.4586 0.69173 2.0752-0.34586 1.2105 3.2857 2.2481 1.3834-0.17293 2.2481 1.9022 1.9022 0.17293 2.0752 0.86466 2.0752-2.0752-0.69172-1.5564 1.2105-1.5564 2.2481 0.69172 1.5564-2.0752 1.3834-0.34586 1.7293-2.7669 1.5564-1.3834v-1.0376l3.1128-1.2105h1.2105l0.51879-1.5564-1.0376-0.86465-1.3834-1.7293v-1.9022l-0.51879-1.7293 0.86465-4.6691-1.2105-2.9398-0.86465-2.594-1.3834-2.594-1.5564-3.9774-0.86465-1.0376-1.9022 0.69173-1.9022-1.0376-0.69172-5.1879-3.4586-1.9022v-1.2105l-2.2481 0.17293-0.51879-1.2105-1.9022-2.0752 3.2857-1.5564 0.34586-3.4586-0.51879-1.0376-0.86465-1.9022v-2.7669h-1.2105l-0.51879 0.86465-1.0376-1.0376-1.1975-0.42734-1.0506 0.25441-0.86465 2.9398v0.69172l-1.7293-1.0376-1.7293 1.3834-1.9022 1.0376-0.51879-2.0752-3.8045-2.2481-0.69172 0.17293-1.0376-1.0376h-1.7293l-0.51879-1.2105-0.86465-2.7669-2.594-0.34586-1.7293-1.9022-0.69172-3.6315-3.8045-2.7669 0.51879-1.3834-0.51879-3.1127-3.1127 2.0752-2.0752 0.17293-0.51879-1.2105-2.0752 0.86465-6.0526-4.4962 2.0752 14.18-1.9022 1.7293 1.0376 1.5564-0.51879 3.2857 1.0376 1.2105-0.69172 7.0901-0.51879 3.9774v6.2255l2.7669 2.9398 1.0376 2.0752 0.41426 1.2643 0.27748 1.1567v7.6089l-0.86465 2.7669 1.0376 1.5564-0.17293 1.7293-0.34586 7.7819-1.5564 1.5564 0.5188 1.9022 0.51879 2.0752-1.2105 0.69173 0.51879 1.3834-2.7669 1.2105-0.17293-1.0376-1.9022-1.0376-0.69172-1.0376 1.5564-1.5564-0.5188-3.4586-1.5564-0.51879-1.5564-1.9022v-0.86465l-3.9234 1.3294z" fill="#e2b584"/>
  <path d="m133.3 90.534 1.0376 1.0376 0.69172-0.17293 3.8045 2.2481 0.51879 2.0752 3.6315-2.421 1.7293 1.0376 0.86841-3.6343 2.2481 0.17293 1.0338 1.0404 1.7293-0.86465v2.7669l1.3834 2.9398-0.34586 3.4586-3.2857 1.5564 1.9022 2.0752 0.51879 1.2105 2.2481-0.17293v1.2105l3.4586 1.9022 4.1503-3.1127-0.5188-1.2105 1.2105-3.2857 1.9022-0.34586 1.5564-1.0376-0.17293-1.9022 2.421-3.2857 0.17294-2.421 1.3834-1.3834-2.594-1.9022 0.17293-1.9022 4.3233-0.51879 1.3834-1.7293 0.69172-2.2481v-2.7669l-2.421 0.17293-1.3834-1.9022h-1.9022l0.34587-1.3834-1.9022-2.421v1.3834l-1.9022-1.5564-1.7293-1.0376-1.0376-1.9022-0.86466-1.3834-0.86465 0.34586-1.7293-1.0376h-2.0752l0.34586-3.1127 0.17294-0.86465-2.0752-1.9022s1.5564-7.7819 0.86465-7.9548c-0.69172-0.17293-1.9022 0.17293-1.9022 0.17293l-1.7293-0.17293-2.9398-1.0376-1.0376 0.69172v-1.0376h-2.7669l-1.9022-1.7293-0.34587 1.9022-1.2105 0.17293-2.0752-0.69172 0.86465 1.7293 1.9022 1.2105-0.34586 0.86465 2.594 2.421-0.86466 1.3834-0.34586 1.0376h-1.5564l-2.594-4.4962-0.86465-0.69172-1.5564 1.0376-1.3834 0.86465-2.9398 0.34586 3.2857 10.03-4.1503 13.661-0.34586 4.4962 1.3834 3.9774z" fill="#c2f0c2"/>
  <path d="m154.28 55.925-1.7825-1.3606 7.0901-1.2105 2.2481-3.2857 0.34586-2.594 1.3834-0.34586h0.86465l2.594 1.2105 0.17294-2.2481-1.9022-3.9774 0.17293-2.2481-0.69172-0.86465 0.17293-2.594-0.17293-2.2481 0.86465-1.2105 4.3233 1.5564 1.7293 2.0752h1.9022l1.5564 0.86465 1.0376 0.69172v1.5564l-0.69172 1.7293 1.0376 2.7669 2.9398 1.2105 0.17292 3.6315 1.7293 2.2481-0.17293 3.1127-0.86465 2.7669-2.0752 2.421 0.86466 0.69172 0.17292 1.5564-1.3834 1.3834 0.34586 1.0376-1.7293 0.51879-0.17293 1.3834 1.2105 0.86465-0.17293 2.7669 1.3834 1.3834 6.9172-0.86465v2.421l2.594 1.9022 0.69172 2.594 1.0376 1.7293v2.2481l0.86465 1.7293-0.17293 2.7669-1.0376 1.5564 0.51879 0.86466-1.0376 1.0376 0.86465 0.5188-0.34586 0.86465 0.69172 1.0376-1.2105 1.2105 0.69172 0.69172-1.5564 1.0376 0.86465 1.3834-0.86465 1.0376 1.3834 1.5564-1.2105 0.86465 0.86465 0.86465-0.51879 1.0376 1.2105 1.7293 0.69173 1.3834-0.17293 2.7669-1.9022 1.2105-0.51879 5.015 2.9398 2.0752 0.17293 1.5564-1.3834 0.69172-0.69172 2.2481-0.34586 0.86465 1.3834 0.34586-1.2105 1.2105-0.86465 0.69171-2.2481-0.34586-0.17293-1.0376-3.1128 3.9774 1.3834 1.9022 1.0376 1.7293-3.2857-0.17293-0.51879 2.0752-0.51879 1.5564 1.0376 2.421-0.34586 1.0376 0.34586 4.6691-1.9022 0.34586-1.7293 1.0376 0.34587 2.594-1.9022 1.3834-0.86465 4.3232-1.3834 0.34586-1.3834-1.5564-0.34586-1.3834 1.2105-1.7293-1.7293-2.421-1.0376-0.51879h-1.5564l-0.34586 0.17293-0.69172-4.3233 0.51879-1.5564-1.0376-0.86465-1.3834-3.6315 0.34586-6.3984-5.8796-13.143-1.9022 0.69173-1.9022-1.0376-0.69172-5.1879 4.1503-3.1127-0.5188-1.2105 1.2105-3.2857 3.4586-1.3834-0.17293-1.9022 2.421-3.2857 0.17294-2.421 1.3834-1.3834-2.594-1.9022 0.17293-1.9022 4.3233-0.51879 1.3834-1.7293 0.69172-5.015-2.421 0.17293-1.3834-1.9022h-1.9022l0.34587-1.3834-1.9022-2.421v1.3834l-3.6315-2.594-1.9022-3.2857-0.86465 0.34586-1.7293-1.0376h-2.0752l0.5188-3.9774-2.0752-1.9022 0.74482-6.4211" fill="#a3b0a3"/>
  <path d="m29.891 146.39-1.3834-0.69172-5.015 0.5188-1.0376-1.3834-0.17293-2.9398 1.2105-3.4586h1.5564l1.5564-0.86465 3.4586-0.17293 0.86465 1.9022 1.7293-0.17293-0.34586 1.2105 1.2105-0.17294 1.0376-0.69172 0.69172 1.3834 1.5564-0.17293 0.17293 1.0376 2.421 0.34586 2.2481-2.9398 2.7669 2.9398h1.2105l-0.17293-4.3233 1.7293-1.2105 1.3834 0.86465 2.9398 2.2481 2.0752-0.86466 1.5564-0.51879 0.17293-3.1127 1.7293 1.7293 2.421-0.34586 3.2857 0.34586 0.86465 2.0752 9.3382 0.17293 3.1127-3.4586h1.7293l0.17293-1.5564 4.1503-1.5564 0.0756 4.3071-3.3613 1.2267 1.0376 1.5564 0.69172 1.0376-4.707 3.437 2.4805 3.3992-1.7455 1.378-4.0421 0.73495-1.2862 0.45935-2.3887 0.73492 0.2756-2.848-1.9292 0.73496-6.7983 9.095-3.1714 2.5287 0.25274 3.2524c-1.3931 0.6553-0.14688 2.9802 4.3215-0.22448 2.3852-1.7107 5.5062-0.5288 2.5476 1.9767l-1.1025 1.378c-1.4698-1.1024-3.399-0.91872-6.4307 1.1024l-2.0212 1.0106-0.0919 3.2154 1.7455 1.2862h-1.1943l0.91869 1.4699-1.9292 3.8585 1.7455 2.7561-0.0919 1.6536 0.73502 0.0918 2.2049 4.5157-1.6961 0.90459v1.2438l-1.6959 4e-5 -1.6562 2.7802s-0.07732 3.2402-0.54222 3.9924c-0.4649 0.75215-1.2457 1.0293-1.9852 1.3684l-0.6783-0.33917 0.11295 1.0176-1.696 0.11307 1.0176 1.8091-2.0353 0.79149-2.9398-0.45228-0.90455 0.90456-1.124-3.718 1.5564-1.5564-0.34586 0.17293-3.2857-1.0376 1.2105-3.1128 2.594-0.86465 1.2105-1.2105-4.4962 1.5564 0.34586-1.7293-1.7293-1.2105 1.5564-0.69172h-1.2105l-1.0376-5.3608-1.9022-1.0376 0.69172-0.86466-1.2105-0.69172-1.3834-2.9398 0.17293-4.1503-1.7293-1.0376-0.69173-1.2105-1.9022 0.69172-0.69172-0.69172 1.0376-1.9022-1.0376 0.5188h-1.5564l-0.86465-0.69173 1.9022-4.6691-0.51879 0.51879-2.0752-0.17293-0.51879-2.0752-0.17293-1.5564-1.5564-1.2105-0.17293-1.0376-2.0752-0.34586-0.34586-1.2105-0.86465-4.4962 0.51879-2.421 0.51879-2.0752 2.0752 1.9022h2.0752l0.51879 1.2105 1.3834-0.17293-0.69172-2.0752z" fill="#abacda"/>
  <path d="m32.658 139.13-0.17293-6.7443 1.7293-1.5564-0.17293-1.5564 2.9398-3.1128-2.9398-5.015-1.5564-1.2105 0.86465-2.0752 2.421-1.3834-2.2481-2.2481 3.9774 0.17292h2.7669v-1.3834l-1.2105-1.2105 2.2481-4.842 1.0376 2.2481 1.7293-4.6691 1.3834 0.86465 1.3834-0.34586 3.2857 1.9022 2.421-0.51879 2.0752 1.3834 0.17293-3.2857-0.69172-1.0376 2.421-2.421 1.5564-2.7669-3.4586-5.3608v-2.421l3.1128-1.0376 2.421 0.17293 2.2481 0.86465 1.9022 0.51879 1.9022-0.17293h2.421l1.7293 1.9022-1.0376 2.421 2.9398 2.594 0.69172 4.1503 0.51879 0.86466-0.34586 1.0376 2.594 3.6315 0.17293 2.594 1.3834 2.9398 1.3834-0.17293-1.5564 2.9398 1.3834 1.7293 1.5564-1.0376 0.34586 3.9774 1.5564 2.2481-0.69172 3.4586 0.86465 6.3984-4.1503 1.5564-0.17293 1.5564h-1.7293l-3.1127 3.4586-9.3382-0.17293-0.86465-2.0752h-5.7067l-1.7293-1.7293-0.17293 3.1127-3.6315 1.3834-4.3232-3.1128-1.7293 1.2105 0.17293 4.3233h-1.2105l-2.7669-2.9398-2.2481 2.9398-2.421-0.34586-0.17293-1.0376-1.5564 0.17293-0.69172-1.3834-2.2481 0.86466z" fill="#f3d6e9"/>
  <path d="m68.628 90.88 1.7293 1.9022 5.3608 0.34586 2.9398 1.2105 2.2481-0.69172 1.3834 0.86465 1.0376-0.51879 1.5564 0.69172 1.3834-1.7293-0.17293-1.7293 1.2105 0.51879h2.7669l1.7293-1.7293 0.86465-1.9022-1.2105-1.9022 1.5564-2.594v-3.4586l1.3834 0.86465 1.0376-1.7293-1.7293-3.4586v-1.0376l2.0752-2.0752 0.86465 3.8045 1.3834 1.5564 0.69172 4.3233 2.7669 0.51879 0.69172 1.3834h1.5564l3.9774 2.421 1.9022-1.7293-1.9022 1.7293 1.0376 1.5564-0.51879 3.2857 1.0376 1.2105-1.2105 17.293 2.7667 2.9368 1.7295 4.4992v7.6089l-0.86465 2.7669 1.0376 1.5564-0.51879 9.5112-1.5564 1.5564 1.0376 3.9774-1.2105 0.69173 0.51879 1.3834-2.7669 1.2105-0.17293-1.0376-2.594-2.0752 1.5564-1.5564-0.5188-3.4586-1.5564-0.51879-1.5564-2.7669-3.9234 1.3294-0.36748-0.36748-3.3073 0.64309-1.7455-1.0106-2.113-0.0919-2.6642-0.64309-0.91869 1.4699-2.2049 0.0919-1.5618-1.1024-2.3886 0.18374-0.0756-4.3071-0.86465-6.3984 0.69172-3.4586-1.5564-2.2481-0.34586-3.9774-1.5564 1.0376-1.3834-1.7293 1.5564-2.9398-1.3834 0.17293-1.3834-2.9398-2.7669-6.2255 0.34586-1.0376-0.51879-0.86466-0.69172-4.1503-2.9398-2.594 1.0376-2.421z" fill="#e9e9e9"/>
 </g>
 <g fill="none" stroke="#345">
  <path d="m21.332 95.572-0.09987-1.0831-0.34954-0.27077v-1.6697l-0.19974-0.58666 0.14981-0.72204 0.54926-0.90256v-0.31589l0.14981-0.40615-0.34954-0.72204 0.09986-0.36102 0.64913-0.09026 0.04998-0.58666 0.09986-0.22564 0.69907 0.22564 0.39947-0.40615 0.89881 0.09025 0.39947-0.58666v-0.45128l-0.24967-0.40615 0.49934-0.94768 0.39947-0.22564-0.04997-0.3159 0.34954-0.36102 0.34954-0.04514 0.79894-1.1282v-0.40614l0.2996-0.45128 0.64913-0.18051 0.74901-0.18051 0.69907-0.8123 0.79894-1.0831-0.34954-0.67692 0.5992-1.1282 0.04998-0.45128 0.74901 0.09025 0.34954 0.36102 0.69907-0.58666 0.09986-0.40615-0.04998-0.54153 0.1498-0.36102 1.2483-0.13538 0.29961-0.49641h1.2483l0.34954-0.04512 0.09987-0.8123 0.54927-0.94768 0.79893-0.04514 0.79894-0.40615 0.49933 0.18051 1.498-0.58666 0.49934-0.76717 0.69907-0.54153h0.29961l0.54926 0.54153 1.2483-0.45128 0.24967-0.54153 0.34954-0.36102 1.0486-0.40615 1.7477 0.72204 0.89881-0.49641 0.5992 0.04514 0.29961 0.31589 0.79893-0.4964 0.79894 0.18051v0.36102l0.24967 0.13538 0.44941-0.18051 0.24966 0.36102 0.54927-0.27077 0.39947 0.09025 0.24966 0.40615 0.49934-0.13538h0.29961l0.39946-0.04514 0.39947-0.27077h0.64914l0.5992-0.04512 0.4494-0.09026 0.79894 0.3159 0.4494-0.3159h0.59921l1.0985-0.85743h0.44941l0.99867-0.63179h0.2996l0.44942-0.27077-0.14981-0.4964 0.84887-0.67692v-0.31589l0.34954-0.54153-0.04998-0.36102 0.34954-0.13538 0.04998-0.36102 0.749-0.58666h0.49934l0.64914-1.8954 0.29961-0.36102 0.19973-1.0379h0.74901l0.69906 0.36102 0.14981-0.45128 0.64914 0.13538 0.94872-0.36102" stroke-width=".5px"/>
  <path d="m21.263 95.572-0.74664 1.1214-0.61488 1.3916-0.74664 0.28372 0.1464 1.2565-0.76128 1.5402-0.45384 0.83764 0.45384 1.6618-0.1464 1.4051v0.83765l0.76128 1.2564-0.61488 1.2565v1.5267l-0.74664 2.0941 2.562 4.0531 1.0687 2.3778 1.3615 0.68902-0.16104 2.0941 3.4843 1.1214 0.45384 1.1079 0.90768 1.5402 1.669 0.41884 1.0541 0.1351 1.2151-0.41882 1.8154 1.1214 1.5079 0.55392 1.2005 0.14861 3.1769 3.202 0.30744 1.5402 1.3615-0.1351 0.90768 0.97275 2.5767 0.55392 2.2692 0.83763 1.0541 0.98626v0.68902l2.1228 0.83765v1.2565l-0.76128 1.6753-0.30744 0.97275-0.2928 1.8239-0.02927 1.2159v1.4861l0.92232 1.5807-0.11712 1.1619v1.0538l0.90768 0.72957 1.1566 0.74305 0.10248 0.85117-0.33672 0.72955-0.68808 0.74308 0.8052 1.1619-0.23424 0.31073v0.95923l-0.11712 0.83765 0.35136 1.0538-0.68808 1.4862-0.68808 0.41882-0.57096 0.94571-0.35136 0.95925-0.33672 0.94572-0.8052 0.94572 0.46848 0.74308-0.23424 1.0538v1.27l-0.11712 1.27-0.8052 1.0538 0.23424 1.3645v1.378l-0.33672 0.72956v1.27l-1.6104 1.1619" stroke-width=".5px"/>
  <path d="m21.263 95.572 2.9017-1.4486 4.9105-0.82777 7.1426 3.9319 7.589-0.41388 3.7945 1.6555 2.9017 0.62083 4.2409-1.6555 0.66962 0.41389 2.2321-0.41389 1.3392 1.2417 0.89282-1.0347 2.4553-0.20694 1.116 0.82777 4.4641-1.2416 0.44641-0.82777 0.2232-1.6555 1.3392-1.0347 1.5624 0.20694 2.6785 1.0347 4.0177-0.41389v-1.2417l1.3392-1.0347 0.74896-1.3437v-1.0681l-0.768-1.0681 5.888-3.0855 2.304 0.35602 0.512 1.7801 0.64-0.71204 1.92 1.0681 0.64-1.0681 3.072 0.59337 1.28-0.71204 1.536-1.5428 0.768-2.1361 5.12-1.1867 0.64 0.83071 1.792 0.11867 3.2 1.4241 2.304-1.4241 1.024-1.3054 1.792-2.1361 0.89602-0.23734 0.38399-2.8482 1.792-2.0174 1.28-0.11867 0.51199-1.4241 0.25601-2.2548 1.92-0.35601v-1.7801l1.664-1.6614 0.384-0.59337-0.76799-3.5602-1.792-1.5427v-0.71204l0.63999-0.83071-0.51199-1.0681 0.768-0.59336-0.12799-3.6789 0.76799-0.94939v-1.5427l2.048-1.0681 1.408-1.3054 0.89599-0.83071 0.89598-1.0681h1.536l2.048-0.23734 0.768-0.35602 2.048-0.83071 0.89601-1.1867v-1.1867l3.968-1.8988 0.51199 1.1867 2.688-2.4921-0.25598-1.3054 0.12799-1.068-0.768-1.0681 1.024-0.94938-0.89602-2.3735 1.408-2.3735-1.024-0.83071v-2.7295l1.408-2.0174-0.38399-7.5951" stroke-width=".5px"/>
  <path d="m123.55 26.345-0.18646 1.7321 1.3673 0.93268 0.3729 1.7987 0.93228 0.13324 0.12431 1.7987-0.74581 0.86606 1.1809 0.46634 0.2486 4.8632 0.55935 0.6662 0.0622 1.2658 0.68366 0.73282-0.37291 0.3331-1.3052 0.46634-0.18645 0.59958-0.24861 0.73282-0.3729 0.3331-0.0622 0.53296-0.12431 0.79944 0.31076 0.73282 0.31075 0.19986v0.86606l0.0622 0.79944 0.18645 0.46634" stroke-width=".5px"/>
  <path d="m67.103 62.186 0.57046-1.3335 1.2835 0.28073-0.07131-1.544 0.42785-0.21055 0.99831 0.07019 1.0696-1.1229 1.1409-0.28073 0.78439-1.8247 2.3532-0.56146 1.6401-1.8949h0.927l0.85569-0.49128 0.78439 0.49128 0.57046-0.35091 1.3548 0.98255 0.35654-0.49128 0.49915 0.07019 0.49916-0.56146 0.49916-0.14036 1.3549 0.63164 0.71308-0.35091 1.4262 0.84219 0.99831-0.49128 1.2122 0.91237 0.78439 0.21055 0.71308-0.14036 0.71308-1.6844 1.0696-0.70182 0.14262-0.28073v-0.70182l0.78439-0.63164 1.9253-0.14037 0.64177 1.8247 1.0696-0.28073 0.78438 1.1931 0.78439-0.07019 0.64177 0.77201 0.57046 0.63164 0.35654-0.07019 0.71309-0.35091 0.42784 0.63164 0.85569 0.07019 0.85569 0.14036v1.0527l1.4975 0.63164-0.21391 0.98255 0.49915 0.14036 0.21392 0.49128 0.92701-0.98255 0.7844 0.77201 0.28523-0.70182 0.71307-0.21055 0.21393-0.772 0.927 0.14036 0.57047-0.56146-0.0713-0.84219 0.99831-0.14036 0.28523-0.84219 1.5688-0.77201 0.71308 0.07019 0.28524-0.21055 0.42784-1.1229-0.0713-0.91237 1.2122-0.98255 0.0713-0.42109 0.42784-1.4738v-0.42109l0.71307-0.35091 0.21394-0.91237-0.21394-0.49128 0.28525-1.0527 1.4975-0.42109 0.21391-0.77201v-1.8247l-0.49916-0.56146 0.49916-0.84219 0.85569-0.07019-0.21392-1.0527 0.49915-0.63164 0.0713-0.56146-0.64178-0.84219 0.21393-0.772 0.21392-1.0527 0.42785-2.1757 0.57046-0.70182-0.14261-1.0527 0.85569-0.772 0.0713-0.98256 1.3548-0.63164 0.92701-0.14036 0.14261-1.4036" stroke-width=".5px"/>
  <path d="m115.45 48.149 1.339-0.11462 0.70888-0.11462 0.31507-0.28655h0.70888l0.47259-0.34386h1.7328l0.86642 0.22924 0.31505-0.34386 0.2363-0.45848 0.94518-0.11462 0.94517-0.05731 1.0239 0.45848 1.1027 0.85964" stroke-width=".5px"/>
  <path d="m66.172 62.539-0.07525 0.78327 0.67732 0.46075 0.82785 2.2577 1.0536 1.0597 1.2042 0.23037 0.60207 1.1979-0.97836 0.92149v0.46074l-0.3763 0.23037-1.2042-0.27645-0.1505 0.13822 0.75258 1.1058-0.37629 0.41467v0.3686l-0.07527 0.41467 0.37629 0.3686v0.46074l-0.30103 1.4744 0.67732 0.92149-0.15053 0.3686-0.15051 0.1843-0.82785 0.3686-0.07527 0.23038-1.3547 1.4744 0.37629 2.5802 0.52681 0.13822v0.3686l-0.9031 0.50682 0.07526 1.1519 0.60207 0.23037 0.90311 0.13822 0.15052 0.3686 0.7526-0.04607v0.73719l0.67732 0.32252-0.9031 0.59897v0.69112l0.7526 0.73719 0.15051 0.3686 0.45155 0.50682v0.3686l0.07527 0.5529 0.30105 0.55289-0.3763 0.69112-0.15052 0.87542-0.22577 0.59897v0.41467l0.45154 0.3686-0.45154 0.36859-0.07527 0.41467v0.13822l0.30104 0.3686 0.22577 0.13822 0.90312 0.1843" stroke-width=".5px"/>
  <path d="m38.272 97.169v0.56875l0.28321 0.49337h0.41807l1.0452 1.5555 0.41133-0.21242 0.28321-0.28095 0.8294 0.55505 0.31692 0.08221 0.55967-0.20558v0.32892l0.27646 0.56875 0.51922-0.20557 0.60013 0.24668 0.28321 0.93194 0.60013-0.0412 0.47876 0.2878 0.11463 0.40429 0.51922 0.0412 0.44504 0.32206 0.47876 0.16446 0.27647 0.4043-0.75522 1.2608-0.36412 0.1576-0.15509 0.48653 0.19555 0.37002-0.15509 0.4043 0.4383 0.77433-0.12137 1.254-0.24275 0.37003 0.44504 0.76747-0.40458 0.32207-0.19555 0.41114 0.11463 0.72636-0.19555 0.24669h-0.68105v0.65098l-0.35738 0.0412-0.20229 0.68524 0.20229 0.48653 0.16183 0.12333-0.40458 0.32893-0.15509 0.97304 0.19555 0.12334-0.23601 0.64413v1.4253l-0.12138 0.80858 0.31692 0.4043-0.19555 0.52763-0.16183 1.2197 0.47876 0.36319v0.32891l-0.39784 0.60986 0.12138 0.32207-0.16183 0.20557 0.08092 1.7062-0.16183 0.52763 0.39784 0.23984 0.16183 0.2878-0.20229 0.44541 0.60013 0.56876 0.04046 0.80858 0.20229 0.36317 0.08092 0.41115-0.32367 0.52763 0.24275 0.44542-0.08092 0.65098-0.12138 0.48652 0.12138 0.4043-0.35738 0.8908 0.31692 0.77434 0.20229 0.44541 0.04046 0.60986 0.31692 0.40429v0.40429l-0.31692 0.45226-0.08092 0.60301" stroke-width=".5px"/>
  <path d="m98.929 83.115 1.8235 1.9856 1.1222 0.86869-0.0701 1.9235 0.21039 0.31025 0.56108-0.2482 0.21042 0.2482-0.14026 0.4964-0.42082 0.18615-0.0702 1.0548 0.49095 0.49639v0.99279l0.66697-0.04864-0.26348 0.39961 0.67752 0.1665-0.45169 0.63271h0.52697l-0.0753 0.43291h0.22585v0.1998l0.11291 0.39961 0.4517 0.1332-0.0377 0.76591 0.71518 0.63271-0.18821 1.1988-1.5809 0.99902-0.41405-0.0999-0.86572 0.2664-0.11293 0.43291-0.41405 0.06659-0.0753 1.0656 0.33877 0.36631-0.0376 0.4329-0.37641-0.1665-0.48933 0.23311v0.96572l-0.56461 0.13321-0.67753 0.86582-0.45169 0.29969h-0.30113l-0.41405 1.4319-0.75281 0.23311-0.45168 0.83251 0.41405 0.83251-0.3764 0.39961 0.941 0.53283-1.1292 1.8315 0.71518 0.69933-0.48934 0.3663v0.4329l-1.0163 1.6317 0.52697 0.49951-0.26349 0.46622 0.37641 0.53281-0.07526 0.36631-0.45169 0.49952-0.67753 0.59939-0.71516 0.3996 0.52697 0.19981-0.26349 0.53281-0.30113 0.39962-0.86574 0.3996-0.22584 0.2331-0.07527 0.36631-0.11291 0.1998-0.11293 0.36632-0.15057 0.63271 0.15057 0.29969-0.45169 0.13321v0.26641l0.07528 0.49952v0.33299l-0.26347 0.2997-0.18822 0.16653-0.07527 0.46619v0.43291l0.15056 0.5328 0.15056 0.46623 0.52698 0.0334 0.60224-0.0665-0.03759 0.49951-0.07527 0.2997v0.39962l-0.07526 0.33299 0.07526 0.46623 0.03759 0.2331 0.03768 0.29969 0.67753 0.53282 0.03768 0.2664-0.15056 0.36631 0.15056 0.2331v0.63271l0.11291 0.19981 0.11293 0.36631 0.11291 0.4662-0.22584 0.39962-0.41403-0.0999-0.30115-0.0666-0.26347 0.56611v0.29971l-0.18821 0.59941-0.67753 0.3663 0.33877 0.86582-0.37641 0.333-0.15057 0.36632-0.11293 0.2997-0.60224 0.0999-0.37641-0.0666-0.33876-0.0667-0.30112-0.0334-0.45169 0.1665-0.56462 0.0666-0.30113 0.0665-0.33875 0.0999-0.41406 0.0999-0.07528 0.1665-0.5646 0.0334-0.22584-0.13322-0.41405-0.0334-0.15056 0.16651h-0.41404l-0.45169-0.16651-0.11293-0.36631h-0.52696l-0.30113-0.1332-0.71516-0.0665-0.15056 0.1998-0.41406-0.26639 0.15056 0.4995 0.11293 0.73262 0.15056 0.56611 0.15056 0.69931-0.37641 0.43291 0.03762 0.56611-0.26349 0.0999-0.11291 0.29971-0.45169 0.2664-0.82809 0.0999-0.6399 1.1322 0.26349 0.9324s-0.90337 0.1332-1.0916 0.23311c-0.18819 0.0999-0.82809 0.4995-0.82809 0.4995l-0.52697-0.2664-0.18819 0.2997 0.11291 0.36631-0.67753 0.59941-0.41404-0.1665-0.18821 0.1332 0.03765 0.49952-0.22584 0.0999-0.41406-0.29969-0.97865 0.76591 0.03765 0.73262-0.15056 0.0665h-0.6399l-0.3764 0.59942-0.22584 0.39961-0.60225-0.66602-0.45169-0.33301h-0.75281l-0.52697 0.33301-0.52697 0.26641-0.67753 0.26639-0.75281 0.73263-0.60225 0.39961 0.07528 0.4662 0.07529 0.59941-0.45169-0.0666-0.75281-0.26641v0.33301l0.04732 0.40349-0.28506 0.15132 0.057 0.25219 0.11403 0.45395-0.57012 0.0505 0.34207 0.85745-0.85517 1.4122 1.3113 0.50436-0.68414 1.614 0.22805 0.70613-0.68414 0.45394-0.05701 0.65569-0.11402 0.90788-0.51309-0.20175-0.22805-0.15131-0.28506 0.45393-0.17103 0.6557-0.85517-0.10083-0.05701 0.65568-0.62711 0.2522-0.17103 0.55481-0.05701 0.30262-0.9692 0.0505 0.17104 0.85744-0.74115-0.10083-0.11402 0.40352-0.22805 0.80698-0.79814 0.10084-1.1402 0.20176-0.57012 1.1096-0.5701-0.15131-0.74115 0.50438-0.28506 0.4035-0.5131 0.65569-0.39906 0.20174-0.45609 0.65571-0.22804 0.60525v0.45394l0.5131 1.7653-0.11402 0.55481 0.057 0.70612-0.62713 0.25221-0.28506 0.30263-0.11402 0.75655-0.74115 0.35308-1.0262 0.10083-0.22805 0.60525-0.11402 0.85745-0.68414 0.30263-0.34207 0.30262-0.57011 0.0505-0.28506 0.50438-0.5131 0.25218-0.45609 0.60526-0.74115 0.55482-0.45609 0.75656-0.34207 1.0592-0.057 0.25219-0.96919 0.10083-0.91218 0.10083h-1.0832l-2.1664 0.0505" stroke-width=".5px"/>
 </g>
 <g fill-rule="evenodd" stroke-width=".16692">
  <ellipse cx="142.61" cy="18.303" rx="2.4199" ry="2.544"/>
  <ellipse cx="21.571" cy="95.464" rx="2.4199" ry="2.544"/>
  <ellipse cx="66.695" cy="62.314" rx="2.4199" ry="2.544"/>
  <ellipse cx="98.904" cy="83.164" rx="2.4199" ry="2.544"/>
  <ellipse cx="124.38" cy="24.916" rx="2.4199" ry="2.544"/>
  <ellipse cx="45.701" cy="173.75" rx="2.4199" ry="2.544"/>
  <ellipse cx="47.714" cy="135.79" rx="2.4199" ry="2.544"/>
  <ellipse cx="29.021" cy="124.58" rx="2.4199" ry="2.544"/>
 </g>
 <path d="m142.37 18.048-1.0955 0.86183-1.1098 1.7085-1.0955 0.1512-0.65447 0.39312-0.0712 1.5573h-0.44106l-0.29878 0.69552-0.28455 1.2398-0.58333 0.46872 0.51219 1.5573-1.252 0.61992-1.0955 0.39312-0.21341-0.39312h-1.3943l-0.22765-0.54432-1.0955 0.78624-0.28456 1.2398-0.3699-0.39312-0.88212-0.46871-0.14228 1.1642-0.29878-0.378-0.35569 0.54432-1.4654-0.54432-0.44106 0.378-0.51219 0.16632-0.44106-0.39312-0.65447 0.39312-1.3943-0.24192" fill="none" stroke="#345" stroke-width=".5px"/>
 <g fill="#000000" font-family="sans-serif" font-size="3.5277px" letter-spacing="0px" stroke-width=".26458" word-spacing="0px">
  <text x="144.59647" y="24.189068" style="line-height:1.25" xml:space="preserve"><tspan x="144.59647" y="24.189068" font-size="4.2332px" stroke-width=".26458">Dharmanagar</tspan></text>
  <text x="108.88972" y="21.028694" style="line-height:1.25" xml:space="preserve"><tspan x="108.88972" y="21.028694" font-size="4.2332px" stroke-width=".26458">Kailashahar</tspan></text>
  <text x="93.864326" y="78.84375" style="line-height:1.25" xml:space="preserve"><tspan x="93.864326" y="78.84375" font-size="4.2332px" stroke-width=".26458">Ambassa</tspan></text>
  <text x="48.679302" y="131.75922" style="line-height:1.25" xml:space="preserve"><tspan x="48.679302" y="131.75922" font-size="4.2332px" stroke-width=".26458">Udaipur</tspan></text>
  <text x="8.502738" y="131.3237" style="line-height:1.25" xml:space="preserve"><tspan x="8.502738" y="131.3237" font-size="4.2332px" stroke-width=".26458">Bishramganj</tspan></text>
  <text x="49.44146" y="176.50871" style="line-height:1.25" xml:space="preserve"><tspan x="49.44146" y="176.50871" font-size="4.2332px" stroke-width=".26458">Belonia</tspan></text>
  <text x="24.834675" y="91.147148" style="line-height:1.25" xml:space="preserve"><tspan x="24.834675" y="91.147148" font-size="4.2332px" stroke-width=".26458">Agartala</tspan></text>
  <text x="52.490086" y="58.047745" style="line-height:1.25" xml:space="preserve"><tspan x="52.490086" y="58.047745" font-size="4.2332px" stroke-width=".26458">Khowai</tspan></text>
 </g>
</svg>
