<svg width="319.53mm" height="290.32mm" version="1.1" viewBox="0 0 319.52284 290.31343" xmlns="http://www.w3.org/2000/svg" xmlns:cc="http://creativecommons.org/ns#" xmlns:dc="http://purl.org/dc/elements/1.1/" xmlns:rdf="http://www.w3.org/1999/02/22-rdf-syntax-ns#">
 <metadata>
  <rdf:RDF>
   <cc:Work rdf:about="">
    <dc:format>image/svg+xml</dc:format>
    <dc:type rdf:resource="http://purl.org/dc/dcmitype/StillImage"/>
    <dc:title/>
   </cc:Work>
  </rdf:RDF>
 </metadata>
 <g>
  <g transform="translate(118.53 -4.0582)" stroke-width=".5" stroke="#fff">
   <path id="Maharajganj" d="m126.89 4.5965c-11.937 0.070845-12.481 0.33108-17.477 7.5982-7.6685 3.2408-6.8805 2.1933-11.119 7.1259-2.4447 2.8351-1.1862 6.9868-3.5441 9.6774-0.78117 0.89684-3.9057 6.9578-1.1428 6.8277-1.3019-4.4266 11.891-1.8371 13.8-1.678 0.0579 3.0668-0.62203 6.3503 2.734 7.8259 3.414 1.49 7.0014 2.329 10.227 4.2961 2.6472 1.6057 2.3 1.2441 5.0484-0.53519 2.0107-1.3164 4.3107-2.1554 6.4082-3.3128 4.1806-2.2711 4.2961-5.4246 6.1769-9.3013 1.1138-2.3 2.893-2.329 3.0522-5.0051 0.14449-2.3289 0.40502-4.6723 1.6491-6.7121 1.5044-2.4447 5.0484-1.5189 6.8856-3.9492-4.5643-1.9635-4.5328-1.7382-6.2176-6.8052-4.3175 0.34204-3.7626 0.48719-8.5678-3.8014-7.9139-2.2516-10.535-2.658-14.195-2.5133" fill="#e2b584" />
   <path id="Kushinagar" d="m148.09 18.962c-3.5006 1.7214-5.5693 0.91138-6.6252 5.5983-0.57865 2.6038 0.18807 4.5711-1.8227 6.3503-1.7937 1.5623-2.2566 3.92-2.9942 6.061-1.7938 5.2222-7.0303 6.0321-11.225 8.7517-1.7359 1.1283-4.3108 1.9818-1.5334 3.3271 1.4176 0.69428 1.6346 3.0232 1.7938 4.3687 0.4484 3.8188 0.52074 7.2617 1.4755 11.037 2.6761-0.21703 5.3523 0.05791 8.014 0.24599 1.3164 0.11555 2.6183 0.17346 3.9346 0.17346 3.0232 0 1.4321-0.67986 2.6327-2.6906 3.8913-6.5094 14.61 8.5782 16.679 10.43 3.6453 3.2692 7.7101-0.05791 12.224 0.15912 3.3414 0.15912 13.872 2.8787 15.594-1.5478 0.79564-2.0541-1.5912-3.7032-3.2981-3.9056-0.99813-0.07226-1.9962-0.07226-2.9946 0-2.4157 0.08686-0.75222-0.81005-2.0252-2.2277-0.57855-0.59307-1.3019-0.85346-2.1409-0.76667-0.41947-1.3308-0.66541-2.6906-0.75222-4.0794-0.28932-3.9635 1.4466-6.6831-3.3561-6.5819-4.629 0.08686-11.066 0.30376-11.905-5.6995-0.50635-3.6164 2.1264-9.721-1.6491-12.195-3.9056-2.5604-4.3686-1.5044-4.354-6.5384 0.0138-4.354-4.6436-7.305-4.0648-11.789 0.18808 0-1.6491 1.5333-1.6057 1.5188" fill="#c2f0c2" />
   <path id="Deoria" d="m151.66 64.869c-1.9962-1.5044-6.6252-5.5983-9.2869-3.3993-0.54972 0.50629-0.91134 1.1139-1.0849 1.8516-0.67988 2.3289-1.7504 1.6491-4.1227 1.5333-3.3271-0.15912-6.6685-0.63648-10.01-0.3761 0.67983 2.6472 3.0232 10.502-0.79563 11.992-3.7176 1.4465-8.8818 0.56414-8.1442 6.4518 0.72324 5.8151 6.1479 3.92 9.7786 7.305 1.6057 1.49 3.0668 3.2692 4.1084 5.1932 1.6346 3.0522-0.30376 3.168-1.461 5.9019 2.5604-0.3761 3.8767-3.7032 6.7844-4.2674 3.0811-0.60761 5.6127 1.3019 7.2328 3.7465 3.139 4.7302 10.184 10.227 16.39 8.2021-1.6201-1.5189-2.9943-3.2402-3.7465-5.3377 3.4429 0.27494 13.077-1.0994 13.12-5.815 0.0138-1.895-0.70882-5.2511-1.9094-6.7844-1.4322-1.8371-4.8604-1.1139-6.8566-1.6636-4.2674-1.1862-12.411-3.0668-9.2-9.1568 1.273-2.4013 3.9779-1.9529 6.1912-2.4736 1.9384-0.46294 2.3434-1.9818 3.6886-3.1823-5.2655-1.0849-6.7844-6.7844-10.676-9.7207" fill="#fcc" />
   <path id="Ballia" d="m153.96 108.47c-2.6183-1.5623-4.9472-3.7032-7.797-4.846 0.40506 0.94027 0.7522 1.895 1.027 2.8787-2.3 0.1445-4.2385 0.18808-5.7138 2.1119-2.0397 2.6761-3.139 3.1823-6.09 4.5132-1.6346 0.73769-2.4013 4.4842-0.81008 5.627 2.0396 1.461 5.2365 0.30379 5.5983 3.9346 0.44843 4.412-5.0051 5.1063-0.57865 8.6505 3.0089 2.4158 6.6253 3.5585 10.025 5.2511 1.9528 0.96917 2.9656 2.2277 3.385 4.3686 0.88245 4.4555 2.2567 8.9687 2.9077 13.453 2.2856-0.94023 5.092-0.92581 6.2927-3.4573 0.98366-2.0686 0.46293-4.9326 2.6183-6.2924 3.0378-1.924 8.4045 0.0579 7.7534 4.1227 4.0215 0.47733 5.0194-3.3994 8.3901-4.5278 4.3397-1.4755 8.5782 2.0252 12.802 2.4013 7.6522 0.67991 9.692-7.6958 2.6761-10.676-8.6794-3.6889-16.838-8.1152-24.939-13.048-4.1227-2.517-3.2548-7.1026-6.5673-10.43-1.5334-1.5333-3.0811-3.7176-5.2365-3.168-1.9962 0.52074-3.9203 0.21704-5.7428-0.8679" fill="#abacda" />
   <path id="Ghazipur" d="m146.94 135.4c-3.5874-1.5333-7.1169-3.2982-9.6631-6.336-1.9094 3.1247-4.6869 1.678-7.9417 0.75219-3.0232-0.85343-5.8297-0.79557-8.9251-0.54967-2.0686 0.15912-4.3107 0.39058-6.1622 1.3887-3.1244 1.678-1.0849 4.3397-5.6416 3.3271 0.50631 2.734-8.4188 0.18808-10.546 3.0957 5.6706 3.5731-5.2075 8.9544-8.6794 8.6361 0.34719 1.8082 0.96918 8.0862-1.0849 8.1006 1.7214 1.7069 1.244 2.1843 3.7032 1.7503 2.3145-0.40507 4.6869-0.49185 6.9725 0.0869 2.5894 0.66542 4.7159 2.2856 7.334 2.8641 2.517 0.54968 5.1353 0.54968 7.6522 1.0994 10.82 2.3289 8.3466 10.517 9.4894 18.791 5.063-2.6327 9.1568-5.7861 14.654-7.6089 6.4082-2.1264 6.9724-6.9292 10.777-11.688 1.6346-2.0396 3.9636-2.6183 5.9165-4.0504 2.2711-1.678-0.34717-6.3213-0.94027-8.983-1.3453-5.9165-0.95471-8.1296-6.9145-10.676" fill="#e7de69" />
   <path id="Chandauli" d="m117.73 161.01c-4.1227-2.2856-8.983-1.4466-13.308-3.0089-5.2222-1.895-8.5057-3.356-14.191-2.0541 0.34714 0.49183 2.1554 0.66546 2.8351 0.53525 0.05794 1.0125 0.54968 1.866 1.2585 2.5604 1.2296 1.2296 3.3415 2.1409 3.5295 4.0937 0.23137 2.3434-1.6057 4.1516-3.5441 5.0484-2.5749 1.1862-3.5874 5.0051-5.6126 5.1496 3.0089 2.3 11.167 15.854 4.5711 16.418-2.951 0.26032-2.0975 1.6346-1.9818 4.412 0.08688 2.2277 0.30381 4.4409 0.24599 6.6685-0.04329 1.6635-0.52078 3.414-0.1445 5.0774 0.434 1.9672 2.2422 3.414 2.2133 5.5114-1.0705 0.0289-2.0831 0.26034-3.0668 0.66542 3.0378 3.602 6.2202 7.0882 11.225 7.276 4.1516 0.14452 9.1278-1.2585 12.976 0.81006-3.8477-3.5006-3.8044-10.733-5.3523-15.435-2.0396-6.2491-0.75219-13.25 2.2711-18.993 1.1428-2.1553 2.7774-4.0504 5.092-4.9905 1.6635-0.67988 3.4716-0.91134 5.1353-1.6202 2.4302-1.027 1.244-2.1409 1.2874-4.4555 0.14449-5.7718 0.21703-10.531-5.4392-13.67" fill="#a3b0a3" />
   <path id="Sonbhadra" d="m96.475 217.89c-2.8063-1.9094-4.8171-6.9288-8.0719-4.6144-0.57861-3.7465-3.3414-5.1786-6.9002-4.6723-4.383 0.622-7.4931 1.5333-12.05 0.66538-3.4573-0.66538-3.0957-0.47733-4.5857 2.083-0.79561 1.3887-2.0975 2.3868-3.5585 2.9946-3.3125 1.3887-7.5799 1.1572-10.762-0.49185-0.27495 2.5893 0.27494 5.3667-0.94027 7.797-1.056 2.0975-2.3289 3.4862-2.4157 5.9888 3.3994 0.21703 9.2001 0.88238 11.515-2.3579 4.2528-0.75222 6.8133 1.2585 7.1169 5.3234 1.3887 1.7358 7.4787 1.7069 5.1642 6.061-1.3887 2.6038-5.5258 2.3579-7.768 1.273-0.24599 2.3868-1.6925 7.522 2.0831 6.8276 0.08688 2.1988-0.1015 4.412-0.02896 6.6109 1.244-0.0289 2.7485 0.18808 3.4862 1.3309 2.5604 3.9636-2.893 10.69-3.9779 14.437-0.33274 1.1572-0.53523 2.329-0.63652 3.5152-1.6346-0.36165-3.3994-0.49183-3.4573 1.4321-0.05791 2.1409 4.2675 3.4429 5.2801 5.9309 0.75223 1.8516-0.41949 5.1643 2.6906 4.9762-0.40504 2.8208 1.8371 3.8477 4.2239 4.2528 1.7648 0.3038 4.4988-0.0723 5.0051 1.7504 0.54971 1.9818 2.4591 3.1534 4.2675 3.8188 4.383 1.6346 9.9667 1.678 14.451 0.3906 6.3503-1.8372 2.8641-7.6235 4.8893-12.05 1.1138-2.4592 3.8334-0.59313 4.0068-3.2981 0.17346-2.7774 3.7032-2.0541 5.5404-2.1554-0.46291-3.2981-4.4988-5.627-1.1573-8.7806 1.9963-1.8805 6.119-2.8641 3.5731-6.2924-3.3994-4.5857 1.4466-6.0177 2.1264-9.9813 0.43395-2.5315-5.4968-8.7373-0.014-9.7207 7.768-1.4031 9.8512-10.242 4.875-15.999-2.2132-2.5604-5.5983-5.4392-9.0699-5.6995-4.7159-0.34723-10.705 1.5044-14.9-1.3453" fill="#e2b584" />
   <path id="Mirzapur" d="m47.531 225.45c0.46293-1.3887 1.4321-2.517 2.083-3.8044 1.2151-2.4302 0.66542-5.2076 0.94028-7.797 2.8641 1.4755 6.5094 1.7648 9.6052 0.89688 3.414-0.96921 4.9618-6.0177 7.4208-5.7718 4.7881 0.49184 8.0719 0.82455 12.788-0.17346 3.8477-0.81005 7.3775 0.10147 8.043 4.4699 1.49-1.056 3.3414-1.8082 5.1932-1.8371 0.02893-3.2548-2.5604-5.3087-2.1988-8.9397 0.20241-2.0397 0.11582-4.0648 0-6.119-0.17346-2.9076-1.4321-6.336 1.866-6.6109 3.5585-0.3038 2.2133-5.3813 1.244-8.2454-0.7522-2.1987-3.3993-7.9125-6.1043-8.1585 0.01399 1.8806 1.3887 3.3125 1.707 5.121-2.8498 0.91132-5.5837-1.3598-8.4191-0.15912-2.2566 0.95475-3.8767 3.1823-6.307 3.7901-2.4302 0.60757-3.7322-1.1862-4.8314-2.9799-1.461-2.3579-3.5152-3.0521-6.2058-3.11-1.1862 0.058-2.3579-0.11577-3.4862-0.4774-2.7918-1.027-1.1138-0.67985-2.893 0.82458-1.3742 1.1717-3.8334 0.70879-5.4679 0.69435-2.7485-0.0138-5.6126 0.82452-8.3322 0.24598-3.3993-0.72329-5.7574 0-9.0556-0.20241-2.3145-0.13022-11.312-4.5421-9.2147 1.6346 1.2007 3.5295 5.5983 5.2076 7.7101 8.1295 3.3128 4.5711-1.3887 7.7101-4.6723 10.271-5.3234 4.166-5.5983 12.05-11.037 16.505 3.168-0.24599 2.2277 1.3887 2.2422 4.1662 2.8498 0.24599 5.7285 0.11561 8.5636 0.36159 0.10148 2.6906-0.15912 5.3813-0.05791 8.0719 1.5623 0.0872 3.1247 0.17346 4.6869 0.27494 0.01399 1.5623 0.01399 3.1244 0.02895 4.6869 3.0811-0.52071 3.3128 3.7032 6.0757 3.0522 0.31823-2.3868-0.56416-4.7302-0.15912-7.1026 1.2006-0.0138 2.4013 0.0289 3.602 0.13022 3.3414 0.24598 3.602 1.3164 4.6433-1.8371" fill="#c2f0c2" />
   <path id="Sant Kabir Nagar" d="m89.362 37.853c-6.6975-0.24599-9.1857 1.5623-9.2147 8.0863-0.01399 3.848-1.2875 2.0541-4.0504 3.3128-2.0975 0.95475-1.9528 3.3414-1.5044 5.2365 0.56416 2.4158 1.461 5.6705 3.5731 7.2038 2.2277 1.6057 5.3523 2.517 4.9905 5.8876-0.46287 4.2239-6.0467 5.3667-7.8982 8.7373 5.1496 2.1409 10.632 2.6906 15.073 6.3939-0.27466-5.4102 1.273-10.705 0.40504-16.1-0.30375-1.9239 0.05791-2.7485 1.7937-3.7465 2.6327-1.5044 1.7504-4.2675 0.88242-6.6109-0.86798-2.3579-1.8372-4.383 0.54968-5.6416 2.2711-1.1862 2.2133-5.9019 2.1553-8.5926-0.05794-2.8931-3.8188-10.357-6.7554-4.166" fill="#e7de69" />
   <path id="Gorakhpur" d="m95.772 38.247c0.86792 2.3145 0.33268 5.4535-0.01399 7.8113-0.23137 1.3308-0.37612 2.6761-0.41949 4.0215-1.8805 0.28934-3.0522 0.79563-2.8498 2.8208 0.26033 2.705 2.4302 5.3377 1.6925 8.1152-0.53523 2.0686-3.7322 2.0107-3.602 4.3541 0.31826 5.8007-0.54968 11.543-0.24599 17.33 1.7937 1.4899 0.18808 4.0215 2.517 4.383 2.4591 0.39058 4.9183 0.85343 7.3629 1.3164 4.166 0.78112 8.4045 1.3742 12.05 3.7322 2.7051 1.7503 3.6453 5.1063 6.6831 4.846 2.5025-0.21703 6.6109 0.04329 8.3176 2.2421 3.1534 4.0504 6.8566-0.11555 4.8604-3.8477-2.1698-4.0215-5.3666-6.77-9.7786-7.9561-2.3579-0.63645-3.0232-0.49181-3.8045-3.1247-0.62197-2.1264-0.56414-4.8171 1.4177-6.2348 3.0232-2.1553 7.5656 0.04329 8.231-4.7012 0.73774-5.2511-1.9384-10.025-2.1988-15.189-0.0869-1.895 0.3761-9.3882-2.8208-9.3013-1.2296-3.3704-7.6668-5.1063-10.676-6.1189-5.0774-1.7069-4.9762-3.7032-5.0774-8.6505-3.3128-0.27494-6.5817-1.0126-9.9377-0.88238-1.1862 0.04329-3.2982 0.1445-3.8334 1.49-0.7088 1.7648 1.6491 2.2711 2.1264 3.5441" fill="#a3b0a3" />
   <path id="Mau" d="m126.27 98.408c-2.8497-1.5333-6.1479-1.7503-9.2726-1.1283 1.1572 2.4447 1.0994 5.1932 0.0579 7.6811-1.4176 3.385-4.2096 0.56418-4.0648 4.4988 0.11554 3.4862-2.1554 2.1554-4.354 3.602-2.1409 1.4031-2.7485 4.0504-2.8787 6.4372-0.18808 3.4719 1.9094 2.5604 1.7214 5.7574-0.18808 3.3271 0.56414 5.5837 1.1283 8.7373 4.1806 0.91134 2.4447-0.7667 4.7302-2.7195 1.866-1.5912 4.7448-1.8082 7.0736-1.9962 2.3723-0.18808 4.7448-0.43393 7.1026 0.0869 2.8931 0.63651 5.8586 2.0831 8.8818 1.5334 1.3019-3.9346 7.4354-10.314-0.30374-11.63-4.7302-0.81014-1.4755-6.336 1.7214-7.1605 1.8227-0.47736 2.6038-1.9962 3.7032-3.4573 1.461-1.9239 3.414-1.9673 5.7138-2.112-1.244-4.2818-4.2818-10.589-9.7786-9.504-2.8208 0.54967-3.5731 2.3868-5.6562 3.8188-2.7774 1.8806-3.6597-1.4466-5.5258-2.4447" fill="#e2b584" />
   <path id="Azamgarh" d="m107.49 123.06c-4.2675-0.72327-1.1283-9.9813 2.6328-10.488 3.0089-0.40502 2.9077-1.7358 2.7918-4.383-0.0723-1.5044 1.9384-1.5768 3.2402-1.49 0.91132-1.5189 1.5767-3.2259 1.6925-5.0195 0.79563-12.151-17.72-13.54-26.183-14.74 0.17346 2.5315-0.02895 5.063-0.26061 7.58-0.30378 3.4719-4.2528 1.3453-6.6396 0.28931-2.0252-0.89686-3.9636-1.9963-6.09-2.6472-4.1806-1.2874-4.8171-0.27495-4.7012 3.8045 0.08688 2.734 0.34719 5.4535 0.10148 8.1875-2.1553 0.0869-4.3397-0.20242-5.8876-1.8516-2.7774-2.9799-6.0321-8.4768-10.733-5.0195 3.3704 4.1662 4.6147 10.777 6.3649 15.767 0.95472 2.7195 5.9165 16.303 1.895 16.578 1.8806 2.9799 1.0126 4.2818 4.9618 5.3813 4.9329 1.3887 10.488 3.5874 15.073 5.8297 3.8334 1.8661 3.1534 7.2907 8.6505 4.2674 2.6906-1.4755 7.5077-5.5693 3.631-8.0283 2.2566-3.0668 7.4355-1.4755 10.589-1.5912 0.21703-1.5044-0.46288-2.893-0.89689-4.2818-0.81005-2.6761-0.0869-5.41-0.23137-8.1442" fill="#abacda" />
   <path id="Varanasi" d="m67.153 152.44c-0.1445 1.3598 0.66545 3.6164-0.27495 4.7881-1.7069 2.1264-4.2095-0.78118-4.7881 3.4426-0.17346 1.2006 0.20241 4.5421-1.4466 4.5132 0.9981 3.3993 0.18808 6.4951-1.4755 9.5183 2.6906 1.7214 5.4825 0.72329 8.2887 1.707 2.8063 0.99807 2.9656 4.0937 5.3523 5.3956 2.8063 1.5333 5.4825-1.432 7.6089-2.7918 3.3561-2.1553 6.2781 0.56415 9.692-0.53522-0.30375-1.8082-1.6924-3.2402-1.707-5.1209 2.6183 0.24599 1.6925-1.2151 2.7485-2.8787 0.94025-1.49 2.5604-1.895 4.0069-2.7195 4.0648-2.2856 2.705-5.7718-0.13017-8.0719-1.0126-0.82455-1.895-1.8227-1.9673-3.2113-2.6328 0.4629-3.1537-1.027-4.7881-2.6472-7.0593 0.10116-14.031-1.6491-21.12-1.3887" fill="#f6d3e9" />
   <path id="Sant Ravidas Nagar" d="m60.659 165.17c-2.1699-0.0434-3.5152-1.2006-4.8314-2.763-2.0686-2.4302-4.2528-3.5585-7.334-4.3251-5.1496-1.2874-13.627-2.8641-16.881-7.3053-0.31826 3.5585-0.34716 6.2781 1.9818 9.1135 0.78116 0.95478 1.6925 2.0252 1.7938 3.3128 0.18808 2.2277-1.5333 1.056-2.6038 2.3579-1.4321 1.7359-0.4918 4.137-2.5893 5.7428-3.4429 2.6182-1.8082 4.0937 1.4755 5.1063 3.5585 1.0849 6.6252-0.5931 10.039 0.23138 3.1969 0.76663 5.6995 0.66543 8.9687 0.46288 2.0396-0.13021 5.5547 0.72328 7.2761-0.73772 2.951-2.517 3.7176-7.7101 2.7051-11.196" fill="#e7de69" />
   <path id="Jaunpur" d="m84.302 140.27c-5.121-1.5334-10.025-3.9492-15.088-5.7139-3.3994-1.1861-1.8371-5.121-5.3667-4.7591-5.4102 0.54967-9.0699-0.47739-12.151-5.121-2.6617-4.0069-5.0197-6.7408-10.025-7.4065 0.08688 3.168-5.063-1.4032-5.2365 2.7629-0.18808 4.7302-1.3453 2.7195-4.9618 4.1084-3.3271 1.2874-3.7901 9.4314-5.6849 12.31-1.4177 2.1698-2.546 4.3254-2.6617 6.9578-4.1949 2.1698-0.92577 3.9636 2.0686 3.4719 3.8045-0.63651 5.2511 2.7484 7.3629 5.1353 2.4881 2.8063 6.9724 2.9943 10.314 4.166 2.9653 1.0415 6.307 1.7214 9.1422 3.0378 2.8063 1.302 4.0215 4.7881 6.9724 5.7138 4.0358 1.2585 2.4881-3.2259 3.4283-5.7574 1.1717-3.139 4.9472 0.0869 4.8027-4.2385-0.13017-3.9346 2.8208-2.5893 6.2058-2.3 4.2385 0.36159 8.4478 1.027 12.701 1.1717 2.8641 0.0869 3.0811 0.81009 3.3128-2.1698 0.1445-1.9529 0.28931-3.9779-0.08715-5.9165-0.50631-2.7919-2.3289-4.6579-5.0484-5.4535" fill="#a3b0a3" />
  </g>
  <g fill="none" stroke="#000">
   <path d="m2.5098 48.003 7.2228-3.3989 8.0725-2.9741h2.9741l6.7979-0.42486 3.399-2.9741 5.0984 1.2746 7.6476 4.2487 6.7979 4.6735 6.373 2.1243 5.0984 3.3989h19.119l15.295 1.2746 8.4974 0.84973 14.021-0.84973 4.2487-2.1243-1.2746-4.2487h4.2487l3.3989 2.5492 7.6476 3.3989 8.0725-2.5492 8.9222 3.8238 13.171-1.6995 4.2487-5.0984h2.1243l7.6476-4.2487 12.321-3.3989 11.896-7.6476v-1.2746h3.399l5.0984-2.5492 7.2227-2.1243-0.84969-3.8238 1.2746-2.5492 5.9481-2.1243 14.021-0.84973" stroke-width=".5px"/>
   <path d="m173.73 49.236 6.6449 0.73833 6.6449 2.215 4.0608 1.1075 7.3832 0.73833 3.6916 2.2149 2.9533-0.73832 8.4906 1.1075 2.4154 2.3619 4.4975 1.4992 11.694 0.89951 20.089 11.694 8.0955 13.493" stroke-width=".5px"/>
   <path d="m123.23 53.145 3.6591 4.0592 2.9273 1.5612 3.6591 4.0592 5.1227-1.249 2.9273 1.5612 6.2205 0.6245 10.611 4.996 4.025 2.1857 2.5614 2.498 4.7568 3.4347 3.2932 4.3715 8.05 3.747 6.2205 5.9327 5.1227 3.1225 6.9523 8.4307 1.4636 2.1857 2.9273 0.93675v1.5612l13.173 1.8735 15.734 6.245v-1.8735l10.611 0.62449 4.7568 4.6837 9.1477 3.747 8.7818 3.1225 5.4886 3.747 7.6841 0.93675" stroke-width=".5px"/>
   <path d="m3.0378 48.024-0.84776 3.3123 1.6955 5.9621 2.1194 1.9874 4.2388 9.9368 1.6955 3.3123 6.7822 5.2996 3.3911 7.9494 9.7494 11.924v4.6371l1.2716 6.6245 2.1194 4.6371 0.84776 9.9368 1.6955 3.6435 7.6299 6.2933 5.0866 3.6435 5.9344 2.981 5.0866 4.9684 4.2388 0.33122 2.5433 3.3122 10.597 3.9747 4.6627-1.9874h8.9016l8.4777 6.9557 6.7821 0.66246 5.5105 2.3186 1.2716 4.3059 7.6299 3.9747 24.585 6.9557h8.0538l5.9344 1.3249 6.7821-1.3249 5.0866-1.6561 5.0866 1.3249h5.5105l6.7821 1.9874h3.815l3.815-0.66245 5.9344 0.33123 5.9344-0.66247 4.2389-0.66244 6.3583 1.9874 2.5433 1.3249v4.6372" stroke-width=".5px"/>
   <path d="m200.98 226.09-0.77081-7.243-4.6248-5.4322-11.177-7.243-5.0102-3.1688-2.6978 0.45268-4.6248-3.6215h-4.2394l-3.0832-6.3376-5.0102-7.243 1.5416-3.1688-0.7708-5.885" stroke-width=".5px"/>
   <path d="m31.838 97.693 4.0382 5.6738 4.3877 1.0596 7.7269 5.8789 3.184-0.47851 1.825 2.7685 3.4558 0.71776 4.7371 0.44433 5.2807 4.2041 8.1541 1.3672 5.5525-0.20508 4.5041 0.6836 3.1451 2.5634 9.746 1.4014 2.4074 6.2548 2.3686 1.1621 2.6404 3.4863 5.7855 2.0849 2.0968 4.1699h3.4558l2.0968 2.0849 16.619-3.247h4.2324l7.3775-3.9306 2.9122-0.47852 7.6493 0.71779 3.6888-1.8799 2.0968 0.47851 2.1356 0.23925 4.7371 3.6914 5.0089 3.9648 4.2324 2.0849 2.6404-0.4785 3.9217 1.6406v2.5635l8.4647 1.1621 5.0089 2.7685 4.4653 0.47852 11.882 0.23925 1.3202-0.71777h6.8727l6.0573-2.0849 1.3202-3.0078" stroke-width=".5px"/>
   <path d="m283.36 135.87-2.4437 0.40537-4.8874-1.6215-2.1994 1.2161-0.48872 0.20269-0.24438 1.4188 0.24438 2.2296-0.97747 2.8376-0.48877 2.635-2.1993 2.4323-3.9099 2.4323h-4.643l-2.1993-1.8242-3.1768-0.81076-4.1543-0.81076-4.3987-0.20268-0.97747-0.40538-1.7106-0.60807h-3.4212l-2.6881 2.0269-1.7106 0.81076-2.6881 0.20268-2.9324-1.2161" stroke-width=".5px"/>
   <path d="m279.11 130.27 6.938 3.9575 1.3503 0.8102-4.0344 0.83053" stroke-width=".5px"/>
   <path d="m232.64 115.28-0.41819 3.3487v4.7839l-0.41824 4.7838-0.62731 5.2622-0.83643 3.3487 2.9275 11.242" stroke-width=".5px"/>
   <path d="m232.21 61.373 3.0988-2.6114 6.4559 0.65284h2.5824l2.8406-0.43523 4.9065 0.87046 4.1318-0.21762" stroke-width=".5px"/>
   <path d="m287.4 135.04-3.642-5.141-0.91047-4.4066-1.214-2.6929-0.607-4.4066-1.214-3.4273-4.8559-2.6929-4.856-1.9585-3.0349-0.48963-1.214-1.4689-2.1245-0.73442 1.214-1.9585-0.607-5.141-1.2139-3.9169-0.30352-2.2033-0.30348-2.4481v-2.4481l-2.1245-2.9377" stroke-width=".5px"/>
   <path d="m250.1 72.066 2.1875-3.5824 0.65625-1.4751 2.625-0.84292 0.65626-6.5326" stroke-width=".5px"/>
   <path d="m241.71 18.687 1.037 8.7457-0.82958 8.7457 5.8071 4.3728 2.2814 0.39753 3.3183 1.5901h6.2219v2.7827l-1.4518 2.7827-0.8296 3.1802-1.037 8.3481" stroke-width=".5px"/>
   <path d="m221.33 28.027 0.21786 3.586 1.0892 2.3907v4.4825l3.0498 4.7813 0.21786 3.2872 0.21783 0.8965-0.65352 3.2872" stroke-width=".5px"/>
   <path d="m193.79 177.53 0.656-2.1866 0.43733-0.87465-1.312-0.87464v-1.5306l-1.968 0.21866" stroke-width=".5px"/>
   <path d="m223.69 152.31-4.1967 1.0156-1.728 1.6927-1.7281 0.67707-0.98744 0.67708-1.4812-0.33853-1.4812-0.33855-1.4812 1.0156h-2.2218l-2.7155-0.67706-2.7155 0.33853-2.4687 1.3541 0.74061 2.7083-2.4687 3.0468-1.2343 2.3698-1.4812 2.3698-4.4436 4.0624" stroke-width=".5px"/>
   <path d="m225.46 50.738 0.40868 9.8594" stroke-width=".5px"/>
   <path d="m235.27 113.25-1.7465-11.242-0.65497-9.5971-3.0564-8.5003-1.7466-7.4034-0.43664-0.82261 1.0916-2.742-2.4015-4.113-1.9649-5.484 1.5282-2.742" stroke-width=".5px"/>
   <path d="m230.92 87.004-1.4104 2.5279-4.2036 1.5371-5.0443 1.537-3.3629 1.7932-1.6814 4.0988v0.76853h-4.2036l-3.3628 1.2809-3.0826 2.3056-0.73646 2.7227" stroke-width=".5px"/>
   <path d="m191.6 172.29 0.44095-8.5604-0.44095-6.2944 0.8819-2.7695-0.66143-6.2944-0.66142-10.071 1.5433-9.5675 1.5433-10.323 7.7167-5.0355 1.7638-6.2028" stroke-width=".5px"/>
   <path d="m165.14 134.91 5.3693-0.91717 5.6519-0.68786 0.84777-2.0636 1.413-0.91716h1.6956l4.8041-3.6687 3.9563-4.5859 5.3693-3.6687" stroke-width=".5px"/>
   <path d="m234.01 148.42-1.0368 5.3053v6.72l-0.69116 5.3053-0.51839 2.1221-2.9375 3.1832-3.4559 5.6589-2.7647 2.4758" stroke-width=".5px"/>
   <path d="m195.1 206.14h4.1359l2.8298 1.6194 1.9592 0.80973 0.87072-1.6195 4.3536 0.6073v-2.6316l-0.65305-1.0122-1.5238-0.80972v-1.8219l-1.0884-1.2146-1.5084 0.24722-0.16568-2.0028 1.3253-1.2325-1.1597-0.4622 1.491-2.3109v-0.61624l0.3313-2.3109-0.66267-1.5406-0.99402-1.5406-0.82835-1.5406 0.16568-3.0812-1.491-1.2325-1.1597-2.1569-0.16568-3.0812" stroke-width=".5px"/>
   <path d="m195.58 213.42-0.48268-7.28 0.37791-4.1727-1.4574-2.4899 0.29145-0.93372-1.4573-2.3343 0.87438-1.245v-1.5562l0.29149-2.4899v-7.7809l-0.72868-2.1786 1.0201-1.7118-0.29145-1.7118" stroke-width=".5px"/>
  </g>
 </g>
 <g fill-rule="evenodd" stroke-width=".23653">
  <ellipse cx="203.32" cy="106.02" rx="2.7367" ry="2.8097"/>
  <ellipse cx="234.3" cy="113.05" rx="2.7367" ry="2.8097"/>
  <ellipse cx="286.98" cy="134.82" rx="2.7367" ry="2.8097"/>
  <ellipse cx="233.37" cy="147.93" rx="2.7367" ry="2.8097"/>
  <ellipse cx="163.36" cy="134.35" rx="2.7367" ry="2.8097"/>
  <ellipse cx="191.92" cy="171.81" rx="2.7367" ry="2.8097"/>
  <ellipse cx="222.83" cy="183.52" rx="2.7367" ry="2.8097"/>
  <ellipse cx="201.29" cy="226.14" rx="2.7367" ry="2.8097"/>
  <ellipse cx="242.03" cy="18.452" rx="2.7367" ry="2.8097"/>
  <ellipse cx="256.08" cy="58.256" rx="2.7367" ry="2.8097"/>
  <ellipse cx="225.64" cy="51.7" rx="2.7367" ry="2.8097"/>
  <ellipse cx="201.76" cy="55.681" rx="2.7367" ry="2.8097"/>
  <ellipse cx="260.06" cy="85.885" rx="2.7367" ry="2.8097"/>
  <ellipse cx="2.7365" cy="48.188" rx="2.7367" ry="2.8097"/>
 </g>
 <g fill="#000000" font-family="sans-serif" font-size="3.5277px" letter-spacing="0px" stroke-width=".26458" word-spacing="0px">
  <text x="8.3559237" y="50.997723" style="line-height:1.25" xml:space="preserve"><tspan x="8.3559237" y="50.997723" font-size="4.9388px" stroke-width=".26458">Lucknow</tspan></text>
  <text x="261.69708" y="53.807419" style="line-height:1.25" xml:space="preserve"><tspan x="261.69708" y="53.807419" font-size="4.9388px" stroke-width=".26458">Kushinagar</tspan></text>
  <text x="227.9807" y="12.832649" style="line-height:1.25" xml:space="preserve"><tspan x="227.9807" y="12.832649" font-size="4.9388px" stroke-width=".26458">Maharajganj</tspan></text>
  <text x="230.08798" y="52.870853" style="line-height:1.25" xml:space="preserve"><tspan x="230.08798" y="52.870853" font-size="4.9388px" stroke-width=".26458">Gorakhpur</tspan></text>
  <text x="205.73726" y="106.02098" style="line-height:1.25" xml:space="preserve"><tspan x="205.73726" y="106.02098" font-size="4.9388px" stroke-width=".26458">Azamgarh</tspan></text>
  <text x="240.15607" y="109.06483" style="line-height:1.25" xml:space="preserve"><tspan x="240.15607" y="109.06483" font-size="4.9388px" stroke-width=".26458">Mau</tspan></text>
  <text x="292.60376" y="131.77657" style="line-height:1.25" xml:space="preserve"><tspan x="292.60376" y="131.77657" font-size="4.9388px" stroke-width=".26458">Ballia</tspan></text>
  <text x="235.70738" y="141.84465" style="line-height:1.25" xml:space="preserve"><tspan x="235.70738" y="141.84465" font-size="4.9388px" stroke-width=".26458">Ghazipur</tspan></text>
  <text x="150.01157" y="130.60585" style="line-height:1.25" xml:space="preserve"><tspan x="150.01157" y="130.60585" font-size="4.9388px" stroke-width=".26458">Jaunpur</tspan></text>
  <text x="166.40147" y="182.35115" style="line-height:1.25" xml:space="preserve"><tspan x="166.40147" y="182.35115" font-size="4.9388px" stroke-width=".26458">Varanasi</tspan></text>
  <text x="229.15141" y="186.0974" style="line-height:1.25" xml:space="preserve"><tspan x="229.15141" y="186.0974" font-size="4.9388px" stroke-width=".26458">Chandauli</tspan></text>
  <text x="264.97507" y="90.333511" style="line-height:1.25" xml:space="preserve"><tspan x="264.97507" y="90.333511" font-size="4.9388px" stroke-width=".26458">Deoria</tspan></text>
  <text x="154.6944" y="62.236519" style="line-height:1.25" xml:space="preserve"><tspan x="154.6944" y="62.236519" font-size="4.9388px" stroke-width=".26458">Sant Kabir Nagar</tspan></text>
 </g>
 <ellipse cx="159.38" cy="185.86" rx="2.7367" ry="2.8097" fill-rule="evenodd" stroke-width=".23653"/>
 <text x="144.62631" y="197.33621" fill="#000000" font-family="sans-serif" font-size="3.5277px" letter-spacing="0px" stroke-width=".26458" word-spacing="0px" style="line-height:1.25" xml:space="preserve"><tspan x="144.62631" y="197.33621" font-size="4.9388px" stroke-width=".26458">Mirzapur</tspan></text>
 <path d="m163 134.68-2.6882 12.086-2.5756 8.8974-2.8097 5.6194-4.917 7.2584-3.2771 7.3406" fill="none" stroke="#000" stroke-width=".5px"/>
 <ellipse cx="155.87" cy="159.64" rx="2.7367" ry="2.8097" fill-rule="evenodd" stroke-width=".23653"/>
 <path d="m159.74 186.26 6.853 1.3208 1.9837 1.1557 1.9838 1.1557h2.5248l3.2461-0.99057 2.5248 0.16509h3.7872l2.7051-1.3208 3.2461-3.467 2.7051-2.4764 1.9838-0.82549" fill="none" stroke="#000" stroke-width=".5px"/>
 <text x="155.39682" y="165.96123" fill="#000000" font-family="sans-serif" font-size="3.5277px" letter-spacing="0px" stroke-width=".26458" word-spacing="0px" style="line-height:1.25" xml:space="preserve"><tspan x="155.39682" y="165.96123" font-size="4.9388px" stroke-width=".26458">Gyanpur</tspan></text>
 <text x="198.71301" y="233.15985" fill="#000000" font-family="sans-serif" font-size="3.5277px" letter-spacing="0px" stroke-width=".26458" word-spacing="0px" style="line-height:1.25" xml:space="preserve"><tspan x="198.71301" y="233.15985" font-size="4.9388px" stroke-width=".26458">Robertsganj</tspan></text>
</svg>
