<svg width="204.73mm" height="229.09mm" version="1.1" viewBox="0 0 204.7346 229.0876" xmlns="http://www.w3.org/2000/svg" xmlns:cc="http://creativecommons.org/ns#" xmlns:dc="http://purl.org/dc/elements/1.1/" xmlns:rdf="http://www.w3.org/1999/02/22-rdf-syntax-ns#">
 <metadata>
  <rdf:RDF>
   <cc:Work rdf:about="">
    <dc:format>image/svg+xml</dc:format>
    <dc:type rdf:resource="http://purl.org/dc/dcmitype/StillImage"/>
    <dc:title/>
   </cc:Work>
  </rdf:RDF>
 </metadata>
 <g>
  <g transform="translate(-3.1936 -27.108)" stroke="#fff" stroke-width=".5">
   <path id="Chitrakoot" d="m206.34 185.46c-2.4582 0.57557-4.1488 1.5708-6.5468 0.1799-1.8945-1.1032-3.5012-2.8658-5.7434-3.2614-4.1008-0.73145-6.9425-1.7386-9.4007-5.2759 4.2567-1.9305-1.355-4.7724-3.5012-5.216-3.2735-0.68347-3.7771-2.3142-4.3047-5.3957-0.10795 1.9185-0.44366 3.8729-1.199 5.6595-0.8633 2.0144-2.8779 2.8897-3.7291 4.6404-1.7386 3.5851-6.5228 4.4005-9.7484 6.391-3.5012 2.1703-3.3933 5.6117-3.2134 9.4007 0.0961 1.9785 0.43168 3.5972 1.7146 5.2039 1.8466 2.3022 3.9449-0.06 4.1847 3.6692 0.50363-0.93527 0.62354-2.1464 0.5396-3.1894 1.4389-0.048 2.8779-0.0241 4.3166 0.11967-0.39568 1.4628-1.7626 1.5828-2.4221 2.8417-0.61149 1.1751-0.43166 2.5661-0.50358 3.8251-0.20389 3.0456-0.7674 6.1153-2.4941 8.6811 2.602 0.75539 4.1488-1.5468 6.2712-2.4941 2.0744-0.93527 2.3262 0.6715 4.2925 1.0792 4.3287 0.88728 8.9212 0.21578 13.286 0.0359-1.5108-3.3453 1.4149-5.5516 2.6379-8.3456 0.6715-1.5228 0.38367-3.0335-0.59956-4.3646 0.64753-0.59956 1.4149-0.87533 2.3022-0.81536 2.0744 0.048 1.283 1.3429 1.7146 2.9736 1.1871-2.1223 2.8898-4.2567 5.6476-3.4534 0.0961 2.6141 2.3262 5.1079 5.1079 4.8204-0.45565-2.5421 1.9065-4.4366 1.0912-7.0625 3.5492-0.132 1.175-8.2016 0.29975-10.648" fill="#e2b584" />
   <path id="Banda" d="m159.68 185.37c2.65-4.5205 9.9043-3.7771 12.23-8.5732 1.0792-2.2302 3.3814-3.2255 4.2087-5.9594 0.39568-1.295 1.8226-6.9306-0.89929-7.0626-2.1583-0.10794-1.4869 1.9785-3.0098-0.39568-0.6475-1.0192-1.4629-1.9545-2.47-2.6378-2.1223-1.4509-4.7603-1.4749-7.2424-1.4749-5.096 0.0122-12.842-0.52756-15.432-5.8874-0.85133-1.7506 0.91127-2.2662 1.5707-3.5732 1.4509-2.9016-7.3862-2.1343-9.1607-2.2662-2.5421-0.19179-4.6405 2.1703-6.5468 3.981-1.7027 1.6067 0.37173 3.7172 1.295 5.2161 1.4628 2.374 1.4868 5.12-0.28777 7.3382-0.85133 1.0552-1.9544 1.8945-3.1416 2.5539-1.7266 0.95926-1.4029 1.3909-1.7626 3.2854-0.62352 3.2374-1.4629 3.6571-3.9449 5.6355-1.4748 1.1751-2.2183 7.3743-0.40771 7.9737 0.024-1.4269 2.3862-2.2782 3.4173-2.674 1.9545-0.74347 4.6165-2.1224 4.7602 0.44359 0.2279 3.7531 4.8562 9.041 8.4653 10.384 0.67148 3.981-3.2735 4.1847-5.0121 6.7626-1.5708 2.3382 1.8226 2.2543-0.1079 4.5925-1.4988 0.57556-4.1008 1.7746-4.3886 3.4772 1.1511 0.132 2.3022 0.15595 3.4653 0.0601 1.5228 0.2638 2.0983-0.29977 1.7147-1.6667 0.47962-1.7386 2.4342-2.626 4.1008-2.0864 3.1055 0.99523 0.1799 6.0193 2.4941 6.1752 2.6139 0.1799 2.626-3.0815 2.3981-4.8681-0.13195-1.0552-0.37167-2.1343-0.76737-3.1295 1.259-0.95926 3.6692-1.4748 4.4366 0.39568 1.6187-3.5492 2.506-2.4461 4.0768 0.32375 1.1751 2.0624 4.7243 0.95927 6.583 1.1391-0.31176-2.2782-3.5492-4.0409 1.187-3.9929-2.5059-3.2496-4.1248-9.5566-1.8226-13.489" fill="#c2f0c2" />
   <path id="Hamirpur" d="m124.35 176.47c0.73143-1.5588 2.722-1.7026 3.7051-3.1055 0.64747-0.92328 0.76739-2.422 0.97122-3.4772 0.35971-1.8945 0.0361-2.3142 1.7626-3.2854 1.5348-0.85134 2.9858-2.0264 3.8251-3.5972 1.9664-3.6212-0.81535-6.2111-2.2183-9.3406-1.0911-2.4342 3.9689-4.7843 5.2398-6.3192-3.3334-0.40764-5.6835-1.6427-7.6621-4.4245-0.88731 2.482-1.6188 3.9209-3.741 1.4509-1.259-1.4749-1.9664-3.4055-2.4819-5.2519-0.63552-2.2902 0.0841-3.9449-2.4342-4.0409-2.6138-0.096-5.096-1.0552-6.8106-3.0696-0.56357 1.1271-1.6187 0.7434-2.7819 0.76739 0.57555 3.3453 1.8705 7.3981 0.0479 10.588-2.6858 4.7003-6.2952 2.4941-10.144 1.355-2.0864-0.61156-4.3047-0.62357-6.463-0.56359-1.0911 0.0359-2.1943 0.0601-3.2854 0.084-2.6618 0.024-1.4509 1.1991-1.7746 3.4173-0.3957 2.746-7.9259 4.5444-10.612 4.1369-0.08393 2.626-0.47963 5.2158-0.46764 7.8539 0.01142 1.7506 0.07185 3.5012 0.02406 5.2398-0.05992 2.5181 0.3717 1.6787 2.482 2.3862 5.5756 1.8465 10.732 4.4606 16.787 2.9736 5.9233-1.4509 8.6452-3.6571 14.329 0.19179 3.6212 2.458 8.5972 7.2424 7.0625 12.135 1.4868 0.0601 2.9858 0.34776 4.4126 0.77941-0.34773-2.1584-0.73143-4.8204 0.22791-6.8826" fill="#fcc" />
   <path id="Mahoba" d="m119.32 177.84c-2.626-5.9594-10.036-11.619-16.619-9.1607-4.1367 1.5468-7.7339 2.4461-12.183 1.6067-4.0048-0.75537-7.53-3.0216-11.535-3.6692-0.25181 3.4772-2.4102 5.4798-3.4173 8.6212-0.7674 2.3981-4.5803 1.7746-3.933 5.4917 0.51559 2.9256 5.7674 2.0624 6.0433 4.6165 0.33574 3.1416 4.1367 2.2302 6.3311 2.4221 0.59953 3.4653-13.621 13.058-4.0048 14.593 0.33574-1.7507-1.6427-4.0048 0.58755-5.144 2.1103-1.0792 4.5803 0.20389 6.7747 0.11982-0.16788-1.4629 0.21583-4.1248 2.3262-2.9378 0.80338 0.45561 1.4149 1.235 1.8226 2.0504 0.7794 1.5588 1.7866 1.1991 3.5133 1.271 3.3453 0.132 6.6909-0.06 10.024-0.20389 2.3501-0.10794 1.5708-1.0912 1.6427-3.1657 0.14383-3.8249 0.37172-6.0074 4.2087-4.8803 3.2374 0.94725 9.2327-3.1775 7.0625-6.8106 2.698-0.45566 2.4582-2.3022 1.3549-4.8204" fill="#abacda" />
   <path id="Jhansi" d="m75.298 176.54c0.27578-2.6618 2.3382-4.5323 3.1894-6.9665 1.259-3.5732 0.46764-7.9259 0.56355-11.643 0.07185-2.9016 1.9785-5.9114-1.4389-6.439-3.8251-0.58753-7.8779-0.15595-11.619-0.8873-4.8563-0.95922-3.5851-7.4342-7.4342-8.765-2.674-0.92324-5.8993 0.49166-8.0818-1.6786-1.5588 1.0192-3.7531 6.8945-4.0288 8.861-1.0432-0.95924-2.2183-1.1631-2.6859 0.37171-0.50361 1.6307 0.52759 3.885-1.319 4.0409-0.10794 2.4102 3.0456 3.9449 2.6619 6.391-0.53957 3.5373-5.7914 1.4149-7.9019 3.1176-2.8897 2.3262-5.5276 2.3262-9.1129 1.8346-2.8299-0.39569-6.9786-1.0552-7.4941 2.7338-0.29976 2.2542 1.1991 5.5157-2.0864 4.8681-4.7362-0.93527-3.885 2.5901-4.1008 6.1272-0.13196 2.1343-0.40768 4.4606 0.31174 6.5228 0.3837 1.1031 1.1631 2.0024 2.3741 2.1943 1.5828 0.25181 2.0864 2.2782 2.4582 3.9689 3.7771 0.27577 7.1343 0.40768 10.768-0.82737-0.04799-3.5492-0.89931-6.439-4.7964-6.7866-1.6907-0.14372-5.7795-1.4748-2.0864-2.4221 3.909-0.99524 3.813-5.6476 7.6621-6.5468 2.5181-0.59956 3.8011 0.81536 4.1367 3.2134 0.27579 1.9545 4.4005 2.3741 5.2999 0.16777 0.3717-0.92326 0.45564-2.0024 0.55157-2.9736 3.0696 0.35972 3.1295-0.0959 3.2374-2.9016 0.08394-2.2183 1.7626-1.4149 3.4292-2.674 1.3909-1.0432 2.5901-2.3262 4.2446-2.9858 1.4868 2.4221-1.5228 3.813-1.6787 6.0673-0.16788 2.4461 2.1224 4.2567 2.1943 6.6548-2.0024 0.0839-4.5323 0.0959-6.1153 1.5348-2.6859 2.4342-0.69544 4.4965 1.4988 5.9594 0.50359-2.0743-0.17988-4.0169 2.3622-4.2685 2.53-0.26382 2.0384 1.5348 1.5708 3.3933-0.35972 1.4269-1.3429 2.4102-2.65 3.0335-0.53957 1.5948-0.14388 3.885 1.8825 2.2423 1.4269-1.1631 0.95925-1.7027 2.9016-2.506 1.0672-0.44364 3.0095-1.1871 3.6452 0.33571 0.43166 1.0432-0.29976 2.1344 0.01142 3.1894 0.41968 1.4269 1.7626 0.80336 1.4269 2.8778 1.7147 0.072 3.0696-1.1151 4.7484-1.235 1.9425-0.15597 3.765 1.1511 5.6476 1.4388 2.9496 0.4676 3.5492-0.53958 3.3574-3.3213 1.307-0.132 1.235-1.6547 1.0912-2.602-0.64748-3.909-5.7315-12.039 1.4029-12.71" fill="#a3b0a3" />
   <path id="Lalitpur" d="m19.542 191.19c0.02401 0.52757 0.03593 1.0432 0.05992 1.5707-1.9785-0.41963-2.698 0.85133-3.5851 2.3142-0.35972 0.58752-0.82736 1.1391-1.5468 1.271-1.4988 0.26379-0.94725 1.3189-1.0312 2.8059-0.2398 4.1129-4.9641 11.847-10.216 10.528-0.3957 3.8491 3.4173 9.1129 4.6764 12.638 0.7794 2.1703 1.5948 4.6284 1.307 6.9665-0.28779 2.3622-3.1176 2.722-3.0098 4.5564 0.17988 2.9858 3.7051 2.4461 5.6956 3.4294 2.578 1.271 2.506 4.3287 2.1943 6.7748-0.17985 1.3669-0.45564 2.7099-0.59953 4.0768-0.23981 2.3022 0.91129 1.9904 3.0456 2.2782 2.5901 0.33576 1.6307-2.0863 2.2542-3.9568 0.55157-1.6547 1.6787-2.9016 3.1055-3.8729 0.7434 3.9689 6.2351 1.6667 7.9259 4.9642 1.4868 2.9016 0.7554 7.578 5.024 8.0937-0.83934-4.8921 6.415-3.3094 6.1272 0.5636 3.1535-0.91129 5.3717-3.5972 8.3216-4.9043 2.6859-1.187 0.97122-5.5036 4.3406-7.1343-1.1031-1.331-1.9785-2.8898-3.3094-4.0288-0.9952-0.85133-3.8729-1.4988-2.0144-3.2614 0.55157-0.44363 1.1871-0.59951 1.8945-0.46763 0.16785-1.0672 0.31174-2.1343 0.41968-3.2016 0.05993-1.8705-0.89929-2.4941-1.9665-3.765-1.283-1.5348-0.45563-2.2063-3.0815-1.5948-1.7626 0.41969-3.4532 1.1511-5.2878 1.1751-2.5421 0.048-1.283-2.9736-0.93525-4.7483 0.51559-2.6378 1.259-5.276 1.3429-7.9737 0.14388-4.4606-1.5468-4.1968-4.7602-5.6716-2.4221-1.1151-1.8705-4.5086-1.7746-6.6307 0.10794-2.3022 0.41968-4.8921-0.32374-7.1224-0.25181-0.77935-0.71942-1.5228-1.5468-1.7866-0.45563-0.132-0.9233-0.132-1.3789-0.0359-0.64749-1.4509-0.58753-3.1296-0.61153-4.6764-3.6212 1.235-6.9786 1.1032-10.756 0.82738" fill="#e2b584" />
   <path id="Jalaun" d="m57.431 141.51c3.9689 1.0192 3.3453 5.216 6.0074 7.818 1.8705 1.8226 4.6044 1.3669 6.9665 1.4149 2.9858 0.0601 6.1631 0.37172 9.0768 1.0312 2.7579 0.41969 4.9641-0.7794 7.4461-1.7386 1.8106-0.69546 2.8417-0.072 3.1775-2.398 0.32374-2.2183-0.88732-3.3933 1.7746-3.4173 3.2255-0.0241 6.5949-0.44364 9.7484 0.47965 2.2662 0.67145 4.4846 2.47 6.9306 1.4388 4.1607-1.7626 6.367-13.202 1.5828-13.394-6.7386-0.27577-7.9259-5.8154-12.998-8.7531-3.8969-2.2662-8.0457-5.168-8.1776-9.8563-3.933-0.32374-7.8059-1.1391-11.643-2.0024-1.7986-0.40767-3.5972-0.85136-5.4197-1.1271-1.259-0.1799-3.7531 0.58751-3.3213-1.0552-2.4461 0.0359-5.2279-1.0792-5.3717 1.7266-0.11985 2.1943-0.58755 4.3406-0.73142 6.535-0.17985 2.7937-1.1031 0.86331-2.6859 2.53-0.86334 0.91131-0.91129 2.1823-1.4509 3.2495-0.74342 1.4509-1.5828 0.3358-1.9665 2.3622-0.3717 1.9425 0.3597 3.7051-1.0672 5.0839-2.4342 2.35-1.8945 6.7987-4.8441 8.7172 2.0504 2.0384 4.5086 0.71944 6.9665 1.355" fill="#e7de69" />
   <path id="Etawah" d="m75.659 100.06c0.69546-5.6956 3.7531-10.696 4.8441-16.283 0.27576-1.4149 0.29977-2.8299 0.46764-4.2446 0.17988-1.5348-0.97125-0.91131-2.1943-1.4149-1.0192-0.41964-1.8226-1.1511-2.506-2.0024-1.3909 0.4916-2.53 0.45565-3.8489-0.2279-2.0624-1.0672-3.5613-1.9784-5.8035-0.67146-2.1943 1.283-3.9209 3.0815-6.6909 2.4461-2.2782-0.52756-4.7004-2.0983-7.0625-1.0072-3.0338 1.4029-4.1008-0.89929-6.9665-0.52758 0.93525 0.31177 1.3189 0.03589 1.1391-0.85134-2.4102 0.53959-5.5996 0.92327-4.3527 3.7291 0.57555 1.307 5.1079 6.2232 5.096 6.2591 1.0432 0.74342 2.0264 1.5707 3.0575 2.3382-0.27579 1.6667 0.98323 2.578 2.3741 3.0575 2.0864 0.71946 4.7842 0.83938 5.2039 3.5012 0.46764 2.9618-0.16788 5.3479 1.4628 8.1177 0.65951 1.1271 1.4269 2.1943 2.0624 3.3453 1.259 2.3142 0.19185 4.4126 3.0456 4.3406 1.6907-0.0359 3.4532 0.82733 3.8729-1.1271 0.28777-1.331 0.44366-2.698 0.77937-4.0288 0.7794-2.9976 3.0216-4.3166 6.0193-4.7484" fill="#a3b0a3" />
   <path id="Auraiya" d="m90.621 111.64c2.0624-4.1248 2.2183-9.4247 4.4366-13.381 0.33574-0.64745 0.85133-1.0671 1.5468-1.283 0.3597-1.1751 0.47962-2.3622 0.67147-3.5611 0.40768-2.674 2.4221-3.8491 4.7724-4.7842-0.27578-1.271-3.8251-4.1248-4.952-5.096-1.4389-1.235-3.0815-1.4149-4.8921-1.6428-2.9976-0.39566-5.3479-1.9784-8.2016-2.7697-4.1488-1.1391-2.8779 1.3789-3.5133 4.6524-0.58753 3.0216-1.7626 5.8634-2.8299 8.7412-0.89929 2.4342-1.0911 7.2184-3.4413 7.818-5.192 1.319-4.5563 6.295-5.8634 10.432 6.9306-0.072 13.705 2.7937 20.612 3.3693-0.02398-1.271 0.15577-2.3622 1.6547-2.4941" fill="#c2f0c2" />
   <path id="Kannauj" d="m90.945 81.719c1.7986 0.28779 3.8489 0.23979 5.4197 1.271 2.1463 1.4029 3.4292 3.7771 5.5996 5.216 6.1752 4.0528 10.959-1.0312 12.866-6.6787 0.3837-1.1511 0.69544-2.3262 0.87532-3.5252 1.271 0.31175 2.2902 0.28777 2.3501-1.0432 0.15592-3.3933-0.99523-6.0312-3.3453-8.4775-2.1103-2.2063-4.8441-1.8945-7.554-2.6619-1.6307-0.46764-5.8035-5.4917-6.2472-5.4197 0.77938 4.0288-5.072 3.4532-7.4221 2.9378-4.5086-0.98323-8.0937-5.1799-12.974-2.9976 1.7506 0.71942 0.7794 2.7937 0.79138 4.5205 0.01142 1.6907 0.89929 2.9138 1.1751 4.5086 0.57555 3.3334-3.5851 5.8035-6.2232 6.7386 1.6307 2.0144 3.717 2.4941 6.2111 2.7338 3.0575 0.28777 5.4917 2.4102 8.4775 2.8779" fill="#abacda" />
   <path id="Farrukhabad" d="m101.94 45.32c0.10799-2.8779 0.38372-6.3071-1.1631-8.885-1.9185-3.1775-4.1127-1.6427-6.6787-0.73142-5.9713 2.1103-10.384-3.813-15.048-5.7436-2.5661-1.0552-5.4197-3.3094-8.3095-2.7697-3.2735 0.6235-5.9354 1.2111-3.6932 4.7362 1.6307 2.554 4.3047 4.3646 5.6835 7.0744 1.0312 2.0145 2.1463 7.8059-0.81538 8.2496 1.1511 0.80338 1.8945 1.9425 1.9665 3.3574 0.08393 1.8705 1.319 2.674 2.1583 4.4245 1.3669 2.8657 2.53 5.5756 6.0433 4.7842 5.2158-1.1631 9.7964 4.1847 15.288 3.8729 1.9665-0.1079 3.9929-0.98323 3.5492-3.2973 1.1991-0.2039 1.0312-1.1271 1.1031-2.2422 0.22784-4.2686-0.2518-8.5492-0.084-12.83" fill="#fcc" />
   <path id="Mainpuri" d="m82.505 70.627c0.2398-1.6667-0.79138-2.8779-1.0791-4.4366-0.34772-1.9065 1.0072-5.0601-0.89929-5.8515-4.3047-1.7746-3.957-7.2184-7.9858-9.2807-1.8466-0.94727-3.9449-1.259-5.7914-2.1823-1.5708-0.7794-2.722-2.2303-4.4366-2.7339-1.8705-0.53957-3.5252-0.64746-5-2.0384-1.295-1.223-2.65-1.9185-4.2926-0.91129-2.7099 1.6667-3.8251 6.6909-6.463 6.9787-4.8803 0.53957-4.8322 4.5445-4.6645 8.5614 4.3287 1.247 2.7819 5.4677 2.2782 8.7291-0.27578 1.8226 0.31174 2.9858 1.307 4.6044 0.71944 1.1751 2.9378 3.981 0.41968 4.0409 1.7866-0.2279 2.9736 1.259 4.6882 1.343 1.7267 0.072 2.9016-1.343 4.7842-1.1151 3.4292 0.43167 5.7914 2.5299 9.1129 0.29975 4.1847-2.8059 4.8082-1.4268 9.1369-0.27577 2.9378 0.7914 8.4295-2.6859 8.885-5.7315" fill="#e7de69" />
  </g>
  <g fill="none" stroke="#000">
   <path d="m166.8 56.507-0.43254 1.9466-2.8118 1.0814-5.4072 9.9493h-1.9466l-2.5955 1.514-5.6235 0.86516-7.1376 3.4606-0.86511 2.3792-1.5141 1.0814-1.7303 3.4606-3.6769 3.2443-8.219-3.8932-1.9466 0.64886-3.2443 2.5955-1.514-0.43258-2.3792 1.0814-5.1909 1.9466-1.0814 2.3792-4.1095 3.2443-2.5955 3.4606-1.2977 0.21628-0.86516 1.2977-1.9466 2.1629-2.5955 4.1095-1.514 0.86515-6.7049 3.8932-4.5421 1.514v1.2977l-3.028 2.3792h-4.1095l-3.8932 2.8118-2.8118 0.64887-2.3792 1.514-9.0841 2.5955-1.514 1.514-2.8118 1.2977-3.028 3.028v2.8117l-2.1629 0.2163-3.028 3.6769-0.21628 2.1629-2.5955 1.0815v1.9466l-2.5955 1.514-4.1095 4.7584-4.7583 1.0814-3.8932 0.86515h-5.4072l0.43258 3.2443 2.1629 1.2977 1.2977 3.2443-2.8117 6.2724-2.1629 1.0814-0.43258 4.9746 0.43258 1.514-0.86516 3.028-1.7303 1.2977v1.7303l1.514 0.43257 1.514 2.3792-0.43258 1.2977 1.2977 2.3792 0.21629 3.6769-1.0814 1.7303-0.64887 3.028-1.0814 0.86515-1.514 5.8398" stroke-width=".5px"/>
   <path d="m166.61 58.632 0.25172 1.7792-0.8804 1.3144 0.46384 2.2697 0.69575 2.2697 1.1596 2.69 0.85036 2.8581 1.0823 3.8669 1.3915 2.1016 1.778 3.4466 2.4738 3.0262-1.0823 0.92469-0.85035 2.6059-1.778 3.5306-1.1596 4.2031-1.005 3.3625-1.005 2.3538-0.77306 3.1103-1.3142 1.5972-1.3142 1.261-0.92766 3.3625-0.23192 0.75655 0.15461 5.2959-4.2518 3.1944-1.8554 1.8494-0.38652 0.67249-0.77306 0.16813-2.5511 1.0928-1.005-0.33626-0.54113 0.50438-0.54115 0.92469-2.1646 1.261-1.2369-0.0841-0.77306 1.345v0.75656l0.46384 1.5972v2.3538l-0.77306 1.8494-0.77306 1.9334-1.7007 1.4291-1.6234 2.2697-0.85036 2.1016-10.436 9.1628" stroke-width=".5px"/>
   <path d="m133.06 85.49-1.6403 6.4352-7.0904 8.3631-1.6403 13.183 1.0847 3.2306-1.6403 1.8758-0.26458 3.7777 1.9049 3.2306-3.5452 6.4612-1.3758 4.0383-1.9049 10.5-2.7515 7.5294-7.646 6.7218" stroke-width=".5px"/>
   <path d="m114.2 154.11 8.394-1.8824 10.23-1.5687" stroke-width=".5px"/>
   <path d="m106.55 160.84-8.2729 9.7298-4.2483 5.957-4.919 5.3613-0.89436 2.3828-8.2729 9.1341-3.8011 1.7871v1.9857l-2.2359 2.5814-2.6831-0.99284-1.7887-1.9857-1.118-0.19858-1.7887-1.39-3.5775-1.9857-3.1303 0.99283-1.3416-1.5885h-2.0123l-4.0247-1.7871-3.3539 0.5957-5.5898 1.9857-1.7887 0.99283h-1.7887l-2.2359 0.79427-2.4595-0.39714-5.8134-1.1914-11.403 3.1771" stroke-width=".5px"/>
   <path d="m53.728 59.16 1.8484 1.3203 3.4328-4.225 1.5844-1.0562 1.8484-2.6406 7.9218 0.52812 2.6406-0.26406 1.1883-0.66015 1.5844-2.2445 3.4328-2.1125 1.3203-1.8484 2.7726-0.13203 0.92421-1.3203 1.9805-0.52812 1.0562-0.79218 2.6406-0.13203 1.4523-0.92421h2.3765l0.66016 1.3203 0.92421 0.92421 2.3765 0.39609 1.1883 0.79218 2.9047 1.5844 0.26406 1.8484 0.92421 1.7164 1.9805 1.1883 1.8484 2.2445 5.2812-0.92421 1.7164-0.66015 1.4523-1.8484 1.9804 0.26406 2.7726-0.13203 11.355 2.1125 3.3008 0.13203 4.225-0.39609 2.5086 0.39609 2.3766 1.0562 1.9804 1.9805 8.846 1.1883 1.7164-0.26406 3.1687 0.66015 2.9047 0.66015 1.3203 1.5844h1.5844v-1.1883l0.66014-0.13203h0.66017v-1.7164" stroke-width=".5px"/>
   <path d="m85.072 19.01 0.88089 1.3213-0.88089 2.0554v1.7618l0.38679 2.4959 0.45087 1.8937 0.63124 1.1723v1.2625l1.2625 1.9839 1.4428 1.533 0.81159 1.7133 2.1642 1.8937 3.066 1.1723 2.8856 1.533 3.4267 1.3526 3.2463 2.1642 1.4428 1.9839 2.074 2.074 2.6151 3.8776 1.1074 0.96362" stroke-width=".5px"/>
   <path d="m92.222 38.097-3.2301-0.22536-1.7277-0.15024-2.4789-0.52583-2.6291-0.52583h-1.3521l-1.0517-0.8263-0.52583 0.30047-2.0282-1.277-2.8545-0.90142-2.4038-0.67606h-1.3521l-1.5024-1.277-3.3803-1.0517-3.7559-1.2019-3.0798 0.90142-3.3052 0.52583-1.6526 0.60094" stroke-width=".5px"/>
   <path d="m77.727 76.941 0.60475-0.15119 1.4363-2.041 0.75594-1.4363 0.37796-1.7386-0.15119-0.98271-0.0756-1.663h0.75593l1.2851 0.22678h0.98271l1.3607-0.37797 0.98271-1.2095 0.52916-0.83152 1.0583-0.68034 0.90711-0.60475 0.60475-0.0756 0.83152-0.68034 1.3607-0.15119 1.663-0.52915v-0.30237l0.30237-0.45356 2.041-1.663 0.98272-2.3434 1.1339-0.75593 0.75593-1.3607 0.68034-1.4363 0.98271-0.98271 1.2851-0.75593 1.8898-1.8142-0.0756-1.4363" stroke-width=".5px"/>
   <path d="m65.888 100.96 1.7374-4.5364 2.7025-7.239 1.7373-4.4399 3.2817-3.4747 2.413-4.3434" stroke-width=".5px"/>
   <path d="m65.233 119.89-0.21712-3.9691 2.8225-9.77-4.9937 0.61062 3.0396-5.8009" stroke-width=".5px"/>
   <path d="m122.53 128.07 1.4858 1.737h1.0276l2.9096-1.737 1.4858 0.23743 1.5724-0.0875 1.7334 0.23743 1.9563 1.1122 1.2629 0.47487 1.6467 1.662 0.0743 1.4371-0.47049 1.1872-0.0743 1.1122-0.3962 0.7123v1.4246l-0.39621 1.1872v2.6242l-0.78002 3.1616-1.4982 1.5871-1.2505 4.5237" stroke-width=".5px"/>
   <path d="m175.88 84.254 1.574 6.0337 6.2961 9.1818-0.26234 3.9351 0.52468 2.0987 0.26233 1.574 0.78701 3.935 0.52467 4.4597 0.52468 5.7714 5.2467 6.8208-3.4104 8.6571-3.6727 7.0831-1.8364 1.0493-0.52467 6.2961-3.935 3.148-10.756 3.4104-1.3117 7.0831-4.1974 2.361" stroke-width=".5px"/>
   <path d="m132.82 150.66 8.0522 6.2704 5.9207 5.1092 5.9207 2.7868 6.1576 0.69672 2.842 1.6257" stroke-width=".5px"/>
   <path d="m106.55 160.84-4.3785-0.20273-7.9361 2.8382-4.9259 2.0273-7.1151-5.6764-1.6419-1.2164-0.54732-1.6218-1.3683-0.60818-2.1893 1.2164-8.2098-2.6355-11.22-3.8518-6.5678-1.2164-2.4629-0.6082-3.5576-0.40545-2.4629-0.60818-1.9156-0.81092-4.1049-1.6218" stroke-width=".5px"/>
   <path d="m122.53 128.07-3.2809-1.3124-3.0692 0.44451-2.8364-0.44451-3.2809-0.21167-2.8364-1.9685-2.6247-0.23284-1.7569-1.0795-2.8364-2.8576-1.9685 2.413-3.7254 0.86785-2.6247-1.0795-2.1802-2.2014h-11.578l-3.0692-1.7357-5.0377-1.1007" stroke-width=".5px"/>
   <path d="m55.577 60.48 0.37906 1.1631 1.6594 0.8117 1.9913 1.2488 1.4603 2.0605 0.73015 0.68682 0.79652 0.24975 0.46464 0.8117 1.2612 0.74926 0.46464 0.8117 1.9913 1.1863 1.6594 1.3112 0.66377 0.93658 2.2568 0.87414 2.3896 1.6234 0.99566 0.74926 1.062 0.12488 0.8629 0.43708 1.062 0.62438" stroke-width=".5px"/>
   <path d="m54.565 31.324-1.0359 3.2591-0.55778 0.83567-0.39841 1.3371-0.07969 1.7549-0.87651 2.7577-0.95619 3.2591-0.39841 1.0028-0.79682 0.08357 1.1156 2.8413 0.39841 1.0028 0.63746 2.6742 0.95619 2.6742 1.1551 4.3531" stroke-width=".5px"/>
   <path d="m85.1 18.977-1.2229 1.0401-1.6054 0.80272-0.80272 0.26757-1.873 0.35676-0.53515 0.80272-2.5865 0.9811-3.0325 1.2487-2.7649 1.3379-0.71353 1.2487-2.1406 1.7838-1.1595 0.62434-1.9622 1.1595" stroke-width=".5px"/>
  </g>
 </g>
 <g fill-rule="evenodd" stroke-width=".28576">
  <ellipse cx="84.828" cy="19.165" rx="1.3984" ry="1.52"/>
  <ellipse cx="54.269" cy="31.606" rx="1.3984" ry="1.52"/>
  <ellipse cx="55.733" cy="60.43" rx="1.3984" ry="1.52"/>
  <ellipse cx="105.39" cy="44.667" rx="1.3984" ry="1.52"/>
  <ellipse cx="167.09" cy="57.728" rx="1.3984" ry="1.52"/>
  <ellipse cx="65.978" cy="101.08" rx="1.3984" ry="1.52"/>
  <ellipse cx="122.5" cy="127.98" rx="1.3984" ry="1.52"/>
  <ellipse cx="106.51" cy="160.75" rx="1.3984" ry="1.52"/>
  <ellipse cx="132.86" cy="150.5" rx="1.3984" ry="1.52"/>
  <ellipse cx="27.697" cy="145.66" rx="1.3984" ry="1.52"/>
  <ellipse cx="18.318" cy="196.53" rx="1.3984" ry="1.52"/>
  <ellipse cx="161.92" cy="167.35" rx="1.3984" ry="1.52"/>
  <ellipse cx="78.02" cy="76.444" rx="1.3984" ry="1.52"/>
 </g>
 <g fill="#000000" font-family="sans-serif" font-size="3.5279px" letter-spacing="0px" stroke-width=".26459" word-spacing="0px">
  <text x="163.50261" y="53.829243" style="line-height:1.25" xml:space="preserve"><tspan x="163.50261" y="53.829243" font-size="4.939px" stroke-width=".26459">Lucknow</tspan></text>
  <text x="110.13247" y="43.42659" style="line-height:1.25" xml:space="preserve"><tspan x="110.13247" y="43.42659" font-size="4.939px" stroke-width=".26459">Kannauj</tspan></text>
  <text x="82.316666" y="14.480069" style="line-height:1.25" xml:space="preserve"><tspan x="82.316666" y="14.480069" font-size="4.939px" stroke-width=".26459">Farrukhabad</tspan></text>
  <text x="43.193638" y="28.04875" style="line-height:1.25" xml:space="preserve"><tspan x="43.193638" y="28.04875" font-size="4.939px" stroke-width=".26459">Mainpuri</tspan></text>
  <text x="59.702202" y="60.839729" style="line-height:1.25" xml:space="preserve"><tspan x="59.702202" y="60.839729" font-size="4.939px" stroke-width=".26459">Etawah</tspan></text>
  <text x="83.447388" y="78.479019" style="line-height:1.25" xml:space="preserve"><tspan x="83.447388" y="78.479019" font-size="4.939px" stroke-width=".26459">Auraiya</tspan></text>
  <text x="71.00943" y="101.09349" style="line-height:1.25" xml:space="preserve"><tspan x="71.00943" y="101.09349" font-size="4.939px" stroke-width=".26459">Jalaun</tspan></text>
  <text x="21.483746" y="141.79953" style="line-height:1.25" xml:space="preserve"><tspan x="21.483746" y="141.79953" font-size="4.939px" stroke-width=".26459">Jhansi</tspan></text>
  <text x="95.885361" y="131.84917" style="line-height:1.25" xml:space="preserve"><tspan x="95.885361" y="131.84917" font-size="4.939px" stroke-width=".26459">Hamirpur</tspan></text>
  <text x="88.874863" y="157.40352" style="line-height:1.25" xml:space="preserve"><tspan x="88.874863" y="157.40352" font-size="4.939px" stroke-width=".26459">Mahoba</tspan></text>
  <text x="139.75742" y="151.29761" style="line-height:1.25" xml:space="preserve"><tspan x="139.75742" y="151.29761" font-size="4.939px" stroke-width=".26459">Banda</tspan></text>
  <text x="167.57321" y="168.4846" style="line-height:1.25" xml:space="preserve"><tspan x="167.57321" y="168.4846" font-size="4.939px" stroke-width=".26459">Chitrakoot</tspan></text>
  <text x="16.960852" y="203.08473" style="line-height:1.25" xml:space="preserve"><tspan x="16.960852" y="203.08473" font-size="4.939px" stroke-width=".26459">Lalitpur</tspan></text>
 </g>
</svg>
