<svg width="206.74mm" height="236.71mm" version="1.1" viewBox="0 0 206.73865 236.70773" xmlns="http://www.w3.org/2000/svg" xmlns:cc="http://creativecommons.org/ns#" xmlns:dc="http://purl.org/dc/elements/1.1/" xmlns:rdf="http://www.w3.org/1999/02/22-rdf-syntax-ns#">
 <metadata>
  <rdf:RDF>
   <cc:Work rdf:about="">
    <dc:format>image/svg+xml</dc:format>
    <dc:type rdf:resource="http://purl.org/dc/dcmitype/StillImage"/>
    <dc:title/>
   </cc:Work>
  </rdf:RDF>
 </metadata>
 <g>
  <g transform="translate(-2.1298 -18.341)" stroke-width=".5" stroke="#fff">
   <path id="Lakhimpur Kheri" d="m51.104 34.101c-1.4226 1.1162-3.3486 0.1093-4.7491 1.1052-1.532 1.0833 0.37205 2.9545 0.80977 4.2458 1.0395 3.0421 0.5909 7.2551-0.48151 10.22-1.4663 4.0488-6.0732 2.9217-5.8324 8.1632 0.12042 2.648-0.33923 2.4292-2.6153 3.4908-1.1818 0.55806-3.3375 1.346-3.9174 2.6591-0.07667-0.72224 0.18604-1.3022 0.766-1.729-1.9697 1.0067-4.1911 2.1885-5.362 4.1473-1.6524 2.7467 0.41582 5.0556 1.4663 7.5286 0.47053 1.1052 0.56902 2.298 0.6128 3.4798 1.8165-0.1093 3.6548-0.13121 5.4386 0.25167 3.4032 0.71128 5.7886 3.1078 8.6776 4.8476 0.2298-2.6919 1.7618-4.5522 4.1254-5.6902 2.1776-1.0505 4.7819-3.5455 6.4124-1.2803 1.2256 1.7071 2.8014 2.9654 4.9133 1.6086 0.8207-0.52526 1.3897-1.4116 1.335-2.4184 1.9916-0.17502 3.9723 0.16418 5.9309 0.48149 2.298 0.37205 5.4713 1.149 7.5176-0.39394 2.1338-1.6086 3.6986-2.9326 6.5876-2.5715 2.5825 0.31729 5.0118 1.4882 7.3425 2.5715 1.0943 0.5143 2.1885 1.0396 3.3156 1.4773 1.8822 0.73314 1.6852 3.0202 2.0244 4.8257 3.8409-8.9949-0.93014-18.373-5.7997-25.955-2.3418-3.6658-5.362-7.2879-6.0842-11.698 0.02188-4.1692 0.34315-5.7676 1.9238-8.5847-5.4211-2.1528-8.3144-1.8874-8.358-4.3385-7.5607-2.9615-7.5971-3.2724-10.944-6.1038-2.654-3.2848-2.819-3.212-7.7124-6.1002-1.3801 7.1922-3.8077 5.9583-6.1144 2.0782-2.5315 0.08018-3.3741 1.1417-4.1839 5.9456 4.1035 0.26266 3.2282 4.9023 2.9545 7.7366" fill="#e7de69" />
   <path id="Bahraich" d="m88.885 54.027c4.2677 6.4891 8.9511 14.444 7.8678 22.531-0.53618 4.0597-2.1229 5.6027 1.0943 9.1044 2.3746 2.5825 2.298 5.1321 2.4622 8.4696 0.13121 2.7138 2.101 4.7381 2.1885 6.8719 0.0985 2.2215 1.4664 2.1449 0.99578 4.3661-0.45958 2.2104 0.3064 2.0901 2.0025 2.5826 3.1406 0.93009 3.6986 3.622 3.5893 6.5657-0.0549 1.4226-0.24075 2.8341-0.29547 4.2458-0.10931 2.6042 2.4839-1.3022 3.3266-1.904 2.3088-1.6524 7.3206-4.585 6.7737-8.0428-0.52527-3.2828-0.30641-5.526-1.6742-8.7869-0.83167-1.9807-3.7097-6.9706-2.3856-9.1044 1.707-2.7248 5.1102-5.2087-0.44866-5.4275-2.3527-0.09846-1.4554-2.4622-1.8493-4.4757-0.37204-1.9041-0.98483-3.7535-1.7618-5.526-0.64564-1.4554-0.79882-3.1952-1.7727-4.4865-0.85355-1.138-2.1885-1.8603-2.2214-3.4141-0.0546-2.1557 2.3418-1.1818 4.005-1.2584 0.62373-1.2474 1.5758-2.3418 2.5387-3.3375 2.4841-2.5826 1.0637-0.22189 2.5826-2.2104-7.3319-4.3091-7.0663-4.3296-12.639-9.2814-4.0816 1.0679-4.4395 0.76975-5.7155-9.5061-5.3473-3.6084-5.4479-3.3796-9.4094-4.7883-3.2361-2.3123-3.4666-4.175-4.5718 2.0843-0.61079 5.8881 2.3746 10.253 5.3182 14.729" fill="#a3b0a3" />
   <path id="Shravasti" d="m110.77 66.361c-1.9806 0.08762-4.8257-0.90827-3.8847 2.09 0.43772 1.3897 2.0572 2.1885 2.6591 3.5563 0.86446 1.9806 1.5976 4.1801 2.2652 6.2263 0.44866 1.3788 0.76598 2.7903 0.95202 4.2349 0.25169 1.8931-0.65659 2.9437 1.6196 3.0311 6.7515 0.27357 0.70029 3.0313 0.25165 5.9309-0.6347 4.1145 3.0749 9.181 4.1363 13.066 5.0118-4.6834 6.9049 3.4141 11.041 2.8888 3.436-0.43773 2.0901-7.8131 2.2542-10.045 2.9983 0 12.081 6.8502 10.199-1.0724-0.4377-1.8712-2.1776-3.0202-3.8408-3.7097-1.4007-0.57998-2.2542-0.13121-2.2542-1.9041 0.0106-1.3022 0.32831-2.6045 0.79881-3.819 1.7509-4.5522 5.9639-6.4234 8.0211-10.582 2.1338-4.3115 0 0 2.7791-3.1295-3.5081-2.3029-3.4064-2.1328-6.02-3.7592-2.503-1.0862-2.3954-1.0413-5.6285-1.9674-6.0564 3.5053-6.0564 3.5053-14.789-2.6232-5.3612-1.9143-5.2955-7.1577-10.559 1.5873" fill="#c2f2c2" />
   <path id="Balrampur" d="m154.58 75.293c-3.6699-1.1879-3.9595-1.3858-8.3204-0.96305-1.1599 1.0724-1.532 2.7467-2.3635 4.0378-1.0505 1.6414-3.0311 2.4073-4.2677 3.9066-1.4663 1.7727-5.6793 8.8088-2.2869 9.8921 4.0488 1.3022 5.92 3.9942 4.3115 8.1415 3.83 0.76598 4.1363 4.8476 6.8719 6.9049-6.4453 4.0488 1.9041 6.4124 4.2458 8.6885 1.6852 1.6414 3.6877 2.1996 5.7667 0.66747 1.7399-1.2803 1.6195-4.9899 3.2171-4.968-0.51429-4.1692-0.36111-8.0648 2.5058-11.49 2.9326-3.4906 8.207-1.4991 12.07-1.7399-0.77692-1.2694-0.6894-2.856-0.43773-4.2566 0.37209-2.0463 0.31737-1.4663 1.0315-4.0529 0.0596-2.2442 0.40276-2.2361-0.16929-4.5531-0.01 0.24074 0.58299 2.0762 0.57204 2.3169-0.57204-2.3169-2.9181-7.1707-0.71654-4.8597 0.20884 3.642-1.2211-0.91025-2.1732-2.7486l-4.5537-0.31298c-4.4667 1.1074-4.0614 1.0585-8.0437 1.4316-1.9478 0.07677-2.4879-0.24074-4.2377-3.0015-2.3337-2.156-5.4386-4.4272-6.9816-4.4272" fill="#a3b0a3" />
   <path id="Siddharthnagar" d="m201.26 96.751c0-0.24074-3.3547-2.0653-7.3032-2.119-4.1265 0.77187-6.235 0.83405-9.3335-1.5842-5.0786-0.52133-4.8548-0.26071-8.4241-0.3831-0.47055 1.7946-0.93012 4.0159 0.10926 5.7231-5.909 0.36111-11.085-1.8384-13.908 4.9242-1.2256 2.9326-1.0505 5.2416-0.66752 8.3055 2.7138 0.0438 5.0775 1.2366 6.3358 3.6878 0.70032 1.3569 0.25166 2.5606 1.9916 2.298 1.6305-0.25167 2.8888-0.77693 4.3661-1.4663 2.9545-1.3788 5.2744 0.97388 7.6162 2.4839 2.4841 1.5976 5.5262 1.904 7.9773 3.622 1.2037-0.5471 2.5934-0.67842 3.9066-0.7003 1.718-0.0328 2.3089-1.3569 4.18-1.521-0.9958-3.0968 0.45962-3.5893 1.6414-5.942 1.4226-2.845 0.47056-5.9639 3.7205-7.8132 1.718-0.98485 4.3881-1.4335 5.2087-3.4798 0.91917-2.265-1.5101 1.2147-4.7683-2.1713-4.6994-7.7087-11.823-5.5696-16.187-5.1494" fill="#e7de69" />
   <path id="Allahabad" d="m145.37 248.78c1.0724-2.4073 1.8712-5.0664 4.0378-6.7626 1.7727-1.3897 4.1254-2.506 4.377-5.0226 0.3611-3.5455-4.202-5.3618-6.0294-7.7364-0.89733-1.16-1.2584-2.8452 0.25167-3.6986 0.96295-0.54716 1.904-2.495 2.9107-3.5893 1.1271-1.2147 0.44867-3.5893 2.0572-4.3223 2.9874-1.3678-0.20778-3.4906-1.2146-5.4713-1.3897-2.7357 0.60187-5.0226-2.0354-7.3426-1.915-1.6852-3.8081 0.19714-5.6136-0.90824-1.4882-0.90824-2.0244 0.14225-3.2828-1.5429-1.335-1.7946-2.473-3.436-4.4865-4.5631-2.1776-1.2146-4.6726-1.1928-7.091-1.2256-2.0025-0.0327-4.6507-1.6195-6.4672-0.29544-1.729 1.2693-2.7467 3.7532-3.5893 5.6574-1.2365 2.7795-3.5893 1.3022-5.712 2.506 3.9393 0.70029 3.436 4.9898 7.266 5.4275 2.4841 0.28452 4.9133 0.90826 7.3863 1.2474 1.0177 0.15334 2.0463 0.21888 3.0748 0.20799 0.15333 1.16 0.0985 2.3418-0.56901 3.3485-0.35016 0.76601-0.93009 1.1709-1.7508 1.2146-1.4444 0.0877-1.1271 1.2037-1.8165 2.101-0.96297 1.2584-0.73316 1.8384-2.4511 2.2542-2.2104 0.53619-4.6398-0.2845-6.894-0.0874-2.7795 0.24072-5.7778 0.74409-8.4916 1.3897 1.1052 3.053 1.4992 6.3577 1.1709 9.5859 2.1558-0.24071 5.3837-0.43767 5.7448 2.473 0.27357 2.2542-1.4225 4.2458-1.1928 6.4781 3.8955 0.31735 5.4275-1.2365 7.4848 2.6153 1.5976 2.9764 6.0294 1.5976 8.6885 1.8274 1.8602 0.16419-1.0615 8.4696 2.9107 9.9032 5.2855 1.9259 9.2575-1.0177 11.326-5.6683" fill="#abacda" />
   <path id="Hardoi" d="m23.341 77.739c-0.73317 1.2584-0.64562 4.8695-2.287 4.7272-1.6195-0.14227-1.6304-2.2869-2.7357-3.1187-1.0396-0.77693-2.3418-0.85356-3.5893-0.82074-2.1338 0.05466-1.4554 1.4007-1.2475 3.1844 0.31736 2.8122 1.3241 5.7778 0.54713 8.59 0.08751 2.298 1.0614 16.775-0.6894 17.093 1.7618 2.648 3.2609 4.6945 6.6312 5.2634 3.2718 0.55805 5.4494 1.3022 7.3644 4.2458 0.62376 0.96297 1.0505 2.0244 1.2365 3.1516 0.383 2.3308-0.3064 2.3854 2.1557 2.7576 1.8384-0.79884 3.8519-0.94109 5.8324-0.91919 2.0901 0.0219 4.0816 0.8754 4.6615-1.0943 1.532-5.2198 8.5134 3.6439 11.479 2.9107 1.3678-0.33926 0.90823-1.3569 1.729-2.3089 0.93014-1.0724 2.3965-1.4663 3.7532-1.5648 1.7837-0.13121 2.506-1.532 4.377-1.718 1.7836-0.17503 3.2937-0.19714 4.5192-1.6633 0.64566-0.77696 1.2037-1.7071 2.1885-2.1229 1.149-0.48148 3.7971 0.19692 3.9285-1.1818 0.27358-2.6919-3.7424-3.7424-5.5041-4.7491-2.5387-1.4663-5.154-2.4511-8.0647-2.845-1.9369-0.26264-3.8738 0.43773-4.0597-1.6961-0.14227-1.6524-0.70033-3.239-1.4554-4.7053-1.3679-2.67-3.3266-4.979-5.0009-7.4521-1.0067-1.4773-1.904-3.0313-2.5168-4.7272-0.72222-1.9916-0.07677-4.0378-1.8384-5.1868-2.9217-1.904-5.2633-3.9504-8.8854-4.3442-4.1473-0.45961-8.3384 0.60184-12.529 0.29544" fill="#abacda" />
   <path id="Sitapur" d="m47.229 88.436c1.4554 3.0968 3.7752 5.6902 5.6355 8.5462 0.90823 1.3897 1.7289 2.8671 2.2323 4.4538 0.63468 2.0025-0.35017 3.622 2.0025 3.8408 3.1295 0.29544 18.132 3.5125 15.911 8.6011 1.0505 0.0106 2.0901 0.0547 3.1406 0.13121 2.101 0.14227 1.335-0.38301 1.7399-2.1338 0.3064-1.3131 0.8973-2.6261 2.1885-3.2063 1.3022-0.57994 2.8671-0.51429 4.2566-0.53618 2.1666-0.0438 2.4073-2.1666 5.176-1.4226 3.6767 0.98485 6.2265 1.2912 6.7734-3.0311 0.59094-4.6507 5.7997 1.6961 6.9814 3.239 0.0549-1.0396 0.28452-2.0463 0.68944-3.0092-0.95204-0.67844-1.4226-1.7618-1.4664-2.8888-0.0657-1.6305-1.3788-2.1776-1.8165-3.8955-0.766-3.0311 0.31733-6.8283-1.335-9.5967-1.0724-1.8056-2.9656-2.9545-3.6001-5.0445-0.61278-2.0244-0.16418-5.3291-2.3418-6.1827-4.005-1.5648-8.4477-4.8257-12.967-4.0269-1.8274 0.32828-2.8779 1.4882-4.2677 2.5387-1.6742 1.2584-4.0927 0.88635-6.0185 0.62376-2.4622-0.33924-4.9242-0.93016-7.4191-0.70033 0.08762 1.729-1.5976 2.9545-3.1952 2.9874-1.9807 0.0438-2.5387-1.7837-3.7096-2.9764-1.0396-1.0505-3.4251 1.0396-4.7383 1.6086-5.2853 2.298-6.2373 7.0142-3.8517 12.081" fill="#c2f2c2" />
   <path id="Gonda" d="m116.38 122.7c0.71128 1.7399 2.0682 2.7795 3.9723 3.4251 1.718 0.57996 1.5539 1.1928 2.9983 2.298 1.9916 1.521 5.3182 2.473 6.3468 4.9571 2.6264-0.25165 4.6396 2.0463 7.266 1.1599 3.4251-1.1599 6.9049-4.7272 10.308-1.346 0.48152-2.8122-0.01-5.5698 3.1295-6.292 2.4949-0.57992 5.0883-0.32823 7.6271-0.40486 2.9656-0.0874 5.2417-1.729 7.7147-3.1516 0.72221-1.5757 0.29548-3.1952-0.2517-4.7272 1.138-0.4158 2.3308-0.64559 3.5127-0.84254-0.90823-3.0968-2.7029-5.6466-6.1389-6.0732-2.5826-0.31734-1.8603 0.13121-2.506 2.1885-0.44866 1.4226-1.4226 2.6918-2.8452 3.2499-3.5455 1.4116-4.5412-1.9916-7.3425-3.1295-3.1844-1.2912-6.0404-4.027-1.6852-6.7626-2.5168-1.904-2.8779-5.5041-6.0842-6.6969-1.3569-0.50333-2.856-0.26258-4.213-0.755-2.0791-0.76602-3.819-2.4184-6.1608-2.4184-0.20798 2.7903 0.50336 5.7997-0.55809 8.4807-1.521 3.8409-4.8476-0.21889-6.3796-1.6196-2.8341-2.6042-7.9444-0.20799-6.5108 3.6548 2.0682 5.559-7.266 7.8021-9.0168 11.862 2.8888 0.12038 5.537-0.16417 6.8172 2.9437" fill="#e2b584" />
   <path id="Basti" d="m165.51 118.59c1.1599 3.261 0.61279 4.5631-2.2434 6.2154-2.0572 1.1928-4.0488 1.6743-6.4234 1.6852-2.1338 0-4.3223-0.0985-6.4234 0.39392-2.8122 0.65656-2.3965 2.1666-2.856 4.7053-0.5362 2.9545 4.0269 8.415 6.9595 9.5091 3.064 1.149 6.8173 1.8712 8.6011 5.0775 2.0682-2.1229 5.7667-0.68935 7.7147 1.1271 2.0682 1.9259 5.92 1.1709 8.5243 1.5757 1.4444 0.22981 2.8341 0.66752 4.1473 1.3131 1.4226 0.70035 1.1162-0.0767 2.1885-1.0067 1.5211-1.335 3.7643-2.3856 4.5631-4.3661 1.1381-2.8779-1.7399-3.9393-3.5674-5.2633-1.8712-1.346-2.9983-4.9899-2.9218-7.2441 0.0765-2.287 2.3527-2.6264 4.2239-2.5606 0.67841-2.4622-0.88639-6.1935 2.0572-7.5395-1.718-1.2037-3.7535-1.915-5.7448-2.506-2.4839-0.74407-4.202-2.9326-6.6095-3.819-2.0463-0.75503-3.4906 0.52526-5.3072 1.2037-2.2215 0.82069-4.6615 0.70032-6.883 1.4991" fill="#a3b0a3" />
   <path id="Pratapgarh" d="m145.03 201.38c0.10926-2.4292 1.3678-4.1911 2.5934-6.1827 1.335-2.1666 1.4664-4.5303 2.3088-6.8611 0.60186-1.6852 2.2432-1.8384 3.83-1.9697 1.8931-0.15312 1.2584-1.0176 1.335-2.6918 0.0874-2.2104 2.1995-1.2475 4.0269-1.3022-0.24076-1.2474-5.8873-2.0025-7.474-2.8014-3.3813-1.707-6.4015-2.1447-10.188-2.0572-3.9723 0.0874-7.9335 0.55805-11.906 0.45959-3.3266-0.0877-7.1894 0.99575-10.144-1.0286-0.89732-0.61277-4.979-3.9831-5.537-2.2434-0.0438 0.14225-2.101 1.4773-2.3088 1.6633-1.0505 0.98488-2.0572 2.3856-2.3199 3.819-0.20799 1.149 0.13121 2.3308 0.36112 3.436-1.5867 0.45959-2.8122 1.8056-3.9504 2.9107-1.8165 1.7727-4.0816 2.9656-6.3358 3.7424 2.5825 0.45959 2.2214 2.5496 2.6699 4.4865 0.21887 0.91918 0.85354 1.4444 1.7727 1.6524 0.31733 1.7508-0.75505 3.261-0.75505 4.979 2.6153-0.22984 4.8038 1.8274 7.2003 2.4949 2.2761 0.63468 5.4386 0.82071 7.6598-0.24076 3.2828-1.5757 2.3418-8.5572 7.3972-7.7147 4.6069 0.76601 9.5529 0.21888 13.263 3.5017 1.0942 0.96296 1.904 2.4292 2.7684 3.5893 1.4007 1.8931 2.5277-1.0177 3.7314-1.6414" fill="#fcc" />
   <path id="Kaushambi" d="m102.98 201.38c0-1.2803 0.6128-2.4184 0.77694-3.6659 0.27356-2.0792-1.3788-1.2037-1.7946-2.9656-0.60185-2.5934-0.35018-4.1692-3.5674-4.4427 0.24075 1.4882 0.56901 2.9545 0.98483 4.4099-4.8038 0.43773-8.8854 1.8822-6.1278 7.441 1.0395 2.0901 1.9697 3.9174 1.521 6.292-0.37205 1.9916-1.0943 5.5041-3.8957 3.3921 0.13121 1.2037-0.33919 1.904-1.4225 2.1119 1.6414 2.3637 3.5344 3.7862 6.3577 4.3991 1.5648 0.33921 3.064 0.47053 4.4537 1.335 1.6524 1.0286 3.1733 2.6372 5.2198 2.8341 3.053 0.2955 7.6052-1.6633 10.669-2.1229 1.9588-0.29546 9.2575 1.1599 10.21-1.0505 0.38297-0.89732 0.96297-2.4622 1.6305-3.1514 1.0943-1.1381 2.473-0.32831 3.1186-2.4622 0.86447-2.8779-0.77695-2.265-2.9764-2.5715-2.473-0.33922-4.9023-0.95201-7.3863-1.2475-3.6331-0.42676-2.9656-4.3334-6.1389-5.1868-1.8493-0.50334-3.7862-0.48144-5.5698-1.2584-1.904-0.8207-3.8847-2.2761-6.0623-2.0901" fill="#c2f2c2" />
   <path id="Fatehpur" d="m93.372 212.27c3.7424-2.1776 0.25168-8.9183-0.63469-11.293-1.8822-5.0445 2.7357-5.909 6.6531-6.2592-0.40489-1.4554-0.73315-2.9218-0.98483-4.4099-1.0505-0.10926-2.0025-0.59094-2.8014-1.2694-1.7946-1.521-2.9764-4.0926-2.8779-6.4562-6.6312 0.78789-9.1699-5.4167-15.254-5.7559-3.3267-0.18608-6.5657 0.64562-9.7282-0.82072-1.3131-0.61276-2.4949-1.521-3.2499-2.7684-1.2913 0.39394-2.2215-0.5909-2.8233-1.5976-1.0176-1.6961-1.5648-5.4275-3.9174-4.8257-3.447 0.88637-6.0623 3.644-9.3014 5.0337-4.585 1.9696-12.529 9.2356-6.2592 13.58 2.5934 1.7946 6.4672 1.5539 9.4655 1.6852 3.3922 0.14225 6.5876-0.0874 3.6767 3.3048-3.819 4.4756 10.614 7.2222 12.803 7.2222 2.287 0 4.7602-0.16418 6.883 0.86446 1.3022 0.63468 2.3089 1.6852 3.0749 2.8888 1.5867 2.4839 1.5867-0.80977 3.3594 0.59089 1.8493 1.4663 0.31733 4.9899 2.473 6.4342 1.4335 0.96294 3.3702 0.65652 4.8368 1.5976 1.2694 0.84256 2.7905 3.3156 4.6069 2.2542" fill="#e2b584" />
   <path id="Kanpur Nagar" d="m45.983 172.95c3.9942-1.8712 8.6557-5.9747 13.076-6.3358-2.5496-4.213-2.0901-8.2727-6.1935-11.479-4.1362-3.2282-4.4099-8.8637-8.973-11.621-4.3223-2.6042-8.3274-3.7862-8.1632-9.6514 0.07667-2.5934-0.2298-4.6288-2.3965-6.2593-1.0943-0.8207-5.2198-3.6658-2.6045-4.8038-0.67845-0.0985-1.3569-0.18608-2.0354-0.25167-0.05479 1.2037-0.9739 1.2256-2.1447 0.95204-0.21885 1.4991-0.65657 2.9764-1.2256 4.377-0.45958 1.149-1.0286 2.265-1.7508 3.2828-0.19689 0.27355-2.4073 2.2432-2.4073 2.3199 3.6658-0.0657 5.8105 2.7357 7.0799 5.8324 0.90825 2.2104 0.71128 2.5715 2.7357 3.5017 1.4335 0.65659 2.5715 2.0244 3.5236 3.2282 4.2896 5.4056 6.8173 15.889-2.3089 17.169-2.8671 0.40486-7.8678 8.6666-5.9858 10.352 1.5101 1.346 3.4689 1.9478 5.4605 2.0244 2.3089 0.0874 1.6414 1.6086 2.2215 3.6878 0.47053 1.6852 1.1162 3.447 2.265 4.793 1.9259 2.2542 2.5934 0.94106 3.4141-1.3241 1.4007-3.8738 2.3199-7.8678 6.4124-9.7937" fill="#e7de69" />
   <path id="Kanpur Dehat" d="m28.945 165.53c1.1052-2.1885 2.9436-2.2214 5.0883-2.5058 2.856-0.38298 4.1035-3.2828 4.3661-5.8654 0.50337-5.0337-2.265-10.155-6.0185-13.405-1.8712-1.6086-2.7903-0.87544-3.7096-3.3924-0.84258-2.298-1.9916-4.8149-4.2239-6.0951-2.7576-1.5648-4.7491 0.28455-7.5833-0.27353-2.6372-0.51433-4.9023-1.1599-6.6095 1.9478-1.0505 1.9041-0.26264 3.8847-1.9478 5.3401-1.5429 1.324-1.9697 5.2306-2.681 7.1237-0.53618 1.4444-0.85351 2.9545-1.3569 4.3989-0.52525 1.4992-1.9697 1.4116-2.0901 2.8671-0.18602 2.2432 0.1313 3.2063 1.4444 4.8695 1.6524 2.0792 3.7205 3.6331 6.0074 4.9571 2.6045 1.5101 3.5125 3.622 5.5809 5.6355 2.3854 2.3199 5.7012 2.4511 8.8307 2.3418 2.4292-0.10926 3.8628-5.8654 4.9023-7.9444" fill="#fcc" />
   <path id="Barabanki" d="m100.92 103.7c-1.2037-0.93011-2.9764-1.6633-4.5303-1.4116 0.12037 1.9806-0.91918 2.5168-1.1818 3.9942-0.50339 2.856-4.9022 0.49243-6.6314 0.21886-1.4006-0.22981-2.5168 0.25169-3.0968 1.5976-1.3131 0.0438-2.6481 0-3.9612 0.18608-3.0859 0.43769-3.6658 3.1295-3.9831 5.8324 1.7727 0.13121 5.7669 0.76597 6.117 3.031 0.35016 2.298-2.0682 0.44871-0.56902 3.3813 1.2912 2.5388 2.4073 5.1649 3.4906 7.7912 1.2475 3.0092 2.3089 6.0732 4.5084 8.5354 1.6961 1.8931 3.9831 7.1565 1.346 8.9292 2.0463 0.57994 4.2677 1.4663 5.7448 3.064 1.3022 1.4116 2.8014 0.79882 4.7053 0.62373 1.8055-0.17502 3.7752-0.35015 5.537 0.20799 2.2104 0.71128 1.8275 0.72223 3.9831-0.78787 1.6305-1.138-0.49243-5.351-0.75505-7.2002-0.36112-2.495 0.0328-4.6288 1.0286-6.9049 0.93014-2.1557 0.91918-4.1254 0.99579-6.4234 0.0766-2.3635 0.0657-6.1935 3.1078-4.3553-0.75507-3.4141-2.8998-4.1911-6.0732-4.2347-1.9697-0.0327-2.0025 0-1.8603-1.9588 0.10932-1.4554 0.27359-2.9107 0.24076-4.3662-0.0659-2.9653-1.2803-5.0775-4.3553-5.6355-2.0354-0.38295-2.3308-2.9653-3.8081-4.1146" fill="#f6d3e9" />
   <path id="Faizabad" d="m115.6 143.68c3.0859 0.1204 2.9326 2.3089 3.0311 4.7381 0.0874 2.1557 8.6008 1.5977 10.79 1.8056 3.8738 0.37205 7.452 1.16 10.943 2.9218 2.3635 1.1928 6.9814 4.9242 9.3779 2.7357 0.86448-0.78784 1.7618-1.6304 2.1338-2.7795 0.3064-0.96297-0.33917-2.4073 0.36112-3.2171 1.521-1.7617 4.8586 0.88638 7.1456-0.62369 1.0396-0.6894 2.0135-1.4663 2.9326-2.298 1.5648-1.4225-0.64565-2.1885-1.8055-3.1625-2.1996-1.8384-4.6726-1.8493-7.1237-3.2063-5.8216-3.2282-5.4167-12.07-13.974-7.2879-2.6045 1.4554-4.0597 1.718-6.7407 0.55809-1.3788-0.59089-2.5387-0.12037-3.4032-1.2694-0.80972-1.0833-2.0572-1.8056-3.2063-2.4841-2.0572-1.2146-3.7424-3.3375-5.7012-3.9942-1.6742-0.56903-2.9107-1.9369-4.5303-2.6153-1.8712-0.78788-1.9478 2.1776-2.0682 3.5344-0.30637 3.272-0.32829 5.7667-1.5429 8.8637-1.5976 4.0488-0.0657 8.3055 1.0286 12.289 1.7618-2.2323-2.495-4.7053 2.3526-4.5084" fill="#e7de69" />
   <path id="Ambedkar Nagar" d="m173.59 148.43c-2.8122-0.26263-4.0816-2.9545-6.9923-3.1295-3.6986-0.22979-5.0337 2.856-8.1415 4.5303-2.0025 1.0833-4.6507-1.7618-6.2374 0.0765-0.70036 0.80977-0.0438 2.2542-0.36111 3.2171-0.50334 1.5538-1.915 2.506-3.0092 3.611 4.3223 0.72219 5.8435 3.6001 9.148 5.9747 3.6439 2.6153 8.7761 0.64561 12.157 2.9874 1.6524 1.1381 2.9764-0.73315 5.154 0.62377 1.4225 0.88635 2.3307 2.101 3.3266 3.3924 0.93016 1.2037 2.0682 1.8274 3.6001 1.9587 2.5388 0.20798 1.3241-4.2458 1.2584-6.1716-0.0765-2.3854-0.39393-3.6329 2.3965-3.1625 2.0463 0.35021 3.8847 1.4445 5.7559 2.287 1.8056 0.80975 4.7929 2.4184 5.0226-0.21885 0.18608-2.0354 0.33918-4.0816 0.18608-6.117-0.39393-4.4538-6.0185-5.6683-9.6406-6.6969-4.793-1.3788-8.5792-2.681-13.624-3.1625" fill="#fcc" />
   <path id="Sultanpur" d="m165.51 164.8c-4.3004-0.31732-7.2332-1.5648-10.242-4.6179-3.0091-3.053-5.9747-2.7795-9.6843-4.2566-4.377-1.7509-7.8459-4.4318-12.628-5.2306-2.9326-0.49243-5.909-0.65658-8.8854-0.80974-2.856-0.15312-5.4275 0.79878-5.4605-2.4949-0.0106-1.0614 0.0438-2.4292-0.93015-3.1295-0.84258-0.60182-3.8847-1.1599-4.596-0.0874-0.45959 0.68942 0.47052 2.1338 0.47052 2.8998 0 1.6961-1.9587 2.1447-3.0202 3.0859-0.68942 0.62371 0.65656 2.5715 0.6894 3.7862 0.0657 2.2652-0.53617 4.5195-0.28451 6.7954 0.54713 4.76 3.0968 8.5462 2.9656 13.536 3.4906 0.15312 5.3291 3.4689 8.765 3.8081 4.4099 0.42676 9.2467-0.0547 13.656-0.31734 4.6834-0.28451 9.739-0.93013 14.094 1.1928 2.112 1.0286 4.0707 2.0135 6.4234 2.3527 1.8602 0.27358 3.83 0.30641 5.5479 1.1818 3.5344 1.8165 4.1581 6.5765 7.835 8.1742 2.2542 0.98485 4.6945 0.42675 7.0361 0.27358 2.101-0.14226 0.98485-3.7643 0.64563-5.4167-0.86451-4.2239-2.5277-8.2289-3.9174-12.289-1.7509-5.1322-2.7684-8.0101-8.4807-8.4369" fill="#abacda" />
   <path id="Raebareli" d="m111.19 161.95c-1.1052-3.3922 1.6852-8.5681-1.1381-11.348-2.4949-2.4512-7.2879-0.99578-10.341-0.86447-1.4007 0.0547-3.2063-2.3526-4.7053-3.031-2.4073-1.0943-3.4689-0.56902-5.7012 0.68937-3.4141 1.915-3.7535 7.4302-8.8307 4.8257-0.07677 1.1052 1.7508 0.93011 2.5715 2.0025 0.85353 1.1162 1.2693 2.5496 1.532 3.9066-3.9723 1.6305-7.9006 0.33925-12.004 0.5362 1.4335 3.0312 1.6852 6.0293-1.2584 8.2181-1.149 0.86445-2.67 1.1161-3.6877 2.1666-1.3022 1.346-1.0177 3.5563-3.1187 4.1911 3.1844 5.2634 9.4983 2.8122 14.368 3.7424 5.5698 1.0614 7.5067 6.3469 13.864 5.5917-0.13121 3.2063 2.2323 7.4302 5.734 7.7255 1.0942 0.0984 2.3308-0.99578 3.5674-1.1928 2.1885-0.32826 3.9066-3.064 5.5479-4.3661 0.60186-0.51432 1.2803-0.88637 2.0244-1.138-0.22981-1.1052-0.56902-2.298-0.36113-3.436 0.36113-1.9587 2.298-4.3662 4.0708-5.2853 2.845-1.4882-1.4116-10.691-2.1338-12.934" fill="#a3b0a3" />
   <path id="Unnao" d="m67.628 169.08c1.6305-1.6852 4.0816-1.8055 5.4056-3.9723 1.2584-2.0463 0.47053-4.4318-0.47053-6.4234 1.904-0.0874 12.584 1.5429 11.785-1.5101-1.0505-4.027-4.2785-4.5193-6.883-7.1237-2.3199-2.3199-3.7424-5.1759-5.9309-7.4737-1.3569-1.4335-2.8779-2.1885-4.4208-3.3266-1.521-1.1271-1.7399-4.0378 0.80979-3.447-0.63468-3.3486-3.4908-7.5833-5.7886-10.111-0.41581-0.48149-0.93011-0.79886-1.5429-0.97392-1.5648-0.40487-0.75505-0.57998-2.1666-1.3679-1.4882-0.83162 0.22978-2.8341 0.91919-3.5344-1.7071-0.0547-3.7205 0.20799-4.9023 1.5867-1.3569 1.5758-1.5101 3.2609-4.1582 1.9588-1.9369-0.952-7.6598-7.3098-9.0496-2.5715-0.52527 1.8056-1.1818 1.1928-3.1514 1.1271-1.4882-0.0438-2.9875-0.0876-4.4646 0.10932-2.5934 0.35017-5.0664 1.2803-2.5496 3.8081 1.3679 1.3679 3.3705 2.0901 4.202 3.9393 1.1709 2.5934-0.26262 5.6028 1.0395 8.1742 2.0134 3.9831 7.3317 4.4427 10.177 7.6271 1.7399 1.9368 2.2215 4.6177 3.6439 6.7626 1.3241 1.9916 3.4251 3.0202 5.0337 4.7053 1.729 1.8164 1.4991 4.1911 2.2761 6.4123 0.67845 1.9478 2.0354 3.5563 2.8998 5.4167 0.66752 1.4225 1.4335 4.1581 3.2937 4.4427 2.681 0.4377 2.6919-2.8998 3.9942-4.2349" fill="#c2f2c2" />
   <path id="Lucknow" d="m59.442 123.63c0.1093 0.8973 3.3156 2.8671 4.2458 4.4757 1.532 2.6372 3.6548 4.563 4.2458 7.6928-2.0353-0.47056-2.5277 1.4772-1.4006 2.8888 1.2584 1.5758 3.5674 2.3527 5.0118 3.8736 2.6372 2.7795 4.2458 6.5438 7.5614 8.8418 6.303 4.388 6.1827-2.5715 10.866-4.2787 5.8324-2.1228 3.2282-7.5394 0.3283-11.194-3.1187-3.9285-4.3223-9.3998-6.4672-13.875-0.78786-1.6414-1.9916-2.3527-0.6894-3.6658 0.51432-0.52524 0.6894-1.1818 0.27357-1.8274-0.85351-1.335-2.8779-2.0025-4.3553-2.298-2.3746-0.45959-5.0992-0.49243-7.4956-0.35016-2.856 0.16418-3.239 1.6742-5.2087 3.2718-2.112 1.718-4.9242 0.47056-7.0252 2.6153-1.1161 1.1709-2.5387 3.5344 0.1093 3.83" fill="#e2b584" />
  </g>
  <g fill="none" stroke="#000">
   <path d="m68.237 47.59-1.2261 2.1135-0.95361 3.3371-0.68115 3.6708-0.13623 1.891 0.27246 7.1192-0.68115 1.2236-1.0898 1.6686 6.5391 8.2316 2.0435 10.679 0.68115 3.2259 3.4058 8.3428 1.2261 5.4507 0.27246 1.4461 1.2261 1.2236-0.68115 1.1124" stroke-width=".5px"/>
   <path d="m78.449 108.32 0.27633 1.658-0.88708 1.4483 0.36987 0.88769v1.1096l0.2959 1.0356 0.22192 0.88769 0.59179 1.4055 0.88769 1.4055 0.51782 1.5535 0.59179 1.9973 0.88769 2.737 0.2959 0.88769 1.1096 1.7754 1.1836 2.0713 1.1096 1.6274 2.5151 3.1069 0.73973 1.3315 1.2576 4.3645 0.51782 1.4055 2.4411 4.2165 3.9946 5.696-0.36987 0.81371-0.074 2.737 0.66577 1.4795-0.074 2.4411 0.5918 1.0356-0.14795 1.3315 0.51782 0.96166 0.14794 2.959 0.66578 1.7754 0.14794 6.0659 0.88769 1.9233 1.4795 1.4055 0.81371 1.4795 1.1096 1.1096 2.1452 1.4795 0.5918 1.4795 0.81371 0.73974 3.9946 1.9973 1.1836 0.51782 1.0356 0.81371 0.8877 1.3315 1.6274 1.7014 1.4055 0.81372 1.5534 0.66577 1.0356 1.5534 1.8494 1.5535 1.4795 0.88769 1.2576 0.36987 0.73975 0.51782 1.5534 0.22192 1.6274 1.2576 3.1809 0.96167 2.737 1.1096v1.4795l-0.074 2.4412-1.0356 1.9233" stroke-width=".5px"/>
   <path d="m146.81 150.06-2.0544-1.4267-1.0136-0.39418-1.802-0.56312-2.6467-2.1962-2.0835-0.33787-1.9146-1.5767-0.67575-0.67574-3.8292-2.1398-0.78837-0.56312-1.633-0.90098-0.56312-0.56312-0.67573-0.22524-1.3515-1.0136-1.2388-0.73205-1.2389-0.73206-0.61943-0.39418-1.0136-0.22525-1.0136-0.16893-1.3515-0.33787-1.0136-0.28156-1.802-1.0699-1.633-1.1262-2.0272-1.4641-2.8156-2.1399-2.3651-1.8583-0.67574-0.5068-1.4641-0.39418-2.6466-2.1962-3.3787-2.6467-1.2389-1.1262-1.4641-1.7457-0.90098-0.22524-1.1262-0.39418-2.3651-1.7457-1.2389-0.84467-2.534-1.3515-1.3515-0.33787-1.0699-0.22525-1.9709-0.39418-0.90099-0.45049-1.3515-0.73206-1.6894-0.67574-0.78836-1.0136-1.0582-1.6402" stroke-width=".5px"/>
   <path d="m88.088 133.65-1.1874 1.533-0.59238 2.357-1.9252 3.83-1.1848 3.3881-1.3329 3.83-1.4809 2.9462-0.44428 2.7989-2.9619 2.7989-1.1848 3.83 0.1481 5.5978-4.8871 3.2408 0.59238 1.7677 2.0733 0.58924 3.11 1.915 4.1467 2.5042 6.5162 4.4193 3.8505 1.915 2.9619 1.6204 2.9619 2.3569 2.0733 0.73655 7.1086 3.83 2.0733 2.2096 3.5543 0.44193 1.629 0.58924 2.8138-2.0623 5.334 0.46147" stroke-width=".5px"/>
   <path d="m78.438 108.29-1.9721 0.89056-1.0579 2.5514-1.5113 2.8515-2.1158 3.1517-1.209 2.8515-0.90676 0.60033-0.30225 0.90049-2.7111 0.69582-0.95713 0.86411-1.7402 0.34564-2.0013 0.25923-0.87012 0.17282-1.1312-0.0864-1.8273 0.51846-0.95713 0.6913-0.60908 0.34562-1.3052 0.43206-1.0441 0.7777-1.1312 0.8641-0.95713 0.51846-0.6961 0.25923-1.3052 0.43205-1.8273 1.1233-2.0013 1.1233-1.3052 0.69128-0.52207 0.51846-0.6961 0.86411-2.1753 1.7282-1.3052 0.69128 3.4805 3.2836 3.1324 3.5428 1.2182 1.7282 1.1312 1.8146 0.60909 1.8146 0.43506 1.2098 1.7402 2.8515 1.7402 2.7651 0.60908 0.8641 0.43506 1.2098 1.1312 1.9874 0.52207 0.95052 1.2182 0.60486 1.1312 0.77771 0.6961 0.43204 0.78311 0.95052 1.2182 1.0369 1.4792 0.95052 0.52207 1.0369 2.6974 2.3331 1.2182 1.1233 1.6532 1.3826 2.2394 0.74586" stroke-width=".5px"/>
   <path d="m63.742 68.614-0.90435 0.45185-0.57634 0.25824-0.81648-0.30129-0.57634-0.25825-0.96057 0.64561-2.0652 0.98994h-1.2968l-1.0566-0.04304-0.48028-0.38737-1.0566 0.12912-0.72043 0.38737-0.76846-0.04303-0.3362 0.12912-0.81648 0.43041-0.72043 1.076-1.4409 1.076-0.81648 0.7317-0.96057 0.30128-2.6416 0.55953-1.9211 0.34433-1.729 0.17216h-1.5369l-1.4409 1.7647h-1.7771l-0.96057 0.04303h-0.52831l-0.52831 0.47345-0.52831 0.12912 0.24014 0.60257 0.38423 0.43041 0.62437 0.38737 0.04804 0.38737 0.43226 0.64561 0.57634 0.47345 0.96057 1.8508 0.48028 0.9469 0.28817 0.55953 1.9692 1.9799-0.04804 0.38737 1.1047 1.2051 0.3362 0.30129 1.3928 0.77474 2.0652 1.5495 2.2093 2.6685 0.86451 0.12913 0.62437 0.17216 0.76846 0.04306 2.5455 1.5064 1.4889 0.60257 1.0566 0.34433 1.2487 1.8077 1.2487 0.86082 1.2487 0.77474 0.57634 1.076 1.5369 1.1191 1.4889 0.86082 2.0172-0.12912 0.57634 0.64561 0.38423 0.30129 1.1527 0.51648 1.3928 1.2482 0.86451 0.0431h0.57634l0.52831 0.4304 0.52831-0.25824 1.0086 0.0862 1.1047 0.0431 0.43226 0.21519h0.81648l0.86452 0.0862 1.0566 0.043 1.7497 1.2944" stroke-width=".5px"/>
   <path d="m76.594 106.69 1.8355 1.6245" stroke-width=".5px"/>
   <path d="m78.457 108.32 2.2664-1.1332h1.2465l0.56659-0.67992 2.153-1.0199 2.6063-0.56659 2.2664 0.22664 2.153-0.45327 0.79322-1.0199 1.1332-1.1332 2.153-1.3598 2.2664-2.9463 3.3995-3.8528 1.6998-0.45327 1.0199 0.11332 1.1332 0.22664 1.3598-0.79323 0.22663-0.79323-0.22663-1.2465 1.5864-1.3598 0.22665-3.0596v-2.9463l-0.11332-1.6998-0.90654-3.6262v-1.4731l0.45327-2.8329 1.3598-3.7395 0.45328-2.153 0.90654-0.67991 1.6998-0.56659 1.2465 0.45327h1.4731l2.3797 0.33995 2.833 0.45327 2.3797 0.56659 1.9264 0.56659 2.493 0.90654 3.0596-0.56659 2.9462 1.2465 2.493 0.6799 2.7196 1.8131 1.9264 1.8131" stroke-width=".5px"/>
   <path d="m109.28 70.699-3.0941 0.54557-2.5923-0.31176-3.5122-0.93527-1.4216 0.70145-0.66899-0.07794-0.83624-0.70146-2.9268-0.85733-2.007 0.85733-1.0871 0.31176-0.75262 0.23382-1.0035 0.15588-1.9234-0.31176-1.0035 0.62352-1.338 0.85734-2.1742 0.54558-3.0941 0.85733-1.1707-0.54558-1.0035-0.15588h-1.5889l-1.5052-0.23382-1.7561-0.46764-0.41812-0.23382h-4.0976l-1.2544-0.31176-1.7561-0.93527-0.41812-0.07794" stroke-width=".5px"/>
   <path d="m124.04 92.719 0.88471-1.6979v-1.5766l0.22118-1.2128 2.1012-4.4874-0.33177-1.8192-1.1059-1.6979-0.22118-0.6064-0.22118-0.72768-0.22118-0.6064 0.27647-0.9096-0.0553-0.66704 0.27648-1.3341 0.94-2.7894 0.49765-2.0011" stroke-width=".5px"/>
   <path d="m106.67 93.475 0.92071 0.12606 2.806 0.58826 0.65765-0.29413 1.0522-0.25211 0.39459-0.42019 0.48228-1.0505 0.48227-0.54625 1.2714 0.37817 1.4907 0.37817 1.9729 0.46221 1.403 0.58826 1.5345-0.16808 1.6222-0.08403 1.2714-0.46221" stroke-width=".5px"/>
   <path d="m136.65 118.79 2.5591 0.14217 0.85303-0.71087 0.49761-0.56869 0.0711-0.28435-0.63978-0.71087-0.63978-0.63978-0.78194-1.635 0.56868-0.49761-0.14217-0.49761-1.0663-0.28434-1.1374-0.28435-1.2796-0.85304-0.99523-0.42652-0.78195-6.1135-0.14218-0.71087-0.71086-1.7061-1.3506-1.7061-1.4217-1.8483-1.3506-1.9193-1.2085-1.4217-1.5639-0.92413-0.99523-0.92413-0.63978-0.78195-0.35543-0.78196" stroke-width=".5px"/>
   <path d="m78.457 108.32 4.881 0.83144 3.0634 1.5228 5.0704 2.6395 1.6901 0.91366 1.5845 1.0152 2.007 0.91366h0.84506l2.3239 1.5228 2.007 0.20304 9.507 0.20304 5.8098 0.30455 7.2887 0.81214 6.1267 0.30456 2.9577-0.50759 3.0267-0.21017" stroke-width=".5px"/>
   <path d="m140.63 117.37-0.93896-3.0772 1.382-0.72738 1.9639 0.14549 1.5275 1.1638 0.72738 1.4548 2.4731 0.43643 1.3093 0.43642 1.9639 1.4547 1.382-0.2182 2.0366-0.65464 1.6002-0.43642 0.80009-0.50916 1.3093 0.65463 1.673 0.65464 2.4731 1.2365h4.5097l2.3276-0.43643 1.3093-0.43643 2.8368-0.21821 0.94558-1.1638 2.6186-1.1638" stroke-width=".5px"/>
   <path d="m140.16 75.56 0.28472 1.2041 1.0133 0.42941 0.74307-0.36806 0.81062 0.24538 0.94574 0.18403 0.67552 0.42941h0.5404l1.4186 0.61344 1.4186 0.5521 0.47286 0.5521 1.4862 0.61344 1.959 1.0428 2.2292 1.1655 0.67551 0.9815 1.0808 0.18403 2.0941 2.2697 0.27976 0.88918 0.66529 1.168 1.0201 0.8458 1.1088 1.4902 2.6168 1.3291-0.0443 0.56387 0.31045 0.6847 3.3264 0.88608 3.1934 0.92636 0.26611 1.0875 0.0444 1.3291-0.22176 1.2888-0.17742 1.6111 0.26614 0.52359 0.2661 1.2486 1.3306 3.5846 0.97576 1.45 1.0645 2.5777 0.31047 0.88607 0.35482 1.0472 0.75397 1.611 0.4879 0.8458 0.0443 0.80554 0.44353 0.52358 0.16104 1.1005" stroke-width=".5px"/>
   <path d="m109.71 68.574 6.4299-6.4352 3.6098-2.5741 1.0153-1.1032 0.90244-0.18386 0.90244-0.36772 1.1281-0.36772 0.90246-0.55159 2.0305-0.18386" stroke-width=".5px"/>
   <path d="m127.08 70.585-0.0597-2.2964-0.23894-1.9902 0.0597-1.9902-0.11947-3.9805-0.0896-3.5212" stroke-width=".5px"/>
   <path d="m191.7 92.157-2.2042 1.0286-2.792 1.9103-2.6451 2.4981-0.14695 0.88169-0.88169 2.6451-2.6451 1.4695-1.4695 2.6451-1.0286 0.58779-0.8817 2.0573-0.58779 3.8207 0.44084 4.2615" stroke-width=".5px"/>
   <path d="m140.22 75.832 4.7448-1.5731 4.3652 1.5731 1.3286 1.8353h1.7081l1.7081 1.8353 3.7959 0.52438 4.1754 0.26219 3.7959 1.5731 1.8979 0.78656 2.0877 1.8353 1.3286 1.0488 1.7081 1.3109 1.3286 3.1463 2.8469 3.6706h2.2775l4.7448 3.9328" stroke-width=".5px"/>
   <path d="m134.43 198.42 0.71622-1.136 0.21543-2.4057 0.93357-1.9761 0.43087-1.1169 1.3644-2.7494 1.0772-2.0621 1.0054-2.7494 0.5745-1.6324-0.14364-2.5776 0.21546-1.6324 0.50267-1.4606 0.93357-1.7184 1.0054-2.148 0.78993-1.7184-0.0718-1.3747 0.14362-1.5465 0.71813-3.4368 1.6517-11.771 0.39417-3.1589" stroke-width=".5px"/>
   <path d="m142.14 175.4-1.7381-0.3511-1.0429-0.87772-1.912 0.0877-2.5203-1.931-1.5643-0.43886h-0.78217l-0.69525-0.70219-1.1298 0.43886-1.825-0.17554-1.6512 0.0877h-1.2167l-0.69525-0.26332-1.2167-0.26331-1.2167-0.26332-1.2167-0.3511-1.4774-1.0533-0.78216-0.52664-1.2167-0.26332-2.6072-1.3166-1.825-0.61441-0.78216-0.17555-1.4774-1.141-0.86907-0.0877-1.0429-0.26332-1.3905-1.4922-0.95597-0.52663-0.95598-0.3511-1.4774-1.2288-0.95598-0.78995-0.69526-1.7555-1.4774-2.6332-1.4774-2.2821-1.0429-1.5799-1.0429-0.70218-0.82446-0.71074" stroke-width=".5px"/>
   <path d="m172.34 137.88-1.1268 0.33354-1.3522 0.25015h-1.0517l-2.1785 1.1674-3.756 1.4175-1.9531 0.25015-0.97658 0.25016-1.277 0.83385-2.5541 0.58369-4.0565 1.3342-0.67608-0.33354-0.82633-0.66708-1.0517 0.16677-0.15024 0.50031-0.75121 1.8345-1.0517 2.0012-0.22536 1.084-0.48914 1.1868" stroke-width=".5px"/>
   <path d="m140.64 117.37-0.4041 3.6879-0.26939 2.7463-0.13468 3.9233v6.1988l-0.26939 0.86313-0.4041 3.0602-0.40407 2.7463-0.13471 2.354-0.26939 0.86313-0.80817 1.4908" stroke-width=".5px"/>
   <path d="m172.34 137.88-5.4292-3.2202-2.3753-1.3301-2.036-0.98006-1.9228-2.0301-1.018-1.0501-1.1311-0.91006-1.2442-0.77004v-0.98007l-0.67865-1.0501-1.3573-1.1901-1.5835-0.77006-1.1311-0.77005-1.3573-0.84005-1.9229-0.49003-1.2442-1.3301-1.4704-0.91006-0.67866-0.42002-2.3753-0.49003-2.8277-0.70005" stroke-width=".5px"/>
   <path d="m176.86 115.96-0.90377 1.3915-0.96401 4.9477 0.0602 3.2469v1.5462l0.032 0.5227-0.54839-0.0828-0.54839 1.1589-0.19355 0.99338 0.96775 1.3245-0.35484 0.49669-0.35484 0.99337-0.35485 1.2417-0.38709 1.0762-0.45162 1.8212-0.51614 1.2417" stroke-width=".5px"/>
  </g>
 </g>
 <g fill-rule="evenodd" stroke-width=".416">
  <ellipse cx="78.743" cy="108.45" rx="2.0562" ry="2.1704"/>
  <ellipse cx="133.32" cy="204.05" rx="2.0562" ry="2.1704"/>
  <ellipse cx="172.6" cy="137.9" rx="2.0562" ry="2.1704"/>
  <ellipse cx="142.21" cy="175.52" rx="2.0562" ry="2.1704"/>
  <ellipse cx="191.61" cy="92.428" rx="2.0562" ry="2.1704"/>
  <ellipse cx="64.078" cy="68.864" rx="2.0562" ry="2.1704"/>
  <ellipse cx="109.97" cy="68.037" rx="2.0562" ry="2.1704"/>
  <ellipse cx="140.56" cy="75.892" rx="2.0562" ry="2.1704"/>
  <ellipse cx="124.23" cy="92.842" rx="2.0562" ry="2.1704"/>
  <ellipse cx="140.77" cy="117.85" rx="2.0562" ry="2.1704"/>
  <ellipse cx="146.55" cy="150.1" rx="2.0562" ry="2.1704"/>
  <ellipse cx="176.94" cy="115.37" rx="2.0562" ry="2.1704"/>
  <ellipse cx="126.5" cy="56.669" rx="2.0562" ry="2.1704"/>
  <ellipse cx="68.419" cy="47.367" rx="2.0562" ry="2.1704"/>
  <ellipse cx="97.771" cy="150.93" rx="2.0562" ry="2.1704"/>
 </g>
 <path d="m109.71 68.574-0.0624-1.0509-1.0619-3.4619-0.56218-1.4837v-1.1127l-0.3123-1.7928-0.24986-2.4728-0.1874-1.5455-0.1874-0.92728-0.74955-1.0509-0.62464-0.55637-0.6871-0.80365-0.0624-1.2364-0.43725-1.1127-0.24986-1.4218-0.37477-1.0509-0.74956-1.6691-0.4997-0.68001-1.0619-0.18546-0.99941-1.4837-0.43726-0.06181-1.1868-0.06182-0.81203 0.12364h-3.373l-0.37478 0.18546-1.3117 0.37092-1.1868 0.24728-1.1243 0.68001-0.93695 0.49455-0.8745 0.3091-0.43724 0.37092-0.56218 0.86546-0.24985 0.74183-0.74955 0.3091-0.6871 0.9891-0.8745 0.98911-0.81202 0.3091-0.87448 0.24728-0.99942 1.6691-0.81203 0.92729-2.561 0.3091-1.3742-1.2982-1.3117-1.2364-1.624-1.0509-0.99942-0.37091h-1.5616l-1.5616-0.06181-0.6871-0.74183-1.2493-0.06181-0.74404-1.1877" fill="none" stroke="#000" stroke-width=".5px"/>
 <path d="m34.308 77.545-0.26045-1.0136 0.39067-3.7564 0.45578-1.9677 0.45578-2.5043 0.71623-1.908 0.78134-0.95402 0.45578 0.17888 0.45578-0.17888h0.65112l0.71623-0.17888 1.1069-0.05963 0.84645-0.05963 1.2371 0.29813 0.52089-0.35776 1.3673-0.35776 2.7347-0.65588 3.8416-0.59626-0.65112-0.35776-5.5345-2.6832 0.45578-1.6695 0.13022-0.47701v-0.71552l0.586-0.77514 0.39067-0.11925 0.84645-0.29813 0.97667-0.35776 0.58601-0.41738 0.586-0.41738 0.78134-0.11925h0.71623l0.84645 0.17888 0.586-0.71551 1.1069-0.83476 1.2371-0.41738 0.78134-0.2385 1.172-0.53663 1.2371-0.29813 1.1069-0.2385 1.172-0.35776 0.84645-0.47701 1.172-0.65589 1.6929-1.1329 1.172-0.65589 1.5627-0.89439 1.894-0.31077" fill="none" stroke="#000" stroke-width=".5px"/>
 <ellipse cx="34.106" cy="77.339" rx="2.0562" ry="2.1704" fill-rule="evenodd" stroke-width=".416"/>
 <path d="m97.338 150.9-1.925 1.1692-1.4808-0.16702-1.2586 0.91861-1.1846 0.91862-1.3327 0.7516-1.7029 1.4197-1.7029 1.5032-1.2586 1.1692-0.81441 1.1692-0.51826 1.2527-0.51826 0.16702-0.81441 0.91863-0.81441-0.0835-3.3317 2.5888-2.7394 2.0878" fill="none" stroke="#000" stroke-width=".5px"/>
 <ellipse cx="71.726" cy="170.77" rx="2.0562" ry="2.1704" fill-rule="evenodd" stroke-width=".416"/>
 <ellipse cx="40.498" cy="135.82" rx="2.0562" ry="2.1704" fill-rule="evenodd" stroke-width=".416"/>
 <path d="m145.84 149.44-1.0233-0.60262-2.1148-0.25826-1.6372-0.0861-1.7737 0.17217-1.2962 0.17217-1.2962 1.2913-2.0466 0.17219-1.8419 0.43043-0.61397 0.17217s-0.20466 0.43044-1.4326 0.94697c-1.2279 0.51652-1.2279 0.60261-1.2279 0.60261l-1.569 0.25826-1.569-0.25826-3.0698 0.0861-1.4326-0.60262-1.0915-0.51652-1.0915-0.6887-1.7055-1.3774-1.1597-0.86087-1.1597-0.34435-0.75041-0.43044-1.2962-0.34436h-0.88685l-2.797 0.60262-1.2962 0.0861h-1.2279l-1.4326-0.17216h-1.4326l-0.81862-0.0861-1.6372 0.60262-1.1597 1.2052-3.6156 1.2913" fill="none" stroke="#000" stroke-width=".5px"/>
 <ellipse cx="52.916" cy="128.21" rx="2.0562" ry="2.1704" fill-rule="evenodd" stroke-width=".416"/>
 <path d="m52.121 128.49 3.4077 6.3339 3.5739 2.739 3.4908 4.2797 0.5818 0.34236-0.08311 0.77033 1.9116 6.933 0.74803 2.2254 1.1636 5.3924-2.0779 3.2526-1.9116 3.9373" fill="none" stroke="#000" stroke-width=".5px"/>
 <g fill="#000000" font-family="sans-serif" font-size="3.5278px" letter-spacing="0px" stroke-width=".26458" word-spacing="0px">
  <text x="53.138657" y="107.75235" style="line-height:1.25" xml:space="preserve"><tspan x="53.138657" y="107.75235" font-size="4.9389px" stroke-width=".26458">Lucknow</tspan></text>
  <text x="47.580215" y="122.64897" style="line-height:1.25" xml:space="preserve"><tspan x="47.580215" y="122.64897" font-size="4.9389px" stroke-width=".26458">Unnao</tspan></text>
  <text x="29.793222" y="148.21779" style="line-height:1.25" xml:space="preserve"><tspan x="29.793222" y="148.21779" font-size="4.9389px" stroke-width=".26458">Kanpur</tspan></text>
 </g>
 <ellipse cx="93.826" cy="102.42" rx="2.0562" ry="2.1704" fill-rule="evenodd" stroke-width=".416"/>
 <g fill="#000000" font-family="sans-serif" font-size="3.5278px" letter-spacing="0px" stroke-width=".26458" word-spacing="0px">
  <text x="46.468533" y="175.12061" style="line-height:1.25" xml:space="preserve"><tspan x="46.468533" y="175.12061" font-size="4.9389px" stroke-width=".26458">Fatehpur</tspan></text>
  <text x="95.605118" y="144.2157" style="line-height:1.25" xml:space="preserve"><tspan x="95.605118" y="144.2157" font-size="4.9389px" stroke-width=".26458">Rae Bareilly</tspan></text>
  <text x="137.18221" y="206.4702" style="line-height:1.25" xml:space="preserve"><tspan x="137.18221" y="206.4702" font-size="4.9389px" stroke-width=".26458">Allahabad</tspan></text>
  <text x="140.73962" y="70.17733" style="line-height:1.25" xml:space="preserve"><tspan x="140.73962" y="70.17733" font-size="4.9389px" stroke-width=".26458">Balrampur</tspan></text>
  <text x="84.488235" y="65.06356" style="line-height:1.25" xml:space="preserve"><tspan x="84.488235" y="65.06356" font-size="4.9389px" stroke-width=".26458">Bahraich</tspan></text>
  <text x="50.025925" y="77.514465" style="line-height:1.25" xml:space="preserve"><tspan x="50.025925" y="77.514465" font-size="4.9389px" stroke-width=".26458">Sitapur</tspan></text>
  <text x="56.251381" y="41.718132" style="line-height:1.25" xml:space="preserve"><tspan x="56.251381" y="41.718132" font-size="4.9389px" stroke-width=".26458">Lakhimpur</tspan></text>
  <text x="15.118948" y="76.84745" style="line-height:1.25" xml:space="preserve"><tspan x="15.118948" y="76.84745" font-size="4.9389px" stroke-width=".26458">Hardoi</tspan></text>
  <text x="146.29805" y="178.23334" style="line-height:1.25" xml:space="preserve"><tspan x="146.29805" y="178.23334" font-size="4.9389px" stroke-width=".26458">Pratapgarh</tspan></text>
  <text x="147.18741" y="156.88895" style="line-height:1.25" xml:space="preserve"><tspan x="147.18741" y="156.88895" font-size="4.9389px" stroke-width=".26458">Sultanpur</tspan></text>
  <text x="117.61652" y="124.20532" style="line-height:1.25" xml:space="preserve"><tspan x="117.61652" y="124.20532" font-size="4.9389px" stroke-width=".26458">Faizabad</tspan></text>
  <text x="179.871" y="118.86923" style="line-height:1.25" xml:space="preserve"><tspan x="179.871" y="118.86923" font-size="4.9389px" stroke-width=".26458">Basti</tspan></text>
  <text x="129.62276" y="93.745094" style="line-height:1.25" xml:space="preserve"><tspan x="129.62276" y="93.745094" font-size="4.9389px" stroke-width=".26458">Gonda</tspan></text>
  <text x="86.711609" y="109.7534" style="line-height:1.25" xml:space="preserve"><tspan x="86.711609" y="109.7534" font-size="4.9389px" stroke-width=".26458">Barabanki</tspan></text>
  <text x="107.389" y="55.058376" style="line-height:1.25" xml:space="preserve"><tspan x="107.389" y="55.058376" font-size="4.9389px" stroke-width=".26458">Bhinga</tspan></text>
  <text x="177.42531" y="86.407959" style="line-height:1.25" xml:space="preserve"><tspan x="177.42531" y="86.407959" font-size="4.9389px" stroke-width=".26458">Naugarh</tspan></text>
  <text x="176.31361" y="139.99129" style="line-height:1.25" xml:space="preserve"><tspan x="176.31361" y="139.99129" font-size="4.9389px" stroke-width=".26458">Akbarpur</tspan></text>
 </g>
 <ellipse cx="108.28" cy="196.02" rx="2.0562" ry="2.1704" fill-rule="evenodd" stroke-width=".416"/>
 <text x="77.818115" y="201.57877" fill="#000000" font-family="sans-serif" font-size="3.5278px" letter-spacing="0px" stroke-width=".26458" word-spacing="0px" style="line-height:1.25" xml:space="preserve"><tspan x="77.818115" y="201.57877" font-size="4.9389px" stroke-width=".26458">Manjhanpur</tspan></text>
 <path d="m40.287 135.92-7.381 0.28994-8.0041-0.66701h-7.5595" fill="none" stroke="#000" stroke-width=".5px"/>
 <ellipse cx="17.787" cy="135.77" rx="2.0562" ry="2.1704" fill-rule="evenodd" stroke-width=".416"/>
 <text x="6.6701236" y="131.54247" fill="#000000" font-family="sans-serif" font-size="3.5278px" letter-spacing="0px" stroke-width=".26458" word-spacing="0px" style="line-height:1.25" xml:space="preserve"><tspan x="6.6701236" y="131.54247" font-size="4.9389px" stroke-width=".26458">Akbarpur</tspan></text>
</svg>
