<svg width="274.79mm" height="262.2mm" version="1.1" viewBox="0 0 274.78603 262.19856" xmlns="http://www.w3.org/2000/svg" xmlns:cc="http://creativecommons.org/ns#" xmlns:dc="http://purl.org/dc/elements/1.1/" xmlns:rdf="http://www.w3.org/1999/02/22-rdf-syntax-ns#">
 <metadata>
  <rdf:RDF>
   <cc:Work rdf:about="">
    <dc:format>image/svg+xml</dc:format>
    <dc:type rdf:resource="http://purl.org/dc/dcmitype/StillImage"/>
    <dc:title/>
   </cc:Work>
  </rdf:RDF>
 </metadata>
 <g transform="translate(24.098 -16.585)">
  <g stroke="#fff" stroke-width=".5">
   <path id="Saharanpur" d="m21.875 71.395c2.403 0.06325 5.1348-1.0624 7.1964 0.56914 0.32881 0.2656 3.7311 2.7951 3.6298 3.048 1.3406-2.9595 5.413-2.0236 7.9552-1.9097 1.9477 0.08874 2.9468-2.6939 3.8195-4.1863 0.78411-1.328 2.0868-2.3145 3.3769-3.3009-2.3271-1.2521-1.9983-5.0337-2.2891-7.2468-0.58178-4.2875-2.8457-6.2605 0.67029-10.118 2.7698-3.0227 5.2486-5.312 6.5893-9.3338 1.3912-4.1737 1.7327-10.32 7.9677-9.1947-7.3859-4.3254-15.86-5.1982-21.412-12.546-1.2648 6.1086-5.805 9.8775-9.612 14.456-1.7832 2.1374-3.3388 4.5276-3.9206 7.2849-0.64502 3.0606-4.0471 0-5.5649 2.7823-1.2268 2.2386-1.4545 4.7555-4.1988 5.2866-2.7823 0.54382-3.225 3.4275-3.3009 5.7925-0.08853 2.4536 0.11386 4.844-1.3027 6.9939-1.9097 2.8836-3.0227 5.6408-4.6921 8.6254 4.9072 2.0615 9.7637 2.8708 15.088 2.9974" fill="#e2b584" />
   <path id="Muzaffarnagar" d="m14.475 97.916c1.4292 0.88529 2.5422 2.3777 4.2116 2.8329 2.3777 0.65767 4.6036-1.0118 6.8422 0.27824 1.4545 0.83473 1.9856 2.656 3.693 2.2512 2.2386-0.51852 4.4139-1.328 6.665-1.8086 4.7934-1.0244 5.5521 3.1618 9.5486 3.908 4.2369 0.79676 8.1956-0.36677 11.914-2.2007 1.9351-0.94851 3.6298-0.98646 5.6406-0.2276 3.7942 1.4418 4.2747 0.0759 1.8845-2.7698-3.4528-4.1356-2.3651-9.22-2.5547-14.279-0.0886-2.4916 0.37942-3.0353 1.1256-4.9703 0.80943-2.0995 1.2268-5.0337-0.50591-6.3743-1.3533-1.0497-2.4536-2.7191-3.984-3.5032 1.8212-1.9477 0.29089-4.3632 0.74621-6.6019-3.0355 0.53116-5.9316 1.8971-9.0556 1.8212-1.543-0.03789-2.5041-1.2647-3.617 0.08874-1.1509 1.3912-1.505 0.73355-2.58 2.5422-1.9224 3.2631-2.3651 4.2747-6.0833 4.0346-2.0615-0.12635-4.6921-0.13917-5.6912 2.0742 0.74621-1.8971-6.6525-3.9459-7.6263-3.8574-5.7925 0.51854-11.636-0.03789-17.049-2.2512-4.1103-1.6821-4.9578 7.8667-5.5015 10.991-1.0877 6.1467-0.037905 11.054 1.1888 17.036 3.516-1.3533 7.5885-0.97386 10.788 0.98652" fill="#c2f0c2" />
   <path id="Bijnor" d="m62.332 82.234c-0.44266 6.6778-1.0244 13.861 3.5285 19.11 1.0371 1.2014 0.53118 4.6289 0.48059 6.9939-0.06325 2.6307-0.31621 5.1979-1.0751 7.7276 8.0818 0.21506 15.202 2.6813 23.347 0.9359 2.7445-0.59442 6.4502-0.43004 7.677-2.9721 0.75882-1.5683 0.9612-2.5675 0.92326-4.2875 1.8592-0.5312 2.7319-1.9856 3.1997-3.693 0.73352-2.6938 1.6441-6.1973 3.9587-7.993 1.0497-0.82209 2.3271-1.328 3.6551-1.4924 2.0615-0.26563 1.3406-1.8592 3.0859-2.1627 2.8961-0.50589 11.8-1.6189 5.9316-5.5396-4.5658-3.048-9.1187-5.805-13.609-9.0302-3.048-2.188-6.172-4.5277-8.2334-7.7276-1.8592-2.8836-2.8457-6.2983-5.4511-8.6761-2.4662-2.2386-4.5277-2.0868-7.424-0.93588-2.757 1.0877-5.5396 0.11381-7.1583 3.0099-1.543 2.7698-4.6415 2.5675-6.1339 4.9703-1.0497 1.6947-1.9856 6.273-4.9197 4.8187-0.05071 1.6441 0.34147 6.1973-1.7833 6.9435" fill="#e7de69" />
   <path id="Moradabad" d="m102.03 101.36c-1.0624 3.225-2.2512 5.5017-3.5792 8.1956 2.871-0.0128 3.3137 3.5792 3.4654 5.7165 0.24039 3.3262 1.9603 5.0842 2.8204 8.1068 0.92329 3.2884-3.7689 3.8321-5.0084 6.0201-1.7201 3.048 0.17697 6.1214-4.3379 6.9307-2.8583 0.51853-5.7672 0.34148-8.6508 0.49324-2.0109 0.101-0.15176 10.004-0.37943 12.028-0.24029 2.1248-1.3406 3.9586-1.6695 6.0707-0.48058 3.0859-0.29089 2.6685 1.9856 4.3128 2.757 1.9983 4.2747 4.8059 7.9298 5.1979 3.8196 0.41736 6.7916-1.3026 10.434-1.8465 1.72-3.0987 3.0352-3.7436 6.6904-3.5413 2.1753 0.12634 3.0606 0.89798 3.7183-1.6315 0.32882-1.2394 0.0631-2.6685-0.18975-3.8827-0.56914-2.6813-1.6189-6.3996-3.908-8.1702-0.94857-0.31617-1.1636-1.0371-0.67033-2.2006-0.48061-1.8465 0.20228-2.4662 2.0489-1.8718 2.6307-0.0253 5.2107 0.7209 6.2858-1.9856 1.8212-4.5658 1.2142-7.8033-1.7453-11.623-2.0109-2.5926-2.2512-5.8304-1.1003-8.9037 0.70825-1.8844 2.2513-1.6188 3.1746-3.4779 0.89795-1.8086 1.72-3.8068 3.2631-5.1854-1.1889 0.17697-2.6054 0.37942-3.7311-0.20229-2.1247-1.113-0.75883-3.2756-2.8457-4.1737-1.8592-0.80942-2.871-2.6685-4.0978-4.1609-1.6568-2.011-3.7564-1.9604-2.58-5.0841-3.2124-0.12635-6.3111 1.758-7.3228 4.8693" fill="#a3b0a3" />
   <path id="Rampur" d="m118.5 116.92c-3.9712 0.0128-3.3388 7.7654-1.9224 9.8522 3.516 5.1729 4.4013 8.2209 1.72 14.216-2.7191 0.44262-7.5632-1.0497-7.6263 2.188-0.0507 2.3271 1.3786 2.5547 2.4662 4.5277 1.758 3.1871 3.7436 8.4232 1.3406 11.737 3.2378 0.70826 3.0606 1.1762 5.8938-0.41735 1.9098-1.075 3.984-1.7453 5.9191-2.7317 4.2241-2.1754 9.0049-5.8556 12.23-9.3338 2.2512-2.4283 1.2015-6.2477 3.5539-8.8912 1.4418-1.6189 3.1493-2.9089 4.4266-4.6796 1.4545-1.9983 2.5294-4.553 4.7174-5.8938-0.94854-3.6045-5.4257-3.5032-8.1828-4.9956-1.8844-1.0118-3.6045-2.2891-5.5268-3.2378-2.8836-1.4038-4.2494-0.0254-4.4392-3.5032-0.17697-3.2503-1.1636-5.5015-4.6668-5.9695-6.2224-0.84734-7.2343 2.3398-9.9028 7.133" fill="#fcc" />
   <path id="Bareilly" d="m145.39 134.78c-2.1247 2.3777-4.6164 3.984-5.3245 7.2975-0.7462 3.44-1.1256 4.5911-4.0093 6.9307-2.7066 2.2006-5.2739 4.5911-8.246 6.4249-3.1618 1.935-6.9307 2.757-9.789 5.1979 3.3769 1.5556 5.4636 4.1863 6.3237 7.7782 0.6197 2.58 0.0756 9.865 3.1493 9.612 4.1863-0.35414 6.3743-0.0631 9.4476 2.9089 2.3397 2.2765 6.2224-1.113 9.1819-0.10099 4.2494 1.4545-1.1889 5.5017 1.505 7.6642 2.0109 1.6188 1.7074 0.27825 3.4528-0.8853 1.8212-1.2142 3.7814-1.2015 5.8937-1.2647 0.35414-3.9334 0.21507-13.697 6.5766-8.8784 0.25294-1.8592 1.1509-5.4005-0.94855-6.6147-0.46796-3.225 1.3153-4.8061 3.4907-6.8294 1.3027-1.2142 2.5294-2.4916 2.1121-4.376-0.24039-1.113-0.56913-2.1754-0.69562-3.3263-1.1256-0.0507-2.5422-0.43002-2.8961-1.6821 0.45534-1.3532-0.0254-1.8339-1.4544-1.4544-0.97386-0.18975-1.6442-0.72091-2.1247-1.5683-1.3785-2.3904-3.0606-2.8583-2.3651-5.9441 0.56911-2.5422 1.9603-4.7934 2.4916-7.3481 0.54384-2.656 0.0128-5.4383 1.0877-7.993-2.3397-0.51854-4.7427-0.50589-7.1205-0.51854-3.048-0.0379-3.1746 0.36674-3.8702-2.3271-2.7066 1.6441-3.8321 5.0209-5.8684 7.2974" fill="#abacda" />
   <path id="Pilibhit" d="m158.49 148.77c1.6694 0.77149 1.8844 2.2765 2.9848 3.5285 0.78413 0.88529 2.0109 1.0244 3.124 0.99915-0.30353 1.3406 0.29091 2.403 1.5936 2.8204 5.4511 1.72-0.25294 7.8033-2.188 9.8522-1.7833 1.8845-1.7706 3.7183-0.60709 5.7166 1.4418 2.4788-1.7074 7.0192 2.441 6.096 1.5177-0.34151 3.0986-0.36681 4.6414-0.30356 2.1754 0.0887 1.4545 0.46797 2.188 2.188 0.86004 2.0362 2.5928 4.376 5.1223 3.8449-0.25296-6.172-1.1888-18.377 7.4619-19.666 3.3641-0.50593 5.4258 1.9983 8.3094-0.7968 2.2259-2.15 4.8059-4.5024 7.3481-1.0624 1.0244-3.8827 6.1086-0.0128 6.5512-4.9704 0.26559-2.9468 0.0148-6.3868-3.6804-6.6272 0.39206-2.3145 0.94852-4.6415 1.935-6.7916 0.46797-1.0371-0.60126 2.2478 0 0-3.5044-1.1245-3.2678-1.0265-5.8055-3.4101-1.6407-3.2768-2.842-0.52754-4.4367-4.2978-3.2343 2.1835-2.5063 2.181-2.5063 2.181-1.0876 2.1121-1.1888 3.6424-3.8321 3.6298-1.2015 0-2.3903-0.0633-3.5792-0.16444 0.10128-0.91065 0.13917-2.1121-0.56914-2.8458-0.80941-0.83471-2.0868-0.61969-3.0859-1.0244-0.40473-0.15164-0.68297-0.43001-0.84738-0.82207-0.58177-1.4671-2.3397-1.0371-3.8321-0.68297-0.0759-2.0362 0.10127-4.0725 0.0254-6.1086-1.5682-0.35412-3.1871-0.29087-4.768-0.0759-3.5666 0.48061-6.6525 1.1509-10.244 0.36679-1.0877 2.5547-0.54383 5.3498-1.0877 7.993-0.74618 3.516-3.1997 6.6904-2.656 10.434" fill="#f2c0f2" />
   <path id="Agra" d="m101.2 262.2c-5.1729 0.20228-9.4223 0.12634-13.836-2.8329-1.4797-0.99914-3.44-2.1374-3.9206-4.0093-0.54382-2.0994-0.0886-4.1735-2.3018-5.4258-3.6551-2.0615-7.9805 0.69563-10.421-3.8574-1.4544-2.7066-3.3137-10.991 0.21499-12.255-2.7317-2.757-3.7942-4.9831-8.1702-3.7815-2.9214 0.8094-6.5893 2.9089-7.5125 6.0201-1.113 0.0507-2.7951 0.36678-3.7436-0.46794-1.1382-1.0118-3.2631 0.67028-4.7806 1.113-4.2369 1.2394-8.1828-0.12635-12.432-0.0379 4.3128 1.3027-1.1762 5.2739-0.70824 7.7529-4.945-1.2268-5.6787 6.1845-3.3388 6.2858 3.7689 0.17697 9.8143-0.24039 10.7 4.6542-2.2259-0.11381-6.4249-0.74618-7.5 1.9224-0.7968 1.973-4.1609 1.0244-6.273 1.0118-2.1247-0.0128-2.2512 0.72085-4.1103 1.5556-3.1746 1.4164-7.9424 11.256-1.5936 10.851-0.48059-7.2596 6.5893-6.5512 11.762-6.1086 1.4165 0.12634 2.8457 0.24039 4.2747 0.18976-0.13917-2.0994-0.4553-4.8312 1.7959-4.9325 1.4924-0.0634 3.0733-0.15166 4.5023 0.43 1.4671 0.60708 2.2259 2.3145 3.6045 2.833 2.4536 0.92324 5.3624-2.479 7.7654-2.7698 2.2133-0.26561 0.20236 6.0329 4.5658 5.0084 0.06325-1.9098 0.67032-3.8068 1.6189-5.4511 2.7445 0.11381 1.6442-0.61972 3.0859-2.188 1.9224-2.1121 2.1753 0.34152 2.9974 1.758 0.87267 1.5176 2.2006 2.8204 3.9965 3.1112-2.2891 0.91062-2.2006 4.4013 0.2909 4.9578 2.3777 0.53119 4.6921-0.44265 7.032-0.61975 2.2512-0.17697 4.376 0.6956 6.4121 1.5177 4.2494 1.7074 8.1828 1.7453 12.711 1.4671 3.124-0.18975 1.5177-2.1374 5.1222-1.4924 1.5556 0.27822 2.9214 0.96118 4.1863 1.8718 0.25295-0.93588-2.2892-1.8086-3.0986-2.7573-1.3153-1.5177-2.1627-3.44-2.8961-5.3245" fill="#a3b0a3" />
   <path id="Mathura" d="m36.709 236.81c5.2613 0.73358 9.4348 0.50592 14.292-1.7959-1.7453-2.6054-2.2512-6.0201-2.5294-9.0681-0.22765-2.6179 1.9224-5.5902 0.9106-8.0564-0.68295-1.6442-0.34145-3.8449-2.3018-5.413-2.6432-2.1121-4.1609-3.908-3.2125-7.3481 0.99913-3.6045 0.1264-5.337-2.0994-8.0436-1.8465-2.2386-0.17705-5.805-3.6551-6.6525-2.6179-0.63237-5.5143-0.39208-8.1575-0.11381-2.0109 0.20228-4.0218 0.39209-6.0454 0.56916-2.3777 0.21507-4.3128-0.37943-3.6676 2.0868 0.65765 2.5169-3.5539 4.9197-4.3632 7.2343-0.97384 2.7698-0.46793 5.8178 0.29089 8.5623 0.83472 3.0355 2.0742 5.9316 3.0859 8.9037 0.79679 2.3524 0.60709 5.5649 1.7327 7.6895 2.0995 3.9206 11.964 2.2892 12.799 6.4755 0.3794 1.9097-3.5032 1.2268-3.5413 1.9224-0.20236 3.2124 4.4266 2.757 6.4628 3.048" fill="#e2b584" />
   <path id="Aligarh" d="m39.67 191.12c1.9098 1.6441 0.82209 4.7806 2.9214 6.8294 2.0742 2.0236 2.0109 4.5277 1.2774 7.1711-1.505 5.3877 4.2241 6.4628 5.2867 11.13 3.7183-3.9206 8.1068-2.9342 8.8784-8.929 0.60707-4.7174 3.0227-9.4855 8.6001-6.1845 2.0362 1.2015 2.15 3.6551 3.0606 5.6028 1.5303 3.2882 4.8187 4.5404 8.2209 5.0084 1.4544-2.9848 4.8187-3.0986 5.0337-6.9686 0.07578-1.3912-0.07592-2.7823 0.06324-4.1735 1.8086-0.80947 3.8449-1.2015 5.8303-0.94854 0.03789-2.732-0.40471-6.1845 2.5928-7.3987 2.757-1.1256 0.54384-5.4764 2.7698-5.312-0.92326-1.328-2.0362-2.5675-3.4779-3.3262-0.75882-0.40475-1.5683-0.64502-2.4283-0.74624-2.2639-0.27823-1.3786-0.83468-1.5809-2.8964-3.7436 1.4924-5.0337 1.9604-8.8911 0.59443-3.516-1.2394-6.8169 0.58182-10.257 1.1004-3.4275 0.51852-6.1214-1.9983-9.3717-2.7823-3.693-0.89795-7.601-1.8339-11.433-1.4924-3.1871 0.27822-4.6668 2.4662-7.9173 2.188-1.9856-0.16444-3.8574-0.80942-5.7797-1.2647-1.2394-0.30354-2.58-0.6956-3.8574-0.73355-2.0489-0.0632-1.4924 1.9983-1.4292 3.3516 0.05064 1.1889-0.54383 2.2512-0.24029 3.4528 0.29086 1.1888 1.1762 2.0742 1.0244 3.3641-0.12641 1.075-0.86001 2.5422 0.77148 2.6307 1.935 0.0885 3.7436-0.53116 5.6406-0.69557 1.5303-0.11381 3.5285 0.41738 4.6921 1.4292" fill="#c2f0c2" />
   <path id="Gautam Buddha Nagar" d="m34.369 179.05c1.3786-0.40472 3.8449 0.70825 5.7672 0.55645 4.2747-0.35409 2.7319-3.3137 0.88533-5.6912-3.6423-4.6668-6.1467-11.724-6.8295-17.668-0.30355-2.6306-0.07578-5.5396 0.12641-8.1702-1.5936-0.68298-1.8339 0.26563-2.0362-1.6062-0.10112-0.94856-0.5691-1.7706-1.3406-2.3397-1.5556-1.1762-3.7183-1.3533-5.5902-1.5809-4.2494-0.53124-7.5885-5.4636-12.268-3.124-2.9342 1.4671 3.7942 4.5024 0.215 6.4374 2.7445 1.6568 1.9477 5.1222 2.6307 7.8286 0.73355 2.8964 3.1997 4.8566 4.844 7.2343 0.59444 0.86001 1.1636 1.7453 1.7201 2.6432 1.328 2.1374 2.58 4.376 3.516 6.7031 0.4553 1.1382 0.86001 2.3145 1.113 3.5032 0.11386 0.53122 0.17704 1.075 0.17704 1.6188 0.01211 0.60709-0.17704 1.328-0.08853 1.9224 0.05064 0.35413 0.215 0.61974 0.16448 1.0118 1.973-1.1762 5.2232-0.46792 6.9939 0.72091" fill="#abacda" />
   <path id="Ghaziabad" d="m26.302 142.65c1.5809 0.21506 3.3388 0.48062 4.6415 1.4671 0.75882 0.58176 1.2395 1.3912 1.3406 2.3397 0.20236 1.8718 0.44266 0.92325 2.0362 1.6062 0.16448-2.1121 3.9965 0.11381 5.881 0.0506 1.1762-0.0379 2.3651-0.13917 3.4907-0.48062 0.84738-0.26557 1.6189-0.69557 2.3398-1.2015 0.55649-0.3794 1.0877-0.7841 1.6062-1.2015 0.44266-0.35409 1.1256-0.34149 1.6947-0.3794 0.92326-0.0759 1.8465-0.0633 2.7698-0.101 0.05064-1.2141 0.18973-2.5294 0.73356-3.6298 0.93586-1.9224 2.8836-1.758 4.5911-0.99916 3.8068 1.6821 7.8792 4.6164 11.383 6.8676-0.12649-4.3632-0.79678-8.5748-2.4916-12.609-0.60708-1.4418-1.2647-2.8708-1.8212-4.3379-1.8844 0.18975-3.7942 0.0254-5.6787 0.18975-3.4022 0.30353-7.4747-1.3027-10.118 1.6568-1.7453 1.9603-3.0606 5.4383-6.3743 4.5783-2.4788-0.64499-2.2891-4.0093-2.3524-5.9822-0.10112-3.3388-3.9965-2.441-6.7916-2.833-2.9974-0.41734-5.6155-1.5936-6.8044-4.5658-4.2622 1.5556-3.5539 4.4392-4.0218 8.2587-1.9224-0.99915-3.4275-2.5294-5.7672-2.1374-2.8457 0.46794-4.8312 1.1256-7.5125-0.44265 0 0 2.6685 3.693 2.8583 4.3126 0.44267 0.11381 1.2521-0.51853 1.8465-0.46793 0.05064 0.68295-0.05064 6.7788 0.65766 6.3364 1.6947-0.0253 3.2756-0.10099 4.8187 0.70825 0.44266 0.22761 0.88533 0.4047 1.3027 0.65763 1.6947 1.0118 3.7183 2.0742 5.7419 2.3398z" fill="#fcc" />
   <path id="Baghpat" d="m18.056 129.16c1.6315 0.21507 2.9089 1.4671 4.3001 2.2006 0.32882-2.757-0.48059-6.172 2.5675-7.6516 2.1627-1.0624 0.56912-3.9334 0.41737-6.4249-0.21502-3.2884-1.2774-12.344 2.9468-13.722-1.9224-2.2639-3.6173-3.3769-6.6272-2.7444-3.8321 0.80941-5.5268-2.2892-8.6508-3.6551-2.9214-1.2774-6.3236-1.3659-9.2957-0.22761 0.87267 4.2622 1.0877 8.6129 1.2394 12.938 0.12641 3.6804 0.18973 7.2217 1.2141 10.788 0.063217 0.22761 0.82206 3.225 1.0118 3.1871 0.65765-0.13917 1.7453 1.8844 1.7327 2.3651-0.025312 1.1636-2.8457 0.88531 0.39208 2.2386 0.2656 2.9214 6.9182 0.46794 8.752 0.70825" fill="#a3b0a3" />
   <path id="Meerut" d="m63.991 116.05c2.4536-0.0506 2.1754-4.0344 2.2892-6.1339 0.16448-3.1112 1.1003-5.4511-1.8592-6.4249-3.3388-1.0876-5.1601-1.3659-8.3472 0.36676-2.6432 1.4292-5.1982 1.5683-8.1449 1.6315-5.6912 0.12635-7.3228-5.3751-13.495-3.6551-5.5649 1.5556-8.537 1.7706-9.0556 8.1322-0.36677 4.477-0.99913 11.775 2.403 15.379 1.72 1.8212 4.3128 2.2133 6.6904 2.4536 2.6432 0.2782 5.413-0.40475 5.5015 2.6813 0.15175 4.8312 3.4275 8.9165 7.2596 3.4022 4.0597-5.8178 11.041-3.225 17.264-3.8574-1.7706-4.6543-1.5683-9.1566-0.50592-13.975" fill="#e2b584" />
   <path id="Jyotiba Phule Nagar" d="m70.971 150.15c1.0876 2.7698 2.3777 5.4005 4.2875 7.7023 0.48059 0.58177 7.1205-0.54381 9.0556 0.15166 0.34147-3.1746 1.6821-6.0454 2.0236-9.1441 0.37942-3.44-0.58179-6.8422-0.55649-10.282 0.02521-3.7815 9.4098-0.69558 12.23-3.2503 1.9604-1.7706 0.35413-4.8565 2.365-6.7788 1.4292-1.3659 4.3001-1.8718 4.4645-4.2748 0.13917-2.0868-2.0362-3.8702-2.6054-5.805-0.72088-2.4536 0.0507-5.1601-1.3406-7.4872-0.53118-0.89799-1.3785-1.4418-2.4409-1.4292-1.973 0-1.2015 1.328-1.3786 2.8457-0.32885 2.6432-1.2015 2.9849-3.516 3.4779-8.1321 1.758-14.582 2.0236-22.829 0.73359-1.8086-0.27826-3.6298-0.51857-5.4636-0.56915-2.1374-0.0632-1.7074 1.8339-1.9603 3.617-0.50589 3.5413-0.07578 7.0192 1.1888 10.358 1.1636 3.0986 2.7066 6.0076 3.4401 9.2451 0.42998 1.8845 0.67032 3.8196 0.78414 5.7546 0.15176 2.4536 1.3659 2.871 2.2512 5.1348" fill="#f2c0f2" />
   <path id="Bulandshahr" d="m83.163 174.33c-2.6813-2.3524-5.5902-3.8448-9.106-4.5024-0.18972-3.9712 0.22766-7.0952 1.328-10.636 0.53118-1.7327-3.5413-6.8294-4.4013-9.0428-1.3406-3.4147-4.0093-3.7436-6.7916-5.6406-2.2512-1.5303-9.1313-7.9045-11.345-3.3894-1.0877 2.2133 0.4553 3.5792-2.5547 3.693-2.6307 0.10099-2.6685 1.0118-4.6921 2.2133-3.4779 2.0615-7.601 0.73354-11.18-0.0885-0.74618 6.3111 0.64502 10.927 2.0236 16.922 0.6071 2.6307 0.98652 5.2232 2.5928 7.4872 1.5303 2.15 3.908 4.2369 4.3001 6.9814 3.8827-2.15 9.4601-0.68291 13.495 0.24039 4.1484 0.94854 7.6516 3.8827 11.952 2.8708 2.0994-0.49326 4.1609-1.29 6.349-1.3026 2.2512-0.0128 4.0978 1.29 6.273 1.5556 1.8845 0.24038 3.6551-1.0497 5.312-1.7074-0.25294-2.5294-1.72-4.0471-3.5539-5.6534" fill="#e7de69" />
   <path id="Badaun" d="m109.72 195.59c2.7823 2.479 4.3379 3.8068 8.1703 4.2116 3.1493 0.34147 6.4628 0.82209 9.3463 2.2007 1.2015 0.56911 2.5675 1.4291 2.9467 2.7951 0.6197 2.1753-1.8844 1.5303-1.8465 3.7183 0.0379 2.4788 2.5675 0.44267 4.1737 0.45528 2.2006 0.0128 4.0093 1.4798 5.9569 2.3145-0.0631-1.1762-0.0128-2.3398 0.11381-3.5032 0.26562-2.7066 0.91061-1.6694 2.2765-3.5666 1.3533-1.8718 1.8592-3.7436 3.8574-5.0841 1.0876-0.72092 3.7564-2.403 2.1753-3.9333-1.4038-1.3659-1.2268-2.2765-0.94856-4.3507 0.98651-0.56914 2.2639-0.61971 3.1997-1.3027-2.6813-2.2892-2.0236-2.7066-1.3153-5.9694 0.79676-3.7183-4.768-3.1365-6.665-2.3777-2.9848 1.1889-4.6289-0.39207-6.7538-2.3144-1.5177-1.3659-3.3769-1.3406-5.2992-1.075-3.0859 0.41738-3.3641 0.41738-3.7942-2.6179-1.037-7.5757-2.2765-13.874-10.877-15.746-2.0489-0.45528-6.0833-1.1888-7.7908 0.53119-1.4798 1.4924-0.9865 2.3777-3.2378 2.9721-1.8592 0.49325-3.6045 1.29-5.5268 1.5303-8.0184 0.94853-10.788-7.4366-18.87-7.0952-3.9587 0.17698-3.7814 2.4283-4.1103 5.7293-1.4544 0.25296-0.93589 3.8068-0.92326 5.0969 0.01139 2.6307 2.2512 1.973 4.3885 2.9342 2.7319 1.2141 5.8431 3.4907 7.4619 6.0454 0.78414 1.2268 0.88531 2.6813 0.94855 4.0978 0.11381 2.6181 1.8718 1.2774 3.9333 2.365 1.075 0.56914 1.973 1.4038 2.7445 2.3398 1.2774 1.5683 3.4654 1.3786 5.3624 2.1627 4.0978 1.6695 7.6391 4.5151 10.902 7.4366" fill="#f99" />
   <path id="Shahjahanpur" d="m145.97 190.82c-0.15164 1.2141-0.17697 2.4283-0.10127 3.6551 0.77149 0.37945 1.7959 1.0877 1.4671 2.1121-0.53116 1.6694-2.656 2.3018-3.8321 3.3894-1.9224 1.758-2.0362 4.7934-4.7049 5.8684-0.20229 1.7959-0.45528 3.6045-0.32882 5.413 1.4924 0.64496 3.1746 1.113 4.477 2.1374 3.5666 2.7951 6.9686 5.1601 11.901 4.8693 2.403-0.13917 3.8827-2.5294 6.3996-1.2394 2.5675 1.3153 3.0227 4.6668 3.124 7.2215 0.73354-2.6813 0.0379-5.5143-0.3921-8.1828-0.27822-1.7706-0.49324-3.5791-0.3288-5.3751 1.4544-0.0631 2.9848-0.2276 4.4013 0.24039 1.9224 0.63235 2.0109 2.0615 3.0859 3.4654 2.365 3.124 2.9089-2.0362 3.4022-3.4022 0.79679-2.2007 6.2098-1.328 8.4991-1.505 3.6298-0.2909 1.2015-4.1103-0.0254-6.3615-3.0227-5.5649 0.89796-8.8533 5.6787-11.281-0.68294 0.49324-0.97384 1.1635-0.88529 1.9983 1.0244-2.3018 5.5015-3.5285 7.6263-4.4266 0.2909-4.2369-0.80943-6.7788 3.6551-8.8277 5.5143-2.5169 4.9831-12.964 2.5547-17.453-1.8212-3.3641-4.6921-3.7183-7.2596-0.96117-2.8583 3.0733-4.0725 1.8465-7.6263 1.5936-9.9028-0.73356-9.22 13.533-8.9671 19.717-4.768 0.99916-4.0978-5.8937-7.3102-6.0329-2.1374-0.0885-5.4005 1.1889-6.956 0-1.075-0.82207-2.871-2.0236-4.2622-1.1383-2.4156 1.543-2.0489 6.5766-2.2259 9.0049-0.11382 1.6189-4.3129 1.1635-5.9695 2.2765-1.8339 1.2268-3.1365 2.0994-5.0969 3.225" fill="#e7de69" />
   <path id="Firozabad" d="m103.94 253.94c-1.758-0.40473 0.89795-7.7401-0.24039-9.7512-0.35411-0.60705-0.84735-1.0624-1.4798-1.3786-1.7453-0.93587-1.3406-1.5936-1.29-3.5919 0.0506-2.1501 0.43001-4.4267 2.6307-5.3752-0.78414-1.4165-1.7327-2.3145-3.0355-3.225-2.3524-1.6442-2.5926-3.4528-3.4528-6.0076-3.5032-0.31617-7.6263 0.10128-9.9156 3.1112-1.0624 1.4165-1.5556 3.1618-1.72 4.9072-2.8204 0.11381-5.2107-0.63233-7.7401 0.97389-1.3912 0.8853-3.8702 1.3153-5.4258 1.0371-0.87267-1.0371-1.8212-1.1003-2.8457-0.17697-0.18972 1.4292-0.29086 2.8836-0.2656 4.3382 0.05071 3.8449 0.97385 9.6624 5.6787 10.282 2.0868 0.27823 4.376-0.2276 6.3111 0.86003 2.2133 1.2521 1.7706 3.3263 2.3018 5.4258 0.9865 3.8321 7.5757 6.4755 11.054 6.8295 2.3651 0.24039 4.7555 0.0759 7.1205 0 0.46794-2.1627 3.124-2.0489 4.8059-2.4283-0.13917-2.2259-2.4916-3.5539-2.4916-5.8303" fill="#fcc" />
   <path id="Mahamaya Nagar" d="m73.894 234.25c-1.7327-1.0877-0.68296-3.8955-2.2133-5.2235-1.72-1.5051-2.5422 0.55644-3.0986-2.0362-0.34148-1.6062-1.29-3.2378-0.22766-4.7934 4.1609-6.1339 17.668-3.8321 18.516-12.116 0.22766-2.2006-1.113-8.2966 1.9098-9.0428 0.22766-2.4536-2.58-1.4924-4.3001-0.97386-2.6307 0.78416-1.2142 3.7817-1.6947 6.0833-0.37943 1.8212-1.7959 2.6938-3.1746 3.7183-2.0489 1.5177-1.7453 2.1374-4.5783 1.2648-4.7174-1.4418-4.7806-4.8565-6.8929-8.4991-1.3533-2.3398-5.7419-3.5032-7.892-1.6188-1.9477 1.7074-2.0489 4.9703-2.3398 7.3355-0.32883 2.6307-2.15 4.4517-4.8059 5.6408-1.3533 0.60708-2.8961 1.1382-3.9459 2.2386-0.55649 0.58175 0.48059 3.6676 0.0379 5.1348-1.0371 3.4275-0.7209 6.5387 0.22765 10.004 0.59444 2.1374 4.0218 7.7654 6.2224 3.7183 1.5683-2.8836 5.1728-4.8312 8.3472-5.3245 1.4797-0.22762 3.1746-0.17698 4.3254 0.91063 1.4671 1.3912 2.9721 5.236 5.5774 3.5792" fill="#f2c0f2" />
   <path id="Kanshiram Nagar" d="m129.02 203.16c-2.77-2.1499-6.8804-2.6682-10.257-3.0608-9.9409-1.1761-14.696-13.217-25.471-12.951-0.27821 3.1237 0.50576 4.1359-2.5294 5.7168-2.5296 1.29-1.5558 6.0958-1.7707 8.3725-1.606 0.39168-1.887 1.9384-1.8803 3.5005 0.68126 0.0536 3.5138 0.27413 4.1415 0.27413 0.71493 0 2.145 0.85802 2.7172 1.8591 0.57209 1.0011 2.2881 0.28593 3.1461-0.14306 0.85799-0.429 1.716-0.14304 2.5739 0.42902 0.85799 0.57205 2.5741 1.0011 4.0041 1.0011 1.4298 0 2.8602 0.429 3.5747 0.57208 0.71516 0.14305 1.8593 0.85796 2.5739 2.145 0.71516 1.287 3.003 2.431 4.1472 1.0011 1.144-1.4301 1.8589-2.2879 2.86-1.1439 1.0011 1.1439 4.0041 2.145 5.148 2.0019 1.144-0.14304 4.433-1.0011 4.433-1.0011s0.0856 0.0349 0.24334 0.0989c0.041-0.83848 0.89017-1.2649 2.5488-1.8301-1.8086-0.35392 2.6049-4.6668-0.20255-6.8423z" fill="#a3b0a3" />
   <path id="Etah" d="m132.02 219.36c-1.4672-1.6568-3.1112-3.1744-4.3126-5.0588-0.71536-1.119-1.0588-1.8766-1.0309-2.4447-0.15755-0.0641-0.24333-0.0988-0.24333-0.0988s-3.2891 0.85801-4.433 1.0011c-1.1439 0.14306-4.147-0.85799-5.148-2.002-1.0011-1.1439-1.716-0.28593-2.86 1.144-1.1442 1.4301-3.432 0.28593-4.1472-1.0011-0.71473-1.287-1.8589-2.002-2.5739-2.145-0.71473-0.14305-2.145-0.57208-3.5747-0.57208-1.4301 0-3.1461-0.42896-4.0042-1.0011-0.858-0.57205-1.716-0.85798-2.5739-0.42901-0.85799 0.42901-2.5739 1.144-3.1461 0.14306-0.5721-1.0009-2.002-1.8591-2.7172-1.8591-0.62782 0-3.4602-0.22048-4.1415-0.27411 0.0028 0.95988 0.11624 1.9258 0.09715 2.6331-0.07592 2.7573-0.24023 5.021-1.9603 7.2849-3.2633 0.74628-6.3743 2.1122-9.3717 3.5664-1.9981 0.9612-6.0198 2.2512-7.3228 4.1737-1.29 1.897-0.07592 6.0201 1.6821 6.197 2.3651 0.24039 2.479 2.2512 2.8711 4.1231 0.39211 1.7958 2.0236 2.6307 3.7433 1.7328 1.1128-0.58194 2.0869-1.4925 3.3769-1.6824 2.4281-0.35389 5.046 1.328 5.6281-1.391 0.80931-3.7817 10.447-10.598 11.825-5.0842 0.77156 3.0984 2.6054 3.7434 4.6793 5.8048 1.1888 1.189 0.67033 2.0616 2.4537 1.6315 2.3524-0.5566 2.4537 0.0634 3.516-2.0614 1.0373-2.0742 2.5803-4.275 4.5911-5.5145 2.7189-1.6693 3.9837 1.1761 6.1717 2.1755 2.0109 0.91053 4.0218 0.77154 5.8431 2.1375 3.0227 2.2512 7.0315 2.5168 9.89 4.844 0.29065-1.973-0.30374-3.7055-1.9859-4.869 4.3261-0.64524 0.96182-9.0934-0.82155-11.104z" fill="#abacda" />
  </g>
 </g>
 <g fill="none" stroke="#000">
  <path d="m54.894 31.134 4.8655 5.7043 10.57 6.0958 1.6218 6.0958 3.2436 2.0133-5.7043 9.7869-3.6351 2.4048 3.6351 5.3128-4.8654 3.2436 2.8522 6.4873-1.6218 2.8522 1.2303 2.8522-0.83884 14.205 0.83884 7.3262 2.4048 15.435 1.2304 12.583 1.6218 7.3262-0.39145 4.474 2.8521 7.3262 2.0133 3.2436-0.78294 2.4607 3.6351 6.8788v2.4607l2.0133 4.0825 3.6911 8.1091v3.6351l4.0266 1.6218 0.4474 10.178v2.4607l-1.6218 2.4048-4.0825 2.8522 2.8521 3.691v8.5006l-0.83886 8.5565 1.6218 7.3262 2.8522 2.8522 8.5565 6.8788 5.257 3.2436 6.9347-1.2303 15.827 6.0958h10.178l2.8522-3.2437 4.8655-0.78291 5.7043 4.474 8.1091 2.8522 10.57 0.39149 8.165-7.7176 3.2437-0.4474 2.8522-2.4048 5.6484-1.6218 4.0825 2.4048 6.4873 2.8521 1.2304 3.6911 5.3128 5.6484 5.6484-1.1744 3.2436-4.0825 7.7176 0.78296 9.3954 1.6777 7.2702 0.39149 4.474 0.39145 4.474 3.6351 11.017 0.83886 6.0958 1.2304h4.8655" stroke-width=".5px"/>
  <path d="m69.49 68.548 8.1511 10.083 5.6214 3.1689h1.9675l1.9675-2.0166 1.1243-3.1689h1.6864l4.2161-1.1523h1.1243l7.87 6.3377 11.976 12.96 4.315 4.5995 5.3506 3.8919 6.041 5.1302 2.9342 4.2457 1.8986 3.538 1.3808 0.17691 1.3808-1.2383 12.255 4.0688 2.7616 2.6536 6.3862 9.022 0.86299 0.17692v3.538l1.5534 2.2997 2.589 1.4152 2.0712 1.769v1.5921l2.0712 1.5921 3.1068 1.0614 3.6246 5.3071 3.1068 4.0688 3.1068 5.484 1.8986 0.5307-0.17261 2.1228 0.69041 1.2383 1.2082 1.0614 3.9698 7.253 1.726 2.6536 2.9342 3.3612 1.2082 0.17692 0.51779 1.0614 1.5534 0.70762 3.6246 2.1228 0.86299 3.1842 3.7972 2.6536h0.86299l0.863-1.2383 2.589-0.17691 17.605 8.3145h1.8986l22.093 11.322 3.2794 2.1228 1.2082 1.0614 5.8684 8.3144 2.9342 19.282 3.1068 9.3759 0.6904 3.715 1.8986 9.3759" stroke-width=".5px"/>
  <path d="m86.156 223.8-5.5515-0.92524-5.8599-1.2337-2.7757-0.30842-2.1589-2.1589-2.4673-3.701-4.6262-3.3926-2.1589-1.8505 0.61684-3.701-1.5421-3.3926-1.2336-2.1589" stroke-width=".5px"/>
  <path d="m254.96 207.6-1.499-3.5976-0.5996-0.8994 1.1992-2.0986-0.59959-2.6982-1.7988-2.3984-0.2998-2.998-5.3964-5.0966-0.2998-4.1972-2.3984-2.3984-0.5996-3.8974-1.1992-1.499-1.7988-2.3984 0.59961-4.1972-5.3964-3.8974-4.7968-3.5976-3.2978-3.8974-0.29981-2.998-1.1992-2.6982-0.8994-3.2978-1.7988-3.5976-2.3984-6.8954-2.3984-1.499-2.6982-0.2998-8.6942-0.29979-2.998-1.7988-5.996-4.7968" stroke-width=".5px"/>
  <path d="m173.44 146.23 4.8454-5.7004 5.1304-1.9952 6.8405-6.8405 7.1256-1.9952" stroke-width=".5px"/>
  <path d="m153.15 172.22 5.7416-5.7416 4.5329-5.1372 4.835-5.4394 0.90657-0.90657 0.30219-1.8131h1.511l1.8131-1.8131 0.60438-5.1372" stroke-width=".5px"/>
  <path d="m66.249 98.198-5.4684 0.61939-6.7884 0.24775h-9.2398l-6.977 0.24776-6.5998 0.4955" stroke-width=".5px"/>
  <path d="m135.73 116.16-2.6651 3.1301h-5.477l-3.8339-1.4145-3.8339-2.1218-4.6555-0.70728-13.419-0.35364-7.6679 7.78-3.8339-1.4145-0.5477-2.1218-4.9293-4.5973-9.0371-6.0118-9.5848-7.4264" stroke-width=".5px"/>
  <path d="m85.373 179.89-0.30073-3.5568 2.1051-4.573 3.9095-5.8432 2.4059-3.8108 0.9022-4.3189h3.3081l6.3154 2.7946 1.8044-0.25406h2.1051l2.1051-1.2703 0.9022-2.2865-2.4059-1.7784 7.5183-4.573 9.3227-4.827 6.9169-3.5568 3.3081-1.2703 1.2029-7.1135-0.60147-7.1135-0.30074-3.3027-0.60147-3.5568-0.0806-3.5189" stroke-width=".5px"/>
  <path d="m71.951 145.33h4.4616l5.3539 0.79652 5.7108 0.4779 6.4247 1.1151 5.7108 0.79652h2.32l3.2123-3.1861h1.2492l0.53539-1.2744 14.812-10.673 2.1415-2.3896 8.5662-9.0803 3.2521-5.7342" stroke-width=".5px"/>
  <path d="m94.395 157.79 1.4461-2.1132v-1.3424l1.0286-0.89495 1.0286-2.6848 1.7144-2.2374" stroke-width=".5px"/>
  <path d="m58.399 200.97 6.1091-3.291 6.2013-2.3106 1.7951-2.1747 3.1006-4.893 3.427-4.2134 4.4062-4.6212 1.6344-3.1313" stroke-width=".5px"/>
  <path d="m64.508 197.68-0.49908-2.2872 0.16636-3.1449-0.99815-1.0007 0.33272-3.1449-1.8299-4.1456 1.3309-5.0033-1.6636-2.0013-2.8281-0.8577-3.1608-4.7174-1.3309-5.5751-1.4972-1.5725 0.49908-3.1449-0.49908-3.5738 0.16636-4.7174-2.329-8.2911-3.3272-4.2885-4.4917-3.002-1.6636-1.8584" stroke-width=".5px"/>
  <path d="m83.263 81.799 3.1247 2.5922-2.4862 2.4743-1.9535 1.7674-2.4863 1.1783-3.3742 2.3565-4.6173 3.2991-5.2206 2.7307" stroke-width=".5px"/>
  <path d="m87.786 231.06 5.868-0.88941 2.6847-1.0739 5.7273 0.35795 3.2216-4.4744 3.0426-3.0426 5.7273-5.9063 3.5796-1.9687 8.9489-7.3381 3.9375-3.2216" stroke-width=".5px"/>
  <path d="m102.07 229.46 2.6955 0.8949 3.0549 1.6108h1.4376l2.8752 3.0426 2.5158 1.2529 2.6955 1.0738h2.3361l3.594 0.71592 2.6955 0.7159 2.1564-5.9062 2.6955-4.4744v-1.7898l0.8985-3.5795 1.4376-3.4006-2.5158-16.108" stroke-width=".5px"/>
  <path d="m153.15 172.22-1.0115 0.91126-3.5403 0.75939h-0.88507l-0.12645 0.91126-4.6783 2.1263-0.88508 0.6075-1.5173 1.215-0.37931 1.5188-3.5403 1.5188h-1.2644l-3.5403 3.3413-0.75863 0.91125-0.63221 0.60752-1.2644 2.43 0.25289 2.7338 0.6322 5.1638 0.37931 3.7969 0.25288 2.7338" stroke-width=".5px"/>
  <path d="m85.108 176.38 4.3127 2.9584 4.3158 1.4757 4.1103 1.8446 2.8772 1.2912 0.82206 1.2912 1.0276 1.8446 2.6717 2.398 2.4662 3.3204 2.8772 0.73784 4.5213 3.3203 3.9048 1.4757 2.4662 0.5534h2.2606l6.782 4.6116" stroke-width=".5px"/>
  <path d="m129.12 189.08-3.0289 0.31745-1.9688 0.63491-1.363 0.63489-1.6659 0.95236-1.8173 0.63491-2.726 1.2698-2.4231 1.4285-4.5433 1.5873-4.5433 1.2698-3.6346 1.4285-5.452 2.2222-3.4832 0.95236-3.7861 0.79363-2.8774 0.15873-1.6659-0.31745" stroke-width=".5px"/>
  <path d="m71.951 145.33-4.3857-2.3261-2.2806-0.69783-1.4034-0.69781-1.5789-2.3261-0.87715-0.23261-1.4034 0.23261-6.4909-6.7456-1.5789-4.8847-1.4034 1.163-5.9646-9.0717-0.87715 4.6521 1.7543 1.3956 2.456 7.2108h1.5789l1.5789 2.7913-4.0349 4.4195" stroke-width=".5px"/>
  <path d="m31.176 99.808 1.2329 1.4241-0.30823 1.5823 1.6953 4.4306 0.92468 3.1647 0.15411 2.8482 0.30823 2.69-0.30823 1.7406 3.2364 0.15824 2.774 0.15823 3.6987 1.7406" stroke-width=".5px"/>
  <path d="m107.93 160.33 4.4341 3.5108 7.0692 2.4366 0.78547 1.6244 2.103 0.81219 3.3953 3.2488h2.6351l2.8632-0.26199 2.3564 1.0742 2.8885 1.3624 3.3953 1.6244h3.3952l4.4594-1.9126" stroke-width=".5px"/>
 </g>
 <g fill-rule="evenodd" stroke-width=".28014">
  <ellipse cx="55.368" cy="31.252" rx="3.7985" ry="4.036"/>
  <ellipse cx="270.99" cy="258.16" rx="3.7985" ry="4.036"/>
  <ellipse cx="88.025" cy="230.36" rx="3.7985" ry="4.036"/>
  <ellipse cx="58.877" cy="201.21" rx="3.7985" ry="4.036"/>
  <ellipse cx="197.7" cy="130.36" rx="3.7985" ry="4.036"/>
  <ellipse cx="174.13" cy="146.5" rx="3.7985" ry="4.036"/>
  <ellipse cx="153.05" cy="171.61" rx="3.7985" ry="4.036"/>
  <ellipse cx="130.18" cy="203" rx="3.7985" ry="4.036"/>
  <ellipse cx="95.481" cy="75.801" rx="3.7985" ry="4.036"/>
  <ellipse cx="69.2" cy="68.229" rx="3.7985" ry="4.036"/>
  <ellipse cx="66.082" cy="98.964" rx="3.7985" ry="4.036"/>
  <ellipse cx="33.119" cy="99.558" rx="3.7985" ry="4.036"/>
  <ellipse cx="44.849" cy="119.6" rx="3.7985" ry="4.036"/>
  <ellipse cx="40.989" cy="135.79" rx="3.7985" ry="4.036"/>
  <ellipse cx="72.17" cy="145.29" rx="3.7985" ry="4.036"/>
  <ellipse cx="84.345" cy="176.32" rx="3.7985" ry="4.036"/>
  <ellipse cx="135.42" cy="116.63" rx="3.7985" ry="4.036"/>
 </g>
 <path d="m201.15 181.44-0.31997-3.5326-1.8893-17.979-2.2093-7.9087 0.63993-15.791-0.16761-6.5379" fill="none" stroke="#000" stroke-width=".5px"/>
 <g fill-rule="evenodd" stroke-width=".28014">
  <ellipse cx="200.98" cy="181.18" rx="3.7985" ry="4.036"/>
  <ellipse cx="151.54" cy="119.36" rx="3.7985" ry="4.036"/>
  <ellipse cx="98.624" cy="116.88" rx="3.7985" ry="4.036"/>
  <ellipse cx="132.25" cy="184.12" rx="3.7985" ry="4.036"/>
 </g>
 <g fill="#000000" font-family="sans-serif" font-size="3.5277px" letter-spacing="0px" stroke-width=".26458" word-spacing="0px">
  <text x="101.65578" y="76.087006" style="line-height:1.25" xml:space="preserve"><tspan x="101.65578" y="76.087006" font-size="5.6444px" stroke-width=".26458">Bijnor</tspan></text>
  <text x="38.267044" y="46.87307" style="line-height:1.25" xml:space="preserve"><tspan x="38.267044" y="46.87307" font-size="4.9388px" stroke-width=".26458">Saharanpur</tspan></text>
  <text x="22.006458" y="68.921318" style="line-height:1.25" xml:space="preserve"><tspan x="22.006458" y="68.921318" font-size="5.6444px" stroke-width=".26458">Muzzafarnagar</tspan></text>
  <text x="2.9898376" y="98.135262" style="line-height:1.25" xml:space="preserve"><tspan x="2.9898376" y="98.135262" font-size="5.6444px" stroke-width=".26458">Baghpat</tspan></text>
  <text x="70.512619" y="100.6157" style="line-height:1.25" xml:space="preserve"><tspan x="70.512619" y="100.6157" font-size="5.6444px" stroke-width=".26458">Meerut</tspan></text>
  <text x="131.69653" y="107.78138" style="line-height:1.25" xml:space="preserve"><tspan x="131.69653" y="107.78138" font-size="5.6444px" stroke-width=".26458">Moradabad</tspan></text>
  <text x="147.68152" y="113.84465" style="line-height:1.25" xml:space="preserve"><tspan x="147.68152" y="113.84465" font-size="5.6444px" stroke-width=".26458">Rampur</tspan></text>
  <text x="167.80055" y="135.89288" style="line-height:1.25" xml:space="preserve"><tspan x="167.80055" y="135.89288" font-size="5.6444px" stroke-width=".26458">Bareilly</tspan></text>
  <text x="186.81717" y="125.69558" style="line-height:1.25" xml:space="preserve"><tspan x="186.81717" y="125.69558" font-size="5.6444px" stroke-width=".26458">Pilibhit</tspan></text>
  <text x="210.12521" y="183.3838" style="line-height:1.25" xml:space="preserve"><tspan x="210.12521" y="183.3838" font-size="5.6444px" stroke-width=".26458">Shahjanhanpur</tspan></text>
  <text x="153.19357" y="180.81621" style="line-height:1.25" xml:space="preserve"><tspan x="153.19357" y="180.81621" font-size="5.6444px" stroke-width=".26458">Badaun</tspan></text>
  <text x="137.48419" y="204.24248" style="line-height:1.25" xml:space="preserve"><tspan x="137.48419" y="204.24248" font-size="5.6444px" stroke-width=".26458">Etah</tspan></text>
  <text x="91.458458" y="175.85535" style="line-height:1.25" xml:space="preserve"><tspan x="91.458458" y="175.85535" font-size="5.6444px" stroke-width=".26458">Aligarh</tspan></text>
  <text x="30.82576" y="197.90361" style="line-height:1.25" xml:space="preserve"><tspan x="30.82576" y="197.90361" font-size="5.6444px" stroke-width=".26458">Mathura</tspan></text>
  <text x="24.762491" y="145.539" style="line-height:1.25" xml:space="preserve"><tspan x="24.762491" y="145.539" font-size="5.6444px" stroke-width=".26458">Noida</tspan></text>
  <text x="-0.31739998" y="120.18352" style="line-height:1.25" xml:space="preserve"><tspan x="-0.31739998" y="120.18352" font-size="5.6444px" stroke-width=".26458">Ghaziabad</tspan></text>
  <text x="63.071331" y="155.18512" style="line-height:1.25" xml:space="preserve"><tspan x="63.071331" y="155.18512" font-size="5.6444px" stroke-width=".26458">Bulandshahr</tspan></text>
  <text x="70.237015" y="239.79529" style="line-height:1.25" xml:space="preserve"><tspan x="70.237015" y="239.79529" font-size="5.6444px" stroke-width=".26458">Agra</tspan></text>
 </g>
 <ellipse cx="114.33" cy="235.39" rx="3.7985" ry="4.036" fill-rule="evenodd" stroke-width=".28014"/>
 <g fill="#000000" font-family="sans-serif" font-size="3.5277px" letter-spacing="0px" stroke-width=".26458" word-spacing="0px">
  <text x="104.96301" y="228.21997" style="line-height:1.25" xml:space="preserve"><tspan x="104.96301" y="228.21997" font-size="5.6444px" stroke-width=".26458">Firozabad</tspan></text>
  <text x="242.7646" y="250.81941" style="line-height:1.25" xml:space="preserve"><tspan x="242.7646" y="250.81941" font-size="5.6444px" stroke-width=".26458">Lucknow</tspan></text>
  <text x="137.75981" y="189.35991" style="line-height:1.25" xml:space="preserve"><tspan x="137.75981" y="189.35991" font-size="5.6444px" stroke-width=".26458">Kasganj</tspan></text>
  <text x="96.143715" y="128.4516" style="line-height:1.25" xml:space="preserve"><tspan x="96.143715" y="128.4516" font-size="5.6444px" stroke-width=".26458">Amroha</tspan></text>
 </g>
</svg>
