<svg width="207.76mm" height="164.97mm" version="1.1" viewBox="0 0 207.76331 164.97442" xmlns="http://www.w3.org/2000/svg" xmlns:cc="http://creativecommons.org/ns#" xmlns:dc="http://purl.org/dc/elements/1.1/" xmlns:rdf="http://www.w3.org/1999/02/22-rdf-syntax-ns#">
 <metadata>
  <rdf:RDF>
   <cc:Work rdf:about="">
    <dc:format>image/svg+xml</dc:format>
    <dc:type rdf:resource="http://purl.org/dc/dcmitype/StillImage"/>
    <dc:title/>
   </cc:Work>
  </rdf:RDF>
 </metadata>
 <g transform="translate(-.67179 -32.797)">
  <g stroke="#fff" stroke-width=".5">
   <path d="m145.45 186.48-0.55497 0.25997-0.67106 0.31476-0.83138 1.2008-0.36948 0.55423 0.36948 1.0161 0.46188 0.55423-0.73899 1.478-0.55423 1.1085-0.83136 1.2009-1.1085 1.0161-0.83135 0.73897-1.478-0.0923-1.2008-0.55422-1.0161-0.73902-0.64661-1.2009-0.27711-0.92371-0.55426-0.73898-0.92372-0.64661 0.27712-1.1085 0.3695-0.3695-0.739-0.27712-1.1085 0.36951h-0.92375l-1.0161-0.64662-0.27714-0.92372 1.0161-0.36948 0.64662 0.18472 0.46186-0.55423-0.92374-0.73898-1.2008-0.27712-1.2933-0.27714-0.73899 0.92373-0.18475 0.73902-0.0923 0.92371-0.73899 0.46187-0.73896 0.0923-0.739-0.83136 1.0161-0.64661 0.73902-0.46188-0.64663-0.83135-0.0923-1.0161 0.739-1.0161-0.83136-0.4619-0.55424-0.46183-1.0161-1.1085-1.1085-0.0923-1.1085 0.55423-1.478 0.27713-0.64663 0.83132-1.1085 0.4619-0.36951 0.73897-0.6466-0.0923-0.739 0.83138-1.0161-0.27714-0.83137-0.6466-1.1085-0.27712h-1.1085l-1.0161 0.46184-0.46187 0.3695-0.64661 0.18474-0.73898 0.36951-1.1085-0.18473-0.18475-0.73902 0.83135-1.0161-0.73899-0.83137-0.92373-0.739-0.6466 0.83137 0.18475 0.739-0.83137 0.55423-1.2008 0.36948-1.0161-0.27711h-1.0161l-0.73897 0.73897-1.1085-0.18472-0.36949-0.0923-0.73898 0.55424-1.1085-0.27712-1.1085-0.55423 0.36949-0.55424-0.46186-0.73899-0.18476-1.0161 0.27712-0.18476 0.36949-1.3856-0.18473-1.2933-0.83136-0.83132-0.64661 0.46185-0.46187-0.92375-0.55423-0.92372-0.27711-0.36948-0.64662 0.83135-0.46187 0.27712-1.0161-0.27712h-0.92374l-1.2009 0.46185-0.55423-0.55422-1.3856-1.1085-0.92373-1.3856-0.83137-0.46187-0.6466-0.46186-0.3695-0.73899-1.3856-0.92373h-1.8474l-0.46187 0.0923-1.0161 0.0923-0.73897-0.92374 0.18474-0.92372 0.55424-0.73899-1.1085-0.83135-1.1085-1.1085 0.3695-1.2008-0.83135-1.0161-1.2933-0.46186-0.64661 0.18473-1.0161-0.64661-0.92374-1.0161-0.83136-0.18476h-0.92373l-0.73898-1.2008-0.55423-0.18475-0.3695 0.36949 0.3695 1.2009h-0.55424l-0.46187 0.73899 1.5703 0.83133-0.3695 0.64663-0.64661 0.27713-0.3695 0.18473-0.73898 0.0923-0.64661-0.55423-0.27711-1.1085-0.83136-0.92374-0.73898-1.1084-1.2009 0.0923-0.64661 0.92374h-0.64661l-0.92374 0.18474-1.2009-0.0923-0.18475-1.0161 0.18475-0.92373-0.18475-1.2009-0.55424-0.73898-0.09237-1.1085-0.92374-1.1085-0.73898-0.64661s-0.18474-0.46186-0.27712-0.83136c-0.09237-0.3695-0.73899-1.2932-0.73899-1.2932l-0.46187-0.18476-0.64661 0.36951-0.46186-0.27713-1.1085 0.36951-1.3856-0.36951-0.83136-0.73897-0.73898-0.55424-0.73898-0.18476v-1.0161l-0.73897-0.64662-0.83136-0.55423-0.73898-0.46187-0.64662-0.27713v-0.92373l0.64662-0.73898 0.83135-0.55423 1.0161-0.55423 0.73898 0.36948 1.2009 0.0923 0.64661 0.83134-0.18476-1.5703 0.55424-0.83135 0.46187-0.73899 1.0161 0.27712 0.83136 0.27712 0.31444 0.34818 0.59546 0.67252 0.78459 1.4571 0.89668 0.89668 0.89668 1.1208 1.6812 0.22417 1.4571 0.33625 1.233 0.89668 1.345 0.56043 1.0088 0.44834 0.89668-0.44834 1.345 0.78459 0.11208 1.233 0.56042 1.345 1.4571 1.4571 1.345 0.22416 0.56042-1.233 0.56042-0.11206 1.233 1.0088 1.0088-0.33626 1.0088-1.233 1.5692 0.33624 1.6812 0.7846 1.6812 0.56044 2.0175 0.67249 1.233-0.11207h1.233l0.56041 0.22417-0.6725 1.0088-1.0088 1.345-0.33626 1.233 0.11207 1.0088 0.89668 0.44834 1.4571 0.89667 1.4571 1.6812 1.5692 1.1208 0.78459 1.1208 0.78459 1.0088-0.6725 0.78458 1.345 0.67251h1.233l1.5692 0.89667 1.1209 0.89668 2.0175 0.33626 1.9055 0.11206 2.0175 0.33625 1.6812-0.22417h5.8284l1.7934-1.1208 1.5692-0.78458 1.345 0.44834 1.233 0.78458 0.33626 1.0088 1.4571 0.89667 1.5692 0.56043 1.233-0.56043 1.1208 0.11206 0.56043 0.44834 1.1208 0.11207 0.22419 0.89669-0.78461 0.44834 1.1209 0.89667 0.6725 0.78459 1.0088-1.233 1.1208-0.67252 1.1209 0.44834 1.1208 1.5692 0.67248-0.78459 0.33626-1.4571 1.233-1.345 0.89667-1.1208 1.5692-0.33626 1.5692-0.78459 0.33625-1.0088 0.89668-1.1209-0.11207-1.1208 0.89669 0.11207 1.5692 1.0087 0.78459 1.6813 0.67251 1.9055 0.44833 1.4571-0.11207 1.7934 0.67253 2.1296 1.0088 0.78458 0.33626 0.67252-0.21367 2.8205z" fill="#e2b584"/>
   <path d="m138.56 171.84-0.44834 1.233-1.5692 0.78459-1.5692 0.33626-0.89668 1.1208-1.233 1.345-0.33626 1.4571-0.6725 0.7846-1.1208-1.5692-1.1208-0.44834-1.1208 0.67251-1.0088 1.233-0.6725-0.78461-1.1208-0.89666 0.78459-0.44834-0.22417-0.89668-1.1208-0.11207-0.56043-0.44833-1.1208-0.11207-1.233 0.56042-1.5692-0.56042-1.4571-0.89667-0.33627-1.0088-1.2329-0.78458-1.345-0.44835-1.5692 0.78459-1.7934 1.1208h-5.8284l-1.6812 0.22417-2.0175-0.33625-1.9055-0.11207-2.0175-0.33625-1.1209-0.89668-1.5692-0.89667h-1.233l-1.345-0.67252 0.6725-0.78458-0.78459-1.0088-0.78459-1.1208-1.5692-1.1209-1.4571-1.6812-1.4571-0.89668-0.89668-0.44834-0.11207-1.0088 0.33625-1.233 1.0088-1.345 0.6725-1.0088-0.56041-0.22418h-1.233l-1.233 0.11207-2.0175-0.67249-1.6812-0.56043-1.6812-0.7846-1.5692-0.33624-1.0088 1.233-1.0088 0.33627-1.233-1.0088-0.56042 0.11207-0.56042 1.233-1.345-0.22416-1.4571-1.4571-0.56042-1.345-0.11208-1.233-1.345-0.78459-0.89667 0.44835-1.0088-0.44835-1.345-0.56043-1.233-0.89668-1.4571-0.33624-1.6812-0.22417-0.89668-1.1208-0.89668-0.8967-0.78459-1.4571-0.7846-1.0088-0.12529-1.1204 1.2009-0.27712 1.0161-0.83136 1.0161-0.83134 0.73898-1.1085v-1.3856l0.83136-1.3856-0.08264-0.56976 0.56042 0.11207-0.11208 1.6813 0.22416 1.0088 0.89668 0.22417 1.1208-1.0088 0.89668-1.7934 0.33626-1.9055 0.44834-1.345 1.5692-0.89667 1.233-1.0088 0.56042-1.5692 0.22417-0.56042 0.67251 0.11207 0.56043 0.89667 1.233 0.11207 1.4571 0.44833 1.345 0.89669 0.33626 0.6725 1.233 0.33625h1.5692l2.3537 0.78461 1.5692 0.22417 1.5692-1.1209 1.345-1.4571 1.1208-1.345 1.1208-1.5692 1.7934-1.345h2.3537l1.5692 0.67251 1.233 0.89669 1.345 1.4571 1.345 0.89666 1.0088 1.5692 0.56042 1.1208 0.78458 0.33626 0.89668 0.11207 0.33627 0.89668 1.1208 0.22418 1.5692-0.89669 0.44833-1.4571 0.33625-1.0088 0.22417-0.56043 0.89669 0.22418 0.67251 0.44834 1.345-0.11207 1.233-0.67251 1.5692-0.56043 0.89668 0.33625 0.44834 0.56043 0.89668-0.11207 1.5692 1.0088 0.56043 0.89669-0.33625 1.233 0.33625 1.345 0.89669 1.4571 1.6812 0.56043 1.0088 0.56041v0.89668l0.78459 0.56043 1.0088-0.11207 1.1208-1.0088 0.6725-0.33625 1.233 0.89669 1.6813 0.44834 1.0088 0.22416 1.1208-0.22416-0.7846 1.1208-0.89667 0.78459 1.233 1.4571 0.89667 0.56041 0.11207 0.7846 1.0088-0.11207 1.345 0.44833-0.22418 1.4571h-1.0087l-0.78462 0.44834-0.11206 1.5692-0.6725 0.44834-1.233-0.44834-0.33625-1.233-0.56042-0.56043-0.67252 0.56043-0.6725 0.11207-0.33625 0.56042 0.44833 1.0088 0.89668 0.44834-0.11207 1.5692 0.33625 1.1208 1.1208 0.56043 1.0088-0.56043 0.89666 0.67252 0.67252 0.56042 1.5691 0.67252 0.8967 0.56042 0.67249 1.233 0.56043 1.233-0.89667 0.44833-0.56043 1.1208-0.67252 1.4571-1.1208 0.89668 0.56042 1.0088 1.0088 1.0088 1.0088 1.1208 1.1208-0.67249 1.345 0.44832 1.233 0.56044 0.22416 1.2329-0.6725 0.67251 1.0088 1.9055z" fill="#e7de69"/>
   <path d="m139.34 170.95-0.78459 0.89668-0.78459-0.6725-1.0088-1.9055 0.6725-0.67251-0.22416-1.2329-1.233-0.56044-1.345-0.44833-1.1208 0.6725-1.0088-1.1208-1.0088-1.0088-0.56043-1.0088 1.1208-0.89668 0.67251-1.4571 0.56043-1.1208 0.89667-0.44833-0.56043-1.233-0.67249-1.2329-0.89669-0.56042-1.5692-0.67252-0.67252-0.56042-0.89666-0.67252-1.0088 0.56043-1.1208-0.56043-0.33626-1.1208 0.11207-1.5692-0.89668-0.44834-0.44833-1.0088 0.33625-0.56042 0.67251-0.11206 0.67251-0.56044 0.56042 0.56044 0.33625 1.233 1.233 0.44834 0.67248-0.44834 0.11207-1.5692 0.78462-0.44834h1.0087l0.22418-1.4571-1.345-0.44833-1.0088 0.11207-0.11206-0.78461-0.89668-0.56041-1.233-1.4571 0.89667-0.78459 0.3783-0.61297 0.29421-0.50786-0.22416-0.8967 0.6725-0.44833 0.6725-0.67252 0.11207-1.233 1.5692-0.56042 0.67253-0.67251 1.1208 0.44834 1.0088 0.78459 1.345-0.44834 1.2329-0.11206 1.4571-0.22416 0.89669-0.56043 0.67251-0.11206 0.78459-0.89669 1.0088-0.22416 1.1208-0.78459 0.89669-0.44834h1.9054l1.0088 1.345 1.345 1.233 1.1208 0.89669 1.6813 0.67249 1.1208 0.89669 1.4571-0.11207 1.233 0.56042 1.6812 0.11207h1.0088l0.25272 0.0611 0.14325 0.27537 1.1653 0.58264 0.38842 0.87397-0.2913 1.3595 0.58263 1.0682 0.38843 1.0682 0.77685 0.77685 0.97106 0.29133 0.19422 0.48553 0.19422 1.1653-0.67976 0.77686-0.29132 0.77683v0.87398l-0.0971 1.1653-0.0971 1.3595 0.1942 1.845v1.5537l-0.67975-0.29131-0.87395-0.38842-1.4566-0.58267-0.48553 1.0682 0.58265 0.67976 0.29133 0.58264 0.29129 1.3595 0.48555 0.87396-0.29132 1.0682-1.2624 0.29131-0.0971 0.97107-1.1653 0.58265-0.97106-0.29133-1.3595-0.87395-1.0377 0.19039-1.1462 1.31-1.6375 1.8013v4.9125l0.16374 2.1287-1.1462 0.81875-2.1287 1.8013-0.98249 2.2925-0.655 2.7837-0.11379 0.45445-0.33626-0.6725-1.0088-0.78458-0.67252-2.1296 0.11207-1.7934-0.44833-1.4571-0.67252-1.9055-0.78459-1.6813-1.5692-1.0088-0.89668-0.11207z" fill="#abacda"/>
   <path d="m143.15 135.64-0.22418 0.67252-1.1208 0.78458-1.0088 0.22417-0.78459 0.89667-0.67252 0.11207-0.89667 0.56042-1.4571 0.22417-1.233 0.11207-1.345 0.44833-1.0088-0.78458-1.1208-0.44836-0.67253 0.67252-1.5692 0.56042-0.11207 1.233-0.6725 0.67253-0.67251 0.44833 0.22417 0.89668-1.0088 0.22416-1.0088-0.22416-1.6813-0.44834-1.233-0.89667-0.6725 0.33624-1.1209 1.0088-1.0088 0.11207-0.78459-0.56042v-0.89667l-1.0088-0.56042-1.6812-0.56044-0.89669-1.4571-0.33625-1.345 0.33625-1.233-0.56044-0.89668-1.5692-1.0087-0.89667 0.11207-0.44835-0.56044-0.89667-0.33626-1.5692 0.56043-1.233 0.67252-1.345 0.11206-0.67251-0.44834-0.89669-0.22417-0.22416 0.56042-0.33626 1.0088-0.44833 1.4571-1.5692 0.89667-1.1208-0.22416-0.33627-0.89669-0.89667-0.11207-0.78459-0.33625-0.56042-1.1208-1.0088-1.5692-1.345-0.89667-1.345-1.4571-1.233-0.89667-1.5692-0.67251h-2.3537l-1.7934 1.345-1.1208 1.5692-1.1208 1.345-1.345 1.4571-1.5692 1.1208-1.5692-0.22418-2.3537-0.78459h-1.5692l-1.233-0.33625-0.33625-0.67252-1.345-0.89668-1.4571-0.44833-1.233-0.11207-0.39405-0.331-0.16637-0.56568h1.7934l0.22417-1.6812 0.56042-0.56042 0.89666-0.11207-0.22417-0.78458-0.44833-0.78459 0.22418-1.345 0.78459-0.78459 0.33626-0.11207 0.56042 0.33626 0.56042-1.1209 0.22417-0.5604-0.56042-0.67252-0.33626-0.56042 0.56042-0.44834 0.44833-0.89669-0.33624-0.78458-0.33626-1.233v-1.233l0.44833-0.67251 0.33625-0.89668-0.11209-1.4571-0.22416-0.67251v-1.233l-0.33625-0.6725-0.7846-0.33624-0.33625-0.67251-0.22417-0.56043-1.1208-0.67251-0.56042-0.56041 0.44834-1.345 1.1208-0.56043 1.233-0.11207 0.44834-1.0088 1.5692-0.44833 0.89668-0.44835 0.78459 0.44835h0.89668l0.56042-0.89669 0.11208-1.4571 1.0088-0.11207 1.1209-0.22417 0.67251-2.0175 0.89668-0.89668 1.6812 0.11207 1.0088 0.89668v1.1208l0.22416 0.89667 1.0088-0.22417h1.1209l0.6725-1.0088v-0.89667l-0.44833-1.345 1.4571 0.11207 0.67251 1.1208 0.89668 1.4571 0.89668 0.6725 1.1209-0.6725 0.56042-0.44834 1.345 0.44834 0.33625-1.1208 1.0088 0.22417 1.1208 1.0088v1.5692l0.22417 1.6813 0.56042 1.4571 0.67252 1.4571 1.1208 1.1208 1.6813 0.78458 1.5692 1.6812 2.0175 1.0088 2.2417 0.67252 2.0175-0.22417 2.0175-0.11206h1.9055l1.233 0.44833 1.6812 0.89667 1.6813 1.1208 2.1296 0.56042 1.4571 0.33626 1.233 0.22417h2.578l1.1208 1.5692 0.44834 0.44833 0.22419 0.67253 0.89666 0.44832 1.0088 0.33625 1.233 0.33627 1.1208 0.67251 0.56041 1.345-0.11207 1.1208 1.233 1.4571 0.56041 1.9055 0.33625 1.5692 0.33626 0.89667 0.33625 1.4571 1.5692 0.78458h1.345l1.0088 0.8967z" fill="#c2f0c2"/>
   <path d="m136.61 73.607 0.39994 0.20383 1.4081 0.23469 1.4081 0.93872 0.82137 0.82137 0.82137 0.46935v1.2908l0.82137 0.58669 0.11734 1.0561 0.5867 0.9387 0.70401 0.35202 1.056 0.23467 0.35202 1.0561-0.46935 1.6427-0.23467 1.5254-0.11735 2.2294-1.1734 1.76-0.23467 1.9948-0.11734 2.9335-0.46935 2.1121 0.23467 1.4081 0.46936 1.056 0.46935 1.5254 0.70403 0.82137 0.9387 0.46934 0.82138 0.58669 1.4081 1.1734 1.1734 1.4081 0.11734 1.76-1.6427 0.11734-1.056-0.46936-0.9387 0.23468-1.2908 0.9387-0.46935-0.70402-1.056-0.46936-1.056 0.23468-2.3468 0.58668-0.352 1.4081-0.70404 1.76-1.1734 0.11733-0.11734 0.46937 1.056 0.35201 1.76 0.58669 0.11735 1.1734 0.58668 0.82138 0.5867 1.056-0.93872 0.70404-0.70402 0.93871-1.056 0.58668-0.82138 0.70403-0.9387-0.46936h-0.9387l-0.58669 0.11735-0.93873-0.58669-0.58668-1.4081-1.056-0.35201-1.1734 0.82137-0.93872 1.2908-1.76-0.23467-0.46936-0.70403-1.5254-0.23467v0.82136l0.5867 1.056-0.35202 1.1734-0.77933-0.0368-1.4571-0.33625-2.1296-0.56042-1.6813-1.1208-1.6812-0.89667-1.233-0.44834h-1.9055l-2.0175 0.11206-2.0175 0.22417-2.2417-0.67251-2.0175-1.0088-1.5692-1.6812-1.6813-0.7846-1.1208-1.1208-0.67251-1.4571-0.56042-1.4571-0.22418-1.6813v-1.5692l-1.1208-1.0088-0.83714-0.25938 0.93064-0.82723 0.62043-1.034 0.41362-1.2408 0.51702-1.3442 0.62043-1.4476 1.1374 0.4136 1.6545 0.62043 0.82725 0.93063 1.2408 0.31022 0.62042-0.82723h2.1715l0.72385-0.72381 0.82723-0.72384 1.2408 0.4136 0.93062 0.51702 0.93065 0.51702 1.4476-0.31021 1.034 0.20682 1.1374 0.10339 1.7579-0.31021h1.034l1.2408 0.20681 1.034-0.51702 0.72383-0.31022 0.72383-1.2408 0.2068-0.93065 0.51703-0.51702-0.20681-1.2408-0.62042-0.51702-0.93063-0.31021-1.1375-0.20681-0.62042-1.034v-1.4476l-0.31021-0.82723-0.4136-0.93064-0.31023-1.034 1.034-0.41361 0.10339-1.7579 0.10339-0.82723 1.2408-0.62043v-1.2408l0.93064-0.51702 0.20682-1.4476-0.10339-1.3442-0.62043-1.3442-0.72383-0.82723 1.1374-0.72383 2.1715-0.2068 0.93064 0.72381 1.1374 0.72384 1.6545-0.31021 1.2408-1.2408 1.3442-0.72381 0.82722 0.4136 0.82725 0.31021 1.1374-1.034z" fill="#fcc"/>
   <path d="m157.4 141.32-8e-3 0.14904h-1.0088l-1.6813-0.11206-1.2329-0.56043-1.4571 0.11207-1.1208-0.89667-1.6813-0.6725-1.1208-0.89668-1.345-1.233-1.0088-1.345h-1.9055l-0.33626 0.11207-0.33624-0.33624-0.56042-0.89669-1.0088-0.89668h-1.345l-1.5692-0.78459-0.33625-1.4571-0.33625-0.89669-0.33626-1.5692-0.56042-1.9054-1.233-1.4571 0.11207-1.1208-0.56042-1.345-1.1208-0.67251-1.233-0.33627-1.0088-0.33626-0.89668-0.44832-0.22417-0.67252-0.44834-0.44833-1.1208-1.5692h-2.578l-0.45361-0.18739 0.35202-1.1734-0.5867-1.0561v-0.82137l1.5254 0.23468 0.46934 0.70402 1.76 0.23468 0.93871-1.2908 1.1734-0.82135 1.056 0.352 0.58671 1.4081 0.93871 0.58668 0.58669-0.11734h0.93872l0.9387 0.46936 0.82137-0.70404 1.056-0.58669 0.70403-0.9387 0.93871-0.70404-0.58669-1.056-0.5867-0.82136-0.11733-1.1734-1.76-0.5867-1.056-0.35201 0.11733-0.46936 1.1734-0.11734 0.70402-1.76 0.35203-1.4081 2.3468-0.58668 1.056-0.23468 1.0561 0.46936 0.46935 0.70402 1.2908-0.9387 0.93871-0.23468 1.056 0.46936 1.6427-0.11734-0.11734-1.76-1.1734-1.4081-1.4081-1.1734-0.82136-0.5867-0.93871-0.46934-0.70403-0.82137-0.46936-1.5254-0.46935-1.056-0.23468-1.4081 0.46935-2.1121 0.11735-2.9335 0.23467-1.9948 1.1734-1.76 0.11733-2.2294 0.23468-1.5254 0.46935-1.6427-0.352-1.0561-1.0561-0.23466-0.70402-0.35202-0.58669-0.9387-0.11734-1.0561-0.82137-0.58668v-1.2908l-0.82137-0.46935-0.82137-0.82137-1.4081-0.93872-1.4081-0.23469-0.46935-0.352 0.37961-0.88587-0.20681-1.1375 0.51703-0.51702-0.41361-1.034 1.2408-0.62042 0.31022-1.2408 0.82723-0.72383-0.20682-1.1374 0.20682-1.2408v-0.72382l-0.72383-0.62042-0.10338-0.93065-0.51703-0.3102-0.2068-0.72385v-0.72381l0.10339-0.72382-0.62043-1.4476-0.20682-1.034-0.41359-0.72382-0.31023-0.93063 0.82724-1.1374 0.4136-1.4477 0.62043-1.034 0.62043-0.72384 0.41361-0.62043-0.93063-1.2408 0.10339-1.1374-0.41363-0.62042-0.3102-1.3442-0.10339-0.62043-0.82723-0.10339-0.51702-1.2408-0.82723-0.72384-0.51701-1.034 0.41362-0.93063 1.2408-0.51701 1.1374-0.41363 0.72382-0.62042 1.1374 0.51701 1.5511 0.2068 1.2408-0.10339 0.93064 0.2068 0.41362-0.31021-0.93063-1.2408-0.51703-1.2408v-1.2408l0.93065-1.1374 0.51701-0.93064 0.74488 0.61161 0.77686-0.77685 0.58263-0.97107 0.29133-1.0682h1.0682l0.87396 0.58263 1.1653 1.2624v0.97108l-0.19421 1.2624 1.0682 0.48554 1.1653-0.0971 0.87396 0.38843 0.48553 0.97107 0.0971 1.1653-0.29133 1.4566-0.87395 1.1653-1.3595 0.67974-0.58265 0.97107 0.67974 0.87396 0.38844 1.2624v0.97106l0.29132 1.6508 0.48552 0.0971 0.0971 0.67973-0.58264 0.48555v0.87395l0.97108 0.67974 1.0682 0.97107 0.97107-0.19421 1.2624 0.48554 0.38844-0.77685h0.87396l1.1653 0.29132 1.5537 1.4566s0.77685 0.38842 1.1653 0.67973c0.38841 0.29132 0.97105 0.67975 0.97105 0.67975l1.4566 0.77685 0.58266-0.0971 0.97107-0.67975 0.67973 0.38844 0.29134 1.0682 0.87395 0.58263 0.87397 0.58264 1.5536 0.38843s0.87396 0 1.4566 0.19421c0.58264 0.19422 0.87397 0.48554 0.87397 0.48554l0.97106 1.2624 0.87394 0.87396 0.48554-0.19421 0.48554-0.48554 0.67975 0.19422 0.67973-0.58264 0.38843-0.87396 0.38843-1.1653 0.97108 0.38843 0.67971 0.67974 0.87399 0.38844 0.67973 0.48553 1.3595 1.1653 1.0682 0.48554 1.4566 0.58263 0.77686 0.97108h0.58264l1.5537 0.77685 1.4566 0.97107 1.1653 0.67975 0.48553 1.0682 0.58262 1.1653 0.38842 0.87397 0.97107 1.2623 1.0682 0.58265 1.1653 0.97107 1.3595 0.58264 1.1652 0.38842h1.1653l1.0682 0.38843 1.2624 0.58264 0.97108 0.48553h2.4276l0.77686 0.38844 1.1653 0.38842 1.0682 0.19422 1.1652 0.58264 0.87398 0.67975 0.2913 1.0682-0.0971 1.6508 0.48553 1.1653v0.87397l-0.58263 0.29131h-0.87394l-1.2624-0.0971-1.2624 0.58263h-1.1653l-0.67972-1.3595 0.0971-1.3595-0.67976-0.58264-0.77687 0.87396-0.77683 1.7479-1.2623 1.4566 0.48551 1.3595v1.6508l-1.4566 0.97108-0.38843 1.0682-1.0682 0.77684-1.2624 0.38844-0.67974 1.2624-1.845 0.58265-0.29134 1.0682v1.9421l-0.77683 1.0682-1.1653 0.87396-1.4566 0.29132-1.0682 1.5537-1.1652 1.3595-1.9421-0.48553h-1.4566l-1.845 0.97108-1.4566 1.3595-0.19423 1.6508-0.0971 2.0392-0.58265 0.77686-0.0971 1.845-1.2624 0.38841-0.97105 1.2624-1.4566 0.87396-0.19423 2.2334-1.7479 0.0971-1.5537-0.67974-2.4276 0.29131-1.2624 0.97108-0.67975 2.2334-1.7479 0.67975-0.19419 1.2624 0.48554 1.6508 0.19421 1.0682 0.77685 0.48553 0.38842 0.77686 0.19421 0.97106 1.3595 1.2624s0.2913 0.77686 0.2913 1.1652c0 0.38844 0.0971 1.6508 0.0971 1.6508l-0.87396 1.9421-0.97107 1.3595-0.97107 0.48553-0.97106 1.1653-0.97108 0.67974 0.67975 1.2624-0.2913 0.97109-1.1653 0.67973-0.87393 0.87397-0.58265 0.97107-1.0682 0.29132-0.0971 1.0682 0.1942 0.58266 0.19422 0.87395-0.87395 0.1942-0.58264-0.77684-1.2624-0.29131-1.6508 0.29131-0.58264 0.97105 0.48553 1.0682 0.19422 0.97106z" fill="#f2c0f2"/>
  </g>
  <g fill="none" stroke="#000">
   <path d="m9.4882 88.263 4.5238-1.3114 3.2043 1.8736 0.75395 2.623 2.4503 1.6862 1.508-0.93678 2.2619-0.56208 2.6389 1.4989 0.94245-0.37471v-1.4989h2.0734l2.0734 5.0586 2.0734 0.74943 0.56546 1.1241 0.56547-1.6862 1.3195 1.6862 0.37697-1.8736 1.8849-1.3115 1.1309 1.4989 1.508-0.56206-0.56546-1.1241 1.508-4.1219h0.94245l0.75396-0.56206v-1.8736l1.1309-0.93676 0.18849-1.1241h1.3193l1.508-0.74942v-2.0609l1.508 0.56207 1.1309-0.74942 1.3193 2.0609 1.6964 0.37471 1.1309-0.93676 2.0734 0.56206 0.75395-1.6862 1.508 0.56206 0.56545-0.74942 1.6964-0.3747 0.37699-0.93678 1.6964 0.74941 1.8849-1.4989 2.6389-0.56206 1.8849-2.623 1.3193 0.56207 1.6964-1.1241 1.1309 1.3115 1.8849 0.37471 1.8849-1.1241 1.1309 1.6862 1.6964-0.74943 1.3193 0.37472-0.56546 1.4989 0.94245 0.56207 2.0734-0.74942 2.8273 2.2483 0.18849 1.6862h1.8849v2.4356l2.2619-0.74943 1.1309 0.93678 0.56546 1.4989 1.6964-0.18736 1.3193 1.6862-0.37698 1.1241 2.0734 1.6862 1.8849 0.37472 0.75397 1.8736 3.0158 0.18736 1.508 1.4989-0.56547 1.8736h1.3194v1.6862l1.3193-0.37471 0.56547 1.8736h1.8849l0.18849 4.8713 3.2043 0.74943v2.2483h2.6389l1.508 1.8736 3.7698 0.74942 2.6389 2.623" stroke-width=".50151"/>
   <path d="m66.934 164.53 4.6636 2.8949 0.2591 1.3158h3.6273l4.9227 2.3685 2.0727 2.8949 2.0727 0.7895 0.77728 1.8422 4.9227 4.4738 15.027 7.3687 0.77726 3.9474 2.5909-2.3685 5.9591 3.158 4.1454-1.3158 1.5546 1.579 1.8137-2.6317 3.6273 3.158h3.3683l0.77724 2.1054 2.0727 1.3159 8.0318-12.368 3.3682-1.0527 3.8864-8.1582-2.0727-1.8422v-2.3685l1.5546-0.78951-0.77726-5.2633h-2.0727l-0.77724-0.26317 1.0364-3.4211 2.5908-1.0527-0.77726-1.579 0.77726-1.3159 0.5182-1.8422-1.0364-1.579v-3.9476" stroke-width=".50215"/>
  </g>
  <ellipse cx="123.52" cy="114.97" rx="1.4796" ry="1.5853"/>
  <ellipse cx="156.07" cy="133.57" rx="1.4796" ry="1.5853"/>
  <ellipse cx="146.35" cy="150.27" rx="1.4796" ry="1.5853"/>
  <ellipse cx="100.8" cy="184.58" rx="1.4796" ry="1.5853" stroke-width="1.1424"/>
 </g>
 <ellipse cx="1.4789" cy="42.593" rx="1.4796" ry="1.5853"/>
 <path d="m105.6 118.05 0.70798-2.8092-3.54-3.2776 0.472-2.107-0.472-2.5753 0.70801-0.2342 1.18 0.93644 2.1241-2.5752 0.47199-3.0435h1.416l1.18 0.93646 2.8321-0.70234 1.4161-0.70232-0.47204-1.6388 1.652 0.70231 2.36-2.8092" fill="none" stroke="#000" stroke-width=".5109"/>
 <g fill="none" stroke="#000" stroke-width=".5px">
  <path d="m116.7 100.41 0.97069-0.97067h0.84933l-0.12135-0.728v-0.48533l-0.48532-0.24267-0.24266-0.48534-0.12135-0.728 0.97068-0.84933 0.97067-0.364 0.97066-0.12134v-0.48533l-0.48534-0.97066-0.97067-0.48533 1.092-0.728-0.72798-2.184 2.7907-1.456 1.82-0.24267 0.48532-0.48533-0.48532-0.84933 0.9722-0.85238-0.37465-0.37465 0.29971-0.52451-0.67436 0.22479 0.29971-0.67437-0.52452-0.14986 0.44959-0.59944-0.37465-1.6485"/>
  <path d="m123.77 82.781 2.2842 1.8016 1.462 0.85791 2.0102 0.85791 2.1928 1.1153 0.9137 1.0295h0.91369l1.1878 0.94371 0.82232-0.42896 0.82231 0.60054 0.63961-0.42896 0.82232-0.60054 1.0964-1.0295 1.0964-0.25738 1.2792-0.25738 1.9188-0.25738 0.73094 1.1153 0.27413 1.4585-1.1878 0.17158 2.0102 3.0885 0.0914 0.34317h-0.91367l-1.1878 1.4585 0.73097 1.9732 3.3807 1.0295-1.0964 0.94371 0.9137 0.77212-0.45685 0.51474 0.73095 1.2011 0.0914 0.60054v0.60054h-1.8274l1.5532 1.9732 0.73099 1.0295v0.77211l-1.0051 0.60054 1.736 0.17159" stroke-width=".49692px"/>
  <path d="m118.52 99.565 0.7386-0.68546 0.82066-0.08568 0.0821-1.1995 2.2158 0.59977 0.41033-0.08568 0.32826-0.51409v-0.51409l0.57445-0.51409 0.73863-0.77114 0.82066 0.08568 0.7386-0.17136 0.082 0.42841 0.082 0.51409 0.65655-0.34273 0.41032-0.42841h2.6261l0.57448 1.3709 0.90275 3.5986 0.49238 0.34273 0.41033 0.17136 1.8876-0.68545 0.41032 0.77113h0.49239l1.8055-0.0856 0.32826 0.9425-0.24619 1.0282 1.313 1.1996h0.98481l1.8055-0.17138 0.82066 1.2852 0.98482 1.1139h0.65653l2.6261-0.9425 1.3131-0.17137"/>
  <path d="m124.43 95.795 1.2181-1.0484v-0.29956l-0.68515-0.22467 0.30451-0.29955v-0.37444h0.60901l0.76129-0.29956h0.83742l0.98964-0.52422-0.53288-0.22467-0.38064-0.37444 0.53289-0.37444 0.76127-0.52422 2.4361 1.4229 0.0761-0.82378 0.76128-0.52422h0.76128l1.2942 0.37444 0.53289-1.1233-0.22839-0.37444 0.0761-0.59911"/>
 </g>
 <ellipse cx="103.48" cy="117.8" rx="1.4796" ry="1.5853" stroke-width=".30226"/>
 <g font-family="sans-serif" font-size="3.5278px" letter-spacing="0px" stroke-width=".26459" word-spacing="0px">
  <text x="6.4796915" y="40.834385" style="line-height:1.25" xml:space="preserve"><tspan x="6.4796915" y="40.834385" font-size="6.3501px" stroke-width=".26459">Dehradun</tspan></text>
  <text x="115.54816" y="75.190948" style="line-height:1.25" xml:space="preserve"><tspan x="115.54816" y="75.190948" font-size="6.3501px" stroke-width=".26459">Bageshwar</tspan></text>
  <text x="158.90288" y="98.640671" style="line-height:1.25" xml:space="preserve"><tspan x="158.90288" y="98.640671" font-size="5.6445px" stroke-width=".26459">Pithoragarh</tspan></text>
  <text x="150.17741" y="123.45375" style="line-height:1.25" xml:space="preserve"><tspan x="150.17741" y="123.45375" font-size="5.6445px" stroke-width=".26459">Champawat</tspan></text>
  <text x="98.658714" y="146.96071" style="line-height:1.25" xml:space="preserve"><tspan x="98.658714" y="146.96071" font-size="5.6445px" stroke-width=".26459">Rudrapur</tspan></text>
  <text x="98.369881" y="126.18045" style="line-height:1.25" xml:space="preserve"><tspan x="98.369881" y="126.18045" font-size="5.6445px" stroke-width=".26459">Nainital</tspan></text>
  <text x="95.714119" y="96.224182" style="line-height:1.25" xml:space="preserve"><tspan x="95.714119" y="96.224182" font-size="5.6445px" stroke-width=".26459">Almora</tspan></text>
 </g>
 <path d="m145.55 117.79 1.9149-2.1006 0.24056-2.0379 1.6839-0.29113 0.72167-1.7468 0.53875-4.1499-0.41518-0.98414" fill="none" stroke="#000" stroke-width=".5px"/>
 <path d="m41.033 91.851-1.2521 1.0956-1.0956 0.31303-1.0956 1.7217-0.93909 2.6608 0.15652 2.3477 2.8173 2.0347 2.1912 0.46955 1.5652 2.6608 3.9129 3.2868 2.0347 0.46954h1.7217l1.7217 1.5652 0.93909 2.0347h3.1303l1.5652 0.15652-1.0956 1.5652 2.8173-0.15653 1.7217 0.62607h1.2521l2.1912-0.62607 0.78258 1.4086 0.78258 1.5652-0.31303 1.0956-0.78258 1.7217v0.9391l1.4086-2.0347 0.93909-0.78259 0.93909-1.0956-0.31303-0.62607-0.15652-1.2521 1.2521 0.9391 0.62606 1.2521v1.5652l0.62606 0.9391 0.93909 0.31302h1.4086l0.15652-0.78257-0.31303-0.9391-0.62606-1.0956-0.31303-0.46955 0.62606-0.93908 1.2521 1.2521 1.4086 0.62606 2.3477 0.31302 1.2521 0.78259 0.46955 1.7217 2.3477 3.4433 1.7217 0.46954h1.4086l1.4086 0.31303 1.4086 0.15652 0.78258-0.31303 0.46955-1.2521-0.31303-0.62606-0.78258-0.46954-1.2521-0.93909-0.62606-1.0956 1.5652 0.62606 1.8782 0.31303 0.93909-0.46954 0.62606-0.62607 0.46955-2.0347-1.5652-1.4086v-1.2521l-0.62606-1.0956-0.31303-1.2521v-1.2521l-1.4086-1.8782-1.8782-0.9391v-1.5652h-1.2521l-0.93909-0.15652-0.78258-0.78257-0.62606-0.46955-0.93909-0.9391-1.5652-0.93909-1.4086-1.2521-0.78258-0.93909-0.31303-0.9391-1.4086-0.1565-0.46955-0.62607-1.0956-0.15652h-2.3477l-1.5652 0.46955-1.7217-1.0956-1.4086-0.93909-1.5652-0.78258-2.0347-2.0347-2.8173-1.0956-1.7217-1.0956-1.0956-0.62607-0.93909-0.93909-1.8782 0.15651-0.93909 1.5652-1.7217-0.46955-0.15652-1.2521h-0.62606l-0.93909-1.0956-0.46955-0.15652-0.78258-0.93909-0.46955-0.15652-1.0956 0.62606-1.0956 0.62606-0.78258-0.93909-0.78258-0.31303v-2.1912l-1.2521-0.15652-0.78258-0.31303-1.2521-0.31303-0.78258-0.46955-0.78258-0.46955v2.5043l0.15652 1.0956 1.0956 0.93909v0.93909z" fill="green" stroke-width=".28799px"/>
 <text x="47.054508" y="89.003441" fill="#000000" font-family="sans-serif" font-size="3.5279px" letter-spacing="0px" stroke-width=".26459" word-spacing="0px" style="line-height:1.25" xml:space="preserve"><tspan x="47.054508" y="89.003441" font-size="2.1167px" stroke-width=".26459">Jim Corbett National Park</tspan></text>
 <path d="m78.496 116.27-0.13131-2.321 1.4444-2.5653v-1.2216l-0.65653-1.3438-1.1817-0.6108-1.1817-0.85513-0.65653-0.85512 0.39392-1.3438 2.2322-0.73296h0.91915l0.39392 1.2216 1.707 0.36647 0.39392-1.3438 1.1817-0.36648 0.65654 1.2216h1.5757l-0.65654-0.85512 0.78785-1.2216 0.26262-1.8324 0.91915-0.85512h1.5757l1.4444 0.85512 1.1817-0.36648 1.8383 0.24431-0.52523-0.85512 1.9696-0.24431v-1.3438l1.0504-0.36648 2.8887 1.3438 0.65653-0.48864-0.1313-2.4432 1.5757 0.48865 1.4444-0.73296 1.1817-0.85512-0.26262-0.73297-0.65652-1.0995 1.313-1.8325 0.26262-1.466 0.78784-3.1761 1.8383-0.48864 0.78785-0.61081 2.1009 0.12216 2.2322-0.24432 1.707 1.2216 2.7574-1.2216 2.3636-0.48865 1.4444-0.12216v-0.61081l1.707-0.61081 1.8383-1.9546" fill="none" stroke="#000" stroke-width=".50113px"/>
 <path d="m154.47 101.45-4.2354 5.0296-9.7945 0.79416-2.3824-1.853h-1.853l-1.5884-0.79415-0.26475-2.1177-4.7649-0.79415-1.5884 1.3236h-2.9119v2.3824l-3.1766 0.26472 0.79417 3.1766-0.79417 1.853-2.9119 0.79416v3.1766l-2.3825 1.3235-3.1766 1.0589-3.7061 1.3236-2.9119 1.0589-1.853-2.1177h-3.9707l-3.7061 1.853-0.79415 2.3825-3.1766 1.3235-1.5883 2.6472-9.7945-2.3824-2.6472-2.6472-0.79417-4.2354-7.1473 7.1473-5.2943 8.2062-4.2354-2.6472-5.2943-3.1766-10.324-1.0589-1.853-1.853-1.5883 1.3235-3.9707-2.3825-4.7649 1.5883-4.5002-7.4121 0.79416-2.3825-7.6768-3.9707v-8.7357l-1.0589-0.26475 0.52943-3.1766-4.5001-2.9119-0.26474-2.6472-1.5883-2.6472 2.3824-3.1766-4.2354-4.7649-2.3825-4.5002-1.3235-4.5002 1.5883-5.0296 2.3825-4.2354-4.5002-6.3533-1.853-3.7061-0.26475-3.1766-6.8826-8.2063" fill="none" stroke="#000" stroke-width=".5px"/>
 <ellipse cx="117.07" cy="99.247" rx="1.4796" ry="1.5853"/>
 <rect x="172.82" y="151.76" width="4.6788" height="4.6788" fill="#008000" fill-rule="evenodd" stroke-width=".26459"/>
 <text x="178.75018" y="155.0417" fill="#000000" font-family="sans-serif" font-size="2.8223px" letter-spacing="0px" stroke-width=".26459" word-spacing="0px" style="line-height:1.25" xml:space="preserve"><tspan x="178.75018" y="155.0417"> Reserve forest and</tspan><tspan x="178.75018" y="159.45154">Wildlife Sanctuary</tspan></text>
</svg>
