<svg width="235.52mm" height="206.12mm" version="1.1" viewBox="0 0 235.51771 206.11963" xmlns="http://www.w3.org/2000/svg" xmlns:cc="http://creativecommons.org/ns#" xmlns:dc="http://purl.org/dc/elements/1.1/" xmlns:rdf="http://www.w3.org/1999/02/22-rdf-syntax-ns#">
 <g fill="none" stroke="#000">
  <g transform="matrix(.98515 0 0 .98515 29.232 -27.714)" stroke-width=".5" stroke="#fff" >
   <polygon fill="#e2b584" transform="matrix(1.0573,0,0,1.0573,-295.02,-155.87)" points="342.51 217.28 343.05 214.78 343.05 213.9 344.47 211.94 343.92 211.4 342.4 211.4 342.18 210.85 341.41 210.41 340.11 211.61 337.7 211.18 336.07 210.19 335.09 210.52 333.89 211.83 332.8 210.74 329.63 211.72 329.09 210.63 329.09 207.9 329.2 205.18 329.96 203.32 329.96 202.05 328.22 201.03 327.45 199.4 327.56 197.54 326.71 194.75 326.53 194.75 319.91 196.42 320.27 196.79 317.33 198.2 314.7 200.7 312.96 202.7 310.58 202.7 308.96 203.45 308.96 204.95 306.08 206.95 305.2 205.83 302.26 205.58 299.83 207.86 297.83 209.95 296.2 212.95 295.08 212.95 295.08 214.95 295.08 215.33 293.08 215.33 292.46 218.2 290.96 218.2 289.2 222.45 286.83 223.08 286.08 221.33 283.58 223.08 282.7 222.45 280.74 224.82 280.74 226.92 281.55 226.92 284.64 229.74 285.64 229.37 286.91 230.1 286.91 229.19 288.55 229.19 289.45 228.28 290.91 230.46 291.45 230.46 292.82 231.19 292.82 231.82 293.54 231.82 294 231.82 294 233.01 295 233.46 297.27 232.55 297.99 232.55 297.99 233.64 299.45 234.39 299.45 233.64 300.27 233.64 301.36 234.39 301.81 234.39 301.81 236.46 301.36 237.2 302.26 240.18 302.26 241.91 302.26 243.27 302.26 244.91 301.78 245.3 306.83 245.7 309 246.7 311.17 246.28 311.13 246.13 314.8 243.88 315.75 243.88 316.94 242.1 319.19 241.03 321.21 240.56 322.04 238.4 323.7 237 326.84 237.86 328.11 236.81 327.23 233.98 328 231.21 329.2 229.83 328.11 227.65 328.65 225.9 327.45 225.14 326.8 224.38 327.12 223.07 328.65 223.07 329.96 222.08 332.36 221.98 334.54 221.98 337.05 221.87 339.89 220.88 340.98 219.25"/>
   <polygon fill="#abacda"  transform="matrix(1.0573,0,0,1.0573,-295.02,-155.87)" points="396.5 278.92 394.87 279.9 393.45 280.23 394.54 278.59 393.89 278.27 392.58 279.03 392.58 277.94 391.38 277.07 390.55 276.47 389.76 276.97 388.93 276.02 387.98 276.02 387.98 276.97 387.03 277.8 387.03 275.67 387.51 274.24 387.03 273.18 385.38 273.18 384.43 275.49 385.14 277.8 384.43 277.8 382.41 275.49 383.48 274.95 383.48 274.12 382.41 274.12 381.7 275.49 380.51 275.49 378.97 275.49 378.97 276.97 378.97 279.34 374.46 281 371.5 281.6 370.43 281.6 369.72 282.43 368.18 282.9 367.47 283.95 367.47 286.12 367.47 287.53 366.4 287.53 365.21 289.19 363.43 289.78 363.43 291.56 364.38 292.51 364.38 293.81 363.43 294.41 361.53 295.83 361.53 297.02 360.47 298.32 360.47 299.51 359.28 299.51 357.98 299.51 357.38 298.79 355.13 298.56 354.54 299.51 353.23 301.28 351.69 301.88 351.66 301.76 351.08 304.25 348.49 305.95 340.83 312.45 339.58 314.45 339.58 316.2 343.63 315.45 344.47 317.7 345.37 320.95 348.49 320.2 350.83 321.45 353.83 321.95 357.08 324.95 359.08 324.95 360.08 328.2 362.83 329.45 364.69 329.45 363.33 331.95 364.69 333.45 364.69 335.45 362.33 336.7 363.33 338.2 361.83 338.2 361.83 339.45 362.58 341.2 364.69 341.7 366.33 342.7 364.69 343.2 363.58 344.45 360.33 343.2 358.33 344.45 355.58 346.2 353.33 346.2 351.33 346.95 351.08 349.2 349.58 349.2 347.33 351.45 347.33 353.45 344.47 352.45 340.58 351.95 338.58 351.7 336.58 351.7 338.25 355.04 338.96 356.45 341.46 356.45 345.37 354.83 347.08 356.2 348.2 355.7 350.2 354.7 351.7 355.58 354.08 354.7 355.08 355.2 356.7 354.83 358.83 354.08 359.7 353.45 359.7 352.2 361.33 352.2 361.58 354.2 361.96 356.33 363.58 357.95 365.33 357.83 368.82 359.63 368.2 360.83 369.58 362.08 372 360.33 372.7 360.58 375.08 359.08 376.58 358.95 379.33 358.95 380.96 360.08 382.33 359.08 382.58 357.39 383.9 358.14 386.2 356.91 388.84 356.17 389.98 355.72 390.83 356.12 390.16 357.04 389.5 358.12 388.33 358.12 387.75 360.29 388.41 361.37 389.08 362.45 390.33 363.62 391.41 363.7 392.08 364.79 391.75 366.12 392.5 366.79 393.83 367.79 404.75 367.95 407.83 369.87 409.41 369.2 410.09 369.72 412.33 371.45 412.54 369.67 412.83 367.2 412.83 364.95 415.59 361.7 415.59 362.95 418.43 361.95 418.43 359.45 421.07 357.2 422.08 354.95 422.08 351.95 422.08 347.95 425.08 343.7 426.58 341.7 427.58 337.7 428.96 337.7 430.08 336.2 433.33 333.95 435.83 333.95 435.83 331.2 434.08 331.2 433.83 329.2 433.83 326.95 435.83 326.95 435.83 323.95 434.08 322.7 434.08 320.45 434.08 317.95 431.33 315.45 428.58 315.45 427.33 315.45 427.33 312.95 425.58 311.7 425.58 309.45 423.58 309.45 423.58 307.37 422.08 305.95 421.22 304.49 420.83 305.04 419.16 306.7 417.33 306.7 416.66 305.04 414.83 307.37 413.5 306.2 413.5 305.04 411.5 305.04 409.66 305.04 408.33 306.2 405 300.7 405 298.04 406.5 296.04 405 295.04 405 292.54 401.33 292.54 399.66 290.37 400.66 286.87 401.74 284.18 401.74 283.28 400.65 282.41 399.89 281.98 400.21 280.45 398.58 280.67 397.92 279.58"/>
   <path fill="#a3b0a3" d="m78.427 162.69 1.3797-1.8809 0.63015-1.0033 2.3831 0.2502 0.62697 0.75271h2.6358v-1.2549l1.1249-1.3798v-1.2539l2.0067-1.5045 1.0034-0.62797v-1.3797l-1.0034-1.0023v-1.8809l1.8808-0.62693 1.2539-1.7561h1.1291v-3.7777l0.75172-1.1123 1.6303-0.50213 0.75172-0.8775h1.1249l3.138-0.6281 4.765-1.7551v-4.0715h2.8842l0.75165-1.4421h1.1292v0.87753l-1.1292 0.56456 2.1347 2.4444h0.75273l-0.75273-2.4444 1.0001-2.4444h1.7551l0.50538 1.128-0.50538 1.5045v2.2572l1.0034-0.87753v-1.0033h1.0033l0.87753 1.0033 0.83418-0.5339-0.39638-0.28792-0.11386-1.1534-1.1535-0.69146-1.0382-2.9995-1.6112-0.80773-1.2677-3.2289-9.9193 1.6144-2.7679-0.6925-2.4222-4.3822 1.0794-0.92294-0.85004-1.2688-2.4222 1.1535-0.6904-1.1535-1.9602 0.57619-0.57617-1.0382-1.0382-0.80777v-0.8077l2.1917-1.1535-0.69044-1.7297-1.5003 0.11524-1.7297 2.0764-1.6123-1.9601 1.2666-1.1536-0.80779-1.2686 1.0362-0.69146 1.1556-0.80777-2.1917 0.23013-0.46307-0.69247 2.3091-0.92307-0.46304-0.92291h-1.845l1.1545-1.6145-1.1545-0.57615-1.0351-0.46206v-0.69246l0.6904-0.46102-0.6904-1.6144-2.9984 0.34606-1.1535 0.92304 0.5762 1.3839 0.57624 0.46098-0.34607 1.2688-1.385 0.69142-1.2676-0.23047-0.80983-0.92298-1.6124-0.23047-1.4992 1.1534v2.6527l-1.6145-0.11525v1.0372l-2.1917 0.69247-0.80775 1.1535-1.385-0.57619-1.1556 1.7297-1.035-0.57619-1.3861 0.69146-1.7318-1.2688 0.5762-1.0382 0.5762-1.4992 0.3469-1.7297 3.2299-1.384-0.23138-1.0382-1.0351-0.34609v-1.4992l0.80775-1.4992 1.2687-1.4992-0.46304-1.4992-2.3069-1.384 0.46304-0.69139v-1.1535l-1.1556-0.92294-1.1535-0.23013-1.7308 0.92297v1.1535l-1.4992 0.23013-1.0382-0.46202v-1.7297l0.57621-0.92297 0.46307-1.052v-2.0616l-1.0383-0.69146-0.80775 1.7297-1.1535 0.46199v-1.4992h-1.9601l-0.5762 1.0382-1.1535-1.0382-1.1535 1.384-1.4992 1.7297-1.1545 0.92297v0.92304l-1.2676-0.57626-1.846-0.46202 0.5762-1.8597 0.73269-0.60581-3.3219-0.91349-1.7561 1.4823-0.87437 2.2795-2.1357 0.5022-2.382 1.1281-1.2539 1.8809h-1.0035l-3.8887 2.382 0.04647 0.15676 0.58042 1.975-1.0034 1.8809-1.8809 2.1314-3.2606 2.5459-2.382 1.8439-2.382 1.5045-1.7561 2.1315 0.63012 0.62689-0.12583 3.3854 2.1653 0.75275 0.96951-1.7561h1.2539l0.25062 1.1281h2.7584l0.75173 1.0033-1.0034 1.5045-2.382 0.62699-2.5988 2.1325v3.1348l-1.79 2.6326-0.87752 1.7562v4.6394l1.256 2.0067 0.12583 2.2403-1.3829 1.0192 1.5045 6.5213 2.2604-2.5079 2.382-1.7561 1.3797-1.8798 1.256 0.89547h4.5113l1.6303-0.77078 2.2573-1.5204 0.87752 0.89452h2.2573l1.755-1.6304 1.5045-1.3798 1.8809-0.62692 0.62697 1.6304 1.256-0.62806 1.255 0.87858v0.86061h1.256l1.2539 1.0192 0.75276 0.75282 1.0034 1.8809-1.0034 0.3752v1.0034l2.8853 1.755 3.009 6.5213 0.87859 0.12455 3.009 0.50223 1.0033-0.37516 1.0034 0.50116v4.2639l0.75172 1.6302 2.0066 0.62699v0.87753h2.3821v-1.1281h1.0002s1.4051-0.93671 1.7022-0.94519c-0.01452-0.3419 0.05302-1.3121 0.05302-1.3121l1.6303-1.1281 1.1281-0.12553 0.58894 2.0046 0.0405 0.1267z" stroke-width=".5"/>
   <polygon fill="#f6d3e9" transform="matrix(1.0573,0,0,1.0573,-295.02,-155.87)" points="450.5 187.2 449.16 189.54 447.83 188.7 446.5 189.87 445.83 188.37 445.83 186.87 444.5 185.2 442.66 185.2 441.16 186.87 440 186.87 438.66 186.87 437.83 185.2 435.5 186.54 437.16 187.37 435.66 188.04 434.16 189.87 432.83 189.87 431.83 188.7 429.5 189.54 427.16 189.87 426 188.37 424.16 189.04 422.16 188.37 420.83 188.54 419.83 186.87 417.66 189.54 416.66 189.54 415.59 188.88 415.59 189.31 413.76 189.31 412.13 189.31 410.7 190.93 412.53 192.15 414.57 192.15 415.59 194.75 415.79 196.79 414.57 196.79 412.94 194.75 410.7 193.37 409.08 192.96 408.27 193.58 408.27 195.81 407.05 196.79 407.05 194.75 407.05 193.37 405.02 194.75 402.78 194.75 404.81 193.17 406.84 191.95 408.47 189.92 406.03 189.51 402.78 191.74 401.36 190.73 399.32 192.96 397.49 194.75 396.48 192.76 394.65 191.74 392.06 191.74 390.78 192.56 390.78 194.75 387.74 196.79 387.74 198.44 387.74 199.47 392.06 198.44 393.22 196.79 396.07 196.79 394.65 198.44 393.02 199.47 394.85 199.47 396.07 200.89 398.71 198.44 399.32 199.47 397.49 202.05 399.53 202.05 397.6 203.43 395.96 203.43 394.11 204.52 396.83 204.52 398.03 204.52 396.62 205.4 395.2 205.94 394.32 206.81 392.91 206.81 391.27 206.81 392.06 205.07 390.94 204.3 389.63 205.61 388.22 205.94 386.8 205.72 385.38 206.81 384.07 206.81 383.09 207.58 381.67 209.1 380.69 208.23 378.4 209.1 377.09 208.34 376.54 209.1 375.56 209.65 374.25 210.52 375.12 211.83 376.11 211.07 376.43 210.19 377.41 210.85 378.4 210.3 379.27 211.18 378.4 211.83 377.85 213.36 377.09 214.01 378.07 214.01 378.94 213.58 379.92 214.01 380.91 214.78 381.02 216.08 380.8 217.18 379.16 217.83 378.62 218.7 377.74 217.94 375.99 219.14 375.78 220.67 375.34 221.65 374.25 221.65 373.27 220.67 372 220.45 372 219.36 371.09 219.36 370.43 219.68 370.43 220.56 370.43 221.65 369.56 222.74 367.92 223.5 367.92 224.48 367.92 226.23 367.92 227.76 368.8 228.19 368.36 229.28 367.49 229.83 365.96 228.85 365.31 229.28 365.85 230.81 366.83 230.81 367.92 230.81 369.56 230.81 370.76 230.81 372 231.25 373.38 230.27 375.12 230.59 377.52 230.81 378.72 231.25 380.14 231.25 381.02 232.34 382.22 233.76 381.56 235.83 380.36 236.48 379.16 237.03 379.38 238.44 381.02 237.9 382.22 238.44 383.2 239.21 384.51 239.21 385.49 239.98 386.8 239.98 387.67 241.39 389.31 241.39 390.18 242.05 390.28 243.68 391.27 243.68 392.06 244.34 393.89 244.34 395.52 245.43 397.49 244.78 395.96 249.9 397.49 249.9 399.12 249.9 399.45 251.43 400.76 252.08 401.52 253.72 402.5 254.59 402.62 255.79 402.94 257.54 402.94 258.85 404.14 258.85 404.47 260.48 405.56 263.1 405.56 264.96 406.54 265.61 407.74 267.79 409.16 268.99 409.7 270.41 410.91 270.41 410.91 272.59 411.67 273.36 411.45 275.43 412.11 277.5 412.11 278.81 409.92 280.67 410.14 282.08 409.92 285.03 407.74 285.03 405.45 284.38 404.47 286.12 403.16 285.03 402.28 286.12 401.74 286.12 401.74 284.18 400.66 286.87 399.66 290.37 401.33 292.54 405 292.54 405 295.04 406.5 296.04 405 298.04 405 300.7 408.33 306.2 409.66 305.04 411.5 305.04 413.5 305.04 413.5 306.2 414.83 307.37 416.66 305.04 417.33 306.7 419.16 306.7 420.83 305.04 421.22 304.49 422 303.37 423.66 304.25 426 302.29 427.66 299.7 428.83 298.04 430.33 296.54 431.83 295.54 434 295.87 434.16 294.54 435.83 294.54 437.66 293.2 438.83 291.87 440 290.37 440 289.2 442.16 288.7 443.16 286.87 442.66 284.54 444.33 283.7 445.66 281.7 448.16 279.87 450.66 278.54 450.83 276.2 452.66 274.37 455.33 274.37 456.66 272.7 458.5 272.04 460.66 271.37 459.33 270.04 457.83 266.54 457.33 264.37 459 264.2 460.16 262.7 462.83 262.2 464 261.54 464 260.2 465.5 258.87 465.58 257.93 465.66 256.87 466.78 255.2 467.83 254.2 466.78 253.37 467.66 252.04 466.78 250.37 466.78 248.54 467.5 246.7 469 245.54 468.66 242.54 470 240.2 470.33 237.54 470.33 234.04 471.83 231.37 472 228.7 473.66 228.87 474.16 227.7 473.33 226.87 473.33 225.7 474.83 223.87 475.16 221.87 475 219.2 476.83 217.2 476.83 214.87 476.83 213.04 476.83 211.04 475.33 209.7 473 208.04 470.66 206.54 470.66 208.54 468.16 209.7 468.16 211.2 466.78 210.87 465.16 209.87 466.78 209.04 466.78 207.87 466.78 206.04 466.78 204.37 466.78 202.05 465.33 200.04 465.33 198.44 464 196.54 463.16 194.75 461.33 193.04 462.16 189.87 461.5 187.54 459.66 185.2 458.16 185.2 455.83 186.54 452.83 186.54"/>
   <polygon fill="#e7de69" transform="matrix(1.0573,0,0,1.0573,-295.02,-155.87)" points="343.7 242.38 343.27 243.03 345.45 244.34 345.89 245.76 344.69 247.18 343.92 248.59 343.92 250.01 344.91 250.34 345.12 251.32 342.07 252.63 341.74 254.27 341.2 255.68 340.65 256.67 342.29 257.87 343.6 257.21 344.58 257.76 345.67 256.12 346.98 256.67 347.74 255.58 349.82 254.92 349.82 253.94 351.34 254.05 351.34 251.54 352.76 250.45 354.28 250.67 355.05 251.54 356.25 251.76 357.56 251.1 357.89 249.9 357.34 249.47 356.8 248.16 357.89 247.28 360.72 246.96 361.38 248.48 360.72 248.92 360.72 249.58 361.7 250.01 362.8 250.56 361.7 252.08 363.45 252.08 363.89 252.96 361.7 253.83 362.14 254.48 364.22 254.27 363.12 255.03 362.14 255.68 362.91 256.88 361.7 257.98 363.23 259.83 364.87 257.87 366.28 257.76 366.94 259.39 364.87 260.48 364.87 261.25 365.85 262.01 366.4 262.99 368.25 262.45 368.91 263.54 371.2 262.45 372 263.65 370.98 264.52 373.27 268.67 375.89 269.32 385.27 267.79 386.47 270.85 387.99 271.61 388.98 274.45 390.07 275.1 390.18 276.19 390.55 276.47 391.38 277.07 392.58 277.94 392.58 279.03 393.89 278.27 394.54 278.59 393.45 280.23 394.87 279.9 396.5 278.92 397.92 279.58 398.58 280.67 400.21 280.45 399.89 281.98 400.65 282.41 401.74 283.28 401.74 284.18 401.74 286.12 402.28 286.12 403.16 285.03 404.47 286.12 405.45 284.38 407.74 285.03 409.92 285.03 410.14 282.08 409.92 280.67 412.11 278.81 412.11 277.5 411.45 275.43 411.67 273.36 410.91 272.59 410.91 270.41 409.7 270.41 409.16 268.99 407.74 267.79 406.54 265.61 405.56 264.96 405.56 263.1 404.47 260.48 404.14 258.85 402.94 258.85 402.94 257.54 402.62 255.79 402.5 254.59 401.52 253.72 400.76 252.08 399.45 251.43 399.12 249.9 397.49 249.9 395.96 249.9 397.49 244.78 395.52 245.43 393.89 244.34 392.06 244.34 391.27 243.68 390.28 243.68 390.18 242.05 389.31 241.39 387.67 241.39 386.8 239.98 385.49 239.98 384.51 239.21 383.2 239.21 382.22 238.44 381.02 237.9 379.38 238.44 379.16 237.03 380.36 236.48 381.56 235.83 382.22 233.76 381.02 232.34 380.14 231.25 378.72 231.25 377.52 230.81 375.12 230.59 373.38 230.27 372 231.25 370.76 230.81 369.56 230.81 367.92 230.81 366.83 230.81 365.85 230.81 365.31 229.28 365.96 228.85 367.49 229.83 368.36 229.28 368.8 228.19 367.92 227.76 367.92 226.23 367.92 224.48 367.92 223.5 369.56 222.74 370.43 221.65 370.43 220.56 370.43 219.68 371.09 219.36 372 219.36 372 220.45 373.27 220.67 374.25 221.65 375.34 221.65 375.78 220.67 375.99 219.14 377.74 217.94 378.62 218.7 379.16 217.83 380.8 217.18 381.02 216.08 380.91 214.78 379.92 214.01 378.94 213.58 378.07 214.01 377.09 214.01 377.85 213.36 378.4 211.83 379.27 211.18 378.4 210.3 377.41 210.85 376.43 210.19 376.11 211.07 375.12 211.83 374.25 210.52 375.56 209.65 376.54 209.1 377.09 208.34 378.4 209.1 380.69 208.23 381.67 209.1 383.09 207.58 384.07 206.81 385.38 206.81 386.8 205.72 388.22 205.94 389.63 205.61 390.94 204.3 392.06 205.07 391.27 206.81 392.91 206.81 394.32 206.81 395.2 205.94 396.62 205.4 398.03 204.52 396.83 204.52 394.11 204.52 395.96 203.43 397.6 203.43 399.53 202.05 397.49 202.05 399.32 199.47 398.71 198.44 396.07 200.89 394.85 199.47 393.02 199.47 394.65 198.44 396.07 196.79 393.22 196.79 392.06 198.44 387.74 199.47 387.74 198.44 387.74 196.79 390.78 194.75 390.78 192.56 392.06 191.74 394.65 191.74 396.48 192.76 397.49 194.75 399.32 192.96 401.36 190.73 402.78 191.74 406.03 189.51 408.47 189.92 406.84 191.95 404.81 193.17 402.78 194.75 405.02 194.75 407.05 193.37 407.05 194.75 407.05 196.79 408.27 195.81 408.27 193.58 409.08 192.96 410.7 193.37 412.94 194.75 414.57 196.79 415.79 196.79 415.59 194.75 414.57 192.15 412.53 192.15 410.7 190.93 412.13 189.31 413.76 189.31 415.59 189.31 415.59 188.88 415.59 184.82 415.59 182.39 415.59 180.97 417.41 182.39 418.43 180.77 417.41 178.58 418.43 176.3 417.13 174.28 415.9 174.28 414.57 176.54 412.36 176.54 411.26 176.54 409.7 179.42 409.7 182.29 403.74 184.82 400.64 187.38 396.88 188.93 394.22 186.05 391.12 186.28 386.92 186.28 386.92 184.82 384.27 183.84 381.39 183.62 379.84 184.82 378.3 186.94 376.08 186.05 373.65 187.82 370.77 187.82 367.9 188.93 365.68 191.36 363.25 190.26 363.25 192.91 361.26 194.75 361.26 195.79 359.71 195.79 358.61 195.79 358.61 193.35 356.62 193.35 355.28 195.79 353.52 195.79 351.53 195.79 348.65 195.79 344.45 195.79 344.45 197.34 341.79 196.23 339.58 196.23 336.04 196.01 333.39 198.44 331.62 197.34 331.62 194.75 326.71 194.75 327.56 197.54 327.45 199.4 328.22 201.03 329.96 202.05 329.96 203.32 329.2 205.18 329.09 207.9 329.09 210.63 329.63 211.72 332.8 210.74 333.89 211.83 335.09 210.52 336.07 210.19 337.7 211.18 340.11 211.61 341.41 210.41 342.18 210.85 342.4 211.4 343.92 211.4 344.47 211.94 343.05 213.9 343.05 214.78 342.51 217.28 340.98 219.25 339.89 220.88 337.05 221.87 334.54 221.98 332.36 221.98 329.96 222.08 328.65 223.07 327.12 223.07 326.8 224.38 327.45 225.14 328.65 225.9 328.11 227.65 329.2 229.83 328 231.21 327.23 233.98 328.11 236.81 326.84 237.86 326.14 238.44 325.6 240.19 327.34 240.63 328.54 241.18 328.54 240.3 329.63 239.43 331.05 237.79 332.14 236.48 333.23 237.47 333.78 236.48 335.63 236.48 335.63 237.9 336.72 237.47 337.49 235.83 338.47 236.48 338.47 238.44 338.03 239.43 337.49 240.3 337.49 241.94 338.47 242.38 339.89 242.16 339.89 241.07 341.52 240.19 342.62 240.41 343.7 241.28"/>
  </g>
  <g>
   <path d="m2.0568 66.513 0.92711-4.6356h10.198l1.8542-2.4723 7.1079-4.0175h2.7813l2.056 1.5516v1.5094l2.5157 0.25158 1.5094 1.2579-2.5157 3.0189 0.50313 2.7673 5.5346 3.2704 6.5409 0.75472 9.5598-0.50315 8.3019-1.5094 5.0315-4.2767 19.12-5.7862 6.0378-2.5157 10.063-7.044 7.5472-6.5409 1.0063-1.0063 6.0377 12.579-0.75473 7.5472 4.0252 5.283 11.321 3.522-0.50316 2.2642 3.0189 4.2767 8.3019-0.25157v-1.761l2.2642 0.50315 0.25157-2.7673 5.0314-1.761 11.069 2.5157 6.5409 5.0315 5.5346 5.0315 6.2893 1.5094 4.5283 0.50315h2.2642l2.0126-3.2704 4.5283 4.5283 2.0126 4.5283v5.283l-0.50313 2.5157 0.25156 2.0126-1.2578 2.5157-0.50316 1.761-2.0126 0.25157-3.7736 4.2767-4.0252 2.7673-5.7862 0.75472h-10.566l-5.5346 1.0063-0.7547 0.25157-0.75472 5.283-2.2642 6.2893-0.75472 2.5157-0.25157 3.0189-1.0063 2.2642v5.0314l1.0063 1.0063v5.5346l3.0189 2.2642 0.50316 6.5409-2.2642 3.522 0.25157 2.5157 2.7673 2.5157v2.0126l-1.2579 4.2768 2.5157 4.0252 3.2704 1.2579 0.50314 1.761-3.7736 6.0378-2.7673 3.2704-4.7799-0.50316-2.0126 0.75473-3.522 3.2705" stroke-width=".5px"/>
   <path d="m58.964 67.759 0.9729-5.1679 1.5566-0.67408 3.5024-4.7185 5.8374-3.1457 2.9187-0.44939 3.1133-1.1234 7.394-1.1234 2.1404 4.7185" stroke-width=".5px"/>
   <path d="m130.88 76.059-2.6663 4.7994-3.4662-0.66659-2.7997-0.39996-1.4665 1.8664-0.7999 0.66659 0.13332 2.533-1.5998 1.0665-1.4665 0.53327-1.1999-0.26664-0.92938 1.6717-1.0445 0.58026-0.58027 1.3926-0.92843 0.58026-1.9729 1.1605" stroke-width=".5px"/>
   <path d="m157.04 113.79-4.4679-3.1398-4.2373-4.0778 0.88276-2.9451-3.3545-1.1327-1.9421-1.8124-4.4139-3.8513-2.8249-4.0778-1.0593-3.3982-1.2359-2.0389-3.5107-11.262" stroke-width=".5px"/>
   <path d="m119.82 84.858 3.0462 4.712 1.4256 4.2637 3.168-0.23694 2.376-1.1844 1.584 3.79 2.2176-0.71064 0.9504 1.4213 1.7424-0.47375 0.31679 3.5531 1.2672 0.9475 0.15844 4.7375-1.584 2.1319-0.6336 4.9744-0.47519 5.2112 1.2672 2.1319-0.6336 3.79 1.2672 5.2112 1.1088 2.1319 2.376 1.4213 0.79198 5.2112-1.7424 6.3956 1.2755 2.6624h0.77254l0.25751 5.3913 1.2876-1.3478 0.38627 2.6956-1.9313 3.4659-0.12882 4.236 1.8026 5.0062 0.51504 4.6211 1.8026 6.5466-1.5451 2.5031-0.2575 6.5466 1.4248 1.6454" stroke-width=".5px"/>
  </g>
 </g>
 <g fill-rule="evenodd" stroke-width=".28804">
  <ellipse cx="2.3754" cy="66.8" rx="2.1502" ry="2.2499"/>
  <ellipse cx="68.621" cy="55.011" rx="2.1502" ry="2.2499"/>
  <ellipse cx="107.68" cy="40.612" rx="2.1502" ry="2.2499"/>
  <ellipse cx="109.75" cy="90.609" rx="2.1502" ry="2.2499"/>
 </g>
 <path d="m72.093 60.934 7.209 4.1487 2.3103-2.078 1.1552-0.89058 2.0215-2.3749 4.3319-0.29686 3.3491 2.8912-0.80888 2.7716-0.53926 1.1086v4.9889h2.4267l5.6622 5.2661 2.4267 3.0488h5.9318l3.2356-0.55432 3.5052-0.27717 2.157 2.2173 3.3492 3.9547" fill="none" stroke="#000" stroke-width=".5px"/>
 <g fill="#000000" font-family="sans-serif" font-size="3.5278px" letter-spacing="0px" stroke-width=".26459" word-spacing="0px">
  <text x="-0.31787294" y="74.353477" style="line-height:1.25" xml:space="preserve"><tspan x="-0.31787294" y="74.353477" font-size="5.6445px" stroke-width=".26459">Guwahati</tspan></text>
  <text x="51.049213" y="48.98315" style="line-height:1.25" xml:space="preserve"><tspan x="51.049213" y="48.98315" font-size="5.6445px" stroke-width=".26459">Morigaon</tspan></text>
  <text x="99.597374" y="35.828167" style="line-height:1.25" xml:space="preserve"><tspan x="99.597374" y="35.828167" font-size="5.6445px" stroke-width=".26459">Nagaon</tspan></text>
  <text x="98.970947" y="99.097374" style="line-height:1.25" xml:space="preserve"><tspan x="98.970947" y="99.097374" font-size="5.6445px" stroke-width=".26459">Hamren</tspan></text>
 </g>
 <ellipse cx="189.8" cy="103.48" rx="2.1502" ry="2.2499" fill-rule="evenodd" stroke-width=".28804"/>
 <text x="171.32336" y="100.35023" fill="#000000" font-family="sans-serif" font-size="3.5278px" letter-spacing="0px" stroke-width=".26459" word-spacing="0px" style="line-height:1.25" xml:space="preserve"><tspan x="171.32336" y="100.35023" font-size="5.6445px" stroke-width=".26459">Diphu</tspan></text>
 <ellipse cx="145.33" cy="187.42" rx="2.1502" ry="2.2499" fill-rule="evenodd" stroke-width=".28804"/>
 <text x="119.32984" y="184.918" fill="#000000" font-family="sans-serif" font-size="3.5278px" letter-spacing="0px" stroke-width=".26459" word-spacing="0px" style="line-height:1.25" xml:space="preserve"><tspan x="119.32984" y="184.918" font-size="5.6445px" stroke-width=".26459">Halflong</tspan></text>
</svg>
