<!-- Created with Inkscape (http://www.inkscape.org/) -->
<svg width="206.48mm" height="196.3mm" version="1.1" viewBox="0 0 206.48832 196.29244" xmlns="http://www.w3.org/2000/svg" xmlns:cc="http://creativecommons.org/ns#" xmlns:dc="http://purl.org/dc/elements/1.1/" xmlns:rdf="http://www.w3.org/1999/02/22-rdf-syntax-ns#">
 <metadata>
  <rdf:RDF>
   <cc:Work rdf:about="">
    <dc:format>image/svg+xml</dc:format>
    <dc:type rdf:resource="http://purl.org/dc/dcmitype/StillImage"/>
    <dc:title/>
   </cc:Work>
  </rdf:RDF>
 </metadata>
 <g transform="translate(-2.2885 -42.745)">
  <g stroke="#fff" stroke-width=".5">
   <path d="m63.625 201.8 0.56383-1.4078-0.67487-1.2148v-1.8896l-1.0798-1.7546-2.0246-1.2148-0.26996-1.2148-0.80986-0.40491 0.13498-1.3498 0.53991-0.94486h-1.3498l-2.2946-0.9448-1.8896-0.80985-0.94484-0.53989-0.80985-0.94486-0.80986-0.135 0.80986-2.0246v-0.80986l-0.94483 0.67487-0.53991 1.6197-1.2148-0.40494-1.0798-1.6197v-2.0246l-0.94482-0.40491-1.0798-0.53992-0.26994-0.40493-1.2148-0.26994-0.13497-1.7546-2.2946-1.2148 0.26996-2.2946-1.6197-2.0246-2.1596-2.4296-0.94482-2.9695-1.0798-2.5646-1.0798-2.0246-1.3498-1.2148-0.80986-1.0798-0.80986-0.26998-0.13497-1.3497-0.40493-0.67487h-0.94485l-0.67488-0.13501 0.0026 0.45541-1.3394 1.5625-0.55807 2.3439-1.451 2.009-1.451 1.6742-0.66969 2.009-1.6742 1.8974-1.0045 2.009-1.0045-0.44645-1.2277-1.0045-0.7813 0.44644-0.55807 1.3394-1.0045 2.009-0.55806 1.2278 0.44645 0.8929 1.0045 1.2278-0.7813 0.7813-1.6742 0.8929-1.1161 1.5625 0.44645 1.6742 0.66969 1.5625-1.3394 1.0045-0.55808 1.0045 0.55808 0.89288 0.44645 1.6742-1.3394 1.1161-1.6742 1.6742 0.33485 1.6742 1.1161 0.89291h1.2277l0.33485 1.451 0.44646 0.8929 0.33484 1.1161 0.11161 0.66969 1.2277 1.451 0.55807 1.0045v1.2278l-0.55807 1.0045 0.66969 1.5627 0.11161 1.2277-1.1161 1.451 0.7813 0.55809h1.1161l0.7813 0.44644 0.7813 0.55807-0.22324 1.2278 0.55806 1.0045 1.451 0.66969h1.3394l0.66969-1.0045 1.451-0.55806 1.0045-1.1161 1.0045-0.33485 1.3394 0.78128 0.89291-0.66967 0.44645-1.1161 0.66967-0.11156h1.3394l0.7813 1.0046-1.0045 0.7813 0.89291 0.55806 0.89291 1.0045 1.1161 0.22323-0.22322 1.0045-0.22324 1.3394 0.55808 1.0045 0.33484 2.009-0.89291 0.55808-1.451 0.11156-0.33485 1.3394 0.55807 1.2277 1.2277-0.11155 1.5626 0.22323-0.44646 1.2278 0.11161 1.5627 0.55807 0.66969 0.55808-0.44646 1.3394-0.44648h1.1161l1.0045 0.44648v-1.3394l0.22324-1.0045v-1.0045l0.44646-0.8929 1.2277-0.66969 1.5626 0.44644 0.44646-1.2277v-1.5627l1.0045-0.11155 0.89291-0.55806 0.11161-1.1161 1.2278-0.11155 0.7813-1.3394 0.44646-1.451 0.66967-0.33483 1.451-0.11155 1.3394-0.89291 1.2277-2.009 1.0045-1.0045h1.3394l0.55807 1.0045 0.55808-0.55806 1.3394-1.3394 1.5626-1.1161 1.3394-1.6742 1.5627-1.7859z" fill="#e2b584"/>
   <path d="m31.258 159.27 0.44645-1.1161-1.0045-0.8929-1.1161-0.66969-1.2278-0.66968-0.66967-0.22325-1.2277 0.33486-1.7858-0.89291-1.5626-0.78129-1.0045-0.55807-1.5627-0.78131-1.3394-0.78127-1.0045-1.0046-1.2278-0.44644-2.009-1.3394-1.1161-0.66967-1.2277-0.66967-0.33485-1.3394-1.0045-1.3394-0.55807-1.2278-1.2278-0.33486-1.3394-0.89289-0.7813-0.44646h-2.6788l-1.7858-0.11155-0.33485-1.1161 1.2278-1.1162 2.6788-0.55805 2.1207-0.89293 3.1252-0.55806 1.6742-1.6742 2.009-1.2278 2.1207-0.7813 2.4554-0.66967 1.8974-2.1207 0.55807-1.6742v-1.6742l-0.44646-0.6697-0.89291 0.22322-1.0045-0.11156-2.009-1.0045-1.1161-1.1161-0.8929-1.2278v-0.89292l1.7858 0.33484 0.89291 0.44647-0.11161-0.89292 0.7813-0.44644 0.7813 0.22321 0.11161-1.3394-0.33484-1.7858 0.66969-0.66969-1.0045-0.7813-1.8974-0.55805-1.1161-1.0045-0.44645-1.0045 0.55806-1.451-0.33485-1.5626-1.2277-0.78128-1.3394-0.78133-1.1161-0.55806-0.11161-1.7858 1.6742-1.3394 0.66969-2.009 1.3394-2.009 0.89291-0.55805-0.11161-1.3394-0.33485-1.2277 0.44646-1.5626 0.66969-0.78131 1.2278 0.44646 1.0045 1.451h1.0045l-0.22324-2.009 0.22324-1.451 0.44646-1.1161v-0.7813h-0.89292l-0.19702-0.03272 0.40493-0.94482 0.94484-0.53991h1.8896l1.2148-1.4847 1.0798 0.53989 0.94482 0.135 1.0798-0.67489 1.0798 0.135 0.67489-1.2148 1.2148-0.67489 0.40493 0.26996 0.67488-0.40493 1.6197-0.26996 1.0798 1.3498 1.3498 0.80986 0.80986 1.4847 1.2148 2.1596-1.7546 0.67486-1.4847 0.26997-0.13498 1.8896 0.53991 2.1596 0.40493 2.2946 2.0246 1.7546 1.2148 1.3498v1.4847l0.53991 1.2148h0.80986l0.80986 0.80985 0.67488 1.2148 0.67487 1.3498 0.80986 0.40491-0.26996 0.67489 0.40493 0.67489-0.26995 0.80985-0.53991 1.6196 0.13497 2.0246-1.2148 0.94486-1.3498 0.67488-0.53991 1.4847-0.53991-0.5399-1.6197 0.13499v1.3498l0.67488 2.5645-0.13498 1.7547-0.80986 1.0798-0.40493 1.4848-1.3498 0.67487-0.26995 1.6197 0.67488 1.4847-0.67488 0.94485-1.0798-0.40495-1.7547-0.13499-0.26995 0.94483 0.53991 1.2148 2.0246 1.0798 0.26995 0.94484 1.4847 0.94484 0.67489-0.67489 1.3497-0.26995 1.3498 0.53989 0.94482 0.40495 1.8896-0.40495 1.8896 0.94485 2.1596 1.0798 1.8896 0.67489 3.3744 1.0798h2.4296l1.8896 0.40491v1.2148l-1.6197 0.80985-1.6197 1.7547-1.8896 1.7546-2.0246 0.6749-0.40493 1.4846-0.13498 2.0246 1.4848 2.2946 1.8896 0.80986 1.6197-0.40494 0.94484 0.40494 1.6197 0.40493 1.8896 0.67487 1.0798 0.94486 1.0798 0.94481 0.94484 0.67486 0.26995 1.3498-1.8896 0.67489-0.94482 1.3498-1.3498 1.2148-0.53991 1.4847 1.2148 1.4848 0.40493 1.2148-0.26995 1.6196 1.0798 0.67488 1.3498 0.67489 1.8896 0.80985-0.67487 0.94483-0.5399 0.94483-0.26996 2.0246-0.53989 0.80988-1.2148 1.3497-1.6197 1.2148 0.26996 1.3497-1.2148 0.13501-0.53991 1.2148 0.53991 1.8896-1.4847 0.94482-1.2148 2.0246-1.0798 1.0798-0.80986-0.13499 0.80986-2.0246v-0.80986l-0.94483 0.67489-0.53991 1.6197-1.2148-0.40496-1.0798-1.6196v-2.0246l-0.94482-0.40493-1.0798-0.5399-0.26994-0.40492-1.2148-0.26994-0.13497-1.7547-2.2946-1.2148 0.26996-2.2946-1.6197-2.0246-2.1596-2.4296-0.94482-2.9695-1.0798-2.5645-1.0798-2.0246-1.3498-1.2148-0.80986-1.0798-0.80986-0.26995-0.13497-1.3498-0.40493-0.67487h-0.94482l-0.67488-0.13514" fill="#a3b0a3"/>
   <path d="m150.17 81.755-1.3498 0.94483-0.94483 1.0798h-2.5646l-0.5399 1.4847-0.53992 2.0246-0.13499 2.5646-1.0798 0.67487-2.2946 0.67488-1.2148 1.0798 0.94484 0.80984 0.67488 1.0798 0.135 1.7547-0.53991 2.1596-0.80986 1.3498-0.53989 1.3497-1.2148 1.6197 0.40495 1.2148 1.7546 0.80987 2.0246 1.3498 1.2148 0.94482 0.67488 1.6197-1.0798 0.94483 0.26994 0.94484-0.80985 0.94483-1.4847 0.80983-1.6197-0.53989-2.1596-0.80986-1.8896 1.0798-1.0798 0.40491-1.4847-0.80985-1.2148 0.67486-1.8896-0.67486-2.1596-1.0798-1.8896-1.4848-1.4847-1.2148-2.8345-1.0798-0.67488-1.3498-0.26995-1.6197-0.94484-1.3498-1.6196-1.6196-1.2148-1.6197-2.6995-0.135s-0.94485 1.7547-1.6197 1.7547-0.67487-1.0798-0.67487-1.0798l-2.1596-0.40491-1.2148 0.9448v1.6197l-0.80986 1.0798-0.94483 1.2148 0.94483 1.4846 0.67487 2.0246 0.40494 1.8896 0.135 2.1596-1.7546 0.67488-0.80986 1.6197-2.4296 0.40492-2.2946 0.94485-1.2148 0.5399-2.0246-1.2148-1.3498 0.26998-1.8896 0.94483-1.7547-0.26996-1.0798 0.26996-1.2148 1.4847-2.0246 0.26995-2.0246 0.135-0.80986 0.94481 0.13498 3.2395-0.40493 2.4296-1.0798 2.0246-0.94482 2.1596-1.0798 1.6196-0.26995 1.2148-0.40493 2.6995-0.67488 1.3498-2.4296 0.40496-1.2148 0.13499-1.8896 0.67487-1.2148 1.8896-0.80986 0.26994h-1.2148l-1.8896-0.13499-1.2148-0.94481-1.2148-2.1596-1.0798-1.0798-0.94484-1.3498-1.3498-1.3498-0.67487-2.1596-1.2148-0.40492-1.7547 1.0798h-1.7546l0.53991-1.4847 1.3498-0.80986 0.26995-1.2148-1.6197-0.67488-0.67487-1.7546-1.3498-0.40494-0.80985 1.8896-1.6197 1.6196-2.0246 1.0798-2.0246 0.13499-1.3497-1.2148v-1.3498l-0.80986-1.2148-0.53991-1.3497-1.0798 0.13499-1.3497 0.26995-1.7546-0.26995-1.0798-0.53989-0.26995 0.135-1.3497 0.94484-0.94482 1.3498-0.94484 1.4848-0.94484 0.67487-1.4847-0.53989 0.40493-0.40493 0.13498-1.7547-0.67487-2.5645v-1.3498l1.6197-0.13499 0.53991 0.53989 0.53991-1.4847 1.3498-0.67489 1.2148-0.94483-0.13497-2.0246 0.53991-1.6196 0.26994-0.80987-0.40493-0.67487 0.26996-0.67488-0.80986-0.40493-0.67488-1.3498-0.67487-1.2148-0.80986-0.80986h-0.80988l-0.53991-1.2148v-1.4848l-1.2148-1.3497-2.0246-1.7547-0.40493-2.2946-0.53991-2.1596 0.13498-1.8896 1.4847-0.26996 1.7546-0.67489-1.2148-2.1596-0.80986-1.4848-1.3498-0.80984-1.0798-1.3498-1.6197 0.26995-0.67488 0.40494-0.40493-0.26998-1.2148 0.67489-0.67489 1.2148-1.0798-0.135-1.0798 0.67489-0.94482-0.135-1.0798-0.53991-1.2148 1.4848h-1.8896l-0.94484 0.53989-0.40493 0.94483-0.91912 0.25604-0.89291-1.3394-0.66968-1.6742-0.11161-0.78131 1.3394-1.5626 1.1161-0.44645 1.7858 0.55807 0.66969 1.1161 1.1161-0.55808 0.66969-1.451-0.66969-1.0045 0.7813-1.3394 0.22324-1.451-0.89291-1.6742-0.44646-1.451v-0.55806h1.0045l0.89291-1.0045 1.7858-1.5627 0.22322-1.8974 1.5626-1.1161 0.89291-1.0045 0.55806-1.8974 0.7813-0.55807 1.451-0.11153 2.009-1.0045 1.451-0.33485 1.0045 0.55806 1.3394 0.11153 1.451 0.55806 0.55806 0.44648 0.89291-2.009 2.009-1.3394 1.7858-0.11153 1.8974 0.22324 1.1161-1.1161 1.0045-1.1161 1.3394-0.22324 0.55807-1.3394 2.1207-0.55808 1.3394 1.0045 1.1161-0.55807 0.11161-0.66968h1.3394l0.89291 0.11153 0.89291-1.1161 1.2277-1.2278 0.66969-0.44645 1.1161 0.33484 1.0045 0.22322 0.11161-1.5626 1.1161-0.44645h2.009l2.2322-0.33484 1.6742 0.89291 0.89291 1.6742 0.66969 1.2277h1.2277l0.66967-0.55806 1.3394 0.55806 1.451 1.451 1.1161 1.5626 0.89291 1.6742 2.3439-0.11153 2.2322-0.33485 1.451-0.66969 1.1161-1.7858 2.5671-0.66969 1.8974 1.2278 1.2278 0.44645 0.78128 1.5626 1.5627 0.55807 0.55806-0.89291 1.6742 0.78128 2.1207-0.11153 2.1207 0.33484 2.009 0.22324 1.3394-0.66969 1.2278-0.55807 0.33483 1.0045v1.0045l1.0045 1.5626 0.22324 1.0045 0.44644 1.3393 1.451 1.6742h1.5627l0.8929 1.7858 1.5626 0.22322h1.2277l0.55808-1.0045 1.5626 0.44646 1.2277 0.66967 1.3394-0.66967 1.6742-0.55809h0.78129l0.22322-1.6742-0.33483-0.89292-1.0045-0.55806 0.22322-2.009-0.66968-1.2277-1.6742-0.8929-0.7813-1.451-0.55808-1.1161-0.33484-0.44648h-1.1161l-0.7813-1.6742-0.11167-1.7858-0.14185-1.4532v-1.185l0.25644-1.4398-0.13912-1.0241 0.64419-1.4321 2.3908-1.3958 2.5109-0.74704 0.12506-1.7991 1.1343-2.4875 1.7678-1.2594 0.22689-1.4393 0.13512-1.774 0.33413-1.2767 0.70401-0.11733 0.352-0.93867 0.82135 0.82134 0.70397 0.11733h0.93867l0.70401 0.82133 0.46933 0.58667 0.35199 1.4081 0.70401 0.46934 1.76 0.93867 0.58665 1.1733 0.46935 1.2907 0.70401 1.4081 1.6427 0.93866 1.2907 1.056 0.11733 1.4081 0.70401 1.4081 0.93867 1.056 0.70398 1.1733-0.82131 1.2907-0.58666 1.6427 1.5254 0.82133 1.76 0.70401 0.46931 1.5254 0.82135 1.6427-0.23467 1.2907v1.76l0.82132 1.4081 1.056 1.2907s0.35199 0.11733 1.1733 0.58667c0.82134 0.46933 0.23468 0.70401 0.23468 0.70401l1.408 0.11733 0.93866 0.46933 1.2907 0.58668 1.1734 0.11733 0.82132 0.82134v1.76l0.82135 0.58667 0.58665 1.056v1.4081" fill="#c2f0c2"/>
   <path d="m139.61 185.39-1.0834 1.0835-0.81259 2.4378-1.3543 0.27087-1.2189 0.13541-0.13542 1.7606-0.67716 1.0835h-1.0834l-0.948-0.54173-1.0835 0.54173-1.896 0.54171-0.54173 1.2189-1.4898 0.1354-1.3543 0.67718-0.54175 1.6252 0.67716 0.67715 1.3543 0.81259 0.27085 0.67716 0.40629 0.81258 0.94804 0.40629 0.40627 0.81257v1.4898l0.27086 0.81257 0.13542 1.7606-0.40631 1.0834-0.54171 0.8126v1.4898l0.4063 1.4898 0.40628 0.94802-0.54172 1.0835-0.67715 0.54173 0.40629 0.67715 0.67715 0.81258-0.27085 0.67715-0.67715 1.3543-0.67717-0.40629-0.40629 0.13541-0.948 0.948-0.27088 1.6252 0.54172 0.94802 0.27085 0.94801-1.0834 0.1354-0.67714 0.67716-0.27086 2.0314h-2.167l-0.81259-0.13541-0.27086 0.67716-0.67714 1.896-1.4898 1.2189-1.896 1.0835-0.54172 1.6252-0.4063 2.3024-1.0834 2.1669-1.3543 1.2189-1.0834-0.27086-0.27086-1.2189 0.13541-2.0316-0.67716-0.1354-1.5744 0.1303h-1.5626l-1.6742-0.55806-1.2278-0.66969h-1.8974l-2.4554-0.44645-1.451-1.0045-1.6742-1.3394-0.33484-0.66968-1.5626 0.11155-1.3394 0.11156-2.009-1.1161-1.2278-1.3394-1.5626-0.8929-1.6742-1.0045-2.7903-1.451-1.2277-1.2278-2.009-1.3394-1.451-1.451-1.3394-1.6742-0.55808-1.451-0.44646-1.1161v-3.0136l-0.55806-1.1161-0.55807-1.451-0.55807-1.0045-0.22324-1.7858-1.451-0.2232-1.8974-0.22324-1.2277-0.66968-1.3394-1.0045-1.7858-0.33482-1.5626-0.66969-1.3394-0.7813-1.2278-0.55807-1.2277 0.22324-0.32908 0.37809-0.67488-1.2148v-1.8896l-1.0798-1.7547-2.0246-1.2148-0.26996-1.2148-0.80986-0.40492 0.13498-1.3498 0.53991-0.94483h-1.3498l-2.2946-0.94483-1.8896-0.80985-0.94484-0.53989-0.67487-0.53991 0.94484-1.4848 1.2148-2.0246 1.4847-0.94486-0.53991-1.8896 0.53991-1.2148 1.2148-0.13499-0.26996-1.3498 1.6197-1.2148 1.2148-1.3498 0.5399-0.80985 0.26996-2.0246 0.53989-0.94484 0.37122-0.59778 0.16869-0.34703 1.2148-0.53993 0.94484-1.0798 0.94482-0.26996 1.2148 1.2148 1.2148 0.6749 1.3498-0.80988 0.67489-1.0798 1.3498 0.26996 0.40493 1.2148 0.80986 0.94485 1.0798 0.67487-0.40493 1.3498 0.13497 1.3498 1.6197 0.80985 1.2148 0.13499 0.94482 0.53993 1.2148-1.6197 0.53991 2.1596 1.3498-1.4848 1.0798-0.4049 1.3497 0.4049h0.80986l0.13498 0.94486 1.0798-0.26996 0.94482 0.5399 0.94484-0.94481-0.53991-0.80988 0.40492-1.6197-1.2148-0.67487-0.40493-0.67489 1.2148-0.67488v-2.8344l0.67488-0.53993 0.94482-0.94483v-2.0246l1.3498-0.67487 0.80986-1.2148 0.53991-0.94485 1.8896-0.40491 0.53991-1.8896 0.94482-0.53991 1.4847 0.53991 1.3497-0.40494 1.3498 0.80984 1.2148 1.2148 1.0798-0.53991 0.80986-1.0798 1.2148 0.5399 0.94483 0.53989 0.94482-0.40491 0.80986-1.0798 1.3498-0.40492 1.0798-0.40491 1.0798-0.40495 0.80985-0.80985h0.80986l0.13973 0.15093 0.67715 0.94802-0.13541 0.94802 0.67716 1.896 0.948 1.3543 0.13541 2.0314 1.2189 0.81259 1.6252 0.81259 1.896-0.27088 1.4898-0.81258h2.844l0.81258-1.3543-0.4063-1.3543 1.7606-0.67716 1.6252-0.27087 1.0834-0.40628 0.67716 0.81257 0.67715 1.2189 1.0835 0.67717 0.67715 1.0834 1.2189 1.4898h0.4063l-0.67715 1.3543-0.13542 1.6252v0.81258l0.94803 1.0834 0.40629 0.94803 1.0835 1.0834 0.81257-0.27088 0.94801-0.1354 0.8126 1.3543 0.27086 1.4898-0.81258 1.2189 0.13541 1.3543 1.896 0.4063 0.40628 1.6252 0.13541 0.81257 0.67717 0.94804-0.81259 1.2189 1.6252 0.67716 1.0834 0.948" fill="#fcc"/>
   <path d="m126.2 161.41 0.50787-1.8876 0.71102-1.0665 0.17777-2.133 0.17776-0.88874 1.7776 0.53326h1.5998l1.2443-0.35553v-1.9552l-1.422-0.88879-0.3555-0.53324 0.71101-0.53329-0.17775-0.53325-1.7776-1.2443-1.422-0.711-0.53326-1.2443 0.3555-1.2443 1.5998-0.17776 1.7776-0.53324 0.88876-1.9554 0.53326-2.4886 0.53326-2.4886 0.53325-1.5998 1.9554-0.53325 1.5998-0.53328-0.35552-1.2442 0.35552-1.9554 0.711-0.53324 0.53326-1.9554v-1.5998l2.133 0.35552 1.9554-0.88877 1.0665-1.5998 1.7776-0.88879 1.0665-1.0665 0.3555-1.7776 0.71102-1.9554-1.0665-1.7776-1.422-0.17776-1.5998-0.71102-0.71101-1.9553-0.17774-1.9554-1.422-0.88874h-1.2443l-1.2443-0.53329-1.422-0.3555-1.7776-0.35551-0.93835-0.47675 0.97454-0.40816 1.8896-1.0798 2.1596 0.80986 1.6197 0.53989 1.4846-0.80983 0.80985-0.94483-0.26995-0.94483 1.0798-0.94484-0.67488-1.6197-1.2148-0.94482-2.0246-1.3498-1.7547-0.80987-0.40494-1.2148 1.2148-1.6197 0.53991-1.3498 0.80984-1.3498 0.53991-2.1596-0.135-1.7547-0.67487-1.0798-0.94485-0.80984 1.2148-1.0798 2.2946-0.67488 1.0798-0.67487 0.135-2.5646 0.5399-2.0246 0.53991-1.4847h2.5646l0.94482-1.0798 1.3498-0.94482 0.67488-1.4847 0.20613 0.63562 0.22375 1.4735h1.6427l1.8774-0.23467h1.4081l1.8774-0.704 0.93865 1.1733 0.70402 0.704 0.46933 0.82133-0.11733 1.5254 1.1733 0.58666 0.46932 0.70401 0.35202 1.2907 0.58664 0.82134 0.82135 0.70398 2.3467 0.46935s0.58664 0.11733 1.2907 0.11733c0.70399 0 0.82135-1.2907 0.82135-1.2907l1.6427-0.23467 1.1734-0.46934 0.11732-1.056 1.76-0.704 1.056 0.11733 1.4079 0.46932 1.408-0.23466 0.70401-1.5254 1.6427-0.704 0.82133 0.82134 0.704 0.70399h1.8774l0.82135 0.70401 1.056 0.46934 1.76-0.46934h1.76l1.056 1.1733 0.93864 2.3467 0.82135 1.76 1.1733 0.23465 0.11733 0.704 0.82133 1.9947h1.4081l1.5254 0.46933 1.408 0.70399 1.9947 0.93869 1.408 0.82134 0.58665 0.93864 1.5254 0.58667h1.056l0.58668 0.70402 0.93868 0.82133 0.70399 1.2906v1.4081l0.93867 0.58667 1.1733 0.58666 0.50797-0.0351-0.62473 1.1245-1.1245 1.3744v1.4993l0.62472 1.4993 1.1245 1.4993-0.49978 0.3748-1.1245-0.24987-1.4993 0.12492-1.8742-0.24986-1.3744-0.62474-0.87459 0.74968-1.3744 0.49975-1.4993 0.62471-0.49975 1.1245 0.62469 1.2494 0.99955 0.87462 0.62472 1.4993 0.99953 0.12491 0.12492 0.74965 0.37481 1.6242 0.49978 0.74968-0.12492 1.3744 1.1245 1.4993-0.49975 0.74966-0.74966 0.87457-0.74966 1.2494-0.49976 1.7491-0.99955 1.3744 0.37482 1.1245 0.49978 0.87461 0.24991 1.2494 0.74962 1.7493-0.12492 0.8746v0.87457l0.24988 0.87462 0.6247 0.37482 0.12492 1.1245 0.87462 0.74966v0.87458l-0.2499 1.4993 0.2499 1.3744-0.99955 0.87461-0.37481 1.4993-1.4993 0.74964 0.49977 1.2494-0.62472 0.62472 0.24989 1.3744-0.37482 1.2494-1.1245 1.4993-1.3744 1.2494-0.99954-0.37484-0.99954-0.49975-1.6242 0.87459-1.4993 1.4993-1.9991 0.37483-1.3744-0.87459-1.1245-0.87461-2.6238 0.24989-1.3744 0.87458 0.8746 0.99956 0.74966 1.6242 0.12492 1.6242-0.24988 1.7491-1.1245 0.62473v1.4993l-1.4993 0.74965-0.12492 0.99954-0.12492 2.124-1.2494 0.49979 0.37484 1.2494 0.49976 1.1245 0.37484 0.99953v1.7493l0.74965 1.2494 1.3744 0.24987 1.1245 0.37483 0.74966 0.62471 0.24986 1.4993-0.62471 0.62471-0.24987 1.1245-0.87459 1.4993-0.8746 0.37484-1.2494 0.62469-1.4993-0.24986h-1.2494l-2.124 0.37482-1.3744-0.12492-1.2494-0.24987-1.7492 0.37481-1.1245-0.62471-1.1245-0.62472-1.4993-0.49976-0.99954 0.8746-0.87461 0.87459h-2.6238l-0.74965 0.99954-1.4993-0.37483-0.99954-1.1245-1.9991-0.74966-1.3744-0.49976-0.74967 1.7491-0.62471 1.6242-0.49976 1.4993-0.74967 1.2494-1.1245 0.99952-0.20736 0.0426-0.4063 1.3543-1.6252-0.54172-0.67716 0.54172-1.3543 0.8126-1.0834-0.8126-1.0835-1.7606-0.81257-1.3543-1.7606-0.13541 0.54172 1.6252v1.0834l-0.81257 1.2189h-1.3543l-1.2189 0.27085-0.27085-1.0834v-1.3543l-1.2189-1.0835-1.7776-0.22006-0.41476-0.22008-0.78717-0.77872-1.6252-0.67714 0.8126-1.2189-0.67717-0.94802-0.1354-0.81259-0.40631-1.6252-1.896-0.40629-0.1354-1.3543 0.81257-1.2189-0.27088-1.4898-0.81259-1.3543-0.948 0.1354-0.81259 0.2709-1.0834-1.0835-0.40628-0.948-0.94804-1.0835v-0.81256l0.13542-1.6252 0.67714-1.3543h-0.40629l-1.2189-1.4898-0.67714-1.0834-1.0834-0.67715-0.67716-1.2189z" fill="#e7de69"/>
   <path d="m110.07 158.1-0.25613-0.50009-0.67489-1.2148-1.0798-0.67489-0.5399-0.26994v-1.7547l0.5399-1.0798-0.5399-0.67489-0.53992-0.94481v-1.4848l-0.80985-1.2148-0.94484-0.40496v-1.2148l-0.5399-1.3498-0.26995-1.4848 0.67487-1.2148 1.2148-1.6196v-1.8897l-1.2148-0.67488-0.5399-0.67487 0.94483-1.0798 1.2148-0.67488 0.67488-1.4847v-2.1596l-0.26997-1.6196-0.40492-1.4847 1.2148-0.67487 0.94482-0.67488 0.26995-1.2148 0.80986-1.2148 0.67488-2.1596v-2.4296l0.40492-2.1596v-3.3744l0.80986-1.7546 1.8896-0.135 0.94484-1.2148 1.4848-0.67489 2.1596-0.80987 1.3498-1.2148 0.5399-1.3498-0.13499-1.2148 0.40493-1.0798 0.26997-0.5399 0.67487 1.0798 2.8345 1.0798 1.4847 1.2148 1.8896 1.4848 2.1596 1.0798 1.8896 0.67488 1.2148-0.67488 1.4847 0.80986 0.54331 0.14925 0.50031 0.33075 1.7776 0.35551 1.422 0.3555 1.2443 0.53327h1.2443l1.422 0.88876 0.17777 1.9554 0.71101 1.9554 1.5998 0.71101 1.422 0.17776 1.0665 1.7776-0.71102 1.9554-0.35549 1.7776-1.0665 1.0665-1.7776 0.88876-1.0666 1.5998-1.9553 0.88877-2.133-0.35551v1.5998l-0.53325 1.9554-0.71101 0.53324-0.35551 1.9554 0.35551 1.2442-1.5998 0.53327-1.9554 0.53326-0.53324 1.5998-0.53326 2.4886-0.53325 2.4886-0.88877 1.9554-1.7776 0.53326-1.5998 0.17775-0.35551 1.2443 0.53327 1.2443 1.422 0.71101 1.7776 1.2443 0.17776 0.53324-0.71102 0.53327 0.35551 0.53325 1.422 0.88879v1.9552l-1.2443 0.35552h-1.5998l-1.7776-0.53326-0.17776 0.88875-0.17775 2.133-0.71102 1.0665-0.71102 1.9553-0.8803 0.33859-1.6252 0.27084-1.7606 0.67716 0.40629 1.3543-0.81258 1.3543h-2.844l-1.4898 0.8126-1.896 0.27088-1.6252-0.8126-1.2189-0.81259-0.13541-2.0314-0.948-1.3543-0.67716-1.896 0.13542-0.948z" fill="#abacda"/>
   <path d="m62.165 171.24-1.7547-0.80986-1.3498-0.67488-1.0798-0.67487 0.26995-1.6196-0.40493-1.2148-1.2148-1.4847 0.53991-1.4847 1.3498-1.2148 0.94482-1.3498 1.8896-0.67489-0.26994-1.3498-0.94484-0.67488-1.0798-0.94484-1.0798-0.94482-1.8896-0.67487-1.6197-0.40495-0.94484-0.40493-1.6197 0.40493-1.8896-0.80984-1.4848-2.2946 0.13498-2.0246 0.40492-1.4847 2.0246-0.67487 1.8896-1.7546 1.6197-1.7546 1.6197-0.80984v-1.2148l-1.8896-0.40495h-2.4296l-3.3744-1.0798-1.8896-0.6749-2.1596-1.0798-1.8896-0.94485-1.8896 0.40492-0.94482-0.40492-1.3498-0.53987-1.3498 0.26992-0.67489 0.67487-1.4847-0.94479-0.26994-0.94486-2.0246-1.0798-0.53991-1.2148 0.26995-0.94485 1.7547 0.13499 1.0798 0.40491 0.67488-0.94481-0.67488-1.4847 0.26995-1.6196 1.3498-0.67489 0.40493-1.4847 0.40493-0.67488 1.4847 0.5399 0.94484-0.67488 0.94484-1.4848 0.94482-1.3497 1.3497-0.94484 0.26995-0.13499 1.0798 0.53989 1.7547 0.26995 1.3497-0.26995 1.0798-0.13499 0.53991 1.3498 0.80985 1.2148v1.3498l1.3498 1.2148 2.0246-0.135 2.0246-1.0798 1.6197-1.6197 0.80986-1.8896 1.3497 0.40496 0.67488 1.7546 1.6197 0.67488-0.26995 1.2148-1.3497 0.80986-0.53991 1.4847h1.7547l1.7546-1.0798 1.2148 0.40494 0.67488 2.1596 1.3498 1.3498 0.94484 1.3498 1.0798 1.0798 1.2148 2.1596 1.2148 0.94482 1.8896 0.135h1.2148l0.80986-0.26995 1.2148-1.8896 1.8896-0.67487 1.2148-0.135 2.4296-0.40494 0.67488-1.3498 0.40493-2.6995 0.26995-1.2148 1.0798-1.6197 0.94482-2.1596 1.0798-2.0247 0.40493-2.4296-0.13498-3.2394 0.80985-0.94481 2.0246-0.13501 2.0246-0.26995 1.2148-1.4847 1.0798-0.26996 1.7546 0.26996 1.8896-0.94483 1.3497-0.26996 2.0246 1.2148 1.2148-0.53991 2.2946-0.94484 2.4296-0.40493 0.80985-1.6196 1.7547-0.67489-0.135-2.1596-0.40493-1.8896-0.67488-2.0246-0.94483-1.4847 0.94483-1.2148 0.80986-1.0798v-1.6196l1.2148-0.94482 2.1596 0.40492s0 1.0798 0.67488 1.0798c0.67487 0 1.6197-1.7546 1.6197-1.7546l2.6995 0.135 1.2148 1.6197 1.6196 1.6197 0.94483 1.3498 0.26995 1.8896-0.26995 0.5399-0.40495 1.0798 0.13501 1.2148-0.53991 1.3498-1.3498 1.2148-2.1596 0.80988-1.4848 0.67488-0.94485 1.2148-1.8896 0.13501-0.80986 1.7546v3.3744l-0.40492 2.1596v2.4296l-0.67488 2.1596-0.80986 1.2148-0.26995 1.2148-0.94481 0.67487-1.2148 0.67488 0.40493 1.4847 0.26996 1.6197v2.1596l-0.67488 1.4847-1.2148 0.67489-0.94483 1.0798 0.5399 0.67487 1.2148 0.67489v1.8896l-1.2148 1.6197-0.67487 1.2148 0.26995 1.4848 0.5399 1.3498v1.2148l0.94484 0.40494 0.80985 1.2148v1.4848l0.53991 0.94481 0.53992 0.67488-0.53992 1.0798v1.7546l0.53992 0.26995 1.0798 0.6749 0.67489 1.2148h-0.80985l-0.80986 0.80986-1.0798 0.40494-1.0798 0.4049-1.3498 0.40493-0.80986 1.0798-0.94482 0.40491-0.94482-0.5399-1.2148-0.53989-0.80985 1.0798-1.0798 0.5399-1.2148-1.2148-1.3498-0.80986-1.3498 0.40495-1.4847-0.53992-0.94482 0.53992-0.53991 1.8896-1.8896 0.40492-0.53991 0.94485-0.80985 1.2148-1.3498 0.67489v2.0246l-0.94483 0.94483-0.67487 0.53993v2.8345l-1.2148 0.67487 0.40493 0.6749 1.2148 0.67487-0.40493 1.6197 0.53991 0.80987-0.94484 0.94482-0.94482-0.5399-1.0798 0.26995-0.13498-0.94485h-0.80985l-1.3498-0.40493-1.0798 0.40493-1.3498 1.4848-0.53991-2.1596-1.2148 1.6197-0.94482-0.53993-1.2148-0.13499-1.6197-0.80985-0.13497-1.3498 0.40493-1.3498-1.0798-0.67487-0.80986-0.94485-0.40493-1.2148-1.3498-0.26993-0.67489 1.0798-1.3498 0.80986-1.2148-0.67489-1.2148-1.2148-0.94482 0.26993-0.94484 1.0798z" fill="#deabab"/>
  </g>
  <g fill="none" stroke="#000" stroke-width=".5">
   <path d="m137.3 159.99 0.91747-2.0643 2.9818-1.6056 4.8167-0.68811-0.22934-3.4406 2.9817-1.6056v-2.0644l-2.2937-2.2937 2.0644-0.91747v-3.2112h2.7525l2.0644-1.3762 1.835 0.45873 1.6056-0.22935 2.2937-0.22938 0.91746-1.3762 0.22937-5.0461h2.5231l0.45873-1.3762 1.3762-1.1469 2.0643 0.22939-0.91751-1.835 1.835-3.67h2.2937l2.5231-3.8992 3.8993 1.1469-0.91749-1.6056-0.22937-5.0461-2.0643-3.2112-3.8992-3.4406 0.22936-1.835-1.3762-1.1468 1.1469-1.6056-2.0644-2.2937-0.68807-3.8992"/>
   <path d="m86.001 178.14 2.3884 2.3546 0.68241-0.96953 1.4786 0.41552 0.22747-0.83103-0.90988-1.108-1.4786-0.1385 0.56869-1.1081-0.90988-0.69252 0.79615-0.69255 1.1374 1.2466 0.79617-0.69255 1.0237 0.55404 0.11374-1.6622 1.3649-0.41551 0.90988 1.2466 1.1374-0.83107-0.45496-1.5236 3.2983-3.3242 0.45496-1.5236 1.2512-0.55403 0.79617 1.108 0.3412 1.385 0.79619 0.27701 1.4786 1.5236 1.4786-0.96953 1.3649-0.27702 0.79614 0.69252 1.5924 1.9391"/>
   <path d="m37.287 153.18 2.8829-2.4024 1.5615-3.4835-0.6006-2.042 1.6816-1.3213-2.042-1.9219 2.042-3.7238 1.6816 1.3213 0.96097-1.2012 1.8019 0.72072 0.96097 0.12022 1.9219-0.48048 0.24025-3.003 3.6036-0.36037 1.4415 2.1621 0.36037-1.4415 3.3634-2.2824 0.12013-3.003 1.5615 1.0811 1.3213-1.2012 1.2012 0.84085 1.4415-1.2012-0.72072-1.3213 0.96097-2.6426-2.042-3.964 2.042-1.8018-0.96097-1.6816 3.1231-5.2853-1.3213-2.042 1.4415-1.922-0.48049-1.0811 0.6006-1.2012 6.7268 2.1621"/>
  </g>
  <ellipse cx="166.79" cy="98.776" rx="1.7878" ry="1.9155"/>
  <ellipse cx="74.844" cy="110.14" rx="1.7878" ry="1.9155"/>
  <ellipse cx="75.61" cy="141.55" rx="1.7878" ry="1.9155"/>
  <ellipse cx="118.26" cy="159.43" rx="1.7878" ry="1.9155" stroke-width=".36522"/>
  <ellipse cx="37.68" cy="153.38" rx="1.7878" ry="1.9155" stroke-width="1.3803"/>
 </g>
 <ellipse cx="23.569" cy="151.27" rx="1.7878" ry="1.9155"/>
 <path d="m72.074 99.339-0.49092-2.0296 1.4728-1.7397 3.4364-1.7397-1.9637-0.86984-0.49092-2.0296-1.4728-1.4497-1.4728-2.0296v-2.3196l-4.9092 1.7397 2.4546-2.6095-0.98184-1.4497-1.9637-1.7397-1.4728-0.28995-1.4728-2.8995" fill="none" stroke="#000" stroke-width=".5px"/>
 <g transform="translate(8.8206e-6 -.0015332)" font-family="sans-serif" font-size="3.5279px" letter-spacing="0px" stroke-width=".26459" word-spacing="0px">
  <text x="17.532255" y="104.41843" style="line-height:1.25" xml:space="preserve"><tspan x="17.532255" y="104.41843" font-size="4.2334px" stroke-width=".26459">Dehradun</tspan></text>
  <text x="22.487967" y="157.71814" style="line-height:1.25" xml:space="preserve"><tspan x="22.487967" y="157.71814" font-size="4.2334px" stroke-width=".26459">Roorkee</tspan></text>
  <text x="34.399017" y="152.26361" style="line-height:1.25" xml:space="preserve"><tspan x="34.399017" y="152.26361" font-size="4.2334px" stroke-width=".26459">Haridwar</tspan></text>
 </g>
 <ellipse cx="107.05" cy="130.89" rx="1.7878" ry="1.9155"/>
 <path d="m106.23 130.83-0.11263-3.0871-0.55508-1.4802h-2.0353l-0.74011-1.2952-0.47952-2.3447" fill="none" stroke="#000" stroke-width=".5px"/>
 <g transform="translate(8.8206e-6 -.0015332)" font-family="sans-serif" font-size="3.5279px" letter-spacing="0px" stroke-width=".26459" word-spacing="0px">
  <text x="80.924408" y="92.752197" style="line-height:1.25" xml:space="preserve"><tspan x="80.924408" y="92.752197" font-size="4.2334px" stroke-width=".26459">New Tehri</tspan></text>
  <text x="102.04964" y="136.81009" style="line-height:1.25" xml:space="preserve"><tspan x="102.04964" y="136.81009" font-size="4.2334px" stroke-width=".26459">Pauri</tspan></text>
  <text x="100.75446" y="111.27634" style="line-height:1.25" xml:space="preserve"><tspan x="100.75446" y="111.27634" font-size="4.2334px" stroke-width=".26459">Rudraprayag</tspan></text>
  <text x="168.10434" y="56.323269" style="line-height:1.25" xml:space="preserve"><tspan x="168.10434" y="56.323269" font-size="4.2334px" stroke-width=".26459">Badrinath</tspan></text>
  <text x="69.854919" y="62.429169" style="line-height:1.25" xml:space="preserve"><tspan x="69.854919" y="62.429169" font-size="4.2334px" stroke-width=".26459">Uttar Kashi</tspan></text>
 </g>
 <g fill="none" stroke="#000">
  <path d="m73.937 99.508 1.259-0.9283 0.17986-0.74264 0.17986-1.6709 1.0792-0.9283 1.259 0.37132-0.53959 1.114 1.6131-1.3959h1.0882v1.4041h0.6801l0.6801 0.28082 0.6801 1.2636h1.6322l0.27204 0.70203-0.54408 0.42121v1.2637l1.0882-0.28082 0.6801-0.70203 0.95214 0.28081-0.13602 0.98283h1.4962l0.6801 0.84244 0.6801-0.28082 1.1491 0.5535 0.33611 0.95411h0.84028l0.58819 0.43369 1.0924 1.0408-0.67223 0.95411-0.84028 1.0408 1.5125 1.1276-0.42014 1.9082 0.84028 0.34695 0.42013 1.0408-0.9243 0.95411-0.16806 0.78063-0.9243 0.34695-0.16806 1.3011-0.25208 0.69389 0.84027 0.34695v0.6939l1.5125 0.17347 0.75625 0.52043-1.0083 0.17346v0.52043l-0.58819 1.0408 0.75625 2.6021" stroke-width=".5px"/>
  <path d="m82.623 165.82-1.1504 1.0066-1.0066 0.2876-1.0066 1.5818-0.86281 2.4446 0.1438 2.157 2.5884 1.8694 2.0132 0.43141 1.438 2.4446 3.595 3.0198 1.8694 0.4314h1.5818l1.5818 1.438 0.86281 1.8694h2.876l1.438 0.1438-1.0066 1.438 2.5884-0.1438 1.5818 0.5752h1.1504l2.0132-0.5752 0.71901 1.2942 0.719 1.438-0.2876 1.0066-0.719 1.5818v0.8628l1.2942-1.8694 0.8628-0.71901 0.86281-1.0066-0.2876-0.57521-0.1438-1.1504 1.1504 0.86281 0.57521 1.1504v1.438l0.5752 0.86281 0.86281 0.2876h1.2942l0.1438-0.71901-0.2876-0.8628-0.57521-1.0066-0.2876-0.4314 0.57521-0.86281 1.1504 1.1504 1.2942 0.5752 2.157 0.2876 1.1504 0.71901 0.4314 1.5818 2.157 3.1636 1.5818 0.4314h1.2942l1.2942 0.2876 1.2942 0.1438 0.71901-0.2876 0.4314-1.1504-0.2876-0.5752-0.71901-0.4314-1.1504-0.86281-0.5752-1.0066 1.438 0.5752 1.7256 0.28761 0.86281-0.4314 0.57521-0.57521 0.4314-1.8694-1.438-1.2942v-1.1504l-0.57521-1.0066-0.2876-1.1504v-1.1504l-1.2942-1.7256-1.7256-0.86281v-1.438h-1.1504l-0.86281-0.1438-0.719-0.71901-0.57521-0.4314-0.8628-0.86281-1.438-0.8628-1.2942-1.1504-0.71901-0.86281-0.2876-0.86281-1.2942-0.1438-0.43141-0.5752-1.0066-0.1438h-2.157l-1.438 0.4314-1.5818-1.0066-1.2942-0.8628-1.438-0.71901-1.8694-1.8694-2.5884-1.0066-1.5818-1.0066-1.0066-0.5752-0.86281-0.86281-1.7256 0.1438-0.8628 1.438-1.5818-0.4314-0.1438-1.1504h-0.5752l-0.86281-1.0066-0.4314-0.1438-0.71901-0.8628-0.4314-0.14381-1.0066 0.57521-1.0066 0.5752-0.719-0.8628-0.71901-0.28761v-2.0132l-1.1504-0.1438-0.719-0.2876-1.1504-0.28761-0.71901-0.4314-0.719-0.4314v2.3008l0.1438 1.0066 1.0066 0.86281v0.8628z" fill="green" stroke="none" stroke-width=".26459px"/>
  <path d="m1.3214 101.89 0.16642 2.4962 2.1634 4.3268 2.4962 0.33282 1.4977 1.1649-0.83208 1.4977-0.16642 1.997 1.997 0.9985 2.9955 1.8306 6.823 3.4947 3.994 2.1634-1.8306 2.4962 1.8306-0.49925 3.8276 3.4947 2.3298 2.1634 0.16642 2.8291 2.3298 0.33282-0.66566 1.1649 2.3377 2.4418 0.14512 1.3061 2.9024 1.7414v-1.0158l0.72561 0.72561 6.9658 4.9341 2.4671 1.0158 0.43536-0.7256h2.1768l1.161 0.58048 1.4512-1.0158 0.43536 0.87072 1.3061 1.0158 0.29024-0.7256 2.1768 0.58047-0.58048 1.4512 0.43536 1.161 4.6439 3.628 0.43536-0.72561 2.1768 1.3061 2.4671-1.5963 0.43536-1.0158-2.0317-2.1768-0.14512-0.87072 0.29024-1.0158-2.3219-1.161-0.14512-1.7414-0.58048-0.43535-0.7256-0.87073-0.58048-1.8866 1.3061-2.0317 1.0158-1.5963v-2.1768l-0.43536-2.1768-0.43536-0.72562 0.29024-2.0317 1.7414-2.4671-2.3219-1.8866-1.3061-0.58048-1.0158-0.43536-0.14512-1.5963-1.8866-0.29024-0.14512-1.5963-0.58048-1.161-1.8866 0.43537v2.6122l-1.5963 0.7256-0.29024-1.3061 1.0158-1.4512 0.58048-1.161-1.4512-1.0158-0.29024 1.3061-0.14512 0.29024-0.58048-0.58049-1.161-0.29025 0.7256-0.72559v-0.72561l1.5963 0.14513v-1.5963l1.0158-2.1768 0.29024-1.7415v-1.161l-1.0158-2.467-0.43536-1.5963-0.87073-1.3061-0.43536-1.161-2.0317-0.29025-1.3061 0.58049-0.58049 0.87072-0.43536 0.87073-0.29024 1.4512-0.58048 0.87073-0.87072-0.14512-0.58048 0.29023-0.58048 1.0158 0.87072 2.1768 1.8866 2.6122 0.87072 1.7415 1.161-0.87072v1.7414l-2.0317 0.58048 1.0158 2.9024 2.1768 0.87072 0.29024 4.2085-1.5963-0.58048-1.5963 1.0158-1.4512 0.58047-1.8866 0.87073-3.1927-3.4829 1.161-0.43537-2.0317-3.0475-2.1768-2.3219-0.14512-1.4512s-1.161-1.0158-2.0317-1.5963l-0.87072-0.58048-1.5963-0.14513-0.14512-1.3061-1.7415-0.29024-2.1768-0.43536-2.3219-0.58048-2.0317-0.43537-1.0158-1.0158-0.14512-2.0317-1.5963-1.0158-3.628-1.7414-1.7415-2.3219-0.87072-1.0158-1.3061-0.43536-1.5963-0.29025-4.3536-0.87072-1.7414-0.43536h-2.3219z" fill="green" stroke="none" stroke-width=".30621px"/>
 </g>
 <text x="62.515114" y="144.63683" fill="#000000" font-family="sans-serif" font-size="3.5279px" letter-spacing="0px" stroke-width=".26459" word-spacing="0px" style="line-height:1.25" xml:space="preserve"><tspan x="62.515114" y="144.63683" font-size="2.1168px" stroke-width=".26459">Rajaji National Park</tspan></text>
 <path d="m33.996 111.05-2.866 2.4921-1.246 2.6166-0.24921 1.4952-0.87222 0.62301-0.87221-0.24919-1.4952 2.1183-1.246 0.3738-0.49841 2.2429-1.4952 1.7445-4.2365 5.3579-0.99681 0.99683h-1.1214l-4.361 5.2333 2.2429 6.1056 7.6008 7.9745 0.4984 2.2429" fill="none" stroke="#000" stroke-width=".5"/>
 <text x="98.550888" y="165.14337" fill="#000000" font-family="sans-serif" font-size="3.5279px" letter-spacing="0px" stroke-width=".26459" word-spacing="0px" style="line-height:1.25" xml:space="preserve"><tspan x="98.550888" y="165.14337" font-size="2.1168px" stroke-width=".26459">Jim Corbett National Park</tspan></text>
 <text x="51.63253" y="138.66284" style="line-height:1.25" xml:space="preserve"><tspan x="51.63253" y="138.66284" font-size="4.2334px" stroke-width=".26459">Rishikesh</tspan></text>
 <path d="m35.311 110.41 8.3328 9.2021 0.32275 3.5831 1.291 1.9544 6.4257 9.3378-2.8754 4.7503-0.70418 1.7373-1.2323 3.9088" fill="none" stroke="#000" stroke-width=".5px"/>
 <path d="m46.872 144.89-3.8902 2.2501-1.2449 0.26471-3.579-0.26471-1.7117 0.92649-1.4005-0.39707-3.7346 1.1912-1.0893-0.13236-0.62243 0.79415-2.6453 0.79414h-1.5561l-1.4005 1.5883" fill="none" stroke="#000" stroke-width=".5px"/>
 <ellipse cx="46.34" cy="144.19" rx="1.7878" ry="1.9155"/>
 <g fill="none" stroke="#000">
  <path d="m51.684 134.49 3.184-2.4904 1.0815-1.9849" stroke-width=".5px"/>
  <path d="m45.871 126.21 5.3752-1.5677 3.8074 2.2397 0.89586 3.1355 3.3958 2.2325 1.3075-1.3366 2.6876-0.67191 3.1355 1.7918 1.1198-0.44792v-1.7918h2.4636l2.4636 6.047 2.4636 0.89586 0.67187 1.3438 0.67189-2.0157 1.5678 2.0157 0.44791-2.2397 2.2397-1.5678 1.3438 1.7918 1.7912-0.67239-0.67129-1.3433 1.7918-4.9273h1.1198l0.89586-0.67188v-2.2397l1.3438-1.1198 0.22397-1.3438h1.5677l1.7918-0.89587v-2.4636l1.7918 0.67189 1.3438-0.89585 1.5677 2.4636 2.0157 0.44792 1.3438-1.1198 2.4636 0.67188 0.89586-2.0157 1.7918 0.67188 0.67187-0.89586 2.0157-0.44792 0.44795-1.1198 2.0157 0.89584 2.2397-1.7918 3.1355-0.67188 2.2397-3.1355 1.5677 0.6719 2.0157-1.3438 1.3438 1.5678 2.2397 0.44792 2.2397-1.3438 1.3438 2.0157 2.0157-0.89585 1.5677 0.44793-0.67188 1.7918 1.1198 0.67188 2.4658-0.89693" stroke-width=".5px"/>
  <path d="m57.513 130.97 0.59635-0.93641 0.59635 0.36418-0.14911-0.88443-0.29817-0.10404 0.24849-0.57224-0.34788-0.0521-0.0497-0.46818h-0.54665l-0.19878-0.2081v-0.26012l-0.24848-0.0522-0.04968-0.41619h-0.54666l0.1491-0.62425 0.69574 0.46817 0.49696 0.41619 0.74544-0.26012-0.59635-0.52021-0.54666 0.0521 0.89452-0.41619h-0.89454l-0.04968-0.2081 0.24847-0.5202-0.04968-0.4162 0.64605 0.20809 0.29817-0.78033 0.79514-0.46822 0.04968-0.6763 0.39757-0.15609-0.69574-0.20808 1.3417-0.78036 0.24847-0.4682 0.54666 0.052 0.04968-0.41619-0.0994-0.88439-0.19879-0.26012 0.44726-0.20807 0.39756-0.62427-0.19879-0.52025 0.39756-0.57226 0.39757-0.052v-0.67629l-0.09938-0.26011 0.94422-1.0405 0.44726 0.41619 0.69574-0.20811 0.49696-0.57224-0.04968-0.72832-0.1491-0.10405 0.59635-0.31215 0.29817 0.31215 0.64603-0.98845-0.44726-0.41617 0.54665-0.26012-0.0994-0.67631-0.44726-0.41616-0.24849-0.26011 0.64605-0.052-0.24847-1.4567 0.24847-0.36417v-0.78011l-0.34788-0.57225-1.0436-0.46819-0.44726-0.36416-0.29817-0.26012-0.14911-0.78036-0.34787-0.15609 0.09939-0.57223 0.74544-0.72832-0.04968-0.41618 0.54666-0.83237 0.34788-0.15605 0.29817-0.31212h1.3417l0.94421 0.36415 0.59635 0.31215 0.44726 0.4682 0.04968-0.41618-0.34788-0.41619 0.24849-0.67628 0.44727-0.052 0.04968-0.72832 0.29818 0.26011v-0.7283l0.44726 0.41618 0.44726-0.52023 0.19879 0.10405 0.49696-1.2486 0.44726-0.46819 0.54666 0.20807 0.44726-0.20807-0.0994-0.4162h-0.49696l0.69574-0.67628-0.69574-0.31212v-0.20811l0.74544-0.67629" stroke-width=".5"/>
 </g>
 <ellipse cx="51.756" cy="134.37" rx="1.4558" ry="1.5598" stroke-width=".29739"/>
 <rect x="160.52" y="170.03" width="4.6788" height="4.6788" fill="#008000" fill-rule="evenodd" stroke-width=".26459"/>
 <text x="167.71809" y="172.90602" fill="#000000" font-family="sans-serif" font-size="2.8223px" letter-spacing="0px" stroke-width=".26459" word-spacing="0px" style="line-height:1.25" xml:space="preserve"><tspan x="167.71809" y="172.90602"> Reserve forest and</tspan><tspan x="167.71809" y="177.31592">Wildlife Sanctuary</tspan></text>
</svg>
