<svg width="241.78mm" height="632.59mm" version="1.1" viewBox="0 0 241.78657 632.58765" xmlns="http://www.w3.org/2000/svg" xmlns:cc="http://creativecommons.org/ns#" xmlns:dc="http://purl.org/dc/elements/1.1/" xmlns:rdf="http://www.w3.org/1999/02/22-rdf-syntax-ns#">
 <metadata>
  <rdf:RDF>
   <cc:Work rdf:about="">
    <dc:format>image/svg+xml</dc:format>
    <dc:type rdf:resource="http://purl.org/dc/dcmitype/StillImage"/>
    <dc:title/>
   </cc:Work>
  </rdf:RDF>
 </metadata>
 <g transform="translate(35.146 -58.633)"  stroke="#fff" stroke-width=".5">
  <path d="m60.748 69.768 3.6562-1.4441 1.5821-0.43888 1.3804-0.26899 2.0776-0.5663 1.4299-0.27607 1.8299 0.43888 1.6281 0.43888 1.4795 0.83884 1.7272 1.1149 1.529 0.61939 1.8263 0.10972 1.6281 0.78574 1.929 0.56276 1.1149-0.2159 2.1944-0.5663 0.2513 0.67602 1.3131 0.67248 3.3589 0.10972 2.2475 1.2211 1.2105 0.89546 1.2636 0.56276 2.3962 0.67602 0.1982 0.10972 0.66541 0.5663 0.35039 1.3308 0.0991 1.2211 0.053 0.72911 0.66187 1.8405-1.2636 3.2279-2.1767 0.32916-1.8299 0.10972-2.3926 0.49198-2.9908 0.27607-2.3431 0.43888-1.9821 1.1114-1.7272 2.0068-1.8299 2.6793-0.7185 0.67602-1.2636 2.5696-1.3131-0.38226-1.529-0.94855-2.2263-2.7926-2.1803-1.1149-2.0776 1.9007-0.71496 1.8936-0.6654 2.0068-0.71496 1.8971-1.3804 1.8936-1.4299 1.9007-2.2971 0.89546-2.0281 1.3874-1.1149 1.621-0.51321 2.2263-1.1645 1.8971-1.4759 1.8971-1.5821 1.7874-1.6777 1.568-1.7272 2.0635-1.8794 2.2794-2.3431 1.0016-2.2935 1.4441 0.61231 0.7291 1.3131 0.38225 1.5326 0.32917 0.86361 0.56631 0.96271 1.7909-0.0991 3.9004-0.51675 2.2263-1.0618 2.2794v-0.16282l-0.39995-2.3325 0.24775-1.4405-0.24775-0.89548-0.86715-0.5663-0.81052 0.21945-0.66541 0.10973-0.3504 1.7874-0.1982 0.43534 0.14866 0.43889 0.76451 0.32916 0.05309 0.21945h-0.44946l-0.61585 0.38224-1.214 1.3874-0.46366 0.72912-0.2513 1.2211 0.14865 0.89545-1.2636 2.3891-0.04955 0.27606-0.4495 1.8936-1.1645 2.52-1.4795 0.67249-0.04955 1.2211 0.0991 0.49197 0.76451 0.72912 0.0991 0.21945-4.1729 5.1215-0.86361 0.67604-1.1149 0.89545h-4.0066l0.29731-0.56631 0.4495-0.89192 0.0991-0.43887-0.4672-0.67249-0.51321-0.89548-0.3504-0.32914-0.34686-0.78221-0.51675-0.5663-0.71496-0.83885-0.5663-0.7291-0.96625-0.61939-1.2636-0.94856-1.1149-0.43888-1.4335-0.89192-0.5663-0.78576-0.86361-1.1645-1.0123-1.168-1.1149-0.89547-1.214-0.89547-3.3093-1.3308-0.04955-0.62293 0.46366-0.26899v-1.4441l1.7803-0.32915-0.10263-1.6777 0.29731-1.0052 0.86715-1.2211 0.24776-0.67248 0.20174-0.67603 2.244-2.3855 0.2513-1.3874-0.20175-2.7926 0.3504-2.3324 1.2636-2.2263 0.14865-0.61939 0.2513-1.3308 1.0654-4.58-0.05309-0.27253-0.61232-3.3376v-2.0068l-0.2513-0.50967-0.71496-0.7822-0.61585-2.736 0.5663-1.4441-0.1982-1.0016-0.29731-0.5663-0.81406-0.67603-0.71496-0.38226-1.529-2.1696v-2.1166l-0.39989-1.0052-1.0654-1.5149-0.5663-0.32916-0.76451-1.8405-0.05309-0.7822 1.4795-2.52-0.6654-0.27253-1.7272-0.72911-1.1149-1.5149-0.96271-0.78574-1.0158-2.113-0.76451-0.43888-2.0776-0.22298-1.7308-0.43534-1.1609-1.1114-0.6654-1.4405-0.76451-1.5149 0.099101-1.2777 0.053088-0.7822-0.9167-1.2211-1.7803-1.0016-0.51321-0.56276-0.053088-1.0052 0.14865-0.67248 1.2636-2.3891 0.2513-0.61939-0.10263-0.43888 0.51675-1.5149 0.2513-0.61939-0.099101-1.2211 0.20175-1.3308-0.14866-2.0068 0.049556-0.10972 3.3093 3.0651 1.4795 2.3891 1.3131 2.0068 1.529 2.4634 1.8299 1.8971 1.7308 1.6777 1.4759 0.89546 2.0281 0.38225 1.3804-0.56276 1.3804-1.3874 1.4795-0.67602 1.9785-0.38226 2.2263 0.38226 1.6317 0.43888 2.3431 0.67602 1.6777 0.21944 1.3804 0.2159 1.6777 0.49552 0.51675 0.27253 0.91316 0.10972 1.5821 0.21944 1.929-0.5663 1.4795 0.94856 2.6935 0.61939 2.3431 0.38579 3.0899 0.05309 1.7803-0.32562 2.1767-1.3308 1.4795-1.3874 1.8794-1.2742 1.4299-1.0052z" fill="#cc2" id="Darjeeling" />
  <path d="m100.53 84.725-0.2513 0.72911-0.0496 0.72911 0.0991 0.5663 0.0955 3.9039 0.2973 0.22298 0.5663-1.1149 2.0776-3.0085 1.4334-1.0016 0.81406 0.10972 0.66186 0.43534 1.8299 2.0068 0.29732 0.94856-0.25131 1.5149 0.0496 1.3344v0.2159l3.3589 1.6777 2.244-1.2211 0.0991-0.10972 0.1982 0.16635 0.61231-0.38225 0.71851-0.5663 0.81051 0.10972 0.51676 0.49198 1.0123 1.0583 1.6812 0.89547 0.61231 1.3308 1.0654 0.7822 1.529 0.10972 0.91317 0.50968 0.5663 0.67602 0.0991 1.5113 0.1027 0.89546 0.46365 1.4441 0.71496 2.2228 0.56985 1.3343 1.1609 0.43888 1.6317 1.5679 1.4759-0.10621 2.3431-0.84238 0.96624-0.053 0.66541 0.10973 0.56631 0.21945 2.2263-0.10973 4.987-0.67248 0.76451 0.10973 1.1609-0.67602 1.3804-0.67603 0.71496-0.7822 1.1644-0.78574 1.0123-0.32917h0.29732l1.929 0.21945 3.458-1.568 0.96625-0.10974 0.71496 0.67604 0.76806 1.0016 0.71494 1.0016 1.4299-0.5663 2.2971 0.5663h1.3131l0.35041-0.053 0.6654 0.61938 0.66186 1.7308 0.9167 0.72911 1.8299 0.56631 1.7308-0.10974 2.1272-0.56631 1.214 0.10974 1.1149-0.2159 0.86361 0.2159 1.4795 0.43888 0.29731 0.2159 1.6777 1.5715 1.929 0.6194 4.3216 0.83883 0.51674 0.43889 0.29732 0.43889-0.0496 0.56629v1.1114l-0.91671 1.7343-1.3131 0.94855-0.66541 1.1114 0.91316 0.56631 1.529-0.21945 0.56631 0.16282 0.3504 0.4955h0.51675l0.91317-0.89546 0.61584-1.4441 1.3804 0.5663 1.9785-0.32562 1.7272 0.61939 1.5821 0.16282 2.4953 0.27607 0.81406 0.38224 1.4759 1.7343 1.0654 0.27254 1.2636-0.10974 1.929-0.43889 1.8794-0.10973 0.5663 5.3445v2.336l-0.51675 1.5679-0.39994 1.2742 0.0991 0.9521 0.46366 1.3839 0.6654 1.168 1.2636 1.8405-0.1982 2.1696-1.0654 1.3308 0.20176 2.5696-0.1522 1.7874 0.1522 1.5715-0.30086 1.8936-0.34686 1.3343 0.0496 1.1114-0.91316 0.32917-1.1149-0.053-1.214 0.27253-1.6777 1.0016-1.4334 0.5663-1.9785 0.49197-2.9908 0.56631-2.8457-0.27253-2.4457-0.16282-1.7768-0.053-1.4795 0.21591-2.7926 1.5148-2.1307 1.3344-2.3431 1.4405-2.2935-0.10974-0.56629-1.6246v-2.0068l-1.1149-0.32916-0.71496 0.10621-0.9167 0.10974-1.4299-0.61938-1.5821-1.168-0.81406-1.2742-1.0123-2.3891-1.1149-0.78574-1.6317-1.1114-2.3926-1.0052h-2.0281l-1.5786-0.10973-2.3926 0.21944-2.6475 1.168-1.6281 0.78576-2.3431 0.72911-2.1944-0.56276-1.9785-0.4389h-3.2916l-1.6317-0.10973-1.6777 0.10973-2.9943-1.1114-1.9785-1.1149-0.6654-0.21591-1.929-1.6246-2.5413-0.72911-2.3926-1.2211-2.0281-0.43536h-4.987l-3.2067 0.32917-3.5571 0.32917-2.6439 1.3308-0.96273 1.4405-1.0618 1.2777-0.96271 1.0583-2.4457 2.336-1.4299 2.0068-1.7803 2.4634-1.8263 2.6828-2.1307 2.4634-2.7926 1.1114-1.6777 0.10974-1.4299-0.21592-2.4953-0.21944-1.3804 0.27254-1.1645 0.67248-1.7272 1.5149-1.6317 1.3344-0.46366 0.10974-0.2513-0.32917-1.0654-0.0567h-0.34686l-0.51675-0.49197-0.39995-1.7874-0.41411-0.94856 1.2636-0.053-0.04954-0.5663-0.3504-0.32916-1.8759-0.5663 1.1149-0.56631-0.14866-0.67248-1.4795 0.32915-0.61231-0.10973-1.7803-1.4405-0.20175-0.67602-0.04954-0.21943-0.29731-0.21592-1.8794-0.10973-0.39995-3.1217-0.04955-1.5679-0.29731-0.32916-1.929-0.16282-0.3504 0.27607-1.1149 1.7308-1.3131-0.50966-1.6777-0.10974-0.14865-0.43889 0.04955-0.5663-0.29731-0.43535v-0.89192l-1.3804 0.27252-0.3504 0.0565-0.5663-0.21944h-1.2636l-0.86361-3.2279-1.2636-0.2159-1.1645 0.32916-0.61231-0.10973-0.19821-2.2263-0.71849-1.5679-1.5786-0.10974-1.1149-0.10973-0.76451 0.10973-0.96272-0.38225-1.0158-0.67603-1.0123-2.0599-0.04954-1.9538 1.0618-2.2794 0.51675-2.2263 0.0991-3.9004-0.96271-1.7909-0.86715-0.5663-1.529-0.32916-1.3131-0.38226-0.61231-0.72911 2.2935-1.4441 2.3431-1.0017 1.8794-2.2794 1.7272-2.0635 1.6777-1.568 1.5821-1.7874 1.4759-1.8971 1.1645-1.8971 0.51321-2.2263 1.1149-1.621 2.0281-1.3874 2.2971-0.89547 1.4299-1.9006 1.3804-1.8936 0.71496-1.8971 0.6654-2.0068 0.71496-1.8936 2.0776-1.9007 2.1803 1.1149 2.2263 2.7926 1.529 0.94855 1.3131 0.38226 1.2636-2.5696 0.7185-0.67602 1.8299-2.6793 1.7272-2.0068 1.9821-1.1114 2.3431-0.43888 2.9908-0.27607 2.3926-0.49198 1.8299-0.10972z" fill="#e2b584" id="Jalpaiguri" />
  <path d="m82.395 161.01 0.46366-0.10974 1.6317-1.3308 1.7308-1.5149 1.1609-0.67603 1.3804-0.27607 2.4953 0.21945 1.4299 0.21589 1.6777-0.10974 2.7961-1.1149 2.1272-2.4634 1.8299-2.6829 1.7803-2.4634 1.4299-2.0068 2.4457-2.336 0.96272-1.0547 1.0654-1.2777 0.96272-1.4405 2.6439-1.3308 3.5571-0.32915 3.2102-0.32917h4.987l2.0245 0.43533 2.3926 1.2211 2.5448 0.72913 1.929 1.6246 0.66541 0.21945 1.9785 1.1149 2.9908 1.1114 1.6812-0.10973 1.6281 0.10973h3.2916l1.9785 0.43889 2.1944 0.56631 2.3431-0.72912 1.6317-0.7822 2.6439-1.168 2.3926-0.21944 1.5821 0.10623h1.929l2.3926 1.0052 1.6316 1.1114 1.1149 0.78222 1.0123 2.3891 0.81406 1.2777 1.5786 1.168 1.4299 0.6194 0.9167-0.10974 0.71495-0.10973 1.1149 0.32917v2.0068l0.5663 1.6246 2.2971 0.10974 2.3431-1.4441 2.1272-1.3344 2.8457-1.5148 1.4299-0.2159 1.7803 0.053 2.4457 0.16281 2.8421 0.27253 2.9943-0.56631 1.9785-0.49196 1.4299-0.56278 1.6777-1.0016 1.214-0.27253 1.1149 0.053 0.91671-0.32916-0.66541 2.6828-0.0496 1.6777-0.76806 1.4405-0.25129 1.168-0.39995 1.0583-0.0496 1.0052v1.568l0.0496 1.2211-0.41411 2.0068-0.5132 1.3344-0.46721 0.84237-0.61231 0.26899-1.1149 0.49553-0.91671 0.38226-0.5663 0.61937-0.81405 1.168-0.86363 1.5679-0.8636 1.3308-1.214 0.72912-1.0123 0.2159-1.2636 0.1628-1.1645 0.0567 0.71495 1.1645 0.71497 1.0052 0.86714 0.78222-0.76805 0.67601-0.71496 1.0017-0.0991 1.5148 0.56629 1.8405 0.86717 1.2777 0.51319 1.2742v3.012l-1.0122-0.10974-1.3804 0.21945-1.3804 0.78574-0.86362-0.10973-0.66541-0.7822-0.19819-0.67602 0.34686-1.1114 0.61584-1.0583 0.0991-1.621 0.3504-1.0016-0.3504-0.67602-1.0618-0.38226-0.20174-0.21944-0.0496-1.2777-0.61586-0.2159-1.0123 0.7822-0.9167-0.32917-0.91316 0.10623-1.2636 0.89547-0.35041 0.84236 0.35041 0.16283 0.46365 0.67248-0.25129 1.1149-0.71497-0.10974-0.51674 0.27607 0.053 0.72557 0.46366 0.3858 0.4672 0.16281 1.9254 0.5663 0.2513 0.5663-0.39996 0.67602-0.41411 0.053-1.5786-0.27253-1.5786-0.56631-0.39995 0.56631-0.35041 1.5679-0.96625-0.21945-1.0123 0.32917v0.67602l0.81405 1.1114 0.14867 1.0052-0.14867 0.72913v0.1628l0.34686 0.89193 0.91672 0.10973 2.0245-0.94855 0.20174 0.83883-0.61585 0.50968-2.4422 0.38224-0.35041 0.38226-0.14866 0.43889 0.053 1.2742 0.34685 0.72912 0.86362-0.21591 1.5821-1.7343h0.66541l0.2973 0.67604-0.053 1.0016 0.9167 2.2263-0.14865 0.49199-0.1026 0.27608-0.81405 0.50967-1.929-0.053-0.61232 0.32917-0.46367 0.89192-0.56984 0.6194-1.5786 1.0583-0.0496 0.10973-0.51676 1.2211 0.1027 1.1645 0.41411 4.4172-0.2513 0.83884-1.2636 1.2742-1.3804 0.0567-1.0158-0.61939-0.66186-1.2211-0.2513-2.9023-0.66541-0.49197-0.34686-0.16281-0.61584-0.27252-0.61232-0.0567-2.4917 0.32917-1.9821 0.3858-0.46366 0.10973-0.39995 0.0565-0.71495-0.72909-0.35041-0.38226-1.0123-1.0016-0.81405-0.43889-0.86362-0.21589-0.2973-0.32917 0.14865-0.89547-0.29731-0.67602-1.2636-0.10974-0.30085 0.10974-0.56629 0.27252-1.6777 2.2794-0.5663 1.0583-0.6654 0.50967-1.0123-0.38226-0.34685 0.053-0.35039 0.10974-1.214-0.10974-1.529-1.0016-0.4495-0.32915-1.1609-1.4405-2.0776-1.2211-0.71849-0.43888-1.7768 0.053-0.053-0.053-0.2513-0.21945-0.51321-1.1149-1.2636-0.10974-0.56984-0.32915-0.29732-0.78575 0.3504-1.621 0.29732-0.16635 0.14864-0.89192-0.4141-0.56277-0.81406-0.22298-2.5944-2.6793-0.24777-0.27254-1.3804-0.7291-3.2067 0.21943-1.1644-0.56629-1.0123-1.1114-0.81406-1.3874-0.51676-1.4405-1.6281-2.6262-0.0991-1.0052-0.053-0.2159 0.39995-0.72911 0.91671-0.94856v-0.32906l-0.71496-1.568-0.053-1.1114-0.39994-0.7822-2.0281-2.0068 0.51676-0.78575-0.81406-0.7822-0.76451-0.6194-0.25129-0.32915-0.56631-0.72912 0.14866-1.3308-0.0496-0.10622-0.3504-1.844 0.61584-0.16635 1.8299 1.6812 0.71496-0.0567 0.61586-0.72912 0.14865-1.1644-0.20176-0.49551-0.81406-0.56278-1.5786-0.32915-2.3926 0.43534-0.2513-0.32917v-0.72911l0.56631-0.50968 0.61231-0.56629 0.053-0.38225-0.2513-0.56631 0.0991-0.67249 0.34686-0.0565-2.1272-1.3874 1.6316-1.0583-0.053-0.94854 0.20175-1.5149-1.929 0.10974-0.96272-0.4389-1.1645-0.10973-1.1609 0.21944-0.29732 0.053-2.0281-1.0583-1.8299-1.3344-1.4299-0.2159-0.0991-0.0567-0.9627-0.16634 0.39995-1.1645-0.56631-0.27608-1.2636 0.78221-0.20175-2.3325v-0.43888l-0.66565-0.5663h-1.2813l-0.14866-0.89547-0.39995 0.10974-0.51321 0.78221-0.61585 0.21943 0.51675 1.568-0.76451 0.32916-0.39995 0.7822-1.3768-1.0016 0.2973 1.1114 0.51321 0.50966 0.0991 0.72911-0.7645 0.56631-0.76805 0.21589h-1.4122l-0.51675 0.67603 1.4795 0.38226-0.29731 2.0634 0.24776 0.43536v0.43887l-0.46365 0.56631 0.35039 0.27253 0.1982 1.0016 1.1149-0.27253 0.61586 0.78574 0.61231 0.10973 1.3804-1.1149 0.96272 0.78573-0.56631 0.43536-1.0123 0.78574 0.24776 0.78574 1.1149-0.21943 0.14866-0.72911 0.71849-0.32917 0.81052 0.0567 1.1184 0.56276 0.29731 0.43889-0.2513 1.3308 1.6281-0.21943v1.1114l-0.91669 0.43887 0.1026 0.50968-1.0158 0.6194 0.35041 1.0052 0.29729 1.0016 0.96272 0.10974 0.41411-0.67248 0.0991-0.0567 1.8299 0.16281v-1.5679l0.86361 0.43888 0.20175 0.89546-0.14867 1.6246 0.61233 0.43536 1.4299 0.16635 0.35039-0.67602 0.91316 0.10973-0.0955 1.568 0.71496 0.89545 0.39994 0.4389 0.0991 0.2159-0.0991 0.7822-0.66541 0.22298-0.9627 0.78222h-1.1609l-0.81405 0.67247-0.61587 0.43889-0.0495 0.0567-1.5821 0.72912-0.86363 0.43534-0.34685-1.1114-1.3167-0.32917-1.3131 0.32917h-0.0991l-0.96626 0.43888-0.81406-0.10974-1.5786-2.0068-1.2636-0.83882-1.2636-2.736-1.0158-0.78575h-3.6066l-0.91316 0.43889-0.20174 0.32917-0.66541 1.0052-0.46365 1.1114 0.39995 1.3343v0.56631l0.56631 0.10974 0.5663 1.4405-0.39995 0.21592-0.2513 0.16634-0.96271 0.0567-0.14866-0.10973-0.91316-0.43888h-0.9167l-1.6317-1.0016-0.04956-1.168-1.8299-0.16281 0.51675-1.7874-0.51675-0.67248 0.19821-1.1149 0.61585-1.1114-1.1645-1.4405-0.86361-0.61939-0.76451 0.10974-0.86715 0.49196-0.5663 0.21944-0.86361 0.21591h-0.51675l-0.4495 0.10973-0.3504-0.10973-0.29731-1.0583-0.81406 0.0567-0.29731 0.56276-0.0991 0.10974 0.41411 1.6777-2.9943-0.78219v1.1114l-0.3504 0.67603-0.96271 0.50966-1.6317 0.49198-1.1149 0.94856-0.81406-0.27253-0.6654-0.43889-0.71496-1.8405v-0.0567l0.2513-0.21945 0.24776-0.21943-0.04954-0.83884 0.81406-0.32917 1.4795 1.6246 1.0123 0.49197 0.71496-0.0567 0.29731-0.21943-0.04955-0.67604-1.3131-0.94854-0.04955-1.5149 0.6654-0.72912 0.96625-0.32917 1.6777 0.38226 0.76451-0.32917 0.1522-0.21942 0.1982-0.43536 2.4457 0.10973 0.0991-0.7822-1.7272-0.32915 0.04954-0.56631 0.5663-0.78574v-0.78222l-1.7803-0.10973-0.66187 0.61939-1.529 0.27253 0.34686-1.5679z" fill="#a3b0a3" id="Cooch Behar" />
 </g>
 <path d="m65.338 630.9-7.0638-11.479-7.0638-19.426-7.0638-18.542-15.011-24.723-5.2979-7.0638v-6.1809l-18.543-1.7659-4.4149-1.766 4.4149-13.245 1.766-14.128-0.88298-15.011-0.88298-2.6489 8.8298-37.968-4.4149-7.9468 4.4149-16.777v-10.596l8.8298-15.894-3.5319-5.2978v-11.479l3.5319-13.245v-22.074l-6.1809-10.596-1.766-2.649-3.5319-2.6489-2.6489-5.2979-1.766-4.4149 1.766-8.8298 5.2979-5.2979 4.4149-2.6489 12.362-8.8298 8.8298-15.894-5.2979-8.8298 8.8298-17.66-4.4149-10.596v-8.8298l2.6489-17.66-3.5319-7.9468-1.766-15.011-15.011-11.479 2.6489-11.479-2.6489-2.6489 3.5319-6.1808-3.5319-7.9468 7.0638-8.8298-1.766-6.1808 5.2979-27.372 15.011-10.596 10.596-9.7128 1.766-4.4149-2.6489-3.5319-7.9468-9.7128 0.88298-7.0638 5.2979-10.596 10.596 1.766v-5.2979l7.0638-7.0638 7.0638 5.2979 2.6489 6.1809 8.8298 4.4149 13.245 6.1809 4.4149-5.2979 6.1808-2.6489 9.0494 3.0658 2.8686-3.5857 9.3228 2.1514 12.191-5.02 12.909 8.6057 4.3028-0.71714 7.1714 3.5857 5.7372 6.4543 2.8685 7.8885 11.474-1.4343 6.4543 3.5857 5.02 9.3228" fill="none" stroke="#000" stroke-width=".5px"/>
 <g fill-rule="evenodd" stroke-width=".37996">
  <ellipse cx="65.683" cy="628.75" rx="3.7471" ry="3.8503"/>
  <ellipse cx="202.3" cy="101.18" rx="3.7471" ry="3.8503"/>
  <ellipse cx="104.96" cy="75.792" rx="3.7471" ry="3.8503"/>
 </g>
 <path d="m67.165 16.838 2.0568 10.45-0.91415 9.2893 2.2854 10.45 1.8283 4.6446" fill="none" stroke="#000" stroke-width=".5px"/>
 <ellipse cx="66.873" cy="17.248" rx="3.7471" ry="3.8503" fill-rule="evenodd" stroke-width=".37996"/>
 <g fill="#000000" font-family="sans-serif" font-size="3.5279px" letter-spacing="0px" stroke-width=".26459" word-spacing="0px">
  <text x="73.926483" y="22.185865" style="line-height:1.25" xml:space="preserve"><tspan x="73.926483" y="22.185865" font-size="5.6446px" stroke-width=".26459">Darjeeling</tspan></text>
  <text x="94.734131" y="61.332466" style="line-height:1.25" xml:space="preserve"><tspan x="94.734131" y="61.332466" font-size="5.6446px" stroke-width=".26459">Jalpaiguri</tspan></text>
  <text x="179.7281" y="111.41189" style="line-height:1.25" xml:space="preserve"><tspan x="179.7281" y="111.41189" font-size="5.6446px" stroke-width=".26459">Cooch Behar</tspan></text>
  <text x="65.10968" y="618.55426" style="line-height:1.25" xml:space="preserve"><tspan x="65.10968" y="618.55426" font-size="5.6446px" stroke-width=".26459">Kolkata</tspan></text>
 </g>
</svg>
