<svg width="201.23mm" height="275.93mm" version="1.1" viewBox="0 0 201.22942 275.92456" xmlns="http://www.w3.org/2000/svg" xmlns:cc="http://creativecommons.org/ns#" xmlns:dc="http://purl.org/dc/elements/1.1/" xmlns:rdf="http://www.w3.org/1999/02/22-rdf-syntax-ns#">
 <metadata>
  <rdf:RDF>
   <cc:Work rdf:about="">
    <dc:format>image/svg+xml</dc:format>
    <dc:type rdf:resource="http://purl.org/dc/dcmitype/StillImage"/>
    <dc:title/>
   </cc:Work>
  </rdf:RDF>
 </metadata>
 <g transform="translate(-13.993 -13.224)" fill-rule="evenodd" stroke="#fff" stroke-width=".5px">
  <path d="m149.47 113.43c0.73607-2.9443 1.7264-5.0658 4.1742-7.5137 2.1244-2.1243 3.1983 4.721 3.3394 5.4266 0.53163 2.6572 1.7372 4.6254 3.3394 5.4266 2.1942 1.0971 0.95831 3.2631 0.41731 5.4265-0.8828 3.5311 0.92834 2.8285 2.0871 1.6697 1.8334-1.8334 1.1737-3.3394 4.1742-3.3394 3.0187 0 3.366-0.05 4.5917-2.5045 0.98034-1.9606 6.3558 1.0672 7.0963 1.2523 2.3092 0.57724 3.7568 1.4364 3.7568 3.7568 0 2.8685-5.5657 1.3914-8.3486 2.0871-2.8257 0.70645-3.3394 1.8023-3.3394 4.5917 0 2.3782 1.9411 4.8683 4.1742 5.4266 3.1804 0.79509 2.3208-1.4361 4.5917 0.83483 2.9851 2.9852 5.5714 5.4309 8.3486 7.5137 1.7332 1.2999 2.6893 2.4464 4.5917 2.922 2.7878 0.69694 1.7707 4.1743 4.5917 4.1743 1.7697 0 2.0915 0.59722 1.6697 0.83482-3.8865 2.1884 0.34548 4.6456-1.2523 5.844-2.0752 1.5564-2.5045 2.7988-2.5045 5.844 0 2.4212 0.12481 4.926-0.41731 7.0962-0.45794 1.8305-0.0755 4.4763-0.41733 5.844-0.47667 1.9067-0.41732 4.1126-0.41732 6.2614 0 3.2864 0.70789 2.6498 2.922 3.7568 2.3892 1.1946 2.243 5.1147 1.2523 7.0963-1.6488 3.2975 0.75609 5.7593-2.922 6.6788-2.3831 0.59599-4.773 0.15003-7.5137 0.83483-2.8498 0.71244-5.6247 0.99402-7.9311 0.41731-1.6409-0.41044-3.2336-0.80838-5.0091-1.2522-3.2453-0.81136-4.0715 0.3211-4.5917 2.922-0.48352 2.4178-0.24914 3.193-2.5046 3.7569-2.0724 0.51789-3.2374 1.2522-5.844 1.2522-2.8562 0-3.7771 0.43794-5.4266 2.0872-1.4704 1.4703-1.4367 3.9413-2.922 5.4265-1.639 1.6391-3.3104 2.393-5.4265 2.922-2.4498 0.61222-4.3842 1.6697-7.5137 1.6697-2.6529 0-5.0999 0.67151-7.0962 1.6697-2.6903 1.3452-6.0431-1.5242-7.5137-2.5045-2.2443-1.4962-2.0871-2.6108-2.0871-5.4266 0-1.915 0.41731-4.1892 0.41731-6.2614 0-2.7295-1.8614-3.7228-2.922-5.844-0.56099-1.1218-2.8511-2.5912-4.1743-2.922-0.56287-0.14044-2.6315-4.2045-2.922-4.5917-1.3181-1.7575-1.9693-2.6864-2.922-4.5918-1.4324-2.8647-1.6283-4.9262-2.922-7.5137-0.896-1.7919-3.0128-3.0128-4.1743-4.1742-2.1729-2.1729-4.5683-4.9857-6.2614-6.6788-1.5297-1.5297-2.4446-2.4596-4.1742-3.7568-2.2373-1.678-4.7732-2.432-7.0963-4.1742-2.6076-1.9557-4.9685-1.894-6.6788-4.1743-1.4772-1.9695-2.1335-2.5508-3.7569-4.1742-1.8509-1.8509-3.7086-3.3033-5.4266-4.5917-1.9574-1.4681-3.275-2.4724-5.0091-3.3394-2.0852-1.0426-5.0169-0.83488-7.5137-0.83488-2.7978 0-4.3268-0.63624-6.2614-2.0871-1.9508-1.4632-3.3532-2.2019-5.4265-3.7569-2.3112-1.7334-3.2285-2.9432-5.4266-4.5917-1.5836-1.1877-3.7439-1.2522-5.844-1.2522-2.1329 0-4.275-0.024-5.844-0.41734-2.2727-0.56787-3.2581-2.0059-4.5917-3.3394-1.7918-1.7919-3.9305-3.4696-5.4265-4.5917-1.3975-1.0481-2.9993-2.1644-4.1743-3.3394-1.5495-1.5495-0.41732-3.7128-0.41732-5.844 0-3.0849 0.06246-3.4002 1.6698-5.0091 0.62411-0.6241 5.2695 0 6.2614 0 1.6841 0 1.5371-4.7441 2.0871-5.844 0.53664-1.0736 5.4016-0.41734 6.6788-0.41734 1.2254 0 3.2408 2.5843 4.5917 2.9221 2.1936 0.54849 5.2503 2.6252 6.6789 3.3394 3.4506 1.7253 4.9435 7.706 9.1834 8.766 2.3306 0.58287 4.3941 0.8348 7.0963 0.8348 2.83 0 5.8132 0.82871 7.9311 1.2523 2.0188 0.40356 4.7795 3.6038 6.2614 4.5917 1.3543 0.90286 4.3718 1.2522 5.844 1.2522 1.9354 0 4.5251 2.2626 6.6788 3.3394 2.8134 1.4067 6.0919 4.8396 8.766 7.5137 2.2615 2.2615 5.4111 1.6697 8.3485 1.6697 3.62 0 6.4852 0.83489 10.018 0.83489 3.116 0 3.8366-2.7332 6.2614-3.3394 3.0889-0.77221 7.2485 4.7361 10.018 5.844 1.4978 0.59913 3.7843 2.1146 5.0091 3.3394 0.96676 0.96677 7.2447-0.14103 8.3485-0.4173 2.0541-0.51352 2.4589-3.574 2.9221-5.4266 0.64234-2.5694 0.83482-4.877 0.83482-7.9311 0-2.4894-0.83482-4.1243-0.83482-7.0962 0-1.64 1.1031-3.1602 1.6697-5.4266 0.5054-2.0209 0.4173-3.6208 0.4173-5.844 0-0.98389 1.7218-1.1736 2.0872-2.0872z" fill="#cc2" id="Bardhaman" />
  <path d="m144.04 22.017c2.1165 0.63333 3.7071 2.8224 4.5918 4.5917 0.91201 1.8241 2.1246 2.1622 2.922 3.7569 0.72332 1.4466 0 5.0331 0 6.6788v6.6788c0 2.3952 0.18117 4.1186 0.83484 5.4265 1.1631 2.3262 3.1077 0.74287 3.7569 3.3394 0.69969 2.7989-0.75382 5.0213-1.2523 7.5137-0.46606 2.331-2.3713 3.9256-2.922 6.6788-0.53476 2.6734-2.4551 2.8973-5.0091 4.1743-2.2468 1.1234-3.9694 0.85037-4.5917 3.3393-0.53226 2.1282-1.6697 3.8733-1.6697 6.6789v6.6788c0 2.2049-1.1348 3.2871-1.6696 5.4266-0.48855 1.9534 0 4.6635 0 6.6788 0 2.5987-0.52478 4.0431 1.6696 4.5918 0.86824 0.2168 2.2512 4.5024 2.5046 5.0091 0.83395 1.6679 1.9313 2.2179 3.3394 2.922 2.4286 1.2143 2.0872 3.355 2.0872 5.844 0 2.645-0.11324 4.8173-1.2524 7.0962-0.67373 1.3475-0.41731 3.8773-0.41731 5.844v7.0962c0 1.7659-1.9719 4.7787-2.5045 5.844-1.3468 2.6935 0.57224 3.405-2.5045 4.1742-2.0945 0.52352-4.9152 0-7.0963 0-3.1197 0-4.4212-1.5418-6.2614-2.922-1.9527-1.4646-2.7053-1.8704-4.1743-3.3394-1.2675-1.2675-4.4367-2.8832-6.2614-3.3394-1.1534-0.28867-3.4214 1.7517-4.1742 2.5045-0.62411 0.6241-5.2696 0-6.2614 0-2.4208 0-4.2843 0.41732-6.6788 0.41732-2.4106 0-4.9407 0.12191-7.0962-0.41732-1.5718-0.39296-3.2193-2.9333-4.5917-3.7568-1.5821-0.94929-3.9339-3.099-5.0091-4.1742-1.5881-1.5881-4.8096-2.4048-6.6788-3.3395-1.919-0.95952-3.6482-2.4502-5.4265-3.3394-1.8805-0.94026-3.7098-2.4575-5.4266-4.1743-1.7349-1.7349-3.921-2.0871-6.6788-2.0871-3.0062 0-4.5086 1.2523-7.5137 1.2523-2.9185 0-7.0963-4.88-7.0963-7.0963 0-1.2628 6.5349-1.0922 9.5977-0.6674 2.9616 0.41045 1.7995-3.9251-0.83171-6.4288-1.2563-1.1955-1.2929-2.8814-0.41731-3.7569 0.6241-0.6241 11.531 4.5917 12.523 4.5917 0.74412 0 0.41731-5.4631 0.41731-6.2614 0-3.1274 2.1747-2.5045 5.0091-2.5045 2.6022 0 0.70103-4.8593 0.41734-5.4266-0.96751-1.9349-3.077-1.8719-3.7569-4.5917-0.52852-2.113-1.181-3.1968-2.0871-5.0091-1.4959-2.9918-0.43545-2.9309 2.0871-1.6697 2.0824 1.0412 5.2035 1.8641 7.5137 4.1743 1.2798 1.2798 6.949 3.8243 8.3486 4.1742 1.8304 0.45791 3.4591 0.83483 5.844 0.83483 2.6529 0 1.9043-6.0129 2.5046-7.5137 0.4648-1.1627 2.8713 0.88549 3.7568 0 2.2384-2.2384-1.1285-6.5551-2.0871-7.5137-2.5898-2.5898 1.4272-2.1478 3.3394-1.6697 2.8538 0.71343 3.5496 0.62758 5.0091 2.0871 0.90304 0.90298 0.84133-4.1743 2.9221-4.1743 4.5839 0 4.5917-0.20422 4.5917-5.0091 0-1.3833 2.8242 1.3322 4.1742 1.6697 1.8203 0.4548 4.374 0 6.2614 0 1.938 0-3.5464-1.617-5.4265-2.0871-1.5234-0.38108-2.8744-2.8744-3.7568-3.7569-2.3086-2.3086 0.39356-2.8978 1.6697-4.1743 1.52-1.52 1.7928-1.6697 4.5917-1.6697 2.3923 0 2.2097-3.1672 2.922-4.5917 0.48291-0.96589 4.8091-1.361 5.4266-1.6698 1.3397-0.66977 1.7319-3.5881 2.0871-5.0091 0.49415-1.9769 2.7779-3.1804 3.3394-5.4266 0.44169-1.7656 0.0973-4.5649 0.41731-5.844 0.86846-3.4737 5.4266-1.7488 5.4266-6.6788 0-0.81752-3.3771-2.8331-3.7569-3.3394-1.818-2.424-3.5323-1.9267-5.844-2.5045-0.0563-0.01198 2.7083-8.3288 2.922-9.1834 0.38919-1.5569 8.0028 6.7506 8.3486 7.0963 0.49166 0.49166 0.83483 1.1131 1.2522 1.6697 0.34798 0.46417 3.7156-0.40731 3.7568-0.41731z" fill="#e2b584" id="Birbhum" />
  <path d="m194.55 257.86c-2.3622-1.4635-5.118-0.54474-7.5137 1.2523-1.0786 0.80903-4.0784 0.41733-5.844 0.41733h-6.2614c-2.1329 0-4.275-0.024-5.844-0.41733-1.2547-0.31362-4.2302-2.7412-5.4266-3.3394-1.5142-0.7571-3.1493-0.83484-5.4266-0.83484h-6.2614c-0.91673 0-3.9284-6.0643-4.1742-6.6788-0.57099-1.4271-0.41731-5.7694-0.41731-1.2522 0 2.5546-1.1015 2.6204-2.0871 4.5917-0.94862 1.8972-0.83483 3.7858-0.83483 6.2614 0 2.6398-0.83489 6.6995-0.83489 10.018 0 0.58599-5.9587 0.41731-6.6788 0.41731-2.3925 0-3.8572-0.67634-5.844-1.6697-2.0837-1.0419-3.6154-3.6508-5.4265-5.0091-2.649-1.9868-3.0347-4.1064-5.4266-7.0962-1.6997-2.1247-2.4235-2.5168-2.922-5.0091-0.26052-1.3035 1.7413-4.0434 2.0871-5.4266 0.64387-2.5754 0.87594-3.3394-2.0871-3.3394-2.5333 0-4.4485-0.13748-5.844-0.83483-1.6809-0.84046-3.2841-2.0319-5.0091-3.7568-1.1435-1.1435-3.2088-1.7414-4.5917-2.0872-2.1514-0.5379-1.4977-2.922-4.5917-2.922-1.5863 0-2.8899-2.4403-3.3394-3.3394-1.658-3.3161 5.7732-0.66148 6.2614-0.41735 1.7723 0.88619 4.652 0.86507 6.2614 1.6697 2.5672 1.2836 1.6697-3.9928 1.6697-5.4265 0-1.6723 0.60536-3.945 1.6697-5.0091 1.751-1.751 2.5426-2.3907 5.4265-1.6697 2.1964 0.54913 5.0091 0.58225 5.0091-1.6697 0-3.0011 2.7717-2.9521 5.0091-2.5046 0.11378 0.024 2.0558 7.0439 2.0872 7.0963 0.65165 1.0861 5.9711 0.4173 7.0962 0.4173 3.1143 0 4.2714-0.25723 6.2614-1.2523 1.4094-0.70468 4.754-0.0375 6.2614-0.41731 2.9979-0.74948 2.8719-1.0463 4.5917-3.3394 1.0937-1.4582 2.6594-3.6489 3.3394-5.0091 0.98602-1.972 2.4312-1.6697 5.0091-1.6697 2.5481 0 4.3091-0.0674 5.844-0.83483 2.7815-1.3908 2.6793-0.56976 4.5917-3.7569 1.3534-2.2557 0.14103-3.2012 2.922-4.5917 1.5606-0.78032 4.0784 0.41735 5.844 0.41735h6.6788c2.499 0 4.3462 1.2522 7.0962 1.2522 1.8976 0 3.8199-3.006 5.0091-4.5917 1.1527-1.537 2.044-3.7137 3.3394-5.0091 0.85876-0.85874 4.7331 0.41731 5.844 0.41731 1.8094 0 0.61036 5.0719 0.4173 5.844-0.72597 2.904-0.15481 5.0694 0.41735 7.9311 0.59347 2.9686 1.1736 2.5242-2.0872 3.3394-1.3764 0.34422-4.7103 4.8289-5.0091 5.4266-1.0113 2.0226-3.3394 1.397-3.3394 5.0091 0 3.1665 0.13679 3.0605 2.922 3.7568 1.019 0.25482-1.1616 5.8984-1.2523 6.2614-0.93847 3.7538-0.12302 4.2972-2.5045 6.6788-1.4261 1.4261-2.8411 2.3429-3.7568 4.1744-1.1151 2.2303-0.74442 4.5569-1.2523 7.0962-0.58161 2.9077 4.7536 0.0937 2.0872 5.4266-0.73664 1.4731 0.60972 3.8826 0.83482 5.0091z" fill="#a3b0a3" id="Hooghly" />
 </g>
 <g fill="none" stroke="#000">
  <path d="m187.86 272.75v-2.9095l2.1821-3.6369-0.36372-6.91h-4.7279l-6.5464-1.0911-3.2732-9.4558-11.274-28.004-1.8184-1.091-0.72736-7.6374-4.0006-5.819-0.72738-1.4547-2.5458-2.5458-0.36368-2.5458-1.8184-4.0006-3.6369-6.91-6.1827-6.1827-6.1827-8.7285-2.9095-8.3648-5.4553-1.4547-2.5458 0.72736-2.9095-1.8184-3.6369-1.8184-3.2732-0.36368h-2.5458l-2.9095 1.0911-3.2732-1.4547-2.1821-1.4547-1.5411-3.0027 0.27504-1.9253-0.55008-1.1002-11.827-6.6009-4.1256-2.4754-3.8505-3.0254-4.6756-2.2003-9.0762-4.9507v-1.9253l1.1001-0.82511 0.82513-2.2003-0.27505-3.5755 1.6502-2.4754-3.3005-4.1256" stroke-width=".5px"/>
  <path d="m157.31 206.19 5.5163 1.7794 0.3559-1.2456 1.4236-0.71179 1.6015-3.025 1.7794-0.71178 1.2456-0.88972 1.4236-0.88972 2.3133-0.88973 0.71179-1.9574v-3.3809l2.6692-5.5163 1.6015 0.35589 8.1854 3.9148" stroke-width=".5px"/>
  <path d="m102.39 152.88-1.1074-2.2149-1.6611-6.6446-2.4917-2.7686-1.3843-4.4297-2.4917-8.8594 0.55372-8.0289-4.1529-3.3223-0.55372-3.3223-2.7686-2.2149-3.0454-4.4297-4.1529-8.5826 0.83058-3.3223-1.6612-2.7686-0.83057-4.7066-6.0909-4.9834" stroke-width=".5px"/>
  <path d="m68.837 133.63-6.6497-2.9165-3.8498-2.0999-8.1663-4.6664-5.5997-3.7332-2.5665-1.9832-2.5665-0.93329-3.0332-1.3999-1.6333-1.5166-1.9832-1.05-2.9165-1.3999-2.2166-0.58329-2.6832-0.93329" stroke-width=".5px"/>
  <path d="m71.383 82.285-2.6322 4.8448-0.71787 1.514-1.675 2.7252-2.1536 1.514-2.6322 0.90841-1.1965 0.30281-0.95717 1.8168-10.29 7.2673-0.95717 2.1196-1.4357 2.1196-1.9143 0.90841-1.9143-1.2112-0.71787 0.60559 0.23929 1.8168-5.2644 0.90841-2.3929 3.9364" stroke-width=".5px"/>
 </g>
 <g fill-rule="evenodd">
  <ellipse cx="70.734" cy="82.53" rx="3.2721" ry="3.3073" stroke-width=".30751"/>
  <g stroke-width=".30751">
   <ellipse cx="25.57" cy="110.72" rx="3.2721" ry="3.3073"/>
   <ellipse cx="69.037" cy="118.91" rx="3.2721" ry="3.3073"/>
   <ellipse cx="186.21" cy="192.93" rx="3.2721" ry="3.3073"/>
   <ellipse cx="49.824" cy="123.63" rx="3.2721" ry="3.3073"/>
   <ellipse cx="188.1" cy="272.62" rx="3.2721" ry="3.3073"/>
  </g>
 </g>
 <g fill="#000000" font-family="sans-serif" font-size="3.5278px" letter-spacing="0px" stroke-width=".26458" word-spacing="0px">
  <text x="160.38101" y="274.50931" style="line-height:1.25" xml:space="preserve"><tspan x="160.38101" y="274.50931" font-size="5.6444px" stroke-width=".26458">Kolkata</tspan></text>
  <text x="174.87004" y="203.00911" style="line-height:1.25" xml:space="preserve"><tspan x="174.87004" y="203.00911" font-size="5.6444px" stroke-width=".26458">Hooghly</tspan></text>
  <text x="11.396122" y="105.68073" style="line-height:1.25" xml:space="preserve"><tspan x="11.396122" y="105.68073" font-size="5.6444px" stroke-width=".26458">Asansol</tspan></text>
  <text x="12.971018" y="128.98914" style="line-height:1.25" xml:space="preserve"><tspan x="12.971018" y="128.98914" font-size="5.6444px" stroke-width=".26458">Durgapur</tspan></text>
  <text x="81.636368" y="83.002251" style="line-height:1.25" xml:space="preserve"><tspan x="81.636368" y="83.002251" font-size="5.6444px" stroke-width=".26458">Suri</tspan></text>
  <text x="63.052624" y="110.72038" style="line-height:1.25" xml:space="preserve"><tspan x="63.052624" y="110.72038" font-size="5.6444px" stroke-width=".26458">Bardhaman</tspan></text>
 </g>
</svg>
