<svg width="145.3mm" height="291.56mm" version="1.1" viewBox="0 0 145.29892 291.5632" xmlns="http://www.w3.org/2000/svg" xmlns:cc="http://creativecommons.org/ns#" xmlns:dc="http://purl.org/dc/elements/1.1/" xmlns:rdf="http://www.w3.org/1999/02/22-rdf-syntax-ns#">
 <metadata>
  <rdf:RDF>
   <cc:Work rdf:about="">
    <dc:format>image/svg+xml</dc:format>
    <dc:type rdf:resource="http://purl.org/dc/dcmitype/StillImage"/>
    <dc:title/>
   </cc:Work>
  </rdf:RDF>
 </metadata>
 <g transform="translate(-23.746 -3.8646)"  fill-rule="evenodd" stroke="#fff" stroke-width=".5px">
  <path d="m130.45 4.6325c-0.25821 0.65522 0.10066 4.5807 0.41764 5.8484 0.5333 2.133 5.9635 5.8626 7.5194 7.9372 2.1214 2.8286-1.3502 2.5792-2.9242 3.7597-1.6733 1.255-3.7793 1.2679-5.4308 2.5065-1.2657 0.94925-2.1735 3.009-3.7597 4.5952-1.4027 1.4027-4.476 2.1634-5.8485 2.5065-3.0286 0.75712-3.0913 0.58458-5.0129 2.5065-2.0149 2.0149-1.671 5.6414-1.671 8.7727 0 2.7341-0.44515 3.3965-1.2532 5.013-1.2823 2.5647-1.2532 4.6936-1.2532 7.5194v6.2662c0 2.536 1.9506 3.3075 3.7597 3.7598 2.6883 0.67209 3.9952 1.0709 5.4307 2.5064 0.58769 0.58769 1.7656 4.7845 2.0888 5.4307 1.0604 2.1208 3.1706 2.0202 5.4307 2.9242 2.5067 1.0027 1.321 2.9242 4.5952 2.9242 2.9287 0 4.6664 0.24447 6.684 1.2532 2.5991 1.2996-2.4261 4.1372-2.5065 4.1775-1.381 0.69049-2.9242 1.9745-2.9242 3.7597 0 2.4124-0.49267 3.4922-1.2532 5.013-0.88091 1.7619-1.1938 4.7754-1.671 6.684-0.64403 2.576-3.7598 0.28885-3.7598 3.342v6.2662c0 3.7089-1.1662 2.3063 0.41764 6.2662 1.111 2.7775 2.8392 2.5915 0.83553 4.5952-2.0742 2.0741-4.1998 3.4313-5.013 6.684-0.5358 2.1441-0.41764 4.6937-0.41764 7.1017v8.355c0 1.7601-0.83553 3.8416-0.83553 6.2662v12.115c0 2.9539-3.903-4.4939-6.2662-6.2662-1.7321-1.2991-2.122-1.671-5.013-1.671-3.0583 0-3.7842-1.2655-6.2662-2.5065-2.3954-1.1977-5.2238-2.1942-7.5194-3.342-2.0304-1.0152-3.8872-1.5258-5.8485-2.5065-4.4292-2.2146-0.90899-3.7304 1.2532-4.5952 1.7083-0.68335 2.4309-3.2664 3.7597-4.5952 0.86486-0.86485 2.0887-2.8593 2.0887-4.5952 0-1.2764 1.9811-2.8166 2.9242-3.7597 1.4012-1.4012-1.5073-3.5961-2.5065-4.5952-1.1547-1.1548-0.20757-4.6012 0-5.4308 0.67841-2.7137-2.5032-1.671-5.013-1.671-2.7487 0-3.4811-0.89112-5.4307-1.671-1.8022-0.72085-2.7638-3.2673-3.7598-4.5952-1.465-1.9534-0.20719-7.5127-0.83548-10.026-0.53987-2.1594 0.33305-4.4258 0.83548-5.4307 0.77498-1.55 0.8355-4.1766 0.8355-6.2662 0-2.4162 0.11115-3.9819 0.8355-5.4307 0.88814-1.7763 2.0492-2.3482 2.5065-4.1774 0.53737-2.1495-0.35512-4.47-0.8355-5.4307-1.0138-2.0275-4.4848-0.70342-6.684-1.2532-2.7165-0.6791-3.342-0.32637-3.342-3.342 0-2.7197-1.1423-4.0295-2.5065-5.8484-0.89033-1.1871-3.6895-0.74862-5.013-0.41763-2.1397 0.53516-3.7805-1.2741-5.013-2.5065-1.1743-1.1744-2.4517-2.2872-2.9242-4.1775-0.63627-2.5451 1.4601-3.9666 2.5065-5.013 1.4642-1.4642 3.7866-2.311 5.013-2.9242 0.39651-0.19819 1.3161-3.1646 2.5065-3.7597 0.81143-0.40576 3.1393-3.7681 3.7597-4.5952 1.3354-1.7806 1.6989-3.7598 4.1775-3.7598h6.2662c0.81134 0 3.8934 1.2532 5.8485 1.2532 2.0958 0 2.5991-2.1814 3.7597-3.342 1.7975-1.7975 2.4694-0.68716 3.342-4.1774 0.55893-2.2369 0.12004-4.0004 0.83552-5.4307 1.8342-3.6683 5.3297-8.6717 7.9372-11.279 2.2049-2.2049 1.6682-4.1788 4.1774-2.9242 1.3135 0.65678 1.8356 5.2536 2.0888 6.2662 0.31134 1.2452 3.6371 1.671 5.4307 1.671 1.0678 0 2.0584-4.1168 2.5065-5.013 1.2495-2.499 3.1548-1.758 3.7597-4.1775 0.58645-2.3461 2.0062-2.4734 4.1774-3.342z" fill="#cc2" id="Nadia" />
  <path d="m128.36 109.07-2.0887 5.013 3.3419 5.8485-5.8484 6.2662-0.83552 10.444v9.1904l-1.6709 15.874-7.5195-7.5194-3.7597-0.83546-17.128-7.1018v7.1018l-6.2662 9.6082-2.9242 3.342v5.013l3.7597 1.671-1.671 16.292 2.9242 3.7597 1.671 4.5952 4.1775 5.4307s2.5065-2.5065 4.5952-2.5065 5.8484-2.9242 5.8484-2.9242l0.83546-5.4308 4.5952-1.671 5.8485 1.2533-0.83552 6.2662 0.41764 4.5952 4.1775 3.342 4.5952 6.684h3.7598l2.9242 6.6839 7.1017 3.342v5.8485l-0.41764 6.2662 6.2662 0.41763 4.1775-0.83553 5.4307 0.83553 3.342 5.8484 4.1774 4.5952 6.684 5.013-0.83547-8.7727-5.013-7.1017-1.671-3.342 2.0888-3.342h-2.5065l-0.41765-21.723-5.8484-9.6082 0.41764-8.355-2.5065-4.1774 2.9243-4.5952v-3.7598l-5.013-2.0888 0.83547-4.1774 4.5952-3.342v-7.9373l-6.6839-4.5951v-5.4307l-4.1775-3.7597 0.41764-5.4307 0.41764-11.279 6.2663-5.013 6.2662-5.013 1.6709-4.1775h-8.7726l-0.41764-2.0887-8.355-0.41764-0.41764-2.5065h-4.1774v3.342l-4.5952-0.41765z" fill="#e2b584" id="North 24 Parganas" />
  <path d="m85.748 189.28 9.6082 13.368-5.013 1.671 0.41776 4.5952-3.7597 1.671-5.4307 1.2532-5.4307-1.671-3.342-4.1774 5.4307-2.0888v-3.342l-5.8485-0.83546-0.41776-3.342h8.7727z" fill="#85c5e3" id="Kolkata" />
  <path d="m138.8 233.98v-7.1017c0-3.0643-0.24757-3.1721-2.0888-5.013-1.3099-1.3099-2.972-2.1365-4.1774-3.342-1.554-1.554-2.5674-2.2105-3.342-3.7597-0.96051-1.9211-1.833-3.423-3.3419-4.1774-1.4651-0.73257-2.9597-2.542-3.7598-3.342-1.3815-1.3815-1.9335-2.8078-3.7597-4.1775-1.6436-1.2326-2.0887-2.8005-2.0887-5.013 0-1.9955-0.0769-4.4851-0.41763-5.8485-0.42764-1.7096-3.1786-1.671-5.013-1.671-2.771 0-3.7598-1.485-3.7598 2.0888 0 2.2233-1.41 4.7521-2.5065 5.8485-1.2996 1.2996-3.7005 0.83548-5.8484 0.83548-2.876 0-4.8172-0.78302-5.4307 1.671-0.58732 2.3494-2.3726 1.9101-3.7597 3.7598-2.0021 2.6694 1.3434 3.6328-2.5065 4.5952-2.009 0.50203-2.6313 1.5978-4.5952 2.0887-2.3824 0.59584-3.4575-0.951-4.5952-2.0887-1.2006-1.2006-1.7625-2.0072-3.7597-2.5065-1.7423-0.43577 2.3557-4.0353 2.9242-4.1774 2.4382-0.60957 1.5372-2.3562 0.83548-3.7597-0.20113-0.40202-5.5903 0-6.2662 0-1.894 0-2.9012 2.495-4.5952 3.342-1.9075 0.95376-4.1248 0.82496-6.2662 1.2532-2.3401 0.46827-3.1727 1.4117-3.7597 3.7598-0.65473 2.6189-1.1881 2.7326 0.83548 5.4307 1.5556 2.0742 0.11961 2.8344-1.671 4.1775-2.1006 1.5754-3.1329 1.2524-3.7597 3.7597-0.55287 2.2116 0 5.2158 0 7.5194v7.1017c0 2.53-0.3835 3.8282 0.41776 5.4307 1.2517 2.5034 5.6997-0.05 8.3549 0.83547 3.1945 1.0649 5.6664 4.2849 6.2662 6.684 0.62796 2.5119 1.2532 3.9029 1.2532 6.684 0 2.4834-1.8868 3.7874-2.5065 6.2662-0.6147 2.4587-3.21 6.4639-4.5952 8.7727-1.4141 2.3568-2.1233 2.9588-3.7597 4.5952-1.6182 1.6182-3.1889 3.9828-3.7597 6.2662-0.63324 2.533 1.0069 2.8011 2.9242 3.7598 2.4008 1.2004 6.3901 2.9861 9.6082 4.5952 2.1057 1.0528 1.0485 4.6485 4.1775 5.4307 2.7018 0.67547 3.342-4.4559 5.013-6.6839 1.1512-1.535 2.1556-3.8934 2.9242-5.4308 0.60733-1.2146 8.4466-0.54517 9.6082-0.83552 0.35443-0.0888 2.2655-8.2424 5.8485 2.5065 0.64082 1.9224 2.677 1.2532 5.013 1.2532 3.1416 0 0.68379-6.3805 2.0888-9.1904 0.10815-0.21632 6.1959 3.22 6.684 3.342 2.9135 0.72836 4.5952 0.31511 4.5952-2.5065 0-3.4636-3.4642-9.0171-5.013-12.115-1.1391-2.2781 1.4988-4.2507 2.0888-5.4307 1.5604-3.1209 1.0653-6.4542 3.7597-3.7597 1.6336 1.6336 1.2804 1.8866 3.7597 2.5064 2.9975 0.74938 3.7747-0.85042 5.013-2.0888 1.563-1.5629 2.4998-0.4045 3.7597-2.9242 1.2574-2.5147 3.0018-4.634 4.5952-5.4307 2.7056-1.3528 3.7028 0.94925 5.013-1.671 0.69273-1.3855 0.80458-4.8894 1.2532-6.684 0.65396-2.616 0.20194-2.9153 2.0887-5.4307z" fill="#a3b0a3" id="South 24 Parganas" />
  <path d="m59.012 179.67c0.96244 0.98827 5.0624 0.83552 7.9372 0.83552 2.5049 0 4.1559 0.83115 6.2662 1.2532 3.0407 0.60834 5.4583 0.82173 7.1017 0 1.6652-0.83257 4.2844-0.41762 6.2662-0.41762 1.7354 0 0.66863 4.845 0.41776 5.8485-0.07166 0.28696-3.001 3.4187-3.342 3.7597-1.4019 1.4019-2.1575 2.2262-2.9242 3.7597-0.55325 1.1064-4.9516 0.83548-6.2662 0.83548-2.748 0-3.1726 0.91454-4.1775 2.9242-0.62715 1.2543-3.4869 1.7434-5.013 2.5065-2.0963 1.0481-2.8839 1.452-5.4307 2.0888-1.5364 0.38388-3.0251 1.8726-3.7597 3.3419-0.74943 1.4989 0.12423 5.2166 0.41776 6.684 0.34218 1.711-2.0833 2.9025-2.5065 4.5952-0.55056 2.2022-0.8355 3.8302-0.8355 6.2662v7.5195c0 2.4434-0.83378 4.5884-1.2532 6.2662-0.62816 2.5126-3.03 1.671-5.4307 1.671-2.6639 0-3.6507-1.8254-5.8485-2.9242-0.80055-0.40013-3.1266-3.1266-3.7597-3.7597-1.8742-1.8742-2.9242-3.3621-2.9242-7.5194 0-1.3147 2.3697-4.8838 2.9242-7.1017 0.88346-3.5339-0.31498-4.3349-2.5065-5.4307-2.061-1.0305-2.8099-2.3922-4.1775-3.7598-1.8843-1.8843-2.9242-2.5904-2.9242-5.4307 0-3.1665 0.52224-4.6996-2.0887-6.2662-1.2653-0.7592-0.16192-4.783 0-5.4307 0.64978-2.5992 3.3273-1.671 5.8485-1.671 2.8136 0 3.6973 0.0625 5.013-1.2532 0.65726-0.65728 0-5.6538 0-6.684 0-2.3358-5e-3 -5.4137 0.41776-7.1017 0.4127-1.6507 2.639-3.4541 3.342-6.2662 0.7386-2.9544 3.4467 3.5515 4.1775 5.013 1.1571 2.3141 1.5901 2.8838 4.1775 4.1774 1.8668 0.93343 3.2062 1.2533 6.2662 1.2533 1.6455 0 2.8361 0.41765 4.5952 0.41765z" fill="#c2f0c2" id="Howrah" />
 </g>
 <g fill="none" stroke="#000">
  <path d="m79.683 74.673 2.3665 3.5497-0.23665 2.3665 2.6031 5.2063 0.70995 2.6031-1.1832 2.3665 3.0764 8.2827 1.4199 1.4199 0.4733 3.7864v2.6031l-1.1832 2.6031 1.8932 3.7864-0.4733 3.3131-0.4733 1.6566-2.3665 3.3131v3.3131l-1.1832 5.6796-0.4733 3.5498 2.1298 2.3665-0.70995 8.0461-0.4733 7.8094-8.5194 25.321-1.8932 5.4429-2.3665 0.70995-2.1298 5.4429v3.0764l-1.1832 2.6031h-2.1298l-2.6031 2.3665-4.2597 1.6566" stroke-width=".5px"/>
  <path d="m37.472 193.03 0.23552 0.43179-0.23552 0.11777 1.2561 1.4131 0.90284 0.11776 1.5309 0.62807h1.8057l1.3739 0.47104 1.2561 0.9421 0.98135 1.2169 1.0206 1.6487 1.3739 0.31403 2.63 1.8057 1.7272 1.4524 0.23552 0.35328-0.54956 1.1776 0.03925 0.27478 0.31403 0.27478 0.23552-0.0393 2.5123-1.6879 1.5309-4.8675 0.31403-0.19627 1.4917 0.62806 0.19627-0.51029 0.62807 0.35328 0.23552-0.43179h0.31403" stroke-width=".5px"/>
  <path d="m56.127 203.93-0.94285 2.3383-0.07543 1.9611-0.49028 0.64113-0.49029 0.11314-0.5657 0.0754-0.64114-0.30172-0.45257 0.90514-0.07543 1.2068-0.07543 0.30172-0.41485 0.30171-0.07543 0.94285-0.07543 1.056-0.03774 0.37713-0.264 1.1691 0.15086 0.15086" stroke-width=".5px"/>
 </g>
 <g fill-rule="evenodd" stroke-width=".16424">
  <ellipse cx="51.707" cy="215.46" rx="2.8377" ry="2.9571"/>
  <ellipse cx="38.286" cy="193.2" rx="2.8377" ry="2.9571"/>
  <ellipse cx="81.553" cy="164.25" rx="2.8377" ry="2.9571"/>
  <ellipse cx="79.686" cy="74.914" rx="2.8377" ry="2.9571"/>
 </g>
 <g fill="#000000" font-family="sans-serif" font-size="3.5278px" letter-spacing="0px" stroke-width=".26459" word-spacing="0px">
  <text x="71.099724" y="65.782936" style="line-height:1.25" xml:space="preserve"><tspan x="71.099724" y="65.782936" font-size="5.6445px" stroke-width=".26459">Krishnanagar</tspan></text>
  <text x="88.090317" y="163.31668" style="line-height:1.25" xml:space="preserve"><tspan x="88.090317" y="163.31668" font-size="5.6445px" stroke-width=".26459">Barasat</tspan></text>
  <text x="58.518913" y="217.79031" style="line-height:1.25" xml:space="preserve"><tspan x="58.518913" y="217.79031" font-size="5.6445px" stroke-width=".26459">Alipore</tspan></text>
  <text x="27.079845" y="187.28508" style="line-height:1.25" xml:space="preserve"><tspan x="27.079845" y="187.28508" font-size="5.6445px" stroke-width=".26459">Howrah</tspan></text>
 </g>
 <ellipse cx="60.387" cy="199.11" rx="2.8377" ry="2.9571" fill-rule="evenodd" stroke-width=".16424"/>
 <text x="69.724922" y="202.22643" fill="#000000" font-family="sans-serif" font-size="3.5278px" letter-spacing="0px" stroke-width=".26459" word-spacing="0px" style="line-height:1.25" xml:space="preserve"><tspan x="69.724922" y="202.22643" font-size="5.6445px" stroke-width=".26459">Kolkata</tspan></text>
</svg>
