<svg width="262.71mm" height="197.73mm" version="1.1" viewBox="0 0 262.71324 197.72393" xmlns="http://www.w3.org/2000/svg" xmlns:cc="http://creativecommons.org/ns#" xmlns:dc="http://purl.org/dc/elements/1.1/" xmlns:rdf="http://www.w3.org/1999/02/22-rdf-syntax-ns#">
 <metadata>
  <rdf:RDF>
   <cc:Work rdf:about="">
    <dc:format>image/svg+xml</dc:format>
    <dc:type rdf:resource="http://purl.org/dc/dcmitype/StillImage"/>
    <dc:title/>
   </cc:Work>
  </rdf:RDF>
 </metadata>
 <g transform="translate(-3.5341 -33.34)" fill-rule="evenodd" stroke="#fff" stroke-width=".5px">
  <path d="m149.64 111.48c1.3882 0 3.5265 1.5987 4.6549 3.1033 1.4157 1.8876 2.0309 2.9509 4.3446 3.4136 1.274 0.25498 2.5107 1.7914 4.0343 2.1723 1.5178 0.37945 3.8651 0.40082 4.9653 0.62069 0.13005 0.0279 0 4.2452 0 4.6549 0 1.8118-0.0339 3.0351 0.62068 4.3446 0.73773 1.4755 3.0589 2.5048 4.0343 3.724 1.5299 1.9123 2.6302 4.004 3.1033 5.8962 0.17417 0.69662 1.7577 2.068 2.1723 2.4826 0.8052 0.80516 1.5933 4.2009 1.862 5.2756 0.57897 2.3159-0.87362 3.6894 1.2413 5.2756 2.9208 2.1906 4.6361 3.0656 6.2066 6.2066 0.82424 1.6485 0.62068 3.726 0.62068 5.5859v4.6549c0 1.6016 1.1744 2.294 2.1723 2.793 1.3922 0.69611 3.0994 1.239 4.6549 2.1723 1.7365 1.0419 2.0933 1.8225 4.0343 2.793 2.1892 1.0946 3.6064 1.8032 5.5859 2.7929 1.7857 0.89286 2.677 0.38876 3.4136 1.862 0.5845 1.169 0.31024 2.956 0.31024 4.3446 0 2.4446-1.9164 2.665-3.4136 3.4136-1.1993 0.59969-2.4287 2.7391-3.1033 3.4136-0.78323 0.78324-3.656 0.37109-4.6549 0.62068-0.88119 0.22014-1.3412 2.8822-1.5517 3.724-0.50972 2.039-1.0401 3.2124-2.1723 4.3446-1.1146 1.1145-1.7979 4.2163-2.4826 5.5859-0.70692 1.4139-1.3778 2.6626-2.793 3.724-1.8584 1.3938-1.9332 1.7424-4.0342 2.793-1.5995 0.79973-2.8504 2.54-4.0343 3.724-1.4369 1.4369-3.3054 3.5417-5.2756 4.0342-1.652 0.41289-3.3773 1.5154-4.6549 2.793-1.0736 1.0736-3.0105 1.7692-4.0343 2.7929-0.52617 0.52622-3.2584 1.2413-4.3446 1.2413h-10.551c-2.216 0-3.1918 0.70916-4.3446 1.862-1.4974 1.4974-1.7686 1.3348-2.793 0.31024-0.53297-0.53299 0-4.4918 0-5.2756v-6.8272c0-1.1003-2.8448-2.1982-3.4136-2.4826-1.5502-0.77511-2.6548-1.4395-4.3446-1.862-1.545-0.38642-2.3095-0.88774-3.724-1.2413-2.0222-0.50554-3.3072-0.51418-4.3446-1.5517-1.1303-1.1303-1.5283-2.149-2.4826-3.1033-0.88653-0.88649-1.5659-2.5398-1.862-3.7239-0.35875-1.435 0.31033-3.3669 0.31033-4.9653 0-1.3667-2.3045-1.5517-3.7239-1.5517-0.96982 0-2.5397 1.425-3.4136 1.862-1.6996 0.84979-2.2743 2.1202-3.724 2.4826-1.7094 0.42729-0.89077 4.1794-2.793 4.6549-1.3532 0.33811-3.2518 0-4.6549 0-1.4797 0-1.5516-3.8347-1.5516-4.9653 0-2.5054-0.49251-4.6009 0.31034-6.2066 0.66028-1.3206 1.5516-1.5766 1.5516-4.0343 0-1.4093-3.2552-3.7603-4.0343-4.3446-0.96753-0.72566-4.0786-0.63174-5.2756-0.93099-2.0288-0.50722-2.7304-0.88406-4.0343-1.862-1.416-1.062-2.3379-0.73809-3.4136-2.1724-1.2472-1.6629-2.5234-2.5234-3.4136-3.4136-0.46376-0.46352-3.9176 0-4.6549 0-2.1713 0-2.1723-0.37807-2.1723-2.4826 0-1.5043 1.2769-3.1389 1.862-3.724 0.8808-0.88077 2.5155-0.01 3.724-0.31024 0.32353-0.0808 1.18-2.6224 3.1033-3.1033 3.0951-0.77376 2.6814-0.62069 5.8963-0.62069 2.1042 0-2.1723-4.1735-2.1723-6.5169 0-2.9636 0.41497-4.5503-1.2413-6.2066-1.5982-1.5982-2.3736-2.1178-4.3446-3.1033-1.5996-0.79979-1.5516-1.8445-1.5516-3.724 0-0.3906 3.6618-1.2102 3.724-1.2413 0.29976-0.15002-2.5065-3.9866-2.793-4.6549-0.98924-2.3082-0.66834-3.6821-2.793-5.2756-1.6583-1.2438-2.388-1.5517-4.6549-1.5517-1.7485 0-3.6038-2.3225-4.6549-3.724-0.93382-1.2451-2.4393-1.4938-3.4136-2.793-0.91511-1.2202-2.0156-1.6285-3.1033-2.1723-1.9447-0.97232 0.80373-3.2864 1.5516-4.0343 1.1572-1.1571 1.2256-2.73 1.5516-4.0343 0.18035-0.72137 4.2329 0 4.9653 0 0.83638 0 2.8573 3.4779 3.4136 4.0343 1.3672 1.3673 3.7538 2.4126 5.2756 2.793 3.2615 0.81538 4.8242 2.6519 7.1376 4.9653 2.2623 2.2623 5.6369 3.7749 8.0686 6.2066 1.3937 1.3937 1.862 1.6645 1.862-0.93102 0-2.1175 0.56705-2.7929 2.793-2.7929 2.2852 0 4.1259-1.7308 5.8962-2.793 0.89822-0.5389 0.9922-2.8542 1.862-3.724 1.2588-1.2588 1.5516-2.1344 1.5516-4.0343 0-1.8908-0.62064-2.5925-0.62064-4.6549 0-2.2301-0.28615-3.4973 1.862-4.0343 1.9698-0.49245 4.0348-0.46561 5.8962-0.93098 1.6178-0.40453 3.421-1.8693 4.3446-2.793 1.0008-1.0007 3.9709 0.0139 5.2756-0.31025 1.68-0.41986 0.77321-1.862 3.724-1.862 2.1373 0 4.0581 0.31025 6.2066 0.31025 2.842 0 5.1151 0.89085 7.7582 1.5517 1.7295 0.4324 3.2834 0.34091 2.793 2.7929" fill="#cc2" id="East and West Midnapore" />
  <path d="m105.88 40.414c1.5258 0.10776 4.2638 1.4708 5.2756 2.4826 1.4813 1.4812 0.77928 2.2516 3.1033 3.4136 2.1846 1.0923 1.48 1.8441 4.0343 2.4827 2.4015 0.60034 4.2386 1.5516 6.5169 1.5516 2.0096 0 5.0558 1.7521 6.5169 2.4826 1.5484 0.77423 3.7124 4.1224 4.3446 4.9653 0.6704 0.89387 3.9713 2.4196 5.2756 3.724 1.5728 1.5728 1.3994 2.1342 4.0343 2.793 2.1087 0.52714 3.485 2.5733 5.5859 3.4136 3.2083 1.2833 4.7037 5.014 7.1376 7.4479 1.3616 1.3617 2.1765 3.1075 3.1033 4.0343 1.363 1.363 1.2413 3.0494 1.2413 4.9653 0 1.5624 4.3557 4.3557 5.2756 5.2756 1.4127 1.4127 2.0324 1.8924 3.1033 4.0343 1.3042 2.6084 3.5131 3.9111 4.0343 6.5169 0.28689 1.4345-3.0361-0.03251-4.3446 0.62068-1.2094 0.60466-1.5933 1.3246-2.1723 2.4826-0.62077 1.2415-2.4002 0.93098-4.0343 0.93098-1.9435 0-3.2628 0.11936-4.3446 0.93097-0.94177 0.70633-0.31034 5.0247-0.31034 6.2066 0 2.5368-1.0971 1.862-3.4136 1.862-1.604 0-2.7743-0.62064-4.6549-0.62064-1.9206 0-3.2721 0.0706-4.6549-0.62068-1.1901-0.59505-2.8983-0.62064-4.3446-0.62064-2.2371 0-4.7825-0.31025-7.1376-0.31025-1.7894 0-3.0197-0.11333-4.0343-0.62068-0.70125-0.35066-4.8834 0.93098-6.2066 0.93098-2.1355 0-3.0886 0.30746-4.6549 0.62068-2.3527 0.47053-3.9751 4.0195-6.5169 4.6549-1.7631 0.44075-1.5516 0.99521-1.5516 3.1033 0 2.0208-0.62065 2.7702-0.62065 4.6549 0 0.93966-0.931 2.4965-0.931 4.0343 0 1.0922-1.3643 2.2953-1.862 2.793-1.0367 1.0367-2.8734 1.9022-4.0343 2.4826-0.41378 0.20668-0.82756 0.41382-1.2413 0.62068-1.9581 0.97906-4.1633 1.0601-5.2756 2.1723-1.9407 1.9407 2.4781 2.7907-4.3446-0.62063-2.6971-1.3486-4.6589-4.3485-5.8963-5.586-0.9294-0.9294-2.9184-1.6144-4.0343-2.1723-1.6585-0.82921-3.1318-2.4969-4.9653-3.4136-1.9154-0.95773-2.8971-1.7588-4.3446-2.4826-1.2674-0.63369-1.7967-1.8294-3.1033-2.4826-2.4974-1.2487 0.89631-3.1722 1.862-3.4136 0.99728-0.24941 3.509-3.334 4.0343-4.0343 0.76989-1.0266 0.89908-2.6654 1.2413-4.0343 0.37109-1.4844 1.4669-3.0747 1.862-4.6549 0.49207-1.9683 0.46309-3.9507 1.2413-5.8963 0.80919-2.023 2.5571-4.3321 3.1033-6.5169 0.46124-1.845 0-4.2923 0-6.2066 0-2.1775 0.13202-3.9419 0.62066-5.8963 0.56672-2.267 1.5473-4.6374 2.1723-7.1376 0.52083-2.0834 0.32103-3.114 1.5516-4.3446 1.6376-1.6376 3.2894-2.317 4.3446-3.724 1.1874-1.5832 1.862-1.682 1.862-4.0343 0-0.14444-3.1033 0.70623-3.1033-1.5517 0-1.085 2.7262-1.8286 3.4136-2.1723 1.5164-0.75816 1.4946-1.8334 2.793-2.4826 1.7652-0.88263-0.09374-2.8867-0.62066-3.4137-1.3277-1.3277-0.23445-2.6344 0.31034-3.724 0.5734-1.1468 0.33137-2.8982 0.62064-4.3446 0.22262-1.113 3.3351-0.62064 4.3446-0.62064 1.1544 0 1.4078-0.37713 2.793-0.93098z" fill="#e2b584" id="Bankura" />
  <path d="m99.676 42.276c1.5551 0-0.31034 3.0998-0.31034 4.6549 0 1.5252 0.04222 3.272 0.31034 4.3446 0.49656 1.9863-0.85349 2.9094-1.862 3.4136-1.3165 0.65826-2.985 2.3164-4.0343 3.1033-1.7947 1.346 0.19628 3.0462 0.931 3.4136 1.6226 0.81129 0.73036 2.2632 0.31034 3.1033-0.73109 1.4621-2.1884 3.4297-3.1033 4.3446-1.2566 1.2566-2.5788 1.626-3.1033 3.724-0.36895 1.4758-0.51776 3.002-0.93099 4.6549-0.36481 1.4593-0.62671 2.8232-0.93099 4.3446-0.32177 1.6087-0.3103 3.2213-0.3103 4.9653 0 1.6168-0.02224 3.5033-0.31033 4.6549-0.43022 1.7208-2.222 4.3943-3.1033 5.2756-0.75299 0.753-0.96705 3.5579-1.2413 4.655-0.52516 2.1007 0 4.9678 0 7.1375 0 1.8109-1.1414 3.0034-2.4826 4.3446-1.1587 1.1586-2.2194 2.5298-3.4136 3.724-1.306 1.3059-1.4599 2.1264-2.793 2.7929-1.5142 0.75709-2.4391 2.7495-3.724 4.0343-1.1233 1.1233-2.6876 2.1196-4.0343 2.793-1.543 0.77149-2.2389 0.99192-3.7239 0.62064-2.1135-0.52835-3.5031-2.0618-4.9653-2.793-0.88717-0.44354-2.1463-2.6889-2.4826-4.0342-0.72528-2.9011-0.9321-3.7234 1.5516-4.9653 1.8115-0.90576 4.3446-0.14444 4.3446-3.1033 0-1.7514-0.01759-3.6538 0.31034-4.9653 0.28554-1.1422 3.3143-1.2941 4.3446-1.5517 2.2264-0.55659 2.793 0.42822 2.793-2.4826 0-2.393-3.2352-2.4826-5.2756-2.4826h-15.516c-1.0531 0-2.1167-1.7507-2.4826-2.4826-0.92708-1.8542-2.4066 0.27216-3.724 0.93102-1.7382 0.86907-1.3161 1.7657-3.4137 1.2413-1.7817-0.4454-3.1164-4.8166-4.6549-5.5859-1.3245-0.66225-1.8226-1.5123-2.793-2.4826-1.5851-1.5851 1.2695-2.6307-1.862-3.4136-0.31736-0.07942-0.62066-0.20668-0.931-0.31025-1.8227-0.60754-2.2622-1.1311-3.7239-1.862-0.8039-0.40174-2.4772-2.4716-2.793-3.1033-0.37174-0.74353-3.1826-1.7663-3.7239-2.1723-0.59761-0.44819-3.1926 0.97561-3.724 1.2413-1.9361 0.96809-3.1226-1.0084-3.4136-2.1723-0.4808-1.9232-1.4285-2.1575-3.1033-3.4136-1.802-1.3515-2.793 0.62988-2.793-2.7929 0-2.2465 1.0626-3.6295 1.5516-5.586 0.56373-2.2549 2.4826-0.68482 2.4826-2.7929 0-1.9429-0.14509-3.2685 0.93098-4.3446 1.8008-1.8008 3.04 1.2474 3.724-2.1723 0.21945-1.0972-2.5216-0.77646-2.793-1.862-0.42079-1.6831 0.42093-2.9036 1.2413-3.724 1.7004-1.7004 3.8826-1.5517 6.8272-1.5517h4.9653c2.3013 0 2.4826 0.16627 2.4826-2.1723 0-1.5558-1.9327-1.5608-0.31034-3.724 0.64637-0.86182 4.5914-0.31025 5.5859-0.31025 3.6286 0 3.8459 4.2117 4.655 7.4479 0.65205 2.6082 2.5778 1.6328 5.2756 2.1723 0.67458 0.13469 0.33593 2.3636 2.4826 2.793 1.5261 0.30514 2.9577 0.62064 4.9653 0.62064 2.4327 0 4.4712 0.67772 5.5859-1.5516 0.98986-1.9797 1.2413-2.297 1.2413-4.6549 0-1.1311-0.931-1.8499-0.931-3.724 0-3.0583 1.3204-2.1723 4.3446-2.1723 2.0005 0 2.2028-3.2557 2.4826-4.6549 0.2828-1.414 3.7781-0.93098 4.9653-0.93098 2.5058 0 2.8886-0.09568 4.3446-1.5516 1.3035-1.3036 2.5731-2.2628 3.4136-3.1033 1.8114-1.8114 0.53638-1.5517 3.724-1.5517 2.0286 0 3.8373 0.05666 5.5859 0.93102 1.7785 0.88922 2.9945 0.83828 3.724-0.62068 0.79859-1.5972 3.847 0.14027 5.2756-0.93098 1.5509-1.1632 3.4383 1.266 4.0343 1.862 0.81818 0.81816 3.0183 1.8731 4.0343 2.4826 0.64769 0.38874 1.4064 6.0033 1.5516 6.2066" fill="#a3b0a3" id="Purulia" />
 </g>
 <g fill="none" stroke="#000">
  <path d="m142.77 135.5 2.1655 0.16866 0.36091 3.2047 2.346 1.518 1.985 0.33734 2.7068 0.16868 4.1505-0.50602 2.5264-0.33732 1.6241-1.012 2.8873 0.67466 1.4437 0.16868 2.5264-0.67466 5.2333 0.67466 9.7447-1.6867 3.0678 0.84334 1.4436-1.3494 2.8873 0.84334 11.91-4.048 3.4287 1.1807 2.5264-2.53 6.4965-1.518 1.2632-0.84333 1.8046 0.33732 4.6919-0.33732 1.4437-0.84334h3.6091l1.8046 0.33732h1.6241l2.7068-2.024 1.8046-2.1927 0.72183-1.6867 0.18045-1.3493 1.4437-1.8554v-1.1807l6.1355-1.6867 1.6241-1.8553 1.2632-0.67467 1.2632-0.33734 1.2632 0.506 0.72183 1.3494 2.7069 0.67466 1.8046 2.024 2.5264 1.6867 1.4436-0.33732 1.8046-2.1927" stroke-width=".5px"/>
  <path d="m259.89 119.14 0.56505-3.3902 0.56504-1.6951-0.28254-3.6728-7.3455-0.84755-11.583-27.687-0.28253-3.3902-4.5203-5.9329-0.56501-3.1077-3.6728-5.3679-3.6728-3.6728-2.2602-3.3902-1.6951-3.3902-1.4126-3.9553-3.1077-1.6951-2.2602 0.56504-1.1301-0.84755-1.9776-1.1301-2.8252-0.56505-5.0854 0.28253-3.1077-1.6951-0.84757-3.6728-14.409-8.7581-12.431-5.6504-2.2602-1.9776h-2.5427l-5.0854-3.1077-1.4126-2.5427-2.8252 0.28251-9.3232-5.6504-2.2602 0.84755-3.9553 3.1077 0.56505 2.8252-7.6281 14.409-2.2602 0.56504-2.9223 2.8128-1.7092-0.21366-1.4956 1.7093-2.5639 0.21366-2.1366 1.2819-1.4956 2.1366v1.9229l-1.4956 2.1366-5.7687 0.64097-2.1366-1.2819-10.042-1.2819-1.7092 2.1366h-1.9229l-3.2048-3.2048-8.9736-2.9912-1.0683-2.5639-10.042-3.2048-1.0683 0.85462-6.6233-4.9141-12.392-0.85462-6.4097 3.2048-2.3502-0.85463" stroke-width=".5px"/>
  <path d="m123.76 47.268 1.9394 0.89198 3.0199-0.23019 4.5437 2.0141 1.7455 3.8269 4.9593 1.8127 6.9264 6.0712 3.9065-0.46038 3.2416 2.2443 5.4303 1.8127 6.4832-0.23018 8.8658 1.784 8.4502 5.8698 7.3697 7.1934 2.3827 0.89198 4.9593 4.4887 1.5238-0.6618 0.63723 2.0142 3.9065 2.2443 3.0199-0.89197 2.6043 3.1363 9.0875-0.4316 4.5437 3.1363 1.0805 1.1222 2.161 0.46037h1.7455l1.0805-0.46037 9.0875 2.7047 3.2416 3.8269 2.826 3.3665 3.9065 2.676 3.2416 2.0429h1.7177" stroke-width=".5px"/>
  <path d="m186.98 137.69-0.13298 0.55548 0.66494 0.71417-0.53196 0.79354-0.26597 1.0316v0.39676l0.66495 1.5871v0.79354l1.4629 2.0632-0.39897 0.63483 0.66495 1.349v0.63483l1.7289 1.5077 1.0639-0.23805 1.1969-0.79354 1.0639 0.47612" stroke-width=".5px"/>
  <path d="m135.01 53.771 8.2884 10.673 2.4063 4.9462 0.8021 4.1652 0.26738 8.3304-2.941 11.715-0.26736 9.8924-0.53473 2.0826" stroke-width=".5px"/>
  <path d="m143.03 105.58-1.5514 5.1713 1.5514 2.5856-1.2928 21.461" stroke-width=".5px"/>
 </g>
 <g fill-rule="evenodd" stroke-width=".26136">
  <ellipse cx="142.45" cy="133.9" rx="2.6461" ry="2.7506"/>
  <ellipse cx="124.06" cy="47.213" rx="2.6461" ry="2.7506"/>
  <ellipse cx="50.148" cy="33" rx="2.6461" ry="2.7506"/>
  <ellipse cx="194.03" cy="149.33" rx="2.6461" ry="2.7506"/>
  <ellipse cx="260.07" cy="118.94" rx="2.6461" ry="2.7506"/>
 </g>
 <g fill="#000000" font-family="sans-serif" font-size="3.5278px" letter-spacing="0px" stroke-width=".26459" word-spacing="0px">
  <text x="146.50601" y="130.3777" style="line-height:1.25" xml:space="preserve"><tspan x="146.50601" y="130.3777" font-size="5.6445px" stroke-width=".26459">Midnapore</tspan></text>
  <text x="239.87627" y="126.66039" style="line-height:1.25" xml:space="preserve"><tspan x="239.87627" y="126.66039" font-size="5.6445px" stroke-width=".26459">Kolkata</tspan></text>
  <text x="109.98885" y="55.37537" style="line-height:1.25" xml:space="preserve"><tspan x="109.98885" y="55.37537" font-size="5.6445px" stroke-width=".26459">Bankura</tspan></text>
  <text x="52.261097" y="40.724766" style="line-height:1.25" xml:space="preserve"><tspan x="52.261097" y="40.724766" font-size="5.6445px" stroke-width=".26459">Purulia</tspan></text>
  <text x="167.7166" y="152.24428" style="line-height:1.25" xml:space="preserve"><tspan x="167.7166" y="152.24428" font-size="5.6445px" stroke-width=".26459">Tamluk</tspan></text>
 </g>
</svg>
