<svg width="119.66mm" height="429.26mm" version="1.1" viewBox="0 0 119.66089 429.25182" xmlns="http://www.w3.org/2000/svg" xmlns:cc="http://creativecommons.org/ns#" xmlns:dc="http://purl.org/dc/elements/1.1/" xmlns:rdf="http://www.w3.org/1999/02/22-rdf-syntax-ns#">
 <metadata>
  <rdf:RDF>
   <cc:Work rdf:about="">
    <dc:format>image/svg+xml</dc:format>
    <dc:type rdf:resource="http://purl.org/dc/dcmitype/StillImage"/>
    <dc:title/>
   </cc:Work>
  </rdf:RDF>
 </metadata>
 <g transform="translate(-46.95 -3.1818)" fill-rule="evenodd" stroke="#fff" stroke-width=".5px">
  <path d="m102.21 4.7992c0.7615 1.7977 0.20913 2.7801 3.1277 2.7801 1.3559 0 0.43133-2.864 1.3901-3.8227 0.99347-0.99349 4.3255 0.59891 4.5178 0.69503 1.7361 0.86805 0.23238 2.5486 3.1277 3.1277 2.5016 0.50035 2.7802-0.56067 2.7802 2.4326 0 2.2154 1.2108 3.8227 3.8227 3.8227 0.34857 0-1.0317 5.1695-1.0426 5.2128-0.38211 1.5285-2.7086-1.6661-3.8227-2.7802-2.0991-2.0991-2.0851 0.28762-2.0851 2.4326 0 1.5685-2.173 1.4121-3.4752 1.7376-1.2706 0.31779-3.0732 1.5366-4.1702 2.0851-2.0189 1.0094-1.7376 2.5673-1.7376 4.8653 0 1.3589-1.7701 3.1601-2.7802 4.1702-1.2462 1.2462-3.6606 1.3576-5.5603 1.7376-2.0869 0.41764-3.15 1.2275-4.8653 2.0851-1.6907 0.84533-2.8878 2.834-4.1702 3.4752-1.7699 0.88495-2.5892 1.669-3.1277 3.8227-0.53189 2.1276 0.22687 3.3546 1.0426 4.1702 1.4784 1.4785 1.7376 1.7692 1.7376 4.1703 0 1.6021-2.6545 2.0223-3.4752 2.4326-1.4001 0.70006-2.0851 2.8463-2.0851 4.5178v5.9079c0 0.91771-1.7376 2.7955-1.7376 4.8652 0 1.7944 0.5651 3.5628 1.0426 4.5178 0.79023 1.5804 1.2141 2.0761 1.7376 4.1702 0.42331 1.6932 3.2481 1.0426 5.2128 1.0426 0.67347 0 3.7435-1.1097 4.8653-1.3901 2.0837-0.52092 2.7431-5.6344 4.5178-2.0851 0.90732 1.8146 0.87373 3.5976 2.0851 5.2128 1.5152 2.0202 2.4216 3.4641 3.8227 4.8652 1.3261 1.3262 1.556 0.82966 2.0851 3.4752 0.0193 0.09619 3.6193 1.5342 3.8227 1.7376 2.0784 2.0784 3.4752 2.1015 3.4752 5.2128v2.6006c0 0.8214-4.3568-0.59767-6.6686-0.55306-4.1262 0.07963-4.8291 2.5316-5.7979 4.5775-3.2146 3.1882-2.6965 2.5643-3.8756 3.4487-1.3907 1.043-1.2478 0.74233-2.3513 1.8459-0.89404 1.8913-2.4901 4.6932-2.8433 6.1062-0.66934 2.6774-1.1553 4.7546-3.9579 6.1559-1.0246 5.7042-2.9675 2.5094-3.5249 3.6244-0.78716 1.5743-0.17491 1.5197-0.66376 2.8886-0.40953 0.40932-0.40176 1.1614-0.74928 1.6248-1.0479 1.3972-1.412-2.7227-1.6113-2.2243-0.02235 0.0556-0.04723-1.0189-0.14115-5.0782-0.08263-3.5713-0.53435-3.1774-1.1889-4.4772-1.0717 0.49158-4.055-5.1282-3.0483-5.2488 1.0801-2.4803-1.1922-2.071-1.5773-4.4457l-0.57517-3.5472v-6.9504c0-1.4405 1.0426-2.4359 1.0426-4.5178 0-2.9849 0.42524-3.7221-2.4326-4.8652-1.882-0.75284-2.9831-1.7237-3.8227-3.8228-0.74306-1.8577-1.4688-2.4719-2.7801-3.1276-1.7943-0.89718-3.732-3.037-4.5178-3.8227-1.0099-1.0099-0.42092-5.1588-0.69503-6.2554-0.05928-0.23717-4.23-1.3181-4.5178-1.3901-1.3028-0.32558-2.4406-1.5678-3.4752-2.0851-0.79716-0.39841 0.34753-3.0581 0.34753-4.1703 0-1.5944 0.34754-3.4876 0.34754-5.2128 0-1.8972 0.27368-3.5274 0.69503-5.2128 0.47356-1.8943 1.4109-2.7957 2.7802-3.8227 1.2356-0.92665 2.1427-2.7365 3.1277-3.4752 1.2175-0.91311 2.2305 0.94149 3.1277 1.3901 1.4142 0.70708 4.0926 0.02122 4.1702 0 0.46487-0.11657 1.5006-3.9332 1.7376-4.1702 1.7197-1.7197 2.363-3.5099 4.1702-4.8653 1.0327-0.77452 4.5369-0.78671 5.5603-1.0425 1.0008-0.25016 2.6705-2.6705 3.1277-3.1277 1.3018-1.3017 1.5908-2.533 3.4752-3.4752 1.4401-0.72002 2.0356-1.2908 3.8227-1.7376 1.942-0.48578 3.6738 0.24808 4.1702-1.7376 0.53184-2.1273 1.7932-4.2815 2.4326-5.5603 0.43933-0.87873 3.5169-1.0843 4.1702-1.7376 1.8157-1.8157-1.3722-3.2101-2.4326-3.4752-0.60264-0.15075-1.5927-5.3281-1.7376-5.9078-0.55682-2.2273 0.66916-2.941 1.7376-3.4752 2.2268-1.1134 1.2354-2.1625 3.4752-1.0426" fill="#cc2" id="Uttar Dinajpur" />
  <path d="m85.527 124c1.7244-0.86219 0.82265-2.1245 2.0131-3.8093 2.8714-1.6256 3.4495-4.8353 3.8947-6.6163 0.40402-1.616 1.362-3.0716 2.0851-4.5178 0.78026-1.5605 1.6162-2.3719 3.1277-3.1277 1.2221-0.61105 2.0078-2.2202 3.1277-2.7802 1.2343-0.6172 1.5668-2.9569 2.4326-3.8227 1.1988-1.1989 2.0168-1.0426 4.1702-1.0426 2.3145 0 3.5912 0.23196 5.2128 1.0426 2.2973 1.1486 3.7745-0.04689 5.9078 2.0851 1.0943 1.0943 1.6952 2.6954 2.4326 4.1703 0.54955 1.0991 5.0654 1.527 5.9078 1.7376 2.1381 0.5345 1.994-2.0851 4.1702-2.0851 1.7441 0 2.4792 3.916 2.7802 4.5178 1.0402 2.0804 1.9786 2.0851 4.1702 2.0851 0.054 0 1.8989-4.1535 2.4326-4.8652 1.156-1.5413 3.0491 0.50451 4.1702-1.7376 0.9468-1.8935 3.3748 0.24704 4.1702 1.0426 1.1596 1.1595-1.0334 2.7983 0 4.8653 0.93291 1.8658 0.69506 3.7476 0.69506 5.9078 0 2.2825 0.61706 3.0497 1.7376 4.1702 1.0618 1.0618 1.8852 1.5377 2.7802 2.4327 0.73808 0.73802 1.8647 2.5596 2.7802 3.4752 1.7375 1.7375 5.1926 2.3407 6.9504 2.7802 1.1733 0.29336 2.62 0.18727 3.4752 1.0425 1.2716 1.2716-3.6043 0.58585-5.2128 1.3901-0.69705 0.34848-0.84404 3.3762-1.0426 4.1702-0.45611 1.8244 0 4.3649 0 6.2553 0 0.56119-3.5287-1.9087-3.8227-2.0851-0.97893-0.58736-4.0953-0.0682-5.2128-0.34743-0.71092-0.17793-2.4678-3.1629-3.1277-3.8227-0.66771-0.66773-0.44157 2.4604-0.69502 3.4752-0.0469 0.18047-4.742 0-5.2128 0-3.4407 0-4.0691-0.9414-6.6029-3.4752-1.5892-1.5892-3.4781-0.1722-4.5178 0.34743-1.3666 0.68327-3.5859 0.34743-5.2128 0.34743h-5.2128c-1.2237 0-3.2193 0.695-4.8653 0.695h-5.2128c-1.7948 0-0.0365-3.7502 0.34753-4.5177 0.67174-2.3996 0.2184-3.0764-0.63638-3.9312-3.1691-0.82247-3.8345 0.2252-5.619-0.52798-2.2325-0.94231-3.7533 5e-3 -5.3888-0.28437-2.2109-0.19621-3.2926-0.25108-5.3843-1.5119-1.4837-1.1127-4.3614-1.5237-6.147-1.1057-2.2554 0.52799-1.1604 2.2581-1.494 3.5925-0.93439 0.51089-2.5815 0.63423-3.5925 0.0363-1.28-0.77998-0.29859-1.2993 0.57771-1.6476 1.2567-1.2567-0.60389-5.4843 2.6631-4.0032" fill="#e2b584" id="Dakshin Dinajpur" />
  <path d="m74.88 111.55c1.2901 2.9338 0.66879 2.2979 1.9589 3.764 1.5123 1.7186 2.4326 1.3229 2.4326 3.8227 0 2.2194 0.34748 3.5078 0.34748 5.5604 0 2.0649 0.71437 2.8188 1.3901 4.1702 1.0156 2.0313 1.2508 1.7376 3.8227 1.7376 2.1778 0 1.7376-1.4416 1.7376-3.4752 0-0.68637 3.9772-0.59258 4.8174-0.20363l3.727 1.7255c2.1633 1.0016 7.3136 0.57618 9.1791 1.0426 2.2397 0.55994 4.2512-0.66186 5.5843 0.67114 1.5647 1.5648-2.6691 7.2259-0.70689 8.3163l1.7255 0.95891c1.8194 1.0111 0.18438 3.844 1.0426 5.5603 0.8385 1.677 1.5916 1.6267 1.0426 3.8227-0.48495 1.9398-0.65203 3.6076-1.0426 5.5603-0.71281 3.564 0.0576 3.0701-2.0851 5.2128-1.5053 1.5053-2.2247 1.2535-2.7802 3.4752-0.37166 1.4867-1.9948 2.41-3.4752 2.7802-1.6353 0.40882-2.6247 1.0906-3.8227 1.3901-1.1864 0.29644 2.6765 2.0851 3.8227 2.0851 0.24205 0-3.2707 0.47019-4.1702 0.69501-1.9532 0.48839-1.9583 1.9431-4.1702 1.3901-1.2217-0.3053-2.4741-3.1692-3.1277-3.8227-1.0856-1.0856-0.73348-3.8534-2.4326-5.2128-1.4814-1.185-4.6049 0-6.2554 0-0.69831 0-2.4975 2.845-2.7802 3.1277-1.1563 1.1563 0.79172 4.0161 1.0426 4.5177 1.091 2.182 1.7488 2.2308 0.69505 4.8653-0.76814 1.9203-2.0148 3.0573-3.1277 4.1702-1.507 1.507-2.4496 2.7971-3.8227 4.1703-1.48 1.48-1.933 3.8659-2.7802 5.5603-1.7037 3.4074-2.2029 1.3654-5.2128-1.0426-2.0852-1.6681-3.1185-2.0667-4.1702-4.1702-0.91701-1.8341-3.0307-3.3782-4.1702-4.5177-1.2448-1.2449-2.3288-1.9467-3.4752-3.4752-0.59914-0.79883 0-4.5484 0-5.5603 0-2.0212 0.04629-3.9857-0.34753-5.5603-0.48422-1.9369 0-4.617 0-6.6029 0-1.0526-1.4284-3.5519-1.7376-4.1702-0.76803-1.5361-1.8107-3.1094-3.1277-4.8653-1.2092-1.6122-2.3212-1.9867-2.7801-3.8227-0.51912-2.0764 0.34233-3.7968 0.69503-5.5603 0.35835-1.7918 1.3901-2.4476 1.3901-4.8652 0-1.1723 3.576-0.69501 4.5177-0.69501 2.5273 0 2.7802-0.66006 2.7802-3.1277 0-1.4166-1.9884-2.336-2.7802-3.1277-1.6688-1.6687-2.9071-3.9497-4.5177-5.5603-1.6343-1.6343-1.2964-5.3729-2.4326-7.6454-0.84333-1.6866 3.8737-0.19917 5.5603-1.0425 1.1886-0.59433 2.1041-3.8607 2.7802-5.2128 1.0403-2.0806 2.0851-1.4408 2.0851-4.5178 0-2.3224 1.6909-2.0851 3.8227-2.0851 1.998 0 3.4299 2.0398 4.1702 2.7802 1.9472 1.9472 3.3021 3.7791 5.9078 3.1276 2.4078-0.60192 1.1577-2.5589 2.4734-0.13968 0.32517 1.4896 2.7105 1.5661 0.66318 3.3171z" fill="#a3b0a3" id="Malda" />
  <path d="m55.371 177.27 15.162 15.24 1.0933 4.467 17.028 20.851h6.6029l5.2128 7.2979 12.858-0.69502 8.688 7.9929 12.858-1.39 4.8653 5.2128-2.7802 18.419c-7.9929 4.8652-8.688 11.816-8.688 11.816l-5.9078-2.7802-2.7802-3.8227v3.8227s-1.0426-2.7802-3.1277 2.0851-2.4326 1.3901-4.1702 5.2128-1.3901 1.7376-1.3901 5.9078-1.3901 3.8227-4.5178 5.2128-3.1277-2.4326-5.5603-0.69502c-2.4326 1.7376 3.8227 0.34743-2.4326 1.7376-6.2553 1.3901-3.1277-2.4326-6.2553 1.3901-3.1277 3.8227 0.69503 2.4326-3.1277 4.1702-3.8227 1.7376 0 2.0851-3.8227 0.34743-3.8227-1.7376-1.3901-4.8652-3.8227-1.7376-2.4326 3.1277 3.1277-0.69503-3.1277 2.4326-6.2553 3.1277-7.2979 9.0356-6.9504 1.7376 0.34753-7.2979 4.1702-3.1277-0.34753-7.2979-4.5177-4.1702-0.69503-6.6029-4.8653-4.1702-4.1702 2.4326 0.34754 9.7305-4.1702 3.8227-4.5178-5.9079-0.69504 0.34743-4.5178-6.2554-3.8227-6.6028-4.1702 2.0852-3.4752-7.2979 0.69505-9.383 3.1277-12.511 3.1277-12.511l-0.34753-11.468 4.1702-0.69501 5.9078-2.4326 0.69505-6.2554 0.69504-6.2554-4.5178-3.1277 1.3901-3.4752 0.34753-10.773-7.993-8.3405s0.27264 1.327 0.69504-1.7376c1.2919-9.373 1.7376-14.248 1.7376-14.248s5.2128 1.3901-1.3901-2.0851-9.0355-4.1702-6.9504-4.5178c2.0851-0.34743 5.2128-0.34743 5.2128-0.34743z" fill="#f9d3c6" id="Murshidabad" />
 </g>
 <g fill="none" stroke="#000">
  <path d="m37.713 146.11-3.8212 8.0245-4.5854 4.5854-4.9675 4.2033-2.6748 1.5285-3.4391 3.439-1.1464 1.9106h-3.0569l-0.38212 3.8212-0.76424 4.5854 1.5285 4.5854 2.6748 4.2033 1.1464 1.1463 3.4391 1.1464 3.012 4.5012 0.30938 3.7126 0.92815 1.5469v10.21l0.61877 6.8064 0.61877 4.3313-0.92815 7.1158-2.7844 0.92816 0.92815 4.3314-0.92815 4.3314 2.1657 3.4032v2.1657l-1.5469 3.0938-2.1657 4.3314-1.8563 7.4252-1.5469 6.1877-0.30938 4.9501v1.8563l-1.2375 3.0938-0.92815 2.4751 3.4032 2.1657-0.61877 3.7126-2.1657 10.828-0.30938 4.6408-0.61877 3.4032-0.92816 5.5689-1.2375 2.7844-1.5469 1.5469 0.61877 2.1657 0.92814 1.2375-0.61876 2.1657v8.6627l-4.3314 21.966 3.7126 2.1657 3.0938 0.30941 3.7126 2.1657h4.022l2.1657 1.2375 0.92815 3.4032 2.1657 3.4032 2.7844 4.022 1.8563 1.5469 2.7845 3.7126 1.8563 2.1657 0.30938 4.6408 5.2595 6.1877 0.92815 4.3313 10.21 25.369 7.1158 1.2375 0.92814 5.2595-1.8563 3.7126" stroke-width=".5px"/>
  <path d="m18.491 263.72 4.1475 0.38309 2.0738 1.1492h2.0738l1.3825-0.76616 2.765-2.6815 1.0369-1.5323 2.0738-2.2984 1.7281-3.8307 1.3825-1.1492 2.0738-0.76615 2.765-2.6815v-1.1492l2.4194-1.1492 3.4563-0.38309 3.1106-0.38306 3.8019-0.76613" stroke-width=".5px"/>
  <path d="m37.713 146.11-2.7116-5.4232 3.7962-9.2193 2.1693-2.1692 4.8808-3.2539 3.2539-2.1692 5.9655-9.2194 5.9655-2.7116 7.5924-0.54231 10.846 6.5078 7.0501-0.54234 1.0846 5.4232 2.1693 4.8808" stroke-width=".5px"/>
  <path d="m89.775 127.67 3.382 4.7544" stroke-width=".5px"/>
  <path d="m38.711 131.41-3.3903-4.4754v-12.94l2.5154-12.161v-6.9077l-6.7806-12.842" stroke-width=".5px"/>
 </g>
 <g fill-rule="evenodd" stroke-width=".15209">
  <ellipse cx="58.762" cy="425.78" rx="3.3618" ry="3.4726"/>
  <ellipse cx="54.706" cy="245.7" rx="3.3618" ry="3.4726"/>
  <ellipse cx="38.587" cy="150.29" rx="3.3618" ry="3.4726"/>
  <ellipse cx="92.826" cy="132.43" rx="3.3618" ry="3.4726"/>
  <ellipse cx="31.311" cy="82.487" rx="3.3618" ry="3.4726"/>
 </g>
 <path d="m54.782 245.71 15.351 19.441-0.84115 3.3327 0.42058 3.6105 0.42057 1.9441-0.63087 3.8882-0.42057 6.3877 1.472 7.4986 1.0514 5.5545 2.1029 3.6104-0.42058 4.4436 0.63087 3.6104 4.4161 4.9991 2.7337 4.4436 2.7337 6.3877 0.2103 5.5545 1.6823 3.8882 0.42058 2.4995 0.84115 1.3886-2.944 7.4986-1.2617 4.9991 2.7337 1.3886 3.3646 3.3327 3.1543 3.055 0.2103 5.8322-1.2617 2.4995-0.42059 3.8882-0.63086 4.9991 0.84116 2.7773-0.21029 6.11-1.472 8.3318-3.7852 15.553-1.472 1.9441-1.0514 2.2218v4.1659l-1.0514 1.3886-3.5749 1.9441-9.4257 3.3634-4.2994 0.99218-6.9452 2.3151 3.1256-4.9649" fill="none" stroke="#000" stroke-width=".44467px"/>
 <g fill="#000000" font-family="sans-serif" font-size="3.5277px" letter-spacing="0px" stroke-width=".26458" word-spacing="0px">
  <text x="34.949383" y="87.117493" style="line-height:1.25" xml:space="preserve"><tspan x="34.949383" y="87.117493" font-size="5.6444px" stroke-width=".26458">Raiganj</tspan></text>
  <text x="44.871128" y="149.62447" style="line-height:1.25" xml:space="preserve"><tspan x="44.871128" y="149.62447" font-size="5.6444px" stroke-width=".26458">Malda</tspan></text>
  <text x="75.628532" y="143.3407" style="line-height:1.25" xml:space="preserve"><tspan x="75.628532" y="143.3407" font-size="5.6444px" stroke-width=".26458">Balurghat</tspan></text>
  <text x="51.204819" y="239.5816" style="line-height:1.25" xml:space="preserve"><tspan x="51.204819" y="239.5816" font-size="5.6444px" stroke-width=".26458">Berhampore</tspan></text>
  <text x="31.972862" y="421.81094" style="line-height:1.25" xml:space="preserve"><tspan x="31.972862" y="421.81094" font-size="5.6444px" stroke-width=".26458">Kolkata</tspan></text>
 </g>
 <path d="m37.836 94.41 3.9483-2.9937 4.4419 0.85536 6.9096 1.7107 1.4806 3.8491 0.49354 1.283v2.9938l3.4548 5.5598 2.4677 4.2768" fill="none" stroke="#000" stroke-width=".5px"/>
 <path d="m54.782 245.71-27.631-25.314" fill="none" stroke="#000" stroke-width=".5px"/>
</svg>
