<svg width="98.588mm" height="294.22mm" version="1.1" viewBox="0 0 98.588161 294.22214" xmlns="http://www.w3.org/2000/svg" xmlns:cc="http://creativecommons.org/ns#" xmlns:dc="http://purl.org/dc/elements/1.1/" xmlns:rdf="http://www.w3.org/1999/02/22-rdf-syntax-ns#">
 <metadata>
  <rdf:RDF>
   <cc:Work rdf:about="">
    <dc:format>image/svg+xml</dc:format>
    <dc:type rdf:resource="http://purl.org/dc/dcmitype/StillImage"/>
    <dc:title/>
   </cc:Work>
  </rdf:RDF>
 </metadata>
 <g transform="translate(-36.393 -1.5318)">
  <g transform="matrix(1.6769,0,0,1.6769,-90.164,-88.449)" clip-rule="evenodd" fill="none" fill-rule="evenodd" stroke="#000" stroke-linejoin="round" stroke-miterlimit="3.8637" stroke-width=".05">
   <path d="m93.518 71.928 0.01323 0.11642 0.21881 0.08361 0.05344 0.06932-0.02566 0.23283c-0.15214 0.15081-0.18203 0.27384-0.25056 0.46302l0.07091 0.3765-0.09869 0.09472c0.0672 0.30903-0.25691 0.85434-0.38682 1.1038-0.01773 0.37042 0.42122 1.2245 0.39793 1.4414l-0.03942 0.07567-0.08758 0.04842-0.01614 0.06959 0.10557 0.01614 0.05556 0.1733 0.05292 0.0056c0.03069-0.34793 0.11959-0.56991 0.42148-0.7448 0.0291-0.06138 0.0032-0.17859-0.03281-0.23204l-0.20902 0.12568-0.03757-0.12753 0.05768-0.09948-0.04366-0.14446 0.02275-0.0471 0.40428-0.01746c0.13626-0.06244 0.10848-0.23601 0.17013-0.33946 0.01852-0.03122 0.14843-0.13811 0.17912-0.17727 0.09922-0.12568 0.18124-0.28099 0.26882-0.41672l-0.0299-0.04551-0.12912-0.02752-0.02434-0.05186 0.04048-0.0471 0.12277-0.0077c0.15954-0.21193 0.03016-0.62442 0.03334-0.85487 0.0029-0.20823 0.04498-0.43762 0.06641-0.64585 0.0019-0.01746-0.02222-0.13309-0.02646-0.15716l-0.0979 0.11774-0.04101-0.01667c-0.14367-0.31406 0.51964-0.66834-0.15981-1.224l-0.17568 0.01482-0.12488-0.10319c-0.26988 0.04604-0.60722 0.72681-0.71861 0.89905z" fill="#85c5e3"/>
   <path d="m94.382 68.335-0.10425 0.09393c-0.08176 0.1569 0.0066 0.62706 0.14737 0.78264l0.04657-0.0063 0.14446-0.50774 0.31406-0.20267 0.03969-0.09948-0.04233-0.08625c-0.07673-0.0074-0.19394 0.05503-0.24527 0.10795l-0.12832 0.0077z" fill="#e2b584"/>
   <path d="m85.62 133.25c-0.06112-0.1688 0.07699-0.30268 0.21458-0.37597 0.0553-0.20241 0.15769-0.37994 0.2577-0.56197 0.04974-0.0908 0.21087-0.13124 0.23389-0.25956 0.04604-0.25691-0.04233-0.61674 0.25506-0.76041l0.04445-0.13944c-0.10239-0.2159 0.0077-0.41963-0.07355-0.57441-0.19394-0.10901-0.28416-0.65299-0.55906-0.74639l-0.19817 0.0204-0.06456-0.0799-0.0061-0.0778c-0.02513-0.32914-0.07488-0.67918-0.07646-1.0081-5.29e-4 -0.1106 0.0672-0.23839 0.06932-0.35004 5e-3 -0.26353-0.03228-0.54875-0.04789-0.8128-5.29e-4 -0.0116 0.04392-0.16008 0.04948-0.18098l-0.13202-0.23627c-0.0021-0.12039 0.09313-0.29739 0.17357-0.38074l0.08123-7e-3 0.0553 0.16749 0.19315 0.096 0.10901-0.10663c0.09313 5.3e-4 0.27622-0.0259 0.35348-0.0871 0.12806-0.13732 0.3302-0.69321 0.39238-0.87233l0.06377-0.0302 0.17515 0.0323 0.32517-0.39503 0.20955 0.014-9e-3 -0.18018c0.10822-0.15002 0.14579-0.29421 0.03334-0.45376l0.03122-0.0653 0.27358-0.16616 0.20982 0.0259c0.20294-0.0315 0.13917-0.47757 0.78317-0.50085l0.13123-0.14182 0.11033-8e-3c0.2159 0.12383 0.23971 0.22569 0.372 0.34846 0.11324 0.10504 0.25612 0.20029 0.37862 0.29607 0.0852 0.0667 0.20082 0.17145 0.22437 0.28178l-0.08123 0.35004c0.14261 0.204 0.21564 0.61013 0.15901 0.85143l0.08334 0.13256-0.06853 0.0532c0.0071 8e-3 0.03942 0.049 0.0471 0.0519 0.20055 0.0783 0.28205 0.10953 0.3466 0.16139 0.06694 0.054 0.11589 0.13044 0.26062 0.30586 0.0064 8e-3 0.02593 0.0789 0.03043 0.0926-0.1442 0.20638-0.21061 0.66993-0.18891 0.90964 4e-3 0.0431 0.10345 0.24712 0.11536 0.30586 0.0598 0.29104 0.0011 0.47995 0.23257 0.74057-0.0093 0.12567-0.02487 0.66701-0.08678 0.75115l-0.05212 7.9e-4 -0.06535-0.0807-0.22701-0.0254-0.03281 0.15161-0.12144 0.0659-0.0381 0.12832c0.0053 0.0889 0.12938 0.2331 0.19024 0.2876-0.46461 0.0868-0.9398 0.52308-1.0591 0.98769-0.03545 0.13785-0.03122 0.3384-0.04445 0.48313l0.03625 0.0863c0.26061 0.0201 0.54081 0.17569 0.70908 0.37254-0.1479 0.26617-0.37333 0.45111-0.52361 0.68818-0.18283 0.28839-0.27279 0.60642-0.49715 0.88027-0.24739 0.0336-0.57229 0.11535-0.81756 0.11138-0.04524-5.2e-4 -0.06588-0.0265-0.10768-0.0431-0.05107-0.0206-0.49001-0.19155-0.50588-0.20293-0.09234-0.0656-0.17489-0.19606-0.26035-0.27437-0.26538-0.24289-0.56991-0.43445-0.93345-0.43657-0.03598 0-0.15055 5e-3 -0.18336 0.0415-0.31194 0.35428-0.49768 0.56595-0.95276 0.34793z" fill="#f3d6e9"/>
   <path d="m94.429 166.58 0.10822-0.12965 0.09816-0.0246 0.20399 0.11853 0.13256-8e-3 0.10636 0.0974 0.17621-0.14234c0.06773 0 0.33602-0.0116 0.38126-0.0696-0.0032-0.11615 0.06059-0.31538 0.15558-0.39132l-0.07091-0.10371-0.0013-0.0815 0.05212 6e-3 0.04604-0.059c-0.05503-0.11695-0.08229-0.28258-0.07567-0.4109l0.05133-0.0246c0.02196 0.10054 0.04127 0.21934 0.12012 0.29448 0.47916 0.45667 1.2525 1.035 1.1494 1.8124l0.08811 0.0799c-0.01191 0.073 0.03863 0.19738 0.07911 0.25453l-0.12144 0.39052 0.06668 0.20849-0.04498 0.0876c-0.38418-0.0958-0.22701 0.45402-1.0398 0.42386-0.08731-3e-3 -0.19764 2.7e-4 -0.26696-0.0672l-0.01879-0.0871 0.068-0.0884 0.1098-0.0132 0.15769 0.0791 0.04577-0.0238-0.01243-0.0526-0.14049-0.0786-0.0013-0.10451-0.06456-0.0632c-0.08705-8e-3 -0.21881 0.0876-0.26935 0.14949l0.04233 0.11509-0.16589 0.11854c-0.16669-0.0241-0.42862 0.0339-0.57018 0.12488-0.09922-0.014-0.22357-0.018-0.28998-0.0828-0.11033-0.10715-0.09975-0.2495-0.15081-0.38073-0.05027-0.12859-0.13811-0.21696-0.15081-0.37518-0.01217-0.15346 0.01799-0.31644 0.01058-0.47069-0.0061-0.12859-0.04683-0.25956-0.05212-0.38788-0.0087-0.20003 0.03969-0.43842 0.05847-0.6395z" fill="#a3b0a3"/>
   <path d="m119.23 214.74 0.21325 6e-3c0.10293-0.0381 0.23522-0.17118 0.2667-0.27781 0.0852-0.0265 0.2159-0.10504 0.26406-0.18441-0.20717-0.42625 0.21378-0.51753 0.31591-0.85699l-0.0124-0.16828c-0.195-0.20611-0.59531-0.6559-0.8808-0.6858-0.17462-0.24817-0.063-0.6514-0.14314-0.92736l-0.17356-0.25982-0.0868-0.12991-0.073 0.13176c-0.0106 0.11589 0.0844 0.34502 0.13282 0.44477l-0.12568 0.17674-0.0243 0.26643 0.12568 0.0442 0.14922 0.23574c-0.36539-0.0336-0.40163-0.0325-0.66886 0.17992-0.10954 0.0871-0.19262 0.1688-0.21352 0.31379l-0.13494 0.0722-0.1569-0.1614-0.11456-3e-3c-0.0717 0.0437-0.12462 0.0786-0.15425 0.16405-0.16722-0.0394-0.35296-0.11669-0.51806-0.031 0.01 0.19553 0.18997 1.26 0.1487 1.374-0.0815 0.0429-0.32385 0.18071-0.36989 0.26379l0.25982 0.22172c0.0175 0.0693 0.0677 0.21087 0.0577 0.2757-0.01 0.0614-0.0508 0.20796-3e-3 0.26008l-0.0876 0.26459 0.0889 0.12488 0.1098-3e-3 0.33946 0.45032c0.12991-0.0368 0.30639-0.18759 0.35349-0.31617l0.11588-0.0373c0.0217-0.0871 7e-3 -0.20002 0.0243-0.26643 0.16352-0.63051 0.5596-0.56727 0.97552-0.96229z" fill="#c2f0c2"/>
   <g fill="#abacda">
    <path d="m118.43 218.01 0.0291 0.41381 0.11218 0.10742v0.22649c-0.0833 0.0497-0.16827 0.11112-0.25744 0.15001-0.0524 0.2159-0.30532 0.2466-0.35216 0.46091 2e-3 0.0733 0.059 0.17912 0.10901 0.23019 0.0662 0.0376 0.21696-4e-3 0.27782-0.0336l0.0672 0.0598-3e-3 0.099c-0.0804 0.0701-0.21934 0.12859-0.32544 0.13679-0.0336 0.0847-0.0402 0.2421 3e-3 0.32544l0.18362 0.0336 0.0233 0.19844-0.12144 0.0259-0.0839 0.13679 0.0138 0.11086 0.14313 0.0561-0.11721 0.51964 0.26829 0.32676c-0.0307 0.15717-0.1524 0.42043-0.28495 0.52123l0.0662 0.11774 0.14446-8e-3c0.0286-0.1098 0.16854-0.24262 0.2667-0.28972l0.23548 0.0183c0.0775 0.0564 0.22092 0.18044 0.2577 0.27411-0.0233 0.0802 0.0124 0.21907 0.0672 0.28072l0.38815 0.13255-0.11457-0.22436 0.12621 3e-3 0.14684 0.1262c-0.0209 0.12012-0.0106 0.21881 0.031 0.33735l0.1016 0.0786 0.055 0.32676c0.136 0.0148 0.31803 0.0709 0.42757 0.15637l0.0487 0.11165-0.0185 0.0638 0.095 0.11853c-0.0175 0.14711 8e-3 0.33258 0.0564 0.47202l-0.14817 0.14737c0.0228 0.18018 0.17277 0.28337 0.19606 0.45244l0.0918 0.0204 0.31115-0.22437c0.0249 0.0955 0.16033 0.50642 0.12832 0.56753l0.2794 0.11139 2e-3 0.14526 0.05 0.0773 0.21114 0.0638 0.0153 0.082c-0.0968 0.0328-0.23469 0.0373-0.33391 0.014-0.0926 0.11747-0.0373 0.36777 0.0214 0.48895 0.0984 0.13176 0.32041 0.064 0.43207 0.20902l9e-3 0.099c-0.11642 0.10478-0.16616 0.1905-0.20479 0.33153 0.15504 0.16695 0.29818 0.37412 0.40561 0.57441l0.11403 0.0259 0.0505-0.16139 0.12012 0.0212c0.0394 0.0532 0.0542 0.16483 0.0347 0.22727l-0.13388 0.0429 0.0632 0.22304c-0.0672 0.0373-0.11589 0.17039-0.12144 0.24077l0.095 0.11853 8e-3 0.11642-0.13256 0.22939 0.0709 0.14658c0.20717 0.0781 0.4572 0.21987 0.68633 0.17542l0.0831-0.11377 0.0251-0.27834 0.14023-0.0717c0.13388-0.17066 0.14552-0.61251 0.1188-0.81069 0.0855-0.17489 0.25003-0.2532 0.43894-0.26723l0.13123 0.0503c0.0818 0.11086 0.11536 0.15001 0.13785 0.19446 0.0209 0.0413 0.0325 0.0873 0.0651 0.19976l0.17278-0.0127c0.0386-0.0982 0.24923-0.23574 0.33549-0.28125l0.0672-0.14949-0.0196-0.13388c0.0862-0.0863 0.0762-0.26881 0.0847-0.38153l-0.0548-0.10027-0.32835-0.18865c-0.099-0.096-0.10239-0.4064-0.0841-0.52679 0.0254-0.063 0.11377-0.14499 0.18256-0.15636l0.05-0.16696c-0.0487-0.10186-0.10715-0.2704-0.0992-0.38629l0.0881-0.0672-0.0503-0.0889 3e-3 -0.11033c0.13864-5e-3 0.33417-0.14764 0.41593-0.2503l-0.0905-0.0952c-0.0328-0.0717-0.0339-0.20108-4e-3 -0.27358l0.13705-0.14155c-0.0201-0.12912 0.0122-0.30321 0.0624-0.42228l0.0828-0.0791c0.16087 0.019 0.28681 0.0452 0.44291 0.0119l0.0193-0.0751-0.26035-0.17542-0.0534-0.14658-0.11271-0.0905 0.0283-0.22013c-0.045-0.11748-0.25453-0.28654-0.35322-0.35216l0.0161-0.1741c0.0664-0.11139 0.28443-0.21404 0.40402-0.23839l0.0188 0.16272c0.11589 0.0249 0.27279 0.19526 0.33179 0.2884l0.0889-0.1024 9e-3 -0.11588c-0.0296-0.10213-0.1352-0.11668-0.20294-0.18018-0.15001-0.14076-0.14419-0.37227-0.35004-0.47414l-0.18706 0.10504-0.12144-0.41513 0.055-0.13256c-8e-3 -0.14261-0.0982-0.16668-0.12568-0.2413-0.0622-0.16906-0.0561-0.41698-0.1815-0.55668l-0.32994-0.14234c-0.0929-0.25506-0.26114-0.62204-0.0521-0.87895 8e-3 -0.0878-0.0767-0.2368-0.12991-0.29951l0.022-0.18336c0.0841-0.70088-0.10213-0.46434-0.21008-0.99509-6e-3 -0.0267-5.3e-4 -0.56013-5.3e-4 -0.62204 0-0.0767-0.28231-0.40481-0.33893-0.4736-0.0855 0.0333-0.34819 0.11086-0.43894 0.0638l-0.20267-0.17383c-0.0415-0.0937-0.0201-0.32782-6e-3 -0.42439l-0.1958 7.9e-4 -0.12567 0.16484-0.63659 0.12276-0.0193 0.0926 0.0902 0.0717-7.9e-4 0.24395-0.0873 0.0561c0.036 0.0736 0.0307 0.21246-8e-3 0.28416l-0.13812-0.22437c-0.0672-0.0328-0.18917-0.0376-0.25902-0.0127l-0.12515-0.0608c-0.0688 0.013-0.17489 0.0791-0.20558 0.14526l-0.15002 8e-3 -0.15134-0.13176-0.2675 0.0688-0.0304 0.0799 0.15134 0.14367 0.0257 0.12277c-0.05-0.0521-0.15345-0.1106-0.22701-0.11642l-0.1688 0.0476-0.0799 0.20134c-0.27014 0.20241-0.38391 0.0307-0.6395 0.0175-0.21484-0.0111-0.40904 0.11271-0.62177-0.0225-0.127 0.0992-0.25797 0.1942-0.38709 0.2913z"/>
    <path d="m101.47 54.675 0.16404-0.11139 0.44106 0.01191c0.19553 0.12224 0.20955 0.43868 0.37835 0.53446l0.11668-0.03016c0.0918-0.16404-0.0378-0.36645-0.0542-0.53393-6e-3 -0.06323 0.0272-0.14129 0.0201-0.20399-0.0183-0.16113-0.18229-0.3212-0.15954-0.46778l-0.096-0.11509-0.15822 0.01958-0.0804 0.11139-0.0648 0.0063-0.0598-0.04551c-0.13123-0.01111-0.59531 0.11642-0.65485 0.21802l-0.01 0.13388-0.12911 0.03069-0.0222 0.07567c0.17568 0.06773 0.20558 0.27173 0.36883 0.36592z"/>
    <path d="m133.54 59.91-0.023 0.08149 0.0968 0.26644c0.0915 0.01111 0.15689 0.0082 0.22992 0.07938l0.0818-0.03572c0.0587-0.07752 0.24685-0.35216 0.23627-0.45508l-0.10134-0.20267c0.01-0.04233 0.0154-0.08678 0.0275-0.12832-0.10266-0.16087 0.0169 0.03069-0.25268-0.01482-0.11959 0.26802-0.0744 0.20426-0.29527 0.40931z"/>
   </g>
   <path d="m97.552 60.396c0.06324-0.0344 0.30983-0.18944 0.31327-0.27146l-0.03387-0.29607-0.06403 0.0127-0.05212 0.07011-0.32147 0.09181-0.06879 0.10028-0.01376 0.24977z" fill="#e2b584"/>
   <polygon transform="matrix(.26458 0 0 .26458 26.673 38.073)" points="265.96 86.026 266.23 86.066 266.52 84.854 266.03 84.488" stroke-width="1.1339"/>
   <path d="m101.67 71.112 0.13255-0.11774 0.0939-0.01905 0.0132 0.11007c-0.19208 0.06932-0.67389 0.66966-0.62097 0.84032l0.0662 0.09181 0.0937-0.01323 0.0243 0.06959-0.15981 0.30427 0.0384 0.19156-0.082 0.01905-0.0654-0.05186c-0.0521-0.09207-0.077-0.26961-0.041-0.37095l-0.0889-0.07435c-0.11801-0.0164-0.35348-0.02381-0.42995-0.11562l-0.0423-0.10451 0.0164-0.07012c0.0608-0.02963 0.18415 0.01058 0.23548 0.04339l4e-3 -0.10451-0.0905-0.14446-0.0998-0.03307-0.0431-0.09816c0.0754-0.02937 0.1487-0.15663 0.16748-0.22939l0.0701-0.0127c0.0593 0.02249 0.12726 0.12938 0.14923 0.18362l-0.0569 0.14023 0.0423 0.0926 0.11165 0.01614c0.0497-0.0844 0.1868-0.22357 0.28945-0.24262l0.055-0.26802c0.0699-0.01984 0.14526-0.02805 0.21696-0.03228z" fill="#c2f0c2"/>
   <path d="m94.922 77.376-0.03466 0.03572c-0.03784-0.03916-0.07012-0.13097-0.0553-0.18521l-0.06535-0.05741c-9e-3 0.10716-0.0463 0.84508-0.09816 0.88503l-0.08176-0.02249c-0.15425-0.20267 0.0553-0.39873 0.03678-0.62204-0.02037-0.24474-0.02461-0.60748-0.10054-0.84164-0.06535-0.20135-0.26617-0.32544-0.31327-0.52943 0.15531-0.17674 0.09181-0.27173 0.14578-0.43842 0.04233-0.1315 0.15293-0.24765 0.19315-0.39767l0.08123-0.03096 0.01958 0.10451c-0.1905 0.27993 0.06562 0.58896 0.06033 0.87101-0.0019 0.10478-0.02434 0.22119-0.03598 0.32597-0.01614 0.1442 0.29316 0.54531 0.24818 0.90302z" fill="#fcc"/>
   <g fill="#e2b584">
    <path d="m100.54 85.653-0.14181-0.09684-0.12303 0.0077c-0.18627 0.18627-0.30322 0.42942-0.28814 0.69559l0.08964 0.13256c-0.12856 0.09763-0.32197 0.35269-0.31404 0.52731l0.03069 0.0807 0.13388-0.01323 0.27171 0.1352 0.0566-0.0934-1e-3 -0.12197c0.19368-0.23865 0.21749-0.66358 0.27226-0.95753l0.13971-0.05398c0.022-0.10239 0.13043-0.24183 0.22436-0.28813l-0.10477-0.34713-0.24844 0.21881z"/>
    <path d="m123.05 89.813 0.12726-0.11774 0.15849 0.0042c0.20796-0.18018 0.17118-0.4781 0.0214-0.67469-0.0934-0.08625-0.32174-5e-3 -0.42651 0.05107l-0.14737 0.4146c3e-3 0.08467 0.1434 0.25929 0.19658 0.31697z"/>
    <path d="m99.995 90.404 0.06879-0.07091c-0.10136-0.75909 0.28257-0.70194 0.33681-0.9525l-0.0272-0.24977-0.13044-0.10795c-0.0503-0.07938 0.0175-0.32491 0.0471-0.4019l-0.0606-0.12674-0.0818 0.01243-0.0617 0.54716-0.1884-0.04974-0.08334-0.12621-0.07779-0.02672-0.20902 0.04763-0.05133 0.05345c0 0.07805-0.02249 0.25744-0.07726 0.3212l0.02355 0.04551 0.08255 0.02249 0.127-0.06588 0.08255 0.01614 0.07223 0.13256 0.12303 0.01614c0.09022 0.10795-0.03757 0.72152-0.05794 0.86678l0.06615 0.0807z"/>
   </g>
   <path d="m104.37 91.006 0.0214-0.0934c-0.10133-0.13917 5e-3 -0.30004-0.0526-0.45244 0.12462-0.20135 0.18521-0.43154 0.11853-0.6641l-0.0889-0.09181c-0.0566 0.06694-0.0979 0.20452-0.0894 0.29184l-0.0939-0.03916-0.0585 0.01826 0.0376 0.14446-0.0632 0.12277-0.0987 0.02461c-0.0931-0.03598-0.17568-0.47546-0.20134-0.57229l-0.0646-0.0344-0.0931 0.02461c-0.18653 0.24765-0.19394 0.38656-0.27067 0.70697l0.0423 0.10451 0.20478 0.01482 0.14261 0.12568 0.20955-0.02037 0.0868-0.08202 0.0884 0.03916c8e-3 0.08228 0.0603 0.39317 0.14658 0.43418z" fill="#85c5e3"/>
   <path d="m101.95 93.068c-0.13414-0.09208-0.36803-0.31194-0.41672-0.47678-0.2495 0.02249-0.55906-0.14288-0.62706-0.12488l-0.13811 0.11853c-5.3e-4 0.18971 0.0685 0.42069 0.1487 0.59055l0.12435 0.10319 0.28125 0.02514 0.0534 0.08625c0.0622-0.04154 0.20082-0.03942 0.26882-0.0209l0.0799-0.1524 0.12224 0.02117z" fill="#abacda"/>
   <path d="m103.76 91.026c-0.0431-0.04762-0.16457-0.06165-0.22304-0.0553-0.31539 0.2159-0.3175 0.53419-0.33179 0.88794l-0.16193 0.136-0.25638 0.88159 0.0423 0.10398 0.0648 0.03995 0.0992-0.01879 0.0778 0.13811 0.11748 0.0042-0.0161 0.13388c0.0257 0.09684 0.12356 0.23548 0.21457 0.28178 0.0275 0.12462 0.13203 0.4236 0.24633 0.50218 0.46196-0.17145 0.50589-0.32015 0.56753-0.8038l-0.11271-0.12621c-0.0474-0.28099 0.2368-0.48736 0.2077-0.60193l-0.0833-0.0799-0.15769 0.01323-0.0598-0.11509c0.11562-0.26644 0.1778-0.64003 0.0286-0.91255-0.0818-0.14949-0.21193-0.21934-0.26353-0.40931z" fill="#e2b584"/>
   <path d="m102.55 92.002 0.0598 0.12144c-0.11959 0.22093-0.0275 0.44529-0.10213 0.57653 0.40376 0.54795-2e-3 1.0472 0.45218 1.4007l0.0881 0.0217c0.10212 0.0852 0.099 0.52811 0.0672 0.63262-7e-3 0.02196-0.14526 0.25294-0.16537 0.2876l-0.0466-0.0056-0.40719-0.63976c-0.0897-0.02858-0.33629-0.13573-0.37703-0.23283-8e-3 -0.07805-0.15822-1.1488-0.1577-1.1721 2e-3 -0.08282 0.059-0.37412 0.12833-0.43762 0.19156-0.17542 0.33761-0.30903 0.46037-0.55272z" fill="#f3d6e9"/>
   <path d="m101.77 95.082 0.05-0.18098-0.16325-0.39264 0.0675-0.16986c-0.0408-0.07594-0.0886-0.25188-0.046-0.33655l0.0926-0.07091 4e-3 -0.12753 0.10478-0.03096 0.0619-0.15161-0.018-0.0463c-0.0926-0.01402-0.27438-0.0172-0.36195 0.02805l-0.11801-0.068c-0.0265 0.06429-0.11535 0.17198-0.19023 0.18309l-0.27014-0.10742-0.082 0.01905-1e-3 0.28469 0.0415 0.05741c0.073 0.0045 0.19209-0.06218 0.24368-0.10795l0.0418 0.0344-0.2069 0.2413-0.0876 0.02461-0.0564 0.12277c0.0151 0.08678 0.11853 0.19817 0.19023 0.2413l0.15849 0.01561c0.0669 0.0344 0.1262 0.25744 0.1389 0.32332l0.34158 0.21616z" fill="#fcc"/>
   <path d="m101.83 97.447-0.24844 0.1487-0.28046-0.0013c-0.3429-0.18732-0.20426-0.4662-0.40349-0.83741-0.10769-0.0844-0.41778-0.11033-0.54531-0.10874l-0.30771-0.25109 0.0743-0.12912c0.5162-0.17674 0.81889-0.61727 0.78343-1.1679l0.0569-0.07646 0.0474 0.02805 0.0987 0.33046 0.0529 5e-3 0.12356-0.30374 0.0466-0.0127 0.64453 0.47969c0.13282 0.28178-0.0222 0.51911 0.0743 0.70194 0.0505 0.09578 0.13414 0.18468 0.17912 0.28205 0.0577 0.12515 0.0775 0.27437 0.13467 0.39978 0.0198 0.04339 0.10822 0.12647 0.12409 0.16695 0.0529 0.13335 0.081 0.30533 0.11801 0.44529l0.21828 0.13679c0.0833 0.20928 0.41592 1.23 0.34581 1.3086l-0.27146 0.24818-0.11589 0.01323-0.12991-0.09128c-0.0328-0.12488-0.71067-1.1888-0.85619-1.4475l0.0222-0.07567 0.18124-0.0029 0.0574-0.04127z" fill="#e2e9e9"/>
   <path d="m103.33 100.96 0.0749-0.0534 0.0487-0.26802c0.13917-0.11721 0.15082-0.23945 0.24025-0.36407l-0.0307-0.0519c-0.0198-0.0135-0.26168-0.10318-0.29925-0.11773-0.0622 0.0333-0.26035 0.10927-0.33179 0.068-0.29739 0.26273-0.63103-0.17198-0.84851-0.15637l-0.0635 0.0646c0.0513 0.14896 0.0497 0.29315 0.0418 0.44741l0.18044-0.0318c0.2802 0.16563 0.65617 0.42492 0.98769 0.46328z" fill="#c2f0c2"/>
   <path d="m90.156 107.51 0.08758-0.0191 0.08546-0.13467c0.06615-0.0632 0.24051-0.0619 0.31988-0.0399 0.1307-0.0706 0.19473-0.26035 0.35004-0.33655l-0.08255-0.0807 0.0042-0.0815 0.06879-0.0995 0.12144-0.031 0.01667-0.059c-0.0762-0.0876-0.44185-0.0728-0.54319-0.0609l-0.04498-0.24342-0.18812-0.10715-0.06377 0.0238c-0.06032 0.0437-0.11536 0.23177-0.12912 0.29871l0.12091 0.28813-0.05001 0.12356 0.08467 0.18442c-0.01667 0.10821-0.10901 0.25162-0.17568 0.3339z" fill="#e2b584"/>
   <path d="m91.977 108.35 0.04101-0.0127c0.03731-0.0923 0.04472-0.26247 0-0.35401l-0.04022 0.0183c-0.01958 0.0675-0.05689 0.28786-7.94e-4 0.34845z" fill="#abacda"/>
   <path d="m83.557 108.43 0.17304-0.0905c-0.03043-0.11694 0.06562-0.313 0.14526-0.39211l-0.15425-0.16536c-0.0344-0.1225-0.01958-0.32808 0.03863-0.44265-0.04683-0.0886-0.0799-0.2241-0.07011-0.32464-0.24342-0.52758-0.65379-0.34423-1.1028-0.37095-0.05159-3e-3 -0.15081-0.10054-0.23469-0.0717l-0.05636 0.12912-0.23945-0.0196-0.01588 0.059 0.20002 0.11853c0.1434 0.2032-0.05265 0.46064 0.05821 0.67892l-0.07223 0.2167 0.14658 0.35216c0.08123 0.12223 0.89403 0.12673 1.184 0.32305z" fill="#a3b0a3"/>
   <path d="m92.52 111.3c-0.14102 0.0873-0.56224 0.0648-0.71596 0.0463l-0.03969 0.0934c0.04366 0.11271 0.08123 0.38418 0.03202 0.50589l-0.22516 0.1598c-0.07594 0.22331 0.24977 0.47996 0.42862 0.58076 0.14023 0.0275 0.37491-0.023 0.48816-0.11218 0.09499 0.0566 0.27649 0.0931 0.3855 0.0638 0.11509-0.14473 0.41857-0.25559 0.60272-0.23019l0.10001 0.068 0.05001-0.17462 0.57838-0.28178c0.04948-0.0481 0.0034-0.39714-0.04789-0.46435l-0.17568-0.0267-0.09578-0.16695-0.07011-0.0222-0.05636 0.12277-0.12859-3e-3 -0.07091-0.0455-0.03043-0.0984-0.07726-0.0685-0.22146 9e-3 -0.0471-0.0455c0.03889-0.0804 0.4355-0.21511 0.52705-0.25242l0.05133-0.0701-0.0013-0.0934-0.118-0.0617 0.17304-0.1479 0.14711 0.10795 0.06403-0.0127-0.0071-0.099-0.059-0.0455 0.0098-0.0934 0.09313-0.0246-0.01349-0.0926c-0.17595-0.13837-0.33099-0.51038-0.2032-0.71755l-0.03678-0.11589-0.10557-0.0106-0.06456-0.0569-0.04445-0.24341-0.48895-0.27199-0.10901-0.25956-0.05292-0.0344-0.05212 0.0124-0.08943-0.13811-0.09869 0.0476c-0.21193 0.30533-0.56303 1.0292-0.42704 1.402 0.02884 0.0791 0.09604 0.15187 0.12647 0.23072 0.0762 0.19764 0.08334 0.48234 0.11589 0.68818 0.01773 0.11086 0.06297 0.31988 7.94e-4 0.44344z" fill="#e2b584"/>
   <path d="m94.24 114.3 0.08969 0.50509-0.15134 0.37386 0.0299 0.0696 0.0762 0.0106c0.0672-0.11536 0.0926-0.136 0.10001-0.28072l0.18944-0.17119c0.02831-0.10954 0.0934-0.65299 0.0071-0.71543-0.08361 0.0434-0.28734 0.12118-0.34105 0.20823z" fill="#c2f0c2"/>
   <path d="m102.6 186.02 0.0632-0.0183 0.0397-0.0757c-0.12012-0.15822 0.0617-0.36116-0.0249-0.5162l-0.23839-0.14738-0.0632 5.3e-4c-0.13573 0.12965-0.24818 0.40746-0.11854 0.576z"/>
   <path d="m116.88 184.94-0.068 0.0876-0.0807 0.0127-0.045 0.13388c0.0537 0.0968 0.0921 0.28442 0.0569 0.39343l-0.0966 0.13467c0.11853 0.36619-0.0921 0.33999 0.10927 0.85778l0.0677-0.0357c0.12039-0.26115 0.0595-0.46329-0.031-0.73105l0.127-0.42492 0.0979-0.0302 0.15769 0.19579 0.0855-0.0939c-0.0368-0.16642-0.12514-0.42598-0.0765-0.59108l-0.0632-0.028-0.12647-0.39344 0.0966-0.14605-0.0765-0.13811c0-0.0347 6e-3 -0.0701 0.01-0.10451-0.37915-0.1741-0.27278-0.38206-0.32517-0.67548-0.0156-0.0881-0.0717-0.20294-0.10213-0.28893-0.0257-0.073-0.0228-0.18891-0.032-0.26643-0.0675-0.0365-0.045-0.0426-0.10425-0.0161l-3e-3 0.045c-0.0143 0.20664-0.045 0.51752 0.0122 0.70908 0.0587 0.19579 0.21352 0.39582 0.29052 0.5887 0.0937 0.23389-0.013 0.56118 0.11985 0.80539z" fill="#e2b584"/>
   <path d="m107.15 191.4c0.19103-0.195-0.0225-0.66093-0.13282-0.84587-0.0558-0.0437-0.18176-0.0582-0.24844-0.0484l-0.0918 0.0532c-0.21246 0.32385-0.09 0.53843 0.16669 0.79269z" fill="#f3d6e9"/>
   <path d="m106.21 192.08c0.059-0.0773 0.0902-0.41593 0.0966-0.51197l-0.12938-0.17198c-0.10345-0.0577-0.2577-0.091-0.37544-0.0884-0.20982-0.22331-0.37439-0.20532-0.56965-0.33444l-0.31485-0.26246c-0.4789-0.39899-0.59743-0.68554-0.29978-1.2435-0.15028-0.45588 0.33047-0.67548 0.19183-1.1343l-0.0638-0.0569-0.068 0.0701-0.0812-0.0392-0.11245-0.18442-0.13759 0.0484-0.0839 0.15214-0.15557 0.0196-0.0765-0.0744c-0.10822 0.0135-0.22013 0.15399-0.22701 0.25823l-0.10848 0.0828c0.0249 0.51779-0.29501 0.56171-0.24474 1.1372 0.0164 0.1905 6e-3 0.35771 0.09 0.53075 0.0529 0.10848 0.11006 0.26882 0.22913 0.32755l0.091 0.29475 0.10424 0.0505 0.0598 0.15557 0.0987 0.0281c0.25347 0.54239 0.77047 0.35877 0.91387 0.67204l0.15002 0.0153 0.10478 0.0799c0.313-0.072 0.54954 0.25717 0.91836 0.17886z" fill="#c2f0c2"/>
   <path d="m116.3 196.21 0.12647-0.0302c0.21061-0.1479 0.0397-0.46117-0.0876-0.60245 0.0505-0.17807 6e-3 -0.46699-0.0487-0.63765l-0.1561-0.0849-0.0415-0.10954 0.0979-0.0132 0.064 0.0519 0.0278-0.082-0.11616-0.5379-0.14499-0.1143c-0.12673 8e-3 -0.26723 0.0415-0.3855 0.0863-0.046 0.0746-0.11192 0.19102-0.0368 0.27278l0.0923 0.0225c0.0349-0.0571 0.14658-0.21352 0.2159-0.23495l0.0696 0.0167 0.0646 0.11509-0.0791 0.082-0.14367 0.0135 0.0667 0.31856-0.0389 0.10451 0.0299 0.0693 0.0923 0.0511 0.0373 0.20849c0.0915 0.0365 0.20109 0.29634 0.2294 0.38021l-0.0744 0.0183-0.19923-0.2294-0.0577-0.0111-0.036 0.33099c0.0222 0.12542 0.12065 0.12542 0.17489 0.195 0.0738 0.095 0.13255 0.30718 0.25717 0.35057z" fill="#e2b584"/>
   <path d="m113.51 195.07 0.10292-0.0884 0.0804-0.0127 0.0278-0.0582-0.0709-0.12118c-0.0593-3e-3 -0.15108 0.0381-0.18891 0.0833l-0.0804-0.028c-0.0585-0.0857-0.23416-0.37413-0.21961-0.48393l0.0278-0.0646 0.16669-0.0484 0.0675-0.10531-0.0172-0.0407-0.12726-4e-3 -0.14791 0.10663-0.0982 1e-3c-0.023-0.13546-0.0437-0.25955 8e-4 -0.39502l0.0624-0.0294 0.0608-0.20426-0.0471-0.0982-0.073 0.1524-0.0638-6e-3c0.0294-0.23707 7e-3 -0.53658-0.0672-0.76465l0.0505-0.12277c0.16113-0.19076 0.38946 0.10451 0.86175-0.60801 0.0111-0.14473 8e-3 -0.40984 0.0743-0.53446 0.04-0.0489 0.48154-0.1061 0.70008-0.25241 0.13891 0.0534 0.3347 0.0942 0.48472 0.0751 0.0825 0.18733 0.17039 0.54531 0.12515 0.75327-0.0998 0.10821-0.23866 0.36804-0.20691 0.5244l-0.1098-0.0161-0.0362-0.0582 0.0542-0.096-0.0175-0.0336-0.0389-5e-3c-0.0529 0.11298-0.15584 0.23575-0.254 0.31221l-0.0349-0.0111c-4e-3 -0.045-0.0288-0.20426-0.072-0.23072l-0.0397 0.0175c-0.0275 0.29553-0.35719 0.48842-0.20902 0.79745l-0.0228 0.0526-0.0915 7e-3 -0.0111 0.0638 0.25771 0.32755-0.0265 0.15082 0.14446 0.0799 0.0598 0.13256 0.046 0.0169 0.0132 0.0871-0.0564 0.11059 0.13255 0.0275c0.0794 0.10292 0.38153 0.45667 0.38048 0.54081l0.22039 0.0955c0.12065 0.19923-0.19949 0.91678-0.0495 1.0914l-0.0394 0.0934-0.0635 6e-3c-0.0585-0.0339-0.11985-0.13335-0.12276-0.20135l-0.0923-0.0161-0.059-0.0918-0.0632 0.0119c-0.0569 0.11139-0.0966 0.26484-0.0987 0.38999l-0.064-5e-3 -0.0299-0.10398c-0.0574 0.0347-0.0783 0.0442-0.0939 0.0593-0.0161 0.0156-0.0265 0.0373-0.0651 0.0992l-0.12145-0.0392-0.0685 0.0413-0.0675 0.14605 0.12833 0.1143 0.0127 0.087-0.0863 0.0246-0.022 0.0751 0.0423 0.14446c-0.037 0.0302-0.0606 0.10928-0.0542 0.15505l0.0937 0.14023-0.19156 0.0526c-0.0844-0.0516-0.1868-0.11642-0.25215-0.19288 0.0177-0.0725-0.0894-0.22728-0.13256-0.2757 0.0193-0.20743-0.0423-0.38258-0.0479-0.57917-4e-3 -0.1315 0.0336-0.24342 0.0196-0.38444-0.0185-0.17992-0.0169-0.73289-0.18521-0.83793z" fill="#f2c0f2"/>
   <path d="m115.34 197.15-0.0153-0.13891-0.0812-0.0455-0.0183-0.0863 0.0508-0.082-0.10478-0.0855-0.018-0.0582 0.045-0.0582 0.13812-0.019 0.0825 0.14367 0.10213-0.10583 0.0632-5.3e-4c0.036 0.063 0.29051 0.46646 0.28469 0.53658l0.14128 0.16192c0.0812 0.34555-0.0497 0.53393-0.0503 0.82841-2.6e-4 0.24051 0.0569 0.52097 0.0833 0.76227l-0.1008 0.12567c-0.022-0.01-0.15955-0.068-0.16537-0.0743-0.14234-0.15663-0.29157-0.35401-0.44846-0.49318-0.12224-0.10848-0.36275-0.14076-0.40085-0.33602-0.22278-0.0339-0.53075-0.26591-0.62706-0.46911l0.0161-0.17938 0.32014-0.10742c0.0135-0.0796 0.0204-0.16828 0.0437-0.24554l0.12013-0.11165 0.027-0.0934-0.10002-0.20135 0.0503-0.14578 0.0987 0.0743 0.0312 0.17331 0.13203-0.0132 0.018 0.0582-0.0452 0.0934 0.11748 0.14923c-5e-3 0.0278 0.01 0.0651 0.0296 0.0841 0.0601-2.7e-4 0.12514-0.0177 0.18018-0.0408z" fill="#fcc"/>
   <path d="m111.71 197.15c0.0212-0.0265 0.0124-0.0942 3e-3 -0.12277-0.15346-0.11271-0.62098-0.3929-0.81121-0.3548l-0.0855 0.0468-0.0217 0.12197-0.29104 0.23019-0.0979-0.0106-0.0482-0.17331-0.0979 0.0191-0.0791 0.0995c-0.11245-0.0736-0.31539 0.073-0.39026 0.14367l0.12144 0.0429c-0.14023 0.32411-0.31406 0.49001-0.15637 0.81994-0.61859 0.31883-0.21616 0.66516-2e-3 1.074 0.0479 0.091 0.0243 0.20293 0.11324 0.28178l0.041-0.0225 0.0228-0.21379 0.17304-1e-3 -0.0124-0.186 0.0881-0.0561c-6e-3 -0.0905 0.0336-0.22437 0.0826-0.29951l0.0762 0.15848c0.10769 0.0609 0.21405 0.12648 0.32438 0.1823l-0.32147 0.16616 0.12991 0.11351-0.11033 0.0315c-0.0603 0.16166-0.12727 0.39608-0.1188 0.57177 0.16431 0.31273 0.61172 0.42518 0.9271 0.47704l0.58341-0.4953c0.22145-0.18785 0.94853 2.7e-4 1.0604 0.23627 0.077 0.16246 0.13467 0.34793 0.20002 0.51621l0.20849-0.0294c0.32465-0.22887 0.12013-0.66305 0.0444-0.95859l-0.16457-0.64055c-0.16404-0.1532-0.40878-0.34396-0.62283-0.42307l-0.0209-0.0934c-0.11218-0.16722-0.34184-0.13229-0.51038-0.0889-0.0918-0.10319-0.19711-0.2204-0.26273-0.3429l0.10425-0.67681z" fill="#abacda"/>
   <path d="m95.894 94.553 0.07779 0.06456c0.07938-0.15531 0.4953-0.35216 0.6522-0.51409 0.02381-0.0553 0.05847-0.19024 0.03122-0.25056l-0.09446-0.09737 4e-3 -0.06376c0.03836-0.04418 0.18521-0.19473 0.24871-0.19579l0.25347 0.11298c0.05239-0.05794 0.08255-0.20717 0.0889-0.28046l-0.04868-0.13891-0.15478-0.08916c-0.03519-0.05583-0.04154-0.16695-0.01958-0.22781l0.05159-0.059 0.09922-0.01905 0.08255 0.06244c0.02937-0.17648 0.19209-0.4273 0.28416-0.52678l-0.01799-0.06932-0.11166-0.01614 0.0048-0.09895 0.08123-0.02461 0.07488-0.08202 0.15134-0.01958 0.24712 0.11218 0.07593-0.01826c0.04736-0.03598 0.12621-0.11668 0.14367-0.17674-0.04339-0.09419-0.04154-0.27755 0.01799-0.36592l-0.02514-0.0926-0.09366-5e-3c-0.01614-0.1397 0.03651-0.33205 0.11668-0.40825 0.21431 4e-3 0.41857 0.3212 0.65405 0.35639l0.08123-0.03016-0.01297-0.10451c-0.2503-0.2622-0.24659-0.49874-0.24659-0.85646l-0.29104-0.31009-0.01402-0.14526c0.04048-0.04762 0.08467-0.09499 0.13282-0.13547 0.1987 0.03043 0.4736 0.0336 0.61172-0.14235l-0.16034-0.1606 0.07276-0.21034-0.13123-0.15478 0.13891-0.10663-0.0598-0.09843-0.09287 0.02461-0.05794 0.0598-0.04789-0.04075 0.01111-0.07514-0.05345-0.02884-0.06324 0.05345-0.03625-0.05741 0.0508-0.12832-0.02434-0.06376-0.28892-0.15849-0.19182 0.07329-0.09102-0.08255-0.17357 0.04974-0.1487 0.06615h-0.09102l-0.3556-0.24818-0.20664-0.04974-0.09922 0.06615-0.09922 0.09922-0.10742 0.08255-0.15716-0.1487-0.28099-0.04974-0.17357-0.02487-0.04128 0.26458 0.16536 0.0082 0.13229 0.38867-0.18203 0.15716-0.1487 0.22331-0.09102 0.13229-0.372-0.20664-0.05794 0.28099-0.13229 0.28099-0.02487 0.13229 0.19024 0.0082-0.03307 0.14049-0.0082 0.08255 0.16536 0.0164 0.15716 0.04974 0.11589-0.11589 0.11589 0.0164-0.04974 0.30586-0.0164 0.42995-0.11589 0.0164v-0.372l-0.0164-0.14049-0.28099-0.02487-0.28945-0.1487-0.04974 0.12409 0.15716 0.16536v0.10742l-0.19024-0.12409-0.05794 0.28099-0.10742-0.06615-0.03307-0.29766 0.13229-0.34713-0.09102-0.03307-0.11589 0.04127-0.04127 0.12409-0.0164 0.34713-0.02487 0.1487v0.41328l0.02487 0.30586 0.16536-0.12409 0.04128 0.17357 0.20664 0.04974 0.12409 0.07435 0.10742-0.05794 0.30586 0.0164 0.08255-0.12409-0.0082-0.19844 0.09102-0.10742 0.05794 0.07435-0.07435 0.11589 0.04128 0.13229-0.08255 0.21484-0.05794 0.19844-0.12409 0.28099 0.02487 0.24818-0.17357 0.21484-0.09102 0.40508-0.04128 0.19844-0.11589 0.23971-0.08255 0.17357-0.0082 0.46302 0.13229 0.14049 0.11589 0.03307 0.22331 0.05794z" fill="#a3b0a3"/>
   <path d="m95.046 104.63s-0.06615 0.21484-0.13229 0.29766c-0.06615 0.0828-0.21484 0.16536-0.31432 0.19844-0.09948 0.0331-0.09922 0.28098-0.16536 0.41328-0.06615 0.13229-0.03307 0.14869-0.03307 0.28098s-0.21484 0.21484-0.31432 0.1487c-0.09948-0.0661-0.09922-0.0331-0.24818 0.0331-0.14896 0.0661-0.1487-0.13229-0.13229-0.21484 0.01641-0.0825-0.0164-0.46302-0.0164-0.56224 0-0.0992 0.08255-0.23151 0.1487-0.28099 0.06615-0.0495 0.09922-0.0164 0.24818-0.0331s0.11589-0.19844 0.13229-0.26458c0.0164-0.0662 0.08255-0.0662 0.21484-0.0662s0.19844-0.11589 0.19844-0.11589-0.08255-0.19844-0.16536-0.29766c-0.08282-0.0992 0.08255-0.21484 0.08255-0.21484s0.11589-0.14869 0.26458-0.14869 0.18203-0.0331 0.33073 0.0331c0.1487 0.0661 0.15663 0.0807 0.15663 0.0807l0.14711-0.014c0.05265-0.10372-0.01085-0.42969-0.03731-0.53446l0.04577-0.059 0.10557 0.0513c0.02381 0.11377 0.13176 0.27411 0.23257 0.3339l0.08123-0.0246-0.08758-0.38285c0.16722-0.23178 0.03863-0.55351 0.25532-0.83476-0.1225-0.23707 0.0971-0.70141 0.13203-0.94959 0.0037-0.0265-0.03149-0.13123-0.02567-0.15081 0.09207-0.30957 0.19738-0.62177 0.27781-0.93425 0.02117-0.0823 0.0098-0.17912 0.03043-0.26167 0.02752-0.10927 0.12912-0.25374 0.13467-0.36274 0.0095-0.18865 0.07064-0.56409-0.03466-0.73237l-0.10636-0.07911-0.02963-0.07567 0.10292-0.11165c0.01641-0.02646-0.06138-0.90302-0.06668-0.93477l-0.118-0.09763c-0.28231-0.0077-0.6395 0.08361-0.81888 0.32041l-0.03837 0.28813-0.14049 0.372v0.14049l-0.09102 0.39688 0.03307 0.13229-0.06615 0.372 0.04128 0.06615-0.14049 0.40508-0.17357 0.26458-0.04128 0.19844-0.21484 0.23971-0.14049 0.0413h-0.15716v-0.0497l0.21484-0.0579 0.14049-0.14049 0.08255-0.13229 0.0164-0.18204 0.09102-0.2233 0.16536-0.4879-0.06615-0.40508 0.06615-0.55404-0.07435-0.09102 0.04127-0.14049 0.02487-0.32253-0.02778-0.28813c-0.06535-0.01614-0.12621-0.03334-0.16166-0.05503l-0.10081 0.23363-0.06033-0.05053c-0.03334-0.20955 0.14288-0.22542 0.01641-0.47757 0.02381-0.13308 0.11853-0.39635 0.25003-0.46302 0.06773-0.0066 0.13626-0.01085 0.20346-0.02037l0.02143-0.12197-0.2032 0.03149-0.10081-0.07355-0.01958-0.09895 0.16087-0.17674-0.01217-0.06932-0.09446-0.068 0.0164-0.0471 0.22013-0.10795 0.03413-0.05265 0.39714-0.01191 0.1098-0.07144c-0.08308-0.06244-0.14023-0.2368-0.14499-0.3347l-0.05927-0.0344-0.26802 0.0098 0.06165-0.12912-0.12303-0.0093-0.059-0.03995 0.13891-0.08969-0.04233-0.06614 0.05503-0.25929 0.12965 0.09684 0.05768-0.07011 0.07091 0.06244 0.11165 0.02196 0.16166 0.25321 0.08758 0.01058 0.1098-0.09472 0.19368 0.07303 0.11589-0.07726-0.12568-0.17886 0.06244-0.11721 0.14499-0.06588 0.02223-0.05265-0.06535-0.07435-0.09366-0.01058-0.14526 0.0717-0.12859-0.0093-0.04313-0.15637-0.13467-0.01535-0.03678-0.10451-0.19976 0.09684-0.07435-0.12409 0.18203-0.09102-0.04128-0.16536-0.19024-0.05794-0.18203-0.14049s-0.17357-0.08255-0.17357-0.32253-0.0082-0.40508 0.04974-0.53737 0.15716-0.23971 0.19024-0.372c0.03307-0.13229 0.11589-0.372 0.16536-0.48789 0.04948-0.11589 0.18203-0.41328 0.18203-0.44662s0.04974-0.3638-0.0082-0.40508c-0.05794-0.04127-0.07435-0.04974-0.12409-0.02487s-0.17357 0-0.22331-0.03307-0.28099-0.05794-0.31432-0.03307c-0.03334 0.02487-0.21484 0.07435-0.21484 0.07435l-0.08255 0.15716c-0.0164 0.03307-0.09922 0.16536-0.15716 0.15716s-0.02487-0.13229-0.02487-0.17357c0-0.04127-0.04127-0.08255-0.07435-0.03307-0.03307 0.04948-0.08255 0.07435-0.09102 0.0082-0.0085-0.06615-0.14049-0.15716 0.0164-0.24818 0.1569-0.09102 0.15716-0.19844 0.11589-0.25638s-0.04127-0.1487-0.03307-0.24818 0-0.28946-0.0082-0.3556c-0.0082-0.06615-0.07435-0.27279-0.08255-0.32253s-0.10742-0.24818-0.10742-0.24818l-0.0545-0.12753-0.12647 0.05398c-0.10107 0.20373-0.22966 0.4736-0.12912 0.69929l-0.03889 0.10504-0.0852-0.19632-0.05689 0.47546-0.10372 0.06165-0.04022-0.12568 0.09578-0.41037-0.04233-0.10398c-0.12674 0.08043-0.42307 0.76465-0.47652 0.94324l-0.06403 0.03598c-0.06191-0.09366 0.2159-0.77126 0.26035-0.89932l-0.06985-0.02222-0.37491 0.83397c-0.07832 0.17436 0.01376 0.29078-0.02011 0.44529-0.07699 0.34925-0.22622 0.7202-0.33417 1.0634l0.09657 0.19579-0.33549 0.59267c0.08493 0.34369-0.09948 0.44794 0.10345 0.99801l-0.04445 0.15161 0.12647 0.21325-0.4535 0.89085 0.02434 0.06932 0.10054 0.05689c0.04048 0.23442 0.02725 0.51805-0.09366 0.72787 0.15769 0.41778-0.0045 0.80962 0.07594 1.233l-0.42942 0.69638-0.05345 0.0127-0.06456 0.34369c-0.26587-0.24578-0.11003-0.70404-0.291-1.0128-0.20849-0.02884-0.28204-0.20638-0.29739-0.39767l-0.12356 0.02037-0.02646 0.16351-0.10424 0.06535-0.06191 0.16404-0.18627 0.06112-0.11377 0.16484-0.1397 0.03096 0.0071 0.06959 0.07091 0.05106 0.01243 0.07012-0.17727 0.22304-0.19791 0.03863c0.0299 0.35507-0.1098 0.83317-0.28549 1.1377 0.059 0.13864 0.13229 0.27464 0.14102 0.42783l0.06562 0.04c0.14261 0.0296 0.30639-0.25241 0.39926-0.22728l0.05424 0.0862-0.0042 0.12198 0.12144-0.0484 0.01323 0.0526-0.12091 0.12356 0.0013 0.0876c0.313 0.14023 0.33946 0.92419 0.34025 1.1925l0.08811 0.0624 0.02487 0.0871-0.1487 0.19976c-0.05556 0.61701-0.0508 0.97155 0.18203 1.5256 0.0071 0.0172 0.03043 0.0373 0.04233 0.0519 0.25612 1e-3 0.28575-0.24791 0.3138-0.42915l0.29739-0.045 0.02196-0.0468 0.1778 0.1479c-0.05424 0.5334 0.3339 0.31829-0.03043 1.0239 0.02567 0.0979 0.0934 0.21854 0.16801 0.2876-0.01958 0.15954 0.17357 0.50721 0.25638 0.6305l0.1741 0.0492 0.1098-0.10027 0.07197 0.16695 0.08202-0.0127 0.05133-0.0646c-0.05609-0.19156-0.03863-0.50192 0.03545-0.6866l0.05847-0.0238c0.05371 0.12171 0.0672 0.331 0.03043 0.45879l0.06615 0.12065 0.1487-0.21749 0.06932 5e-3c-0.13203 0.23072-0.09419 0.52838-0.07567 0.75116l-0.09657 0.15293c-0.06456 0.0177-0.19447-0.0577-0.24024-0.0952l-0.05609 0.16986-0.07117-0.0807-0.09313 0.0188-0.07329-0.20823-0.04736-0.04-0.12224 0.0196-0.07488 0.0709c0.03307 0.0844 0.0079 0.2458-0.02355 0.32597 0.0127 0.0791 0.07276 0.22939 0.1442 0.27622l0.12938 0.0386c0.15161 0.0831-0.0021 0.52203 0.0971 0.64955l0.09922-0.0183 0.0508-0.10027c-0.05689-0.13679-0.05794-0.32121 0.02752-0.44741l0.09869-0.031c0.02963 0.0683 0.07726 0.22595 0.15002 0.2532l0.15134-0.0135c0.06747 0.11192 0.1397 0.31697 0.12409 0.45112l0.10081 0.13255-0.03334 0.10504-0.0971 0.0884c-0.06165 0.12568-0.11112 0.63871-0.02355 0.73317l0.25823 0.10662 0.07779 0.13811 0.25903 0.14738c0.0672-0.0386 0.21431-0.032 0.28549-0.0161l-0.06112-0.16748 0.04577-0.0526 0.07567-7e-3 0.06059 0.11509 0.06456 0.0344 0.18468-0.096c0.05556 0.10028 0.2667 0.53657 0.20267 0.64823l0.08414 0.13255 0.23892-0.75961 0.10345-0.0884c0.06588-0.12859-0.0209-0.35904-0.0021-0.51224l0.16669-0.17674c-0.0071-0.045 0.0672-0.35163 0.07223-0.45641 0.0024-0.0468-0.0058-0.0749 0.0061-0.12012 0.04921-0.18468 0.15848-0.3937 0.23072-0.57308-0.12965-0.35084 0.44768-0.4953 0.14922-1.2584l-0.10081-0.10319 0.03413-0.0812 0.09869-0.0254c0.11271-0.0675 0.14261-0.23707 0.08811-0.35004l0.0852-0.12912-0.01852-0.0815-0.13044-0.12541 0.02196-0.0878-0.05345-0.0863-0.09869 0.0773-0.33205 0.0392z" fill="#f3d6e9"/>
   <path d="m98.693 73.605-0.03731 0.07038 0.06191 0.06615 0.06191 0.03731 0.0042 0.07038-0.02884 0.05794-0.24395 0.0164-0.1696 0.06615-0.1778-0.0082-0.21087 0.06615-0.06615-0.04127v-0.14049l0.07858-0.08678-0.01244-0.08678-0.03731-0.04127-0.05794 0.0164-0.09499 0.10742-0.08678 0.04551-0.10345-0.04128-0.04551-0.10742-0.0082-0.09922-0.10345-0.05794h-0.18203l-0.14049-0.03731-0.13785 0.01376c-0.10345 0.04498-0.2159 0.14023-0.26723 0.2204-0.0418 0.0934 0.0048 0.45614 0.02011 0.55774l-0.09181 0.11218-0.1868 0.04366-0.13123-0.1143-0.02275 0.0471-0.13414 0.01667-0.05212 0.04419c0.06959 0.04895 0.12912 0.45164 0.1487 0.54372-0.11853-0.0971-0.23151-0.34449-0.27702-0.48419l-0.059-0.0344-0.04657 0.01826-0.06059 0.27437-0.24315 0.20108c-0.04815 0.08096-0.07832 0.24024-0.04736 0.33179l-0.04577 0.07091-0.07699-0.05741-0.04604-0.2196-0.05689 0.04921c-0.06085 0.13309 0.10663 0.34502 9e-3 0.54425l-0.11298-0.10874-0.09525-0.45799c-0.08916 0.0508-0.16589 0.17039-0.19923 0.26061-0.15293 0.41302 0.01746 0.47255 0.09975 0.88609 0.02223 0.11271-0.0045 0.24527 0.01535 0.35904 0.05556 0.32094 0.14684 0.39978 0.09578 0.73634-0.01296 0.08625 0.02408 0.20373 0.03942 0.29104l0.14817 0.10239c0.01191 0.11404 0.11112 0.29104 0.2159 0.34581-0.20029 0.06747-0.26564 0.19711-0.29845 0.37597l0.04233 0.0926c0.06244-0.0013 0.16907 0.0299 0.21246 0.07858l-0.05768 0.059c-0.08731-0.0095-0.25956 0.0066-0.33338 0.06324l-0.04022 0.05821 0.01323 0.08705 0.17145 0.12541 0.03043 0.06959-0.04974 0.15161 0.07223 0.13864 0.26511 0.0127 0.1524-0.08546 0.28945 0.08255 0.1487-0.09102 0.20664-0.28946 0.13229-0.1487 0.05794-0.31432 0.04974 0.04974-0.02487 0.38867 0.04974 0.32253-0.10742 0.24818-0.08255 0.29766 0.02487 0.42995-0.09102-0.0164-0.02487-0.22331 0.02487-0.30586-0.04128-0.20664-0.09922-0.09102-0.1487 0.04974-0.39688-0.07435-0.0164 0.10742-0.12382-0.01561-0.02963 0.11404c-0.03254 0.05133-0.1352 0.0852-0.19182 0.08414l-0.16034 0.25823 0.08467 0.15558-0.01587 0.12832-0.17992 0.09525c-7.94e-4 0.05398-0.03545 0.15161-0.08493 0.18177l-0.08255-0.01058c0.0056-0.1053-0.01614-0.32914-0.08811-0.41672l-0.06324 0.09948 0.02646 0.14446c-0.11853 0.15028-0.15637 0.30268-0.20981 0.47969l-0.07567 0.0069-0.03387 0.08202-0.09446-0.04472-0.05212 0.0127-0.07514 0.10504-0.1696 0.0085-0.03387 0.07646 0.04789 0.07435 0.37624 0.12277 0.0598 0.07435c-0.05847 0.18838-0.03572 0.43683 0.10292 0.58552l-0.09102 0.16986c0.03651 0.05768 0.11615 0.23574 0.08123 0.30718-0.22252 0.16748-0.19685 0.27199-0.22013 0.53234-0.0021 0.02249-0.12435 0.35692-0.14023 0.4027l0.18388 0.15981-4e-3 0.08758c0.08731 0.0926 0.16351 0.30692 0.12965 0.43418-0.20717 0.13811-0.19844 0.60219-0.05212 0.7792l-0.01588 0.12832-0.14499 0.07223-0.02858 0.05821 0.03625 0.06932 0.1053-0.01323 0.0598 0.10398c-0.15372 0.16298-0.13864 0.8046-0.136 1.0078 0.0034 0.25109 0.18044 0.5379 0.01799 0.7665 0.06085 0.12726 0.0034 0.69241-0.0048 0.84878l0.05424 0.0807 0.09313-0.04207 0.06456 0.03995 0.02487 0.06324-0.09102 0.18785 0.05424 0.10954 0.15266 0.01482 0.0426 0.11589 0.06826 0.19156 0.31432-0.03307 0.02487-0.11589 0.09922-0.09922 0.0082 0.22331 0.27279 0.05794 0.17357 0.13229 0.11589-0.28099 0.10742 0.05794 0.14049-0.20664 0.11589-0.16536 0.11589 0.12409 0.3556 0.07435 0.08255 0.09102 0.1487-0.12409 0.1487-0.05794 0.20664 0.04974 0.44662 0.22331 0.372-0.1487 0.06614-0.10742 0.2159-0.0085c0.12118 0.0021 0.30559-0.03149 0.40984-0.09895l0.11165 0.04498 0.16801-0.09552c0.05688 0.0098 0.26802 0.03572 0.31591-0.0042l0.03387-0.059-0.04233-0.07514-0.27437 0.0217-0.02408-0.0463 0.02276-0.07012-0.16536-0.04974-0.04789-0.10372 0.05609-0.12912 0.07567-0.01826c0.05927 0.08784 0.23495 0.25665 0.35481 0.2503l0.01111-0.07594-0.17859-0.15981-0.06165-0.25532-0.17224-0.14235c-0.06112 5e-3 -0.14473 0.07144-0.17912 0.11853l-0.07726-0.06244-0.04921-0.16404-0.22331-0.07858-0.02487-0.21908-0.21908-0.27278-0.09499-0.21087-0.14049-0.04551-0.05794-0.13652 0.07038-0.19024-0.06191-0.08678-0.09922-0.03307-0.02064-0.18203 0.31432 0.08678 0.0082-0.05794-0.17357-0.21087-0.40111-0.16113-0.24818-0.03731 0.0164-0.05371h0.21087l0.39264 0.14473 0.19024 0.11589 0.36804 0.01243 0.16536-0.02487 0.1942 0.23971 0.21908-0.13229 0.15293-0.0082 0.13652 0.13652 0.07435-0.01243-0.13652-0.35137-0.372-0.26882h-0.1778l-0.25215-0.25215-0.26882-0.1487-0.19844-0.33893 0.26882 0.27279 0.42995 0.30189 0.10345-0.0164 0.15293 0.06191 0.13229 0.10345 0.31009 0.31829 0.10345 0.02884 0.22331 0.1696-0.09102 0.3265 0.18891 0.07408s-0.13335 7.94e-4 0 0c-0.05239-0.31432 0.33073-0.35798 0.12779-0.85011l-0.14182-0.10874 0.02196-0.0934 0.11192 0.08573c0.06773-0.01111 0.15663-0.08625 0.19156-0.14261l0.21669 0.03228c0.0905-0.03704 0.19024-0.25718 0.21749-0.34025l0.20347-0.12488 0.0735-0.14658-0.0606-0.11589-0.0765-0.01058-0.28232 0.26008-0.19314 0.02593 0.0452-0.14578-0.0437-0.17965c0.13891-0.04842 0.30295-0.38523 0.29633-0.52758l0.0521-0.02461 0.0791 0.1741 0.13494 9e-3 0.11933 0.16695c0.0421-0.05715 0.0749-0.16775 0.0667-0.23918l0.13467-0.0013-1e-3 -0.0934c-0.0434-0.04657-0.12832-0.17806-0.10927-0.24818 0.12753-0.21722 0.29898-0.67469 0.24368-0.93345-0.10663-0.499-0.53922-1.3729-0.5125-1.806 0.0233-0.37994 0.136-0.81042 0.19923-1.1888 0.0516-0.30798 0.0177-0.71199 0.0257-1.029l0.12012-0.1823 0.1778 0.13123 0.0688-0.14023-0.0492-0.15002-0.21114-0.02037c-0.0519-0.06985-0.0905-0.18547-0.0926-0.27199l0.0987-0.11139-8e-3 -0.08784c-0.10054-0.07382-0.15875-0.28813-0.15213-0.40481l-0.21167-0.04339c-0.0294-0.10478-0.0497-0.25823-0.1397-0.32888l-0.059-0.01111-0.0749 0.04763c-0.0608-5.29e-4 -0.1434-0.07779-0.17145-0.12568l-0.0193-0.0926c0.04-0.16457 0.21431-0.28575 0.22834-0.43921l0.11033-0.0598-0.014-0.11562 0.11588-0.11218 4e-3 -0.08784c-0.14419-0.14817-0.20002-0.50218-0.15689-0.69506l-0.0653-0.09181-0.0593-0.01667c-0.0233-0.04551-0.0114-0.29289-0.0111-0.35428l-0.0598-0.09181-0.11801-0.04498c-0.0876-0.1225-0.16007-0.4863-0.18547-0.6313l-0.06535-0.05106c-0.13203-0.02593-0.32015-0.02646-0.43259 0.05821l-0.07091-0.02805 0.12277-0.39688 0.3257-0.19076 0.0048-0.07514-0.11245-0.0336-0.13944 0.06614-0.08837-0.01058-0.22701-0.28681-0.05265-0.01111c-0.05583 0.19368 0.16378 0.44715-0.02037 0.62204l-0.10425 0.05424c-0.10504-0.03307-0.27305-0.02699-0.39449 0.01244z" fill="#c2f0c2"/>
   <path d="m103.08 61.449c0.13547-0.5289 0.39555-0.32914 0.48366-0.54425l-0.0132-0.09895-0.16881 0.1016-0.0304-0.07567 0.0974-0.22172-0.0487-0.10372c-0.0701 0.02037-0.19314 0.22225-0.22516 0.28178l-0.12276 0.01905-0.31327-0.51911c-0.10293-0.0011-0.26697-0.06906-0.33126-0.15214l0.046-0.07567 0.0701-0.01905 0.10054 0.0336 0.046-0.07011-0.0542-0.10372c0.0582-0.09869 0.0233-0.34158-6e-3 -0.44185l-0.0542-0.06323-0.17092-0.04974-0.0243-0.06377 0.064-0.02937 0.15901 0.04419 0.0701-0.04207c0.013-0.0672 0.0667-0.23548 0.13124-0.2749l-0.0487-0.08625 0.13335-0.14102c-0.0132-0.1868 0.0545-0.33152 0.0696-0.50641 0.014-0.16113 3e-3 -0.33761 4e-3 -0.50006-0.13397-0.35694-0.17895-1.1028-0.38876-1.3195l-0.14737 0.01349-0.11007 0.11218-0.086 0.14023-0.0759 0.06535c0.0257 0.12885 0.0275 0.29607-6e-3 0.42439l-0.0638 0.03016-0.20691-0.46778-0.27225-0.12965-0.0812 0.03016c-0.0124 0.12118-0.0696 0.38894-0.15769 0.48392l0.17727 0.44529-0.064 0.08202-0.0825-0.05133-0.17648-0.0034-0.032-0.13891c-0.18304-0.30824-0.48863-0.08467-0.72279-0.04207-0.0526 0.0095-0.15875-0.02434-0.21166-0.01482-0.18786 0.0336-0.47943 0.14578-0.62495 0.27622l0.06615 0.0807 0.2831 0.07726 0.01402 0.13335c-0.03625 0.05027-0.13996 0.08202-0.19844 0.07858l-0.12779 0.11774 0.04789 0.05768c0.05794-0.04101 0.18547-0.08493 0.2577-0.06165l0.02487 0.0807c-0.01323 0.0545-0.0344 0.13494-0.068 0.1815l-0.08758 0.04154-0.12488-0.10874-0.06482 0.0127-0.06297 0.07646-0.12356 0.01349-0.06324 0.08837c0.02434 0.43788-0.11906 0.47625-0.53949 0.44318l-0.12779 0.09472-9e-3 0.59346 0.20981 0.24051 0.01852 0.11007-0.04498 0.11721-0.16828 0.136-0.14155-0.03307-0.01244 0.31432 0.04181 0.04551c-0.05424 0.02249-0.10769 0.17251-0.12012 0.22225l-0.08202 0.02461-0.07699-0.06244-0.04313-0.13335-0.12832 0.05953-0.20082-0.04921c-0.04789 0.0336-0.09895 0.17621-0.11404 0.2286l0.01958 0.11562 0.12515 0.10239 0.10557-0.0127 0.10768 0.10874 0.1696-0.03731 0.07091 0.0336 0.02487 0.0926-0.04498 0.09948c-0.42545-0.03519-0.30321 0.26458-0.48974 0.28548l-0.14261-0.12541c-0.15346 0.18415-0.21034 0.61383-0.18124 0.83952-0.04789 0.06509-0.20928 0.25135-0.20611 0.32835l0.10425 0.28337-0.07911 0.2159 0.05424 0.05768c0.09049-0.01667 0.26062 0.06826 0.32994 0.11721l-0.13758 0.20558 0.03202 0.15637-0.04657 0.04683c-0.0852 0.0082-0.20373-0.02117-0.27622-0.06588l-0.01746 0.05265 0.05477 0.10372-0.03942 0.1053 0.12012 0.17886 0.13467-0.01402c0.04472 0.0209 0.09128 0.15372 0.10292 0.19632l0.25215-0.0098c0.06403 0.11404 0.08969 0.4355 0.09657 0.5625l-0.12779 0.06588-0.14737-0.01535-0.1188-0.10319-0.12356-0.0098c-0.06403 0.10822-0.12435 0.22225-0.17066 0.33946l0.04154 0.05741 0.09446 5e-3 0.0299 0.06297-0.06826 0.12912 0.08969 0.09763-0.05689 0.14578-0.12224 0.05397-0.07408 0.14658 0.0217 0.26723-0.10292 0.14658 5.29e-4 0.07567 0.05424 0.07435 0.27067 0.05477 0.08969 0.12065-0.06323 0.059-0.08255-0.01058-0.0889-0.07435-0.06879 0.13467-0.10742-0.12621-0.07567 0.0127-0.06403 0.42492 0.05424 0.08705 0.14023-0.01402 0.06059 0.10927 0.36327-0.05742c0.07038 0.01667 0.16563 0.12092 0.20241 0.17754l-0.0799 0.15769 0.03122 0.11007-0.03969 0.12277-0.18891-0.07302-0.05133 0.08202-0.07011 0.02461-0.03678-0.11033-0.11668 0.03651-0.05345-0.05768-0.06324 0.10583-0.21087-0.01482 0.01376 0.17462c0.04948 0.0807 0.18918 0.19315 0.29025 0.19288l0.0016 0.05265-0.08705 0.11139 0.09737 0.22516-0.05688 0.08202-0.20902-0.21749-0.10028-0.0042-0.07964 0.12912c-0.01746 0.14896 0.05318 0.41672 0.17754 0.51409l-0.03413 0.0471-0.17145-0.09604-0.08043-0.27781-0.07091-0.02805c-0.09948 0.31089 0.12806 0.53499-0.08123 0.82629l0.06959 0.35348c-0.09552 0.12409-0.0056 0.4101-0.17727 0.68315l0.07223 0.10319 0.24792 0.10742 0.07488-0.10583 0.01402 0.18574c0.09181 0.02222 0.34158-0.11642 0.41381-0.16351l0.08864 0.03916-0.28258 0.28892-0.29872 0.04551 0.0127 0.05742c0.0725 0.02461 0.21272 0.04207 0.28734 0.01323l0.08255 0.04551 0.01958 0.0926-0.0508 0.14023-0.20611-0.03784-0.09578-0.12621-0.13494-0.02752-0.06376 0.04763-0.07752 0.26855 0.03598 0.09181 0.11853 0.08573-0.12144 0.11774c0.0029 0.11589 0.0024 0.25347 0.03466 0.36618l0.1315 0.10239-0.03069 0.33179-0.07488 0.06535c-0.08705 0.19182 0.05159 0.58923 0.22939 0.76412 0 0 0.0807-0.04339 0.13864-0.03096s0.15716 0.06615 0.15716 0.06615l0.19024 0.0164 0.07038 0.03307 0.04127 0.1696 0.06191 0.08255 0.06615-0.02884 0.11589-0.10345 0.09922-0.03731 0.08255 0.07038-0.0042 0.12409-0.04974 0.08255-0.0042 0.09102 0.04974 0.04128 0.07858-0.0164 0.07435-0.03731h0.15716l0.11986-0.05794 0.22728-0.01244 0.06191-0.02487-0.0164-0.03731-0.08678-0.11165 0.04392-0.17304c0.0029-0.08334 0.04127-0.18442 0.08096-0.23627-0.01085-0.03202-0.04392-0.0807-0.07752-0.0926l-0.07011 0.02461-0.08625 0.13467c-0.10927 0.0034-0.27173-0.09102-0.33073-0.18098-0.03545-0.10398-0.02276-0.57573 0.03122-0.6395 0.0762-0.07408 0.28972-0.06509 0.38047-0.04075l0.07567-0.04127c0.0209-0.07276 0.09181-0.25347 0.15981-0.29872l-0.1188-0.09684 0.0508-0.13467-0.03043-0.07514 0.14499-0.10663 0.01878-0.29104c0.04181-0.07197 0.14817-0.15187 0.22622-0.17754 0.01746-0.05159 0.08255-0.16431 0.14367-0.17674l0.09366 0.01058-0.0029 0.18574 0.10636 0.03942c0.12012 0.15822 0.1016 0.7284 0.08387 0.91122l0.11166 0.0217c0.08493-0.04233 0.13996-0.23257 0.14737-0.31565l0.09869-0.0717 0.05292-5.29e-4 0.03731 0.13308 0.11668-0.03069 0.0624-0.12832-7e-3 -0.09895 0.0577-0.02381 0.0569-0.13467-0.036-0.08705-0.12435-0.07355 5e-3 -0.05265 0.0638-0.02937 0.0167-0.08202c-0.0696-0.01852-0.19447 0.0635-0.23892 0.10795l-0.12912-0.0098c-0.08652-0.07408-0.16113-0.32861-0.18256-0.43286l-0.17092-0.04842-0.04048-0.32491-0.13044-0.10239c0.18732-0.15478 0.18785-0.4363 0.36618-0.6096l0.01032-0.1053-0.06641-0.13256-0.12144-0.09446-0.16536-0.01243-0.22728 0.1696-0.07038 0.16536-0.0082-0.15716 0.06615-0.09499 0.15716-0.14049 0.19844-0.0164 0.11589-0.03307 0.04974-0.1487-0.02884-0.21484-0.24395-0.06615-0.0164-0.06615-0.04127-0.29342-0.17357-0.0042-0.10345 0.03731-0.04974-0.03731 0.02884-0.09922 0.02884 0.06191 0.07435-0.0082 0.16113-0.03731 0.09922 0.06191 0.02064 0.25638 0.02884 0.05371 0.19844 0.08678 0.08255 0.08255 0.0042 0.08678 0.08731 0.18865 0.0077 0.06826 0.10848 0.10874 0.16801-0.17118 0.15848 0.02117 0.0201-0.19897-8e-3 -0.22728-0.0373-0.23151 0.0373-0.07038 0.0786-0.0164 0.0124-0.20664 0.0249-0.16536 0.0206 0.16113 4e-3 0.15293v0.07435l-0.0288 0.02884-0.0786 0.01243-0.0249 0.03307 0.0704 0.23971-4e-3 0.23971 0.0651 0.18389-8e-3 0.12197 0.0659 0.09737-0.10424 0.10028-2e-3 0.27358c0.0577 0.06535 0.18362 0.16933 0.27305 0.18786l0.12144 0.28892 0.25479 0.1823 0.0513-0.07646-0.0722-0.13811c0.0318-0.07938 0.0286-0.21802-4e-3 -0.2966l0.046-0.08758c0.0593 0.02911 0.12304 0.12991 0.14314 0.18944 0.10107 0.0045 0.29607 0.03228 0.38259 0.09393l0.14923-0.24051 0.0521-0.01826 0.21325 0.15425 0.0881-0.01905c0.054-0.03916 0.0775-0.30612 0.0881-0.37306 0.18918-0.07408 0.40402-0.33708 0.47943-0.51832l-0.0132-0.12144-0.0717-0.0926 0.0444-0.15716 0.15213-0.0077c0.10266-0.38206-0.10239-0.92657-0.0688-1.1033 0.0333-0.17542 0.0881-0.37121 0.10425-0.54769 0.0114-0.127-0.0262-0.26723-0.018-0.39476 7e-3 -0.11642 0.0955-0.22939 0.0249-0.34925l-0.0537-0.03995c0.0611-0.21616 0.21404-0.8001 0.17859-1.0255 0.028-0.05424 0.12092-0.17754 0.19103-0.1823 0.19844-0.18283 0.12965-0.68448 0.32067-0.95171l-0.3556 0.15558-0.0471-0.01667-0.13282-0.22992 0.12647-0.21114-0.0251-0.11562-0.19235 0.12409-0.0646-0.01614-0.0722-0.10954-0.0701-0.01058-0.11033 0.10583-0.0418-0.0463-0.16378 0.03731-0.1307-0.08493 0.0458-0.07647 0.0526-0.0127 0.0341-0.08705-0.0249-0.10451 0.14102-0.0077 0.0275-0.07567-0.15346-0.10292-0.0617-0.19076-0.082 0.0069-0.0304-0.06932 0.0624-0.14605-0.0426-0.10372-0.0937 0.0127-0.16033 0.29871-0.0365 0.11086-4e-3 0.12409-0.0825 0.0042 0.0413 0.05794-8e-3 0.10345-0.0786-0.02064-0.11986-0.06191-0.0455-0.09102 0.0288-0.04974h0.0868l0.0249-0.06615-0.0662-0.03731-0.0124-0.15293-0.0537-0.09102-0.0206-0.11166-0.16113-0.02884-0.0164-0.07435-0.1778-0.0042h-0.13653l-0.11985-0.07858-0.0992-0.14049-0.10345-0.02884-4e-3 -0.13229-0.0579-0.07038 0.0124-0.1778 0.11588 0.05794 0.0619-0.19024 0.0164-0.12806 0.12409-0.07435 0.18204 0.0042 0.0164 0.09922 0.0455 0.16536 0.13229 0.01243 0.0373 0.11165-0.0373 0.06615 0.0537 0.09102-0.0373 0.08255 0.0743 0.10742 0.0373 0.05371 0.11588-0.0042 0.0193-0.17754 0.0294-0.09895 0.12912-0.03651c0.0381-0.08176 0.13917-0.20981 0.2249-0.24765 0.0447-0.01111 0.0984-0.01005 0.15531-0.0016l0.0497-0.11165-0.0661-0.20664 0.11985-0.08255-0.11165-0.13229v-0.07038l0.0455-0.26035 0.091-0.01244 0.0579 0.22331 0.0704 0.05371 0.11165 0.02487 0.16113-0.04128h0.21485l0.11588-0.04551z" fill="#e2b584"/>
   <path d="m102.39 62.196c0.11694 0.04286 0.1942 0.08387 0.21299 0.0762l0.25056-0.10239 0.0347-0.068-0.15531-0.22516-8e-4 -0.05106 0.11377-0.06932c0.0259 0.09313 0.0291 0.24024 0.0619 0.31353l0.0569 0.0463 0.0368 0.11642c-0.0844 0.12859-0.12991 0.4236-0.14446 0.57097l0.0603 0.12118c0.0868-0.02487 0.19844-0.11086 0.25003-0.18389l0.0881 5e-3c0.18151 0.068 0.0765 0.49424 0.22596 0.59558l0.0638-0.01826c0.0516-0.05027-0.0172-0.30956 0.0757-0.45455 0.10795-0.16801 0.39052-0.20188 0.43603-0.31988l-0.0257-0.13891-0.25135 0.07276-0.0373-0.16192-0.0945-0.0217-0.27173-0.51964 0.014-0.25532-0.0667-0.12144-0.19103 0.16563-0.082-5e-3 -0.082-0.0042-0.15293 0.0082-0.11165-0.02064-0.16537 0.04551h-0.16113l-0.0786 0.05371-0.0164 0.07038 0.0743 0.06191-0.0661 0.13229 0.0206 0.14473z" fill="#e2e9e9"/>
  </g>
 </g>
 <g font-family="sans-serif" letter-spacing="0px" stroke-width=".26458" word-spacing="0px">
  <text x="19.529217" y="32.003376" font-size="2.1167px" style="line-height:1.25" xml:space="preserve"><tspan x="19.529217" y="32.003376">Interview</tspan><tspan x="19.529217" y="36.41312">island</tspan></text>
  <g font-size="3.5278px">
   <text x="44.868958" y="20.708986" style="line-height:1.25" xml:space="preserve"><tspan x="44.868958" y="20.708986" font-size="2.1167px" stroke-width=".26458">Subashgram</tspan></text>
   <text x="41.117043" y="33.103275" style="line-height:1.25" xml:space="preserve"><tspan x="41.117043" y="33.103275" font-size="2.1167px" stroke-width=".26458">Mayabunder</tspan></text>
   <text x="36.834827" y="61.798523" style="line-height:1.25" xml:space="preserve"><tspan x="36.834827" y="61.798523" font-size="2.1167px" stroke-width=".26458">Adazig</tspan></text>
   <text x="32.794373" y="98.032318" style="line-height:1.25" xml:space="preserve"><tspan x="32.794373" y="98.032318" font-size="2.1167px" stroke-width=".26458">Rutland island</tspan></text>
  </g>
  <text x="17.643259" y="87.573814" font-size="2.1167px" style="line-height:1.25" xml:space="preserve"><tspan x="17.643259" y="87.573814">Tarmugli</tspan><tspan x="17.643259" y="91.983559">island</tspan></text>
  <g font-size="3.5278px">
   <text x="34.749435" y="88.257011" style="line-height:1.25" xml:space="preserve"><tspan x="34.749435" y="88.257011" font-size="2.1167px" stroke-width=".26458">Port Blair</tspan></text>
   <text x="45.958447" y="72.22551" style="line-height:1.25" xml:space="preserve"><tspan x="45.958447" y="72.22551" font-size="2.1167px" stroke-width=".26458">Havelock island</tspan></text>
   <text x="49.37973" y="64.530342" style="line-height:1.25" xml:space="preserve"><tspan x="49.37973" y="64.530342" font-size="2.1167px" stroke-width=".26458">John Lawrence island</tspan></text>
   <text x="78.021439" y="62.971554" style="line-height:1.25" xml:space="preserve"><tspan x="78.021439" y="62.971554" font-size="2.1167px" stroke-width=".26458">Barren island</tspan></text>
   <text x="27.580879" y="122.53573" style="line-height:1.25" xml:space="preserve"><tspan x="27.580879" y="122.53573" font-size="2.1167px" stroke-width=".26458">Little Andaman</tspan></text>
   <text x="25.429396" y="131.46977" style="line-height:1.25" xml:space="preserve"><tspan x="25.429396" y="131.46977" font-size="2.1167px" stroke-width=".26458">Indira Bazar</tspan></text>
   <text x="36.965168" y="189.26848" style="line-height:1.25" xml:space="preserve"><tspan x="36.965168" y="189.26848" font-size="2.1167px" stroke-width=".26458">Car Nicobar</tspan></text>
   <text x="58.470833" y="286.1091" style="line-height:1.25" xml:space="preserve"><tspan x="58.470833" y="286.1091" font-size="2.1167px" stroke-width=".26458">Great Nicobar</tspan></text>
   <text x="76.179543" y="267.50201" style="line-height:1.25" xml:space="preserve"><tspan x="76.179543" y="267.50201" font-size="2.1167px" stroke-width=".26458">Little Nicobar</tspan></text>
   <text x="57.819149" y="248.57199" style="line-height:1.25" xml:space="preserve"><tspan x="57.819149" y="248.57199" font-size="2.1167px" stroke-width=".26458">Katchal</tspan></text>
   <text x="68.767487" y="232.67082" style="line-height:1.25" xml:space="preserve"><tspan x="68.767487" y="232.67082" font-size="2.1167px" stroke-width=".26458">Camorta</tspan></text>
   <text x="69.419174" y="242.83713" style="line-height:1.25" xml:space="preserve"><tspan x="69.419174" y="242.83713" font-size="2.1167px" stroke-width=".26458">Nancowry</tspan></text>
   <text x="39.050568" y="232.54048" style="line-height:1.25" xml:space="preserve"><tspan x="39.050568" y="232.54048" font-size="2.1167px" stroke-width=".26458">Teressa</tspan></text>
   <text x="71.765244" y="222.11349" style="line-height:1.25" xml:space="preserve"><tspan x="71.765244" y="222.11349" font-size="2.1167px" stroke-width=".26458">Tillangchong</tspan></text>
  </g>
  <text x="1.7861953" y="93.598419" font-size="2.1167px" style="line-height:1.25" xml:space="preserve"><tspan x="1.7861953" y="93.598419">North Sentinel</tspan><tspan x="1.7861953" y="98.008163">island</tspan></text>
 </g>
 <g fill-rule="evenodd" stroke-width=".18072">
  <ellipse cx="43.723" cy="19.83" rx=".50165" ry=".52135"/>
  <ellipse cx="40.093" cy="33.124" rx=".50165" ry=".52135"/>
  <ellipse cx="36.444" cy="60.886" rx=".50165" ry=".52135"/>
  <ellipse cx="39.311" cy="41.596" rx=".50165" ry=".52135"/>
 </g>
 <text x="40.87529" y="41.987244" fill="#000000" font-family="sans-serif" font-size="3.5278px" letter-spacing="0px" stroke-width=".26458" word-spacing="0px" style="line-height:1.25" xml:space="preserve"><tspan x="40.87529" y="41.987244" font-size="2.1167px" stroke-width=".26458">Betapur</tspan></text>
 <g fill-rule="evenodd" stroke-width=".18072">
  <ellipse cx="33.055" cy="87.084" rx=".50165" ry=".52135"/>
  <ellipse cx="24.583" cy="131.79" rx=".50165" ry=".52135"/>
  <ellipse cx="35.728" cy="191.06" rx=".50165" ry=".52135"/>
  <ellipse cx="79.064" cy="293.02" rx=".50165" ry=".52135"/>
 </g>
 <g fill="#000000" font-family="sans-serif" letter-spacing="0px" word-spacing="0px">
  <text x="65.118034" y="294.19006" font-size="3.5278px" stroke-width=".26458" style="line-height:1.25" xml:space="preserve"><tspan x="65.118034" y="294.19006" font-size="2.1167px" stroke-width=".26458">Indira Point</tspan></text>
  <text x="78.593307" y="13.475418" font-size="3.5278px" stroke-width=".26458" style="line-height:1.25" xml:space="preserve"><tspan x="78.593307" y="13.475418" font-size="2.1167px" stroke-width=".26458">Narcondam Island</tspan></text>
  <text x="37.086849" y="192.25595" font-size="3.5278px" stroke-width=".26459" style="line-height:1.25" xml:space="preserve"><tspan x="37.086849" y="192.25595" font-size="2.1167px" stroke-width=".26459">Perka</tspan></text>
 </g>
</svg>
