<svg width="294.57mm" height="413.23mm" version="1.1" viewBox="0 0 294.56825 413.22478" xmlns="http://www.w3.org/2000/svg" xmlns:cc="http://creativecommons.org/ns#" xmlns:dc="http://purl.org/dc/elements/1.1/" xmlns:rdf="http://www.w3.org/1999/02/22-rdf-syntax-ns#">
 <g fill="none" stroke="#000">
  <g transform="translate(86.281 180.16)" stroke-width=".5" stroke="#fff">
   <polygon fill="#e2b584" transform="matrix(1.887,0,0,1.887,-571.87,-645.37)" points="352.49 390.14 354.14 389.45 354.14 387.81 352.22 387.81 349.89 387.81 348.79 386.44 349.89 384.93 349.89 382.88 347.7 382.88 346.19 382.88 345.09 380.82 343.47 381.62 343.63 381.62 343.63 384.98 339.66 389.26 339.66 393.54 336.6 395.67 336.6 398.12 333.54 403.31 335.38 404.84 335.38 411.25 334.46 412.78 336.6 415.84 334.46 420.73 334.46 430.81 334.46 438.44 331.41 444.86 329.27 449.14 326.05 451.28 326.05 458.64 327.83 459.32 327.83 463.02 329.06 463.57 330.02 464.53 331.12 465.22 332.76 463.98 332.76 461.93 333.31 461.93 334.95 461.93 336.32 460.7 337.28 460.7 337.83 460.7 337.83 459.05 339.75 455.62 339.75 452.61 341.94 451.58 344.27 452.61 345.64 452.61 346.32 451.58 347.42 448.23 346.6 446.99 347.42 442.61 348.79 442.06 349.34 443.29 350.16 443.29 351.53 441.51 352.49 441.51 353.86 441.51 354.89 440.01 354.89 438.09 356.06 438.09 358.38 430.28 359.62 428.22 361.95 420.69 362.09 420.56 363.45 419.32 363.45 417.81 364.69 416.58 363.86 415.9 362.49 416.58 361.12 414.31 358.93 413.43 358.93 414.31 357.84 415.35 357.84 416.58 355.37 416.03 353.73 414.31 352.36 413.43 352.08 410.82 355.37 410.82 354.14 409.32 352.08 409.32 352.08 403.98 350.85 403.98 350.16 402.74 351.12 402.06 351.12 396.99 351.26 394.52 352.22 392.33"/>
   <polygon fill="#abacda" transform="matrix(1.887,0,0,1.887,-571.87,-645.37)" points="328.66 383.45 325.6 382.54 325.6 384.98 323.16 384.37 321.94 380.4 319.49 380.4 316.74 380.4 313.38 380.4 310.32 377.04 307.57 378.56 307.57 380.7 307.27 383.15 308.49 385.59 310.63 386.2 311.85 390.17 312.16 394.45 313.38 396.9 311.55 399.34 309.41 403.31 307.57 405.45 308.49 407.28 307.57 411.86 306.66 416.75 305.13 422.56 307.27 423.47 307.27 425.61 306.66 428.36 309.41 429.89 309.1 432.95 310.02 434.78 311.55 435.7 309.41 439.97 305.13 451.58 319.19 451.58 325.6 451.58 326.05 451.28 329.27 449.14 331.41 444.86 334.46 438.44 334.46 430.81 334.46 420.73 336.6 415.84 334.46 412.78 335.38 411.25 335.38 404.84 333.54 403.31 336.6 398.12 336.6 395.67 339.66 393.54 339.66 389.26 343.63 384.98 343.63 381.62 343.47 381.62 341.49 381.62 337.52 381.62 336.6 380.4 334.82 380.4 334.46 380.4 332.32 381.62 330.18 381.62"/>
   <polygon fill="#a3b0a3" transform="matrix(1.887,0,0,1.887,-571.87,-645.37)" points="380.96 360.08 379.33 358.95 376.58 358.95 375.08 359.08 372.7 360.58 372 360.33 369.58 362.08 368.2 360.83 368.82 359.63 365.33 357.83 363.58 357.95 361.96 356.33 361.58 354.2 361.33 352.2 359.7 352.2 359.7 353.45 358.83 354.08 356.7 354.83 355.08 355.2 354.08 354.7 351.7 355.58 350.2 354.7 348.2 355.7 347.08 356.2 345.37 354.83 341.46 356.45 338.96 356.45 338.25 355.04 337.5 355.37 335.66 355.37 334.66 354.37 332.83 354.87 332.83 357.87 332.83 359.04 332.83 360.87 330.16 360.87 331.16 362.7 328.83 361.7 328.83 362.7 326.83 364.2 326.83 365.87 326.05 368.54 326.83 370.7 329 370.7 330.83 370.7 331.78 371.7 330.83 372.54 329.5 372.54 329.83 374.2 331.78 374.2 333.66 372.87 334 374.2 333 374.2 333.33 377.04 334.66 377.04 334.66 378.04 334.82 380.4 336.6 380.4 337.52 381.62 341.49 381.62 343.47 381.62 345.09 380.82 346.19 382.88 347.7 382.88 349.89 382.88 349.89 384.93 348.79 386.44 349.89 387.81 352.22 387.81 354.14 387.81 354.14 389.45 352.49 390.14 352.22 392.33 351.26 394.52 351.12 396.99 351.12 402.06 350.16 402.74 350.85 403.98 352.08 403.98 352.08 409.32 354.14 409.32 355.37 410.82 352.08 410.82 352.36 413.43 353.73 414.31 355.37 416.03 357.84 416.58 357.84 415.35 358.93 414.31 358.93 413.43 361.12 414.31 362.49 416.58 363.86 415.9 364.69 416.58 363.45 417.81 363.45 419.32 362.09 420.56 363.16 424.04 364.69 428.87 364.69 431.37 366.66 433.54 369 434.54 367.83 437.2 369 438.54 370.83 438.54 372 435.04 373.66 435.87 375 434.87 376.66 436.37 376.66 433.87 378 433.87 378.83 435.2 380.33 436.04 381.5 434.87 382.83 436.2 384.16 434.2 386.66 435.2 388 433.2 389 434.04 391 433.54 389.83 431.7 391 428.04 391.83 427.04 390 424.37 390.83 423.02 390.33 421.7 391.83 421.54 391.83 418.7 393 418.54 393 417.04 393 415.7 394.83 415.7 397 414.31 396.16 413.04 394.83 413.54 393.66 412.2 395.33 411.2 394.5 409.7 395.66 409.04 394.83 406.54 397 406.2 397 404.2 396.16 403.04 394.5 400.37 395.83 400.04 396.16 397.87 398 396.45 396.5 394.7 397.33 393.04 398 388.87 399.16 388.04 400.66 388.54 402.16 391.2 403.5 389.87 405.33 390.2 406.66 388.87 406.66 387.2 406.66 384.2 407.83 384.04 410.16 380.82 410.16 378.2 412.33 377.04 411.33 375.04 412.33 372.7 413.16 370.87 412.54 369.67 412.33 371.45 410.09 369.72 409.41 369.2 407.83 369.87 404.75 367.95 393.83 367.79 392.5 366.79 391.75 366.12 392.08 364.79 391.41 363.7 390.33 363.62 389.08 362.45 388.41 361.37 387.75 360.29 388.33 358.12 389.5 358.12 390.16 357.04 390.83 356.12 389.98 355.72 388.84 356.17 386.2 356.91 383.9 358.14 382.58 357.39 382.33 359.08"/>
  </g>
  <g>
   <path d="m4.9722 5.0145 4.269 7.6842h6.8303l7.6841-2.5614 10.246 4.269-0.85379 15.368-3.125 12.902 2.4465 3.4251 0.97858 8.318 0.97858 5.3822-0.48929 9.7859-1.4679 4.8929v4.8929l1.9572 6.8501 0.9786 7.3394 3.4251 4.8929-0.4893 4.4037 11.254-8.8073 3.9143-0.97857 2.4465 2.4465 3.9143 1.4679 0.9786 8.8073 6.8501 2.9357-1.4679 4.8929 2.9358 3.4251-2.9358 10.764 4.4036 2.4465h5.3822l4.4036 4.4037 7.3394 1.4678 0.97858 9.2966 4.4036 3.9143 5.3822-1.4678 3.9143-1.9572 4.8929-0.97858 4.8929 1.4678-0.48929 5.3822v4.8929l3.9144 4.8929 1.9572 4.893h6.8501l2.9358 1.4678-1.9572 6.3608 3.9143 4.893-1.4679 4.8929 1.9572 4.4036-1.4679 1.9572-0.97859 4.4036 0.97859 2.4465-1.9572 2.4465 1.4679 4.8929-3.425 5.8715 8.318-2.9358-4.8929 5.3822 1.4679 4.4036-5.3822 3.425v6.8501l5.8715 4.4036 5.8715 2.4464 8.318 3.9144 12.722 7.3394 8.8073 4.4036 6.8501 2.4465 12.232 11.743h7.3394l5.8715 8.8073 3.9144 4.4036" stroke-width="1.0331px"/>
   <path d="m172.41 252.58-4.8871 8.9596 2.8508 5.7016v14.254l-0.81453 6.1088-6.5161 10.996-4.4798-4.887-2.4435-6.5161-4.0726-3.6653-0.81449 1.2218-3.258-3.258-6.5161-0.81453-2.4435-4.4798-4.4798-3.6653-1.2218-4.0726" stroke-width=".85988px"/>
   <path d="m163.04 298.6h15.396l1.3997-3.7375 3.7325-2.7182v-2.0386l1.8662-2.7182 1.8662-3.0579 1.3997-3.058 13.064-3.7375" stroke-width=".84065px"/>
   <path d="m167.52 261.54-5.9116 4.5426-8.0229-0.75711s-3.8003 0.25237-8.4452 1.5142l-4.6448 1.2618-7.1784 0.25237" stroke-width=".68925px"/>
  </g>
 </g>
 <g fill-rule="evenodd" stroke-width=".36073">
  <ellipse cx="201.66" cy="277.51" rx="5.0635" ry="5.3204"/>
  <ellipse cx="163.4" cy="298.58" rx="5.0635" ry="5.3204"/>
  <ellipse cx="133.18" cy="268.78" rx="5.0635" ry="5.3204"/>
  <ellipse cx="5.0635" cy="5.3184" rx="5.0635" ry="5.3204"/>
 </g>
 <g fill="#000000" font-family="sans-serif" font-size="3.5278px" letter-spacing="0px" stroke-width=".26458" word-spacing="0px">
  <text x="15.278601" y="6.1696429" style="line-height:1.25" xml:space="preserve"><tspan x="15.278601" y="6.1696429" font-size="6.35px" stroke-width=".26458">Guwahati</tspan></text>
  <text x="207.23764" y="268.7832" style="line-height:1.25" xml:space="preserve"><tspan x="207.23764" y="268.7832" font-size="6.35px" stroke-width=".26458">Silchar</tspan></text>
  <text x="112.74783" y="282.82901" style="line-height:1.25" xml:space="preserve"><tspan x="112.74783" y="282.82901" font-size="6.35px" stroke-width=".26458">Karimganj</tspan></text>
  <text x="152.75702" y="310.49493" style="line-height:1.25" xml:space="preserve"><tspan x="152.75702" y="310.49493" font-size="6.35px" stroke-width=".26458">Hailakandi</tspan></text>
 </g>
</svg>
