<svg width="215.6mm" height="230.75mm" version="1.1" viewBox="0 0 215.60228 230.74692" xmlns="http://www.w3.org/2000/svg" xmlns:cc="http://creativecommons.org/ns#" xmlns:dc="http://purl.org/dc/elements/1.1/" xmlns:rdf="http://www.w3.org/1999/02/22-rdf-syntax-ns#">
 <metadata>
  <rdf:RDF>
   <cc:Work rdf:about="">
    <dc:format>image/svg+xml</dc:format>
    <dc:type rdf:resource="http://purl.org/dc/dcmitype/StillImage"/>
    <dc:title/>
   </cc:Work>
  </rdf:RDF>
 </metadata>
 <g transform="translate(-2.5122 -43.663)" stroke="#fff" stroke-width=".5">
  <path id="South Delhi" d="m178.86 188.17c-1.2738-1.9097-2.972-4.1399-4.0337-6.0502-0.53078-1.0632-0.63712-2.1223-1.0615-3.1855-0.0102-0.20052-0.21239-0.3211-0.42449-0.52955-0.31698-0.32111-0.53079-0.63791-0.84934-0.95483-1.2738-0.95486-3.0782-1.3801-4.7768-1.8054-1.5924 1.9097-5.6258 1.4844-7.855 2.7602-3.7151 2.3349 0 7.5364-6.475 7.6426-0.31699 1.4844-0.42447 3.0772-0.84934 4.5643h-0.84932c-0.53077 2.7602-1.5923 5.3074-3.5027 7.1119-1.2738 1.1675-3.2906 1.697-4.4582 2.9728-1.486 1.8054-0.6367 4.2458-0.84934 6.3688-0.21238 3.0772-1.8046 2.8645-3.3968 5.2015-1.3797 2.018-0.63668 4.2458-1.0616 6.5812-3.1841 1.3801-4.4582 4.9888-7.4305 6.6874-1.8046 1.0592-2.8661 1.1675-3.6092 3.2898-0.42448 1.2718 0.31699 3.2898-0.63712 4.3522-1.1675 1.3801-7.6426 0.52957-9.2349-0.42526-0.21239-0.0102-0.42445-0.4253-0.63664-0.52961-0.21238 2.2306-0.317 4.3522-0.63713 6.4753-0.743 4.9889-3.0782 11.146 1.0615 15.179 4.1399 4.1398 10.19 5.3077 14.012 9.978 4.0337 4.9891 5.6258 11.252 13.269 10.19 7.3243-0.95482 14.436-5.201 21.336-7.6426 1.3801-2.2306 2.5476-7.0057 1.8046-9.5532-1.1675-4.2463-4.352-7.1119-4.352-11.889 0-3.8194 4.1399-5.4134 7.4305-6.3688 1.5923-0.42526 2.972-0.32078 4.352-1.3801 1.486-1.1675 1.9105-2.5476 3.8213-3.3981 3.9278-1.8054 6.6874-3.3981 9.8718 0.52958 2.972 3.6108 4.4582 6.2626 8.9163 2.7602 5.0951-3.9278 10.721-10.721 9.978-17.514-0.53077-4.4584-3.5027-8.0671-6.3688-11.358-1.6982-1.9097-4.9891-4.5644-6.6874-7.43l0.21239 0.52956c-0.95523-1.8054-2.0168-3.2898-3.1841-4.5649h-0.21238c-4.4582 0.20079-10.403-5.095-12.632-8.598z" fill="#f0dbce"/>
  <path id="South West Delhi" d="m126.63 233.29c0.95523-1.0632 0.21238-3.0772 0.63668-4.352 0.74302-2.1223 1.8046-2.2306 3.6092-3.2898 2.972-1.697 4.2461-5.3074 7.4305-6.6874 0.42448-2.2306-0.42448-4.5644 1.0616-6.5812 1.5923-2.3349 3.1841-2.1223 3.3968-5.201 0.21238-2.1223-0.63712-4.4584 0.84932-6.3688 1.0615-1.3801 3.1842-1.8054 4.4582-2.9728 1.9105-1.8054 2.8661-4.352 3.5027-7.1119-4.2461 0.32108-10.19-0.0102-12.101-4.1399-1.486-3.2898-0.63671-7.2178-5.5198-7.6426 0.21239-1.8053 0.21239-4.1396 1.3801-5.6255 1.5923-2.1223 4.7768-3.7151 6.6874-5.9446 0.0102-0.0102 0.21238-0.42527 0.31698-0.52958-1.0616-0.63789-2.229-1.1675-3.5027-1.0632 0-1.9096-0.42448-4.9888-0.42448-7.855-4.1399-0.42527-6.8995-0.32095-10.721 1.9096-4.352 2.6519-9.3411 5.0951-11.464 10.19-0.42445 1.1675-0.53077 3.7151-1.8045 4.3517-1.5923 0.74218-4.3522-1.5927-5.5198-2.3349-5.5198-3.2898-8.9166-4.4584-14.118-0.20052-5.4136 4.5644-8.4919 1.2758-12.207-3.8195-2.3353-0.52958-3.7151-0.52958-4.5644-2.9728-1.0615-2.8645-0.53078-6.2626-1.3801-9.1287-0.74303-2.5476-3.0782-5.4136-6.0505-5.7322-1.9105-0.20052-1.8046 1.3801-4.2461 0.52959-3.2906-1.1675-6.1567-4.0337-9.3411-5.4134-1.3801-0.63789-3.8213-0.42526-4.5644-2.018-0.74302-1.3801 0.53077-3.2898 0.95525-4.5644v-0.20053c-2.1231 0-4.8829 0-6.8998 0.5296-2.7599 0.63788-2.5476 2.8645-4.4582 4.6706-1.9105 1.8054-3.0782 1.9097-3.1842 5.3074-0.01055 2.4433 1.0615 4.6708 0.42445 7.1119-2.7599-0.20052-4.7767 0.32091-7.4305 1.0631-2.654 0.74223-5.9443-0.20052-8.2795 0.74223-2.7599 1.0631-4.1399 6.1567-5.3074 8.7042-1.2738 2.6519-0.95524 6.6874-2.5476 9.0228-1.5923 2.3349-5.0951 1.3801-7.6426 2.6519-3.2906 1.5927-5.8381 3.9278-5.2013 7.749 0.95525 6.0505 6.0505 13.375 10.19 17.727 2.3353 2.5476 4.8829 4.6706 5.6258 8.1736 0.6367 3.2898 0.01055 6.5812 1.0615 9.7659 2.972 0.20052 3.7151-0.20079 5.7319-2.018 2.5476-2.2306 4.9889-1.6971 8.1735-1.2718 6.2626 0.95482 12.95 1.3801 19.425 1.1674 0.31697-1.1674 1.2738-1.697 2.3353-1.9096 0.42445-3.5025 12.738-0.74221 15.71-0.95488 0.53078-2.4392 4.352-2.4392 3.5027-5.5195-0.31697-1.3801-1.9105-1.8053-2.5476-3.0772-0.53078-1.2758-0.31697-2.6519-0.21265-3.9278 3.0782 0.4253 6.0505 2.6519 9.1287 3.2898 0.6367 2.8645 1.8046 4.777 3.1842 7.3245 1.8046 3.2898 2.4413 4.8824 6.6874 4.7765 2.1231 0 2.229-0.74221 3.8213-1.3801 1.2738-0.42526 2.4413-0.42526 4.0337-0.42526 1.6982 0 3.0782-0.20053 4.4582 0.7422 2.5476 1.8054 6.0505 4.4584 8.0674 6.7933 1.5924 1.9097 3.6092 5.095 5.5198 6.6874 0.21239 0.20052 0.42449 0.42528 0.63671 0.52958 1.5923 1.2718 8.0674 2.018 9.2349 0.74221z" fill="#c1c4ba"/>
  <path id="West Delhi" d="m52.541 143.38c0.84932 1.5927 3.1841 1.3801 4.5644 2.018 3.1841 1.3801 6.0505 4.2458 9.3411 5.4136 2.4413 0.85052 2.3353-0.63792 4.2461-0.5296 2.8661 0.32095 5.3074 3.1855 6.0505 5.732 0.84932 2.8645 0.42445 6.2629 1.3801 9.129 0.84932 2.4433 2.229 2.4433 4.5644 2.9728 3.7151 5.0951 6.6874 8.2795 12.207 3.8234 5.0951-4.2458 8.4919-3.0772 14.118 0.20052 1.1675 0.74218 4.0337 2.9728 5.5198 2.3349 1.2738-0.63791 1.3801-3.1855 1.8046-4.3522 2.0168-4.9892 7.0057-7.5366 11.464-10.19 3.8213-2.335 6.5812-2.335 10.721-1.9097 0-2.2306 0.21238-4.2458 1.0615-5.7319-0.42447-1.2758-0.84933-2.7602-0.95525-4.352-0.42445-0.0102-0.84929-0.32095-1.2738-0.42527-6.1567-1.0631-12.207-3.3981-18.576-4.352-4.6706-0.63792-8.7042-1.4844-13.056-3.1855-4.0337-1.5927-8.1735-1.3801-12.313-2.7602-4.1399-1.4844-20.699-8.0671-19.85 2.1223-1.486-0.20052-3.8213-1.1675-4.2461-2.6558-5.4136-5.4134-14.118-6.6871-17.514-13.905-0.42445-0.85053-0.6367-1.9097-0.84932-2.8645-2.0168 2.4392 1.1675 6.7933 3.6092 7.6426-0.95524 3.5025 0 7.3243-0.95524 10.933v0.20052c-0.53077 1.3801-1.8046 3.2898-1.0615 4.6708z" fill="#ffcc7b"/>
  <path id="North Delhi" d="m69.208 136.79c0.53077 1.4844 2.7599 2.4432 4.2461 2.6519-0.84931-10.19 15.71-3.6108 19.85-2.1223 4.0337 1.3801 8.2797 1.2718 12.313 2.7602 4.352 1.697 8.4918 2.4432 13.056 3.1855 6.3688 0.95485 12.419 3.1855 18.576 4.3523 0.42444 0.0102 0.84928 0.20052 1.2738 0.42526-0.2129-2.1223 0-4.2463 0.95526-5.9446 2.0168-3.7151 6.7936-2.8645 10.296-2.5476-0.21292-2.5476 1.8045-3.8234 2.8661-5.9446 1.0615-1.9097 1.0615-3.2898 1.0615-5.5196 0-2.7602-1.6982-4.352-3.9278-5.5196-3.6092-2.018-5.9443-5.2015-9.2349-7.4305-2.7599-1.9097-6.2629-3.3981-8.8104-5.5196 2.229-1.8054 4.4582-1.9097 5.2012-4.8829 0.84935-3.5025 2.0168-3.8195 5.3074-5.0951 3.8213-1.3801 7.9612-3.1854 11.464-5.2015 1.6983-0.95483 3.2906-2.3349 5.2013-2.9728 0.0102-1.697-0.31702-3.3981-2.0168-5.3074-2.3354-2.7602-3.1842-5.2015-2.8661-8.8107 1.8046-0.7422 3.7151-1.3801 5.6257-2.018 2.2291-7.7485 0-14.86-6.475-20.062-7.6426-6.0505-12.101 6.1567-19.425 3.8195-3.0782-0.95485-3.9278-4.7765-5.8381-7.006-2.229-2.6519-5.2012-3.3981-8.3857-4.4579-6.6874-2.2306-10.721-5.7322-17.514-2.2306-3.5027 1.8054-7.2181 3.8194-10.084 6.4748-2.3353 2.2306-3.7151 5.7322-6.2626 7.6426-3.0782 2.2306-7.1119 1.0632-10.509 0.52958-4.352-0.7422-8.8104-1.1675-13.056 0.42527-17.939 7.006-13.587 26.643-12.844 41.823 0.31697 5.8382-0.31696 12.207 1.3801 17.833 0.31697 0.95483 0.42445 1.9097 0.84932 2.8645 3.6092 7.1119 12.313 8.4921 17.727 13.799z" fill="#b2b796"/>
  <path id="Central Delhi" d="m142.45 99.533c-3.3968 1.2758-4.4582 1.5927-5.3074 5.0951-0.74302 2.9728-2.972 3.0772-5.2012 4.8829 2.4413 2.1223 5.9443 3.7151 8.8104 5.5196 3.2906 2.2306 5.6258 5.4136 9.2349 7.4305 2.229 1.2758 3.9278 2.8645 3.9278 5.5195 0 2.2306-0.0102 3.6108-1.0616 5.5201-1.0615 2.1223-3.1842 3.3981-2.8661 5.9441-3.6092-0.32095-8.2797-1.1675-10.296 2.5476-0.95525 1.6971-1.1675 3.8234-0.95525 5.9446 0.0102 1.5927 0.53078 2.9728 0.95525 4.352 0.84928-1.3801 2.229-2.1223 4.5644-1.5927 2.972 0.63789 4.2458 3.1855 6.475 4.883 2.229 1.697 3.6092 1.2758 6.3688 0.74219 0.95525-0.20052 7.6426-1.9097 10.615-2.018-0.0102-0.85053-0.0102-1.6971-0.0102-2.5476-0.31698-0.20053-0.743-0.32095-1.0615-0.63789-4.0337-3.0772-4.6706-8.2797-4.4582-12.844 0.21291-4.883 2.229-9.2352 2.229-14.012 0-2.3349 0.53079-4.8829 0.21238-7.2184-0.31702-2.9728-2.5476-3.9277-4.0337-6.3688-3.3968-5.626-2.1231-10.084 0-15.71 2.654 2.4433 4.2461 5.2015 7.0057 7.4305 1.2738 0.95485 2.7599 1.3801 4.2461 1.9097-0.53077-0.85053-1.0615-1.5927-1.5923-2.3349-1.2738-1.8054-2.1231-3.5024-3.1842-5.2015-1.3801-2.1223-3.7151-3.9278-4.883-5.8381-1.0615-0.20052-2.0168 0-2.972 0.32095-1.9105 0.63788-3.5027 2.018-5.2013 2.9728-3.6092 2.1223-7.7488 3.8234-11.464 5.3074z" fill="#ffdbc1"/>
  <path id="North East Delhi" d="m160.5 95.185c-2.1231 5.5201-3.5027 10.084 0 15.71 1.486 2.4432 3.6091 3.3981 4.0336 6.3688 0.31698 2.3349-0.21238 4.8824-0.21238 7.2178 0 4.883-2.1231 9.2349-2.229 14.012-0.2129 4.5644 0.42446 9.7659 4.4582 12.844 0.31698 0.20052 0.74302 0.42526 1.0616 0.63791 0-1.0632-0.21238-2.018-0.0102-3.0772 4.9889-0.74221 10.403 0.42525 15.392-0.42526 1.6982-0.32095 2.972-1.2718 4.6706-1.5927 1.3801-0.20053 3.0782 0.20052 4.4582 0.0102 2.229-0.0102 4.8827-0.95483 7.0057-0.42527 0 1.4844-0.0102 3.1855-0.21238 4.7765 0.63668-1.697 1.5923-3.0772 2.5476-4.7765 0.21238-0.32094 0.31698-0.52956 0.53076-0.95482 1.3801-2.7602 2.229-6.8998 2.5476-9.978 0.53076-6.2626-1.5924-9.8718-8.2795-9.1287-2.3353 0.20054-3.9278 3.1854-6.2629 2.9728-3.0782-0.32091-5.0951-6.1567-6.3688-8.4921-1.5923-2.8645-3.5032-5.626-4.9891-8.4921-1.1675-2.335-1.6982-4.883-3.9278-6.5812-0.84932-0.63788-1.9105-1.0632-2.8661-1.3801-1.486-0.52958-2.972-0.95485-4.2461-1.9097-2.8661-2.3349-4.4582-4.9888-7.0057-7.4305z" fill="#e8dcd5"/>
  <path id="East Delhi" d="m195.84 184.67c2.2291-3.5025 7.855-2.6519 10.084-6.4753 1.6982-3.0772 0.6367-6.7933-0.42447-10.296-0.21291-0.52959-0.31699-1.0632-0.42446-1.6971-1.2738-2.6518-4.0337-4.5643-5.4136-7.3243-0.0102-0.32091-0.42447-0.52958-0.53076-0.95482-0.6367-2.018-0.53078-4.352-0.317-6.5812 0.0102-1.697 0.317-3.2898 0.21239-4.7765-2.1231-0.42526-4.8829 0.32095-7.0057 0.42526-1.3801 0-3.0782-0.42526-4.4582-0.0102-1.6982 0.32095-2.972 1.2758-4.6706 1.5927-4.9891 0.74221-10.402-0.32093-15.392 0.42527-0.0102 0.95482 0.0102 2.018 0.0102 3.0772 0 0.85054 0 1.697 0.0102 2.5476 0.74299 0 1.3801 0.0102 1.486 0.42526 0.84933 2.3349 0.2129 5.6255 0.2129 8.0671-0.0102 2.1223-0.95525 3.5024-1.6982 5.095 0 0.0102 0 0.32094-0.0102 0.42526-0.0102 0.52956-0.21238 1.1675-0.317 1.8054 0.42449 0.63791 0.84933 1.2758 1.0615 1.9097 0.42449 1.8054 0.21292 2.8645-0.42444 3.6108 1.6983 0.3211 3.5027 0.85051 4.7768 1.8053 0.31698 0.20052 0.63707 0.42528 0.84928 0.6379 0.21238 0.20052 0.21238 0.52956 0.317 0.74221 0.42445 1.0632 0.53076 2.1223 1.0615 3.1855 1.0615 2.018 2.7599 4.1399 4.0337 6.0508 2.3353 3.3981 8.1735 8.8101 12.738 8.8101h0.21238c5.2013-0.20053 2.3353-7.4304 3.3968-11.04 0-0.63791 0.21238-0.95483 0.53077-1.3801z" fill="#c2f0c2"/>
  <path d="m156.99 156.34c-2.654 0.52958-4.1399 0.95485-6.3688-0.74221-2.229-1.697-3.5027-4.2458-6.475-4.883-2.4412-0.52958-3.7151 0.20054-4.5644 1.5927-0.84929 1.3801-1.1675 3.5025-1.0615 5.7317 0 2.8645 0.53077 5.8387 0.42447 7.8552 1.2738-0.0102 2.4412 0.42526 3.5027 1.0632 1.1675-1.8054 2.0168-4.7765 4.2461-5.3074 1.6983-0.32096 4.4582 0.95483 6.475 0.85051 2.3353 0 3.0782 0.20052 5.2013 1.2718 2.654 1.2758 6.475 3.1855 8.4918 5.8382 0.21238-0.63788 0.42446-1.1675 0.63709-1.697 0.74303-1.5927 1.6982-2.9728 1.6982-5.0951 0.0102-2.5476 0.74302-5.7322-0.2129-8.0676-0.0102-0.32093-0.74299-0.42525-1.486-0.42525-2.972 0-9.5535 1.8053-10.509 2.018z" fill="#abacda"/>
  <path id="New Delhi" d="m158.37 163.77c-2.1231-1.0632-2.8661-1.3801-5.2012-1.2718-1.9105 0.0102-4.6706-1.2758-6.475-0.85051-2.229 0.42527-3.0782 3.3981-4.2461 5.3077-0.0102 0.20052-0.21238 0.42526-0.31699 0.52958-1.8046 2.2306-4.9891 3.8234-6.6874 5.9446-1.1675 1.5927-1.1675 3.8234-1.3801 5.626 4.7767 0.42527 4.0337 4.352 5.5198 7.6426 1.9104 4.1399 7.855 4.4584 12.101 4.1399h0.84931c0.42488-1.4844 0.53078-2.9728 0.84935-4.5644 6.5812-0.0102 2.8661-5.4136 6.475-7.6426 2.229-1.3801 6.2629-0.85051 7.855-2.7602 0.6367-0.74223 0.84929-1.9097 0.42445-3.6108-0.21292-0.74216-0.6367-1.2718-1.0616-1.9096-0.0102-0.0102-0.0102-0.32094-0.21238-0.42526-2.0168-2.8645-5.9443-4.883-8.4918-6.1567z" fill="#e2b584"/>
 </g>
 <g fill="none" stroke="#062f4f" stroke-width=".7px">
  <path d="m151.89 131.18-3.2397 1.7279-0.21599 0.32397h-0.53996l-4.3197 2.2678-0.86392 0.97191-0.32398 1.1879v1.0799l0.43196 1.2959-2.0518 2.2678-7.5594 4.4276-1.8359 0.86393-4.1037-2.1598-6.1555 0.21597-3.9957 9.5032-5.5076-1.9438-3.9957-1.4039-2.4838-1.9438-1.1879-0.43197-0.86393-0.86393-0.32397-1.1879-2.6998-0.75594-2.4838-0.97193-0.86393 1.2959-0.97192-0.21598-0.75594-0.43198-0.97192 1.6199-2.6998-2.2678-1.9438 1.9439"/>
  <path d="m143.54 135.43-2.6001-2.6087-0.47274-2.6087-13.237-12.065-3.0729-2.9348-2.8365-3.913 0.70912-1.9565 0.70912-2.6087v-1.6304l-0.47274-1.3043-2.3638-0.32608v-1.9565l-2.8365-0.3261-1.1819-1.9565-7.3276-0.65217-0.9455-4.2391-4.9638-5.2173-0.9455-1.9565-0.70912-2.9347-6.6185-5.8695-8.5095-3.913-8.0367-2.2826h-5.2002"/>
  <path d="m122.74 106.73 1.719-2.865 0.8595-2.865 4.2975-3.7245 0.8595-3.1515-5.4435-2.865-5.157-3.438 2.865-3.1515 2.5785-8.3085 4.584-4.2975 1.146-2.865-6.5895-25.498 0.573-1.719 1.146-1.719-0.573-5.73-3.438-4.2975-4.011-16.33-8.022 0.2865-2.865-9.168-5.73 1.146"/>
  <path d="m151.89 131.18 0.30766-1.2306 1.2306-0.61532 1.5383 1.0768v1.3845l3.9996 2.9228 3.3843 0.15383 1.3845-1.3845 14.306-0.15383 7.23-5.0764 1.5383 0.92298"/>
  <path d="m131.38 147.59-1.793-2.8176-4.8667-4.8667-10.246-2.3053-5.6351-6.1474-0.25614-6.4035-6.4035-20.235-4.8667 2.3053"/>
  <path d="m148.44 133.23 4.0782 2.3383 0.90627 0.10165-0.45313 0.81332-0.56641 7.0149 0.67969 1.22-2.7188 2.8466v3.5583l-1.3594 3.7616-0.45312 2.3383-0.56643 4.9816-0.79299 1.525-0.79299 2.135-3.0587 6.2016 4.4181 1.6266 0.22656 1.3216"/>
  <path d="m153.43 129.33 0.98617-1.796 2.5103 1.4966 4.5723 3.5919 0.53792-0.69843 3.0482-0.49887-0.0896-5.6872 3.1378 0.29933 0.26897-0.59867 0.1793-3.4922-1.2551-3.8912 0.35861-0.59866 12.193-0.39911-0.3586-1.4966-0.53792-0.59867 2.1516-1.8957-0.0896-0.79821-0.44826-0.69844 0.98618-0.19953-0.0896-1.1973-0.0896-1.3968 0.26895-0.99776h1.3448"/>
  <path d="m167.33 118.06v-3.8596l-2.7784-2.4377h3.1488l2.9636-1.8282 0.92612-1.2188 4.6306-1.8283 6.2977-1.422 7.5943-2.2345-0.37045-13.407"/>
  <path d="m165 125.74-1.4731-5.2534-0.50238-2.8468 4.3064 0.41746"/>
  <path d="m153.02 144.65 0.38738 0.4934 1.1622 0.16447 0.0861 1.6995 1.9369-0.32894 0.17217 2.5218 0.34434 3.5634-0.25825 2.0284 0.0861 2.1381-0.12913 0.43858 0.51651 0.21928 0.5165-0.27411 0.12913 0.49339 0.0861 0.71269"/>
  <path d="m158.06 158.51-0.7883 1.3936-0.38941 1.3936-0.88327 1.7483-2.6498 1.8328-1.0827 0.96286-0.68383 1.7399-0.29442 1.1318-0.095 0.8784 0.48438 0.43074 0.49388 0.26184 0.095 0.61656-1.9565 2.0017-2.5548 0.78549"/>
  <g stroke="#062f4f">
   <g fill="none">
    <path d="m72.626 72.166-1.0363 4.278 1.3397 2.0095-0.66984 5.0238-0.33492 3.0143-2.6794 1.0048-0.33492 2.0095 3.0143 0.33492-2.0095 9.7127-0.66984 2.6794-0.66984 1.6746 0.33492 4.019-5.0238 4.354 2.3444 3.3492 2.3444 2.0095 1.3397 2.6794 2.3444 3.0143 1.3397 2.0095h2.3444l4.1216-0.98432-2.1121 3.6637h4.6889l0.33492 3.6841 0.66984 5.0238 1.3397 3.6841 4.354 1.3397 0.02757 5.8385"/>
    <path d="m71.924 89.841 9.0429 1.0048 9.3778 1.0048 9.7127 2.6794 3.3492 0.66984-1.6746 2.3444 0.33492 3.0143-4.0191 2.0095-0.73836 4.5541"/>
    <path d="m108.58 125.05-3.4985 7.9939-3.6841 0.66985-1.3397 2.0095-3.6841 1.6746-1.0048 4.019-4.0572 4.2295"/>
    <path d="m72.626 72.166l2.6478-3.7601 2.0095-4.354 3.6841-7.0333 0.33492-8.7079 4.354-12.392 1.6746-6.3635 1.6746-1.6746 2.6794-2.3444 1.6746-1.3397 4.6889-10.048 3.0143-2.6794-0.66984-1.6746 1.1434-3.6253"/>
    <path d="m183.02 107.78 6.5918-4.5522"/>
    <path d="m186.81 129.18 2.2433-1.3414-1.2942-1.438 3.7388-2.5884-2.876-3.5949-0.1438-3.1636-2.0132-9.0592-1.1504 0.57519-2.3002-0.78747"/>
    <path d="m186.47 107.99 3.1412-4.7645"/>
    <path d="m189.74 89.821-19.665-1.3848-0.14379-0.86279-9.0593-2.157-0.86278 0.86279-1.0066-8.7717-25.74-10.21-2.2185 1.902"/>
   </g>
   <path d="m125.3 154.23 3.3916 0.33756 1.5204-0.40507h0.93562l1.2865 0.87765 2.1052 2.0254 0.81867 0.87765 5.3798 2.6329 3.7425 0.94517 3.5086 0.67511"/>
   <path d="m131.38 147.59-5.136 2.3758-0.94334 4.4276-2.9348 1.7278-0.52408 1.6199-1.153-0.10795-0.94333 0.21598-0.73371-0.43196-1.3626-0.64796-0.52408-1.6198"/>
   <path d="m102.18 104.82 9.5323-8.9179 4.2996-1.3229 2.3152-3.6381 1.5485-3.1158"/>
  </g>
 </g>
 <g fill-rule="evenodd" stroke-width=".42751">
  <ellipse cx="101.61" cy="5.5845" rx="2.1313" ry="2.2833"/>
  <ellipse cx="102.45" cy="105.16" rx="2.1313" ry="2.1313"/>
  <ellipse cx="91.534" cy="145.84" rx="2.1313" ry="2.1313"/>
  <ellipse cx="148.5" cy="175.57" rx="2.1313" ry="2.1313"/>
  <ellipse cx="183.64" cy="129.72" rx="2.1313" ry="2.1313"/>
  <ellipse cx="183.44" cy="108.92" rx="2.1313" ry="2.1313"/>
  <ellipse cx="163.25" cy="117.81" rx="2.1313" ry="2.1313"/>
  <ellipse cx="189.7" cy="89.933" rx="2.1313" ry="2.1313"/>
  <ellipse cx="72.962" cy="72.563" rx="2.1313" ry="2.1313"/>
 </g>
 <g font-family="sans-serif" font-size="3.5278px" letter-spacing="0px" stroke-width=".26459" word-spacing="0px">
  <text x="75.991928" y="5.5075521" style="line-height:1.25" xml:space="preserve"><tspan x="75.991928" y="5.5075521" font-size="4.939px" stroke-width=".26459">Narela</tspan></text>
  <text x="79.021561" y="71.553482" style="line-height:1.25" xml:space="preserve"><tspan x="79.021561" y="71.553482" font-size="4.939px" stroke-width=".26459">Kanjhawala</tspan></text>
  <text x="74.174156" y="155.37326" style="line-height:1.25" xml:space="preserve"><tspan x="74.174156" y="155.37326" font-size="4.939px" stroke-width=".26459">Dwarka</tspan></text>
  <text x="78.089638" y="113.96832" style="line-height:1.25" xml:space="preserve"><tspan x="78.089638" y="113.96832" font-size="4.939px" stroke-width=".26459">Rajouri garden</tspan></text>
  <text x="153.55045" y="176.58067" style="line-height:1.25" xml:space="preserve"><tspan x="153.55045" y="176.58067" font-size="4.939px" stroke-width=".26459">Saket</tspan></text>
 </g>
 <ellipse cx="157.99" cy="158.4" rx="2.1313" ry="2.1313" fill-rule="evenodd" stroke-width=".42751"/>
 <g font-family="sans-serif" font-size="3.5278px" letter-spacing="0px" stroke-width=".26459" word-spacing="0px">
  <text x="157.186" y="166.88585" style="line-height:1.25" xml:space="preserve"><tspan x="157.186" y="166.88585" font-size="4.939px" stroke-width=".26459">Defence colony</tspan></text>
  <text x="186.47359" y="133.68515" style="line-height:1.25" xml:space="preserve"><tspan x="186.47359" y="133.68515" font-size="4.939px" stroke-width=".26459">Preet Vihar</tspan></text>
  <text x="136.78651" y="116.79595" style="line-height:1.25" xml:space="preserve"><tspan x="136.78651" y="116.79595" font-size="4.2334px" stroke-width=".26459">Dariyaganj</tspan></text>
  <text x="162.63934" y="93.770775" style="line-height:1.25" xml:space="preserve"><tspan x="162.63934" y="93.770775" font-size="4.939px" stroke-width=".26459">Shahdara</tspan></text>
  <text x="188.89615" y="111.34262" style="line-height:1.25" xml:space="preserve"><tspan x="188.89615" y="111.34262" font-size="4.939px" stroke-width=".26459">Seelampur</tspan></text>
 </g>
 <ellipse cx="151.93" cy="131.34" rx="2.1313" ry="2.1313" fill-rule="evenodd" stroke-width=".42751"/>
 <text x="140.22009" y="125.07695" fill="#000000" font-family="sans-serif" font-size="3.5278px" letter-spacing="0px" stroke-width=".26459" word-spacing="0px" style="line-height:1.25" xml:space="preserve"><tspan x="140.22009" y="125.07695">Connaught</tspan><tspan x="140.22009" y="129.48676">Place</tspan></text>
 <path d="m130.53 175.01c-1.0525-2.1271-1.1166-3.1436-0.24879-3.9478 1.1631-1.0779 3.1077-0.47319 3.4471 1.072 0.1217 0.55409-0.0481 1.1317-0.78281 2.6629-0.51603 1.0754-1.0766 1.9553-1.2458 1.9553-0.16916 0-0.69551-0.78405-1.1697-1.7423zm1.917-1.8476c0.16407-0.19769 0.22372-0.5931 0.13986-0.92719-0.11476-0.45724-0.29306-0.58251-0.82903-0.58251-0.84457 0-1.3062 0.68963-0.93093 1.3908 0.29237 0.5463 1.2095 0.61362 1.6201 0.1189z" fill="#a40" fill-rule="evenodd" stroke-width=".2318"/>
 <text x="109.06825" y="179.35794" fill="#000000" font-family="sans-serif" font-size="3.5278px" letter-spacing="0px" stroke-width=".26459" word-spacing="0px" style="line-height:1.25" xml:space="preserve"><tspan x="109.06825" y="179.35794" font-size="2.1167px" stroke-width=".26459">Mehrauli Archaelogical Park</tspan></text>
 <path d="m140.1 184.45c-0.66977-1.3536-0.71053-2.0005-0.15832-2.5122 0.74015-0.68594 1.9776-0.30112 2.1936 0.68216 0.0774 0.3526-0.0306 0.72015-0.49815 1.6946-0.32838 0.68435-0.68512 1.2443-0.79276 1.2443-0.10765 0-0.4426-0.49894-0.74434-1.1088zm1.2199-1.1757c0.10441-0.1258 0.14236-0.37743 0.089-0.59003-0.073-0.29096-0.18648-0.37069-0.52755-0.37069-0.53746 0-0.83121 0.43886-0.59241 0.88505 0.18605 0.34765 0.76969 0.39049 1.031 0.0757z" fill="#55d400" fill-rule="evenodd" stroke-width=".14751"/>
 <text x="134.51317" y="188.25958" fill="#000000" font-family="sans-serif" font-size="2.1167px" letter-spacing="0px" stroke-width=".26459" word-spacing="0px" style="line-height:1.25" xml:space="preserve"><tspan x="134.51317" y="188.25958">Garden of five</tspan><tspan x="134.51317" y="192.66936">senses</tspan></text>
 <path d="m182.19 177.35c-0.62192-1.2569-0.65978-1.8576-0.14701-2.3328 0.68728-0.63695 1.8364-0.27961 2.0369 0.63343 0.0719 0.32741-0.0284 0.66871-0.46257 1.5735-0.30492 0.63547-0.63619 1.1554-0.73613 1.1554-0.1 0-0.41098-0.4633-0.69117-1.0296zm1.1327-1.0917c0.097-0.11681 0.1322-0.35046 0.0827-0.54788-0.0678-0.27018-0.17317-0.34421-0.48988-0.34421-0.49907 0-0.77183 0.40751-0.55009 0.82183 0.17277 0.32281 0.71471 0.36259 0.95732 0.0703z" fill="#a40" fill-rule="evenodd" stroke-width=".13697"/>
 <text x="178.14046" y="181.21147" fill="#000000" font-family="sans-serif" font-size="3.5278px" letter-spacing="0px" stroke-width=".26459" word-spacing="0px" style="line-height:1.25" xml:space="preserve"><tspan x="178.14046" y="181.21147" font-size="2.1167px" stroke-width=".26459">Tughlakabad fort</tspan></text>
 <path d="m105.06 162.71c-0.71593-1.3869-0.7595-2.0498-0.16923-2.5742 0.79115-0.70286 2.1139-0.30854 2.3447 0.69897 0.0828 0.3613-0.0327 0.7379-0.53249 1.7363-0.35099 0.70122-0.73232 1.275-0.84738 1.275s-0.47309-0.51124-0.79562-1.1361zm1.3039-1.2047c0.11161-0.1289 0.15217-0.38672 0.0952-0.60457-0.078-0.29814-0.19935-0.37983-0.56391-0.37983-0.57449 0-0.88849 0.44968-0.63324 0.90687 0.19888 0.35622 0.82272 0.40011 1.102 0.0775z" fill="#a40" fill-rule="evenodd" stroke-width=".15437"/>
 <text x="93.531517" y="167.12042" fill="#000000" font-family="sans-serif" font-size="3.5278px" letter-spacing="0px" stroke-width=".26459" word-spacing="0px" style="line-height:1.25" xml:space="preserve"><tspan x="93.531517" y="167.12042" font-size="2.1167px" stroke-width=".26459">Sultan Garhi's tomb</tspan></text>
 <path d="m144.08 144.25c-0.66977-1.3536-0.71053-2.0005-0.15832-2.5122 0.74015-0.68594 1.9776-0.30112 2.1936 0.68216 0.0774 0.3526-0.0306 0.72015-0.49815 1.6946-0.32838 0.68435-0.68513 1.2443-0.79277 1.2443s-0.44259-0.49894-0.74433-1.1088zm1.2199-1.1757c0.10441-0.1258 0.14236-0.37743 0.089-0.59003-0.073-0.29096-0.18649-0.37069-0.52756-0.37069-0.53745 0-0.8312 0.43886-0.59241 0.88505 0.18606 0.34765 0.76969 0.39049 1.031 0.0757z" fill="#a40" fill-rule="evenodd" stroke-width=".14751"/>
 <text x="135.08525" y="147.81297" fill="#000000" font-family="sans-serif" font-size="3.5278px" letter-spacing="0px" stroke-width=".26459" word-spacing="0px" style="line-height:1.25" xml:space="preserve"><tspan x="135.08525" y="147.81297" font-size="1.4111px" stroke-width=".26459">Rail Museum</tspan></text>
 <path d="m172.89 121.86c-0.61895-1.2509-0.65662-1.8487-0.1463-2.3216 0.68398-0.63391 1.8276-0.27827 2.0271 0.63039 0.0715 0.32586-0.0283 0.66552-0.46036 1.566-0.30345 0.63243-0.63313 1.1499-0.73262 1.1499-0.0994 0-0.409-0.46108-0.68785-1.0246zm1.1273-1.0865c0.0965-0.11623 0.13158-0.3488 0.0823-0.54526-0.0675-0.26889-0.17234-0.34256-0.48754-0.34256-0.49667 0-0.76813 0.40556-0.54745 0.81789 0.17194 0.32127 0.71129 0.36086 0.95273 0.07z" fill="#a40" fill-rule="evenodd" stroke-width=".13632"/>
 <text x="170.20871" y="125.32051" fill="#000000" font-family="sans-serif" font-size="3.5278px" letter-spacing="0px" stroke-width=".26459" word-spacing="0px" style="line-height:1.25" xml:space="preserve"><tspan x="170.20871" y="125.32051" font-size="2.8223px" stroke-width=".26459">Rajghat</tspan></text>
 <path d="m160.98 105.98c-0.5529-1.1174-0.58655-1.6514-0.13069-2.0739 0.61101-0.56626 1.6326-0.24858 1.8108 0.56313 0.0639 0.29108-0.0252 0.5945-0.41123 1.3989-0.27108 0.56495-0.56559 1.0272-0.65445 1.0272-0.0889 0-0.36536-0.41188-0.61446-0.91529zm1.007-0.97057c0.0862-0.10386 0.11752-0.31158 0.0735-0.48708-0.0603-0.2402-0.15395-0.30601-0.43551-0.30601-0.44368 0-0.68618 0.36228-0.48905 0.73062 0.1536 0.28699 0.6354 0.32236 0.85109 0.0625z" fill="#a40" fill-rule="evenodd" stroke-width=".12177"/>
 <text x="163.31686" y="106.81973" fill="#000000" font-family="sans-serif" font-size="3.5278px" letter-spacing="0px" stroke-width=".26459" word-spacing="0px" style="line-height:1.25" xml:space="preserve"><tspan x="163.31686" y="106.81973" font-size="2.1167px" stroke-width=".26459">Red fort</tspan></text>
 <path d="m179.23 135.68c-0.7176-1.4502-0.76128-2.1434-0.16963-2.6917 0.79302-0.73494 2.1189-0.32263 2.3503 0.73088 0.083 0.37779-0.0328 0.7716-0.53374 1.8156-0.35183 0.73324-0.73406 1.3332-0.84939 1.3332s-0.4742-0.53458-0.7975-1.188zm1.307-1.2597c0.11187-0.13479 0.15254-0.40439 0.0954-0.63218-0.0783-0.31175-0.19982-0.39716-0.56525-0.39716-0.57584 0-0.89058 0.4702-0.63472 0.94826 0.19934 0.37248 0.82467 0.41838 1.1046 0.0811z" fill="#f00" fill-rule="evenodd" stroke-width=".15804"/>
 <path d="m164.23 140.96c-0.40301-0.81448-0.42753-1.2037-0.0953-1.5117 0.44536-0.41274 1.19-0.18119 1.3199 0.41047 0.0466 0.21217-0.0184 0.43333-0.29975 1.0196-0.19759 0.41179-0.41225 0.74871-0.47702 0.74871-0.0648 0-0.26632-0.30022-0.44789-0.66715zm0.73403-0.70746c0.0628-0.0757 0.0857-0.2271 0.0535-0.35503-0.0439-0.17508-0.11222-0.22304-0.31744-0.22304-0.3234 0-0.50015 0.26406-0.35647 0.53255 0.11195 0.20918 0.46314 0.23496 0.62035 0.0455z" fill="#55d400" fill-rule="evenodd" stroke-width=".088758"/>
 <text x="165.67375" y="141.78065" fill="#000000" font-family="sans-serif" font-size="3.5278px" letter-spacing="0px" stroke-width=".26459" word-spacing="0px" style="line-height:1.25" xml:space="preserve"><tspan x="165.67375" y="141.78065" font-size="2.1167px" stroke-width=".26459">National Zoological park</tspan></text>
 <text x="181.3456" y="137.19986" fill="#000000" font-family="sans-serif" font-size="3.5278px" letter-spacing="0px" stroke-width=".26459" word-spacing="0px" style="line-height:1.25" xml:space="preserve"><tspan x="181.3456" y="137.19986" font-size="2.1167px" stroke-width=".26459">Akshardham</tspan></text>
 <path d="m155.11 142.33c-0.47153-0.95294-0.50022-1.4084-0.11146-1.7686 0.52108-0.48292 1.3923-0.21199 1.5443 0.48025 0.0545 0.24824-0.0215 0.507-0.3507 1.193-0.23119 0.4818-0.48234 0.87599-0.55813 0.87599-0.0758 0-0.31159-0.35126-0.52402-0.78058zm0.85882-0.82771c0.0735-0.0886 0.10023-0.26572 0.0626-0.4154-0.0514-0.20484-0.13128-0.26097-0.3714-0.26097-0.37839 0-0.58518 0.30897-0.41707 0.62309 0.13099 0.24475 0.54188 0.27491 0.72581 0.0533z" fill="#55d400" fill-rule="evenodd" stroke-width=".10385"/>
 <text x="154.44751" y="144.6703" fill="#000000" font-family="sans-serif" font-size="3.5278px" letter-spacing="0px" stroke-width=".26459" word-spacing="0px" style="line-height:1.25" xml:space="preserve"><tspan x="154.44751" y="144.6703" font-size="1.4111px" stroke-width=".26459">Lodhi garden</tspan></text>
 <path d="m179.35 159.76c-0.63207-1.2774-0.67055-1.8879-0.14941-2.3709 0.6985-0.64735 1.8663-0.28417 2.0701 0.64377 0.0731 0.33275-0.0289 0.67963-0.47011 1.5992-0.3099 0.64584-0.64657 1.1743-0.74816 1.1743-0.10158 0-0.41768-0.47086-0.70244-1.0464zm1.1512-1.1096c0.0985-0.11872 0.13435-0.35618 0.084-0.55682-0.0689-0.27459-0.17599-0.34983-0.49787-0.34983-0.50721 0-0.78443 0.41416-0.55907 0.83525 0.17558 0.32808 0.72637 0.36851 0.97295 0.0714z" fill="#f00" fill-rule="evenodd" stroke-width=".13921"/>
 <text x="182.08804" y="161.14417" fill="#000000" font-family="sans-serif" font-size="3.5278px" letter-spacing="0px" stroke-width=".26459" word-spacing="0px" style="line-height:1.25" xml:space="preserve"><tspan x="182.08804" y="161.14417" font-size="2.1167px" stroke-width=".26459">Lotus temple</tspan></text>
 <path d="m167.83 146.61c-0.61557-1.244-0.65303-1.8386-0.14551-2.3089 0.68025-0.63044 1.8176-0.27676 2.016 0.62695 0.0712 0.32407-0.0281 0.66188-0.45784 1.5574-0.3018 0.62898-0.62968 1.1436-0.72861 1.1436-0.0989 0-0.40677-0.45856-0.68409-1.019zm1.1212-1.0806c0.096-0.11563 0.13084-0.34689 0.0818-0.54229-0.0671-0.26741-0.1714-0.34069-0.48487-0.34069-0.49397 0-0.76394 0.40335-0.54447 0.81343 0.171 0.31951 0.7074 0.35889 0.94753 0.0695z" fill="#a40" fill-rule="evenodd" stroke-width=".13557"/>
 <text x="167.23888" y="150.74973" fill="#000000" font-family="sans-serif" font-size="3.5278px" letter-spacing="0px" stroke-width=".26459" word-spacing="0px" style="line-height:1.25" xml:space="preserve"><tspan x="167.23888" y="150.74973" font-size="2.1167px" stroke-width=".26459">Humayun's tomb</tspan></text>
 <path d="m158.51 111.92c-0.57409-1.1602-0.60903-1.7147-0.1357-2.1533 0.63441-0.58795 1.6951-0.2581 1.8802 0.58471 0.0664 0.30223-0.0262 0.61727-0.42698 1.4525-0.28147 0.58659-0.58725 1.0665-0.67951 1.0665-0.0923 0-0.37936-0.42766-0.638-0.95036zm1.0456-1.0077c0.0895-0.10784 0.12202-0.32351 0.0763-0.50574-0.0626-0.2494-0.15985-0.31773-0.4522-0.31773-0.46067 0-0.71246 0.37616-0.50778 0.75861 0.15948 0.29798 0.65974 0.3347 0.88369 0.0649z" fill="#a40" fill-rule="evenodd" stroke-width=".12643"/>
 <text x="142.55212" y="110.65695" fill="#000000" font-family="sans-serif" font-size="3.5278px" letter-spacing="0px" stroke-width=".26459" word-spacing="0px" style="line-height:1.25" xml:space="preserve"><tspan x="142.55212" y="110.65695" font-size="2.1167px" stroke-width=".26459">Jama masjid</tspan></text>
 <path d="m153.25 134.58c-0.5529-1.1174-0.58655-1.6514-0.13069-2.0739 0.61101-0.56626 1.6326-0.24858 1.8108 0.56313 0.0639 0.29108-0.0252 0.5945-0.41123 1.3989-0.27108 0.56495-0.56559 1.0272-0.65445 1.0272-0.0889 0-0.36536-0.41188-0.61446-0.91529zm1.007-0.97057c0.0862-0.10386 0.11752-0.31158 0.0735-0.48708-0.0603-0.2402-0.15395-0.30601-0.43551-0.30601-0.44368 0-0.68618 0.36228-0.48905 0.73062 0.1536 0.28699 0.6354 0.32236 0.85109 0.0625z" fill="#a40" fill-rule="evenodd" stroke-width=".12177"/>
 <text x="153.42447" y="136.78365" fill="#000000" font-family="sans-serif" font-size="3.5278px" letter-spacing="0px" stroke-width=".26459" word-spacing="0px" style="line-height:1.25" xml:space="preserve"><tspan x="153.42447" y="136.78365" font-size="1.4111px" stroke-width=".26459">Agrasen ki Baoli</tspan></text>
 <path d="m147.75 135.25c-0.5529-1.1174-0.58655-1.6514-0.13069-2.0739 0.61101-0.56626 1.6326-0.24858 1.8108 0.56313 0.0639 0.29108-0.0252 0.5945-0.41123 1.3989-0.27108 0.56495-0.56559 1.0272-0.65445 1.0272-0.0889 0-0.36536-0.41188-0.61446-0.91529zm1.007-0.97057c0.0862-0.10386 0.11752-0.31158 0.0735-0.48708-0.0603-0.2402-0.15395-0.30601-0.43551-0.30601-0.44368 0-0.68618 0.36228-0.48905 0.73062 0.1536 0.28699 0.6354 0.32236 0.85109 0.0625z" fill="#a40" fill-rule="evenodd" stroke-width=".12177"/>
 <text x="142.6235" y="137.77557" fill="#000000" font-family="sans-serif" font-size="3.5278px" letter-spacing="0px" stroke-width=".26459" word-spacing="0px" style="line-height:1.25" xml:space="preserve"><tspan x="142.6235" y="137.77557" font-size="1.4111px" stroke-width=".26459">Bangla Sahib</tspan></text>
 <path d="m153.61 138.99c-0.44422-0.89776-0.47126-1.3268-0.105-1.6662 0.49091-0.45496 1.3116-0.19972 1.4549 0.45244 0.0513 0.23386-0.0203 0.47764-0.3304 1.1239-0.2178 0.45391-0.45442 0.82528-0.52581 0.82528-0.0714 0-0.29355-0.33092-0.49368-0.73538zm0.80909-0.77979c0.0693-0.0834 0.0944-0.25034 0.0591-0.39134-0.0485-0.19299-0.12369-0.24586-0.34991-0.24586-0.35647 0-0.5513 0.29107-0.39292 0.587 0.12341 0.23058 0.5105 0.259 0.6838 0.0502z" fill="#a40" fill-rule="evenodd" stroke-width=".097835"/>
 <text x="155.48389" y="138.82973" fill="#000000" font-family="sans-serif" font-size="3.5278px" letter-spacing="0px" stroke-width=".26459" word-spacing="0px" style="line-height:1.25" xml:space="preserve"><tspan x="155.48389" y="138.82973" font-size="1.4111px" stroke-width=".26459">India gate</tspan></text>
</svg>
