<svg width="206.3mm" height="139mm" version="1.1" viewBox="0 0 206.30489 139.0025" xmlns="http://www.w3.org/2000/svg" xmlns:cc="http://creativecommons.org/ns#" xmlns:dc="http://purl.org/dc/elements/1.1/" xmlns:rdf="http://www.w3.org/1999/02/22-rdf-syntax-ns#">
 <metadata>
  <rdf:RDF>
   <cc:Work rdf:about="">
    <dc:format>image/svg+xml</dc:format>
    <dc:type rdf:resource="http://purl.org/dc/dcmitype/StillImage"/>
    <dc:title/>
   </cc:Work>
  </rdf:RDF>
 </metadata>
 <g transform="translate(-1.169 -58.23)"  stroke="#fff" stroke-width=".5">
  <path d="m165.71 90.78 1.0122 0.49574 1.9751 0.93435 1.6818 0.53466 2.1932 0.49574 2.951-0.16102 3.9139-0.81498 0.74229-0.41527 2.0478 0.32185 0.78123-0.08052 2.72-0.24138 1.5962-0.08052 1.7182 1.0589 1.6455 0.41526 1.3782 1.2718 2.4993 1.4327 1.3418 0.85651 1.7182 1.1498 2.3514 1.1887 1.9751 1.1498 1.7571 0.8565 1.7182 1.1913 0.92657 0.57358 0.74228 0.57618 0.37894 1.1524-0.14808 0.69559-0.48793 0.7345-0.37637 0.49572-0.5969 0.53466-0.74231 0.89542-0.59695 0.32185-0.18428 0.41266-1.3055 1.1524-1.0486 0.32183-1.2302 0.7345-1.1212 0.24135-0.63588 0.24138-1.3756 0.57619-0.21801 0.32185-0.63587 0.81493-0.30368 0.73453-0.10908 0.32182h-0.77863l-0.63588-0.24137-1.0823 0.19986-1.4534-0.4542-1.1576-0.45421-1.2665-0.11936-1.5235-0.0805-1.2328-0.0805-1.1939-0.49313-2.354-0.49572-1.4846-0.97588-1.6844-1.3107-2.1568-1.0563-1.6325-0.61511-2.0115-0.89543-1.1939-0.28032-0.92657-0.12198-1.1212-0.2803-1.4508-0.45419-1.5235-0.45423-1.4872-0.97589-1.4846-1.2302-0.89023-0.85652-1.5599-1.0174-1.7545-0.73453-2.1204 0.0805-1.2691-0.57619-1.0486 0.0805-1.4872-0.0805-1.3418 0.57619-0.74489 0.65664-1.5235 1.4327-1.4509 1.1498-0.70595 0.32181-1.4872 0.11935-1.7182-0.49313-1.9751-0.53466-1.6818-0.4542-1.7182-0.2414-1.0486 0.45421-0.48793 0.89545-0.37893 1.5105-0.3426 1.3496-0.63589 1.5105-0.0726 1.3107v1.6714l-0.41526 1.2692-0.4516-0.45418-0.41527-0.53466-0.66962-0.81498-0.74491-0.49311-0.96289-0.49573-0.66963-0.0388-0.70855 0.61252-0.59692 0.89541-0.92658 0.89802-0.74229-0.4568-1.0122-0.53466-1.0122 0.57621-1.0849 1.1498-1.0849 1.1108-1.9388 1.1913-1.4508 0.24137-1.0485-0.41526-0.21803-1.0563 0.25436-2.7044 0.10903-1.4301 0.34262-1.1108-1.4509 0.65664-1.3418 0.65405-1.0486 0.49574-1.3055 0.8954-0.6333 0.89543-0.63326 0.97847-1.2328 1.2692-1.0485 1.1913-1.3055 0.53466-1.6325 1.0563-1.4508 0.45422-1.3418 0.36076-1.7182 0.20244-2.0866-0.24137-1.7908-0.73711-0.5606-0.31923 0.37892-0.65664 0.41526-0.41529 0.6333-0.24136 0.59696-0.32184 0.77861-0.65663 0.25695-0.5736-0.5606-0.81756-1.3029-0.4568-1.4872-0.28029-1.2666-0.24138-1.4534 0.0805-1.6325 0.31924-1.4508 0.57617 1.3782-1.8453 1.4145-1.1913 1.3782-2.0452 2.6083-2.7823 1.9388-3.3584 0.0363-2.0063 0.25695-3.143 0.25436-3.0236 0.67224-2.2062 0.449-2.3282-0.0363-1.5131 0.29328-2.5824 0.81755-2.3282 0.81756-1.3911 1.0849-1.4716 0.77861-1.1498 0.4516-1.1498 1.1212-1.1108 0.9629-0.65407 0.0364-0.77603 0.8539-0.08052 1.9751-0.41269 2.0478-0.24137 2.0115-0.57616 2.2814-0.5762h1.7182l2.0115-0.24137 2.1204 0.32184 1.5988 0.81497 3.2443 1.713 1.6818 1.0174 1.3418 0.93434 1.1212 0.65666 1.0849 0.65664 1.5235 0.97589 1.0485 0.57617 2.3514 1.0563 1.0485 0.65666 1.2692 1.4716 1.4872 1.552 0.34259 0.81756 2.0842 2.0868 0.92657 0.85649 0.89022 0.89541 2.1957 0.9759 1.5235 0.53464 2.0114 0.61511 1.6092-0.1584 1.3392 0.5736 1.4145 0.41268 0.85389 0.16082 1.0849-0.16082 0.92659-0.16102 0.7786-0.41529 0.81757-0.7345 0.14525-0.32185z" fill="#cc2" id="Patna" />
  <path d="m137.64 112.69 0.41526-1.2692v-1.6715l0.0726-1.3107 0.63327-1.5132 0.34261-1.3496 0.37634-1.5105 0.48791-0.89545 1.0486-0.45421 1.7182 0.24138 1.6818 0.45421 1.9751 0.53468 1.7182 0.49313 1.4872-0.11936 0.70594-0.32185 1.4508-1.1498 1.5235-1.4326 0.74489-0.65406 1.3418-0.57617 1.4872 0.0805 1.0485-0.0805 1.2666 0.57617 2.1204-0.0805 1.7571 0.73709 1.5598 1.0174 0.89023 0.85649 1.4872 1.2302 1.4872 0.97588 1.5235 0.45681 1.4509 0.45421 1.1212 0.28028 0.92658 0.11935 1.1939 0.28291 2.0115 0.89543 1.6325 0.61252 2.1568 1.0589 1.6844 1.3107 1.4872 0.97331 2.3541 0.49572 1.1939 0.49315 1.2302 0.0805 1.5235 0.0805 1.2691 0.11936 1.1576 0.45419 1.4534 0.45418 1.0823-0.19986 0.63325 0.24137h0.78123l0.10908-0.32184 0.45159 0.97849 0.18166 1.713-0.21802 0.7345-0.92657 0.57359-0.66959-0.24138h-0.56322l-1.5599-0.0805-1.7182-0.24138-0.89022-0.23876h-1.1212l-2.0478 0.93691-1.0122-0.28029-1.1212-0.65405h-0.48796l-0.55799-0.89541-0.25696-0.1584-0.67221-0.57619-0.66962-0.32182-0.5632-0.41527-0.44901-0.24137-0.5632-0.0805-0.92658-0.24138-0.85387 0.65662-0.63328 0.65406 0.18165 1.3107 0.0388 1.6325-0.25694 2.0452 0.25694 1.2302-0.21801 0.9759-0.78122 1.1524-0.74228 0.65403-0.85387 0.65667-1.1576 0.85646-0.96548 0.23878-1.2302 0.11931-1.2302 0.3348-1.0122 0.81759 0.0363 1.0148 0.66963 0.77603 0.81755 0.57619 1.0849 0.73451 0.41526 0.53466 0.74227 0.45418 0.7423 0.89543-0.37634 0.41529-0.70596 0.32183-1.0122 0.36074-1.3055 0.0388-0.96291 0.41524-0.41527 0.73713-0.81756 0.81497-1.4872 0.97588-2.4993 1.0563-1.5598 0.5762-2.3514 0.53466-2.3905-0.11931-2.4578 0.0805-2.0842 0.15839-0.66963-0.57358-0.6333-0.49315-0.48793-0.45421-1.2692-0.69817-1.3418-0.36076-1.0849-0.0388-0.89024-0.16082-0.85389-0.16102-0.449-0.0805-1.2691-0.85651-1.6819-0.93693-1.4872-1.3912-1.4508-1.3107-1.5235-1.552-1.3055-1.0564-1.2302-0.97585-0.89023-1.1108-0.18428-1.5936 0.25693-1.552v-1.3911l0.25436-1.3886 0.22062-2.6213 0.0726-1.3912 1.0486-0.81755-0.37635-1.2692v-1.1108z" fill="#e2b584" id="Nalanda" />
  <path d="m74.58 129.72 0.9629 1.7104 0.92657 0.16104 0.9655 0.16081 1.1212-0.16081 1.0849-0.73453 0.74489-0.89541 0.63329-0.5736 1.0849-0.81752 0.81756-0.16083 1.0122 0.32185 1.0096 0.6566 1.1576 0.41267 1.1965 0.31927 0.89022-0.31927 1.1212-0.4957 1.2692-0.0805 0.78122 0.2829 1.5235 0.0391 1.9024 0.28291 1.0849 0.19987 1.1575 0.19986 0.66962 0.45423 0.30366 0.81752-0.07267 0.89546-0.07267 0.81493-0.56322 0.81497-1.1575 1.0589-0.85389 0.89543-0.03633 1.1498 0.78123 1.713 0.77862 0.85387 0.45159 1.3496-0.10902 1.1108-0.52428 1.0174-0.59694 0.73448-0.52428 1.5132-0.3426 1.4301-0.89022 1.4301-0.63329 1.3522-0.18427 0.97587 0.41526 1.1498 0.92657 0.93693 0.9629 0.6956 1.5988 1.0589 1.2666 1.3081 0.81756 0.65665 0.59696 1.2302-0.32964 1.6325-0.85389 2.2865-1.3418 1.9673-1.3756 1.4716-0.74488 0.81756-1.2692 1.0563-1.5598 1.0589-1.2302 1.0174-0.9629 1.2691-1.3055 0.9759-0.59696 1.1498-0.25434 1.0174-0.67221 2.0063-0.74228 1.8064-1.9751 1.2302-1.4508 0.45677-1.3418-0.16345-0.92657-0.53466-0.45159-0.97328-0.56061-0.73711-0.70595-0.45417-0.32961-0.28031-1.4872-0.77604-0.48794 0.16102-1.3418 0.53466-2.0842 1.2302-1.4145 0.57358-1.5962 0.7345-1.1939 0.49574-0.41526-0.77603-0.63329-1.0174-0.85389-0.36079-1.6455-0.77603-0.74228-0.49571-1.1965-0.41267-1.3782-0.0805h-1.0849l-0.92657 0.81495-1.3418 1.4327-1.4508 0.73454-1.0849-0.19988-0.63329-0.0805-0.77862-0.0388-0.74489 0.31923-0.52428 0.19986-0.66962 0.65664-1.1576 0.73711-0.92657-0.49312-0.63329-1.1108-0.67221-1.2303-0.56061-1.5105-1.0849-1.8064-0.70854-1.1524-1.0849-1.6299-1.1212-3.6776 0.92657-0.81755 0.92657-1.4716 0.70596-1.6326 0.41526-1.5105 0.3426-1.9258 0.81756-1.6325 1.3418-1.3107 1.4872-2.1257 1.8635-1.8869 0.89024-1.7104 1.9388-2.7823 1.8298-2.1257 1.7182-1.8064 0.78122-1.3937 2.0842-1.8038 1.7182-1.6325 1.4872-1.7104 1.3418-1.5521 1.8999-1.6299 1.2692-1.2718 1.2302-1.4716 0.89024-1.0174 0.63329-0.41528z" fill="#abacda" id="Aurangabad" />
  <path d="m154.71 138.8 2.0866-0.15839 2.4631-0.0805 2.3904 0.11932 2.3514-0.53466 1.5599-0.5736 2.4993-1.0563 1.4872-0.97588 0.81754-0.81498 0.41527-0.73707 0.96289-0.41528 1.3055-0.0388 1.0122-0.36077 0.70597-0.32183 0.37634-0.41526 0.67221-0.97846-0.0752-1.0148 0.29327-0.69556 0.63327-0.49574 0.78123 0.12201 1.1965 0.37374h1.0122l0.56061-0.0388 0.78121-0.41529 1.0122-0.57621 1.2302 0.53467 0.63327 1.4716 0.18428 1.63-0.14523 1.3107 0.0727 1.2302 0.11164 1.3496 0.0363 0.77601 0.21803 0.81757 0.48793 1.2302 0.78124 0.41268 0.92655-0.53466 0.77863-0.93694 0.81757-0.41526 0.92914 0.19986 0.44901 1.1913-0.2933 1.3886-0.0727 0.97586-0.25434 1.1498 1.0849 0.97589 1.0096 0.73709 0.4516 0.65665 0.44901 1.2302 1.0122 1.8868 0.59692 0.65406 0.74231 0.12201 1.4145 0.19986 1.6092 0.37373 1.3782 0.11931 0.8902 0.1584 1.0486 0.41527 1.9388 0.81497 0.81756 0.32182 0.92656 0.81757 0.89024 0.81496 1.0849 1.0564 0.66964 1.1524 0.18429 0.89543v1.1887l-0.34 0.85648h0.48534l-1.2302 0.65405-1.8635 0.57617-1.0849 0.32183-1.5235 0.28033-1.1576 0.45681-1.5988 0.41266-0.74232 0.24137-0.37893 0.16102h-0.37894l-0.21801-0.81757-0.25433-0.89542-0.48796-0.81757-0.52428-0.81495-0.56321-1.0563-0.92655-0.8565-0.449-0.93692-0.8539-0.41269-1.1576 0.15839-1.1965 0.24137-1.2302 0.49572-1.2692 0.31926-0.77864 0.41528-0.63328 0.41527-1.1212 0.16104-0.48794-1.3108-0.41527-1.2302-0.18428-0.81756-1.3055-0.8954-1.4872 1.1497-0.63326 1.1498-0.52428 0.73449v1.1498l-0.30366 0.81495-0.41529 0.81754 0.25437 1.4301 0.14787 0.37635-0.41526 1.7934-0.14788 1.0564-0.59694 0.81753-1.2302 0.41269-0.85132 0.65666-0.81756 1.1498-0.0727 0.97588 0.41526 1.2302 0.41529 0.69558 0.63588 1.5131 0.48534 0.89543 0.14787 1.2302-0.41526 1.059-1.0122 1.2302-1.5624-0.28292-0.81757-0.61511-0.81754-0.65661-1.5962-0.5762-1.1939-0.61513-1.2691-0.45419-1.1939 0.89541 0.0363 0.97849 0.21801 0.61251-0.32961 1.9673-0.52428 0.89801-0.78122 1.0174-1.0849 0.41529-1.3418 0.28029-1.2666-0.28029-1.6844-0.36336-1.5962-0.45418-1.1212-0.2414-0.70855 0.69558-1.6818 0.77602-1.5235 0.4127-1.0122 0.16344-1.4145-0.11932-1.5599 0.0388h-0.74489v-1.2718l0.1843-1.591 0.14524-2.367-0.14524-1.2302-0.66961-1.2692-0.59695-0.85646-0.70596-1.1498-0.59692-2.2891-0.78123-1.5521 0.56061-0.81496 0.48794-1.4327 0.41525-0.77602-1.0849-0.89543-1.3418-0.97586-1.2302-1.1498-0.70594-0.93694 0.14523-0.8539 0.29329-1.2302 0.78124-2.367 0.37634-1.7935 1.0485-2.2476 0.45162-1.6714 3.535-0.81495 0.70855-0.81498 0.41529-0.81756-0.0727-0.77344 0.92656-0.81754 0.89023-0.7345 0.8513-0.5762 0.56322-1.1108 0.218-1.4716z" fill="#f3c0f3" id="Nawada" />
  <path d="m97.915 132.41h3.3534l3.7323 1.5521 4.2176 0.49314 4.2072-0.73451h8.1653l0.48793-0.23876h7.4489l1.6325 0.23876 2.354 1.0174 1.8635 0.53466 3.0236 0.24138 0.92658 0.23879 2.3514 0.77601 3.4986-0.77601 2.315 0.0805 0.8539 0.16082 0.89022 0.16102 1.0849 0.0417 1.3418 0.36076 1.2692 0.6956 0.48794 0.45677 0.6333 0.49572 0.66961 0.5736 0.59696 1.713-0.218 1.4716-0.5606 1.1108-0.85389 0.57358-0.89023 0.73451-0.92656 0.81756 0.0727 0.77605-0.41529 0.81495-0.70596 0.81495-3.535 0.81757-0.44899 1.6715-1.0486 2.2477-0.37894 1.7934-0.7812 2.367-0.29329 1.2302-0.14526 0.8565 0.70854 0.93434 1.2302 1.1498 1.3418 0.97589 1.0849 0.89542-0.41526 0.77606-0.48796 1.4326-0.56061 0.81755 0.77863 1.5495 0.59696 2.2891 0.70594 1.1498 0.59694 0.85649 0.66963 1.2692 0.14545 1.2302-0.14545 2.3696-0.18429 1.591v1.2692l-0.52427 0.16345h-1.2666l-0.89023-0.16345-0.59694 0.24136-0.44901 1.3496-0.48793 0.93695-0.0727 1.1498-1.0122 0.16082h-1.1238l-1.2302-0.24138-1.0849-0.16082-1.2692-0.53468-1.3392 0.19986-0.52428 0.49572-0.14788 1.1109-0.18165 1.2718-0.29329 1.1498-1.0485 1.0589-1.1576 0.73452-1.3055 0.8954-0.4516 0.73711-1.5235 0.65666-1.7908 1.1498-0.56061-0.69556-0.85388-1.0148-0.34001-1.3938-0.11167-1.9647-0.29069-0.73713-0.67222 0.32184-0.59694 0.49314-0.63328 0.4957-0.63328 1.3107-0.85389 0.57616-0.81755 0.31923-1.4508 0.81757-1.5599 0.0805-1.3418-0.12201-1.3029-0.0415-0.9655-0.45421-0.56061-0.28029-1.3055-1.4716-0.63329-1.6299-0.85388-1.3496-0.77863-0.4568-1.0486-1.1498-1.2302-0.73451-0.56061-1.0589-0.74487-1.1913-0.63329-0.85647-1.4145-0.73711-1.0486 0.32185-0.67221 0.41526-1.3782 0.49312-1.7908 1.2302-0.9629 0.57618-1.3418 0.57358-1.3418 0.73451-1.0122 0.89542-0.56061 1.1498-0.66962 1.5521-0.59694 1.2302-0.92657 0.65664-0.9629 0.0805-1.0849-0.15839-1.4145 0.31924-1.8298 0.24137-1.0849 0.2414-1.0849 1.2302-1.1212 0.89801-0.70595 1.0563-1.3029 0.9759-0.63329 1.4716-0.81756 1.2328-0.9629 1.2302-0.14535-0.73451-0.22062-0.57358-0.8513-1.3107-0.52428-0.45422-0.74487-0.45417-1.5598-0.85651-0.63329-0.53465-0.78123-0.3218-1.4145-0.89547-0.52428-0.61509-2.1568-1.4327-1.1965-0.85649-1.6818-0.53466-1.3782-1.713-1.0849-1.4716-0.37634-1.4716 0.3426-1.4716 1.1576-1.0148 0.7449-1.1108 0.03635-0.7345 1.1939-0.49574 1.5962-0.73449 1.4145-0.57359 2.0842-1.2302 1.3392-0.53465 0.48794-0.16102 1.4872 0.77602 0.32961 0.28032 0.70596 0.45419 0.56061 0.73451 0.45159 0.97588 0.92657 0.53466 1.3418 0.16083 1.4508-0.45419 1.9751-1.2302 0.74228-1.8064 0.67221-2.0063 0.25436-1.0174 0.59696-1.1498 1.3055-0.97589 0.9629-1.2692 1.2302-1.0174 1.5598-1.0563 1.2666-1.0564 0.74489-0.81757 1.3756-1.4716 1.3418-1.9673 0.85389-2.2865 0.32961-1.6325-0.59694-1.2302-0.81756-0.65664-1.2666-1.3081-1.5988-1.0589-0.9629-0.69558-0.92657-0.93693-0.41527-1.1498 0.18427-0.97589 0.63329-1.3522 0.89022-1.43 0.3426-1.4301 0.52428-1.5131 0.59694-0.73449 0.52428-1.0174 0.10902-1.1108-0.45159-1.3496-0.78123-0.85648-0.77861-1.713 0.03633-1.1498 0.85389-0.8954 1.1576-1.0589 0.56061-0.81497z" fill="#c2f0c2" id="Gaya" />
  <path d="m80.724 120.07-0.74228-1.4716-1.0486-1.3912-1.6818-1.7519-1.7934-1.9258-1.9751-1.8842-1.1939-1.6325-1.7545-1.3911-1.6455-0.65406-1.1575-1.3937-0.89022-1.1887-0.77862-0.61513-1.1939-0.53464-1.3782-0.2803-1.6351-0.2414-1.7908 0.0805-1.5625 0.0388-1.6325 0.12198-1.8635 0.31924-1.6844 0.4127h-1.9751l-1.6844 0.24136-1.4145-0.1584-1.6818-0.0805-0.59694 0.89541-0.25695 1.5131-0.30366 1.0174-0.14533 1.1913-0.45159 1.5106-1.9751 0.2829-1.6325-0.45421-1.6818-0.49571-2.7564-1.3885-0.17391-0.0856c-0.10902 0.11936-0.20763 0.23096-0.27253 0.33219-0.3374 0.51908-0.75786 1.046-1.0771 1.5469-0.60473 0.9499-0.59176 1.7779-0.58915 2.881 0.0027 1.4898 0.0182 2.9925-0.02854 4.4718-0.05191 1.6974-0.32702 3.2468-0.15055 4.9727 0.29587 2.9095-0.18427 5.5438-0.63329 8.404-0.43343 2.7746-0.78641 5.4711-1.7753 8.1212-0.98366 2.6318-2.0816 5.1467-2.7615 7.8849-0.58138 2.3411-1.6455 4.376-2.4475 6.6262-0.85389 2.3982-0.0649 4.1059 1.3315 6.0707 1.4898 2.0945 2.1101 4.1215 1.7597 6.7039-0.25954 1.918-0.86168 4.4927-3.1768 4.6484-2.4111 0.16345-4.9157-0.76048-7.3529-0.80719h-0.02337l-0.0597 0.76306-0.52427 0.61511-0.48795 0.57358-0.52428 0.49572-0.59694 0.2414-0.96549 0.0805-1.1576 0.37377-0.9629 0.28029-1.1575 0.37632-1.0849 0.85649 2.3176 1.3081 2.7926 0.16082 3.1327 0.32185 2.3905 0.36074 2.9017-0.28028 2.6083-0.16082 1.3418 0.0388 2.4993-0.28029 2.6447-1.3912 2.3905-1.0563 1.8661-0.69558 1.0122-1.1108 1.5598-1.713 1.1212-0.57618 0.96549-1.0174 0.81756-1.0174 0.85389-0.4542 0.30366-0.85649 0.92657-0.81495 0.92657-1.4716 0.70854-1.6325 0.41526-1.5131 0.3426-1.9258 0.81756-1.6325 1.3392-1.3107 1.4872-2.1257 1.8635-1.8868 0.89022-1.713 1.9388-2.7797 1.8298-2.1283 1.7182-1.8038 0.77862-1.3912 2.0842-1.8064 1.7182-1.6325 1.4872-1.713 1.3418-1.552 1.8999-1.6325 1.2692-1.2717 1.2302-1.4716 0.89024-1.0148 0.63329-0.41266 0.67221-0.41529 0.89025-1.4716 0.85389-1.2303 0.81756-0.57614 1.0486-1.3912 1.1939-1.4716 0.92657-1.0589 0.96291-0.97588z" fill="#a3b0a3" id="Rohtas" />
  <path d="m26.765 171.33c2.3152-0.15577 2.9172-2.7303 3.1768-4.6484 0.35039-2.5824-0.26992-4.612-1.7597-6.7039-1.3963-1.9648-2.1853-3.6726-1.3315-6.0707 0.80198-2.2503 1.8661-4.2851 2.4475-6.626 0.68-2.7356 1.7805-5.2504 2.7615-7.8849 0.98886-2.65 1.3418-5.3465 1.7753-8.1212 0.449-2.8602 0.92657-5.4946 0.63329-8.404-0.17391-1.726 0.09862-3.2729 0.15053-4.9729 0.04671-1.4794 0.03116-2.9822 0.02854-4.4718-0.0026-1.1031-0.01557-1.931 0.58915-2.8808 0.31923-0.50094 0.73969-1.0278 1.0771-1.5469 0.06489-0.0987 0.16351-0.21283 0.27253-0.33222l-1.3496-0.65147-2.193-1.552-1.5988-1.3107-1.8635-1.4716-1.4145-0.9759-0.78123-0.53464-1.2302-0.93695-1.3055-0.32183-1.9751-0.36077-1.4508-2.2476-0.35298 0.29587-0.63329 0.37374-1.7934 1.1109-0.74229 0.49311-0.85389 0.45679-1.2302 0.61511-1.3756 1.3107-1.4872 1.0563-1.7545 0.81495-1.7182 1.2302-1.1575 0.53466-1.2328 0.85649-1.3756 1.0564-1.1212 1.4716-0.30366 1.8038-0.48795 0.24138-0.21801 1.3496-0.67221 1.1913-0.37634 1.2302 0.9629 1.5106 0.56061 1.0563-0.45159 1.1108-0.59694 0.81496-1.0486 1.3912-0.41526 1.4716 0.036353 1.6325-0.41526 1.5521 0.9629 1.0563 1.2302 0.69557 0.56061 1.2718 0.25695 1.2691 0.14535 1.3496-0.21801 1.1108-0.52428 1.6715-0.48794 1.3911-0.072664 1.9673 0.41526 1.6325 0.96549 1.0563 1.3418 1.059 0.74229 1.552 0.9629 2.0063 0.449 1.1887 1.0849 1.3107 0.85389 1.059 0.37893 0.65403 0.37893 0.7345 1.4145 0.73714h1.4846l1.5235 0.15839 0.96549 0.49572 0.56061 1.2302 0.78122 1.8038 0.41526 1.591 0.74228 1.591 0.45159 2.0062 0.89022 0.85649 1.3055 1.4716 0.56061 1.4301-0.45159 1.5936-0.45159 1.3912-0.52428 1.1108-0.81756 2.0063-0.05191 0.66701h0.02336c2.4319 0.0545 4.9365 0.97847 7.3476 0.81755z" fill="#e2b584" id="Kaimur" />
  <path d="m111.68 74.698-0.89022-1.0174-0.37893-0.24135-0.48795-0.65666-0.70854-0.57618-0.66962-0.57359-0.70596-0.57618-0.89022-0.49571-1.1939-0.89544-0.89025-0.65662-1.3418-0.65407-1.3418-0.24137 0.89025-2.9822-0.48795-1.0174h-0.449l-0.48793-0.53465-0.92657-1.0174 0.0727-1.1498-1.3418-0.49312-1.5598 0.31924-1.2692 0.16082-1.4119 0.16082-1.2692 0.08052-1.8298-0.24139-2.829-0.97587-3.426-1.0563-1.3029-0.73711-1.0122-0.28031-1.1576-0.11936-1.9751 0.81497-1.9024 0.65664-1.5598 1.7104-1.4145 1.1108-0.55282-0.18166c-0.07527 1.0511-0.51649 2.1439-0.72932 3.1041-0.71374 3.2002 0.8513 6.1666 0.64885 9.3669-0.09083 1.4249-0.52428 2.8031-0.55282 4.2358-0.02853 1.4924 0.29587 2.9666 0.20504 4.4641-0.09862 1.6092-0.64885 3.125-0.92137 4.7028-0.23358 1.3418-0.03372 2.7926-0.43084 4.0982-0.95252 3.1145-5.0482 4.2513-7.9031 4.5135-0.16092 1.9336 0.25695 3.9995-0.19467 5.8735-0.12199 0.51391-0.16092 1.0304-0.16871 1.5573l1.1654 0.52165 0.78123 0.61515 0.89024 1.1887 1.1575 1.3937 1.6455 0.65666 1.7571 1.3885 1.1939 1.6325 1.9751 1.8868 1.7908 1.9258 1.6844 1.7519 1.0486 1.3885 0.74489 1.4716 0.56061 1.4716 1.3055-1.6326 1.1576-0.97587 1.7934-0.97588 2.829-1.1498 2.424-1.1913 1.8661-0.77343 1.3055-0.49571 0.89022-0.41527 1.0849-0.41527 1.3782-1.8453 1.4145-1.1913 1.3756-2.0452 2.6083-2.7823 1.9388-3.3558 0.0363-2.0062 0.25695-3.143 0.25693-3.0236 0.66962-2.2062 0.4516-2.3282-0.0363-1.5132 0.29329-2.5824 0.81755-2.3282 0.81756-1.3912 1.0849-1.4716 0.77862-1.1523 0.45161-1.1498 1.1212-1.1108 0.9629-0.65664 0.039-0.77603z" fill="#addcda" id="Arrah" />
  <path d="m65.295 96.829c2.8523-0.26213 6.9505-1.3989 7.9031-4.5135 0.39968-1.3055 0.19984-2.7564 0.43084-4.0982 0.27253-1.578 0.82276-3.0938 0.92138-4.7028 0.09083-1.4976-0.23358-2.9692-0.20504-4.4641 0.02853-1.4301 0.46199-2.8108 0.55282-4.2358 0.20245-3.2002-1.3626-6.1666-0.64884-9.3669 0.21542-0.96031 0.65404-2.053 0.72932-3.1041l-1.3133-0.43343-2.4631-0.49573-2.3514-0.89542-2.1204-0.57359h-2.951l-1.9725 0.37373-1.4872 1.5936-1.0122 1.6325-1.1212 1.8869-0.6203-0.41528-0.8513 0.81758-0.63329 1.1498-1.4145 1.3107-0.48795 1.4716-1.5988 1.4716-1.3392 1.3496-0.63588 1.3911-0.45159 1.0174-0.59694 0.57359-2.0115 0.49573-0.48794-0.04147-1.6092 1.1913-1.8272 1.1913-0.92657 1.0174-0.74489 0.89803-0.449 1.3081-0.56061 1.2302-1.0849 1.5131-1.7934 1.4327-0.70596 1.9647-0.37634 1.0174-0.56061 1.3522-2.0115 1.5105-2.193 0.89543-2.1932 0.61511-1.2692 1.1498-1.1939 1.1913-1.5625 0.85388-1.1939 0.69556-1.7571 1.2692h-1.5702l1.4508 2.2476 1.9751 0.36078 1.3029 0.31924 1.2328 0.93696 0.77862 0.53464 1.4145 0.97329 1.8661 1.4716 1.5962 1.3107 2.1957 1.552 1.5235 0.73711 2.7538 1.3886 1.6818 0.49571 1.6325 0.45419 1.9751-0.28288 0.449-1.5106 0.14794-1.1913 0.30366-1.0174 0.25436-1.5131 0.59694-0.89541 1.6844 0.0805 1.4145 0.16082 1.6818-0.24137h1.9751l1.6818-0.41268 1.8661-0.32183 1.6351-0.11935 1.5598-0.0417 1.7934-0.0805 1.6325 0.24138 1.3756 0.28032 0.03116 0.0121c0.01038-0.52946 0.04673-1.046 0.16871-1.5573 0.44642-1.8635 0.02853-3.9321 0.18947-5.8656z" fill="#c22022" id="Buxar" />
  <path d="m112.33 130.15c-0.0234-1.0901 0.14276-2.2503-0.0571-3.3143-0.22839-1.1965-0.41787-2.4008-0.28811-3.6518 0.10902-1.0356 0.38672-2.0711 0.55024-3.1015 0.0831-0.52688 0.07-1.1861 0.25695-1.687 0.15831-0.42565 0.50091-0.60475 0.75268-0.95509 0.39192-0.54245 0.60732-1.2199 0.71892-1.9544l-0.3426 0.38931-1.3055 0.53466-1.6325 1.0564-1.4508 0.45418-1.3418 0.36077-1.7182 0.20243-2.0842-0.24137-1.7934-0.73709-0.56061-0.31924 0.37634-0.65664 0.41528-0.41526 0.63329-0.24138 0.59694-0.32185 0.78123-0.65664 0.25695-0.57358-0.56061-0.81754-1.3055-0.4568-1.4872-0.2803-1.2692-0.24137-1.4508 0.0779-1.6325 0.32187-1.4508 0.57615-1.1108 0.45421-0.89024 0.41527-1.3029 0.49573-1.8661 0.77604-2.4267 1.1887-2.829 1.1524-1.7908 0.9759-1.1602 0.97845-1.3029 1.6326-0.96291 0.97585-0.92657 1.0564-1.1965 1.4716-1.0486 1.3937-0.81756 0.57359-0.85389 1.2302-0.89022 1.4716 0.96291 1.713 0.92657 0.16102 0.9629 0.15839 1.1238-0.15839 1.0823-0.73712 0.74488-0.8954 0.63329-0.57361 1.0849-0.81495 0.81756-0.16082 1.0122 0.32184 1.0122 0.65665 1.1575 0.41526 1.1965 0.32186 0.89022-0.32186 1.1212-0.49574 1.2692-0.0779 0.78122 0.28031 1.5235 0.0415 1.8999 0.28031 1.0849 0.19987 1.1576 0.20244 0.66962 0.45419 0.30365 0.81498-0.07267 0.89543h3.3534l3.7323 1.5521 4.2176 0.49573 4.2072-0.73453h0.33222c-0.0208-0.12201-0.0467-0.23877-0.0753-0.35296-0.32961-1.2847-1.3159-1.8272-1.3444-3.2338z" fill="#6ff531" id="Arwal" />
  <path d="m147.04 135.77-1.2691-0.85649-1.6818-0.93693-1.4872-1.3912-1.4508-1.3107-1.5235-1.552-1.3055-1.0589-1.2302-0.97327-0.89025-1.1109-0.18166-1.5936 0.25695-1.5521v-1.3912l0.25695-1.3911 0.21801-2.6213 0.0726-1.3911 1.0511-0.81759-0.37891-1.2691v-1.1108l0.14524-0.73707-0.44901-0.45423-0.41528-0.53466-0.67222-0.81495-0.74227-0.49313-0.96292-0.49574-0.6696-0.0388-0.70857 0.61255-0.59695 0.89538-0.92656 0.89545-0.7449-0.45421-1.0096-0.53466-1.0122 0.57617-1.0849 1.1498-1.0849 1.1108-1.9388 1.1913-1.4509 0.2414-1.0485-0.41529-0.22062-1.0564 0.25695-2.7044 0.10903-1.43 0.34261-1.1108-1.4509 0.65664-1.3392 0.65403-1.0485 0.49572-1.3055 0.89543-0.63589 0.8954-0.63325 0.97849-1.2302 1.2692-0.70336 0.80198c-0.11409 0.73451-0.32963 1.4119-0.71894 1.9544-0.25175 0.35037-0.59435 0.52946-0.75267 0.95513-0.18688 0.50091-0.17391 1.1602-0.25695 1.687-0.16351 1.0304-0.44121 2.066-0.55023 3.1015-0.12976 1.251 0.0597 2.4552 0.28811 3.6518 0.20245 1.0641 0.0363 2.2242 0.0571 3.3144 0.0285 1.4067 1.0148 1.9492 1.347 3.2288 0.0285 0.11433 0.0545 0.2336 0.0753 0.35297h7.8329l0.48795-0.23877h7.449l1.6325 0.23877 2.3541 1.0174 1.8635 0.53467 3.0236 0.23877 0.92658 0.24137 2.3514 0.77605 3.4986-0.77605 2.3152 0.0805z" fill="#ccc" id="Jehanabad" />
 </g>
 <g fill="none" stroke="#345">
  <path d="m139.17 22.773-2.7861 1.194-0.79602-0.79602-1.791 1.194h-0.79602l-1.194-0.99502-1.592 0.39801-1.393 0.39801-1.791-0.39801h-3.7811l-2.189-0.199-1.99 0.199-3.5821 0.59701 0.199 1.592-1.791 3.9801-2.388 4.1791-0.99502 3.3831-6.9651 11.94-3.1841 2.9851-4.1791 5.9701-1.393 0.59701-2.189 2.388-1.592 2.3881-2.9851 1.99-3.7811 1.99-4.9751 4.9751-1.194 0.59701-1.194 1.393-0.199 1.592-2.3881 2.3881 0.19901 3.1841-2.189 8.3582-1.791 2.7861-0.59701 1.99v3.9801l0.199 3.1841 2.7861 3.1841" stroke-width=".5px"/>
  <path d="m139.16 22.773v1.0243h4.63l2.4804 0.34143 2.315 0.85358 1.1575 0.68286-0.16536 1.0243v1.0243l0.99216 0.68287 0.49608 1.3657-0.99217 1.0243 0.66144 1.8779 1.4882 0.51215 2.1497 0.17072h2.9764l3.1418 2.0486 1.4882-0.68286h2.1497l1.9843 1.0243 0.99213 0.85358 4.7954-0.34144 1.8189 0.85358-0.16535 2.7315 0.82679 2.39-0.33071 2.0486-1.6536 2.2193 0.33072 3.585v1.5364l-0.33072 2.7315-0.16536 2.0486-0.16536 1.5364-0.66143 0.85358-0.82678 2.5607 1.6536 4.4386-0.66143 1.5364 1.4882 3.9265 0.16536 2.0486-0.33071 5.9751 0.49607 5.4629 0.66144 7.6822" stroke-width=".5px"/>
  <path d="m139.16 22.773-2.1875 6.7914-0.4375 1.1985v2.397l-1.3125 2.5967-1.75 5.3932-3.9374 5.5929 1.5312 1.3982-1.5312 1.3982-1.5312 2.9962-0.87499 2.1972-0.21875 2.1972-1.9687 3.3957 0.21875 2.9962-0.4375 8.9886-0.87499 2.1972-0.43749 8.9886 4.8124 15.181-0.43748 1.9975" stroke-width=".5px"/>
  <path d="m104.57 85.814-0.54147 1.9294-1.3537 0.42876-0.67684 0.32157-0.27073 0.42876-1.2183 0.42876-0.54147 0.96472v0.96472h-0.94756l-0.4061 0.53595h-0.67683l-0.27073 0.75034-0.67684 0.53596" stroke-width=".5px"/>
  <path d="m104.57 85.814 1.9346 1.486 1.2311 0.92873h1.2312l1.2311 0.92873 0.70351 0.18574 1.2311 0.92873h1.5829l0.87939 0.74299 1.2311 0.18575 0.87939 1.3002 3.8693 2.9719 2.6382 1.3002 4.5728 3.9007" stroke-width=".5px"/>
  <path d="m96.99 93.103h-5.4549l-1.591 0.76604-0.68186 0.38302-0.68186 1.9151h-0.90915l-1.591 1.1491-0.90915 1.5321-2.7274-1.1491-2.0456 2.2981-2.0456 1.5321-1.1364 2.2981-4.3185 1.5321" stroke-width=".5px"/>
  <path d="m127.79 100.73h4.9506l4.097 0.78328 3.9264 0.15666 2.5607-0.78329h2.0485l2.2192-0.31331 1.7071-0.93994 2.5607-0.15666 3.0728 0.31332 1.5364-0.31332h1.0243l1.5364-0.93994 2.2192-1.0966 1.5364-0.15666 2.3899-0.62663 2.0485-0.62663 2.5606-0.93994 2.7314-0.93994 1.5364-1.7232" stroke-width=".5px"/>
  <path d="m115.48 24.365-1.1006 0.4093-1.2841-0.24558-2.6599 0.90046-0.82549-0.49116-0.82547-0.8186h-0.73377l-1.0089-0.08186-1.1006-0.4093-0.9172-0.24558-1.8344 0.4093-2.1096 0.90046-0.55032 0.90045-0.64205 0.16372-0.91719-0.08186h-1.1924l-1.7427-0.08186-0.64204-0.24558-1.1006-0.24558-1.1006-0.08186-1.0089-0.65488h-2.1096l-0.82548-0.16372-0.9172 0.16372-0.73376 0.4093h-1.7427l-1.2841-0.8186-2.4764-0.65488-1.0089-0.16372-1.651-0.65488h-1.1924l-1.7427-0.08186-1.9261-0.65488-1.3758-0.08186-1.8344-0.16372-1.0089 0.16372-2.0178 0.32744-1.5592 0.32744-1.2841 0.90046-0.64204 0.57302-3.0268 0.73674-1.7427-0.4093-4.4026-0.4093-2.4764-0.16372-3.5771 0.49116h-0.55032l-2.0178-0.57302-1.5592 0.24558-1.4675 0.49116 0.18344 0.65488-0.82548 0.32744" stroke-width=".5px"/>
  <path d="m100.51 25.618-2.3845 2.5947-2.1196 4.6128-2.3845 5.1894-2.3845 2.5947-2.1196 0.5766-1.8546 1.4415-2.9144 2.883-0.79484 2.0181-3.1793 2.5947-2.9144 0.2883-2.9144 1.7298-2.1196 3.4596-3.1793 2.0181-3.4443 2.0181-1.8546 2.883-3.7092 4.6128-3.9742 3.1713-5.2989 5.1894-3.4443 3.4596-1.8546 4.9011-0.26495 2.0181 0.52989 1.7298" stroke-width=".5px"/>
  <path d="m45.93 87.602-3.0614-0.43733-3.4987-1.0934-2.1867-0.87468-2.8427-1.0933-1.312-0.87468-3.7174-3.4987h-1.7494l-6.3414 0.65601-1.5307-0.21867-1.5307 0.43734-2.1867-0.87468" stroke-width=".5px"/>
  <path d="m15.973 79.73 1.1687-5.2063-0.23373-7.5202h1.4024l1.6361-2.3139 2.8048-0.57848 12.388-3.1816 17.296-3.4709 6.3108-7.2309 6.7783-0.86772 0.7012-7.5202 0.93493-2.8924 4.9084-2.0247 4.4409-2.8924 2.1036-5.4955 1.1687-4.6278h1.6361l1.4024 0.57848 3.0385 0.28924" stroke-width=".5px"/>
  <path d="m70.111 102.18h-1.6319l-0.44505-1.9315-1.3352-1.4047-4.3022-3.863-0.44505-1.7559-0.14835-0.52678-1.7802-1.5803-1.1868-0.35118-0.8901-0.52678-0.8901-0.35118-4.4505 0.35118-1.3352-0.35118-4.4505-1.5803-0.8901-0.70236" stroke-width=".5px"/>
  <path d="m43.392 25.184-1.5086 1.4588-1.0057 0.64836-1.6762 0.48627-0.6705 1.1346-1.6762 1.6209-0.16763 1.783-1.5086 0.16209-0.83812 1.6209-0.50288 1.9451-1.1734 1.4588-1.6762 1.9451-2.3467 1.1346-3.0172 1.4588-1.5086 1.2967-0.6705 1.4588-1.0057 0.64837-2.682 1.783-1.0057 4.0523-0.50287 2.1072-0.83812 2.9176-0.33525 1.6209-0.50287 2.2693 0.33525 3.7281v3.0797" stroke-width=".5px"/>
  <path d="m91.006 63.767 1.9008 1.8258h0.7128l2.1384 1.4606 1.188-0.12172 1.3068 0.24344h0.8316l1.3068-0.12172 0.59399-0.36516 1.782-0.48688h4.9896l1.5444 0.48688h1.4256l2.376 0.48688 2.8512 0.73032h6.2964l2.7324-0.73032" fill="none" stroke="#345" stroke-width=".5px"/>
 <path d="m125.12 61.874 1.3741 1.3068 5.2216-0.65339 13.191 2.178 19.787-0.87118 6.8705 3.4847" fill="none" stroke="#345" stroke-width=".49603px"/>
 </g>
 <g fill-rule="evenodd">
  <ellipse cx="138.29" cy="23.555" rx="2.4777" ry="2.5839" stroke-width=".39275"/>
  <ellipse cx="43.409" cy="24.881" rx="2.0643" ry="2.1527" stroke-width=".32722"/>
  <g stroke-width=".39275">
   <ellipse cx="72.969" cy="105.31" rx="2.4777" ry="2.5839"/>
   <ellipse cx="127.75" cy="100.35" rx="2.4777" ry="2.5839"/>
   <ellipse cx="174.05" cy="92.08" rx="2.4777" ry="2.5839"/>
   <ellipse cx="171.78" cy="65.414" rx="2.4777" ry="2.5839"/>
   <ellipse cx="91.159" cy="63.967" rx="2.4777" ry="2.5839"/>
   <ellipse cx="100.46" cy="25.725" rx="2.4777" ry="2.5839"/>
   <ellipse cx="16.123" cy="79.677" rx="2.4777" ry="2.5839"/>
   <ellipse cx="45.89" cy="87.532" rx="2.4777" ry="2.5839"/>
   <ellipse cx="124.85" cy="66.654" rx="2.4777" ry="2.5839"/>
  </g>
 </g>
 
 <g fill="#000000" font-family="sans-serif" font-size="3.5279px" letter-spacing="0px" stroke-width=".26459" word-spacing="0px">
  <text x="137.25586" y="17.663763" style="line-height:1.25" xml:space="preserve"><tspan x="137.25586" y="17.663763" font-size="5.6446px" stroke-width=".26459">Patna</tspan></text>
  <text x="44.236073" y="30.686531" style="line-height:1.25" xml:space="preserve"><tspan x="44.236073" y="30.686531" font-size="5.6446px" stroke-width=".26459">Buxar</tspan></text>
  <text x="29.146198" y="94.56012" style="line-height:1.25" xml:space="preserve"><tspan x="29.146198" y="94.56012" font-size="5.6446px" stroke-width=".26459">Sasaram</tspan></text>
  <text x="6.6147404" y="86.911827" style="line-height:1.25" xml:space="preserve"><tspan x="6.6147404" y="86.911827" font-size="5.6446px" stroke-width=".26459">Bhabua</tspan></text>
  <text x="52.297787" y="112.95736" style="line-height:1.25" xml:space="preserve"><tspan x="52.297787" y="112.95736" font-size="5.6446px" stroke-width=".26459">Aurangabad</tspan></text>
  <text x="123.19953" y="107.99631" style="line-height:1.25" xml:space="preserve"><tspan x="123.19953" y="107.99631" font-size="5.6446px" stroke-width=".26459">Gaya</tspan></text>
  <text x="148.62494" y="94.14669" style="line-height:1.25" xml:space="preserve"><tspan x="148.62494" y="94.14669" font-size="5.6446px" stroke-width=".26459">Nawada</tspan></text>
  <text x="137.25586" y="60.866283" style="line-height:1.25" xml:space="preserve"><tspan x="137.25586" y="60.866283" font-size="5.6446px" stroke-width=".26459">Bihar Sharif</tspan></text>
  <text x="113.27742" y="74.509186" style="line-height:1.25" xml:space="preserve"><tspan x="113.27742" y="74.509186" font-size="5.6446px" stroke-width=".26459">Jehanabad</tspan></text>
  <text x="124.72373" y="72.309792" style="line-height:1.25" xml:space="preserve"><tspan x="124.72373" y="75.528366" stroke-width=".26459"/></text>
  <text x="91.572807" y="71.821953" style="line-height:1.25" xml:space="preserve"><tspan x="91.572807" y="71.821953" font-size="5.6446px" stroke-width=".26459">Arwal</tspan></text>
  <text x="86.818466" y="20.557711" style="line-height:1.25" xml:space="preserve"><tspan x="86.818466" y="20.557711" font-size="5.6446px" stroke-width=".26459">Arrah</tspan></text>
 </g>
</svg>
