<svg width="205.38mm" height="223.95mm" version="1.1" viewBox="0 0 205.38184 223.95523" xmlns="http://www.w3.org/2000/svg" xmlns:cc="http://creativecommons.org/ns#" xmlns:dc="http://purl.org/dc/elements/1.1/" xmlns:rdf="http://www.w3.org/1999/02/22-rdf-syntax-ns#">
 <metadata>
  <rdf:RDF>
   <cc:Work rdf:about="">
    <dc:format>image/svg+xml</dc:format>
    <dc:type rdf:resource="http://purl.org/dc/dcmitype/StillImage"/>
    <dc:title/>
   </cc:Work>
  </rdf:RDF>
 </metadata>
 <g transform="translate(-2.8181 -36.266)" stroke="#fff" stroke-width=".5">
  <path id="Vaishali" d="m181.41 213.26-0.27592 1.6097-0.32525 2.0138-0.61762 1.0841-0.52564 1.4554-0.52562 2.5887-0.47635 1.659-0.23328 0.83116 0.27596 1.659 0.37123 2.2865 0.27594 1.7609-0.23326 1.1334-0.80161 1.4061-0.56833 2.2175-0.47961 0.98228-1.0348 2.0171-1.5144 1.659-0.89357 1.7083 0.0458 2.1156-1.4652 2.592-1.0348 1.8627-0.27595 1.1334-0.18386 1.1334 0.138 1.4061 0.52562 1.8134-0.27926 1.659-0.38436 1.1334-0.32523 1.2352-0.18386 0.40739-1.0348 0.93298-0.98883 0.52565-1.1728 0.20356-1.3732 0.20357-1.0808-0.20357-1.7871-0.52562-1.6984-0.72604-2.0368 0.20357-2.546-0.7786-1.9284-0.67673-2.7792-1.2352-1.1268-1.1334-1.1728-1.0841-2.6381-2.6412-0.43365-1.0315-1.8824-1.9646-1.6064-1.8627-1.3272-0.82787-2.9763-1.3403-0.138-0.77861 0.18398-1.7115-0.37123-1.659-0.13799-1.2385-0.43034-1.9645-0.18398-2.165v-2.845l-0.27924-2.1682-0.66358-2.0138-0.84758-1.2352-0.94283-2.0138-1.2812-2.0138-1.4192-2.4901-0.93955-1.9646-0.47963-0.62415-1.7904-3.2163-1.0775-2.2175-1.2188-2.1157-1.4225-1.4553-1.6492-2.0664 1.4652 0.25297 0.6636 0.15114 1.5145-0.57491 1.6984-0.30552 1.6064-0.78186 2.1748-0.40409h1.8364l2.8253-0.52565 1.1728-0.10194 1.9284 0.25626 1.7444 1.1827 2.1748 1.4553 1.6984 1.7608 1.5112 1.2352 1.7444 1.0316 1.3732 0.20355 1.9744 0.15113 1.6952-0.0527 1.2188-0.10194 2.6381 1.0348 1.7904 1.1334 3.3015 0.83111 1.5112-0.10194 2.546 0.62749 2.5-0.20357 1.2188-0.30222h3.4429l1.9284-0.0527 1.9744 0.3548 1.3305-0.20357z" fill="#cc2"/>
  <path id="Paschim Champaran" d="m69.366 54.507 2.546 0.52562h0.14126l4.2446 0.6242 1.1268 0.40735 3.3937 0.72601 2.546 1.1334 1.3732 2.0664 0.18725 0.40735 4.5664 8.8043 0.18725 0.933 0.09199 0.72601-0.57161 1.5572 0.092 1.0316-0.27922 0.57819 0.27922 0.45664-0.61759 0.82786 0.23324 1.2352 0.70959 0.30555 0.04593 0.20356-0.57161 0.30552-0.18397 0.30552 0.13799 1.0348-0.09199 0.72931-0.13799 0.40408-0.27595 1.8134-0.18728 0.35478-0.32196 0.1019-0.092 0.30552 0.23324 0.67675-0.13799 0.40408-0.37122 0.15107-0.23326 0.9297-0.52562 0.40738-0.23324 0.5256-0.75561 0.47308-0.23324 0.67675-0.04601 1.1826-0.41721 0.57494-0.18397 0.45992 1.4192 0.57489 0.84758 0.1019 5.2332 2.2865 1.2812 0.57492 0.04606 2.1649 0.52562 1.4061 0.27926 1.7116-0.7556 1.1859-0.80488 0.72934-1.2812 0.30552-0.75558 0.9297h-1.2188l-1.0808 0.52232-1.1728 1.0348-0.47636 1.2352 0.13799 1.7642 0.70959 2.0631 0.52562 1.4586 0.61763 1.7576 1.5145 1.7641 0.98884 0.92973 0.89685 1.3403 0.13799 1.1827-1.1268 0.98225-0.092 0.72601-0.092 1.0349 1.0808 1.4553 1.6064 1.2385 0.70959 0.72602-0.23327 1.1334-0.89357 0.62418-1.3732 0.20357-2.1748 0.52237-1.3732 0.62749-1.0348 1.2352-0.94284 0.77858-1.0348 0.57489-2.0204 0.78188-1.9744 0.35482-1.4652 0.5256-1.8824 0.72604-1.3699 0.52563-1.6984 0.9297-0.84758 0.57492-1.0348 0.67675-0.41721-0.15107-0.94286-0.35482-1.0775-0.20381-0.80159-0.20049-1.3732-0.47306-1.6065-0.77858-1.6065-0.67678-1.1728-0.1019-1.0348-0.0528-1.3272-0.30552-0.84758-0.62746-0.18397-0.98227-0.70959-0.88044-1.0348-0.52232-0.89684-0.20382-1.1728-0.20049-1.2188-0.30552-1.5112-0.88043-0.94286-0.98227-0.84758-0.92971-1.6065-1.1334h-1.0348l-1.0775-0.25298-1.0808 0.20049-1.3272 0.98227-0.70959-0.0492-0.22996-0.9823-0.98884-0.92968-0.75558-0.35481-1.7904-0.57492h-0.80154l0.70959-0.93298 0.66361-0.98225 0.61762-0.6242 0.84758-0.98228 0.61762-0.83112 0.89357-1.1334 0.80159-1.1334 0.66361-1.8627-0.04601-2.6906-1.1268-1.1859-1.9744-1.0841-1.2188-0.30553-1.2812 0.52563-0.98554 0.78189-1.0808 0.88041-1.3732 0.20049-2.454-0.25298-1.1728-0.0528-1.0348-0.83115-0.56833-0.45662-0.57161-1.4061-1.3732-0.40736-1.5572-0.83112-0.85086-0.92973-0.23324-1.4586-0.27595-1.6098 0.18397-1.912-0.47636-1.7115-1.1728-1.659-1.2812-0.97894-0.94286-1.186-0.04601-0.98227 0.13799-1.1334 1.1728-3.3179 0.32524-2.1682-0.38436-0.9297-0.80487-0.35809-1.3272-0.57489-1.2812-0.40736-1.5112-0.67677-1.6065-0.57819-1.8824-0.82786-0.89684-0.82784-0.18397-0.83116 0.47963-1.0315 0.80159-1.5572 0.66361-1.4061 0.71287-1.2352 0.6636-1.5079 0.93956-2.2832-0.04601-1.7083-2.1748-1.8134-0.70959-0.933-0.56833-0.9297-0.80159 0.82786-0.32524 0.62745-0.66361 1.2878-0.85086 0.88047-0.80159-0.92972-0.70959-0.933-0.47636-0.40735-0.94286-0.57491-0.80159-0.45661-0.47636-0.83117 0.52562-0.62418 0.75558-0.62748 0.61762-0.35478 1.1268-0.52565 0.98884-0.68002 0.89356-1.7576 0.04601-0.933-0.09197-1.2352-1.1268-0.92972-1.0808-0.35808-1.0348-0.04921-0.98554 0.52234-1.0808 0.30552-0.80159 0.15107-0.94284 0.04924-0.38437-1.0315-0.84758-0.40735-0.32523-0.20369-0.091974-0.47305 0.13799 0.10183 1.3272-1.4553 0.52562-0.98226 0.046013-0.10183-0.046013-0.62748-1.6032-1.7609-0.75558-1.659-1.3535-0.4008-1.1268-1.5572-0.046013-0.20039 0.47636-0.57491 1.1728-0.98226h0.75558l1.4652 0.52234 1.1728 0.05253 4.3823-1.0316 1.1268 0.04928h0.66358l0.66361 0.62417 1.3732-0.40407 1.6492 0.30552 1.6065-0.10184 2.2208 0.9297 0.38436 0.10184 1.6525-0.88043h0.98554l1.1268-0.98227 0.98884-3.3179 2.0828-0.67674 0.57161-0.47308 0.36795-1.0348-0.09198-1.4553 0.22996-0.40735 0.09198-0.20369 0.98884-0.10184 1.2188 1.1334 0.84758-0.20369 1.6065-0.82786h0.70959l0.04601 0.62748-0.7556 1.5572 0.04601 0.9297 0.80159 0.72931 1.1268 0.20039 0.37122 0.72603 0.98554 0.52562 0.36794 0.04928 2.408 0.57819 0.27594 1.9645-0.04601 0.933 0.89356 0.20369 0.43037-0.88043 1.1728-0.40735 1.5605 0.25296 0.61762 0.35809 0.61762 1.2878 0.85086 0.40735 0.52562 0.72604v0.10184l0.32196 2.9994 0.66361 0.67674 1.3272 0.45664 1.3272 0.15112 2.454 0.83114 2.0237 0.25296 2.1748-0.30552 0.7096 0.30552 1.0808 0.40408h1.3699l1.2812-0.25296 2.3161 0.40407 2.592 1.4061 0.47636-0.10184 0.7129-0.72931 0.61762 0.47308z" fill="#e2b584"/>
  <path id="Saran" d="m79.27 169.22 1.7411-1.0315 0.47963-1.1334 0.66361-0.67672 1.3272-1.0841 1.8824-2.0138 0.61762-1.6097 0.61759-1.5572 0.22996-1.3371 0.37122-0.9297 0.61762-0.40735 1.2812-0.72604h1.5145l1.1268 0.10193 1.1728 0.93302 1.5145 2.3883 1.0775 2.385 2.2208 2.4902 1.0808 1.8102 1.4652 1.9645 2.1748 2.3883 1.9744 2.3357 1.5112 1.7608 0.94285 1.2352 0.70959 0.67675 0.75558 1.0841 1.6032 2.0664 0.85085 1.659 0.84758 1.8627 0.43365 1.7576 0.56833 2.1682 0.71289 2.5887 0.18395 2.2175 0.52565 2.8941 0.27595 2.1157 0.80487 2.0664 0.84758 1.9646 1.7444 1.0808 2.1748 1.406 1.4192 0.7786 1.9744 0.88043 0.43365 0.10194 1.6491 2.0664 1.4192 1.4553 1.2188 2.1157 1.0808 2.2175 1.7904 3.2129 0.47964 0.62749 0.93955 1.9645 1.4225 2.4869 1.278 2.0171 0.94285 2.0138 0.84758 1.2352 0.66361 2.0138 0.27594 2.1649v2.845l0.18398 2.1682 0.43365 1.9645 0.13799 1.2352 0.36795 1.659-0.18395 1.7116 0.13799 0.77861-1.3272-0.72604-1.9284-1.2352-1.3732-0.83118-1.4192-0.83116-1.6984-1.1826-2.1321-1.2878-4.1066-2.1682-2.0204-1.0316-2.6839-0.40732-2.546 0.30547h-2.1748l-2.8844 0.72934-2.546 0.7293-2.592 0.30227-2.5 0.52562-1.0775 0.10193-1.2812-0.98226-1.1268-1.2878-0.47963-0.30552-0.61762-0.83115-0.89685-0.72602-0.84758-0.72604-0.89357-0.72604-1.1268-0.62742-1.5112-1.1334-1.1268-0.83114-1.6984-0.82786-1.6984-0.30552 1.1268-3.7747-0.61759-1.2878h-0.56834l-0.61762-0.67347-1.1728-1.2878 0.092-1.4553 0.27925-0.67675-0.52565-1.1827-0.5716-1.3371 0.61762-0.40407 0.75558-0.10194 0.47963-0.72604 0.43034-1.4586-0.32521-1.912-0.94286-0.93299-1.1728-1.1826-0.75558-1.1334-1.6984-1.0348-1.9744-0.92969-1.5572-0.83116-1.4192-0.98227-0.89357-0.5749-0.89684-0.52565-0.8016-0.52563-1.4192-1.5079-3.1177-1.5079-1.3732 0.72601-0.8016-1.912-0.66361-0.57488-1.1268-0.83118-1.2188-1.3403-2.8877-0.77532 2.2241-0.40739 1.5112-1.0841 0.85086-1.7609 0.27595-0.98228 0.98884-0.0524 1.5112 0.30552 1.6065 0.40407 1.4192-0.20355 1.4652-0.92971 0.32524-0.92971-0.37122-2.4902-0.13799-1.7609 0.61762-1.2352 0.22996-0.98228 0.09198-1.6064 0.04923-1.1367 0.04601-1.5572 0.70959-0.92975 0.98555-1.337 0.89357-1.8627 0.57161-1.659-0.27595-2.2865z" fill="#c2f0c2"/>
  <path id="Muzaffarpur" d="m107.57 177.13 0.27594-0.25299 0.52565-1.4553 0.18395-1.5046-0.092-1.6097 0.32196-1.4061 1.2812-0.98228 1.2221-0.92969 1.3272-1.8627 2.7792-0.67674 1.8791 0.25297 2.7792 0.62746 1.6524-0.2038 0.84758-0.20357 3.6728 0.10193 1.3272 0.25299 1.5604 0.57489 1.6492 0.62749 1.8364 0.40735 3.0258 0.77858 1.8824 0.47634 2.546 0.30555 2.1781 0.52562 2.5 0.40736 1.2812-1.7608 0.0458-0.72602-0.38437-1.2352-0.8016-1.406-0.61759-0.47307-1.0348-0.72931-0.41721-1.1334 0.13799-0.40407 1.2812 0.0492 1.5572 0.25622 1.0808 0.30555 0.66362 0.52563 1.5605 0.25298 1.4192 1.0841 1.6984 0.88046 1.3732 0.57818 1.3732 1.4553 1.8364 1.4553 1.1268 0.72599 1.3305 1.4061 0.75556 1.0841 0.94285 1.1334 0.61762 0.40736 0.66362-0.20689 0.89682-1.2878 0.93956-0.88045 2.1321-2.1649 1.0775-1.4587 0.41722-0.62415 0.61759-1.1334 0.61762-0.52562 0.7096-0.52235 1.0808-0.57819 0.6176-0.47304 0.84759-0.35482 0.57164-0.30552 1.2812 0.15113h0.57164l1.2188 0.20381 1.4192 0.52564 1.4192 0.62747 1.4225 0.93296 1.5112 1.0316 1.5604 0.98225 1.8364 0.67675 1.5145 0.40411 1.3272 0.52562 0.52562 0.20382 0.98887 0.52235 0.61429 0.30548 0.75558 0.47638-1.2188 1.7083 0.37122 0.7293 0.27924 1.659-0.18718 1.659-0.47633 1.5572 0.52562 1.912 1.0775 1.2878 0.70961 1.5572 0.84755 1.2878 0.52564 1.5046 0.23326 1.1859 0.27597 1.912-0.18384 1.0348-0.27597 1.1334-0.32525 1.2352-0.47963 0.72601-0.27593 1.2353-0.0886 1.1334-0.13799 0.93297-0.14136 1.5572-3.4395 0.40737-1.9284 1.5079-1.8397 1.1827-0.84757 1.2352-1.0808 2.7925-0.43034 2.2865-0.32197 2.5887-0.18717 1.5571-0.18384 0.57492-1.4685 0.57492-1.3272 0.20355-1.9744-0.35809-1.9284 0.0526h-3.4429l-1.2221 0.30554-2.4967 0.2005-2.546-0.62422-1.5145 0.10194-3.3015-0.82787-1.7904-1.1367-2.6412-1.0348-1.2188 0.10194-1.6984 0.0492-1.9744-0.15113-1.3732-0.20049-1.7444-1.0348-1.5144-1.2353-1.6984-1.7609-2.1748-1.4553-1.7444-1.186-1.9284-0.25299-1.1728 0.10194-2.8219 0.52562h-1.8366l-2.1748 0.40739-1.6032 0.77858-1.6984 0.30552-1.5112 0.57489-0.6636-0.15114-1.4652-0.25299-0.43034-0.10193-1.9744-0.88045-1.4192-0.77855-2.1781-1.4061-1.7444-1.0808-0.85086-1.9645-0.80159-2.0664-0.27594-2.1157-0.52563-2.8942-0.18397-2.2175-0.7096-2.5887-0.5716-2.1682-0.43367-1.7575-0.84759-1.8627-0.84758-1.659-1.6065-2.0664z" fill="#a3b0a3"/>
  <path id="Purbi Champaran" d="m109.65 96.861 1.9744 0.83115 1.3272-0.15107 0.93956 0.04917 1.6984 0.72932 0.32524 0.1019 1.1268 0.1019 1.3732 1.659 0.18725 0.72931-0.6636 1.1334-0.092 1.5572 3.2096 0.20356v0.62746l-0.27925 0.30553 0.0459 0.62745 0.23324 0.0528 1.1728 0.35481h0.84758l1.3732 0.1019 1.5572 0.20356 0.57164 0.52563-0.52565 0.72604-1.6064 0.52563-0.70959 0.93298 0.13799 1.659 2.592 0.20356 0.41721-0.40738 0.43365 0.0492 0.38436 0.35806 0.6636-0.52562 0.7096-0.0492 0.70959-0.25298-0.0493-1.0841 0.43365-0.0492 1.2812-0.52565 0.93955-0.10191 3.1177 0.25298 2.224 0.0528h2.3128l0.22996 0.47306-0.0459 0.72604-0.092 1.0841 0.23323 1.8134-0.23323 0.9823-0.93955 1.5572 0.13799 1.0841 2.6839 4.1985 1.2188 0.1019 0.98884-0.30552 0.70958-0.1019 2.408 0.57489-0.37122 5.1315 0.27925 1.8627 0.22993 1.7576-0.52562 2.1682 0.0919 0.92965 1.3272 1.8627 0.43366 1.9646-0.61763 1.659 0.0919 1.8627-1.3272 0.93299-1.1268 1.2352-2.0204 1.0348-1.5604 1.1334-1.5572 1.2352-0.66361 2.6381-0.27594 2.0171 0.13799 2.996-0.0459 1.8627 0.47636 1.0349 1.1268 1.1334 1.1728 0.7786 1.0808 0.52563 1.2812 0.67675 1.0348 0.57816 0.75559 0.88044 0.89358 1.2385 0.0458 0.88043 0.0458 1.0841-0.22993 1.0348-0.66362-0.5256-1.0808-0.30552-1.5572-0.25299-1.2812-0.0492-0.13799 0.40737 0.41721 1.1334 1.0348 0.72602 0.61761 0.47308 0.8016 1.406 0.38436 1.2353-0.0458 0.72929-1.2812 1.7608-2.5-0.40735-2.1748-0.52564-2.546-0.30552-1.8824-0.47636-3.0224-0.77855-1.8397-0.40738-1.6492-0.62419-1.5604-0.57822-1.3272-0.25297-3.6728-0.10194-0.84758 0.20383-1.6524 0.20382-2.7792-0.62746-1.8824-0.25299-2.7792 0.67676-1.3272 1.8627-1.2188 0.92967-1.2812 0.9823-0.32522 1.406 0.092 1.6098-0.18725 1.5046-0.52565 1.4586-0.27595 0.25297-0.70959-0.67347-0.94284-1.2352-1.5112-1.7642-1.9744-2.3324-2.1748-2.3883-1.4652-1.9645-1.0808-1.8134-2.2208-2.4869-1.0775-2.3883-1.5145-2.385-1.1728-0.93296-1.1268-0.10194h-1.5145l-1.2812 0.72926-0.52565-1.5572-0.61759-1.3371-0.47636-2.0664-0.57161-1.9645-0.61762-1.2353-0.47636 0.40409-0.57161 0.52237-0.70959 1.3404-1.0808 0.82784-1.1268 0.92971-0.84758 0.62747h-1.5112l-1.7904-0.83114-1.7411-1.659-1.8824-2.2865-0.57161-1.6097-0.66361-1.5046-0.89356-2.1682-0.32524-2.4869-0.04601-2.3883 0.37122-2.339 1.2812-2.5394 0.89357-1.2385 1.0348-0.67348 0.84758-0.57819 1.6984-0.92973 1.3732-0.5256 1.8824-0.72604 1.4652-0.52563 1.9744-0.35481 2.0204-0.78186 1.0348-0.57489 0.94284-0.77861 1.0348-1.2352 1.3732-0.62743 2.1748-0.52237 1.3732-0.20357 0.89357-0.62418 0.22996-1.1334-0.70959-0.72601-1.6064-1.2385-1.0808-1.4553 0.09199-1.0349 0.092-0.72604 1.1268-0.98224-0.13799-1.1827-0.89356-1.3403-0.98554-0.92973-1.5145-1.7641-0.61762-1.7576-0.52234-1.4553-0.70959-2.0664-0.13799-1.7641 0.47636-1.2352 1.1728-1.0348 1.0808-0.52235h1.2188l0.75558-0.92967 1.2812-0.30552 0.8016-0.72604 0.75558-1.1859-0.27594-1.7116-0.52562-1.406-0.04593-2.1649 1.7904 0.77856 0.89357-0.04917 1.1728-0.77856 0.52562-0.20356 0.75558 0.52563 0.32523 1.0808 0.57161 0.35806h0.84758l0.93956-1.0316 0.5716-1.0348 1.0348-0.30552 0.37122 0.15107 0.38767 0.15107 1.0775 0.72932 2.408 3.2162z" fill="#abacda"/>
  <path id="Gopalganj" d="m62.023 129.66 1.3239 0.30553 1.0316 0.0492 1.1695 0.1019 1.5966 0.67675 1.5999 0.77859 1.3666 0.47308 0.8016 0.20382 1.0775 0.20356 0.93628 0.35479 0.41721 0.15107-0.89029 1.2352-1.2746 2.5394-0.36794 2.3357 0.04598 2.385 0.32196 2.4869 0.89029 2.1682 0.66033 1.5046 0.56833 1.6065 1.8758 2.2865 1.7346 1.659 1.7838 0.83116h1.5079l0.8443-0.62749 1.1203-0.92968 1.0775-0.82787 0.70632-1.3371 0.5716-0.52563 0.47636-0.40408 0.61432 1.2352 0.57161 1.9645 0.47635 2.0664 0.61432 1.337 0.52234 1.5572-0.61431 0.4041-0.36794 0.92969-0.22996 1.3371-0.61434 1.5572-0.61432 1.6064-1.8758 2.0138-1.3239 1.0809-0.66033 0.67673-0.47636 1.1334-1.7346 1.0316-0.75561-0.57488-1.7839-0.47309-1.2155-0.40732-1.5539 0.10193-1.5046-0.0527-1.8331-0.8804-1.8298-1.3371-1.7379-1.1333-2.5823-0.72604-1.8726-0.20382-3.4298-0.62749-1.5539 1.2352-1.1695 0.92971-1.9218 1.5572-2.3982 1.659-1.8298 0.5256-2.0762-0.20355-2.8153-0.4238-1.5539-0.62746-3.9061-2.0138 0.38436-0.45666-0.04601-0.72599-0.13799-0.72934-0.47636-0.92973-0.84758-0.5256-0.93628-0.42379-1.8758-0.45662-1.4126-0.25299-1.8758-0.62746-1.6919-0.47308-1.4586-0.25297-1.9218-0.47307-1.2155-0.88043-0.66361-1.6065-1.3206-2.0664-1.0775-0.98226-1.3666-0.82787-2.72-0.62416-2.0762-0.40736h-1.4652l-1.3206-0.25298-1.5999-1.1334-1.4126-1.2845 0.32523-1.912 0.47636-1.5046 0.18397-1.1827-0.52234-1.0841 0.13799-1.2353 0.79829-0.52565h1.0316l0.7523 0.30553 0.66033 0.52237 1.5079 0.62748 0.56833 0.62747 0.66033 0.20357-0.04601-1.8101 0.04601-0.98228 0.93956-0.1019 0.7523 0.92973 0.98226 0.82787 0.56833 0.57489 0.89029 0.52562 1.7379-1.1826 1.3239-1.1334 0.98226-0.62746 0.8443-1.7609 0.47636-0.9297 0.66033-1.0316 1.1235-0.72929 0.61432-0.92973 0.32196-1.8594 0.56833-1.4554 0.36794-0.5749 1.1235-0.35481 2.4902 0.52563 1.5046 0.40408 2.2602 0.62748 2.0138 0.15107 1.6426 0.35481 1.4126 0.3055 1.1235 0.77861 1.5999 1.186 1.5539 0.67675 0.98226 0.0528 1.1202-0.1019 1.0316-0.98227 1.0316-0.5256 0.8443-0.57492 1.0316-0.52563h1.1235l1.1695 0.20357 1.5999 0.1019 1.6426-0.1019 1.7379-0.20357 0.79829-1.1334-0.27595-1.7083z" fill="#cc9"/>
  <path id="Siwan" d="m39.931 165.64 3.9027 2.0138 1.5539 0.6275 2.8153 0.4238 2.0762 0.20383 1.8298-0.52566 2.3982-1.659 1.9218-1.5572 1.1695-0.9297 1.5539-1.2352 3.4265 0.62747 1.8758 0.20383 2.5823 0.72598 1.7379 1.1334 1.8298 1.337 1.8298 0.88045 1.5046 0.0492 1.5539-0.10194 1.2155 0.40739 1.7839 0.47305 0.7523 0.57492 1.4619 1.1334 0.27595 2.2832-0.56834 1.6591-0.89356 1.8594-0.98557 1.337-0.70632 0.92973-0.04601 1.5572-0.04602 1.1334-0.09198 1.6064-0.22996 0.98228-0.61432 1.2352 0.13799 1.7576 0.36794 2.4869-0.32196 0.92971-1.4619 0.92969-1.4159 0.20357-1.5999-0.40735-1.5079-0.30554-0.98554 0.0527-0.27595 0.98228-0.8443 1.7609-1.5079 1.0808-2.2142 0.40739-2.4442-1.0841-2.5362 0.47309-1.0775 0.45664-3.5217-0.10194-1.3699-0.25299-1.5539-1.2845-1.1235-1.7608-0.93956-1.8101-0.61432-0.98228-2.5823-1.2878-1.5999-1.1827-1.6459-1.3371-1.2155-1.1334-2.1682-1.1334-2.3522-0.92968-2.3982-1.3371-3.2885-1.7083-2.0138-1.7083 0.18397 1.9645-2.1682-0.20357-1.2779-0.62749-1.2779-0.62747-0.32196-1.1333 1.3239 0.20355 1.5046-0.15114 0.89029-0.25297 1.0775-0.52233 1.3239-0.77861 0.70632-1.1859 0.66033-1.2353 0.66361-0.82784 0.43037 0.10194 0.98554 0.52564 0.98226 0.98226 0.47636 0.47307 1.0282 0.20382h0.7096l0.27595-0.30552 0.09198-1.6098-0.38436-2.1649-0.32196-1.6065v-0.72929l0.8443-1.0841z" fill="#9c9000"/>
  <path id="Sitamarhi" d="m207.94 139.11-0.18384-0.45665-0.71287-0.77858-0.80159-0.52565h-0.52563l-0.66362 0.72604-0.71288-0.0492-1.2188-0.77858-1.7444-1.659-1.7412-0.62749-0.32524-0.0986-2.592-1.0841-0.66358-0.47303-0.85088-0.92971v-1.0316l-0.43034-0.52563-0.27595-0.83114-0.27597-1.4061 0.27597-3.8766 0.27595-0.93298 0.27594-0.77861-0.32193-1.659 0.32193-2.4376-0.092-1.9645-0.22994-1.1334-0.6669-1.4553-0.43034-0.62418-1.6952-1.2352-0.21688-0.0689-1.1268-0.57489-1.4652-0.72929-2.592-0.52565-0.57165-0.40408-0.84756-1.7641-0.75559-0.67675-0.80161-0.15107-0.80484 0.62752-0.84759 1.659-0.71291 0.72932-0.7096 0.0492-0.41721-0.67675-0.0952-0.15106-0.52563-0.45668-0.66358 0.15107-0.98885 1.8627-0.7556-0.15107-0.56831 0.67672-0.80158 0.15107-2.0696 2.3358-0.66361 0.15441-1.0776-0.10191-0.71285 0.83113-1.1268 0.40738h-0.61764l-0.0918 0.20049-0.57162 1.0841-1.1268 0.77858h-0.98895l-1.6524-0.52232-2.9302 0.0986-1.3272 1.3403-1.0776 0.52237-1.2812 1.2352h-1.0808l-2.6381 2.1682-0.13801-0.0527-0.52562-0.15107-0.94282-0.62418-2.1288-0.67675-2.8844-0.35481-0.66361-0.15441-0.37123 5.1315 0.27923 1.8627 0.22994 1.7608-0.52563 2.1682 0.0919 0.92973 1.3272 1.866 0.26281 1.1827c0.52235 0.27267 1.0381 0.56175 1.5605 0.88369 1.659 1.0217 3.2785 2.4442 5.0888 3.1471-0.22328 1.7115 0.6603 3.6761 0.86402 5.3812 0.22994 1.9547 1.5112 3.8633 2.73 5.5553 0.75228 1.0447 1.0972 2.2864 0.94939 3.5512-0.16412 1.4159 0.033 2.7464 0.0458 4.1754 3e-3 0.43037 0.15107 1.0283 0.0691 1.4488-0.23326 1.1925-1.6524 0.82783-2.6512 0.82456-2.3785-8e-3 -4.7602-0.41391-6.8593 0.818-0.81143 0.47637-1.751 1.3535-2.6545 1.5605-0.0153 5e-3 -0.0361 8e-3 -0.0525 0.0101l0.0361 0.83773-0.22994 1.0315 1.5572 0.25622 1.4192 1.0841 1.6984 0.88043 1.3732 0.5749 1.3732 1.4553 1.8364 1.4553 1.1268 0.72932 1.3272 1.406 0.75556 1.0808 0.93956 1.1334 0.61763 0.40735 0.66359-0.20048 0.89685-1.2878 0.93956-0.88044 2.1321-2.1682 1.0776-1.4553 0.41721-0.62749 0.61758-1.1334 0.61762-0.52564 0.70961-0.52562 1.0808-0.57492 0.61764-0.47304 0.84759-0.3548 0.57163-0.30553 1.2812 0.15114h0.56834l1.2221 0.20382 1.4192 0.52562 1.4192 0.62749 1.4192 0.92968 1.5112 1.0316 1.5605 0.98228 1.8364 0.67674 1.5145 0.40735 1.3272 0.52563 0.52562 0.2005 0.98885 0.52564 0.6176 0.30554 0.75233 0.47305-0.0458-1.8102 0.0458-1.9645-0.93957-1.2352-0.66362-0.8804 0.092-1.0841 0.27594-1.8101 0.27595-2.0138 0.43036-1.659 0.94285-0.83118 1.2188 0.40738 1.3272 0.72604 2.6839 0.40734 0.32524-1.5572-0.80157-1.4553-0.23328-0.62748-0.092-1.1334 1.5572 0.40737 0.9888 0.40733 1.1268-0.10194 0.75556 0.15113 0.32197 0.10194 0.27597-0.77859-0.75565-1.1334-0.98551-1.2352-0.6176-0.93301-0.52565-1.4553 0.13799-0.726 0.80161-1.186 0.80157-1.4553 0.89355-0.67676 0.89357-0.6242 0.52565-0.30552 1.1728-0.20355 4.1524-3.8272-0.27597-0.40738 0.93958-1.7576z" fill="#f2c0f2"/>
  <path id="Sheohar" d="m150.44 161.26c2.0992-1.232 4.4809-0.82461 6.8593-0.81803 0.99871 5e-3 2.4179 0.36796 2.6512-0.82458 0.0822-0.42051-0.0655-1.0151-0.0691-1.4488-0.0128-1.429-0.21022-2.7595-0.0458-4.1754 0.14775-1.2648-0.19716-2.5066-0.9494-3.5512-1.2188-1.6919-2.5-3.6006-2.73-5.5553-0.20049-1.705-1.0874-3.6694-0.864-5.3812-1.8101-0.70299-3.4298-2.1255-5.0888-3.1471-0.51907-0.32194-1.0348-0.61105-1.5604-0.88369l0.17079 0.77858-0.61763 1.659 0.0919 1.8627-1.3272 0.92968-1.1268 1.2352-2.0204 1.0315-1.5572 1.1334-1.5604 1.2385-0.66361 2.6412-0.27594 2.0138 0.13799 2.996-0.0459 1.8627 0.47964 1.0348 1.1268 1.1334 1.1728 0.77531 1.0808 0.52559 1.2812 0.67675 1.0348 0.57492 0.75561 0.88045 0.89355 1.2385 0.0458 0.88048 0.0103 0.24965c0.0153-5e-3 0.0361-8e-3 0.0525-0.0101 0.90671-0.20382 1.8463-1.0808 2.6578-1.5572z" fill="#cd2f3f"/>
 </g>
 <g fill="none" stroke="#345">
  <g stroke-width=".5px">
   <path d="m138.77 221.06 2.4289 1.2144 3.1576-0.24288 5.5864-11.173-2.4289-2.9147 3.8862-5.1007 2.4289-5.5864 2.186-5.1006-0.97156-6.558 0.48579-6.3151 1.9431-2.6718 1.2145-3.8862 2.4288-4.1291 1.9431-4.372-0.48578-4.1291 0.2429-3.6433-1.9431-2.186v-1.7002l-2.186-2.186-0.7287-1.2144h-1.9431l-0.24291-2.186-2.6718-2.186-6.8009-2.186-3.8862-1.2144-2.6718-2.4289-1.7002-3.6433-2.4289-3.1575-0.48577-2.6718-3.1576-3.4004-1.4573-3.1575-1.7002-1.7002-2.186-2.4289-0.97155-2.4289-2.4289-1.9431-3.6433-4.6149-1.9431-2.4289-2.9146-1.4573-0.2429-1.7002v-3.6433l1.2144-2.9147-1.9431-0.97155v-4.372l-7.5296-3.4004-1.9431-1.4573-2.6718-1.2144-3.8862-1.2144-3.4004-1.7002-1.7002-0.24289-6.8009-1.4573-2.9147-0.72866-2.9147 0.48578-4.372-4.372-3.1575-0.24289"/>
   <path d="m177.9 102.79-0.33073 1.3229-0.4961 1.6537-0.66147 0.82683-0.16537 1.819-0.66147 4.2996-0.9922 1.9844-0.16537 5.1264-0.33074 3.142 0.66147 1.4883-0.16536 1.4883-1.819 2.3151-0.33074 4.4649-2.1498 1.6537-2.6459 2.4805-0.66147 3.8034-1.4883 2.8112-0.4961 1.6537-0.4961 1.6537-0.66147 2.3152v2.3151l-2.4805 0.16537-0.4961 0.9922"/>
   <path d="m130.51 122.93 1.065-0.37302 0.71002-0.55954 0.71001-1.4921 1.2425-1.1191 1.2425 0.55953 1.9526 0.55953 1.2425-1.6786 1.065-1.1191 1.2425-0.37303h1.9526l1.2425-0.74605 1.5975-1.4921 0.53252-0.55953h1.2425l1.9526-1.3056h3.0176l1.2425-1.6786 2.8401-0.1865 3.1951 0.55953h2.8401l3.1951-0.37303 1.5975-1.4921 1.2425-1.4921 0.71002-2.9842 0.88753-1.4921 2.6626-1.1191 2.6626-0.18651h2.3076"/>
   <path d="m72.458 76.783 2.5725 2.5725v4.0425l4.0425 6.615v4.2262l0.735 1.6538-0.18375 2.5725 1.1025 3.3075 1.8375 3.1238v1.2862l5.6963 0.735-2.0213 4.0425v1.47l1.1025 1.1025 0.55125 1.6538 2.7563 0.3675 2.0212 1.1025 1.8375 1.8375 1.2863 2.94 1.2862 2.205 2.5725 2.3888 3.4912 1.8375 1.8375 1.6538 5.145 0.55125-2.3888 3.3075 3.1237 0.91875 1.47 0.18375 0.18376 1.2862 1.6538 0.735 2.5725 0.3675 0.3675 4.41 3.4912 3.4912 1.2862 1.1025 1.47 2.3888 1.2862 1.6538v2.7562l2.3888 1.2862 0.91875 1.8375 1.8375 0.18375 0.735 1.6538v2.5725l1.2862 1.2862 1.8375 1.2862 2.3888 0.55126 1.2862 2.205 0.55125 2.205 0.18375 1.8375-0.55125 2.205 0.73501 4.7775 1.2862 2.3888 1.2862 6.0638 0.735 1.8375 2.0213 0.91876-0.55125 2.94 0.735 4.41 0.73499 3.675 0.735 2.7562 0.735 2.205v3.675l1.6538 0.18375"/>
   <path d="m99.413 125.58-4.4342 4.2973-3.3257-0.56052v2.6158l1.8476 3.1763 4.619 5.0447 2.2171 5.0447 2.2171 1.6816 1.4781 3.1763 1.1086 2.9894 3.6952 3.55 1.1086 3.7368 1.4781 4.4842 2.5866 3.1763v3.7368l1.8476 2.9894 5.358 5.9789 4.2494 3.55 1.6628 1.8684 0.73904 2.6158-0.55429 4.4842 0.55429 3.7368h1.6628l4.0647 3.3631 2.0323 0.93421 1.4781 1.8684 0.18476 0.56052-0.36951 2.2421 1.1086 1.6816-2.0324 3.7368-2.4019 2.8026 1.4781 0.93421 1.8476 1.8684 1.8476 0.56053v3.55"/>
  </g>
  <path d="m70.677 117.9-0.77118 1.221-1.8508 0.76311-0.46271 0.61048-1.2339 0.61048-0.46271 0.91572-0.92542 1.5262-1.2339 1.9841-2.7763 1.9841 1.3881 3.9681 0.46271 8.5467 0.30847 1.8314 1.3881 0.61048 2.622 2.8998 4.0102 8.2415 3.5474 5.9522 1.6966 4.8838 3.0847 2.5945 9.4084 12.057 4.0102 4.426 2.0051 1.221 2.0051 0.91573h2.0051l2.4678 0.30523 1.8508 0.61049 2.622 3.5103 2.622 0.61048 2.1593-0.45786 1.0796-0.91573 2.9305-0.30524h2.4678l4.0102 0.45786 1.0796-1.3736 1.6966-0.91572 0.15422-0.61048 0.92543-0.15263 2.1593-0.30523" stroke-width=".49px"/>
  <path d="m75.031 83.398-0.90554 3.317-1.2936 3.4828 0.38809 1.8244-0.25872 2.156-0.25872 1.6585-0.25873 4.478 0.64681 1.8244-0.12936 3.4828-0.38809 1.8244-1.5524 0.66339-1.9404 0.33171-0.38809 2.156 0.90554 0.49755v1.4926l0.12936 2.4878 0.51745 2.8194 0.12936 1.161" stroke-width=".5px"/>
  <path d="m88.261 106.92 0.18742-2.1776 0.56225-1.1726 1.6867-1.0051 2.0616-0.67005 3.5609-0.50253 2.0616-0.16751h2.8112l1.8742-0.33502 1.3119-1.1726 1.8742 0.67004 1.6867-0.1675 2.0616-0.83756 1.3119-1.1726 2.4364-1.5076" stroke-width=".49px"/>
  <path d="m113.75 97.05 1.8377-0.71138 1.5036-0.17785 1.1695 0.17785h1.8377l1.1695-0.88923 1.0024 0.71138 1.5036-1.0671 0.16707-1.2449 1.5036-1.0671 1.5036-0.71138 2.0048 0.35569 2.1719 0.53354 1.3365 0.35569 2.1719 0.35569h1.6707l1.5036 0.88923 1.0024 0.71138 0.5012 0.71138 1.6707 1.2449 1.1695 0.71138h1.8377l0.83534 0.88923 1.3365 1.4228 1.1695 2.1342 1.8377 0.17785 0.33414 1.6006v1.4228l0.66826 1.0671 1.5036 0.88923-0.83534 1.4228-0.16706 1.4228-0.50121 1.6006-0.66826 1.2449" stroke-width=".5px"/>
  <path d="m114.01 168-1.819 1.3229-0.9922 1.4883-2.1498 1.819-1.819 1.9844-1.819 2.6459-3.9688 1.1576-1.9844 1.1576-1.6537 0.4961-1.9844 1.819-2.9766 1.4883" stroke-width=".49px"/>
  <g stroke-width=".5px">
   <path d="m114.01 168 2.3592-0.97381 3.2665-1.5148s0.72589-0.7574 1.4518-1.623c0.7259-0.8656 0.7259-0.8656 0.7259-0.8656h1.2703l2.5406-1.1902 2.5406-1.623h2.3592"/>
   <path d="m130.52 160.21 4.2018 0.13646 3.0346-2.1833 2.1009-0.40936 2.8012-1.0916 3.0346-2.0468 2.8012-1.0916h2.5678l3.0346-0.40936 3.2681 0.40936 3.5015-0.95517"/>
   <path d="m63.12 141.86 2.5662-2.1677 1.4257-1.8968 1.2831-1.4903 3.7068-3.5226 1.8534-1.6258s0.85541-0.67742 2.2811-1.3548l1.4257-0.67742 2.5662-0.67742 2.1385-1.3548 2.4237-1.8968 3.2791 0.27096 1.7108 0.40645 1.7108 1.8968 0.28514 2.0322"/>
   <path d="m149.94 210.86-3.3261-0.39836-2.4864-0.88802-0.71042-1.5984 2.5416-0.54323"/>
  </g>
 </g>
 <g fill-rule="evenodd" stroke-width=".21159">
  <ellipse cx="143.77" cy="208.68" rx="2.9199" ry="3.0172"/>
  <ellipse cx="177.69" cy="102.83" rx="2.9199" ry="3.0172"/>
  <ellipse cx="72.731" cy="77.257" rx="2.9199" ry="3.0172"/>
  <ellipse cx="70.066" cy="118.82" rx="2.9199" ry="3.0172"/>
  <ellipse cx="114.11" cy="96.971" rx="2.9199" ry="3.0172"/>
  <ellipse cx="63.495" cy="141.73" rx="2.9199" ry="3.0172"/>
  <ellipse cx="160.64" cy="152.56" rx="2.9199" ry="3.0172"/>
  <ellipse cx="139.15" cy="220.94" rx="2.9199" ry="3.0172"/>
  <ellipse cx="92.977" cy="183.46" rx="2.9199" ry="3.0172"/>
 </g>
 <g font-family="sans-serif" font-size="3.5278px" letter-spacing="0px" stroke-width=".26459" word-spacing="0px">
  <text x="59.000889" y="70.486938" style="line-height:1.25" xml:space="preserve"><tspan x="59.000889" y="70.486938" font-size="6.3501px" stroke-width=".26459">Bettiah</tspan></text>
  <text x="113.3722" y="89.095299" style="line-height:1.25" xml:space="preserve"><tspan x="113.3722" y="89.095299" font-size="6.3501px" stroke-width=".26459">Motihari</tspan></text>
  <text x="154.65952" y="97.527214" style="line-height:1.25" xml:space="preserve"><tspan x="154.65952" y="97.527214" font-size="6.3501px" stroke-width=".26459">Sitamarhi</tspan></text>
  <text x="31.960604" y="116.13557" style="line-height:1.25" xml:space="preserve"><tspan x="31.960604" y="116.13557" font-size="6.3501px" stroke-width=".26459">Gopalganj</tspan></text>
  <text x="40.392521" y="143.75739" style="line-height:1.25" xml:space="preserve"><tspan x="40.392521" y="143.75739" font-size="6.3501px" stroke-width=".26459">Siwan</tspan></text>
  <text x="56.093327" y="184.75394" style="line-height:1.25" xml:space="preserve"><tspan x="56.093327" y="184.75394" font-size="6.3501px" stroke-width=".26459">Chhapra</tspan></text>
  <text x="164.54521" y="154.22459" style="line-height:1.25" xml:space="preserve"><tspan x="164.54521" y="154.22459" font-size="6.3501px" stroke-width=".26459">Muzaffarpur</tspan></text>
  <text x="153.49649" y="208.88666" style="line-height:1.25" xml:space="preserve"><tspan x="153.49649" y="208.88666" font-size="6.3501px" stroke-width=".26459">Hajipur</tspan></text>
  <text x="114.53522" y="219.93539" style="line-height:1.25" xml:space="preserve"><tspan x="114.53522" y="219.93539" font-size="6.3501px" stroke-width=".26459">Patna</tspan></text>
 </g>
 <ellipse cx="148.98" cy="113.35" rx="2.9199" ry="3.0172"/>
 <text x="141.11293" y="122.88679" fill="#000000" font-family="sans-serif" font-size="3.5279px" letter-spacing="0px" stroke-width=".26459" word-spacing="0px" style="line-height:1.25" xml:space="preserve"><tspan x="141.11293" y="122.88679" font-size="6.3501px" stroke-width=".26459">Sheohar</tspan></text>
</svg>
