<svg width="251.11mm" height="183.04mm" version="1.1" viewBox="0 0 251.11444 183.04413" xmlns="http://www.w3.org/2000/svg" xmlns:cc="http://creativecommons.org/ns#" xmlns:dc="http://purl.org/dc/elements/1.1/" xmlns:rdf="http://www.w3.org/1999/02/22-rdf-syntax-ns#">
 <metadata>
  <rdf:RDF>
   <cc:Work rdf:about="">
    <dc:format>image/svg+xml</dc:format>
    <dc:type rdf:resource="http://purl.org/dc/dcmitype/StillImage"/>
    <dc:title/>
   </cc:Work>
  </rdf:RDF>
 </metadata>
 <g transform="translate(44.097 -59.934)" stroke="#fff" stroke-width=".5">
  <path d="m154.07 200.29 0.95337-2.5163 0.56649-2.6373 0.62907-2.1528 1.0081-0.86744 1.2854-0.23844 1.2816-0.2421 1.2308-1.348 0.84394-1.2269 0.84396-1.473 0.51183-1.9731-0.51183-1.9145-0.45717-2.3952 0.62518-2.3365 0.62514-2.8405 0.27743-3.3249 0.38681-3.0788-0.51572-2.0942-1.0628-0.92603-1.3401-1.0471-1.9067-0.4259-2.4068 0.92603-1.7426 0.11728-1.8012 0.36335-2.8054-0.18362-2.02 0.30477-1.852-0.30477-1.2815-0.42197-0.49624-1.4691-0.57045-2.5748-0.0548-1.9145-1.3402-1.6722-1.5784-1.5902-2.1294-0.56265-1.6332 0.0624-1.012-0.12124-1.7426-0.92208-0.67595-1.852v-1.6722l-0.10932-1.2308-0.22261-1.7308 0.51573-1.2269 1.9653-0.98464 2.1255-1.473 1.176-0.36337 1.4496 0.0585 2.5318-0.92599 1.176-1.4691 0.51186-2.4576 0.44151-0.86346 1.0628-3.9461-0.32822-1.348-0.21866-0.74628 2.2935-1.1057 1.2308 0.68371 1.008 0.6838 1.012 0.8674 1.852 0.36336 2.0708 0.48449 2.4615 0.24241 2.6412 0.6251 2.5319-0.98847h3.5986l2.1294 0.24211 2.3482 0.86348 3.5399 1.7895 4.0399 1.4105 2.0708 0.98846 3.4345 0.74238 3.1921 0.8674 1.0081-0.12124 1.1175 1.348 0.84395 2.0317-1.3402 1.5316-1.3402 0.80484-2.0161 1.1057-1.0081 0.80488-0.62518 2.4576-0.0585 0.23845-0.51185 1.9145-0.57045 1.0471-1.5785 1.5902h-1.2308l-1.4534 0.18362-1.0667 0.17967-1.852 1.1057-0.89861 1.852 1.176 1.9732 1.0666 2.3951 1.5238 2.8405 1.4495 2.4576 0.45714 2.5749 0.16779 4.5518-0.57045 3.7469-0.22291 2.3326-0.10936 3.6257-0.0585 3.3249 0.0585 2.778v3.9461l0.67597 4.1885 0.16414 0.86348 0.10936 2.9616 0.57046 1.9106 1.6293 1.7934 1.1213 2.2154 1.1722 0.80485 1.4534 1.0471 1.1721 1.2269 0.51576 1.4691-1.3402 2.5787-1.4496 1.852-1.3401 1.5902 1.5785 0.12124 2.4771 0.12125h3.1415l2.2349 0.12124 2.02 0.48444 1.688 0.48452 1.3948 0.4845 1.6332 0.54309 4.1495 0.42591 0.10571 1.8519-0.38287 2.3326 0.45714 1.3519 0.57042 2.3326 0.51185 1.9145 0.62515 1.7934-0.73456 1.852-1.3402 2.7194-1.5785 1.7309-2.5866 1.1096-2.0708-1.4105-1.7465-1.7895-1.0081-2.7819-1.6879-1.5316-1.8012-0.30089-1.5238 0.56655h-2.4576l-2.1841 1.852-1.9106 2.274-0.57045 1.1682-1.5784 0.74625-1.9067 0.3634-1.9653-0.74628-2.481-1.4691-1.6293-0.98456-2.9187-1.4731-1.852-1.2307-1.6879-0.86348-3.2508-1.4691-2.6959-0.42585-4.2588 1.5316-0.95332 1.1096 0.56649-1.5941 0.95728-1.7894-0.0585-1.7934 0.44151-1.4066-0.10936-2.5162 0.22293-1.5316 0.16415-1.9145 0.32818-2.2154 0.16414-2.0942 0.44151-1.7309 0.16414-1.1057-0.38291-1.4105-1.9653-2.6374-0.6251-0.9846-0.44153-2.0942 0.27743-2.2154 0.0548-2.7155-0.78929-2.2779z" fill="#cc2" id="Madhepura" />
  <path d="m94.652 192.83-1.5238 1.348-0.73456 0.62121-2.9186 1.348-1.7973 0.74629-1.7426 0.80486-2.1294 0.80487-2.4029-0.62515-1.4495-1.9731-1.1761-2.3365 0.22292-1.5902 0.21865-0.68375 0.27743-2.0357-0.44154-1.5902-0.84394-0.86351-1.3401 0.36338h-1.3402l-1.2308 0.74237-0.84787 0.24606-1.9614-0.8635-2.02-1.6722-2.0708-1.1096-2.5358-0.30087h-1.3948l-0.73456 0.62512-0.16414 1.5902 0.05846 1.4691-0.44151 2.2778 0.32819 1.7895-0.38678 2.7194-0.43764 1.7309-0.67983 2.4576-0.51182 2.4537-0.78925 0.92991-1.1214 0.68377-2.0708 0.4845-1.7973-0.98853-2.864-0.74629-2.4576-1.348-1.6332-0.0588-0.56652 1.2894-0.51575 1.9105-0.21865 1.7934 0.44151 1.2268 0.57044 1.473-1.012 0.48448-1.6879 0.422-1.9106 0.54303-2.7545-0.12124-2.1841 0.23844-2.7545 0.48449-0.73456 0.48447-2.4029 0.12124-4.0947 0.36337-1.1761 0.12124-3.0828-0.48058-1.1174 0.62122-5.892 1.2308-4.4425 0.2421-3.3014-0.74232-2.5319-0.80881-2.9734-1.4105-1.5238-0.74626 0.45713-1.348 0.33209-1.9731-0.62514-2.1529-0.16801-1.6723 0.21881-1.348 0.32819-1.3519 1.2308-2.2154 1.7465-3.0788-0.058622-2.5162 1.0667-2.0317 1.7973-1.9731 1.2308-2.3951 0.57044-1.1682 0.67593-2.6373 0.95333-1.6723 0.2735-1.348-0.32819-2.0942-0.4415-2.7194-0.32819-1.9731 0.27743-0.98463 0.56652-1.9731 0.62514-3.0828 0.62517-1.7348 0.73453-1.2855 0.38681-2.399 0.32819-1.9106 0.2227-0.68377 0.21881-1.852 0.38681-3.0828 0.51185-2.7194 1.2816-3.3248 1.012-1.4652 2.1841-1.4105 2.2935-1.7895 1.2854 2.0942-0.10942 1.9732-0.05463 0.98847 0.89474 0.62128 1.9106 0.48445h2.5905l1.6332 0.0624 1.4496 0.54313 1.9653 0.74233 1.3401 1.1096 0.73066 1.2894 1.8559 1.1682 1.5785 0.9846 0.73453 1.1097 1.2816 2.5748 0.73452 1.4691 1.0081 1.9145 2.2388 0.54315 1.852 0.86344 1.012 0.74235 1.9067 1.8521 2.3521 3.204 1.1174 0.62511 2.3482 1.2894 2.864 0.30475 2.2935 0.56266 2.0747 0.17967h1.4496l2.5358-0.30088 3.0241 0.5431 2.0747 0.12125 2.0747 0.48453 2.0708 0.48447 1.852 1.2894 2.4576 1.7309 1.2854 1.9106 1.9067 2.0981 1.6879 1.4691 1.9653 1.2854 2.2388 1.2893 2.8054 0.62515 1.5238 0.62518 2.2388 0.86735 1.9067 0.62125 2.2935 0.92993h1.5785l2.188 0.17967 2.02-0.8674-2.1294 1.4691-1.0119 0.62515-1.2308 0.62514-1.9614 1.1057-1.8559 0.9885-1.7426 1.1057z" fill="#e2b584" id="Samastipur" />
  <path d="m44.892 73.397 0.16414 0.36337 1.1721-0.62514 0.73456 0.36337 1.1214-1.4691 0.78925-0.36337h1.0627l0.51185-1.348 0.38678-0.2421 0.67596-0.12121 0.95333-0.98462 1.012-0.74626 0.78925 0.12121 0.62517-0.74629 0.62514-0.11725 0.84787 0.29692 0.49617-0.05846 0.45716-1.4691-0.05846-0.68374 0.44151-1.2855 1.2308-1.852 0.95726-0.62514 2.5318 0.48448 2.5358-1.7348 1.9653-0.36334 3.4305 1.0471 0.95336 0.30475 0.84394 0.80488 4.9346 2.6413 2.1841 0.48058 0.62514 2.0356 0.84394 0.17968 2.7546-0.547h1.0628l2.1841 0.06273 0.46106 1.7309 2.2388 1.348h1.4496l0.78926-1.348 1.9653-1.9732 3.5399 0.12121 0.89867 0.12121h0.27743l1.8012-0.74626 4.0362 0.12121-0.0545 1.5941 2.5866 0.48058 3.192 0.98462 1.0081 1.5941 1.012 0.42199 1.5785 0.68767 1.6879 0.2421 2.6451 0.86344 5.3216 3.0828h0.10932l0.95337 0.24241 2.188 0.05846 1.1722 0.547 0.49621 0.17968 0.73063 0.86737 0.67985 1.6723 2.02 2.4537 0.89864 0.5431 4.6611 1.1682 1.012 0.48058 0.5118 1.348 1.5824 0.6876 2.6412 1.0472 2.5318 0.74233 0.89868 0.62517 1.012 1.348 1.7426-0.06273 0.67987 1.3519 0.51183 0.29692-5.0988 7.3924-1.3948 1.852-1.8559 1.5902-2.1841 1.5902-1.2816 1.7308-1.1213 0.62518-1.0628 0.62124-1.6332-0.12121-1.8012 1.1058-1.3948 1.1096-0.51183 1.852-1.5824 1.9731-1.3949 0.24241-1.5238 0.86347-1.2815 0.12121-1.5238 0.24241-1.9106 0.74622-1.0667 0.62125-1.008 1.6723-0.3282 1.5316 0.62514 0.86742 1.1175 0.54312 0.27742 1.2893-1.3948 0.48454-1.1761 0.12124-2.6412 0.56262-0.84788 0.17968-0.62515 0.54309-1.7973 0.4845-0.89475 0.80486-1.012 0.48059-1.4496 0.86737-0.38289 0.74628 1.1761 0.926 1.3948-0.0627 1.1722-0.74233 1.7465 0.48058 1.3948 0.12124 2.7546 0.56649 1.6879 0.30088 2.02 0.74628 1.2307 1.4691-0.38288 1.5902-2.8093 1.2308-2.0161 0.2421-1.4496 0.36336-2.4068 1.348-1.1174 1.1682-1.1214 1.7934-0.78926 1.2268-0.89862 0.98853-0.73066 1.1057-0.84395 0.30086-0.67595-0.17968-1.5238-1.4691-1.5238-1.9732-1.4534-1.4104h-0.57042l-0.89474-0.92602-1.9653-1.2308-0.84782-0.24241-2.2349-1.1096-1.0667-0.98461-0.73456-1.2308-0.78922-1.852-1.0119-2.3951-1.1175-1.5316-1.0666-1.2894-2.1841-1.9731-1.3401-1.2854-1.9106-1.051-1.5238-0.56265h-1.9653l-1.6879-1.5316-1.5238 0.0585-1.7426 0.48451-1.0119 0.62515-1.1175 0.504-1.5238-0.36338-1.6879-0.68376-1.6332 0.30088-0.56655 0.80488-0.27743 0.30087-0.73456 1.2269-1.0081 1.1096-1.1213 1.1057-2.1841 0.62121-1.9653 0.36339-0.95336-1.4691-0.05482-2.6998 0.16414-1.9145-0.27743-3.1415-0.67983-1.1057-2.1294-1.1096-2.1255-0.23845-2.5358-0.2421-2.2935-0.23845-1.0627 0.17967-1.2308-0.0585-1.9653 0.35946-1.6879-0.12121-1.9653-0.23845-0.05482-0.92985-0.95333-3.0202-1.9653-1.4731-1.0627-0.48058-0.89864-1.5902-0.16414-2.1568-0.05482-2.0317-1.012-1.9731-0.57044-1.7309-0.21866-2.0942v-2.3365l-1.5238-2.7194 0.89866 0.18363 0.38289 0.12121 0.32819-0.92599-0.89474-1.3518-1.176-1.4691-0.73456-1.1096-0.62514-1.7309 0.16414-0.86347 0.95336-1.4105 0.95723-1.7309 1.0628-0.80485 1.0666-0.74239 0.62517-0.36337 1.3988-0.24241z" fill="#f9d3c6" id="Madhubani" />
  <path d="m35.543 90.42 1.5238 2.7194v2.3365l0.22292 2.0942 0.57044 1.7309 1.0081 1.9731 0.05846 2.0317 0.16414 2.1567 0.89474 1.5902 1.0666 0.48451 1.9653 1.4691 0.95333 3.0202 0.05846 0.92599 1.9653 0.24241 1.6879 0.12121 1.9653-0.36338 1.2308 0.0627 1.0666-0.17967 2.2935 0.23844 2.5319 0.24241 2.1294 0.23845 2.1294 1.1096 0.67596 1.1057 0.27743 3.1412-0.16414 1.9106 0.05846 2.6998 0.95333 1.4691 1.9653-0.36336 2.1841-0.62518 1.1174-1.1057 1.012-1.1096 0.73456-1.2269 0.27347-0.30087 0.57044-0.80491 1.6332-0.30089 1.6879 0.68377 1.5238 0.36338 1.1174-0.50403 1.012-0.62515 1.7426-0.48451 1.5238-0.0585 1.6879 1.5316h1.9653l1.5238 0.56263 1.9067 1.0471 1.3402 1.2894 2.1841 1.9731 1.0667 1.2894 1.1213 1.5316 1.0081 2.3951 0.78925 1.852 0.73456 1.2269 1.0666 0.98458 2.2388 1.1096 0.84393 0.23843 1.9653 1.2308 0.89868 0.92595h0.57045l1.4495 1.4105 1.5238 1.9731 1.5238 1.4691-2.8639 2.0942-1.5785 1.4691-0.73457 1.7309-0.10537 1.1682 0.21866 1.1682 0.78929 1.7934 1.1213 2.1568 0.27347 1.4105-1.1721 2.5788-1.2308 1.7308-1.0667 0.68381-0.84395 0.98852-1.1761 1.7934-0.73064 2.0318 0.10932 3.2 0.51578 2.1568 0.95332 1.5277 1.2308 2.2154 2.02 1.1096 1.6332 0.0585 1.176 0.0627 1.1174 0.48054 1.1761 0.74629-0.33212 1.7895 0.22261 1.4105 0.27743 2.2153 0.67594 1.852 0.89868 0.86348 0.62511 0.9885-1.852-0.68373-0.67987-0.17968-1.5785 0.62514-0.73453 0.62122-2.02 0.86741-2.1841-0.17967h-1.5785l-2.2935-0.92603-1.9106-0.62518-2.2388-0.86344-1.5238-0.62513-2.8054-0.62125-2.2388-1.2894-1.9614-1.2894-1.6879-1.4691-1.9106-2.0942-1.2816-1.9106-2.4576-1.7348-1.852-1.2854-2.0747-0.48449-2.0748-0.48451-2.0708-0.12125-3.0281-0.54309-2.5357 0.30479h-1.4495l-2.0747-0.17968-2.2935-0.56655-2.8601-0.30089-2.3521-1.2894-1.1174-0.62515-2.3482-3.2-1.9106-1.852-1.008-0.74627-1.8559-0.8674-2.2388-0.5431-1.012-1.9106-0.73453-1.4691-1.2816-2.5748-0.73453-1.1096-1.5785-0.98852-1.852-1.1682-0.73455-1.2894-1.3402-1.1057-1.9653-0.7463-1.4496-0.54699-1.6332-0.0585h-2.5866l-1.9067-0.48445-0.89864-0.62518 0.05463-0.98849 0.10942-1.9692-1.2816-2.0942 4.0907-0.48448 0.16414-1.852 0.1681-1.1057 0.10536-1.3519 0.32819-1.4691 0.57044-0.86351 0.38681-1.473 0.32819-1.348 0.21865-1.2307-0.32819-2.274-0.27743-1.4105-0.62517-1.7895-1.008-1.5316-0.84395-1.852-1.2816-1.5316-0.62514-2.274 0.56654-1.852 0.22271-1.9731-0.33212-1.9731-0.44151-0.86741 1.4496-2.0318-0.05463-2.1528 0.05463-2.3365-1.1174-1.4652-0.78925-1.051 0.10942-1.2854 0.33212-2.1529 0.32819-2.399 0.51182-1.9731 1.1175-0.98851 1.4496 0.48451 1.5785 0.86347 3.1921 0.48448 0.38681-1.852-0.95726-1.7308-0.27347-0.74629-0.11329-1.348 1.852 0.48451 1.176 0.48448z" fill="#c2f0c2" id="Darbhanga" />
  <path d="m131.9 148.74c-0.96117-0.4181-1.8794-1.8168-2.7975-2.4381-1.094-0.74232-2.3248-0.55481-3.5788-0.55091-2.6256 9e-3 -5.2513-0.0245-7.873-0.0158-1.012 6e-3 -2.2974 0.21498-3.2743-0.0469-0.51966-0.14074-1.1292-0.379-1.2933-0.95338-0.22657-0.79316 0.56258-0.92987 0.90644-1.6019-0.70719-1.0002-2.7311-0.87522-4.1376-0.80486l-0.0585 0.0859-0.84396 0.30088-0.67983-0.17967-2.864 2.0903-1.5785 1.473-0.73456 1.7309-0.10932 1.1683 0.21865 1.1682 0.78923 1.7934 1.1174 2.1528 0.27743 1.4066-1.1722 2.5787-1.2307 1.7348-1.0628 0.68375-0.84782 0.9885-1.1761 1.7895-0.73062 2.0356 0.10932 3.2 0.51572 2.1528 0.95337 1.5316 1.2308 2.2154 2.02 1.1058 1.6332 0.0627 1.1722 0.0585 1.1213 0.48449 1.1722 0.74626-0.32822 1.7895 0.22292 1.4105 0.27743 2.2154 0.67593 1.852 0.89868 0.86347 0.62512 0.98848-1.852-0.68376 2.02 2.0356 1.3402 2.0903 1.7426 2.5787 1.3401 1.7309 1.7426 2.5787 1.3402 1.5902 1.3402 1.6723 1.3948 1.2893 2.4068 1.9732 2.86 0.0624 2.02 0.30088 2.3482 0.17967 2.8054-0.42197 2.0747-0.62513 2.5865-1.5902 2.8054-1.5942 1.5824-1.1057 1.9614-0.62511 1.7465-0.42196 2.2349 0.80488 1.6331 0.80488 2.02 1.0471 1.1213 0.56656 0.95338-2.5162 0.57042-2.6373 0.62518-2.1568 1.008-0.86345 1.2855-0.2421 1.2815-0.2424 1.2308-1.348 0.84785-1.2268 0.84399-1.4691 0.51574-1.9731-0.51574-1.9106-0.45714-2.3951 0.62511-2.3326 0.62514-2.8405 0.27743-3.3249 0.38679-3.0827-0.51573-2.0942-1.0627-0.926-1.3363-1.0471-1.9106-0.42199-2.4068 0.926-1.7427 0.12124-1.8012 0.36338-2.8054-0.17968-2.02 0.30088-1.8559-0.30088-1.2816-0.42199-0.49618-1.4691-0.57045-2.5787-0.0548-1.9146-1.3402-1.6722-1.5784-1.5902-2.1294-0.56652-1.6332 0.0624-1.012-0.12125-1.7426-0.9299-0.67594-1.852v-1.6722l-0.10932-1.2269-0.20313-1.5707c-0.71111 0.0466-1.4262 0.0898-2.0005-0.16018z" fill="#abacda" id="Saharsa" />
  <path d="m190.3 134.85 1.2816-2.0317 1.1174-1.1097-0.78922-1.9106-1.2308-1.4105-2.8053-1.2894-1.4535-0.62515-0.84398-1.348 0.27348-1.2268 0.38679-1.2269 0.89865-5.0558 0.32818-2.7155 0.10935-3.6845-0.38675-3.6845-0.21865-2.3365-0.27744-5.0518-0.16414-4.427-0.67984-3.446-0.67593-3.6845-0.57045-3.8252 0.89863-1.5902 1.0119-1.9731 1.3401-1.9731 4.2001-3.3212-0.51186-4.9346h-0.22293l-2.86 0.12121-0.3321 2.7194-0.84394 1.1097-0.38679 0.8635-0.56656 0.36334-1.9106 2.2154-1.852 0.74629-2.8639 0.48445h-0.45714l-1.1175-0.12121-1.176 0.12121-0.95336 0.48058-1.1917 0.60169-0.32815 2.9616h-3.489l-1.1175 3.5633-1.5785 0.8674-0.10935 0.12121-1.6332 0.23845-2.4771 1.7348-1.7974 0.11725-2.5865-0.56262-4.716-1.7934-0.89471 2.0942-0.1678 0.2421-1.0628 1.348-1.2347 0.74623h-1.2307l-0.27347-0.12121-5.1027 7.3885-1.3948 1.852-1.852 1.5902-2.1841 1.5902-1.2854 1.7308-1.1175 0.62518-1.0627 0.62514-1.6332-0.12121-1.7973 1.1096-1.3988 1.1057-0.51182 1.852-1.5785 1.9732-1.3948 0.24241-1.5238 0.86737-1.2855 0.11725-1.5238 0.24211-1.9066 0.74239-1.0667 0.62513-1.012 1.6723-0.32823 1.5316 0.62517 0.8635 1.1214 0.54311 0.27347 1.2893-1.3948 0.48452-1.1721 0.12124-2.6452 0.56263-0.84394 0.17967-0.62515 0.54307-1.8012 0.4845-0.89867 0.80488-1.012 0.48449-1.4496 0.86346-0.38682 0.74629 1.176 0.926 1.3948-0.0585 1.1761-0.74623 1.7426 0.48444 1.3949 0.12124 2.7545 0.56266 1.6918 0.30477 2.02 0.74625 1.2308 1.4691-0.38679 1.5941-2.8054 1.2268-2.02 0.2424-1.4496 0.36337-2.4068 1.348-1.1174 1.1682-1.1174 1.7895-0.78923 1.2307-0.89867 0.98461-0.67595 1.0198c1.4066-0.0703 3.4305-0.19916 4.1376 0.80488-0.34381 0.67199-1.1331 0.80875-0.90647 1.6019 0.16415 0.57438 0.77367 0.8127 1.2933 0.95333 0.97679 0.2619 2.2583 0.0509 3.2743 0.0472 2.6256-9e-3 5.2513 0.0183 7.873 0.0158 1.2542-6e-3 2.485-0.19124 3.5788 0.55094 0.91429 0.62124 1.8325 2.02 2.7976 2.4381 0.57429 0.25033 1.2893 0.20708 1.9926 0.15658l-0.0183-0.16018 0.51579-1.2268 1.9653-0.9846 2.1294-1.4691 1.1721-0.36338 1.4535 0.0585 2.5318-0.92597 1.1761-1.4691 0.57045-2.4771 0.44151-0.86348 1.0666-3.9501-0.33209-1.348-0.21866-0.74236 2.2935-1.1096 1.2308 0.68373 1.012 0.68767 1.008 0.86742 1.852 0.36334 2.0747 0.48445 2.4576 0.23845 2.6413 0.62515 2.5358-0.98849h3.5947l2.1294 0.23846 2.3521 0.86739 3.5399 1.7895 4.0362 1.4105 2.0747 0.98461 3.4305 0.74625 3.1921 0.8674 1.0119-0.12124 2.1294 1.051-0.22292-1.051-0.62514-0.74238-0.78919-1.852-0.89868-1.5316 0.57045-1.1682z" fill="#a3b0a3" id="Supaul" />
 </g>
 <g fill="none" stroke="#345">
  <path d="m2.8836 152.31 2.5317-1.0127 4.5571 0.50635 5.823-10.886-2.7849-2.7849 5.3166-6.8357 3.5444-8.6079 0.50635-2.2786-0.75952-6.8356 1.0127-8.861 2.0254-2.7849 1.0127-4.3039 3.0381-5.0635 0.25318-1.519v-5.0634l1.2659-3.0381v-2.0254l-2.5317-3.2912 1.7722-1.519 1.7722-1.0127h2.7849l3.5444 1.519 3.7976-1.2659 4.0508 0.75952 2.5317 4.0508 2.7849 2.0254 5.5698 1.7722 3.7976-3.0381h2.0254l1.519 0.50634 2.5317-0.50634 1.7722-2.0254h2.2786l3.0381-0.25318 3.0381-1.7722 2.5317 0.50635 1.519-1.7722 5.0635-0.50636 1.2659-1.0127 4.3039 0.75952 2.0254-1.2659h2.2786l-0.75952-7.0888 2.5317-1.0127 1.2659-3.7976 3.0381-3.2913 1.2659-2.5317 2.5317-1.2659 2.0254-3.2912 2.2786-4.3039 1.2659-2.7849 0.25315-2.7849 3.5444-5.0635 3.2912 1.7722 2.7849 1.2659 2.2785 0.25317 4.8103-3.5444" stroke-width=".5px"/>
  <path d="m95.292 73.578 3.4363 0.56636 2.9076-0.84953h3.7006l3.4363-1.4159 3.965-0.84955 1.586-1.4159 3.7006-0.84954 4.758 0.56637 2.1146-1.4159 2.379 1.1327 1.586-0.84954 3.172-0.56636 1.3217-0.56636 1.586-3.3982 2.9076-2.8318 2.9076 1.1327 3.7006-1.6991 3.4363-2.5486 1.0573-1.6991 2.1146-0.56638 2.6433-0.84952 6.0796-2.2654 8.4586-3.9645 2.379 1.9822 7.9299 2.2655 0.79301 4.2477 5.0223 4.8141 5.8153-0.84954 2.1147-3.115h1.3216l-2.9076 6.7963 0.2643 1.1327-5.2866 5.6636-2.6433 3.115-2.9076 4.5309-1.0573 2.2654" stroke-width=".5px"/>
  <path d="m179.08 81.224h1.7493l1.968 0.21866 2.4053 1.968 1.968 2.624 0.21868 1.5306 2.8426 0.87466 1.312 1.0933 1.7493 1.968 1.5306 1.312 1.7493 2.624 0.43733 1.968 0.21868 3.7173 0.4373 2.624" stroke-width=".5px"/>
  <path d="m118.04 68.769 0.88303 3.3114 1.5453 3.7529 0.44153 1.3245 0.22075 2.2076v2.4283l2.2076 2.8698 1.3245 1.7661 2.2076 1.5453 2.6491 1.5453 1.9868 2.4283-0.4415 0.66227 1.3245 3.0906v3.0906l2.8698 1.7661 2.2076 0.88302 1.766 0.88304 2.2076-0.66227 1.3245 0.66227 3.3114 0.88302 1.766 1.5453h1.5453l1.9868 0.88303 3.7529 1.766 2.8698 0.22076 3.0906 1.5453 3.3113 0.22076h1.3246" stroke-width=".5px"/>
  <path d="m165.73 109.39 4.2761-0.80598h2.0123l2.5154-0.26866 3.0184-2.1493 1.2577 0.26866 4.7792-1.8806 3.773-0.80598h2.7669l2.5153-0.80599 2.0123 0.26866 3.0184 0.53733" stroke-width=".36134px"/>
  <path d="m110.74 44.21 4.4469 2.8549 1.8528 0.71369 4.0763 0.35687 3.3352 1.0706 3.3352 2.498 6.2997 2.498 3.3352 1.0706 7.0409 4.996" stroke-width=".5px"/>
  <path d="m15.795 140.92 2.3662 0.23661 3.3126 0.23663 2.8394-0.23663 3.7859 0.47325 2.3662-0.94648 4.0225-0.94647 3.7859 0.70986 4.0225-2.3662 4.4957 0.47323 1.4197-0.47323h2.3662l2.1296-0.94647 5.2056-0.47323 3.3126 1.8929 2.6028-1.4197 0.94647-1.6563 0.47325-1.6563 4.2591-3.7859 0.47323-0.94646 2.3662-4.0225 0.70986-1.4197 1.8929-1.4197 1.8929-4.0225" stroke-width=".5px"/>
  <path d="m76.843 118.21 2.3406-3.433-4.6813-3.1689-1.0031-3.697 1.3375-1.5844 3.6781-1.5844 3.3438-10.035-0.66875-3.697 3.0094-2.3767 2.0063-2.6407 2.3406-2.1126 1.6719 0.52814 1.6719-1.3204h3.0094v-2.3767l0.33438-1.5844v-1.3204l0.66875-0.52815-1.0031-3.697" stroke-width=".5px"/>
  <path d="m13.011 138.14 7.898-3.755 1.7551-2.4139h2.0476l0.87755-1.6093h2.0476l6.1429-3.4868v-3.4868l-2.0476-3.755 0.29252-6.9735 7.6054-6.9735 0.87755-2.1457 0.87755-3.2186 1.7551-1.3411 2.9252-2.1457 1.4626-1.8775 0.87755-3.755 7.0204 3.755 0.58503-3.4868-0.58503-2.4139-0.58503-1.6093-0.29252-0.53642 1.7551-2.9504" stroke-width=".5px"/>
  <path d="m33.779 126.72 2.3792 0.32754 2.6171 1.6377 4.2826-2.6203 4.7584-1.9652 3.3309-0.9826h1.4275l1.9034-0.32754 1.6654-0.98259v-1.3102l3.5688 0.98261 4.9963-1.3101 3.3309-1.3101 3.093-0.65506h5.7101" stroke-width=".49px"/>
  <path d="m95.699 73.408 0.23771 1.7738v1.2901l1.1885 0.48378h2.6148l1.9016-0.48378 3.5656 0.64503 1.1885 0.64503 1.9016 0.32253 4.041 1.7738 3.3279 1.4513 5.4672 0.48378" stroke-width=".5px"/>
 </g>
 <g fill-rule="evenodd" stroke-width=".3301">
  <ellipse cx="3.0909" cy="153.17" rx="3.0909" ry="3.1332"/>
  <ellipse cx="76.822" cy="118.47" rx="3.0909" ry="3.1332"/>
  <ellipse cx="166.18" cy="109.42" rx="3.0909" ry="3.1332"/>
  <ellipse cx="197.51" cy="103.38" rx="3.0909" ry="3.1332"/>
  <ellipse cx="179.17" cy="80.869" rx="3.0909" ry="3.1332"/>
  <ellipse cx="95.389" cy="74.835" rx="3.0909" ry="3.1332"/>
  <ellipse cx="127.42" cy="36.308" rx="3.0909" ry="3.1332"/>
 </g>
 <g fill="#000000" font-family="sans-serif" font-size="3.5278px" letter-spacing="0px" stroke-width=".26458" word-spacing="0px">
  <text x="134.14839" y="37.700134" style="line-height:1.25" xml:space="preserve"><tspan x="134.14839" y="37.700134" font-size="6.35px" stroke-width=".26458">Madhubani</tspan></text>
  <text x="96.549706" y="86.207085" style="line-height:1.25" xml:space="preserve"><tspan x="96.549706" y="86.207085" font-size="6.35px" stroke-width=".26458">Darbhanga</tspan></text>
  <text x="83.552628" y="122.18113" style="line-height:1.25" xml:space="preserve"><tspan x="83.552628" y="122.18113" font-size="6.35px" stroke-width=".26458">Samastipur</tspan></text>
  <text x="164.78435" y="117.77142" style="line-height:1.25" xml:space="preserve"><tspan x="164.78435" y="117.77142" font-size="6.35px" stroke-width=".26458">Saharsa</tspan></text>
  <text x="193.3315" y="90.152626" style="line-height:1.25" xml:space="preserve"><tspan x="193.3315" y="90.152626" font-size="6.35px" stroke-width=".26458">Madhepura</tspan></text>
  <text x="169.42616" y="73.674187" style="line-height:1.25" xml:space="preserve"><tspan x="169.42616" y="73.674187" font-size="6.35px" stroke-width=".26458">Supaul</tspan></text>
 </g>
</svg>
