<svg width="292.47mm" height="247.26mm" version="1.1" viewBox="0 0 292.46765 247.25888" xmlns="http://www.w3.org/2000/svg" xmlns:cc="http://creativecommons.org/ns#" xmlns:dc="http://purl.org/dc/elements/1.1/" xmlns:rdf="http://www.w3.org/1999/02/22-rdf-syntax-ns#">
 <metadata>
  <rdf:RDF>
   <cc:Work rdf:about="">
    <dc:format>image/svg+xml</dc:format>
    <dc:type rdf:resource="http://purl.org/dc/dcmitype/StillImage"/>
    <dc:title/>
   </cc:Work>
  </rdf:RDF>
 </metadata>
 <g transform="translate(83.781 -26.033)" stroke="#fff" stroke-width=".5">
  <path d="m36.947 62.302 1.0058-0.65811 3.7721-0.66348 2.9909-0.33154 3.7721 0.16597 2.6164-0.74368 2.3114-0.57783 1.3858-0.66349-0.78116-2.0118-0.60459-1.68 0.29942-2.4559 0.70626-2.6217 0.77578-1.7657 2.2365 0.0859 3.3655 1.8459 3.9219 1.0166 2.4612 1.3537 2.8357-0.66349 1.5356-0.93626 1.0808-1.2681 0.70088-3.3654 0.93096-3.3655 0.5993-2.3702 0.52966-3.7239-0.44942-2.4559 0.6046-3.114-0.08007-2.0118 0.22478-2.183 1.0059-0.85607h1.9101l3.4725 0.41202 2.8357 1.5195 2.7662 2.29 2.6859 1.1825 1.161-0.32653 1.6854-1.0219h1.8352l1.8352-0.49226 1.1557 1.1825 0.6046 2.183-0.37991 2.7822-0.29942 0.9363-0.30526 2.1777 1.6105 3.1995 1.985 2.702 3.2905 0.85611 2.916-1.1022 2.3917-1.1022 2.4612-1.0166 3.9968-1.8459 1.0059-0.85602 2.0867-1.846 0.22477 1.5142-1.8352 2.7019-0.62596 1.6854 1.0861 2.6966 0.29943 2.3756-0.29943 3.8898 0.52437 3.114 0.37991 3.8898 0.70089 3.2798 1.7603 4.2215 4.5213 4.548 4.6014 2.3756 3.7721 0.9363 2.6913-0.9363 2.6912-0.33195 0.70094 1.5945 1.4553 1.7656 0.70623 1.3537 0.37449 3.3654 0.60456 3.5313v2.0974l-0.60456 2.6217-0.62595 1.6854-0.92567 2.7823-2.2365 3.114-3.3922 2.3702-3.6169 2.3703-3.6972 3.0336-1.3804 2.6218-3.221 4.4621-3.6169 3.8095-3.7721 1.5998-2.916 0.33153-4.5264-1.3537-3.8416-1.1022-5.1527-0.93631-3.1407-2.9482-2.916-2.6217-2.3862-0.85606-5.7515-3.114-2.6912-2.4558-2.2365-1.8459-5.3771-2.3702-2.916-1.3537-0.8561-0.33195 0.37991-0.85069 1.2306-0.66349 1.5303-1.8459 1.2305-1.1022 0.78116-1.022 1.0059-1.5142 0.29942-1.4339-0.78116-2.3756-1.5302-1.1878-1.9101-1.1825-3.542-2.4559-3.6169-1.7656-4.0717-2.3703-4.8529-2.4505-3.542-2.3702-2.7662-1.7657-5.1473-2.9534-2.841-2.6217-3.3922-0.85607z" fill="#cc2" id="Begusarai"/>
  <path d="m119.39 37.989 2.7662-0.6634 2.3917-1.5196 2.5361-1.3537 2.6913-1.5141 1.6853-0.85607 1.3804-0.85607 2.916-2.0118 1.0058-0.85603 2.1616-0.85607 0.93097 0.24604 2.7609 2.7823 1.8352 2.8731 2.3863 3.526 1.8352 2.3702 2.3863 3.5313 1.8352 2.1777 1.8352 2.29 1.9101 1.7657 3.296 2.702 3.9165 0.08549 2.7661 0.41202 3.2157 0.24604 3.8416-0.58317 2.8411-0.85611 3.542-2.1776 3.8416-2.1777 2.1616-1.5195 2.6913-0.85607 2.3917-0.57787 3.0604 1.1022 2.2366 1.1022 2.7662 1.4392 1.5355 0.77045 2.3863 2.0118 1.0808 3.1139-0.0751 3.7239-0.37992 3.0337 0.60457 2.8625 0.85607 1.3537 2.6913 3.6116 0.52428 1.9261-0.22478 1.5196-0.60456 2.3702-0.22478 2.8678-0.44947 3.0337-0.22477 2.6163-0.29941 2.0974 0.14976 3.4457-0.60456 1.9315 0.0801 2.4505-1.3055 2.4559-0.78112 2.1777-1.9101 1.8459-1.4553 1.1877-0.85606 0.66352-1.3108 1.0968-1.6051 0.74905-1.0059 1.5142-1.3055 1.0219-1.4607 1.1825-1.9101 0.77045-1.6105 1.9315-1.5303 0.24604-1.6105-0.33195-2.3114-0.41202-2.2365-0.77049-1.6051-0.41202-1.7604-1.1824-0.0747-1.0166-1.3857-2.702-0.44947-0.93634-1.0808-1.9315-0.93101-2.0973-1.2788-2.0653-2.0866-2.1776-0.14471-1.5195-1.3109-2.7019-0.77579-1.6854-0.4548-1.2627 0.6046-1.5997 0.37991-2.4559-1.3804-2.092-1.4553-1.4339-2.6912-1.1022-2.916-0.85598-2.1616-0.33154-1.6907-0.16597-2.0813 0.24604-2.3917 0.24604-1.6854 0.16597-1.985-0.41202-1.3108-0.57783-1.9101-0.16597-5.2274 0.24604-0.70089-1.5998-2.6913 0.32653-2.6913 0.94168-3.7721-0.94168-4.6014-2.3702-4.5213-4.553-1.7603-4.2161-0.70088-3.2799-0.37991-3.8898-0.52436-3.1193 0.29943-3.8898-0.29943-2.3703-1.0861-2.7019 0.62599-1.6801 1.8352-2.7019z" fill="#aeb0a3" id="Khagaria" />
  <path d="m147.83 159.09c-1.878-2.2098-1.1878-4.5851-1.1504-7.2554 0.14429-9.8554-9.9518 0.58855-13.933-3.0819-2.1027-1.9368-1.6426-5.5164-3.6918-7.4692-1.7389-1.6533-5.1898-1.4767-7.4159-1.5356-2.8464-0.0751-4.548 0.51365-6.2278 2.8304-1.7656 2.4451-3.5206 3.5902-6.1744 4.9921-3.3066 1.7496-4.965 4.2482-7.0572 7.2232-2.2365 3.1782-5.0722 4.0075-8.8496 4.1199-2.9641 0.0909-6.6986 0.32068-9.4434-1.0166-2.0492-1.0005-3.3493-2.7608-5.8425-2.6538-2.7341 0.11218-5.0188 2.0759-7.7633 2.1723-2.7555 0.0963-5.2861-1.5196-7.908-2.1562-4.8316-1.1718-10.787-1.2306-15.548 0.19225-2.0545 0.61532-4.2107 1.129-6.1102 2.1509l0.73837 1.9475-0.60464 2.8625-0.15513 2.0118-0.52432 2.3702 2.2311 2.0172 2.0867 1.5195 0.93096 1.3483 0.92562 2.5361 2.0867 3.8897 1.2306 1.3483 1.5302 0.24604 2.916 0.41735 3.3173 0.7705 2.8411 0.25147 1.8298 0.32652 2.1669 0.85608 3.9968 1.68 1.6854 0.66349 1.9101 1.7657 1.8352 1.5997 2.2311 2.1776 1.3858 2.3702 0.37991 1.8459v2.4559l-0.70088 1.7657h1.0005l-1.5303 1.8459 0.85606 1.5141 3.542 0.85608 3.9968 2.0172 3.1407 3.114 1.6854 5.6502 1.6105 5.7357 1.4606 4.0557 0.8561 1.846 1.6319 3.7774 1.2306 2.6217 3.1407 0.4976 2.611 1.0166 3.772 0.49229 1.6854-0.32654 2.9909-0.16596 3.9219 0.66348h0.67945l1.9101 0.66344 1.3109 0.32654 1.9101 2.8678 0.70092 1.3536-0.62604 2.9481-0.44942 2.0974 0.22478 4.0503-0.0747 4.2215-0.15513 2.0118 1.6854 2.5361 1.9101 0.33154 1.9904 0.0801 1.6853 0.74371 2.3863 0.24606 1.8352 0.93634 3.2156 1.6801 0.52966 1.3536 1.2306 2.0171 1.0808 2.8625 1.4553 0.412 2.9909 0.0801 1.3858 0.66344 1.6854 1.5195 1.0005 0.85611 0.6046 1.5142 1.3109 0.66345 0.0751-1.8459 0.6795-2.702 0.15513-2.702 0.29942-2.6966 0.30485-2.29 0.85607-1.9315 0.92562-2.4505 0.85611-2.3703 1.0861-2.7822 1.4553-3.8898 1.5356-2.5361 2.3114-3.8042 1.8352-1.6854 2.3114-2.0973 2.9161-2.1776 2.0866-1.1878 1.5303-1.5142 1.2306-0.66342 0.60456-0.85604 1.2253-1.8459 1.0862-1.5142 0.67945-2.0117-0.14971-2.5361-0.626-2.0118-1.3804-2.536-1.5356-1.5142-1.985-1.6854-1.7603-1.68-1.6051-2.5361-1.6854-2.8678-0.45481-2.29-1.0808-2.9481-2.2311-4.3016-1.0862-2.9534-1.0808-2.702-0.92559-3.8897-1.9904-5.4042 0.22477-2.6217-0.92567-3.3601-0.78116-2.6217-0.37991-1.846-0.92559-3.6062-0.29942-3.1193-0.52971-3.0337 0.18725-1.0112c-1.0915-1.054-2.2311-2.0171-3.2103-3.1728z" fill="#abacda" id="Jamui" />
  <path d="m57.631 141.08c-0.74367-1.8031-0.48687-3.7774-0.48687-5.7466 0-1.4018 0.11218-3.9807-0.4066-5.254-0.30484-0.74363-1.0647-1.0968-1.3697-1.8993-0.25147-0.65277-0.31569-1.6212-0.36406-2.3221-0.12302-1.7282 0.01674-3.5313 0.01674-5.2648 0-1.5409 0.24062-3.1942-0.26731-4.6389l-0.05881 0.0375-1.3858-0.49226h-1.1557l-3.2156-0.16596-3.542-0.4976-1.8352-0.49759h-2.3114l-4.2215 1.9261-2.0867-0.57783-2.3114-1.3537h-1.0059l-1.1611-1.8459-0.52432-0.24605-1.3858-1.2733-1.3804-0.66349-1.1611-0.8561-0.92562-0.49756-1.1557-0.16055-1.9101-0.49759-1.7549 1.3483-1.3109 1.3537 0.37987 2.702 0.08028 3.3654-0.5297 4.2161 0.5297 2.5361-0.4548 2.0118-1.6051 2.3703-1.5356 1.3536-1.7549 1.3537-2.3863 1.7657-1.9904 0.49759-2.5361 0.24605-2.5361 0.69021-2.0867 1.68 0.074814 2.0974 1.3858 1.5997 1.6854 1.1825 2.2365 1.5196 0.85606 1.1075 1.5302 0.93634 1.5302 1.8459 1.3858-2.0171-0.14984-2.0973 0.6046-1.4339 1.3055-1.022 1.6105 0.24605 2.4665 0.77583h2.0867l1.1557-0.0859 1.6104-0.85073 2.0867-1.1878 2.5361 1.1022 1.3055 3.0337 0.37991 3.3654-0.29942 2.7019 0.14971 2.5361 0.22478 2.7876 0.08007 1.5998 0.44942 1.68 1.0059 2.5361 1.6052 0.85602 1.9154-1.1022 1.6052-1.9262 1.6854-0.85607 1.9101 0.41202 0.19225 0.50831c1.8994-1.0219 4.0556-1.5356 6.1102-2.1508 2.8785-0.86149 6.1957-1.1771 9.438-1.0327 0.5511-1.0059 1.1825-1.9904 1.5409-3.1728 0.8561-2.8678 0.92566-7.4905-0.19266-10.198z" fill="#f9d3c6" id="Sheikhpura" />
  <path d="m191.58 128.9-1.3857-1.5142-1.9101-1.2734-1.0059-0.57787-2.2365-1.1877-2.9106-1.3484-2.1669-0.6581-1.9101-1.0219 0.30485-1.4339 1.2252-1.8459 2.0867-2.4558 1.91-1.1825 2.9963-1.1022 2.536-2.1776 0.44947-2.29-1.5302 0.24604-1.6105-0.33153-2.3114-0.41202-2.2365-0.77584-1.6051-0.41201-1.7603-1.1877-0.0751-1.0166-1.3858-2.7019-0.44946-0.93639-1.0808-1.9262-0.93096-2.0973-1.2253-2.0974-2.0867-2.1776-0.14971-1.5195-1.3055-2.6966-0.78113-1.6854-0.44943-1.2681 0.60456-1.5997 0.37991-2.4559-1.3857-2.0974-1.4553-1.4339-2.6913-1.1022-2.916-0.85602-2.1616-0.32653-1.6854-0.16597-2.0867 0.24604-2.3917 0.24604-1.6853 0.16597-1.985-0.41202-1.3055-0.57787-1.9101-0.16597-5.2274 0.24604 1.4553 1.7656 0.70093 1.3537 0.37991 3.36 0.6046 3.5314v2.092l-0.6046 2.6163-0.62599 1.6854-0.93101 2.7876-2.2311 3.114-3.3975 2.3702-3.6169 2.3703-3.6972 3.0337-0.73294 1.3858c0.1017 0.18182 0.2035 0.35823 0.32652 0.54034 0.74906 1.1343 1.6265 3.6223 1.7068 5.0776 0.0747 1.3109-0.87751 2.6699-1.2092 3.8951-0.10712 0.41202 0.1443 0.69022-0.025 1.1129-0.24604 0.60998-1.0273 0.94706-1.3376 1.5196-0.87749 1.6051-1.2413 4.2378-1.7817 6.0514-0.51898 1.7282 0.11218 3.7827-0.51898 5.4038-0.69021 1.7764-2.5682 3.3708-3.6437 5.0776-0.75978 1.2039-1.1236 2.611-1.2841 4.0984 0.44413-0.0375 0.91499-0.0425 1.4232-0.0333 2.2258 0.0588 5.6769-0.1176 7.4159 1.5356 2.0492 1.9529 1.5891 5.5272 3.6918 7.4692 3.9807 3.6704 14.077-6.7736 13.933 3.0818-0.0375 2.6699-0.72767 5.0401 1.1503 7.2554 0.97917 1.1557 2.1188 2.1187 3.1889 3.1728l0.18725-1.0006 1.985-0.16597 2.2365 0.57786 1.9101 0.57784 1.3055 0.85611 2.5414 2.1829 1.8299 2.8625 1.6854-0.66344 2.9962-1.1824 2.1616-1.0166 0.92558-1.022v-0.66341l0.30526-1.5142 0.22478-1.4339 1.2306-1.9315 1.4552-2.7823 1.2306-2.6217 1.9851-2.702 1.3055-2.0171 1.6105-2.9534 2.611-2.6164 2.916-3.1995 2.1669-2.183 1.8299-2.1776 1.7603-1.2734 1.6105-2.6164z" fill="#c2f0c2" id="Munger" />
  <path d="m125.15 130.61c0.63133-1.6212 0-3.6758 0.51894-5.4041 0.5458-1.8138 0.9096-4.4463 1.7817-6.0514 0.31027-0.57253 1.0915-0.90962 1.3376-1.5196 0.17139-0.42807-0.0801-0.70627 0.025-1.1129 0.32652-1.2306 1.2841-2.5896 1.2092-3.8952-0.0855-1.4553-0.95769-3.9379-1.7068-5.0776-0.1176-0.18183-0.21935-0.36407-0.32652-0.54043l-0.64739 1.2306-3.2156 4.4675-3.6222 3.8042-3.7667 1.5998-2.916 0.33195-4.5213-1.3537-3.847-1.1022-5.1469-0.93634-3.1407-2.9534-2.916-2.6164-2.3916-0.85603-5.7515-3.114-2.6912-2.4505-2.2365-1.8459-5.3721-2.3703-2.916-1.3536-0.85602-0.33154-2.7127 2.3435-2.167 0.66344-2.5361 1.5196-2.3114 0.49759-1.3055 0.49759-2.8411 1.1824-0.44946 0.66349-1.3055 1.6854-0.62599 1.5142 0.93095 2.0118 0.37449 3.5259-0.44947 1.5195-1.8513 1.1504c0.50831 1.4446 0.26731 3.0979 0.26731 4.6389 0 1.7389-0.13929 3.5367-0.01674 5.2648 0.04837 0.70094 0.11218 1.6694 0.36406 2.3221 0.30526 0.8026 1.0701 1.1557 1.3697 1.8994 0.51898 1.2734 0.4066 3.8523 0.4066 5.254-0.0083 1.969-0.25689 3.9433 0.48691 5.7466 1.1182 2.7073 1.0433 7.33 0.17139 10.198-0.35822 1.1824-0.98984 2.167-1.5409 3.1728 2.1188 0.0909 4.2052 0.37991 6.1102 0.84001 2.6163 0.63663 5.1523 2.2525 7.908 2.1562 2.7447-0.0963 5.0293-2.06 7.7632-2.1723 2.488-0.10176 3.7881 1.6532 5.8429 2.6538 2.7501 1.343 6.4792 1.1076 9.4434 1.0166 3.7774-0.11218 6.6131-0.94168 8.8496-4.1199 2.0921-2.9748 3.7507-5.4734 7.0572-7.2232 2.6485-1.4018 4.4033-2.5468 6.1744-4.9921 1.3751-1.9048 2.7716-2.6432 4.8049-2.8037 0.16055-1.4874 0.52435-2.8946 1.2841-4.0984 1.0487-1.7068 2.9267-3.3012 3.6169-5.0776z" fill="#e2b584" id="Lakhisarai" />
 </g>
 <g fill="none" stroke="#345">
  <path d="m3.054 13.445v2.6731l7.351-0.66826 4.0096 0.66826 5.3462 1.3365 3.0072 2.0048 0.66828 4.0096 1.6707 1.6707 0.66827 1.0024-1.0024 2.6731-0.33414 1.3365 1.3365 2.6731 3.3414 0.66828 3.3414 0.33412h6.0145l5.012 3.0072 3.3414-0.33414h2.6731l3.0072 0.33414 5.3462 3.0072h7.6851l4.6779 1.3365v6.0145l1.0024 3.3414-1.3365 3.3414 0.33414 2.339 6.0145 0.33414 9.0217 1.3365h6.0145l5.6803-1.0024 1.6707 2.6731-1.0024 4.0096-2.6731 2.6731 2.0048 2.0048v7.6851l-0.66827 5.0121-4.3438 4.6779 4.6779 1.0024 1.0024-1.0024 2.6731-1.0024 4.6779 1.6707 6.0145 5.3462 7.351 6.0145 3.6755 0.33414 5.3462 1.6707 7.0169 8.3534 14.034 17.041 5.0121 5.6803 2.0048 4.0096 5.012 2.6731 4.0096 1.6707 7.0168 1.3365-0.66825 2.339 5.6803 1.6707 1.0024 2.0048 6.0144 3.3414 1.3366-1.6707 4.0096 0.66828 4.6779 6.0145 1.6707 3.3414 2.0048 3.3414v4.6779l2.6731 7.351 2.339-1.0024 2.339 0.33414 1.6707-3.6755" stroke-width=".5px"/>
  <path d="m70.216 41.179 4.8551-1.8673 9.3368 0.37346h8.5899l6.7225-1.1204 7.8429-6.349h7.096l7.096 0.74694 5.6021 4.4817 3.7347 7.096 2.2408 3.3613 4.4817 2.6143-0.74695 3.3613 1.8674 1.4939 9.3368 1.8674 4.4817-1.4939 2.9878 3.3613 2.6143 5.2286 1.8674 4.1082 0.74695 3.7347v3.3612l1.1204 2.2408v2.9878l1.8674 2.9878 3.7347 2.6143 1.8674 2.6143 2.6143 5.6021 1.4939 3.7347 0.37345 6.349 1.1204 1.8674" stroke-width=".5px"/>
  <path d="m175.16 106.54 2.2002 3.4468 1.9558 10.053 3.1781 4.0213 3.1781 4.3085 1.2223 2.0106 4.156 10.34 0.9779 1.4362 0.97788-0.86172 0.73339-3.734 2.4447 1.149 2.4447 6.6063 2.2002 4.3085 0.48895 4.0213 4.8894 4.3085 2.6892 6.8936 0.73342 2.8723-3.4226 1.4362" stroke-width=".5px"/>
  <path d="m174.04 104.67-5.7596 8.7894-6.3996 9.9235-3.1999 5.1035-3.1998 6.2376" stroke-width=".5px"/>
  <path d="m229.26 52.057 1.4477 7.1787h-2.3164l-0.86865 0.3988-2.0268 1.9941-0.86861 1.9941-3.185 2.7917-2.3164 1.9941-2.8954-0.39881h-3.4746l-4.0537 2.7917-4.3432 1.5953-4.9223 1.9941-4.6327 1.9941-2.0268 3.5894-1.1582 5.1846-2.3164 2.7917-4.9223 4.7858-2.3164 1.1965-3.185-0.79764h-1.4477l-2.6059-0.39883-0.86864 2.3929-0.28954 3.1906" stroke-width=".47235px"/>
  <path d="m152.75 55.744 1.8958-2.5278h2.2118l0.94792-1.8958h2.8438v-2.8437l4.7396-0.94792 3.1597 2.2118h1.8958l1.5799-2.2118h3.4757" stroke-width=".38233px"/>
  <path d="m175.35 46.419 3.5938 1.301 4.3126-0.21684 10.063 1.0842 6.4689-1.7347 3.9532-0.65052h11.141l2.5157 0.65052 5.0314-1.301 5.3907 3.9031 1.4375 2.6021" stroke-width=".5px"/>
  <path d="m222.43 45.552 1.0933-1.0933 1.312-3.4986 2.8426-3.0613 2.1866-0.43733" stroke-width=".5px"/>
  <path d="m229.26 52.057 5.9686 5.7324 2.6527-0.3372 4.9739 3.7092 3.3159 8.7672-1.3264 1.686 0.6632 4.3836-0.99479 8.0928 0.99479 4.0464-2.6527 6.4068-2.6528 9.1044-5.637 10.116-7.2951 5.3952-3.9791 1.0116-4.9738 1.0116-0.33163 7.4184 0.99479 12.476-2.9843 3.0348-2.9843 3.7092-1.3264 2.3604 1.3264 4.7208v6.0696l-0.33163 5.3952-0.66316 1.3488" stroke-width=".49px"/>
  <path d="m212.02 167.72h-2.3856" stroke-width=".5px"/>
  <path d="m218.32 121.18-5.8208 6.9276-4.8506 2.5191-4.2039 3.7787-1.9402 1.8893h-4.2039l-1.2935-2.5191-2.2636 3.7787" stroke-width=".5px"/>
 </g>
 <g fill-rule="evenodd" stroke-width=".21158">
  <ellipse cx="209.48" cy="167.43" rx="2.9198" ry="3.0172"/>
  <ellipse cx="230.14" cy="37.705" rx="2.9198" ry="3.0172"/>
  <ellipse cx="175.98" cy="47.277" rx="2.9198" ry="3.0172"/>
  <ellipse cx="229.63" cy="52.567" rx="2.9198" ry="3.0172"/>
  <ellipse cx="173.96" cy="101.18" rx="2.9198" ry="3.0172"/>
  <ellipse cx="126.6" cy="99.925" rx="2.9198" ry="3.0172"/>
  <ellipse cx="2.9198" cy="13.774" rx="2.9198" ry="3.0172"/>
 </g>
 <g fill="#000000" font-family="sans-serif" font-size="3.5278px" letter-spacing="0px" stroke-width=".26458" word-spacing="0px">
  <text x="3.3330884" y="24.260702" style="line-height:1.25" xml:space="preserve"><tspan x="3.3330884" y="24.260702" font-size="6.35px" stroke-width=".26458">Patna</tspan></text>
  <text x="161.72556" y="40.350227" style="line-height:1.25" xml:space="preserve"><tspan x="161.72556" y="40.350227" font-size="6.35px" stroke-width=".26458">Begusarai</tspan></text>
  <text x="237.16756" y="37.13232" style="line-height:1.25" xml:space="preserve"><tspan x="237.16756" y="37.13232" font-size="6.35px" stroke-width=".26458">Khagaria</tspan></text>
  <text x="96.652351" y="111.14415" style="line-height:1.25" xml:space="preserve"><tspan x="96.652351" y="111.14415" font-size="6.35px" stroke-width=".26458">Sheikhpura</tspan></text>
  <text x="182.46315" y="103.27815" style="line-height:1.25" xml:space="preserve"><tspan x="182.46315" y="103.27815" font-size="6.35px" stroke-width=".26458">Lakhisarai</tspan></text>
  <text x="203.91586" y="179.07771" style="line-height:1.25" xml:space="preserve"><tspan x="203.91586" y="179.07771" font-size="6.35px" stroke-width=".26458">Jamui</tspan></text>
  <text x="201.05447" y="57.452148" style="line-height:1.25" xml:space="preserve"><tspan x="201.05447" y="57.452148" font-size="6.35px" stroke-width=".26458">Munger</tspan></text>
 </g>
</svg>
