<svg width="532.72mm" height="243.4mm" version="1.1" viewBox="0 0 532.7305 243.40037" xmlns="http://www.w3.org/2000/svg" xmlns:cc="http://creativecommons.org/ns#" xmlns:dc="http://purl.org/dc/elements/1.1/" xmlns:rdf="http://www.w3.org/1999/02/22-rdf-syntax-ns#">
 <metadata>
  <rdf:RDF>
   <cc:Work rdf:about="">
    <dc:format>image/svg+xml</dc:format>
    <dc:type rdf:resource="http://purl.org/dc/dcmitype/StillImage"/>
    <dc:title/>
   </cc:Work>
  </rdf:RDF>
 </metadata>
 <g transform="translate(324.08 -13.538)"  stroke="#fff" stroke-width=".5">
  <path d="m123.27 150.87c-2.8467-0.29339-5.4188-1.0738-8.2215-1.6793-1.7354-0.37416-2.497-0.68046-4.0265-1.6106-1.5482-0.9489-2.9902-0.83656-4.7881-0.84274-4.0765-0.0152-8.1153-0.37466-11.98-1.8291-3.7019-1.3921-6.4173-3.6707-10.488-4.0453-3.6769-0.3372-7.1291 0.2681-10.762-0.83024-1.7979-0.5431-3.1213-1.4982-4.9877-1.9165-1.5732-0.34936-3.3585-1.1674-4.8817-1.3547-4.1451-0.51186-8.3713-0.36832-12.604-0.43692-1.2173-0.0195-2.3348-0.37418-3.4272-0.84902l-2.5158 2.5345-3.4023 3.7331-3.0526 3.059-1.8728 3.4397-1.5295 2.3472-2.316 3.1526-1.4358 3.0588-1.698 3.2462-1.4358 2.2536-0.26226 1.6731-0.34935 1.7729v0.77411l-1.0862 1.1861-2.5221 1.1924-3.4896 1.3859-1.9664 0.76785-2.1413-3.3462-2.959-2.5407-1.5294-0.99888-2.2286-0.68041-2.6033-0.67423-2.3223 0.19365-0.44326 2.3473 0.61798 3.5396 0.34935 3.6395 1.0862 4.2138 0.44326 2.1537 0.90525 3.0526 1.0862 3.9267-0.26226 3.0526 2.316 6.3112 1.0863 4.5384 1.261 3.1526 1.2611 3.4397 2.6094 5.0194 1.2611 3.4459 0.52432 2.6719 1.9665 3.3398 1.879 2.959 2.0476 1.9665 2.3223 1.9602 1.7854 1.7729 1.6106 2.959 0.73037 2.3472 0.181 2.959-0.79286 2.3472-1.261 1.7729-1.4358 2.1537-0.70542 0.99883-1.4358 0.77413 3.4023 1.1924 4.1327 2.3535 4.4011 2.4408 3.14 0.0935 3.4897-0.99883 2.959-2.3472 2.316-3.0589 2.4346-2.6719 1.6106-1.0924 2.8779-2.3472 1.3484-0.58058 2.522 1.286 2.1412 1.6731 1.3484 2.4471 2.1413 2.4471 2.316 2.4471 1.5295 1.1861 2.6968 0.5743h3.2275l3.0464-0.5743 1.7043 1.1923 2.6968 1.3858 2.7905 1.6731 1.698 0.86774 1.7855 1.1924 1.698-2.1537 0.70542-1.3859-0.09342-2.959 0.70542-3.346-0.61181-2.1538-0.70542-2.7654-0.44326-3.5397 0.91144-2.341 1.8791-1.1924 2.316-1.1861h2.0477l1.9727 0.19365 1.9664 1.286 1.7854 1.4857 2.6968 1.0925 2.4347-0.0997 3.0464-0.99877 1.4358-1.9665 0.824-1.9602 0.34935-0.89888 0.0871-0.99888-1.08-1.8666-0.73038-1.1861 0.17468-1.2922 0.0876-4.1202 0.44326-3.2524 0.0876-2.341 1.0862-4.5384 1.2611-2.959 1.0799-3.7331-0.0876-3.7331-0.35617-1.773-0.16884-1.9602 0.0876-1.8665 0.44327-1.286 1.6106-3.1525 2.7905-3.9204 2.8716-3.7331 4.4011-5.0194 1.4296-3.6332 0.44326-1.5732 0.52442-4.3449-0.0876-3.6332 0.0876-1.8666 0.44326-3.2461 0.70542-3.059 1.1736-2.7655 0.78659-0.86151c-0.38682-0.2248-0.76786-0.45592-1.1299-0.6867-2.5595-1.673-6.2679-2.135-9.2515-2.4408z" fill="#cc2" id="Banka" />
  <path d="m204.87 93.551-1.5294-1.4795-3.4896-2.4471-3.6645-2.547-5.1001-3.4397-4.5759-2.5408-4.2201-2.2473-1.6979-1.3859-3.2275-1.286-3.1401-1.6731-1.08-0.48073-1.9665-0.99887-4.0515-0.48073-2.522 0.19365-1.698 0.09342-5.1877-1.286-4.2263-1.1924-2.135-0.67423-2.4346 0.19365-5.3624-1.2859 0.16835 2.9591-0.61181 3.7269 0.73043 2.16 0.91139 3.7269 0.81782 3.0589 0.99877 2.8654-1.1736 2.959-2.135 4.3449-2.5284 2.7654-4.1326 1.7667-3.3086-2.2537-2.7905-2.8591-1.6106-4.4386-2.6969-2.4471-2.8778-0.48073-2.4347 0.89893h-3.9266l-3.4896 2.9652-3.0527 3.6333-0.91139 1.8665-2.5221 1.1861-3.0464 0.58062-3.1401-1.1924-3.9578-2.3472-2.6094-1.5731-4.6633-2.3473-2.959-1.9664-2.6968-1.3797-5.194-2.3472-4.3074-0.67419-6.8046 2.4471-1.5232 1.7729-2.3473 2.0538-1.698 1.3859-0.99881 0.76785-1.5232 1.286-1.8791 0.86774-1.1736 1.7729-1.5232 1.1924-1.698 1.3859-2.2286 0.89893-1.8791 2.2474-0.52437 2.6719-2.959 2.547-3.4897 1.2922-2.2286 1.3796-2.4347 2.8592-1.4358 2.1537-0.35617 1.673 2.2286 1.186 2.5283 0.77413 3.4022 1.5794 2.6032 1.3796 1.1736 0.68042 2.2286 1.4796 1.6168 1.7729 1.698 3.1525-1.879 3.0589-2.0476 1.4795-2.1412 2.547-0.0098 0.0101c1.0862 0.4744 2.2099 0.83028 3.4272 0.84895 4.2325 0.0687 8.4589-0.0749 12.604 0.43694 1.517 0.18734 3.3086 1.0051 4.8817 1.3546 1.8603 0.41212 3.19 1.3672 4.9877 1.9165 3.6333 1.0988 7.0853 0.49319 10.762 0.83028 4.0702 0.37417 6.7856 2.6532 10.488 4.0453 3.8642 1.4545 7.8969 1.8166 11.98 1.829 1.7979 0.0101 3.24-0.10607 4.7881 0.84278 1.5232 0.93018 2.2911 1.2361 4.0265 1.6106 2.803 0.60558 5.3687 1.3859 8.2215 1.6793 2.9777 0.30555 6.6859 0.77408 9.2515 2.4097 0.362 0.23112 0.73666 0.46174 1.13 0.68669l0.83028-0.90521 0.99882-3.7331 1.5232-1.1924 1.9664-0.58056 2.4347-0.77413 1.9664-0.67413 2.3161-1.3797 1.1736-2.2536 1.6169-0.58057 3.0464-1.1923 1.6169-1.9664 2.1412-1.7667 2.7842-7.2726 0.34936-3.9204 2.3223-4.9255 0.44326-4.1139 2.0476-1.1923 2.9591 0.58052 2.1412 1.5732 3.6645 1.3796 3.4897-0.19366 3.758-0.86779 1.8728-1.3797 2.4347-0.28707 1.5294 0.18733 2.4284-0.18733 1.005-1.9665-0.2681-2.7655-0.52441-3.5396 1.261-2.1538 1.3547-1.5793 0.99881-2.3473 2.4346-1.5794 3.2274-0.77409 2.4347-0.18733 1.698-0.48073 1.879-0.28707 1.6106-0.99887h2.6968l0.99883-1.3796z" fill="#e2b584" id="Bhagalpur" />
 </g>
 <g fill="none" stroke="#345">
  <path d="m6.1908 6.8625v4.3326l5.4157-1.6247h8.1236l6.4989 1.0831 5.4157 2.1663 3.791 2.1663v4.3326l2.1663 2.7079 1.6247 3.791-1.6247 3.2494v3.791l3.791 1.6247 5.9573 0.54158h4.8742l5.4157 1.0831 6.4989 3.791 3.2494-0.54158 4.3326-1.0831 5.9573 1.6247 5.4157 4.3326 5.38-0.41512h7.9834l5.6549 2.3285 0.33264-3.6591 6.3202-0.33264h5.9876l6.9855 0.66529h7.6507l8.316-0.66529 4.657-2.9938 3.659-3.3264 1.6632-1.9958 9.9792-0.66528 4.9896 0.66528 4.657 1.6632 3.9917 2.3285 3.3264 3.9917 2.3285 3.9917 2.3285 4.9896 4.657 3.3264 2.6611 2.6611 0.33263 3.6591 0.33265 1.6632 4.657 1.3306 5.9875 0.66529 3.3264 0.33265h5.6549l6.3202 8.9813 2.9938 6.6528-0.66529 5.9875 1.9958 2.6611 0.66529 7.3181 3.9917 4.657 4.3243 2.3285 2.9938 5.3222 7.6508 5.6549 10.312 1.6632 9.314-3.9917 5.3222-4.3244 1.6632-3.9917v-1.9959l3.3264-5.3223 4.9896-2.3285 5.6549-2.6611 4.9896-0.66527 5.3223-2.6612 4.9896-0.66526 5.6549-3.3264h10.312l9.9792-4.3243 3.659-5.9875h3.3264l1.9959 0.33265h4.3243l4.9896-1.9958 2.6611 0.99791 3.9916 2.9938 1.9958 2.9938 3.6591 8.9813 7.9834 8.6487 3.9917 2.6611 4.657 0.99792 6.3202 0.66527h3.659l3.3264-1.3306h4.9896l5.9875-0.66529h4.3243l4.657 0.99793 3.3264 1.9958 5.3222 0.99793h12.973l10.977-0.99793 8.316-0.99793 8.6486-0.66527" stroke-width=".5px"/>
  <path d="m37.691 32.858-0.67154 6.0346v3.2916l2.0146 3.8402-1.3431 6.0346v2.743h8.0584l11.416 1.0972 12.759 0.5486 14.774-1.0972 2.0146 3.2916-1.3431 4.3888v1.0972l-3.3577 2.743-0.67154 3.2916 2.0146 2.1944v17.006l-8.0192 6.2297 3.818 1.7823 3.818 0.44559h2.1817l2.1817-2.6735h4.3634l5.9997 1.3367 14.727 11.139 5.9997 3.5646 4.3634 2.6734 9.2723-0.44556 5.9997 3.5646 43.634 43.221 4.3634 5.7925 19.09 8.4659 3.818 0.44556h5.4543v2.6735l7.636 3.5646 4.3634 2.6734 8.1814 3.119 5.9997-1.3367 5.9997 2.6734 9.8177 15.15 4.3634 4.0102-1.6363 4.4558 5.4543 9.8026 4.3634-1.3367h5.9997l8.1814-8.9115 8.1814 3.119 3.2725 3.119 2.7271 2.2279 9.2723 0.89111 11.999 1.3368 10.909-0.89118 3.2725 3.119 2.1817 6.2381 4.9089 3.119h3.818l2.1817-2.2279 4.9088 0.89117 2.1817-2.6734 5.4542-2.6735 4.3635-2.2279 10.909-2.6734 7.6359 1.3367 6.5452-2.6735 6.5451 1.7823h11.999l3.2725-2.2278 4.3634-0.89118 3.2726-6.238" stroke-width=".5px"/>
  <path d="m449.64 100.28-1.5091 1.8986v3.0182l-3.7971 3.0669 2.288 2.288v6.0851l-1.5578 2.288-3.4077 1.8986 1.1197 2.6288-1.8986 4.576-1.1197 3.7971-1.1684 3.0669 0.7789 3.0182-1.1197 5.3549-1.1683 2.6288-0.73023 1.8986-2.6775 4.576 3.0182 4.576v1.5091l-1.5091 3.0669-1.5091 2.6288 0.7789 3.0669-0.7789 2.6774-1.8986 3.4077v3.4077l5.6957 7.2535 3.0669 4.1866-1.9473 4.9168-4.9168 4.1866-4.576 1.8986-2.6774 4.9655v3.7971l-3.4077 2.288-5.6957 3.0182" stroke-width=".5px"/>
  <path d="m218.53 96.041-1.4854 5.0357 3.3422 3.3572 0.37135 7.5536 4.4562 3.3571 3.3422 16.366 12.255 17.205 8.1698 18.045h1.4854l2.9708-6.2946 4.8276 3.7768 8.9125 18.884-0.74271 5.4554 10.398 6.2946-0.74271 4.1964 7.0557 12.17" stroke-width=".5px"/>
 </g>
 <g fill-rule="evenodd" stroke-width=".29894">
  <ellipse cx="449.3" cy="99.557" rx="4.6839" ry="4.933"/>
  <ellipse cx="426.68" cy="207.19" rx="4.6839" ry="4.933"/>
  <ellipse cx="4.6829" cy="4.933" rx="4.6839" ry="4.933"/>
 </g>
 <g fill="#000000" font-family="sans-serif" font-size="3.5278px" letter-spacing="0px" stroke-width=".26459" word-spacing="0px">
  <text x="455.82895" y="99.557076" style="line-height:1.25" xml:space="preserve"><tspan x="455.82895" y="99.557076" font-size="5.6446px" stroke-width=".26459">Bhagalpur</tspan></text>
  <text x="399.77203" y="207.18634" style="line-height:1.25" xml:space="preserve"><tspan x="399.77203" y="207.18634" font-size="5.6446px" stroke-width=".26459">Banka</tspan></text>
  <text x="16.791176" y="5.3814645" style="line-height:1.25" xml:space="preserve"><tspan x="16.791176" y="5.3814645" font-size="5.6446px" stroke-width=".26459">Patna</tspan></text>
 </g>
</svg>
