<svg width="462.42mm" height="223.65mm" version="1.1" viewBox="0 0 462.42666 223.64796" xmlns="http://www.w3.org/2000/svg" xmlns:cc="http://creativecommons.org/ns#" xmlns:dc="http://purl.org/dc/elements/1.1/" xmlns:rdf="http://www.w3.org/1999/02/22-rdf-syntax-ns#">
 <g transform="translate(253.37 -35.95)" stroke="#fff" stroke-width=".5">
  <path d="m23.169 36.515 0.07012 0.87962 0.7996 2.0341 0.63973 4.6378 0.41984 5.9724 0.27969 0.95461 0.49479 1.5693 3.3086 3.4785 4.743 3.9433 1.6393 0.79961 1.5743 0.30969 3.5235-0.15503 0.07479-1.5693h0.34981l3.7384 0.15503 0.13984 1.0296 1.3594 0.22983 1.9492-1.5743 2.369 0.4648 1.5043 1.5743 0.72968 0.79969 0.4198 4.0932 3.0787 0.46476 3.3785 0.53978 1.5743 1.5743 1.4294 0.87463 1.7142-0.15503 1.7143-0.61976 0.41984-0.95457 0.4198-4.0932 1.4294-2.5239 0.72968-0.15503 1.3594-1.1045 0.13984-0.15503 3.8733-2.1391 2.7188-0.69471 2.164-0.15503 1.6393-0.61972 2.9337-0.4648h4.3881l2.159 0.95453 0.42483 0.30501 0.41984 0.38486 1.5743 0.79466 3.2386 1.3394 0.9396 1.5693 2.7938 1.5693 2.4439 1.1095 0.0701 1.2644 2.304 0.15503 1.8592-1.4144 1.0096-0.38487 1.0095 0.07479h2.439l0.0748 4.1731 1.0795 3.6334v2.4489l-1.3594 2.9887 0.28475 3.7083 1.0795 3.3786 0.56472 4.2483-0.56472 2.3689 1.7142 5.2027 1.6393 2.6738 1.0845 6.1325-1.0845 7.2368 3.3085 6.462 4.1583 4.2482h0.27969l0.58474 2.6788-0.35487 2.4489-6.0324-1.1844-8.0264 0.30501-1.3644-1.8742-3.6584 0.61474-3.8733 1.2595-3.5934-0.61474-6.5921 2.3689h-5.8925l-6.0324 0.61976-1.1495-0.61976h-4.1532l-6.8819-1.7242-1.1445-0.9546-4.6729 1.8042-6.3872 0.87463h-4.4629l-5.2326 1.5743-5.8224 1.2644-4.4629 2.0341-2.7938 2.2141h-3.0087l-8.6162-0.61474-3.3085 0.61474-3.2386-1.5743 0.07012-0.30501 0.79968-3.1436 1.2944-1.0295 2.5839-1.4144 1.7143-1.0296 1.7142-1.9591-1.0845-2.5989-1.4294-1.7242 2.7238 1.3394-0.28514-1.3394-0.79968-0.9546-1.0096-2.369-1.1495-1.9592 0.72968-1.4943 1.7143-1.8792 1.6392-2.5988 1.4294-1.4144-1.0095-2.4489-1.5744-1.7992-3.5884-1.6493-1.8592-0.79964-1.0795-1.7242 0.35487-1.5693 0.48976-1.5693 1.1495-6.4624 0.41984-3.4834 0.13984-4.713-0.49479-4.713-0.27969-2.9887-0.35487-6.462-0.20996-5.6674-0.86461-4.4029-0.8696-4.713-0.72972-4.893 1.1495-2.0391 1.2944-2.5239 1.7143-2.5239z" fill="#cc2" id="Araria" />
  <path d="m13.236 133.86 3.2436 1.5693 3.3085-0.61474 8.6162 0.61474h3.0037l2.7938-2.214 4.4629-2.0341 5.8224-1.2594 5.2377-1.5744h4.4629l6.3822-0.8746 4.6729-1.7992 1.1495 0.94958 6.8769 1.7242h4.1532l1.1495 0.61976 6.0324-0.61976h5.8925l6.5972-2.3689 3.5884 0.61968 3.8733-1.2644 3.6634-0.61972 1.3594 1.8842 8.0264-0.31007 6.0323 1.1845-0.20996 1.4944 1.6393 6.1324-0.27969 3.2936 0.86462 3.6335v3.0636l1.9491 3.3735 5.8224 3.2936 4.6729 1.2644 3.3785 2.0391 0.72973 0.94962-1.0796 0.46481-2.0191 1.8042-1.2944 0.87461-0.79965 3.1436-2.0891 3.6285-0.34981 2.6838-2.089 2.4439-2.444 1.6493-3.2386 0.61976-3.2436-0.69475-2.0191-1.3444-1.8542-0.53978-3.3785 2.8338-2.159 1.9591-3.1687 3.2986-2.9337 2.214-1.8542 2.369-3.0037 2.0341-3.3785 1.4194-3.0087 0.94954-2.7938 0.4648-3.5884-1.4143-3.5235 0.7996-5.3775 0.14991-4.6729-0.61474-2.5788 0.155-4.2234-0.155-5.4477-0.15499-2.8687-1.1895-3.7984-1.6493-2.8637-1.7243-2.8638-0.87461-1.0096-0.0799-2.229 6.3124 0.20996 2.0341 0.65474 2.294 0.20996 2.7537 0.21464 3.6335-0.65972 2.214-1.6392 3.1386-1.8592 3.2986-2.7238 1.1045-3.3785 0.94958-1.1495 0.61976-2.3689 4.253 0.20996 2.6788 0.79968 2.5239 0.35487 2.5239-0.65469 2.5238 0.93461 0.4648 1.4344 0.7997-5.3028-0.54478-2.0891-0.6947-1.7842-0.61976-2.1591-0.61973-2.5839-0.6197-2.8638-0.155h-4.0185l-3.1686-0.155-2.0191-0.155 1.7143-2.0341 1.8542-2.3689 1.7142-3.2986-0.65473-1.8792-1.5044-1.5743-1.8592-1.3394-1.4993-1.0295-1.4344-2.8338-2.0841-2.294-0.72968-2.4439-0.13984-3.7883-0.20996-1.1045-0.86462-5.3577v-5.0481l-0.074792-3.5534 0.074792-4.253 0.13478-4.6378 0.28514-2.9837 0.72968-4.7929-0.20996-5.8224-0.58481-3.2935-1.8592-3.1436-1.9491-3.6334-1.3644-3.0637-1.5043-2.5239 1.1495-2.369 2.3689-1.4144 1.3644-0.22983 1.8592-0.22983h1.5743l2.0191-2.0341 0.72968-1.3395z" fill="#e2b584" id="Purnia" />
  <path d="m39.529 225.67-1.4343-0.79969-0.9396-0.46476 0.65972-2.5239-0.35487-2.5239-0.79964-2.519-0.20996-2.6788 2.369-4.253 1.1494-0.61478 3.3786-0.95456 2.7238-1.1045 1.8592-3.2986 1.6393-3.1436 0.65474-2.214-0.20996-3.6284-0.20996-2.7588-0.65474-2.294-0.20996-2.0341 2.229-6.312 1.0095 0.0802 2.8638 0.87462 2.8638 1.7242 3.8034 1.6443 2.8638 1.1895 5.4426 0.155 4.228 0.14991 2.5839-0.14991 4.6729 0.61472 5.3776-0.15499 3.5185-0.79969 3.5884 1.4194 2.7938-0.4648 3.0087-0.9546 3.3785-1.4144 3.0037-2.0341 1.8592-2.369 2.9337-2.214 3.1686-3.2986 2.1591-1.9591 3.3785-2.8338 1.8542 0.53975 2.0191 1.3395 3.2437 0.69467 3.2386-0.61973 2.4439-1.5693 2.0841-2.5239 0.35487-2.6788 2.0891-3.6284 0.7996-3.1437 1.2944-0.87459 2.0191-1.8042 1.0796-0.46479-0.27969 2.1391v1.8042l0.6547 4.2483 0.20996 1.3394 0.63971 1.0296 2.9337 1.1095 2.7938 0.30968 1.4294 2.1391 2.0241 1.8842 0.93458 1.2644 0.63476 2.6738 0.93458 1.6493 2.0891 0.71971h1.5743l2.6539 0.22984 2.439 0.22982 3.3085 1.3444 0.86462 0.0751 0.79966 2.4439-1.3594 3.2186-1.0146 2.4489-1.7842 3.6334-1.3594 1.1845-0.41981 0.61976-0.35487 0.71968-0.27969 0.79969-1.0096 1.4193-0.86961 0.46482-2.439 1.2644-0.93957 1.1046-1.5744 2.0341-1.1494 1.6493-2.1591 1.2644-1.7142 1.3394-2.6489 2.0392-0.8696 0.79957-1.7092 1.0296-1.7143 0.87463-1.0095 0.87959-1.6443 1.3394-1.0795 1.8792-0.86965 1.9591-1.9491 2.1391-2.439 0.53975-0.93953 0.30969-2.7239 0.38487-2.0191 1.1094-1.6443 1.1096-0.48981 0.31008-0.93953 1.5693-0.72972 5.5127 0.63974 2.369 0.6547 3.4785-0.0701 2.5988v2.1391l0.13984 0.9546 1.4344 2.369 1.7093 0.30501 3.7384-0.79969 2.4389-0.155 2.229-0.31007 1.2944 0.87958 0.58477 4.0932-1.3594 1.9591-1.7142 3.6284-1.7093 1.4944-1.9491 0.71971-2.159 1.2644-2.0241 0.61976-1.2195 0.61474-1.7142 0.6197-0.4898 0.61474-0.35487-1.2595-2.234-0.46479-2.4389-0.79965-2.7938-0.95457-3.0786-0.38487-3.9433-1.0296-3.3085-1.5743-2.7239-1.1045-4.8131-0.38485-3.5884-0.53975-4.743-2.6839-2.7238-2.214-1.2195-1.1895-2.7988-1.9542-2.9337-2.034-4.0781-2.7588-3.6634-2.0341-3.3785-1.8042-1.3644-1.1045-2.5838-1.0296-2.5089-1.3394-0.8696-0.38981-1.5743-0.79968-3.2436-0.38487-2.0191 0.155-1.3594 0.0802-4.1532-1.0296-3.3785-0.95461-1.7143-0.53975-1.9491 0.155z" fill="#abacda" id="Katihar" />
  <path d="m111.17 63.471h0.0697l0.41984-0.46476 0.20997-1.0296 0.8696-0.69471 2.3041-1.1045 1.0795-1.1095-0.65474-2.5239 2.229-0.08025 0.63475-0.07479 3.1736 1.6493 2.0841 2.214 0.13984 0.22983 1.7142-0.87456h1.5743l1.7142 1.1845 2.7238-3.7834-0.4248-1.1045 0.13985-0.79961-0.27969-0.94958 1.4993-1.6493 0.72972-1.9591 3.4535 1.4143 0.13517 0.15503 0.72968 1.1045 1.5044 0.79965 0.79964 1.7243 2.304 0.45974 0.41981-0.9495 1.4293-1.2645v-1.6493l0.72973-1.1844 2.7938-1.5744 2.0191-1.5693 1.0846 1.8792 1.0096 1.7243 0.20996 0.79957-1.2894 1.6494 1.8542 0.08025 2.0191 0.4648 0.20996 0.61972-1.4994 1.4143 1.8542 1.9592 1.8592 1.4943 4.4629 2.2191 2.9337 1.4144 0.79969 3.2985 1.7092 1.2594 1.7143 0.46476 1.7142-0.79961 0.27968-2.5239 1.5743-2.3689 1.7892-1.1045 1.1445-1.0296 3.3836-2.9087 1.4993-0.61473 0.4948-0.95461-0.4948-2.214 0.93958-0.61972-0.65471-1.4144 1.4294-1.4143 0.49483-2.0392-1.3594-5.0476-0.13991-0.4648 1.3644-1.7243-0.49479-1.4944 0.79965-1.4943 0.56474-0.61972-0.1399-1.5693 4.6729 1.8792 1.7093 1.2644 1.5743 1.2644 1.4344 1.6493 1.2195 1.6443 0.79961 1.1095 2.0191 1.2595 1.5743 0.61473 1.7842 1.3444 1.3644 0.87456 0.79963 1.0296 1.0146 1.1845 0.7247 0.79965 0.49479 1.1045 0.48981 0.4648 0.72961 1.2645 0.65473 0.94954-0.13991 0.61972-0.63468 1.2645-0.41981 0.79961-0.72469 1.6493-0.86961 1.5743-0.20996 0.87464 0.72972 0.4648 1.3643 0.4648 2.369 1.2644 1.4294 1.2644 0.28515 2.9087-0.79957 2.1391-0.42484 1.5743-1.8542 0.79961-1.8592 0.30968-2.5089 1.7242-1.2944 0.61976-1.8542 1.7992-1.3644 1.0296-3.3836 2.294-2.0191 1.9592-2.4439 1.3394-1.7842 0.61976-1.8542 0.8746-2.5139 1.5693-2.0891 1.7292-2.7938 1.8792-1.2944 1.7243-1.2894 1.1045-1.7143 0.95461-2.1591 1.7992-2.0891 1.3394-1.2895-0.15503-2.234-0.79965-2.8638 0.15503-2.3689 3.9382-0.86965 1.4194-0.27969 1.4144-1.0096 1.5742-2.0891 2.0342-1.1495-0.0748-2.229 0.15503-2.5839-0.0799-2.7938 2.5239-0.35487 0.87463-0.79964 3.8633-2.159 2.6788-2.369 2.4489-1.2195 3.2186-2.234 2.9887-0.86459 3.7084-1.2194 2.449-1.0096 2.6788-0.63476 2.5239-0.34981 1.7992 0.27969 2.7588 1.2195 1.4144 1.8592 0.4648 0.58477-0.0802 2.5139 0.54472 1.1445 0.155 1.3595 0.30968 1.0146 0.155 1.2195 0.79965 0.7296 0.79966v1.7242l0.55977 0.46479-0.0701 1.4194-4.6729 5.3577-0.72972-0.95457-3.3785-2.0341-4.6728-1.2644-5.8174-3.2936-1.9491-3.3735v-3.0637l-0.86961-3.6334 0.28514-3.2986-1.6443-6.1274 0.20996-1.4944 0.35487-2.4489-0.58474-2.6788h-0.27969l-4.1583-4.253-3.3086-6.462 1.0846-7.2368-1.0846-6.1325-1.6393-2.6788-1.7142-5.2027 0.56476-2.3689-0.56476-4.253-1.0795-3.3685-0.28514-3.7134 1.3644-2.9887v-2.4439l-1.0795-3.6334v-4.1182z" fill="#f9d3c6" id="Kisanganj" />
 </g>
 <g fill="none" stroke="#345">
  <path d="m8.7033 172.86 6.3001-1.2402 2.1 2.4804 3.1501-8.6816 3.1501-7.4413-3.1501-6.2012 6.3001-7.4412 6.3001-16.123-1.575-8.0614-0.52501-6.8212 1.575-7.4413 3.6751-8.6815 3.675-8.6815v-6.8212l1.05-6.8212v-2.4804l-2.6251-3.7207 4.2001-3.1005 7.3502 1.8603 7.8751-3.7206 3.6751 7.4413 4.2001 3.7207 5.7751 0.62012 5.7751 0.62009 2.625-4.3408 6.8251-1.2402 5.2501-0.6201 3.6751-1.8603h3.6751l3.1501-2.4804 5.7751-0.62015 4.7251-0.62009 5.2501-1.2402 4.7251-0.62012 5.7751-0.62009 4.7251-1.2402 8.9252-3.1005h4.7251l6.8251-1.8603 6.3001-1.2402 3.6751-4.9609 4.7251-4.3408h6.8251l6.8251-6.2011 8.9252-3.7206 14.7-7.4413 12.6 6.2011 1.575 6.2011 7.8752 6.8212 5.2501-1.2402 2.1-4.3408 4.7251-3.1005h8.9252l18.375 0.62009 2.6251-3.7206 4.7251-1.8603 5.2501 0.62009h20.475l7.3502 3.1005 3.1501 4.3408 2.625 6.2011 1.05 2.4804 1.5751 5.581 9.4502 4.3408 13.65 9.3016v4.9609l3.675 1.8603 1.05 8.0614 2.1 6.8212 3.6751 9.9218 2.6251 11.782-0.52507 11.162 0.52507 12.402 5.7751-2.4805 9.4501-1.8603 4.2001-6.2011 6.8252-3.1006h5.2502l4.2001 0.62013 2.625 3.1005 2.1001-9.9218 2.625-10.542-0.52498-7.4413 13.65-17.983" stroke-width=".5px"/>
  <path d="m17.103 174.1 5.2631 3.1699 3.1578 0.63398 0.52631 6.9738 1.5789 1.2679-1.5789 3.8039 2.6315 3.1699 4.7368 0.634h3.6842l6.842 3.1699 5.2631-0.63398 5.7894 4.4379 4.2104-0.63398 6.3157-0.63398 2.6316-1.268 7.8947 1.268 11.052-0.63401 7.3683-6.9738h9.4736l3.6842 3.8039 3.6842 7.6078 5.2631 4.4379 1.0526 5.0719 6.842 1.2679 5.7894 2.5359 3.1579-3.8038 1.5789-1.902 2.1052-3.8039h4.2105l3.6841 1.902 4.7368-3.8039 4.7368 2.5359h4.7368l7.8947 1.268 5.2631-3.1699h16.316l5.2631-1.902 0.5263-5.0718 2.1053-3.1699 4.7368-5.7058 12.631-0.63396 5.2631 6.3398 6.842 5.7058 3.6842 2.5359 6.842 4.4379 6.842 1.9019h17.895l3.1579-2.5359 5.2631 1.9019 2.1052 2.5359h4.7368l5.2631 1.902 6.842-0.63397 7.3683-2.5359 8.421-0.63402 7.3684-10.144v-5.0718l8.9473-10.144 4.2104-4.4379 6.3158-6.3398 0.52633-6.3398 1.5789-7.6078 4.2105-7.6077 3.1578-8.8758 4.7368-2.5359 5.263-3.1699 2.1053-2.5359" stroke-width=".5px"/>
  <path d="m352.06 136.27v9.6864l5.3269 10.763 3.9952 8.6101 1.3318 5.3813-6.6588-4.8432-7.9904-3.2288-8.6563-2.1525-5.9929-1.6144" stroke-width=".5px"/>
  <path d="m408.24 80.46 0.54562-13.246" stroke-width=".49px"/>
  <path d="m307.43 37.052-1.3978 4.5428-1.7472 10.134 2.7956 4.5428-1.0484 1.3978 0.34947 6.6394-0.6989 4.1933 0.34943 5.9406 7.6878-1.0483 2.7955-2.4461" stroke-width=".42283px"/>
  <path d="m316.52 70.948h4.3492l5.0183-0.63477 3.6801-0.12695h1.3382l3.6801-0.63476 4.3492-0.2539" stroke-width=".49px"/>
  <path d="m306.06 74.448 3.8429 9.6769-0.32023 5.8903 5.1239 8.8354-0.64045 5.4695-1.6013 2.1037 1.281 5.0488-0.96072 8.4147 0.96072 4.6281 0.96072 5.4695-2.8822 3.3659-0.6405 2.1037v5.4696l1.281 3.7866v7.5732l-1.281 4.2073-0.32022 3.7866 2.2417 7.5732 0.32026 5.8903-1.6012 11.781-1.9215 4.2073-1.6012 3.3659-0.96072 7.5732 1.6012 3.3659" stroke-width=".5px"/>
  <path d="m316.52 70.948 4.231 3.4155 7.6158 20.493 5.0772 8.1118h3.808l2.1155 2.5616-0.42308 3.4155-0.42312 2.9886 9.3082 12.808 4.231 8.1118v3.4155" stroke-width=".5px"/>
  <path d="m362.71 170.71h4.4241l2.4131-1.0548 4.4241-1.0548h5.2284l1.2065-2.6369 5.2284 0.52737 0.40222 3.1643h1.6088l2.0109-3.1643 2.0109 2.1095 8.446-1.5821 1.6088 1.5821 0.40216-3.6917-2.0109-2.6369 4.4241-17.404-3.2175-3.1643 0.40222-13.712-11.261-2.1095" stroke-width=".5px"/>
  <path d="m408.95 67.391v-5.6381l-7.777-5.1683-7.7771-6.108-4.9995 2.3492-12.777 8.927h-3.333l-4.444 0.46985-4.444 2.3492-8.3325-0.93969-5.555-0.46985h-4.9995l-5.5551 6.108" stroke-width=".49px"/>
 </g>
 <g fill-rule="evenodd">
  <ellipse cx="316.79" cy="71.792" rx="2.9199" ry="3.0172" stroke-width=".21158"/>
  <g stroke-width=".21158">
   <ellipse cx="409.26" cy="69.239" rx="2.9199" ry="3.0172"/>
   <ellipse cx="363.3" cy="171.82" rx="2.9199" ry="3.0172"/>
   <ellipse cx="352.16" cy="135.39" rx="2.9199" ry="3.0172"/>
   <ellipse cx="8.8957" cy="173.45" rx="2.9199" ry="3.0172"/>
  </g>
 </g>
 <g fill="#000000" font-family="sans-serif" font-size="3.5278px" letter-spacing="0px" stroke-width=".26459" word-spacing="0px">
  <text x="-0.6201247" y="183.19643" style="line-height:1.25" xml:space="preserve"><tspan x="-0.6201247" y="183.19643" font-size="6.3501px" stroke-width=".26459">Patna</tspan></text>
  <text x="352.85822" y="181.57176" style="line-height:1.25" xml:space="preserve"><tspan x="352.85822" y="181.57176" font-size="6.3501px" stroke-width=".26459">Katihar</tspan></text>
  <text x="309.22464" y="66.221329" style="line-height:1.25" xml:space="preserve"><tspan x="309.22464" y="66.221329" font-size="6.3501px" stroke-width=".26459">Araria</tspan></text>
  <text x="415.75552" y="71.791573" style="line-height:1.25" xml:space="preserve"><tspan x="415.75552" y="71.791573" font-size="6.3501px" stroke-width=".26459">Kisanganj</tspan></text>
  <text x="326.63165" y="136.08145" style="line-height:1.25" xml:space="preserve"><tspan x="326.63165" y="136.08145" font-size="6.3501px" stroke-width=".26459">Purnia</tspan></text>
 </g>
</svg>
