<svg width="205.81mm" height="198.28mm" version="1.1" viewBox="0 0 205.81119 198.28308" xmlns="http://www.w3.org/2000/svg">
 <g transform="translate(-2.1703 -58.723)" stroke="#fff" stroke-width="1.1046">
  <path d="m157.52 171.93-0.0641-0.90355-0.88369-1.5354-1.1709-1.3277-0.94775-1.1223-0.64729-1.33-0.0972-1.4647 0.4573-1.3984 0.25627-1.2924-0.61636-1.9574-0.58767-1.0538-0.77763-0.68708-1.0428-1.0538-1.1378-1.2946-1.0427-1.0184-0.94776-1.2614-1.2659-1.2593-1.2349-1.5442-0.58546-1.1908-0.159-0.59649 0.42417-1.1554 0.52137-1.1223 0.71357-1.7519-0.0641-0.98532-0.7136-1.7519-0.77765-1.1908-0.52135-1.0538 0.42637-1.5 0.8395-0.87042 1.0759-0.80196 1.299-0.80193 0.19219-0.9831 0.74451-2.0281 0.71358-1.2239 0.77542-1.7166 1.4691-1.0206 1.5-0.52581 0.83952-0.56114 1.5663 0.20547 1.8822 0.56114 1.0428-0.35569 0.97869-0.32034 1.6613-0.80194 0.83949-0.62963 0.29824-0.13692 1.8845-0.2408 1.0096-0.24079 0.94776-0.49266 1.394 1.1908 0.94554 1.5464 1.1399 1.7166 0.39324 0.87045 1.1068-0.20768 1.7872 0.70032 1.1709 1.0538 0.91681-0.69811 1.2018-1.785 0.61637-1.2592 0.84169-0.80194 1.0096-0.62963 1.1709-0.62962 0.91683-0.27394 1.2327-0.90357 1.0428-0.0685v1.2592l0.19219 0.42417-0.36008 0.7666-0.25628 1.2924-0.1281 1.2946-0.36232 1.5 0.45732 1.1576 0.68044 1.1554 1.2018 0.80196 1.8844 0.83728 1.1046 0.56114 1.14 1.3609-0.0309 1.1908 0.36231 1.3631 0.12809 1.4316 0.58546 0.56114-0.6495 0.49265 0.3623 0.87042 1.5973 0.66499 0.58543-0.73347 0.42639-1.2592-0.1281-0.56114 0.1281-0.35347 0.12588-0.52801 0.68045-0.32032 1.1068 0.59427 0.68043 0.90358 1.33 0.94995 0.71357 0.49263 1.6922 0.20549 1.204 0.27392 1.5973 0.55895 1.0427-0.32034 2.5759-0.10377 1.5973 0.0332 0.58322 0.90576 0.0972 0.59429-0.0309 1.1908-0.25626 1.6149-0.26733 0.98529-0.0309 0.98312-0.42636 1.3277-0.52137 0.9853-0.80858 1.5-1.0428 2.0612-1.2018 2.1761-1.0428 1.3277-1.2018 1.1908-1.5023 1.4316-0.29825 1.0869-0.52137 1.1223-0.61636 1.1908-1.0096 1.0892-2.0877 0.79975-1.7541 0.98529-2.9272 0.98531-1.4691 0.7666-1.8204 0.90577-1.2328 0.98531-1.1709 1.5001-1.0427 1.5796-1.5641 3.5038 0.0309-0.69811-0.48825 0.38881-0.3623 0.59649-0.064 1.4647 1.1709 0.6981 1.2659-0.0685 0.68043 0.13473 0.94775 0.13693 0.97869 0.52802 0.39323 0.73344-0.3623 1.4316v0.8351l-0.52139 2.313-0.26509 0.4573-0.88368 2.313-0.5523 1.3962-1.5951 1.1223-1.14 0.35569-1.7232 0.73346-1.0118 0.23861-1.2018 0.66495-1.5641 0.32035-1.1046 0.56113-1.8513 0.83729-1.4272 1.2946-1.4382 1.9242-3.3204-1.8558-4.7785-3.6054-9.599-2.0943-4.7896 0.49266h-5.7263l-0.9809-3.8484-0.4573-7.5909-1.0737-7.9465 0.42638-0.27394 0.52139-0.27614 1.8182-0.90578 0.49046-0.35349 0.80856-0.56113 1.0096-0.49266 1.5-0.42415 1.1068-0.20545 1.3609-0.10175 1.5641-0.45953 0.68043-0.13693 1.6922 0.49266 1.3631 1.0869 0.88368 0.45729 1.5001 0.98311 0.77543 0.42418z" fill="#f9f6c2"/>
  <path d="m77.651 155.34 7.1932-11.658 1.9154-10.465v-7.1446l-1.9154-6.6541-6.2454-2.8742-2.3727-8.543-1.9176-6.6519-1.9154-5.2557 0.22311-4.9022-1.299 0.35568-1.7232 0.06847-0.74451-0.35568-1.1709-0.07061-1.7563-0.13693-0.94775-0.27615-1.531-0.35567-1.8845-0.03316-1.5641 0.17009-2.1496 0.56116-1.3299 0.49266-2.0546 0.35346-1.9463 0.7666-1.2681 0.35567-0.83951-0.42417-0.80856-0.87042-0.49045-0.83508-0.64952-0.98531-0.49044-0.49266-1.0737-0.23859-0.91462-0.06847-1.0118 0.3888-1.0008 0.73347-1.5641 0.6274-1.1068 0.39104-2.3396 0.7666-1.394 0.10162-1.8822-0.90357-1.6304-0.35568-1.0096-0.52579-1.6613-0.73347-2.1827-0.35567h-2.2136l-1.9176 0.55893-1.2968 0.35568-0.81078 0.30928-1.6591 1.0891-1.394 0.80193-1.3631 0.03531-1.1068-0.90578-1.3609-0.6981-0.91682-0.76881-1.9795-0.98532-0.84171-0.79972-1.0118-1.1554-0.94775-1.1223-0.63846-0.62964-1.1377-0.35346-1.2349 0.27392-1.0759 0.39105-1.2018 0.35346-1.1068 0.66277-0.8395 0.56114 1.2659 0.90577 1.5663 1.3277 1.2349 1.5354 0.6495 2.2424 0.58545 1.6149 1.2018 1.6834 0.52138 0.7666 0.58544 0.9831 0.58323 1.5465-0.1922 1.4316-0.64951 0.9853-0.71357 0.90357-1.5641 1.5818-1.6923 2.0259-0.77764 1.4647-0.45731 2.0281 0.45731 1.2592 0.03094 1.4647 0.16127 1.6149 1.1709 1.5464 1.2681 0.90578 1.394-0.80414 0.45731-0.80196 1.3609-1.0538 1.5973-1.4669 1.3631-1.2946 1.4382-0.24082 0.80857 0.0353 0.80858 0.49265 1.6282 0.62962 1.5001 0.66498 1.394 0.7666 1.6282 0.56113 2.0214 0.42417 2.3749-0.24082 1.5001 0.0353 1.1377 0.83508 1.14 1.8204 0.1922 0.62962 0.42638 0.7666 1.2327 1.8889 1.3631 1.7519 1.1377 0.70033 2.0855 1.0538 1.9176 1.2592 1.6282 0.87043 2.2446 1.2946 1.5001 1.0538 1.394 1.5001 0.55232 1.1223-0.12588 1.2946-0.29826 0.9831-0.88368 1.3984-0.85054 1.8204-0.77764 1.3631-0.52138 1.6834-0.29603 0.87043-0.33138 1.2593-0.3623 1.2592-0.42638 0.77764 0.22534 1.5001 1.2018-0.59428 1.5332 0.83509 1.5973 1.3962 0.22313 0.83728-0.03092 1.3962-0.3623 1.1908-0.03312 1.2261 0.3623 1.2946 0.61637 1.0538 1.5001 1.1908 0.91462 0.62962h1.1399l1.3299-0.4573 1.9905-0.87043 1.8822-0.90578 1.1709-0.83728 1.6613-0.49267 2.5318-0.35348 1.2349-0.0685 1.5641 0.42195 2.4699-0.13693 1.5001-0.20546 2.0855 0.69812 1.6591 0.69812 1.436 0.20766 1.5641 0.35567z" fill="#c8e3c3"/>
  <path d="m134.87 164.34-1.394-0.17232-0.88368-0.0685-0.64951 0.17232-1.0428 0.0332-2.1805-0.20547-1.204 0.0685-1.5332-0.24081-1.6282 0.73347-1.6923 0.69811-1.1709 0.49264-0.74453 0.70033-0.61856 0.42197-0.61638 0.80193-0.91462 0.59428-0.8417 0.42197-0.1922 0.76659 0.0949 0.83728 0.0949 0.62964 0.0332 0.83507 0.45729 2.2777-1.0428-1.0184 1.0428 1.0184 0.1922-0.52576-0.1922 0.52576-1.0428-1.0184-0.42638 0.0685-0.93448 0.69812-0.97869 0.56114-1.2018 0.13693-1.14 0.35567h-2.8631l-1.5 0.23861-2.5759-0.27394-1.2659-0.10377-1.109-0.76661-0.7445-1.0538-0.94774-0.8351-1.299-1.0538-1.8204-0.83509-0.77765-0.27615-2.0855-0.13693-0.49044-0.17232-0.45731-0.10377-1.1709-0.42416-1.045-0.62963-0.74452-0.62964-0.94772-0.6981-1.0737-1.0184-1.5001-1.5818-0.97869-0.56113-1.4249-0.56115-1.9154-0.13693-2.5008 0.52801-0.91461 0.23859-1.0427-0.13693-0.45732-0.90578-0.03092-1.1223-0.03312-1.1908-0.64951-2.587-0.33137-1.5442-0.06405-0.70032-0.12809-0.56114 7.1932-11.658 1.9154-10.465v-7.147l-1.9154-6.6542-6.2476-2.8742-2.3727-8.543-1.9154-6.6519-1.9154-5.2579 0.22313-4.9 0.45731-1.4647 0.58544-0.76659 0.80856-0.9058 1.235-0.03316 1.3609 0.17232 0.94775-0.56114 0.68043-1.8204 0.74451-1.1223 1.1068-1.0538 0.7445-0.83728 0.36231-0.69812 0.52137-0.9853 1.4691-0.45952 1.2018 0.32034 0.94776-0.13693 0.3623-0.63184 0.39324-1.1885 1.0759-1.0891 1.0118-0.32034 1.0427-0.20544 1.7563-1.4316 0.71358 0.87043 1.5641-0.03534 0.77766 0.66497 1.1709 1.1223 0.68044 1.1223 1.5973 1.2946 1.8513 1.0891 1.3299 0.13693 1.1378 0.06847 1.5641-0.13693 0.77764-0.49266 1.1378-0.20766 0.68044-0.13693 1.2349 0.35567 1.4691 0.06846 1.2968-0.06846 1.9905-0.56114 0.77765-0.30928 3.1614-0.59649 0.88369-0.59428 1.4691-0.87043 0.80856-0.6981 0.77546-0.80416 0.42415-1.2592 0.22535-0.98531 0.48824-0.94996 1.0427-1.0538 0.15901-1.2261 0.22313-1.4316 0.94776-0.87043 1.0427-0.80414 0.74452-0.87043 1.2681-0.66497 0.52141-0.66497 0.0332-0.5258 0.22309-0.70031 0.88371-1.0538 1.2349-1.1576 0.0641-0.87043v-1.1908l0.61639-0.70032 0.19219-0.42195 0.16122 0.2408 1.2018-0.2408 0.94554 0.30928 1.8204 0.98531 1.0427 0.13693 0.74451 1.0869 0.91461 1.6834 0.88369 1.2261 0.61637 0.87043 0.94776 1.1908 1.2659 1.8889 0.91461 2.0965 0.28719 1.7519 0.94775 1.6834 1.0118 1.2261 1.0428 0.90356 1.299 1.0207 1.6282 1.5001 1.436 1.1576 0.94777 0.63183 1.1399 1.1201 1.4691 1.8911 0.64729 0.9853 1.9154 1.7188 0.32918 1.9242 0.4595 0.73125 1.2018 2.6577 0.88369 0.94998 1.8204 1.6149 1.7541 1.4669 0.0972 1.1554 0.42417 1.0184 1.299 0.98531 2.4368 0.90358 1.8513 0.0685 0.77764-0.13914 2.1827 0.98531 1.8514-0.13693 0.94775-0.6981 0.0311-0.76659-0.0311-0.49266-0.39324-0.90577-0.15901-0.98531 0.39323-0.56114 0.84172-0.10377 0.80856 0.17232 1.3609 0.62961 1.1709 0.20546 2.4036 1.1223 0.55451 1.3984-0.15902 1.6149-0.25626 0.98532-0.77542 1.3277-1.4691 1.7873-1.0118 1.3631-0.77544 1.2261-0.0332 1.4647 0.22534 1.7873-0.0949 1.0538-0.32917 0.62964-0.49045 1.8557 0.84171 0.94997 1.1709-0.0707 1.109-0.45728 1.5001 0.13693 1.8845 0.3888 0.5523 0.62965 0.33139 2.5892 0.58544-0.56115-0.0641 0.62964-0.0641 0.73125v0.83729l-0.0309 0.98531-0.19221 0.80193-0.064 1.3277-0.0332 0.83508-1.0427 0.0685-1.2349 0.9058-0.91683 0.27394-1.1709 0.63182-1.0096 0.62962-0.84171 0.80196-0.61636 1.2592-1.2018 1.7872-0.91681 0.6981-1.1709-1.0538-1.7873-0.6981-1.1046 0.20547-0.39546-0.86823-1.14-1.7188-0.94554-1.5442-1.394-1.193-0.94779 0.49264-1.0096 0.24303-1.8823 0.23859-0.29825 0.13915-0.83951 0.62961-1.6613 0.80193-0.9787 0.32034-1.0427 0.35569-1.8823-0.56114-1.5641-0.20546-0.84169 0.56115-1.5001 0.52578-1.4691 1.0207-0.77546 1.7166-0.71356 1.2261-0.74671 2.0258-0.19221 0.9831-1.299 0.80195-1.0759 0.80193-0.83949 0.87044-0.42639 1.5 0.52137 1.0538 0.77764 1.1908 0.71359 1.7519 0.064 0.9831-0.71356 1.7519-0.52138 1.1223-0.42416 1.1576 0.15901 0.59649 0.58546 1.1885 1.2349 1.5442 1.2659 1.2615 0.94774 1.2614 1.0428 1.0184 1.1378 1.2946 1.0427 1.0538 0.77763 0.66497 0.58764 1.0538 0.61637 1.9574-0.25627 1.2924-0.45731 1.3984 0.0952 1.4647 0.64732 1.3299 0.94773 1.1223 1.1709 1.3277 0.88368 1.5354 0.064 0.90357-1.2018 0.13914-0.77764-0.41312-1.5-0.9831-0.8837-0.4573-1.3609-1.0869-1.6923-0.49266-0.68044 0.13693-1.5641 0.45951-1.3631 0.10163-1.1046 0.17231-1.5 0.45731-1.0118 0.49267-0.80856 0.56112-0.48824 0.35348-1.8204 0.9058-0.52136 0.27612-0.42639 0.27396-0.74451 0.13693-0.52137-0.0707-0.80857-0.69811-0.32918-0.27394-0.4573-1.1223v-0.80196l-0.0309-0.68705 0.15902-1.1223 0.42417-0.5258 0.45951-0.49267 0.55232-0.42194-0.12809-0.49266-0.97868-0.42417-0.61638-0.98309z" fill="#f9d0d0"/>
 </g>
 <g fill="none" stroke="#000">
  <path d="m174.06 99.393v3.7011l0.23755 2.908-2.1378 1.3218-3.3254 1.0575-0.23751 3.1724-0.7126 2.3793 2.1377 1.0575-1.4251 2.1149 0.47502 2.3793 0.23754 1.5862-1.9002 1.5862-2.6128 0.79309-2.5151 0.10735-1.313 0.97427-0.58358 1.7862-1.313-0.32476-0.29177 0.64951-2.6261 0.16237-2.0425 1.1366-1.313 1.4614-0.72946 1.6238-0.58357 2.598-2.3343 3.0852-0.87535 1.4614-1.4589 1.4614-3.0637-0.32476-1.4589 1.299-2.3343-0.48713-1.6048 0.6495-1.313 1.4614-0.58356 2.2733 1.1671 2.9228 0.29178 1.7861-2.0425 1.299-0.87536 2.598 0.14589 2.1109-1.313 4.3842 0.1459 2.9228-5.2521-0.32476h-1.0212l-1.1672 2.1109h-8.3159l-2.772 0.32475-2.3343 1.1366-2.4802-0.48714-1.8966 1.1366v0.97426l-1.4589 0.97426-1.1671 1.7861-2.772 0.48714-1.4589 1.4614-2.0425 0.16238-1.4589-0.32475-3.2096-0.97427-0.72946 2.9228-0.87535 1.9485-2.0425 1.299-1.6048 3.7346-1.8966 0.64951-1.6048 1.9485-2.1884 0.48714-1.7507 0.32475-1.313-0.64951-2.772 2.598-1.8966 0.6495-6.711-0.16236-4.5227 3.897-1.1671 0.97425-0.43768 1.7862-5.1062 2.4356" stroke-width=".5px"/>
  <path d="m189.42 93.996-0.67156 3.0891 1.0745 1.746 0.13431 2.4176-1.3431 0.13431h-0.94016l-2.4176-0.94017-3.2234-0.26861-2.8205-0.13431-2.5519-0.26862-2.5874-0.37851" stroke-width=".5px"/>
  <path d="m125.5 73.931 0.4009 2.4651-2.0045 0.5478-3.2072 6.0257-1.2027 1.6434-0.80178 0.5478h-1.2027v1.6434l-0.60134 1.0956-2.2049-0.82168-0.40091 1.0956h-1.4031l-1.804 2.1912h-3.0067l-0.80179 3.0129-2.0045 0.82168-1.2027 3.2868-1.6036 0.2739-1.2027 1.0956-5.4121-1.9173 1.2027 4.1084-0.40091 2.4651 1.2027 1.0956-0.80178 1.6434 2.0045 1.9173-0.4009 2.1912v3.5606l-1.6036 3.2868-3.4076 1.6434-3.0067 3.5607-1.4031 0.5478-1.0022 1.9173 0.60135 1.3695-1.6036 2.739-1.4031 0.5478-1.6036-0.5478-3.0067 1.0956-0.20045 3.0129-1.2027 4.3824 1.0022 3.8346-1.6036 4.6562-2.8063 3.2868-1.6036 3.2868-5.4121 6.8474-2.6058 2.4651-1.2027 1.3695-1.0022 3.8346-3.2072 4.3823-0.20045 9.3125-0.80179 2.739v3.2868l-1.6036 5.204-0.20045 3.8346" stroke-width=".5px"/>
  <path d="m82.327 67.026-2.9046 1.7675-1.3555 2.8279-1.1618 6.7163-1.9364-1.0605v5.3024l-1.5491 1.7675-1.5491 1.7675-1.5491 2.1209 0.38727 4.2419-1.7427 1.0605-2.13-1.0605-1.1618 3.1814h-2.13l-0.38727 3.8884-0.77455 1.7675-0.38727 4.5954h-1.5491l-0.77455 5.3024 1.3555 13.786 1.3555 2.8279-0.58091 2.4745-0.58091 10.251 1.1618 2.121h1.9364l0.58091 3.8884 0.96819 3.1814-1.3555 1.7675 0.19364 5.6558-0.96819 2.8279 1.1618 5.6558" stroke-width=".5px"/>
  <path d="m185.26 100.43-2.7088-2.3474-4.8758-2.7085-0.54175 0.90284-1.9865 0.18057-0.54175-0.72227v-1.4445l-7.404-3.9725-6.1399-0.36113-1.9864-0.72226-1.6252-0.90283-0.18063-1.9862-5.0564 0.36113-2.5282-0.90283-4.5146-1.6251-0.72235 0.72227-1.6253 1.0834-1.9864-3.4308-1.8058-1.0834-2.5282-2.3474-8.8487-3.9725-7.7652-3.6113h-2.167l-0.36117 1.0834-1.8059-0.36113-1.2641-1.264-0.90292 0.5417-3.2505-1.4445-2.7088-1.264-2.8894-1.6251-3.0699-1.0834-3.07-0.72227-2.167-1.0834-1.8059-1.4445-3.6117-0.18057-0.36117 1.264-1.6253 1.264-1.0835 0.36114-2.167 0.5417-1.6253 0.36113-1.6253 0.5417" stroke-width=".5px"/>
 </g>
 <g fill-rule="evenodd" stroke-width=".39504">
  <ellipse cx="58.511" cy="194.01" rx="3.8294" ry="4.057"/>
  <ellipse cx="189.45" cy="93.993" rx="3.8294" ry="4.057"/>
  <ellipse cx="126.3" cy="74.589" rx="3.8294" ry="4.057"/>
  <ellipse cx="82.904" cy="66.828" rx="3.8294" ry="4.057"/>
 </g>
 <g fill="#000000" font-family="sans-serif" font-size="3.5278px" letter-spacing="0px" stroke-width=".26459" word-spacing="0px">
  <text x="70.204102" y="197.00569" style="line-height:1.25" xml:space="preserve"><tspan x="70.204102" y="197.00569" font-size="6.3501px" stroke-width=".26459">Raipur</tspan></text>
  <text x="67.029037" y="59.419586" style="line-height:1.25" xml:space="preserve"><tspan x="67.029037" y="59.419586" font-size="6.3501px" stroke-width=".26459">Baikunthpur</tspan></text>
  <text x="121.35791" y="64.711365" style="line-height:1.25" xml:space="preserve"><tspan x="121.35791" y="64.711365" font-size="6.3501px" stroke-width=".26459">Ambikapur</tspan></text>
  <text x="176.74513" y="86.231232" style="line-height:1.25" xml:space="preserve"><tspan x="176.74513" y="86.231232" font-size="6.3501px" stroke-width=".26459">Jashpur</tspan></text>
 </g>
</svg>
