<svg width="206.45mm" height="148.54mm" version="1.1" viewBox="0 0 206.45099 148.53685" xmlns="http://www.w3.org/2000/svg">
 <g transform="translate(-2.6061 -73.433)" stroke="#fff" stroke-width="1.1909">
  <path d="m174.86 105.09 1.16 8.5677 0.49305 8.1866 1.0552 4.1469h6.1739l5.164-0.53115 10.352 2.2604 5.152 3.8872 3.58 2.0008-1.2291 0.97419-1.6506 1.0623-1.8245 0.53117-1.4696 0.3835-2.2152 0.82652-1.6173 0.64073-1.8245 1.0242-1.684 1.21-0.95276 1.21-0.62166 1.6554-1.4339 1.9651-0.73362 1.2457-0.24059 1.3196 0.069 0.75265 0.49307 0.67886 0.45969 0.75505 0.45734 1.3577-0.17145 1.0599-0.87177 0.93845-0.70029 0.86464-0.80269 1.0599-0.35729 1.4315 0.2763 1.21 0.17145 1.9246 0.0333 1.2481 0.27632 1.5054 0.49304 1.8912 0.98611 1.0242 0.52877 0.78838 1.4006 1.7793-0.0357 1.0242-0.98612 1.1719 0.069-1.0242-0.6312 0.45732-0.95276 0.56691-0.52639 0.30726-0.63119 0.53116-1.4339 1.1743-1.4339 0.38347-1.1243-0.11186-1.0552-0.10958-0.56212 1.815 0.069 1.6673-0.17145 1.9627-0.35488 1.21-0.7789 0.71696-0.56212 0.90034-0.6312 0.82655 0.0333 1.2838-0.17145 1.0623-0.28581 0.67882-0.10472 0.30965-1.0909 0.90274-0.73365 0.90035 0.069 1.1743-0.66453 0.93848-0.24059 0.29773-0.83842 1.4315-0.10243 1.5077-0.80508 1.7769-0.6312 1.8888-0.76934 2.1842-0.17144 2.0008 0.87178 2.1103 1.503 1.7412 1.3315 1.9627 0.98612 2.3104v1.0981l-1.0909 1.0623-1.1933-0.0738-0.80271-0.0357-1.7912-0.56929-1.0218-0.2215-2.3843-0.38348-0.24055 0.15002 0.24055-0.15002 0.0357-1.5054-0.87177-0.90036-1.0576-0.97657-1.584-0.90035-1.1933-0.3811-1.7221-0.71696-1.4005-0.53117-0.83845-0.18581-0.80268 0.53119-0.21915 0.58116-0.66454 0.97424-0.20722 0.67883-0.3549 0.64308-0.90514-0.0381-0.90512-1.0623-0.17144-0.8265-0.24297-1.1362-0.45729-0.75267-0.59786-0.8265-1.1243-0.45735-2.1461-0.53115-1.6173-0.7884-0.95274-0.86463-0.83605-0.75267-1.1933-0.53119-1.2958-0.22152-0.42398 0.90035-0.80507 0.67885-1.2958 0.45733-0.6312 0.82652-0.87415-0.11186-1.8579-1.098-1.653-1.5816-0.17145-1.2838-0.3573-1.6173-0.069-1.9984 0.56216-2.0389 1.2624-1.815 0.80269-2.1104 0.17144-1.6173 0.62883-2.1485-0.66459-1.322 1.8246-2.1842 1.2981-0.41922 1.0885-0.53116 1.7578-1.0623 2.7773-0.60502 1.0552 0.14762 2.3509 0.93845 1.1242 1.1005 0.66455 0.75266 2.2152 1.815 1.2624 0.90035 1.0218 0.45729 3.1227 0.53119 0.24056 0.29536 0.39064 0.14762 0.42634 0.0739 0.39064 0.15002 0.35491 0.14762 0.3549 0.18577h0.66455l0.80509 0.34537 1.5363-0.0739 1.3982-0.11187 0.35486-2.3081-0.45969-0.33345-0.42397-2.4581-1.0909-3.1727-1.5363-2.2223-0.95275-1.2481-0.59786-1.2838-1.4673-1.21-1.0909-2.42-0.24056-1.21-0.32156-1.8888-0.76937-1.815-2.2485-1.4696-1.6173-1.0981-1.6506-0.82651-1.2981-0.60499-1.7221-0.3454-1.0885-0.49304-1.1266-0.53117-1.0314-0.79077-0.83844-0.60501-0.42397-0.7908-0.35728-1.9984-0.28821-1.5792-0.73362-1.3196-1.2981-1.3219-1.3196-0.83844-1.1242-0.25962-1.2958-0.86462-0.6312-0.86464-0.49305-1.0242 0.63121-1.36 0.95276-0.75269 0.9861-0.49541 2.1461-0.3454 2.4224-1.2457 1.5363-0.79078 0.70029-1.4315 0.3573-1.1362-0.0453-1.7769-0.59785-2.2223v-2.0389l-0.24057-2.1104v-2.7892l0.32154-1.5077 1.2981-1.6674 1.8579-1.1004 1.0552-1.098 0.59546-1.1362v-0.9766l-0.3549-0.71456-2.2509-3.3609-0.17144-0.89799-0.23817-2.1866 0.069-2.5677 0.45733-1.0623 0.32392-1.7412-0.52878-0.75267-0.20721 0.56688-1.1243-1.098 1.1243 1.098-0.49781-2.4557-0.0333-0.90035-0.10243-0.67884-0.10473-0.90273 0.20722-0.82654 0.90751-0.45493 0.98611-0.64072 0.66693-0.86466 0.66455-0.45493 0.80268-0.75505 1.2624-0.53116 1.8245-0.75269 1.7555-0.79078 1.653 0.25962 1.2958-0.07382 2.3533 0.22152 1.1242-0.03572 0.70029-0.1858 0.95276 0.07382 1.503 0.18579 0.98609 0.5669 0.66455 1.0623 1.0552 0.45733 0.13811 0.53115-0.59548 0.45733-0.49304 0.53117-0.45972 0.5669-0.19533 1.1862 0.0333 0.75268v0.86464l0.49305 1.21 0.3549 0.29774 0.87178 0.75268 0.56212 0.0738z" fill="#d0d5ec"/>
  <path d="m106 178.99-0.70028-10.421-1.0218-8.7535 2.0318-8.1866 3.1203-6.1477-8.2723-5.6666-10.842-4.073-4.6352-12.31-1.0218-10.79-3.6133-10.79-0.52638-6.1096 0.31917-8.7535h-1.2267l-0.9885-0.68121-1.6173-1.2815-0.66693-1.1362-0.39064-1.3958 0.03572-1.3219 0.39062-1.2815 0.03333-1.5077-0.24057-0.90036-1.7221-1.5054-1.653-0.90034-1.2958 0.64072-0.23105-1.6554-1.1242 0.07382h-0.94085l-1.0576 0.29774-0.56212 0.56688-1.0552 0.71697-0.59785 0.97657-0.76936 1.0242-1.0576 0.86462-0.87177 0.53118-0.8027-0.22152-1.7555-0.67885-1.0909-0.2215-0.6979-0.14763-0.9075 1.0599-0.49306 0.86462-0.24057 0.93847 0.59786 2.3462 0.1715 1.4315v1.0981l-0.45971 2.3104-1.8245 1.21-1.9293 1.5054-2.0651 0.97419-1.7221 1.4315-1.8936 1.6673-0.42398 1.2481-0.06906 0.82652 0.66455 1.1362 0.5264 1.6173 0.13814 1.4696-0.06906 1.16-0.45732 1.4696-0.45971 0.93847-1.3672 1.5078-0.9861 1.6649-0.45971-0.2215-0.32156 0.82649v0.38348l-0.03332 1.1362-0.1715 0.82652-0.9075 1.0623-0.83605 0.75507-0.76935 0.38109-0.66455 0.605-1.0552 0.9766-1.2267 1.3934-0.73362 1.1005-0.56212 0.86461-1.1576 1.2481-0.90511 0.45731-1.1933 0.29537-0.90511 0.38347-1.7221 0.22392-1.4339 0.60499-1.8936 1.1362-1.0909 0.82652-1.1909 0.41921-0.59786 0.49303-0.66693 0.90037-1.0552 1.1386-1.927 1.1361-1.0909 1.1361-0.8027 0.7527-0.42398 0.605-0.87178 0.67882-0.24057 0.90274-0.52878-0.0357-0.8027-0.8646-0.42398-1.2457-0.70028-2.2604-1.4339-1.9246-0.66455-0.605-1.4006-0.75509-0.76935 0.3835-0.59547 0.90038-0.52878 1.0623-0.6312 0.68124-1.1957-0.49541-1.4672-0.64073-0.66455 0.82652-0.56213 1.21-0.66455 0.60501-0.95276 0.42156-0.2763 0.34776-0.42398 1.5435-0.4478 0.6169-0.32156 0.56688 0.20723 0.75267 0.59547 0.53118 1.1243 0.86463 1.0218 0.29536 1.0218 0.4192 0.73362 0.79081 0.9075 0.29533 1.4339 1.0981 0.24057 1.1004 0.20722 0.60504 1.2291 1.2814 1.4339 1.2481 0.95276 1.2481-0.1715 1.1719-0.39063 0.93844-0.66455 0.67888-0.5264 0.90033-0.1715 0.90037 0.6312 1.2862 1.7888 2.4176 1.16 1.5435 0.52878 0.93846 1.1576 1.5816 1.1243 1.21 0.59547 1.5792 1.1576 0.75271 0.87177 0.90034 0.70028 0.38346 1.0552 0.52881 0.87177 0.14762 0.06907 1.3601 0.76935-1.0242 1.2958-0.0739 1.8245-0.10957 1.2624 0.22153 1.0552 0.67883 0.80508 0.14762 0.87177 0.29535 0.66455 0.0739 0.59547-0.45733 0.87177-0.75268 0.52879-0.56928 0.5264-0.64072 2.1008 1.3577 1.0909 1.2862 1.584 1.4315 1.3315 0.82891 1.503 1.4696 1.1242-0.11187 1.653-0.22151 1.7555-0.11187 1.653-0.0381 1.2958 0.45732 1.1933 0.52879 1.1576 0.67883 1.503 1.0623 0.39062 0.30726 0.98611 0.60502h0.9861l1.2958 0.3811 1.3672 0.97657 1.0552 0.86463 0.4597 0.71694 0.90513 1.5816 0.24296 1.1362 0.42397 1.7031 0.90751-2.1485 1.3291-0.60499 0.73363-0.45732 1.4696-0.29774 0.90512-1.06 1.0909-1.1362 0.45733-0.97658 0.98848-0.60499 1.503-0.18579 1.6864 0.33347 1.4672 0.8265 1.2981 0.86462 1.4672 0.71695 1.8245 0.49545 1.0218-0.1858 1.4006-0.49544 2.0984 0.56929 1.0576 1.6173 0.76937 1.665 0.45731 1.5434 0.45971 0.97421 1.6888 0.79079 1.6864 0.0357 2.5939 0.67883 0.66455 0.67883 0.9861 0.90036 1.2291 1.1362 1.3315 0.82653 0.83603-0.0738 1.7221-1.1362 2.0651-0.53116 0.83843-0.33348 1.1576-0.79078z" fill="#f9d0d0"/>
  <path d="m109.43 145.47 3.0869-4.1111 5.152 1.5435 3.6134 4.0754 5.6808-2.5677 5.1521-1.5077h4.1421l5.3688 2.258 0.49546 1.0266 0.66453 0.86702 1.2624 0.86224 1.1242 0.25964 1.3315 0.82648 1.2981 1.3196 0.73366 1.3195 0.28818 1.5816 0.35727 1.9984 0.42398 0.79081 0.83843 0.605 1.0218 0.82652 1.1242 0.53116 1.0885 0.49541 1.7221 0.3454 1.2981 0.60499 1.653 0.8265 1.6173 1.1005 2.2485 1.4672 0.76937 1.815 0.32155 1.8888 0.24058 1.21 1.0909 2.4176 1.4673 1.21 0.59545 1.2838 0.95274 1.2457 1.5363 2.2223 1.0909 3.1727 0.42398 2.4581 0.45969 0.33347-0.35493 2.3081-1.4005 0.11187-1.5387 0.0714-0.80268-0.34537h-0.66458l-0.35486-0.18579-0.35494-0.14764-0.3906-0.15-0.42636-0.0714-0.3549-0.15-0.28586-0.29776-3.1203-0.53116-1.0218-0.45495-1.2624-0.90274-2.2152-1.815-0.66454-0.75269-1.1243-1.098-2.3533-0.93848-1.0552-0.14762-2.7773 0.60498-1.7554 1.0599-1.0885 0.53119-1.2981 0.41921-1.8245 2.1866-1.584-1.2481-1.4339 0.22389-0.66455 0.14763-1.3315 0.0357h-2.1008l-1.6173-0.41922-1.9627-0.60499-1.8936-0.38349-0.90514-0.6431-2.1818-0.18341-1.5482 0.25962-0.80271 0.0739-2.1794-0.49305-1.7912 0.0738-2.4891 0.30966-0.87174-0.0738-2.2152 0.29773-0.95274 0.45495-2.2509-0.41921-2.0651 0.10957-1.7555 0.0764h-2.1008l-0.69786-10.421-1.0219-8.7535 2.0318-8.1866z" fill="#c8e3c3"/>
  <path d="m112.52 141.36-3.0869 4.1111-8.2723-5.6665-10.842-4.073-4.6352-12.31-1.0218-10.79-3.6133-10.792-0.5264-6.1096 0.31917-8.7535 1.4339-0.49305 2.1461-0.93847 2.0318-0.97657 1.26-0.90037 1.7912-0.53116 2.7297-0.38348 1.3315-0.07382 1.6864 0.45731 2.663-0.14763 1.6173-0.22152 2.2485 0.75269 1.7912 0.75267 1.5482 0.2239 1.7221 0.38111 2.0651 1.36 0.13811 0.605 0.0691 0.75269 0.3573 1.6649 0.70027 2.7892 0.0357 1.2838 0.0333 1.2076 0.49305 0.97657 1.1243 0.14763 0.98611-0.25724 2.6963-0.56928 2.0651 0.15001 1.5363 0.605 1.0552 0.605 1.6173 1.7054 1.1576 1.1004 1.0218 0.75269 0.80271 0.67884 1.1266 0.67885 1.2624 0.45731 0.49307 0.11192 0.52876 0.1834 2.2485 0.14764 0.83843 0.29775 1.9627 0.90034 1.4006 1.1362 1.0218 0.89798 0.80271 1.1362 1.1957 0.82652 1.3648 0.11191 2.7773 0.29536 1.6173-0.25962h3.087l1.2291-0.38349 1.2957-0.14763 1.0909-0.605 0.98609-0.75268 0.45972-0.0738 1.1242 1.098 0.20723-0.56688 0.52876 0.75267-0.32154 1.7412-0.45731 1.0623-0.069 2.5677 0.24058 2.1866 0.17143 0.90035 2.2485 3.3585 0.35489 0.71695v0.97657l-0.59548 1.1386-1.0552 1.0957-1.8603 1.1004-1.2958 1.6673-0.32157 1.5077v2.7892l0.2406 2.1104v2.0365l0.59546 2.2223 0.0357 1.7769-0.35729 1.1362-0.70029 1.4315-1.5363 0.79079-2.4224 1.2457-2.1437 0.34539-0.98848 0.49542-0.95275 0.75269-0.63122 1.3601-5.3688-2.2581h-4.1421l-5.1496 1.5054-5.6808 2.5677-3.6133-4.073z" fill="#f9f6c2"/>
 </g>
 <g fill="none" stroke="#000">
  <path d="m117.97 57.062h-2.7136l-2.0751 1.7558 0.95771 1.277 0.31925 1.9154-1.5962 0.95772-0.63848 1.7558-1.277 1.9154h-1.277l-1.5962 1.1173-2.554 2.3943-1.4366 1.277-0.31924 1.1173-2.6318 0.65444-0.84499 1.4486-1.69-0.24143-1.4486 0.36214-2.0521-0.48286-0.84499-0.84499-0.72428-0.24143-3.0178 0.24143-1.4486-0.24143-1.2071-0.12072h-1.2071l-3.0178 1.8107-0.96571 1.9314-1.3278-0.24143-1.3278 1.3278-1.9314 0.24143-1.69-1.2071-1.3278 0.24142-0.36214 2.2936-2.4143 3.8628-4.8285 3.9835-2.4143 3.9835-1.0864 0.36214-8.3292 7.9671-4.4664 3.2592-3.1385 6.3978-3.7421 3.0178v2.2936l-0.60357 0.72428 0.12071 3.0178-0.60356 4.9492 0.12071 1.4486-1.4486 4.8285-0.36214 3.5007-1.69 3.0178-0.36214 1.9314-0.36214 3.38" stroke-width=".5px"/>
  <path d="m173.37 88.517-1.7209 2.9255-1.7209 2.7534 1.5069 2.1769 0.39043 4.0344 1.0411 3.2536v0.52057l-1.6918 0.911v4.6851l-1.822 0.911-0.911 0.78085-0.78085 0.39043-0.911 1.0411-1.0412 0.26029-0.78085 1.0411-1.1713 1.1713h-4.0344l-1.1713 0.911-2.2124-0.52057-1.1713-1.0411-2.6028-0.26029 0.911 4.9454-1.3014 1.1713 0.26028 3.3837-2.0823 1.6918v1.4316l-0.78086 0.39043-0.78085 4.2947-0.78086 0.52056-1.0411 1.6919-1.6918 1.5617 0.26029 0.65072-1.5617 0.78085-1.9521-0.65071-1.9521 0.65071-2.6028 0.52057-1.1713 0.65071-1.1713-0.13014-0.78086-0.39043-3.7741 1.1713-0.52058-0.39043h-0.65071l-2.3426 1.1713h-1.0411l-1.3014-0.13014-0.78086-0.26029-1.0411 0.26029-1.0411-0.65071-1.4316 0.13014-1.0411-0.39043-2.3426-0.13014-0.52057-0.39043h-0.911l-1.6918 1.0411h-0.52057l-0.65072 0.911h-1.5617l-1.1713 1.1713h-1.5617l-1.3014-0.26028-1.6919-0.13014-1.4316 0.26028-2.3426 1.822-0.78086 0.39043h-1.822l-1.3014 0.78085-1.6919-0.13014-1.5617-0.26029-1.5617 0.26029-1.5617-0.26029-2.733-0.52056-1.0411 0.13014h-1.4316l-0.52057 0.78085-1.0411-0.26028-1.5617 0.78085h-0.78086l-1.3014 0.52058-1.5617-0.39044h-1.0411l-1.9521 0.65072-1.6919 0.78086h-2.2124l-2.2124 1.3014-1.0411 0.911-0.78086 0.13014-0.911-0.39043-1.1713-2.0823-1.9521 0.52056-1.0411-0.911-1.6919-0.13014h-1.6919l-2.0823-0.65071-0.78086-0.26029-1.9521-0.39042-1.1713-0.13015-1.3014-0.78085-1.5617 0.13014-0.911-0.26028-1.822-0.39044-1.0411 0.13015-1.4316-0.52057h-4.9454l-1.9521-0.911" stroke-width=".5px"/>
  <path d="m117.97 57.062 1.269 0.0828 0.12071 1.2071-0.24142 0.96569-0.36214 1.4485-2.8971 1.8107 0.60354 2.4142-0.1207 2.2935-0.12072 2.4142-1.0864 2.1728-1.69 2.8971-0.9657 2.8971-0.12071 2.4142-1.0864 0.24142-0.72428 0.48284 0.1207 1.0864-0.48283 0.72427-1.3278-0.24142-2.4142 1.5692-2.7764-0.12071-1.69 1.2071h-1.69l-1.4486 0.48284-1.2071-0.72427-0.84499-0.12071-1.5693 0.36213 0.24142 0.72427-0.72426 2.4142 0.96569 1.5692-0.12071 3.6213 1.0864 0.96569-1.4485 1.69v1.2071l-1.69 0.48284-1.9314 3.3799-0.12071 1.4485-0.36214 1.3278-1.4485 0.96568-0.48285 0.36214-0.60356 1.4485-1.2071 1.3278 0.9657 3.6213-0.60356 2.6556-1.69 3.1385-1.3278 0.48285-0.48285 0.84498-1.2071 0.48284-1.3278 2.1728-0.12071 0.60355-0.72427 0.48286-0.12071 0.84497-0.9657 0.36213-2.0521 1.0864-1.2071 0.9657-0.24142 0.60355-1.5693 0.36212-1.3278 0.24143-1.69 0.12071-1.9314-0.48283-3.1385 2.1728-1.4485 1.5692h-1.9314l-2.4142 0.36213h-2.2935l-1.0864 0.12071-0.9657-0.48284-2.0521-0.12071-5.6735 4.1042-0.60356 0.84499-1.9314 1.8107-0.12071 1.0864-7.0013 3.3799" stroke-width=".5px"/>
  <path d="m100.26 74.635 0.87452 1.9818 0.62466 1.2386 0.74958 0.9909 0.62467 0.74317-0.12494 0.74317 0.74959 2.1057 1.6241 1.4863" stroke-width=".5px"/>
  <path d="m173.37 88.517-1.4088-1.3338-2.287-0.2867-0.14637-0.88503-1.2807-0.38642-2.4334-1.259-2.5614-0.29916-2.3968-1.3712-1.7564-0.11219-0.53059 0.06232-0.80501 0.17451-1.1344 0.89749-1.5003-0.36149-1.5003-0.36149-1.8662-0.23684 0.43911-0.72298-0.78673-0.95982-1.9394 0.59833-0.43911-0.72298-1.5003-1.6205-2.9274-0.66066-0.78673-0.23684h-0.87821l-1.0612-0.36149-0.43911 0.17451-1.1526-0.536-0.34762 0.36149 0.16466 0.47368-1.4088 0.48614-0.78673 1.3213-0.53059-0.06232-0.62206 0.48614-1.3356 0.12465-5.4705 0.36149-4.8484 0.29916-5.3058 1.5582-5.9096-2.8296-1.5369-0.21191" stroke-width=".5px"/>
 </g>
 <g fill-rule="evenodd" stroke-width=".35565">
  <ellipse cx="173.83" cy="88.003" rx="2.3289" ry="2.4597"/>
  <ellipse cx="118.63" cy="57.246" rx="2.3289" ry="2.4597"/>
  <ellipse cx="75.888" cy="77.307" rx="2.3289" ry="2.4597"/>
  <ellipse cx="112.52" cy="80.215" rx="2.3289" ry="2.4597"/>
  <ellipse cx="39.545" cy="142.14" rx="2.3289" ry="2.4597"/>
 </g>
 <g fill="#000000" font-family="sans-serif" font-size="3.5278px" letter-spacing="0px" stroke-width=".26458" word-spacing="0px">
  <text x="54.082027" y="73.81839" style="line-height:1.25" xml:space="preserve"><tspan x="54.082027" y="73.81839" font-size="6.35px" stroke-width=".26458">Bilaspur</tspan></text>
  <text x="109.90605" y="52.012138" style="line-height:1.25" xml:space="preserve"><tspan x="109.90605" y="52.012138" font-size="6.35px" stroke-width=".26458">Korba</tspan></text>
  <text x="161.07809" y="80.796394" style="line-height:1.25" xml:space="preserve"><tspan x="161.07809" y="80.796394" font-size="6.35px" stroke-width=".26458">Raigarh</tspan></text>
  <text x="106.41705" y="90.391151" style="line-height:1.25" xml:space="preserve"><tspan x="106.41705" y="90.391151" font-size="6.35px" stroke-width=".26458">Champa</tspan></text>
  <text x="13.958518" y="143.01694" style="line-height:1.25" xml:space="preserve"><tspan x="13.958518" y="143.01694" font-size="6.35px" stroke-width=".26458">Raipur</tspan></text>
 </g>
</svg>
