<svg width="175.2mm" height="293.41mm" version="1.1" viewBox="0 0 175.19896 293.40652" xmlns="http://www.w3.org/2000/svg">
 <g transform="translate(-11.104 -2.1301)" stroke="#fff" stroke-width="1.827">
  <path d="m126.1 56.641 1.1802-1.5712 1.9878-0.11324 2.799-0.17168 1.9366 0.33983 1.6187 1.0414 1.2314 0.22648 1.2826 0.4531 1.0743 0.11324 0.9135-0.70158 1.3374-1.1547 0.81119-0.86964 0.80751-0.98659 3.2229 2.0864 1.6735 1.9695 2.4263 2.1961 2.0426 1.2679 2.3057 2.2545 1.7247-0.16803 2.5322-0.3398 2.693-0.16803 2.5359-0.05845 1.9878 0.70155 1.8306 0.81485 1.7795 1.0414 2.3057 1.6297 0.59924 0.47504 1.5164 0.92812h1.5127l1.9914 0.58828 2.0937 1.4945 1.6188 1.3264 0.70522 1.0999 1.3885 2.4226 0.37273 1.743 0.65037 2.6126-1.6187-1.6845-1.2826 1.4945-2.2545 1.0999-1.2314 0.92817-2.5359 1.2313-2.7442 0.33986-3.3982 0.86964-1.9878 0.39828h-2.3057l-2.3751 0.11324-1.5639 0.81485-0.54445 1.5712 0.47502 0.98291 0.5481 2.028 0.86237 1.2679-0.49332 1.911-1.0742 1.2679-2.0426 0.81485-0.86236 0.58831-0.86236 1.626 0.86236 2.0828 0.49328 1.4433 1.0743 2.894 0.20822 1.3264 0.26301 0.70157-0.47502 1.0962-0.91718 1.3264-1.3922 1.2131-0.15706 1.0999-0.49329 1.9695-0.96829 1.9147-0.42387 2.9524-0.0511 1.3849-0.26301 1.8562-0.42387 2.7843-0.15709 2.028 0.21187 1.7429 0.10591 1.8014-1.2314 2.7807-1.3374 2.5359-1.1802 2.1961-1.6187 3.1242-1.2314 2.4262-1.0743 2.8977-1.0231 1.743-0.54813 2.028 0.49331 3.7673 0.42019 1.0962 1.1802 1.6297 1.3922 2.028 0.80751 1.6297 0.42021 1.1547-0.70157 0.70157-0.21187 2.1376-0.26301 2.4811-0.15708 1.6297 0.31427 1.1583 0.37271 1.1547 0.26301 2.6711 0.31788 1.9695 0.9135 1.7429 0.86236 1.4982 0.91347 1.8562 0.15709 1.6297 0.0548 1.6297-0.59925 2.1961-1.3922 1.9695-1.1254 1.268-1.3886 1.268-2.5907 1.9658-2.1486 1.1547-1.1254 0.58462-1.1802 1.6297-1.8307 2.1961-1.2826 1.4981 0.15708 1.2131 1.1254 1.9695 1.0195 1.0999 0.37271 1.8562-0.26301 1.743-0.81119 2.6711-0.59924 1.8562-0.0548 1.4945 0.81119 1.6297 1.5128 1.1546 0.49331 1.268-0.31792 1.2679-0.80754 1.4945-0.31788 2.313-0.49328 1.626 0.10592 0.87332 0.70521 1.2095-0.21187 1.2679-1.2314 1.8014-1.8854 1.911-1.7795 0.92812-1.5676 1.3228-1.827 2.3678-1.3374 0.81486-0.86237 0.70157-1.9914 2.3093-1.4616-2.4262h-0.86237l-0.86233 0.1133-1.5676-0.28501-2.0426-1.0999h-3.7161l-0.21187 0.45311-1.5676 3.5992-0.70157 0.58832-0.59926 1.3812-0.47502 1.1583-1.7758 1.4945-1.5128 2.313-1.1802 2.2509-1.1802 1.6297-1.9366 2.2545-1.2826 1.4945-1.4616 1.268-1.6735 1.3848-1.9366 0.70158-2.3057 0.34349-1.3922 0.1133-1.4616-0.47501-1.9878-1.1547-1.7247-1.268-1.5128-0.87329-1.9914-0.98294-2.799-0.50792-1.8343-0.70158-1.4616-0.64675-2.9049-0.10961-1.5128-0.23012-0.86234-3.1242-0.15713-1.9147-0.59925-1.4397 0.26674-2.8976 0.54445-2.028 0.42021-2.7259-0.05482-3.8257-1.0706-3.0146-2.1303-2.2728-5.0498-5.0389-0.5956 0.52985-2.3093-0.22647-2.1449-0.75638-2.6418-0.81485-1.5164-0.64311-0.47502-1.743-0.15713-2.1412 0.42386-2.8428 0.54445-1.4396 0.86235-0.86968 1.7795-1.3849 1.5128-0.0585 0.86235 0.34344 0.42021 0.52985 0.65041 0.28504 0.36905 0.6431 0.80754 1.6297 1.0195 0.47505 2.1486-0.1133 1.0195-1.6297 0.76003-2.5542 0.9135-1.9695 0.26309-1.4945 0.21192-1.8562-0.10596-1.268-0.15713-0.69792 0.15713-1.2679 0.10596-0.47138 0.70522-1.3849 1.3374-1.4945 0.26674-0.39831 0.42386-1.2131 0.05114-1.3812-0.70522-0.81484-0.80754-1.0414-1.1291-1.2131-0.31425-1.7978-0.05117-1.3849 0.54445-0.81484 0.21192-0.92812 0.9135-1.3812 1.5128-0.92812h4.7392l2.8501-0.1133 1.9914-0.1133 2.799-0.81484 1.3374-0.70159 1.2314-1.3812 0.81119-1.3812 0.05114-1.6297 0.37271-1.6845 0.3654-1.6881 0.75638-1.0414 1.0779-1.0414 1.9366-0.70158 2.0937-1.0414 0.86235-0.81481 0.91715-1.743 0.3179-2.6711v-1.268l-0.0511-1.1583-0.21192-1.743-0.54446-2.1376-2.0426-0.87331-2.3093-1.268-1.5128-1.0414-1.2314-1.1583v-1.3812l0.10596-2.8976 0.26309-1.7978 0.65041-3.2959 0.59926-2.4263 1.4616-1.9695 0.81119-2.4226-0.05114-2.5395 0.20827-2.6674 0.15713-2.7843-0.15713-2.0828-0.42386-3.2411 0.15713-2.8976 0.05479-0.92811 0.31424-1.8562 0.15713-1.4945-1.0743-0.92811-1.8124-1.3849-0.15713-1.3228 0.91716-2.4263 0.65041-2.0279 0.59926-2.4811-0.05114-1.268 0.36906-2.4226-0.59926-2.3093-0.42387-1.7978 0.15713-1.6297v-2.4044l1.4616-1.9695 1.1254-0.10959 1.1254-0.17169 1.5676-0.7564 2.0426-2.8976 2.0426-1.1546 1.7758-0.11324 2.3057-0.33983h1.6699l1.9366-0.81484 0.42021-1.1547-0.54079-1.1546-0.58099-1.4031 0.47502-1.8563 1.7758-1.8562 1.6187-0.22648 2.5322-0.58831 1.5676-1.1546 0.36905-3.0109 0.10595-1.6297-0.70155-1.8562 0.81119-2.7807 1.9366-1.0414 1.7758-1.0999 0.47501-1.5712-0.0548-2.6711 0.59927-1.626 0.31789-2.0828z" fill="#c8e3c3"/>
  <path d="m56.568 88.08 10.334 12.044 11.846 9.4346 7.9548 3.939 7.6405 0.11324 0.9135-2.4262 0.65406-2.0243 0.59926-2.4811-0.05479-1.2679 0.36905-2.4263-0.59926-2.3093-0.42386-1.8014 0.15713-1.6297v-2.3861l1.4616-1.9695 1.1291-0.10959 1.1254-0.17168 1.5676-0.7564 2.0426-2.8976 2.0426-1.1547 1.7795-0.11324 2.3057-0.33986h1.6699l1.9366-0.81485 0.42386-1.1546-0.54444-1.1546-0.56273-1.4032 0.47503-1.8562 1.7758-1.8562 1.6187-0.22648 2.5322-0.58828 1.5676-1.1547 0.36905-3.0109 0.10594-1.6297-0.70158-1.8563 0.8112-2.7807 1.9366-1.0414 1.7758-1.0998 0.47502-1.5712-0.0548-2.6711 0.59927-1.626 0.31789-2.0828 0.15707-1.1583 1.1803-1.5712-1.1803 1.5712-0.10594-2.0864-1.3374-0.22648-1.6187-0.81119-1.0779-0.58828-1.3374-1.3812-1.7759-1.1547-0.9135-2.4226-1.7758-1.8562-1.7247-2.4263-0.81119-1.4397-1.7795-2.3678-2.7442-3.7088-0.96832-1.9732 0.2631-1.3812 0.80753-1.3812 1.0195-1.0414 0.59926-1.4397 0.26309-1.7978-1.4616-1.9147-2.1997-1.9147-1.8855-1.9658-0.31425-0.92812-0.36905-1.6881-2.1997-1.6845-1.3922-0.4531-1.1254-1.2131-1.5676-0.64311-1.5822-0.4531-1.7247-1.3264-0.9135-0.81485-0.31789-1.1547 0.49328-0.86967 0.65408-0.98656 0.65041-2.3678 0.42387-0.52984-0.42387 0.52984-0.86234-0.81485-0.96466-0.81485-0.70522-0.86964-1.4616-0.98659-1.1802 0.92811-1.4616 1.5712-0.75638 1.2679-0.54445 1.8014-1.4616 1.1547-1.1802 1.0999-0.96831 1.626 0.05114 0.98659-0.05114 1.1547-0.26309 2.196 0.10596 1.743-0.05117 1.8562-0.10596 1.1364-0.70157 2.7259-0.91716 1.9695-0.96831 1.0414-1.7247 0.52984-1.2862 1.7978-1.2314 0.17168 0.20827 1.4981-0.36905 1.4945 0.05482 1.6297-0.15713 1.9732-0.10596 2.1961-0.49329 1.8562-0.26309 1.268-0.26309 1.7429-0.65041 2.5395-0.81119 2.0462-0.42387 1.6845-0.9135 2.313-1.2314 0.69793-1.3922-0.64313-0.42386-0.52984-0.77465-1.1546-1.5676-1.4397-0.81119-0.52984-0.59926-0.81485-1.1802-0.92814-1.1802-0.05479-0.96831 0.17169-1.3374 0.7564-1.2862 1.5749-1.0195 1.8562-0.96466 2.313-0.05482 2.4226 0.5481 1.0414 0.05482 1.743-0.54445 1.1546-0.47502 1.5712-0.35079 1.6699-0.75638 1.5127 0.54445 1.6297-0.10596 1.2679 0.48964 1.4945-0.10596 1.4982 1.0743 2.6126 0.70522 2.028 0.35078 1.3995v2.2545l-0.21192 1.2679-1.0195 2.196-0.59926 1.8563-0.31424 1.2131z" fill="#d0d5ec"/>
  <path d="m76.475 183.1-1.4945 0.92811-0.9135 1.3812-0.21192 0.92807-0.54444 0.81484 0.05114 1.3812 0.31424 1.8014 1.1291 1.2132 0.80754 1.0414 0.70522 0.81483-0.05117 1.3849-0.42386 1.2131-0.26674 0.39466-1.3374 1.4981-0.70523 1.3812-0.10596 0.47136-0.15713 1.2679 0.15713 0.70155 0.10596 1.268-0.21192 1.8562-0.28136 1.5347-0.91716 1.9695-0.75638 2.5578-1.0195 1.6297-2.1449 0.1133-1.0231-0.4714-0.81119-1.6297-0.38367-0.6431-0.65406-0.28501-0.42021-0.5298-0.86234-0.33984-1.5128 0.0585-1.7795 1.3812-0.86235 0.86962-0.54444 1.4397-0.42021 2.8428 0.15713 2.1413 0.47502 1.7429 1.5128 0.6431 2.6382 0.81487 2.1486 0.76001 2.3057 0.22647 0.59926-0.52984 5.0498 5.0389 2.1486 2.3094 1.0743 3.0109 0.05482 3.8258-0.42387 2.7259-0.54445 2.028-0.26309 2.8976 0.59926 1.4397 0.15713 1.9147 0.86234 3.1242 1.5164 0.23015-1.5164-0.23015-1.1254 0.23015-1.4616 0.45677-1.5128 1.0962-1.9366 2.028-1.3374 1.8562-1.1108 1.3081-1.4616 1.5712-2.0426 1.6845-2.3751 1.6297-1.5676 1.3264 0.91715 1.1547 0.80754 1.0998 0.59926 1.4945-0.42021 1.9147-0.42386 1.7978-1.0743 0.79296-1.7795 0.47499-2.799 0.33981-1.8855 1.0451-0.75638 1.8562-0.26674 1.6297-0.10596 1.743 0.15713 1.4945 0.05482 1.1583-1.3374 1.8563-2.799 0.81481-0.86235-1.0414-0.3179-1.6297-2.6418-0.81481-1.7795-0.28502-1.5128 1.2095-1.6187 1.9695-1.5128 0.70152h-0.961l-1.0195 0.16803-0.96466 1.4434-0.3179 1.3227-1.7795 2.1412-0.80754 1.4945-1.1802 1.4982-1.1802 1.4397 0.05117 0.6431-0.59927-0.45673-0.9135-0.70157-1.2351-0.64679-2.0974-1.2095-1.5128-1.0414-3.0621-0.33984-2.3751 0.39829-2.5359 0.28137-2.9049 0.92813-1.2862-1.4945 0.21192-1.268 2.4299-1.3849 1.0743-1.3849-0.26309-1.4945-0.49329-1.4397-1.6187-0.98659-0.70523-0.92811-0.05117-1.3812-0.05482-0.70152 0.59926-1.743 0.49329-0.81487h1.2351l2.4299 0.45315h2.1486l2.0389-0.33987 1.9366-0.5883 0.9135-0.70155 1.6187-0.81486 2.0937-0.58462 1.5164-0.51157 2.1449-0.34346 3.6613-1.4397 2.2545-1.4945 0.86235-0.98658 0.26309-2.2545-0.47502-2.0828-0.65042-1.7429-1.1254-1.743-0.96831-1.911 1.1802-1.5713 0.70522-0.98659 0.47502-2.1412 0.70157-3.9938 0.36905-3.2959-0.42021-2.4811 0.26309-3.4092 0.20827-4.1655-0.5481-3.0109-1.1802-0.22647-1.6699-0.34349-1.3922 0.34349-2.4811 0.98659-2.4811 1.4396-2.0389 0.58832-2.2545-0.76002-1.3374-1.3264 0.05479-1.7429 0.70157-1.268 1.0779-1.1547 1.9366-1.3849 1.3885-0.6431 1.1254-0.86964 1.5128-1.0414 1.4616-1.5712 1.1254-1.5713-0.47502-1.7393-0.96831-0.58832-1.5128-1.8526-1.3922-1.6333-0.65041-2.0828-0.81119-1.0414 0.86234-2.6711 0.42387-2.5578-0.05117-2.5396v-1.7429l-0.75638-1.743-1.1802-1.743 1.1802 1.743-0.16078-2.1961 0.05479-1.9695-0.26309-1.6297-0.65041-2.0828-0.75638-1.9111-2.4811-0.75636-1.6735-1.0414-1.9366-1.0414-1.7247-0.52986-2.587-0.87329-2.4299-2.1961-0.59926-1.2094-1.1802-1.0451-1.5676-1.911-0.20827-3.3507 0.05117-2.7296 0.75638-3.4092 2.4811-4.509 1.8343-3.0109 1.5128-1.2132 1.5676-1.6845 2.8501 0.7016 1.1802-0.47501 2.5359-0.58464 2.8501-1.3812 1.5676-1.3849 1.2314 0.17169 1.6187-2.1413 2.2545-2.5359 1.5676-1.6297 1.1291-1.4945 2.1997-1.9695 2.5322-1.9695 1.3374-1.4982-1.3885-0.86965-1.1291-0.53348-1.2314 0.11323 1.2314-0.11323-0.15713-0.92812 1.5676-2.1961 1.341-2.1961 0.75638-2.0828 0.36905-1.6845 0.05482-1.9732 0.10596-2.3678v-2.7807l-0.21192-2.6711-0.3179-1.743 0.33252-2.5176-0.47502-2.1961 0.21192-1.1547 0.10596-1.7429-0.10596-1.9695-0.15713-1.4945-0.42022-1.9695-0.05479-2.1961v-3.939l-0.36906-1.743 0.42386-1.9658 0.42021-2.1961-0.26309-1.743 0.81119-2.2582 1.1802-1.5712 1.0743-0.98659 1.5164-0.52981 1.8307-0.70158 1.9366-1.0414 1.3922-0.81485 1.1254-1.5712 10.334 12.044 11.846 9.4347 7.9548 3.939 7.6405 0.11324 0.15713 1.3264 1.8307 1.3227 1.0743 0.92814-0.15713 1.4945-0.31425 1.8562-0.05479 0.92811-0.15713 2.8976 0.42386 3.2374 0.15713 2.0828-0.15713 2.7843-0.20827 2.6711 0.05114 2.5359-0.81119 2.4226-1.4616 1.9732-0.59926 2.4226-0.65041 3.2959-0.26309 1.7978-0.10596 2.8976v1.3812l1.1802 1.1546 1.5676 1.0414 2.3093 1.2679 2.0426 0.87333 0.54444 2.1412 0.21193 1.743 0.0511 1.1547v1.2679l-0.31789 2.6711-0.91715 1.743-0.86234 0.81484-2.0938 1.0414-1.9366 0.69793-1.0779 1.045-0.75638 1.0378-0.3654 1.6882-0.37271 1.6881-0.05114 1.626-0.81119 1.3849-1.2314 1.3812-1.3374 0.70156-2.799 0.81487-1.9914 0.1133-2.8501 0.1133h-4.7538v0.0476z" fill="#f9f6c2"/>
 </g>
 <g fill="none" stroke="#000">
  <path d="m139.32 151.71-1.8441 1.3172-0.63033-0.42933-1.2838-1.2838-2.8886-0.64191-3.1026 0.85588-1.7117 0.42793-6.0981 1.6048-5.2422 3.8514h-1.7117l-4.2794-0.21398h-2.5676l-2.5676 0.42794-1.7118 0.53492-1.4978-1.6048-3.2095-0.21397-3.3165 0.96287-2.9956-1.0698-0.64191 0.6419v1.7118l-1.3908 2.3536-0.32095 3.1025-3.9584 2.4606-5.7772 2.1397-1.7118-0.10698-2.5676 1.2838-5.9911 1.0698" stroke-width=".5px"/>
  <path d="m95.485 63.707 2.6918 1.2235 3.4259 1.2235 2.9365 0.73412 2.07 3.7417 1.7215 1.3772-0.17216 1.7215 2.2379 2.4101 0.68859 1.7215h1.205l1.3772 1.8936 2.7544 0.51644 3.2708 2.4101 1.205 3.443 1.8936 2.9265 3.0986 2.5822 2.4101 1.3772 0.68859 2.9265v1.0329l1.5493 3.7873 7.4024 5.1644 1.3772 2.9265 2.5822 1.205 2.4101-0.86075h3.0987l-0.86073 3.2708 0.17214 4.1316-0.51645 3.7872-0.17214 6.0252-1.5493 3.7872-0.51644 3.0987-0.68859 4.3037-1.3772 3.9594-1.3772 1.5493-0.34431 1.205v4.4758l-0.86074 2.9265" stroke-width=".5px"/>
  <path d="m70.299 170.89 2.3015-4.1951 0.20923-5.4186-2.5107-7.5162-2.7199-2.9715-0.62767-2.6219-2.5107-2.7967-0.20922-1.9227-0.8369-1.3984 0.62768-3.8455v-3.6707l-1.0461-2.0975-1.0461-2.0975 2.5107-6.2926 0.8369-1.3984-0.20922-2.0975 3.5568-3.1463 1.4646-2.0975v-1.748l1.4646-0.69917 3.5568-2.9715 3.1384-4.1951 1.6738-3.4959 2.0922-5.943 1.0461-5.069-0.62767-6.4674 3.3476-2.0975 3.3476-3.4959-0.62767-4.7195 0.8369-2.4471 2.3015-2.0975 2.5107-2.7967 1.3349-3.3587" stroke-width=".5px"/>
  <path d="m99.022 156.31 1.076-2.7383 0.61486-1.7114 0.76858-3.7652 1.2297-4.1075 2.7669-6.3324 0.46114-4.4498-0.76857-3.2518-1.076-1.7115-0.76858-4.7921-0.15372-5.819-0.61485-3.7652v-2.396l-0.76859-1.5403-0.1537-0.17115-1.5372-0.17115-0.61486-0.51343 1.6909-2.396 0.76857-2.5672v-1.5403l-0.15372-0.34229-0.76857-0.51344-1.3834-1.7115 1.3834-3.2518 1.2297-2.5672 0.61487-2.9095-0.15372-2.7383v-4.6209l-0.46115-1.7114-0.76857-1.3692-0.46115-1.3692-2.6132-2.5672-0.46115-0.51344 0.61487-3.4229-1.6909-0.85574-0.61486-1.198-0.30744-4.1075-0.4586-3.099" stroke-width=".5px"/>
 </g>
 <g fill-rule="evenodd" stroke-width=".47625">
  <ellipse cx="95.225" cy="63.116" rx="2.8801" ry="3.0858"/>
  <ellipse cx="70.63" cy="170.43" rx="2.8801" ry="3.0858"/>
  <ellipse cx="98.974" cy="159" rx="2.8801" ry="3.0858"/>
  <ellipse cx="139.66" cy="151.69" rx="2.8801" ry="3.0858"/>
 </g>
 <g fill="#000000" font-family="sans-serif" font-size="3.5278px" letter-spacing="0px" stroke-width=".26458" word-spacing="0px">
  <text x="143.31799" y="159.23251" style="line-height:1.25" xml:space="preserve"><tspan x="143.31799" y="159.23251" font-size="6.35px" stroke-width=".26458">Raipur</tspan></text>
  <text x="97.14537" y="167.68985" style="line-height:1.25" xml:space="preserve"><tspan x="97.14537" y="167.68985" font-size="6.35px" stroke-width=".26458">Durg</tspan></text>
  <text x="25.143509" y="171.80426" style="line-height:1.25" xml:space="preserve"><tspan x="25.143509" y="171.80426" font-size="6.35px" stroke-width=".26458">Rajnandgaon</tspan></text>
  <text x="71.316124" y="56.601284" style="line-height:1.25" xml:space="preserve"><tspan x="71.316124" y="56.601284" font-size="6.35px" stroke-width=".26458">Kawardha</tspan></text>
 </g>
</svg>
