<svg width="206.35mm" height="239.68mm" version="1.1" viewBox="0 0 206.3519 239.68134" xmlns="http://www.w3.org/2000/svg">
 <g transform="translate(-1.9014 -21.288)" stroke="#fff" stroke-width="1.6592">
  <path d="m26.818 125.7 27.367 8.8403 2.2067 7.8248 6.4576 12.882 8.6478 11.472 2.157 12.092 4.3006 8.6179 0.7367 9.9918 6.4576 7.1545 1.4734 2.0972-3.7564 25.233-0.78316 0.58403-0.14265 1.3074-0.44798 0.74001-0.8296-0.42808-1.2643-1.48-0.9756-1.7355-1.4236-1.9446-1.6625-2.5286-3.0364-1.8417-2.6846-0.15593-2.2532-0.42807h-1.9015l-1.3771 0.58404-1.0718 1.7356 0.23893 0.94575-2.4921-1.5829-0.33515-2.2532-0.49777-1.6327-0.2887-1.0519-0.38493-2.0972-1.5165-1.8417-0.92584-0.89599-1.5198-1.0984-1.4236-1.2046-0.49777-3.0961-0.19246-1.2046 0.87937-1.48 0.69022-0.53096 0.38163-1.6327-0.78315-1.1017-0.78315-0.896-2.0939-0.6902-1.6625-0.15592-0.2887-0.68691 0.0962-0.74 0.54422-0.63381 0.33516-0.30862 1.2643-1.1017 0.92584-0.63715 0.14269-1.8384-1.0254-1.3606h-1.3738l-1.6161 0.42808-0.87939-0.74002-0.19246-1.2577-0.83292-1.3572-0.87938-1.48-1.1183-1.5829-0.92584-1.7886-0.92584-2.5286-0.19246-0.84288-0.68692-0.83956-1.2643-1.636-1.8052-0.89265-1.855-0.20568-1.2643-0.20569-1.5198-0.20568-1.0719-0.63714-1.261-0.94576-1.8085-0.63712h-1.1681l-1.709-0.4148-1.1183 0.1061-1.855-0.41148-1.7588 0.20568-1.4701 0.84287-1.4701 0.53426-1.1681-0.20568-2.3494 0.41483-1.7588-0.15592-2.157-0.99884-2.2067-1.1515-1.4701-0.53093-1.6128-0.69026-2.6846 0.78981 1.8085-2.0972 0.78315-0.63714 1.2145-0.74002 1.6592-2.1503 1.4236-1.2013 1.6161-0.84288 1.7123-1.7355 1.1183-1.636 0.19246-1.1515-0.64045-1.0984-0.0962-0.79309 0.44799-1.4767 0.28869-2.1006 0.73337-1.3572 0.28871-1.1515-0.44799-1.1515-1.3738-1.0486-0.7367-1.48 0.04641-1.3572 0.54422-1.6857 0.73337-2.4258 0.23893-1.5829-0.33516-1.6858-0.92915-0.99883-1.0221-1.7886-0.1427-1.1017 1.1648-1.3606 1.6625-1.9943 1.0718-1.48 1.0254-0.53094 1.9512-1.0486 2.3494-1.7853 1.2643-1.1515 1.0221-1.1515 1.2643-1.7886z" fill="#d0d5ec"/>
  <path d="m107.26 132.63-10.599-10.3-5.0374-6.4178-10.071-0.74001-7.9145-2.1006-7.9111-2.8372 9.3347-16.459 10.071-13.622l5.034 3.5773 4.3007 7.1545 8.6478 1.48 6.4576-4.3206 11.525-4.3173 8.6013-5.6745 1.4701-6.4178 9.3347-5.0374 7.9144 6.4178 7.1778-2.1006 8.7938-8.515 2.303 2.2034 2.5884 1.5331 1.2145 0.1526 0.8794-1.1515 1.8052-0.63712 1.1183-0.94576 0.59067-1.2577 1.8086 0.30862 1.6625 0.73998 1.1681 1.0486 1.3274 1.2046 2.2532 1.1017 2.9899 0.74001 1.5663 0.6338 0.83293 1.1515 0.63714 1.0486 0.33513 1.5829 0.23887 1.1548 1.261 1.4767 1.2643 0.04976 0.49449-0.89266 0.28868-0.94574 0.92586-1.3605 0.28866-0.8429 1.1183-0.74001 1.1681 0.25883 1.9479 0.74001 2.3959 0.99884 1.6659 0.53096 2.2034 1.2543 1.4701 1.3606 1.2145 1.2544-0.0497 2.0972-0.33516 0.209-1.5199 0.94574-0.78313 0.58404-0.97231 1.9977-1.47 1.1017-0.3982 1.7886 0.448 1.5829 0.33515 1.1515-0.1427 0.94577-0.68694 0.99553-1.0718 1.1017-1.3738 1.9944-0.0962 1.6857-0.19241 1.8948-0.49775 2.303-0.68691 1.8915-1.1183 0.94574-2.0939 1.6858-1.9014 3.2189-1.4236 0.89266-1.9015 0.6338-2.3528 0.74001-0.78313-0.10284-2.0442-0.74004-2.2532-0.73998-1.855-0.63715-2.3494-1.7886-0.44801-0.84288-1.2145-1.2046-1.4701-0.99884-0.87936-1.3572-0.49445-1.1515-0.23885-1.0486-0.87939-0.74004-1.8052 0.53428-1.855 0.10284-1.9512 0.53096-1.261 0.73996-1.5199 1.3573-1.47 0.63712-1.7588-0.20568-1.6161-0.58404-1.1183 0.0531-1.709-0.30862-1.6161 0.58407-0.92587 0.48449-1.4236 0.53094-1.3274 0.63714-0.82959-0.0531-0.69026-0.20568-1.7588-0.48117-0.97562-0.64047-1.1216-0.30862-1.2146 0.209-1.1183-0.15592-1.6625-0.15591-1.5198 0.20899-1.261 0.42807-1.4236 0.84288-1.7123 1.1515-1.0718 1.2544-0.33184 1.2544 0.0464 1.1515 0.49777 1.1515 0.14264 0.46459 0.59068 1.9446-0.68691 1.9944 0.0962 1.48-0.23886 1.2577-0.73666 1.6858-1.709 3.992-1.0254 2.2001 1.0254-2.2001-2.0474 2.0972-1.709 1.1548-1.0718 1.5829-1.9015 2.7344-0.8296 1.6858-0.54424 1.2577-1.1183 2.9401-1.3738 2.7377-1.2146 1.6857-1.3738 0.53096-1.4734 0.10611-1.4701-0.84287-0.87936-0.94908-0.73338-1.0984-1.855-1.636-1.5032-0.11944-0.68694 0.42807-0.6869 0.53426-0.23885-0.63383-0.14265-1.0486-0.40153-0.89596-0.19241-0.896-0.33519-0.20568z" fill="#f9d0d0"/>
  <path d="m85.116 80.157-10.068 13.622-9.3347 16.459 7.9111 2.8372 7.9144 2.1006 10.071 0.74001 4.9876 6.4178 10.662 10.3-0.39822 1.2543-0.28869 0.8429-0.0498 1.3606 0.28537 1.48 0.64046 1.7886 0.68691 2.303-0.0962 2.2698 0.4347 3.3218-0.38492 3.2653-0.0498 2.1503 1.8052 2.9932 0.78316 1.48 0.49445 2.0972-0.39822 2.6315 1.3738 5.5749 0.5907 3.1458-0.0464 1.9446 1.6625 2.4755 0.448 1.792 0.68688 2.4258 2.5884 2.7344 0.49444-1.9446 0.54421 0.15261 1.1681 1.48 0.28537 1.5829 0.38495 2.0972-0.64044 2.6315-1.3274 0.8429-1.261 1.7355-0.8794 1.8384 0.23886 1.5828 1.0719 0.53427 1.9977 1.3606 0.49773 2.2001-0.5442 1.3606-1.4701 1.6327-0.83292 2.2532 0.59067 1.9944 0.68691 2.0972 0.38495 1.427-0.8794 2.0474 0.28869 1.7886-0.87934 2.4258 0.44466 3.4213 0.594 3.5242 1.0221 3.3715 1.8085 2.7344 2.0442 1.3572 3.71 1.052 2.5917 0.58404 2.6879-0.43142 2.4921-0.73997 3.179-0.25883 3.2322 0.4314 3.3748 0.15592 1.6128 1.2013 0.92583 1.8915 0.33519 2.1503 0.83291 2.5286 1.2145 2.1503 1.5165 2.5286 0.49442 2.6813-0.73337 4.523-0.83291 1.6327-2.2996 0.63711-3.2288 0.58405-1.6161 0.3617-0.44798 1.48 0.14265 1.3572-0.0962 1.3606-1.6161 1.9977-0.8329-2.0474-0.59065-0.3617-1.0254-0.41479-0.92581-0.99888-1.0719-1.1017-0.24217-1.8915 0.44801-1.7886 1.616-1.3075 1.2145-0.89592-0.0962-2.5253-1.1183-0.36175-2.2067 0.0531-1.7123 0.3119-1.3738-0.69021-1.4701-1.6327-1.2145 0.15261-1.5663 0.53099-2.6381 0.48443-2.2034 0.20569-2.6382 1.0487-2.6846 1.8915-3.1359 1.9977-1.4701 0.84288-2.3495 1.5829-1.6625-3.5275-2.157-4.7819-1.855-3.7863-1.4701-2.0474-1.1681-1.1017-1.3274-1.6858-1.5165-1.4767-1.5198-0.94574-1.6161 0.48117-0.63714 1.3074-1.2145 1.1515-0.6869 0.53426-1.6161-0.31196-0.8296-1.3572-0.73667-1.5829-0.92586-0.94574-1.6625 0.3086-0.28869 1.1515-0.23885 1.2046-0.78316 1.3075-1.8085-0.99887-1.2146-1.7388-0.5442-1.1515-0.97231-0.58404-0.8296 0.0497 3.7564-25.233-1.4701-2.0972-6.4576-7.1545-0.73337-9.9951-4.3007-8.618-2.157-12.092-8.6478-11.472-6.4576-12.882-2.2068-7.8282-27.367-8.8402-0.04641-1.48-0.14601-1.48-0.83292-1.6858-0.78315-1.3606-0.83292-1.5829-0.28871-1.7886-0.23893-2.4258-0.33516-1.0486-0.28871-1.0519 0.22234-1.48 0.23893-2.2698 0.19246-1.9413 0.63714-0.6371-0.38162-1.0486-0.73337-1.48-1.2643-1.8384-1.0718-1.4833-0.38161-0.99555-0.44799-3.4246 0.49775-1.8384 0.92917-1.5829 0.92583-2.6349 1.1648-2.2001 1.4701-2.8406 1.0718-1.9944 1.2145-2.3063 1.1183-2.5286-0.09621-1.6326-0.19246-1.5829 0.1427-1.8417 0.38494-2.5286 0.23893-1.6857 0.04641-1.2577 0.38494-2.6846 0.87938-1.7355 0.44798-1.7853 0.1427-0.99887 1.2643-1.1017 0.78314-1.2013 0.49444-0.99882-0.23893-0.63714-0.19246-1.2013-0.97561-2.6315-0.44799-1.3075-0.78315-1.8915 0.78315-1.48 0.78315-0.53425 1.855-0.74001 0.97561-1.1515 0.45131-1.7355-0.78315-1.1515-0.49776-1.8417-0.4314-0.89266 0.49444-1.4269 1.4236-0.74001 2.157-0.10615h2.0939l1.8085-0.3617 3.0861-0.7898 2.4921-0.3086 2.303-1.1017 1.1183-0.84288 2.0475-0.99884 1.1648-1.3572 1.4734 1.5298 1.261-2.9932 1.855-0.84288 1.0221-0.63714 2.0475-0.4148 1.261-1.4767 1.5198-1.5829 0.64044-1.3572 1.3738-0.84288 2.0475-0.25883 2.3494 0.46459 2.0939 1.1515 1.8052 1.2046 2.0475 0.99884 2.5419 0.68691 1.4203-0.25552 1.9512-0.6869 2.9268 0.78977 1.4701 2.2532 1.0718 2.3196 0.64047 2.1503 0.59065 1.3605 2.3992 1.1017 2.3528 0.05308 3.6104 0.94576 0.92584 0.94908 1.3738 1.2543 1.7123 1.5829 1.855 1.1548 1.1681-0.10284 2.3992-1.5829 2.877-0.74001 1.1681-0.46456 1.6127-1.0984 3.4678-0.84288h2.9269l2.4457-0.10284 2.877-0.15592 3.1359 0.58404 1.3274-0.63383 3.0862-0.41478 1.2145 0.10284 3.4677-0.42804 2.4954-0.10285 3.0364 0.69022 1.1182-0.10615 2.157-0.3617 3.0396 0.25552 1.261 0.89598 2.6381 0.53425 2.7344 0.84288 2.2532 0.58404h2.9268l1.855-0.04976 0.92579-0.209 1.9977-0.30862 2.2068 1.7355 0.92914 1.8417-0.92914 2.9932-0.15923 2.2532-1.1183 2.9401-1.7587 2.5286-0.78317 2.8406 0.0962 2.7841 0.49776 2.2532 0.23886 1.7886-8.7905 8.515-7.1777 2.0972-7.9144-6.4145-9.3347 5.0407-1.47 6.4145-8.6013 5.6745-11.525 4.3173-6.4576 4.3173-8.6478-1.4767-4.3007-7.1578z" fill="#f9f6c2"/>
 </g>
 <g fill="none" stroke="#000">
  <path d="m23.584 71.973 0.90216 0.83772 1.9332 0.3222 1.3532 0.45108 1.9332-0.06444 1.031 0.38664 2.191-0.3222 0.83772 0.3222 0.9666 0.12888 1.031 0.45108 1.6754-0.45108 3.6731 1.031 2.3198-0.19332 0.90216 0.25776 0.38664 0.51552 1.7399 0.77328 0.77328-0.19332 2.5132 0.6444 2.5776 1.031 1.9976-0.12888 1.8688 0.12888 1.3532 0.45108 1.2888 0.12888h0.9666l0.57996 0.19332 0.51552 0.83772 0.90216 0.3222h0.70884l1.3532-0.25776 0.9666 0.38664 0.6444 0.51552 0.70884 0.83772 0.83772 1.2888 0.77328 0.38664h0.90216l0.32221-0.25776 1.8043 1.611 0.51552 1.2888 0.90216 0.9666 1.4821 0.77328 0.3222 0.57996 2.5132 0.83771 0.3222 0.57996" stroke-width=".5px"/>
  <path d="m23.584 71.973 2.1536 9.8386-0.23928 5.5609-0.95713 5.9887-1.4357 5.5609-1.1964 11.122-2.1536 14.972" stroke-width=".5px"/>
  <path d="m76.876 89.372 1.9139 2.4867-2.1873 2.7128l-2.4607 1.8085-0.82024 0.67819-0.54684 2.2607-1.9139 2.2606-1.9139 1.1304h-3.2809l-3.8278 0.22606-3.2809-0.22606-2.7341-0.22607-3.0075-0.22606-3.5544-0.90427-2.1873-0.45213-2.7341-0.67821-2.7341-3.1649-1.3671-3.391-0.27342-0.90426-1.3671 1.3564-1.0936 5.1996-2.1873 2.9389-0.82024 2.2606-0.82024 4.9735 1.3671 5.6517-2.4607 1.5825-2.1873 3.1649-0.82024 1.1303-2.4607-0.22607-7.3595 4.2206" stroke-width=".5px"/>
 </g>
 <g fill-rule="evenodd" stroke-width=".47247">
  <ellipse cx="24.277" cy="71.724" rx="3.4112" ry="3.6736"/>
  <ellipse cx="76.999" cy="89.21" rx="3.4112" ry="3.6736"/>
  <ellipse cx="20.278" cy="125.06" rx="3.4112" ry="3.6736"/>
 </g>
 <g fill="#000000" font-family="sans-serif" font-size="3.5278px" letter-spacing="0px" stroke-width=".26459" word-spacing="0px">
  <text x="22.335609" y="133.58763" style="line-height:1.25" xml:space="preserve"><tspan x="22.335609" y="133.58763" font-size="6.3501px" stroke-width=".26459">Dhamtari</tspan></text>
  <text x="85.815758" y="89.210297" style="line-height:1.25" xml:space="preserve"><tspan x="85.815758" y="89.210297" font-size="6.3501px" stroke-width=".26459">Mahasamund</tspan></text>
  <text x="28.2134" y="65.405251" style="line-height:1.25" xml:space="preserve"><tspan x="28.2134" y="65.405251" font-size="6.3501px" stroke-width=".26459">Raipur</tspan></text>
 </g>
</svg>
