<svg width="94.174mm" height="171.88mm" version="1.1" viewBox="0 0 94.174454 171.88755" xmlns="http://www.w3.org/2000/svg">
 <g transform="translate(-28.931 -118.81)" stroke="#fff" stroke-width=".5">
  <path d="m54.197 221.77 7.3538 1.3212 7.3173 1.6918 5.0742 1.7321 4.2341 3.7074 4.2341 4.8869 1.3979 5.4396 4.2341 3.1548 5.632 2.844 7.831 4.4487 0.21327 0.41093 0.52016 0.22886 0.55787 0.34981 0.82055 0.16905 0.47595 0.49285 0.0377 0.45125-0.59429 0.69961-0.19376 0.51366-1.2094 0.55917-0.6528 0.49155-1.1704 0.53316-0.47594 0.26918-1.0338 1.173-0.86477 0.74122-0.6502 0.9714-1.472 0.80104-0.49545 0.3108-0.43824 0.45124-0.09363 0.88297-0.05592 1.1118 0.09363 1.1534-0.68921 0.47205-0.68921-0.10143-1.5163 0.12224-0.72692 1.0715-0.45644 0.99089-0.86476 0.9506-0.88297 0.3108-1.0143 0.39792-0.49546 0.80105-0.57608 0.39141-0.67101 0.20937-0.78284 0.62029-0.45644 0.86216-0.21327 0.66061 0.0377 0.49285 0.01819 0.70091 0.07542 1.1118 0.17556 1.3212-0.17556 1.0312-0.21326 0.88297-0.17556 0.80235-0.36281 0.6606-0.36281 0.53187-0.05722 1.0715-0.13134 0.93108-0.61379 0.92979-0.3251 1.4838-0.34461 1.1925-0.49415 1.2341-1.0143 0.72171-1.0338 0.53187-0.21327 0.0611-0.0377 0.62029 0.25098 0.70222 0.30689 0.59947 0.36281 1.2796-0.3264-0.6606-0.28739 0.0208-0.38232-0.10143-0.78284-0.26918-0.82055-0.33031-0.95839 0.0403-0.57738-0.0195-0.76333 0.28999-0.6515 0.14044-0.61379-0.0806-1.0338-1.1522-0.6515-0.49155-0.43824-0.12223-0.61379 0.0403-0.82055 0.14175-0.84526 0.43173-0.63329-0.0403-0.74513-0.16905-0.61379-0.10143-0.26918 0.39012-0.72692 0.82185-0.70872 0.76073-1.0338 0.41092-1.147-0.12093-1.2653-0.88947-0.53836-0.69961-0.6515-0.82316 0.11314-1.2796 0.42003-0.24968 0.53836-0.51235-0.45774-0.88298-0.49415-0.51235 0.17556-0.51236v-0.78154l-0.05592-1.1118-0.36281-0.41092-0.07412-0.93109-0.26918-1.0117-0.03771-0.70092-0.13134-0.72172-0.01821-0.84265 0.05592-0.9701 0.55787-0.6411 0.61379-0.70092 0.38232-0.82315-0.36281-0.82185-0.80234-0.3303-0.68921 0.0403-0.42003 0.43174-0.55657 0.72171-0.21327 0.37062-0.61379 0.22887-0.42003 0.0611-0.70872-0.12224-0.57608 0.14174-0.45774 0.14174-0.80104 0.20937-0.26918-0.36931 0.07542-0.76204 0.55787-0.59948 0.78284-0.37061 0.49415-0.33031-0.07412-0.3498-0.45774-0.55918-0.6697-0.49285-0.84526-0.37061-0.3251 0.12093-0.63199-0.37061-0.34461 0.37061-0.47595 1.0728 0.13134 0.70092v0.20936l-0.07542 0.49155v0.6203l-0.47595 0.62029-0.45774 0.24837-0.3433 0.12094-0.55787-0.0195-0.47595-0.43174-0.72692-0.36931-0.19506-0.0611 0.15085-1.1326-0.15085-0.37061-0.13134-0.41223 0.14955-0.51236 0.23147-0.43043 0.45774-0.28999 0.52016-0.24968 0.70742-0.20936 0.49545-0.51236-0.05592-0.62029-0.17555-0.43043-0.28739-0.57998-0.3264-0.45123-0.43823-0.49155-0.26918-0.37062-0.34461-0.78154-0.55787-0.45124-0.40182-0.88947-0.55787-0.47204 0.47725-0.16126 0.40052-0.6606 0.40182-0.45124-0.05592-0.6606-0.57608-0.27048-0.53966 0.47334-0.3069 0.45125-0.61379 0.20806-0.13264-0.49156-0.07412-0.66059-0.05592-0.57999-0.3069-0.93108-0.23147-0.27048-0.55787-0.20807-0.61379-0.35111-0.40052-0.20805-0.3433-0.37192-0.3264-0.47075-0.24968-0.3303-0.90248-1.1534-0.49415-0.57998-0.59558-0.16125-0.94019-0.28999-0.3446-0.27048-0.63199-0.57998-0.47595-0.60078-0.36281-0.41093-0.63329-1.0715-0.9766-0.51236-0.53836 0.0611-0.52016 0.26918-0.52016 0.3511-0.40052 0.33031-0.38232 0.45254-0.3446 0.36931-0.28739 0.41093-0.43823 0.45123-0.59428 1.1522-0.11314-0.74123-0.30689-0.37191-0.49545-0.16125h-0.4382l-0.23277 0.12093-0.3251 0.10144-0.25098 0.10142h-0.26918l-0.23147-0.24837-0.47725-0.70222-0.19376-0.28999 0.07412-0.90378-0.05592-0.20936 0.03771-0.37061-0.11183-0.47204-0.3069-0.26919-0.13134-0.45124-0.26918-0.3511-0.43823-0.34981-0.45774-0.37192-0.67101 0.90378 0.13264-1.1118-0.05722-0.53316-0.09363-0.70092 0.03771-0.3303-0.05592-0.45124 0.47594-0.53316 0.45644-0.16125 0.38362-0.16255 0.55657-0.0403 0.72692-0.70222 0.42003-0.6398 0.19506-1.0104-0.09363-0.53186-0.42003-0.74253-0.19376-0.3303-0.43824-0.76074-0.36281-0.6606-0.38232-1.052-0.36281-0.57998-0.09363-0.57867 0.03771-0.70222 0.24968-0.70092 0.15084-0.57998 0.13134-0.23017 0.30689-1.1326 0.43823-0.78153 0.17555-0.66061 0.15085-0.70091 0.11314-0.37061-0.25098-1.2601-0.40182-0.31079 0.61379-1.0312 0.55787-0.27048 0.57738-0.22888 0.43824-0.24837 0.26918-0.9922-0.01821-0.74123 0.05722-0.49286 0.11184-0.57997 0.19506-0.45124 0.6502-0.28999 1.0156-0.49285 0.76334-0.62029 0.70872-0.78154v-0.41092l0.25098-1.1535 0.59428-0.9701 0.76464-0.37191 1.1079-0.39012 0.72692-0.36931 0.55787-0.66061h1.4031l0.55787 0.0403 0.57608 0.28998 0.47595 0.41093-0.14955 0.72172-0.05722 0.6398 0.27048 0.28999 0.42003-0.28999 0.88297-0.20806h0.82055l0.52016 0.37061 0.13264 0.57997 0.09363 0.55918 0.43823 1.0104 0.01821 0.3303 0.68921-0.16905 1.2653-0.88297 2.6424-1.5449 1.7425-1.0299z" fill="#d0d5ec"/>
  <path d="m93.671 182.86-5.0742-0.16776-6.4708 0.57998-7.3356 1.1522-1.974 1.4226-0.55787 4.8869 0.28739 4.5761 2.5306 3.4239 0.84656 3.4448-4.4981-1.1326-2.2614-1.7321-2.5306 1.1535-0.84656-5.7296-1.4148-5.1496-2.2614-4.0169-0.26918-2.5748-2.5501 0.28999-1.974 1.1534-1.6853-1.4421-2.8128 2.0195-1.9727 0.84265-2.831-2.2445-0.0182-0.41093-0.05722-0.53316 0.03641-0.62029 0.09493-0.57998 0.26918-0.6606 0.6697-0.37062 0.99611-0.12224 0.63329-0.16775 0.38232-0.28999 0.14955-0.63979 0.15085-0.68141-0.21327-0.53186-0.28739-0.39142-0.3264-0.41093 0.55787-0.47205 0.84656-0.57997 0.72692-0.59949 0.51886-0.55917 0.40052-0.45124 0.47595-0.6606 0.68921-0.72172 0.53966-0.39142 0.52016-0.16255 0.39922-0.0806 0.53967 0.0806 1.0338 0.0403 0.52016 0.22888 0.6515 0.24837 0.99611 0.18206 0.70872 0.3511 0.53836 0.3095 0.61379 0.45123 0.70742 0.41093 0.52016 0.16775 0.49545-0.0403 0.82055-0.12093 0.68921-0.24968 0.59558-0.49156 0.52016-0.45124 0.45774-0.53186 0.68921-0.80234 0.42003-0.57998 0.41353-0.82185 0.53836-0.82316 0.63199-0.53185 0.16905-0.41224 0.21326-0.49154 0.24968-0.20937 0.55787-1.2809 0.07542-0.16125h1.3225l0.72692 0.39141 0.55787 0.10144 0.30689-0.0403h0.30429l0.52016 0.86347 1.052-0.3095 0.63329 0.27049 0.57608 0.20806 0.86476 0.45124 0.84526 0.39142 0.68921 0.0611 0.92068-0.16254 0.45774 0.0806 0.57608-0.20936 0.57608-0.33031 0.68791-0.0806 0.72692 0.16125 0.43823-0.0416 0.66971 0.16255h0.45774l0.70742 0.24968 0.49546 0.37061 0.42003 0.24968 0.59558 0.0806 0.49545 0.0806 0.72692 0.0806 0.70742 0.34981 0.49545 0.6411 0.26918 0.329 0.07542 0.3303 0.36281 0.9909 0.36412 0.70092 0.43823 0.62029 0.34461 0.57998 0.3264 0.53186 0.07542 0.49285 0.34461 0.28999 0.63199-0.16775h0.53837l0.40182 0.53316-0.05722 0.72043-0.36281 0.24967-0.49546 0.43173-0.13134 0.12094-0.21326 0.24837-0.0377 0.28999 0.11314 0.26918 0.6515 0.0611 0.81925 0.27049 0.3069 0.3511 0.3069 0.43173-0.15085 0.6398-0.26918 0.20806-0.3446 0.57998 0.05591 0.47204z" fill="#f9d0d0"/>
  <path d="m83.803 240.54-1.3966-5.4396-4.2341-4.8869-4.2354-3.7074-5.0742-1.7321-7.3173-1.6918-7.3538-1.3212-0.25098-0.3303-0.86476-0.51236-0.11314-0.68011-0.88297-0.22887-0.76464-0.27048-0.13004-0.66061-0.17555-0.3498 1.2081-0.6398 0.55787 0.14045 0.84526-0.10144h0.49415l0.47595-0.20806 0.57608-0.3303 0.68791-0.33031 0.84656-0.6801-0.23147-0.88298-0.68791-0.3303-0.84526-0.41092-0.74513-0.43173-0.05722-0.47074-0.6697-0.74124-0.36281-0.49155-0.57608-0.3303-0.52016 0.24968-0.52016 0.22887-0.52016-0.64109-0.38232-0.57868-0.36411-0.53317-1.2263-0.49155-0.92068 0.0806-1.2094-0.0195-1.147 0.18855-0.72692-0.20936-0.11313-0.41093 0.19506-0.74123 0.11184-0.49284 0.28739-0.6398 0.53966-1.4226-0.25098-0.9896-0.25098-0.37192-0.86476-0.45124-1.0715 0.20937-1.3784-0.82315-0.57608-0.10143-0.72562-1.173-0.34461-0.86346-0.34461-0.74122-0.45644-0.74123-0.95969-0.57998-0.78284 0.28999-0.16905 0.59949 0.19376 0.64109 0.40052 0.53186-0.28869 0.45124-0.63329-0.43173-0.67101-0.3303-0.80104-0.10013-0.57738 0.14044-0.84526 0.27048-0.61379-0.0403-0.25098-0.49155 0.19376-0.43173 0.6515-0.22887h0.3251l0.6515-0.20937 0.47595-0.0403 0.55787-0.12094 0.36281-0.45124 0.36281-0.49155 0.27048-0.24968 0.45644-0.86216 0.11314-0.80364-0.68921-0.3095-1.1261-0.28999-0.53967-0.14304-0.90248-0.18206-0.47595-0.45123-0.34461-0.39012 0.55787-0.6411 0.59558-0.0806 0.57608 0.0208 0.90248 0.14175 0.78284 0.30949 1.0338 0.0806 0.6502-0.24968 0.49415-0.35111 0.3264-0.55917 0.14955-0.55917 0.11314-1.212-0.16905-1.3823-0.09363-1.2601-0.07542-0.49285 0.19376-0.88298-0.15085-0.95059-0.21326-0.16255-0.3251-0.24837 0.3251 0.24837 0.21326 0.16255-0.01821-0.22887 0.42003-0.51236 0.42003-0.53186 0.28739-0.53316 0.63329-0.76203 0.11314-0.47205 0.3433-0.51236 0.36281-0.0611h0.34461l0.53836-0.24967 0.57608-0.70092 0.53837-0.43173 0.63329 0.10143 0.94019 0.28998 0.11314 0.57999 0.30689 0.37061 0.9961-0.28999 0.47595-0.66061 2.831 2.2445 1.974-0.84267 2.8128-2.0221 1.684 1.4421 1.974-1.1522 2.5501-0.28998 0.26918 2.5748 2.2614 4.0182 1.4161 5.1483 0.84526 5.7296 2.5306-1.1522 2.2614 1.7321 4.4981 1.1314-0.84656-3.4448-2.5306-3.424-0.28869-4.5761 0.55787-4.8869 1.974-1.4213 7.3355-1.1534 6.4708-0.57868 5.0742 0.16774 0.55657 0.47075 0.59558 0.43174 0.34461 0.3498 0.61379 0.72172 0.15085 0.82315 0.11313 0.41093 0.19376 0.6398 0.13134 0.88297 0.9779 0.62029-0.28739 0.28999-0.40052 0.51235-0.30689 0.26919-0.0377 0.70221 0.21326 0.9896 0.0377 0.80365-0.01819 0.69962 0.01819 0.53186 0.0377 0.53316 0.13134 1.342 0.23277 0.72171 0.78284 0.6398 0.90118 0.60078 0.82055 0.43174h0.49415l0.82055 0.43173 0.3251 0.68011 0.23147 0.90378 0.49545 0.57998 0.47595 0.20805 1.052 0.33031 0.67101-0.0806 0.80234 0.12094 0.0936 0.53187-0.0936 0.62029-0.34461 1.1118 0.0182 0.62029 0.3264 0.95059 0.42003 1.2341 0.36281 1.2133-0.26918 0.76203-0.42003 1.1118-0.3069 0.78283 0.38232 0.86217 0.36282 0.70091 0.13133 1.0715-0.6697 1.0312 0.55787 0.41092h0.6515l0.34461-0.37061 0.43823-0.6203 0.36281-0.0806 0.42003 0.66061 0.78284 1.5436 0.42003 1.1326 0.78284 0.53187 0.43823 0.10142 0.59429 0.0208 0.49545 0.53186-0.25098 1.2809-0.53836 0.3303-0.3069 0.24837-0.3446 0.57998 0.15605 0.59948 0.38231 0.60079 1.0897 0.24967 0.65149 0.24968 0.6138 0.3303 0.40051 0.74123-0.26917 0.53317-0.94019 0.24967-0.99611 0.18855-0.53837 0.22887-0.3264 0.24968 0.59559 1.2341 0.26918 0.78153 0.13264 1.2796-0.11313 0.80235 0.13134 0.88297 0.21326 0.78155 0.43824 0.24967 0.70741 0.41092 0.43824 0.37192 0.11313 0.53186 0.0377 0.6411-0.0754 0.3303 0.53837 0.84266 0.36281 0.28999 0.0936 1.1925-0.0559 0.66061-0.17556 0.43043 0.3264 1.1938 0.55788 0.80235 0.3264 0.78154 0.30689 0.3303-0.25098 0.6606-0.3446 0.329-0.70742-0.28998-0.47594-0.0806-0.88297 0.36931-0.24968 0.47334-0.19506 0.76074 0.11183 0.57998 0.28869 0.62029 0.0559 0.69961-0.0195 0.49285-0.43823 0.86217-0.80105 0.49285-1.1717 0.34981-0.74513 0.51236-0.63199 0.60078-0.36281 0.6606-0.72692 0.35111-0.94019 0.12094-0.84526-0.12094-1.2094 0.62029-0.72563 0.49285-1.0897 0.95059-0.70872 0.86216-0.52016 1.1925-7.831-4.4487-5.6307-2.844z" fill="#c8e3c3"/>
 </g>
 <g fill="none" stroke="#345">
  <path d="m51.159 3.3146 2.1867 5.2481-0.43734 2.624-0.87468 3.28-1.312 3.0614-1.312 7.4348-1.968 6.3414-2.378 1.9052-2.1498 1.3229-2.6459 2.8113-1.6537 1.3229-0.16537 4.1342-1.6537 0.82684-3.3074 2.3152 0.66147 2.6459v2.4805l-4.2996-0.16537-1.4883 1.1576-2.3152-0.66147-1.9844 0.49611 0.33074 3.4727 3.142 3.6381 0.66147 1.8191v3.142l-0.4961 1.6537 0.82684 2.1498-0.49611 1.1576 1.6537 2.1498-0.33074 1.4883 1.4883 0.82684 0.66147 1.8191v2.3152l-0.16537 1.9844 1.3229 2.6459 1.4883 0.33074 2.6459 3.3074 0.16537 0.66147h1.1576l0.49611 2.3152 0.49611 2.1498v0.4961l-0.66148 2.1498 1.9844 1.6537-0.82684 0.33074-0.49611 2.6459 1.8191 2.6459-0.82684 1.323-0.82684 0.16537v1.9844l0.66148 1.6537 0.99221 1.323-1.1576 2.4805-0.49611 3.6381-1.3229 2.9766 1.8191 3.142-2.3152 2.4805v2.3152l1.6537 2.4805" stroke-width=".5px"/>
  <path d="m69.539 114.9 1.4883-0.66147-0.99221-1.6537-1.9844-2.1498-1.6537-1.6537-1.8191-2.4805-1.6537-1.819-1.8191-2.3152-1.9844-2.8113-0.99221-1.3229-0.99221-2.1498-1.4883-1.3229-0.99221-1.3229-1.8191-4.6303v-3.142l-1.3229-11.907-2.8113-8.5992 0.66148-1.1576v-0.99221l-0.66148-0.99221-3.6381-3.3074 0.49611-1.8191v-1.1576l-0.33074-1.6537 0.49611-1.8191 4.7957-5.9533 0.49611-1.4883 0.66148-0.82684 0.33074-0.49611-0.49611-1.1576v-1.3229l0.99221-1.1576 0.49611-0.33074-0.66148-2.4805-0.49611-1.4883-1.3229-0.82684-1.3229-0.82684-1.7562-2.4013" stroke-width=".5px"/>
  <path d="m38.299 42.563 2.0285 3.0406 1.3523 2.7028 3.5498 5.5745" stroke-width=".5px"/>
  <path d="m34.209 50.938 2.3152 0.99221 2.6459 0.16537 2.4805 0.33074 3.6381 1.323" stroke-width=".5px"/>
  <path d="m69.539 114.9-1.819 0.33074-1.4883 1.1576-1.6537 1.6537-0.66147 1.9844 0.33074 2.4805-1.323 0.49611-1.1576 0.82684-1.8191 0.49611h-1.1576l-1.9844 0.82684-1.9844 0.33074-2.4805 0.4961h-2.8113l-2.6459-0.16537-1.1576-0.82684-1.323 0.49611h-0.66148l-1.3229-0.99221-3.3074 2.3152" stroke-width=".5px"/>
 </g>
 <g fill-rule="evenodd" stroke-width=".44098">
  <circle cx="50.949" cy="2.3202" r="2.3202"/>
  <circle cx="45.474" cy="53.643" r="2.3202"/>
  <circle cx="71.089" cy="114.53" r="2.3202"/>
  <circle cx="39.163" cy="126.96" r="2.3202"/>
 </g>
 <g fill="#000000" font-family="sans-serif" font-size="3.5279px" letter-spacing="0px" stroke-width=".26459" word-spacing="0px">
  <text x="55.868202" y="4.64043" style="line-height:1.25" xml:space="preserve"><tspan x="55.868202" y="4.64043" font-size="4.939px" stroke-width=".26459">Raipur</tspan></text>
  <text x="50.114067" y="54.942722" style="line-height:1.25" xml:space="preserve"><tspan x="50.114067" y="54.942722" font-size="4.939px" stroke-width=".26459">Kanker</tspan></text>
  <text x="70.160736" y="108.95736" style="line-height:1.25" xml:space="preserve"><tspan x="70.160736" y="108.95736" font-size="4.939px" stroke-width=".26459">Jagdalpur</tspan></text>
  <text x="26.540668" y="134.94379" style="line-height:1.25" xml:space="preserve"><tspan x="26.540668" y="134.94379" font-size="4.939px" stroke-width=".26459">Dantewada</tspan></text>
 </g>
</svg>
