<svg width="197.78mm" height="283.85mm" version="1.1" viewBox="0 0 197.78273 283.85098" xmlns="http://www.w3.org/2000/svg">
 <g fill="none">
  <g transform="translate(-5.6198 -1.3204)" stroke="#85c5e3" stroke-width=".7">
   <path stroke="#e2e2e2" fill="#85c5e3" d="m6.111 26.942 3.5407-0.1967 4.1308-0.59011h4.1308l4.3275-3.7374h5.5078l5.1143 2.3605 3.5407 0.39341v-2.3605l4.7209-0.39342 1.9671-2.3605 3.7374 1.3769 1.5736-2.1638 1.5737-5.9011 2.3604-5.311 3.344 0.39341-1.1802-1.5736 1.967-5.1143 5.5078 1.967 0.59011 2.9506 3.5407 4.5242-1.9671 5.5077 1.5737 1.967 2.5571-0.59011 1.7704 1.967h2.1637l1.377-0.59011 5.5077 1.1802h3.344l2.7539 2.5572v2.7539l2.3604 2.5572-0.98352 3.344 4.7209 4.5242 0.98352 6.688 0.98352 4.1308-2.1637 3.7374 1.967 4.5242 4.5242 3.1473 3.5407 3.344 4.9176 1.5736 1.7704 0.98353 2.9506-1.5736 0.98352-4.5242 4.1308-0.1967 3.344-1.1802 6.688-0.78682 1.3769 1.3769-0.19663 2.1637 2.7538 0.78682 1.7704 1.3769-0.3934-2.5572 1.9671-2.1637-6.688-1.5736 4.3275-2.1638 3.9341-1.967 2.7539-0.1967 0.39341-1.9671 3.5407 0.1967 5.5077 0.1967 1.9671-1.1802 3.9341-0.59011-0.3934-2.7539 1.967-2.7539 2.7539-2.5572 2.7539 1.1802 0.19662 1.3769-0.59011 1.7703 0.19662 2.1638 1.967 0.78682 1.7703 0.59012 2.9506 1.1802 3.344 0.59012-0.98352-1.967-1.1802-0.59012v-2.3605l3.344-0.39341 0.98355 1.7703 2.5571 0.1967 0.59014 1.967 1.967 1.7703 0.98351 3.5407-1.3769 1.1802 0.19663 1.967 1.7703 1.3769 1.7704 0.78682 0.98351 1.967 0.19662 3.344 0.39341 3.1473-5.1143 4.1308v4.5242l2.5572 0.98352h1.967l1.7703 2.7539 3.5407 3.5407 0.98356 3.1473v2.3605l-0.78684 1.967-2.3604 2.7539-4.9176 1.3769-1.377 2.9506-0.3934 2.5572 2.5572 3.7374 5.1143 8.4583-0.59011 3.9341-1.5736 4.9176 3.344 7.2781-0.9835 4.1308 0.9835 1.1802 3.7374 1.5736 4.9176-0.19671 3.344 3.5407-0.39341 4.5242 1.377 4.5242-2.3605 2.9506 3.9341 7.278 1.7704 4.1308-1.3769 2.3605-5.9012 0.39341-3.344-0.78681-4.5242 1.3769-2.5572-0.19663-1.5736 4.1308-4.9176 3.344-0.59013 2.1638 3.5407 2.7539 11.015 4.5242 1.1802 4.7209 2.5572 3.7374 1.3769 6.0979-5.7044 6.8846v3.5407h-3.9341v12.786l-2.7539 3.1472 1.9671 6.8847-1.1802 2.7539 3.344 1.9671 1.1802 6.2945-3.5407 4.1308v3.344l-4.7209 2.5572-1.1802 4.3275-1.5736 0.98351 2.3604 2.5572 0.19661 4.5242-5.1143 3.9341-3.9341-1.1802-0.39341 3.1473-3.344 1.7704h-2.1638l-2.1637 5.1143h-2.7539l-1.7703-1.3769 0.59009-3.9341-6.0979-3.7374-2.7538 0.98351-0.98354 2.3604-2.1637 1.7704 3.9341 4.3275-0.39341 4.1308h-2.7539l-3.344-2.5572-5.7044 0.59014-2.3604-0.98353v1.5737h-1.967l0.39342 1.967h-4.9176l-2.5572 3.344h-3.5407l-1.7704-3.1473-5.7044-0.19662-0.39341-1.7703-4.9176-0.78681-0.19662-3.7374h1.9671l-2.3605-6.688 1.9671 0.19661v-2.3605h2.3604l-1.3769-1.1802 4.5242-3.7374-5.5077 2.9506-2.1638-4.1308 9.4418-7.4748-10.425 4.9176-1.3769-4.5242-2.5572-0.59013 0.78682-1.7703-2.9506-1.5737 0.3934-2.1637-1.5736 1.7703-2.9506-0.78681-2.1637-1.9671-3.9341-0.3934 1.967-3.1473-2.3604-5.7044h-4.1308l0.59011-1.967-1.5737-2.7539-4.3275-2.1638-5.5077-0.59011-1.9671-2.9506-3.5407-0.19663 3.344-2.7538v-2.5572l-1.7703-1.5736 5.1143-1.7704 1.5736-2.3605-1.7703-3.7374 2.1637-1.1802 1.9671-1.967 1.967 2.3604-0.3934-3.1473-0.59011-1.1802 0.59011-3.1473-1.967-4.1308-0.78681 0.98352 1.5736 2.7539-0.19663 3.344-0.98352 0.59009-13.966-52.324-8.0649-16.917-7.6715 1.5736-3.9341 0.59014-0.59011-3.7374-1.7704 1.1802h-2.1638l0.39344-1.1802h-3.9341l-0.78684-6.2946-5.7044-0.78682 0.39341-1.1802-0.78682-0.39341v-1.5738l-1.5736-0.19669 0.39341-1.9671 3.7374-0.1967 2.1637 3.5407 1.9671-0.59012 2.1637 0.78684 1.5736-1.3769 2.1638 1.5736 2.9506-2.9506 1.967 3.1473 2.7539-0.78681 1.9671 1.7703 3.9341-3.5407-1.9671 3.5407 2.9506 0.19671 2.3605-0.19671 0.98352-0.78682v-2.3605l2.1637-0.5901 2.3605 2.3605h1.5736l-0.59011-4.1308-2.7538-0.19669-3.5407-5.5077-3.5407-0.19672-3.1473 2.5572-0.78681-4.5242-1.377-0.39342-2.1637-3.5407h-1.377l-0.59011 1.7703-1.967-0.98352-2.1638-1.1802-4.1308 0.59012-0.98352-1.1802-2.7539 1.5736-3.7374-3.1473h3.344l1.967-3.5407v-4.3275l3.344-2.3605 0.39341-1.967 1.9671-0.39341 1.5737 0.39341h5.1143l1.7703-1.3769 1.377 0.59011-0.19662-3.344-1.9671 0.1967-0.39341 0.78683h-1.9671l-1.7703 2.1638-1.5736-0.98352-1.7704 0.3934-2.7539-1.7703-2.9506 3.5407-0.98354 1.1802-2.1637 0.19671-1.9671-2.5572-2.3604 1.7703-1.9671 2.5572h-1.7703l-2.1638-1.967 1.5736-1.5736-5.5077-18.097-3.1473-1.3769 0.19662-3.344-2.3604-5.1143-0.39344-6.8847 2.3605 0.98352 0.78681 1.7703 3.344-2.3605 2.1638-1.967 2.7538 1.1802 2.9506-2.1638-2.9506 1.1802-2.3604-1.7704-2.3605 1.7704-1.7703-1.7704 2.7539-3.5407h2.9506l3.344-2.5572-0.19662-3.7374-4.3275 4.5242-2.5572 0.59012-2.1637 2.3605-2.5572 2.1638-0.19662 2.3605-1.7704-0.98353-2.3604-3.1473z"/>
   <path d="m44.18 99.11 0.35492-0.59153v1.0943l0.32533-0.56195 0.41407 0.56195 0.1183 0.70983 1.3901 0.0592 2.6027 2.0703 0.02961 0.7394 0.79856 1.538 0.56195 0.53237 0.59153 0.11831 0.2366 1.2422 0.47321 0.94643 1.8337 0.0887 1.5084-0.70983 0.73941 0.56195 0.41407 1.1239-0.14788 1.2126-0.17746 0.85771-0.35492 0.76898-0.7394 0.94644 0.08873 0.65067-0.32534 0.53237 2.7802 2.0999 2.0112-0.0887 2.0703 1.4197 4.1111 3.8153 1.538 0.6211 0.26618 0.7394 1.538 1.6267v2.6323l0.47322 1.7154-2.6619 0.14788-0.91686-0.5028-1.538-0.0592-0.70983 0.70983-2.0408 0.7394-2.9872 1.0647-1.0056-0.29576-0.32534-1.1239-1.0056-0.62109-1.4197 0.41407-0.44364 1.2126 0.14788 0.38449-0.26618 0.20703 0.41406 0.26618-0.35491 0.23662 0.14788 0.32533-0.68025 0.29577-0.23661 0.56194-1.6563-0.0591-1.0056-0.35492-0.97602 1.3605-0.85771 0.35492" stroke="#802000"/>
  </g>
  <g stroke="#f99">
   <path stroke="#802000" d="m38.678 99.269 0.97632-0.97631 0.65088 0.43391-0.21696-1.8442 0.75936-0.43391 0.97631 0.43391 0.21696 0.97632 1.7357 1.1933 6.8342-2.8205h2.6035l1.7357 1.5187 6.6173 2.6035 1.8442-0.54239 2.0611-3.6883 14.102 3.2544 0.21695 1.8441 1.6272 3.0374-0.97632 4.8816 1.0848 0.21695 0.65089 1.1933-0.21696 1.5187 2.6035 1.6272 1.0848 3.3629 2.6035 0.54239-0.97631 1.6272 1.4102 0.97632-1.4102 1.7357 3.7968 4.7731 3.0374 0.43393 2.2781-1.3018 1.6272 0.43391 4.0137-2.0611h1.3018l3.2544-3.7968h1.1933l1.6272 1.4102 2.8205 1.0848 1.9526 0.32545 1.9526-0.21697 2.0611 1.6272h1.0848l1.3017 0.86782 4.4477 3.9053 3.7968 0.54239 3.3628 2.2781 3.7968 1.3018 13.668 8.2445 5.5325-0.43392 0.86784-1.9526 3.3629-1.0848 1.9526-0.10849 3.1459-2.495 0.86784-2.0611-0.86784-0.65088" stroke-width=".55187px"/>
   <path stroke="#df9fdf" d="m64.066 126.85 4.9699 6.1627v5.5663l0.99398 1.1928-0.59639 7.3555 3.8765 3.7771 2.0874 4.8705 4.6717-0.19879 1.988 1.6898 2.3856 5.1687 10.238 2.3856 1.491 1.0934 1.5904-0.89458 3.7771 1.8886 0.99399-0.2982-0.0994 3.0814" stroke-width=".563px"/>
   <path d="m38.767 99.503 0.56313 0.60068-0.30033-1.0981 0.36603 0.36604 0.23464-0.73206 0.63352 0.30033v-1.6659l0.53496-0.56782 0.69922 0.30034 0.49743-0.30034-0.29564 0.46458-0.03753 0.30033 0.66637 0.39889 0.43642-0.30033-0.50213-0.79776 4.3689-1.2342 3.8997-0.53028 0.73207-0.73676h0.56783l1.6988-2.5669-0.56782-1.3656 0.1361-0.83062 0.46458-0.63351-0.20179-0.80246 0.66637-0.26279 0.53496-0.43642 0.93386-0.16426 0.60068-0.03288 1.1966-0.46927 1.2013-1.3327 0.73207-0.63351 0.13609-0.76491-0.36603-1.267 0.39889-0.90102-0.39889-0.33318-0.53497 0.43173" stroke-width=".5006px"/>
   <path d="m65.473 96.123-0.09985-1.7972 1.5975-1.0983" stroke-width=".64232px"/>
   <path d="m43.044 96.882-0.21156-3.0888-0.29618 0.50775-0.63469-0.0423-0.46543-0.50775-1.3117 0.50775-0.71931-0.42312-0.0423-0.42312-1.2271-0.76162-1.354 0.16925-0.46544 0.93087-0.71931 0.16925-0.16925-0.3385h-1.6079l-1.9887 0.08463-0.63468-0.29618-0.80393-0.3385-1.1001 0.21156-0.63468-0.21156-0.76162 0.08464-2.6234-0.88856h-1.0578l-0.21156-0.50776" stroke-width=".53991px"/>
   <path stroke="#ff794d"  d="m42.833 93.793-0.38105-1.6331v-1.0887l-0.38105-0.48992-1.252-0.38105-1.0887-3.8105-2.3407-2.4496-0.38105-1.1432-1.1976 0.10887-1.0343-0.16331-0.5988-0.48992-1.252-0.27218-1.0343 0.10887h-3.5383l-2.5585 1.3065-1.6875-0.05443-1.252 1.3065-0.05442 1.6331 0.81654 3.0484 0.38105 2.2863" stroke-width=".4px"/>
   <path stroke="#ff794d" d="m39.861 86.385-1.4865-4.124-0.7193-0.95906-0.19181-1.9661-2.8772-3.8842-0.33567-4.2199 1.007-2.6374 0.76724-0.09589 0.19181-0.23976-0.76725-0.43158 0.19181-1.3427-0.67134-1.055-1.1509-0.57544 0.04795-0.91111-2.7333-1.6784-1.2947-1.4386-1.3427 0.19181 0.09591-1.7743-5.3707-0.71929-0.23976-0.76725-1.007 0.14387-0.76725-1.055-0.28772-3.2128-1.8222 1.3906-0.67134 1.1988-1.1509 0.67134-2.062-1.9181-0.57544 1.1509 0.62339 0.33567" stroke-width=".57344px"/>
   <path stroke="#ff794d" d="m44.157 132.79 2.5869-1.9402 1.9402 0.80842 4.042 1.1317 3.3953-0.48503 0.64672 2.4252 2.7486 2.2635h3.3953l4.2037-1.9402 3.8803 1.2935-0.16168-2.5869 1.9402-1.6168 6.6289 0.64671 1.1318 1.9402 0.16168 2.7486 4.2037 2.2636 1.1318 2.4252 1.6168 1.1318 0.64672 1.1318h2.2635l0.97008 1.4551 1.7785-0.16168 1.9402 1.4551 1.7785-3.7186-1.9402-2.7486-0.16168-1.1318 3.0719-0.64673 0.64672-1.6168-1.1318-2.5869 1.6168 1.4551 1.9402-0.16168-0.8084-2.2635 1.9402-3.3953 1.7785-1.4551-0.32336-1.6168 1.1318-0.97009-1.4551-2.1018" stroke-width=".58755px"/>
   <path d="m62.073 120.89-1.4533-3.3607 1.2716-0.45415 0.54498-2.1799 2.3616-0.45415 1.4533-0.99913 1.1808 0.36333 1.1808-0.2725 0.6358-1.2716v-1.0899l0.99912-1.09-1.1808-4.269 0.99912-0.81746 0.6358-1.3624-0.36332-1.1808-1.2716-1.2716 0.27249-3.3607-0.6358-0.81747-1.1808-0.54497-1.3624-1.7258 0.27249-1.2716" stroke-width=".61292px"/>
   <path d="m73.121 168.29-1.4494 0.13177-0.92237-2.5036-1.5812-3.8871-1.1859 0.13176-0.7906-2.5694 0.06588-4.2824-0.72472-1.1859 0.52707-0.79059-1.7789-3.2942 1.713-0.52706-1.5153-2.24 2.5036-0.98826 0.85648-1.3177 0.19765-6.3907-0.52707-0.92237-0.13177-5.073-1.0541-0.72472v-0.46118l-3.3601-4.2165" stroke-width=".54384px"/>
   <path d="m34.25 71.236h-1.7646l-0.48126-0.8021-1.524-1.0427-1.6844-0.64168-1.4438-0.96252-1.2834-0.32084-0.40105 0.40105-1.2834-2.3261-1.0427-0.56147-0.88231-1.6042h-1.4438l-0.40105 0.88231-2.1657 0.40105-0.88231 0.56147-0.48126 1.2834-1.6844-0.48126-0.72189 0.72189" stroke-width=".66px"/>
  </g>
 </g>
 <g stroke-width="1.3385">
  <ellipse cx="164.2" cy="132.76" rx="1.1164" ry=".95694"/>
  <ellipse cx="102.45" cy="170.27" rx="1.1164" ry=".95694"/>
  <ellipse cx="73.084" cy="168.82" rx="1.1164" ry=".95694"/>
  <ellipse cx="43.56" cy="132.36" rx="1.1164" ry=".95694"/>
  <ellipse cx="39.043" cy="100.42" rx="1.1164" ry=".95694"/>
  <ellipse cx="67.599" cy="92.511" rx="1.1164" ry=".95694"/>
  <ellipse cx="24.523" cy="91.059" rx="1.1164" ry=".95694"/>
  <ellipse cx="23.071" cy="85.574" rx="1.1164" ry=".95694"/>
  <ellipse cx="57.757" cy="81.702" rx="1.1164" ry=".95694"/>
  <ellipse cx="15.165" cy="67.02" rx="1.1164" ry=".95694"/>
  <ellipse cx="14.52" cy="56.534" rx="1.1164" ry=".95694"/>
 </g>
 <g fill="#000000" font-family="sans-serif" font-size="6.3501px" letter-spacing="0px" stroke-width=".26459" word-spacing="0px">
  <text x="68.719116" y="89.087029" style="line-height:1.25" xml:space="preserve"><tspan x="68.719116" y="89.087029" font-size="4.2334px" stroke-width=".26459">Velha Goa</tspan></text>
  <text x="155.81235" y="129.14256" style="line-height:1.25" xml:space="preserve"><tspan x="155.81235" y="129.14256" font-size="4.2334px" stroke-width=".26459">Molem</tspan></text>
  <text x="105.09983" y="171.77045" style="line-height:1.25" xml:space="preserve"><tspan x="105.09983" y="171.77045" font-size="4.2334px" stroke-width=".26459">Chandor</tspan></text>
  <text x="74.966309" y="172.50542" style="line-height:1.25" xml:space="preserve"><tspan x="74.966309" y="172.50542" font-size="4.2334px" stroke-width=".26459">Benaulim</tspan></text>
  <text x="20.946468" y="103.41883" style="line-height:1.25" xml:space="preserve"><tspan x="20.946468" y="103.41883" font-size="4.2334px" stroke-width=".26459">Panjim</tspan></text>
  <text x="3.7333138" y="73.145218" style="line-height:1.25" xml:space="preserve"><tspan x="3.7333138" y="73.145218" font-size="4.2334px" stroke-width=".26459">Anjuna</tspan></text>
  <text x="3.2258272" y="52.724388" style="line-height:1.25" xml:space="preserve"><tspan x="3.2258272" y="52.724388" font-size="4.2334px" stroke-width=".26459">Morjim</tspan></text>
  <text x="2.2048919" y="133.55234" style="line-height:1.25" xml:space="preserve"><tspan x="2.2048919" y="133.55234" font-size="4.2334px" stroke-width=".26459">Vasco da Gama</tspan></text>
  <text x="2.2048917" y="82.472343" style="line-height:1.25" xml:space="preserve"><tspan x="2.2048917" y="82.472343" font-size="4.2334px" stroke-width=".26459">Calangute</tspan></text>
  <text x="2.5723734" y="94.231773" style="line-height:1.25" xml:space="preserve"><tspan x="2.5723734" y="94.231773" font-size="4.2334px" stroke-width=".26459">Candolim</tspan></text>
  <text x="56.959698" y="78.797539" style="line-height:1.25" xml:space="preserve"><tspan x="56.959698" y="78.797539" font-size="4.2334px" stroke-width=".26459">Chorao island</tspan></text>
  <text x="5.3814368" y="223.75981" style="line-height:1.25" xml:space="preserve"><tspan x="5.3814368" y="223.75981" font-size="3.175px" stroke-width=".26459">Panjim---Vasco da Gama=<tspan fill="#ff0000" font-size="3.175px">25.4km</tspan></tspan></text>
  <text x="5.3814249" y="218.37837" style="line-height:1.25" xml:space="preserve"><tspan x="5.3814249" y="218.37837" font-size="3.175px" stroke-width=".26459">Panjim---Mollem=<tspan fill="#ff0000" font-size="3.175px">59.3km</tspan></tspan></text>
  <text x="4.9329753" y="212.10004" style="line-height:1.25" xml:space="preserve"><tspan x="4.9329753" y="212.10004" font-size="3.175px" stroke-width=".26459">Panjim---Morjim=<tspan fill="#ff0000" font-size="3.175px">27.9km</tspan></tspan></text>
  <text x="4.9329753" y="205.8217" style="line-height:1.25" xml:space="preserve"><tspan x="4.9329753" y="205.8217" font-size="3.175px" stroke-width=".26459">Panjim---Velha Goa=<tspan fill="#ff0000" font-size="3.175px">13km</tspan></tspan></text>
  <text x="4.932971" y="199.09492" style="line-height:1.25" xml:space="preserve"><tspan x="4.932971" y="199.09492" font-size="3.175px" stroke-width=".26459">Panjim---Chorao=<tspan fill="#ff0000" font-size="3.175px">14.1km</tspan></tspan></text>
  <text x="5.381433" y="229.14124" style="line-height:1.25" xml:space="preserve"><tspan x="5.381433" y="229.14124" font-size="3.175px" stroke-width=".26459">Vasco da Gama--Molem=<tspan fill="#ff0000" font-size="3,175px">60.4km</tspan></tspan></text>
 </g>
</svg>
