<!-- Created with Inkscape (http://www.inkscape.org/) -->
<svg width="268.27mm" height="127.02mm" version="1.1" viewBox="0 0 268.26663 127.01493" xmlns="http://www.w3.org/2000/svg" xmlns:cc="http://creativecommons.org/ns#" xmlns:dc="http://purl.org/dc/elements/1.1/" xmlns:rdf="http://www.w3.org/1999/02/22-rdf-syntax-ns#">
 <metadata>
  <rdf:RDF>
   <cc:Work rdf:about="">
    <dc:format>image/svg+xml</dc:format>
    <dc:type rdf:resource="http://purl.org/dc/dcmitype/StillImage"/>
    <dc:title/>
   </cc:Work>
  </rdf:RDF>
 </metadata>
 <g transform="translate(-1.3741 -78.745)" fill="#e2b584" stroke="#fff">
  <path d="m140.69 179.9 2.9836-0.16086s2.749 0.62464 4.4752-0.39835c1.7262-1.023 3.5327-0.5544 3.5327-0.5544s5.4209 2.3486 8.4026 0.69594l3.7673-1.2612 4.5547 0.38677 4.237-2.5182 2.201 1.8031 2.355-0.47415 1.7315 3.06 4.002-2.1253 1.8655-0.33475 2.9994 1.5377c4.0282 2.4784 9.4216 0.58726 9.4216 0.58726 1.3717 1.026 4.3689 0.76512 4.3689 0.76512l1.2819-1.9715 4.8842 2.0491 0.42554-2.2272s-0.34154 0.85679-4.0267-1.1939c-3.6852-2.0508 0.93365-6.51 0.93365-6.51l-1.6273-0.16903c0.0791-5.1386-3.6021-4.0208-3.6021-4.0208l0.68056-3.5122-3.3445-3.3361-1.2859-0.94044 0.85248-3.0842-4.6206 3.0889 0.24948-5.824-1.7985 4e-3 -0.0898-3.1688-1.7978 0.77313-1.545-2.5674-2.3115 0.68805c-5.9083 0.86413-5.1454-5.2175-5.1454-5.2175-1.9717-1.4534-5.0532-0.079-5.0532-0.079l1.1149 1.1118-1.6237 2.7429c-1.5368 3.6846-3.7628 4.2014-3.7628 4.2014l-2.8313-3.9358 2.3105-1.4589-1.9793-7.2772 1.8828-1.1158 1.0233-3.3414c3.1618-5.4854 12.671-3.442 12.671-3.442l0.50971-3.2551-1.3713-0.85462 2.9022-7.4546-4.1989-1.7931 0.68237-2.1421 2.3143 1.453 2.4813-1.973s-2.3141-1.2816-3.6886-4.6199c-1.3745-3.3384 4.0189-4.8868 4.0189-4.8868 2.4788-3.686-2.2318-3.9367-2.2318-3.9367l1.0185-7.281-5.224 0.2638 0.0831-2.0557 2.6543-0.51723 1.5407-0.7735-0.17473-2.6547-1.1942-2.864-0.57174-1.2325-0.49164-0.17264-0.87449-0.47255-0.82085-0.35658-0.87504-0.70309-1.0893-0.67413-1.5813-1.1168-7.7233-1.9953 0.0538 0.14469 0.6266 0.82858 0.38478 0.29792 0.27775 0.58762 0.34671 0.54404 0.0653 0.10229 4.9e-4 0.38604-0.3832 0.85837-0.84623 0.70526-0.38408 0.23288-0.8752 0.32814-1.3111 0.561-0.76599 0.58887-0.57083 0.85858-0.51687 1.2053-0.049 3.3545 0.49346 1.4755 0.10836 1.031-0.27505 1.5036 0.0282 0.82928 0.18882 0.88608h0.0536l0.10795 0.704 0.18824 0.35727 0.35745 0.1156 0.59943 0.50149 3.249-0.03441 1.0348-0.1156 0.82068 0.14374 0.6241 0.38353 0.33134 0.41427 0.0543 0.70398-0.76581 0.67646-1.8026 0.47591-1.801 1.8628-0.67878 0.35657-0.62338 0.17416-0.79351 0.0582-0.67931-0.22967-0.65289-0.41372-0.59693-0.0278-1.471 1.1762-1.4453 0.4468-0.95311 0.94667-0.51793 0.23127-0.57138 0.29918-1.3915 0.5898-0.35689 0.41514-0.10686 0.4434 0.0811 0.44485 0.38478 0.41409 1.2049 0.29865 0.65127 0.5281-0.5982 0.50294-0.65196 0.20285-1.008 0.17455-0.6788 0.23323-0.4643 0.2992-0.24985 0.29862-0.27665 0.23269-0.18748 0.0878-1.0341 0.50362-0.59854 0.14546-0.87413 0.0298-1.5797 0.0898-2.2394 4e-3 -2.0983-0.14203-2.0179-0.11178-1.2855-0.47199-1.1426-0.44359-1.2046-0.0269-0.54547-0.26915-0.57259-0.50149-0.13463-0.47165 0.026-0.35744 0.27646-0.55975 0.3301-0.32743 0.30328-0.41516-0.82068-0.26878-0.10768-0.23217 0.08-0.29846 0.81924-0.73383-0.57262-0.58728-0.35852-0.76079-0.57333-1.329-0.0274-0.38604 0.74134-0.29935 0.43715-0.35799 0.21411-0.35763 0.57049-1.1481 0.0528-0.5024-0.1618-0.73258-1.0623-0.55617-0.87377 0.11731-1.6684 0.56153-2.8368 1.2081-0.98065 0.23378-0.38426 3.6e-4 -5.2354 2.1264-0.76654 0.11712-1.8567 0.30097-1.0879 0.32849-0.59855 0.14546-1.5254 0.62034-1.3649 0.56117-0.59836 0.23324-0.38425 0.0576-2.3191 0.53385-2.3729 0.47487-0.38212 0.17397-1.4721 0.44519-0.51776 0.38495-0.35618 0.94582-0.89788 2.1797-0.65073 1.2359-1.0598 1.4757-0.59781 0.56012-0.98029 0.67503-0.46557 0.23324-0.3308-0.0571-0.41069 0.17398-0.65036 0.0577h-0.0269l-1.2582 0.0874-3.8995 0.0353-0.35744-0.11561-0.43788 0.0595-1.4459-0.0571-0.21447 0.11643-0.25039-0.0587-0.46467-0.0581-1.3656-0.0555-0.54331 7.5e-4 -3.4371-0.294-0.92775-0.11479-0.57173 7.5e-4 -0.95454-0.056-0.49184-0.29956-0.46539-0.58743-0.35763-0.11561-0.54563-0.47291-0.70667-0.44234-0.35798-0.44449-0.33099-0.2981-3.0292-2.7626-0.27756-0.47147-1.3402-1.1744-0.65215 8.5e-4 -1.1145 0.58941-1.0076 0.20321-2.2655 0.67843-1.5263 0.0594v-0.0571l-0.57012-0.0581-1.4732-0.41268-0.2772-0.11603-0.41105-0.0566-1.1422-0.0269-0.6788 0.20285-0.30364 0.11657-0.18767 1.9e-4 -0.57171 0.17416-1.1688 1e-3 -1.8306-0.49992-1.2048-0.17168-1.0346 0.17473-1.0344 0.33011-0.18766 0.11643-0.05324 0.1736-0.16086 0.0289-1.4451 0.53279-0.38407 0.20232-0.43769 0.0576-0.41071 0.2329-1.3107 0.76292-0.57208-0.0278-1.8846-0.67126-0.13422-0.17321-0.43786 5.5e-4v-0.059l-0.65252-0.17379-1.0891-0.58657-0.76887-0.22965-0.74008-0.17245-0.43786 0.0293-0.35727 0.2023-0.54473 0.30097-1.7751 1.1783-1.5252 0.83126-0.54493 0.11698-0.21447 0.0575-0.84892 1e-3 -0.2772-0.17302-0.62623-0.55849-0.62678-1.0305-0.16139-0.47147-0.54636-0.8859-0.51952-1.0019-0.30401-0.1445-0.41105-0.0281-0.98064 0.47308-0.76582 0.5889-0.46378 0.73343-0.46252 1.6502-0.02601 0.50219-0.10675 0.38444-0.30292 0.70453-0.38175 0.50274-0.18766 0.0576-0.67914 8.5e-4 -0.2772-0.17302-0.43948-1.2327-0.252-1.4187-0.30686-2.391 0.05251-0.73273-0.33135-0.55904-1.231 0.32865-0.76814 0.20484-1.1415 0.38744-0.30346 0.29882-0.18713 0.32903 0.0036 3.0364-0.07806 1.8911-0.05237 0.97401 0.0025 1.8891-0.02189 3.6818 1.81e-4 0.17341-0.10199 4.0696-0.51525 2.2668-0.07744 2.3913-21.365-0.0887-0.16122-0.17321-0.0806-0.23054-0.08096-0.38586-0.16122-0.32691-0.13405-0.0587-0.18748 0.0594-0.27684 0.17378-0.30364 0.17378-0.05349 0.1736-0.41088 0.17398-0.30384 0.0595-0.27684 0.0289-0.25003 0.11629-0.24109 0.14507-0.18711 0.41484 6.54e-4 0.58799 5.53e-4 0.41462 0.10783 0.38604-0.07976 0.44324-0.10686 0.32885-0.25003 0.14526-0.38407 0.14527 0.027 0.1447-0.79317 0.26022-0.67755-0.20125-0.7047-0.35654-0.21428 0.0594-0.24109 0.23269-0.053238 0.23234 0.25111 0.73239-0.16032 0.3864c-0.1219 0.29291-0.4695 0.47575-0.83908 0.57656l-0.00475 0.0137c-0.074876 0.1715-0.22447 0.49362-0.19033 0.68647 0.021638 0.12861 0.22894 0.13728 0.26665 0.25343 0.13494 0.67001 0.19928 0.72006-0.032095 1.3924-0.048143 0.14297-0.24254 0.46863-0.14762 0.60426 0.11817 0.17133 0.35369-0.0612 0.50416 0.17456-1.0108 0.55177-0.7602-0.62616-1.5541-0.76986-0.20875 0.24147-0.83123 1.2235-1.203 1.1739-0.26092-0.0352-0.43124-0.45861-0.67967-0.41356-0.22698 0.0412-0.21196 0.54365-0.21358 0.71862-0.011028 1.135 0.43914 2.1959 0.37782 3.2971-0.06284 1.1492-1.1236 1.8317-1.3581 2.9132-0.14388 0.66502 0.10686 1.0612 0.53635 1.5416 0.3755 0.41751 0.66323 0.42823 0.8493 0.90578 0.01521 0.0391 0.030042 0.0802 0.043769 0.12601 0.55063 0.0958 0.6309 0.0831 0.93366 0.54011 0.19515 0.29469 0.3258 0.47322 0.7011 0.47824 0.53993 5e-3 1.5275-0.39888 1.2746-1.0811 0.32171-0.0487 0.43395-0.39552 0.59801-0.64788l0.21464 0.0587 0.2302-0.2829 0.8298-1.0196-0.18801-0.38589c0.68612-0.0865 1.122-0.20874 1.749-0.50436l0.30437 0.41429c-0.42286 0.57423-1.0629 0.44108-1.3944 1.0848-0.043769 0.0848-0.087178 0.16922-0.13066 0.25377-0.17158 0.33331-0.3426 0.66611-0.51472 0.99978-0.082044 0.15724-0.1476 0.53455-0.24394 0.64732-0.50865 0.59763-1.0244 1.1486-1.6618 1.6144-0.54654 0.3991-1.5674 0.0556-1.9582 0.47058 0.55637 0.3567 2.3126 4.9e-4 2.3622 0.89413 0.025763 0.47361 0.17192 0.27129 0.29918 0.56797 0.089593 0.20894 0.10419 0.48953 0.15104 0.71115 0.082538 0.38764 0.46163 0.50862 0.25324 0.96668-0.88289-0.0312-0.68289 1.2124-0.65001 1.745 0.72525-0.24415 1.167 0.0789 1.9105 0.12259 0.63446 0.0369 1.2312-0.27325 1.8097-0.48664 0.62355-0.23126 1.2074-0.63248 1.7895-0.94777 0.57333-0.31007 0.6105-0.64964 0.49344-1.2323 0.30186-0.1111 0.53278 0.0956 0.83819 0.0274-0.31882-0.58047-0.40461-0.64998-0.17122-1.2616 0.69559 0.35833 0.99815-1.9493 1.2139-2.3733 0.55797-1.0981 1.0053-2.0118 1.2344-3.222 0.01844-0.0958 0.04522-0.25272 0.08886-0.41876 0.09116-0.34777 0.25592-0.73794 0.5728-0.70451 0.57369 0.0601 0.922-0.21194 1.4741-0.27897 0.54527-0.0655 1.0141 0.33954 1.5465 0.35403l0.03014 1e-3c0.08791 0 0.17586-0.019 0.26058-0.0516 0.36941-0.14356 0.67002-0.56618 0.57638-0.9719 0.19839 4e-3 0.33582-0.081 0.41069-0.25964l0.05362 0.0855c0.45556-0.20426 0.53314-0.92645 0.68467-1.3502 0.17052 0.58603 0.21232 1.0936 0.24343 1.7064 0.97296-0.80728 1.8548-1.6251 2.7402-2.5288 0.74972-0.766 1.779-0.89234 2.679-1.3813 0.64661-0.35118 0.97332-0.5964 1.4587-1.1456 0.29613-0.33454 0.58333-0.84782 1.0677-0.85745 0.68808-0.0137 1.3188-0.0536 1.9892 0.0956 0.42912 0.096 1.2512 0.14849 1.4705-0.32725 0.24752 0.65557 0.70095 0.24039 1.0795-0.0211 0.36243-0.24877 0.87002-0.30491 1.2898-0.4216 0.88253-0.24591 1.1156-1.1238 0.24288-1.5747l0.05324-0.1736c0.26807 0.0229 0.73508 0.40835 0.88378 0.58689 0.20571 0.24826 0.27039 0.5108 0.10807 0.82928-0.50399 0.0239-0.719 0.88378-1.3213 1.0062-0.59318 0.12054-1.315 0.23034-1.8419 0.5456-0.2679 0.16105-0.59478 0.29026-0.79281 0.5353-0.18211 0.22553-0.40141 0.64928-0.64589 0.80156-0.2822 0.17739-0.51097 0.0597-0.79317 0.35669-0.20339 0.21288-0.35135 0.51688-0.51739 0.7621-0.38837-0.45896-0.56763-0.83393-1.1874-0.50794-0.4268 0.22395-0.66376 0.75153-0.97081 1.0988-0.37122 0.42033-0.67665 0.63354-0.78119 1.2108-0.03404 0.18824-0.15568 0.42071-0.31813 0.60784-0.16781 0.1932-0.37978 0.33778-0.58495 0.3335l-0.14264-0.21823-0.07221-0.11028c-0.04715 0.0475-0.09383 0.0956-0.14047 0.14375-0.43446 0.4489-0.85625 0.92556-1.3626 1.286-0.5392 0.38318-1.2076 0.42339-1.7522 0.8082-1.132 0.80227-1.7507 1.9593-2.7199 2.8933-0.64787 0.62283-2.8566 2.2702-2.4638 3.3776 0.13815 0.38764 0.08655 0.63768 0.03721 1.0543-0.03902 0.32724-0.39461 0.29364-0.62678 0.4888-0.48737 0.41-0.52025 1.198-0.97011 1.6848 0.30222 0.14242 0.63963-0.15819 0.92004-0.2997l0.02699 0.11424c-0.14817 0.13423-0.35154 0.41694-0.55172 0.45647-0.13922 0.0269-0.46986 0.0239-0.56261 0.13842-0.28558 0.35063-0.5728 0.68343-0.80121 1.0734-0.42803 0.73328 0.01635 1.5761 0.20858 2.3448 0.31811-3.7e-4 0.48469 0.26557 0.68861 0.47091l0.18766-0.0594c0.02177 0.24663 0.13296 0.53419-0.05276 0.70435 0.27398 0.41784 0.69451 0.84267 0.10866 1.1865-0.38441-0.13531-0.43446-0.21572-0.75062 0.0224-0.27666 0.20769-0.46235 0.41338-0.8055 0.44412-0.23411 0.0219-0.35225-0.16903-0.63625-0.019-0.29292 0.15382-0.53937 0.29203-0.79457 0.49971-0.69987 0.57086-0.0086 2.8988 0.97383 2.717 0.09164 0.34131 0.12403 0.5717 0.43894 0.77135l0.27684-0.11643c0.22751 0.46969 0.35816 0.51419 0.83212 0.7458 0.14137 0.0696 0.65983 0.26738 0.50561-0.14355-0.18105-0.48236-0.99728-1.3177-0.74206-1.7792 0.30562 0.01 0.53099 0.14945 0.79387 0.28846 0.01992 0.36817 0.49452 0.99835 0.66646 1.3681 0.16318 0.34814 0.79923 0.2259 1.1125 0.57745 0.42339-0.21143 0.49256-0.51543 0.19552-0.88665 0.33922-0.16484 0.36905-0.56708 0.47593-0.89414 0.05885-0.18234 0.5501-0.35815 0.71793-0.45661 0.15603 0.37869 0.93508 0.28828 1.2764 0.28788 0.25092 0.53761-0.13136 0.70616-0.59246 0.73725-0.30562 0.0216-1.315 0.2-0.83374 0.74098 0.12671-0.0985 0.25539-0.19499 0.38371-0.29008l0.18784 0.11603c-0.43714 0.52239-0.71006 0.89627-0.96134 1.5329-0.18177 0.45593-0.78995 1.3699-0.43554 1.8324 0.38782-4.9e-4 0.74544 0.0312 0.92719-0.3855 0.43448 0.0799 0.41356 0.64285 0.56959 0.98761 0.23128 0.51277 0.29062 0.82533 0.83785 1.0016 0.65608 0.21196 1.9236-0.92094 1.9405-1.5413l0.38407-0.14527c0.02139 0.0662 0.03951 0.13408 0.05373 0.20179 0.16603-0.1074 0.33939-0.12916 0.51812-0.0577l0.05422 0.32705c0.32169 0.0317 0.70059 5.2e-4 0.98494 0.16314 0.30775 0.17454 0.59746 0.3925 0.94436 0.46523 0.92772 0.19374 0.74436-0.75868 0.80049-1.4237 0.55848 0.63731 0.13994 1.821-0.71793 1.8223-0.41463 4.9e-4 -0.78457 0.0456-1.1973 0.11069-0.33956 0.054 0.02054 0.66648 0.07977 0.82732l-0.10724 0.0594c-0.17354-0.17682-0.42786-0.60712-0.68878-0.57281-0.40748 0.0542-0.81478 0.10645-1.2223 0.16048l-0.27558 1.003c0.15924 0.0908 0.66323 0.2529 0.67789 0.47272 0.03088 0.44144-0.4931 0.12013-0.62178 0.0367-0.26111-0.16941-0.40873 0.37943-0.43001 0.55101-0.01768 0.15192 0.19694 0.26414 0.13101 0.43051-0.05166 0.1323-0.10504 0.26631-0.15673 0.39857 0.22018 0.26612 0.51222 0.8643 0.87502 0.85142 0.44503-0.0171 0.85251-8e-3 1.2957 0.0322 0.57369 0.0527 0.81496 0.0706 1.0573-0.49809 0.17996-0.42198 0.43535-0.61194 0.90521-0.67128-0.11853-0.36638-0.29041-0.71453-0.25879-1.1006 0.0038-0.0501 0.49435-0.62444 0.54616-0.64232 0.58408-0.20823 1.4793-0.38085 2.0213 0.0239-0.54474 0.29203-1.9607-0.0887-1.7073 0.93705 0.13476 0.5467 0.1065 0.81298 0.68736 0.90504 0.34154 0.0551 0.52061 0.41946 0.73723 0.67645-0.62535 0.12245-0.94115 0.58031-1.5236 0.70791-0.34654 0.0774-1.2562 0.0748-1.2235 0.58798-0.25915 0.0502-0.47201-0.11752-0.70631-0.22965-1.0428 0.59819 0.4763 2.0531 0.95742 2.4508 0.28452 0.23553 0.91808 0.96741 1.2793 1.0421 0.4629 0.0958 0.7047-0.88916 1.0344-0.25683 0.18552-0.27005 0.4552-0.40642 0.62374-0.0669l-0.46378 0.70468c0.05397 0.2788 0.29167 0.32674 0.54563 0.28883l0.02734 0.47344c0.58084-5.1e-4 0.70399-0.0384 1.1084 0.3687 0.12529 0.12683 0.7331 0.23842 0.94417 0.36512 0.65466 0.39406 1.2589 0.52186 1.9913 0.26201l0.08085 0.26969c-0.88004 0.82678-1.9063 0.55636-2.9112 0.13066-1.046-0.44197-1.6047-1.2026-2.3672-2.0415-0.81998 0.22645 0.92096 1.7432 1.1892 1.9249 0.74955 0.50846 1.5434 0.76298 2.3233 1.2071 0.4132 0.23356 0.86215 0.4259 1.1967 0.76489 0.28631 0.2892 0.61033 0.79818 1.0698 0.80999 0.96687 0.0257 1.2187-1.3847 1.8188-1.7967 0.17711 0.21967 0.0327 0.47202-0.0259 0.73294l0.08035 0.0572 0.30311-0.50097 0.18784 0.20162c-0.17426 0.63304-0.84428 0.81088-1.2798 1.2564-0.62659 0.64069-0.47592 0.93344 0.24109 1.3098 0.56691 0.29775 1.1658 0.46147 1.7561 0.7038 0.6777 0.27793 1.0805 0.79567 1.3295-0.0893 0.27075 0.65198 0.25111 0.71988 0.93221 0.86554 0.26807 0.0569 0.62301 0.7624 0.79298 0.98386 0.40927-0.0274 0.35494-0.54028 0.73027-0.61929 0.0969 0.24826 0.0073 0.41643-0.08145 0.64878-0.05532 0.14128 0.18622 0.34831 0.27039 0.46253 0.22734 0.30366 0.5921 0.39248 0.91004 0.1991 0.41767 0.97349 1.7177 1.5919 2.5282 2.2736 0.21822 0.18367 0.46127 0.11561 0.68844 0.25646 0.21822 0.13381 0.28292 0.49292 0.51542 0.61429 0.38443 0.2014 1.0627 0.87803 1.4771 0.6861 0.30616 0.39836 0.61016 0.58014 1.0448 0.82783 1.8099 1.0307 3.7447 1.8308 5.5333 2.9041 0.93364 0.5601 1.7567 1.3043 2.653 1.9287 0.4829 0.33706 0.9517 0.69396 1.4239 1.0435 0.34171 0.25164 0.66698 0.26004 1.0087 0.56173 0.86072 0.76012 1.6569 1.4741 2.8419 1.6065 0.49525 0.0547 1.0223-0.0977 1.4889 0.0338 0.52027 0.14584 1.0369 0.30776 1.5697 0.41074 0.59174 0.11369 1.1013 0.24158 1.6764 0.0301 0.45733-0.16695 0.94168-0.25147 1.4296-0.25216 0.6845-5.2e-4 1.0511 0.23466 1.7 0.3535 0.59692 0.11014 0.80764-0.18901 1.2217-0.55921 0.27201 0.2159 0.13458 0.52881 5.04e-4 0.78994 0.5971 0.16713 1.3533 0.24841 1.8882 0.56581 0.803 0.47808 1.606 0.95598 2.4092 1.4337 0.47754 0.28348 0.90915 1.0103 1.4862 0.87021 0.24126-0.0594 0.64017 0.27256 0.96724 0.23645 0.3092-0.0342 0.65752-0.2261 0.95383-0.32831l-0.02687-0.17341-0.62371 0.0294 0.10686-0.29848-0.3578-0.29793-0.4105 0.35604c-0.08242-0.11069-0.09155-0.22682-0.02712-0.34657-0.36673-0.1907-0.77619-0.34743-1.0714-0.64553l0.13388-0.20394 0.43822 0.29795c0.25522-0.23467 0.50204-0.0848 0.71864 0.11507 0.21126 0.19642 0.61516 0.1939 0.89395 0.25092 0.24662 0.0513 0.40803 0.32473 0.6652 0.34405 0.31814 0.0248 0.57191-0.0487 0.8827-0.12437-0.1898-0.2981-0.61678-0.16199-0.81193-0.43145 0.33224-0.17738 0.81514-8e-3 1.1154 0.17171l3.64e-4 0.23234c0.4182 0.0424 1.2083 0.23268 1.5529-0.061l-0.30418-0.35514c0.31401-0.29003 0.86948-0.6017 1.0348 0.0453-0.9574 0.36405 0.16122 1.6601 0.65482 1.9472 0.39177 0.2266 1.9559 0.52472 2.3649 0.2382-0.40444-0.26573-0.42446-0.55364-0.54457-1.0019 0.25756 0.19267 0.48667 0.50348 0.8207 0.29918l0.1612 0.35547c0.43805 0.12834 0.69504-0.17967 1.0343-0.41586-0.27558-0.32491-0.2636-0.73794-0.31598-1.1399-0.04523-0.35031-0.44035-0.57316-0.2032-0.92184 0.39212 0.52651 0.60693 0.90878 0.69202 1.5629 0.05749 0.43591 0.49131 1.2716 0.9633 1.3282l0.13351-0.35759c0.13261 0.16067 0.12745 0.36814 0.16156 0.58781 0.58567-0.43163 2.2525 1.8129 2.9195 0.88271-0.22732-0.4091-0.97832-0.64038-1.3399-0.99907l0.05337-0.11629c0.3326 0.22842 0.79978 0.73902 1.2323 0.67395-0.0417-0.50579-0.91953-0.73147-0.87555-1.2339 0.36299 0.16562 0.52097 0.61769 0.86768 0.76205 0.49167 0.20484 0.58729-0.51201 0.74581-0.87858 0.33869-0.78316 1.23-1.1134 0.64983-1.9793 0.35173-0.28631 0.45217-0.0171 0.79353-0.11712 0.26075-0.0772 0.42286-0.47397 0.66038-0.58853 0.11792-0.0575 0.30935 0.12259 0.42356 0.0224 0.15352-0.13422 0.30901-0.26846 0.46252-0.40266 0.21947-0.19159 0.43966-0.011 0.55708-0.3921l0.41124 0.11561c0.24092-0.29704 0.44073-0.52598 0.74436-0.75331 0.28739-0.2148 0.25486-0.55082 0.31509-0.8977 0.40927-0.0309 0.78977-0.0584 1.1867-0.15687 0.28201-0.0699 0.44071-0.42946 0.71774-0.5031 0.66823-0.17778 1.2989-0.19838 1.9888-0.22768 0.73081-0.0312 1.4744-0.011 2.1569-0.32457 0.30168-0.13975 0.52133-0.40088 0.84659-0.49076 0.43412-0.1204 0.6325-0.1189 0.88396-0.482 0.43358-0.62607 1.2861-0.56996 1.9846-0.64056 0.54331-0.0543 1.2274-0.30721 1.7849-0.42767 0.73418-0.15819 3.4154 0.17264 3.4302-0.9801 0.28237 0.11041 0.13252 0.37871 0.33295 0.51792 0.22537 0.15515 0.40765 0.15857 0.68307 0.19731 0.45931 0.0636 0.77921-4e-3 1.0664-0.4141 0.31384-0.45269 0.59943-0.84249 1.1066-1.0898 0.32688-0.15934 0.90577-0.34259 0.80496-0.80707l-0.59908-0.29776c0.0831-0.68468-1.1803-0.58836-1.1438-1.2907 0.0333-0.63089 0.96599-0.69632 1.033-1.3615 0.17701 0.0839 0.33794 0.0711 0.46467-0.0595l0.18786 0.20356c-0.14071 0.47022-1.4995 1.4587-0.24252 1.7536 0.64536 0.15116 1.5295 1.0543 2.1618 0.83892 0.40374-0.13785 0.76637-0.28862 1.2006-0.20518 0.38084 0.0731 0.73847 0.19931 1.1118 0.0255 0.27861-0.1308 0.78959-0.25487 0.93757-0.56977 0.18177-0.3916-0.27971-0.62161 0.0791-0.98299l0.38248 0.0282-0.0272-0.23214c0.56298-0.0525 0.76692 0.10617 1.2997 0.21801 0.25737 0.0553 0.63196 0.81248 0.87877 1.0141 0.29687 0.24252 0.73348 0.51919 1.1159 0.58655 0.47557 0.0833 0.67377-0.16009 1.0308-0.42856 0.89986-0.68023 1.673-1.2494 2.6893-1.7245 0.51436-0.24019 2.02-0.98905 1.6314-1.7195 0.46108 0.0298 1.0351 0.21839 1.1844-0.33938 0.12075-0.45593-0.81567-0.48327-1.0695-0.53831-0.52919-0.11383-0.9206-1.6146-0.8963-2.1006 0.52742 0.13327 0.4141-0.40607 0.76242-0.55493 0.30365-0.12916 0.71809-0.28508 1.0523-0.19625 0.60606 0.1599 0.60266 0.15648 0.77851 0.7569 0.0897 0.30904-0.24573 0.75262-0.39569 0.99404 0.75421-0.078 0.85392-0.26734 1.275-0.8952 0.22645-0.33994 0.70864-0.72134 1.1177-0.79513 0.55044-0.0991 1.3154-0.0999 1.7992-0.4241 0.39103-0.26308 0.5921-0.81212 0.83658-1.2361l1.3306-1.8181zm39.2-21.829 2.3122-4e-3 1.2006 1.2832s-3.3361 3.0874-4.4512 1.7188c-1.1149-1.369 0.93828-2.999 0.93828-2.999zm-5.5438-48.467c1.3697-0.51563 2.913 1.0239 2.913 1.0239l2.4874 2.9087-0.76992 0.68611-2.9133-1.0239-2.144-2.224s-0.94292-0.85519 0.42662-1.3708z" stroke-width=".5"/>
 </g>
 <ellipse cx="87.131" cy="93.911" rx="2.5664" ry="2.6167" fill-rule="evenodd" stroke-width=".3496"/>
 <ellipse cx="265.7" cy="108.16" rx="2.5664" ry="2.6167" fill-rule="evenodd" stroke-width=".3496"/>
 <g fill="none">
  <path d="m98.19 39.482-4.5393 4.1266 2.8886 5.571 8.0469 2.2696 2.2697 3.5076-0.20633 1.4443-1.857 1.857v3.5076l1.857 2.6823h-4.5393l0.20634 2.2696 2.0633 1.4443-2.6823 0.82533 1.238 1.6507-1.0316 1.238 1.238 3.095h1.6506l0.82534-1.4443 2.8886 1.238 0.41265-0.82532 1.0317 0.41266-2.6823 3.5076 1.4443 0.41266 3.5076-2.476-0.41268 2.6823h2.6823l5.3646-3.095h6.3963l2.2696-1.0317 1.6507-0.41266 3.095-2.476 3.5076-3.095h3.5076l1.238-5.7773 4.333 1.857 0.619-1.6507-8.2533-14.856-3.095-1.857-0.20634-5.3646-9.4912-15.888-6.3963 1.4443-1.238 1.4443-1.4443-1.0317-1.857 0.41266-2.0633-1.857 1.0317 2.0633-2.1457 0.19688h-1.1724v0.50244h-2.5122l2.0098 1.8423-3.0146 2.8472 1.8423 0.33496 3.3496 0.16748-1.8423 2.0098-4.522 0.50244 0.16749 2.6797-2.6797-0.50244-0.1675 2.1772h-0.66991l-2.8472-5.1919-0.33496 1.5073-2.3447 0.50244z" fill="#85c5e3" stroke-width=".5px"/>
  <path d="m156.75 12.942 4.1457-0.9567 0.47835 2.7106 2.0728 2.7106 1.5945 0.95669 0.79724-4.4646-1.1162-0.47835v-4.624l2.2323-0.9567 1.754 0.6378 0.70557 2.2868 0.69499 1.39 1.807 1.668 3.3359 2.7799 4.0309 2.641 2.78 5.4209-1.112 3.1969v0.69498l-1.39 0.97298v0.27799l1.529 1.39 0.83399 2.085v1.251l-1.529 0.55599-1.112-1.946-1.3899-1.807-7.6448-4.1699-3.058-2.7799 2.502-3.0579 2.085 0.13901 0.13894-1.112-1.251-0.97297-4.1699 0.27799-1.807-0.13898-2.3629-0.69498-1.807-2.363z" fill="#85c5e3" stroke-width=".5px"/>
  <g stroke-width=".26458px">
   <path d="m149.58 46.445 4.0283-0.79659 1.2087-1.2087 2.5518-0.80583 1.343 1.343 1.2087 0.40291 3.3576 0.26861 4.9693 1.8803 2.5518 3.089-0.94013 2.2832-0.1343 0.94013 0.80582 2.0146-1.343 1.8803-0.80583 1.4774-0.40291 5.5065 0.1343 1.0744 0.80583 2.4175 0.67152 1.6117 0.53722 1.6117 2.8204 1.2087-0.94013-1.6117-1.2087-4.0291 3.3576 0.94013 2.0146 1.746 0.40291-0.26861v-0.94013l-2.6861-2.1489 2.1489-1.2087 3.2233-0.26861h6.9838l6.3123 4.0291v1.746l-0.94013 1.746 3.3576 1.6117 0.80583 1.343 0.70301 2.84 3.0438-0.58535 0.70243 2.8097v0.46828l-0.8195 0.70242-0.23414 1.0536-0.35121 2.2243 1.2878 3.5121 2.5756 2.2243 1.0536 4.3316-0.46828 1.1707-0.23415 1.1707 0.46829 2.3414 0.81949 0.8195 4.6828 1.9902h-2.1073l1.9902 1.639-1.8731-0.11707h-2.4585l-1.9902-0.58535-1.639-0.23414-1.5219-0.8195-3.5121 0.46829-0.58535-1.4048-1.8731 0.46828-2.9268 0.93657-2.4585-0.46829-2.2243-1.1707-1.9902 0.93656-0.93657-1.9902-4.4487 2.2243-1.9902-1.8731-5.8535-2.4585-1.5219 1.639-0.58536 0.8195-1.8731 1.1707-2.6926-0.35121h-1.7561l0.58536 1.8731-1.9902-1.0536-2.1073-0.11707-0.35121 1.1707-2.1073 1.4048-1.7561-0.70243-0.35121-1.5219-1.0536-0.23414h-1.1707l-2.4585 1.5219-4.6828 2.5756-1.8731 0.81949-1.9902 0.46828h-1.9902l-2.4585-0.46828-1.639-0.81949-1.2878-0.35122-1.0536-0.81949-1.0536-1.2878-1.1707-1.8731v-1.8731l0.70243-1.2878 2.4585-0.35121h2.8097l1.639 0.46828 1.2878 0.81949 4.0975 0.35122 0.46828-1.639 1.7561-1.0536 0.81949-0.11707h2.2244l0.46828-1.639 0.46828-0.58535h1.0536l2.3414-0.35121 0.58536-0.8195 0.11707-3.0438 0.81949-0.58535 0.58536-0.46828 1.7561-0.23415 0.35121-0.23414-1.1707-1.5219v-1.8731l1.0536 0.93657 1.1707 0.46828h0.81949l2.3414-0.8195-0.11707-0.70242 3.5121-2.8097 0.58535-0.11707 3.278 0.93657 0.93657 1.639 1.4048-0.58536-1.4048-3.0438-1.639-1.4049-0.46829-1.1707-1.1707-0.8195-0.8195-0.58535 0.70243-1.7561 0.11707-1.8731-0.35121-1.9902-1.0536-1.9902-1.4048-1.7561-1.0536-1.0536-2.1073-1.1707 0.35121-6.2047-0.93656-2.1073-2.1073-1.1707-1.9902-0.93656-1.5219-1.0536-4.3316-3.1609-0.35122-0.35121z" fill="green"/>
   <path d="m167.54 72.812s-0.24727 0.41212-0.24727 1.5661v1.2364l0.74181 1.0715 0.82424 0.24727v0.90666l-0.0824 0.90666 0.41212 0.98908 0.16485 0.82424 0.90666 0.57697 1.0715 0.74181 0.57696-0.65939 0.57697-0.16485 0.41211 0.3297-0.49454 0.90666 0.3297 0.24727 0.82423-1.3188 0.82424-0.41212 0.41212-1.2364-1.4012-0.24727 0.41211-0.90666-0.24727-0.82424-1.2364-1.4012-1.9782-1.8133 0.16485-0.49454 0.49454-0.3297 0.16485-0.49454 1.7798-0.41546-2.6865-0.24392-0.65939 1.7309z" fill="#85c5e3"/>
   <path d="m168.66 74.862 0.13363 0.46769 0.0668 0.60132v1.0022l0.66813 0.40088 0.73495 0.40088 0.93538 0.73494 0.5345-0.06682 0.4677-0.73494-0.20044-0.73494-0.20044-0.46769-0.66813-0.33407-0.86857-0.40088-0.60132-0.20044z" fill="green"/>
  </g>
  <path d="m46.216 28.621 3.3498 8.2223 6.3951 0.91358-0.30453-9.1359-2.7408-2.4363 0.30453 3.6544-2.7408-2.1317-0.60906 0.60906z" fill="#85c5e3" stroke-width=".5px"/>
  <path d="m122.1 53.07 1.3177-1.5373 1.5373 1.3177 1.3177 0.21961h6.3688l5.4903-0.43923-0.87844 2.855-1.3177 0.21962-0.43922 1.0981-3.953 3.953-2.855-1.7569-2.1961-0.43922-2.1961-1.3177-1.0981-1.3177z" fill="#f0c2f0" stroke-width=".5px"/>
 </g>
 <g font-family="sans-serif" font-size="3.5277px" letter-spacing="0px" stroke-width=".26458" word-spacing="0px">
  <text x="76.094337" y="87.665924" style="line-height:1.25" xml:space="preserve"><tspan x="76.094337" y="87.665924" stroke-width=".26458">Bhuj</tspan></text>
  <text x="244.54349" y="101.48288" style="line-height:1.25" xml:space="preserve"><tspan x="244.54349" y="101.48288" stroke-width=".26458">Ahmedabad</tspan></text>
  <text x="100.2005" y="45.627132" style="line-height:1.25" xml:space="preserve"><tspan x="100.2005" y="45.627132" fill="#fff" font-size="2.8222px" stroke-width=".26458">Rann of Kutch lake</tspan></text>
  <text x="123.20044" y="55.924629" style="line-height:1.25" xml:space="preserve"><tspan x="123.20044" y="55.924629" font-size="2.1166px" stroke-width=".26458">Khadir Bet</tspan></text>
  <text x="46.108624" y="40.041557" style="line-height:1.25" xml:space="preserve"><tspan x="46.108624" y="40.041557" font-size="2.8222px" stroke-width=".26458">Shakoor lake</tspan></text>
 </g>
 <path d="m87.95 94.09h5.4582l5.117-0.34113 11.257-3.0702 1.3645-0.34113h3.7525l2.388-3.0702 4.4348 0.34113 3.0702-1.3645h1.7057l2.3879 0.68227 1.3645 3.4113 4.0936-1.3645h4.7759l4.4348 1.3645 7.1638 3.7525 1.3646 2.7291 4.4347 7.8461 18.08 4.7759 6.4816-0.68228h4.7759l8.5284 1.0234 3.0702 0.34114 2.0468-0.34114h2.0468l8.5284-1.7057 5.4582-2.7291 3.4114-1.0234 7.8461 0.34114 7.1638-2.7291 6.1404 0.34114 5.117 2.7291 4.4347 2.3879 4.7759 2.0468h4.0936l6.8227-1.3646" fill="none" stroke="#000" stroke-width=".5px"/>
 <text x="177.35129" y="82.36879" fill="#ffffff" font-family="sans-serif" font-size="2.8222px" letter-spacing="0px" stroke-width=".26458" word-spacing="0px" style="line-height:1.25" xml:space="preserve"><tspan x="177.35129" y="82.36879">National</tspan><tspan x="177.35129" y="86.778458">park</tspan></text>
</svg>
