<!-- Created with Inkscape (http://www.inkscape.org/) -->
<svg width="86.154mm" height="54.704mm" version="1.1" viewBox="0 0 86.154805 54.704307" xmlns="http://www.w3.org/2000/svg" xmlns:cc="http://creativecommons.org/ns#" xmlns:dc="http://purl.org/dc/elements/1.1/" xmlns:rdf="http://www.w3.org/1999/02/22-rdf-syntax-ns#">
 <metadata>
  <rdf:RDF>
   <cc:Work rdf:about="">
    <dc:format>image/svg+xml</dc:format>
    <dc:type rdf:resource="http://purl.org/dc/dcmitype/StillImage"/>
    <dc:title/>
   </cc:Work>
  </rdf:RDF>
 </metadata>
 <g transform="translate(-68.345 -105.61)" stroke="#fff" stroke-linecap="round" stroke-linejoin="round" stroke-width=".3">
  <path id="Anand" d="m98.083 148.49c0.26931 0.0514 0.76673 0.17511 0.97389 0.22663 0.20717 0.0516 0.66304 0.15462 1.2117-0.12587l0.73495-0.40494 0.82829-0.22906s0.65233-0.18733 0.44433-0.86024c0 0-0.50909-1.2319 0.41207-1.8236 0 0 0.44479-0.37344 0.98394-0.0427l0.93311 0.59961s0.90161 0.38209 1.4292-0.13649c0 0 0.51735-0.39432 0.81616-1.5962 0 0 0.41171-2.1343 1.0731-3.2642l0.75424-1.4097 0.37184-0.79811c0.29242-0.60769 0.45193-1.2885 0.45193-1.2885 0.20858-0.73326 0.60589-1.0479 0.60589-1.0479 0.27194-0.33547 0.52291-0.46141 0.96215-0.85987 0.43934-0.39845 0.56426-0.96403 0.56426-0.96403l0.0833-0.37711 0.0821-1.2985-0.81984-0.13009c-1.4416-0.17821-1.6233-1.3943-1.6233-1.3943l-3.6489-0.26554-0.8079 2.2982-1.7095 1.6688c-1.1246 1.2627-2.2976-0.35736-2.2976-0.35736l-1.531 0.36225c-0.72245-1.3504-1.8933-1.0786-1.8933-1.0786-2.9278 0.0489-1.7546 1.5788-1.7546 1.5788l-1.575 1.2632 0.85629 0.40428-0.44882 1.2167-2.5226-0.13178-3.624-3.8392-0.33877 0.19504c-0.30709 0.21552-0.26047 0.50729-0.26047 0.50729l0.0469 0.58372s2e-3 0.70676 2e-3 0.87576c0 0.16901-0.0457 0.32268-0.0457 0.32268l-0.21413 0.6764c-0.16825 0.55335-0.76757 0.53869-1.1516 0.60073-0.38407 0.062-0.82932 0.17004-0.82932 0.17004-0.6451 0.15453-0.75225 0.52337-0.75225 0.52337-0.13771 0.46114 0.21657 1.0598 0.57046 1.5665 0.3539 0.50663 1.0317 1.6734 1.0317 1.6734 0.58502 0.95181-0.213 1.7518-0.213 1.7518l-0.3663 0.2818c0.0422 0.0321 0.09 0.0753 0.15246 0.12821-0.46763 0.33989-0.92182 0.95246-0.95303 1.5569-0.0228 0.43896 0.22325 0.85048 0.33877 1.279l0.0353 0.0984 0.0282 0.061v0.33932l-0.0317 0.12924c-2e-3 9e-3 -2e-3 0.0172-4e-3 0.0259-0.01 0.0412-0.0206 0.0814-0.0314 0.12069l-0.0769 0.31273-0.16262 0.33226c-0.025 0.0543-0.051 0.10924-0.0789 0.16629l4e-3 2e-3c0.035 9e-3 0.0725 6e-3 0.11158-6e-3l0.44009-0.30766 0.0847 0.076v9e-5l2e-3 2e-3c-0.0331 0.0215-0.0663 0.0421-0.0999 0.0622l-0.44648 0.29224c-0.10518 0.0925-0.18781 0.2036-0.22729 0.35615-0.10659 0.41086 0.014 0.7218 0.11327 1.1315 0.0926-0.34695-0.10377-1.0056 0.0971-1.2578l0.14579 0.0458c0.0948-0.0528 0.13799-0.14391 0.11242-0.24919l0.2443-0.12247c0.0454 0.2301-0.22598 0.4289-0.18621 0.6873 0.0294 0.19457-0.13461 0.51999 0.0281 0.64763 0.11073-0.18066 0.37307-0.14044 0.55814-0.15772 0.0376 0.0902 0.10265 0.14183 0.19759 0.15199 8e-3 -0.41171-0.0113-0.80554 0.13948-1.1949 0.0562-0.14476 0.40184-0.32099 0.33491-0.46462-0.081-0.17473-0.34798-0.13319-0.26563-0.41528 0.24533-0.0134 0.31827 0.42543 0.65186 0.30747 0.32231-0.11412 0.64922-0.19261 0.87454-0.45607 0.37354-0.43661 0.48173-1.0591 0.8704-1.5032 0.0201 0.26412-0.91524 1.6198-0.2426 1.4553l-0.1128-0.12249c0.21562-0.4054 0.71831-0.56312 1.1488-0.51386l0.0709 0.21797c0.18695-0.0472 0.23357-0.32833 0.41207-0.43098l0.0847 0.13705c0.29383-0.34261 0.64077-0.9455 1.0908-1.1078 0.43221-0.1566 1.1358-0.45551 1.6013-0.25952l0.0142 0.0911c-0.26968 7e-3 -0.58758-0.0866-0.83845 0.0124-0.35502 0.14043-0.64161 0.23386-0.92529 0.48718 0.17042 0.0966 0.43708-0.0297 0.60711-0.10509 0.21337-0.0952 0.41077-0.0166 0.63157-0.0836 0.44628-0.13415 0.95462-0.2899 1.2683 0.21073-0.33059 0.26177-0.7264-0.55928-1.1366-0.0954l0.0565 0.061 0.24439-0.10744c0.17681 0.105 0.0341 0.28565 0.14156 0.44629 0.38361 0.0398 0.78017-0.0227 1.1626-0.0476 0.37317-0.0249 0.42985 0.23538 0.76269 0.35353 0.17032 0.0599 0.43812 0.018 0.61858 0.0264 0.14005 6e-3 0.24552 0.12943 0.3584 0.20548 0.20792 0.13977 0.52404 0.46453 0.78919 0.41443 0.0415 0.18038 0.15077 0.30435 0.34252 0.30877-0.0505 0.13638 0.15359 0.24796 0.10857 0.36452-0.0516 0.13263-0.1472 0.26817-0.0934 0.40625 0.0622-5.3e-4 0.16911-0.0166 0.16601-7e-3l0.30332-0.0767c0 5.3e-4 0.30013-0.093 0.56944-0.0416z" fill="#fe9"/>
  <path id="Ahmedabad" d="m99.483 121.86-1.4885-1.6197-0.76738-1.2152s-2.3194-0.80197-4.4806-0.0785c0 0 0.0193-1.4023-1.1515-1.1304-1.1707 0.27183-1.3073-0.89917-1.3073-0.89917l-1.5311 0.31725s0.36246 1.6662-0.7624 2.5685c-1.1248 0.90227-2.2969 0.27324-2.2969 0.27324l-0.76719-1.1702-1.127-0.76426-0.76484 0.72169 0.63249 1.4406-1.0805 0.40681s-1.22-2.9262-2.9312-2.5637l-0.85527 0.45156-0.54169-0.85509 0.76446-0.99194 0.22174-2.7029-0.31638-0.90048 2.5641-2.5258-2e-3 -0.81071s1.7105-0.858 0.0863-2.8829l-1.8452 1.2636-0.99082 0.0914-0.40672-1.0806-3.4682 0.13959s-1.1262-0.13376-0.49762-1.666l-1.171 0.13667-0.89907 1.3074-0.35747 2.2076-2.1169 0.0929-0.35992 0.36076 0.63249 1.3956-0.53925 0.99166-0.13168 2.6578 0.81071-0.046 0.26864-1.2615 0.81062-0.13621 0.76663 0.71965 1.2161-0.0917-0.2238 1.1264s-2.298-0.62762-2.6096 2.3457c-0.31141 2.9732 1.1745 2.611 1.1745 2.611l0.18171 1.1259 1.0796-1.1726 1.0361 0.17888 0.0932 2.4322s0.94504-0.72189-0.0898 0.18028c-1.0348 0.90218-0.40288 2.0275-0.40288 2.0275s-0.76399 1.3073 4e-3 2.7026c0.76758 1.3954 0.99035-0.49678 0.99035-0.49678s0.587 1.1253 0.54302 1.9813c-0.044 0.85593 0.85818 1.7556 0.85818 1.7556s1.0361 0.13385 0.81268 1.5305c-0.22352 1.3966-1.3964-0.13328-1.3964-0.13328l-0.94512 0.63184s1.6694 2.16 2.9763 2.6987c1.3068 0.53888 2.0742 1.7091 2.0742 1.7091-2.0263 0.54311-1.3486 2.254-1.3486 2.254l-0.0898 0.18028c-0.89485 1.7963-2.5662 1.0393-2.5662 1.0393l-1.1293-2.4309-1.6669-0.26808-0.49658-0.99034s-1.261 0.22691-1.1244 1.3978c0.13668 1.1709 1.2169 0.58401 1.2169 0.58401l0.18122 0.76551c-1.3503 0.76747-0.44724 2.4779-0.44724 2.4779l-0.72009 0.4964-0.76748-1.3954-0.99015 0.63184-1.0274 0.13544 0.37326 1.1972-0.4117 0.90893s0.86749 0.32928 0.4149 1.5687c-0.4526 1.2396-0.70027 1.3224-0.039 1.7346l0.65966-0.86805 1.858-0.29158 2.52 0.61625s2.6428-0.16863 3.7187 1.4406l-0.41113 1.4046s1.8584 0.039 1.2405 1.2374c-0.61792 1.1984-2.2291 0.7874-2.2291 0.7874l-0.70186 0.16619-0.0402 0.82604c0.0839 1.0323 2.1069 0.53408 2.1069 0.53408l1.5721 2.1455 1.1562-0.12538 0.23208-0.54312c-0.0623-0.0312-0.12454-0.0622-0.18761-0.0917 0.0643 0.0259 0.12896 0.0514 0.19391 0.0764l0.13216-0.30934s0.35878 0.0734 0.72978 0.14597c0.24787-0.38068 0.37091-0.84238 0.65975-1.2048 0.22335-0.27953 0.8156-0.91561 0.73994-1.2605l-0.14569-0.0158-0.15942 0.27935-0.18828-0.23283 0.1456-0.0765v-0.15791c0.21234-0.0858 0.35456 0.1001 0.50832-0.16994 0.1426-0.25023 0.28416-0.50044 0.42676-0.75065 0.29448-0.51736 0.233-0.78798-0.0627-1.2548-0.41819-0.65929-0.90762-1.8656-0.25896-2.4812 0.068 0.13715-0.0483 0.44095-0.0349 0.62509 0.0134 0.17482-0.0249 0.34787-0.0482 0.52083l0.12699 0.0308c0.0255 0.10057 0.0613 0.1973 0.0991 0.29411 0.21065 0.0703 0.40757-0.28435 0.53438-0.42186-0.0378-0.10132-0.12333-0.15302-0.23048-0.13686l0.15941-0.23329 0.099 0.15687c0.24064-0.0276 0.4619-0.41987 0.61389-0.58926l-0.0564-0.0619-0.14571 0.0623c-0.0679-0.13338-0.0304-0.28848 0.0982-0.37044-0.0547-0.23969-0.0804-0.4492-0.22173-0.65111-0.0772-0.10989-0.26366-0.37937-0.21394-0.51387 0.12549-0.33867 0.18838-0.40456 0.0226-0.72378-0.0688-0.13338 0.21939-0.41019 0.29731-0.49958 0.0725 0.12492-0.0185 0.22107-0.0759 0.34318-0.058 0.12416-2e-3 0.16449 0.0625 0.28856 0.12624 0.24326-0.13856 0.44751-0.13076 0.69754 6e-3 0.18048 0.30146 0.47056 0.31893 0.17729 0.0138-0.2303 0.0126-0.46622 0.0498-0.6938 0.0821-0.4992 0.23847-0.89981 0.59528-1.265 0.13423-0.13742 0.37383-0.19974 0.5542-0.28651 0.11825-0.0565 0.19072-0.0748 0.25454-0.0609 0.0398 9e-3 0.0764 0.0296 0.11863 0.0618l0.36631-0.28179s0.79793-0.8 0.213-1.7518c0 0-0.67771-1.1669-1.0317-1.6734-0.35399-0.50654-0.70816-1.1053-0.57046-1.5665 0 0 0.10716-0.36884 0.75225-0.52337 0 0 0.44527-0.1081 0.82932-0.17005 0.38408-0.0619 0.98339-0.0474 1.1517-0.60073l0.2141-0.67638s0.0459-0.15358 0.0456-0.32269c0-0.169-2e-3 -0.87575-2e-3 -0.87575l-0.0469-0.58372s-0.0466-0.29176 0.26046-0.50729l0.33876-0.19505s0.44301-0.36367 0.7092-0.47675c0.20952-0.0889 0.63682-0.21054 0.63682-0.21054s1.1852-0.18697 0.96628-1.1465c0 0-0.33237-1.298-0.34272-3.1045l0.0301-1.6048s2e-3 -8e-3 2e-3 -0.0193l1.88 0.35748s-0.54321-2.0713 1.1678-2.569l1.172 0.53898 1.3945-1.3532s1.2626 0.98922 2.4767-0.54375c1.2142-1.533 0.98791-2.3885 0.98791-2.3885z" fill="#e2b584"/>
  <path id="Vadodara" d="m118.28 137.11-1.1715-0.26873-0.36319-2.2517 0.31469-0.49593c1.0807-0.22663 0.98978-0.90217 0.98978-0.90217-1.0382-1.6652 0.71645-3.2891 0.71645-3.2891l-0.85754-1.2151-1.0341 1.4878-0.40635-0.81034-1.4863 0.13705-1.4302 0.0191s-0.52357 6.3e-4 -1.0256 0.37824c0 0-0.35578 0.18893-0.41848 0.33556l-0.0837 0.14673s-0.0416 0.0838-0.0412 0.31423l-0.0208 0.27221-0.16515 1.8222-0.0821 1.2985-0.0833 0.37712s-0.12491 0.56558-0.56425 0.96402c-0.43925 0.39845-0.69031 0.5244-0.96214 0.85987 0 0-0.39742 0.31462-0.6059 1.0479 0 0-0.15942 0.68081-0.45194 1.2885l-0.37185 0.79812-0.75422 1.4097c-0.66135 1.1299-1.0731 3.2642-1.0731 3.2642-0.29882 1.2018-0.81617 1.5962-0.81617 1.5962-0.52761 0.51867-1.4292 0.13649-1.4292 0.13649l-0.9331-0.59962c-0.53906-0.33076-0.98395 0.0427-0.98395 0.0427-0.92116 0.59162-0.41209 1.8235-0.41209 1.8235 0.20812 0.67292-0.44431 0.86025-0.44431 0.86025 1.2158-0.36189 0.83628 1.4694 0.83628 1.4694-0.35896 1.0364-2.1159 0.90349-2.1159 0.90349l2.1663 3.2404 1.5766 0.0881c1.1734 1.8903 2.2535 1.033 2.2535 1.033l0.22654 0.94569c-0.53869 1.352-2.34 1.8499-2.34 1.8499l0.49649 0.81005 1.2607-0.40701 1.2609-0.27193-0.76352 1.6676 1.8468 0.0877 1.5068 0.55296c0.19936-0.24692 0.53991-0.21214 0.53991-0.21214 0.69284-0.0244 1.1158 0.22173 1.1158 0.22173s0.37599 0.14034 0.65751-0.0831c0.28151-0.22343 0.17511-0.76353 0.17511-0.76353s-0.13028-0.8453-0.16609-1.3268c-0.0359-0.48135 0.30426-0.81062 0.45673-0.9752 0.15236-0.1646 0.34035-0.15322 0.34035-0.15322 0.45795-0.0358 0.8346 0.64482 0.8346 0.64482s0.16487 0.3756 0.52948 0.78609c0.3646 0.41047 0.67 0.5275 1.0927 0.51519 0.42269-0.0122 0.68005-0.7876 0.68005-0.7876 0.035-0.12924 0.14053-0.29383 0.14053-0.29383 0.4696-0.0947 1.9366-0.82443 2.2535-0.95406 0.31695-0.12953 1.0448-0.3066 1.0448-0.3066l0.82191-0.10688c-0.42572-2.348 1.1667-2.3604 1.1667-2.3604-0.2724-1.7564-1.0819-0.67424-1.0819-0.67424-1.125 0.85734-0.72199-0.94503-0.72199-0.94503 1.5294-1.5335 0.12981-4.1442 0.12981-4.1442 2.4306-1.3995 2.1124-3.6513 2.1124-3.6513l-2.3432-0.67262c-2.7497-1.978-1.5395-6.5739-1.5395-6.5739z" fill="#f9d3c6"/>
  <path id="Kheda" d="m111.98 130.69c0-0.23039 0.0412-0.31423 0.0412-0.31423l0.0837-0.14673c0.0627-0.14673 0.41847-0.33557 0.41847-0.33557 0.50205-0.37758 1.0256-0.37823 1.0256-0.37823l1.4302-0.0191 1.4863-0.13704 0.85293-2.2083s-0.49715-1.2607 0.13262-1.892l0.76465-0.90188-0.85658-0.58447-1.1695 1.2177-0.81166-0.6746-1.261 0.18178c-1.3069-0.49376-0.22747-1.7564-0.22747-1.7564-0.81174-0.80969-0.76776-1.5756-0.76776-1.5756l0.85574-0.0462 0.13414-0.811-1.7581-1.1238-0.9033-1.8907-0.94532 0.45174-0.85725-1.0799-1.0345 1.1274-1.7118-0.0878 0.0918 1.2612-1.1709 0.13666c-0.49394 1.2618-1.7099 1.3986-1.7099 1.3986l-0.13489 0.18029c-0.4477 2.1176-2.7907 1.5802-2.7907 1.5802l-1.7126-0.4024s0.22624 0.85555-0.9879 2.3886c-1.2142 1.533-2.4767 0.54377-2.4767 0.54377l-1.3945 1.3532-1.172-0.53898c-1.711 0.49772-1.1678 2.569-1.1678 2.569l-1.88-0.35747c-2e-3 0.0113-2e-3 0.0193-2e-3 0.0193l-0.0301 1.6048c0.0104 1.8066 0.3427 3.1045 0.3427 3.1045 0.21892 0.95952-0.96628 1.1465-0.96628 1.1465s-0.4274 0.12154-0.63681 0.21055c-0.2662 0.11307-0.7092 0.47674-0.7092 0.47674l3.624 3.8392 2.5226 0.13178 0.44883-1.2167-0.8563-0.40427 1.575-1.2632s-1.1732-1.5299 1.7546-1.5788c0 0 1.1708-0.27184 1.8933 1.0786l1.531-0.36227s1.173 1.62 2.2976 0.35738l1.7095-1.6688 0.8079-2.2982 3.6489 0.26554s0.1817 1.216 1.6233 1.3943l0.81983 0.13009 0.16515-1.8222z" fill="#c0f2c0"/>
  <path id="Chhota Udaipur" d="m136.48 137.4c-0.71991 0.58653-2.2063 0.58842-2.2063 0.58842-1.3038 1.8484-2.6114 0.90424-2.6114 0.90424l-1.5335-1.5745c-2.8836-0.62686-2.4304 1.4896-2.4304 1.4896l0.36528 3.7832 1.1268 0.58418s-1.1246 1.0825-1.3037 1.9386c-0.17906 0.85603-1.4395 1.4882-2.386 0.99392-0.94645-0.49423-2e-3 -1.3513 0.76372-1.5324 0.7656-0.18122 1.0343-1.2626-0.63278-1.7108-1.6671-0.44828-1.529 1.9838-1.529 1.9838l-1.9375-0.4929s0.31828 2.2518-2.1124 3.6513c0 0 1.3997 2.6107-0.1298 4.1442 0 0-0.40297 1.8024 0.72198 0.94503 0 0 0.80939-1.0822 1.0819 0.67424l1.2161-0.0465s2.8803-1.8956 3.4689 0.44601c0.5886 2.3415 2.1653 2.5197 2.1653 2.5197l1.1264 0.22371 0.1364 0.99082 2.2967-0.40842 1.9505 2.3245 0.66229 0.42027 0.01-7e-3 0.54321-0.79211 0.55814-0.21873 0.63298-0.38623 1.3463-0.48305 0.3711-0.17342 0.85875-0.23414 0.47364-0.10688 0.81665-0.20322 0.77424-0.19936 0.63372 0.17126-0.0716-0.76033-0.31517-0.18668-0.0427-0.27908-0.5167-0.49657-0.27297-0.38501 0.11205-0.57271 0.27212-0.37064 0.24355-0.68457 0.34223-0.66493 0.0416-0.45137-0.20256-0.36912-0.51622-0.21741-0.40335-0.0606-0.30106-0.2487-0.0148-0.52724 0.11252-0.24834 0.28584-0.64988 0.18724-0.52666-0.12728-0.27898-0.071-0.37026-0.0709-0.30914 0.0277-0.36941-0.0569-0.421-0.44591-0.26357-0.44564-0.0596-0.53013-0.0303-0.057-0.46632 0.14521-0.43633-0.0288-0.40127-0.0288-0.52647 0.18734-0.51247 0.24363-0.63381 0.07-0.31037-0.0147-0.43615-0.16046-0.55711 0.22908-0.24947 0.31479-0.0915 0.44572 0.18648 0.41762 0.2786 0.77529 0.52638 0.80338 0.49611 0.61454-0.14278 0.35559-0.45164 0.45908-0.46689 0.48765-0.12276 0.54423-5.2e-4 0.43126-0.10677 0.2582-0.24863 0.0275-0.60345-0.14626-0.37016-0.4743-0.46659-0.35615 0.0616-0.41818 5.3e-4 -0.48794-0.0304-0.21667-0.40014-0.41799-0.43568-0.44574-0.24748-0.21628-0.0308 0.0852 0.46613 0.0712 0.57337-0.23001 0.20228-0.37044-0.12078-0.35747-0.24767-0.35652-0.12079-0.25849 0.0304-0.54415 5.3e-4 -0.28584-0.0607-0.0426-0.27908 0.11204-0.49649-0.31592-0.8061-0.55881-0.48145-0.41752-0.14043-0.3288 0.14136-0.3007 0.10754-0.14587-0.15772-0.0428-0.3853 0.0557-0.63363 0.0842-0.27926 0.15933-0.30944 0.0778 5e-3 -0.36265-0.57864c-0.58617-0.44929-0.85611-0.22381-1.5761 0.36273z" fill="#a0c2a0"/>
  <path id="Dahod" d="m151.39 125.62-0.47374 0.0156-0.37119 0.0456-0.67546 0.28002-0.54404 0.18875-0.55806 0.2488-0.45991-0.1564-0.32966-0.52592-0.17445-0.46602 0.0135-0.49734-2e-3 -0.68428 0.20162-0.43634 0.37073-0.34073 0.15942-0.24833-0.21666-0.36923-0.24487-0.36996-0.20218-0.15773-0.40361-0.24758-0.23067-0.33999-0.14617-0.33904-0.16027-0.37016-0.24447-0.0608-0.37167-0.24863-0.16007-0.18686-0.39084-0.61793-0.0568-0.33932-0.16064-0.61831-0.071-0.37016-0.0428-0.4211-0.11317-0.35511-0.27305-0.40014-0.23058-0.24787-0.48802-0.18734-0.55853-0.1205-0.34298 0.0306-0.32891 0.0614-0.17379 0.17229-0.0138 0.15698-0.27203 0.49667-0.48783-0.0595-0.34347-0.26272-0.43181-0.26366-0.34233-0.17248-0.24486-0.34 0.0841-0.4663 0.0418-0.36941-0.0291-0.6495-0.13244-0.74521-0.0711-0.40042-0.44582-0.24844-0.39046-0.27775-0.31525-0.24777-0.24449-0.0607-0.0988-0.0601-0.39009-0.0605-0.39008-0.0146-0.28679-0.0306-0.21657-0.26282-0.0994-0.43613-0.34355-0.48174-0.27296-0.27785-0.31433-0.29373-0.059-0.0724-0.29552 0.50569s-0.0887 1.1262-0.13198 2.4324c-0.0433 1.3064-0.85376 1.6227-0.85376 1.6227l0.81344 2.071-0.71916 1.172 1.1264 0.26882-0.0437 1.0811-1.0817-0.5841s-1.2167-0.4038-1.7554 1.0833 0.27398 2.9274 0.27398 2.9274l-1.35 0.94767 0.6762 0.44958s-0.31375 1.2165-1.3484 2.2539c-1.0347 1.0374-0.49329 1.7574-0.49329 1.7574l-0.94494 0.76701 0.9927 1.2599-0.53955 0.81147-0.17698 2.4776-0.71918 1.127c1.847 0.22287 1.5783 1.3492 1.5783 1.3492-1.667-0.35822-1.711 0.49771-1.711 0.49771l1.5335 1.5745s1.3076 0.94419 2.6114-0.90425c0 0 1.4864-2e-3 2.2063-0.58841 0.72002-0.58653 0.98997-0.81212 1.5762-0.36246l0.36263 0.57865 0.36696 0.0235 0.5728 0.26347 0.51643 0.3086 0.67629 0.35436 0.76089 0.35436 0.74624-0.046 0.24279-0.51265 0.24345-0.71568 0.50251-0.29486 0.40268-0.42167 0.4587-0.77697 0.27175-0.64989 0.45916-0.37091 0.44536-0.18856 0.61444-0.0919 0.87351 0.10509 0.60073 0.0454 0.53023 0.12051 0.47487 0.0916 0.3286-0.27954 0.34253-0.4666 0.21553-0.52864 0.20125-0.71465 0.35615-0.79088 0.17304-0.63466 0.27062-0.77687 0.24355-0.71466 0.52947-0.49704 0.28632-0.35569 0.43002-1.0702 0.44536-0.83797 0.32701-0.77584-2e-3 -0.68524-0.31527-0.32391z" fill="#f0c2f0"/>
  <path id="Panchmahal" d="m133.53 118.35-1.0812-0.0886c-0.89991 0.67676-1.5764 0.0471-1.5764 0.0471-2.5252-2.2038-3.3788-0.40108-3.3788-0.40108 0.0918 1.3062-0.94419 1.3075-0.94419 1.3075l-1.528 2.7046c-2.1145 1.9847-4.3231 0.81635-4.3231 0.81635l-1.3533-1.5297-0.58437 0.90161 0.72254 1.4405-1.2601 0.81241-0.76466 0.90189c-0.62976 0.63136-0.13262 1.892-0.13262 1.892l-0.85292 2.2083 0.40634 0.81033 1.0341-1.4878 0.85752 1.2151s-1.7546 1.6238-0.71645 3.2891c0 0 0.0909 0.67556-0.98977 0.90218l-0.31469 0.49593 0.36318 2.2517 1.1715 0.26874s-1.2102 4.596 1.54 6.5741l2.3432 0.67263 1.9375 0.49292s-0.13828-2.4322 1.529-1.9838c1.6673 0.44839 1.3984 1.5296 0.63277 1.7108-0.76549 0.18114-1.7102 1.0382-0.7637 1.5324 0.94643 0.49432 2.2069-0.13788 2.386-0.99391 0.17907-0.85612 1.3036-1.9386 1.3036-1.9386l-1.1267-0.58418-0.36528-3.7832s-0.45315-2.1164 2.4304-1.4896c0 0 0.044-0.85592 1.711-0.49771 0 0 0.26874-1.1264-1.5783-1.3492l0.71916-1.127 0.17699-2.4776 0.53954-0.81146-0.99269-1.2599 0.94494-0.767s-0.54141-0.72001 0.49329-1.7574c1.0346-1.0374 1.3484-2.2539 1.3484-2.2539l-0.67621-0.44958 1.35-0.94768s-0.81269-1.4403-0.274-2.9274c0.5387-1.4871 1.7554-1.0833 1.7554-1.0833l1.0817 0.58409 0.0437-1.081-1.1264-0.26884-1.5764 0.092z" fill="#cc2"/>
  <path id="Mahisagar" d="m124.87 109.35c-2.2946 2.0299-2.8773 4.1927-2.8773 4.1927l-2.8834-0.44666-2.7436 3.0214 0.72113 0.40446c1.1282 1.53-0.9441 1.3975-0.9441 1.3975l-0.26807 1.712-0.85593-0.089-0.89982 0.76691-0.13414 0.811-0.85574 0.0462s-0.044 0.76588 0.76776 1.5756c0 0-1.0795 1.2627 0.22748 1.7564l1.261-0.18178 0.81166 0.67461 1.1695-1.2177 0.85658 0.58447 1.2601-0.81241-0.72254-1.4405 0.58437-0.90162 1.3533 1.5297s2.2086 1.1683 4.3231-0.81635l1.528-2.7046s1.0359-2e-3 0.9442-1.3075c0 0 0.85357-1.8029 3.3788 0.40109 0 0 0.67649 0.62966 1.5764-0.0471l1.0812 0.0886 0.54124 0.58484 1.5764-0.092 0.71917-1.172-0.81346-2.071s0.81043-0.3163 0.85378-1.6227c0.0432-1.3063 0.13196-2.4324 0.13196-2.4324l0.29552-0.5057-0.24232-0.29749-0.30115-0.37008-0.32937-0.2487-0.13206-0.40024-0.20172 0.30945-0.13103 0.42128-0.0418 0.38539-0.63315 0.34007-0.35719 3.7e-4 -0.60053 0.0317-0.28726-0.33887-0.0991-0.263-0.099-0.26413-0.30031-0.30886-0.28735-0.49584-0.14607-0.27906-0.21657-0.33896-0.34392-0.58804-0.16018-0.27897-0.71841-0.24712-0.28687-0.0759-0.54395 0.1427-0.25445 0.09 2e-3 -2e-3 -0.11325-0.35521-0.45992-0.23245-0.40306 0.12275-0.3005 0.24947-0.13131 0.20322-0.12643 0.32437-0.3005 0.27965-0.30089-0.12192-0.25895-0.30895-0.32955-0.43662-0.48821-0.39977-0.53043-0.18733-0.40259 0.54283-0.74736 0.44789z" fill="#b9a8d7"/>
 </g>
 <g fill="none" stroke="#000" stroke-width=".3px">
  <path d="m13.942 15.943 2.5636 0.1508 2.0358-0.3016 1.508 1.0556 0.98021-0.1508 3.3176 0.1508 2.0358 1.131 1.2818 1.2064 1.5834 2.1866 0.45241 0.07539 0.98021-0.75401h3.2422l2.8652-0.377 2.0358-0.98021 2.5636-0.1508 0.90482 0.75401 0.15079 3.3176 2.7144 1.3572 1.508 0.07539 4.3732 0.82941 1.885-1.5834 1.885 1.3572 3.8454-0.52781 1.131 0.2262 0.67862-0.2262 0.8294 0.45241 1.5834-0.82941 0.75401 0.1508 0.82942-0.75401 1.0556-0.377 1.0556 0.5278 0.5278-0.75401h3.2422l1.131 0.4524 0.6032-0.5278 2.4128 0.07539 1.508 0.1508"/>
  <path d="m42.283 19.977 0.9558-0.25153 0.35214-0.55336 1.157-1.3079 0.20122-1.3079h0.30184l0.85519-1.0061 0.30184-0.70428 1.4086-0.9055 0.20122-0.70428 0.8552-0.70428 1.7607-0.50306 0.50306-0.60367 0.50305 0.05031h0.35214l0.85519 0.50306 0.20122 0.50306 0.65397-0.05031"/>
  <path d="m20.05 16.848-0.12224 0.45842 0.45842 0.03056-0.06112 0.51954 0.36674 0.91684v0.24449l0.12224 0.12224v0.58066l0.18337 1.1919-0.12224 0.42786 0.03056 0.9474-0.06112 0.76403 0.51954 1.3141 2.1393 3.2395 0.58066-0.18337"/>
  <path d="m20.05 16.848 3.1228 1.7503 3.0336 1.4321 1.3384 1.0343 0.80302 1.1934 0.62457 1.1934 0.80302 1.7503 0.71379 1.4321 5.6211 6.2057 0.98147 1.5116v0.15912l1.6953 0.31824 0.26768 1.5116 2.4091 2.3072-0.62457 1.8299"/>
  <path d="m40.839 40.478 1.7398 1.2179 1.3049 1.7398 1.4789 1.1309 0.17398 0.69594 2.1748 1.3049 1.0439-0.08699 2.0878-1.8268 2.2618 0.08699 1.5659-1.0439 1.1309-1.4789 0.69594-0.08699 0.78293-0.60894 1.9138 0.17398 2.4358-0.95691 0.52195-0.95691 0.95691-0.86992 3.4797-0.17398 2.5228 1.7398"/>
  <path d="m69.261 40.176-0.93587-1.3336-0.31196-2.7414-0.62391-0.88909-0.54593-1.0373-0.07799-0.51864v-0.59273l0.38995-0.59273-0.15598-0.51864-0.31196-0.37045h-0.7799l-0.23397-1.0373 0.15598-0.96318 0.15598-0.74091v-0.29636l-0.23397-0.37046-0.62392 0.14818-0.85789-0.29636-2.6516-0.37046-0.46794-0.14818v-0.51864l-0.23397-0.29636-0.85789-0.29637-0.93588-0.51864-0.70191-0.07409 0.23397-1.0373"/>
  <path d="m75.906 23.451-0.99275 2.1242-1.3473 1.0255 0.35454 0.80571-0.7091 0.80571-1.0637-0.36623-0.56728 1.0255-0.28364 0.21974-0.35456-0.07325-0.14183 0.07325 0.28364 1.3184 0.28364 0.43948-0.21273 0.29299-0.35456-0.1465-0.70911-0.07325-0.6382-0.07325-0.6382-0.07325-0.42547 0.07325-0.42545 0.36623 0.21273 0.36624-0.14181 0.21974h-0.35456l-0.6382-0.21974h-0.35456"/>
  <path d="m51.039 25.519 1.7309-0.06794 2.0391-0.15826"/>
 </g>
 <g fill-rule="evenodd" stroke-width=".28864">
  <ellipse cx="14.439" cy="16.059" rx=".79338" ry=".83116"/>
  <ellipse cx="24.589" cy="27.488" rx=".79338" ry=".83116"/>
  <ellipse cx="75.982" cy="23.124" rx=".79338" ry=".83116"/>
  <ellipse cx="69.194" cy="40.301" rx=".79338" ry=".83116"/>
  <ellipse cx="41.489" cy="38.362" rx=".79338" ry=".83116"/>
  <ellipse cx="53.402" cy="12.527" rx=".79338" ry=".83116"/>
  <ellipse cx="53.125" cy="25.617" rx=".79338" ry=".83116"/>
  <ellipse cx="34.078" cy="32.821" rx=".79338" ry=".83116"/>
 </g>
 <g fill="none" stroke="#000" stroke-width=".3px">
  <path d="m24.081 27.417 0.45176 0.22407 0.25298 0.05783 0.08674 0.05421 0.14095 0.31081 0.45176 0.36864 0.92882 0.36502 2.3166 0.08674 0.08312 0.19878-0.02529 0.33611 1.0987 0.90352 1.1023 1.1601 0.25298 0.19516h0.42646l0.19516 0.14095 0.08674 0.2819 0.08312 0.2566 0.16986 0.22407 0.02891 0.56741 0.02891 0.14095 0.50597 0.84569 0.08674 0.11204"/>
  <path d="m32.834 34.247 2.1444-2.6038"/>
  <path d="m53.273 26.092-0.60419 1.1863-0.93376 1.3346-0.87883 0.69204-0.6042 0.7909-0.2197 0.24716-0.93376 0.44488-0.32956 0.44488v1.7301l0.43941 0.64261-0.05492 0.54374-0.43942 0.49431-0.43941 0.19772-0.54927-0.04944-0.76898-0.04944-0.71405 0.59318h-0.71405l-3.3505 2.6693-0.71405 0.6426"/>
  <path d="m53.273 26.092 0.7157-2.2609 0.13012-1.1064 0.32532-1.0102v-0.57725l0.1952-0.96209-0.65064-0.96209 0.26025-1.1064-1.041-1.9242 0.1952-1.6837-0.1952-2.0685"/>
  <path d="m75.997 23.333v-1.5382l-0.64311-1.0987-0.85748-0.87898-0.28583-0.43949-1.0719-1.465-0.28582-1.0987-0.28583-0.58598-0.35729-0.80573 0.50019-0.51274-0.21437-1.465-1.6435-0.95223-0.21436-0.36624-2.501-1.0987-1.0004 0.07325-0.50021 0.21974-1.572-0.51274-0.50019-0.58598-0.50021-0.36624-0.71457-0.36624-0.78602-0.073248-0.71457 0.29299-0.50019 0.43949-0.50021 0.43949-0.71457 0.43949-0.85748 0.36624-1.2862 0.21974-1.8579 0.43949h-1.1433l-0.64311-0.29299-0.64311 0.95223"/>
 </g>
 <g font-family="sans-serif" letter-spacing="0px" stroke-width=".26458" word-spacing="0px">
  <text x="6.3731155" y="14.400292" font-size="3.5278px" style="line-height:1.25" xml:space="preserve"><tspan x="6.3731155" y="14.400292" font-size="2.8222px" stroke-width=".26458">Ahmedabad</tspan></text>
  <text x="27.613903" y="36.333954" font-size="3.5278px" style="line-height:1.25" xml:space="preserve"><tspan x="27.613903" y="36.333954" font-size="2.8222px" stroke-width=".26458">Anand</tspan></text>
  <text x="41.893082" y="40.953686" font-size="3.5278px" style="line-height:1.25" xml:space="preserve"><tspan x="41.893082" y="40.953686" font-size="2.8222px" stroke-width=".26458">Vadodara</tspan></text>
  <text x="60.057037" y="43.473541" font-size="2.8222px" style="line-height:1.25" xml:space="preserve"><tspan x="60.057037" y="43.473541">Chhota</tspan><tspan x="60.057037" y="47.883289">Udaipur</tspan></text>
  <g font-size="3.5278px">
   <text x="77.276062" y="24.049652" style="line-height:1.25" xml:space="preserve"><tspan x="77.276062" y="24.049652" font-size="2.8222px" stroke-width=".26458">Dahod</tspan></text>
   <text x="15.959571" y="30.979258" style="line-height:1.25" xml:space="preserve"><tspan x="15.959571" y="30.979258" font-size="2.8222px" stroke-width=".26458">Kheda</tspan></text>
   <text x="51.657524" y="29.824324" style="line-height:1.25" xml:space="preserve"><tspan x="51.657524" y="29.824324" font-size="2.8222px" stroke-width=".26458">Godhra</tspan></text>
   <text x="45.987846" y="10.610425" style="line-height:1.25" xml:space="preserve"><tspan x="45.987846" y="10.610425" font-size="2.8222px" stroke-width=".26458">Lunavada</tspan></text>
  </g>
 </g>
 <path d="m5.8217 19.122 0.065 0.58504v0.23835l0.02167 0.21668 0.13001 0.65005 0.08667 0.23835 0.065 0.4117 0.28169 1.1051 0.67172 0.78006 0.34669 0.08667 0.34669 0.02167 0.52004 0.04333 0.75839 0.15168 0.4767 0.065 0.91007-0.02167 0.10834-0.13001-0.065-0.21668-0.13001-0.32502-0.19501-0.56337-0.21668-0.43336-0.21668-0.52004-0.65005-0.43336-0.4767-0.32502-0.32502-0.39003-0.39003-0.52004-0.19501-0.36836-0.04334-0.21668 0.04334-0.19502-0.17335-0.30336-0.17335-0.34669-0.17334-0.28169-0.19502-0.17335-0.15168-0.10834h-0.23835l-0.15168 0.08667-0.08667 0.19501-0.21668 0.19502-0.04333 0.23835-0.15168 0.23835-0.15168 0.19501z" fill="green" stroke="none" stroke-width=".052437px"/>
 <path d="m6.6666 18.327-0.041627 0.333 0.083247 0.37463-0.083247 0.09713-0.13875-0.06938h-0.20813l-0.13875 0.02775-0.041627 0.13875-0.041627 0.20813 0.013879 0.12488-0.055498 0.08324 0.12488 0.18037v0.333l0.1665 0.18038 0.069376 0.43013-0.013879 0.24975 0.027749 0.19425 0.041627 0.222v0.11101l-0.027749 0.08325-0.21237 0.02402 0.15687 0.08698 0.1665 0.05549 0.15263 0.02775 0.1665 0.02775 0.2775 0.29138h0.111l0.18038-0.02775 0.055498 0.1665 0.027749 0.111 0.055498 0.05549h0.18037l0.23588-0.01388 0.12488-0.01388 0.0555 0.02775v0.16651l0.18038 0.111-0.02775-0.26362 0.02775-0.01388 0.083251 0.01388h0.111l0.097125-0.05549 0.13875-0.08326 0.111 0.02775v-0.11099l-0.18038-0.26363 0.36075-0.02775-0.013874-0.24975 0.1665-0.13875-0.02775-0.12488-0.069375 0.02775-0.02775 0.09713-0.111 0.02775-0.111-0.08326h-0.069374l-0.097125-0.38851-0.41625-0.45788-0.19425-0.12488-0.069376-0.12488v-0.08325l-0.083255-0.09713-0.111 0.04162-0.019403-0.19966-0.10513-0.12616-0.052568-0.03155-0.14718-0.10513-0.13667-0.09462-0.042054-0.08411 0.12616-0.04205 0.12616-0.02103 0.1179-0.06991 0.042317-0.19041-0.18124-0.31791-0.042054-0.05256-0.10513-0.02103-0.23129-0.02103-0.10513 0.10514-0.021027-0.08411-0.042054-0.04206-0.12616-0.01051-0.073594-0.01052-0.042054-0.13667-0.010515-0.05256 0.042054-0.05256 0.052568-0.03155v-0.08411l-0.052568-0.05256z" fill="#85c5e3" stroke="none" stroke-width=".051199px"/>
 <text x="4.0927215" y="25.248343" fill="#000000" font-family="sans-serif" font-size="3.5278px" letter-spacing="0px" stroke-width=".26459" word-spacing="0px" style="line-height:1.25" xml:space="preserve"><tspan x="4.0927215" y="25.248343" font-size="1.4111px" stroke-width=".26459">Nal Sarovar lake</tspan></text>
 <path d="m71.229 12.052-0.1643-0.79415-0.08216-0.24646 0.05477-0.54769-0.10954-0.16431-0.05477-0.10954 0.03634-0.35685 0.18727-0.04161v0.18727l0.08322 0.10404-0.02081 0.2705 0.20808 0.22888h0.14565l0.16647-0.10404v-0.20808l-0.08324-0.08323-0.16646-0.31212-0.10404-0.14565v-0.35374l-0.02081-0.12485 0.22888 0.16646 0.06242-0.29131 0.22888 0.02081v-0.24969l0.14566 0.18727 0.2497-0.04161v-0.16646l0.10404-0.08323v-0.10404l0.08322-0.04161-0.02081-0.29131h0.20808l0.18726-0.31212-0.04161-0.062427h-0.22889l-0.02081-0.06242 0.2705-0.20808 0.08324-0.14565 0.18726 0.041613 0.04162 0.29131 0.12484-0.041614 0.16647-0.18727-0.18728-0.10404v-0.37455l-0.041585-0.10404v-0.20808h0.2497l0.12484-0.041613 0.41616 0.020807 0.02081-0.083231 0.12484-0.020807 0.20808-0.24969 0.45776 0.041613 0.10404-0.12485 0.04162-0.06242h0.20808l0.12485-0.18727 0.31211-0.37454 0.20808-0.06242 0.45777-0.020807h0.541l-0.58262-0.18727-0.60342-0.08323-0.22889 0.35373-0.22888 0.20808-0.18726 0.083231-0.20808 0.06242-0.14566 0.16646-0.2705-0.041613-0.2497 0.2705-0.18726 0.041613h-0.54101l0.2705-0.29131 0.08324-0.083232v-0.39535l-0.08324-0.20808 0.06243-0.14565v-0.2705l0.14565-0.16646-0.08322-0.31212 0.14566-0.16646v-0.16646l-0.14566 0.14565-0.06242-0.18727-0.08324-0.10404-0.47858 0.10404 0.29131 0.12485 0.10403 0.041613 0.02081 0.24969v0.2705l-0.02081 0.31212-0.10403 0.14565 0.02081 0.33292 0.02081 0.20808h0.10404v0.10404l-0.24968 0.24969-0.14566 0.08323-0.02081 0.20808-0.04161 0.041613-0.29131-0.041613-0.2705 0.16646-0.02081 0.541-0.10404 0.16646-0.16647 0.041614h-0.20806l-0.06243-0.12485-0.02081 0.16646h-0.08324l-0.06242-0.20808-0.16646 0.2705-0.02081 0.29131 0.22888 0.33292 0.02081 0.06242-0.22888 0.2705-0.33292-0.37454-0.04162-0.062427 0.06242-0.22889-0.08323-0.16646v-0.22889l-0.22889-0.14565-0.02081-0.020807v0.22889l0.02081 0.37454-0.12484 0.062427-0.29131-0.39535-0.04161 0.31212h-0.18727l-0.16646-0.08323-0.10404-0.020807-0.2497-0.20808 0.10404 0.29131-0.06242 0.18727h-0.16647l-0.08324-0.083233-0.2913-0.31212 0.10404 0.22889v0.10404l-0.02081 0.16646-0.06242 0.020807h-0.3121l0.06242 0.22889v0.47858l0.12485-0.12485h0.14566v0.29131l-0.18727 0.02081h-0.12484l-0.18727 0.29131-0.16646 0.2705 0.22888-0.10404 0.2497 0.04161 0.02081-0.14565h0.29131v0.35373l0.2705 0.18727-0.12484-0.22888v-0.41615l0.12484-0.06242-0.12484-0.04161v-0.20808l0.12484 0.02081 0.08324 0.10404v0.29131l0.2705-0.08323 0.24969 0.33292h0.16647v-0.49939h0.20808l0.16646-0.14565 0.10404 0.04161-0.04162 0.41615-0.2497 0.10404 0.06242 0.24969-0.14565 0.04161-0.06243 0.22888v0.2705l0.12485 0.10404v0.45777l0.18726 0.22888 0.06242 0.22888 0.04162 0.2705v0.24969z" fill="#85c5e3" stroke="none" stroke-width=".1005px"/>
 <path d="m65.38 16.782h0.54493l0.22438-0.19233 0.67315-0.28849-0.16027 0.28849-0.16027 0.28849 0.09617 0.22438h0.48081l0.16027-0.16027 0.67315-0.51287-0.16027 0.25644-0.32054 0.48082 0.19232 0.22438-0.3526 0.03205 0.02971 0.12587 0.12119 0.02424 0.04847 0.16965-0.04847 0.2666 0.2666 0.02424 0.02424 0.43626-0.24236-0.02424-0.14542 0.19389-0.07271-0.07271-0.21812-0.07271-0.09694 0.12118-0.02424 0.21813-0.21812 0.16966 0.04847-0.16966-0.12118-0.16965 0.09695-0.24236 0.04847 0.02424 0.14542-0.14542 0.19389-0.07271v-0.14542l-0.19389-0.04847-0.16965 0.19389-0.31508 0.2666v-0.24236l0.04848-0.12118-0.12119-0.04847v-0.16965h-0.04847l-0.2666 0.12118 0.14542-0.19389 0.09694-0.04847v-0.12118h-0.38778l0.02424 0.19389-0.09694 0.14542-0.16965 0.31507v-0.24236l-0.04847-0.14542h-0.12119l-0.19389 0.16966 0.14542 0.2666-0.2666-0.09695v-0.14542l-0.1875 0.05588-0.08958 0.11944 0.01492-0.19409v-0.11943l-0.17916-0.1493 0.25382-0.01493h0.1493l0.16423 0.02986-0.07465-0.3434 0.1493-0.08958h0.13437l0.04479-0.10451-0.17917-0.10451-0.13437-0.13437 0.10451-0.13437-0.1493-0.37326z" fill="#85c5e3" stroke="none" stroke-width=".089432px"/>
 <text x="72.537979" y="10.41893" fill="#000000" font-family="sans-serif" font-size="3.5278px" letter-spacing="0px" stroke-width=".26459" word-spacing="0px" style="line-height:1.25" xml:space="preserve"><tspan x="72.537979" y="10.41893" font-size="1.4111px" stroke-width=".26459">Kadana resorvoir</tspan></text>
 <text x="59.169617" y="15.435912" fill="#000000" font-family="sans-serif" font-size="3.5278px" letter-spacing="0px" stroke-width=".26459" word-spacing="0px" style="line-height:1.25" xml:space="preserve"><tspan x="59.169617" y="15.435912" font-size="1.4111px" stroke-width=".26459">Panam reservoir</tspan></text>
 <path d="m58.155 37.715-0.3359 0.37322 0.07464 0.82108 0.11198 0.14929 0.55983-0.03731h1.1196v-0.44786l0.11196-0.14929 0.03733-0.18661-0.1493-0.37322-0.22393-0.14929h-0.14928z" fill="green" stroke="none" stroke-width=".10711px"/>
 <text x="49.028435" y="36.252026" fill="#000000" font-family="sans-serif" font-size="3.5278px" letter-spacing="0px" stroke-width=".26459" word-spacing="0px" style="line-height:1.25" xml:space="preserve"><tspan x="49.028435" y="36.252026" font-size="1.0583px" stroke-width=".26459">Jambughoda wildlife sanctuary</tspan></text>
</svg>
