<!-- Created with Inkscape (http://www.inkscape.org/) -->
<svg width="82.92mm" height="59.611mm" version="1.1" viewBox="0 0 82.919525 59.610812" xmlns="http://www.w3.org/2000/svg" xmlns:cc="http://creativecommons.org/ns#" xmlns:dc="http://purl.org/dc/elements/1.1/" xmlns:rdf="http://www.w3.org/1999/02/22-rdf-syntax-ns#">
 <metadata>
  <rdf:RDF>
   <cc:Work rdf:about="">
    <dc:format>image/svg+xml</dc:format>
    <dc:type rdf:resource="http://purl.org/dc/dcmitype/StillImage"/>
    <dc:title/>
   </cc:Work>
  </rdf:RDF>
 </metadata>
 <g transform="translate(-73.447 -114.22)" stroke="#fff" stroke-linecap="round" stroke-linejoin="round" stroke-width=".2">
  <path id="Sabarkantha" d="m137.23 131.43s-0.57403 0.34281-0.94108 1.6646c0 0-0.16196 0.44045-0.3678 0.70722-0.13545 0.1754-1.5255 2.0456-1.5255 2.0456l-0.22267 0.36734s-0.21582 0.0938-0.4385 0.41076l-0.22268 0.27382s-0.0933 0.0936-0.32363 0.13714c0 0-0.23714 0.15866-0.302 0.22351-0.0647 0.0648-0.4242 0.33152-0.4242 0.33152s-0.11505 0.0865-0.1363 0.33125c0 0 0.0217 0.10067-0.0286 0.23029l-0.24439 0.31696-0.10771 0.14409c-0.35917 0.45391-0.55976 1.2026-0.55976 1.2026s-0.27239 0.8064-0.43745 1.2024c-0.16496 0.39601-0.25821 0.59763-0.29354 1.1086-0.0353 0.51095 0.0306 1.3385 0.0306 1.3385l0.0653 0.46772s-0.0356 0.33105 0.0512 0.57564c0 0 0.065 0.20867 0.0654 0.37419 0 0.16552 2e-3 1.5617 2e-3 1.5617s2e-3 0.64763 0.26751 1.0216c0 0 0.25247 0.38115 0.36789 0.61125 0 0 0.1081 0.17982 0.18744 0.30201 0.0793 0.1223 0.1659 0.25887 0.12294 0.47487 0 0-0.28669 0.81354-0.32814 2.1882 0 0-0.0141 0.18715-0.0714 0.37429-0.0574 0.18725-1.0045 2.4626-1.0045 2.4626s-0.19391 0.41763-0.23686 0.56877c-0.043 0.15116-0.1221 0.20163-0.23706 0.25944-0.11505 0.0578-0.74097 0.22399-0.9565 0.50503l-0.11506 0.14551 1.1439-2e-3 1.2633 1.3497s-0.94325 2.0283-2.8797 2.4361l0.76702 0.94494 1.442 0.49359 0.18141 0.99071 2.973 0.0412 0.63401 2.6568 1.3041-1.6684 0.85613 0.26911 1.3063-2e-3 0.63166 0.80995s1.7096-1.5336 0.80629-3.4243l0.0893-0.67574 1.126 0.0436s-1.3995-2.4305 0.62619-3.4241l0.62837-1.7576 2.6534-3.2916-0.54216-1.2155-1.1266-0.44903-0.76757-1.4404-1.2616-0.31366 3.1023-4.3732 1.1731 1.4398 1.0809-0.13657-0.31706-1.3059 1.8007-0.81307 0.48717-0.018 0.1283-0.17005 0.0843-0.15707 0.1737-0.18816 0.32869-0.24947 0.21583-0.29459 0.40258-0.48173 0.18781-0.15828 0.17332-0.38558 0.0558-0.51236 0.0277-0.37045-0.0427-0.30925-0.0708-0.26402 0.0701-0.29431 0.20173-0.27946 0.12642-0.33951-0.0708-0.20293-0.18846-0.38511-0.31507-0.10574-0.47439-0.52675-0.0851-0.35418-0.11346-0.55825-0.11326-0.37015-0.0849-0.21798-0.34355-0.39996-0.24439 0.0463-0.32862 0.32561-0.12643 0.37054 0.0711 0.43603-0.25726 0.92812-0.41792 0.32485-0.13159 1.9e-4 -0.34272 0.18837-0.52966 0.45185-0.36987 0.30971-0.60026 0.32607-0.46002-0.23255-0.50231-0.30859-0.43304-0.55776-0.0568-0.17203-0.0991-0.29402 0.0844-0.15705 0.0979-0.52845 0.0841-0.42119-0.27277-0.18672-0.51621-0.17126-0.37158-0.15745-0.27183-0.17164-0.41885-0.42053-0.44704-0.39986-0.38981-0.58794-0.21694-0.58814-0.41781-0.33876-0.23105-0.55806-0.17464-0.63334-0.24485-0.4509 0.52966-0.38604 0.056-0.2943-0.1316-0.12201 0.13104-0.37054 0.2159-0.27944 0.18772-0.27945 0.27202-0.42139 0.41696-0.29476 0.25793-0.43642 0.28602-0.52864-0.12726-0.36931-0.23085-0.40005-0.63438-0.64772-0.50345-0.5276-0.34346-0.26282-0.13207-0.3852 0.17342-0.42128 0.31461-0.2035 0.25727-0.21836 0.0276-0.46632-0.0992-0.38519-0.33012-0.82105-0.0146-0.33933-0.14625-0.451-0.25802 0.37063-0.21694-0.54207-0.1456 1.9e-4 -0.27174 0.0615-0.20171 0.18734-0.36997 0.3398-0.52949 0.49789-0.45935 0.30981-0.73119 0.77735-0.47347 0.21873-0.47317 0.42167-0.15904 0.51255 0.21655 0.27889 0.31433 0.27786 2e-3 0.68522-0.38971 0.33989-0.5997 0.71606 6e-3 0.0259 0.35447 1.5567c0 9e-5 2.1631 0.80808 1.3993 2.3856z" fill="#e2b584"/>
  <path id="Mehsana" d="m116.29 167.18 0.9894-1.1274s-0.76766-1.4855 0.4478-2.1177l0.81015-0.49648s-0.81298-1.6655 0.13263-1.892c0.94561-0.22643 1.3965 0.17841 1.3965 0.17841l0.3585-1.3968 1.0359-0.0915-0.047-1.5314 1.2135-2.0286s1.8912-0.54301 1.5293-1.7136l1.4395-1.4432 1.7131 1.0339 0.85677 0.80968 0.70291-2e-3 0.11504-0.14551c0.21554-0.28095 0.84145-0.44723 0.95651-0.50505 0.11505-0.0578 0.1941-0.10817 0.23706-0.25942 0.043-0.15124 0.23687-0.56877 0.23687-0.56877s0.94701-2.2754 1.0044-2.4626c0.0572-0.18724 0.0715-0.37429 0.0715-0.37429 0.0415-1.3746 0.32815-2.1882 0.32815-2.1882 0.0429-0.21591-0.0436-0.35258-0.12295-0.47486-0.0793-0.1222-0.18743-0.30201-0.18743-0.30201-0.11553-0.23011-0.36791-0.61126-0.36791-0.61126-0.26676-0.37391-0.26751-1.0216-0.26751-1.0216s-2e-3 -1.3961-2e-3 -1.5617-0.0654-0.3742-0.0654-0.3742c-0.0867-0.24457-0.0512-0.57563-0.0512-0.57563l-0.0652-0.46772s-0.0659-0.82754-0.0306-1.3385 0.12859-0.71257 0.29355-1.1086c0.16506-0.39601 0.43747-1.2024 0.43747-1.2024s0.20058-0.74868 0.55974-1.2026l0.10772-0.14409 0.2444-0.31695-0.82502-0.76993-1.1734-1.7101-0.98977 0.85705-0.9019-0.80959-1.215 0.94748-0.99165-0.49413-0.98968 0.90208 0.99334 1.9357s-1.892-0.0427-2.1599 1.7594l-2.7027-0.0415-1.666 0.49819-0.4038 1.2167s-1.3963-0.0883-2.251 0.81364c0 0-1.8934-1.1688-2.2519 0.22812l-0.90057 0.31649s0.85752 1.2601 0.36357 2.4769l0.58645 0.67488s-0.58533 0.24289-0.58222 2.5683c0 0.13516 0.0472 1.7115 0.0472 1.7115s0.0463 0.90077-1.2164-0.22362l-0.99006 0.72198-1.1272-0.89935s-0.53775 2.1178-2.1156 1.1288l-0.44827 1.7122-1.4416-0.13319s0.40295-1.9375-1.1735-1.8452c-1.5764 0.0921-1.9802 1.2638-1.9802 1.2638l-1.3504 0.67782 0.81213 1.1251 1.171-0.13665c-0.62864 1.5322 0.4976 1.666 0.4976 1.666l3.4682-0.13958 0.40673 1.0806 0.99081-0.0914 1.8452-1.2636c1.6242 2.0249-0.0863 2.8829-0.0863 2.8829l2e-3 0.81072-2.5642 2.5258 0.31639 0.90049-0.22173 2.7029-0.76448 0.99194 0.5417 0.85508 0.85528-0.45157c1.7112-0.36253 2.9312 2.5637 2.9312 2.5637l1.0805-0.40681-0.63251-1.4406 0.76485-0.72171 0.89954-0.99297z" fill="#c2f0c2"/>
  <path id="Banaskantha" d="m82.667 119.57-0.81034 0.40644-1.396 0.27202-0.0437 1.0812 2.7475-0.13874-0.5357 3.8294s2.4776 0.13187 1.1738 2.0705c0 0-2.8366 0.81448-2.1137 2.5703 0.72292 1.7558 1.94 2.4298 1.94 2.4298l-1.305 1.0377-1.2172-0.76419-0.35888 1.1266 2.2084 0.94306-1.5264 3.9207 0.72123 0.44949 1.1729 0.98912 2.8838 0.80705 0.58644 0.71992 1.3506-0.49724s-0.76869-2.2512 0.76232-2.6135l0.90301 1.6654 1.17-0.85734 2.21 2.1593 1.575-1.1282s1.1735 1.8001 1.5356 3.1511l1.4433 1.4846 2.7918-0.63419s0.9893-1.2174 3.0613-1.2651l0.991-2e-3 -1.6687-1.6195 0.4495-0.72123-0.85734-1.125s0.26949-0.58588 1.5314-0.047c1.262 0.53888 1.6675 0.62846 2.3427 0.26723l-1.0379-1.4851-0.0917-1.171s2.3905 2.4744 3.9638-0.0502l0.31367-1.3067-1.8931-0.89841 1.5758-0.63268 1.3525 0.89907 0.76486-0.7216 0.6763 0.49459s-1.0342 1.3978 0.40794 2.0265c1.4422 0.62875 3.6507 1.707 4.0578 2.9677l2.7029 0.17662 0.49723 1.3958 1.666-0.49818 2.7027 0.0415c0.2679-1.8021 2.1599-1.7594 2.1599-1.7594l-0.99334-1.9357 0.98968-0.90208 0.99165 0.49413 1.215-0.94747 0.90189 0.80958 0.98978-0.85706 1.1734 1.7101 0.825 0.76992c0.0502-0.12963 0.0286-0.23029 0.0286-0.23029 0.0214-0.24477 0.1363-0.33125 0.1363-0.33125s0.35944-0.26675 0.42419-0.33152c0.0648-0.0649 0.30201-0.22352 0.30201-0.22352 0.23029-0.0436 0.32363-0.13714 0.32363-0.13714l0.22268-0.27382c0.22268-0.31706 0.43849-0.41077 0.43849-0.41077l0.22267-0.36734s1.3899-1.8702 1.5255-2.0457c0.20584-0.26675 0.36779-0.70722 0.36779-0.70722 0.36696-1.3219 0.94109-1.6646 0.94109-1.6646 0.76372-1.5776-1.3994-2.3855-1.3994-2.3855l-0.35445-1.5567-2e-3 3.9e-4 -0.4179-0.52675-0.2443 0.15726-0.40428-0.0295-0.25915-0.49594-0.60119-0.5274-0.48803-0.13573-0.64772-0.0753-0.68984 0.062-0.77434 0.12323-0.71804 0.092-0.84493 0.0923-0.53043-0.24844-0.16017-0.27898-0.83215-0.89654-0.47487-0.85103-0.35831-0.75997-0.35672-0.46574-0.67592-0.0302-0.67603-0.20124-0.55842-0.0754-0.73251-0.27824-0.38952-0.24767-0.50249-0.43549-0.2444 0.0764-0.24382 0.45053-0.20172 0.31046-0.17352 0.27842-0.17352 0.38567-0.24363 0.54263-0.25765 0.6499-0.36997 0.29467-0.57234 0.10697-0.53051-0.2475-0.12748-0.51212-0.0997-0.69914-0.0994-0.49706 0.0981-0.43633-0.0851-0.46612-0.48832-0.38473-0.48812-0.24748-0.48765 0.0918-0.38934-0.10574-0.31516-0.24777-0.20275-0.46594-0.31546-0.5119-0.54489-0.42045-0.34299 0.0315-0.27249 0.0605-0.34281 0.12266-0.40324 0.0315-0.43172-0.15641-0.11298-0.21798-0.057-0.4821 0.20163-0.43643 0.3287-0.23358 0.47365-0.0457 0.57261 0.10545 0.55825-0.0308 0.30041-0.21844-0.43209-0.52676-0.51604-0.0755-0.57253-0.0143-0.63373-0.18724-0.55862-0.23236-0.61473 0.0158-0.54404 0.15762-1.1353 0.1236-0.7749-0.3693-0.634-0.30841-0.9629-0.27794-0.11364-0.6795-0.81796-0.89662-0.5447-0.3696-0.55815 0.18781-0.54415 0.0768-0.44534 0.17257-0.47337 0.18866 0.0855 0.77537-0.48738 0.40107-0.73174 0.35625-0.76025 0.0921-0.43228-0.55684-0.24533-0.7451-0.37063-0.20257-0.91975 0.26536-0.30003 0.55778 0.28735 0.51189-0.098 0.46632-0.789-0.21704-0.87323 0.0161-0.13196-0.3852 0.2722-0.24947-0.31571-0.77498-0.51603-0.0304-0.58663-0.0754-0.47346 0.17258-0.47393-0.0756-0.87764 0.20322-0.66155 0.15782-0.51565 0.20369-0.66173-0.0142-0.85978-0.49527-0.7326-0.23302-0.96299-0.39919-1.0191-0.12088-1.1918 0.0466-0.87313 0.12342-0.96186 0.48247-0.84417 0.51341-0.87803 1e-3 -0.71812 1e-3 -0.68993 0.0619-0.58587 0.43688-0.93357 0.61973 0.0568 0.0297-0.0437 5e-3 -0.39074-0.57291-0.25858-0.0307-0.35729-0.0146-0.54432-0.0604-0.38999-0.0146-0.47308 0.51284 0.62807 1.5063z" fill="#f0c2f0"/>
  <path id="Patan" d="m95.417 155.18c1.1266 0.31387 1.1277 1.1697 1.1277 1.1697s-1.576 0.54255-0.22343 1.4417c1.3525 0.89915 2.3863-0.76881 2.3863-0.76881l0.49358-1.487 1.9807-0.90349 1.26-0.9926 1.3504-0.67781s0.40391-1.1717 1.9802-1.2638c1.5764-0.0921 1.1734 1.8453 1.1734 1.8453l1.4416 0.13319 0.44826-1.7122c1.5778 0.98893 2.1156-1.1288 2.1156-1.1288l1.1272 0.89936 0.99007-0.72199c1.2627 1.1245 1.2164 0.22362 1.2164 0.22362s-0.0471-1.5764-0.0472-1.7115c-2e-3 -2.3253 0.5822-2.5683 0.5822-2.5683l-0.58643-0.67489c0.49394-1.2168-0.36359-2.4769-0.36359-2.4769l0.90059-0.31648c0.35849-1.3968 2.2519-0.22813 2.2519-0.22813 0.8547-0.90198 2.251-0.81362 2.251-0.81362l0.40381-1.2167-0.49725-1.3958-2.7029-0.17661c-0.4071-1.2607-2.6156-2.3389-4.0578-2.9677-1.4422-0.62865-0.40795-2.0265-0.40795-2.0265l-0.6763-0.4946-0.76484 0.72161-1.3525-0.89908-1.5758 0.63268 1.8931 0.89841-0.31367 1.3067c-1.5732 2.5245-3.9638 0.0502-3.9638 0.0502l0.0916 1.171 1.0379 1.4851c-0.67517 0.36122-1.0807 0.27173-2.3427-0.26723-1.2619-0.53889-1.5314 0.047-1.5314 0.047l0.85735 1.125-0.4495 0.72124 1.6687 1.6195-0.991 2e-3c-2.072 0.0477-3.0613 1.2651-3.0613 1.2651l-2.7918 0.63421-1.4433-1.4846c-0.36217-1.3514-1.5356-3.1516-1.5356-3.1516l-1.575 1.1282-2.21-2.1593-1.17 0.85734-0.90302-1.6654c-1.531 0.36225-0.76231 2.6135-0.76231 2.6135l-1.3506 0.49724-0.58644-0.71992-2.8838-0.80705-1.1729-0.98911-0.26808 1.712s-5.0012-1.0747-6.664 1.8103l-0.53822 1.7574-0.99024 0.58681 1.041 3.8274-1.2152 0.76728 1.4891 2.07s1.1708-0.27184 1.979-2.2097l0.85395-1.4426-0.58634-0.58474s1.6207-0.72283 2.6577 0.0415c0 0-0.40128 3.1986 2.7062 2.7442l1.2157-0.36189 0.81259 1.3503 0.94551-0.40662 0.0472 1.6666 0.94588-2e-3 -0.13122 3.0631 2.4302-1.6246-0.44836 1.6221 2.0715-0.67807c9.1e-5 1.8e-4 3.7841 0.35567 4.9107 0.66952z" fill="#cc2"/>
  <path d="m145.76 143.36 0.31706 1.3059-1.0809 0.13657-1.1731-1.4398-3.1023 4.3732 1.2616 0.31366 0.76757 1.4404 1.1266 0.449 0.54216 1.2155-2.6534 3.2916-0.62837 1.7576c-2.0257 0.99354-0.62619 3.4241-0.62619 3.4241l-1.126-0.0436-0.0893 0.67573c0.9033 1.8907-0.80629 3.4243-0.80629 3.4243l-0.63165-0.80996-1.3063 2e-3 -0.85613-0.26911-1.3041 1.6684-0.63399-2.6568-2.973-0.0412-0.1814-0.99072-1.442-0.49358-0.76701-0.94493c1.9364-0.40785 2.8797-2.4361 2.8797-2.4361l-1.2633-1.3497-1.1439 2e-3 -0.7029 2e-3 -0.85678-0.80969-1.7131-1.0339-1.4395 1.4432c0.36198 1.1706-1.5293 1.7137-1.5293 1.7137l-1.2135 2.0286 0.047 1.5314-1.0359 0.0914-0.35851 1.3968s-0.45088-0.40484-1.3965-0.1784c-0.9456 0.22643-0.13264 1.892-0.13264 1.892l-0.81015 0.49649c-1.2155 0.63212-0.44779 2.1177-0.44779 2.1177l-0.9894 1.1274-1.5329-1.0791-0.89954 0.99298 1.127 0.76429 0.76719 1.1702s1.172 0.62901 2.2969-0.27325c1.125-0.90237 0.7624-2.5685 0.7624-2.5685l1.5311-0.31722s0.13658 1.171 1.3073 0.89915c1.1708-0.27183 1.1515 1.1304 1.1515 1.1304 2.1612-0.72349 4.4806 0.0785 4.4806 0.0785l0.76738 1.2152 1.4884 1.6196 1.7125 0.40241s2.3431 0.53746 2.7907-1.5802l0.13488-0.18029s1.216-0.13676 1.7099-1.3986l1.1709-0.13667-0.0917-1.2612-1.3066-0.1784 0.89635-3.5146-0.89635 3.5146 1.3066 0.1784 1.7118 0.0878 1.0345-1.1274 0.85724 1.0799 0.94532-0.45176 0.90329 1.8908 1.7581 1.1238 0.89982-0.76691 0.85593 0.089 0.26807-1.712s2.0723 0.13243 0.94411-1.3976l-0.72114-0.40446 2.7436-3.0214 2.8834 0.44666s0.58268-2.1629 2.8773-4.1927l0.35868-1.2617 0.74737-0.44789-0.017 4e-3 -0.0148-0.52722-0.0707-0.14184-0.16008-0.26404-0.0285-0.18706 0.056-0.2943 0.24421-0.14221 0.2581-0.27945-0.0288-0.38538-0.18836-0.29392-0.23068-0.32496-0.0428-0.37024 0.14531-0.30944 0.0699-0.45136 0.21554-0.45147-0.16055-0.66427-0.0148-0.51228-0.3711-0.52684-0.48812-0.3086-0.57271-0.20227-0.58681-0.23235-0.81665 0.24917-0.41819 2.7e-4 -0.43069 0.49686-0.31498 0.0614-0.0428-0.46613 0.18743-0.40155 0.31451-0.40079 0.0699-0.45138-0.39027-0.17144-0.54433-0.0295-0.343-0.0456-0.043-0.54225-0.27316-0.43587-0.432-0.42053-0.35766-0.35399-0.3709-0.42054-0.6904-0.35445-0.60064 5.3e-4 -0.48774 0.0618-0.30013-0.24787 0.12642-0.40052 0.13084-0.61868-0.0851-0.38529 0.21638 0.0759-0.0996-0.61839-0.0849-0.24796-0.0286-0.30925v-0.20304l0.0419-0.27916 0.0138-0.26319 0.0593-0.0784-0.48717 0.018z" fill="#f9d3c6"/>
 </g>
 <g fill="none" stroke="#000" stroke-width=".2px">
  <path d="m47.209 56.217v-0.87596l0.31284-0.65697h0.21899l0.1877-0.25028-0.1877-0.81339 1.3765-1.1888 0.21899-2.2838 0.84468-0.31284 0.18771-0.18771 0.12514-1.0011 0.62569-0.21899 1.095 0.78211 0.56312-1.2514 0.31284-0.31284 0.65697-1.5955 0.15642-0.87596 1.9083-3.0346-0.03128-0.34413 0.87596-0.25028-0.09385-0.4067 0.53184-0.62569 1.5329-1.2514 0.62569-0.87596-0.09386-0.43798 0.34413-1.0324 2.0335-0.06256 0.7821-0.18771 0.43798-0.31284 0.62569-0.03128 0.5944-0.06256 0.53183-0.21899 0.96982 0.34413 0.8134-0.31284 0.40669 0.18771h0.68826l0.06257 0.71954 0.09385 0.31284 0.21899 0.65697-0.09385 0.8134 0.15642 0.37541 0.78211 0.90725 1.2514 0.65697 0.43798 0.31284"/>
  <path d="m42.479 16.292-0.40362 0.87451-0.26908 1.009-0.26908 1.3454-0.13454 1.009-0.13454 1.6817-0.47089 1.009-0.13454 0.47089-0.20181 1.009-0.06726 0.73997 0.33635 0.47089-0.06726 0.73997-0.06727 1.749 0.60543 1.2781-0.73997 1.2109 0.73997 1.6145v3.0944l-0.40362 1.2109-0.26908 0.40362 1.2109 2.489-0.47089 1.2781 0.26908 2.489 1.2109 2.8926 0.13454 1.2109 1.4799 1.009 0.20181 0.40362 3.0271 2.5562-0.13453 1.8163 0.47088 1.0763-0.6727 0.6727-0.2018 1.2781"/>
  <path d="m41.171 34.441-0.60687-1.127-3.0343-1.994-1.127-0.26009h-0.95365l-2.0807-0.78026-0.0867-1.3004 0.60687-0.43348-0.0867-2.6876"/>
  <path d="m40.461 24.701-1.805 0.11282-1.0717 0.16922-1.1282 0.22563-1.1282 0.33845-1.3538 0.33845 0.7333-1.1846 0.16922-1.4102v-0.84612l-0.28204-0.50767 0.05642-0.33845 0.39485-1.4666v-0.78971l-0.16922-0.90253 0.62049-1.7486-0.50767-1.2974 0.05641-0.33845 0.7333-1.1282 1.8615 0.78971 1.2974 0.28204 2.7076 1.241"/>
  <path d="m41.244 38.691 1.1794 0.19746 2.3152 0.1481 1.6599 0.04936 1.0484 0.54302 0.04364 0.44429 0.48051 0.24683 1.0047-0.29619h2.7083l0.61155 0.29619 0.21842-0.59238 0.7426-0.39492 0.52419-0.09873 0.43682-0.34556 0.56787-0.39492 0.82996-0.09873 0.96102-0.34556 0.56788-0.24683 0.52418-0.1481 0.2621-0.09873 0.52418-0.39492 0.39314-0.09873 0.65524-0.1481"/>
 </g>
 <g fill-rule="evenodd" stroke-width=".3844">
  <ellipse cx="41.945" cy="16.272" rx=".94979" ry="1.0176"/>
  <ellipse cx="33.921" cy="26.109" rx=".94978" ry="1.0176"/>
  <ellipse cx="70.458" cy="41.131" rx=".94978" ry="1.0176"/>
  <ellipse cx="47.101" cy="56.444" rx=".94978" ry="1.0176"/>
  <ellipse cx="51.178" cy="48.683" rx=".94978" ry="1.0176"/>
  <ellipse cx="40.802" cy="37.739" rx=".94978" ry="1.0176"/>
 </g>
 <path d="m51.2 48.761 0.15265-0.53929-1.1122-0.54928-0.37073-0.53929 0.37073-1.9674h-0.74145l-0.5997-0.67911-0.5888-1.0187-0.44705-1.0187-0.44705-1.7577-0.73054-0.13982-1.3412-0.53929-1.0358-0.40946-0.74145-0.54928-0.66512-0.6092-0.44705-1.0187-0.14175-0.6092-1.1122-1.2184" fill="none" stroke="#000" stroke-width=".2px"/>
 <path d="m47.928 54.434h0.46927l0.09385-0.18771 0.21899-0.21899 0.28156 0.03129 0.09385-1.0324h0.81339l0.37541 0.12514 0.43798 0.18771 0.09385 0.5944 0.18771 0.06257 0.43798-0.43798 0.81339-0.15642 0.75082-0.78211 0.71954-0.53183 1.3139-0.87596 2.2525-2.4715 0.28156-0.43798 0.5944-0.31284 0.96982-1.0011 1.0324-1.2514 0.65697-0.78211 0.25027-0.46926 0.34413-0.21899 0.84468-0.03129 0.46926 0.43798 0.50056 0.43798 0.28156 0.15642 0.34412-0.53183 0.43798-1.4391 0.96982-0.28156 0.78211-1.5329 0.28156-0.25027 0.31284-0.09385 0.56313-0.15642 0.68826-0.65697 0.21899 0.09385h0.3754l0.12514-0.37541" fill="none" stroke="#000" stroke-width=".2px"/>
 <text x="44.245186" y="16.434521" fill="#000000" font-family="sans-serif" font-size="3.5278px" letter-spacing="0px" stroke-width=".26458" word-spacing="0px" style="line-height:1.25" xml:space="preserve"><tspan x="44.245186" y="16.434521" font-size="2.8222px" stroke-width=".26458">Palanpur</tspan></text>
 <text x="23.011854" y="24.216372" fill="#000000" font-family="sans-serif" font-size="3.5278px" letter-spacing="0px" stroke-width=".26458" word-spacing="0px" style="line-height:1.25" xml:space="preserve"><tspan x="23.011854" y="24.216372" font-size="2.8222px" stroke-width=".26458">Patan</tspan></text>
 <path d="m59.503 36.915 0.41657-1.1368" fill="none" stroke="#000" stroke-width=".26458px"/>
 <ellipse cx="60.142" cy="35.444" rx=".94978" ry="1.0176" fill-rule="evenodd" stroke-width=".3844"/>
 <g font-family="sans-serif" font-size="3.5278px" letter-spacing="0px" stroke-width=".26458" word-spacing="0px">
  <text x="58.252522" y="33.109917" style="line-height:1.25" xml:space="preserve"><tspan x="58.252522" y="33.109917" font-size="2.8222px" stroke-width=".26458">Himatnagar</tspan></text>
  <text x="71.037003" y="39.668903" style="line-height:1.25" xml:space="preserve"><tspan x="71.037003" y="39.668903" font-size="2.8222px" stroke-width=".26458">Modasa</tspan></text>
  <text x="39.353745" y="59.568211" style="line-height:1.25" xml:space="preserve"><tspan x="39.353745" y="59.568211" font-size="2.8222px" stroke-width=".26458">Ahmedabad</tspan></text>
  <text x="53.472244" y="49.896481" style="line-height:1.25" xml:space="preserve"><tspan x="53.472244" y="49.896481" font-size="2.8222px" stroke-width=".26458">Gandhinagar</tspan></text>
  <text x="42.799988" y="36.667332" style="line-height:1.25" xml:space="preserve"><tspan x="42.799988" y="36.667332" font-size="2.8222px" stroke-width=".26458">Mehsana</tspan></text>
 </g>
 <g fill="green" stroke="none">
  <path d="m74.148 1.9166-0.22135 0.81161 0.59026 0.14757-0.59026 0.88539-0.59026 0.88539-0.81161 0.81161h0.59026l1.1067-0.073776-0.95917 0.88539-0.95917 0.4427-0.36891 0.073776-0.44269 0.59026-0.4427 0.59026 0.59026 1.1067-0.95917 0.81161-0.88539 0.88539-0.36891 0.59026 0.66404 0.51648 1.2543 0.14756v-1.2543l0.07378-0.4427 0.51648-0.4427v0.81161l-0.07378 0.66404v0.51648l-0.22134 1.033 0.14756 1.1805-0.4427 0.59026-0.22135 0.36892-1.033 0.07378-0.81161 1.1067 1.1805 0.73783v0.88539l-1.2543-0.51647 0.36891 0.66404v0.66404l0.73782 0.88539v0.59026l-0.36891 0.81161 0.36891 0.81161-0.44269 1.9183 1.033 0.14756-0.14757 0.81161 1.1067 1.1805 0.22135 1.6232 0.51648-1.1067 0.22135-1.1067 0.4427-1.4019 1.4756-1.033 0.14757-0.36891-0.36891-0.51648-0.81161-0.14756v-0.66404l0.14756-0.36891 0.22135-0.59026 0.73782-0.22135-0.14756-2.0659-0.66404-0.14756-0.07378-0.66404v-0.73783l0.14757-0.81161-0.29513-0.51648 0.14756-0.95917 0.22135-0.95917v-0.14756l0.29513-0.81161 0.59026-0.14756 0.66404 1.3281-0.07378-0.88539 0.22135-1.1805v-0.59026l0.66404 0.73783v-3.5416h-0.73783l-0.29513 0.95917-0.29513 1.3281 0.07378 0.81161-0.73783 0.14756v-1.3281h-0.44269v-2.0659l0.51648-1.1805 0.66404-0.66404 0.36891-0.22135h0.22135l-0.36891 1.033 0.22135 0.73783 1.033-0.4427 0.88539-1.7708v-0.14757l-1.697-0.88539 0.024224-1.0337-0.83845-0.23956 0.11978-0.95823z" stroke-width=".23537px"/>
  <path d="m45.901 10.387 0.61592-0.16425 0.45168 0.08212h0.45168l0.49274 0.32849v-0.41062l0.32849-0.57486 0.49274-0.08212 0.45168-0.20531 0.49274 0.16425v-0.7391l0.45168 0.04106 0.5338-0.082118-0.08212-0.82123v-0.41062l0.28743-0.32849v-0.41063l-0.28743-0.24637-0.45168 0.36955-0.5338 0.04106-0.20531 0.32849-0.49274-0.082118-0.41062 0.20531-0.32849 0.32849-0.45168 0.12318-0.36955 0.24637-0.20531 0.24637-0.20531 0.16425-0.61592 0.45168-0.41062 0.94442z" stroke-width=".22789px"/>
  <path d="m57.819 22.635 0.75979 0.75978-0.05427 0.59697 0.32562 0.59697 0.05427-0.37989-0.05427-0.27135 0.37989-0.05427 0.21708 0.27135 0.9226-0.32562v-0.10854l0.92259-0.5427-0.10854-0.21708-0.37989-0.37989-0.43416-0.05427-0.43416-0.32562-0.05427 0.5427-0.97687 0.10854z" fill="#85c5e3" stroke="none" stroke-width=".22848px"/>
 </g>
 <g fill="#000000" font-family="sans-serif" font-size="3.5278px" letter-spacing="0px" stroke-width=".26458" word-spacing="0px">
  <text x="40.473972" y="6.0084252" style="line-height:1.25" xml:space="preserve"><tspan x="40.473972" y="6.0084252" font-size="1.0583px" stroke-width=".26458">Jessore sloth bear sanctuary</tspan></text>
  <text x="54.903374" y="26.145832" style="line-height:1.25" xml:space="preserve"><tspan x="54.903374" y="26.145832" font-size="1.0583px" stroke-width=".26458">Dharoi reservoir</tspan></text>
  <text x="75.400681" y="15.688025" style="line-height:1.25" xml:space="preserve"><tspan x="75.400681" y="15.688025" font-size="1.0583px" stroke-width=".26458">Hill forest</tspan></text>
 </g>
</svg>
