<!-- Created with Inkscape (http://www.inkscape.org/) -->
<svg width="123.61mm" height="94.221mm" version="1.1" viewBox="0 0 123.60707 94.220467" xmlns="http://www.w3.org/2000/svg" xmlns:cc="http://creativecommons.org/ns#" xmlns:dc="http://purl.org/dc/elements/1.1/" xmlns:rdf="http://www.w3.org/1999/02/22-rdf-syntax-ns#">
 <metadata>
  <rdf:RDF>
   <cc:Work rdf:about="">
    <dc:format>image/svg+xml</dc:format>
    <dc:type rdf:resource="http://purl.org/dc/dcmitype/StillImage"/>
    <dc:title/>
   </cc:Work>
  </rdf:RDF>
 </metadata>
 <g transform="translate(-51.586 -75.262)" stroke="#fff" stroke-linecap="round" stroke-linejoin="round" stroke-width=".3px">
  <path id="Bhavnagar" d="m151.5 126.18-1.5721-2.1455s-2.023 0.49829-2.1069-0.53407l0.0402-0.82604-0.86806-0.7422s-1.9402 0.66334-3.2217-0.40878l-2.4748 2.3572s1.1166 1.1548 0.4151 1.5687c-0.70159 0.41387-1.9828-0.32776-1.9828-0.32776s-0.90791 0.53803-1.8991 0.45663c-0.99118-0.0814-0.3693 1.8177-1.7728 2.2736l0.16656 1.0735 1.2809 0.53512-0.0402 0.86739-0.74322 0.0422-0.66118-0.32955-1.1548 1.1579-0.94938 0.33153-0.65909 1.3636 1.4868 0.16326-0.16385 0.95013-0.37081 0.6199 0.53803 0.94908-0.66032 0.29008-0.90857 2e-3s0.24928 1.0321 1.1176 1.9396l-2.1473 0.16797-0.32767 2.1066-1.3208 0.5385-0.6576 2.3961s0.9926 1.1137 3.9662 1.3164c0 0 1.6974 3.2604-1.3568 4.751l-1.0316 0.66201-0.36771 3.0565 3.1828 2.226 1.0329 0.45288-0.98921 1.4054 1.1577 1.0723 0.2945 1.0589c0.16561 0.0627 0.35933 0.20538 0.52186 0.0876-1e-3 -0.49535 0.13309-0.29344 0.46556-0.48651 0.28367-0.16487 0.50241-0.36246 0.84737-0.35165 0.3083 9e-3 0.55928 0 0.86758-0.0105 0.29045-0.01 0.54217-0.17924 0.8033-0.30088l-0.0145-0.27907c0.29692-0.025 0.56981 0.0489 0.85921 0.0298-0.11769-0.14081-0.21665-0.31743-0.40474-0.36988 0.11541-0.22108 0.24664-0.45897 0.45992-0.60401 0.18686-0.12727 0.36734-0.087 0.56933-0.16807 0.17568-0.0708 0.57131-0.12953 0.69914-0.24722 0.27034-0.24758 0.32758-0.31149 0.68664-0.33744 0.51605-0.0372 0.43248-0.6998 0.94937-0.80019 0.23206-0.0454 0.4822 0.0445 0.71719 0.0216 0.23874-0.0229 0.3898-0.21762 0.60223-0.25183 0.17943-0.0284 0.68419-0.0149 0.80535-0.14577 0.19608-0.21272 0.29468-0.29647 0.58129-0.36547 0.33922-0.0813 0.41357-0.025 0.60119-0.32701 0.13319-0.21544 0.39431-0.33603 0.61417-0.43605 0.42833-0.19504 0.74078-0.61755 1.1795-0.79952 0.44535-0.1848 0.80113-0.53682 1.2634-0.65779 0.12831-0.39685-0.23198-0.60035-0.4992-0.79727-0.21451-0.15867-0.29412-0.61812-0.42224-0.84926 0.20604 0.12294 0.64735-0.28838 0.64708-0.48201-9e-5 -0.11478-0.0943-0.22842-0.16966-0.3101-0.13264-0.14268-0.14129-0.20754-0.17352-0.40389 0.0893 0.0188 0.2958 0.50061 0.44036 0.25698 0.0965-0.1628 0.32373-0.38397 0.11487-0.5464-0.18997-0.1472-0.24185-0.32015-0.45456-0.43652-0.16732-0.0919-0.40156-0.18649-0.45815-0.38378 0.18706 0.10311 0.4073 0.28988 0.62911 0.29233l0.0421-0.14202 0.17419 0.21788 0.1597-0.0463 0.11317 0.26404c0.34505-0.62178 0.72329-1.0734 1.2002-1.6052 0.38575-0.43098 0.52609-0.97634 0.8563-1.4374 0.19702-0.27371 0.46285-0.43482 0.73421-0.6354 0.26666-0.1958 0.38575-0.43202 0.52553-0.72444 0.119-0.25011 0.31799-0.46565 0.4493-0.71305 0.17718-0.33105 0.20603-0.48435 0.21694-0.86326 0.3101-0.0671 0.52507-1.0439 0.55946-1.3364 0.0605-0.51604 0.0437-1.1477 0.2817-1.6208 0.40514-0.8032 1.5337-1.6939 0.8472-2.6754-0.1817-0.25915-0.23452-0.44986-0.33924-0.74775-0.11975-0.34006-0.21863-0.42466-0.51115-0.6197-0.24748-0.16516-0.23273-0.35964-0.41057-0.57573-0.0941-0.11364-0.18808-0.0759-0.23151-0.22992-0.0264-0.0939-0.037-0.24992-0.10763-0.32128-0.22126-0.22352-0.30501-0.41038-0.30548-0.73005 0-0.24722 0.10574-0.39676 4e-3 -0.65799-0.16882-0.43501-0.54338-0.82923-0.84183-1.188l0.32852-0.33969c0.20322 0.18488 0.4039 0.56246 0.62969 0.67873 0.6761-0.50184 0.55908-1.5657 0.58164-2.2971 0.0108-0.36282-4e-3 -0.69369-0.0474-1.0546-0.0427-0.35059-0.40409-0.59828-0.36612-0.95827l0.0142 0.015 0.0563-0.0452c-0.0871-0.45288-0.22118-0.90866-0.17183-1.3712 0.0302-0.28914 0.0614-0.57931 0.0918-0.86862-0.24092-0.15115-0.48945-0.29016-0.74436-0.41744l-0.23207 0.54311z" fill="#e2b584"/>
  <path id="Gir Somnath" d="m120.61 162.89 0.16337-1.4456 0.94823-1.1989-0.99185-0.57694s-1.4852 1.2408-2.1058 0.25059c-0.62075-0.99025 0.78215-1.942 0.78215-1.942-0.37223-0.41255-0.53907-1.7339-0.53907-1.7339l-0.74351-0.12286-2.0259-1.8146c-1.7776-1.3192-3.4705-1.1105-3.4705-1.1105l-1.6923 0.29139 0.0857 2.4364-2.93 1.6557-0.0392 1.6107s-0.0809 1.239-1.1147 0.24909c-1.0338-0.98969-0.0848-1.6518-0.0848-1.6518s-0.70365-1.2791-1.1166-1.2374l-0.7861-1.1142-1.239-0.0809s-0.332-1.2386-1.4889-1.6913l-1.0722 1.1164-0.70262-0.41216 0.45287-1.0329-0.57882-0.53616-0.86523 1.5704-1.1539 1.8599 0.24937 1.2799-1.4041-0.0808-1.2373 1.2818-0.78534-0.57723-1.1143 0.49705-2.3796 0.49141c0.10377 0.0669 0.20651 0.13752 0.28246 0.22381 0.34271 0.38961 0.67499 0.70873 1.073 1.042 0.39714 0.33312 0.80733 0.63334 1.2289 0.93639 0.31696 0.22813 0.58992 0.51068 0.92764 0.70478 0.1722 0.0985 0.462 0.35569 0.6622 0.36856 0.28293 0.0184 0.42769 0.0238 0.66766 0.16741 0.13075 0.0778 0.338 0.42533 0.46292 0.41678 0.25097-0.0182 0.43615-0.0232 0.68054 0.031-0.15124 0.0436-0.33735 0.056-0.44056 0.18292 0.29459 0.28998 0.60233 0.64406 0.97765 0.83534 0.19852 0.10124 0.34986 0.15839 0.53615 0.29345 0.14673 0.10604 0.37984 0.0738 0.53879 0.15727 0.21638 0.11449 0.25501 0.27784 0.47421 0.40455 0.16279 0.0938 0.36677 0.11044 0.53051 0.20238 0.15134 0.0862 0.2381 0.26376 0.42233 0.30211 0.19373 0.0401 0.34054 0.19776 0.49761 0.3161 0.28453-0.26732 0.46068 0.0557 0.64341 0.27268 0.31544-0.19787 0.41188 0.19589 0.65355 0.28575 0.36677 0.13677 0.61407 0.21074 0.88704 0.48765 0.26028-0.087 0.37307-0.0588 0.64294-0.0158l0.0984-0.17211 0.39017 0.0294 0.0141 0.0611-0.2442 0.12247c0.17314 0.15961 0.50429 0.3491 0.72321 0.26329 0.28829-0.11317 0.2803-0.4713 0.53399-0.61915l0.0424 0.0308c-0.11063 0.21448-0.33397 0.51086-0.18696 0.7654 0.097 0.16713 0.3961 0.31997 0.57488 0.41472 0.35276 0.18657 0.70544 0.3723 1.0582 0.5588 0.19194 0.10123 0.39131 0.26074 0.6122 0.26046 0.12971 0 0.25078-0.10649 0.39272-0.11797 0.10724-9e-3 0.22662 0.0588 0.32447 0.10199 0.2427 0.10697 0.47121 0.25032 0.70263 0.38172 0.1439 0.0816 0.28217 0.15283 0.4336 0.21844 0.10246 0.0441 0.16938 0.18123 0.28133 0.19232 0.15979 0.0148 0.13545 0.11928 0.26432 0.16789 0.0996 0.0375 0.2801 0 0.38914-2e-3l-0.18837-0.27899c0.46021-0.32673 0.7469-0.32147 1.2763-0.15388l-0.0283-0.10621c0.21328-0.13658 0.72838-0.0752 0.77011 0.2114 0.14476 0 0.28951 0 0.43427-2e-3 0.1785 0 0.075-0.11102 0.16609-0.18818 0.2019-0.17137 0.46217-0.26291 0.68043-0.10528 0.29251 0.21112 0.40888 0.0118 0.70883 0.0471 0.24063 0.0288 0.43181 0.33491 0.55354-0.0308 0.28396 0.0598 0.30746 0.0447 0.54405-0.12746-0.0687-0.15123-0.2146-0.19899-0.37157-0.18752l-0.0708-0.21798c0.2567 0.0494 0.21779-0.22681 0.37561-0.34074 0.12398-0.0895 0.23105-0.12445 0.38613-0.12088 0.42863 9e-3 0.82633 0.017 1.2399 0.13762 0.18339 0.0533 0.28923-0.19495 0.43878-0.17352 0.13065 0.0186 0.35727 0.10575 0.47937 0.0266 0.1221-0.0791 0.10744-0.46922 0.25502-0.50324 0.17953-0.0414 0.35615-0.0972 0.54038-0.10688 0.21986-0.0116 0.37702 0.0709 0.58005 0.0809 0.14297 7e-3 0.36189-0.0738 0.51124-0.0889 0.39478-0.039 0.22475-0.64039 0.60252-0.75084 0.35042-0.10199 0.73505-0.0198 1.0958-0.15181 0.34289-0.12539 0.41386-0.43567 0.5573-0.74614 0 0 0.0113-0.0137 0.0196-0.0522-0.0967-0.10789-0.21056-0.29852 8e-3 -0.0951 0-0.0975-0.0204-0.25369-0.0968-0.5009-0.1661-0.53652-1.2416-1.9806-1.2416-1.9806z" fill="#f9d3c6"/>
  <path id="Rajkot and Amreli" d="m134.32 156.88 0.98922-1.4054-1.0329-0.45288-3.1828-2.226 0.36772-3.0565 1.0316-0.66201c3.054-1.4906 1.3568-4.751 1.3568-4.751-2.9737-0.20274-3.9662-1.3164-3.9662-1.3164l0.6576-2.3961 1.3208-0.53849 0.32767-2.1066 2.1473-0.16798c-0.86825-0.90742-1.1176-1.9396-1.1176-1.9396l0.28772-1.1154-1.3633-0.41115-1.7369-1.8149-1.1567-0.24637-0.24975-1.5276-1.0344-1.568 0.99082-0.24908-0.20801-1.1973c-2.1062 0.0441-1.7364-1.4431-1.7364-1.4431l-1.0737 0.0426-0.0833-0.57798c-0.16646-0.99091-1.1165-1.1136-1.1165-1.1136s-0.9081 0.33142-0.65872 1.5289c0.24937 1.1972-1.4855 0.91054-1.4855 0.91054l0.0807-1.4456-1.7346-0.0803-0.0811 1.1976-2.1042 1.4896-1.4862 0.4148-1.1957 1.4471 0.53746 0.4948 1.4864-0.29101 0.0834 0.57808c-0.41151 1.1156-1.9813 0.78722-1.9813 0.78722l-0.12126 2.1063 0.12126-2.1063s1.5697 0.32833 1.9813-0.78722l-0.0834-0.57808-1.4864 0.29101-0.53746-0.4948 1.1957-1.4471 1.4862-0.4148 2.1042-1.4896 0.0811-1.1976 1.7346 0.0803-0.0807 1.4456s1.7349 0.28678 1.4855-0.91054c-0.24938-1.1973 0.65872-1.5289 0.65872-1.5289s0.95011 0.12267 1.1165 1.1136l0.0833 0.57798 1.0737-0.0426 1.9816-0.49817 0.28763-1.198s2.4772-0.54001 0.65637-3.346c0 0-0.41536-1.7753-0.95255-2.105l0.32889-1.1568-0.74435-0.82491-0.65948 1.0747-0.82604-0.0402-0.20848-1.6105-0.61981-0.24693s-0.28744 1.3632-1.4034 0.62122l-0.57722 0.74408-1.5295-1.1956-1.237 1.4882 0.16599 0.61935s3.0146-0.0867 2.5207 1.2768c-0.49375 1.3635-2.6019-0.12041-2.6019-0.12041l-1.8975 1.6955-1.1152-0.0811 1.1956-1.5709-1.5299-1.4847-0.0425-0.94974-0.95021-0.28781-0.57996-1.4035-1.1987-0.86571 0.0812-1.0738 0.61878-0.57892-1.612-1.0304-5.3712-2.0166-0.70131 0.53775 0.24872 0.74303-1.4858 0.70394-0.16383 1.074s-1.6106 2e-3 -2.3568-2.2271l-0.62226-2.1467-0.49611-0.45362 0.2459-1.487-1.1984-0.86569-0.86627 0.7857-0.0807 1.363s-1.0725 0.9925-0.41133 1.2807c0.66117 0.28819 0.74247-0.66174 0.74247-0.66174l0.65967-0.82679s0.24852 0.5778-0.12229 1.2391c-0.37082 0.66126-0.24646 1.074-0.24646 1.074-0.53662 0.16591-1.2789 0.99279-1.2789 0.99279l-0.57939-0.90771-0.45344 0.62009-0.78477-0.12295s0.20548-0.78487-0.0823 0.16533c-0.28782 0.95021-2.0211 1.9023-2.0211 1.9023l0.70318 0.86626 1.6084-1.6953 0.74379 0.28811 1.0736-0.0427 0.0835 0.6606-0.86692 0.24891-0.86739-0.12276c-0.32974 0.49602-0.86627 0.78571 0.66201 1.0315 1.5283 0.24581 0.16684 1.28 0.16684 1.28l-1.3209 0.41471 1.2403 1.072 1.0342 1.3616 1.0324-0.0427 0.91073 1.692c-1.4864 0.29093-1.236 2.2317-1.236 2.2317l0.61972 0.24693-0.12323 0.49574c-1.1977-0.0398-0.78261 1.5703-0.78261 1.5703 0.41367 0.57769 0.53812 0.99034-0.5762 1.5288-1.1143 0.53842-0.9503-0.37033-0.9503-0.37033l0.65976-0.82689-0.33087-0.32992c-0.53738-0.37101-1.1984-0.57667-1.8994 0.25021-0.70103 0.82679-2.1474 0.0441-3.1388-0.20237-0.99147-0.24646-1.0314 0.82716-1.0314 0.82716l-0.825 0.74444-1.0325-0.04-0.24618 1.2393-1.7345-0.0391 0.33114 0.61915c0.0833 0.57798 0.16713 1.4864-0.41058 1.8175-0.5777 0.33115-0.66117-0.32946-0.82725-1.0313-0.16608-0.70187-0.86806-0.6184-0.86806-0.6184l-0.12144 1.9411s-1.2801 2e-3 -1.237 1.4882c0.0431 1.4867-2.1456 1.4483-2.1456 1.4483l1.4479 1.9803-0.0574 0.0648 0.5543 0.88431 1.1981 0.41142 0.57958 1.073s-1.4445 0.66268-0.65891 1.405c0.78562 0.74229 2.4359-0.49883 2.4359-0.49883s1.322 0.41132 1.6948 1.1954l-0.57696 0.99203 0.33219 1.3623 1.3194-1.6123s2.1469-0.41566 2.3931-1.6962c0.24618-1.2806 2.2695-1.4483 2.2695-1.4483l0.41396 0.78403s1.7744-1.076 2.6417-0.99448l0.0851 1.8996s0.66022-0.41387 1.1971-0.41453c0.5368-2e-3 1.5692-0.0847 1.8578-0.49799 0 0 1.1566 0.24619 1.4464 0.82407l0.29006 0.74294 0.90764-0.70318 0.24598-1.4043 0.78402-0.45532 0.24571-1.2394-0.78514-0.4119 0.74228-0.78551 2.6846 0.20294 0.32898-1.1154s3.5969 3.134 4.5846 0.48962c-0.98771 2.6443-4.5846-0.48962-4.5846-0.48962l-0.32898 1.1154-2.6846-0.20294-0.74228 0.78551 0.78514 0.4119-0.24571 1.2394 1.0332 0.61803s2.0252 1.2777 2.896 3.9609l-1.1143 0.53831-1.4037 0.33218 0.0419 0.49545 0.90997 1.0727 2.6845 0.0378 0.0839 1.0736s0.99185 0.49432 0.49714 1.197c-0.49469 0.70272-1.7761-0.24551-1.7761-0.24551l-0.2897-0.41265-0.66032 0.33124s0.41442 1.1143 0.41471 1.321c2.6e-4 0.2065 0.043 1.3629 0.043 1.3629l1.6512-0.53907 0.53803 0.94917-1.1146 0.29063-0.57675 1.1157-1.7344 0.0848s-0.99062 0.41415-0.3695 1.6936l0.95161 1.403 1.6923-0.29139s1.6929-0.20876 3.4705 1.1105l2.0259 1.8146 0.7435 0.12286s0.16685 1.3214 0.53908 1.7339c0 0-1.4029 0.95171-0.78214 1.942 0.62074 0.99027 2.1058-0.2506 2.1058-0.2506l0.99186 0.57696-0.94824 1.1989-0.16336 1.4456s1.0756 1.4441 1.2415 1.9806c0.0764 0.24721 0.0967 0.40343 0.0968 0.50091 0.0402 0.0374 0.0914 0.0877 0.15622 0.15462 0.10029 9e-3 0.19137 0.0137 0.29985-0.0548 0.0986-0.0622 0.18423 0.0252 0.29589-0.0538 0.0912-0.065 0.18508-0.16008 0.2959-0.1847 0.24335-0.0557 0.44526-0.25153 0.6858-0.2913 0.0913-0.0153 0.21507-0.15161 0.26112-0.14889 0.14569 8e-3 0.29044 0.0156 0.43614 0.0238 0.44094 0.0248 0.77284-0.64773 1.2504-0.67094 0.219-0.0106 0.41246-0.12361 0.62769-0.14936 0.27814-0.0332 0.55637-0.0674 0.83451-0.10059 0.0253-0.19278 0.0993-0.36394-0.11806-0.46612 0.17163-0.25397 0.56106-0.1408 0.48802 0.1864 0.0873-0.0659 0.28641-0.27014 0.40954-0.19881 0.16563 0.0956 0.27438-0.0267 0.45391-0.0504 0.0875-0.0113 0.11383 0.0526 0.24824 0.011 0.10998-0.034 0.2208-0.067 0.33078-0.10105 0.12022-0.0368 0.19711-0.25596 0.3239-0.25605 0.35625-2e-3 0.78563-0.16731 0.94212-0.50128 0.119-0.25585 0.41857-0.49394 0.0498-0.71728 0.35616-0.0352 0.6092-0.58729 0.80725-0.8423 0.15387-0.19853 0.65712-0.62967 0.82876-0.24449-0.0715 0.0565-0.0883 0.12982-0.0562 0.21798 0.16638-0.0791 0.47975-0.37081 0.63588-0.371 0.10904 0 0.2192 0.0993 0.32165 0.0907 0.0545-5e-3 0.22446-0.12342 0.29497-0.14326 0.10047-0.0284 0.12105-0.13083 0.2348-0.15442 0.12313-0.0255 0.30069-0.0258 0.39835-0.1096 0.13611-0.11769 0.20576-0.1065 0.38707-0.11609 0.0855-4e-3 0.17267-0.21168 0.21864-0.28039l0.24467 0.18771c0.12107-0.11947 0.27428-0.14043 0.4322-0.18283-0.20698-0.29467-0.19673-0.67836 0.27202-0.69866-0.1846-0.52244-0.0216-0.54105 0.0372-0.0215 0.1315-0.0426 0.37645-0.15979 0.48775-0.11844l-0.2945-1.0589z" fill="#c2b0c2"/>
  <path id="Botad" d="m139.34 113.85-1.1564-0.12239-0.78572-0.78364s-1.2805-0.28743-2.354-0.12088c-1.0735 0.16657-1.1126 1.9011-1.1126 1.9011l-0.86805-0.6183-0.28752 1.2392-1.199-1.1135-1.402 1.7364-1.1563 0.084-0.45268 1.1157 0.74435 0.82491-0.32889 1.1568c0.53719 0.32964 0.95255 2.105 0.95255 2.105 1.8207 2.806-0.65636 3.346-0.65636 3.346l-0.28764 1.198-1.9816 0.49817s-0.36987 1.4871 1.7364 1.4431l0.20801 1.1973-0.99081 0.24909 1.0344 1.568 0.24975 1.5276 1.1567 0.24637 1.7369 1.8149 1.3633 0.41116-0.28773 1.1154 0.90857-2e-3 0.66033-0.29007-0.53804-0.94908 0.37082-0.6199 0.16383-0.95011-1.4868-0.16328 0.6591-1.3636 0.94935-0.33151 1.1548-1.1579 0.66117 0.32955 0.74323-0.0422 0.0402-0.86739-1.2809-0.53512-0.16656-1.0735c1.4036-0.45598 0.78157-2.355 1.7728-2.2736 0.99119 0.0814 1.8991-0.45663 1.8991-0.45663s1.2812 0.74173 1.9828 0.32777c0.70148-0.41387-0.4151-1.5687-0.4151-1.5687l2.4748-2.3572c1.2816 1.072 3.2218 0.40878 3.2218 0.40878l0.86804 0.7422 0.70187-0.16618s1.6112 0.41094 2.2291-0.7874c0.61793-1.1984-1.2405-1.2374-1.2405-1.2374l0.41114-1.4046c-1.0758-1.609-3.7187-1.4404-3.7187-1.4404l-2.52-0.61623-1.858 0.29157-0.65967 0.86806c-0.66126-0.41217-0.41358-0.49508 0.039-1.7346 0.45249-1.2396-0.4149-1.5687-0.4149-1.5687l0.4117-0.90893-0.37325-1.1972-1.3214 0.0842z" fill="#cc2"/>
  <path id="Surendranagar" d="m143.51 76.326-1.9807 0.90349-0.49358 1.487s-1.0338 1.668-2.3863 0.76879 0.22343-1.4417 0.22343-1.4417-2e-3 -0.85583-1.1277-1.1697c-1.1265-0.31385-4.9106-0.66933-4.9106-0.66933l-2.0715 0.67807 0.67631 0.49462 1.759 1.7545-0.35794 1.8472s1.9362-0.58794 1.8945 2.1146l0.85583 0.0889s-2.4293 2.3454-0.49104 3.4239c1.9382 1.0785 2.1178 0.62789 2.1178 0.62789l-0.22381 1.1714-2.5688-1.0777-0.67424 1.0369s-1.5764 0.13714-2.2978-0.4024c0 0-2.8366 0.99466-4.9552-0.30887l-1.5776-0.80875-0.98112 0.17607s0.37289 0.94935 1.7362 1.4019c0 0 2e-3 1.4868-1.4428 1.9842l-0.12173 1.652s1.0337 0.90715 0.20906 1.9406c0 0 1e-3 0.78469-0.78186 2.1898-0.78281 1.4051-0.94674 2.3552-0.94674 2.3552s-1.8986 0.82838-2.6856-0.98772l-0.78486-0.16421 0.084 1.0736-1.1562 0.12539s0.74426 0.70111 0.95341 2.7244c0.20914 2.0233 0.99325 1.6506 0.99325 1.6506l-1.0714 1.8598-0.90809 0.33152-0.16252 2.0238-0.90735 0.90979 0.66183 0.825 1.1962-1.0752 1.2825 1.7328-1.0728 0.70337-1.3182 2.5208-1.0754-1.3201-1.2391-0.081-0.82501 0.74444 1.6119 1.0304-0.61877 0.57892-0.0812 1.0738 1.1987 0.8657 0.57996 1.4035 0.95021 0.28782 0.0425 0.94974 1.5299 1.4847-1.1956 1.5709 1.1152 0.0811 1.8975-1.6955s2.1081 1.4839 2.6019 0.12041c0.49384-1.3635-2.5207-1.2768-2.5207-1.2768l-0.16599-0.61934 1.237-1.4882 1.5295 1.1956 0.57722-0.74407c1.1159 0.74191 1.4034-0.62122 1.4034-0.62122l0.6198 0.24693 0.20848 1.6104 0.82604 0.0402 0.65948-1.0747 0.45268-1.1158 1.1563-0.084 1.402-1.7364 1.199 1.1135 0.28753-1.2392 0.86805 0.61831s0.039-1.7345 1.1126-1.9011c1.0734-0.16656 2.354 0.12088 2.354 0.12088l0.7857 0.78365 1.1564 0.12238 0.20529-0.99138 1.3214-0.0842 1.0274-0.13545 0.99016-0.63184 0.76747 1.3954 0.72011-0.49639s-0.90303-1.7106 0.44723-2.4779l-0.18122-0.76551s-1.0802 0.58691-1.2169-0.584c-0.13659-1.1709 1.1244-1.3978 1.1244-1.3978l0.49657 0.99034 1.6669 0.26808 1.1293 2.4309s1.6714 0.75704 2.5662-1.0393l0.0898-0.18027s-0.67771-1.7108 1.3486-2.254c0 0-0.76738-1.1702-2.0742-1.709-1.3069-0.53879-2.9763-2.6987-2.9763-2.6987l0.94514-0.63184s1.173 1.5299 1.3964 0.13328c0.22344-1.3966-0.81269-1.5305-0.81269-1.5305s-0.90217-0.89963-0.85819-1.7556c0.044-0.85584-0.54301-1.9813-0.54301-1.9813s-0.22277 1.8921-0.99034 0.49676c-0.76747-1.3953-4e-3 -2.7026-4e-3 -2.7026s-0.63194-1.1253 0.40287-2.0275c1.0348-0.90217 0.0898-0.18028 0.0898-0.18028l-0.0931-2.4322-1.0361-0.17887-1.0796 1.1726-0.1817-1.1259s-1.4859 0.36226-1.1745-2.611c0.3114-2.9733 2.6095-2.3457 2.6095-2.3457l0.2238-1.1264-1.2161 0.0917-0.76663-0.71963-0.81062 0.13619-0.26864 1.2615-0.81072 0.046 0.13169-2.6578 0.53925-0.99165-0.63249-1.3956 0.35991-0.36076 2.1169-0.0929 0.35745-2.2076 0.89908-1.3074-0.81212-1.1252z" fill="#a0c2a0"/>
  <path id="Porbandar" d="m83.468 149.15 0.0398-1.115s-0.70262-0.45335-0.9097-0.9487c-0.20706-0.49546 0.24646-0.99147 0.74191-1.0748 0.49546-0.0833 0.49424-1.033 0.49424-1.033l0.94936-0.41414s0.90894 0.32917 1.115-0.0428c0.28086-0.5071-0.99269-1.155-1.323-1.1546-0.33039 0-0.57882-0.49488-0.49751-1.5686 0.0813-1.0737-0.9111-2.0225-0.9111-2.0225l0.41226-0.53728 1.0329 0.4116s0.57808-0.0834 1.3217 0.0809c0.7435 0.16421 0.66041-0.29007 0.66041-0.29007l-0.74417-0.65976 0.74229-0.78561 1.0735-0.1253 0.24645-1.0327 0.65994-0.57901-1.1981-0.41141-0.5543-0.88432-0.60233 0.67949s0.8251-0.62065-0.20614 0.24796c-1.0313 0.86862-1.3235-1.5262-1.3235-1.5262l-0.2505-2.0646-3.0544 1.2429-1.1153-0.16375-0.0405 0.61954c-0.12285 0.78486-0.57686 0.99185-1.4035 0.53869-0.8265-0.45316-0.20793-1.1149-0.20793-1.1149l0.1221-1.4041s-0.37157 0.12427-1.6107-0.0805c-1.2392-0.2048-0.70216-0.0817-1.4445 0.66269-0.74238 0.74425-0.95068-0.65958-0.95068-0.65958l-0.74322 0.0423-0.33115-0.5778c-0.53785-0.74257-0.82453 1.0749-0.82453 1.0749l-0.53682 2e-3 0.0395-1.4041c0.12295-0.70224 0.1643-0.70233 0.99006-0.86843 0.82575-0.16628 0.86551-1.3226 0.86551-1.3226l0.53691 0.0406 0.98997-0.86852s0.37091-0.57855-0.16657-1.0734c-0.53746-0.49498-1.8577 0.53927-1.8577 0.53927l-0.0402 0.82584-0.70139 0.45523s-0.37232-0.53635-0.78581-0.90744c-0.41348-0.3711-0.99157-0.32918-1.6106 2e-3 -0.61905 0.33123-0.61764 1.4462-0.61764 1.4462s-0.41293 0.0418-0.86731-0.0402c-0.45438-0.0821-0.66014 0.45513-0.66014 0.45513s-0.12276 0.86739-0.53549 1.0745c-0.41275 0.20683-1.6532-1.0717-1.6532-1.0717l-0.70243-0.2882-0.24712 0.45457 0.0627 0.74661c0.12398-7e-3 0.24252 0.0176 0.32814 0.10584-0.29656 0.3069-0.31235 0.45918-0.38332 0.88318l-0.24467-0.21779c-0.055 0.29807 0.4399 0.72885 0.65544 0.9269 0.30014 0.27513 0.54414 0.5934 0.83957 0.87406 0.5948 0.56512 1.2167 1.0408 1.881 1.5222 0.32456 0.23546 0.58174 0.66567 0.84154 0.97078 0.21845 0.25728 0.48183 0.45711 0.74154 0.67123 0.32748 0.26921 0.58634 0.55289 0.8688 0.87117 0.18922 0.21318 0.46707 0.65176 0.78383 0.67573 0.23001-0.18931 0.0254-0.66841 0.4823-0.58344 0.10188 0.28378-0.29083 0.40174-0.15425 0.63373 0.20585 0.0317 0.28292 0.0269 0.42222 0.17718 0.33322 0.35849 0.58946 0.78129 0.93112 1.1324 0.44996 0.46189 0.90078 0.92192 1.3488 1.3847 0.83863 0.86749 1.6547 1.7115 2.3871 2.6691 0.10368 0.13525 0.39054 0.32108 0.44431 0.43942 0.10838 0.24138 0.19786 0.36913 0.37571 0.56351 0.36902 0.40371 0.73617 0.79991 1.075 1.2281 0.67338 0.85133 1.4135 1.6618 2.0569 2.5351 0.15669 0.0434 0.24307 0.10377 0.14052 0.18705 0 0 0.091-0.027 0.062 0.0309-6e-3 0.013-0.0122 0.0262-0.0187 0.0393 0.59367 0.83299 1.3293 1.561 1.9825 2.355 0.15763 0.19175 0.31451 0.38605 0.47204 0.58053l1.3008-1.44z" fill="#e2b584"/>
  <path id="Junagadh" d="m95.125 158.13 0.78535 0.57724 1.2373-1.2818 1.4041 0.0808-0.24937-1.2799 1.1539-1.8599 0.86523-1.5704 0.57883 0.53614-0.45288 1.0329 0.70262 0.41217 1.0722-1.1164c1.1569 0.45268 1.4889 1.6913 1.4889 1.6913l1.239 0.0809 0.78609 1.1142c0.41293-0.0418 1.1166 1.2374 1.1166 1.2374s-0.94898 0.66211 0.0848 1.6518c1.0338 0.98978 1.1147-0.24909 1.1147-0.24909l0.0392-1.6107 2.93-1.6557-0.0857-2.4364-0.95161-1.403c-0.62113-1.2794 0.36949-1.6936 0.36949-1.6936l1.7344-0.0848 0.57676-1.1157 1.1146-0.29065-0.53803-0.94917-1.6512 0.53908s-0.0428-1.1564-0.043-1.3629c-1.9e-4 -0.20652-0.41472-1.3209-0.41472-1.3209l0.66033-0.33124 0.2897 0.41264s1.2814 0.94823 1.7761 0.24552c0.49469-0.70271-0.49715-1.197-0.49715-1.197l-0.0839-1.0736-2.6845-0.0378-0.90997-1.0727-0.0419-0.49545 1.4037-0.33218 1.1143-0.53831c-0.87077-2.6832-2.896-3.961-2.896-3.961l-1.0332-0.61801-0.78402 0.45531-0.24599 1.4043-0.90762 0.70318-0.29007-0.74293c-0.28979-0.5778-1.4464-0.82407-1.4464-0.82407-0.28848 0.4132-1.3208 0.49724-1.8578 0.498-0.53682 2e-3 -1.1971 0.41451-1.1971 0.41451l-0.0851-1.8996c-0.86739-0.0815-2.6417 0.99447-2.6417 0.99447l-0.41396-0.78401s-2.0233 0.16769-2.2695 1.4483c-0.24618 1.2805-2.3931 1.6962-2.3931 1.6962l-1.3194 1.6123-0.33218-1.3623 0.57695-0.99204c-0.3727-0.7841-1.6948-1.1954-1.6948-1.1954s-1.6503 1.2411-2.4359 0.49883c-0.78563-0.74229 0.65891-1.405 0.65891-1.405l-0.57958-1.073-0.65996 0.57902-0.24645 1.0326-1.0735 0.1253-0.74228 0.78561 0.74416 0.65975s0.0831 0.45429-0.66041 0.29008c-0.7436-0.1643-1.3217-0.0809-1.3217-0.0809l-1.0329-0.41162-0.41226 0.53729s0.99241 0.9487 0.9111 2.0225c-0.0813 1.0738 0.16722 1.569 0.49752 1.5686 0.3304-2e-3 1.6039 0.64753 1.323 1.1546-0.20604 0.37194-1.115 0.0427-1.115 0.0427l-0.94936 0.41416s1e-3 0.94973-0.49424 1.033c-0.49544 0.0833-0.94897 0.57929-0.7419 1.0748 0.20708 0.49535 0.9097 0.9487 0.9097 0.9487l-0.0398 1.115 1.4877 0.74143-1.3008 1.44c0.53324 0.65787 1.0752 1.3183 1.6883 1.8937l0.0563-0.0763 0.0988 0.0761c-0.0729 0.27259 0.63278 0.84794 0.80404 1.0245 0.15068 0.15473 0.31527 0.28246 0.48464 0.41753 0.1769 0.14072 0.21469 0.26019 0.35212 0.43201 0.26742 0.33331 0.70197 0.57902 1.0116 0.87943 0.0696 0.0676 0.33416 0.38576 0.42722 0.37165 0.24335-0.0379 0.37015-0.11157 0.52092 0.11571l-0.0986 0.14119c-0.0725-0.0581-0.14758-0.0685-0.21619-0.0148 0.73223 0.67677 1.4813 1.3338 2.16 2.0642 0.097 0.10424 0.19298 0.20858 0.28989 0.31262 0.0349 0.0376 0.13347-0.0218 0.18715 0.0176 0.065 0.0474 0.13799 0.0925 0.21045 0.1393l2.3796-0.49141z" fill="#cc2"/>
  <path id="Devbhoomi Dwarka" d="m65.519 129.48 0.70243 0.2882s1.2406 1.2786 1.6532 1.0716c0.41273-0.20707 0.53549-1.0745 0.53549-1.0745s0.20576-0.53719 0.66014-0.45514c0.45437 0.082 0.8673 0.0402 0.8673 0.0402s-1e-3 -1.1149 0.61764-1.4462c0.61897-0.33124 1.1971-0.37325 1.6106-2e-3 0.41339 0.37111 0.78581 0.90744 0.78581 0.90744l0.70139-0.45523 0.0402-0.82584s1.3202-1.0343 1.8577-0.53926c0.53748 0.49489 0.16656 1.0734 0.16656 1.0734l-0.98996 0.86852-0.5369-0.0406s-0.0398 1.1564-0.86552 1.3226c-0.82576 0.16617-0.86711 0.16627-0.99007 0.86843l-0.0394 1.4041 0.53681-2e-3s0.28678-1.8175 0.82453-1.075l0.33115 0.57779 0.74322-0.0423s0.2083 1.4038 0.95067 0.65957c0.74238-0.74435 0.20548-0.86748 1.4445-0.66267 1.2392 0.20492 1.6107 0.0805 1.6107 0.0805l1.8995-0.16768s0.90809-0.29036 0.45326-0.78525l-1.1983-0.49404s-0.12595-1.5691-0.37495-2.4773c-0.24889-0.90829-0.62234-2.2706-0.62281-2.6836 0 0-0.82661-0.53567-0.99241-0.98978l-0.70224-0.16429s-0.29176-2.0231 0.57638-1.3635c0 0 0.66108 0.24693 1.0318-0.53822 0 0-0.37401-1.7754-0.25144-2.808 0 0-0.20773-0.94955-0.95105-0.9485-0.74332 2e-3 -0.74491-1.1967-0.74491-1.1967l-0.49733-1.3622 0.45315-0.86766-0.5385-1.2383-0.49912-2.725s0.2286-0.67235 0.14522-1.2504c-0.10669 0.35174-0.15077 0.39497-0.46171 0.59096-0.092 0.0583-0.24372 0.49563-0.20321 0.60467 0.1236 0.32795-0.68749 1.1053-0.17577 1.397l-0.0564 0.0763c-0.41274-0.11891-0.68063-0.12793-1.0036 0.20435-0.16336 0.16843-0.23 0.2644-0.3162 0.48172-0.0515 0.13066 0.0963 0.28087 0.0447 0.43032-0.0751 0.0228-0.15218 0.0332-0.2302 0.0313l-0.0138 0.21806c-0.13818-4e-3 -0.1957-0.12848-0.31507-0.18667-0.12793-0.0618-0.24354-0.0438-0.38943-0.13677-0.16704 0.17136-0.021 0.40711-0.0696 0.62329l-0.0564 0.0161-0.12718-0.15678-0.14551 0.12144-0.18828-0.24881-0.51499 0.71597c-0.22014-0.0984-0.35644-0.11515-0.19589-0.33999 0.11731-0.16562 0.23546-0.32927 0.35456-0.493-0.10274-0.20754-0.37608-0.11609-0.51642-0.33961-0.18226 0.065-0.22616 0.32466-0.44516 0.29478-0.1472-0.3758-0.2976-0.41322-0.65789-0.60168l0.50195 0.0294c0.0323-0.45784 0.0229-0.44647-0.4041-0.61802l0.0281-0.0611 0.25849-2.7e-4c-0.0603-0.14092-0.19392-0.22815-0.32654-0.29752-0.20595-0.10687-0.1112-0.23197-0.25238-0.33895-0.37918-0.28903-0.3962-0.38961-0.79821-0.13723l0.30125 0.33894c-0.21873 0.22775 0.2193 0.93499 0.11919 1.2772-0.67959 5.3e-4 -0.86993 0.31884-1.0299 0.93667-0.0618 0.23791-0.26554 0.38567-0.50418 0.43023-0.37684 0.0699-0.38238 0.15744-0.49095 0.5166-0.12896-0.14834 0.0118-0.37128-0.0712-0.55261-0.35436-0.041-0.38416 0.18753-0.68861 0.30634-0.31282 0.12276-0.43868 0.16046-0.76681 0.13075-0.44366-0.0398-1.2603 0.10509-1.5288-0.2912-0.15688 0.0377-0.69086 0.0206-0.74614 0.13818 0.27194 0.16129 0.0226 0.72273-0.24815 0.71004 0.0275 0.20388-0.0861 0.25953-0.22973 0.36498-0.0554 0.0396-0.1362 0.12521-0.20189 0.14691-0.0592 0.0189-0.16459-0.0787-0.21619-0.0334-0.3305 0.28791-0.44508 0.41133-0.87266 0.45983-0.71145 0.0808-1.1544 0.67357-1.9236 0.3681-0.59809-0.23791-1.1712-0.77764-1.4652-1.3384-0.1941-0.3711 0.0096-0.609 0.18114-0.94023 0.06748-0.13075-0.0079-0.28951 0.04642-0.41745 0.04974-0.11937 0.24881-0.24843 0.34178-0.34063-0.2679 0.0634-0.30935-0.0551-0.25323-0.27419 0.014-0.0545 0.19683-0.42139 0.22315-0.44113 0.17277-0.13281 0.19232-0.26712 0.40184-0.3567 0.20858-0.0886 0.06542-0.26423 0.24101-0.39319-0.13846-0.20379-0.23358-0.40296-0.31565-0.6341-0.30925 0.022-0.42298 0.0241-0.66802 0.20952-0.19062 0.14409-0.39732 0.22323-0.61624 0.32042-0.46594 0.20548-0.81297 0.0443-1.2175-0.18742-0.34656 0.22793-0.3131 0.67631-0.84991 0.57826-0.36386-0.0662-0.98902-0.18667-1.1127-0.59819-0.0642-0.21336-0.0608-0.47562-0.0282-0.69651 0.03913-0.26695 0.16318-0.27936 0.42994-0.42354 0.34469-0.18564 0.53596-0.61916 0.72828-0.93715-0.32297-0.4179-0.77424 0.20877-1.0693 0.3444-0.4884 0.22532-0.88178 0.57638-1.3082 0.905-0.35314 0.27212-0.59602 0.65496-0.81926 1.0331-0.21009 0.35558-0.65421 0.76973-0.7561 1.1657-0.05518 0.21346 0.0064 0.51499-0.03855 0.75009-0.05415 0.28302-0.26385 0.24851-0.4055 0.42627-0.24308 0.30492-0.17549 0.98348-0.04252 1.3114 0.18291 0.45089 0.34609 0.8718 0.46228 1.3435 0.06234 0.25002 0.03638 0.49724 0.33153 0.51567 0.17765 0.01 0.47016 0.15443 0.40936 0.36131l-0.18809-0.0598c-0.04002 0.30924 0.5416 0.84992 0.74773 1.078 0.26732 0.29487 0.61727 0.53785 0.86119 0.84954 0.60251 0.76918 1.1798 1.5523 1.8537 2.2592 0.62122 0.65055 1.141 1.3896 1.7191 2.0835 0.29938 0.35963 0.5903 0.71363 0.9206 1.046 0.26075 0.26282 0.49622 0.64229 0.82256 0.81205l0.14541-0.21828-0.16017-0.27803c0.07802-0.0631 0.1644-0.0725 0.25755-0.0312-0.08723 0.16176 0.06805 0.31291 0.16036 0.44628l-0.04213 0.0912-0.14588-0.076c-0.20369 0.24974 0.29421 0.79416 0.59603 1.1194 0.11731 0.0707 0.19974 0.13413 0.21149 0.17756-0.01119 7e-3 -0.02225 0.0137-0.03337 0.0204l0.0013 2e-3 -0.01234 8e-3c0.05224 0.0384 0.09438 0.0841 0.12878 0.13515 0.34337 0.35757 0.68664 0.71354 1.047 1.0547 0.382 0.36236 0.86551 0.62677 1.2326 0.99101 0.41886 0.41592 0.81703 0.84304 1.2143 1.2796 0.47064 0.51831 0.77068-0.10997 1.0174-0.4836l-0.0627-0.7466z" fill="#f9d3c6"/>
  <path id="Morbi" d="m98.929 97.546 0.82632 0.288 0.49723 1.2796s1.0326 0.0811 1.3238 1.7327l0.29035 1.0321s1.3232 1.2786 1.0771 2.6417l-0.82567 0.2488 0.53888 1.2382 1.1984 0.8657-0.2459 1.487 0.49612 0.45363 0.62225 2.1467c0.74614 2.229 2.3568 2.2271 2.3568 2.2271l0.16383-1.074 1.4858-0.70393-0.24872-0.74305 0.70131-0.53775 5.3712 2.0166 0.825-0.74444 1.2391 0.081 1.0754 1.3201 1.3182-2.5208 1.0728-0.70338-1.2825-1.7328-1.1962 1.0752-0.66182-0.825 0.90734-0.90978 0.16252-2.0238 0.9081-0.33153 1.0714-1.8598s-0.78411 0.37269-0.99326-1.6506c-0.20915-2.0233-0.9534-2.7244-0.9534-2.7244l1.1562-0.12538-0.084-1.0736 0.78486 0.16421c0.78702 1.816 2.6856 0.98772 2.6856 0.98772s0.16393-0.95002 0.94674-2.3552c0.78289-1.4051 0.78185-2.1898 0.78185-2.1898 0.82463-1.0335-0.20905-1.9407-0.20905-1.9407l0.12173-1.652c1.4447-0.49742 1.4428-1.9842 1.4428-1.9842-1.3633-0.45251-1.7362-1.4019-1.7362-1.4019l-2.1048 1.1178-0.91064-1.6094-1.2386 0.24938-1.1576-0.94832-2.2284 1.3244-2.3955-0.20341-1.9814 0.66332c-1.5682 0.86928-4.4193-0.36602-4.4193-0.36602s-0.95011-0.24655-1.858 0.29158c-0.90791 0.53804-2.3537 0.20952-2.3537 0.20952l-1.5692 0.0846-1.651 0.74548-0.6998 0.95622c0.20623 0.28368 0.19505 0.35419 0.16252 0.70478-0.0185 0.19268-0.0944 0.40334-0.16468 0.5839-0.18668 0.47815-0.34591 0.86542-0.62817 1.2735 0.25453 6.35e-4 0.18996 0.0327 0.0711 0.17943-0.20021 0.26968-0.35634 0.5558-0.41293 0.73279 0.13366 0.20473-0.22964 0.53794-0.37514 0.66399l0.0566 0.15688c-0.22916 0.0728-0.50748 0.043-0.61906 0.28002-0.0871 0.18433-0.084 0.4776-0.16365 0.68438-0.1003 0.25858-0.79981 0.86204-1.0557 0.6763l1.1959 0.95753z" fill="#00a7d7"/>
  <path id="Jamnagar" d="m75.779 111.21 0.49912 2.725 0.5385 1.2383-0.45315 0.86767 0.49733 1.3622s2e-3 1.1976 0.74492 1.1967c0.74333-2e-3 0.95105 0.94852 0.95105 0.94852-0.12257 1.0326 0.25144 2.808 0.25144 2.808-0.37062 0.78514-1.0318 0.53823-1.0318 0.53823-0.86815-0.65968-0.57639 1.3635-0.57639 1.3635l0.70224 0.1643c0.16581 0.45411 0.99241 0.98978 0.99241 0.98978 2.6e-4 0.41302 0.37401 1.7753 0.62282 2.6836 0.2489 0.90819 0.37495 2.4773 0.37495 2.4773l1.1983 0.49405c0.45486 0.49488-0.45326 0.78524-0.45326 0.78524l-1.8995 0.16768-0.1221 1.4041s-0.61858 0.66173 0.20793 1.1149c0.8265 0.45307 1.2806 0.24609 1.4035-0.53868l0.0405-0.61954 1.1153 0.16374 3.0544-1.2429 0.2505 2.0646s0.29213 2.395 1.3235 1.5262c1.0312-0.86852 0.20614-0.24796 0.20614-0.24796l0.60233-0.6795-0.0665-0.10603 0.0665 0.10603 0.0574-0.0648-1.4479-1.9803s2.1887 0.0384 2.1456-1.4483c-0.0431-1.4866 1.237-1.4882 1.237-1.4882l0.12145-1.9411s0.70197-0.0835 0.86805 0.61841c0.16609 0.70187 0.24956 1.3625 0.82727 1.0313 0.5777-0.33106 0.49385-1.2396 0.41057-1.8175l-0.33114-0.61915 1.7345 0.0392 0.24618-1.2392 1.0325 0.04 0.825-0.74446s0.04-1.0736 1.0314-0.82716c0.99147 0.24647 2.4378 1.0292 3.1388 0.20237 0.70102-0.82688 1.3619-0.62122 1.8994-0.25021l0.33087 0.32992-0.65976 0.82688s-0.16402 0.90876 0.9503 0.37034c1.1143-0.5384 0.98987-0.95105 0.5762-1.5288 0 0-0.41509-1.6101 0.78261-1.5703l0.12323-0.49574-0.61971-0.24692s-0.25032-1.9408 1.236-2.2317l-0.91072-1.692-1.0324 0.0427-1.0342-1.3615-1.2403-1.072 1.3209-0.41471s1.3615-1.0342-0.16684-1.28c-1.5283-0.2458-0.99175-0.5355-0.66201-1.0315l0.86739 0.12277 0.86693-0.24891-0.0835-0.6606-1.0736 0.0427-0.74379-0.28811-1.6084 1.6953-0.70319-0.86626s1.7333-0.95209 2.0211-1.9023c0.28782-0.95021 0.0823-0.16534 0.0823-0.16534l0.78477 0.12294 0.45344-0.62008 0.57939 0.90772s0.7422-0.82688 1.2789-0.99279c0 0-0.12444-0.41274 0.24646-1.074 0.37082-0.66125 0.12229-1.2391 0.12229-1.2391l-0.65967 0.8268s-0.0813 0.94993-0.74247 0.66172c-0.66117-0.28818 0.41133-1.2807 0.41133-1.2807l0.0807-1.363 0.86627-0.78571-0.53888-1.2382 0.82567-0.2488c0.24607-1.3632-1.0771-2.6417-1.0771-2.6417l-0.29036-1.0321c-0.29118-1.6516-1.3237-1.7328-1.3237-1.7328l-0.49723-1.2796-0.82633-0.28801-1.4882-1.1131-1.1959-0.95753c-0.79041 0.82246-1.2711 1.9446-1.8179 2.9294-0.14908 0.26911-0.4588 0.62751-0.45833 0.94052 2.7e-4 0.28857-0.18452 0.5558-0.13714 0.83206 0.0569 0.33274-0.14033 0.53596-0.32137 0.79285-0.0825 0.11571-0.12473 0.23141-0.26188 0.26826-0.14278 0.0387-0.2678 0.0304-0.30991 0.19026l-0.0846 9e-5 -0.0562 0.12134c-0.23123-0.0214-0.36498-0.19127-0.60561-0.15151-0.1331 0.31789-0.0595 0.47195 0.13263 0.74519l-0.0844 0.13734c-0.11552-0.0158-0.35352-0.11327-0.39366 0.0512-0.0412 0.16638-0.12276 0.31601 9e-3 0.46151 0.23875-0.036 0.50457-0.12097 0.74623-0.0772l0.0284 0.14193c-0.30831 0.022-0.45682 0.0654-0.73204 0.18424-0.0618 0.21244 0.0644 0.40409-0.0134 0.60523-0.0759 0.19561-0.20068 0.36781-0.31038 0.5466-0.14156 0.23142-0.21337 0.78693-0.56115 0.7545l-0.14522 0.34046-0.2726-0.0148c-0.0572 0.15988 0.0745 0.25463-0.0136 0.40794-0.0798 0.14015-0.11533 0.24646-0.15933 0.39967-0.043 0.14945-0.0578 0.37711-0.15632 0.49837-0.0666 0.0809-0.26582 0.17333-0.28066 0.26074-0.0504 0.28764-0.0419 0.28669-0.30878 0.39986-0.13714 0.0575-0.26394 0.11129-0.40682 0.15001-0.32034 0.0888-0.58249 0.12765-0.9144 0.14964-0.63907 0.0422-1.3027 0.0628-1.9345-0.0445-0.346-0.0588-0.69857-0.18996-1.0105-0.0297-0.12022 0.0622-0.21506 0.17135-0.34187 0.21948-0.15038 0.0575-0.28302-0.0109-0.43238 0.0456l-0.0706-0.10622c-0.19825 0.0548-0.37016 0.13122-0.57611 0.10039-0.16356-0.0241-0.28454 0.19589-0.44619 0.19608-0.1833 1.8e-4 -0.29393 0.16665-0.42732 0.28631-0.122 0.10922-0.28763 0.069-0.37016 0.19118 0.15914 0.20661 0.20435 0.28369 0.23105 0.54218l0.23029-0.0154-0.056 0.32438c-0.10922-0.0994-0.32288-0.29468-0.47411-0.3133-0.21722-0.026-0.26206 0.13479-0.43163-0.0954-0.13423 0.12051-0.43586 0.23847-0.48728 0.40578l0.0849 0.15783c-0.27606 0.25877-0.36338 0.3332-0.34223 0.71578-0.24524 0.0699-0.52628 0.10969-0.74699 0.23874-0.14175 0.083-0.36498 0.44799-0.48164 0.44818-0.23405 2.7e-4 -0.35934-0.22983-0.60289-0.23613-0.21243-5e-3 -0.53569 0.0891-0.72086 0.0348-0.0611 0.73139-0.21242 1.4328-0.82838 1.8932-0.23349-0.28256-0.46208-0.41303-0.65045-0.73422-0.14692-0.25078-0.46491-0.46743-0.68419-0.65335-0.0592 0.12416-0.0364 0.26319 3.4e-4 0.39102-0.21525 0.0266-0.22409-0.25821-0.40926-0.28613-0.26506-0.0401-0.21158-0.12943-0.14796-0.35511 0.10378-0.36857-0.0254-0.65139-0.30388-0.90951 0.0827 0.57817-0.14589 1.2505-0.14589 1.2505z" fill="#a0c2a0"/>
 </g>
 <g fill="none" stroke="#000">
  <path d="m121.67 8.0875-1.0487 1.1566-1.2492 0.10795-4.935 5.6598-1.8815 3.3465-2.2053 1.9894-0.52434 0.74025-0.30843 0.83278-0.6323 0.6323-5.5519 2.5138-0.94073 0.30844-7.4333-0.20048-2.5138 0.41639-2.7297-0.10795-3.5625 0.83278-2.6217 0.21591-1.7735-0.10795-1.2646 0.52434-0.72483 0.10795-1.7889 0.83278-4.3952 3.0381-2.8376 0.32386-2.1899-0.6323-1.8969 1.3571-2.1899 1.2646-0.52434 0.52434-3.362 1.2492 0.18506 1.388-1.28 1.28v2.1282l-0.77109 2.2979-0.09253 0.77109v0.60145l0.77109 4.0868-0.16964 0.77109-2.2979 2.3133-1.0333 1.6193-0.67856 1.6193-1.3571 1.1104-1.1104 0.8482-1.1104 0.67856-1.0333 0.26217h-1.5268l-1.1104-0.09253-1.2029-0.58603h-2.2979l-1.5268 0.33928-1.6193-0.16964h-0.60145l-0.26217 0.07711-0.07711 0.8482h-0.86362l-4.349 2.3904-0.24675 0.26217-2.8993 1.1104-0.60145 0.07711-1.2029-0.33928-1.0178 0.16964-1.6193-0.58603-1.0178-0.09253-0.52434-0.09253-1.095-0.33928-1.28-0.41639-0.86362 0.24675-1.0178-0.24675-1.8815 1.0178-1.6964 0.16964" stroke-width=".20048px"/>
  <path d="m108.27 22.89 0.36983 3.9448-1.356 1.356-0.12327 0.98619-0.4931 1.4793-6.4102 1.9724-0.4931 0.98619-4.068 0.98619-2.5887-0.24655-2.3422 0.4931-1.6026 6.5335-1.9724 2.5887-0.24655 1.9724-1.1095 1.9724-0.12328 0.86292-1.2327 2.2189-0.61636 0.98619-0.12328 2.8353-1.4793 2.712-2.9586-0.61637-1.4793 0.4931-0.36982 2.9586v0.73964l-2.0957 0.73964-0.24655 0.86292-0.36982 0.73964-3.8215 2.4655" stroke-width=".14916px"/>
  <path d="m99.659 33.603 1.2409 0.96536 0.77558 0.96536 0.46533 1.0458v1.6089l-0.38778 0.96536-0.31023 0.40223 0.0776 0.64357-1.2409 1.448-2.094 5.1486 0.07752 1.3676-0.46534 0.64357 0.07752 0.88491-1.0082 3.9419 2.6369 2.4134-0.15511 2.4938" stroke-width=".12638px"/>
  <path d="m50.604 56.79-2.7512 4.3439-0.1448 0.72399-1.1584 0.86879-0.4344 0.57919-0.43439 0.72399v1.0136l-1.0136 0.2896-1.1584 0.2896-1.7376 1.1584-1.1584 1.8824-0.72399 1.448v0.72399l-0.57919 0.43439-0.43439 0.72399v0.57919l0.86879 0.86879 0.43439 0.1448 0.2896 2.7512 0.43439 2.7512 0.43439 1.3032 0.86879 2.6064 1.3032 2.4616" stroke-width=".17521px"/>
  <path d="m59.487 37.682-1.4277-1.1681-1.1681-0.64897-2.7257-1.4277-0.25958-0.64897-5.1917-4.0236l-1.8171 0.12979-2.0767 0.90855-2.4661 0.64897-4.2832 1.0383" stroke-width=".15705px"/>
  <path d="m38.071 32.49-4.7007 2.0146-1.8803-0.1343-2.0146 2.9547-5.9095 3.3576-1.6117 3.3576" stroke-width=".26458px"/>
  <path d="m120.85 9.104-1.9454-0.22477-1.1385 0.11774-0.80688-0.3318h-0.56372l-1.2601 0.43884-1.8238 0.77064-1.2601-0.77064-2.288-0.77064-1.9343-1.1131-1.6027-0.21407-0.79583-0.11774-1.2601-0.3318-1.1385-0.3318-3.1944 0.78134-3.2054-0.3318-5.2503 0.87767-0.90637 0.22477-2.3986 1.1024-2.3986 0.22477-1.028 0.6636-2.288 0.22477-0.45318-0.44954h-0.79583l-0.6853 0.44954h-2.7412l-2.3986-0.55657h-0.6853l-0.34265 0.3318-1.8348-0.3318-0.90636 0.43883h-0.80689l-3.3049 2.8792-1.7133-0.16055-1.2932 1.9801-1.5806 0.80274-0.92847 0.26758h-1.669l-1.4811 0.54587" stroke-width=".1414px"/>
  <path d="m58.745 16.19-1.3716 4.4088-0.97973 1.2737-0.68581 1.6655 0.29392 0.68581-0.39189 1.8615 0.19595 3.0372 0.88176 1.8615 0.39189 0.97973 0.09797 0.88176v1.8615l1.8615 2.4493" stroke-width=".14596px"/>
  <path d="m59.487 37.682 4.051 2.7922 2.3911 3.0153 0.46278 0.21538 0.61705 1.0769 1.6198 0.78972 0.61704 1.0051 2.0825 1.3641 0.84844 0.43076 0.15426 0.35896 1.6198 1.3641 0.23139 0.35896 1.0798 2.5845 2.3139 1.2205 0.23139 0.28717-1.0798 1.2205-0.69418 1.3641-1.6969 1.0051-0.07713 0.64614 1.0798 1.5794-0.6043 3.0859" stroke-width=".13692px"/>
  <path d="m99.124 58.73-0.89688-0.05605-1.065 0.56055-0.72872-0.05605-0.84083 0.5045-0.7287-0.16816-1.1772 0.61661h-3.4194l-1.5135-0.56055-2.1301-0.84083-0.33633-0.39239-0.56055-0.44844-0.6166-0.28028-1.009-0.22422h-0.28028l-1.5658 0.14454" stroke-width=".10314px"/>
  <path d="m99.349 58.541 0.10465 2.7211-0.52327 0.52328v2.0931l-0.41863 2.4071-0.31397 1.4652 0.10465 1.5698-2.0931 1.7792-1.3605 1.6745-2.4071 2.5118-3.4537 3.7676-1.3605 1.5698-1.2559 1.1512-5.3375 1.4652-0.83725-0.20931-0.83725 0.41862-1.9885-0.20931v1.2559l-0.73259-0.10466h-0.31397l-0.52328 0.10466-1.2559 1.7792-0.7326 0.10465-1.5698-0.10465-1.0466 0.31397-1.0466 0.62794-1.1512 1.1512-0.73259 0.10465h-1.1512l-0.83725 0.20931-0.94191 0.62794-1.0466 0.62794h-2.0931l-1.0466-0.41863-0.83725-0.20931-1.2559 0.41863-0.83725 0.31397-1.2559 0.10465h-1.5698l-0.73259-0.52328-0.41862-0.52328-0.41863-0.73259-0.52328-1.1512-0.31397-0.41863-0.10466-0.41863-0.83725-0.20931h-0.62794l-1.2559 0.52329-1.2559 0.10465-1.2559 0.20932h-1.2559l-1.5698-0.37366" stroke-width=".16745px"/>
  <path d="m19.899 60.368v1.0859l4.2289 4.6775 0.93037 0.33411 0.25374 0.33411 0.25374 0.75175 3.6369 4.5105 1.2687 1.8376h0.67663l0.76121 0.33411 2.9603 3.5082 0.25374 0.33411h0.59205l0.33832 0.08353 0.25374 0.50116 6.1155 4.7065" stroke-width=".17735px"/>
  <path d="m70.914 65.912-0.73999 0.4823-0.24666 0.2067-1.0689 1.0335-0.4111 0.2067h-0.98664l-1.8911 0.1378-0.32888 0.5512-2.0555 0.6201-0.65776-0.0689-0.65777-0.1378-0.4111 0.2067-0.32888 0.1378h-1.6444l-0.49332 0.2756 0.49332 0.8268-3.1244 1.4469 0.16444 0.4823-0.90442 0.689 0.49332 0.4823-0.24666 0.4134-0.57554 0.4134-1.1511 0.3445-0.65776 0.4134-0.90443 0.9646-0.4111 0.82679-0.16444 0.3445 0.16444 0.5512-0.98665 0.6201-0.73998 1.1024-0.8222 0.8957 0.08223 0.4823-0.65776 0.8268-0.57554 0.4134-0.73998 0.4823-0.73998 0.2067-3.2066 3.0088" stroke-width=".15956px"/>
  <path d="m44.823 86.634-1.0421-0.83249" stroke-width=".26458px"/>
  <path d="m86.152 26.316-0.36874-1.2537-2.5812-2.3599-0.58998 0.22124" stroke-width=".14528px"/>
  <path d="m55.725 27.607-1.8874 1.8176-2.9659-0.90881-2.157 1.2496" stroke-width=".14334px"/>
  <path d="m21.078 44.041-3.6028 2.8884 1.3332 3.0542-0.96961 1.6798 0.72721 0.99263-1.0908 0.99263 0.96961 3.9705 0.2424 1.1453 1.212 1.6035" stroke-width=".21837px"/>
  <path d="m82.619 22.946-1.0742-0.35808v-1.6113l-0.62663-0.62664 0.089519-1.3428-1.6113-3.1332-1.9694-1.1638-0.89519-0.53712-0.53712-0.8952-1.0742-3.7598" stroke-width=".17725px"/>
  <path d="m86.152 26.316l0.52061-0.1504 0.41893 0.35613 0.6524 0.13492 1.8635 0.96629 0.77778 0.99928 0.11333 0.35282-9.82e-4 0.85021-0.17886 0.67568-0.09371 0.56154-0.29219 0.32286-0.0525 0.68984 0.04159 0.79314 0.07969 0.62734 0.31938 0.99432 0.43991 0.3572" stroke-width=".087197px"/>
 </g>
 <g fill-rule="evenodd" stroke-width=".28423">
  <ellipse cx="122.3" cy="7.5991" rx="1.3089" ry="1.3672"/>
  <ellipse cx="59.371" cy="37.643" rx="1.3089" ry="1.3672"/>
  <ellipse cx="21.596" cy="44.178" rx="1.3089" ry="1.3672"/>
  <ellipse cx="18.408" cy="60.754" rx="1.3089" ry="1.3672"/>
  <ellipse cx="38.332" cy="33.18" rx="1.3089" ry="1.3672"/>
  <ellipse cx="43.591" cy="85.698" rx="1.3089" ry="1.3672"/>
  <ellipse cx="99.297" cy="58.921" rx="1.3089" ry="1.3672"/>
  <ellipse cx="86.945" cy="45.772" rx="1.3089" ry="1.3672"/>
  <ellipse cx="82.641" cy="22.9" rx="1.3089" ry="1.3672"/>
  <ellipse cx="58.813" cy="16.365" rx="1.3089" ry="1.3672"/>
  <ellipse cx="46.381" cy="65.695" rx="1.3089" ry="1.3672"/>
  <ellipse cx="73.716" cy="64.021" rx="1.3089" ry="1.3672"/>
 </g>
 <g font-family="sans-serif" font-size="3.5278px" letter-spacing="0px" stroke-width=".26458" word-spacing="0px">
  <text x="37.455059" y="90.081116" style="line-height:1.25" xml:space="preserve"><tspan x="37.455059" y="90.081116" stroke-width=".26458">Veraval</tspan></text>
  <text x="70.766922" y="69.918671" style="line-height:1.25" xml:space="preserve"><tspan x="70.766922" y="69.918671" stroke-width=".26458">Amreli</tspan></text>
  <text x="42.714828" y="69.360809" style="line-height:1.25" xml:space="preserve"><tspan x="42.714828" y="69.360809" stroke-width=".26458">Junagadh</tspan></text>
  <text x="79.612892" y="43.460434" style="line-height:1.25" xml:space="preserve"><tspan x="79.612892" y="43.460434" stroke-width=".26458">Botad</tspan></text>
  <text x="87.024384" y="56.29108" style="line-height:1.25" xml:space="preserve"><tspan x="87.024384" y="56.29108" stroke-width=".26458">Bhavnagar</tspan></text>
  <text x="1.2211138" y="58.002823" style="line-height:1.25" xml:space="preserve"><tspan x="1.2211138" y="58.002823" stroke-width=".26458">Porbandar</tspan></text>
  <text x="0.2382137" y="41.627487" style="line-height:1.25" xml:space="preserve"><tspan x="0.2382137" y="41.627487" stroke-width=".26458">Khambhaliya</tspan></text>
  <text x="47.894905" y="19.791479" style="line-height:1.25" xml:space="preserve"><tspan x="47.894905" y="19.791479" stroke-width=".26458">Morbi</tspan></text>
  <text x="68.296425" y="20.50872" style="line-height:1.25" xml:space="preserve"><tspan x="68.296425" y="20.50872" stroke-width=".26458">Surendranagar</tspan></text>
  <text x="21.197594" y="30.86887" style="line-height:1.25" xml:space="preserve"><tspan x="21.197594" y="30.86887" stroke-width=".26458">Jamnagar</tspan></text>
  <text x="52.278042" y="41.388405" style="line-height:1.25" xml:space="preserve"><tspan x="52.278042" y="41.388405" stroke-width=".26458">Rajkot</tspan></text>
  <text x="101.34216" y="5.2293119" style="line-height:1.25" xml:space="preserve"><tspan x="101.34216" y="5.2293119" stroke-width=".26458">Ahmedabad</tspan></text>
 </g>
 <g fill="#85c5e3">
  <path d="m21.041 61.185 1.4638 0.76116 0.17565 0.4684 0.5855 0.52695 0.4684 0.17565 0.81971 0.76116v0.52695l-0.4684 0.52695 0.52695 0.17565 0.17565-0.76116 0.29275-0.1171h0.40985l0.4684 0.2342 0.52695 0.05855 0.3513 0.4684h0.81971l0.29275-0.1171h0.64406l-0.2342-0.81971-0.99536-0.7026-0.81971-0.29275-0.99536-0.2342 0.52695-0.9368-0.8197-0.05855-0.2342-1.171-0.5855 0.52695-0.29275 0.05855-0.3513-0.40985-0.29275 0.2342h-0.76115l0.5855 0.3513 0.2342 0.4684 0.5855 0.3513 0.3513 0.5855-0.3513-0.17565-0.3513-0.17565-0.40985-0.05855-0.1171-0.29275-1.171-0.64405z" stroke-width=".20024px"/>
  <path d="m87.206 69.592-0.9125 0.21726 0.78214 0.17381 0.69523 0.21726 0.69523 0.43452 0.1738 0.0869 0.52143-0.04346 0.78213-0.26071h0.47798l0.34761-0.30416 0.04349-0.26071-0.0869-0.39107 0.47797-0.13036 0.26072-0.17381 0.30416-0.17381h0.30417l0.34761-0.04346 0.43452-0.26071v-0.60832h-0.26072l-0.43452 0.13036-0.0869 0.26071-0.43452-0.04346-0.30416 0.26071-0.17381 0.04345-0.0869-0.0869-0.26072 0.13036-0.13035 0.30416h-0.52142l-0.21727 0.0869-0.34761 0.17381v0.39107l-0.21726 0.34762h-0.43452l-0.34761-0.17381-0.21726-0.34762-0.17381-0.34762-1.9119 0.04346z" stroke-width=".14861px"/>
  <path d="m60.15 49.937-0.16307 0.52996-0.12229 0.16306 0.0407 0.2446 0.52996 0.69302 0.40766 0.20383 0.20383 0.04076 0.57073-0.1223 0.32613-0.04077 0.44842-0.2446 0.52996-0.16306 0.3669-0.20383 0.0815-0.40766-0.32613 0.3669-0.65226 0.28536-0.20383-0.20383-0.24459-0.08153-0.52996 0.04077-0.3669 0.1223-0.28536-0.3669-0.2446-0.28536v-0.20383l0.0815-0.44842z" stroke-width=".13004px"/>
 </g>
 <text x="58.927608" y="53.784389" fill="#000000" font-family="sans-serif" font-size="3.5278px" letter-spacing="0px" stroke-width=".26458" word-spacing="0px" style="line-height:1.25" xml:space="preserve"><tspan x="58.927608" y="53.784389" font-size="1.0583px" stroke-width=".26458">Bhandar reservoir</tspan></text>
</svg>
