<!-- Created with Inkscape (http://www.inkscape.org/) -->
<svg width="57.676mm" height="70.459mm" version="1.1" viewBox="0 0 57.675613 70.459068" xmlns="http://www.w3.org/2000/svg" xmlns:cc="http://creativecommons.org/ns#" xmlns:dc="http://purl.org/dc/elements/1.1/" xmlns:rdf="http://www.w3.org/1999/02/22-rdf-syntax-ns#">
 <metadata>
  <rdf:RDF>
   <cc:Work rdf:about="">
    <dc:format>image/svg+xml</dc:format>
    <dc:type rdf:resource="http://purl.org/dc/dcmitype/StillImage"/>
    <dc:title/>
   </cc:Work>
  </rdf:RDF>
 </metadata>
 <g transform="translate(-79.263 -75.806)" stroke="#fff" stroke-linecap="round" stroke-linejoin="round" stroke-width=".3">
  <path id="Narmada" d="m119.89 85.934-0.1364-0.99082-1.1264-0.22371s-1.5767-0.17821-2.1653-2.5197c-0.5886-2.3416-3.4689-0.44601-3.4689-0.44601l-1.2161 0.0466s-1.5924 0.0123-1.1667 2.3604l-0.8219 0.10687s-0.72783 0.17709-1.0448 0.30662c-0.31686 0.12962-1.7839 0.8595-2.2535 0.95406 0 0-0.10556 0.16459-0.14053 0.29383 0 0-0.25737 0.77538-0.68007 0.7876-0.42269 0.0123-0.72809-0.10472-1.0927-0.51519l-0.45034 1.0309 0.58784 1.7562s3.9662 1.8418 2.8877 3.7349l2.072-2e-3 0.90274 1.3502s-0.90031 0.49648-0.4933 1.7572l-1.0769 3.1545s1.8942 1.9795 4.1914 1.8863c2.2971-0.0932 3.5131-0.22992 3.5166 2.4728 0 0 1.8011-0.58785 3.8737-0.095 0 0 0.85405-1.3073 3.106-1.4904 2.2519-0.18311 1.6978-0.89023 1.6515-1.836l-0.27682-0.35381-0.11279 0.0152-0.2162-0.0298-0.40418 0.10687-0.50184 0.0166-0.3008 0.0614-0.14522 0.30944-0.2865 0.17332-0.41799 0.2036-0.35617 0.0315-0.43171-0.18744-0.17427-0.37006-0.20275-0.49695-0.071-0.30915-0.30153-0.61813-0.0572-0.64848-0.13216-0.37015-0.20265-0.52714-0.46022-0.39975-0.37051-0.24778-0.17428-0.30907 0.11233-0.29429 0.11251-0.23414 0.38914-0.0155 0.29995 0.0757 0.32908 0.0907 0.27259 0.0599 0.30068-0.0304 0.14532-0.30944 0.24355 0.0306 0.40446 0.18659 0.41744 0.15735 0.50297-0.0317 0.15923-0.43633-0.16036-0.43605-0.20274-0.43585 0.0556-0.71541-0.0713-0.58833-0.16036-0.43593-0.50242-0.33877-0.38951-0.21742-0.11355-0.55739-0.20294-0.73008-0.23113-0.6182-0.53061-0.42045-0.41763-0.15735-0.24475-0.33904-2e-3 -0.37025 0.25839-0.0915 0.35709-0.0607 0.53014 0.0144 0.73233-0.047 0.57233-0.0308 0.45947-0.17361 0.66144-0.20293 0.30041-0.30963-1.9505-2.3246z" fill="#e2b584"/>
  <path id="Tapi" d="m123.69 101.65c-2.252 0.18311-3.106 1.4904-3.106 1.4904-2.0726-0.49282-3.8737 0.095-3.8737 0.095l-2.3414 0.63363c-1.5307 0.54245-3.1075 0.40944-3.1075 0.40944-0.67743-1.3504-1.8474-0.44818-1.8474-0.44818-0.67517 0.40617-0.71917 1.082-0.31254 2.0725l-0.0643 0.30972c-0.4429-0.10632-0.7482-0.12108-1.1908-0.09-0.44271 0.031-0.93131-0.0293-1.6183-0.0284-0.68703 2e-3 -0.76306 0.13828-0.76306 0.13828l-0.18301 0.10724c-0.50345 0.26017-1.2806 1.3603-1.4941 1.6048-0.21337 0.24457-0.42692 0.39751-0.42692 0.39751l0.27616 0.99194c-0.3132 1.667-1.7545 1.804-1.7545 1.804l0.56191 2.1157-1.2608 0.27203-0.0443 0.63062c-0.17822 1.6219 1.174 2.3407 1.174 2.3407l-0.71917 1.127 1.0365 0.40399c1.0818 0.58419 1.8951 2.475 1.8951 2.475l1.6683 1.3039s1.0373 0.94466 3.7397 0.80601l0.35831-1.577-0.45268-1.8012s1.8009-0.6779 1.9334-2.66c0 0-0.1361-0.67556 0.6749-0.54152 0.81099 0.13414 0.76757 1.3955 0.76757 1.3955l0.71972-0.76673 0.54114 0.53991 0.89973-0.90207 3.1983 0.22108 1.4405-0.67744 0.933-0.15358-0.12717-0.33397-0.24486-0.40014v-0.27916l-0.23057-0.20275-0.41753-0.1865-0.44639 0.0307-0.61464 0.092-0.20181 0.18828-0.4602-0.39987 0.14485-0.66389 0.18752-0.33942-0.57254-0.1065-0.45963 0.0616-0.53043-0.18723-0.27267-0.0598-0.41716 0.0306-0.47477 2e-3 -0.53033-0.0755-0.53041-0.2333-0.40372-0.33876-0.31536-0.4508 0.45993-0.51285 0.44535-0.12183 0.64773 0.0753 0.43265 0.17146 0.51614 0.0915 0.58625-0.1737 0.46049-0.0767 0.37025-0.0315 0.41828 0.0145 0.47385 0.0604 0.24447 0.06 0.51595-0.0768 0.36997-0.30981 0.27211-0.40071 0.22945-0.64988 0.12614-0.5575 0.15876-0.7466 0.22887-0.43642 0.30042-0.21846 0.40306-0.14249 0.34298-0.10669 0.63326-0.20387 0.71813 0.015 0.51585-0.12191 0.38886-0.21845 0.4728-0.71597 0.29984-0.67996 0.24354-0.6856 0.28548-0.96384 0.15838-1.0699 0.0697-0.63457 0.53088-0.18762 0.53015 0.0594 0.44553-0.0307 0.77415-0.31027 0.44479-0.55796 0.2019-0.0764 0.41829-0.0156 0.44563 0.0597 0.63334-2e-3 0.45964-0.0918 0.57216-0.18781 0.41716-0.12277 0.57252 0.0444 0.64773 0.0142 0.85922 0.06 0.85874-0.3114 0.55805-0.24881 0.51558-0.34092 0.66088-0.61934 0.50241-0.40193-0.14644-0.5573-0.18846-0.30906-0.41866-0.2786-0.55852-0.21741-0.62883-0.0602-0.44536 0.12736-0.52995 0.21882-0.58598 0.29496-0.60072 0.0158-0.57263-0.12144-0.64819-0.45033-0.57272-0.20134-0.38999 0.0765-0.35596 0.23358-0.41791 0.29476-0.53023-0.10555-0.34308 0.0304-0.45955 0.0618-0.2866 0.0304-0.53013 0.12286-0.57235 0.0768-0.54414 0.0317-0.96204 0.37063-0.23745 0.9268c0.0464 0.94616 0.60054 1.6533-1.6513 1.8364z" fill="#c2f0c2"/>
  <path id="Bharuch" d="m88.201 100.97 0.5871 1.2155 1.44-1.0379s1.2176 1.0795 2.4332 0.58249c1.2156-0.49695 0.62722-2.5683 0.62722-2.5683l1.7107-0.72294s0.31818 2.2068 1.2636 1.8452c0.94541-0.36162 0.0882-1.4414 0.0882-1.4414-0.54274-1.7109 0.98922-1.3527 0.98922-1.3527l0.27221 1.5311 1.4873 0.7638 1.081-0.0915s0.58502-0.45117 1.3513-0.0468c0.76617 0.40438 1.3063 0.0433 1.3063 0.0433s1.215-0.94748 1.7115-0.0922c0.49648 0.85527 1.0812 0.0887 1.0812 0.0887s0.4491-0.99157 1.5307-0.58747c1.0815 0.40398 1.8466-0.22767 1.8466-0.22767l1.0769-3.1545c-0.407-1.2607 0.49329-1.7572 0.49329-1.7572l-0.90273-1.3502-2.072 2e-3c1.0786-1.8932-2.8877-3.7349-2.8877-3.7349l-0.58784-1.7562 0.45034-1.0309c-0.36462-0.41048-0.52949-0.78609-0.52949-0.78609s-0.37665-0.68063-0.83458-0.64482c0 0-0.188-0.0113-0.34037 0.15322-0.15246 0.16459-0.49262 0.49385-0.45672 0.97521 0.0358 0.48144 0.16609 1.3268 0.16609 1.3268s0.1064 0.54009-0.17512 0.76353c-0.28151 0.22342-0.6575 0.0831-0.6575 0.0831s-0.42298-0.24609-1.1158-0.22174c0 0-0.34054-0.0348-0.53991 0.21215l-1.5068-0.55298-1.8468-0.0877 0.76354-1.6676-1.2609 0.27193-1.2607 0.407-0.49648-0.81006s1.8012-0.49789 2.34-1.8499l-0.22652-0.9457s-1.0799 0.85725-2.2535-1.033l-1.5766-0.0881-2.1662-3.2404s1.7568 0.13292 2.1159-0.90349c0 0 0.37937-1.8312-0.83628-1.4694l-0.82829 0.22906-0.73495 0.40494c-0.54866 0.28038-1.0046 0.17738-1.2117 0.12586-0.20716-0.0516-0.70458-0.17521-0.97389-0.22662-0.2693-0.0514-0.5698 0.0421-0.5698 0.0421l-0.30333 0.0767 0.038 0.0964c-0.0421 0.16721-0.58305 0.52892-0.75507 0.46895-0.39027-0.13668-0.5776-0.32345-1.0147-0.32298-0.5057 6.4e-4 -0.91551-0.71126-1.3969-0.8423-0.53502-0.14597-1.0248-0.19973-1.5775-0.13046-0.41255 0.0512-0.99946 0.49564-1.2443 0.82594-0.33876 0.45626-0.65769 0.89936-0.82632 1.4486-0.0636 0.20876-0.27081 0.63767-0.22822 0.86034 0.0587 0.30633-0.0116 0.49912-0.092 0.80555-0.15905 0.60646-0.2428 1.2121-0.33604 1.8325-0.0689 0.46161-0.45278 0.91514-0.4306 1.3842 0.0154 0.31583 0.028 0.58476 0.11486 0.8863 0.0681 0.23687 0.25182 0.57121 0.0179 0.767l-0.14589-0.076c0.0128 0.33745-0.19777 0.35371 0.14927 0.57704 0.12041 0.0768 0.0852 0.42853 0.13902 0.5685 0.0792 0.20565 0.26658 0.44046 0.45945 0.55024 0.2239 0.12756 0.33924 0.0117 0.53184-0.11721 0.27052-0.18084 0.54094-0.36067 0.81147-0.54151 0.169-0.11215 0.40776-0.1519 0.55795-0.28754 0.0996-0.0913 0.20557-0.22682 0.32306-0.29271 0.0986-0.0565 0.20012-0.0332 0.28557-0.11513 0.21497-0.2052 0.33895-0.30201 0.61511-0.40871l-0.0989-0.15687 0.0845-0.0611c-0.0754-0.10048-0.19569-0.18499-0.14616-0.30905 0.22569 0.0927 0.28049 0.32297 0.3757 0.52675 0.10509-0.15435-0.0294-0.23688-0.0286-0.40043 2e-3 -0.13723 0.11244-0.26892 0.11225-0.40897 0-0.28575-0.22156-0.51115-0.18904-0.7875 0.17117 0.18404 0.35391 0.36517 0.39282 0.6199 0.037 0.24336-0.1442 0.47957-0.0903 0.73327 0.13535 0.0186 0.29534 0.0692 0.43163 0.0596 0.12868-9e-3 0.16901-0.11299 0.30061-0.0606 0.029-0.17869-0.1536-0.28461 0.0418-0.43623l0.14598 0.21779 0.14569-0.0302c0.0163 0.20951 0.13272 0.16054 0.28114 0.10771 0.10894-0.0386 0.043-0.22182 0.0898-0.31582 0.0931 0.013 0.16562 0.0693 0.21178 0.15669 0.13328-0.20416-0.10378-0.2631-0.23077-0.36546l0.0281-0.0912c0.16167-0.0143 0.29242 0.10688 0.42703 0.18649 0.12201-0.14493 0.15744-0.31987 0.21083-0.49658l0.1128 0.0148c-0.0333-0.3082-0.0253-0.56199 0.013-0.87228l0.0564-0.015c0.15453 0.2348-0.037 0.49357 0.15603 0.72171 0.19016 0.22436 0.23725 0.30426 0.50214 0.15725 0.0883-0.049 0.44329-0.34929 0.5213-0.357 0.32701-0.0314 0.33256-0.10565 0.51086-0.38312 0.0538 0.21045-0.0294 0.55928-0.26911 0.5276-0.12689-0.0167-0.54104 0.28837-0.63108 0.41715l0.0425 0.12219c0.28387 0 0.63541 6e-3 0.66492 0.36951 0.019 0.23969 0.34111 0.63127 0.2661 0.80516-0.20952 0.0661-0.44187-0.0764-0.62884 0.0318-0.0132-0.10904-0.0772-0.15792-0.18818-0.152-0.22785 0.37628-0.48248 0.45749-0.88074 0.65619-0.37477 0.18658-0.0144 0.42111 0.17851 0.63711-0.15961 0.20698-0.22155 0.24279-0.17888 0.4993 0.0274 0.1645 5e-3 0.32336-8e-3 0.48973l-0.30107-0.26366c-0.3054 0.10847-0.46811 0.0362-0.75544 0.20397 0.0102-0.13452 0.10461-0.48888 0.0134-0.58841-0.12144-0.1314-0.30173-0.0214-0.30116-0.2789-0.0985 0.0942-0.15764 0.21263-0.31452 0.22898-0.089 0.27259 0.23443 0.3662 0.21695 0.58814-0.21723 0.0436-0.53644-0.51079-0.65158-0.0452-0.086 0.34882-0.23885 0.64425-0.39535 0.96863-0.0544 0.11383 0.11975 0.26412 0.18189 0.33077 0.0725 0.0769 8e-3 0.31113-8e-3 0.41724-0.0466 0.31969-0.28585 0.61992-0.44057 0.90104-0.075 0.13545-0.63315 0.26969-0.80507 0.36481-0.31648 0.17624-0.26545 0.382-0.20586 0.70901 0.0654 0.35521 0.16065 0.62113 0.0418 0.96064-0.0432 0.12125-0.18499 0.20144-0.25435 0.30859-0.0844 0.12991-0.13696 0.29534-0.20163 0.43643 0.0932 0.14945 0.25775 0.16523 0.41387 0.21288 0.12549 0.30822-0.2725 0.0878-0.41322 0.24873-0.16194-0.17456-0.21843-0.24496-0.44787-0.29929-0.0997-0.0233-0.13574-0.28649-0.16779-0.37946-0.15923 0.45042-0.15256 0.50965 0.3382 0.55223 0.13865 0.37203-0.25031 0.51265-0.49648 0.5589l-0.0709-0.24806-0.0846-0.0158c-0.0552 0.11665-0.0419 0.24825-0.0136 0.37035-0.11008-0.0543-0.21432-0.0317-0.2725 0.0764-0.0941-0.10979-0.0556-0.17192-0.0238-0.30352 0.0197-0.0829-0.0755-0.19072-0.11412-0.26121-0.0829-0.15125-0.10001-0.35803-0.20641-0.48473-0.22437 0.27276-0.23406 0.6902-0.17728 1.0192 0.0607 0.35239 0.0622 0.82895 0.29759 1.1172 0.48294 0.5917 1.4121-0.36734 1.9986-0.49602 0.37778-0.0822 0.75282-0.048 1.1336-0.0212 0.33003 0.0232 0.64659-0.0863 0.95857-0.066 0.21817 0.0148 0.39489 0.0182 0.60909-0.014 0.20303-0.0312 0.29055 0.0372 0.47478 0.0371 0.23603 0 0.30727-0.13394 0.52242-0.18875 0.062-0.0152 0.12135 0.0779 0.19185 0.0468 0.0939-0.0415 0.1879-0.0821 0.2818-0.12341 0.0847 0.10875 0.19204 0.20369 0.33398 0.21751-0.0333 0.43802 0.89672 0.68222 1.2294 0.65082 0.34779-0.0334 0.48305-0.0928 0.78919-0.23225 0.20764-0.0943 0.50372-0.0994 0.68598-0.23697 0.4055-0.30784 0.91937-0.53879 1.4103-0.37307 0.53324 0.17981 1.0089 0.22427 1.5542 0.33538 0.61021 0.12426 0.77865-0.52648 1.2579-0.67941 0.21232-0.068 0.5009-0.0345 0.72827-0.0827 0.24627-0.052 0.46612-0.13215 0.70187-0.22173 0.53926-0.20463 0.90536-0.55853 1.3176-0.94259 0.14175-0.13168 0.5403-0.13695 0.7311-0.13713 0.22277 0 0.39131 0.2457 0.63193 0.2331 0.0325 0.36649-0.0164 0.36376-0.3037 0.60665-0.0713 0.0622-0.16055 0.17314-0.24693 0.2146-0.0686 0.033-0.1692-0.0279-0.23876 0.0145-0.13431 0.0829-0.41696 0.33602-0.59649 0.25265-0.238-0.11063-0.40052-0.0145-0.61689-0.10819-0.21817-0.0946-0.4039 0.22512-0.57008 0.32221-0.24506 0.14222-0.37777 0.11139-0.64745 0.17193-0.48012 0.10688-0.96863 0.37251-1.428 0.54988-0.20294 0.0783-0.39939 0.088-0.60326 0.15781-0.12962 0.0442-0.23866 0.0764-0.35043 0.15453-0.0977 0.0688-0.0514 0.24637-0.13206 0.3179-0.26677 0.23443-0.4055-0.25313-0.63954-0.27833-0.32543-0.0352-0.65065-0.0706-0.97596-0.10584-0.41924-0.0464-1.0691-0.34834-1.2809 0.22344-0.191 0.51454-0.0512 1.066-0.45861 1.4896-0.19721 0.20414-0.37448 0.41404-0.66108 0.47364-0.42862 0.0889-0.46331 0.10584-0.69876 0.47374-0.27109 0.42128-0.85959 0.4194-1.1362 0.87849-0.35371 0.58596-0.69143 0.95951-1.191 1.432-0.20087 0.18922-0.38765 0.39348-0.58954 0.58457-0.01 9e-3 -0.0176 0.02-0.027 0.0296l-0.018 0.0198c-0.1941 0.21807-0.27006 0.53324-0.43126 0.77349-0.20369 0.30296-0.4977 0.39827-0.64771 0.73035 0.11861 0.10791 0.21365 0.20745 0.37541 0.24768l0.0138-0.14202c0.20952-0.021 0.42017-0.041 0.62967-0.0609 0.10152-9e-3 0.12361-0.31507 0.1443-0.37147l0.21628 0.12192 0.32851-0.4008 1.5343-0.51774z" fill="#f0c2f0"/>
  <path id="Navsari" d="m109.94 122.61c-2.7024 0.13865-3.7397-0.80601-3.7397-0.80601l-1.6683-1.3039-1.7094 1.7589-1.3079-1.1694s-0.5871-1.2154-2.5245-1.6633c-1.9375-0.44799-1.7146-2.25-1.7146-2.25l-2.2094-1.7539 0.0885-1.2162c-0.72265-1.4855-2.6569 0.49893-2.6569 0.49893l-1.2619-0.53879-1.062 0.86363c-0.32429 0.0314-0.40099 0.368-0.75985 0.40701-0.40147 0.0438-0.46953-0.29731-0.79324 0.0819l-0.0988-0.076c0.0402-0.0866 0.0599-0.18715 0.0418-0.27927l-0.24439 0.0614-0.0282-0.0609 0.1454-0.18819c-0.42646-0.49196-0.70834 0.25276-1.1333 0.20821-0.31029-0.0325-0.33426 0.33604-0.68777 0.19927-0.22954-0.0882-0.47712-0.36977-0.38614-0.62272-0.0978-0.0581-0.12802-0.16336-0.12727-0.27898l-0.0987-0.03c-0.0428 0.40239-0.0299 0.84032 0.14541 1.2077 0.14043 0.2941 0.16149 0.57411 0.24543 0.88327 0.0888 0.327 0.42806 2.4208 1.0734 2.1568-0.28133-0.21864-0.55232-0.45241-0.39958-0.84173-0.20801-0.16046-0.48032-0.65074-0.40541-0.91685 0.28106 0.0513 0.49669-0.46123 0.63184-0.64753 0.0976-0.13461 0.17183-0.10454 0.34103-0.11327 0.0968-4e-3 0.1064 0.17756 0.2127 0.19335 0.12878 0.0188 0.22542-0.1347 0.37111-0.13489 0.13818 0 0.21976-0.0914 0.3147-0.0915 0.24636 0 0.5307-0.36546 0.71042-0.28011-0.076 0.0884-0.17465 0.17502-0.22908 0.27955-0.0366 0.0706 0.0294 0.13902-0.028 0.21798-0.045 0.0612-0.19439 0.0718-0.2583 0.13008-0.0704 0.0631-0.12098 0.16751-0.15472 0.25595l0.54442 0.17135 0.1737-0.18732 0.31499 0.0748c-0.13433 0.10076-0.26677 0.17332-0.31442 0.34533 0.2475 0.23942 0.81372-0.21053 1.0918-0.30218 0.1692-0.0557 0.32815 0.0578 0.49828 0.0314 0.17192-0.0276 0.34844-0.23735 0.44085 0.0352-0.16422 0.17869-0.4511 0.0888-0.55326 0.33988 0.0557 0.10528 0.23424 0.12295 0.25228 0.22353 0.0246 0.1409-0.0176 0.22748-0.0636 0.3648-0.27824 0-0.49338 0.0749-0.76015 0.15876l-0.028 0.20218c-0.22278-0.0402-0.34084 0.2552-0.53906 0.34271-0.24609 0.10941-0.20172 0.28321-0.46379 0.40391-2e-3 0.14757 0.17409 0.1407 0.18838 0.29392 0.20782 0.06 0.43529 0.0841 0.5775 0.26347l-0.41744-0.0756c-0.0476 0.28207-0.21272 0.54828-0.32795 0.80695 0.35061-0.038 0.23236 0.0288 0.48812 0.21741 0.18161 0.13414 0.40907 0.0747 0.28726 0.42073l0.15998 0.10603c-0.22352 0.17886-0.49029 0.29759-0.41669 0.62469-0.2473-0.0759-0.33707 0.23349-0.44488 0.40108 0.14757 0.0486 0.14371-0.1017 0.26309-0.0841 0.10903 0.0168 0.21055 0.043 0.27343-0.068 0.13132-0.2314 0.19778-0.37249 0.41951-0.52401 0.19627-0.13376 0.41048-0.15388 0.56351-0.32702 0.20463-0.23245 0.27513-0.19015 0.57122-0.23753 0.0366 0.0572 0.0471 0.11939 0.0284 0.1833-0.11468-2e-3 -0.29025 0.10658-0.26093 0.2362 0.0463 0.20586-0.0817 0.14682-0.12276 0.3179-0.045 0.18526-0.0664 0.21065-0.21761 0.32926-0.0732 0.0565-0.0317 0.24449-0.0316 0.33378h0.174l0.0427 0.30926c0.13159 0 0.33265-0.055 0.41274 0.0597-0.17474 0.0462-0.43388 0.24026-0.58625 0.21318l-0.0703 0.1881 0.11289 0.0911c-0.0338 0.062-0.0206 0.12596 0.0286 0.18226 0.13713-0.0791 0.22098 0.0504 0.21177 0.1877 0.12022-0.05 0.22841 0.043 0.34319 0.0962 0.0919-0.10527 0.14662 0.0186 0.24439-0.0313 0.0685-0.0348 0.13328-0.13262 0.18771-0.18724 0.0396 0.11553 0.021 0.23876-0.0418 0.34507 0.17858 4e-3 0.15095-0.23612 0.3146-0.27963-0.0675 0.23404-0.21084 0.50776-0.0132 0.7153 0.12962-0.0406 0.17277-0.16853 0.24402-0.27954l0.45974 0.0295 0.0569 0.40127 0.1738-0.12717c0.02 0.13723 0.0303 0.29044 0.0738 0.41536l1.3751 0.42542 1.488 1.2143-0.76474 0.76672 1.487 0.49358-0.13301 1.6668s2.1183 0.98809 4.6852 0.48933c0 0 2.6232 0.37063 4.5488-0.45624l1.9132-0.031 0.0124-0.79595 0.18742-0.42139 0.48747-0.40108 0.27211-0.38566 0.631 0.75357 9e-3 0.0503 0.40342-0.52789-0.31779-2.2095z" fill="#cc2"/>
  <path id="Valsad" d="m101.25 129.56c-2.5669 0.49874-4.6852-0.48934-4.6852-0.48934l0.133-1.6668-1.487-0.49356 0.76475-0.76673-1.488-1.2142-1.3751-0.42544c-0.078-0.0259-0.13761-0.042-0.18808-0.0487 0.11984 0.0416 0.29101 0.16545 0.16562 0.10698-0.0834-0.039-0.1706-0.0742-0.25972-0.10735-0.0894 0.0135-0.1659 0.0684-0.31639 0.16168-0.0631-0.0478-0.096-0.11929-0.099-0.20191-0.23302 0.0596-0.89982 0.50871-0.84878 0.74182l0.202-0.0915c0.14316 0.324-0.58514 0.41058-0.55748 0.73016 0.16364 0.043 0.25651-0.0566 0.38905-0.1424 0.0791 0.092 0.14222 0.20001 0.18367 0.31365-0.0928 0.13827-0.23565 0.21648-0.37082 0.30972l0.0141 0.061c0.26047 2e-3 0.23979 0.10781 0.24383 0.30897 2e-3 0.10809-0.0343 0.35821-0.0839 0.45409-0.18103 0.35173-0.39159 0.33792-0.0134 0.66643-0.2207 0.15829 0.0794 0.38538-0.0839 0.58381l-0.343-0.0155-0.0422 0.0763c0.0312 0.0638 0.13649 0.17371 0.15539 0.24325 0.0339 0.12494-0.026 0.25098 2e-3 0.37505 0.053 0.24985 0.27221 0.4526 0.41903 0.65261-0.0299 0.0536-0.0723 0.0941-0.12671 0.1224-0.25877-0.15566-0.31469-0.52225-0.38736-0.78816-0.0859-0.31385-0.22728-0.56839-0.38463-0.85395l-0.0704 0.0312c0.13065 0.68974 0.49038 1.305 0.58906 2.0174 0.0503 0.36649-0.12304 0.72771-0.22605 1.0737-0.11129 0.37429-0.0116 0.48032 0.2849 0.72536l-0.2585 0.0312-0.0842 0.24834c-0.0104-0.11656-0.0446-0.22738-0.12727-0.30906-0.13226 0.18912 0.0223 0.57234 0.0573 0.79042l0.0846-0.0462-0.0146-0.33933c0.19279 0.0655 0.18781 0.559-0.0228 0.6091-0.14185 0.034-0.17643 0.21271-0.31734 0.27493-0.0911 0.0414-0.19823 0.0632-0.26675 0.14137-0.0582 0.0658-0.12192 0.16929-0.16413 0.24552-0.0182 0.0317-0.0362 0.066-0.0531 0.10076l0.0156-8e-3c0.0742-0.0536 0.12003-0.20511 0.16694-0.285l0.58681 0.20228 0.55834 0.0754 0.21629 0.0449-0.0982 0.3554-0.21581 0.32447-0.0137 0.35541 0.31432 0.2487 0.18857 0.42082 0.0286 0.37035-0.25811 0.29364-0.45936 0.18856-0.34309-0.0608-0.202 0.0765-0.0842 0.2944-0.20172 0.18828-0.47354 0.15753-0.1881-0.0298-0.15979-0.0299-0.28678-0.0908-0.14589-0.0449c-8e-3 0.0285-0.0153 0.0578-0.0196 0.0889-0.0401 0.28575-0.10735 0.58185-0.25182 0.83404-0.18471 0.3207-0.47224 0.34082-0.81335 0.43434-0.24439 0.0671-0.39703 0.51182-0.50006 0.71409-0.11909 0.23603 0.11167 0.60609-0.10706 0.81129-0.10706 0.0999-0.26874 0.0728-0.38333 0.19608-0.0844 0.0914-0.15001 0.27191-0.17896 0.39214-0.072 0.29816-2e-3 0.6326-0.0834 0.92784-0.0777 0.28029-0.24016 0.41311-0.18902 0.71652 0.054 0.3242 0.10894 0.64849 0.1629 0.97277 0.27174 0.0513 0.2599-0.36611 0.4273-0.35408 0.24524 0.0166 0.41641 0.0117 0.62432 0.14964l9e-5 0.0601c-0.158-0.044-0.36395-0.14898-0.52562-0.11128-0.17191 0.0398-0.18489 0.29261-0.33322 0.37645-0.30897 0.17426-0.26638 0.50419-0.31761 0.84643l9e-3 -9e-5c-2e-3 0.0156-4e-3 0.0308-6e-3 0.0464 0.3132 0.0821 0.62225 0.10679 0.88074 0.0455 0.10885-0.0255 0.31104-0.0689 0.38698-0.15274 0.0592-0.0659 0.0306-0.28858 0.12079-0.31593 0.26789-0.0812 0.46886-0.17267 0.74238-0.11561 0.51058 0.10452 0.68795 0.64209 1.1282 0.84737 0.18818 0.0871 0.55965 0.24749 0.66266-0.0554 0.0796-0.23227 0.14871-0.50768 0.30747-0.70337 0.0882-0.10914 0.23762-0.14786 0.27786-0.28895 0.0448-0.15612 0.0888-0.31207 0.13281-0.4682 0.0543-0.18996 0.35287-0.43849 0.47478-0.61258 0.11167-0.15987 0.5605 0.13555 0.71259 0.0582 0.1814-0.0914 0.10311-0.3271-0.0128-0.45287-0.20519-0.22155-0.72677-0.20022-0.77151-0.56389-0.0179-0.15133 0.40456-0.46489 0.5323-0.53934 0.12304-0.0716 0.22823-0.16196 0.33998-0.25144 0.0882-0.0716 0.23114-0.019 0.32891-0.068 0.22915-0.11515 0.34543-0.36705 0.59714-0.48869 0.19072-0.0922 0.50504 0.18734 0.62423 0.0368 0.16045-0.20322 0.29937-0.41772 0.5087-0.57028 0.22447-0.16373 0.44893-0.23179 0.71398-0.31112 0.26216-0.0783 0.48126 0.01 0.75113 0.0368 0.54893 0.0556 1.0342 0.15651 1.5897 0.15575 0.0761 0 0.19758 0.16054 0.24927 0.21497 0.10358 0.11167 0.19289 0.12849 0.34047 0.17625 0.25209 0.0823 0.41066-0.13123 0.64452-0.2396 0.42834-0.19881 1.2204 0.33876 0.72743 0.72658-0.22343 0.17606-0.35757 0.43192-0.57253 0.6061-0.23198 0.18723-0.43022 0.26553-0.64508 0.49046-0.14175 0.1487-0.31903 0.49668-0.48804 0.57319-0.26113 0.11871-0.52806 0.20265-0.73176 0.40512-0.20171 0.20049-0.39149 0.33886-0.6762 0.3929-0.16167 0.0303-0.5996 0.089-0.63973 0.29967-0.11863 0.61952 0.55203 0.91195 1.0372 1.0636 0.51812 0.16204 1.0753 0.0476 1.5432-0.21818 0.24703-0.14033 0.42064-0.33143 0.71193-0.39196 0.36085-0.0747 0.49348-0.0137 0.84417 0.11928 0.40814 0.15557 0.92576 0.65675 0.96026 1.1004 0.0458 0.5996-7e-3 1.1524-0.0956 1.7448 0.24025-0.31986 0.3116-0.29646 0.66118-0.45211 0.48754-0.21591 0.89596-0.54067 1.2818-0.89926 0.41227-0.38313 0.97314-0.61408 1.52-0.73139 0.26489-0.0567 0.53465-0.13601 0.7811-0.0132 0.15811 0.0787 0.51652 0.34902 0.65732 0.24167 0.47892-0.36536 0.93621-0.71841 1.3644-1.1438 0.15951-0.15811 0.15058-0.60918 0.19165-0.82651 0.0456-0.24345 0.19204-0.48708 0.28764-0.71568 0.10113-0.24073 0.0294-0.57527 0.15217-0.79917 0.0534-0.0978 0.18892 0.0148 0.15951-0.12895-0.0293-0.14466-0.0586-0.29035-0.088-0.43606-0.0765-0.37776-0.15322-0.75553-0.22898-1.1324-0.0445-0.2208-0.28151-0.36246-0.371-0.5634-0.11777-0.26414-0.12765-0.62969-0.18639-0.91449-0.0179-0.0883-0.54913-0.17315-0.64584-0.10915 0.0587-0.33658 0.10724-0.67403 0.33255-0.94407 0.25896-0.30963 0.421-0.67453 0.66982-0.9804 0.49931-0.61162 1.0298-0.9863 1.3043-1.7575 0.0675-0.18912 0.36545-0.87651 0.15001-1.0135-0.39327-0.24956 0.0489 0.0234 0.0489 0.0234l0.21545-0.64979 0.18686-0.83685-0.0288-0.4511-0.28706-0.26281-0.23039-0.10696-0.45982-0.15641-0.35737-0.13676-0.23057-0.1566-0.11336-0.42101 0.0839-0.60355 2e-3 -0.0407-1.9132 0.031c-1.9256 0.82661-4.5487 0.45598-4.5487 0.45598z" fill="#a0c2a0"/>
  <path id="Dang" d="m118.58 116.52-3.1984-0.22107-0.89972 0.90207-0.54115-0.53991-0.71972 0.76672s0.0434-1.2613-0.76757-1.3955c-0.81099-0.13404-0.67489 0.54152-0.67489 0.54152-0.13253 1.9821-1.9334 2.66-1.9334 2.66l0.45269 1.8012-0.35832 1.577-0.53727 2.5231 0.3178 2.2095 0.23066 0.30897 0.28754 0.61812 9e-3 0.0356 0.27221-0.3725 0.32814 0.12173 0.25887 0.2957 0.40371 0.3257 0.67601 0.18705 0.81712 0.21798 0.6621 0.32522 0.3897 0.48371 0.25915 0.52976 0.21713 0.68317 0.3148 0.60683 1.0178-0.0934 0.3567-0.38774 0.31367-0.25039 0.41716-0.0927 0.61502 0.18818 1.2624-0.0176 0.66173-0.016 0.57159-0.653 0.35569-0.42345 0.35681-0.26553 0.27193-0.56051 0.028-0.18807-0.1737-0.53071-0.17447-0.46886 0.0977-0.81034 0.3145-0.32662 0.55815-0.12305 0.54424-0.0156 0.37017-0.18846 0.60054-0.093 0.37035-0.0304 0.54376-0.2818 0.40296-0.28058 0.11222-0.34139 0.13113-0.43916 0.0694-0.71915 0.0137-0.3712-0.0999-0.84117-0.0707-0.28095-0.18846-0.3099-0.24467-0.24974-0.38971-0.43747-0.057-0.515 0.0698-0.57639 0.17342-0.4382-0.17437-0.34196-0.45907 0.40287-0.0412-0.0715 0.0328 0.0536 0.0697-0.60356-0.17427-0.29392-0.1881-0.091-0.0849-0.18686 0.11241-0.24834 0.18753-0.37063 0.17315-0.60364-0.30126-0.38501-0.23068-0.33998-0.54488-0.46547-0.55853-0.15622-0.66248-0.52656-0.21648-0.27795-0.0333-0.087-0.933 0.15359z" fill="#f9d3c6"/>
  <path id="Surat" d="m92.491 114.71s1.9342-1.9844 2.6569-0.49895l-0.0885 1.2162 2.2094 1.7539s-0.22287 1.802 1.7146 2.25c1.9374 0.44798 2.5245 1.6633 2.5245 1.6633l1.3079 1.1694 1.7094-1.7589s-0.81324-1.8908-1.8951-2.475l-1.0365-0.40399 0.71917-1.127s-1.3522-0.71879-1.174-2.3407l0.0442-0.63061 1.2608-0.27204-0.5619-2.1157s1.4412-0.13695 1.7544-1.804l-0.27616-0.99195s0.21355-0.15293 0.42693-0.39751c0.21346-0.24458 0.99052-1.3447 1.4941-1.6048l0.18301-0.10725s0.0761-0.13742 0.76306-0.13826c0.68701-2e-3 1.1756 0.0594 1.6183 0.0284 0.44263-0.031 0.74792-0.0163 1.1908 0.09l0.0643-0.30972c-0.40663-0.99043-0.36254-1.6663 0.31254-2.0724 0 0 1.17-0.90236 1.8474 0.44818 0 0 1.5767 0.13301 3.1075-0.40945l2.3414-0.63362c-4e-3 -2.7027-1.2195-2.5659-3.5166-2.4728s-4.1914-1.8863-4.1914-1.8863-0.76503 0.63166-1.8466 0.22766c-1.0816-0.40409-1.5307 0.58748-1.5307 0.58748s-0.58466 0.76654-1.0812-0.0887c-0.49647-0.85517-1.7115 0.0922-1.7115 0.0922s-0.54011 0.36104-1.3063-0.0433c-0.76625-0.40437-1.3513 0.0468-1.3513 0.0468l-1.081 0.0914-1.4873-0.76381-0.27221-1.5311s-1.5321-0.35832-0.98922 1.3527c0 0 0.85724 1.0798-0.0882 1.4414-0.94541 0.36161-1.2636-1.8452-1.2636-1.8452l-1.7106 0.72292s0.58832 2.0713-0.62724 2.5683c-1.2156 0.49696-2.4332-0.58249-2.4332-0.58249l-1.44 1.0379-0.58708-1.2155-1.5324-0.67367-1.5343 0.51773c0.28932 0.56549-0.19514 0.98527-0.55664 1.3288-0.17925 0.17041-0.36029 0.46019-0.47948 0.67648-0.18001 0.3273-0.14146 0.3696 0.092 0.65319-0.33567-0.10575-0.46972 0.20255-0.52384 0.48557-0.0532 0.28114 0.10772 0.51219 0.22559 0.75742 0.0796-0.17774 0.26545-0.38857 0.0604-0.54245 0.41584-0.41706 0.4479 0.37814 0.61069 0.57732 0.0517-0.0762 0.11251-0.22671 0.18762-0.27851 0.046-0.0312 0.15424 4e-3 0.21628-0.0303 0.15491-0.0838 0.2334-0.37344 0.31319-0.52759l0.1128 0.0308 0.0142 0.0912c-0.18978 0.065-0.23068 0.42129-0.12614 0.55852 0.11373-0.0264 0.20951-0.0736 0.31479-0.0306-0.0823 0.30934 0.2036 0.418 0.43878 0.52112 0.18996 0.0834 0.36037 0.28151 0.43586 0.47599-0.30173 0.0398-0.36621-0.37552-0.60684-0.4007-0.28096-0.0296-0.56304-0.0594-0.84408-0.0891-0.013 0.08 0.0208 0.15801 0.0848 0.21798l-0.2019 0.0604c4e-3 -0.27165-0.28312-0.11054-0.32862-0.36997h-0.20199c-0.10868 0.27842-0.22118 0.52103-0.40232 0.76099-0.10179-0.21515-0.30567-0.12933-0.3429 0.0812-0.27193-0.21384-0.31489 0.0267-0.3851 0.24871-0.30991-0.53155-0.69473 0.66925-0.0932 0.56887l0.12671-0.20323 0.0705 0.0308c-0.0346 0.14006 3e-3 0.28106 0.0711 0.40513 0.1175 0.0196 0.23303 9e-3 0.32891-0.0607l0.0567 0.23209-0.20181 0.14314c0.0583 0.0544 0.12614 0.0958 0.20219 0.12097-0.0441 0.0847-0.14363 0.10359-0.24421 0.1066 0.10575 0.38143-0.50016 0.68213-0.36077 0.94889 0.19186 0.027 0.279-0.17709 0.38971-0.30981 0.12164 0.28283 0.15078 0.41526 0.418 0.56247 0.10237-0.0884 0.0957-0.21254 0.0419-0.33933l0.17408 0.0919c-0.0206 0.16647 0.14401 0.23387 0.0711 0.43511l0.18818 0.13705c0.0281-0.0913 0.0655-0.17962 0.11232-0.26339l0.18856 0.42092-0.45946 0.10679-0.0848-0.21789-0.25859-0.0297-0.15923 0.40061c-0.18903 0.0248-0.47947-0.0116-0.58626 0.18311-0.31-0.55223-0.51002 0.33256-0.45898 0.56932l0.12671-0.17219c0.0538 0.15039 0.0436 0.30914 0.057 0.46612l-0.13159-0.0308c-0.13132 0.21272 0.0507 0.68796 0.10077 0.91366 0.0529 0.23958 0.2505 0.37372 0.29035 0.59734 0.14635-0.24458 0.25689-0.44029 0.4729-0.62471l0.0565 0.12116c-0.20744 0.22202-0.27183 0.61229-0.57628 0.71596-0.0801-0.20105-0.11779-0.27701-0.31527-0.36986-0.0466 0.31018 0.0506 0.64011 0.0971 0.9455 0.0303 0.19447 0.0224 0.57995 0.1739 0.73101 0.11486 0.11458 0.57487 0.42043 0.61294 0.0791 0.0158-0.14298-0.01-0.4165 0.0604-0.54057 0.0572-0.10152 0.19364-0.0961 0.21027-0.22305 0.0597-0.45495 0.0425-1.363 0.5196-1.6212 0.17005-0.0923 0.64491 0.10443 0.82539 0.14288 0.29429 0.0625 0.58859 0.12416 0.883 0.18677l-0.0138 0.17201c-0.14006 0.0377-0.30643 0.0484-0.41247 0.15284l0.0707 0.15688c-0.0516 0.10913-0.12578 0.19569-0.2443 0.18837-0.0433-0.10725 0.0111-0.19843 0-0.2943-0.17568 0.0424-0.20143 0.44769-0.18236 0.60373 0.0171 0.14288 0.0848 0.20764 0.0362 0.34676-0.0413 0.11946-0.0628 0.1816-0.0561 0.30548 0.0135 0.22276 0.10406 0.48398 0.33069 0.56079 0.15434 0.0525 0.50034 0.2174 0.6074 0.0444-0.13376-0.12765-0.30315-0.22145-0.0994-0.42101-0.10265-0.14738-0.4759-0.20341-0.21206-0.42543 0.18593-0.15725 0.5668 0.0472 0.52976-0.34102 0.17935-0.0604 0.0917-0.29806 0.25314-0.4008 0.0377 0.0874 0.22568 0.77791 0.30097 0.80603 0.24543 0.09 0.068-0.49828 0.19655-0.61868 0.1096 0.40963 0.40372 0.34919 0.74219 0.43519 0.0768-0.15801 9e-3 -0.49254 0.0412-0.69181 0.0318-0.18903-0.0427-0.3412 0.0698-0.51988 0.0606 0.31392 0.13404 0.46132 0.31583 0.72526 0.0489-0.71079 0.19204-1.1847 0.91373-1.4412-0.0458 0.22568-0.20379 0.14221-0.33519 0.26365-0.11458 0.1064-0.19147 0.25689-0.2787 0.38576l0.14588 0.15773-0.23001 0.1723 0.057 0.421 0.2724-0.0154 0.0282 0.045-0.18772 0.18827c0.14024 0.13517 0.34027-0.01 0.48342 0.15163-0.16356 0.0171-0.34112 0.0973-0.29957 0.28987l-0.1598-0.0148-0.0282 0.0452c0.22042 0.34094 0.10462 0.21319 0.32908 0.0606 0.10048-0.0686 0.15697 2e-3 0.27251-0.10753 0.0817-0.0772 0.16233-0.15529 0.244-0.23254l0.0708 0.15697c-0.25821 0.21177-0.44874 0.45729-0.66078 0.71607 0.12896 0.13902 0.28546 0.55231 0.46978 0.56246l0.0141 0.061-0.3007 0.0615c9e-3 0.14174 0.0419 0.26648 0.10096 0.39291 4e-3 9e-3 7e-3 0.0188 0.0124 0.0281l0.0161-0.0215c0.0791-0.1016 0.15819-0.0915 0.24156-0.1001 0.0427-4e-3 0.0866-0.014 0.13216-0.0462 0.0364-0.0258 0.0538-0.0706 0.0705-0.11796 0.0247-0.0703 0.0475-0.14635 0.12661-0.17559 0.12324-0.0458 0.10499 0.0264 0.0486 0.1222-0.068 0.11514-0.19176 0.26422-0.19382 0.28321-0.0685-0.014-0.13348-4e-3 -0.18791 0.0312l0.0284 0.0761c0.0801-0.0108 0.14118 9e-3 0.19138 0.0454 0.11176 0.0824 0.16852 0.25219 0.25566 0.3695l1.062-0.86365z" fill="#5a5f53"/>
 </g>
 <g fill="none" stroke="#009" stroke-width=".2px">
  
  <path d="m13.192 38.186 0.0964 0.05932 0.08899 0.13348h0.08898v0.10382l0.16314 0.2892 0.07415 0.05932 0.31145 0.1928 0.02966 0.13348-0.01483 0.0964-0.0964 0.26696 0.05191 0.08899 0.07415 0.28179 0.21505 0.22988 0.17797 0.42268 0.02966 0.06674 0.08157 0.08898-0.02966 0.06674-0.10382 0.01483-0.06674 0.05932 0.02225 0.0964v0.02966l-0.02966 0.08157 0.08157 0.05191 0.11865 0.04449 0.22246 0.10382"/>
  <path d="m15.726 38.303 0.09541 0.38164 0.02474 0.28977-0.04947 0.43112v0.21556l-0.28623 0.50532 0.12015 0.576v0.50532l-0.14488 0.28623-0.28623 1.5124 0.67141 0.64668 0.31097 0.12015 0.62547 0.16962 0.93644 0.62547 0.55126 0.88697 0.24029 0.3357-0.02474 0.36044v0.21556l0.26503 1.5619-0.12015 0.28623-0.3357 1.2015-0.3145 0.50532-0.28623 0.19082-0.38518 0.67141-0.16609 0.14488-0.21556 0.16608-0.14488 0.04947-0.24029 0.02474-0.40991 0.26503-0.12015 0.16608-0.21556 0.04948-0.38164 0.38164-0.50532 0.3145-0.04947 0.19082v0.14488l0.07421 0.19082-0.02474 0.26503 0.16608 0.09541 0.12015 0.50532v0.28623l-0.04594 0.16962v0.16609l0.09541 0.28977v0.14488l-0.36044 0.36044 0.04947 0.19082-0.60074-0.31097"/>
  <path d="m11.567 35.352 0.25344-0.34848h0.34848l1.2038-0.792 1.0138-0.09504 0.82368 0.1584 0.06337-1.8058-0.34848-2.6611 0.28512-1.7741 0.79201-1.1088 0.25344-2.1543-0.34848-0.98209 0.1584-1.0138 0.82368-0.69696 0.6336-0.25344 0.38016-0.88704 0.792-0.41184 0.3168 0.09504 0.82368-0.12672 0.44352-0.76032 0.50688-0.03167 0.91873-0.98209 1.0138-0.53856 0.98209-0.12672 1.2989-0.69696h0.41184l0.44352-0.41184 0.792-0.28512h0.44352l0.792-0.53856 0.38016-0.4752 0.34848-0.19008 0.57025 0.19008"/>
  <path d="m16.065 22.775 0.92188-4.3925-1.193-2.0607"/>
  <path d="m15.794 16.322 1.0368-0.11861 4.8734 2.5167"/>
  
 </g>
 <g fill-rule="evenodd" stroke-width=".29101">
  <ellipse cx="29.295" cy="15.549" rx=".50705" ry=".54366"/>
  <ellipse cx="15.844" cy="16.3" rx=".50705" ry=".54366"/>
  <ellipse cx="11.287" cy="35.613" rx=".50705" ry=".54366"/>
  <ellipse cx="38.833" cy="49.696" rx=".50705" ry=".54366"/>
  <ellipse cx="14.342" cy="55.185" rx=".50705" ry=".54366"/>
  <ellipse cx="14.964" cy="41.567" rx=".50705" ry=".54366"/>
  <ellipse cx="29.254" cy="37.684" rx=".50705" ry=".54366"/>
 </g>
 <g font-family="sans-serif" font-size="3.5278px" letter-spacing="0px" stroke-width=".26458" word-spacing="0px">
  <text x="25.779718" y="35.66584" style="line-height:1.25" xml:space="preserve"><tspan x="25.779718" y="35.66584" font-size="2.8222px" stroke-width=".26458">Vyara</tspan></text>
  <text x="6.5901399" y="33.727501" style="line-height:1.25" xml:space="preserve"><tspan x="6.5901399" y="33.727501" font-size="2.8222px" stroke-width=".26458">Surat</tspan></text>
  <text x="10.176072" y="14.92559" style="line-height:1.25" xml:space="preserve"><tspan x="10.176072" y="14.92559" font-size="2.8222px" stroke-width=".26458">Bharuch</tspan></text>
  <text x="27.330393" y="13.665668" style="line-height:1.25" xml:space="preserve"><tspan x="27.330393" y="13.665668" font-size="2.8222px" stroke-width=".26458">Rajpipla</tspan></text>
  <text x="37.059448" y="52.784298" style="line-height:1.25" xml:space="preserve"><tspan x="37.059448" y="52.784298" font-size="2.8222px" stroke-width=".26458">Ahwa</tspan></text>
  <text x="13.471252" y="58.732101" style="line-height:1.25" xml:space="preserve"><tspan x="13.471252" y="58.732101" font-size="2.8222px" stroke-width=".26458">Valsad</tspan></text>
  <text x="4.187324" y="44.50568" style="line-height:1.25" xml:space="preserve"><tspan x="4.187324" y="44.50568" font-size="2.8222px" stroke-width=".26458">Navsari</tspan></text>
 </g>
 <path d="m29.371 42.805 0.44342 0.05216 0.57384 0.9651 0.44342 0.20867 0.57384 0.67818 0.99118 0.18258 0.36517-0.49559-0.07825 0.36517 0.70426 0.62601-0.05216 0.44342 0.54776 0.4695-0.33909 0.52167 0.44342 0.07825-0.36517 0.52167-0.44951 0.23298 0.25598 0.01505 0.07529 0.13552 0.2108-0.1054h0.36138v0.30115l-0.46678 0.37644-0.04518 0.1054 0.28609-0.01505 0.09034-0.16563 0.15057-0.04518 0.18069-0.01505 0.15057-0.13552h0.16563l0.12046 0.06023 0.30115-0.2108 0.28609 0.16563 0.30115 0.01505 0.16563 0.1054 0.04518 0.15057 0.1054-0.03012 0.22586-0.12046 0.09034-0.03012 0.12045 0.06023 0.36138 0.07529 0.30115 0.27103-0.07529 0.28609 0.16563 0.28609 0.30115-0.01506 0.15057 0.13552 0.12046-0.1054 0.22586-0.01505 0.07529 0.07529 0.13552-0.13552 0.15057 0.06022 0.12046 0.13552 0.1054-0.13552 0.2108 0.07529 0.19574 0.2108-0.04518 0.15057-0.03011 0.18069-0.01506 0.12046 0.09034 0.13552 0.43666-0.33126 0.07527-0.07529 0.09033-0.01506 0.09033 0.16563v0.33126l0.15057-0.15057 0.12046-0.16563-0.01505-0.19575 0.48183-0.3162 0.03011-0.28609 0.18069-0.04518 0.16563 0.01505 0.18069 0.12046 0.16563 0.1054h0.19574v-0.48183l-0.04516-0.19575-0.07527-0.33126-0.1054-0.2108-0.10539-0.36138-0.09033-0.19574-0.04516-0.04518-0.03011-0.19575 0.06022-0.2108 0.24091 0.09034 0.16563 0.13552 0.22585 0.69264 0.06022 0.13552 0.36138 0.19574 0.13552-0.04518 0.10539-0.1054 0.03011-0.12046 0.33127-0.1054 0.3162-0.16563v-0.04518h0.09033l0.3915 0.25598 0.12045-0.06023 0.07527-0.06022h0.22585l0.15057 0.01505 0.04516-0.16563 0.09033-0.27103v-0.51195l-0.04517-0.13552 0.07528-0.37643 0.04517-0.40655 0.0301-0.39149-0.33127-0.06022-0.13552-0.07529-0.28608-0.12046 0.07527-0.22586 0.09032-0.30115 0.24092-0.03012 0.46678 0.04518-0.03011-0.45172v-0.36135s0.01505-0.33126 0.01505-0.39149 0.07527-0.30115 0.07527-0.30115l-0.21081-0.0602-0.22586-0.06023-0.22586-0.01505v-0.28609l0.15057-0.07529 0.06022-0.09034 0.24092 0.04518 0.07528 0.42161 0.07527-0.22586 0.01505-0.10539 0.06022-0.07529 0.07527-0.06023 0.01505-0.18069-0.06022-0.04518-0.15058-0.04518-0.07527-0.01505-0.18068-0.12046-0.24092 0.01505-0.19574-0.03012-0.18069 0.09034-0.27104 0.1054-0.16563-0.06023-0.06022-0.04518-0.04517-0.01505-0.0301-0.18069 0.01505-0.2108 0.18069-0.64747 0.06022-0.1054 0.39149-0.19575 0.34632-0.13552 0.10539 0.03013 0.12046 0.15057 0.07527 0.28609 0.04517 0.33126 0.04517 0.48184 0.09033 0.01506 0.01505-0.75287-0.0301-0.27103-0.01505-0.27103-0.0301-0.34632-0.1054-0.25598-0.13552-0.07529-0.19574 0.04518-0.09033 0.04518-0.07528-0.25598 0.09033-0.09034 0.18069-0.16563 0.01505-0.13552-0.03011-0.06023-0.18069-0.07529 0.10539-0.13552-0.07528-0.13552 0.01505-0.3162h-0.18069l-0.06022-0.03012-0.12046-0.34632 0.13552-0.16563-0.0301-0.09034-0.2861-0.46678-0.39149-0.48184-0.7378 0.30115 0.06022 0.18069 0.04517 0.2108-0.01505 0.12046-0.07528 0.13552-0.33127 0.06023-0.15057 0.15057-0.07527 0.07529h-0.04517l-0.06022-0.67758-0.34632-0.40655-0.09033-0.04518-0.30115 0.19575-0.07528 0.09034-0.16563 0.13552-0.13553-0.09034-0.2108-0.10539-0.07527 0.16563-0.04517 0.12046-0.07527 0.09034-0.04517-0.01505-0.04516-0.13552-0.07527-0.25598-0.06022-0.19574-0.16562-0.25598-0.01505 0.13552-0.07528 0.15057-0.06022 0.13552-0.03012 0.12046-0.04518 0.06023-0.04518 0.03012-0.1054 0.06023-0.09034-0.07529-0.06023-0.10539-0.1054-0.12046-0.15057-0.09034-0.09034-0.04518-0.09034-0.12046-0.04518-0.1054-0.03011-0.22586-0.12046 0.01505-0.09037-0.04518-0.10539-0.06023-0.15058-0.15057-0.09034-0.09034-0.15057-0.06023-0.15058-0.06022-0.2108-0.03012-0.28609 0.04518h-0.24092l-0.37644 0.1054-0.34632 0.15057 0.28609 0.06023 0.1054 0.09034 0.06022 0.13552 0.04518 0.16563 0.03013 0.15057 0.06023 0.12046 0.0301 0.27103 0.16563-0.03012 0.09034 0.01505 0.1054 0.12046 0.12046 0.3162 0.12046 0.04518 0.04518 0.07529v0.09034l0.1054 0.2108 0.13552 0.07529 0.09034-0.01505v-0.21081l0.09034-0.10539 0.13552 0.06022 0.18069 0.16563 0.07529 0.04518 0.2108 0.04518h0.13552l0.1054-0.04518 0.2108-0.03013 0.12046 0.06023-0.12046 0.19575-0.06023 0.06022-0.09034-0.01505h-0.1054l-0.13552 0.09034h-0.19575l-0.07529-0.03012-0.15057 0.04518-0.18069 0.15057-0.27103 0.16563-0.24092 0.06023-0.24092 0.06023-0.22586 0.03012-0.1054 0.13552-0.0301 0.16563 0.0301 0.12046 0.1054 0.06022 0.10539 0.06023 0.15058 0.04518 0.10539 0.04518 0.15058 0.06022 0.0301 0.15057-0.04518 0.16563-0.16563 0.04518h-0.18063l-0.16563 0.03012-0.18068 0.12046-0.16563 0.15057-0.15057-0.12046-0.13552-0.09034-0.18069-0.04518h-0.16563l-0.09034 0.01505-0.06023 0.06023-0.03012 0.13552 0.09034 0.12046 0.18069 0.01505 0.2108 0.04518h0.07529l0.18069 0.09034 0.07529 0.07529 0.12046 0.01505 0.13552 0.09034 0.12046 0.01505h0.22585l0.09034 0.04518 0.06022 0.07529-0.07529 0.09034-0.09034 0.03012 0.33126 0.27103-0.16563 0.01505h-0.28609l-0.13552-0.07529-0.04518-0.04518-0.07529 0.07529h-0.10539l-0.06023-0.07529-0.09034-0.10539-0.06023-0.13552-0.12046-0.15058-0.04518 0.15058-0.16563-0.24092-0.57218-0.12046v-0.18069l-0.10539-0.09034-0.06023-0.04518-0.04518-0.01505v-0.15058l0.1054-0.09034 0.13552-0.07529 0.16563-0.13552 0.06022-0.13552-0.16563-0.18069-0.16563-0.04518-0.15057-0.13552-0.19575 0.12046-0.13552 0.1054-0.03012 0.09034-0.06023 0.27103 0.07529-0.09034 0.12046-0.12046 0.13552-0.01506 0.12046 0.01506 0.07529 0.09034-0.13552 0.13552-0.18068 0.12046-0.19574-0.03012-0.19575 0.03012h-0.25598l-0.1054 0.1054-0.15057-0.07529-0.18069-0.06023-0.01505-0.13552v-0.13552l-0.06023-0.12046h-0.10539l-0.2108 0.12046-0.15058 0.22586 0.1054 0.12046-0.07529 0.19575 0.13552 0.04518 0.13552 0.13552-0.06022 0.1054-0.03012 0.15057-0.18069 0.22586 0.2108 0.18069-0.04518 0.06023-0.13552 0.15057-0.13552-0.12046-0.13552-0.09034-0.12046-0.04518-0.09034 0.01505h-0.09034l-0.13552 0.07529-0.09034 0.07529-0.12046 0.12046-0.07529-0.04518-0.01505-0.09034-0.01506-0.18069-0.15057 0.22586-0.36138-0.25598h-0.16563s-0.09034-0.07529-0.12046 0.01505c-0.0301 0.09034-0.0301 0.09034-0.0301 0.09034h-0.57213l-0.03012 0.3162-0.13552-0.06023h-0.10538l-0.03011-0.03012-0.07529-0.12046-0.1054 0.09034-0.13552 0.04518-0.13552 0.06023-0.04518 0.09034-0.0301 0.15058-0.18069 0.1054-0.19575 0.03013-0.13552 0.04518-0.06023 0.03012z" fill="green" stroke="none" stroke-width=".044864px"/>
 <path d="m30.096 48.877 0.65294-0.03841 0.38409 0.07682 0.4225 0.30727 0.49931 0.65294 0.61454-0.15363 0.34568-0.38408 0.19204-0.15364 0.99862-0.42249 0.49931 0.23045h0.4609l0.88339 0.15363 0.8834 0.72976 0.11523 0.53772-0.4225 1.1138-0.65294 0.07682-0.53772 0.42249-0.4225-0.0384h-0.49931l-1.1523 0.4609-0.26886 0.34568-0.84499 0.07682-0.38408-0.07682-0.07682-0.19204-0.26886-0.11523-0.03841-0.15363-0.49931-0.30727-0.30727-0.65294-0.11523-0.30727v-0.42251l-0.26885-0.38408-0.11523-0.34568z" fill="green" stroke="none" stroke-width=".050315px"/>
 <text x="37.028511" y="43.87101" fill="#000000" font-family="sans-serif" font-size="3.5278px" letter-spacing="0px" stroke-width=".26458" word-spacing="0px" style="line-height:1.25" xml:space="preserve"><tspan x="37.028511" y="47.089512" font-size="1.4111px" stroke-width=".26458"/></text>
 <text x="44.635288" y="44.026527" fill="#000000" font-family="sans-serif" font-size="3.5278px" letter-spacing="0px" stroke-width=".26458" word-spacing="0px" style="line-height:1.25" xml:space="preserve"><tspan x="44.635288" y="44.026527" font-size="1.0583px" stroke-width=".26458">Purna wildlife sanctuary</tspan></text>
 <path d="m27.777 16.66 0.40691 0.33909 0.10173 0.77992-0.03391 0.54255-0.03391 0.30518v0.54255l-0.30518 0.81382 0.33909 0.64428 0.98338 0.64428 0.33909 0.13564 0.67819 0.67819 0.67818 0.06782h0.23737l0.50864-0.03391 1.7294-0.27127 0.30518 0.44082-0.06781 0.10173-1.0512 0.44082-1.2207 0.44082-1.5937 0.7121 0.44082 0.373v0.06782l-1.5259 0.81382 0.50864 0.40691 1.4242-0.7121 1.119 1.0512h0.81382l-0.10173-0.47473-0.98337-0.74601 0.13564-0.27128v-0.33909l1.3564 0.57646v-0.7121l0.23737-0.13564 0.57646 0.23737 0.47473 0.373 0.50864 0.54255 0.37301 0.03391 1.2546-0.61037 0.30519-0.10173h0.94946v-0.23736l-0.10173-0.20346-0.06781-0.373-0.03391-0.40691 0.30518-0.40691 0.373-0.27128 0.67819-0.10173 0.67819-0.10173 0.64428-0.13564-0.57646-0.27127-0.30518-0.13564v-0.77992l0.98337 0.373 0.23736 0.67819 0.81383-0.27128 0.7121-0.16955 0.54254-0.06782 1.1868 0.06782 0.10173-1.5259-0.13564-1.5598-0.54254-0.16955-0.7121 0.7121-0.47474 0.61037-0.20345 0.16955-0.54255-0.06782-0.57646-0.10173-0.50864-0.67819 1.0512-0.03391 0.77991-0.20346 0.3391-0.16955 0.94946-0.57646v-0.44082l-0.10172-0.67819h0.40691l0.57646-0.06782h0.10173l0.33909-0.61037h0.47473l0.61038-0.03391 0.50864-0.13564-0.03391-1.3225v-0.74601l-0.16955-0.44082-0.10173-0.16955-0.33909-0.57646-0.91556 0.23736-0.57645-0.40691-0.03392-0.30518 0.30518-0.61037-0.77991 0.61037-0.40692 0.13564h-0.44082l-0.7121 0.03391-0.84773-0.03391-0.88164 0.06782-0.77992 0.16955-0.88164 0.44082-0.44082 0.23737 0.57646 0.57646-0.64428 0.40691-0.27128 0.23736-0.64428 0.13564 0.64428-0.67819-0.40692-0.03391-0.30518 0.13564-0.61037 0.40691 0.23737-0.47473h-0.74601l-0.33909 0.40691-0.10173 0.06782-0.33909 0.03391-0.44082 0.373v0.57646l-0.81382 0.44082v-0.54255l-0.54255 0.23736-0.06782 0.50864-0.44082-0.50864v0.33909l-0.13564 0.06782-0.40691-0.06782v0.10173l-0.06782 0.10173-0.23736-0.13564-0.06782-0.06782h-0.40691l-0.06781 0.30518-0.30518-0.23737-1.1868 0.23737-0.3391-0.06782-0.50864 0.33909z" fill="green" stroke="none" stroke-width=".082061px"/>
 <text transform="rotate(-20.516)" x="22.300945" y="28.305643" fill="#000000" font-family="sans-serif" font-size="3.5278px" letter-spacing="0px" stroke-width=".26458" word-spacing="0px" style="line-height:1.25" xml:space="preserve"><tspan x="22.300945" y="28.305643" fill="#ffffff" font-size="1.4111px" stroke-width=".26458">Shoolpaneswar</tspan></text>
 <text transform="rotate(-20.173)" x="22.366547" y="30.305902" fill="#000000" font-family="sans-serif" font-size="3.5278px" letter-spacing="0px" stroke-width=".26458" word-spacing="0px" style="line-height:1.25" xml:space="preserve"><tspan x="22.366547" y="30.305902" fill="#ffffff" font-size="1.4111px" stroke-width=".26458">wildlife sanctuary</tspan></text>
 <g fill="none" stroke="#000">
  <path stroke="none" fill="#85c5e3" d="m53.292 23.127-0.51305-0.37624h-0.23943l-0.27363 0.10261-0.37624 0.44465-0.44465 0.03421h-0.34204l-0.51305 0.34204h-2.6337l-0.06841 0.10261-0.44465 0.17102-0.23943 0.47885-0.13682 0.03421-0.37624-0.17102-0.37624-0.06841h-0.23942l-0.13682 0.27363-0.51305-0.30783-0.44465 0.06841-0.85509 0.34204-1.4708 0.64987-0.30783 0.13682-0.20522 0.17102-0.13682 0.20522-0.03421 0.44465-0.34203 0.20522-0.23942 0.23943-0.10261 0.37624 0.0342 0.30783v0.23943l-0.34203 0.34204-0.34204 0.10261 0.10261 0.23942-0.30783-0.10261-0.34203-0.03421-0.23943 0.03421-0.27363 0.27363-0.1026 0.17102v0.17102l-0.20523 0.17102-0.30783 0.03421h-0.06841l0.1026 0.34204-0.44465-0.47885-0.30783 0.27363-0.0342 0.17102-0.17102 0.03421-0.20523 0.06841-0.17102 0.37624 0.27363-0.10261h0.13682l0.23943 0.03421 0.06841 0.20522v0.27363l-0.41045 0.03421-0.20522 0.23943 0.54726 0.10261 0.13682 0.10261-0.13682 0.10261-0.13682 0.27363-0.13682 0.20522-0.30783-0.10261v0.10261l-0.27363 0.17102-0.10261-0.30783 0.23943-0.51306h-0.30783l-0.17102 0.20522-0.44465 0.10261-0.13682 0.03421-0.47886-0.27363-0.17102 0.37624-0.30783 0.44465-0.20522 0.44465-0.0342 0.20522 0.13681 0.30783 0.20522 0.03421-0.17102 0.34204 0.37624-0.06841v0.27363l-0.34203 0.03421 0.23943 0.17102 0.06841 0.10261-0.13682 0.37624 0.27363-0.10261 0.34204-0.03421-0.0342 0.23942 0.23943-0.13681 0.0342-0.27363 0.13682-0.03421 0.17102 0.47885-0.41045 0.13682 0.34204 0.30783 0.41044-0.06841h0.13681v-0.34204l0.13682-0.20522 0.23943 0.37624v-0.54726l0.23942 0.23942 0.03421-0.20522 0.13681-0.23943 0.17102 0.03421 0.30783 0.54726v0.20522l-0.41045 0.23943-0.20522 0.20522 0.17102 0.03421 0.23942-0.10261-0.1026 0.37624 0.23942-0.27363 0.10261-0.17102 0.23943-0.03421 0.17102 0.30783v-0.30783l0.20522-0.20522 0.17102 0.27363 0.06842-0.27363 0.13682-0.06841 0.41044 0.27363-0.13682-0.37624-0.0035-0.21422 0.14521-0.12101h-0.19366l-0.21783-0.19366v-0.12101h0.24203l-0.12101-0.36304 0.33883 0.04841-0.0242-0.16942-0.14521-0.14522 0.02421-0.07261h0.16941l0.09681 0.36304 0.14522-0.0242v-0.12101l0.24203 0.12101 0.16942 0.14522 0.02421 0.26623h0.19362l0.14521-0.14522v-0.09681l0.09681-0.29043-0.19361 0.19362v-0.31463l-0.07261-0.33884-0.0242-0.24203 0.04841-0.33884v-0.36304l0.24202 0.16942 0.36304 0.04841 0.29043-0.26623 0.14522 0.19362h0.19361l0.09681-0.43565-0.16942-0.26623-0.0726-0.0242 0.0726-0.24203-0.0726-0.12101-0.24203 0.36304-0.50826-0.31463-0.16942 0.09681-0.19362-0.26623-0.31464 0.19362-0.16942 0.09681v0.12101l0.07261 0.24202-0.16942-0.09681-0.07261-0.14522-0.09681 0.07261v0.09681l-0.09681 0.19362 0.16942 0.09681-0.14522 0.21782-0.09681-0.19362-0.24202-0.04841-0.07261-0.14522h0.16942l0.19362-0.0242-0.14521-0.09681-0.36304-0.09681 0.19362-0.12101 0.16942 0.04841 0.0968-0.24203 0.31464-0.0242-0.07261-0.29043-0.21782-0.04841-0.0968-0.0242v-0.14523h0.121l-0.0726-0.14522-0.0242-0.12101 0.14521-0.26623h0.16942l0.19362 0.43565 0.0242-0.19362 0.17844-0.20685-0.01714-0.06855-0.1371-0.15423h0.53125l0.05141 0.06855h0.11996l0.10282 0.05141 0.03428 0.17137 0.03428 0.06855 0.06855-0.18851-0.01713-0.20565-0.08569-0.11996-0.18851-0.15423-0.25706-0.23992 0.17137 0.08569 0.18851 0.01714 0.11996 0.1371 0.06855 0.20565 0.18851-0.08569 0.1371 0.18851 0.11996-0.22278 0.25706-0.1371 0.20564-0.08569 0.2742-0.20565 0.29133-0.15424 0.1371-0.20565 0.11996-0.32561-0.01714-0.30847v-0.23992s-0.05141-0.01714 0.01714-0.06855 0.30847-0.1371 0.30847-0.1371l0.25706 0.01714 0.06855-0.11996-0.03428-0.29133-0.11996-0.1371 0.05141-0.22278 0.15423-0.08569 0.34275-0.10282 0.51412-0.08569 0.37702-0.03428 0.5484-0.15424 1.251-0.35988 0.42843-0.23992 0.1371-0.18851 0.15423-0.20565 0.06855-0.17137 0.17137-0.22278 0.22278-0.18851 0.25706-0.15423 0.18851-0.11996 0.22278-0.10282 0.30847-0.05142h0.82259l0.17137-0.05141 0.61694-0.06855 0.18852-0.10282 0.17137-0.15424s0.1371-0.06855 0.22278-0.06855c0.08569 0 0.4627-0.03427 0.4627-0.03427l0.17137-0.03428 0.20565-0.11996 0.1371-0.18851 0.10282-0.15424 0.1371-0.05142 0.18851-0.01713 0.17137 0.11996 0.20565 0.18851 0.17136 0.10282 0.11996 0.05142 0.20565-0.05142 0.15424-0.01714 0.15423-0.25706 0.15424-0.08569 0.41129-0.08569-0.39416-0.05141-0.22278 0.08569-0.11996 0.1371-0.10282 0.11996-0.2742 0.05142z" stroke-width=".082773px"/>
  <path fill="green" stroke="none" d="m5.2946 36.343 0.14726-0.21037 0.31556-0.27349 0.39971-0.12622-0.39971-0.23141-0.27349-0.12622-0.12622-0.04207-0.1683 0.10519-0.084149 0.18934-0.021037 0.21037z" stroke-width=".041654px"/>
  <path fill="green" stroke="none" d="m5.3352 36.336v0.36531l0.16439 0.25572 0.25571 0.20092 0.27398-0.43837-0.054796-0.18266v-0.21918l0.10959-0.12786 0.018265-0.14612 0.18265-0.29225-0.12786-0.01826-0.32878 0.09133-0.16439 0.10959-0.16439 0.21918z" stroke-width=".036165px"/>
 </g>
 <g fill="#000000" font-family="sans-serif" font-size="3.5278px" letter-spacing="0px" stroke-width=".26458" word-spacing="0px">
  <text x="4.4295955" y="38.064152" style="line-height:1.25" xml:space="preserve"><tspan x="4.4295955" y="38.064152" font-size="1.0583px" stroke-width=".26458">Hazira</tspan></text>
  <text x="3.1337991" y="38.968197" style="line-height:1.25" xml:space="preserve"><tspan x="3.1337991" y="38.968197" font-size="1.0583px" stroke-width=".26458">Mangroves</tspan></text>
  <text x="24.005901" y="54.584053" style="line-height:1.25" xml:space="preserve"><tspan x="24.005901" y="54.584053" font-size="1.4111px" stroke-width=".26458">Vansda national park</tspan></text>
 </g>
 <path d="m29.181 15.647 0.84774 0.18334-0.04727 0.42281h-0.33097l-0.23642 0.42281-0.14185 0.45804-0.5674-0.03523-0.09456 0.28187v0.2114l0.04727 0.38757 0.37827 0.2114 0.14185 0.24664-0.23642 0.42281-0.42555 0.28187 0.14185 0.28187-0.42555 0.2114 0.09456 0.3171-0.37826 0.17617 0.09458 0.38757-0.80382 0.52851-0.33098 0.03523-0.2837 0.07047-0.42555 0.35234-0.89838 0.14093-0.42555 0.17617-0.52012 0.42281-0.42555 0.77515-0.04727 0.70468-0.18913 0.70468 0.14185 1.7969-0.61468 0.77514 0.14185 0.35234-0.70925 0.73991 0.18913 0.42281-0.09456 0.73991 0.33098 0.35234-0.52012 1.057 0.23642 0.84561v0.24664l-0.47283 1.7969-0.89838 0.31711 1.0875 0.49327 0.18913 1.0922 2.3169 2.4311" fill="none" stroke-width=".2px" stroke="#009" />
 <path d="m36.244 48.092-0.36114-0.03677-0.17738 0.19029-0.20694 0.03171-0.14782-0.09514-0.08869-0.12686-0.23651-0.03171-0.29563-0.15857-0.20694 0.09514h-0.29562l-0.14781 0.12686h-0.20694l-0.14782 0.19029-0.38431 0.03171-0.02957 0.15857-0.17738 0.03171v0.222l-0.11825 0.222-0.14782 0.25372-0.20694 0.222h-0.20694l-0.41388 0.12686-0.50257 0.19029-0.29563 0.09514h-0.32519l-0.29563-0.03171-0.26607-0.19029-0.56169-0.28543-0.50257 0.06343-0.38432 0.09514-0.2365-0.03172-1.4781 1.4272-0.44344 0.41229-0.14781 0.19029-0.11825 0.15857-0.08869 0.222-0.17738 0.09514-0.14781 0.28543-0.04801 0.09923-0.31386 0.06734-0.04185 0.15713-0.16739 0.17957-0.29293-0.11223-0.20924-0.20202-0.29293 0.02245-0.27201 0.17957-0.20924 0.42649-0.33478 0.22447h-0.31386l-0.20924-0.06734-0.25108 0.08979-0.25108 0.04489-0.23016 0.24691-0.23016 0.06733-0.39755 0.02245-0.7951 0.04489-0.33478 0.3367-0.10462 0.06734h-0.33478l-0.33478 0.11223-0.4394 0.13468-0.12554 0.02245-0.20924-0.02245-0.12554-0.02245-0.06277-0.06734-0.08369-0.06733h-0.39756l-0.18832 0.02245-0.27201 0.11223-0.14647 0.04488-0.20924 0.04489-0.20924 0.13468-0.39755 0.02245-0.30395 0.01315-0.29019 0.07413-0.19346-0.10378h-0.16583l-0.37311 0.10378-0.16583 0.0593-0.26256 0.01483-0.20728-0.1186" fill="none" stroke-width=".2px" stroke="#009" />
 <path d="m11.304 35.448 0.26303-0.09565 0.57389 1.8412 0.23912 0.5978 0.1913 0.1913 0.33477-0.09565 0.38259 0.35868 0.66954-0.11956 0.7891 0.21521 1.6738-0.02391 0.5978-0.11956 0.86083-0.47824 0.38259 0.16738 0.28694-0.23912 0.31086 0.14347h0.90866l0.62171-0.23912 1.1-0.07174 0.43042 0.23912 0.71736-0.21521 2.3673 0.47824 0.57389-0.35868h0.23912l0.57389 0.26303 1.1956-0.02391 0.31086-0.1913 0.83692-0.14347 0.47824 0.07174 0.04782 0.26303 0.23912 0.28694 0.23912 0.11956 0.50215 0.28694 0.21521 0.35868 0.26303 0.33477 0.23912 0.43042 0.14347 0.43042 0.02391 0.1913 0.21521 0.47824 0.09565 0.14347 0.64562 0.95648v0.26303l0.19129 0.21521h0.33477v0.31086l0.23912 0.02391 0.09565 0.21521 0.19129 0.11956 0.43042 0.02391 0.1913 0.35868 0.35868 0.14347 0.04783 0.16738 0.09565-0.04782 0.19129-0.33477 0.31086 0.02391 0.09565-0.07174 0.23912 0.26303 0.09565 0.1913 0.4065 0.38259v0.47824l0.31086 0.38259-0.09565 0.23912 0.26303 0.1913 0.23912 0.23912 0.04783 0.21521 0.16738 0.07174 0.04783 0.14347-0.16739 0.23912v0.52606l-0.1913 0.14347 0.07174 0.21521-0.16739 0.26303 0.11956 0.31086v0.28694l0.43042-0.07174 0.11956 0.16738-0.45433 0.4065 0.31086 0.43042h0.35868l0.16738 0.11956 0.23912-0.09565 0.16739 0.11956 0.26303-0.1913 0.21521 0.16738 0.16739-0.04783 0.1913 0.11956-0.09565 0.28694 0.3826 0.11956" fill="none" stroke-width=".2px" stroke="#009" />
</svg>
