<svg width="282.25mm" height="176.9mm" version="1.1" viewBox="0 0 282.25438 176.90137" xmlns="http://www.w3.org/2000/svg" xmlns:cc="http://creativecommons.org/ns#" xmlns:dc="http://purl.org/dc/elements/1.1/" xmlns:rdf="http://www.w3.org/1999/02/22-rdf-syntax-ns#">
 <metadata>
  <rdf:RDF>
   <cc:Work rdf:about="">
    <dc:format>image/svg+xml</dc:format>
    <dc:type rdf:resource="http://purl.org/dc/dcmitype/StillImage"/>
    <dc:title/>
   </cc:Work>
  </rdf:RDF>
 </metadata>
 <g fill="none" stroke="#000">
  <g transform="translate(-1.9607 -67.77)" stroke="#fff" stroke-width=".5">
   <path id="Tawang" d="m101.43 93.632h0.12926c0.0701-0.58703-0.12551-1.1814-0.35811-1.713-0.23627-0.53528-0.24364-0.9968-0.24364-1.6244-1.3512 0.17713-2.6212-0.08483-2.8723-1.3143-1.1666-0.10724-3.5221-0.25483-3.8543 1.3254-0.37657 1.7832-0.19569 2.444-2.5437 2.6286-3.9245 0.31014-5.9438 1.9161-7.5535-2.4958-0.82328-2.2594-2.4883-6.841-5.4823-6.7046-4.4895 0.20665-8.5911 3.1123-12.087 5.6449-1.6429 1.1888-3.4261 2.1561-5.1318 3.2488-1.7093 1.0965-2.8649 2.5954-4.423 3.8431-2.6988 2.1598-5.9072-2.1191-8.543-0.15508-1.115 0.8307-0.87866 2.5732-1.9087 3.5628-1.5506 1.4915-3.3633 2.0379-5.4823 1.8201-1.8496-0.19206-4.2272-0.22871-5.6964-1.5136-2.0305-1.7758-0.98205-3.6327-1.7647-5.7779-0.46887 0.10722-1.174-0.17339-1.5949-0.12928-0.33226-4.6259-3.1787-4.2347-6.5641-2.5289-4.482 2.2558-7.3506-1.4103-10.444-3.9503-3.2378-2.6545-7.2288-3.4261-11.123-1.6687-2.983 1.3475 1.2109 3.1159 0.81222 5.2462 2.1118 0.13267 4.4929-0.32473 5.9034 1.6466 2.0231 2.8317-0.15507 5.5933-0.79746 8.4693-0.28059 1.2552 0.36181 2.6212-0.58332 3.6992-1.0263 1.1667-2.7837 1.0707-3.9429 2.0379-2.4662 2.0527-3.2599 4.899-3.0347 8.0187 3.6992 1.377-0.62764 6.7856 1.3844 9.1558 0.75315 0.88233 1.857 0.82326 2.6914 1.5321 1.078 0.9156 1.75 2.2225 2.4846 3.404 0.56116 0.9082 2.3665 3.9354 3.821 2.9239 1.1076-0.76787 1.5137-2.0453 3.1049-1.9677 2.2742 0.11098 2.2041 3.3559 3.9578 4.1387 1.6798 0.74942 3.0827-1.5322 4.914-1.6577 2.7689-0.18799 5.1613 0.18085 7.9227-0.44303 2.684-0.60549 4.6703 0.2287 7.2546 0.72728 1.0817 0.20665 2.0933 0.0628 3.1787 0.0848 1.3254 0.0305 1.9382 0.91563 3.0753 1.3697 2.0379 0.81957 3.1307-1.0042 4.973-1.0818 0.02579 0 0.05171 6e-3 0.0812 6e-3 0.10336-2.4551 0.53531-4.9988 2.3443-6.7524 2.8317-2.7541 4.6076-1.2183 7.7344-0.76052 2.5142 0.36551 3.7325-3.9687 4.8363-5.4898 2.8391-3.9133 6.1508-0.30267 9.7353-1.473 0.07386-1.2921 0.0923-2.6471-0.0812-3.8692-3.9208 0.7384-1.462-6.7083 2.7135-6.5936 2.983 0.0815 4.9065-0.38764 7.487-1.9493 3.1639-1.9124 5.9699-1.4324 9.4439-1.9862 0.75314-2.7726-2.6028-4.1865-2.0638-6.8264 0.72358-3.5221 5.2499-4.1166 8.207-4.0796-4e-3 -0.01355-0.0111-0.02036-0.015-0.02715z" fill="#cc2" />
   <path id="East Kameng" d="m101.56 93.632c0 0.01016 0 0.02036-4e-3 0.02715h-0.11072c0.52795 0.77532 1.3217 1.3476 2.1856 1.9346 0.12548 0.08483 0.25107 0.16966 0.37659 0.25483 0.0923 0.06278 0.18459 0.12554 0.27688 0.18798 0.92298 0.63494 1.8644 1.3475 2.5954 2.3812 1.8792 2.6582 0.65351 5.7555 1.7684 8.5874 0.77898 1.9863 1.3586 3.9096 1.5321 6.0473 3.1012 0.95614 4.8254-0.0204 7.3432 2.7283 1.606 1.75 0.67933 3.2894 0.39134 5.368 3.2119 1.1519 3.6365 4.84 5.3975 7.3099 1.1445 1.6023 3.4739 2.385 4.1794 4.29 0.49843 1.3439-0.0478 2.9018 0.0305 4.2862 2.8981 2.8021 6.5162-2.1228 9.5545-2.0785 4.6001 0.0665 5.294 5.2316 4.6076 8.7645-0.35069 1.8054-2.8575 2.0343-2.2853 3.8988 0.50213 1.6244 2.6249 2.7172 3.8397 3.7694 3.8431 3.3301-1.5838 4.3049-1.3254 7.0588 3.1122 0.69036 1.6097 13.125-4.1827 7.7676-0.90823-0.84172-2.5585-2.4256-3.9724-1.7462-1.2294 0.59073-1.617 2.0786-3.0052 2.6028-2.252 0.85282-3.5995 1.4804-5.5047 2.9794-1.7536 1.3808-3.9133 1.3106-5.8406 2.2631-0.36182 5.7372-1.3586 13.726 5.9105 14.31 0.80115-0.8233 1.606-1.067 2.0379 0.36918 0.90451 3.031 11.53 0.4061 14.31 1.1814 3.9134 1.0927 14.313 3.784 13.907 9.2888 2.0268-0.16255 3.6144 1.4878 5.1946 2.4736 2.636 1.6466 5.3202 1.4177 8.2882 1.4915 2.5474 0.0665 5.1169 0.37289 7.6533-0.0237 3.0495-0.47254 5.881-2.1007 8.8938-2.8354 6.0656-1.4841 16.554-5.3422 23.285-2.732-0.23991-1.702 0.22903-3.8655-1.5026-4.8217-1.2257-0.67932-2.5104-0.21445-3.3781-1.5912-1.4768-2.3407-1.3882-5.5821-1.6355-8.244-0.0923-0.98202-7.5942-4.9655-8.2549-5.1908-1.7942-0.61662-10.09-1.894-5.0208-5.1023 2.4108-1.5247 8.9603-0.60174 9.0119-4.2455 0.0923-6.468-6.8338-3.3227-9.9311-2.6286-1.1519-4.0056 3.0421-7.8416 6.1213-9.6172 1.4177-0.81958 2.9867-1.2109 3.3781-2.9904 0.36917-1.6724 0.27315-3.5774 1.1334-5.1094 2.1228-3.7878 7.9485-2.06 6.5346-8.1222-0.57594-2.4736-2.4071-3.0754-3.9761-4.7219-1.6982-1.7832-0.31387-4.253-1.5838-6.1766-5.8997-0.18799 0.0237-5.97 0.28435-7.8158 0.45412-3.1935-5.2017-2.5917-5.8702-5.4752-2.2446 0.17712-3.4668-0.81601-4.2862-2.8318-0.9857-2.4292-3.1972-3.5811-4.5299-5.7334 3.2341-2.0158 1.0632-6.8338 1.0928-9.7872 0.0305-3.1418 4.0646-5.405 2.791-8.617-0.54271-1.3697-2.2631-3.1713-3.799-3.3855-2.0379-0.28809-2.0822 1.3365-3.7142 1.8791-1.3143 0.43936-2.3333-0.4024-3.6181 0.47258-0.64242 0.47254-1.366 0.71991-2.1782 0.74206-1.9198 0.23278-3.9873-0.46884-5.9105-0.59066-3.9686-0.25076-8.1812-0.14014-11.988-1.5026-3.6107-1.2922-2.732-5.8665-4.0833-8.7313-1.6646-3.5295-6.0802-5.6706-9.8201-6.0656-2.9609-0.31014-7.1436 0.71991-9.5324-1.5838-0.74943 2.9904-4.0572 5.0467-6.0731 7.0958-2.1967 2.2299-2.9978 3.8801-6.3354 4.7993-2.9387 0.8122-4.1644 3.1824-6.1545 5.3384-1.8792 2.0379-1.7204 5.0283-4.7589 1.9604-3.2784-3.308-4.3232-0.76052-7.0035 1.558-0.58702 0.50576-1.9973 1.1039-3.3338 1.2773 0 0.62395 7e-3 1.0892 0.24367 1.6245 0.22891 0.54638 0.42455 1.1408 0.35441 1.7278" fill="#e2b584" />
   <path id="West Kameng" d="m119.41 172.32c1.9272-0.95251 4.087-0.88234 5.8406-2.2631 1.905-1.5026 3.2526-2.1303 5.5047-2.9794 1.3881-0.52426 1.7758-2.0121 3.0052-2.6028 1.4103-0.67559 3.0606 0.90823 3.9724 1.7463 5.7962 5.3534 7.2987-7.0809 4.1828-7.7676-0.25856-2.7504 5.1685-3.7288 1.3254-7.0588-1.2146-1.0522-3.3374-2.145-3.8397-3.7695-0.5722-1.8607 1.9346-2.0896 2.2853-3.8988 0.68302-3.533-7e-3 -8.698-4.6076-8.7646-3.0384-0.0445-6.6564 4.877-9.5545 2.0785-0.0736-1.3845 0.46884-2.9424-0.0305-4.2862-0.70518-1.905-3.0384-2.6878-4.1794-4.29-1.761-2.4698-2.1856-6.1579-5.3975-7.3099 0.28809-2.0785 1.2146-3.6181-0.3913-5.368-2.5179-2.7467-4.2422-1.7721-7.3432-2.7283-0.1734-2.1376-0.75317-4.061-1.5322-6.0473-1.115-2.8353 0.11062-5.9292-1.7684-8.5874-0.73099-1.0337-1.6724-1.7463-2.5954-2.3813-0.0923-0.06278-0.18459-0.1252-0.27689-0.18798-1.0153-0.69039-1.9789-1.318-2.5806-2.2152-3.0643 0.05565-7.4762 0.63504-8.1887 4.1054-0.54271 2.6397 2.8169 4.0535 2.0638 6.8264-3.4777 0.5537-6.2797 0.0777-9.4439 1.9862-2.5806 1.5617-4.5041 2.0305-7.487 1.9493-4.1756-0.11435-6.6343 7.332-2.7135 6.5936 0.17353 1.2183 0.15506 2.5733 0.08123 3.8692-3.5849 1.174-6.8963-2.4404-9.7353 1.4731-1.1039 1.5211-2.3222 5.8552-4.8363 5.4898-3.127-0.45416-4.9028-1.9899-7.7344 0.76048-1.809 1.7574-2.241 4.2975-2.3443 6.7524 1.8533 0.0129 2.8391 3.175 3.4373 4.4858 0.79376 1.7389 1.5543 3.8618 2.0194 5.7114 0.55377 2.2151-0.69037 4.5115 0.69777 6.557 1.0891 1.5985 2.7098 3.1233 4.4043 4.0646 1.3069 0.72731 3.5072 1.6798 2.9757 3.57-2.1782 0.14018-4.3416-0.55018-6.52-0.14727-3.4705 0.64241-1.4546 3.0938-0.97835 5.2129 1.4214 6.2909-5.3015 10.972-3.2341 17.115 0.83068 2.4699 1.1187 3.2526 3.5333 4.5153 2.5253 1.318 2.6286 3.8764 3.5923 6.3092 1.0005 2.5253 3.031 4.0243 3.2045 6.9 0.18826 3.1307-1.1999 5.8515-0.8602 9.0339 0.18459-0.0923 0.37288-0.16966 0.56856-0.22565 2.289-0.6608 4.9876 0.0627 7.3211 0.0702 3.5662 0.0129 5.7962-3.0568 9.1965-3.1307 2.7209-0.0587 3.3559 0.5464 5.4528-1.3402 1.6614-1.4989 3.4407-1.1814 5.3422-1.0522 0.47993 0.0339 0.96726 0.0553 1.4657 0.0305 2.289-0.10727 3.4889-2.0379 5.8037-2.0564 2.9092-0.0237 5.1281-2.1044 8.0557-2.1671 2.7468-0.059 3.5258-2.2484 5.8777-2.8797 2.8686-0.77164 5.7592 0.77531 8.639 0.53161 1.7979-0.1513 1.5838-2.8501 1.9493-4.1461 0.1588-0.56118 1.222-2.684 2.289-3.7807-7.2729-0.57587-6.2763-8.5688-5.9143-14.306z" fill="#a3b0a3" />
  </g>
  <g>
   <path d="m261.79 123.21 3.2929 7.1346v4.9394l-4.9393 6.037v3.2929l7.6834 7.1346-17.013 10.428-12.074-7.6834-8.781 6.5858-8.2322-0.54881-3.8417 1.0976-2.7441 2.7441 1.6464 7.1346-1.6464 3.2929-41.71 1.6464v-6.5858l-7.1346-4.9393-4.9394 1.0976-8.781-3.8417-1.6465-4.9394 4.9393-4.9393-0.54879-7.1346-8.781-9.3299-4.9393 1.6465-3.2929-0.54883-9.8786-6.037-3.2929-10.428-7.1346 1.6464 8.781-13.72-5.4881-5.4882-3.8417 1.6464-4.9393-2.1953-1.6464 2.7441-9.3299-1.0976-1.0976-2.7441 5.4881-8.781-9.3299-5.4882-10.427-1.6464-5.4882-1.6464-3.2929-4.9393-12.074-3.2929-5.4882-6.037 2.7441-8.2322-1.0976-1.6464-13.72-7.1346-1.6464-3.2929h-16.464" stroke-width=".5px"/>
   <path d="m261.79 118.05 3.781-3.6193 5.4014 2.4128 2.7007-5.4289 7.0218-5.4289 1.0803-5.4289-3.781-6.0321-11.343 3.0161-3.781 1.8096-2.1606-3.6193-7.562-0.60322-5.9415-4.8257-4.8613 3.6193-4.8612-0.60321-4.8613 4.2225-3.7809 4.8257h-8.6422l-2.7007-3.016-4.3211 3.016-4.3211-2.4128-3.7809 2.4128-3.781-4.2225-9.1823-1.2064-4.3211-1.8096-2.7007-1.8096 3.781-5.4289 1.0803-7.2385-3.2408-2.4128-5.9415 0.60321-8.1021 2.4128-3.781 7.2385-4.3211-3.6193h-7.0218l-5.4014-1.8096-5.4014 4.2225 1.0803 3.0161-3.2408 5.4289-4.8612-1.2064v3.0161l5.4014 4.8257-14.584 5.4289-5.4014 12.667" stroke-width=".5px"/>
   <path d="m261.79 118.05v5.1569" stroke-width=".26459px"/>
  </g>
 </g>
 <g fill-rule="evenodd" stroke-width=".18333">
  <ellipse cx="28.557" cy="48.941" rx="3.7314" ry="3.901"/>
  <ellipse cx="105.9" cy="92.53" rx="3.7314" ry="3.901"/>
  <ellipse cx="262.28" cy="120.68" rx="3.7314" ry="3.901"/>
  <ellipse cx="186.29" cy="77.944" rx="3.7314" ry="3.901"/>
 </g>
 <g fill="#000000" font-family="sans-serif" font-size="3.5278px" letter-spacing="0px" stroke-width=".26459" word-spacing="0px">
  <text x="14.649232" y="41.986816" style="line-height:1.25" xml:space="preserve"><tspan x="14.649232" y="41.986816" font-size="5.6446px" stroke-width=".26459">Tawang</tspan></text>
  <text x="108.95134" y="87.102585" style="line-height:1.25" xml:space="preserve"><tspan x="108.95134" y="87.102585" font-size="5.6446px" stroke-width=".26459">Bomdilla</tspan></text>
  <text x="174.42009" y="70.48098" style="line-height:1.25" xml:space="preserve"><tspan x="174.42009" y="70.48098" font-size="5.6446px" stroke-width=".26459">Seppa</tspan></text>
  <text x="231.74763" y="123.05951" style="line-height:1.25" xml:space="preserve"><tspan x="231.74763" y="123.05951" font-size="5.6446px" stroke-width=".26459">Itanagar</tspan></text>
 </g>
</svg>
