<svg width="187.91mm" height="285.07mm" version="1.1" viewBox="0 0 187.91541 285.06753" xmlns="http://www.w3.org/2000/svg" xmlns:cc="http://creativecommons.org/ns#" xmlns:dc="http://purl.org/dc/elements/1.1/" xmlns:rdf="http://www.w3.org/1999/02/22-rdf-syntax-ns#">
 <metadata>
  <rdf:RDF>
   <cc:Work rdf:about="">
    <dc:format>image/svg+xml</dc:format>
    <dc:type rdf:resource="http://purl.org/dc/dcmitype/StillImage"/>
    <dc:title/>
   </cc:Work>
  </rdf:RDF>
 </metadata>
 <g transform="translate(-20.259 -3.1468)" stroke="#fff" stroke-width=".5">
  <path d="m145.4 65.562 2.9201 1.1518 4.121 1.1787 2.0291 1.2958 2.155 2.7805 0.64337 2.704 2.0921 1.7861 4.3055 0.87283 1.3857-0.75137 4.1842 1.6242 3.2304 2.875 2.587 0.11702 3.1672 0.28344 3.2933 1.9526 1.3857 0.61184 1.2013 1.0123 1.8446-1.5072 1.5747-2.7805 1.5747-1.7186 2.3395-0.26094 0.37341 3.2483-2.983 3.1313-1.5747 2.1865 2.4655 1.1068 2.524-0.04954 1.6376-0.4679 0.49942-2.4025 0.95383-2.398 1.4487-2.191 2.4655 1.1788 2.4025 3.1313 1.7187 2.6635 1.9661 3.8106 0.89082 0.56688 0.31043 2.47 0.063 2.803 1.3272 3.5316-0.063 4.0222-2.0921 2.4475-5.6328 3.6711-3.6668 3.7432-3.8511 4.0222-1.3857 4.166-5.3854 6.0514-0.4364 4.7511-3.6037 3.0143-2.9198 1.0123-2.2765 0.72885-4.4316 1.6466-3.2304 1.9526-2.155 2.0246-3.6668 4.166-2.7128-4.472-2.0291-0.42292-2.155-1.3632-1.7816-1.2237-1.8401-1.0123-1.1383-3.0818 0.24743-2.8751v-3.5316l-0.64335-2.164-1.0753-1.7186-4.31-0.35091-3.6037-0.80083-1.7816 0.87283-0.58035 1.0123-1.2012-1.4352-1.7817-1.5072-1.5117-1.2958-0.37338-3.6711-2.2765-3.5316-0.9538-2.38v-1.5747l0.76481-1.2957 0.76484-2.848-1.1382-2.1641-0.9538-1.5521 1.7186-3.6936v-5.2234l0.37341-2.7985 3.9951-3.4823 1.3902-1.1068 2.8568-1.0798 3.4149-3.6936 0.82784-2.848 2.2765-2.5915-0.37338-3.4824 1.1382-3.9322-1.5116-2.848z" fill="#cc2" id="Yamunanagar" />
  <path d="m67.508 141.18 2.2766-1.1518 3.5407-0.87283 3.1043-0.5669 3.7298-2.164 2.7939-3.1763 2.587-3.0143 2.5285-3.4599 4.2471-3.9547 2.8568-0.94031 4.5575-2.8748 2.6499-1.9751 4.5577-1.9031 3.9322 0.9673 2.9198 2.236 2.2765 2.7039 3.6037 2.1641 3.4192 2.236 4.0581 2.5195 3.4149 2.3035 1.9661 2.4475 1.7186 1.8581 2.4655 0.42292 3.0459-1.8626-0.64333-1.8581 0.31043-3.4598 0.31043-0.42292 0.58035-1.0123 1.7816-0.87283 3.6037 0.80083 4.3055 0.35544 1.0753 1.7186 0.63888 2.1641v3.5316l-0.24743 2.8751 1.1383 3.0818 1.8446 1.0123 1.7817 1.2237 2.155 1.3632 2.0291 0.42292 2.7128 4.472 0.0629 0.80083 0.31046 2.5195 0.43639 2.0246-1.5117 2.8748-1.6377 2.092-0.70636 1.9526-1.6376 5.3179-5.9343-5.4574-1.9031-1.5747-2.9829-1.2958-2.8569-0.072-1.9661 0.072-3.3562-0.4229-2.4655-0.56688-2.0291 0.94029-2.2766 0.72885-2.029 0.94032-2.8569 0.66136-2.155-0.14405-3.1674-0.072-3.4778 0.35542-4.0581 1.1518-3.1043 1.0843-4.2426 1.2957-3.8738 0.72887-4.3055 2.5195-3.7882 4.472-5.138-2.0966-1.9076-1.5747-2.2765-4.3775-3.8511-2.5195-2.7939-1.0123-2.5285-1.2238-1.0753-4.7556-6.7082-5.1064-1.6377-2.7985 0.82781-3.1763z" fill="#e2b584" id="Kurukshetra" />
  <path d="m67.508 141.18 1.0168 1.5072-0.82779 3.1763 1.6376 2.803 6.7082 5.1064 1.0753 4.7556 2.5285 1.2237 2.7939 1.0123 3.8511 2.5195 2.2765 4.3775 1.9076 1.5792 5.138 2.0921-1.2012 1.3632-1.4487 3.6037-0.89082 6.1908 0.31045 6.2626-0.82787 5.1064-0.49937 5.7632 0.18449 5.0389-0.70186 5.2505-0.64335 3.3878-0.31043 1.7186-1.7816 5.6012-1.5117 3.3158-3.1043 5.3225-0.64335 4.9669-0.37346-2.5195-1.2013-0.14406-2.524-0.72883-3.3562-1.0843-2.983-1.7187-3.1672-2.0246-4.679-1.9526-1.9661-2.236-3.9368 0.35091-0.31043-4.8948-1.5117-1.0123-0.89079-1.5747-2.524-2.164-0.9538-2.1641-0.58039-1.5746 0.06294-2.3081-0.24742-1.7186 0.06294-2.731-0.31043-2.4475-1.2642-2.8705-2.4025-2.0246-2.7939-1.5747-2.713-1.5072-2.5286-0.35539-3.6668-2.3035-1.6376-2.164-1.9031-2.8705 0.06294-2.5195-0.70188-3.2438-1.9661-2.452-1.7816 2.731 0.9538-3.3204 1.3902-4.1662-1.8446-2.731-2.0291-0.86831-3.4778-1.1518-2.155-1.7186-0.18444-3.3204 0.43641-1.5747 2.4025 1.0123 3.0459 0.72884 1.3857-2.0246-2.8568-3.4598-1.3857-1.7186 3.0459-1.8581 1.9076-2.731 0.24742-3.0143-1.0753-3.0143-0.49489-2.4475 2.0291-3.7432 0.06294-2.3755-2.2135-1.7861-2.6499-2.236 0.12604-2.7985 1.9031-0.72885h3.9368l1.8446 2.5869 2.0921 2.4475 2.218 1.1517 2.524 1.3632 2.9198 1.0843 1.3227-0.72885 1.5117-1.7862-1.0753-1.6466-1.5117-1.8626 2.0291-3.4599 1.3227 2.4475 2.2765 3.1763 3.1675-1.8581 0.55787-3.1808 2.4025-2.9423 0.95378 0.35541 1.2642 3.4599 1.5747 4.7556 2.776 3.1763 4.679 2.0921 1.9031 0.87283z" fill="#f9d3c6" id="Kaithal" />
  <path d="m158.44 166.07-2.0291 2.0966-0.82781 2.5194-0.64339 3.3204-0.31043 3.1763-0.82781 2.9423-0.24742 2.9423-0.64336 3.4598-1.9031 2.0246-1.8447 2.3035-1.3272 3.5994-1.3228 3.7432-1.4487 2.3755v1.2238l-0.063 3.8152-1.1382-0.072-1.3857 2.731-0.58037 3.3158-0.12616 2.452 0.55787 3.5994-0.76484 1.4352-2.2136 2.0245-1.7816 2.0246 0.18905 2.0246-1.8446 1.8581-1.7186 1.8581-1.0753 1.0123-4.1842 1.2238-4.4945 0.35094-6.6495-2.8705-1.9661-1.5747-5.0119-1.0123-2.2135-0.56688-2.7939-1.0123-2.2766 1.2913-2.7939-2.515-1.9031-3.5316-1.7186-0.28346-1.9661-0.94029-5.3225-5.1064 0.64338-3.3878 0.70186-5.2504-0.18449-5.0344 0.4994-5.7678 0.82782-5.1064-0.31043-6.2626 0.89082-6.1906 1.4487-3.5994 1.2013-1.3632 3.7882-4.472 4.3055-2.5195 3.8736-0.72886 4.2471-1.2957 3.1043-1.0842 4.0581-1.1518 3.4778-0.35545 3.1672 0.072 2.1551 0.13956 2.8568-0.65684 2.0291-0.94481 2.2765-0.72883 2.029-0.94034 2.4655 0.5624 3.3562 0.4229 1.9661-0.072 2.8568 0.072 2.983 1.2957 1.9031 1.5747z" fill="#a3b0a3" id="Karnal" />
  <path d="m89.951 213.26 5.3225 5.1064 1.9661 0.94029 1.7186 0.27894 1.9031 3.5319 2.7939 2.5194 2.2765-1.2958 2.7939 1.0123 2.2135 0.56685 5.0118 1.0123 1.9661 1.5747 6.6496 2.8705 4.4945-0.35098 4.1842-1.2237 1.0753-1.0123 1.7186-1.8582 1.8446-1.8581 0.12131 0.80083 1.2012 1.9526 0.37341 3.2483 0.70185 5.2459 1.6376 2.5915 1.7817 1.6467 2.0921 3.4598 1.7186 1.2913 1.0753 4.8948 0.18448 2.9423 0.24743 3.4599-0.0629 3.5994 0.18904 4.4046-0.0629 0.80083-0.43641 3.8827 0.0629 0.66137-0.18449 3.4598 0.8908 2.659 0.82787 4.1662-0.43643 3.5994 1.3272 3.8107-3.9951-2.3755h-3.1043l-3.3563-0.73334-2.5869 0.28343-2.4655-0.072-1.2642-2.164-1.4487-1.7906-2.6499-1.0123-2.587-1.2957-2.983 0.28344-2.983-0.5894-4.121-0.42288-5.138-0.87284-3.1674-1.7142-2.029-2.4475-2.983-3.2483-0.49487-1.6467-2.4655-0.56687-2.5869-0.42292-3.2933-0.49487-2.2136-1.5072h-4.0581l-3.3562-1.5747 0.12611-1.7186-1.3857-1.7186 1.2013-2.236 2.7128-2.9423 3.0459-1.7861 2.4655-1.7906 1.9661-1.5747 1.7816-2.0246 1.5747-2.443 0.95381-1.5792 1.7186-2.308 0.64335-1.7861-0.8908-2.236-1.8446-1.0123-3.3562-2.443-3.8511-0.80083-3.4778-0.87283-3.3517-0.4904-3.1043 2.7985 0.64338-4.9669 3.1043-5.3225 1.5117-3.3158 1.7816-5.6012z" fill="#abacda" id="Panipat" />
  <path d="m136.55 67.281c2.2226-2.3755 5.8173-2.7894 9.2635-2.803l1.1158-1.5702 3.1674-4.562 2.5239-3.4149-0.55788-4.1437-0.24742-3.4824-2.2765-4.1392-1.9661-3.2483-2.0291-1.6241-3.4149-1.5072-2.5286-0.9673-2.4025-0.07203-2.3395 0.26094-2.6499-0.40043-0.76484-3.6711 0.95378-2.776-1.4487-2.9423-1.7816-1.5747-2.3395-0.68386-1.9661-0.42292-0.24742-3.9322 0.0627-2.38-1.5746-1.7861-2.92-1.5522-2.7128-1.5072-3.5407-0.13946-2.3396-1.8581 0.70186-3.8827-0.8908-2.7039-2.5869-0.40042-1.9661 0.067504-2.218 0.4724-1.3857 1.1743-3.3517 3.4824 0.04044 0.56687 0.12132 3.4824 0.49939 4.0717 1.6377 2.731 2.9198 3.3428 1.7186 3.7657 1.7816 4.6836 0.63888 5.2954-0.37341 0.94031-0.49942 3.0143-0.1845 3.1763 0.37339 4.472 1.3227-0.87283 1.9076 0.94031 1.2642 3.5994 1.0753 3.0593 0.64337 2.5915 1.4487 2.2585 1.3857 2.4475 2.0921 3.0593-1.7186-0.21154-2.092 0.13951 0.82782 2.3305 1.2013 1.6242 2.092 1.9031 0.95384 1.6242 0.77381 3.5137c3.3967-1.5297 7.2164-2.0336 10.379-4.1255 1.9256-1.2732 2.8973-3.1 4.4271-4.7331z"  fill="#c2f0c2" id="Panchkula" />
  <path d="m136.55 67.281c-1.5297 1.6331-2.5014 3.4599-4.4316 4.7376-3.1629 2.0966-6.9826 2.6006-10.379 4.1255l0.0541 0.25197-2.2766 5.39-3.4824 4.4945-4.1212 0.68384-2.6498-2.0516-1.7816-0.4004-3.7298 0.94028-3.4778 1.0123-2.4655-0.67937-1.9661-0.5669-1.5747 2.4475v3.0593l1.6377 1.4352 1.2013 1.5522-3.1043 3.4103-3.2304 2.4475-3.6037 2.776-2.4655 2.7085-6.1502 2.2586-4.4945 0.89527-1.8446 1.5747-0.37343 3.1763 1.7816 1.5072 3.4149 0.14406 1.8446 0.65687 1.3273 2.308 2.2135 2.5869 0.70183 2.9423-0.06294 2.875-2.7939 4.0942-3.7252 1.8581-3.4194 1.0123-3.4778 4.8949-2.218 3.3204 2.2765-1.1518 3.5407-0.8683 3.1043-0.5669 3.7298-2.1641 2.7939-3.1808 2.587-3.0143 2.5285-3.4599 4.2426-3.9547 2.8569-0.94034 4.5574-2.8748 2.6499-1.9751 4.5532-1.9076 3.9368 0.96725 2.9198 2.2361 2.2765 2.7085 3.6037 2.164 3.4149 2.2361 4.0581 2.515 3.4149 2.308 1.966 2.4475 1.7186 1.8581 2.4655 0.42292 3.0414-1.8581-0.64335-1.8581 0.31043-3.4599 0.31043-0.4229-1.2013-1.4352-1.7816-1.5072-1.5117-1.2957-0.37344-3.6712-2.2766-3.5316-0.95378-2.3755v-1.5522l0.76484-1.2957 0.76484-2.848-1.1382-2.164-0.95381-1.5522 1.7186-3.6936v-5.2234l0.37341-2.803 3.9951-3.4824 1.3857-1.1068 2.8568-1.0798 3.4149-3.6936 0.82781-2.848 2.2766-2.5915-0.37344-3.4823 1.1382-3.9322-1.5117-2.848-1.7817-1.7861-0.24742-0.07203 0.72885-1.0213c-3.4149 0.01769-7.0094 0.43189-9.2322 2.8073z" fill="#eee" id="Ambala" />
 </g>
 <g fill="none" stroke="#345">
  <path d="m82.31 43.345 2.3826 2.6334-1.3794 1.254 1.6302 1.3794 0.75239 1.881 1.1286 2.1318 0.62699 5.0159 2.508 3.6366-2.508 4.3889-2.508 6.5207 0.1254 1.3794-2.508 6.2699-0.37619 2.8842 1.6302 4.7651-2.0064 1.5048" stroke-width=".5px"/>
  <path d="m41.102 188.16-1.9267-5.78-0.72254-3.0421-1.445-3.6505-0.24086-3.3463 0.48168-7.301-1.6859-8.5179-0.48168-4.8674-0.72251-5.4758-0.96336-5.78-0.72254-3.3463 3.1309-1.8253 2.1676-5.4758 3.6126-9.1263 1.2042-4.5632-0.96336-2.7379 4.3351-6.9968-0.96336-2.7379 3.1309-3.0421 13.969-17.948 0.24086-1.8253 6.9843-4.2589 6.2618-6.6926-3.3717-8.5179 4.5759-2.1295 2.1676-1.8253-2.6492-3.9547 3.8534-3.3463v-1.2168l0.72251-1.2168-0.48168-0.60842 1.6859-3.6505" stroke-width=".5px"/>
  <path d="m81.808 88.99-1.4367 3.6242-4.7889 8.2368-1.1972 7.2484-0.47889 6.5895v5.9305l-1.4367 5.2716-2.155 5.9305-0.47889 4.2832-0.47886 6.26-3.3523 3.9537-1.6761 2.9653-2.8734 4.6126-0.71833 3.6242-0.4789 3.6242-1.6761 0.98842-0.95779 0.32948-2.8734 4.2831-3.5917 4.6126-3.8311 5.601-4.31 8.5663-1.9156 2.6358" stroke-width=".5px"/>
  <path d="m61.455 153.9 5.248 0.656 6.7786 1.5307 2.1867 0.21866 4.8106-0.65599h3.28l1.968-0.656 1.968-0.656 3.4987-0.21867" stroke-width=".49px"/>
  <path d="m81.804 88.988 1.3985 4.4261 2.9968 3.1615 0.59936 4.4261 0.99896 5.6907v6.323l0.59936 6.0069 0.39958 5.3746 0.99894 11.381 0.99894 10.433 0.39958 7.9038 2.1977 14.227 3.796 18.337 2.7971 15.491" stroke-width=".5px"/>
  <path d="m99.985 202.17-0.21866 3.0613-0.87466 1.7493-0.43734 2.1867 0.65599 0.656-0.65599 4.8106v3.936l-0.21865 4.592-0.21868 4.1546 0.21868 4.8106-0.65602 2.8427" stroke-width=".5px"/>
  <path d="m97.579 235.18-3.5858 0.46551h-2.9135l-1.1206-0.46551-1.7929 0.93104-0.67233 0.93101-0.67236-0.69827-1.1206-0.93102h-7.3958l-1.7929-0.23276-3.1376-0.4655-2.0171-0.23276-1.1206-0.46552-2.2412-0.46551-0.67233-0.93101-1.7929-2.5603-1.3447-3.2586-1.1206-3.0258-1.1206-0.93101-1.1206-1.862-0.89646-0.93102-2.9135-1.6293-3.1376-2.0948-1.5688-0.69826-2.4653-1.3965-0.67233-0.69828-1.1206-2.3276-4.0341-7.9137-1.5688-3.2586-0.22413-0.93103-0.89646-5.1206-0.2241-5.8189" stroke-width=".5px"/>
  <path d="m99.985 202.17-1.9071 1.2076h-5.0062l-2.3839-0.24153h-2.3839l-1.9071-0.24153h-2.6223l-2.8607 0.48306h-2.1455l-3.0991-0.96611-1.192-2.8983-1.1919-1.2076-0.71516-0.48305-1.9071-0.96611-1.6687-1.4492-1.9071-0.96609-2.1455-0.48305-1.6687-0.48306-1.6688-0.72457h-5.4829l-2.8607 0.24152-2.3839-0.48305-3.0991-0.72458-2.6223-1.2076-4.0526-2.4153" stroke-width=".5px"/>
  <path d="m89.959 61.277h2.0813l3.8424 1.2252 7.3645 3.1312 2.8818 2.3143h2.5616l-0.48029 1.9059 1.1207 2.5866 3.0419 2.5866 1.9212 1.0891v2.5866l0.96059 1.2252 0.9606 0.81683 1.2808-0.13614 1.9212-1.2252 1.9212-0.54455 1.7611 0.27227 0.4803-0.68069 4.6428-1.3614 1.4409 1.6336 2.4015 5.7178 3.0419 3.4034 2.8818 0.81683 2.0813-0.95296 1.4409 0.40841-1.2808 3.1312 5.2832 4.6287 4.0025 3.6757 4.4828 2.3144-0.6404 2.8589 0.16011 3.5396-0.80051 1.2252 0.4803 0.95297-0.4803 2.7228 0.9606 3.5396-0.16009 1.3614-1.9212 1.6337 1.601 0.95297-0.64039 0.81682-0.6404 1.2252-0.96058 1.3614-2.0813 0.95295" stroke-width=".5px"/>
  <path d="m82.328 89.478 0.63988 2.4305 6.7188 3.6457 2.5595 0.67512 4.1592 0.81015 18.077 7.0213 0.63988 1.3502h3.9993l2.0796 1.4853 20.796 7.9665-0.15996 1.4853-0.95983 3.2406 1.4397 0.67512 1.9197 0.13503 3.5194 2.2954 1.1198 2.2954" stroke-width=".5px"/>
  <path d="m91.194 154.11 9.5182-2.935 9.3018-1.6537 8.0616-3.1006 7.2348-3.9274 8.8875-4.609 7.029-4.4861 4.961-3.7207 2.6876-4.693" stroke-width=".49px"/>
  <path d="m82.31 43.345 1.3133-0.82928 3.6117 1.5203 0.32833 0.96749 0.985-0.55285 1.97 0.41464 3.2833 0.41464 0.82083 1.3821 0.32833 3.0407-0.82083 2.7643 0.82083 1.3821 1.8058 0.27643 3.94 0.55285 1.8058 2.7643 0.82084-0.27643 0.65667-0.69106 7.88 3.5935 0.82083 2.626 1.4775-1.1057 7.0592 4.2846 0.65666 1.3821 0.98501 0.69106 1.8058 2.4878 2.7908 1.5203 1.6417 3.1789-0.65666 1.935" stroke-width=".5px"/>
 </g>
 <g fill-rule="evenodd" stroke-width=".38892">
  <ellipse cx="82.356" cy="43.485" rx="2.7276" ry="2.8939"/>
  <ellipse cx="94.511" cy="45.759" rx="2.7276" ry="2.8939"/>
  <ellipse cx="148.88" cy="124.93" rx="2.7276" ry="2.8939"/>
  <ellipse cx="91.204" cy="154.28" rx="2.7276" ry="2.8939"/>
  <ellipse cx="82.315" cy="89.581" rx="2.7276" ry="2.8939"/>
  <ellipse cx="41.18" cy="188.39" rx="2.7276" ry="2.8939"/>
  <ellipse cx="97.612" cy="235.1" rx="2.7276" ry="2.8939"/>
  <ellipse cx="100.09" cy="202.24" rx="2.7276" ry="2.8939"/>
 </g>
 <g fill="#000000" font-family="sans-serif" font-size="3.5278px" letter-spacing="0px" stroke-width=".26459" word-spacing="0px">
  <text x="47.091045" y="39.585808" style="line-height:1.25" xml:space="preserve"><tspan x="47.091045" y="39.585808" font-size="5.6445px" stroke-width=".26459">Chandigarh</tspan></text>
  <text x="98.578003" y="43.161285" style="line-height:1.25" xml:space="preserve"><tspan x="98.578003" y="43.161285" font-size="5.6445px" stroke-width=".26459">Panchkula</tspan></text>
  <text x="87.494003" y="245.53365" style="line-height:1.25" xml:space="preserve"><tspan x="87.494003" y="245.53365" font-size="5.6445px" stroke-width=".26459">Panipat</tspan></text>
  <text x="47.806141" y="187.25327" style="line-height:1.25" xml:space="preserve"><tspan x="47.806141" y="187.25327" font-size="5.6445px" stroke-width=".26459">Kaithal</tspan></text>
  <text x="102.51103" y="197.97972" style="line-height:1.25" xml:space="preserve"><tspan x="102.51103" y="197.97972" font-size="5.6445px" stroke-width=".26459">Karnal</tspan></text>
  <text x="77.840202" y="147.56541" style="line-height:1.25" xml:space="preserve"><tspan x="77.840202" y="147.56541" font-size="5.6445px" stroke-width=".26459">Kurukshetra</tspan></text>
  <text x="86.778908" y="91.787865" style="line-height:1.25" xml:space="preserve"><tspan x="86.778908" y="91.787865" font-size="5.6445px" stroke-width=".26459">Ambala</tspan></text>
  <text x="132.90265" y="120.03417" style="line-height:1.25" xml:space="preserve"><tspan x="132.90265" y="120.03417" font-size="5.6445px" stroke-width=".26459">Yamunanagar</tspan></text>
 </g>
</svg>
