<svg width="206.38mm" height="339.39mm" version="1.1" viewBox="0 0 206.38452 339.39007" xmlns="http://www.w3.org/2000/svg" xmlns:cc="http://creativecommons.org/ns#" xmlns:dc="http://purl.org/dc/elements/1.1/" xmlns:rdf="http://www.w3.org/1999/02/22-rdf-syntax-ns#">
 <metadata>
  <rdf:RDF>
   <cc:Work rdf:about="">
    <dc:format>image/svg+xml</dc:format>
    <dc:type rdf:resource="http://purl.org/dc/dcmitype/StillImage"/>
    <dc:title/>
   </cc:Work>
  </rdf:RDF>
 </metadata>
 <g transform="translate(-1.8008 146.63)" stroke="#fff" stroke-width=".5">
  <path d="m163.02 83.155-2.5527-1.9051-2.0279 3.387-0.23282 2.7052-0.29212 3.1244 0.77898 1.7485 3.391 1.287 3.8781 1.9728 3.0398 1.0838 2.375 2.7011-1.7358 2.1084-3.391 0.88482-4.5216 1.215-1.4817 1.9094 2.2607 1.8332 1.541 2.6374 0.46573 2.303-0.46573 2.2354-2.4343 2.9-1.9686 3.1244-3.1582 3.6536-2.4935 2.0363-2.1422 2.0364 0.29214 3.2557 0.41066 4.9364 1.795 3.8526 1.8501 4.0514 2.0279 2.3708 2.4935 1.5495 2.8662 0.1355 2.4935-1.5495 2.3794-2.5698 2.629-0.19905 2.8069 2.5698 1.6172 3.5223-0.46993 3.9204 0.71971 3.1202 1.7908 2.5699 1.0118 2.2353 0.6054 1.4182 2.2607 3.0524-2.32-1.4183-1.3082 0.40219-1.9686 1.0838-1.541 2.3666-1.541-0.61812-1.7908 0.88483-3.0398-0.33446-2.9211 0.39799-3.391 1.3505-0.0589-1.2828 1.7358-2.8999-0.71971-0.95255-1.7358 0.2625-3.6452 2.8321-1.9093 1.0838-2.32-0.33021-1.6172-1.0203-3.0398-1.2828-2.4343 0.0635-1.7908 1.2193-0.71971 1.6808 1.3039 1.1515 1.9686 2.1041 2.4343 1.5495 1.3632 1.3505-1.1896 2.7011h-1.9687l-3.0398-1.4182-1.8501 0.0678-1.0118 2.5698-1.1897 3.7848v4.0514l-2.2607 2.0363-1.6172 2.3073-0.41064-2.3073-0.11867-1.7485-1.541-0.33445-1.0118 0.75358-1.6172 0.81712-2.3794-0.95261-0.71969-1.3505-1.5411-2.4343 0.3514-1.7527 1.3632 0.39799 2.0279-1.4818-1.0118-1.613-1.8501-1.6808 1.0711-2.3708 0.77897-4.0514 0.35138-3.5223 0.41066-4.7416 1.6173-7.0405 0.0592-4.3437-0.11414-8.5264 0.7197-3.9204-0.11867-4.2716 1.9093-3.0566 2.2015-2.9042 2.2608-2.3666 0.29209-2.8364-1.1896-2.1718-2.4937-1.3505-1.3632-2.303-1.304-1.9728-1.3632-0.19905-1.4817-0.82132-2.2015-1.9686-1.2489-2.9042-2.1422-1.9051-2.2014 0.39796-2.2015 0.46146-0.89753-1.1516-0.23282-2.6968-0.83821-3.5266-0.71971-2.8324-0.77899-3.6536-4.2845-3.099-2.9806-0.33021-1.4225-4.2759 0.29211-2.8324 0.17789-3.9204 0.54613-3.1244 1.7908-3.5223 3.645-2.5698 2.8069-2.0364 2.8069-1.4817 2.4343-0.95255 1.9094-0.6901 1.2489-0.82133 3.3318 1.9051 1.0711-2.4343 1.541 0.68582 2.0829-0.26669 3.391-0.26671 2.9211-0.46569 3.5646-0.0635 3.9965 1.215 2.4343-0.39794 2.0279 0.82133 1.1304 2.8364 0.525 2.9889 0.95676 1.7485 0.6054 1.6172 2.2608 1.9093 2.629 0.19905 0.89752 1.9686z" fill="#cc2" id="Gurugram" />
  <path d="m181.5 67.982 1.0711-1.4817 1.1304 1.5495 0.95681 2.7687 1.2489 0.95253 2.4935 1.7485 1.9093 0.82133 1.9094 1.6172 1.9094 1.3505 1.541 3.0566 2.4935 0.33447 3.0398 1.3505 1.6765 0.39796-0.11869 2.5698 0.29212 2.0363 0.41066 3.1922-0.89752 3.0524-2.083 1.3505-1.7358 0.26671-1.1304 1.2151 1.8501 1.8374 0.54613 2.3708-0.1736 1.6172 1.0118 2.4343 1.9094 1.2193 2.375 0.95253-0.23283 2.8324-0.89752 2.3073 0.66467 0.75357 0.60542 0.59697 2.629 0.39794-0.17361 1.2828-2.0279 1.4183-1.8501 1.7484-1.9094 1.9052-0.77896 2.9889-0.35138 3.3235-1.0711 3.5858-0.35135 3.1244 1.4817 0.95252 2.2608 1.1558 1.4225 2.0998-0.77898 2.8324 0.60539 3.3232 0.89755 2.5063-0.83828 2.8324-1.4225 0.69005-1.541 0.53343-1.304 2.2354-2.2014 2.5063-1.0118 1.5495-2.0279 0.8213-3.7594 1.0161-3.7045 2.0364-3.8186 2.7054-2.2607 3.7213-2.2608-3.0566-0.6054-1.414-1.0118-2.2395-1.7908-2.5656-0.71971-3.1244 0.46567-3.9244-1.6172-3.5223-2.8069-2.5698-2.629 0.19906-2.3794 2.5698-2.4935 1.5537-2.8662-0.13549-2.4935-1.5495-2.0279-2.3708-1.8501-4.0514-1.7908-3.8526-0.41065-4.9406-0.29213-3.2514 2.1422-2.0364 2.4935-2.0363 3.1582-3.6536 1.9686-3.1201 2.4343-2.9042 0.46993-2.2353-0.46993-2.3073-1.541-2.6333-2.2607-1.8374 1.4817-1.9051 4.5214-1.2193 3.391-0.88059 1.7358-2.1083-2.3794-2.7011-3.0398-1.0795-3.8781-1.9729-3.391-1.2828-0.77896-1.7527 0.2921-3.1202 0.23282-2.7011 2.0279-3.387 2.5527 1.9051-0.11869-2.9042 1.7908 0.39794 2.0279 0.13127 1.7358-1.6172-1.0118-2.5021 2.4935-4.2082 0.83823-2.8999 3.2726-0.82133 2.9805-1.2193h2.1422z" fill="#e2b584" id="Faridabad" />
  <path d="m29.75 82.132 2.0279 5.6222 1.1304 3.387 2.1422 1.5537 0.83823 2.2353-0.83823 1.2193 0.60541 2.1676 2.2015 0.62234 2.9805 0.33444 4.6358 2.1676v1.5537l0.83825 0.88482 2.4935 3.5223 0.77897 1.4818 2.7475 1.613 1.2447 3.5223-0.1736 2.3073 1.1896 2.8324 1.1897 2.5064-0.89752 1.5495-1.9686 1.4818 1.304 2.0363 2.0279 1.9094 0.89752 2.5698-2.375 1.8374-2.5527 1.1515-4.4029-1.4818-2.6291-1.4818-2.553 0.8171-2.2608 0.82132-2.7475 1.4818-2.4343 0.68161-1.3039 1.4818 0.35137 2.8364 1.3039 2.8324 1.7358 2.3031-0.52496 3.2514-1.1304 4.4707 1.3632 1.6172 2.6883 1.7527 1.2489 2.1675-0.66467 2.8364 0.71973 1.8374 1.1896 3.0524-1.1896 1.2828-1.6172 1.0203-3.2726 1.0838-1.7315-0.53343-1.3632-1.6808-1.4225-2.5698-1.6172 0.88477-0.05929-2.3708-1.2489-1.0203-1.4817-0.68162-1.1304 0.13133-1.9686 0.1355-2.553 0.1355-2.6883 0.61812-2.6883 1.0203-2.32-1.6892-2.2607-3.8483-0.52498-3.4545-1.8501-1.1515-1.8501-1.088-1.2489-0.52919 0.059217-2.7054 1.0711-0.68584h1.0118l1.6765 0.53343 2.2015-0.39797 1.4817-0.95256 0.89754-2.4343-0.89754-2.2354-0.52496-1.9728-0.46992-1.9051-1.0118-2.7011 2.32-0.19905 2.2608-0.0635 2.4935-2.1718 1.9094-2.9042-1.8501-2.7687-2.553-1.088-1.6172 0.95258-2.8662 0.4022-3.3318-0.68586-1.0118-1.7527 2.4343-1.9051 2.9805-1.0838 3.2174-2.8324 2.1422-2.0363 1.8501 0.5334 1.4817 1.3505 1.6172 0.53341 0.35137-1.4182-0.1186-1.5495-1.6765-2.8364-1.0711-2.4343-2.9211-2.4343-2.32-2.5699 0.17789-2.0364 0.17356-3.1244-0.41066-3.2557-3.3318-2.4342-4.2885-1.9051-2.32-1.4818-1.9094-2.1718-1.3039-1.7485 1.2489-3.2557 1.8501-1.2193 4.1109-0.39794 2.0279 0.26671 3.8186-1.0838 3.8781-1.4817 4.8897 0.53342 4.949-0.26671z" fill="#abacda" id="Mahendragarh" />
  <path d="m51.013 87.745 2.32 1.0203 2.4343 1.5495 2.4935-0.06374 2.2014-1.287 2.8662-1.9729 2.4343-0.59692 1.1304 2.5698 0.66465 2.1041 2.4343 0.88485 3.5646 0.26248 3.2726-0.52922 3.7594-0.4022 2.8662 0.26671 3.099 0.26248 3.2174 0.13556 2.2015-0.61809 1.4818-1.1558 0.17789-1.7485 0.7197-2.1718 1.8501-1.4818 2.7475 1.0838 1.6173 2.2353 1.6765 0.75357 2.6883-0.13556 2.32 0.6901 2.0279 3.0566 2.9806 0.33021 4.2885 3.1244 0.779 3.6536 0.7197 2.8365 0.83824 3.5223 0.23282 2.7011 0.8975 1.1558-2.3794 2.2353-3.391 2.5698-3.1582 2.4343-2.7477 2.4343-3.0398 1.4818-2.8662 1.6172-2.4343 1.3505-1.541 3.6536-0.60541 4.0514-1.3632 3.7848-1.2447 2.1083-2.2607 1.414-2.32 1.0838-3.391 1.9093-3.3913 1.613-2.2607-0.13133-0.11867-1.9094-0.23282-2.8324 1.1897-2.7052-1.1897-2.2989h-1.5411l-1.6172 1.2151-2.1422 0.75781-0.71973-1.9729 1.2489-2.0364 0.05921-1.6172-1.3632-1.287-2.0279-1.0838-0.83825-1.5495 1.7358-0.68585 2.1422-0.81707 1.6172-0.95257-1.6172-2.5698-2.9211-1.088-3.9373-0.19907-2.6883 0.59693-2.9211 0.0635-1.6172-1.414-3.5097-3.2557-2.9211-1.7527h-2.0829l-1.2489-3.5222-2.7477-1.613-0.77899-1.4818-2.4935-3.5266-0.83825-0.8806v-1.5537l-4.6358-2.1718-2.9805-0.33023-2.2015-0.6223-0.60538-2.1676 0.83823-1.2193-0.83823-2.2353-2.1422-1.5537-1.1304-3.387-2.0279-5.6222 5.4148 2.4978 3.2726 1.3505 4.6357 0.95679h3.3318z" fill="#a3b0a3" id="Rewari" />
 </g>
 <g fill="none" stroke="#345">
  <path d="m121.35 3.4308 4.0902 6.6931v4.0902l2.231 2.9747-2.231 4.0902-3.3465 9.6678v2.9747l1.8592 5.5776 2.6028 2.231 0.74368 4.0902 1.8592 14.502 2.9747 20.823 6.3212 18.964 2.231 0.74367v2.231l-2.6029 4.462-1.1155 23.426 3.3465 10.411 10.411 41.646 1.1155 7.0649 2.6028 4.0902-4.8339 5.9494 3.7184 5.5776-2.231 1.8592-0.74368 2.231-2.231 2.9747-5.9494 5.9494" stroke-width=".492px"/>
  <path d="m154.05 194.18 2.7419-0.67877 3.4274-0.67878 1.371 1.3576 2.3992-2.3757 3.0847-1.0182 4.7984 0.33938 0.34275-2.7151 7.5403-9.8422v-6.109c0-2.0363 3.7702-11.2 3.7702-11.2l4.1129-10.182-3.0847-3.3939-5.8266-4.0726-1.0282-3.3939-10.282-15.951-16.452-15.272-2.742-1.3576v-1.3575l-7.5403-5.4302" stroke-width=".49px"/>
  <path d="m144.87 159.89-2.159 2.159-2.159 2.159-2.159 2.6987-4.318 1.6192-2.6987 5.9372-4.8577 7.5564v4.8577l-1.0795 3.2385 2.6987 4.8577 3.7782 1.6192-0.53975 4.8577 4.318 4.318v1.6192l2.159 3.2385 4.318 8.0962" stroke-width=".5px"/>
  <path d="m154.45 194.18 8.3386 1.1336 1.1118 3.7788 3.8914 3.023-2.7795 2.6451 2.2236 4.1566-0.55592 2.2673 5.5591 5.2903 1.6677 8.6912" stroke-width=".5px"/>
  <path d="m88.792 187.1-4.3419 2.5551-8.6837 2.1293-8.0635 3.4068-8.0635 0.42585-4.3419 10.646-4.3419 2.1293v7.6653l1.8608 3.4068-9.9242 6.8136-11.785 11.498-2.4811 9.3687 2.4811 8.0912-0.62026 5.9619-4.9621 15.331" stroke-width=".5px"/>
  <path d="m88.868 187.01 6.2067-7.2411 2.5861-4.655 2.5861-3.1033 2.0689-6.7239 0.51723-3.6206 2.0689-2.0689 4.1378-1.5517-1.0344-4.1378 3.1033-4.1378 5.1722-3.1033 1.5517-3.1033v-3.1033l4.655-1.0344 3.1034-3.6206 5.6894-4.655h5.6894" stroke-width=".5px"/>
  <path d="m108.47 178.44-6.0923 0.94933 3.0461 9.4934 0.43517 9.0187v4.7467l4.3516 4.272-0.43516 5.696-0.87033 7.12-0.87033 0.94934 0.43516 7.5947-0.87033 4.7467-2.1758 4.272-1.3055 4.272-0.43517 8.0694 1.3055 7.12" stroke-width=".49px"/>
  <path d="m100.25 172.01 5.1421 1.886 3.0853 4.5265 2.0568 3.7721 4.6279 5.2809 10.284 2.6404" stroke-width=".49px"/>
  <path d="m25.525 276.53 8.6686-1.2755 6.5015-2.551 5.7791-0.63777 10.113-5.1021 6.5015-2.5511 6.5015-0.63776 11.558-4.4643 5.7791-1.9133 18.06-0.63776" stroke-width=".499px"/>
  <path d="m142.18 218.72-4.51 7.584-2.8484 4.1316-0.39561 4.075-3.6792 2.3205-5.7364 7.6406-3.244 6.3955-1.6616 3.509h-3.6792l-4.0748 0.62257h-3.6792l-3.6792 1.7545" stroke-width=".5px"/>
  <path d="m142.18 218.72 4.4617 0.49573 4.4616 0.99149 3.9659 4.9574 3.9659 2.9744 5.9489 1.4872 2.4787-1.983 6.4446-2.4787" stroke-width=".49985px"/>
 </g>
 <g fill-rule="evenodd" stroke-width=".50708">
  <ellipse cx="25.338" cy="276.36" rx="3.5681" ry="3.6573"/>
  <ellipse cx="104.97" cy="256.7" rx="3.5681" ry="3.6573"/>
  <ellipse cx="142.46" cy="218.52" rx="3.5681" ry="3.6573"/>
  <ellipse cx="174.23" cy="225.15" rx="3.5681" ry="3.6573"/>
  <ellipse cx="121.66" cy="3.6563" rx="3.5681" ry="3.6573"/>
 </g>
 <text x="129.43236" y="5.9421244" fill="#000000" font-family="sans-serif" font-size="3.5278px" letter-spacing="0px" stroke-width=".26459" word-spacing="0px" style="line-height:1.25" xml:space="preserve"><tspan x="129.43236" y="5.9421244" font-size="5.6446px" stroke-width=".26459">Chandigarh</tspan></text>
 <ellipse cx="151.15" cy="198.64" rx="3.5681" ry="3.6573" fill-rule="evenodd" stroke-width=".50708"/>
 <g fill="#000000" font-family="sans-serif" letter-spacing="0px" stroke-width=".26459" word-spacing="0px">
  <text x="11.483396" y="287.78531" font-size="3.5278px" style="line-height:1.25" xml:space="preserve"><tspan x="11.483396" y="287.78531" font-size="5.6446px" stroke-width=".26459">Narnaul</tspan></text>
  <text x="79.372627" y="252.81206" font-size="3.5278px" style="line-height:1.25" xml:space="preserve"><tspan x="79.372627" y="252.81206" font-size="6.3501px" stroke-width=".26459">Rewari</tspan></text>
  <text x="110.00278" y="224.9249" font-size="3.5278px" style="line-height:1.25" xml:space="preserve"><tspan x="110.00278" y="224.9249" font-size="5.6446px" stroke-width=".26459">Gurugram</tspan></text>
  <text x="166.00569" y="235.8969" font-size="3.5278px" style="line-height:1.25" xml:space="preserve"><tspan x="166.00569" y="235.8969" font-size="5.6446px" stroke-width=".26459">Faridabad</tspan></text>
  <text x="135.14694" y="186.5229" font-size="5.6446px" style="line-height:1.25" xml:space="preserve"><tspan x="135.14694" y="186.5229">New </tspan><tspan x="135.14694" y="193.57861">Delhi</tspan></text>
 </g>
</svg>
