<svg width="218.86mm" height="206.02mm" version="1.1" viewBox="0 0 218.86647 206.01229" xmlns="http://www.w3.org/2000/svg" xmlns:cc="http://creativecommons.org/ns#" xmlns:dc="http://purl.org/dc/elements/1.1/" xmlns:rdf="http://www.w3.org/1999/02/22-rdf-syntax-ns#">
 <metadata>
  <rdf:RDF>
   <cc:Work rdf:about="">
    <dc:format>image/svg+xml</dc:format>
    <dc:type rdf:resource="http://purl.org/dc/dcmitype/StillImage"/>
    <dc:title/>
   </cc:Work>
  </rdf:RDF>
 </metadata>
 <g transform="translate(-2.0524 -7.6864)" stroke="#fff" stroke-width=".5">
  <path d="m124.52 83.941 0.64962-2.5522 1.122-1.3968 0.75744-1.235 0.68557-0.6984 1.158-0.36461-0.17717 1.3968 0.072 1.1554 1.5945-0.57771 1.4071-0.98085 1.0861 0.0411 1.0527 1.5175 1.0168-1.5586 1.1221 1.3968 0.40054 1.8538-0.0359 1.4379 1.0887 1.6382 0.93463 1.235 2.0926 1.3172 1.4405 0.20028 1.5482 0.85759 1.5945 0.89868 1.3711 1.1554 0.7215 1.6382 0.17716 1.3994-0.0359 1.556 0.14121 0.98083-0.0359 1.3147 0.3312 0.89865 0.54434 1.2351 1.4431 1.235 0.50841 0.90125 0.86272 0.57771 0.17717 2.7935 2.2467-0.20027 1.1221 1.2735 2.6703 1.1144 1.8077 1.1554 1.7024 0.98085 1.9154 0.61878 1.4431 0.41597 0.68555 0.0797 0.21312 1.4379 1.7716-1.5997 1.9154 0.28245 1.9848 0.49813 2.1978 0.45703 1.9154 1.3968 1.0527 0.57771 0.50838 1.2761-0.36718 1.0219-0.98082 1.3146-0.54435 0.89867-0.89867 1.3968-1.0168 1.1554-1.1221 0.89867-1.4071 1.0219-1.7383 1.0219-1.5484 1.6792-0.68554 1.2735 0.79083 0.98086-0.072 0.98084 1.9154 0.89868h2.316l1.2633 0.86014 1.8795 0.28245 1.4764 0.24134 1.4071 0.32355 0.28501 0.93975-1.4764 0.85761-2.601 0.49809-2.6703-0.2439-2.6704-0.89868-1.8795-0.36204-1.9489 0.81908-1.2992 1.2761-1.3352 1.6382-1.0861 0.49554h-1.6665l-1.7383-0.1207-1.0527 1.3942 0.1412 1.5996 0.54435 2.4572-0.79083 2.714-0.57773 1.4764-0.10783 2.7526-0.86271 1.8538-0.98085 2.9554-0.64961-1.5586-1.5483-0.41592-0.40055 0.81906-0.79085-3.0761-1.9848-1.1966-1.9848-2.0566-1.3711-1.2761-2.7782-3.0735-1.4764-2.0542-1.7024-1.1555-1.5945-2.0951-0.64961-1.5586-0.0359-2.6729 0.1412-1.8127 0.93463-0.7369-0.47245-1.0219-0.89867-1.4353-0.33123-2.0566-0.54434-1.6792-0.50839-1.7588-2.3879-2.1362-2.352-1.0604-1.5945 0.0797-1.6304 0.81907-1.8436-0.45703-1.0861-1.1939-1.0887-1.5586-1.3711-2.2159-1.8075-1.063-2.0927-1.3557-2.7422-0.45705-2.7063-1.0604-2.6703-0.89868-1.0527-0.90125 1.194-1.6382 1.6304-2.1362 1.4071-2.714 0.98085-2.4983 0.47244-1.8538-0.31839-2.8731-0.47245-1.7203 0.79084-0.57773 1.7716-1.5586 1.122-1.235 1.9513-1.3146 1.5484-0.86017 1.0527-0.53662 1.2658-1.8127 1.2274-1.4764z" fill="#e2b584" id="Jind" />
  <path d="m177.45 132.19 1.7024 1.8538 1.158 1.3968 1.8075 0.98084 2.9297 0.49815 2.3519 0.24135 1.7024 0.33636 1.7024-0.16176 1.4764 0.73947 1.5123 0.57771 0.8268 1.0194 0.72147 1.235 1.4071 0.0412 1.4764-0.16177 1.9154 0.41851h1.7716l2.28 1.3558-1.2992 1.1965 0.98085 2.7114 0.21309 2.2955 0.61367 2.3777 0.54435 2.0952 0.40056 2.257 0.17717 1.8538 0.36718 1.0219 0.98083 1.479 0.86273 1.1554 0.40056 0.73948 0.2131 0.45704-0.43649 0.86016-1.0168 1.7203 0.24907 1.235 0.93462 1.0604 0.50838 1.2761 0.47245 1.4353-0.17716 1.6382-0.14121 3.2917-0.8987-1.8127-1.1221-0.57772-0.58028-0.98085-0.61366-1.4353-0.93463-1.936-1.0168-1.235-2.0927-0.65988-2.601 0.20285-1.9515 0.78055-1.8076 0.8576-1.0861 0.65732-1.158 2.7935-0.89866-2.7526-0.79083-1.4764-0.68557-1.5586-1.2633-2.7141-0.86272-1.479-2.0207-1.4764-2.3879-2.257-1.2658-0.61879-2.0925-0.32352-1.194-0.0797-2.4239 0.73947-1.4764 0.89867h-2.0926l-1.8077-0.65988-1.5484-1.0604-1.9489-1.0194-1.5124-0.20284-1.6304 0.49812-1.4071 0.24392-1.9154-0.0822-2.3879-0.53663-1.9515-0.9783-2.388-1.4353-1.8077 0.32097 0.98084-2.9554 0.86273-1.8538 0.10528-2.7526 0.58027-1.4764 0.79085-2.7141-0.54436-2.4572-0.1412-1.5997 1.0527-1.3968 1.7357 0.1207h1.6663l1.0861-0.49812 1.3352-1.6382 1.2992-1.2761 1.9514-0.81911 1.8795 0.36205 2.6704 0.89866 2.6704 0.24136 2.6011-0.49555z" fill="#a3b0a3" id="Sonipat" />
  <path d="m5.496 72.027 0.93462-2.0542h2.1619l2.8116 1.0604 2.4932 0.0411 1.7716 0.28244 1.7357-1.1554 1.2992-2.1748 1.2299-1.9746 1.1221-0.81908 1.2299-0.20028 0.17716 1.0604 0.82678-0.57771 0.75746 0.57771 1.7024-1.1554 1.0527-0.16177 1.2992 0.45705 2.1978 1.2761 1.6304 1.3968 1.3352 0.73947 3.0376 0.81908 1.4404 0.81907 0.93462 2.0566 2.6703 1.5149 2.352 1.5201 2.6344 0.49556 1.4071-1.6382 0.31838-1.235 0.82678-0.89868 1.0527 0.57772 1.5945 2.1362-0.5084 1.8538-0.64962 2.1748-0.61367 2.1362 0.07188 0.98083 0.98085 0.1592 1.5483 0.49811 0.58028 1.479 1.3711 0.36203-0.47246-1.4379 0.21312-2.3751 1.0861-1.4764 1.9489 0.41597 1.1221 1.3146 0.43649 1.7203 0.86272 1.8949 0.86272 1.3968-0.285 1.6382-1.158 0.89868-1.158 1.6792-0.24906 1.2761 1.0861 0.93976-0.5084 1.2761-1.9154 0.89868-1.1221 1.8127 0.72152 1.895 1.2299 0.41593 1.0168 0.20028 0.86272 0.81909 0.4365 1.4353 0.36461 1.3968 1.1221 1.235 1.1221 0.89868 1.0861 0.65732 1.0527-0.32353 0.89868 0.41594 0.21312 2.1748 0.14122 1.9334-0.28501 2.1748-1.194 1.9335-0.98085 0.53665-1.0527 1.0193-1.2299 0.86016 0.07188 1.6793 0.17716 1.8127 1.5123 1.1965 1.8077 0.57773 1.7383 1.5971 0.14122 1.3994-0.5084 1.1529-1.8077-0.32353-1.4764 0.57773-1.0168-0.0797 1.0861 1.1554 0.98084 0.32353 0.82678 0.81908 0.54434 0.6188 0.03594 1.8923-0.57772-0.6188-0.5084 1.1555-1.8436 1.5586-2.28 0.81908-1.5484-0.24136-1.3352-1.895-0.33122-0.89866-0.89868 0.65732-0.72151 1.3557-2.5651 1.7588-2.7782-0.53664-1.5123-0.53662-0.03594-1.0604-0.47245-1.5586-1.4071-1.2761-1.8077-0.41595-2.1619-0.41595-1.9489-0.45704-0.93462-1.5971-0.24906-1.1144-0.40312-2.6729-1.2992-2.0131-1.5484-0.28244-2.9656-1.5175-2.601-0.28246-1.7383 0.20286-1.0527 0.32094-1.6663 1.3994-1.8795 1.5175-2.1619-0.61881-1.8077-0.28243-2.4598-0.53665-1.0168 0.41596-0.5084 1.479-1.7357 1.3968-1.2992-1.4764-0.79084-1.3172-1.9513-3.2917-1.5123-1.9746-0.54434-1.4764 0.82678-2.1362 1.5945-0.32097 1.4764-0.4981 1.0887-2.2158-0.43649-1.8127-1.3352-3.8952-1.2299-2.257 0.28244-2.6318 0.79083-2.6729 0.68556-2.8346 0.40056-3.0349-0.24906-2.6318-1.8436-1.1554-1.8436 0.41594-2.1978 0.65732-2.0207 0.41596-1.1221-0.86015-0.40312-1.2761 0.17716-1.5586 0.98083-1.235 2.0566-1.4764 1.2992-1.063 0.86272-1.1529 0.64961-1.7614 0.10528-1.8923-0.75489-1.2761-1.4431-1.235z" fill="#abacda" id="Sirsa" />
  <path d="m78.702 159.82h1.7716l3.4279-0.16175 3.9361-0.49558 3.2865-0.61879 2.7422-0.45703 2.7063-1.0604 2.352-0.57772 2.126-0.98083 1.9154-0.89868 3.6511-3.6922 1.8436-1.7588 1.0861-0.24391 2.352 0.0412 2.0207 0.89867 2.1286-0.49556 2.4572-0.0412 2.565 0.20285 2.0207 1.3968 2.0566 1.5586 1.7024 0.65732 1.8436 0.0822 2.126-1.3172 1.6304-0.6573 1.0887-0.32096 2.126 0.24136 1.8077 0.41595 1.5945 0.86017 0.40309 2.257 0.24909 0.69839-0.54435 1.9335-0.82677 1.6382-1.1221 1.8923 1.194 1.9335 1.4764 2.3366 1.3711 3.1146 1.0168 2.2159 1.5482 2.1362 2.28 2.4187 1.9489 2.0155 1.5483 3.5306-0.072 1.936 1.0528 2.9554 1.3352 1.5971 1.3711 2.2981-0.072 2.1362-1.4764 1.2736-1.4764 0.86014-1.4405-0.28242-0.86273-0.41597-0.82678 0.1207-1.0861 0.98086-0.36717 2.0952-1.0168 2.2981-1.0168 3.1556-1.5123 2.4162-0.54435 2.4188-0.89866 2.2981-0.57774 2.0542-2.7782-0.49812h-2.0207l-2.8115-0.57772-1.9848-0.81907-3.2841-1.5201-0.58028-0.27988-3.0015 0.15919-2.9656-0.32352-2.352 0.90382-2.316 0.65474-1.2299-0.15919-2.4932 0.24135-1.122 0.73948-0.75489 1.972-0.82678-2.0542-1.2992-0.37487-1.122-0.20283-2.4238-0.41855-2.0927 0.0822-2.4238-0.65732-0.17718-1.3172 0.68556-2.1362-0.40055-2.1362-1.6304-1.3557-1.7716-0.93975-1.9154-1.1144h-0.82672l-0.03594-1.0219-0.64961-0.89868-1.122-1.0194-1.9848-1.479-0.86272-0.49553-0.82678-0.61881-0.47245-2.2955-0.58028-1.3583-1.4071-1.1144-1.4431-0.3646-1.5123-1.194-0.72152-1.8949 0.5084-2.1362-0.17716-2.2981-0.43649-1.7999-0.64962-2.7935-0.36718-0.81908-0.14122-1.7203-0.36461-2.6318-0.75746-3.4509-1.158-2.4572-0.93462-2.8322z" fill="#f9d3c6" id="Bhiwani" />
  <path d="m150 149.08-1.9848-1.194-1.9848-2.0566-1.3711-1.2761-2.7782-3.0761-1.4764-2.0542-1.7024-1.1554-1.5945-2.0951-0.6496-1.5586-0.0359-2.673 0.14121-1.8127 0.93461-0.73948-0.47245-1.0193-0.89867-1.4379-0.33123-2.0566-0.54435-1.6792-0.50838-1.7588-2.3879-2.1363-2.352-1.0604-1.5945 0.0797-1.6304 0.81907-1.8436-0.45702-1.0861-1.1965-1.0861-1.5586-1.3711-2.2158-1.8077-1.0605-2.0927-1.3557-2.7422-0.45704-2.7063-1.063-2.6703-0.89868-1.0527-0.90126 0.3903-0.53405c-0.57773-0.0385-1.1863-0.17461-1.9206-0.51866-3.1607-1.4816-0.69583 2.0002-1.7692 3.2995-1.3018 1.5791-3.3533-1.348-4.8451-1.081-2.1826 0.39286-2.0849 3.8001-3.8669 4.9273-2.0542 1.2992-4.0003 0.38771-6.1855 0.74974-2.6806 0.44164-3.7899 4.2083-6.2625 4.2442-1.1503 0.0154-1.841-1.0836-2.8757-1.3762-1.1246-0.3184-2.0207 0.16688-3.0093 0.64705-1.995 0.97057-3.6692 1.9463-5.1815 3.6152-2.3031 2.542-4.5679 4.9452-7.0995 7.1329l1.1554 0.31841 0.36718 1.2761v1.3968l0.58028 1.3146h1.122l1.5123-1.6382 1.4405-0.97825 1.5483 0.28242 0.21312 2.3366-1.4071 1.895-0.21312 2.2159-0.31838 1.9746-0.79083 1.2376-0.82678 1.3942 0.54434 0.57771 1.8077 0.53662-0.40312 2.4983-0.75489 1.8538 0.17716 1.3557 2.2107 0.0822h1.7024l1.4071 0.15919 0.36718 1.3172-0.98084 1.1554 0.47245 0.77799 1.6304-0.36205h1.3352l1.3352 1.6382 0.54434 2.257-0.64962 1.1143-1.194 1.5586-0.89868 1.1554h1.7716l3.4279-0.16174 3.9361-0.49815 3.2865-0.61878 2.7422-0.45704 2.7063-1.0605 2.352-0.5777 2.126-0.98083 1.9154-0.8987 3.6511-3.6922 1.8436-1.7588 1.0861-0.24134 2.352 0.0412 2.0207 0.89869 2.126-0.49812 2.4572-0.0385 2.5651 0.20028 2.0207 1.3968 2.0566 1.5586 1.7024 0.65989 1.8436 0.0797 2.126-1.3146 1.6304-0.65732 1.0861-0.32352 2.126 0.24135 1.8077 0.41597 1.5945 0.86016 0.40311 2.2544 0.79084-2.0542 0.75746-0.57773 1.4405-1.0605 2.0207-0.3235 2.1619 0.16176 1.8795-0.24393 2.2468 1.6408z" fill="#cc2" id="Hisar" />
  <path d="m72.791 121.95c1.5123-1.6689 3.1864-2.6472 5.1815-3.6152 0.98855-0.48016 1.8847-0.96546 3.0093-0.64708 1.0373 0.29272 1.7281 1.3942 2.8757 1.3763 2.4726-0.0359 3.5819-3.8027 6.2625-4.2444 2.1876-0.36203 4.1339 0.55206 6.1855-0.74974 1.782-1.1272 1.6844-4.5344 3.8669-4.9273 1.4918-0.26702 3.5434 2.6575 4.8451 1.081 1.0733-1.2992-1.3942-4.7809 1.7692-3.2995 0.73435 0.34407 1.3454 0.48014 1.9206 0.51867l0.80367-1.1041 1.6304-2.1362 1.4071-2.714 0.98085-2.4983 0.47243-1.8538-0.31837-2.8757-0.47244-1.7203 0.79083-0.57774-1.122-1.7177-1.5484-1.0219-1.9154-0.98083-1.158-0.69841-2.1619-1.3146-2.2467 0.89866-0.47245-1.1683-1.4404 0.32353-1.8795 0.49813-1.7383 0.69839-1.7024 0.93976-2.8603-0.07962-2.4932-0.3235-2.1978-0.41854-2.9297 0.08741-1.0861-0.89868-0.285-1.7614-1.0168-0.86017-1.8795 0.69841-1.3711-0.20285-1.0527-1.0605-1.2633-0.77798-1.5484-0.12072-1.5484 0.65733-1.0168 1.5586-1.8436 2.8757-1.5484 3.0761-1.7383 2.5907-1.2633 1.0605-0.75746 1.0604-0.98084 2.9142-0.36461 3.492 0.24906 2.2159-0.7934 1.0604 0.21312 2.1748 0.14122 1.9334-0.28501 2.1748-1.194 1.9334-0.98085 0.53663-1.0527 1.0219-1.2299 0.86016 0.07189 1.6793 0.17716 1.8127 1.5123 1.1965 1.8077 0.57772 1.7383 1.5997 0.14122 1.3968-0.5084 1.1554-1.8077-0.32352-1.4764 0.57773-1.0168-0.0797 1.0861 1.1554 0.98083 0.32353 0.82678 0.81909 0.54434 0.61878 0.02824 1.4712c0.15662-0.12837 0.31068-0.25676 0.46218-0.38514l0.26704-0.46986 0.21568 0.0591c2.5343-2.1876 4.799-4.591 7.1021-7.1329z" fill="#c2f0c2" id="Fatehabad" />
  <path d="m152.01 177.03c0.98084-0.11816 0.92434-0.50584 1.6304-1.0168 0.71124-0.51612 1.2838-0.29015 2.0951-0.42881 0.97314-0.1669 1.3942-0.75488 2.1491-1.2966 0.60854-0.4365 1.4328-0.50326 2.0028-0.96802 0.73949-0.60338 0.48786-1.0964 0.51867-1.9513 0.0668-1.8923 0.9603-3.1325 1.8025-4.7502 1.1195 0.12338 2.2544 0.58802 2.4726 1.6792 0.1412 0.70867-0.20283 1.271 0.29785 1.9078 0.55204 0.70352 0.78826 0.36203 0.97313 1.2787 0.15407 0.76515-0.0514 1.402 0.27988 2.1722 1.6356-0.46732 3.0555-0.55205 4.5344 0.38002 1.1606 0.73177 2.0053 1.7281 3.5073 1.4019 1.2915-0.27984 2.6088-1.502 2.0259-2.904-0.55973-1.3429-2.2622-1.5945-3.5306-1.5817-0.0898-0.82676 0.81393-1.9411 1.6125-2.1593 0.97057-0.26191 1.5175 0.71894 2.3109 1.1092 1.9591 0.96029 2.6318-0.78571 4.4061-0.74462 2.0388 0.0461 2.9682 2.031 4.9016 1.9104 1.4661-0.0924 3.13-0.55975 4.5781-0.1207 0.20542 0.0616 0.3826 0.15663 0.5495 0.26447v-0.23109l0.86272-0.49811 1.158 0.86014-0.89866-2.7526-0.79084-1.479-0.68556-1.5586-1.2658-2.7114-0.86274-1.479-2.0207-1.4764-2.3879-2.257-1.2633-0.6573-2.0927-0.28247-1.194-0.0797-2.4238 0.73692-1.4764 0.90124h-2.0927l-1.8075-0.6573-1.5482-1.0604-1.9489-1.0219-1.5123-0.20286-1.6304 0.49813-1.407 0.24393-1.9154-0.0822-2.3879-0.53663-1.9489-0.97828-2.388-1.4379-1.8075 0.32352-0.6496-1.5586-1.5482-0.41597-0.40058 0.81907-2.2929-1.6382-1.8795 0.24136-2.1619-0.16177-2.0207 0.32352-1.4429 1.0605-0.75747 0.57768-0.79083 2.0542 0.24904 0.69841-0.54432 1.936-0.82679 1.6382-1.1221 1.895 1.194 1.936 1.4764 2.3366 1.3711 3.1172 1.0168 2.2159 1.5482 2.1362 2.2826 2.4162 1.9489 2.0155 0.35177 0.80111c0.46475-0.39797 0.96029-0.7215 1.5765-0.7934 0.66502-0.0822 1.3686 0.1258 2.0412 0.0436z" fill="#908070" id="Rohtak" />
  <path d="m191.12 171.22c-0.1669-0.10783-0.34407-0.20285-0.54948-0.26447-1.4481-0.43907-3.112 0.0282-4.5781 0.1207-1.9308 0.1207-2.8629-1.8615-4.9016-1.9104-1.7742-0.0412-2.4469 1.7048-4.406 0.74461-0.79339-0.39028-1.3403-1.3711-2.3109-1.1092-0.79853 0.21567-1.7024 1.3326-1.6125 2.1593 1.2658-0.013 2.9708 0.2388 3.5306 1.5817 0.58284 1.4019-0.73434 2.6242-2.0259 2.904-1.502 0.32611-2.3468-0.6727-3.5075-1.4019-1.4816-0.93206-2.8988-0.84733-4.5344-0.38003-0.33123-0.77027-0.1258-1.407-0.27989-2.1722-0.18486-0.91666-0.42364-0.57516-0.97313-1.2787-0.50067-0.63678-0.15663-1.1991-0.29785-1.9078-0.21826-1.0912-1.3531-1.556-2.4726-1.6792-0.84218 1.6176-1.7357 2.8578-1.8025 4.7502-0.0309 0.85505 0.22083 1.348-0.51868 1.9515-0.56998 0.46473-1.3942 0.52893-2.0028 0.968-0.75487 0.54177-1.176 1.1272-2.1491 1.2966-0.8088 0.13862-1.384-0.0874-2.0951 0.42881-0.7061 0.51352-0.64964 0.90122-1.6304 1.0168-0.67271 0.0797-1.3763-0.12838-2.049-0.0489-0.61623 0.072-1.1118 0.3954-1.5765 0.79339l1.1965 2.7319-0.072 1.9361 1.0528 2.9554 1.3352 1.5971 1.3711 2.2955-0.072 2.1362-1.4764 1.2761-1.4764 0.86015-1.4431-0.28244-0.86272-0.41595-0.82677 0.1207-1.0887 0.98081-0.36719 2.0951-1.0168 2.2981-1.0168 3.1557-1.5123 2.4162-0.54432 2.4187-0.89868 2.2955-0.58027 2.0566 1.407 0.61623 1.4764 0.94234 1.5123-0.0412 1.3352-0.78058 1.7383-1.194 1.4764-0.36461 0.68558 1.5586 0.40055 1.2761 1.4764 0.5392 2.1619 0.15919 1.9848-0.32352 2.28-0.24136 1.7383 0.1592 1.8795 0.16174 1.9489 0.0822 1.3352-0.37743 0.89867-0.6984 0.10528-1.0605 0.43649-1.3172 1.1221-0.90125 1.6665 0.65989 0.98083 1.3557 1.0168 0.45705 1.6304-0.0822 1.4071 0.41855 1.2299 1.8512-0.86274-2.5907 0.17716-1.7178 0.10528-2.3777 0.33125-1.895 1.0887-2.1362 2.2108-1.5586 1.7024-1.235 1.7024-0.89869 1.4764-0.57773 1.158-0.41595 0.75488-0.4981 2.0207 1.1554-1.0887-2.0542-1.4404-0.90126-1.5123-1.556-0.64961-2.0157 0.072-1.3968 1.0861-1.7203 1.2633-0.86014 2.5292-2.3777 1.2992-1.4764 1.2992-1.8538 0.31837-2.4572v-1.7203l1.0861-2.5907-0.47244-2.1362 0.0359-1.5971v-0.88583z" fill="#d999d0" id="Jhajjar" />
 </g>
 <g fill="none" stroke="#345">
  <path d="m176.72 1.7746-1.6368 3.5464-1.9096 1.6368 2.1824 1.6368-1.364 0.81839-3.5464 1.9096 2.1824 2.1824 0.5456 2.1824-4.3648 3.0008-4.0919 2.1824-8.1839 9.0023-3.2736 2.4552 0.5456 1.9096-2.4552 4.3647-5.1831-1.6368-4.9103 3.8191-3.8191 8.1839-4.3648 3.8191v2.4552l-6.8199 8.7295 0.27279 4.0919-5.4559 3.5464-5.4559 2.728 0.81839 9.8207 1.6368 1.364 0.54559 4.9103-1.0912 18.55-0.5456 2.4552-2.1824 0.5456-3.5464 1.6368-1.0912 3.2736-3.8192 4.3648-2.728 6.8199" stroke-width=".49px"/>
  <path d="m141.26 40.785-2.4776 0.6339-0.88487-0.15848-4.0703 1.7432-7.4328 1.2678-6.9019-0.63391-5.4861 3.328-1.7697 1.9017-1.5927 1.9017-2.4776 1.4263-6.371 2.2187-1.4158-0.31695-5.4861 1.9017-7.6098 2.2187-11.503 3.0111-6.194 1.4263-2.3006 6.973-1.9467 11.093-8.3177 7.4484-0.17697 3.8034-3.7164-0.47543-8.3176 6.973-2.6546 3.9619-2.1237-1.1093-0.70789 1.5848" stroke-width=".5px"/>
  <path d="m100.38 54.097 0.15671 2.821 0.47017 1.4105-0.15672 3.1344-2.5075 0.31344 0.47016 7.836 0.62688 0.78361-0.62688 0.94032-0.47016 4.0747 0.15672 3.4479 2.0374 1.2538-0.94032 1.8807-0.62689 1.2538-0.94032 1.2538v1.2538l-4.0747 4.7016 0.31344 3.4479-1.4105 6.4256v1.4105l-1.2538 1.097-1.4105 0.7836-3.1344 0.78361-4.8583-0.62688-4.2315 0.47016-3.2911-0.31344" stroke-width=".5px"/>
  <path d="m128.75 93.183 3.6351 5.9205 3.1302 6.6605 6.3614 6.6194 3.6351 2.9602 2.7263 4.8104" stroke-width=".5px"/>
  <path d="m118.32 97.485 1.9035-0.7614 2.2842-1.3324 3.4263-2.2842h2.6649" stroke-width=".5px"/>
  <path d="m128.75 93.183 6.2865-4.6386 5.3884-1.3643 5.3884-1.91 3.2929-1.6372-0.29936-5.1843 0.59872-3.2743 13.172-4.6386 11.974-5.1843 5.3884-2.4557 4.7897-0.81858 0.29936-2.4557-2.9936-16.644v-5.7301l-0.59875-2.4557-0.59869-1.0914-2.6942-1.6372-1.7962-6.0029 0.59873-3.0015 2.3948-4.0929v-1.91l2.6942-2.7286-0.29936-2.4557-1.4968-1.0914v-3.0015l-1.7961-2.1829-2.0955-3.82" stroke-width=".5px"/>
  <path d="m103.66 128.1 1.8173 4.3095v2.3205l1.1358 3.6465 2.0444 2.3205v2.652l0.45433 3.6465 2.4988 3.6465 3.6346 3.978 4.9976 3.6465 2.9531 0.3315 3.6346 1.989" stroke-width=".5px"/>
  <path d="m126.83 160.59 10.935-2.3805 2.4938 0.9522v-1.9044l4.7958-1.6664 3.453-1.4283" stroke-width=".5px"/>
  <path d="m117.04 111.47 7.1311 13.409 5.4531 9.8803 3.3558 1.0586 5.4532 7.4102 7.5505 9.1746 2.5169 1.7644" stroke-width=".5px"/>
  <path d="m184.73 62.077 6.8537 21.703 2.2846 1.999v1.4279l-1.999 1.7134-0.57114 3.1413-0.85671 20.561 1.7134 4.5691-0.57114 0.57114 6.8537 26.273-4.5691 2.5701" stroke-width=".5px"/>
  <path d="m162.58 70.535-1.4339 2.9891-0.71697 2.0923 0.53773 1.7934-1.2547 3.8858-1.6132 6.8749-0.71697 7.4727-1.0754 2.0923 0.53772 2.3913-1.6132 2.9891v4.1847l-4.1225 2.3913-1.2547 5.6792-1.6132 4.7825" stroke-width=".5px"/>
  <path d="m148.24 120.15v2.3184l-0.15738 1.2646-0.94429 4.4259 0.10492 1.8968-0.36722 3.3721v2.7399l-0.2623 2.5291v4.8475l-0.20985 1.6861-0.31476 2.9506-0.10492 4.2152" stroke-width=".5px"/>
  <path d="m148.5 153.48 6.3012 1.1465 3.3607-0.28663h4.2008l5.8812 0.85988 6.7213-0.85988 4.2008 1.1465 4.2008 0.85989 1.6803-2.8663 2.1004-0.57325 2.5205-1.7198 1.6803-0.85989 1.6803-2.293 0.84018-1.4331" stroke-width=".5px"/>
  <path d="m148.24 120.15 3.4345 1.336 6.869 3.7407 5.3971 1.6032 1.9626 2.4047 3.1892 1.0688 0.49065 1.336 8.0956 5.611 5.1518 5.0766h1.7173l4.1705 1.6031 5.1518 2.6719" stroke-width=".5px"/>
  <path d="m148.68 154.22 4.4807 8.7705 1.6802 8.0689v9.1213l4.4807 3.859" stroke-width=".5px"/>
  <path d="m140.25 157.26 14.589 22.923" stroke-width=".5px"/>
  <path d="m39.321 102.91 6.1023 0.43372 7.0658 0.21686h4.8176l4.4964 0.43373 7.7082 0.21686h5.4599" stroke-width=".5px"/>
  <path d="m74.971 104.21 4.2748 1.9887 3.4198 3.7565 4.2748 3.5355 7.6946 3.7565 4.2748 7.955 4.7022 2.8726" stroke-width=".5px"/>
  <path d="m191.35 150.33-2.0888 3.9479-3.1332 1.5184-1.7406 1.2147-2.0888 2.7332-1.0444 0.91104-2.4369 2.4295-2.4369 0.60737-1.7406 2.1258-2.785 0.91105-2.0888 2.1258-2.785 1.8221-2.4369 4.8589-3.4813 4.2516-1.7406 4.2516" fill="none" stroke="#345" stroke-width=".5px"/>
 </g>
 <g fill-rule="evenodd" stroke-width=".2156">
  <ellipse cx="176.63" cy="2.6845" rx="2.5365" ry="2.6872"/>
  <ellipse cx="39.736" cy="102.94" rx="2.5365" ry="2.6872"/>
  <ellipse cx="75.29" cy="104.18" rx="2.5365" ry="2.6872"/>
  <ellipse cx="103.82" cy="127.95" rx="2.5365" ry="2.6872"/>
  <ellipse cx="126.97" cy="160.61" rx="2.5365" ry="2.6872"/>
  <ellipse cx="159.21" cy="183.14" rx="2.5365" ry="2.6872"/>
  <ellipse cx="148.67" cy="153.99" rx="2.5365" ry="2.6872"/>
  <ellipse cx="192.49" cy="149.45" rx="2.5365" ry="2.6872"/>
  <ellipse cx="148.26" cy="120.09" rx="2.5365" ry="2.6872"/>
 </g>
 <g fill="#000000" font-family="sans-serif" font-size="3.5278px" letter-spacing="0px" stroke-width=".26459" word-spacing="0px">
  <text x="182.36459" y="5.3716788" style="line-height:1.25" xml:space="preserve"><tspan x="182.36459" y="5.3716788" font-size="5.6445px" stroke-width=".26459">Chandigarh</tspan></text>
  <text x="30.640869" y="97.150055" style="line-height:1.25" xml:space="preserve"><tspan x="30.640869" y="97.150055" font-size="5.6445px" stroke-width=".26459">Sirsa</tspan></text>
  <text x="70.742233" y="97.77018" style="line-height:1.25" xml:space="preserve"><tspan x="70.742233" y="97.77018" font-size="5.6445px" stroke-width=".26459">Fatehabad</tspan></text>
  <text x="85.418503" y="131.6703" style="line-height:1.25" xml:space="preserve"><tspan x="85.418503" y="131.6703" font-size="5.6445px" stroke-width=".26459">Hisar</tspan></text>
  <text x="100.9216" y="163.91675" style="line-height:1.25" xml:space="preserve"><tspan x="100.9216" y="163.91675" font-size="5.6445px" stroke-width=".26459">Bhiwani</tspan></text>
  <text x="152.39192" y="117.40744" style="line-height:1.25" xml:space="preserve"><tspan x="152.39192" y="117.40744" font-size="5.6445px" stroke-width=".26459">Jind</tspan></text>
  <text x="151.56509" y="151.10086" style="line-height:1.25" xml:space="preserve"><tspan x="151.56509" y="151.10086" font-size="5.6445px" stroke-width=".26459">Rohtak</tspan></text>
  <text x="149.08459" y="192.85588" style="line-height:1.25" xml:space="preserve"><tspan x="149.08459" y="192.85588" font-size="5.6445px" stroke-width=".26459">Jhajjar</tspan></text>
 </g>
 
 <text x="197.45427" y="150.06732" fill="#000000" font-family="sans-serif" font-size="3.5278px" letter-spacing="0px" stroke-width=".26459" word-spacing="0px" style="line-height:1.25" xml:space="preserve"><tspan x="197.45427" y="150.06732" font-size="5.6445px" stroke-width=".26459">Sonipat</tspan></text>
</svg>
