<svg width="206.35mm" height="293.19mm" version="1.1" viewBox="0 0 206.34654 293.18844" xmlns="http://www.w3.org/2000/svg" xmlns:cc="http://creativecommons.org/ns#" xmlns:dc="http://purl.org/dc/elements/1.1/" xmlns:rdf="http://www.w3.org/1999/02/22-rdf-syntax-ns#">
 <metadata>
  <rdf:RDF>
   <cc:Work rdf:about="">
    <dc:format>image/svg+xml</dc:format>
    <dc:type rdf:resource="http://purl.org/dc/dcmitype/StillImage"/>
    <dc:title/>
   </cc:Work>
  </rdf:RDF>
 </metadata>
 <g transform="translate(-1.9057 -4.0624)">
  <g stroke-width=".5">
   <g stroke="#fff">
    <path id="_x31_" d="m34.851 108.68c-0.05309-2.2502-0.28994-2.8586-1.8907-4.0919-1.025-0.78814-2.4625-2.6422-3.7203-1.805 0.55946-1.5191 1.123-3.0341 1.6825-4.5532 0.47779-1.2986 1.5559-1.8745 2.1522-3.0546 1.3027-2.5809 2.4502-5.4191 4.4186-7.3873 2.0419-2.0459 4.1327-4.8881 0.84533-6.9382-0.95967-0.6003-2.5279-1.4211-1.9317-3.0751 0.57579-1.6008 1.0128-3.071 1.4089-4.733 1.4375-5.9826-2.8136-12.472-6.3052-16.425-1.515-1.7192-5.415-2.1317-4.7248-5.2638 0.17559-0.79632 0.15517-1.4497 0.74732-1.8866 0.43696-0.32262 1.0658-0.54722 1.1924-1.1598 0.28177-1.4048 0.2491-3.5936 1.5559-4.2552 2.3195-1.172 5.174 0.976 7.0362 2.2664 2.0704 1.4334 4.0021 3.7285 6.6728 3.169 2.2991-0.48188 4.6881-3.1485 6.3297-4.9086 2.0786-2.2215 4.2103-4.2511 6.4972-6.1787 2.2625-1.9071 4.5329-3.7937 6.8483-5.611 1.9888-1.56 5.4517-1.7111 7.7427-2.1358 1.8009-0.33487 5.2599-2.9361 6.0846-5.0148 0.2532-0.63297 0.03677-1.5477 0.21235-2.2215 0.2001-0.77591 0.64931-1.5518 0.9515-2.2746 0.54722-1.2986 1.4252-2.4461 2.2746-3.4957 3.0505-3.7734 6.6605-6.8852 10.23-9.9316 0.5023-0.42878 2.0337-0.96783 2.6502-0.96375 0.51046 0.00383 1.0087 0.48596 1.5191 0.51863 0.61256 0.036749 1.3926-0.31446 1.9928-0.44921 2.1481-0.48188 4.3247-0.74324 6.4931-1.0985 1.0332-0.17153 2.0745-0.20419 3.1159-0.27361 0.96783-0.061234 1.8581-1.1067 2.8341-1.1312 1.2537-0.032675 1.9276 0.1021 3.1036 0.61664 0.80857 0.35121 1.5191 2.4543 2.0458 2.5605 1.8458 0.3757 4.3819 1.2904 6.24 0.98826 2.3725-0.38795 4.6555-0.84125 6.9913-1.462 1.0005 1.5641 1.0863 2.0091 1.1434 3.9693 0.049 1.6416 0.17154 3.2792 0.28176 4.9168 0.20011 3.022-0.0695 5.8274-0.37569 8.8166-0.31855 3.0913-1.168 6.0805-1.6335 9.1556-0.49821 3.2995-2.144 5.6274-3.8019 8.2122-1.1394 1.7764-4.3696 3.3567-6.1133 4.047-2.5646 1.0168-4.9822 1.56-7.6488 2.0991-5.4925 1.1067-10.916 1.8704-16.486 1.8704-2.5482 0-5.4763-0.56356-7.7509 0.99233-1.6947 1.1598-0.15927 6.7993 0.39203 8.4451 1.9561 5.852 4.4512 11.757 8.9433 15.571 1.1434 0.96784 2.5851 1.6335 3.8264 2.4176 0.95149 0.60032 1.805 1.5518 2.8056 1.9928 2.4869 1.1026 4.8268 2.2215 7.4937 2.4135 2.7851 0.2001 5.1863 1.2864 7.906 1.8989 1.2782 0.28995 2.5279 0.4002 3.8265 0.52272 1.8132 0.16745 2.3766 0.3961 3.9162 1.564 2.2174 1.6784 4.5493 2.4258 6.4236 4.7004 1.4497 1.756 4.1124 4.7616 6.2644 5.0555 3.0341 0.41654 5.0883-0.21643 6.5585 3.5488 0.50636 1.2986 0.55128 3.0954 1.8989 3.6141 1.5967 0.61256 1.7192 1.5886 2.4789 3.3608-1.8907 0.10211-2.4379 0.23276-3.9857 1.511-1.0536 0.86983-2.2664 1.6947-3.1813 2.7484-1.8745 2.1602-4.6473 4.9453-5.4884 7.9755-1.0699 3.8672-1.417 6.877-0.34709 10.826 0.43287 1.6008 0.31444 3.5323 0.42061 5.2027 0.0939 1.4824 0.76775 3.0587 1.1475 4.4716-4.0101 4.9209-8.5145 6.4236-14.293 5.7702-2.54-0.28587-4.9576-1.3027-7.2567-2.5197-1.4538-0.77184-6.4277-2.4869-7.1139-4.145-0.82898-2.0092-1.0168-1.8458-2.8954-2.2664-1.2741-0.28994-2.1684-0.49413-3.2915-1.2088-2.393-1.5232-4.394-3.4793-6.6972-5.1414-0.54722-0.39616-1.2251-0.74737-1.7151-1.2374-0.44512-0.44513-0.77181-1.417-1.2864-1.7233-1.1271-0.66563-3.2057-0.48186-4.4634-0.66971-2.4869-0.3757-4.4798-3.0218-6.1215-4.9535 0.61256-0.78408 1.368-1.4416 1.3925-2.5931-5.1332-2.5972-10.507-0.49413-14.297 4.145-1.3925 1.7029-0.22052 6.7218 0.33485 8.6779 0.4247 1.4906 0.61664 2.9933 0.84941 4.5452 0.11027 0.74321-0.18376 3.9611-0.70239 4.1816-1.6825 0.71468-2.1235 0.0981-3.7121-0.88614-1.0577-0.65747-2.1399-1.2169-3.1649-1.9479-2.0827-1.4824-4.6024-3.1118-6.2195-5.272-1.0209-1.3681-2.0419-2.732-3.0669-4.096-0.45737-0.61254-0.46145-3.3936-0.59213-4.2511-0.36754-2.4543-1.6376-6.0275-3.369-7.6078-2.1889-1.9969-4.3655-4.0919-6.8362-5.5702-1.319-0.78813-2.5728-1.3803-3.9734-1.952-1.3476-0.56355-2.3399 0.0243-3.7203 0.46148" fill="#e2b584"/>
    <path id="_x32_" d="m34.851 108.68c1.0699-0.35118 2.2174-1.0903 3.2874-0.64929 1.368 0.56354 2.6543 1.0985 3.9408 1.8663 2.4012 1.4375 4.5206 3.3282 6.6441 5.2679 1.6784 1.5273 3.4508 4.6717 3.8265 7.1547 0.24502 1.6335 0.48596 3.222 0.58397 4.8758 0.06945 1.1434 2.1971 3.1077 2.8382 3.9693 1.5845 2.1194 3.7857 3.7775 5.8356 5.2353 1.4211 1.0086 5.313 4.3655 6.8157 3.7285 2.2869-0.97192 1.5722-5.9213 0.927-8.1837-0.70649-2.491-1.8499-6.6033-0.86166-9.2333 0.6779-1.8009 5.0842-5.2353 6.7095-5.2966 1.4824-0.0531 2.8913-0.28179 4.3614-0.53903 1.0046-0.17546 2.5931 0.89023 3.5039 1.3517-0.02448 1.1557-0.77998 1.8091-1.3925 2.5931 1.56 1.8336 3.5772 4.5696 5.9541 4.9291 1.4701 0.22052 2.9361 0.44105 4.4063 0.66158 0.61664 0.0937 2.1235 2.1971 2.8382 2.7115 2.3032 1.662 4.3083 3.6549 6.6931 5.1699 1.172 0.74324 1.9235 1.0617 3.2302 1.3558 2.0296 0.45737 2.4666 0.21644 3.3567 2.3725 0.66156 1.5967 5.2517 3.1608 6.6808 3.9162 2.5564 1.3558 4.876 2.0296 7.6324 2.732 2.1112 0.54312 5.5048 0.31852 7.5752-0.5064 2.8136-1.1271 4.7289-2.7402 6.7749-5.2517-0.81674-3.0341-1.2088-5.464-1.4089-8.6412-0.17154-2.7197-1.2578-5.0066-0.90251-7.9019 0.73098-5.9417 5.0353-10.613 8.9107-13.966 0.75139-0.64932 1.658-1.7519 2.5238-2.0991 0.93108-0.37163 2.3604-0.13075 3.3731-0.22461 1.8704-0.17975 2.0622-0.0939 3.5652 1.2374 1.0291 0.90659 2.1276 1.5763 3.2546 2.3032 2.0296 1.3027 4.4799 1.7356 6.73 2.1889 1.2741 0.25726 2.4828 0.57988 3.7326 0.97192 1.364 0.42468 1.9235 1.3517 2.9156 2.5564-0.4941 0.10616-1.2414 0.0125-1.4497 0.59624-0.41651 1.172-0.83307 2.3481-1.2496 3.5201-0.54724 1.5477-1.0822 3.1403-1.417 4.7697-0.86575 4.1939-1.6294 8.245-1.8745 12.557-0.20825 3.6344-1.9807 7.7345-3.3118 10.981-0.90656 2.2133-0.94331 2.5564-0.12251 4.7698 0.64112 1.7314 0.71466 3.7447-0.6003 5.1658-1.9438-0.89025-3.2384-2.7279-4.3083 0.57172-0.78408 2.4256 0.65337 4.3655 0.65337 6.9178-2.5115-0.041-4.9943-0.21238-7.4201-1.021-1.2823-0.4247-2.4828-0.7759-3.6631-1.4865-0.79222-0.4778-2.8136-1.8091-3.6875-1.2537-1.1883 0.75549-2.3725 1.5028-3.5731 2.2256-1.0903 0.65743-2.7115 0.18384-3.8754-0.0168-2.6095-0.44511-5.4558 0.66974-7.1506 2.9361-0.82491 1.0985-1.0087 6.9544-0.84532 8.294 0.17974 1.4497 0.33487 2.879 0.62891 4.3042 0.4492 2.1602 0.30218 2.7115-0.34711 4.835-0.73917 2.4135-2.7605 5.5415-5.1046 5.9133-1.609 0.25725-2.2297 1.0618-3.4957 2.2992-0.71057 0.69423-2.2297 0.4778-3.169 0.5227-1.56 0.0695-3.4262-0.19602-4.9494 0.21643-1.4211 0.38389-2.9484 1.564-4.2878 2.295-2.6381 1.4375-6.2767 2.8341-9.1761 2.8341-3.6303 0-6.3582 0.62482-9.7885 1.9153-1.6784 0.63299-1.5763 2.5851-2.0622 4.5124-0.41655 1.662-1.5804 2.7361-2.5646 4.0101-3.1241-2.7687-5.7948-6.1256-8.9433-8.8943-2.83-2.4869-6.8321-4.6717-10.172-5.9133-4.1124-1.5314-8.2409-2.7197-12.418-3.9734-1.8458-0.5513-3.6998-1.1108-5.6315-0.97599-2.491 0.17563-3.0097 1.6457-4.4104 3.859-0.17559-2.1766-0.30628-4.3368-0.93926-6.4113-0.75549-2.4707-0.73098-4.7329-0.84533-7.3465-1.6947-0.9964-3.071-1.2414-4.9494-1.4374-0.58805-0.0613-1.5722-0.32259-2.0704-0.6779-0.70647-0.50227-1.0332-1.9969-1.7805-2.3848-0.59623-0.31037-1.5314 0.29808-2.1522-0.15943-0.69831-0.51455-1.4824-0.9515-2.0622-1.6458-0.92292-1.0944-2.5892-3.9367-3.7775-4.4062-1.5314-0.60847-3.0423-1.2904-4.5942-1.8254-2.0499-0.71056-3.0872-1.9684-4.9371-3.1485-2.3725-1.511-6.9014-3.6182-9.5272-3.0097 0.33487-0.99642 0.51863-2.6912 0.97192-3.5692 0.55538-1.0863 2.3114-2.0132 3.2016-2.6422 1.0903-0.77179 1.952-1.5926 2.9158-2.5808 0.96783-0.99234 1.1189-2.5769 1.5069-3.998 0.58805-2.144-1.7723-5.2271-0.73098-7.567 0.5513-1.2373 0.90249-2.6054 1.9112-3.3731 1.1884-0.9025 2.2992-1.6253 3.5813-2.3196 2.0704-1.1189 4.2062-1.6049 6.1459-3.0505 2.5115-1.8704 3.9939-3.3159 5.9092-5.9866 0.74324-1.0372 1.2169-2.5605 1.7723-3.7488 0.56356-1.2005 1.8091-1.8825 2.7402-2.6748 0.69014-0.58803 2.3971-0.33075 3.2464-0.49821 1.2292-0.24091 2.4502-0.60847 3.6713-0.91476-0.89433-3.3241-2.2012-6.1051-4.2757-8.5676" fill="#a3b0a3"/>
    <path id="_x35_" d="m39.943 192.63c0.44104-0.69421 1.5028-3.1567 2.1971-3.32 1.5763-0.36758 2.7646-0.47781 4.3696-0.37574 2.393 0.15124 4.8229 1.2986 7.1465 1.9235 5.0434 1.3558 10.45 2.9607 14.967 6.0274 2.5359 1.7233 4.8432 3.4752 7.1914 5.5253 2.0051 1.7478 3.5854 4.1368 5.5905 5.9051 1.9479 1.7192 3.6508 3.7774 5.1168 6.0643 1.7968 2.8056 2.7156 4.7289 2.1602 8.2409-0.6779 4.2878 2.3725 8.7882 4.4309 12.055 2.4951 3.9611 5.3007 7.3834 8.2204 10.912-1.3435 1.6131-2.2092 3.7652-3.5813 5.2353-1.7315 1.8499-3.0872 3.1403-4.2347 5.5661 0.16745-2.1848 0.2981-4.3042 0.69013-6.4523-1.7397-1.6008-3.3567-2.1317-5.4517-2.9076-2.2746 3.2792-3.022 7.5181-4.1613 11.463-1.0209 3.5365-2.9402 6.9464-4.8922 9.8662-0.86166-0.83312-1.6498-2.0581-2.7933-2.1112-1.511-0.0695-2.9036-0.14305-4.3819-0.48599-2.2992-0.53497-5.6927-0.18384-7.416-2.4828-0.64523-0.86162-1.6866-2.1848-0.87392-3.4548 1.0291-1.6049 1.6049-2.7033 2.144-4.5901 0.6248-2.193-0.55946-6.0887-1.8499-7.6896-1.6457-2.042-3.0505-4.3614-4.1613-6.8565-0.55538-1.2455-1.4374-2.6217-1.6947-4.0021-0.31036-1.6661-0.53497-3.2098-1.1598-4.7453-1.1639-2.8505-2.9933-5.1863-4.7616-7.5588-0.87392-1.172-1.6212-2.3889-2.3889-3.6631-0.59213-0.98008-0.20009-2.8056-0.58397-3.949-0.77181-2.3033-1.27-4.3288-2.683-6.1541-1.7356-2.2461-2.2053-3.3487-2.9402-6.2726-0.46963-1.8786-1.1067-3.9898-1.9807-5.6477-1.123-2.1317-2.144-3.5649-2.2338-6.0643" fill="#c2f0c2"/>
   </g>
   <path d="m194.09 294.87h-6.3933l-5.8121-6.9746-5.8121-0.58123-3.4873-1.1624-2.3249-5.8123-4.6497-4.0686-5.2308-1.7436-9.2994-11.043-16.855-19.181-4.6497-8.137-5.2308-4.0686-5.8121-9.8805v-3.4873l-6.9746-9.2994-6.9744-5.8123-6.3934 2.9062-7.5559-10.462-1.1624-9.8805-8.7181-12.787-4.0684-11.624-8.7181-11.043-11.043-15.112-8.7181-11.043-2.3247-1.7436-8.137-0.5812 1.7437-9.2994 3.4873-3.4873 4.6497-2.9062 5.8123-6.9746 2.906-3.4873 1.1624-6.3934 8.137-5.2308" fill="none" stroke="#000"/>
   <path d="m39.483 112.96-2.8223-3.951 1.1289-9.0312 1.6934-5.6445 7.3378-8.4667" fill="none" stroke="#000"/>
   <ellipse cx="66.332" cy="85.297" rx="2.4111" ry="2.6301"/>
   <ellipse cx="47.323" cy="86.016" rx="2.4111" ry="2.6301"/>
   <ellipse cx="77.733" cy="122.5" rx="2.4111" ry="2.6301"/>
   <ellipse cx="75.014" cy="138.01" rx="2.4111" ry="2.6301"/>
  </g>
  <path d="m132.96 257.65-4.0315 1.8607 4.0315 3.7214 0.62025 5.8924-6.2025-4.962-2.171 3.4113-6.8228-1.2405-0.62026 3.1012-5.8924 1.2405-3.1012 3.7214h-1.8608l-4.0315-5.2722-6.2025-3.1012-7.443-6.5126-4.0315-8.0632-3.1014-4.6518 0.93037-2.171-4.6518 0.6203-0.62025-4.9621-4.6518-8.0632-4.0315-0.31012" fill="none" stroke="#000" stroke-width=".5px"/>
 </g>
 <path d="m65.073 146.02 3.959-3.3499v-2.1318l1.2182-4.5682 3.959-3.3499-1.2182-6.0909 3.0454-5.1773 0.30454-3.6544" fill="none" stroke="#000" stroke-width=".5"/>
 <path d="m146.59 256.36v2.7688l-1.3844-0.23072-0.84604 0.077-2.615-0.69222-0.76913-1.4613-2.6152 0.46149-2.8458-0.76911-1.1535-1.4613-2.4612-0.38458-0.84599-1.0768" fill="none" stroke="#000" stroke-width=".52248px"/>
 <ellipse cx="67.26" cy="227.84" rx="2.4111" ry="2.6301"/>
 <ellipse cx="191.71" cy="290.56" rx="2.4111" ry="2.6301"/>
 <g font-family="sans-serif" font-size="3.5278px" letter-spacing="0px" stroke-width=".26459" word-spacing="0px">
  <text x="70.93438" y="82.809296" style="line-height:1.25" xml:space="preserve"><tspan x="70.93438" y="82.809296" font-size="6.3501px" stroke-width=".26459">Chamba</tspan></text>
  <text x="41.780914" y="75.459686" style="line-height:1.25" xml:space="preserve"><tspan x="41.780914" y="75.459686" font-size="6.3501px" stroke-width=".26459">Dalhousie</tspan></text>
  <text x="79.753914" y="122.25221" style="line-height:1.25" xml:space="preserve"><tspan x="79.753914" y="122.25221" font-size="6.3501px" stroke-width=".26459">Dharmashala</tspan></text>
  <text x="78.039009" y="136.21648" style="line-height:1.25" xml:space="preserve"><tspan x="78.039009" y="136.21648" font-size="6.3501px" stroke-width=".26459">Kangra</tspan></text>
  <text x="72.159309" y="226.6167" style="line-height:1.25" xml:space="preserve"><tspan x="72.159309" y="226.6167" font-size="6.3501px" stroke-width=".26459">Una</tspan></text>
 </g>
 <text x="185.09834" y="283.45367" fill="#000000" font-family="sans-serif" font-size="3.5278px" letter-spacing="0px" stroke-width=".26459" word-spacing="0px" style="line-height:1.25" xml:space="preserve"><tspan x="185.09834" y="283.45367" font-size="6.3501px" stroke-width=".26459">Shimla</tspan></text>
 <path d="m43.168 131.82-0.15004 2.3923 0.30008 1.9437 0.45012 2.6913v1.1962l1.0503 0.44857 0.75021 1.4952 1.284 0.40231-0.91105 0.90787 1.2527 0.22696-0.34164 0.45394-1.2527-0.11351-0.22776 0.56741 0.22776 0.90788h2.3915l-0.22776 0.90787 0.79716 0.45393 2.3915 0.90788v0.6809l0.79716 1.4753 1.7082 0.90788 1.936-0.56743-0.91105 0.7944h1.7082l0.79716 2.0427h-1.2527l-1.4804-0.34045-0.11388 0.56741 0.22776 0.45395 1.4804 0.68089v1.4753l1.1388 1.5888 1.0249-1.8157h1.1388l-0.68328 1.2483h-0.56941l0.11389 0.90788 1.5943 1.3618 0.91104 0.6809 1.8221 3.745-1.7082-0.6809 0.68328 1.5888v1.3618l0.91104-0.11352 0.5694 0.22698 0.79716 1.5888h1.4804l-0.34164 0.45393-1.7798-0.14813-2.175-1.8464 0.16111-1.3647-1.6111-1.3647-1.3695-0.16057-0.5639-0.72248-1.1278-0.88304-1.7722-0.48164-2.3361-1.0436-1.0472 1.6055v-0.72249l0.48334-1.1239-0.96668-0.16056-0.80557-0.40138-2.0139-0.48165-0.24167 0.80277h-0.72501l0.08056-0.64221v-0.24082l-0.72501 0.48165-0.72501 0.48164h-0.16112v-0.72247l-0.24167-0.48166h-0.72501v0.96332l-0.64445-0.80278-0.64446 0.24085 0.40279-0.7225-0.24167-0.3211-0.32223-0.24082-0.32223-0.0803-0.32223 2.8097-0.32223-0.96332h-0.32223l-0.72501 0.88304v-1.2844h-0.40278l-0.80557 0.64219-0.16112-0.56193-0.16111-0.0803-0.32223-0.16055 0.16111-0.56194 0.48334-0.3211-0.16112-0.48165-1.45-1.3647-0.40278 2.0069-0.16112-2.0872-0.40278-0.16054-0.32222 0.0803-0.40279 0.48166h-0.64445l-0.16112-0.40137-0.96668-0.16055h-0.48334l-0.64445-0.0803-0.5639 0.56193-0.64445 0.64221-0.24167 0.72249-0.80557-0.3211-0.5639 0.24082-0.08056 0.40138-0.48334 0.24082-0.40278-0.24082-0.72501-0.0803-0.64445 0.24083-0.72501-0.32112-0.5639-0.24082 1.0472-0.48166-0.72501-0.72249 0.80557 0.24084h0.64446l-0.24167-0.24084h1.3695l-0.48334-0.6422 0.96668-0.16057 0.96668 0.16057 0.72501 0.56193 0.48334-0.40138 0.08056-0.64221h0.88612l0.64445-0.0803 0.16111-0.88303h0.80557v-0.32111l-0.96668-1.1239 1.45 0.96331 0.5639-0.24082 1.2889 0.0803-0.40278-0.80276-0.40279-0.0803h-0.72501l-1.2889-1.2844 1.6111 0.88304-0.5639-2.0069 0.72501 1.0436 0.5639 0.96332h0.64446l0.16111-0.72249v-1.1239l-0.80557-0.64222-1.2083-1.2844 1.1278-0.0803 0.72501 1.445h0.24167l-0.16112-0.96334-0.24167-0.80277v-1.2844h0.64446l0.32223 0.72248 0.16111 0.72249h0.48334l0.16112-0.80275-0.32223-0.40139-0.08056-0.96332 0.24167-0.56193 0.40278-0.16056-0.40278-0.56192-0.64445-1.2844-0.24167-0.96331-0.08056-1.0436v-0.96332l0.64445-0.40139 0.16111 0.32112 0.24167 0.6422 0.08057 0.56194 0.16111 0.40138 0.08056 1.0436h0.88613l0.40278 0.56193 0.80557 1.0436v-1.445l0.64445-1.5252 0.72501-1.3647 0.24167-1.445-0.24167-1.2844-0.32223-1.1239-0.24167-0.64221-0.24167-1.1239 0.24167-2.5688z" fill="#85c5e3" stroke-width=".31604px"/>
 <text x="24.051727" y="166.5827" fill="#000000" font-family="sans-serif" font-size="3.5278px" letter-spacing="0px" stroke-width=".26458" word-spacing="0px" style="line-height:1.25" xml:space="preserve"><tspan x="24.051727" y="166.5827" font-size="2.8222px" stroke-width=".26458">Maharana Pratap Sagar</tspan></text>
 <path d="m45.726 102.5 1.7829 2.6744 1.4703 3.0965 2.4587 0.89408 1.5646 0.89407v1.1176l1.1176-0.22353 0.67057 1.5646 2.4587 0.89409 1.7882 1.7882 0.22352 1.7882 0.22351 1.1176 2.0117 2.2352 4.2469 3.3528 1.3411 1.1176 1.1176-1.3411h2.2352l2.2352-0.67055 2.9058-0.89408" fill="none" stroke="#000" stroke-width=".49973px"/>
 <path d="m69.068 227.85-2.568-2.1135-1.712-3.0192-1.9973-0.90579-1.1413-2.7173v-3.3212l-0.57066-3.6231-1.1413-2.1135-0.856-1.2077-2.8533 0.30192-1.9973-2.7173-1.4267-2.1135-0.856-1.5096-0.57066-1.8115-0.28534-5.4347 2.568-0.60386 1.712-0.90577 1.712-1.8116 0.856-1.5096 0.856-3.3212 1.9973-1.2077 2.2827-3.6231h1.4267l-0.57067-1.2077 1.1413-2.1135-1.1413-1.8116v-2.4154l-1.9973-0.90578 0.856-2.1135-0.856-2.4154 3.1387-2.1135-0.57066-1.2077-0.28533-3.6231v-2.7174l-2.2827-3.6231-0.856-1.2077 1.4267-1.2077-1.1413-4.227 0.856-0.30192 1.1413-1.2077 1.712-2.1135" fill="none" stroke="#000" stroke-width=".5px"/>
 <rect x="3.1897" y="281.73" width="5.0582" height="5.4473" fill="#37abc8" fill-rule="evenodd" stroke-width=".26458"/>
 <text x="11.165701" y="285.46936" fill="#000000" font-family="sans-serif" font-size="3.5278px" letter-spacing="0px" stroke-width=".26458" word-spacing="0px" style="line-height:1.25" xml:space="preserve"><tspan x="11.165701" y="285.46936" font-size="2.8222px" stroke-width=".26458">Water reservoir</tspan></text>
</svg>
