<!-- Created with Inkscape (http://www.inkscape.org/) -->
<svg width="206.68mm" height="204.2mm" version="1.1" viewBox="0 0 206.68091 204.201" xmlns="http://www.w3.org/2000/svg" xmlns:cc="http://creativecommons.org/ns#" xmlns:dc="http://purl.org/dc/elements/1.1/" xmlns:rdf="http://www.w3.org/1999/02/22-rdf-syntax-ns#">
 <metadata>
  <rdf:RDF>
   <cc:Work rdf:about="">
    <dc:format>image/svg+xml</dc:format>
    <dc:type rdf:resource="http://purl.org/dc/dcmitype/StillImage"/>
    <dc:title/>
   </cc:Work>
  </rdf:RDF>
 </metadata>
 <g transform="translate(-1.968 -56.689)">
  <g stroke-width=".5">
   <g stroke="#fff">
    <path id="_x39_" d="m31.059 162.25c1.289 1.9851 3.2676 2.6006 5.2784 3.2095 0.95708 0.29005 1.8851 0.67032 2.8228 1.0377 0.59617 0.23202 0.97641 2.3685 1.2503 3.1097 0.72505 1.9592-0.63484 4.7306 1.4952 5.9939 1.8368 1.0892 4.2988 0.16111 6.3096-0.0133 0.82818-0.071 1.8948-0.56719 2.6488-0.14508 1.347 0.75727 1.5565 1.3212 2.2977 2.8647 0.64451 1.3438-0.40602 5.475-0.59615 6.9508-0.21914 1.6822-0.49626 5.5007 0.36735 6.9799 1.202 2.0527 2.7069 3.6737 4.8402 4.3439 1.0602 0.33193 2.0591 0.59939 3.1451 0.78306 1.0344 0.17401 1.5759 1.202 2.304 2.0591-0.30614-0.1579-1.4501-0.99898-1.7176-0.80884-0.69606 0.48982-1.3921 0.97966-2.0913 1.4694-0.9893 0.69607-1.9367 1.7692-2.7649 2.723-1.1504 1.3244-2.259 2.7327-3.4641 3.9862-1.0473 1.0892-2.3105 1.9335-3.3127 3.0774-2.13 2.4394-3.9958 5.4718-6.0163 8.0562-0.89906 1.1504-1.7337 2.3653-2.5812 3.5673-0.71538 1.0151-2.6488 0.41571-3.6124 0.26425-0.1289-0.64129-0.67994-2.0559-0.48016-2.6617 0.53494-1.6144 0.65094-1.7273-0.06126-3.2257-0.9184-1.9302-2.7101-2.1364-4.4019-2.5136-0.08696-1.4372-0.16433-2.8293-0.1289-4.2666 0.02581-1.0602-2.1783-1.9851-2.7714-2.3105-1.0022-0.55103-1.7981-1.1762-2.9098-1.2213-1.4887-0.0612-1.8819-0.34158-3.1162-1.3566 0.34481-1.9721 0.47048-2.7134-0.12568-4.5855-1.5822-0.2546-2.8712-0.27071-4.4438 0.074-1.1085 0.24168-2.5231 2.4329-3.2998 3.2676-1.6338-5.5813-6.6705-8.0819-10.763-10.728 0-1.7659-0.2288-3.564 0.00309-5.3107 0.25136-1.8883 0.40604-4.2279-0.86361-5.7231-0.59616-0.7025-1.2987-1.3696-1.7821-2.188-0.81851-1.3824-0.63482-1.4082-0.022562-2.955 0.35448-0.89584 0.97641-1.0344 1.6048-1.6595 0.6735-0.66707 1.231-1.6048 1.824-2.375 0.96674 0.24813 2.0656 0.81848 3.0324 0.49303 1.2922-0.43183 2.4717-0.87973 3.7026-1.5114 0.72828-0.37385 1.998-1.737 2.7326-1.6435 1.3309 0.16435 2.6425 0.34479 3.9669 0.58328 2.0721 0.37379 5.0141-0.37705 6.403-2.433 0.71861-1.0602 4.0636-6.213 5.2978-5.2591" fill="#e2b584"/>
    <path d="m104.73 242.76c-0.85394-1.0248-2.5071-1.811-3.5189-2.7036-0.9571-0.84428 1.057-3.1967 1.4211-3.9056 0.93771-1.8303 0.70894-2.6488-0.0419-4.5115-0.29324-0.72829-0.5285-1.4276-0.96351-2.0462-0.31582-0.45114-1.1021-1.1988-1.1827-1.7821-0.29646-2.0591-0.9152-2.8841-2.0237-4.5339-0.89262-1.3276-1.2052-2.7358-0.99572-4.3117 0.21589-1.6144 1.2987-2.6069 2.2267-3.78l0.72505 0.81851c-0.39312-1.0956-0.49625-2.2234-1.4694-2.6392-0.96674-0.41249-1.7692-0.96998-2.6553-1.5887-1.9883-1.3792-3.0806-0.44792-4.6725 1.1053-1.492 1.4566-2.6939 2.5006-4.7016 2.462-2.0431-0.0419-3.6383-0.78308-5.4847-1.7627-1.1085-0.58648-2.9647-3.4126-3.4222-4.6662-0.85718-2.3364-1.2374-4.115-1.5338-6.6384-0.12567-1.0634-0.53817-2.1075-0.60582-3.1741-0.07099-1.1085 0.1386-2.3266 0.20622-3.4351 0.13213-2.2235-0.84753-3.9991-1.7916-5.7682-1.4372 0.27712-2.3008 0.38991-3.4738 1.3792-0.83785 0.7025-1.6144 1.4469-2.288 2.3588-0.87651 1.1891-1.8626 1.9721-2.9582 2.8874-0.86684 0.72506-1.579 1.9754-2.3072 2.8938-0.30614-0.15791-1.4501-0.99575-1.7176-0.80882-0.69608 0.48979-1.3921 0.97963-2.0915 1.4694-0.87007 0.61224-1.7692 1.579-2.4974 2.4169-1.9883 2.288-3.9185 4.4696-6.0969 6.4933-1.7692 1.6435-3.0292 3.8991-4.5501 5.8488-1.8013 2.304-3.5511 4.6114-5.2494 7.0186l0.01938 0.0774c1.115 0.0387 2.217 0.1579 3.3449 0.67349 1.231 0.56071 2.2526 1.0344 3.3256 1.9238 0.86362 0.71539 1.4276 2.172 1.9915 3.2322 0.8572 1.6144 1.144 2.2912 1.2761 4.1796 0.08054 1.1536 0.74761 2.7777 0.09334 3.6929-1.6145 2.259-3.1548 4.5855-4.7306 6.88l0.01938 0.071c0.03546 0.0194 0.06442 0.0419 0.09987 0.0643 2.0494 0.67671 5.114 1.1246 6.5513 3.042 0.41571 0.55424 0.99253 1.0828 1.1601 1.8046 0.22236 0.96998 0.232 1.4082 0.89907 1.998 1.1343 1.0022 2.2944 1.057 3.6929 1.3502 0.54462 0.11291 0.8024-0.58646 1.4308-0.33514 0.77339 0.30938 1.5468 0.61873 2.3169 0.93131 1.1568 0.46404 1.6048 1.9915 2.9131 2.0527 1.1794 0.0548 2.6102-0.10628 3.664 0.53813 1.1698 0.71862 2.4233 1.2793 3.477 2.1978 1.1182-0.94742 1.4469-1.753 2.2977-2.9808 0.83462-1.202 1.3889-1.2342 2.6328-1.376 0.19014 1.7079 0.44474 2.0494-0.61548 3.2032-0.81528 0.8862-1.4952 1.7498-2.1977 2.7617 1.6241 0.75406 2.7455 0.91839 4.4566 0.40924 0.38348-1.9205 0.94419-3.2934 1.9496-4.8627 2.8196 1.3953 4.2439 4.476 5.7488 7.502 1.1375-2.4748 1.8432-4.1602 4.0958-5.2494 1.8594-0.89906 3.4545-2.3396 5.317-3.2192 0.96352-0.45435 2.0494-0.59936 2.9905-1.1085 0.8636-0.46723 1.7949-1.1923 2.7198-1.4533 1.028-0.29003 2.0366-0.5897 3.0484-0.95384 1.057-0.38024 1.4887-1.1343 2.2428-2.101-0.76372-1.6597-1.405-2.7101-2.5168-4.041z" fill="#a3b0a3"/>
    <path d="m70.399 158.03c0.56714-0.40924 1.8143-1.7595 2.462-1.7143 1.2535 0.0869 2.1172 0.24167 3.2934 0.7315 1.5178 0.63161 4.1023-0.79595 5.4491-1.637 1.1569-0.72505 1.8272-1.0828 3.1227-1.2471 0.69605-0.0903 1.8754-2.2332 2.3621-2.8455 1.4082-1.7724 2.1559-3.7283 3.2773-5.7037 1.0957-1.9238 3.0098-3.564 3.954-5.5523 1.0763-2.2589 1.1794-4.9659 1.2632-7.4632 0.07407-2.1945 0.15469-4.476-0.05144-6.664-0.11597-1.2374-0.40604-2.4234-0.03235-3.5962 0.44472-1.3921 1.1859-2.2364 2.027-3.3546 0.48978-0.65095 2.3331-0.94096 3.0549-1.2278l0.8926 1.1311c-0.37377 1.26-0.40281 1.5919-0.14168 2.8744 0.18367 0.88942 0.2578 3.1162 0.89584 3.6994 1.8916 1.7305 3.4642 3.477 5.127 5.5104 2.9454 3.6059 5.23 7.7984 7.6534 11.884 2.4104 4.0636 6.6995 4.6887 10.605 4.866 2.1752 0.0998 4.1247-0.51558 6.2612-0.97963 1.5436-0.33514 4.3696 0.74761 5.6072 1.7852 1.3438 1.1278 2.2686 2.752 3.3481 4.1893 1.2826 1.7111 2.4491 2.2074 4.3214 2.578 1.8432 0.36416 3.3675 0.4705 4.7919 2.0205 0.9184 0.99572 0.9732 1.2084 1.2084 2.6102 0.20302 1.2148 0.61871 1.7434 1.2858 2.7198-1.086-0.38991-1.6886-0.76371-2.7552-0.22878-1.0344 0.51881-1.7724 1.0956-2.8776 1.4276-0.84108 0.25457-1.8722 0.91519-2.5683 1.5178-0.72826 0.63483-1.3728 2.2299-2.3169 2.2783-1.0956 0.0611-2.172 0.16434-3.2611 0.29322-1.2503 0.14507-1.7111 0.68639-2.7617 1.5371-0.60582 0.49303-1.7078 1.7337-2.433 1.811-1.1633 0.12242-2.288 0.3029-3.4384 0.52848-1.9173 0.37702-3.1903 2.3105-4.9336 2.8938-2.1269 0.71219-4.012 0.70573-6.1968 0.91841-4.3439 0.41569-6.9573 5.2753-9.632 8.8553-0.7315 0.98286-2.1204 1.5274-2.7166 2.4845-0.36737 0.58648-0.9152 3.1709-0.67352 3.8477 0.49628 1.405 0.98609 2.781 1.5759 4.1344 0.5317 1.2213 0.23202 2.7682 0.1998 4.1183-0.84107-0.36412-1.724-0.20622-2.5071-0.52525-1.0988-0.44794-1.3019-1.3147-2.549-1.376-0.50593 1.0248-1.1053 3.1773-0.24168 4.1118 0.99251 1.0763 2.2107 1.4856 3.2902 2.4555-0.30936 0.39315-0.63483 1.0119-1.0183 1.2922-0.3738 0.28038-0.96352 0.20303-1.3212 0.50916-0.68638 0.58328-1.2858 2.1494-1.6338 3.0806-0.53493 1.4404-0.21911 2.4523 7e-3 4.0088 0.11935 0.81528-1.0022 2.6198-1.3115 3.3932-0.2707-0.75728-0.47692-2.2171-1.1633-2.5071-0.98286-0.41888-1.7659-0.8894-2.6682-1.5146-2.1332-1.4792-3.187-0.83783-4.969 0.89909-1.3792 1.347-2.5844 2.5039-4.4631 2.4652-2.1461-0.0419-3.7767-0.73796-5.7199-1.7659-1.0183-0.53813-2.9357-3.332-3.3578-4.4857-0.88293-2.4007-1.2954-4.2247-1.5984-6.8188-0.12243-1.0408-0.39632-2.0785-0.59292-3.1-0.18691-0.96673 0.11935-2.3266 0.18046-3.3159 0.1386-2.3234-0.78628-4.1023-1.7789-5.9584-1.2471 0.2417-2.188 0.29327-3.2095 1.1537-0.92487 0.77661-1.8078 1.5725-2.5555 2.5812-0.84104 1.144-1.7627 1.8884-2.8164 2.7682-0.9313 0.77663-1.6724 2.0302-2.4491 3.013-0.39636-0.46404-1.2052-1.8723-1.7465-1.9624-0.97639-0.16434-1.9205-0.31903-2.8712-0.6155-1.3212-0.41566-3.7477-1.3115-4.563-2.7069-1.1988-2.0462-1.666-3.6091-1.579-6.1452 0.07746-2.2429 0.40924-4.3664 0.58649-6.5932 0.16757-2.0913 0.38668-4.5114-1.5468-5.5974-1.5532-0.87329-3.9153-0.29002-5.6264 0.0133-1.6983 0.30291-3.8991 0.85072-4.8789-1.2536-0.8862-1.9013-0.26747-4.0893-1.0022-6.0744 2.8358-0.0451 5.5748 0.68316 8.3816 0.75407 2.8809 0.074 5.8713-0.66385 8.3849-2.259 1.1537-0.73148 2.5007-0.54459 3.2419-1.8819 0.83785-1.5049 1.5984-3.0323 2.3524-4.5952 1.4952-3.0936 4.6984-3.4094 7.1667-4.8402l0.89905 2.3621" fill="#e7de69"/>
    <path d="m190.68 92.289c-0.59937 1.4275-0.33839 2.4683-0.6316 3.9282-0.15469 0.76694-0.37059 1.2567-0.71217 1.9399-0.30613 0.61224-0.1708 1.5017-0.35448 2.172-0.42215 1.5371-1.9175 1.0118-2.1848 2.4588-0.29326 1.5662-0.97641 3.1484-0.15146 4.4374 0.6316 0.98931 1.8884 1.8529 1.9173 3.2289 0.0133 0.63162-0.10953 1.4018 0.19977 1.9464 0.29005 0.5124 1.0763 0.59295 1.3921 0.98286 0.9023 1.1182 0.81206 2.6585 1.9142 3.7059 0.9764 0.93132 2.1107-0.48338 3.1806-0.0869 0.46404 1.1826 0.12875 2.5458 0.63484 3.68 0.52527 1.1762 1.811 1.2761 2.723 1.8981 2.3299 1.5854-1.3663 4.0539-2.375 5.0883-0.91517 0.93774-1.8175 2.1364-2.8358 2.9098-1.0602 0.80886-1.9883 0.77661-2.9904 1.6982-0.84107 0.7734-1.8883 0.97642-2.1204 2.4298-0.21268 1.3309 0.56392 2.3653 1.0989 3.4867 1.1601 8e-3 1.6113-0.67351 2.6134 0.23522 0.93773 0.85396 2.1237 1.6692 2.7488 2.9098 0.6735 1.3341 0.43181 1.9883-0.25137 3.187-0.78307 1.376-1.3018 2.6392-1.8465 4.1731-0.44469 1.2536-0.88295 2.5328-0.28356 3.6962 0.57359 1.1117 0.31903 2.6199 0.76371 3.8572 0.23204 0.64128 1.6854 2.101 2.304 2.0624 0.56396-0.0354 1.1569-0.18047 1.7016 8e-3 0.64127 0.21911 1.3373 0.62514 2.014 0.47692 0.48658-1.2761 0.80883-1.4952 2.014-1.5338 0.81849-0.0259 1.3406 1.9238 1.6532 2.5844 0.45761 0.96674 0.40925 2.7004 0.56717 3.7929 0.14183 1.0022 0.75083 1.8724 1.1697 2.7552 1.0763 2.259 1.9851 4.1925 2.7617 6.6416 0.33513 1.057 0.79272 2.0591 1.202 3.0774 0.52525 1.3116-0.68962 2.1237-1.4179 2.565l0.55747 1.4727c-2.5231 1.3341-6.6995-0.1579-9.2195-1.3599-0.46728-0.22234-1.7789-0.5317-2.0462-1.0183-0.53493-0.9732-1.0666-1.9464-1.6016-2.9228-0.64128-1.1698-0.65738-3.8058-0.97318-5.23-1.7821 0-3.3868-0.12582-5.1108 0.43828-1.7467 0.5736-3.1387 0.82815-4.9433 0.74117-1.3728-0.0643-3.8669 0.32865-4.7306-1.1182-0.7154-1.202-1.0473-1.6918-2.1236-2.3942-1.0828-0.7057-1.2826-0.18688-2.4748 0.0903-1.057 0.24491-1.3083-0.0419-2.0591 0.8862-0.70573 0.87006-1.3728 1.6209-2.1752 2.3653-1.2568 1.1665-3.4062-0.0903-4.4857-1.1633-1.4115-1.405-2.5747-2.8552-3.5994-4.6725-0.29646-0.5285-1.8754-0.72506-2.3363-0.39961-0.95064 0.67352-1.4115 0.63487-2.5264 0.61227-0.37059-0.94093-0.73795-1.8078-1.2052-2.6844-0.52202-0.97962-1.2568-1.0183-2.1913-1.3631l-1.4469 1.6724c-0.69604-1.0183-1.1214-1.5662-1.3083-2.8487-0.20625-1.4308-0.52847-1.9207-1.5436-2.8198-1.7337-1.5306-3.9315-1.5726-6.0422-2.0302-1.9496-0.42215-3.3224-3.0774-4.505-4.7532-1.3438-1.9013-3.0098-2.6682-5.0078-3.0743-2.1591-0.43824-3.8572-0.0419-5.9744 0.53815-1.724 0.47372-3.9088-0.0193-5.6426-0.32546-2.2686-0.3996-4.1474-0.79916-5.8649-2.6747-1.492-1.6306-2.5426-3.4675-3.6962-5.4459-1.6241-2.7809-3.2708-5.5169-5.2624-7.9562-0.98605-1.2052-1.927-2.6488-3.0484-3.68-1.3405-1.2278-2.3718-1.7627-2.7682-3.6865-0.21593-1.0441-0.4286-2.0913-0.64453-3.1354-0.14506-0.71219 0.28036-1.1698 0.34803-1.8659 0.0644-0.64772-0.25778-1.347-0.14169-1.9915 0.16758-0.90874 0.35125-1.8046 0.54784-2.7069 0.37058-1.6951 1.1536-2.9035 2.2589-4.0055 0.85075-0.84751 2.8744-0.93132 3.9734-1.2342l1.1955 1.753c1.6724-1.8143 2.6166-2.839 5.0173-2.6874 2.0913 0.13213 4.1796 0.31578 6.2677 0.47046 2.0367 0.14825 4.1087-0.36737 6.1098-0.16755 1.0376 0.10626 2.1688 0.56714 3.0292-0.17725 1.144-0.98606 1.3534-1.6789 1.9302-3.2354 0.56395-1.5178 1.1375-5.2881 2.4361-5.8745 1.0087-0.4576 1.9721-0.84109 3.0162-1.1697 1.4147-0.44474 1.7659-0.87976 2.8036-2.1494 0.54781-0.6703 0.83781-1.6016 1.492-2.1172 0.7025-0.55104 1.9399-2.0334 2.8004-1.998 1.0312 0.04189 2.0591 0.08054 3.0871 0.16756 1.0827 0.09024 1.7659-1.1923 2.5361-2.0269 2.8584-3.1 5.5201 0.0044 8.5428 0.26104 1.8368 0.1579 2.6328-1.7176 3.3997-3.4384 0.67351-1.5114-0.33835-3.4159-0.63481-5.0624-0.32225-1.8013-0.90551-3.68-0.40601-5.4524 0.31259-1.1085 0.58972-1.3438 1.376-2.1043 0.79595-0.77017 1.0151 0.05791 1.9173-0.15148 1.6951-0.38989 3.1903-0.72827 4.7692-1.5274 1.6081-0.81531 2.8874-0.88621 4.6565-1.0151-2.188-1.8143-3.8863-4.0958-5.736-6.3708-1.028-1.0183-2.7294-2.1591-3.2708-3.7026-0.5317-1.5178 0.40925-3.3932 1.3212-4.4728 1.4469 1.7562 3.5994 1.7659 5.5201 2.6296 1.956 0.87973 3.3578 2.4588 4.2247 4.7081 0.62839 1.6306 1.6467 4.1763 3.5092 3.7864 2.201-0.46079 3.8961-0.10627 5.2559 2.1591 1.4308 2.3847 1.4404 3.8283 1.2503 6.6576-0.18368 2.752 2.1462 3.5511 3.8412 4.4663 0.30935 0.16757 0.27069 0.9313 0.52526 1.1762 0.27714 0.26424 1.2213 0.23846 1.5694 0.30935 1.0538 0.20626 1.7498 0.72831 2.085 1.9624 0.60905 2.2396-1.1665 4.8208-2.1752 6.577-0.21911 0.3867-0.44467 0.77661-0.66702 1.1698" fill="#abacda"/>
   </g>
   <path d="m60.245 182.59-2.7821 0.59616-0.49679 0.79487 0.39744 0.29806v1.4904l-0.89423 0.39744 0.4968 2.0865-2.5834 1.7884 0.29807 0.59616-2.0865 2.3846 2.3845 2.484-0.69551 0.8942 2.6826 2.9807-1.2917 1.391h-1.6891l0.59611 1.391-2.1858 0.59614 0.99358 1.093-1.391 0.39742-0.99357-0.79487 0.39742 0.69553h-1.4903l2.8815 4.173-0.09921 0.79486-1.0929-0.0993 0.4968 1.7884 1.8878 0.59613 2.2853 2.5834 1.4903 0.79488-0.19873 0.99357 0.69552 1.2916 1.4903 0.49677v1.6892l2.0865 2.4839 0.4968 1.093 1.4903 1.0929-1.2917 0.99357v1.093l2.8815 2.0865 0.89425 0.1987 1.1923 0.89425v0.99356l0.99357-0.39743 1.7884 1.4904-0.1987 2.2853 1.093-0.29809-0.9936 2.9807 0.59616 1.0929" fill="none" stroke="#000"/>
   <path d="m62.508 183.18 4.4619-0.31871 2.0716-1.5935 1.9122 0.3187 4.4619 3.8246 2.2308 0.15934 0.95614-1.7528 0.15937-1.2749 2.3904-1.2748 0.79674-1.9122 1.5935 2.231h1.4342l1.7528-2.0715-0.31873-1.7528-1.2748-2.7091 1.2748-1.7528-0.47804-1.2749 2.0715-2.3904 1.5935-1.2748 0.95612 1.9122 1.5935-1.7528v-0.7968l-0.79679-1.2748 3.1872-2.8684-1.2749-1.9122 0.79679-0.95614-1.1155-1.2748-0.31872-3.0277 2.3904 1.9122-0.95612-3.0277-3.0277-1.7528 3.9839-2.5497 1.4342 0.6374 0.7968-1.4342 1.7528 0.15935 0.95614 1.4342 2.2311-0.47807 3.5058-5.5775 1.9122 0.31868 0.63741-1.1155h2.0716l2.7091 1.2749 1.5935-2.5497-1.1155-1.5935-0.31876-1.7528 1.1155-2.7091 2.2308-0.15937 2.2311-1.1155 0.95615-1.5935 0.47808-1.4342 3.0277-2.2311h0.95615l1.2748-0.79681 0.7968 0.31874 1.7528-1.7528 2.5498-1.1155 0.79679-2.3904 2.2311-0.15937 0.63743 1.1155 1.5935-1.7528 0.47804-2.0718 1.1155-0.47801 0.63744 0.95612 0.95614-1.9122 3.0277 3.3465 0.63743-2.2311h1.1155l1.9122 2.2311 1.4342-0.7968 0.47806-1.2749 1.7528-0.15932 0.79678 1.1155 1.9122-0.79676 2.2311 0.15936 2.3904 3.9839 2.5497-1.2748 2.231 2.7091 3.984 0.47809 2.8684 0.79676 1.7528-0.15935 1.2748-0.63741 2.8684 1.1155 1.5935 2.0715 2.5497-0.31869 1.9122 0.47806 2.8684-1.7528 1.7528-0.79676 2.0715-0.95616 0.63743-1.4342-0.15936-2.5497-0.6374-0.63746-1.2748 2.2311" fill="none" stroke="#000"/>
  </g>
  <ellipse cx="71.488" cy="238.55" rx="1.9026" ry="2.0755" stroke-width="1.4698"/>
  <ellipse cx="183.84" cy="125.92" rx="1.9026" ry="2.0755" stroke-width="1.4698"/>
 </g>
 <ellipse cx="59.178" cy="126.44" rx="2.4214" ry="2.6415" stroke-width=".31219"/>
 <ellipse cx="52.917" cy="147.04" rx="1.9026" ry="2.0755" fill-rule="evenodd" stroke-width=".24529"/>
 <g fill="#000000" font-family="sans-serif" font-size="3.5278px" letter-spacing="0px" stroke-width=".26458" word-spacing="0px">
  <text x="54.330723" y="120.78612" style="line-height:1.25" xml:space="preserve"><tspan x="54.330723" y="120.78612" font-size="6.35px" stroke-width=".26458">Shimla</tspan></text>
  <text x="29.892" y="145.42683" style="line-height:1.25" xml:space="preserve"><tspan x="29.892" y="145.42683" font-size="6.35px" stroke-width=".26458">Solan</tspan></text>
  <text x="60.793861" y="190.46678" style="line-height:1.25" xml:space="preserve"><tspan x="60.793861" y="190.46678" font-size="6.35px" stroke-width=".26458">Nahan</tspan></text>
  <text x="145.6225" y="63.021858" style="line-height:1.25" xml:space="preserve"><tspan x="145.6225" y="63.021858" font-size="6.35px" stroke-width=".26458">Reckong Peo</tspan></text>
 </g>
</svg>
