<!-- Created with Inkscape (http://www.inkscape.org/) -->
<svg width="177.8mm" height="205.54mm" version="1.1" viewBox="0 0 177.79389 205.54464" xmlns="http://www.w3.org/2000/svg" xmlns:cc="http://creativecommons.org/ns#" xmlns:dc="http://purl.org/dc/elements/1.1/" xmlns:rdf="http://www.w3.org/1999/02/22-rdf-syntax-ns#">
 <metadata>
  <rdf:RDF>
   <cc:Work rdf:about="">
    <dc:format>image/svg+xml</dc:format>
    <dc:type rdf:resource="http://purl.org/dc/dcmitype/StillImage"/>
    <dc:title/>
   </cc:Work>
  </rdf:RDF>
 </metadata>
 <g transform="translate(-31.086 -38.84)">
  <g stroke="#fff">
   <g stroke-width=".5">
    <path id="_x33_" d="m92.813 121.69c1.9411-0.25295 3.6492-0.38652 5.5959-0.23021 1.8019 0.14209 3.5269 1.2192 5.1156 2.1201 1.5376 0.8725 3.1291 1.4097 4.4564 2.7397 1.5348 1.5405 2.9785 2.8818 4.2631 4.7178 1.1425 1.6285 1.9781 3.5412 3.1291 5.1924 0.88102 1.2647 2.6175 3.7288 4.2346 2.9642 1.3954-0.65935 2.3077-3.7117 4.229-2.4441 1.7876 1.1794 3.4814 2.2424 5.3771 3.1461 2.663 1.2675 4.928 3.2853 7.1619 5.3828 2.302 2.1628 4.5899 4.3199 6.8096 6.5679 2.3334 2.3618 1.9609 6.403 2.1344 9.7624 0.071 1.3982-0.0171 3.51 1.5091 3.8935 1.6143 0.40359 2.7881 0.84125 4.3768 0.16768 0.49166 1.7564 0.66218 2.4924 0.38367 4.2915-0.19325 1.2363-0.88955 2.5181-0.86681 3.7486 0.0539 2.9926 0.19608 5.9853 0.32396 8.9752l-1.0544-1.546c-1.725 0.47748-3.7686 0.51442-4.7036 2.5607-0.91515 2.0036-1.3585 3.9419-1.1538 6.2069l-0.78441-0.99754c-1.5773 0.62524-3.5127 0.99187-4.1921 3.1263-0.68777 2.1628-0.24157 4.3085-0.1762 6.6049 0.0568 1.944 0.15916 4.3484-0.13924 6.2581-0.17338 1.1055-0.61673 2.231-0.9123 3.2996-0.25011 0.90948-1.0516 1.5432-1.5688 2.2622-1.2562 1.7478-2.2367 3.4757-3.1661 5.4738-0.83839 1.8046-2.4385 3.4388-3.618 4.9223-0.35241 0.44334-1.5717 0.3865-2.143 0.74176-0.95492 0.59966-1.8701 1.0544-2.8875 1.5034-0.65654 0.28988-1.6058 0.70481-2.2936 0.64799-0.8725-0.074-1.6597-0.71618-2.5777-0.77873-1.205-0.0823-1.9213 0.71618-2.9471 1.458 0.18473-4.2858-1.0714-8.2617-1.7677-12.451-0.35811-2.1599-0.49167-4.0953-1.2477-6.1473-0.73892-2.0093-1.3329-4.0839-1.8387-6.1899-1.0345-4.2772-2.5124-8.1111-4.0612-12.138-0.69627-1.8132-1.6427-3.5667-2.6232-5.1866-1.205-1.9895-2.6345-3.2002-4.1948-4.7888-2.3305-2.3703-5.3288-2.5692-8.0458-3.9447-2.7795-1.4097-4.7235-3.888-6.1814-6.9004-0.75029-1.5517-0.8526-3.3365-1.1681-5.0758-0.26999-1.4835-1.3727-3.0637-1.9752-4.4278-0.36094-0.8185-0.18473-1.5319-0.47178-2.2936-0.1961-0.5201-0.87534-1.8758-0.71335-2.3816 0.36663-1.1311 0.53146-1.6484 1.3045-2.4271 0.35525-0.3581 1.6115 0.88387 2.0036 1.0658 0.88103-0.95209 0.85546-2.2964 0.46041-3.4673-0.51725-1.5432-0.68494-1.6683-0.04543-3.2314 0.89807-2.1969 2.2367-5.1015 2.3759-7.5684 0.17052-3.0012 0.65651-5.812 1.259-8.7307 0.24441-1.1851 0.59399-2.3361 0.99186-3.4616 0.28136-0.79008 0.55987-1.5801 0.84124-2.3674 0.22452-0.65936 0.58546-0.52293 1.1823-0.62524" fill="#e2b584"/>
    <path id="_x34_" d="m59.218 173.55c1.7705-1.3215 2.7312-2.4555 3.4445-4.7888 0.59967-1.961-0.42631-3.8282-0.44904-5.883-0.01704-1.5972 0.09095-4.8144 1.0004-6.0308 1.1709-1.566 3.5639-1.7109 5.2179-1.4266 0.81282 0.13925 1.5915 0.1961 2.3305-0.25008 0.52577-0.31831 1.8701-1.5262 2.3787-1.4182 1.9042 0.41208 3.6235 1.4836 5.5079 2.1087 0.99471 0.3325 4.3739 0.0371 4.8343 0.9407 0.94922 1.8728 1.9979 3.8168 2.3844 5.9455 0.38936 2.1372 0.68208 3.7202 1.7648 5.5703 1.1567 1.9781 2.3503 3.0694 4.0727 4.3482 1.6854 1.2476 3.2626 1.6995 5.1469 2.3589 1.9099 0.66787 3.4645 1.7791 4.9593 3.3024 0.66788 0.67923 1.387 1.2846 2.0889 1.9099 0.66786 0.59399 1.1595 1.745 1.6256 2.5579 1.043 1.816 1.961 3.7117 2.7255 5.7068 0.7446 1.9354 1.674 3.7429 2.2224 5.7779 0.57977 2.1514 1.1994 4.2858 1.7223 6.4571 0.4746 1.9695 1.1254 3.8878 1.816 5.7636 0.67925 1.8444 0.60249 3.6947 1.0288 5.5846 0.91228 4.03 1.9326 8.2305 1.7536 12.38l-0.7503-2.0519c-2.086 1.2078-4.9848 1.5062-6.2524 4.1237-0.63658 1.3215-1.2704 2.6232-1.9781 3.8964-0.77588 1.3954-1.6228 1.0714-2.8136 1.8246-2.4442 1.5489-4.8229 1.8644-7.5655 2.123-1.0828 0.10228-2.2793-0.378-3.3706-0.48315-1.3727-0.13073-2.6885-0.19894-4.0641-0.17904-0.53999-1.7166-0.63945-1.7195-2.1173-2.2993-0.87819-0.34386-1.8132-0.4888-2.6857-0.84976-0.76166-0.31546-2.0605-0.77869-2.555-1.5403-0.60534-0.93504-0.89808-2.1287-1.6086-2.9387-1.2107-1.3784-2.9443-3.8253-4.766-3.8253-0.86113 0-2.3787-0.29558-2.6175-1.4238-0.2643-1.2391 0.15063-2.4016 0.01705-3.6606-1.7762-0.88103-3.3536-0.82703-3.7174-3.3365-0.3041-2.1032-0.85829-4.1266-1.313-6.1928-0.44335-2.0064-1.1624-3.9704-1.6456-5.9767-0.20463-0.84978-0.67924-1.7052-0.90093-2.6289-0.27283-1.1482-0.43198-1.9838-0.44335-3.1632-0.01705-1.8303 0.38367-4.1835-0.35241-5.7977-0.98618-2.1628-1.9838-3.8766-3.2939-5.7891-1.0459-1.5319-2.3277-2.8647-2.9614-4.7405-0.71335-2.1173-0.21032-3.8822 0.17905-6.0052" fill="#c2f0c2"/>
    <path id="_x36_" d="m59.218 173.55c-0.46893 2.4896-0.95208 4.4762 0.20179 6.8208 1.1283 2.2992 2.7624 4.2289 4.1778 6.3008 0.6423 0.94352 1.0601 2.0634 1.546 3.1263 0.59967 1.313 0.52293 2.0405 0.47746 3.561-0.08525 2.7653 0.26715 4.8911 0.89523 7.5343-1.1311-0.63378-2.2424-1.3074-3.4359-0.44906-1.2476 0.89525-2.2991 1.5574-3.2569 2.8732-0.6423 0.88387-1.2334 3.0836-1.4835 4.2062-0.34104 1.5176-0.34104 3.1716-0.65367 4.715-0.12505 0.62809-1.1936 0.73325-1.6768 0.91798-0.68778 0.2643-1.1027-0.26999-1.7223-0.68779-1.0828-0.73038-2.393-1.1141-3.6037-1.438-0.57124-0.15346-1.2249-0.21882-1.7536-0.52576-0.51725-0.30123-1.3784-1.0942-1.9497-1.134-1.5348-0.10798-1.6882 1.924-1.7677 3.2342-1.6199-1.9695-3.2541-3.8651-4.6978-6.0166-1.4807-2.2083-2.6061-4.6552-3.9049-7.0112-0.38367-0.69911-0.28989-2.5038-0.16768-3.2825 0.25294-1.6228 0.12789-2.5067-0.5684-3.9561-1.0629-2.2111-2.7454-4.2686-4.4506-5.7891 1.0714-1.387 1.6142-2.0974 2.0577-3.8708 0.09664-0.39221 0.21315-1.7024 0.57693-1.8388 0.79576-0.30128 1.5944-0.59969 2.3901-0.90094 1.3727-0.51725 2.5777-0.54851 4.03-0.62241 1.313-0.0682 2.4157-0.32969 3.7088-0.69914 1.404-0.40072 2.6459-0.75314 3.9504-1.4636 1.0032-0.54566 2.0775-1.4097 3.1888-1.458 1.4609-0.0652 2.9216-0.0909 4.3739-0.2558 0.77587-0.088 1.0714-0.52292 1.6797-1.1169 0.62524-0.62524 1.0004-0.63946 1.8388-0.77303" fill="#a3b0a3"/>
    <path id="_x37_" d="m45.181 212.58c0.04831-0.7844 0.06537-2.2765 0.63946-2.8306 0.87818-0.85261 1.8274 0 2.6232 0.46325 1.6399 0.95207 3.5951 1.1908 5.3203 1.9866 0.57693 0.26715 1.4238 1.2363 1.9809 1.0203 1.3699-0.52862 1.7791-0.36945 2.1087-2.0036 0.21316-1.0601 0.2842-2.1514 0.40072-3.2314 0.10516-0.98332 0.5343-1.8871 0.83272-2.8079 0.78723-2.4299 1.8785-3.2626 3.7088-4.5756 1.2533-0.90096 3.7145-0.76451 4.2033 1.2618 1.0487 4.3482 2.41 8.509 3.0608 12.982 0.22168 1.5233 2.5634 1.8444 3.5724 2.3446 0.12505 1.1738-0.61104 3.0751 0.0739 4.0868 0.82986 1.2249 2.3389 0.75599 3.382 1.2476 2.106 0.98902 4.0158 3.3565 4.9934 5.7011-1.0459-0.8725-3.939 3.51-4.5672 4.4392-1.1624 1.7223-3.6492 2.7028-5.4595 2.376-1.1368-0.20462-2.2651-0.378-3.4076-0.5201-0.95492-0.11939-1.7648 0.86682-2.6232 1.3074-1.0629 0.54285-2.0577 0.96061-3.1716 1.3358-1.0231 0.34106-1.9127-0.0766-2.95-0.34387l-1.6086 2.0946c-0.27851-1.3074-0.29557-2.2536-1.5005-2.7141-1.1709-0.44903-1.7336-0.76449-2.5977-1.7905-0.85544-1.0146-1.4664-2.1144-2.2509-3.1944-0.93787-1.2931-1.5319-0.6764-2.7767-1.097-1.1738-0.39787-2.3446-0.44051-3.4986-0.89521-1.0345-0.40926-1.765-1.8246-2.3503-2.842-0.55987-0.9748-1.7479-1.4011-2.2026-2.4697-0.5542-1.3017-0.54567-2.6942-1.3642-3.7572 0.76166-1.6171 1.5915-2.4413 2.7397-3.6776 1.0459-1.1283 1.6854-2.6716 2.6885-3.8964" fill="#e7de69"/>
   </g>
   <path d="m124.5 73.942c3.1632-2.1003 6.3406-4.1664 9.4554-6.3575 0.75597-0.5343 1.5716-1.1453 2.4044-1.4835 1.1084-0.45188 1.6228 0.10799 2.6658 0.52009 0.96345 0.37798 1.617 0.52293 2.4726 1.1709 0.84123 0.63377 1.2277 1.495 1.9099 2.3389 0.56842 0.70482 1.2533 1.3215 1.853 1.995 0.44335 0.49736-0.44619 2.1344-0.55136 2.7056-0.1563 0.8526 0.15632 1.9383 0.38936 2.7454 0.40925 1.4182 1.0572 0.94356 2.143 1.4238 1.7138 0.75598 2.7426 2.4896 3.5496 4.337 0.3837 0.87534 1.3386 1.0061 2.0832 1.5972 0.57976 0.46041 1.4266 1.4893 1.7364 2.2395 0.28705 0.69914 0.37515 2.0348 0.324 2.7852-0.0796 1.1738 0.21881 2.1457 0.4604 3.2826 0.3382 1.5944 2.4924 3.399 3.7657 3.9618 0.77873 0.34388 1.5233 0.71051 2.3248 0.9805 0.80432 0.27283 1.9156-0.16484 2.7624-0.25295 1.5887-0.16768 3.419-1.6171 4.8854-2.3305 1.7393-0.84408 3.399-2.0377 5.2605-2.4924 1.7848-0.43482 3.5867-0.52577 5.3658-1.0572 1.0885-0.324 3.3308-2.4442 4.0612-3.4304 0.79575-1.0743 2.9955-3.9845 4.3766-2.663 1.2448 1.1937 0.79008 2.4328 0.59684 4.1408-0.0966 0.86113 1.151 3.1092 1.3415 4.0329 0.25009 1.2135 0.4604 2.8675 0.12223 4.0784-0.44901 1.6058-1.2164 2.6942-2.0348 4.0755-0.26714 0.45188-0.91796 0.8327-1.3499 1.0544-0.79575 0.40641-0.92934 0.59113-1.4011 1.4466-0.48315 0.8725-0.61389 1.043-1.4295 1.4552-0.57692 0.29273-0.89807 0.63661-1.1226 1.3528-0.44904 1.4324-0.39221 2.9528-0.59683 4.4591-0.23589 1.7364 0.70198 2.2566 1.7109 3.2569 0.64797-0.44336 1.043-0.65082 1.4154-1.3926 0.2842-0.56556 0.67926-1.907 1.1624-2.2452 0.66503-0.46325 1.2505-0.82418 1.765-1.4978 0.30979-0.40641 0.74176-1.2164 1.2164-1.2221 1.907-0.0227 3.8168-0.0483 5.7238-0.0711 1.5234-0.0199 2.0036 1.0089 2.0946 2.7312 0.0511 0.93502 1.0714 0.65366 1.3471 1.1794 0.43199 0.8185 1.0686 1.2562 1.6711 1.9013 0.4263 0.45757 0.48314 1.259 0.79007 1.836 0.49454 0.92651 0.84693 1.1908 0.19895 2.0491-0.44051 0.58261-0.57125 1.3868-1.1283 1.7848-0.5883 0.41494-0.67639 1.1709-0.15631 1.7479 1.5205 1.6882 1.7934 2.0746 0.73325 4.2517 1.3699 1.0544 1.5176 2.3304 1.6711 4.1294 0.0682 0.79007 0.39217 2.0234 0.24439 2.8051-0.23305 1.2135-0.81282 0.65081-1.5062 1.3699-0.84125 0.87536-2.1032 2.5748-1.7223 3.9959 0.42915 1.6029 1.961 2.6516 2.9955 3.6747 1.6313 2.0064 3.1291 4.0186 5.0588 5.6187-0.86965 0.0652-1.8956-0.0454-2.7369 0.20178-0.91228 0.26714-1.8331 0.9265-2.6971 1.367-0.80428 0.4064-1.8842 0.44336-2.7426 0.64229-0.35525 0.0824-0.72471-0.0937-1.0743-0.18187-0.53144-0.13359-0.85544 0.4462-1.2618 0.83837-1.4892 1.4438-0.75032 3.9078-0.41211 5.8006 0.19608 1.0999 0.43198 2.1315 0.71618 3.2059 0.34105 1.2789-0.23304 1.9497-0.76163 3.1347-1.0061 2.2622-3.1063 1.6399-4.695 0.79862-0.94924-0.50305-1.5062-0.65652-2.5493-0.74745-0.90376-0.0796-1.7336 0.70198-2.5265 1.1709-0.65649 0.38936-1.0942 1.6484-1.782 1.907-0.62523 0.23586-2.0746-0.14495-2.7483-0.17337-1.8018-0.074-2.9073 1.8956-4.0129 3.2428-0.45188 0.55419-0.96345 1.4921-1.529 1.8672-0.62239 0.41778-1.6029 0.50302-2.2963 0.72186-0.63377 0.19895-1.2448 0.53715-1.8558 0.81566-0.53147 0.24157-0.64799 1.3897-0.84409 1.9866-0.51441 1.583-1.0686 3.1318-1.6454 4.6837-0.68211 1.8332-2.1656 1.5659-3.544 1.4266-1.2761-0.12794-2.5579 0.34673-3.8282 0.25578-1.4466-0.10525-2.8904-0.2103-4.337-0.32969-1.2647-0.10798-2.6289-0.38366-3.8822-0.16767-0.50587 0.088-1.3954 0.0117-1.7848 0.43484-0.57978 0.62808-1.1596 1.2562-1.7393 1.8871-0.13073-2.9898-0.26999-5.9853-0.32396-8.9752-0.0227-1.2306 0.67639-2.5124 0.86965-3.7486 0.27853-1.7991 0.10798-2.5351-0.38367-4.2915-1.475 0.62524-3.6151 0.57408-4.9166-0.6025-1.2903-1.1652-0.97197-3.777-1.08-5.613-0.10227-1.7705 0.0766-5.0248-1.0231-6.3775-1.3415-1.6484-2.9188-2.8704-4.2744-4.5245-1.2136-1.4836-2.9273-2.7-4.2972-3.9902-1.458-1.3699-2.9614-2.555-4.5615-3.669-1.4182-0.98618-3.0665-1.404-4.5017-2.3503-1.5688-1.0345-3.4928-2.9614-5.1356-1.2022-0.43198 0.46041-1.3699 1.8246-1.9013 1.8615-1.1709 0.0796-1.6342-0.12794-2.5692-1.0458-1.2618-1.2391-2.484-3.004-3.3508-4.6411-1.9923-3.7514-4.6837-7.1335-8.1537-9.0376-3.0949-1.6967-6.4457-3.5894-9.9612-3.1347-0.44619 0.0569-2.4157 0.64514-2.7169 0.27851-0.95491-1.1567-1.296-1.5034-2.6061-1.9099-1.7848-0.5542-3.5923-0.76735-5.3572-1.4238-1.0913-0.40641-2.2054-0.98903-3.1263-1.8019-0.32116-0.2842-1.2164-1.404-1.6115-1.3642-0.67924 0.0654-1.3613 0.13074-2.0405 0.19609-0.41209-0.9606-0.55703-1.8928-1.4438-2.231-1.0487-0.40357-1.2505-1.3443-1.5717-2.5095-0.7304-2.6573-2.373-2.2765-4.2886-2.5408-1.6171-0.22452-3.4275-2.0605-4.5302-3.3962-1.3187-1.6001-2.825-2.0832-4.3825-3.2655-0.85829-0.65083-1.3329-1.1084-2.3277-1.2022-0.99187-0.091-1.9895-0.12789-2.9671-0.34957-1.8758-0.42346-3.5867-1.2334-5.4994-1.3727-3.8253-0.27567-6.8265-2.6744-10.115-4.7519-1.4495-0.91797-2.6716-3.0893-3.6037-4.6495-1.1936-1.995-1.853-3.8112-2.6175-6.0961-0.31547-0.94924-0.4803-1.995-0.71051-2.9757-0.11653-0.49735-0.17336-2.6232 0.15915-2.8506 1.6512-1.1311 3.4531-0.85545 5.3089-0.85545 3.9078 0 7.7047-0.47746 11.558-1.2533 1.8303-0.36947 3.5441-0.70767 5.306-1.4068 1.2505-0.49452 3.6179-1.5205 4.4364-2.7994 0.74462-1.1595 1.6626-2.2566 2.0746-3.6349 0.46325-1.5517 0.76166-2.9528 1.0061-4.5728 0.41492-2.7426 1.1794-5.3373 1.1027-8.1793-0.04262-1.5119-0.15916-3.0069-0.23304-4.516-0.04262-0.86113-0.39504-3.4047 0.12505-4.1237 0.84123-1.1595 2.0122-1.6569 2.0122-3.3508 0-0.65935-0.13358-1.0686-0.02274-1.745 0.08524-0.53146 0.80144-0.92365 1.0657-1.3983 0.70482 0.02843 0.88103 1.0402 1.7564 1.0402 0.8185 0 1.3926 0.07674 2.1485 0.43484-0.88956 1.9354-1.0146 3.9249-1.6882 5.954-0.66788 2.0065 1.4238 3.9988 2.322 5.4936 0.42915 0.71335 1.2249 1.0146 1.8842 1.3358 1.1652 0.5684 1.1453 1.0118 1.5858 2.4271 0.54852 1.7593 1.5944 3.922 2.8136 5.1497 0.76166 0.76735 1.3642 1.4352 2.285 1.8814 0.7304 0.35525 1.6995 0.59114 2.3105 1.1624 0.42915 0.40072 0.85829 0.80145 1.2903 1.2022 0.2302 0.21315 0.85544-0.14494 1.1453-0.12506 0.91228 0.06821 1.7962 0.63093 2.5948 1.0885 0.74745 0.42631 1.3472 0.91229 1.9895 1.5205 0.62524 0.5883 2.1372-0.5542 2.6544-0.86966 0.35525-0.21599 1.7279-0.06821 2.0718 0.11937 0.75881 0.40925 0.61103 2.4157 0.57124 3.1745-0.07959 1.5631 1.4154 3.2853 2.8108 2.9983 0.89523-0.18474 1.5176-0.324 2.4044-0.13642 0.91512 0.1961 1.0629 1.296 1.4664 2.2395 0.37798 0.88103 0.45187 1.5858 1.1965 2.0634 0.87819 0.56272 1.2505 0.42345 2.2054 0.17905 1.6427-0.41778 2.5634 2.2395 3.8566 3.0126 0.63944 0.38084 1.347 0.92365 2.086 0.47462 1.0885-0.65935 0.92366-0.68494 1.2448-1.9297 0.31545-1.2249 1.3756-4.8456 2.9018-3.9817 0.69345 0.3922 1.3329 1.205 2.0064 1.529 0.81566 0.38935 1.7989-0.04832 2.5777-0.29841 1.4836-0.46609 2.7596-1.7677 4.1494-2.5493" fill="#fcc"/>
  </g>
  <path d="m71.98 215.51 2.8901-3.2514h3.2514l-1.8063-2.1676 2.5288-8.3092 4.6965-9.393 1.445-4.6965-1.8063-3.9739h3.6126l2.8902-2.1676 3.974 6.1416 2.8902-2.1676 10.115-3.2514-0.36125-3.9739-4.6965-9.393v-3.2514l-2.8901-5.7803 1.4451-6.1416-1.4451-8.6703 4.6965-4.3351 1.8064-5.0577-1.0838-11.561 6.8641-7.9479-3.2514-3.6126-6.1416-2.1676-2.529-3.6126-8.3092-2.8901h-2.8901l-2.1676-2.1676 6.1416-3.6126" fill="none" stroke="#000" stroke-width=".5"/>
  <ellipse cx="91.832" cy="99.315" rx="1.678" ry="1.8304"/>
  <ellipse cx="83.055" cy="183.67" rx="1.678" ry="1.8304"/>
  <ellipse cx="99.276" cy="159.46" rx="1.678" ry="1.8304"/>
  <ellipse cx="104.77" cy="128.52" rx="1.678" ry="1.8304"/>
  <g fill-rule="evenodd" stroke-width=".21633">
   <ellipse cx="64.37" cy="214.38" rx="1.678" ry="1.8304"/>
   <ellipse cx="49.883" cy="185.01" rx="1.678" ry="1.8304"/>
  </g>
 </g>
 <path d="m69.971 203.55-3.541-4.2492-3.541-0.35412-2.1246-0.70819-1.4164-3.5411-2.8303-2.4772-3.1894-1.0639-8.2636-9.3029v1.5911l-1.2817-0.0884-1.3259-0.70715-0.61878-0.53039-0.04426-0.39777-1.6353 1.1492-1.4585-0.92816-1.6352-1.1491-1.2375-1.1049-1.1934-0.83977-0.75138-1.3259-0.04418-1.2817" fill="none" stroke="#000" stroke-width=".5px"/>
 <path d="m45.065 181.85-4.8771-6.1554-3.7785-3.9098-1.4241-1.9878-1.7724-3.489-3.596-2.7384-1.6225-2.0212-2.3731-4.6291v-2.3472l-4.7947-6.2592-2.3326-2.0331" fill="none" stroke="#000" stroke-width=".522px"/>
 <g font-family="sans-serif" font-size="3.5278px" letter-spacing="0px" stroke-width=".26459" word-spacing="0px">
  <text x="9.9939318" y="140.99751" style="line-height:1.25" xml:space="preserve"><tspan x="9.9939318" y="140.99751" font-size="6.3501px" stroke-width=".26459">Hamirpur</tspan></text>
  <text x="64.17112" y="60.501675" style="line-height:1.25" xml:space="preserve"><tspan x="64.17112" y="60.501675" font-size="6.3501px" stroke-width=".26459">Keylong</tspan></text>
  <text x="76.490486" y="92.280029" style="line-height:1.25" xml:space="preserve"><tspan x="76.490486" y="92.280029" font-size="6.3501px" stroke-width=".26459">Manali</tspan></text>
  <text x="71.730736" y="121.25853" style="line-height:1.25" xml:space="preserve"><tspan x="71.730736" y="121.25853" font-size="6.3501px" stroke-width=".26459">Kullu</tspan></text>
  <text x="50.31184" y="140.01755" style="line-height:1.25" xml:space="preserve"><tspan x="50.31184" y="140.01755" font-size="6.3501px" stroke-width=".26459">Mandi</tspan></text>
  <text x="19.138824" y="189.16476" style="line-height:1.25" xml:space="preserve"><tspan x="19.138824" y="189.16476" font-size="6.3501px" stroke-width=".26459">Bilaspur</tspan></text>
 </g>
 <ellipse cx="70.191" cy="203.71" rx="1.678" ry="1.8304"/>
 <text x="71.288651" y="201.57014" fill="#000000" font-family="sans-serif" font-size="3.5278px" letter-spacing="0px" stroke-width=".26459" word-spacing="0px" style="line-height:1.25" xml:space="preserve"><tspan x="71.288651" y="201.57014" font-size="6.3501px" stroke-width=".26459">Shimla</tspan></text>
 <path d="m3.6137 158.39 0.31231-0.72871v-0.46844l0.2082-0.10411v-0.6246l-0.26025 0.3123-0.36435 0.0521v0.88484l-0.3123-0.46845-0.2082-0.5205-0.20821-0.4164-0.1041-0.67664 0.052079-0.67665 0.052079-0.67665-0.41639-1.093-0.41641-0.67665-0.15615-0.57255-0.3123-1.3012 0.67665 0.7287 0.6246 0.0521-0.41639 0.72868 0.31229 0.36435 0.1041 0.78075 0.20819 0.15615 0.20821 0.26025-0.1041 0.98895 0.62459-0.36434v0.52049l-0.2082 0.4164 0.052079 0.41641 0.3123 0.15613h0.7287l-0.20819 0.36436 0.26025 0.4164 0.67665 0.4164 0.052079 0.98895 0.78074-0.1041v0.36435l-0.052079 0.78075 0.20821 0.20819 0.83279-0.15615-0.052079 0.36436-0.015704 0.50742v0.43696l0.21848-0.12138 0.02431-0.24276 0.38841 0.0485v-0.24276l0.07284-0.16992 0.07284 0.26702 0.16993 0.0485 0.26704 0.16994 0.16992 0.21848 0.67972 0.33986h-0.33986l-0.36414 0.0728v0.16992l0.16994 0.12138v0.43696l0.14565 0.31558 0.16993 0.12138h0.80109l-0.12137 0.65544 0.1942 0.33986 0.72827 0.58261-0.02431-0.67971 0.1942-0.0243 0.02431 0.26703h0.31558l-0.07284-0.60689 0.70399 0.0971-0.12137 0.82538-0.38841 0.0728 0.07284 0.2913 0.24276 0.48551h0.48551l0.02431 0.36414-0.14564 0.21848-0.33986 0.0485 0.14565 0.12138h0.26703l0.33287-0.0581 0.06867 0.27456 0.48047-0.0687 0.30887 0.44614 0.06867 0.37751-0.1716 0.30889h-0.24024l-0.10295 0.20592 0.30888 0.13726v0.30889l0.13728 0.10295 0.10296-0.30887 0.44615-0.20592v0.37752l-0.03434 0.17159 0.24024 0.0343-0.03433 0.24023-0.03434 0.24024v0.24024l0.13728 0.13727 0.20592-0.34319 0.48047-0.27456-0.24023 0.37751-0.03434 0.41184 0.10295 0.30888 0.24025 0.24023 0.13727 0.27456 0.13728 0.0687 0.13728-0.24023 0.06867-0.30888 0.13728 0.41183v0.48046l0.20592-0.27454v0.30887l0.06867 0.37752-0.03434 0.34319 0.27456-0.10296 0.30887-0.0687 0.03433 0.24023v0.27456l-0.13728 0.37751 0.3432-0.10295 0.17159-0.61775 0.1716 0.41183v0.51479l-0.24023 0.30888 0.61775 0.85798v-0.48047l0.06867-0.48047 0.75503 0.78934v0.48048l-0.20593 0.24023-0.10295 0.17161 0.30888 0.30887 0.34319-0.0687 0.61775 0.58343-0.03433 1.0296 0.20592-0.20592 0.1716 0.0687 0.06867 1.0639 0.24024 0.17159 0.13727 0.20592 0.1716 0.0343 0.10296-0.34319-0.03433-0.3432 0.48048 0.10295v0.54912l0.06867 0.37752 0.7207 0.44615v1.0296l0.10295 0.13728 0.85799-0.0687v0.37751l0.06867 0.48048 0.20592 0.17159 0.37752 0.3432-0.03433 0.1716-0.24024 0.20592-0.10296 0.24022-0.30887 0.20593v0.48047h0.20592l0.20591-0.24024h0.41183l0.13728-0.1716 0.41183 0.0687 0.06867 0.30888 1.2698 1.2012 0.51479 0.0687 0.37752 0.13728 0.54912 0.0343 0.30887-0.10296h0.44615l0.37752 0.0343 0.30887-0.48048 0.58344-0.85798 0.34319-0.65207 0.1716-0.30887v-0.30886l-0.20588-0.41182-0.51479-0.30887-0.3432-0.3432-0.30887-0.3432h-0.54911l-0.27456 0.0343-0.27455 0.27456-0.10296-0.54912-0.03434-0.34319 0.03434-0.41183 0.24024-0.0343v-0.44617l0.20592-0.0687-0.13729-0.10295h-0.30887l-0.06867-0.0343-0.27456-0.13727-0.24023-0.13728-0.06867-0.13728 0.03434-0.20592 0.03433-0.20592-0.06867-0.24023-0.20592-0.0687v-0.34319l-0.03433-0.24025-0.34319 0.0343-0.13729 0.13728-0.03433 0.24024h-0.27456l-0.34319 0.1716-0.48048-0.24024-0.20592-0.20592-0.20591-0.13727-0.17159-0.20592 0.03433-0.41184v-0.24023l-0.06867-0.27456-0.37752-0.37751-0.30887-0.24024-0.20592-0.13727-0.1716-0.1716-0.30887 0.13727-0.24025-0.0343-0.03433-0.30887 0.20592-0.17161-0.13728-0.27455-0.30888-0.0343-0.17159-0.0687-0.41184-0.10296-0.06867-0.30888 0.03433-0.24023v-0.20592l-0.24025-0.17161v-0.30887l0.13728-0.3432 0.37751-0.0343 0.30888 0.10296-0.06867 0.20592-0.13728 0.34319 0.10295 0.30888 0.48048 0.3775 0.20591 0.20592 0.10297 0.24025 0.5491 0.5491 1.0639 1.0982 0.06867 0.37751 0.85798 0.72071v-0.78935l0.37752 0.0687 0.30888 0.20591 0.65207 0.20592 0.06867 0.48048 0.17159 0.30888h0.3432v-0.20592l0.7207 0.0343v0.41184l-0.06867 0.10295v0.20592l0.34319 0.44615v0.37752l-0.13727 0.20591-0.03434 0.1716 0.27456 0.0687 0.27455 0.0343 0.24023 0.27455v-0.92662l0.06867-0.3432-0.06867-0.30887v-0.30888l0.24024 0.27455 0.13729 0.27456 0.30887 0.13728v0.17159l-0.1716 0.10297-0.10296 0.13727-0.13729 0.20592 0.27456 0.10296-0.06867 0.24024 0.41182 0.17159h0.65208l0.78935 0.0687 0.3432 0.13728 0.20592 0.48046 0.13727 0.27457 0.10297 0.20591 0.24023 0.48047 0.06867 0.27456 0.27455 0.51479 0.1716 0.3432-0.10296 0.34319 0.44616-0.0687 0.65207 0.41183-0.13728 0.13729v0.10295l0.20592 0.30887h0.48047l0.37752 0.20592 0.34319 0.30887-0.03433 0.37752v0.3432l0.30886 0.20591 0.27456 0.24023 0.10296 0.37752 0.03433 0.30887v0.27456l-0.24024-0.44614-0.24024-0.27457-0.30888-0.27455-0.13727-0.10295-0.3432-0.10297 0.06867-0.37751-0.03433-0.27456-0.37752-0.34319-0.37752-0.13728-0.27456-0.13729-0.10296-0.20592-0.06867-0.27454v-0.27455h-0.51479l-0.3432 0.0343v-0.24024l-0.06867-0.10296v-0.44621l-0.13729-0.0687-0.10295-0.0343-0.24024-0.20592-0.13728-0.20592-0.13728-0.0687-0.20591-0.24023-0.03433-0.20592 0.13727-0.24024 0.1716 0.0343 0.03434-0.27457-0.20592-0.41183-0.10296-0.10295-0.13728-0.13729-0.24024-0.17158-0.54911 0.10295h-0.37752l-0.37752-0.0343-0.10295 0.48048v0.51478l0.27455 0.10297v0.30887l0.10295 0.3432 0.10296 0.61775-0.20591 0.5491-0.30888 0.48048-0.30887 0.54912-0.61775 0.68638-0.51479 0.10296h-0.58344l-0.51478 0.13728-0.96095 0.0687-0.44616-0.41184-0.7207-0.58342-0.30887-0.1716-0.20592-0.24024-0.27455-0.17159-0.6864 0.10295-0.30887 0.24024-0.30887-0.0687-0.10296-0.1716-0.03433-0.44615-0.10296-0.24023-0.06867-0.3432v-0.37752l-0.1716-0.0687-0.20591 0.10296-0.24024 0.24024h-0.30888l-0.06867-0.30887-0.20592-0.13729-0.17159-0.27454-0.27456-0.13729-0.30887-0.24024-0.13729-0.20591-0.06867-0.0687v-0.27455l-0.06867-0.20592v-0.44618l-0.10296-0.34319-0.27455-0.13727-0.30887-0.0343-0.10296-0.10295-0.10295-0.13729h-0.30888l-0.34319-0.0687 0.06867-0.51479v-0.37751l-0.03434-0.44615-0.30888-0.10296h-0.85798l-0.24024 0.0343 0.13729-0.34319 0.10295-0.30888 0.27456-0.24023v-0.20593l-0.20592-0.10296-0.37752-0.10296h-0.3432l-0.44616-0.0687-0.13728-0.20591h-0.7207v-0.27455l-0.24024-0.17161v-0.41183l0.03433-0.27455 0.37751 0.0687 0.03434 0.13728 0.54912 0.0687-0.27456-0.24023v-0.24024l-0.24024-0.27456-0.10296-0.17159-0.24024-0.1716-0.17159-0.1716-0.20591-0.24024-0.10296-0.0343v0.51479l0.24023 0.17159v0.3432l-0.51478 0.13728-0.48048-0.27455-0.44615-0.44616-0.37752-0.24024-0.27456-0.24023-0.1716-0.24024v-0.20592l0.24024-0.17159h0.51479l0.3432 0.0687-0.03433-0.13729-0.3432-0.13727-0.20592-0.24023-0.17159-0.13727-0.30887-0.37752-0.41184-0.20592-0.37752-0.1716-0.17159-0.34319-0.37752-0.0687-0.44615-0.17159-0.30888-0.20592-0.37751-0.54911-0.20592-0.27456-0.37752-0.61775-0.27455-0.30888v-0.24023h-0.61748l-0.48047-0.0684h-0.51479l-0.51479-0.0343h-0.27455l-0.30887-0.10296 0.34319-0.20593v-0.27454l0.17159-0.41185 0.034335-0.41183 0.44616-0.41183-0.10296-0.24024-0.27455-0.13727 0.41183-0.24023-0.10296-0.41184-0.06867-0.20592-0.37751-0.0343v-0.27456l0.24024-0.13728-0.06867-0.37752-0.37752-0.10295-0.30887-0.44616-0.20592-0.17159-0.034335-0.48048 0.30888 0.10296 0.48048-0.10296-0.24024-0.30888-0.41183-0.0687-0.37752-0.0343-0.30887-0.27456-0.20591-0.0343v-1.4071l0.27455-0.10296v-0.41183h-0.37752l-0.10295 0.44615-0.10296 0.48047-0.34319 0.20592h-0.13729l0.13729-0.30888v-0.44616l-0.27455-0.24023-0.24025-0.27455z" fill="#85c5e3" stroke-width=".23475px"/>
 <text x="4.472599" y="154.86562" fill="#000000" font-family="sans-serif" font-size="3.5279px" letter-spacing="0px" stroke-width=".26459" word-spacing="0px" style="line-height:1.25" xml:space="preserve"><tspan x="4.472599" y="154.86562" font-size="2.8223px" stroke-width=".26459">Govind Sagar</tspan></text>
 <rect x="141.1" y="188.47" width="5.0583" height="5.4474" fill="#37abc8" fill-rule="evenodd" stroke-width=".26459"/>
 <text x="148.48222" y="192.45486" fill="#000000" font-family="sans-serif" font-size="3.5279px" letter-spacing="0px" stroke-width=".26459" word-spacing="0px" style="line-height:1.25" xml:space="preserve"><tspan x="148.48222" y="192.45486" font-size="2.8223px" stroke-width=".26459">Water reservoir</tspan></text>
</svg>
