<svg width="253.75mm" height="226.98mm" version="1.1" viewBox="0 0 253.74746 226.98581" xmlns="http://www.w3.org/2000/svg">
 <g transform="translate(.071957 .1153)" fill="none" stroke="#000">
  <g transform="translate(16.906,-48.521)" stroke="#fff" stroke-width=".4">
   <path id="Leh Ladakh" d="m208.69 226.79-0.31597-0.13746c-0.2662 0.25142-0.50775 0.34458-0.84295 0.42346l-0.20707-0.41507c0.14795-1.5079 0.80353-3.4555 1.1826-4.9296 0.0201-0.078 0.20213-0.34358 0.20707-0.40323 0.0497-0.46782-5e-3 -1.0253-5e-3 -1.4981-5e-3 -0.51811-0.39982-1.297-0.74977-1.6174-0.38011-0.3495-1.0057-0.37955-1.3167-0.87694-0.01-0.0491-0.0928-0.55753-0.0928-0.60188 0.0838-0.29578 0.15295-0.74932 0.28047-1.015 0.54669-1.1092 1.0751-1.219 1.3305-2.7216 0.40913-2.381-5e-3 -3.7859-1.0752-5.8568-0.22625-0.42837-1.1037-0.77393-1.5035-0.94645-0.0201-5e-3 -0.0446-0.0241-0.0696-0.03-0.47819-0.0885-0.87304-0.15337-1.3556-0.14253l-0.36429 5e-3c-0.61126-0.19727-1.2472-0.52303-1.8343-0.77395-0.82817-0.86264-0.70492-2.6912-0.7-3.7809 0 0 0.32536-0.94648 0.33965-0.97061 0.56692-0.80402 1.2274-1.6223 1.7357-2.4598 0.12314-0.2021 0.41457-1.4444 0.37516-1.7352-0.0988-0.73942-0.168-1.4788-0.5324-2.1547-0.0246-0.0201-0.24646-0.21294-0.26126-0.21294-0.6699-0.11288-1.3802-0.19166-2.0452-0.34359-0.60585-0.14334-2.9524-1.5094-3.4808-1.7958-0.47324-1.1486-0.65022-2.302-0.0982-3.4556-0.10908-1.1195-1.4202-1.2072-2.0611-1.888-0.26619-0.28097-0.523-0.75373-0.74433-1.079-1.0648-0.26572-1.9822-1.3699-2.455-2.2962-0.0838-0.0394-0.91641-0.41506-0.94105-0.4343-0.025-0.0253-0.65022-0.91292-0.71478-0.99626-0.0983-0.0537-1.016-0.51708-1.0396-0.54221l-2.3912-2.3953c-0.0588-0.0598-0.22676-0.12834-0.27655-0.18284l-2.4696-2.7557c-0.68028-0.75863-1.1338-1.7746-1.681-2.6226-0.10851-0.16778-0.27655-0.29919-0.38453-0.46783-0.40865-0.63046-0.79856-1.3497-1.1431-2.0304-0.6699-1.3256-2.8202-5.3338-2.8932-6.571 0-0.0344 0.11286-0.55756 0.12833-0.62214 0.01-0.0491 0.11835-0.1678 0.15317-0.21196l1.0253-1.3403c0.45893-0.6019 1.1826-1.0598 1.607-1.676 0.19666-0.28593 0.53237-0.66992 0.66993-0.97557 0.0201-0.0395 0.45893-1.504 0.46337-1.5242 0.034-0.33028-0.28099-1.6021-0.46831-1.9373-0.19266-0.33519-0.48258-0.67585-0.70491-0.99082l-1.0401-1.4596c-0.29626-0.4141-1.0845-2.6023-1.2866-3.1598-0.014-0.0492-0.0246-0.18183-0.0335-0.23614-0.16258-1.1042-0.35986-1.4-0.0936-2.4506 0.0893-0.33521 0.13367-0.64628 0.12876-0.99574l-0.0537 5e-3c-0.0987-0.33964-0.17299-0.79909 0.0691-1.0899 0.71476-0.87303 1.5528-1.509 2.4155-2.2182l0.35492-1.1427-0.23169-0.804c-0.45892-0.37464-0.92721-0.39979-1.5134-0.55752-0.4629-0.12328-0.87695-0.3638-1.3058-0.57085l-0.31598-0.51809 0.014-0.8484c0.53735-1.1786 1.7357-1.8091 2.7803-2.4503 0.19267-0.11286 0.56692-0.10401 0.77396-0.212l5.0773-2.6871c0.69505-0.36481 1.4739-0.93123 2.056-1.4636 1.291-1.1831 2.6073-2.2972 3.3862-3.9244 0.22185-0.45845 0.35938-1.0746 0.52304-1.5676 0.25682-0.76456 0.43924-1.2274 0.47865-2.0256 0.03-0.592-0.38945-1.5829-0.66104-2.0659l-0.24648-0.0638c-0.26075-0.36972-0.54224-0.49295-0.8375-0.7695-1.4054-1.2861-1.504-1.5627-3.0706-2.4253-0.17742-0.0982-0.37463-0.24153-0.55702-0.31005-0.92183-0.35049-1.8983-0.66647-2.8004-1.0599-0.50725-0.22726-3.4649-2.9473-3.9332-3.392-0.55703-0.52745-1.188-2.0019-1.7253-2.2769-0.83258-0.41903-1.854-0.58167-2.5935-1.1929-0.33964-0.27655-0.77836-0.57184-1.0791-0.88785-0.5861-0.61617-1.5917-2.0807-2.0452-2.8-0.19666-0.31103-2.411-2.1931-2.7058-2.3716-0.1678-0.093-0.5669-0.17261-0.77394-0.1678-0.29085 0.0126-0.6305-0.01-0.91638 0.03-0.96076 0.13746-1.9127 0.55163-2.874 0.67978-0.52304 0.074-1.1392 0.0344-1.6662 0.0503-0.2716 5e-3 -0.51807 0-0.78429-0.0202-0.92674-0.0635-1.252-0.22624-1.4986-1.1392-0.11792-0.45353 0.1095-0.96573-0.11792-1.4394-0.59107-0.89272-3.5684-0.43922-4.2488-0.79808-0.40915-0.21296-0.77393-0.22233-1.2181-0.33618-1.1146-0.29085-1.9417-1.2373-2.6969-2.0404-0.30561-0.33026-0.53734-0.82818-0.77889-1.2132-0.6497-1.0253-0.99079-2.1587-1.395-3.2974-0.21594-0.60188-0.29975-1.8293-0.40817-2.5091l-0.77761-4.7482c-5e-3 -0.0395-0.0305-0.08378-0.0451-0.12313-0.1678-0.44861-0.31056-1.0253-0.53733-1.4345-0.0691-0.13311-0.24646-0.24155-0.33025-0.36973-0.21593-0.34458-0.41903-0.87252-0.58564-1.2275-0.4634-0.96077-0.99628-1.9264-1.3507-2.9325l-0.0344-0.10401c-0.53189-1.4932-1.0786-2.9626-1.6613-4.4366-0.25139-0.6354-0.62111-1.3497-0.78872-2.0053-0.0491-0.17802 0.12833-0.69999 0.32042-0.84344 0.60141-0.17261 1.2817-0.66549 1.5962-1.2073 0.6507-1.1091 0.21691-1.5627-0.69453-2.3465-0.47868-0.41509-0.95587-0.873-1.4592-1.2575-0.3002-0.22726-0.80892-0.37465-1.0894-0.77887-1.6361-2.3317-1.9822-3.6325-2.6575-6.5316-0.0341-0.14856-0.14294-0.27163-0.2514-0.37465-0.14314-1.0554-0.27116-2.1094-0.40425-3.1647-5e-3 -0.0395-0.12833-0.19265-0.13311-0.23216-0.0344-0.33028-0.0987-0.6847-0.0937-1.015v-0.01604c0.0253-1.7051 0.35542-1.8141 1.543-3.1598l0.0893-0.10304c0.18242 0.0395 0.52302-0.20703 0.5521-0.38992 0.31055-0.19726 2.0699-1.1979 2.1054-1.4932 0.6699-0.01209 1.4-0.62113 1.8382-1.0746 0.0733-0.07398 0.10348-0.23662 0.13353-0.34062 0.25682-0.79808-0.87746-1.4636-1.5775-1.4394-2.0014 0.079-4.2684-0.01406-6.1669 0.76457-1.045 0.42837-1.5232 3.1943-3.076 3.2973-0.22678 0.02024-0.52253-0.05372-0.75373-0.07898-0.3254-0.21639-0.57683-0.62111-0.77352-0.93114l-0.58662-0.93661c-0.29082-0.5526-0.30515-1.3113-0.58166-1.8737-0.1626-0.32537-0.35546-0.69013-0.55705-0.99577-0.45894 0.39485-0.90211 0.81831-1.3753 1.193-1.3753 1.0746-2.8645 2.0458-4.1506 3.2342-1.3162 1.2122-2.6027 2.455-3.9042 3.6819-0.58661 0.5575-1.2131 1.0406-1.8436 1.5385-0.70937 0.56242-1.4054 1.1535-2.1344 1.6908-1.7007 1.2466-3.5636 2.3114-5.2203 3.6085-0.78382 0.61128-1.4843 1.3749-2.2483 2.0161-0.38401 0.32044-0.8326 0.61127-1.2427 0.90706l-0.0593 0.04428c-0.55211 0.39978-1.1486 0.94153-1.7451 1.2669-0.12327 0.06958-0.23614 0.06451-0.35935 0.15757l-3.8845 2.9277c-0.37513 0.28096-0.81286 0.46782-1.1826 0.74433-1.2575 0.92724-2.4598 2.0266-3.663 3.0173-0.5713 0.47276-2.3074 1.9718-2.8345 2.2375-0.77344 0.38994-1.6716 0.60633-2.4648 0.96669-0.46285 0.21196-1.6415 1.0396-2.1685 0.95585l-1.1042-0.34461c-0.34501-0.10834-0.89266-0.31523-1.0701-0.70516-0.4481 0.0596-0.8129 0.35986-0.83261 0.83359-0.05932 1.1486-0.0057 2.2972 0.01406 3.4507 0.0201 0.86266-0.12875 1.4049-0.72019 2.1094-0.05875 0.03008-0.44316 0.24649-0.46289 0.24649-0.7291 0.06958-1.3211-0.13747-2.0107-0.35986-0.71972-0.42345-1.4493-0.93661-2.1936-1.3063-0.15336-0.07295-0.35546-0.078-0.52304-0.16258-1.2023-0.58169-1.745-0.85673-2.5983 0.34062-0.01406 0.0201-0.0246 0.04456-0.0395 0.05875-0.49788 0.42937-1.5676 1.4838-2.2918 1.4838-0.25684-0.18184-1.7894 0.05032-2.1094 0.079-0.0201 0-0.03443 0.0057-0.05411 0.0098-0.77839 0.11835-1.2713 1.2669-1.2713 1.9526 0 0.97162 0.24644 2.479 0.30511 3.5931 0.0395 0.78477-1.6662 2.1597-2.0162 2.7364-0.32533 0.5324-0.53731 1.6716-0.99625 2.3908-0.26076 0.4141-1.4148 0.40916-1.8185 0.41901-1.2324 0.0395-2.5682 0.13859-3.7957 0.06451-0.06896-0.0057-0.38397-0.16259-0.47811-0.18183-0.0838-0.01602-0.41951 0.02403-0.47869 0.0057-1.5572-0.5181-2.1685-1.888-4.4262-2.2435l-0.15717-0.0201c-0.29135 0.09825-1.6612 1.5868-1.9575 1.8821-0.6359 0-2.2128 1.3808-2.6719 1.7899-0.42885 0.02024-1.1589 0.02503-1.8787 0.0537l-0.97109 4.6293 1.1584 0.75472 0.64136 0.12833 0.1283 0.37468s0.804 1.3457 0.804 2.0851c0 0.73945 0.12309 2.8345 1.2324 2.9578 1.1091 0.12326 2.4648 0.12326 2.9577-0.12328 0.49296-0.24646 1.8486-0.98588 2.4648 0 0.61622 0.98592 1.9718 1.7254 2.4648 1.7254 0.49296 0 1.7253 0.86264 1.7253 0.86264v2.4648l-0.1235 2.8349s-0.24648 2.2182 0.86268 2.4648c1.1091 0.24659 2.4648 0.49296 2.9577 0.98593 0.49294 0.49295 2.2182 0.73944 1.7253 1.7253-0.49294 0.9859-0.86268 3.6971-0.86268 3.6971s0.24648 1.6021-0.12309 2.3415c-0.36971 0.73944-0.73941 1.2324-0.12329 1.8486 0.61618 0.61619 0.24646 1.8486 0.24646 1.8486s-0.6162 1.9718 0.24648 2.5881c0.86266 0.61618 2.2182 2.0949 1.8486 2.7112-0.36971 0.61618-0.61618 1.9718-1.3556 1.6021-0.73945-0.36974-0.36973-1.4788-0.6162-2.0951-0.24646-0.61627-0.98593-1.8486-1.7253-1.3556-0.73943 0.49293-1.1091 1.3556-0.49296 1.9718 0.6162 0.6162 1.1092 1.9718 0.6162 2.3415-0.49294 0.36969-1.2324 0.7394-1.8486 0.36969-0.61618-0.36969-2.4648-0.86266-3.2041-0.49294-0.73945 0.36971-1.7253 1.4788-1.7253 2.0951 0 0.6162-0.12329 2.2182 1.2324 2.9578 1.3556 0.73946 2.2182 1.2324 2.2182 1.2324s1.4788 0.98586 1.4788 1.7253c0 0.73943 0.49294 2.3415 0.49294 2.3415s0.61622 1.3556 1.2324 1.6021c0.61622 0.24646 1.8486 0.49298 2.3415 0.73944 0.49292 0.24649 0.49292 0.36969 0.98589 0.98493 0.49296 0.61614 1.8486 1.1091 1.8486 1.1091s2.5881 0.12313 3.2041 0.49295c0.6162 0.36971 2.2182 0.49293 2.5881 1.4788 0.36973 0.98592 2.4648 3.3274 2.4648 3.3274s1.8486 1.6021 2.4648 1.8486c0.61621 0.24649 2.4648 0.86269 2.4648 0.86269s1.1091 0.3697 1.7253-0.36974 1.1091-1.2324 1.7253-0.73944c0.61621 0.49298 1.1092 0.98592 1.1092 0.98592s0.86266-0.3697 1.3556-0.3697c0.49296 0 1.3556 0.24648 1.7253 0.9859 0.36973 0.7394 1.8486 2.0951 1.8486 2.0951l1.8486 0.98589s2.0949 0.49295 2.2182 1.9718c0.12327 1.4788 0.86266 2.2182 1.7253 2.2182 0.86268 0 1.3556 0 1.6021 0.73946 0.24649 0.73939 0.73943 0.98588 1.3556 0.73939 0.61622-0.24648 2.0951-0.24648 2.7112 0.73945 0.61618 0.98589 0.9859 1.7254 2.2182 2.0949 1.2324 0.36972 3.6971 0.73945 3.6971 2.2182 0 1.4788 0.24648 2.7112 0.73939 3.0808 0.493 0.36971 1.8486 1.3556 0.98593 2.9578-0.86267 1.6021-2.0951 2.4648-2.0951 2.4648l-2.3415 1.6021s-1.2324 1.2324-1.7254 2.0951c-0.49296 0.86268-1.2324 2.5881-1.7253 3.0808-0.49297 0.49295-1.8486 2.2182-1.8486 4.1901 0 1.9718 0.73941 4.5599 0.73941 4.5599l-2.0951 1.6021s-0.98591 0.73941-1.1091 1.6021c-0.12327 0.86265-0.86269 4.4366-0.86269 4.4366s-0.12327 2.7112 0.36971 3.6971c0.49298 0.98592 1.3556 2.7112 1.3556 2.7112l-0.11822 2.3868h6e-3c0.59105 0.2859 2.0951 0.64131 2.8291 0.89272 0.29087-0.63146 0.55709-1.2871 0.77395-1.9427 0.46781-5e-3 2.6614 0.016 2.824-0.0241l1.124-0.53736c0.99626-0.47862 2.9331-1.3452 4.0565-1.0988 0.63591-0.41999 1.3019-0.82423 1.9126-1.2669 0.83801-0.60633 1.5918-1.4104 2.4702-1.9575 0.51761-0.32042 1.2126-0.55752 1.6908-0.92726 0.36972-0.27999 0.6507-0.82325 1.0056-1.1427 0.61126-0.56342 1.5523-1.0899 2.3611-1.2718 0.20213 0.49788 0.40915 1.2566 0.68967 1.7002 0.0141 0.025 1.3255 1.5484 1.3659 1.5878 0.316 0.30017 0.79366 0.51217 1.1392 0.78872 0.44318 0.36478 0.96127 0.82914 1.361 1.2467 0.86268 0.90212 0.88732 0.98097 1.0697 2.1202 0.03 0.19266 0 0.31599 0.0785 0.49295 0.0893 0.20211 0.20753 0.27656 0.34507 0.45354 0.38449 0.51217 1.4542 1.711 1.7056 2.1488 0.30024 0.52301 0.58217 1.7746 0.46835 2.3962l0.79855 0.90109 1.3606 0.44861 0.15335 0.4535 0.3056 0.91296c0.12313 0.90212-0.47322 2.5678-0.65068 3.5393 1.4394 0.67485 2.874 2.3164 3.7514 3.6183l0.014 2.0506c0.71477 0.9465 1.504 1.0993 2.6077 1.3507 0.97111-0.32044 1.2767-1.2625 1.4542-2.1789l0.67486-5e-3 0.7892-0.69013 0.21642-0.91199 0.44856-0.46385c0.35495-0.0982 0.9662 0.11821 1.2428 0.33521l0.78872-0.3495 0.4486-1.0303 0.89717-0.45846c0.89273 0.0537 1.9418 0.47767 2.7162 0.88685l1.5775-1.0352 0.33026-1.0302c0.90209-0.16259 1.888-0.50727 2.701-0.93221 0.014-0.74433 0.20213-1.5828 0.43925-2.2828 0.75372-0.30021 1.9915-0.60583 2.8196-0.47767 0.11286 0.78377 0.28098 1.6021 0.35489 2.3908 0.0504 0.5565-0.01 1.1485 0.0126 1.71 0.0126 0.20211 0.13749 2.2286 0.13312 2.278-0.0639 0.32043-0.20704 0.46288-0.33521 0.76457-0.69014 1.5819-1.0204 2.228-2.2331 3.4758-0.45352 0.46234-1.4838 1.5474-1.6804 2.1787-0.17683 0.57675-0.0733 1.3403-0.21248 1.9373-0.10348 0.46287-0.44859 0.9164-0.55211 1.3748l-0.0691 0.98593-0.0344 0.49787 0.91245 1.2477 1.016 0.10305c0.71974-0.88187 2.3465-3.5143 2.9078-4.0122 0.034-0.0305 1.4399-0.69506 1.5681-0.76456-0.12833-0.13367-0.24155-0.24646-0.32044-0.33125-0.0532-0.98001-0.014-0.93119 0.36972-1.9373 0.7148-0.29576 1.6327-0.84738 2.1202-1.4739 0.42344-0.13746 1.1432 0.0394 1.4093 0.4042l0.316-0.01c0.6305-0.79908 1.3453-1.4538 2.1344-2.0901 0.13748-0.10908 0.32534-0.12313 0.48754-0.18185 0.88778-0.33616 1.7702-0.14332 2.6865 0.0588 0.28098 0.0588 0.57182 0.21198 0.8523 0.25632 0.21247 0.0305 1.4005-0.15677 1.5237-0.41901 0.31551-0.6556 0.94647-2.4598 1.6751-2.8585 1.1831-0.65073 2.9527-1.3709 3.7809-2.48l0.49838-0.0126c1.4345 1.2122 1.0648 2.0053 1.2915 3.8062 0.0931 0.76848 0.4678 1.577 0.51269 2.3415 0.034 0.69406-0.88784 1.193-0.87304 1.9171 0.01 0.62114 0.36475 0.93664 0.46831 1.4739 0.20702 1.0988 0.15295 2.272 0.14795 3.3872-5e-3 0.90113 0.63097 1.1584 1.1786 1.7194 0.35937 0.37568 0.66992 0.98596 0.9657 1.4202 0.0202 0.0335 0.0504 0.0885 0.079 0.11288 0.89271 0.79909 1.3507 1.2526 2.5983 1.2373 0.49791 0.15375 0.80353 1.2826 1.0746 1.681 0.0141 0.0202 0.49295 0.40913 0.54276 0.4535 0.0246 0.0202 0.0696 0.0452 0.0893 0.0696 0.48752 0.68076 0.5176 0.94645 1.257 1.3063 0.8523 0.41407 1.8683 1.0648 2.7847 1.2911 0.30562-0.0638 0.76952-1.0988 0.86808-1.3557l1.6361-0.16759c0.5861-0.47865 1.3506-1.3857 2.2324-1.1284 0.21246 0.1678 1.2624 1.0697 1.469 1.0697l0.46289-0.23658c0.26572-0.57677 0.20704-1.1629 0.38401-1.7352 0.10907-0.35986 0.36973-0.70592 0.49296-1.0598 0.10907-0.31601-0.11287-1.7111-0.16257-2.1286 0.16778-0.62657 1.1288-1.7756 1.6124-2.1296 0.68568-0.49788 2.0705-1.297 2.8345-1.6953 0.30561-0.15777 2.5382-0.78972 2.9078-0.78972 0.0497-0.25138 0.14334-0.55654 0.15758-0.80892 5e-3 -0.0683-0.093-0.27656-0.093-0.34458 0.03-0.62112 0.0141-1.2861 0.0885-1.9023 0.045-0.32532 0.045-0.8183 0.13788-1.1234 0.41952-1.3413 0.9805-2.6777 1.4641-3.9974 0.014-0.0446 0.0787-0.78383 0.0893-0.87798z" fill="#c2f0c2"/>
   <path id="Kargil" d="m116.15 178.5c0.49295 0.36969 1.8486 1.3556 0.98587 2.9578-0.86265 1.6021-2.0949 2.4648-2.0949 2.4648l-2.3415 1.6021s-1.2323 1.2324-1.7253 2.0951c-0.49296 0.86269-1.2324 2.5881-1.7253 3.0808-0.49297 0.49296-1.8486 2.2182-1.8486 4.1901 0 1.9718 0.73944 4.5597 0.73944 4.5597l-2.0951 1.6021s-0.98587 0.73946-1.1091 1.6021c-0.12313 0.86265-0.86269 4.4366-0.86269 4.4366s-0.12313 2.7112 0.36972 3.6971c0.49297 0.98593 1.3556 2.7112 1.3556 2.7112l-0.11821 2.3868c-0.62653-0.3012-1.2078-0.78477-1.8141-1.1244-0.91244-0.51713-2.3864-1.2226-3.397-1.4587-0.95191-0.22233-1.9822-0.23217-2.9381-0.42935l-1.2077-0.37466c-0.23614-0.0696-0.38009-0.079-0.60584-0.18182-0.0395-0.0202-1.5824-1.011-1.5873-1.0165-0.8528-0.90207-1.4399-2.1442-2.2774-3.0608l-0.907-0.6019c-1.0056-0.66549-2.1645-1.0253-3.1747-1.6465l-0.98589-0.82814-0.49294-0.41509-0.58169-1.9373c-0.56246-0.48257-1.1195-1.0101-1.7007-1.4685-1.1141-0.86855-2.6274-1.5922-3.4112-2.8246-0.23218-0.36971-0.35936-0.85772-0.57184-1.2467-0.31549-0.57676-0.68964-1.1426-1.0303-1.7061l-0.21638-0.91544 0.03008-5e-3 0.79807-2.0364s-0.67484-0.92133-1.0446-1.1678c-0.36969-0.24648-1.1737-1.2324-1.1737-1.6666 0-0.42841-1.0446-1.2911-1.5375-1.2911-0.49296 0-0.92724-0.12326-1.2324-0.18784-0.31105-0.0588-0.86268-1.1091-1.0505-2.0304-0.18183-0.92724-1.4789-0.24646-2.0304 0.18183-0.55756 0.43428-1.6021 0.43428-2.2182 0.49294-0.6162 0.0645-2.5294-0.9859-2.5294-0.9859s0.49296-1.8486 0.92725-2.5881c0.42839-0.73942 0.18183-2.5233-0.55752-3.3274-0.73945-0.79808-0.86266-2.5881-0.86266-2.5881s-0.24648-0.24648-0.86268-0.61618-1.4789-1.4788-1.9718-1.9718c-0.49297-0.49292-0.30514-2.0949-0.30514-2.0949s-1.6021-0.67484-2.0951-0.9859c-0.49296-0.30515-1.2324-0.18183-1.6021-0.12328-0.36969 0.0646-1.9718 0.0646-1.9718 0.0646s-1.4789-1.7253-1.7899-2.2182c-0.30514-0.49294-2.0949-2.0949-2.0949-2.0949l-1.1092 0.5516s-0.30516 1.2324-0.30516 1.7253c0 0.49294-2.0364 0.86266-2.0364 0.86266s-0.61616 1.6666-1.784 1.7253c-1.1737 0.0645-3.392 0.24649-3.392 0.24649l0.12329-1.9073-1.9072-1.9718 2.3415-2.7112s-0.18784-3.6971-0.06455-3.9437c0.12328-0.24643-0.18183-1.2323-0.42839-1.8485-0.24646-0.61618-0.31105-2.0951-0.31105-2.3415 0-0.24644-0.6162-2.7112-0.6162-2.7112l-2.7112-1.8486s-3.6325-3.392-4.0668-3.7616c-0.42835-0.36973 0.18784-1.2911 0.31106-1.6021 0.12328-0.30514 0.42837-0.67484 0.24648-0.92132-0.18784-0.24649-1.1091-1.6021-1.1091-1.6021h-0.98591c-0.43431 0-0.43431 0.42836-1.297 0.79808-0.86268 0.36971-1.4789 0.12328-2.4648-0.49297-0.98593-0.61617-0.92136-0.12327-1.4789-0.0588-0.55162 0.0588-3.0163-0.31105-3.0163-0.31105l0.73943-2.1537s-0.55754-0.31106-1.1737-0.73942c-0.61618-0.4343-1.9072-1.3556-2.6466-1.7254-0.73943-0.36971-1.1737-1.1091-1.3556-1.3556-0.18784-0.24647-0.86266-2.0949-0.86266-2.0949s-0.98591-0.86268-1.9131-1.7899c-0.92134-0.92137-0.49296-1.784-0.30514-2.0304 0.18183-0.24649 0.49294-1.4202 0.49294-1.4202s-1.7253-1.1092-2.3415-1.4143c-0.6162-0.31101-1.1092-0.0645-1.3556 0.42842-0.24648 0.49294-0.49294 0.92723-0.49294 0.92723l-1.6021-0.12327s-0.12329-0.55752-0.06455-1.1091c0.06455-0.55752-0.73941-0.68075-1.1678-0.68075-0.43431 0-0.98591-0.18183-1.4202-0.55164-0.42835-0.3697-1.6021-0.31103-1.6021-0.31103s-0.49293-0.92133-0.79807-1.3556c-0.31105-0.42837-0.36971-0.61619-0.43428-1.4789-0.058684-0.86265-1.3556-1.1092-1.7253-1.1092-0.36971 0-0.86267 0.0646-1.6021 0.0646-0.73942 0-0.9859-0.43429-0.9859-0.73944v-1.6667s-0.12323-0.3697-0.49294-0.86266c-0.36971-0.49297-0.18191-0.98591-0.18191-1.4789 0-0.49293-0.12326-0.73943-0.68076-1.3556-0.55161-0.61618 0.43428-1.1091 0.43428-1.1091l-0.61619-0.67487s-0.61619-0.55751-1.2324-1.0505c-0.61619-0.49294-0.36971-0.5516-0.36971-1.1678 0-0.61617 0.24648-1.1091 0.86267-1.4789 0.61619-0.36969 0.24648-1.3556 0-2.0949-0.24648-0.73941 0.18191-0.98589 0.73942-1.297 0.55162-0.30511-0.064573-1.6607-0.064573-1.6607l0.0498-0.16259c0.3993 0.14835 0.81287 0.26569 1.1979 0.33026 1.1984 0.2021 2.4598 0.16258 3.6676 0.33965 0.23168 0.0395 0.47323 0.21196 0.70935 0.25681 0.44366 0.0729 0.99133 0.10401 1.4448 0.12326 0.15276 0.01 0.41408 0 0.5664-0.03 0.0443-5e-3 0.18724-0.10907 0.22182-0.10907 0.52747 0.03 1.0796 0.0885 1.607 0.0885 1.1289 0 2.1986-0.16779 3.3379-0.0242 1.8239 0.23122 5.3486 1.7303 7.0049 1.4286 0.48803-0.0885 1.9127-0.84739 2.2972-1.1392 0.58169-0.43335 0.94648-1.0791 1.4488-1.572 0.32042-0.31499 0.71972-0.60093 1.0697-0.89274 0.03448-0.0291 0.07397-0.0729 0.11347-0.093 0.66597-0.33962 1.331-0.69407 2.0019-1.016 0.5176-0.24646 1.084-0.39879 1.5967-0.64972 0.7892-0.39485 0.72958-1.5829 1.7993-1.8929 0.33028-0.0931 0.74436-0.10388 1.0988-0.15337 0.20162-0.0253 0.8035 0.39386 1.2861 0.2312 1.0988-0.56146 0.78922-1.9565 2.9878-2.7749 0.96616-0.35989 1.577-0.13353 2.3114 0.47272 0.63588 0.52746 1.5523 1.5686 2.4894 1.5134 1.3359-0.0838 1.4789-0.28592 2.7457-0.80302 0.05372-0.025 0.20162-0.21296 0.26078-0.24155l1.5484-0.81832c0.05934-0.0301 0.30564-0.0301 0.3648-0.0596 0.69458-0.36478 2.1837-1.0495 2.5929-1.8382 0.24155-0.46884 0.52694-1.0362 0.92673-1.3902l0.76952-0.4535c0.39978-0.12833 1.0845-0.18784 1.779-0.21736l-0.97107 4.6293 1.1584 0.75472 0.64134 0.12833 0.12871 0.37465s0.8035 1.3457 0.8035 2.0851c0 0.73935 0.12329 2.8345 1.2324 2.9577 1.1091 0.12328 2.4648 0.12328 2.9577-0.12326 0.49294-0.2465 1.8486-0.98592 2.4648 0 0.6162 0.98589 1.9718 1.7253 2.4648 1.7253 0.49297 0 1.7253 0.86265 1.7253 0.86265v2.4648l-0.12329 2.8345s-0.2465 2.2182 0.86268 2.4648c1.1091 0.24645 2.4648 0.49292 2.9577 0.98586 0.49296 0.49297 2.2182 0.73945 1.7253 1.7254-0.49292 0.98593-0.86264 3.6971-0.86264 3.6971s0.2465 1.6021-0.12328 2.3415c-0.36972 0.73945-0.73941 1.2324-0.1233 1.8486 0.61616 0.61617 0.24646 1.8486 0.24646 1.8486s-0.61618 1.9718 0.24646 2.5881c0.86268 0.61617 2.2182 2.0951 1.8486 2.7112-0.36969 0.61621-0.61618 1.9718-1.3556 1.6021-0.73943-0.36972-0.36973-1.4788-0.6162-2.0949-0.24648-0.61624-0.98589-1.8486-1.7253-1.3556-0.73941 0.49296-1.1091 1.3556-0.49296 1.9718 0.61622 0.61619 1.1092 1.9718 0.61622 2.3415-0.49296 0.3697-1.2324 0.73942-1.8486 0.3697-0.6162-0.3697-2.4648-0.86262-3.2041-0.49294-0.73941 0.36974-1.7253 1.4788-1.7253 2.0951 0 0.61618-0.12309 2.2182 1.2324 2.9578 1.3556 0.73945 2.2182 1.2324 2.2182 1.2324s1.4789 0.98589 1.4789 1.7253c0 0.7394 0.49294 2.3415 0.49294 2.3415s0.6162 1.3556 1.2324 1.6021c0.6162 0.24646 1.8486 0.49295 2.3415 0.73944 0.49294 0.24645 0.49294 0.3697 0.98591 0.98489 0.49294 0.61621 1.8486 1.1092 1.8486 1.1092s2.5881 0.12313 3.2041 0.49294c0.6162 0.36973 2.2182 0.49295 2.5881 1.4789 0.36974 0.98587 2.4648 3.3274 2.4648 3.3274s1.8486 1.6021 2.4648 1.8486c0.61619 0.24649 2.4648 0.86269 2.4648 0.86269s1.1092 0.36972 1.7254-0.36972c0.6162-0.73942 1.1091-1.2324 1.7253-0.73942 0.61617 0.49294 1.1091 0.98588 1.1091 0.98588s0.86267-0.36968 1.3556-0.36968c0.49294 0 1.3556 0.24646 1.7253 0.9859 0.3697 0.73941 1.8486 2.0949 1.8486 2.0949l1.8486 0.9859s2.0951 0.49295 2.2182 1.9718c0.12327 1.4789 0.86266 2.2182 1.7253 2.2182 0.86269 0 1.3556 0 1.6021 0.73944 0.2465 0.73936 0.73946 0.98589 1.3556 0.73936 0.61619-0.24643 2.0952-0.24643 2.7112 0.73948 0.61619 0.98589 0.98591 1.7253 2.2182 2.0949 1.2324 0.36972 3.6971 0.73947 3.6971 2.2182 0 1.4788 0.24601 2.7132 0.73894 3.0829z" fill="#fcc"/>
  </g>
  <g stroke-width=".4px">
   <path d="m112.06 224.36v-4.6807l-0.78012-0.52008 3.1205-1.0402-0.26004-2.6004 1.8203-0.26004 1.3002-1.3002-3.1205-3.3805-2.1738-0.26009-1.4695-0.36739-0.91846-1.2858-0.73475-1.4695-6.6129-2.388-0.73476 0.36739h-0.73476l-0.55106-0.36739-0.55108-1.1021 0.18369-1.2858h0.91845l1.6532-2.2043 2.388 1.4695 3.4901-1.1021 1.6532-1.4695 0.36738-1.2858 3.1227-2.5717v-0.91846l-0.91846-1.2858 1.6532-0.36739 2.5716-4.4086v-1.2858l0.73476-1.2858 1.2858-0.36738 1.2858-0.18369 1.4695 0.73476 2.0206 0.55107 1.6532 1.1021 1.2858-0.36738 0.1837-2.388 4.2249-2.5717-0.18368-2.7554 1.8369-2.9391 2.7554-0.91844 0.73475-2.5717v-4.9596l2.388 1.6532 0.36737-0.36737v-4.0412l-0.36737-2.2043 0.36737-0.1837 2.9391-0.36738 2.5716 2.0206 2.0206-0.36739 0.18368-1.4695 0.55108-1.1021 0.91844 0.18368 0.55108-0.73475v-5.1433l0.55107-1.6532 4.776-3.3064 1.2858-1.4695 0.5511-1.4695v-1.6532l-0.5511-2.2043-0.73476-1.4695-1.2858-0.73476-1.4695-1.4695h-0.36737l-0.36739-1.4695-1.6532-1.4695-0.1837-1.1021 0.55108-0.55108-2.2043-0.55107h-1.1021l1.2858-1.4695-0.55106-1.2858-1.1021-0.91845-0.91847-1.2858 0.36739-0.91845 1.1021-0.73476v-2.0206l-0.73476-0.36739-1.2858-1.6532-0.1837-1.2858 0.55108-1.2858 0.18368-2.7554 1.2858-0.91845-0.1837-0.73477 1.1021-1.2858v-0.73476l0.91846-0.1837v-1.2858l1.6532-1.1021-0.36738-0.91846-2.388-3.8575-0.73476-0.36738-0.91846-1.1022-0.91845-0.73476v-1.4695l-4.4086-9.0008-1.2858-0.73476-0.55106-0.91845-1.2858-0.18369-0.55107-0.91845-1.1021-3.4901"/>
   <path d="m4.2014 171.98 1.6537-3.157 1.9543-1.9543 0.15034-1.2027 1.353-1.0523-0.75166-1.9543 1.0523-0.902-0.30067-2.706 2.255 2.5557 1.804 0.60134 2.5557-1.0523 2.5557-1.5033 1.0523-1.6537 0.60133-0.75167 4.2093-3.157 0.902-5.412 0.75167-1.5033v-1.353l-0.902-1.0523-0.75167-0.902-1.5033-1.2027-2.8563-1.6537-0.451-0.451 0.15033-1.9543 1.5033-1.353-1.804-1.6537 1.5033-1.2027-0.75167-1.0523 0.75167-1.2027-0.451-1.353v-1.9543l-0.451-0.75167-0.902-0.451 1.6537-0.15033 1.2027-1.6537 0.60133-0.30066-0.30066-0.451-2.255-1.804v-0.451l-2.1047-2.5557-1.2027-2.8563-0.451-3.0067 1.353-1.2027-1.0523-2.4053-1.2027-1.2027-1.804-2.8563-0.60134-1.0523-0.451-1.2027-1.9543-3.3073-1.804-1.5033-1.5033-0.902-0.15033-1.6537-0.60134-0.75166-1.2027-0.30067-3.157-2.8563-0.15034-6.1637-1.5033-1.0523-0.30067-0.75167 1.5033-3.0067 1.2027-0.60133h0.60133l1.6537 0.451 1.2027 1.0523 4.3597 1.9543 1.9543 0.15033 1.2027-0.451 1.5033-1.5033 0.75166 0.30066 2.255-0.60133 1.6537-0.60133 1.0523-0.902 0.30067-0.60133 1.9543 0.60133 1.0523-1.2027 1.6537 0.451 1.353 1.0523 1.353 1.0523 2.5557 0.30067 1.6537-0.451 1.2027-0.902 2.706-1.2027 1.353-1.2027 1.0523-1.2027 0.15033-1.0523 0.15034-1.6537 0.45099-0.30067 1.353-0.902 1.804 0.30067 1.0523 0.15033 1.6537-0.30067 1.5033-1.353 1.0523 0.15034h2.5557l1.0523 1.0523h1.353l1.5033-1.2027 1.0523-2.255 2.706-2.706v-1.353l-0.451-0.75167 1.353-2.1047 1.804-0.451h1.804l1.6537 0.451 0.60133 0.451 0.60133 1.0523 3.0067 3.4577 1.5033 1.804 1.0523 0.15034 0.902 0.60133 0.75166 1.5033v1.0523l0.451 1.0523 1.804 0.60133 1.9543 0.902 1.2027 0.15033 0.902-0.15033 2.5557-1.0523h0.902l1.353 0.60133 3.608 4.059 1.353 0.30067h3.0067l0.75166 0.60133 1.2027 0.30066 0.75167 0.30067h2.4053l1.5033-0.30067 0.60135-0.75167 0.15031-1.353h1.353l0.60133 0.30066 1.353 0.60133 1.2027 0.75167 1.6537-0.902 1.353 1.353 2.255 0.30067v1.2027l3.157 0.75167 1.0523 1.2027 1.2027-0.451h1.9543l0.60132-1.2027 0.75167-0.15034 0.902 0.75167 0.75166 0.902 1.2027 0.902 1.9543 1.353 0.60132 0.30066v1.353l0.60136 0.451 0.60132-0.60133v-0.60133l0.60133-0.451 1.5033 0.30066 0.60135 0.75167 0.75166 0.902 1.0523-0.15033 0.90198 0.60133 1.5034 0.75166 0.75167 0.30067 1.2026-0.15033 1.6537-1.2027"/>
   <path d="m135.29 89.45 0.73702-0.58962 0.2211 0.2211 0.1474-0.5159-0.2211-0.2211v-0.73701l0.73701-1.0318 0.51591-0.0737v-1.1055l-0.36851-0.36851 0.14739-0.4422 0.44222-0.14741v-0.36849l-0.3685-0.44221 0.6633-0.44221-1.5477-0.737-0.2211-0.58961 0.44221-0.14741 1.9899-2.3584 0.3685-0.737h0.51591v-1.0318l-0.51591-0.3685 0.66331-0.2948 0.2211-0.51591-0.2211-0.2211-0.51591-0.22111-0.2948-0.44221-0.0737-0.51589 0.22109-0.29481 0.95812-0.51591-0.36851-0.2948v-0.4422h0.737l0.44221 0.2948 0.14741-0.44221 1.1055-0.1474v-0.36851l-0.44221-0.51591-0.14739-0.4422 0.2211-0.36851v-0.29481l-0.29481-1.2529-0.3685-0.3685-0.66332-0.5896v-0.5159l-0.8844-0.36851-0.29481-0.0737-0.2211-0.2948-0.2948 0.2948-0.44221-0.0737-0.95811-1.2529 0.22111-0.95812-0.29481-0.66331 0.29481-0.6633-0.44221-0.73702 0.2211-1.0318-0.3685-0.4422-0.58961-0.1474-0.1474-0.2948 0.2948-0.44221-0.1474-0.5896-0.1474-0.2211-0.1474-0.3685-0.36851-0.81071-0.1474-0.66331-0.3685-0.73701-0.0737-0.5896-0.2211-0.51591-0.0737-0.44221-0.29479-0.36851-0.58962-0.51591h-0.0737l0.0737-0.5896-0.1474-0.14741-0.3685-0.58961-0.0737-0.4422-0.22111-0.66331h-0.5159l-0.44221 0.5159 0.0737 0.3685 0.36851 0.3685 0.44221 0.51591 0.0737 0.8107v0.0737l0.22111 0.44221v1.0318l0.4422 1.0318 0.1474 0.51591-0.0737 0.95811 1.1792 0.2948"/>
   <path d="m65.988 65.397 1.1295 1.2908-0.80676 2.4203-2.743 1.9362-0.80676 2.2589-3.5497 2.2589-1.1295 3.8724v1.1295l0.96811 4.1951-0.80676 0.64541-1.2908 0.80675-0.64541 0.32271 0.32271 1.4522 1.2908 2.0976v0.96811l-0.16135 0.64541-1.4522 2.2589 0.16136 0.64541 0.48405 0.80676h1.4522l0.32271-0.16135 0.64541-1.9362 0.6454-0.48406 1.1295 0.80676h4.3565l2.2589 0.80676 2.4203 0.96811 1.6135 0.48405h1.2908l1.6135-0.3227 2.0976-0.3227 1.7748 0.96811-0.48404 1.1295 0.32269 1.1295-2.5816 2.4203-0.48406 0.64541v1.2908l0.32272 0.80676 1.4522 3.0657 1.1295 0.32271h0.32269l0.96812 0.48405 1.2908 1.1295 0.48407 0.48406 0.32268 0.96811 0.64541 1.4522 0.16137 1.7749 0.64541 0.96811 2.0976 0.48405 1.9362 1.1295 1.9362 1.2908 2.0976 1.6135 1.9362 1.2908 1.9362 1.9362 1.4522 1.4522 0.64541 0.80676 1.2908 2.4203 0.6454 0.64541 1.4522 0.96811 1.4522 0.80676 0.6454 0.64541 0.80678-0.96811v-0.64541l1.2908-0.80676 1.2908-0.3227 0.96809-0.16135 1.1295-1.4522-0.48406-1.4522"/>
  </g>
 </g>
 <g transform="translate(.071957 .1153)" fill-rule="evenodd">
  <g stroke-width=".29072">
   <ellipse cx="135.45" cy="89.645" rx="1.7933" ry="1.9405"/>
   <ellipse cx="112.19" cy="224.93" rx="1.7933" ry="1.9405"/>
   <ellipse cx="4.4343" cy="172.86" rx="1.7933" ry="1.9405"/>
  </g>
  <ellipse cx="107.17" cy="123.06" rx="1.4732" ry="1.5941" stroke-width=".23883"/>
  <ellipse cx="66.778" cy="66.178" rx="1.7933" ry="1.9405" stroke-width=".29072"/>
  <ellipse cx="47.516" cy="73.375" rx="1.4732" ry="1.5941" stroke-width=".23883"/>
  <ellipse cx="134.09" cy="61.098" rx="1.4732" ry="1.5941" stroke-width=".23883"/>
 </g>
 <g transform="translate(.071957 .1153)" font-family="sans-serif" font-size="3.5278px" letter-spacing="0px" stroke-width=".26459" word-spacing="0px">
  <text x="141.49696" y="89.462006" style="line-height:1.25" xml:space="preserve"><tspan x="141.49696" y="89.462006" stroke-width=".26459">Leh</tspan></text>
  <text x="70.164429" y="66.390053" style="line-height:1.25" xml:space="preserve"><tspan x="70.164429" y="66.390053" stroke-width=".26459">Kargil</tspan></text>
  <text x="102.97316" y="120.36572" style="line-height:1.25" xml:space="preserve"><tspan x="102.97316" y="120.36572" font-size="2.1167px" stroke-width=".26459">Zanskar</tspan></text>
  <text x="117.79001" y="225.14198" style="line-height:1.25" xml:space="preserve"><tspan x="117.79001" y="225.14198" stroke-width=".26459">Manali</tspan></text>
  <text x="1.1602473" y="179.20976" style="line-height:1.25" xml:space="preserve"><tspan x="1.1602473" y="179.20976" stroke-width=".26459">Jammu</tspan></text>
  <text x="121.81172" y="65.966713" style="line-height:1.25" xml:space="preserve"><tspan x="121.81172" y="65.966713" font-size="2.1167px" stroke-width=".26459">Nubra valley</tspan></text>
  <text x="44.552448" y="70.200104" style="line-height:1.25" xml:space="preserve"><tspan x="44.552448" y="70.200104" font-size="2.1167px" stroke-width=".26459">Dras</tspan></text>
 </g>
 <path d="m162.59 93.446 0.94664-0.72374 0.51159-0.09302 0.97667 1.3022 0.51157-0.27905 0.46509 0.37206 0.46507-0.23254 0.0465-0.69762v-0.23254l0.79063-0.55809 0.41857 0.88365-0.0465 0.37206-0.37207 0.41857 0.37207 0.23254 0.27904 0.93016 0.093 0.83714 0.18603 0.65111 0.27906 0.27905 0.32555 0.18603 0.18603-0.32556s0.83714 0.41857 0.79063 0.23254c-0.0465-0.18603-0.0465 1.1162-0.0465 1.1162l0.93016 1.3022-0.093-0.88365 0.65111-0.37206h0.83714v0.65111l-0.18603 0.97665 0.51158 0.27905 0.41858 0.37207-0.13953 0.32555 1.5813 0.60461 0.0465 1.8603 0.27905 0.13953h0.69762l0.46507 0.88365 0.18603 0.18603 0.41857-0.093 0.65111 0.79062h-0.41857v0.13953l0.27904 0.32555 0.60461 1.0232 0.23253 0.46508 0.32556-0.32556 0.6511 0.13953-0.23253 0.23254-0.23254 0.23254 0.23254 0.93015 0.5581 0.74413 0.37206-0.46508 0.13952 0.55809 0.093 0.27905 0.27906 0.093 0.18602-0.79062 0.27905-0.18604 0.46508 0.83715 0.27905 0.13952h0.79063l0.23253 0.79063 0.23254 0.27904 0.74413 0.18604h0.13952l0.27904 0.32555v0.27904l0.37207-0.18603 0.46507 0.27904 0.79063-0.13951 0.23254-0.69762 1.5348-0.6046 0.88365 0.6046 0.46507 0.13952 0.51159 0.18604h0.88365v-0.18604l0.32555-0.65111h0.69762l0.27904 0.18603 0.23255 0.41857 0.55809-0.18603 0.74412 0.18603 0.5581 0.18604 0.79062-0.18604 0.5581-0.83713 0.41857 0.32555 0.18604-0.32555v-0.32557l0.46507 0.18604 0.23253-0.23254s-0.18603-0.46507 0-0.46507c0.18604 0 0.6046 0.32556 0.6046 0.32556l-0.0465 0.18602-0.093 0.093 0.093 0.18603 0.46508 0.13954 0.32555-0.18605h0.46508l0.093 0.32556 0.27904-0.32556 0.46508 0.13953 0.74413-0.60461 1.6743 0.13953 0.27905-0.23253v-0.93016l1.1627-0.18603 0.79064 0.83714 0.32555 0.13952 0.46508-0.6046 0.6511 0.13952 0.46509 1.1627 1.9533 0.13953 0.32555-0.79064 1.8603 0.0465 0.65111 0.6046 0.6046 0.13953 0.23254-1.3487 0.93016-0.13953 1.3952 0.37207 0.69762 0.51157 0.23254 0.37207 0.41857-0.37207 0.55809 0.60461 0.46509 0.88365 0.41856 0.093 0.60461-0.37206 0.97666 0.27906 0.41856 0.37206h0.37207l0.37206-0.13953 0.65111-0.0465 0.51158 0.0465 0.60461 0.27904 1.4417-0.093 0.0465-0.88365 0.32556-0.13951 0.5581 0.13951 0.60459-0.18602 0.0465-0.46508 0.51158 0.13952 0.37207-0.23255 0.79063 0.32556 1.1162 0.41856v-1.2557l0.41856 0.13952 0.5116 0.60461 0.6511 0.093 0.51159-0.79064 0.093 0.5581h0.23253l0.46508-0.37207 0.74412-0.55808 0.41857 0.0465 0.41857 0.46507 0.18604 0.5581 0.0465 0.37206v0.27905l0.27904 0.37206 0.46508 0.0465v1.1627l0.093 0.23254 0.37206 0.37206 1.6743-0.13953 0.74412 0.46509 0.55809 0.55808 0.13953 0.32556-0.093 0.46507 0.27905 0.46508 0.88365 0.65111 2.3254 1.5348 1.6743-0.23255 0.23254 0.32557 0.18603 0.79063 0.69762 0.18603 0.18603 2.3254-0.13953 0.37207 0.13953 0.23254 3.1625 2.6044 2.0464-0.0465h0.6976l2.2789-1.0232 0.18603-0.74412 1.1627 0.79062 1.0697-0.0465h0.97666l0.18604 0.23253 0.37205 0.18604 0.13953 0.32556v0.6046l-0.37207 0.41855-0.32555 0.41858-0.46508-0.13952-0.46507-0.37207-0.13954 0.0465 0.0465 0.65112 0.27905 0.46507-0.27905 0.18605-0.27905-0.37207h-0.18603l0.46508 0.69762 0.13953 0.74412-0.093 0.88365v0.6511l-0.41857 0.32555-0.23253 0.093-0.23254 0.13952-0.23254 0.5116-0.27906 0.74412-1.6278-0.23254-0.55809-0.27905-0.69763 0.27905-0.18602 0.51159-1.2092 1.2557-0.69761 0.27904-0.6046-0.6511-0.27905-0.6046-0.23254-0.41857-0.65112-0.93016-0.51156 0.23254-0.51159 0.32555v0.37207l-0.18604 0.18603-0.41857-0.37207-0.13952-0.093 0.46507-0.23254 0.18604-0.51159 0.41856 0.18604-0.13952-0.79064-0.32555-0.0465-0.6046-1.1627-0.32556-1.3022-0.69762-0.41857-0.83714-0.51158-0.23253-0.13952-0.18603-0.32556v-1.1627l-0.093-0.32555-0.41857-0.23254-0.55808-0.32556-0.093-0.0465-0.41858 0.093-0.32555-0.0465-0.23253-0.23254-0.093-0.51158v-0.37206l0.093-0.27906 0.13952-0.27904 0.32555-0.18603 0.32555-0.23254 0.18604-1.0232v-0.093l0.27904-0.27905 0.51158-0.41856 0.093-0.83714-0.13952-0.18604-1.2557-0.37206-1.1162 0.60461h-0.18603l-1.1162-1.0697-0.18603-1.3487-0.13952-0.13952-0.37205-0.18603-0.65112-0.18603-1.7673-1.3487-0.13952-0.18603 0.0465-0.27904h-1.0697l-0.32554-0.18603-0.83715-0.83714-0.5581 0.093-0.74411-0.79063-1.4882 0.13952-0.23254-0.32555-0.51159-0.093-0.32555 0.32554h-0.41858l-0.41856-0.13951-0.093-0.41858-0.18603-0.093h-0.23255l-0.23254 0.27906-0.46507-0.0465-0.18603-0.13952-0.18604-0.13953-0.27904-0.13952-0.51159 0.37206-0.65111 0.65111-0.46508 0.18603-0.13952 0.27905-0.41856 1.1627-0.27906 0.093h-0.37205l-0.093-0.27905 0.0465-0.74412-0.27905 0.37206-0.69762 0.0465-0.13952-0.23254-0.79063-0.0465-0.93016 0.13952-0.46507-0.0465-0.41858-0.18603-1.1162-0.51158-0.23253-0.0465-0.23254-0.093-0.13953 0.0465-0.0465 0.32555-1.1627 0.74413-0.13952-1.7673-1.1162 0.0465-0.18604-0.69761-1.0697 0.0465-0.27905-0.6046-0.6046 0.18604-1.5813 0.79062-0.093-0.60459-2.0463 0.0465-0.6511 0.69762h-0.74413l-0.13952-0.18603h-0.27905l-0.6046 0.41856-0.41857-0.0465-0.13953-0.18603-0.18603-0.37206-0.093-0.46507h-1.3487l-0.23253-0.37207-0.74413 0.6046-0.0465 0.093h-0.83714l-0.0465 0.32555-0.093 0.0465-0.46508-0.23254-0.51158-0.13952-0.093-0.27904-0.093-0.23255-0.51159 0.0465-0.46508 0.46508-0.18603-0.0465-0.093 0.13952 0.093 0.41858-0.55809 0.23253h-0.23254l-0.0465-0.23253-0.093-0.23254-0.51159-0.13953v0.32556l-1.0232 0.69761v0.13953l0.32555 0.093-0.23254 0.27905-0.13952 0.0465 0.093 0.32556v0.37206h-0.51151l-0.32556-0.27905h-0.27904l-0.37207 0.23254v0.23254l-0.0465 0.32556-0.0465 0.27905-0.32556 0.18602-0.18603 0.0465-0.23253-0.23254-0.13953-0.37206-0.13952-0.13952-0.37206 0.0465h-0.18603l-0.27905-0.093-0.093-0.13952h-0.97667l-0.23254 0.23254-0.27905-0.093-0.46507 0.27905-0.093 0.18602v0.27905l-0.093 0.27905-0.23253-0.27905-0.32555-0.093h-0.23255l-0.27904 0.23255-0.0465 0.13952-0.32556-0.37207-0.093-0.18603-0.27905 0.0465-0.46507-0.0465-0.37207-0.27904-0.093-0.41857-0.32555 0.41857-0.27905 0.18603h-0.65111l-0.65111 0.41857-0.27904 0.13953h-0.5581l-0.18603 0.18603-0.41857-0.13953-0.093 0.37206-0.0465 0.5581h-0.32556l-0.093-0.13952-0.27904-0.23255-0.32556 0.13953-0.18603 0.27904-0.37205 0.83714h-0.41859l-0.51157-0.27905-0.37207-0.41856 0.46508-0.46508 0.18603-0.18604 0.37206-0.093-0.18603-0.18603-0.41857-0.093-0.46508-0.093h-0.46519l-0.23254 0.13953-0.18604 0.32554-0.37206-0.23253-0.23253-0.23254-0.0465-0.5581-0.27904-1.0697-0.18603-0.74413-0.27904-0.0465-0.55809 0.41857-0.18603 0.093 0.0465-0.41858 0.32555-0.23253-0.13952-0.27905-0.55809-0.6046h-0.69762l-1.0232-1.1627-0.32556-0.32556 0.13953-0.55809-0.37207-0.37207-0.37205-0.093-0.093-0.23254 0.18603-0.74412-0.65111-0.65111 0.27904-0.23254-0.093-0.18603-0.55809-0.13952-0.51159-0.41858-1.0697-0.93015-0.46507-0.69761-0.093-0.74413-0.0465-0.13952-0.46507-0.13952-0.37207-0.37207-0.6511-0.18603-0.27906-0.27904-0.93015-0.74413-0.23254-0.32555 0.0465-0.23254-0.32555-0.093-0.51158-0.18603-0.093-0.0465 0.46508-0.18603-0.46508-0.23254-1.6278-1.1627-0.5581-0.41857-0.74412-0.74412-0.23254-0.74412v-0.69764l-0.41857-0.27905-0.46508-0.32555-0.27905-0.27905-0.0465-0.32556-0.13952-0.32555-0.5581-0.55809z" fill="#85c5e3" stroke-width=".5px"/>
 <text x="172.22952" y="118.28456" fill="#000000" font-family="sans-serif" font-size="3.5279px" letter-spacing="0px" stroke-width=".26459" word-spacing="0px" style="line-height:1.25" xml:space="preserve"><tspan x="172.22952" y="118.28456" font-size="2.1167px" stroke-width=".26459">Pangong Tso lake</tspan></text>
 <path d="m186.33 153.27 2.3142 0.48215 1.3018 2.0731 0.3857 1.8321 0.67497 0.67497-0.19285 1.1571 0.86784 1.6392-0.3857 0.0965h-0.67499l-0.19286 1.0124 1.0607-0.33747-0.48213 0.57854-0.86783 0.19286-0.0965 0.0481v0.14469l0.24107 0.53033 0.77141 0.0481 0.4339 0.3857 0.48214 1.8321-0.81961 0.4339-0.4339-0.0965-2.2178-0.53035-1.2053-3.7124 0.38569-1.8321-0.96425-2.5553 0.24107-1.2053v-0.57857l-0.24107-1.0125z" fill="#85c5e3" stroke-width=".5px"/>
 <text x="187.06802" y="169.23601" fill="#000000" font-family="sans-serif" font-size="3.5279px" letter-spacing="0px" stroke-width=".26459" word-spacing="0px" style="line-height:1.25" xml:space="preserve"><tspan x="187.06802" y="169.23601" font-size="2.1167px" stroke-width=".26459">Tso Moriri Lake</tspan></text>
 <path d="m47.067 121.56 1.0257 0.51285 0.95244 0.14653 1.392 0.43959 0.29306 0.43958v0.87917l-0.51285 0.73266v1.5385l0.07327 0.58612v1.099l0.21979 1.0257 0.51285 0.43959 0.36632 0.0733 0.51285 0.29305 0.43959-0.29305 0.36632 0.29305 0.36632-0.36633-0.07326-0.43959 0.21979-0.36631h1.1722l0.2198 0.14653v0.95244l0.65938 0.51284 0.65938 0.14654 0.87918 1.3188 0.87917 0.58612 0.87918 0.14653 0.65938 0.14652 0.80591-0.29305 0.36632-0.14653h0.73265l0.58612-0.29305 0.51285-0.2198h0.80591l0.87917 0.14653 0.73265 0.58612 0.73265-0.14653 0.29306-0.29306 0.58612-0.2198 0.21979-0.43958 0.36632-0.43959 0.21979-0.0732 0.36632 0.36631 0.65938 0.65939 0.87917 0.51285h0.87918l0.80591-0.58612 0.36632-0.80591 0.14653-0.65938v-0.43959l-0.29306-0.43959-0.14653-0.43957 0.07326-0.65939 0.43959-0.21979v-0.43959l-0.43959-1.3188v-0.36632l-0.07326-0.65938 0.14653-0.29306v-0.80591h0.80591l0.65938 0.2198 0.73264-0.29306 0.21979-0.0733 0.51285-0.51285 0.65938-0.14652 0.51285-0.43959-0.07326-0.43959-0.36632-0.14653-0.29306-0.14652 0.36632-0.29307h0.51285l0.29306-0.14652v-0.65939l-0.14653-0.21979-0.51285-0.43959-0.29306-0.14652 0.07326-0.0732 0.2198-0.43959h0.95244l0.73264-0.21979 0.36632-0.58612 0.2198-0.36632 0.65938-0.14653-0.07326-0.2198-0.36632-0.43958-0.51285-0.43959-0.58612-0.43959v-0.65938l0.29306-0.29305 0.43959-0.0732-0.2198-0.65938-0.29306-0.29305-0.07326-0.36633 0.36632-0.51285 0.2198-0.14653 0.36632-0.36633 0.07326-0.43958h-0.43959l-0.36632-0.0733v-0.29306l-0.14653-0.8059-0.80591-0.43959-0.80591-0.2198h-0.95244l-0.14653-0.51284-0.58612-0.2198v-1.0257l-0.58611-0.51285-0.43959-0.14653h-0.87918l-0.43959-0.29307-0.73264-0.14651h-1.7584l-0.73264-0.21981-0.80591-0.21978h-0.73264l-0.51285-0.2198-0.73265-0.0732-0.65938-0.0732h-0.58612l-0.43959 0.43958-0.29306 0.36633-0.51285 0.36632-0.36632 0.0732-0.36632-0.14653-0.36632-0.29305-0.21979 0.65938-0.51285 0.43958-0.73265 0.14654-0.58612 0.21978-0.73265-0.0732-0.87917-0.2198-0.87918 0.36633-0.80591 0.58612-0.51285 0.80591-0.14653 0.80591 0.14653 0.80591v1.1722l-0.73264 0.80591-0.73265 0.73265v0.21979l-0.73264 0.87917-0.43959 0.58612-0.07326 0.36632-0.87917-0.14653-0.80591 0.2198-0.43959 0.58611h-0.51285l-1.0257-0.21979-0.87917-0.14653h-0.87917l-0.36632 0.80591-0.29306 0.51284v1.3188l0.14653 0.58612z" fill="#004d00" stroke="none" stroke-width=".15019px"/>
 <text x="58.701408" y="114.74172" fill="#ffffff" font-family="sans-serif" font-size="2.8223px" letter-spacing="0px" stroke-width=".26459" word-spacing="0px" style="line-height:1.25" xml:space="preserve"><tspan x="58.701408" y="114.74172">Kishtwar</tspan><tspan x="58.701408" y="119.15156">National</tspan><tspan x="58.701408" y="123.56139">Park</tspan></text>
 <path d="m111.82 118.18 0.60646-0.53908 0.20216 0.20215 0.40432-0.40431 0.87601 0.26954 0.33693 0.0674 2.1563 1.4825 0.33693 0.40431 0.0674 0.60647 0.13476 0.47169-0.80862 0.67386-0.13477 0.67386-1.1456 1.0782h-0.47169l-1.3477-0.0674v0.60647l-0.67385 0.47169 0.4043 1.4825-0.13477 0.20215-0.33692 0.13477h-1.4151l-0.20217 0.74125-1.5499-0.26955-0.26954 0.0674-0.13477 1.4825 0.26953 0.67386-0.20215 0.33692-0.26954 0.33694-1.0108 0.74124-0.67386 0.40431h-0.74126l1.3477 1.0108 0.40432 0.26954 0.26954 0.26955v0.33692l-0.0674 0.26955-0.40431 0.33693-0.33693 0.80861h-0.26954l-0.53908 0.0674-0.20216 0.33693 0.47169 0.74125 0.33694 0.33692 0.67385 0.74124 1.0108 0.26955 0.4717 1.1456 0.4717 0.20215h0.67386l0.53908 0.9434 1.4151 0.33693 0.74124-0.13477 0.94339 0.40431h0.33693l0.67385 0.20216 0.20216-0.20216 0.60647-0.13477 0.33693 0.33693 0.53909-0.0674 0.67385-0.60647 0.0674-0.80862 1.2803 0.0674 0.60647 0.80863h0.67386l0.53908 0.80862 1.8868 2.3585 0.4717-0.60646 0.60648-0.13478h1.1455l1.4151 0.26954h1.8194l-0.20215-0.67385v-0.74124l0.60646-0.74124 0.67386-0.60647 0.53909-0.67385 0.13476-0.94341 0.40433-0.33692h0.33692l0.80862 0.60647 0.60648-0.53908 0.4043-0.40432 0.0674-0.26954h0.74126l0.4043-0.94339 0.60647-0.60647 0.876-0.47171 0.87602-0.53908 0.80864-0.67385 0.13476-0.60647 0.33692-0.4717 1.752-0.87601-0.13476-0.53909-0.40431-0.53908-0.74126-0.9434v-1.1456l0.0674-0.876v-0.87601l-0.67386 0.0674 0.13478-0.74125-0.20217-0.53908-0.13476-0.53909 0.33693-0.67385-0.60648-0.4717-0.4717-0.67385-0.53908-1.0108v-0.13466l0.33693-0.74125-0.26955-0.67386-0.33693-0.4043-0.33692-0.20217-0.53907-0.26953-0.20218-0.33693v-0.53908l-0.0673-0.60647-0.13478-0.33693-0.0674-0.53908 0.26955-0.20216 0.26955-0.26954 0.33692-0.13478 0.876 0.20216h0.60647l-0.0674-0.26954 0.60648-0.40431 0.74123-0.60647 0.74123-0.33693 0.47172 0.60647h0.53908l0.40431-0.33693 0.40432-0.0674 0.53908 0.20216 0.53907 0.94339v0.5391l0.67386 0.94339 0.80863-1.0782v-2.0889l0.60648-0.53909 0.4043-0.9434 0.4717-0.80862 0.13477-0.4717 0.67386-0.20216 0.13477-0.67385 0.33693-0.67386-0.67386-0.60647-0.67386-0.0674h-0.47169l-0.40432 0.26954-0.33693 0.0674-0.40431-1.6846-0.20215-0.87602-0.0674-0.60647 0.0674-2.0216-0.94339 0.20216h-0.67386l-0.9434 0.60647-1.2129-0.60647-0.80862-0.47171h-0.53909l-0.67386-0.67384-0.74124 0.60646-0.74124 0.74124-0.47169-0.13477-0.60648 0.40431-0.20214 0.26955-0.53909-0.20216-0.13478-0.33693-0.67385-0.26954-0.26954-0.53909-0.13478-0.33692-0.60647-0.26954h-0.47168l-0.26955-0.26954-0.26955-0.26955-0.47169-0.87601-0.33692-0.33693-0.40432-0.20215-0.33692-0.53908-0.26955-0.20216v-0.53909l-0.20216-0.26953-0.13476-0.40432 0.4043-0.4717v-0.20216l0.13477-0.20215 0.60647-0.20216 0.33693-0.40431 0.20216-0.94339v-0.60647l0.0674-0.60647v-0.26954l-0.40431-0.20216-0.0674-0.06743-0.26955-0.4717-0.4043-0.33694-0.20217-0.33692-0.26954-0.06743-0.20215-0.26954v-0.53912l-0.33694-0.20215-0.26953-0.13478-0.20216-0.13478-0.20216-0.13477v-1.0782l-0.26954-0.33693-0.33693-0.40432-0.20215 0.20216-0.33693 0.13477-0.33693-0.53908-0.33693-0.33693-0.40431-0.13477h-0.26954l-0.53909-0.33693-0.53908-0.20216-1.0108 0.13478-0.33693 0.26954-0.26954 0.53908-0.33692 0.26954h-0.67386l-0.33693 0.33693-0.33693 0.40432-0.33693 0.06743h-0.53908l-0.60646-0.20215-0.74124 0.4717-0.4717 0.26954-0.20217 0.53908-0.47169-1.2803-0.0674-0.4717 0.13476-1.2129-0.20215-0.40432h-0.47165l-0.80863 0.06743-0.94339-0.40431-0.74124-0.13477h-0.74124l-0.53909 0.33693-0.33692 0.26954h-0.40432l-0.67385-0.26954-0.53909-0.13477-0.94339-0.26954h-0.94339l-0.60648 0.20216-0.33693 0.40431-0.26954 0.67385-0.0674 0.80863v0.67385l0.26954 0.40432 0.60648 1.5499 0.60646 0.26955 0.87602 0.53907 0.87601 0.13478 1.2129 1.2803 0.0674 0.60647-0.53908 0.40432-0.47169 0.20215-0.26955 1.2129-0.0674 0.67386 0.20216 0.20215v0.67386l-0.0674 0.40431 0.20215 0.33693 0.13478 0.60647 0.87601 1.5499v0.74125l-0.20216 0.53908-0.33693 0.53908-0.20216 0.53909-0.60647 0.33693v0.67385l-0.0674 0.53908-0.13477 0.80862-0.40432 0.20217-0.87601 0.13476 0.74124 0.74125 0.13477 0.53908v1.3477l-0.13477 0.4717-0.67385 0.40431 0.40431 0.13477 0.4717 0.40432 0.13477 0.33692 0.0674 0.33693v0.26954l-0.0674 0.33693v0.47169l0.26954 0.26954 0.40432 0.74125-0.60647 0.33693-0.60647 0.4717v0.47169l0.80862 0.53909z" fill="#004d00" stroke="none" stroke-width=".1314px"/>
 <text x="114.72009" y="108.12697" fill="#ffffff" font-family="sans-serif" font-size="2.8223px" letter-spacing="0px" stroke-width=".26459" word-spacing="0px" style="line-height:1.25" xml:space="preserve"><tspan x="114.72009" y="108.12697">Hemis</tspan><tspan x="114.72009" y="112.5368">National</tspan><tspan x="114.72009" y="116.94664">Park</tspan></text>
</svg>
