<svg width="208.41mm" height="235.76mm" version="1.1" viewBox="0 0 208.41054 235.75664" xmlns="http://www.w3.org/2000/svg">
 <g transform="translate(-1.5944 -33.837)" fill="#e9a0a0" stroke="#fff" stroke-width=".5">
  <path id="Srinagar" d="m154.42 117.58c-0.85713-0.60103-0.61283-2.3774-1.6071-3.1285-1.0607-0.80141-3.1017-0.71353-4.3606-0.75318-2.9881-0.0941-6.4625 1.8-9.2236 0.78429-2.9775-1.0907-3.2635-2.8339-6.9148-2.79-2.2307 0.0261-10.968 1.5278-6.1017 5.012-0.42426 2.1556-3.5913 3.4424-5.6334 3.1156-3.8635-4.3049-8.1169-4.9576-13.177-2.0464-0.67928 0.39128-1.4271 0.87004-2.1792 1.4207 0.64927 0.91288 1.3757 1.754 2.0774 2.6935 0.52391 0.70713 0.80354 1.276 0.94284 1.8021 0.18218 0.67393 0.20252 1.2953 0.85715 2.0775l0.18218 0.16079c0.71784 0.45 1.5642 0.25532 2.3356 0.14857 0.93212 1.5106 1.65 2.3892 2.4428 3.076l0.011 0.0306h0.0322l2.8821 1.8525s-0.70713 0.95458-0.975 2.2938c-0.26783 1.3393-0.26783 4.5537-0.26783 4.5537s2.6785-1.6072 3.7499-0.80365c1.0714 0.80365 4.2856 0.80365 4.2856 0.80365s1.875-1.3393 3.482-1.0714c1.6071 0.26753 3.2142 1.0714 3.2142 1.0714l1.6071 2.4106s2.1428-1.6071 3.4821-1.6071c1.3392 0 3.4821-0.80355 3.4821-0.80355s3.7499-2.4107 4.5536-3.75c0.80355-1.3393 1.875-2.4107 3.2142-2.9464 1.3393-0.53562 4.2856-2.6785 4.2856-2.6785s1.3393-0.26753 2.4107 0.26797c1.0714 0.53574 3.7499 1.3393 3.7499 1.3393l3.2142-0.53571c0-1.0714-0.26783-3.2142-1.0714-4.5536-0.80355-1.3393-2.4107-2.6785-2.4107-2.6785s-0.80354-2.6785 0.53571-2.9464c1.3392-0.26753 2.4107-0.26753 2.4107-0.26753s-0.20144-0.56256-0.30644-1.2557c-1.5793-0.33245-3.7049 0.75536-5.2112-0.29891z" fill="#e7de69"/>
  <path d="m130.47 137.88 1.6071 2.4107-0.93212 5.3571s0.0964 1.5-0.36431 1.9168c-0.80355 0.74033-2.0356 1.8535-2.7214 2.3689-1.0714 0.80351-1.6071 2.9464-1.6071 2.9464l-1.875 4.2856-1.0714 2.9463-2.1428 4.0177-4.8212 3.482s-2.9464 0.80359-4.0178 0.80359-2.9464 0.80356-4.5536 0.80356-3.4821 4.0178-3.4821 4.0178-1.3393 1.875-2.6785 2.4107c-1.3393 0.53571-1.875 0.80351-2.4107 1.875-0.53571 1.0714-3.7499 3.7499-3.7499 3.7499l-1.3393 3.4821-2.9463 1.3392-2.6785-2.6785s-4.2856-3.2142-5.3571-4.2856c-1.0714-1.0714-1.875-4.0178-1.875-4.0178s0-2.1428 1.6071-3.2142c1.6071-1.0713-1.0714-2.6785-1.0714-2.6785s-2.4107-2.1428-3.482-3.2142c-1.0714-1.0714-1.6071-1.6071-1.875-2.9464-0.26784-1.3392 0-3.4821 0.26788-4.5537 0.26788-1.0713 0.53571-4.5532 0.53571-4.5532l3.2142 0.26797s-1.0714-1.8749 2.4107-2.6785c3.4821-0.80355 3.4821-2.6785 3.4821-2.6785s-1.6071-3.2142-1.6071-4.2856-0.53571-3.4821 0.80354-3.7499c1.3393-0.26797 5.6251-2.6785 5.6251-2.6785l3.7499-3.4821 2.4107-2.9464 4.5536-0.80355 4.0178-3.482 3.4821 2.4106 4.4883-0.65249v-0.0124h0.0322l2.881 1.8525s-0.70607 0.95458-0.97389 2.2938c-0.26789 1.3393-0.26789 4.5532-0.26789 4.5532s2.6785-1.607 3.7499-0.80356c1.0714 0.80356 4.2856 0.80356 4.2856 0.80356s1.875-1.3392 3.4821-1.0714c1.6071 0.26753 3.2153 1.0704 3.2153 1.0704z" fill="#c2b0c2"/>
  <path d="m169.58 141.37c1.6071-0.26795 1.875-1.6071 0.80355-2.4107s-1.6071-4.2856-1.6071-4.2856l-2.9464-0.53567-3.2142-1.6071s-2.1428-1.8749-2.1428-2.9464l-3.2142 0.53572s-2.6785-0.80355-3.7499-1.3392c-1.0714-0.53571-2.4107-0.26796-2.4107-0.26796s-2.9464 2.1428-4.2856 2.6785c-1.3392 0.53576-2.4107 1.6071-3.2142 2.9464-0.80355 1.3392-4.5537 3.7499-4.5537 3.7499s-2.1428 0.80355-3.482 0.80355c-1.3393 0-3.4821 1.6071-3.4821 1.6071l-0.93211 5.3571s0.0964 1.5-0.36431 1.9168c-0.80355 0.74033-2.0356 1.8535-2.7214 2.3689-1.0714 0.80351-1.6071 2.9463-1.6071 2.9463l-1.875 4.2857-0.38356 1.0564c2.656 0.27234 5.1802 0.95462 7.3893 2.2553-1.1378 0.73501-0.54425 1.036-1.0071 1.831 0.49927 0.36644 1.3907 1.1485 1.7924 1.4271 5.4233 0.75962 8.3261-6.7971 13.229-3.677 2.0228 1.2867 4.0714 3.2163 6.1414 4.5868 0.26247 0.17342 0.51 0.33289 0.74251 0.49175 0.23786-0.31808 0.49068-0.58391 0.75639-0.74246 1.3392-0.80359 3.7499-2.9442 5.6251-2.9442 1.875 0 3.4821-2.4107 3.4821-2.4107l3.4821-2.6784s1.875-2.1429 2.1428-3.2142c0.26788-1.0714 1.875-2.1428 1.875-3.4821s0.53571-4.0178 0-5.3571-1.875-2.6774-0.26788-2.9453z" fill="#c2f0c2"/>
  <path d="m97.155 40.718-0.15966 0.49175-1.3392 5.6251v5.6251c0 2.4107-0.80355 4.0178-1.6071 5.3571-0.80354 1.3392-2.9463 4.8212-2.9463 4.8212v5.8926c0 1.3393-0.26788 2.9464-0.26788 2.9464s-2.4107 2.4106-3.482 3.2142c-1.0714 0.80355-5.3571 2.6785-5.3571 2.6785s1.6071 1.0714 0.80355 3.2143c-0.80355 2.1427-1.3393 1.0713-2.9464-0.26797-1.6071-1.3393-1.3392 1.0714 0 2.4107 1.3393 1.3392 0.53571 2.4106-0.53571 2.6785-1.0714 0.26753-0.80354 0.80355-0.80354 2.1428s-1.875 1.0714-3.2142 0.26797c-1.3393-0.8036-2.1428 1.0714-2.1428 1.0714v4.0178s-5.0892 5.6251-6.6961 5.6251c-1.6071 0-4.5537-0.53572-4.5537-0.53572l-3.4821 2.4106h-3.4821l-1.3393 1.6072s-2.9464 2.4106-4.0178 3.482-2.1428 2.9464-2.1428 2.9464-2.4107 1.0714-3.4821 1.3392c-1.0714 0.26797-2.4107 0-3.7499-1.3392s-2.6785-0.80355-4.2856-0.80355-3.2142 0.80355-4.2856 1.6071c-1.0714 0.80356-4.8212 1.0714-4.8212 1.0714l-0.21411 0.0436c-0.18226-1.0382-0.48212-2.612-0.49288-2.6453-0.60103-1.1046-3.0749-3.8592-3.9642-4.9724-0.67496-1.5107-1.7143-4.5118-2.4535-5.6251-0.52499-0.78212-1.6607-1.7036-2.3356-2.3893-2.2286 0.50674-4.6072 1.8225-6.568 2.9357l-3.9106-2.5179-3.8677 0.95466-1.1678-1.3521c-0.011288-2.4417 1.0071-5.344 1.575-7.7452 4.2856-4.3585 8.2725-7.8973 13.864-10.854l-1.3714-2.6346 0.98567-4.3296 6.0011-3.6095c-1.0939-3.2366-1.3821-6.6961-2.3571-9.9439l0.53571-1.4229c1.2214-3.2142 1.125-2.9152 3.1714-5.4664 1.9285-0.70713 4.0606-1.7453 6.032-1.8525 3.8356 3.5892 3.1607 4.2203 7.7997 2.4321 0.43929-0.17167 0.85714-0.32243 1.3393-0.34247 0.06418 0.0305 0.42748 0.22614 0.46068 0.22614 1.4464 0.14858 4.7035 0.91065 5.9035-0.32243 3.2892-3.3857 4.7902-4.8526 8.7426-7.1357l0.19285-0.35337c1.6189-0.11678 3.3653-1.126 4.8329-1.7239 2.1739-0.90002 3.4499-4.9619 4.2631-5.1441l0.88926 0.01308c0.51428 0.30108 2.7867 1.8641 3.5474 1.3392 0.76071-0.525 2.356-1.9274 3.331-1.7785l11.217 1.7475c1.3714 0.2135 2.5189 1.4667 3.7081 2.0678 0.72856 0.3647 4.5105-0.34291 6.2569 0.15119 0.23571 0.3647 1.7999 0.83458 2.1203 0.58818 0.29791 0.26797 1.2835 1.1903 2.2693 2.0689z" fill="#c2e0c2"/>
  <path d="m145.6 160.06c-4.9018-3.1221-7.8062 4.4347-13.229 3.6749-0.40178-0.27884-1.2932-1.0607-1.7924-1.4271 0.4639-0.79497-0.13078-1.0961 1.0071-1.8289-2.2092-1.3039-4.7336-1.9864-7.3893-2.2553l-0.68784 1.8899-2.1428 4.0156-4.8212 3.482s-2.9463 0.8036-4.0178 0.8036c-1.0714 0-2.9464 0.80356-4.5537 0.80356-1.6071 0-3.482 4.0178-3.482 4.0178s-1.3392 1.875-2.6785 2.4107c-1.3392 0.53563-1.875 0.80355-2.4107 1.8749-0.53571 1.0714-3.7499 3.7499-3.7499 3.7499l-1.3392 3.4821 5.0891 1.3392s2.6785-0.53563 4.2856-1.0714c1.6071-0.53574 1.6071-1.0714 2.6785-0.26795 1.0714 0.80351 1.875 0.80351 2.9464 0.80351h1.6071l1.6071 2.9464 2.6785-1.3393s2.9463-0.26797 2.9463 1.3393v2.6784s3.4821-1.6071 5.3571-0.26752c1.875 1.3392 3.7499 2.1427 4.8212 1.8749 1.0714-0.26797 4.5537-2.6785 4.5537-2.6785s-1.875-2.4107 1.0714-2.6785c2.9463-0.26797 4.5536-1.6071 4.5536-1.6071v-3.2142c0-1.6072-1.3392-4.5537 0.80355-4.5537s3.4821-0.80359 3.4821-0.80359l2.1428 1.3393 2.4107-1.0714 0.26789-4.5536 1.6071-2.1429 1.6178-2.2059s0.6825-2.1953 1.6435-3.48c-0.2325-0.15599-0.47998-0.31807-0.7425-0.49175-2.07-1.3736-4.1185-3.301-6.1414-4.5876z" fill="#f0f2a0"/>
  <path d="m96.593 95.183c-2.3121-0.14161-3.8838-2.6453-4.352-4.7035-0.51319-2.2596 1.3693-4.2567 0.9546-6.3993-0.27324-1.4058-2.5403-2.1108-2.07-3.7199 0.22714-0.77894 1.3489-0.91178 1.726-1.6114 0.48534-0.8978 0.2475-2.4439-0.01487-3.3813-0.15107-0.53894-2.8103-0.99431-4.6983-1.3339-0.29463 0.26056-0.57427 0.49816-0.79068 0.66103-1.0714 0.8036-5.3571 2.6785-5.3571 2.6785s1.6071 1.0713 0.80355 3.2142-1.3393 1.0714-2.9464-0.26797c-1.6071-1.3393-1.3392 1.0713 0 2.4106 1.3393 1.3393 0.53571 2.4106-0.5357 2.6785-1.0714 0.26797-0.80355 0.8036-0.80355 2.1429 0 1.3392-1.875 1.0714-3.2142 0.26797-1.3392-0.80351-2.1428 1.0715-2.1428 1.0715v4.0177s-5.0891 5.6251-6.6965 5.6251c-1.6071 0-4.5537-0.53572-4.5537-0.53572l-3.4821 2.4106h-3.4821l-1.3393 1.6071s-2.9463 2.4107-4.0178 3.482c-1.0714 1.0714-2.1428 2.9464-2.1428 2.9464s-2.4107 1.0714-3.4821 1.3393c-1.0714 0.26754-2.4107 0-3.7499-1.3393s-2.6785-0.80355-4.2856-0.80355-3.2142 0.80355-4.2856 1.6071-4.8212 1.0714-4.8212 1.0714l-0.21411 0.0436c0.08579 0.44138 0.14993 0.78425 0.15982 0.86995 0.01128 0.0436-0.07403 0.4586-0.08466 0.525-0.0427 0.25534-0.50464 3.1371-0.53571 3.2014-0.56786 1.2322-2.776 4.5009-3.6224 5.6904-1.3168 1.8642-3.9213 4.2963-4.6273 6.5453-0.01128 0.0262 0 0.50469 0.01128 1.0939 0 0.89788 0.02266 2.0764 0.02266 2.3754l-2.131 2.9774-0.27978 3.4403 1.7046 2.3356c3.8667 0.11673 7.7248 0.25708 11.591 0.35337l0.69645 1.0606c1.9489-0.47031 3.7928-0.91069 5.7641-1.201l0.49284-0.46922c1.4036-0.19522 2.6464-0.31155 3.9749-0.77464 0.26801-0.67391 1.0714-1.0907 1.6178-1.4668 2.4653-1.6596 3.5678 1.2761 5.839 1.6725 1.6178 0.27887 4.0713-0.50247 6.0643 0.0441 0.95352 0.25663 3.5249 2.5382 3.8785 3.3728 0.15965 0.3769 0.32143 0.83461 0.49284 1.3393l0.25712-0.0837s1.6071-0.26796 3.2142-0.26796h4.2856l5.8926 5.8926 3.2142 0.26797 2.9464 4.8212 3.2142 0.26796s-1.0714-1.8749 2.4107-2.6785c3.482-0.80355 3.482-2.6785 3.482-2.6785s-1.6071-3.2142-1.6071-4.2856c0-1.0713-0.53571-3.482 0.80355-3.7499 1.3392-0.26754 5.6251-2.6785 5.6251-2.6785l3.7499-3.482 2.4107-2.9465 4.5536-0.80351 4.0178-3.482 3.4821 2.4106 4.4883-0.65462v-0.0124l-0.011-0.0306c-0.79282-0.68677-1.5107-1.5653-2.4428-3.076-0.77139 0.10669-1.6178 0.30107-2.3357-0.14858l-0.18217-0.16079c-0.65361-0.7821-0.67504-1.4046-0.85715-2.0774-0.1393-0.525-0.41896-1.0939-0.94285-1.802-1.1035-1.4775-2.2939-2.6893-3.0974-4.3715-0.3643-0.75963-0.68569-1.3724-1.0061-1.8964l0.60964-1.6382c-0.0426-0.65241 0.0965-1.3081 0.68679-1.5417 1.3392-0.53576 4.0178-4.0178 4.0178-4.0178l-2.4107-1.6071s-0.26784-1.3393 0.53571-2.9464c0.80355-1.6072 1.3392-4.2856 1.3392-4.2856l-1.875-4.8212s0.076 0.01743 0.19929 0.03486c-0.47676-0.29978-1.02-0.53249-1.6703-0.66321-2.6806-0.53676-5.4321 1.1882-8.0324 1.0286z" fill="#e6e9e3"/>
  <path id="Anantnag" d="m209.62 116.49c0.13943-1.2117-1.6071-1.4796-2.5392-1.4796-0.94285 0-2.1428-0.39519-3.0856-1.1989-0.93214-0.8036-3.482-0.6761-3.482-0.6761s-1.4678 1.7475-2.8071 2.551c-1.3392 0.80355-2.9464-0.53572-2.9464-0.53572s-1.6071-1.875-2.4107-2.9463c-0.80353-1.0714-1.3393-0.80359-3.2142 0.26797-1.875 1.0713-4.2856 0-5.3571-0.26797-1.0714-0.26752-5.6251-1.0714-8.0354-2.4107-2.4107-1.3392-4.0178 0.80359-4.0178 0.80359s-1.6071 2.6784-2.9463 2.9463c-1.3393 0.26753-2.6785 1.875-2.6785 1.875h-5.0892c-2.4107 0-1.0714 3.7499-1.0714 3.7499s-1.0714 0-2.4107 0.26753c-1.3393 0.26797-0.53572 2.9463-0.53572 2.9463s1.6071 1.3393 2.4107 2.6785c0.80353 1.3393 1.0714 3.482 1.0714 4.5536s2.1428 2.9463 2.1428 2.9463l3.2142 1.6071 2.9464 0.53568s0.53571 3.4821 1.6071 4.2857c1.0714 0.80346 0.80356 2.1427-0.80355 2.4106-1.6071 0.26752-0.26788 1.6071 0.26788 2.9464 0.53569 1.3392 0 4.0178 0 5.3571 0 1.3392-1.6071 2.4107-1.875 3.482-0.26789 1.0714-2.1428 3.2142-2.1428 3.2142l-3.482 2.6785s-1.6071 2.4107-3.4821 2.4107-4.2856 2.1428-5.6251 2.9464c-1.3392 0.80351-2.4 4.2202-2.4 4.2202l-0.0278 0.0392 0.42425 0.14249c3.0557-0.42658 5.0011 0.24879 7.801 0.41-0.83143 4.351 1.6071 6.3654-3.4542 7.8686-0.045 1.2428-0.0589 2.5574-0.1082 3.8109-0.59571-0.0706-1.4711 0.23702-2.0528 0.1093-0.13395 1.32-1.08 1.8621-2.491 1.7828-0.13394 2.6634-0.14461 5.4469 1e-3 8.1082 1.5579 0.0771 4.1324-0.68465 5.4974-0.31634 1.6564 0.44566 1.4871 1.5846 3.3214 1.8525-0.031 0.52281 0.13285 1.1529 0.10931 1.6779 1.561 2.5424 4.1796 5.0743 5.0303 7.967 0.71356 2.4235 0.28068 5.4408 0.22819 8.0707 1.7282 0.51429 3.6534 1.6682 3.6534 1.6682s7.5 7.4999 8.0355 8.5714c0.53571 1.0714 5.3571 5.8926 5.3571 5.8926l4.2857 4.0179 8.0354-2.1429 4.8212-2.1428-0.26796-5.0891s0-3.7499-1.0714-6.1606 0.26797-4.0178 1.3393-4.5536c1.0714-0.53567 2.1428-2.9463 2.1428-2.9463s0.5357-3.2142 0.26796-4.5536c-0.26796-1.3392 0.26797-2.4107 1.6071-3.2143 1.3393-0.80349 0.80355-2.9463-0.26796-3.482-1.0713-0.53573-2.1428-0.8036-2.1428-0.8036s-0.53572-7.4999-0.80355-8.5714c-0.26797-1.0714-0.26797-1.6071 1.0714-2.9463 1.3392-1.3393-0.26796-4.2856-2.1428-5.6251-1.875-1.3392-2.4107-2.4107-2.4107-4.5536 0-2.1427-1.0714-3.7499-2.1428-4.5532-1.0714-0.80359-1.0714-2.9464-1.6071-4.0178-0.53573-1.0714-1.6071-6.6943-2.9464-9.6406s1.0714-7.232 1.0714-7.232l2.9464-4.0178s0.53571-2.4107 0.26782-3.4821c-0.26782-1.0713 0.80356-1.8749 2.1428-1.8749 1.3392 0 2.9463 0.26796 2.9463 0.26796h4.2856c1.875 0 1.3393-4.2856 1.3393-4.2856s-0.80355-4.5537-0.80355-5.8926c0-1.3393 0.26797-2.4107 1.6071-3.7499 1.3392-1.3393 2.6785-2.9463 2.6785-2.9463l1.3392-3.2143c3e-3 -3e-3 -0.26447-1.2149-0.13586-2.4138z" fill="#a99699"/>
  <path id="Kulgam" d="m164.9 202.06c-0.85069-2.8896-3.4703-5.4225-5.0312-7.9671 0.0248-0.52494-0.14035-1.1528-0.10819-1.6778-1.8343-0.26535-1.666-1.4046-3.3224-1.8524-1.3628-0.36862-3.9396 0.39301-5.4974 0.31632-0.1468-2.6592-0.13504-5.4446-1e-3 -8.106 1.4111 0.0793 2.356-0.46285 2.491-1.785 0.58177 0.1276 1.4582-0.17822 2.0528-0.10944 0.0493-1.2514 0.0632-2.5671 0.10821-3.8109 5.0626-1.5 2.6217-3.5175 3.4553-7.8686-2.7996-0.15859-4.7476-0.83462-7.8019-0.41044l-0.42427-0.1403-1.5889 2.1675-1.6071 2.1427-0.26784 4.5537-2.4107 1.0714-2.1428-1.3393s-1.3392 0.80361-3.4821 0.80361c-2.1428 0-0.80353 2.9463-0.80353 4.5532v3.2142s-1.6071 1.3393-4.5537 1.6071c-2.9464 0.26797-1.0714 2.6786-1.0714 2.6786s-3.482 2.4107-4.5536 2.6785c-1.0714 0.26754-2.9464-0.53577-4.8212-1.875-1.875-1.3392-5.3571 0.26796-5.3571 0.26796v-2.6785c0-1.6072-2.9464-1.3393-2.9464-1.3393l-2.6785 1.3393-1.6071-2.9464h-1.6071c-1.0714 0-1.875 0-2.9464-0.80355s-1.0714-0.26797-2.6785 0.26754c-1.6071 0.53575-4.2856 1.0715-4.2856 1.0715l-5.0892-1.3393-2.9464 1.3393s-1.3393 3.2142-2.1428 4.5537c-0.80355 1.3392-0.26788 3.2142-0.26788 3.2142l-0.26788 6.964s-0.53571 3.4821 0.80355 5.0892c1.3392 1.6071 5.3571 3.7499 5.3571 3.7499l1.0714 1.8749 1.875 1.3393 3.4821 0.26798s0-2.1428 2.4107-2.1428 4.5536-0.80359 4.5536-0.80359 2.4107-1.875 3.4821-0.26797c1.0714 1.6071 2.9463 2.4107 2.9463 2.4107l3.2142 0.80356 1.6071 3.2142s3.2142 0.26796 4.5537-0.26753c1.3392-0.53572 7.232-0.80355 8.5714-1.6071 1.3393-0.80359 1.6071-1.8749 4.0178-1.6071 2.4107 0.26797 4.5536 1.3392 4.5536 1.3392l1.3393 1.6071 2.9464 0.26796c0.26788-1.0713 0.80354-2.9463 0.80354-2.9463s2.6785-0.26797 4.0178-0.26797 2.6785 0 4.5537 0.26797c1.875 0.26753 1.0714-1.6072 1.0714-1.6072s-0.53573-1.8749-1.875-2.6785c-1.3392-0.80355-1.3392-2.9463-1.3392-2.9463s0.80353-1.875 2.1428-2.6785c1.3392-0.80352 1.3392-1.0714 1.3392-2.6785s2.4107-0.26796 2.4107-0.26796v2.1428s-0.5357 1.8749 0.5357 2.6785 1.0714 1.875 1.875 2.9464c0.80356 1.0714 1.3393 1.6072 3.2142 1.875 0.285 0.0437 0.58926 0.11454 0.89891 0.20654 0.0493-2.6282 0.48321-5.6451-0.23037-8.0686z" fill="#b55555"/>
  <path d="m112.8 97.448c1.0714 1.3392 1.875 3.2142 1.875 3.2142l2.6785 0.53576 1.6071-2.6785c0.80356-1.3393 1.875-1.875 1.875-1.875l3.482-0.26797s2.1428-0.53567 2.6785-1.6071c0.53572-1.0714 1.6071-2.1428 1.6071-2.1428h2.9464s0.26788 0 1.0714-1.875c0.80358-1.8749 1.6071-2.6785 0.26789-2.9464-1.3393-0.26797-2.6785-1.0714-2.1428-2.4106 0.53572-1.3393 2.4107-4.5537 2.4107-4.5537l2.6785-0.53572 2.6785-0.53567v2.6784l4.5536 0.26797 3.7499 2.9464s1.3393 1.875 2.6785 2.1429c1.3393 0.26753 1.875 1.3392 2.4107 2.4106 0.53571 1.0714 2.1428 3.4821 2.1428 3.4821l2.9464 0.26797 2.1428 2.9464s2.9464-0.53567 4.0178-0.8036c1.0714-0.26753 2.4107-0.53567 2.9464-1.8749 0.53572-1.3392 0.80356-3.482 0.80356-3.482l3.2142 2.4107s2.9464-2.1428 4.2856 0c1.3393 2.1428 1.875 2.1428 2.9464 1.6071 1.0714-0.53567 2.4107-1.3392 3.2142-0.26797 0.80354 1.0714 2.4107 0.26797 2.9464-0.80351 0.5357-1.0714 2.0035-2.2832 2.0035-2.2832-1.2-1.3393 0.94285-2.4107 0.94285-2.4107l-1.3393-1.4667s-1.3393-1.2118-2.6785-2.2832c-1.3393-1.0714-0.80355-1.1989-0.80355-2.5382 0-1.3392 0.53572-2.4106 1.875-3.2142 1.3392-0.80355 0.5357-2.9464 0-4.5537-0.53572-1.6071 0.39644-2.1429 1.6071-2.8189 1.2-0.66312-0.1393-3.6095-0.1393-3.6095l0.1071-0.35337c-0.87855-0.32243-1.725-0.7178-2.4535-1.1154-0.61071-0.34247-1.1679-0.96425-1.7571-1.35-2.7439-1.8203-5.5715-3.5366-8.3461-5.3022l-0.42857-0.92032 1.0071-2.3035-0.10819-0.69428c-1.7571-2.1653-5.3676-0.56892-6.7497-0.91288-0.96428-0.24662-2.2928-1.0607-3.2142-1.4903-2.4-1.1132-5.2072-0.53563-7.6607-0.11678-0.13929 0.02179-0.5239 0.3098-0.65248 0.32243-0.72966 0.08366-1.6617-0.11895-2.3678 0.03051-1.1035 0.23703-2.3678 0.83466-3.4392 1.1989-0.0975 0.04401-0.32248 0.32243-0.42858 0.3769-0.67501 0.33332-2.9356 0.50469-3.6428 0.33332-0.0856-0.02614-1.6071-0.66539-1.7239-0.71785-0.11783-0.06623-0.58926-0.56892-0.66428-0.60216-1.875-0.66098-4.0285-1.2407-5.8177-2.0763-0.32248-0.15119-0.43928-0.34291-0.71892-0.54648-1.4357-1.0939-2.475-1.6821-4.2738-1.8438-0.53572-0.0549-0.96427-0.10675-1.4903-0.01308-6.4285 1.2225-5.1 0.8036-11.753 0.16078-0.67502-0.06536-1.7678 0.22396-2.3035-0.34291l-0.37502 0.11678c-1.8963-0.26753-8.8388-1.3499-10.457-2.2285-1.9821-1.1025-2.701-4.1688-4.5214-5.1-0.38569-0.20217-0.90106-0.33332-1.3178-0.49389-0.29998-0.10675-1.2857-0.95248-2.2714-1.8311l-0.15961 0.4918-1.3392 5.6251v5.6251c0 2.4106-0.80355 4.0178-1.6071 5.3571-0.80355 1.3392-2.9464 4.8212-2.9464 4.8212v5.8926c0 1.3392-0.26788 2.9464-0.26788 2.9464s-1.5267 1.5245-2.6914 2.5531c1.8878 0.33986 4.5471 0.79497 4.6983 1.3339 0.26251 0.93745 0.50032 2.4835 0.01487 3.3813-0.37816 0.69963-1.4989 0.83249-1.726 1.6114-0.47035 1.6092 1.7968 2.3142 2.07 3.72 0.41571 2.1427-1.4678 4.1388-0.9546 6.3993 0.46822 2.0582 2.0389 4.5619 4.352 4.7035 2.6003 0.1586 5.3519-1.5653 8.0346-1.0263 0.64926 0.13028 1.1925 0.36339 1.6703 0.66316 0.67179 0.11764 2.9132 0.50029 3.8185 0.50029 1.0692-9.57e-4 1.605 0.80255 2.6764 2.1418z" fill="#969300"/>
  <path d="m198.78 110.17c-0.67502-0.93105-0.80355-1.3393-0.94285-3.2143-0.12857-1.8749-2.9463-2.4107-3.7499-2.4107-0.80355 0-1.875 0.14031-3.482 0.14031-1.6071 0-2.1428-0.94386-2.1428-1.6071v-3.6224s-0.26789-0.80355-1.0714-1.8749c-0.80355-1.0714-0.39646-2.1428-0.39646-3.2143 0-1.0714-0.26783-1.6071-1.4786-2.9463 0 0-1.4678 1.2118-2.0035 2.2832-0.53571 1.0714-2.1428 1.8749-2.9464 0.80355-0.80355-1.0714-2.1428-0.26753-3.2142 0.26797-1.0714 0.53567-1.6071 0.53567-2.9463-1.6071-1.3392-2.1428-4.2856 0-4.2856 0l-3.2142-2.4107s-0.26784 2.1428-0.80355 3.4821c-0.5357 1.3392-1.875 1.6071-2.9463 1.8749-1.0714 0.26797-4.0178 0.8036-4.0178 0.8036l-2.1428-2.9464-2.9464-0.26797s-1.6071-2.4107-2.1428-3.4821-1.0714-2.1428-2.4107-2.4107c-1.3393-0.26797-2.6785-2.1428-2.6785-2.1428l-3.75-2.9464-4.5536-0.26797v-2.6785l-2.6785 0.53567-2.6785 0.53572s-1.875 3.2142-2.4107 4.5537c-0.53573 1.3392 0.80353 2.1428 2.1428 2.4107 1.3392 0.26753 0.53569 1.0714-0.26788 2.9464-0.80354 1.8749-1.0714 1.8749-1.0714 1.8749h-2.9463s-1.0714 1.0714-1.6071 2.1428c-0.53572 1.0714-2.6785 1.6071-2.6785 1.6071l-3.482 0.26797s-1.0714 0.53572-1.875 1.875l-1.6071 2.6785-2.6785-0.53576s-0.80355-1.8749-1.875-3.2141c-1.0714-1.3393-1.6071-2.1429-2.6785-2.1429s-4.0178-0.53568-4.0178-0.53568l1.875 4.8212s-0.53571 2.6785-1.3392 4.2856c-0.80355 1.6071-0.53572 2.9464-0.53572 2.9464l2.4107 1.6071s-2.6785 3.4821-4.0178 4.0178c-0.59035 0.23703-0.7296 0.88926-0.68677 1.5417l-0.60961 1.6382c0.32148 0.525 0.64285 1.1368 1.0061 1.8975 0.29248 0.61285 0.64712 1.1529 1.0189 1.6756 0.75214-0.55065 1.5-1.0296 2.1792-1.4185 5.0613-2.9132 9.3125-2.2575 13.177 2.0442 2.0421 0.32897 5.2072-0.95997 5.6334-3.1156-4.8665-3.4821 3.871-4.982 6.1017-5.0099 3.6503-0.0462 3.9364 1.6992 6.9148 2.7899 2.7621 1.0125 6.2368-0.88068 9.2236-0.7842 1.2599 0.0436 3.2999-0.0479 4.3606 0.75317 0.99427 0.75105 0.75 2.5274 1.6071 3.1285 1.5064 1.0543 3.6331-0.0348 5.2125 0.29847-0.16719-1.0907-0.0985-2.4942 1.3778-2.4942h5.0891s1.3393-1.6072 2.6785-1.875c1.3393-0.26796 2.9464-2.9463 2.9464-2.9463s1.6071-2.1429 4.0178-0.80355c2.4107 1.3393 6.964 2.1428 8.0354 2.4107 1.0714 0.26752 3.4821 1.3392 5.3571 0.26752 1.875-1.0714 2.4107-1.3392 3.2142-0.26752 0.80353 1.0714 2.4107 2.9464 2.4107 2.9464s1.6071 1.3393 2.9463 0.53567c1.3393-0.80355 2.8071-2.551 2.8071-2.551s-1.0714-2.0014-1.7357-2.9453z"/>
 </g>
 <path d="m135.6 233.72 2.3418-5.2039 3.6427-3.1224v-1.5612l2.602-2.0816-0.52038-3.6427 0.78059-2.3418v-3.9029l2.3418 3.6427 1.8214 1.8214h2.3418l0.78059 0.78058 1.8214-1.5612h1.0408l1.5612-1.8214 2.8622-0.78059 1.0408-3.3825 2.0816-0.5204 0.26019-1.8214 7.2855-4.1631 0.26021-5.4641 2.0816-6.5049-1.0408-3.1224-1.5612-1.5612-1.301-1.5612-7.0253-4.4233 0.52039-3.1223 1.8214-2.8622-2.602-2.0816 2.8622-1.8214-1.0408-2.8622 0.78059-1.5612-1.0408-2.3418 0.78059-1.5612-2.602-3.3825 3.9029-0.78059-0.78059-1.5612 2.3418-1.8214-2.0816-0.7806v-0.78057l-2.0816-1.0408 0.2602-1.0408-4.4233-4.9437-2.0816-9.8874 1.8214-1.8214-1.301-3.6427-2.8622-2.8622-1.0408-2.0816-1.0408-1.8214-0.7806-3.6427-4.1631-5.4641-5.4641-3.9029-0.52039-1.301v-2.3418l-7.2855-4.6835-2.3418-0.78059" fill="none" stroke="#000" stroke-width=".5px"/>
 <g fill-rule="evenodd" stroke-width=".22931">
  <circle cx="157.59" cy="134.29" r="1.8296"/>
  <circle cx="135.64" cy="233.93" r="1.8296"/>
 </g>
 <g font-family="sans-serif" font-size="3.5278px" letter-spacing="0px" stroke-width=".26458" word-spacing="0px">
  <text x="161.81415" y="133.44167" style="line-height:1.25" xml:space="preserve"><tspan x="161.81415" y="133.44167" stroke-width=".26458">Anantnag</tspan></text>
  <text x="78.854706" y="94.637924" style="line-height:1.25" xml:space="preserve"><tspan x="78.854706" y="94.637924" stroke-width=".26458">Srinagar</tspan></text>
  <text x="139.85934" y="235.05296" style="line-height:1.25" xml:space="preserve"><tspan x="139.85934" y="235.05296" stroke-width=".26458">Jammu</tspan></text>
 </g>
 <ellipse cx="118.41" cy="75.528" rx="1.8945" ry="1.9703" stroke-width=".24215"/>
 <text x="116.37997" y="24.646479" fill="#000000" font-family="sans-serif" font-size="3.5278px" letter-spacing="0px" stroke-width=".26458" word-spacing="0px" style="line-height:1.25" xml:space="preserve"><tspan x="116.37997" y="24.646479" stroke-width=".26458">Gurez valley</tspan></text>
 <text x="121.19057" y="75.528015" fill="#000000" font-family="sans-serif" font-size="3.5278px" letter-spacing="0px" stroke-width=".26458" word-spacing="0px" style="line-height:1.25" xml:space="preserve"><tspan x="121.19057" y="75.528015" stroke-width=".26458">Ganderbal</tspan></text>
 <ellipse cx="75.86" cy="79.784" rx="1.8945" ry="1.9703" stroke-width=".24215"/>
 <text x="79.930275" y="80.523666" fill="#000000" font-family="sans-serif" font-size="3.5278px" letter-spacing="0px" stroke-width=".26458" word-spacing="0px" style="line-height:1.25" xml:space="preserve"><tspan x="79.930275" y="80.523666" stroke-width=".26458">Baramulla</tspan></text>
 <ellipse cx="64.018" cy="63.131" rx="1.8945" ry="1.9703" stroke-width=".24215"/>
 <text x="45.700874" y="59.800999" fill="#000000" font-family="sans-serif" font-size="3.5278px" letter-spacing="0px" stroke-width=".26458" word-spacing="0px" style="line-height:1.25" xml:space="preserve"><tspan x="45.700874" y="59.800999" stroke-width=".26458">Kupwara</tspan></text>
 <ellipse cx="113.05" cy="104.39" rx="1.8945" ry="1.9703" stroke-width=".24215"/>
 <text x="105.64858" y="109.01733" fill="#000000" font-family="sans-serif" font-size="3.5278px" letter-spacing="0px" stroke-width=".26458" word-spacing="0px" style="line-height:1.25" xml:space="preserve"><tspan x="105.64858" y="109.01733" stroke-width=".26458">Badgam</tspan></text>
 <ellipse cx="133.4" cy="140.1" rx="1.8945" ry="1.9703" stroke-width=".24215"/>
 <text x="122.30073" y="136.21584" fill="#000000" font-family="sans-serif" font-size="3.5278px" letter-spacing="0px" stroke-width=".26458" word-spacing="0px" style="line-height:1.25" xml:space="preserve"><tspan x="122.30073" y="136.21584" stroke-width=".26458">Shopian</tspan></text>
 <ellipse cx="127.3" cy="121.41" rx="1.8945" ry="1.9703" stroke-width=".24215"/>
 <text x="128.59154" y="118.82359" fill="#000000" font-family="sans-serif" font-size="3.5278px" letter-spacing="0px" stroke-width=".26458" word-spacing="0px" style="line-height:1.25" xml:space="preserve"><tspan x="128.59154" y="118.82359" stroke-width=".26458">Pulwama</tspan></text>
 <text x="106.01863" y="52.770096" fill="#000000" font-family="sans-serif" font-size="3.5278px" letter-spacing="0px" stroke-width=".26458" word-spacing="0px" style="line-height:1.25" xml:space="preserve"><tspan x="106.01863" y="52.770096" stroke-width=".26458">Bandipora</tspan></text>
 <ellipse cx="142.84" cy="150.83" rx="1.8945" ry="1.9703" stroke-width=".24215"/>
 <text x="135.06737" y="157.49356" fill="#000000" font-family="sans-serif" font-size="3.5278px" letter-spacing="0px" stroke-width=".26458" word-spacing="0px" style="line-height:1.25" xml:space="preserve"><tspan x="135.06737" y="157.49356" stroke-width=".26458">Kulgam</tspan></text>
 <path d="m120.85 99.297-1.5634 0.11167-1.2284-1.8985-0.67004-0.55837-1.0051-0.67003-1.6751-0.44671-1.6751-2.5685h-0.33502l-0.89339-0.11167-1.7868-0.8934-0.44669-2.7918-2.5685-3.2386-0.67005-0.4467-1.2284-3.7969-1.4518-1.3401-0.22334-0.44669 0.44669-1.2284v-0.22335l-0.33502-0.55838-0.11167-1.1167 0.78171-1.7868 1.0051-0.33502 0.67005-1.4518 0.78171-0.78171-0.22334-1.2284-0.67005-0.55837-0.33502-0.89339-1.1167-0.67004-0.22335-0.8934-0.22335-0.11167 0.4467-0.33502 0.67004 0.44669 0.22335-0.44669 0.89339-0.11167 0.33503-1.3401 0.89339-0.22335 0.11167-1.0051-0.67004-0.44669-0.89339-1.2284h-0.8934l0.22335-1.2284-0.67004-0.33503 0.67004-1.2284-0.11167-0.44669-0.67005-0.78173 1.2284-0.11167 0.78172-0.78172-0.11168-1.5634-0.78172-0.8934-1.1167-0.78171-0.44669-2.0101-0.11168-0.22335-1.3401 0.22335 0.33503-1.1167-1.1167-1.3401 1.2284-1.4518 0.33502-0.89339v-0.67004l1.0051-1.4518-0.11168-0.33502-0.67004-0.78173 0.67004-0.89339 0.78172-0.33502-0.78172-0.78172-1.2284 1.2284-1.1167-0.11167 0.67004-0.67004 0.55837-1.0051-1.0051 0.11168-0.55837 1.0051-0.78172-0.22336-0.55837-0.44669-0.11167-0.55837 0.89339 0.55837 0.78172-0.8934 0.11167-1.3401 1.2284-1.5634-1.3401-0.78172 0.22334-0.89339 0.33503-1.0051-0.4467-0.67005 0.22335-1.3401-0.78172-0.78172-0.11167-1.1167 0.89339-1.0051 1.2284-0.55837-1.3401-0.67005 1.6751-0.33502 0.33503-0.78172 0.67004-0.33502-0.22335-1.4518-0.33502-0.11167 0.89339-1.3401 1.2284-1.8985 0.55837-0.8934 1.2284-0.89339v-0.67005l1.4518-1.0051v-0.22335l0.22334-0.55837 0.8934 0.22335 1.2284-0.33503 0.22335-0.67004h1.6751" fill="none" stroke="#000" stroke-width=".5px"/>
 <g stroke-width=".24215">
  <ellipse cx="114.9" cy="19.466" rx="1.8945" ry="1.9703"/>
  <ellipse cx="102.32" cy="51.475" rx="1.8945" ry="1.9703"/>
  <ellipse cx="121.01" cy="98.841" rx="1.8945" ry="1.9703"/>
 </g>
 <path d="m120.85 99.297 2.0027 1.0244 2.7754 0.55507 2.4053 0.92512 2.6199 1.0397" fill="none" stroke="#000" stroke-width=".5px"/>
 <path d="m120.85 99.297-0.83501-1.3917 0.13917-1.67 0.4175-0.27834-0.13917-3.4792 0.83501-1.3917 0.4175-0.13917v-0.55667l0.83501-0.13917-0.13917-10.438-0.35923-0.93578-1.2744-0.98035-0.39214-0.19607-0.49017-0.09803-0.2941-0.19607-0.68624-0.68624-0.098-0.39214" fill="none" stroke="#000" stroke-width=".5px"/>
 <ellipse cx="201.86" cy="87.555" rx="1.8945" ry="1.9703" fill="#f60" stroke-width=".24215"/>
 <text x="184.09868" y="93.290306" fill="#000000" font-family="sans-serif" font-size="3.5278px" letter-spacing="0px" stroke-width=".26458" word-spacing="0px" style="line-height:1.25" xml:space="preserve"><tspan x="184.09868" y="93.290306" font-size="2.1167px" stroke-width=".26458">Amarnath caves</tspan></text>
 <g transform="translate(-.0019 -.00353)" fill="#85c5e3">
  <path d="m125.63 100.88 0.14241-0.15258 0.1119-0.0407 0.12206-0.0712 0.0916-0.0712 0.14241-0.0509 0.16275-0.10172 0.29499-0.23396 0.79341-0.651 0.28482-0.14241h0.17291l0.12208 0.08138 0.43738 0.34584 0.6917 0.77306 0.10178 0.0305 0.94599-0.26447 0.39669-0.67134-0.0106-0.0712-0.0407-0.08138-0.0407-0.03052-0.17292-0.01022-0.0711-0.03052-0.10178-0.04069-0.0106-0.03052 0.0915-0.29499 0.0203-0.05085 0.0878-0.03694 0.0616 0.06162v-0.08473l0.10785 0.06163 0.37743-0.08473 0.0847-0.04621 0.45447-0.07703 0.12325-0.05392 0.0539-0.06162 0.0154-0.09244-0.0231-0.12325-0.0309-0.13095-0.0231-0.13865v-0.08473l0.0385-0.08473 0.0462-0.04621 0.0693-0.03852 0.0924-0.02311 0.18488-0.04622 0.10017-0.08473 0.10018-0.19258-9e-3 -0.46218v-0.17717l-0.0309-0.10784-0.0231-0.06162-0.0847-0.19258-0.0463-0.12325-9e-3 -0.08473v-0.12325l0.0847-0.11554 0.0539-0.09244 0.0463-0.07703 0.19257-0.67016 0.0309-0.05392 0.0924-0.12325 0.11555-0.15406 0.10785-0.18487 0.0154-0.13095-0.0154-0.13095-0.0616-0.16947-0.16177-0.46218s-0.20028-0.67787-0.21567-0.70868c-0.0154-0.03081-0.0771-0.29271-0.0771-0.29271l-0.0385-0.08473-0.11555-0.20028-0.14635-0.19258-0.20028-0.16947-0.23879-0.12325-0.16176-0.06933-0.2234-0.10784-0.14636-0.08473-0.13865-0.10784-0.0693-0.07703-0.0847-0.12325-0.17717-0.30812-0.39286-0.61624-0.11554-0.23109-0.37745-0.30812-0.34664-0.30042-0.0771-0.02311-0.10017-0.02311h-0.11555l-0.2542 0.06162-0.2234 0.05392-0.19257 0.07703-0.0693-0.01541 0.0385-0.30812 0.0309-0.13866 0.0309-0.04622 0.0693-0.02311 0.11555-0.04621 0.076-0.03806 0.0381-0.04902 0.0708-0.10349 0.0981-0.17974 0.0218-0.02178-5e-3 -0.04902 0.0163-0.03813 0.0163-0.07626 0.0163-0.03813-0.0109-0.08171-0.0273 0.08715-0.0218 0.0817-0.0163 0.03813-0.0218 0.0708-0.0436 0.10349-0.0545 0.0926-0.0382 0.06535-0.0491 0.04357-0.20152 0.02723-0.13072 0.01634-0.10895 0.0054v0.03268l-0.0762 0.0054-0.0545-0.0109-0.049-0.03812-0.0708-0.02179-0.0382-0.0109h-0.0273l-0.0109 0.01634v0.04357l0.0327 0.01634 0.0382 0.04357h-0.10893l-0.13617 0.45753-0.0599 0.10349-0.0708 0.12528-0.11983 0.21787-0.0163 0.02179v0.04902l-0.0545 0.40851-0.10894 0.10349-0.0109 0.53923 0.0217 0.05447 0.0163 0.11983 0.0708 0.22876 0.0273 0.11438 0.0327 0.14162 5e-3 0.05993 0.13072 0.16885 0.0327 0.10894 0.0491 0.23421 0.0272 0.14706 0.0654 0.02179 0.0273 0.19608 0.0109 0.09804 0.0163 0.15251 5e-3 0.04902 0.13617 0.20153v0.17975l-0.14706 0.256-0.23421 0.0054-0.0217 0.10349 0.0654 0.18519 0.0109 0.07081 0.0381 0.05447 0.25601 0.20698-0.0217 0.0926 0.0437 0.04357-5e-3 0.05448-0.0599-0.0054-0.0654 0.04357-0.13617-0.10894-0.0381 0.04902-0.15251 0.28868-0.15251 0.02723-0.0545-0.02723-0.0381-0.01634-0.0382-0.03268-0.0926-0.20153 0.0871-0.38672-0.0762-0.13072-0.0218-0.03268 0.0273-0.21787-0.0382-0.05992-0.0109-0.02723 0.0273-0.04358v-0.04902l-0.13617-0.08715-0.0437 0.01634 0.0816 0.22332-0.0871 0.04357-0.0437 0.03268-0.0163 0.04902v0.0109l0.049 0.05991 0.0272 0.03812 0.0327 0.0054-0.0273 0.05447 0.0163 0.16885 0.0217 0.02179v0.06536l-0.0217 0.01634-0.0382 0.05447-0.0599 0.10893v0.02723l0.0163 0.02723-0.0273 0.12528v0.01634l-0.0218 0.0109h-0.0599l-0.0762-0.06535v0.08715l0.0109 0.05447 0.0163 0.06535 0.0163 0.05993 0.0163 0.07081 0.20152 0.07626 0.0654 0.04902 0.0163 0.05992v0.05992l-0.0218 0.10894 0.0981 0.15251-0.0435 0.0926-0.0163 0.04357-0.0109 0.07626 0.0109 0.08715 1.0076 0.0054 0.0599-0.06536 0.0762-0.02723 0.22876-0.49566 0.0708 0.0054 0.0599 0.01634 0.0599 0.03812h0.10347l0.0109-0.03812 0.0926 0.01634 0.15796-0.02723 0.13072-0.05992v-0.05992l0.0872-0.03268 0.0654-0.03268 0.18518-0.20698h-0.11436l5e-3 -0.06536 0.049-0.03813-5e-3 -0.02179h-0.0381l-0.0545-0.03813-0.049-0.01634v-0.03812l0.0218-0.04902-0.0272-0.04357h-0.0382l-0.11984-0.11438-0.0762 0.04902-0.17974-0.15251-0.0545-0.01634-0.0545-0.02723-0.0654-0.02723-0.0545-0.0109v-0.10893l0.0981-0.04357 0.4902 0.16885 0.0599 0.06537 0.0273 0.11438 0.27234 0.15796h0.0327l0.0109-0.13617 0.13616-0.0054-0.0109-0.20698 0.47386-0.07081v0.15796l0.11439 0.10349-5e-3 0.30502-0.0272 0.04902-0.0217 0.03812-0.23421 0.0054-0.0599-0.08715-0.0382-0.07081-0.0436-0.01634-0.0436 0.01634-0.0981 0.16885-0.0437 0.05447-0.15251 0.22876 0.0816 0.19608-0.21241 0.23421 0.0708 0.13617-5e-3 0.02723-0.0654 0.04902-0.0816-0.07626-0.0762 0.03813-5e-3 0.07081-0.0163 0.02179-0.0163 0.05993-0.0163 0.0054-0.0599-0.12528-0.0708-0.0054-0.13073-0.20153-0.0599 0.01634v0.13617l-0.0981 0.05992-0.0545 0.03813-0.0163 0.03812-5e-3 0.03813 5e-3 0.03812 0.0599 0.02179 0.10348-0.01634 0.13617 0.07081 0.0109 0.03812-0.0217 0.02723h-0.0654l0.0217 0.03813 0.0816 0.06536 0.0217 0.05992-0.0273 0.02178-0.0381 0.0109-0.0437-0.03268-0.049-0.0054-0.0436 0.04903h-0.0599l-0.0654-0.02179h-0.0437l0.0545 0.13617-0.0218 0.04902-0.11437 0.15795-0.0762-0.0109h-0.0327l-0.0437 0.02723-0.0436 0.02723h-0.0217l-0.0163-0.05991-0.0109-0.06536-0.0109-0.07626-0.0327-0.0054-0.0163-0.03268-0.11982 0.05993v0.14706l-0.0654-0.02723-0.0218 0.01634-0.0271-0.03812-0.0599 0.06535-0.049-0.04358-0.0926 0.07081-0.16339-0.20153-0.19608 0.0054-0.0545 0.02723-5e-3 0.13617 0.19608 0.1743-0.0109 0.14162-0.0762 0.04902 5e-3 0.04357 0.0708 0.11983-0.0163 0.02723-0.0926 0.05992 0.0926 0.05447h0.13616l0.0382 0.0109 0.14705 0.11983-0.0273 0.04903v0.05447l-0.0218 0.04357-0.0762 0.02723-0.0545 0.02178-0.0218 0.01634-5e-3 0.05447v0.01634l0.0109 0.04902 0.0599 0.03813 0.0436-0.02179 0.1634 0.08715 0.0817 0.03268 0.5719-0.02723 0.0599 0.02178 0.13617 0.10894 0.10894 0.09804 0.11438 0.06537 0.12528 0.03268 0.0926 0.05447h0.14161l0.0273-0.04902 0.12528-0.5937v-0.11983l-0.0218-0.05993-0.0109-0.10349 0.0327-0.05447 0.0327-0.01634 0.0272-0.14162 0.0381-0.09805 0.049-0.22332v-0.23402l0.0436-0.1743 0.049-0.20698 0.29412-1.1329 0.0981-0.08715h0.0272l0.0109 0.05448-0.256 1.1002-0.0545 0.22877-0.29412 1.6068-0.0382 0.22876-0.0654 0.23421-0.098 0.26689-0.38673 0.0109-0.21241-0.0054-0.0545 0.0054-0.13072 0.07081-0.20154-0.0054-0.72441-0.07081-0.0217 0.0054 0.12528 0.20153-0.0382 0.03813-0.0926 0.08715-0.14706 0.07081-0.0437 0.0054-0.0926 0.02723-0.0816 0.05447-0.0545-0.02723-0.0762-0.02179-0.0654-0.0054-0.0871 0.03268-0.0708 0.04903-0.0217 0.07625-0.0762 0.04902-0.0872 0.0109-0.10348 0.04903-0.15796 0.02723-0.16342 0.01634-0.37037 0.04902-0.0109 0.02723-0.0163 0.07625-0.0654 0.05992-0.0163 0.13617 5e-3 0.29412-0.0163 5e-3 -0.0109 0.13072-0.0109 0.0218-5e-3 0.1743-0.0327 0.0381v0.0381l-0.1743 0.15251z"/>
  <path d="m119.8 93.344 0.0866 0.0289 0.54856-0.89502-0.0289-0.23096-0.11548-0.17323-0.44751-0.51969-0.0866-0.18766 0.46194-1.2415 0.34646-1.689 0.38976-0.93831 0.25984-1.7034-0.23097-0.0866-1.1116 0.59186-0.2021 0.47637 0.0434 0.82284-0.34645 0.0144-0.14436 0.89501-0.46194 0.17323-0.17323-0.15879-0.33202 0.14436-0.49081 0.44751-0.33202 0.11548-0.8517-0.47637-1.227 0.63516-1.458 0.28872 0.0144 1.6457 2.9304 0.10105 0.2021 0.24541-0.0288 0.30315 0.72178 0.21652 0.14435 0.21654 0.1588 0.76509 0.17322 0.0144 0.38495-0.46756 0.18527-0.0706 0.26465-0.0176h0.11468l0.37052 0.14998 0.22936 0.22054z"/>
  <path d="m97.36 52.761 0.23798-0.03966 0.119 0.11899h0.47597l-0.19831-0.27765-0.119-0.31732h-0.31732l-0.99162-0.11899-0.15865-0.15866-0.59498-0.07932-0.119 0.119-0.27764 0.15866-1.2296 1.7056-0.15867 0.35698-0.95196-0.03966-1.2296 1.4279v0.63464l0.19832 0.07932-0.0396 0.87263 0.15866 0.15865-0.0396 1.5469 0.11899 0.19832v0.47598l0.19833 0.07932-0.39666 0.59497-0.5553 0.79329-0.19832 0.51564-0.31732 0.51565-0.39665 0.71396-0.11899 1.2296 0.27766 0.03965v0.119l-0.0793 0.23798-0.31731-0.03965h-0.11899l-0.35699 0.0793-0.15866 0.63464-0.19832 0.51564-0.119 0.31732-0.119 0.63464-0.35698 0.23798-0.19831-0.03965-0.83297 0.87262 0.51564 0.35699 0.59498 0.0793h0.91228l0.0396-0.15866 0.55533-0.03965 0.55529 0.19832 0.35698 0.23799 0.19833 0.15866h1.8642l0.59497-0.47598 0.0397-0.27765 0.95195-1.0313 1.0709-2.0626 0.11899-1.071-0.0396-2.9749 0.31732-0.03965 0.11899 0.0793h1.7452l0.12791-0.15136h0.66084l-0.0301-0.15019-0.12014-0.03002-0.0301-0.81103h-0.15019l0.03-0.45057h0.12015l0.15019 0.15019-0.0301-0.48061-0.87111-0.69088 0.06-0.57073 0.15019 0.24031h0.75097v0.18023l0.63079 0.03006-0.06-0.15019 0.36046-0.36046 0.0901 0.09012 0.54069 2.0426 1.9224 0.84107h0.51065l1.2316-0.69088-0.36046-0.33042-0.15018-0.03003-0.24032-0.06004h-0.18021l-0.0601 0.15019-0.57072-0.03003-0.0301-0.03002 0.45057-0.21027 0.57073-0.12015 0.57072-0.21027 0.51065-0.30039h0.27035l0.21026-0.72091 0.21027-0.78099 0.0301-0.33042-0.45058-0.69088-0.0301-0.09012-1.2316 0.03001-0.0901-0.18023h-0.27034l0.0301 0.57073 0.12015 0.03001 0.0301 0.781h-0.51065v-0.3905l-0.12016-0.12015-0.0301-0.27034-0.0901 0.06007v-0.21027l-0.12014-0.09012-0.51066-0.09012-0.06-0.18023-0.36046 0.03001-0.12016-0.03001-0.0901-0.24031 0.20119-0.06123-0.085-0.38252h0.21252v-0.27627l-0.12751-0.10625-0.10628-0.08501h-0.19127l-0.085-0.14876-0.0638-0.02125h-0.0425v0.31877h-0.17002l-0.17-0.10625-0.0425-0.19126h-0.53128v0.14876h-0.2125l-0.36128 0.42502-0.12751-0.02125-0.21251 0.21251-0.23376 0.25501-0.0638 0.08501-0.34001 0.02126v-0.17001l-0.19127-0.02126-0.10628-0.14876-0.23377 0.08501-0.17001-0.23376 0.0212-0.85005-0.19126 0.17001-0.19126 0.08501-0.21252 0.08501h-0.10628l-0.0425 0.17001-0.21251 0.02125 0.0638-0.42502-0.14876-0.02125-0.085-0.21251-0.14876-0.36127-0.23376-0.40377-0.10629-0.14876 0.10629-0.08501 0.34002-0.14876z"/>
 </g>
 <g font-family="sans-serif" font-size="3.5278px" letter-spacing="0px" stroke-width=".26458" word-spacing="0px">
  <text x="114.31927" y="90.922592" style="line-height:1.25" xml:space="preserve"><tspan x="114.31927" y="90.922592" font-size="1.0583px" stroke-width=".26458">Anchar</tspan></text>
 </g>
 <g fill="#000000" font-family="sans-serif" font-size="3.5278px" letter-spacing="0px" stroke-width=".26458" word-spacing="0px">
  <text transform="rotate(-71.774)" x="-48.25071" y="141.9249" style="line-height:1.25" xml:space="preserve"><tspan x="-48.25071" y="141.9249" font-size="1.0583px" stroke-width=".26458">Lake</tspan></text>
  <text x="128.05879" y="91.822876" style="line-height:1.25" xml:space="preserve"><tspan x="128.05879" y="91.822876" font-size="1.0583px" stroke-width=".26458">D</tspan></text>
  <text x="129.00961" y="91.806168" style="line-height:1.25" xml:space="preserve"><tspan x="129.00961" y="91.806168" font-size="1.0583px" stroke-width=".26458">a</tspan></text>
  <text x="131.07977" y="94.559303" style="line-height:1.25" xml:space="preserve"><tspan x="131.07977" y="94.559303" font-size="1.0583px" stroke-width=".26458">L</tspan></text>
  <text x="130.81624" y="96.035072" style="line-height:1.25" xml:space="preserve"><tspan x="130.81624" y="96.035072" font-size="1.0583px" stroke-width=".26458">a</tspan></text>
  <text x="130.39459" y="97.721657" style="line-height:1.25" xml:space="preserve"><tspan x="130.39459" y="97.721657" font-size="1.0583px" stroke-width=".26458">k</tspan></text>
  <text x="129.79079" y="98.936111" style="line-height:1.25" xml:space="preserve"><tspan x="129.79079" y="98.936111" font-size="1.0583px" stroke-width=".26458">e</tspan></text>
  <text x="129.89999" y="91.950714" style="line-height:1.25" xml:space="preserve"><tspan x="129.89999" y="91.950714" font-size="1.0583px" stroke-width=".26458">l</tspan></text>
 </g>
 <text transform="rotate(-67.375)" x="-24.197357" y="110.45049" font-size="12px" style="line-height:1.25" xml:space="preserve"><tspan x="-24.197357" y="110.45049" font-size="1.4111px" stroke-width=".26458">Wular Lake</tspan></text>
</svg>
