<svg width="206.83mm" height="167.99mm" version="1.1" viewBox="0 0 206.83444 167.98828" xmlns="http://www.w3.org/2000/svg">
 <g fill="none">
  <g transform="translate(-1.7853 -72.247)" stroke="#fff" stroke-width=".5">
   <path id="Kathua" d="m144.06 207.19-0.11518 2.0191-0.061 1.0099-2.8668 1.1861c-0.48799 0.93604-1.0573 1.8984-1.4775 2.8608-0.44733 1.0234-0.68522 2.1817-1.159 3.1849-0.0413 0.0888-1.4782 2.3586-1.4843 2.3586-0.79978 0.69743-5.8696 3.3197-7.1234 3.904l-0.41345 2.2028-1.9994 2.1885c-1.4504 0.25166-3.4966 0.45412-4.8663 0.84044-0.0544 0.0136-3.4093 1.4776-3.4837 1.5182-0.60386 0.34572-1.2607 1.0709-1.8232 1.5182-0.65746 0.51511-1.3352 1.0085-1.9994 1.5108l0.0882 5.0567-1.9181 1.6877-1.9988-0.84722c0.46089-1.7419 0.91499-3.5515 1.5656-5.2332-0.86078-0.28468-2.1824-0.86686-3.0432-1.0031-0.69131-0.11516-1.098-0.0738-1.7954-0.11516-2.9346-0.18303-5.6662-0.27787-8.6077 0.0752-0.54222-0.3748-1.2539-0.75296-1.6673-1.1529-0.22363-0.21085-0.38632-0.66419-0.6303-0.83364-0.58967-0.4114-1.4172-0.64999-1.9452-1.1041-0.43447-0.36668-1.0438-1.4558-1.5724-1.6531-0.56931-0.21666-2.3112-0.0193-2.5958-0.52802-0.02038-0.36664-0.18302-1.4097-0.50154-1.6612l-0.64388-0.0807c-1.2539 0.84719-2.4732 1.5446-3.7202 0.3653-0.27789-0.9692-0.34636-1.321-0.49476-1.6402-0.12815-0.29144-0.33141-0.54833-0.81333-1.1997l-0.21621-0.0888c-0.18368-0.33889-0.41344-0.6845-0.67777-1.0085 0.31178-0.37347 0.92855-1.1462 1.1786-1.6484 0.33888-0.67773 1.0166-2.5416 1.0166-2.5416l3.2194-1.3555 1.3555-2.3722s0.3389-1.0167 1.1861-1.1861c0.8472-0.16952 2.2027-0.16952 2.2027-0.16952l1.6944-1.1861s1.525 0.67779 2.2028 0.67779c0.67774 0 1.6944 0.16952 2.3722 0.16952 0.67778 0 1.1861-0.50835 1.3555-1.3555 0.16944-0.84721-0.16946-1.525-0.16946-1.525s-1.525-1.3555-2.3722-2.0333c0 0 0.16944-0.67777 0.50833-1.3556 0.3389-0.67775 0-1.1861 1.525-1.0166 1.525 0.16953 2.3722 0.33888 2.3722-0.50831 0-0.84723 0.16946-1.6944 0.16946-1.6944l1.3555 0.16925 1.0166 1.6944h2.5416c1.1861 0 3.5584 0 3.5584-1.6944s-0.16947-3.5584-0.16947-4.2359c0-0.67781 0.16947-1.8639 0.16947-1.8639s1.1861-1.0166 1.8638-1.3556c0.67779-0.33885 2.2027-0.84719 3.2194 0 1.0166 0.84724 1.525 1.1861 1.525 1.1861l3.2194-1.525h2.2028s2.0333-0.50834 2.2028-2.3722c0.16953-1.8639-0.1695-4.5749-0.1695-4.5749l1.0166-1.8639 0.0474-0.26489c0.50832 0.0957 1.0234 0.19707 1.3081 0.26489 0.67778 0.16952 2.0333 0 2.0333 0s1.0166-1.0166 1.6944-1.0166c0.67776 0 1.9865-0.77336 1.9865-0.77336h6e-3v7e-3c0.79299 0.68592 3.355 2.7111 3.9176 3.382 0.31854 0.39308 0.35919 0.70554 0.58218 1.1529l1.1597 2.2969c0.53478 0.94889 1.6131 2.2238 2.0062 3.1734 0.0276 0.0674 1.1658 4.3641 1.1658 4.3914 0.11516 1.4166-0.57681 3.3211-0.43446 4.718 0.0387 0.35377 1.1366 2.4203 1.2179 2.8677z" fill="#e2b584"/>
   <path d="m55.355 154.96s0.16943 2.2027-0.33889 3.3889c-0.50832 1.1861-2.0333 1.525-2.7111 1.0167-0.67778-0.50837-1.8639-1.3556-1.8639-1.3556l-1.3555 0.67774-2.3722-0.67774v1.1861c0 0.84722-0.84721 0.67775-2.2027 0.50832-1.3555-0.16951-1.3555 1.0166-1.3555 1.0166s1.3555 1.1861 2.2027 1.1861c0.84721 0 4.4054 0.16953 4.4054 0.16953s1.0166 1.8639 0.50832 2.7111c-0.50832 0.84719 0.16943 1.0166 0.67776 2.2027 0.50832 1.1861-0.33889 1.1861-1.1861 1.1861s-1.3555 0.84719-1.3555 0.84719-1.0166 0.16951-2.0333 0.16951-0.84721 1.8638-0.84721 1.8638l0.50832 1.6944s-0.50832 0.67778-0.33889 1.525c0.16943 0.84715 0 2.2027 0 2.2027s-1.0166 0.84719-1.6944 0.16952c-0.67778-0.67776-0.16946-1.6944-1.1861-1.8638-1.0166-0.16923-2.8806-0.33889-3.7277-0.33889-0.84721 0-2.7111 1.1862-2.7111 1.1862l-1.525 2.0333s-0.16946 0.84723-1.1861 0.50834c-0.82009-0.26986-2.6162-0.9821-3.2941-1.2539-0.0069-0.43446-0.06777-0.91503-0.0949-1.6402-0.0074-0.14989-0.2779-0.40667-0.36599-0.4948-1.5792-1.5385-1.9249-0.63032-2.7924-1.0085-1.586-0.69886-1.5317-1.3013-3.809-1.5792-0.08813-7e-3 -2.2976 0.3179-2.4942 0.34565-0.02039 0-0.25077 0.13509-0.28467 0.15602l-0.80656-0.0278-0.43379-0.3043c-0.29821-1.8307-0.98277-3.5041-1.6537-5.2128-0.12199-0.30433-1.6131-1.9723-1.9791-2.3112-0.04746-0.0461-0.23721-0.0724-0.28467-0.12181-3.3142-3.4972-3.6259-4.2428-8.5399-4.608-1.3901-0.64458-1.0851-3.0025-1.098-4.3181 0-0.0544 0.019023-0.12182 0.027286-0.18303 0.11528-0.75165 0.33145-1.3637 0.93533-1.8835 1.7622-0.63778 2.8393 0.57614 3.944 0.18908 1.0641-0.37345 1.9181-0.91631 2.6433-1.811 0.04746-0.0612 0.08134-0.31108 0.12875-0.37885l3.5441-5.0636c0.02702-0.0344 0.22365-0.1764 0.28467-0.21692l1.0309-3.1849-0.04134-0.43445c-0.04066-0.41276-0.27789-0.77945-0.32464-1.1726-0.07456-0.64997-0.03384-1.3819-0.05419-2.0401 0-0.0612 0.15521-0.33213 0.17622-0.41278l1.5724 0.16952s0.67778-1.0167 1.0166-1.8638c0.33889-0.84724 1.3556-3.7276 1.3556-3.7276s0.50832-1.8639-0.16946-2.5417c-0.67778-0.67775-1.1861-1.3555-0.84721-2.0333 0.33889-0.67778 0.50832-1.8639 0.50832-1.8639s2.5416 0.84719 3.2194 0.84719c0.67778 0 2.8806-0.16952 3.2194-1.3555 0.33889-1.1861 1.8639-1.6945 1.8639-1.6945s2.5416-0.16923 3.3889 0c0.84721 0.16953 2.2027 0.50837 3.0499 1.3556 0.84721 0.84721 1.0166 2.2027 2.2027 2.7111 1.1861 0.50831 2.5416 2.0333 2.8806 2.7111 0.33889 0.67774 2.5416 3.7276 2.5416 3.7276l1.0166-1.8638 1.6944-0.50835 0.84721-0.50833 1.1861 0.84721 2.2027 0.16953s-0.16946 1.525-0.84721 1.525c-0.67778 0-0.84721 0-1.0166 1.0167-0.16946 1.0167 1.3555 1.1861 1.3555 1.1861s1.525 0.16925 2.7111 0.16925 1.3555 1.3555 1.3555 2.2028c0 0.8472 0 2.8804 0.33889 3.7277 0.33889 0.84719 0 1.525-0.84721 1.6944-0.84721 0.16951-1.6944 0-1.6944 0s0.84721 2.5416 1.3555 3.3889c0.50832 0.84716 0.16943 1.5249-0.16946 2.3722-0.33889 0.84721 0.50832 1.6944 0.50832 1.6944l1.525 0.84722v1.3556z" fill="#c2f0c2"/>
   <path d="m46.714 131.58 0.67778 1.1861-0.84721 0.50833-1.6944 0.50835-1.0166 1.8638s-2.2027-3.0499-2.5416-3.7276c-0.33889-0.67778-1.6944-2.2028-2.8806-2.7111-1.1861-0.50835-1.3555-1.8639-2.2027-2.7111-0.84721-0.84722-2.2027-1.1861-3.0499-1.3556-0.84721-0.16953-3.3889 0-3.3889 0s-1.525 0.50835-1.8639 1.6944c-0.33889 1.1862-2.5416 1.3556-3.2194 1.3556-0.67775 0-3.2194-0.8472-3.2194-0.8472s-0.16943 1.1861-0.50832 1.8639c-0.33889 0.67775 0.16946 1.3555 0.84721 2.0333 0.67775 0.67778 0.16943 2.5416 0.16943 2.5416s-1.0166 2.8804-1.3555 3.7277c-0.33889 0.84718-1.0166 1.8638-1.0166 1.8638l-1.5724-0.16951c0.05419-0.32465 0.02702-0.66963 0.08813-0.997 0.18977-1.0709 0.31855-0.98207 0.19653-2.1208-0.14234-1.3223-2.4603-3.4845-3.0973-4.4807-0.46088-0.71097-0.89398-1.4708-1.3894-2.1553-0.55578-0.77194-1.281-1.5039-1.9045-2.2427-0.01434-0.0166-0.07444-0.0971-0.08816-0.10175l-0.52866-0.24475-1.0031 0.40801-0.0071-0.0807c-1.4233 0.51512-2.1214 0.55579-3.3076-0.45412-0.671-1.3833-1.4776-2.8128-2.0537-4.2359-0.36598-0.91638-0.58966-2.0333-0.86752-2.989l-0.10783-0.39312c-0.24399-0.84723-0.44055-1.8639-0.77332-2.6636-0.31858-0.7747-0.95567-1.5724-1.4023-2.3044l0.73875-1.729c1.3013-0.57608 1.8164-0.75841 2.2637-1.0431 0.43379-0.27788 0.80589-0.66421 1.7893-1.6206 0.61-0.59573 0.732-1.342 1.1251-2.0807 0.21083-0.39986 0.52254-0.80587 0.77265-1.1861 0.014339-0.0276 1.1326-0.92111 1.2003-0.97533 0.021498-0.0136 0.14242-0.0413 0.16954-0.046 0.12199-0.042 1.5317-0.4819 1.5792-0.4819 3.1111-0.12347 2.9958 0.0347 5.734-1.1665 0.75234-0.46086 3.0973-1.7947 3.6058-2.3722 1.2871-1.443 2.3993-3.124 2.989-4.9818 0.24333-0.77333 0.16946-1.8096 0.15521-2.6304-0.01404-0.48053 0.05419-1.1929-0.04065-1.647-0.13556-0.67774-0.42023-1.7208-0.69812-2.5762l0.16265-0.05434s1.0166-0.16951 2.0333-0.16951h2.7111l3.7277 3.7277 2.0333 0.16951 1.8639 3.0499s-0.16946 2.2027-0.33889 2.8804c-0.16946 0.67781-0.33889 2.0333-0.16946 2.8806 0.16946 0.84719 0.50832 1.1861 1.1861 1.8638 0.67778 0.67777 2.2027 2.0333 2.2027 2.0333s1.6944 1.0166 0.67778 1.6944c-1.0166 0.67777-1.0166 2.0333-1.0166 2.0333s0.50832 1.8639 1.1861 2.5417c0.67778 0.67776 3.3889 2.7111 3.3889 2.7111l1.6944 1.6944s-0.84721 2.0333-1.3555 2.8806c-0.50832 0.84718-0.16943 2.0333-0.16943 2.0333l-0.16946 4.4054s-0.33889 2.2027 0.50832 3.2194c0.84721 1.0166 3.3881 2.3722 3.3881 2.3722z" fill="#c2b0c2"/>
   <path d="m70.557 213.83c1.2505-1.6599 1.8978-3.7155 2.5674-5.6582-2.7246-0.57745-4.9526-1.9378-2.8241-4.7376 1.2166-1.6003 3.0926-2.3349 3.9608-4.2219 0.60728-1.3196 0.68049-3.8734 2.5992-3.8362 1.5575 0.0293 3.1943 2.1682 4.7301 2.6622 1.3772 0.44056 2.6521 0.6805 3.9283 1.1692 0.20196-0.22767 0.3931-0.47104 0.50628-0.69879 0.33888-0.67776 1.0166-1.0166 1.6944-1.0166s1.8639-1.1861 0.50832-2.3722c-1.3555-1.1861-1.525-1.8639-1.525-2.7111 0-0.84723-1.525-1.525-1.525-1.525l-5.2527-3.7277-2.3722-2.5416s-0.67778-1.0167-1.1861-1.6944c-0.50832-0.67777-1.0166-0.67777-1.6944-0.67777-0.67778 0-0.50832 0.16924-0.67778 1.1861-0.16943 1.0166-0.33888 2.2027-0.33888 2.2027l-1.1861 0.16951-1.525-3.0499-1.525-0.33893s0.84722-0.50832-0.33888-1.8638c-1.1861-1.3556-2.2028-0.50834-2.2028-0.50834l-0.50832 1.525-0.50832 2.0333-4.6494-0.63033-0.48123 0.0166c-0.02039-0.31247-0.03384-0.64323 0.10166-0.9279 0.29754-0.63166-0.50832-1.6483 0.61609-3.4168 0.33211-0.52792 1.1793-1.6944 1.2478-2.2983-0.35923-0.79299-0.80656-1.3623-1.2817-2.053-0.11525-0.17751-0.18302-0.35314-0.21621-0.53475-0.46158-0.38094-0.92855-0.65949-0.92855-0.65949l-1.3555-1.1861-2.5416-0.1695-2.2027-1.1861s-0.50832 1.525-0.50832 2.3722c0 0.84726-1.3555 1.1861-1.3555 0.16953 0-1.0167-1.3556-1.3555-1.3556-0.50834 0 0.84722-0.16943 1.0167-1.0166 1.3556-0.84721 0.33891-0.67775 0.67779-0.16943 1.3556 0.50832 0.67772 1.525 2.3722 1.1861 3.2194-0.33889 0.8472-0.84721 1.8639-1.525 0.8472-0.67775-1.0166-1.1861-1.6944-1.3555-2.5416-0.16946-0.84725-0.67778-2.2027-0.67778-2.2027l-1.3555-1.8638s-0.50832 0.67772-0.33889 1.525c0.16943 0.84721 0 2.2027 0 2.2027s-1.0166 0.84725-1.6944 0.16952c-0.67778-0.67777-0.16946-1.6944-1.1861-1.8639-1.0166-0.16924-2.8806-0.33888-3.7277-0.33888-0.84721 0-2.7111 1.1861-2.7111 1.1861l-1.525 2.0333s-0.16946 0.84718-1.1861 0.50829c-0.82009-0.26985-2.6162-0.98072-3.2941-1.2539 0.02039 0.58358-0.03387 1.0919-0.31855 1.9656-0.061 0.19708-0.04746 0.33074-0.16265 0.5083-0.73878 1.1448-2.745 2.2983-2.0401 3.965 1.2945 1.8375 5.4832 0.2989 6.9057 1.3623 0.1769 0.1295 0.37346 0.44053 0.52257 0.60997 1.037 1.2139 0.27789 2.0611 0.37955 3.382 0.07457 1.0167 0.65066 1.6944 1.2132 2.5003 0.13556 0.2026 0.24399 0.48055 0.35921 0.69741 0.28467 0.38027 0.27111 0.92925 0.43376 1.3556 0.02729 0.0821 0.19653 0.21665 0.2379 0.30565 0.25755 0.52662 0.42023 1.1861 0.61676 1.7487 0.67778 0.32467 0.76587 0.60254 1.1861 0.8804 1.2329 0.82756 2.3647 1.708 3.5311 2.6304l2.5613-1.2539c0.27112-0.13616 0.6371 0.053 0.86755 0.16152 0.90821-0.31242 1.6131-0.33073 2.562-0.37343 0.71844-0.83299 1.5318-1.9181 1.9316-2.9611-0.12199-0.63032-0.61678-2.1614 0.03456-2.6778 1.3142-0.4182 1.5785-0.55443 2.7993-1.3196 0.027-0.022 1.0363-0.11518 1.1658-0.13615 0.86755 1.5792-1.3352 4.9349-2.1289 6.3235l0.04135 0.27785c-0.46088 0.4819-1.2335 3.3266-1.2945 3.8828 0 0.0544 0.265 2.0069 0.28467 2.1892 0.10844 0.79297 1.5182 1.8164 1.5521 2.364 0.12876 1.9656-1.3284 2.0198-1.8978 3.4512-0.05419 0.12785-0.50154 1.2139-0.50832 1.2817-0.14234 0.86073 0.43376 3.4432 0.71843 4.3641 0.10166 0.32463 1.8781 1.7948 2.0408 1.9316 0.01956 0.0888 0.18302 0.69877 0.18302 0.74555-0.0069 0.39311-0.27789 0.84043-0.27789 1.2281-0.0069 0.96918 0.50832 2.1885 1.3827 2.6358 1.0166 0.25139 2.2102 0.3667 3.2607 0.2989l0.24333 0.20259c0.265-0.0413 0.52867-0.0474 0.793-0.0738l0.24399-0.18907 2.6975-0.16263 1.4233-1.0363c0.74691-0.099 1.483 0.0334 2.2116 0.18385 0.24602-0.81264 0.60322-1.6307 1.0851-2.4426 0.8933-1.5054 2.3024-2.5166 3.3429-3.8986z" fill="#b0c2b0"/>
   <path d="m67.006 220.56c0.60388 0.18384 1.0309 0.28464 1.5392 0.66419 0.02702 0.0193 0.5551 0.96242 0.58966 1.0166l0.62353 0.33076c0.58222-0.0874 1.8564-0.25 2.4461-0.12181 0.43446 0.3667 0.8269 0.64457 1.098 1.1664 0.7591 0.10175 1.0506 0.12347 1.7419 0.53474 1.1116 0.0277 1.1319-0.2026 1.9378-0.96917l0.04755-0.14174c0.06777-0.21692 0.14913-0.35315 0.28466-0.54969 0.52257-0.79436 1.0776-1.5528 1.8435-2.1289 0.53544-0.16952 1.7629 0.60385 2.2502 0.84041 0.42023-0.14309 1.1455-0.0413 1.5318 0.16951 0.3531 0.3389 0.72521 0.73878 1.058 1.1515 0.31178-0.37343 0.92855-1.1447 1.1793-1.6484 0.33888-0.67772 1.0166-2.5416 1.0166-2.5416l3.2194-1.3556 1.3555-2.3722s0.3389-1.0166 1.1861-1.1861c0.84722-0.16924 2.2028-0.16924 2.2028-0.16924l1.6944-1.1861s1.525 0.67772 2.2028 0.67772c0.67778 0 1.6944 0.16952 2.3722 0.16952 0.67779 0 1.1861-0.50833 1.3555-1.3556 0.16943-0.84721-0.16946-1.525-0.16946-1.525s-1.525-1.3556-2.3722-2.0333c-0.84721-0.6778-3.0499-1.6945-3.0499-1.6945s-2.5416-0.67775-3.2194-0.67775c-0.67777 0-3.2194-0.3389-3.2194-0.3389l-1.525-1.6944-1.3555-1.3556s-0.8472-1.0166-1.6944-1.0166-0.50832-1.1861-0.50832-1.1861 0.44732-0.37616 0.84924-0.82616c-1.2769-0.48873-2.5518-0.72659-3.9291-1.1692-1.5358-0.49411-3.172-2.6331-4.7301-2.6623-1.9194-0.0372-1.992 2.5166-2.5992 3.8362-0.86687 1.8849-2.7443 2.6196-3.9608 4.2219-2.1289 2.7999 0.09963 4.162 2.8241 4.7376-0.66895 1.9418-1.3162 3.9961-2.5674 5.6579-1.0404 1.382-2.4495 2.3932-3.3453 3.8999-0.48189 0.81125-0.83774 1.6293-1.0844 2.4426 0.17147 0.0373 0.34228 0.0711 0.51306 0.10717 0.04197 0.0136 0.31245 0.26158 0.36737 0.28128z" fill="#f9d3c6"/>
   <path id="Udhampur" d="m127.42 186.71c-0.71166-0.12785-1.4023-0.24312-1.4023-0.24312l0.1695-2.3722-0.33888-1.3555s-1.3556-0.84721-2.0333-1.0167c-0.67776-0.16923-6.1-2.5416-6.7778-2.8806-0.67779-0.33886-2.8806 0.33889-4.0667 0.84723-1.1861 0.50835-1.525 0-2.2027-0.50834-0.67778-0.50835-2.8806-3.0499-2.8806-3.0499l0.16943-5.0832-6.2693-2.0333-1.525-1.6945-2.3722 0.16953v-1.3556l-1.525-0.16925s-0.84722-0.50834-1.8639-1.0167c-1.0167-0.50832-0.84722-1.8639-2.2028-2.8806-1.3555-1.0167-3.8972-1.525-4.5749-1.8639-0.67778-0.33888-2.5416-0.84722-3.1116-1.9988-0.56931-1.1515-2.6494-1.2206-2.6494-1.2206s-1.1861-0.67778-1.8639-1.3556c-0.18162-0.18165-0.22636-0.37349-0.19991-0.55849-0.78688 0.28602-1.1082 1.1319-1.5101 2.1722-0.59371 1.5358 0.26839 4.1458-1.1366 5.1557 1.138 0.81945 3.0121 0.30161 3.6695 1.3474 0.51646 0.82214 0.06506 2.5803-0.28263 3.4112-2.2529 0.33618-2.5484-0.15602-3.2202 2.3376-0.36258 1.3461-1.4735 2.503-1.6937 3.7968-1.2173 0.64456-3.1259 2.9509-1.4884 3.9818-0.59984 1.3358-0.04197 3.2607 0.42427 4.9572 0.0061 0 9e-3 -1e-3 0.01509-1e-3 0.67778 0 1.1861 0 1.6944 0.67775 0.50833 0.67778 1.1861 1.6944 1.1861 1.6944l2.3722 2.5416 5.2527 3.7277s1.525 0.67776 1.525 1.525c0 0.84717 0.16943 1.525 1.525 2.7111 1.3555 1.1861 0.16943 2.3722-0.50832 2.3722-0.67778 0-1.3555 0.33886-1.6944 1.0166-0.33888 0.67778-1.3555 1.525-1.3555 1.525s-0.33888 1.1861 0.50832 1.1861 1.6944 1.0167 1.6944 1.0167l1.3556 1.3556 1.525 1.6944s2.5416 0.33889 3.2194 0.33889c0.67779 0 3.2194 0.67775 3.2194 0.67775s2.2028 1.0167 3.0499 1.6944c0 0 0.16946-0.67774 0.50833-1.3555 0.33888-0.67782 0-1.1861 1.525-1.0167 1.525 0.16951 2.3722 0.33887 2.3722-0.50834s0.16947-1.6944 0.16947-1.6944l1.3555 0.16953 1.0166 1.6944h2.5416c1.1861 0 3.5584 0 3.5584-1.6944s-0.16943-3.5584-0.16943-4.2362c0-0.67777 0.16943-1.8638 0.16943-1.8638s1.1861-1.0167 1.8639-1.3556c0.67775-0.3389 2.2027-0.84719 3.2194 0 1.0166 0.84721 1.525 1.1861 1.525 1.1861l3.2194-1.525h2.2028s2.0333-0.50829 2.2027-2.3722c0.16951-1.8638-0.16952-4.5749-0.16952-4.5749l1.0166-1.8639z" fill="#bfbdd5"/>
   <path id="Reasi" d="m74.233 177.28c-1.6382-1.0302 0.27042-3.336 1.4884-3.9818 0.22029-1.2918 1.3305-2.4488 1.6937-3.7954 0.67167-2.4955 0.96717-2.0014 3.2202-2.339 0.34768-0.83157 0.79978-2.589 0.28263-3.4112-0.65744-1.0444-2.5315-0.52798-3.6695-1.346 1.405-1.0112 0.54288-3.6221 1.1366-5.1571 0.40193-1.039 0.72252-1.8863 1.5094-2.1709 0.0732-0.51105 0.70895-0.96784 0.70895-0.96784l1.0166-1.1861 0.50833-2.2027s1.1861-1.525 1.525-3.0499c0.33888-1.525-2.0333-2.8806-2.0333-2.8806s-2.2027-2.3722-3.0499-3.0499c-0.84722-0.67776-0.33888-2.5416 0.33888-2.8804 0.67778-0.33894 1.1861-1.1861 0.3389-1.525-0.84722-0.33889-0.67778-1.0166-0.50832-1.6944l-1.8639-0.16953-0.84722-1.0166s-1.3555-0.67775-2.8806-0.84725c-1.525-0.16924-1.6944 0.50838-2.5416 1.0167-0.8472 0.5083-4.5749 0.67774-5.4222 1.0166-0.84721 0.33887-2.8806 0.16951-2.8806 0.16951l-1.0166-2.0333-2.0333-0.50834s-1.1861-0.50831-1.8639-1.525c-0.67778-1.0166-2.2027 0.16952-2.2027 0.16952s-1.3555 0.50832-2.8806 0.50832c-1.525 0-1.525 1.3555-1.525 1.3555s-0.16943 1.525-0.84721 1.525-0.84721 0-1.0166 1.0166c-0.16946 1.0167 1.3555 1.1861 1.3555 1.1861s1.525 0.16951 2.7111 0.16951 1.3555 1.3555 1.3555 2.2028c0 0.84723 0 2.8806 0.33889 3.7276 0.33889 0.84721 0 1.525-0.84721 1.6944-0.84721 0.16926-1.6944 0-1.6944 0s0.84721 2.5416 1.3555 3.3889c0.50832 0.84722 0.16946 1.5249-0.16946 2.3722-0.33889 0.84723 0.50832 1.6944 0.50832 1.6944l1.525 0.84718v1.3555s0.16946 2.2028-0.33889 3.3889c-0.50832 1.1861-2.0333 1.525-2.7111 1.0166-0.67775-0.50833-1.8639-1.3556-1.8639-1.3556l-1.3555 0.67781-2.3722-0.67781v1.1861c0 0.84726-0.84721 0.67783-2.2027 0.50835-1.3555-0.1695-1.3555 1.0166-1.3555 1.0166s1.3555 1.1861 2.2027 1.1861 4.4054 0.16953 4.4054 0.16953 1.0166 1.8638 0.50832 2.7111c-0.50832 0.84716 0.16946 1.0166 0.67778 2.2027s-0.33889 1.1861-1.1861 1.1861-1.3555 0.84721-1.3555 0.84721-1.0166 0.16924-2.0333 0.16924c-1.0166 0-0.84721 1.8639-0.84721 1.8639l0.50832 1.6944 1.3555 1.8639s0.50832 1.3555 0.67778 2.2027c0.16943 0.84719 0.67775 1.525 1.3555 2.5416 0.67778 1.0167 1.1861 0 1.525-0.84718 0.33889-0.84725-0.67778-2.5417-1.1861-3.2194-0.50832-0.67776-0.67778-1.0167 0.16946-1.3555 0.84721-0.33883 1.0166-0.50833 1.0166-1.3556 0-0.84721 1.3555-0.50832 1.3555 0.50834 0 1.0166 1.3555 0.67775 1.3555-0.16953 0-0.84713 0.50832-2.3722 0.50832-2.3722l2.2027 1.1861 2.5416 0.16952 1.3555 1.1861s0.46698 0.27785 0.92786 0.65946c0.03456 0.18301 0.10166 0.35718 0.21687 0.53474 0.47445 0.69136 0.92177 1.26 1.281 2.053-0.06778 0.6039-0.91499 1.7683-1.2471 2.2983-1.1251 1.7683-0.31855 2.785-0.61678 3.4167-0.13487 0.28468-0.12199 0.61542-0.101 0.92791l0.48123-0.0166 4.6494 0.63034 0.50833-2.0333 0.50832-1.525s1.0166-0.84721 2.2027 0.50835c1.1861 1.3555 0.33888 1.8638 0.33888 1.8638l1.525 0.33889 1.525 3.0499 1.1861-0.16953s0.16944-1.1861 0.33888-2.2027c0.16743-1.0072 0.0061-1.1821 0.66287-1.1848-0.46698-1.6998-1.0248-3.6246-0.42497-4.96z" fill="#cc8a0a"/>
   <path d="m101.03 153.77c0.35856-4.1053-2.9782-7.5746-2.1933-11.715-0.06373-0.7252-0.01062-1.4816-0.15182-2.1818 0.50018-0.0221 0.75978-0.12348 0.89873-0.26489-0.49815-0.54967-0.90956-1.035-1.0221-1.2586-0.33888-0.67778-5.0832-5.4222-5.0832-5.4222s-1.6944-1.0166-2.8806-1.1861c-1.1861-0.16951-1.525-0.50834-2.0333-1.1861-0.50832-0.67778-0.50832-1.3555-1.1861-1.8639-0.67778-0.50834-0.33888-1.6945-0.33888-1.6945v-1.3555s-1.525-0.84722-1.525 0.16951c0 1.0167 0 1.1861-0.8472 1.6944-0.84722 0.50833-1.3555 1.6944-1.3555 1.6944s0 1.3555 0.84722 1.8639c0.8472 0.50828 1.1861 1.6944 1.1861 1.6944s0.50832 1.1861-0.67778 1.0167c-1.1861-0.16952-2.0333-0.16952-2.8806-0.16952-0.8472 0-2.5416 0.16952-2.5416 0.16952s-0.3389 1.1861-0.50833 1.8638c-0.16945 0.6778-0.33888 1.3556 0.50833 1.6945 0.8472 0.33888 0.33888 1.186-0.3389 1.525-0.67777 0.33886-1.1861 2.2028-0.33888 2.8806 0.8472 0.67777 3.0499 3.0499 3.0499 3.0499s2.3722 1.3555 2.0333 2.8804c-0.3389 1.525-1.525 3.0499-1.525 3.0499l-0.50832 2.2028-1.0166 1.1861s-1.1861 0.84721-0.50832 1.525c0.67778 0.67781 1.8639 1.3556 1.8639 1.3556s2.0801 0.0691 2.6494 1.2206c0.57001 1.1516 2.4339 1.6599 3.1116 1.9987 0.67777 0.33891 3.2194 0.84722 4.5749 1.8639 1.3555 1.0166 1.1861 2.3722 2.2027 2.8806 1.0166 0.50833 1.8639 1.0166 1.8639 1.0166l1.525 0.16952v1.3556l0.5158-0.0373c0.21416-0.62623 0.39716-1.3623 0.57813-2.1844 0.81399-3.6992 1.7209-7.7199 2.0523-11.502z" fill="#5a5f53"/>
   <path id="Kishtwar" d="m207.18 156.14c-0.50831-0.3389-1.6131-1.6944-1.6131-2.2915 0-0.58896-1.4368-1.775-2.1146-1.775-0.67778 0-1.2742-0.16953-1.6944-0.25828-0.42699-0.0807-1.1861-1.525-1.4436-2.7916-0.25085-1.2749-2.0333-0.33887-2.7924 0.25002-0.7659 0.5971-2.2028 0.5971-3.0499 0.67771-0.84721 0.0888-3.4768-1.3555-3.4768-1.3555s0.67778-2.5416 1.2742-3.5584c0.58968-1.0167 0.25082-3.4697-0.7659-4.5749-1.0166-1.0973-1.1861-3.5584-1.1861-3.5584s-0.33888-0.3389-1.1861-0.84725c-0.8472-0.5083-2.0333-2.0333-2.7111-2.7111-0.67778-0.67778-0.42023-2.8806-0.42023-2.8806s-2.2027-0.92784-2.8806-1.3555c-0.67781-0.41957-1.6944-0.25-2.2027-0.16952-0.50833 0.0888-2.7111 0.0888-2.7111 0.0888s-2.0333-2.3722-2.4603-3.0498c-0.42024-0.67781-2.8806-2.8806-2.8806-2.8806l-1.525 0.75841s-0.42025 1.6944-0.42025 2.3722c0 0.67775-2.799 1.1861-2.799 1.1861s-0.84724 2.2915-2.4536 2.3722c-1.6131 0.0888-4.6631 0.33888-4.6631 0.33888l0.16951-2.6223-2.623-2.7111 3.2194-3.7277s-0.25773-5.0832-0.0878-5.4222c0.1695-0.33904-0.25082-1.6944-0.58967-2.5416-0.33886-0.84719-0.42699-2.8806-0.42699-3.2194 0-0.33894-0.84724-3.7276-0.84724-3.7276l-3.7277-2.5416s-4.9953-4.6637-5.5915-5.172c-0.58969-0.50831 0.25745-1.7751 0.42702-2.2027 0.16924-0.41956 0.58966-0.92786 0.33889-1.2667-0.25771-0.3389-1.525-2.2028-1.525-2.2028h-1.3556c-0.59643 0-0.59643 0.58899-1.7825 1.0973-1.1861 0.50837-2.0333 0.16953-3.3889-0.67775-1.3556-0.84722-1.2675-0.16951-2.0333-0.08072-0.7591 0.08072-4.148-0.42769-4.148-0.42769l1.0167-2.9611s-0.7659-0.42765-1.6131-1.0166c-0.84723-0.59713-2.623-1.8639-3.6397-2.3722-1.0166-0.50832-1.6131-1.525-1.8639-1.8638-0.25744-0.33893-1.1861-2.8806-1.1861-2.8806s-1.3555-1.1861-2.6298-2.461c-1.2674-1.2668-0.67777-2.4529-0.42021-2.7919 0.25083-0.33887 0.67776-1.9526 0.67776-1.9526s-2.3722-1.525-3.2194-1.9446c-0.84723-0.42765-1.525-0.08875-1.8639 0.589-0.33889 0.67778-0.67776 1.2749-0.67776 1.2749l-2.2027-0.16951-0.84722 2.0333s-0.8472 1.0167-1.6944 1.8638c-0.84722 0.84725-1.0166 1.525-1.0166 2.3722 0 0.84719 0.50829 3.7276 0.50829 3.7276s0.33891 2.7111-0.8472 2.7111h-2.7111s-1.0166-0.16952-1.8638-0.16952c-0.84721 0-1.525 0.5083-1.3555 1.1861 0.16946 0.67777-0.16944 2.2027-0.16944 2.2027l-1.8639 2.5417s-1.525 2.7111-0.67779 4.575c0.84722 1.8638 1.525 5.4222 1.8638 6.1 0.33891 0.67776 0.33891 2.0333 1.0167 2.5416 0.67775 0.50837 1.3555 1.525 1.3555 2.8804 0 1.3556 0.33888 2.0333 1.525 2.8806 1.1861 0.84719 2.2028 2.7111 1.3555 3.5584-0.8472 0.84718-0.8472 1.1861-0.67778 1.8639 0.16946 0.67776 0.50834 5.4222 0.50834 5.4222s0.67777 0.16951 1.3555 0.50835c0.67778 0.3389 1.0166 1.6944 0.16946 2.2027-0.84721 0.50833-1.1861 1.1861-1.0167 2.0333 0.16947 0.84722-0.16944 2.8806-0.16944 2.8806s-0.67779 1.525-1.3555 1.8639c-0.67778 0.33894-1.525 1.3556-0.84722 2.8806 0.67779 1.5249 0.67779 3.8972 0.67779 3.8972l0.0895 1.6944c0.50767 0.38502 0.92447 0.74893 1.2132 1.06 2.4833 2.6928 4.3906 6.4096 7.5049 8.3346 4.2158 2.6054 7.1016 3.1902 9.3897 8.0749-0.3653 0.86553-0.11185 1.7195-0.15325 2.6122 2.8839-0.0474 4.1634 3.336 5.0791 5.4195 3.9181 0.54832 7.8621 1.0654 11.825 0.79839 3.5868-0.24201 6.5215-1.121 9.366-3.3969 2.5172-2.0124 4.1532-5.1543 7.463-2.772 2.9314 2.1112 2.8101 5.6248 1.8537 8.514-0.671 2.0293-1.0485 3.4363-1.0288 4.9498 1.0018-0.56795 2.3166-1.3196 2.3627-1.3528l1.1793-1.2403c0.23069-0.24311 0.45409-0.31924 0.59644-0.6236 0.33889-0.73198 1.0309-3.7555 1.2945-4.6902 1.3827-0.91499 2.8263-2.0333 4.2701-2.8263l3.0499-1.342c0.59648-0.26489 0.88859-0.55442 1.525-0.67778l3.6397 0.0738c3.0772 0.0544 6.1414 0.35311 9.1968 0.71236l4.928 0.56931 3.0846-0.26984 1.5392-0.13615 3.1924-2.5206 2.217 0.17641 0.16953 0.7252 0.0413-7e-3 1.098-2.7998c-6.3e-4 0-0.92922-1.2668-1.4376-1.6057z" fill="#f7c2d6"/>
   <path id="Doda" d="m166.26 169.04c0.95633-2.8914 1.0776-6.4043-1.8537-8.5143-3.309-2.3844-4.9457 0.75977-7.463 2.772-2.8445 2.2739-5.7795 3.153-9.366 3.3958-3.9636 0.26847-7.9068-0.24862-11.825-0.79708-0.91631-2.0835-2.1953-5.4669-5.0791-5.4209 0.042-0.8906-0.21224-1.7446 0.15326-2.6122-2.2888-4.8834-5.1747-5.4696-9.3897-8.0735-3.1158-1.9249-5.0223-5.6417-7.5058-8.3346-0.28873-0.31247-0.70623-0.67507-1.2132-1.06l0.08 1.5236-3.0499 1.3556-5.0832 1.3555-2.7111-2.5416s-1.363-1.3623-2.3668-2.4691c-0.13901 0.14279-0.39854 0.24062-0.89872 0.26626 0.14158 0.69879 0.08816 1.4545 0.15182 2.1817-0.78417 4.1406 2.5532 7.6108 2.1933 11.715-0.33076 3.7806-1.2383 7.8012-2.0523 11.502-0.18098 0.82211-0.36193 1.5582-0.57813 2.1844l1.8564-0.13207 1.525 1.6944 6.2692 2.0333-0.16946 5.0832s2.2027 2.5416 2.8806 3.0499c0.67786 0.50823 1.0166 1.0166 2.2027 0.50833 1.1861-0.50833 3.3889-1.1861 4.0667-0.84722 0.6778 0.33889 6.1 2.7111 6.7778 2.8804 0.67775 0.16924 2.0333 1.0167 2.0333 1.0167l0.33889 1.3555-0.16951 2.3722s0.69136 0.11653 1.4023 0.24311c0.50831 0.0957 1.0241 0.19709 1.3088 0.2649 0.67779 0.16951 2.0333 0 2.0333 0s1.0166-1.0166 1.6944-1.0166c0.67775 0 1.9859-0.77337 1.9859-0.77337h6e-3l-0.31846-1.3278c1.5385-0.83369 4.5342-1.2682 6.2354-1.2682 3.145 2.928 1.8571 2.0679 6.1141 3.8572 1.1448-0.92246 2.2834-1.9181 3.4628-2.793 0.93534-0.70421 2.0062-1.26 2.9347-1.9723l1.952-1.6734c0.38025-0.33212 0.65811-0.4541 0.96988-0.84043 0.13509-0.16953 1.6057-2.9217 1.8096-3.2872 1.6748-0.51641 3.4234-0.77467 5.1519-1.0525 0.52864-0.0877 0.84721-0.04 1.3555-0.22354 6e-3 0 0.5036-0.28058 1.1204-0.63167-0.022-1.5134 0.35583-2.922 1.0268-4.9498z" fill="#85c5e3"/>
  </g>
  <g stroke="#000" stroke-width=".5px">
   <path d="m58.429 127.69 0.15436 0.9262 0.15437 0.30873-1.0806 2.0839 0.54028 0.69465 0.15437 0.54027 3.3189 2.3155v0.54027l0.84902 0.61747h0.15436l0.54028 1.3893 1.3121 1.3893 2.3155 1.7752 1.9296 1.3121 1.1577 0.92619 2.6242 0.92619 1.8524 0.69465 0.54028 0.38592h1.1577l1.6208-1.7752v-0.15437h0.54027l2.084 2.0839 1.0034 0.15437 4.7853 2.8558 0.69464 0.30872 1.4665 1.0806 0.54028 0.30874 1.7752 0.69463 2.6242 0.77184 1.8524 0.84901 1.0806 0.69464 1.2349 0.23154 1.5436 0.9262 0.23155 0.23156 0.54028 0.15437 1.698 0.38591 0.4631 0.61747 0.4631 0.15436 1.1578 0.38591 0.92619 0.38592 1.5436 0.84901 1.5436 0.84901 1.2349 0.4631 2.2383 1.0034 0.30873 1.0806"/>
   <path d="m58.429 127.69-0.32569-0.65138 0.05423-0.54281 0.10857-0.75995-0.05423-0.48852 0.10857-0.59709 0.43425-0.70567 0.37997-0.3257 0.48853-0.10855 0.10857-0.43425 0.16284-0.10856 0.16284-0.48853 0.43425-0.70567-0.05423-0.43424 0.32569-0.86851 0.43426-0.65139 0.2714-0.48852 1.8998-1.357 0.43425-0.75995 0.48853-0.16284 1.5742-1.4113-0.27141-0.92278v-0.43426l0.21714-0.16284 0.16284-0.10856 0.43426 0.21713 0.43425 0.10856 0.32569-0.37997-0.16285-0.75995-0.10856-0.21711 0.65137-1.1399v-0.75994l0.86851-1.0313 0.37996-0.16286 0.5971 0.27141 0.5971-1.0314 0.05423-0.65137-0.65139-1.357-0.21712-0.65137 0.2714-0.92279v-0.92278l-0.37996-0.5971-0.27141-0.32569-0.21713-0.16284-0.2714-0.10856-0.16285-0.32569-0.10856-0.10856v-0.43425l-0.21712-0.37997-0.3257-0.27141-0.37996-0.27141 0.10856-0.37997-0.10856-0.10856-0.43425-0.0543v-0.54281l-0.5971-0.92278-0.37997-2.0627-0.59709-0.81422-0.10857-0.27141-0.05423-0.37997-0.16284-0.21712-0.59709-0.10856 0.32569-0.48853-0.75995-1.3028-0.10856-0.5971 0.43425-0.10856 0.37997 0.05428 0.32569-0.65138 0.54282-0.37997 0.32569-0.92278 0.92278-0.48853"/>
   <path d="m69.068 104.02 0.54774 0.18258 0.3043-0.36516-0.12172-0.66945 0.0609-0.54774-0.12172-0.3043 0.36516-0.79117-0.36516-0.36516v-0.42602l0.24343-0.42602-0.42601-0.66945 0.42601-0.48687 0.48689 0.24343 0.42601 0.66945 0.12172 0.9129 0.3043 0.85203 0.73031 0.9129 0.66946 0.79118 0.73031 0.24344h1.7649l0.54773 0.36515 0.3043-0.0609 0.3043-0.24344v-0.54773l0.3043-0.3043 0.42602-0.12172 0.42601 0.24344 0.30429 0.18258 0.42602-0.24344v-0.48688l0.85204-0.42602h0.3043l0.42602-0.18258 0.24343-0.48687 0.3043 0.12172 1.2172-0.85204 0.18258-0.54774 0.12172-0.66945 0.42601-0.36515v-0.6086l0.42602-0.12173 0.24344-0.73031 0.48688 0.24344 0.18258-0.18258 0.24344-1.0346 0.60859 0.0609 0.0609-0.42602 0.54774-0.42602 0.66946-0.3043 0.0609-0.24344 0.48687-0.18258 0.0609-0.30429 0.54772-0.12172v-0.12172l0.54774-0.12172 0.18258-0.36516 0.6086-0.24344 0.48688-0.0609 0.18257-0.24343v-0.24345l0.6086-0.24344 0.97376-6.938 0.79117-0.48688 0.42602 1.2172 0.54774-0.3043 0.36515 0.48688-0.0609 0.48688 0.36515-0.18258 0.6086 0.79118-0.54774-1.9475v-0.73031l0.18259-0.48689 0.42601-0.18258 0.36515 0.18258 0.42602 0.18258 0.18258 0.12173 0.24344 0.18258 0.3043 0.36515 0.3043 0.24344 0.12172 0.54773 0.54773-0.18258h0.36516l0.12172 0.12172 0.24344-0.3043 0.48687-0.0609 0.36517 0.18257 0.12171 0.9129 0.24344-0.48688h0.54773l0.54774-0.0609 0.0609-0.3043 0.48689-0.54772 0.42601-0.0609 0.0609 0.85203 0.24345-0.48688 0.18257-0.42601h0.54775l0.18258 0.0609 0.42601-0.18257 0.24344-0.24344 0.30429 0.60859 0.12172-0.42601 0.54774-0.0609 0.6086 0.48686-0.0609-0.54772 0.48688-0.0609h0.36515l0.24343 0.66945 0.12173-0.42601 0.48688 0.18257 0.48687 0.0609 0.30431 0.30429h0.30429l0.36515-0.0609v-0.18257l-0.91288-0.79119 1.3998 0.60861-0.60859-0.85205"/>
   <path d="m106.62 84.974v-0.4363l1.4959-0.99728 1.6206 1.3089 0.49863 0.24933h0.49864l1.2466-0.0623 1.3089 0.81029 0.12466 0.31165h0.49864l0.6233 0.37397h0.31164l0.56097 0.24933h1.2466l0.49864-0.24933 1.0596 0.6233h0.43631l0.68562-0.37397-0.0623-0.49864v-0.31165l0.49864 0.12466 1.4336-0.81029 0.0623-0.24932 0.43631-1.0596 0.24932-0.24932 0.56097-0.56097 0.81028-0.31165 0.56097-0.56096 1.1219-0.43632 0.62329-0.49863 0.12466-0.62329 1.2466 0.18698 0.93495 0.93494 0.99727 0.187 0.56096 0.43631 0.43631 0.18698 1.1219 0.06241 0.4363-0.43631 1.0596-0.24932 1.5582-0.0623 0.43631 0.49864 0.24932 0.74795 0.12466 0.68563 0.87261 0.81029h0.37398l0.37398-0.62331 0.4363-0.31165 1.2466-0.24931h0.93495l0.74795-0.0623 1.9322-0.12465-0.12466-1.8076 1.1843-1.9322 0.74796-1.5582-0.56097-0.62329v-1.3713l-0.24932-0.81029-0.99727-1.3712-0.18699-0.68563v-0.56096l0.4363-0.99727-0.24931-0.56098-0.31165-0.56096-0.18698-0.31165-0.74796-0.74796-0.37397-0.62329-0.31166-1.1843-0.12465-0.74796-0.24932-0.49864-0.31165-0.4363-0.31166-0.37398-0.2493-0.56097-0.24932-0.56096-0.187-0.74795v-0.49864l-0.0623-0.43631-0.18699-0.37398-0.24932-0.49864-0.12466-0.43631-0.0623-0.49864-0.12467-0.56097 0.0623-0.24932v-0.56096l-0.0623-0.43631 0.24932-0.37398v-0.24932l0.31166-0.49864 0.43632-0.6233 0.68561-0.6233 0.56096-0.24932-0.31165-0.18699-0.0623-1.1219-0.74796 0.6233-0.49864 0.06233-0.31165 0.49864-0.56096-0.87262-0.24933-0.43631 0.24933-0.6233"/>
  </g>
 </g>
 <g fill-rule="evenodd" stroke-width=".2475">
  <circle cx="111.51" cy="160.43" r=".82685"/>
  <circle cx="66.621" cy="91.212" r=".82685"/>
  <circle cx="58.234" cy="127" r=".82685"/>
  <circle cx="106.67" cy="84.846" r=".82685"/>
  <circle cx="137.38" cy="54.741" r=".82685"/>
  <circle cx="81.557" cy="100.68" r=".82685"/>
 </g>
 <g font-family="sans-serif" font-size="3.5279px" letter-spacing="0px" stroke-width=".26459" word-spacing="0px">
  <text x="65.932518" y="95.459038" style="line-height:1.25" xml:space="preserve"><tspan x="65.932518" y="95.459038" stroke-width=".26459">Katra</tspan></text>
  <text x="84.028824" y="103.879" style="line-height:1.25" xml:space="preserve"><tspan x="84.028824" y="103.879" fill="#000000" stroke-width=".26459">Udhampur</tspan></text>
  <text x="102.78266" y="89.631897" style="line-height:1.25" xml:space="preserve"><tspan x="102.78266" y="89.631897" stroke-width=".26459">Doda</tspan></text>
  <text x="128.22391" y="51.97884" style="line-height:1.25" xml:space="preserve"><tspan x="128.22391" y="51.97884" fill="#000000" stroke-width=".26459">Kishtwar</tspan></text>
  <text x="105.56491" y="155.75906" style="line-height:1.25" xml:space="preserve"><tspan x="105.56491" y="155.75906" stroke-width=".26459">Kathua</tspan></text>
  <text x="59.687946" y="125.64381" style="line-height:1.25" xml:space="preserve"><tspan x="59.687946" y="125.64381" stroke-width=".26459">Jammu</tspan></text>
 </g>
 <circle cx="92.363" cy="93.59" r=".82685"/>
 <text x="90.178734" y="97.838448" fill="#000000" font-family="sans-serif" font-size="3.5279px" letter-spacing="0px" stroke-width=".26459" word-spacing="0px" style="line-height:1.25" xml:space="preserve"><tspan x="90.178734" y="97.838448" fill="#000000" font-size="2.4695px" stroke-width=".26459">Patnitop</tspan></text>
 <circle cx="63.841" cy="87.765" r=".82685" fill="#f60"/>
 <text x="56.316196" y="85.701332" fill="#000000" font-family="sans-serif" font-size="3.5279px" letter-spacing="0px" stroke-width=".26459" word-spacing="0px" style="line-height:1.25" xml:space="preserve"><tspan x="56.316196" y="85.701332" font-size="2.1167px" stroke-width=".26459">Maa Vaishno Devi</tspan></text>
 <circle cx="55.505" cy="115.71" r=".82685"/>
 <text x="44.372108" y="113.77632" fill="#000000" font-family="sans-serif" font-size="3.5279px" letter-spacing="0px" stroke-width=".26459" word-spacing="0px" style="line-height:1.25" xml:space="preserve"><tspan x="44.372108" y="113.77632" font-size="2.8223px" stroke-width=".26459">Akhnoor</tspan></text>
 <circle cx="122.31" cy="95.221" r=".82685"/>
 <text x="121.33755" y="100.06129" fill="#000000" font-family="sans-serif" font-size="3.5279px" letter-spacing="0px" stroke-width=".26459" word-spacing="0px" style="line-height:1.25" xml:space="preserve"><tspan x="121.33755" y="100.06129" font-size="2.8223px" stroke-width=".26459">Bhaderwah</tspan></text>
 <path d="m123.56 151.75 1.0713 0.93742 1.54-0.3348-0.60263-1.0044 1.4061-0.60263 1.9418 0.20088-0.067 0.87045 0.53567-0.80349h2.0757l-0.66959 1.607 1.54 0.26783 0.60263 1.0044 0.40174-0.60264 0.33479 0.46872 0.73655-0.46872-0.26783 1.0044 1.54-0.40174 0.20088 1.0044 0.60263-0.13392 0.40175 1.2722 0.60262-0.20088-0.1691-0.62932 1.3254 0.94672v-0.8994l0.0947-0.33134 0.85205 1.2781-0.0473 0.37868 1.5148 1.4201 0.0947-1.0414h-0.47336v-1.0887l-0.5207 0.28402 0.142-0.8994 0.66271-0.33134-0.56803-0.61537 0.0474-1.2308 0.75738 0.28402 0.14201-0.14202-0.28402-0.47335 0.56804-0.47337 2.0828 1.8461 1.2781-0.85204v-0.14202l-0.8994 0.18936v-0.56804l-0.6627-0.33136-0.37869 0.42603-1.1834-0.75737 0.33135-0.23669 0.75738 0.37868 0.33135-0.37868 0.42603-0.0473 0.61538 0.37868-0.42604-0.75737-1.2307 0.18935 0.47337-0.61537-0.47337-0.56804 1.8934 0.0473-0.142-0.8994-1.1361-0.80471 0.52071 1.1361-1.1834-0.61538v0.56805l-0.18935 0.0947-0.5207-0.33134 0.37869 1.8461-0.56803-0.33135-1.2307-0.0947-0.37869 1.1834-0.5207-0.33135 0.0473 0.71004-1.1834-0.89938-0.0474 0.75738-0.85205-0.0474 0.0947 1.7041-0.47336-0.89938-0.56803 0.23668-0.94673-0.99406 0.14202 0.75738-0.56805-0.28402 0.0473-0.56804-2.6508-0.142-0.18935-0.0947-0.37869-1.1834 1.4674 0.89939 2.0355-0.99406-0.23668-1.0887-0.85206-0.14201 1.9408-0.85204v-0.28403l0.42603-0.71004 0.42603-0.18935 0.75737-1.4201 1.6568-0.0473 0.8047-1.2781h0.14202l0.75738 0.23668-0.23668-0.42602-0.33137-0.33136 0.47338-0.33135 0.33135-0.56803 0.0947-0.37869-0.0473-0.28402-0.0947-0.14201v-0.0947l0.28402-0.42602 0.14201-0.14201 0.37869 0.71005 0.42603-0.71005v-0.33136l0.23667-0.33135h0.66271l0.0947-0.33135 0.33134-0.71005-0.142-0.47335-0.71005-1.2307 0.85205 0.0947 1.2308 0.23668 0.56804 1.7041 1.5621 1.2781-0.37869-1.5621-0.0474-0.142-0.6627-0.0947-0.71005-1.7514-1.0887 0.0474-0.56804-0.99407 0.61538-0.0473 0.61537-1.1834 0.18934-0.0947 0.75738 0.80472 0.0473-0.37869-0.0947-0.28403v-0.23667l0.61537-0.0947 0.23669-1.0414 0.142 0.47336 1.1361 0.47337-0.37869-0.47337-0.37869-0.42602-0.18935-0.66271 0.14201-0.0947 0.80472-0.0947 0.85205-0.66271-0.37869-0.61537h0.66271l0.28401-0.52069 0.94673-1.5621-0.42603-0.5207-0.23668-0.47336-1.1834-0.75738-0.23668-0.18934 0.75738-1.0414 1.3254-0.14201 0.33135-2.9348-0.61537 2.1775-2.7928 1.3728 0.5207 0.14201 0.75738-0.37869-0.71004 0.94672 1.4201 1.2308-0.18934 0.94672-3.3135 1.7041v0.3787l0.37869 0.61537-0.33137 0.0473-1.0887-1.2781-0.23668-0.28401-0.28403 0.142 0.56804 0.66271 0.61538 0.71004 0.28401 0.75739-1.4201 1.5621-1.3254-1.7041-0.71004 0.89939-0.23669-0.33134 0.0473-0.47337-1.7041-0.47337-0.14202 0.18936 0.52071 0.23667 0.94673 0.23668v0.71004l1.1361 1.1834-0.61537 0.18935 0.18934 0.6627 0.85206 0.52069-1.4201 0.0947 0.47337 1.4674-2.6035 0.61537 1.1361 1.7041-2.3668 0.37869-0.56803-0.80472-2.2248 1.4201-0.47336 0.47336-2.5088 2.8402-1.0887-0.37868 2.8402-3.3609 1.0414-0.85205-0.71004 0.0947-0.75738 0.37869-0.75739 1.0414-0.0947-0.71005 0.47336-4.2603-1.2307 1.6568v2.1301l-0.0473 0.89939-0.23668 0.94672-0.80472 0.85205-0.18934-0.28403-0.0473-0.142 0.52069-1.7988-0.71004-0.23667-0.18935 0.89938-0.28401 2.1775-1.0887-1.0887 0.71004-0.80472 0.33135-1.7988-0.23669-0.14202 0.37869-1.6568-0.61537-0.85205 0.0947 1.3728-0.71004 0.42603 0.47336 0.8047-0.42602 1.3254h-0.66272l-0.85205-0.0947 0.66271-0.33136-0.0947-1.5621 0.94673-1.2781-0.8994 0.66271 0.0473-1.8934-0.42603 0.75739-0.28401-0.47337-0.0947-0.5207-0.56803-0.56804 0.33135 2.4615-0.71004 0.56803 0.75738 0.47336v0.66271l-0.61536-0.42603v0.47336l-0.61537-0.28401-0.28402-1.1834-0.0947 1.5621 0.8994 0.23668v0.33135l0.28401 0.61537h-0.6627l-0.42603 0.89939-0.33135-0.33136 0.52069-1.2307h-1.1834l-0.42603-0.42601 0.0947 0.75737-0.5207 0.47337-0.0947-1.1361-0.33135 0.71004v0.42604l-0.75738 0.28401-0.18934-0.56804v-0.28401l1.0887-1.9408-0.71003 0.56804-0.42603-0.3787v1.1361l-0.75738-0.56803-0.0473-0.37869 0.47336-0.56803v-0.28402l1.0887-0.47336 0.89939-1.5621-1.0414-0.23669-0.18935 0.42604-0.75738 1.0887-0.0473-1.9881-0.6627 1.3728 0.23667 0.75737-0.42602 0.56804-0.33135-1.2307h0.33135l-0.42602-0.94673 0.6627-0.75737-0.71004-0.52071 0.28402-1.136-0.52069 0.94672-0.80473-0.99407 0.23668 1.2307-0.94672-0.142 1.2781 0.61537-0.85206 0.42603 0.71006 0.14201 0.142 0.0474-0.42603 0.42603 0.37869 0.28402 0.0947 0.6627-0.71004-0.75738 0.37869 1.0887v0.42601l-1.5621-1.7041-0.37868 0.99405 0.6627-0.0473 0.61537 0.52071-0.0473 0.14201-0.71005-0.0473-0.142 0.28401 0.89938 0.6627 0.61537 0.99406-0.42602 0.52071 0.75738 0.42603v0.28401l-0.37869 0.18935v1.8934l-0.28402-1.0414-0.61537 0.37869h-0.37869l0.14201-0.71004h0.66271l-0.0947-0.99406-1.2307-0.28403-0.47336 0.8994h-0.33135l-0.0473-0.33137 0.61537-0.52068-1.3728-0.71006 0.80472-1.8934h-0.94673l0.0947-0.5207-0.56804-0.14201-0.0947-0.0947 0.23668-0.33136-0.89939-0.18934v-0.14201l0.61536-1.3254-1.2781 0.37869 0.0947 1.9881-0.47337 0.14201-0.33135-0.5207-0.33136 0.14201h-0.37869v-0.23668l0.23669-0.66271-1.0414 0.80471 0.28402 0.75739 0.33135-0.47337 0.6627 0.0473 0.28402 0.61538 1.1361-0.28403 0.99406 2.4142 0.85205 0.142v0.14201l-0.5207 0.33136 0.56803 0.89938-0.71004-0.28402v0.56804l-0.80472 0.28402 1.2781 0.0947 0.37869 0.23668 0.33136-0.85205 0.99406-0.33136-1.4201 2.0355 2.0355 0.28403 0.33135 0.47335h-0.80471l0.52069 0.80472 0.80472-0.5207 1.0414 0.47337-0.42602-0.66272-0.0473-0.142 0.37869-0.37869 0.94673 0.47336 1.2781-0.28402-0.0947 0.71004 1.7988 0.80472h-0.85205l1.0414 1.5148-2.0828-1.3727 1.5148 1.8461-0.85204-0.42602 0.89939 0.94672-0.0473 0.18935-0.47336 0.47336 0.42602 0.80472-0.142 0.28401-0.33135 0.14201z" fill="#85c5e3" stroke="none" stroke-width=".15668px"/>
 <text x="143.57845" y="146.39581" fill="#000000" font-family="sans-serif" font-size="3.5279px" letter-spacing="0px" stroke-width=".26459" word-spacing="0px" style="line-height:1.25" xml:space="preserve"><tspan x="143.57845" y="146.39581" font-size="2.1167px" stroke-width=".26459">Ranjit Pratap Sagar Lake</tspan></text>
 <path d="m134.94 41.048 1.1664 0.58322 1.0831 0.16663 1.583 0.4999 0.33326 0.4999v0.9998l-0.58321 0.83317v1.7497l0.0833 0.66653v1.2497l0.24996 1.1664 0.58321 0.4999 0.41658 0.08332 0.58322 0.33327 0.49991-0.33327 0.41657 0.33327 0.41658-0.41658-0.0833-0.4999 0.24995-0.41658h1.3331l0.24995 0.16663v1.0831l0.74985 0.58322 0.74984 0.16663 0.99981 1.4997 0.99979 0.66653 0.9998 0.16663 0.74986 0.16663 0.91649-0.33327 0.41657-0.16663h0.83316l0.66655-0.33327 0.5832-0.24995h0.9165l0.99979 0.16663 0.83316 0.66653 0.83317-0.16663 0.33327-0.33327 0.66652-0.24995 0.24996-0.4999 0.41659-0.4999 0.24995-0.08332 0.41658 0.41658 0.74985 0.74985 0.9998 0.58322h0.99979l0.91649-0.66653 0.41658-0.91648 0.16664-0.74985v-0.4999l-0.33327-0.4999-0.16664-0.4999 0.0833-0.74985 0.49989-0.24995v-0.4999l-0.49989-1.4997v-0.41658l-0.0833-0.74985 0.16664-0.33327v-0.91648h0.91648l0.74986 0.24995 0.83316-0.33327 0.24995-0.08332 0.58321-0.58322 0.74986-0.16663 0.58321-0.4999-0.0833-0.4999-0.41658-0.16663-0.33327-0.16663 0.41659-0.33327h0.58321l0.33326-0.16663v-0.74985l-0.16663-0.24995-0.58321-0.4999-0.33326-0.16663 0.0833-0.08332 0.24995-0.4999h1.0831l0.83317-0.24995 0.4166-0.66653 0.24993-0.41658 0.74986-0.16663-0.0833-0.24995-0.41659-0.4999-0.58321-0.4999-0.66653-0.4999v-0.74985l0.33326-0.33327 0.49991-0.08332-0.24996-0.74985-0.33326-0.33327-0.0833-0.41658 0.41659-0.58322 0.24996-0.16663 0.41658-0.41658 0.0833-0.4999h-0.49989l-0.41659-0.08332v-0.33326l-0.16664-0.91648-0.91648-0.4999-0.91647-0.24995h-1.0831l-0.16664-0.58322-0.66653-0.24995v-1.1664l-0.66653-0.58322-0.49991-0.16663h-0.9998l-0.49989-0.33327-0.83317-0.16663h-1.9996l-0.83317-0.24995-0.91647-0.24995h-0.83318l-0.58321-0.24995-0.83317-0.08332-0.74984-0.08332h-0.66653l-0.49991 0.4999-0.33325 0.41658-0.58323 0.41658-0.41659 0.08332-0.41657-0.16663-0.4166-0.33327-0.24994 0.74985-0.58321 0.4999-0.83317 0.16663-0.66654 0.24995-0.83316-0.08332-0.99981-0.24995-0.99979 0.41658-0.91649 0.66653-0.58322 0.91648-0.16663 0.91648 0.16663 0.91648v1.3331l-0.83316 0.91648-0.83317 0.83317v0.24995l-0.83316 0.9998-0.4999 0.66653-0.0833 0.41659-0.9998-0.16664-0.91649 0.24995-0.4999 0.66653h-0.58321l-1.1664-0.24995-0.99979-0.16663h-0.99982l-0.41657 0.91648-0.33327 0.58322v1.4997l0.16664 0.66653z" fill="#004d00" stroke="none" stroke-width=".1708px"/>
 <text x="146.4967" y="36.085537" fill="#ffffff" font-family="sans-serif" font-size="2.8223px" letter-spacing="0px" stroke-width=".26459" word-spacing="0px" style="line-height:1.25" xml:space="preserve"><tspan x="146.4967" y="36.085537">Kishtwar</tspan><tspan x="146.4967" y="40.495354">National</tspan><tspan x="146.4967" y="44.90517">Park</tspan></text>
</svg>
