<svg width="319.8mm" height="268.38mm" version="1.1" viewBox="0 0 319.79969 268.37933" xmlns="http://www.w3.org/2000/svg" xmlns:cc="http://creativecommons.org/ns#" xmlns:dc="http://purl.org/dc/elements/1.1/" xmlns:rdf="http://www.w3.org/1999/02/22-rdf-syntax-ns#">
 <metadata>
  <rdf:RDF>
   <cc:Work rdf:about="">
    <dc:format>image/svg+xml</dc:format>
    <dc:type rdf:resource="http://purl.org/dc/dcmitype/StillImage"/>
    <dc:title/>
   </cc:Work>
  </rdf:RDF>
 </metadata>
 <g transform="translate(-4.4151 -62.375)" stroke="#fff" stroke-width=".5">
  <path id="Garhwa" d="m100.2 212.18 7.5377-12.006-12.437-5.9002 5.8243-6.6752-2.8665-6.6022v-8.7682l7.319-5.1705 0.72917-6.6023-3.6641-7.4049 0.72916-9.5661-8.7771-6.6023-12.5-3.7391-10.272-2.8635 2.9531-13.374-5.8879-5.0976-1.4355-13.3-9.8892-22.278-4.1971 1.8558-4.6437 2.4486-4.3887 0.49246-2.3561-0.06846-4.5801 0.20983-5.0949 0.5654-4.1971-0.63382-5.5005-0.56081-4.9035-0.28718-4.0697-2.3026-1.1758 1.7144-0.98892 0.5654-0.44661 1.7144 0.85676 1.5001 1.4993 3.0094 1.112 1.2904 1.2396 3.9486-0.13216 1.6415-0.53321 2.5169-1.3034 2.7267-1.9687 4.1584-1.0482 1.719-1.1758 2.2297-0.51041 3.2465 0.12761 3.3149-0.25521 3.8756-0.79296 3.0778-1.1165 2.3756-0.78841 2.3026 0.31902 4.1584 0.12761 1.8604-1.8411 4.2268 2.4199-0.4925 1.9049 0.63384 3.6641 2.0199 2.0963 0.28273 1.4993 2.2297 1.8411 3.4564 1.7773 2.5124 1.2441 1.7828 1.9049 2.444 2.5475 3.8756 1.8411 4.2997 0.57876 3.5977 1.9004 3.4564 2.0371 2.5124 2.0963 1.8558 2.6113 2.0929 3.2767 3.0777 2.8893 2.3756 1.9049 1.2949 2.2877 2.298 2.9577 3.8805 1.3034 2.0199 3.8555 3.5248 0.66081 3.9486 0.92056 1.5001 2.4199 5.4532 1.7773 1.9515 3.6641 3.3148 3.532 3.0094 0.19141 2.3756 0.85676 2.0883 2.6113 2.02 4.9035 1.8558 3.7233 0.14127 1.5631-0.28272 4.3887 2.0245 3.7233-0.28274 1.9049-1.4317 0.0638-1.5731-0.0638-1.0077-0.78841-1.8604-0.32357-2.02 0.79296-1.1536 1.6907-0.20983 1.6269 0.35563 2.7389 1.2904z" fill="#e2b584"/>
  <path id="Palamu" d="m153.87 211.63-1.6907 0.28274-0.72918 1.2904-0.53319 2.3026-0.57875 3.9486-0.72919 1.646-2.1601 0.41949-1.3672-1.149-0.2598-1.9516-1.1119-2.7996-0.78844-1.3633-1.8457-0.20983-1.9004-0.28273-2.4837 0.28273-1.0482 1.3633-0.79295 1.222-1.9687 1.5731-2.0325 0.13696-3.0169 0.14144-4.6437 0.79793-0.66536 0.65659-0.66081 1.1536-0.98437 1.8558-1.0482 1.7144-1.5631 1.5001-2.6113 0.66116-2.2923 0.56083-1.3717 1.0123-0.597 1.7144-0.0638 2.1613 0.45116 2.5124-2.0325 2.3756-1.112 2.3026-1.3079 2.371-0.6608 2.5169-1.2396 2.6583-1.4355 2.4394-3.0169-0.27829-2.2239 0.93931-2.3561 0.13696-1.6953-1.9515 0.98892-3.8072 0.66081-1.295 0.196-2.1613-0.45116-3.6659 0.06377-3.0094 1.5586-2.5169 2.0325-2.795 2.9531-3.6658 1.5631-2.7221 0.51497-2.02 0.31902-3.3148-1.1165-2.868-4.8351-2.3026 7.5377-12.01-12.437-5.9002 5.8195-6.6755-2.8711-6.6023v-8.7638l7.3235-5.1705 0.72916-6.6023-3.6593-7.4001 0.72915-9.5661-8.7864-6.5797-12.5-3.7343-10.277-2.8635 2.9577-13.374-5.8879-5.0976-1.4355-13.3-9.8936-22.274 3.2767-1.2265 1.7773-1.947 2.7389-3.0094 1.9687-1.0077 1.6907-1.7874 1.4355-1.7874 1.4993-0.79795 0.53776-1.5047 1.9687 6.4609 1.9049 2.8635 1.2396 2.0245 1.9049 3.1689 0.98892 2.6583 1.1758 2.1613 1.112 1.9515 1.6269 0.86634 2.0325-1.2904 1.1803-1.1536 0.92057-0.35109 1.3034-0.5654 1.3717 0.06846 1.112 0.14137 1.9049 0.35109 2.5475-1.295 2.3561-2.5169 1.6269-1.4317h1.9049l2.4199 0.14137 2.0964 0.72953 1.3079 0.8709 2.8893 1.3634 1.4948 0.63379 1.112 1.7828 0.72917 1.3634-0.0638 1.2949-1.3034 1.9515-2.0325 1.7829-0.60156 2.5853 0.66536 2.5853 1.9049 2.5853 2.4199 3.0094 2.9576 0.93932 2.0964 1.5001 3.7914 2.5124 0.92057 1.0852 2.4837 1.5731 1.3717 0.56084 1.1165 0.93929 2.7389 1.5001 1.3079 0.79798 0.92057 0.79792 1.4993 2.3026 0.38282 1.0077 0.25535 1.2949v1.4317l-0.38738 1.5731-2.2877 2.1613-2.6751 0.87093-1.6907 1.4363 0.0638 2.5853 1.6907 2.371 0.92056 1.7874 1.6908 0.80249 3.0852 0.3511 2.4837 0.28273 2.2878 0.86635 0.85675 0.63379 0.66539 1.5047 0.51494 2.3026 1.0482 1.9516 2.2923 0.79793 1.112 1.0077 0.92057 1.4317 0.19134 1.4363 0.45114 2.0199-1.1119 2.3027-1.4993 1.7144-1.112 0.79795 0.0637 2.3756-0.0637 1.4317 0.25535 1.8558 0.064 1.4318 0.72916 2.0199 1.2441 1.295 1.7727 1.2904 1.0482 1.4363 2.2285 0.87089 0.98436 0.14144 1.7774-0.72953 1.7773-2.7267 0.31901-1.4317 0.85676-0.72961 1.1758-0.27829 0.98436 0.27829 0.79296 1.5777-0.12768 1.222 0.19135 0.93925 2.8072-2.444 0.31902-0.28719 1.4355-2.0199 0.85676-1.295 0.66537-0.42402 1.112-1.0077 1.7773-0.41953 1.6269 1.1536 0.92057 1.5731 0.45118 2.4394 0.66535 2.517 0.25535 2.2342 0.72917 2.02h3.067l2.1601 0.35105h0.79296l1.6269 1.222 2.1601 1.4317 3.0853 1.4363 1.4355-0.28274 1.5632-0.14127 2.2285 0.14127 2.5475 0.72953 2.2285 1.8558 1.112 2.3026 0.72915 2.02 0.12765 2.3026-0.19135 2.1613-0.25535 0.87089 0.72916 1.7144 2.0325 2.5854 0.72915 1.2904-0.0636 0.63379 0.0636 1.5046-0.51039 1.1536-1.6269 1.222-1.3672 0.49693-1.3717 0.14144-2.224 0.87089-0.2598 1.0123 0.32346 2.0199 1.4356 1.7874 1.112 1.0806v3.0778l0.2598 1.222 0.25535 2.1613v1.1536l0.12765 0.72952-0.12765 1.0123-0.7884 1.0806-0.98896 2.02-0.51039 2.3756 0.25535 3.5929 0.92057 2.7267 0.98435 2.5123 1.4355 2.9365 0.25536 2.3026-0.98437 2.3027-1.9049 0.14144-1.3079-0.72954-2.0963-1.0123-1.5632-0.42406-1.1803 0.28273-1.7773 0.42409-0.85676 0.86632-1.2396 0.72952-1.9733-1.0077-1.7728-1.5776-2.1647-0.28274-1.4356 0.72954-0.98437 0.42406-2.1601 1.1536-1.9049 0.27829-2.8255-1.4317-2.5475-2.5853-1.112-2.0245-1.1803-1.2904-1.0481-0.63379-1.6908-0.35564-3.532-1.2949-1.0482-1.4318-1.4948-2.5854-2.6113-3.4563-1.1119-2.02z" fill="#a3b0a3"/>
 </g>
 <path d="m313.71 262.54-4.7109-3.1086h-3.5332l-1.5702-1.5543-2.7481-1.5543-1.5703-11.398-6.0587-2.637h-3.8262l-6.696-3.7872-4.7828-3.3664-4.7828-2.9456-11.16-5.0496-13.711-9.6784-2.232-2.9456-7.9714-1.6832-2.5508 1.6832h-6.0582l-2.232-2.5248-1.9132-2.5248-0.6377-5.0496-2.5508-2.5248-0.6377-3.7872-1.2754-3.7872-1.2754-1.6832-2.5508-1.6832-0.31885-4.6288-2.8697-0.84161 1.2754-3.7872-0.95657-1.6832-2.8697-0.84162-1.5943-2.5248-3.8262-2.5248-14.03-5.4704-4.1451-4.208-3.5074-1.2624-3.1886 0.84161-6.3771-0.84161-3.5074-4.208-1.9131-2.9456-1.9131-1.2624-2.232-2.104-3.8262-0.84162-3.8262-2.104-0.31886-3.3664-2.232-3.3664-2.8697-0.4208-1.2754-5.8912-5.7394-2.104-3.1885-10.099h-5.1017l-4.7828-5.8912-3.1885-4.208-2.232-5.8912-1.5943-2.104-1.9131-0.8416-2.5508 0.4208-0.95655 1.2624-3.1886-0.4208-3.1885-1.2624-1.9131-0.42081-0.95656-2.5248-1.5943-2.5248-1.5943-3.7872-5.7394-6.7328-2.232 1.6832-3.1885-0.8416-0.95656-3.3664-2.8697-3.3664-6.0582-0.8416-3.8262-3.7872-6.6959-2.104-8.6091-7.9952-7.6525-8.8368-4.464-1.6832-4.4639 0.4208-13.711-5.8912-5.4205 5.4704 0.31886 5.4704 0.31885 8.416" fill="none" stroke="#345" stroke-width=".5px"/>
 <g fill-rule="evenodd" stroke-width=".29752">
  <ellipse cx="31.414" cy="70.328" rx="5.743" ry="5.8912"/>
  <ellipse cx="99.17" cy="91.929" rx="5.743" ry="5.8912"/>
  <ellipse cx="157.52" cy="150.84" rx="5.743" ry="5.8912"/>
  <ellipse cx="314.06" cy="262.49" rx="5.743" ry="5.8912"/>
 </g>
 <g font-family="sans-serif" font-size="3.5278px" letter-spacing="0px" stroke-width=".26459" word-spacing="0px">
  <text x="36.891876" y="88.001755" style="line-height:1.25" xml:space="preserve"><tspan x="36.891876" y="88.001755" font-size="7.0556px" stroke-width=".26459">Garhwa</tspan></text>
  <text x="104.21937" y="85.196442" style="line-height:1.25" xml:space="preserve"><tspan x="104.21937" y="85.196442" font-size="7.0556px" stroke-width=".26459">Daltonganj</tspan></text>
  <text x="156.95924" y="139.61952" style="line-height:1.25" xml:space="preserve"><tspan x="156.95924" y="139.61952" font-size="7.0556px" stroke-width=".26459">Latehar</tspan></text>
  <text x="276.46558" y="264.73642" style="line-height:1.25" xml:space="preserve"><tspan x="276.46558" y="264.73642" font-size="7.0556px" stroke-width=".26459">Ranchi</tspan></text>
 </g>
 <g fill="none" stroke="#000">
  <path d="m70.523 87.944-2.3327 1.6662-1.6662 1.9995-0.99973 0.6665-0.99973-0.6665-0.33324-0.99973h-1.333l-1.6662 0.99973-0.33324 1.9995-0.66649 0.66648h-1.6662l-0.66648-2.3327-1.6662-0.99973h-1.9995l-1.6662 0.33324-1.9995 0.99973 1.6662 2.666 2.666 0.66649 3.3324 0.66649-0.33324 0.66648-1.6662 0.66649-1.134 0.91919v0.5733l-1.3377 1.3377 1.7199-0.19111 1.1466-0.19109 1.3377-0.57332-0.1911-0.76441v-0.38221l1.7199-0.95551 3.6309 1.911 0.19111 1.1466-0.95552 0.95551v1.7199l0.57332 0.57331 2.1021-1.5288 0.38221-0.95551v-0.3822l0.58176-0.42703 0.89209 0.89209-0.71366 0.8921-0.89209 1.7842 0.89209 0.53527 1.2489 0.71367 1.9626 0.17842-0.35683-1.0705v-1.2489l2.3194 2.3194 0.71368-0.8921 1.0705-0.53526 1.2489-0.17841 0.35683-1.0705v-0.8921l1.4274 0.17842 1.9626 1.2489-1.0705 0.17844h-0.53526l-1.0705-0.35685 0.53525 1.7842-1.4273 0.71366-1.6058 0.89211 1.4274 0.89209 0.35683 1.4273 1.7842 1.7842-0.35683 0.35685-0.53526 0.35683-0.35683 1.9626 1.9626 1.4273 1.0705 0.35684 1.2489-0.35684 1.0705 1.4274 1.4274 0.35685v-1.0705l1.0705-0.53524 0.35683-0.8921h1.6058l0.35685 1.4273v1.0705l1.0705-0.17843 1.2489-0.17842 1.2489 0.35685 0.53526 0.71366-0.71367 0.89211-1.6058-0.35685-1.0705-0.17841-0.71368-0.35685-0.89209-0.35683-0.89209-0.17842 0.17842 1.0705-0.17842 1.4274-0.71368 0.71367-0.71368 1.0705-0.71368 0.71368-1.0705 0.89209-1.4274 0.53527-1.0705 0.35683-1.4274-0.17842-0.71368-0.53526-0.35683-0.17842-0.35685 1.0705-0.53525 0.71368-0.53526 0.53526-0.53526 1.0705-1.4273 1.0705h-1.0705l-0.89209 0.35685h-0.53525l-0.89209-0.17843-0.35685 1.4274-0.71368 0.71368 0.17843 1.0705h-0.71368l-0.53526-0.35683-1.0705-0.35684-0.71368 0.53525-0.53526 0.89209 0.17842 0.53527h-0.71366l-1.2489 0.17841-0.71368 1.2489-0.53525 1.2489h-0.89211l-1.4273 1.6058 0.89209 1.2489 1.4274 0.89209h2.141l1.6058 1.0705 0.53526 1.6058h1.9626l1.4274-1.0705 2.3194-1.0705 2.4979-0.8921 1.9626 1.2489h1.2489l0.53525-0.53526h1.4274l0.71368 0.71368 1.7842-0.35683v-2.3194l-0.53526-0.35685-0.53525-0.71368h-1.0705l-0.35683 0.53527-0.89209-0.35684v-0.53526l-1.4274-0.35683h-0.53526l-0.89209 0.53525-0.89209-0.35683-0.71368-0.53526h-1.4273l-1.4274-0.71368 1.6058-0.8921h0.71368l1.4274-1.0705 1.4273-1.6058 1.4274 0.89209v-1.4274h0.89209l0.89209-0.53524 1.2489-0.53527h0.89209l1.2489 1.0705 0.53526-1.2489 0.17842-1.6058-0.17842-0.35685v-0.71366h1.4274l0.35683-0.35685 0.53526-1.2489h1.7842l-0.53526-1.6058h1.0705l0.89211 0.17841-0.17842-0.53526 0.35683-1.0705h1.0705l1.7842 1.0705 2.6804-1.4921v-0.77844l-0.31137-1.0898-1.0898-0.62275 1.7125-1.7126 1.7125 1.2455 1.0898 0.31137 0.62275-1.0898 0.31137-0.62274v-0.46707l-0.77843-0.62274v-0.62274l0.46706-1.0898 0.62274-0.62275v-2.3353l-1.0898-0.62274-1.2455-0.31137-0.31137-0.62275-0.15569-1.0898-0.15568-1.5568-1.5569-1.0898-0.46706-0.93412 0.46706-1.8682-1.4012 0.15567h-1.4012l0.46706-1.2455h-2.1796l-0.77843-0.15569-0.62274-0.77843-0.31137-0.62274h-0.77844l-0.9341 0.31137-0.46706 1.2455-0.77843-0.62275-1.7125-0.46705-1.4012-0.77843h-3.2694l-1.5569-0.15568-1.4012-0.31138-0.31137-0.93411v-0.77844l-0.62274-0.93411-1.4012-0.46706-0.15569-0.15568v-0.93412l-0.46706-0.77843-0.62274-0.62274 0.46706-1.2455 0.62274-1.0898 0.62276-1.4012-0.62276-0.46705-1.0898-0.93412z" fill="green" stroke="none" stroke-width=".40323px"/>
  <path d="m85.607 132.1-0.45526 1.6692-0.3035 1.214 0.3035 1.5175h0.75876l0.607-0.30351 1.6693 2.1245-0.9105 0.91051-0.607 1.6692v1.9728l-0.9105 0.15175-1.6693 1.214-0.75876 0.607 0.45526 2.1245 0.75876 1.214h1.3658l2.428 1.6693 1.214 0.607h0.75874l0.91052-0.15176 2.7315 1.214 0.45526 1.6693 2.1245 1.3658 1.821 0.607h1.9728l1.6693-0.15174 1.6693-0.91049 0.45524-1.5175v-0.60701l-1.214-0.45526-0.60701-1.821 0.60701-2.2763 1.214-1.214 1.5175 0.607 1.6693 0.60701 1.6692 0.15175 1.214 0.607 1.6693 0.15175 1.5175 0.607 1.214 0.45526 0.45526 0.45526 1.5175 0.45524 1.3658 0.15176-0.15175 1.5175 0.91051 0.91051h2.1245l0.75875 0.75876 1.6693-0.91052h1.6693l1.9728 0.607-0.15177-1.821 1.6693-0.91049h1.214l1.5175-0.91051 0.75877-0.45526h1.5175l-0.15174 1.6693 1.0623-0.45525 1.3658-0.15176-0.30352 1.0623-0.75874 0.60701-0.45526 0.60701v2.7315l-0.91049-1.6692-0.60702 0.15174-1.214 0.45526-0.75876 1.821-0.45526 2.428-0.15174 0.9105 1.0622-1.6693 0.91051-0.91051 1.214-0.30351 0.30349 1.6693 1.6693 0.75874 1.0623-0.75874 0.60701-1.0623-0.30351-1.214h2.5798l0.91052 0.45526 1.5175 0.91051-0.30352-1.3658-0.60699-0.3035 0.3035-0.75875 1.0623-1.5175v-0.75874l-1.0623-0.45526 0.75875-0.9105 0.75877-0.45526 1.214-0.607 0.45525-0.15176-0.15174-0.75875 1.3658-1.6693 0.30351-1.0623 1.5175 0.15177-0.30351-1.6693v-0.75876l0.30351-0.15175v-0.91051l-0.91051-0.15175-0.30349-0.60701 0.607-1.214-1.9728 0.15175-1.214-0.91049-0.607-1.0623v-0.60701h0.607l1.214 0.15175-0.75876-0.9105-0.15175-0.45526v-1.0622h-0.45525l-1.3658 0.91049-1.6693 1.821-0.60701-1.3658-1.821-0.45526v1.3658l-0.15176 2.1245-1.9728 0.15177-1.3658-0.15177 0.15174-0.45523 1.214-1.214-0.15176-0.45525h-1.0622l-0.75877 0.30351-0.45523 1.0622-0.75876 0.91051h-1.6693l-1.3658-0.45526-2.5798 1.214-2.8833 1.214v1.214l-1.214 1.821-1.0623-0.15177-1.821-0.15175h-1.0623l-0.15175-0.607-0.607-1.5175v-0.75876l-0.30351-1.3658-0.45524-1.821-0.75877-0.607-0.45526-2.1245-0.30349-2.2763h-1.6693l-0.15174 2.428-1.214 1.214-1.0622 0.15177-0.60701-0.60702-0.45525-1.214-1.3658-0.45526 1.214-1.214 1.3658-0.30351 0.15175-0.91051v-0.75875l1.3658-0.607-0.15175-0.607-1.6693-0.60702-0.60701-0.607-0.45524-1.5175h-3.3385l-1.9728-0.91051-1.5175-0.30349-0.91051-0.30351h-2.1245l-2.1245 0.91051-1.6693 0.15175-0.45526 0.9105h-2.8833l-0.3035 1.3658 0.3035 0.91051-2.1245-0.15176-0.45524-0.607-1.6693 0.15174-0.30352 0.60702h-1.5175z" fill="green" stroke="none" stroke-width=".39304px"/>
  <path d="m26.697 95.87-1.7301 1.7301 1.4156 3.6175 1.7301 0.62914 0.78643 1.4156 0.15728 1.101s0.15728-0.15729 0.15728 0.94371v1.101l-1.101-0.94372h-1.7301l-0.94371 0.1573-0.47185 1.5728v1.2583l-0.62914 0.94372-0.15728 1.4156-0.47185 0.78642-1.4156 0.62913-0.31457 1.7301 1.2583 1.2583h1.101l0.94371-1.2583 0.78642-0.31456v-1.8874l0.15728-0.47185 1.101 1.4156h1.4156l0.62914 0.78642 0.94371-0.31455-0.62914 1.101 0.15728 1.4156 1.4156 0.31456 1.101-0.47187 1.2583 0.31458h0.47185v-1.101l0.9437 1.7301h0.78642v-0.94373l0.31457-0.94369v-1.4156l-0.47185-0.78643 0.47185-0.31456 1.101-0.31458 0.47185 1.8874v3.1457l1.7301 0.47186 1.7301-0.31458v-1.101l-0.15728-1.5728v-1.5728l0.62914-1.101 0.15728-1.4156-0.78642-0.94369-1.8874-2.3593-0.9437-3.1457-1.2583-2.6738-1.7301-1.5728-0.78642-0.78643-0.78642-0.31456-1.4156-0.31457 1.4156 2.202-2.0447-0.94371-0.31457-0.7864h-1.4156l-0.9437 0.15727-1.2583-0.31456v-1.5728z" fill="green" stroke="none" stroke-width=".40737px"/>
 </g>
 <text x="47.209923" y="114.91737" fill="#000000" font-family="sans-serif" font-size="3.5278px" letter-spacing="0px" stroke-width=".26458" word-spacing="0px" style="line-height:1.25" xml:space="preserve"><tspan x="47.209923" y="114.91737" stroke-width=".26458">Latehar Range</tspan></text>
</svg>
