<svg width="239.56mm" height="252.95mm" version="1.1" viewBox="0 0 239.55978 252.94869" xmlns="http://www.w3.org/2000/svg" xmlns:cc="http://creativecommons.org/ns#" xmlns:dc="http://purl.org/dc/elements/1.1/" xmlns:rdf="http://www.w3.org/1999/02/22-rdf-syntax-ns#">
 <metadata>
  <rdf:RDF>
   <cc:Work rdf:about="">
    <dc:format>image/svg+xml</dc:format>
    <dc:type rdf:resource="http://purl.org/dc/dcmitype/StillImage"/>
    <dc:title/>
   </cc:Work>
  </rdf:RDF>
 </metadata>
 <g fill="none" stroke="#000">
  <g transform="translate(-.93743 15.524)" stroke="#fff" stroke-width=".5">
   <path id="Papum Pare" d="m191.04 153.55c-3.7435-3.2321-8.1415 1.391-10.833 3.5184-3.5348 2.7943-8.6815 3.0316-12.56 0.73644-4.0666-2.4098-8.698-1.2969-13.006-0.0696-1.346 0.38452-2.647 0.945-3.6739 1.9228-1.702 1.616-1.3338 3.6698-2.5447 5.3105-1.0228 1.3869-3.0971 1.0432-4.0053 2.9252-0.67094 1.391 0.52368 3.7434 0.87142 5.0977 1.2192 4.7747-2.242 6.4848-6.5867 6.4314-5.6828-0.0737-11.823 1.0023-17.42 0.10227-0.29048-1.5547-1.6038-1.7674-2.6961-2.5734-1.7633-1.2969-0.28642-3.0438-1.0146-4.6517-1.0801-2.3851-5.1059-4.1279-7.3763-5.0812-5e-3 -2.5651 2.4261-3.2483 4.3652-4.0625 2.7575-1.1578 5.2082-3.6534 6.3126-6.4355-4.6231-2.0292-7.6832-7.1759-10.58-11.062-2.8884-3.8745-2.6838-9.1643-8.6364-7.397-2.1274 0.63413-3.8579-0.90412-5.4741-2.0333-2.3647-1.657-5.797-1.2928-8.5424-1.2314-5.5395 0.1271-6.7217 3.1052-9.3812 6.7544 1.5751 1.9638 6.3821 1.7551 5.9527 4.7826-0.29048 2.0456-6.8529 8.4525-0.31503 8.6612 1.4033 2.1315-0.13094 4.8686 1.7551 6.8446 1.7347 1.8247 3.7639 2.4915 4.4062 5.2326 1.571 6.7138-4.889 4.7991-7.2413 9.0008-0.94914 1.6978-0.84687 3.809-1.256 5.662-0.43366 1.9719-2.1724 2.4097-3.7434 3.3139-3.4121 1.9679-8.0595 6.2227-6.7834 10.657 3.4325-0.76914 11.108-4.255 11.005 2.9129-0.05737 4.038-7.315 3.0111-9.9866 4.7047-5.6132 3.5553 3.5757 4.9709 5.5639 5.6542 0.73233 0.25006 9.0455 4.6679 9.1477 5.7523 0.27413 2.9498 0.17602 6.542 1.8124 9.1357 0.96551 1.526 2.3852 1.0105 3.7434 1.7633 1.9188 1.0596 1.3992 3.4571 1.6651 5.3432 1.7756 0.68734 3.318 1.7797 4.5002 3.4161 4.2588 5.8914 5.9159-0.0376 10.85-0.63818 2.8884-0.35196 5.785-0.52369 8.6815-0.88374 2.9252-0.36813 6.3088 0.22486 8.7676-1.7101 1.3255-1.0432 2.5897-2.2256 3.8335-3.453 3.2607-3.2116 6.4111-6.7217 10.302-8.8736 2.467-1.3664 10.06-1.7838 5.6173-6.137-3.9519-3.8744-3.2689-4.3531-0.11873-8.522 3.7353-4.9503 8.0475-9.0007 12.331-13.431 4.1321-4.2753 6.3904-9.2789 11.742-12.241 4.8766-2.7002 6.6972-7.3643 11.562-10.113 4.0504-2.2912 8.2396-5.6625 11.905-8.8492-2.0333-1.616-1.0269-4.5536-2.917-6.1859z" fill="#cc2" />
   <path id="Kurung Kumey" d="m123.8 136.25c2.1683-2.197 4.8972-4.5904 5.1714-7.8674 0.38869-4.66-0.56459-7.2293 3.8211-9.9374 1.4074-0.86734 2.9047-1.5874 4.2182-2.6019 1.4524-1.121 1.6446-2.9785 3.0111-4.1934 2.823-2.512 6.7544-3.1298 9.6798-5.785 2.2216-2.017 5.2326-3.3998 7.18-5.6662 2.2665-2.6347 3.8704-8.1212 4.525-11.566-4.4472-2.7615-6.9631-9.6264-12.323-10.985 0.99414-5.9855 2.287-9.8065-0.70369-15.428-0.95733-1.796-1.1169-3.7066-1.3992-5.6869-0.38865-2.7411-2.2338-4.9134-3.4407-7.315-3.4734-0.18839-6.2637-0.34782-9.021-2.7084-2.2379-1.9146-4.6273-5.0364-7.8757-4.9913-3.7842 0.0534-6.108 3.817-9.0785 5.5763-2.6306 1.5546-6.1859 1.2601-9.1072 1.0106-1.9106-0.1632-3.7353-0.99421-5.6542-0.97789-2.1438 0.01504-4.3735 0.29856-6.4765-0.27412-3.0643-0.83049-4.525-3.8335-6.7954-5.7684-4.8194-4.1035-11.885-3.4448-17.776-3.3712-0.48687 1.4196-1.2642 2.5652-2.4506 3.1298-4.2753 2.0334-8.5792-2.3279-12.163-1.7592 0.01273 4.7908-7.7366 2.8925-11.087 3.0643 2.9211 5.1138-1.1946 17.15-4.4923 8.5303-1.9597 0.9369-4.079 1.4892-6.0182 2.4465-2.962 1.4606-2.1847 0.87964-4.4513 3.9768-2.8557 3.9031-4.6107 4.2016-9.5407 3.8865-0.43366-1.9024-0.69548-3.5144-1.9187-4.8931-1.6978 1.1578-3.1748 2.6307-4.5494 4.1975-2.8352 3.2238-5.2571 6.8202-8.3664 8.7755-2.3401 1.4728-5.4413 0.34745-5.5312 4.8973-0.053166 2.7084 2.2338 6.1287 5.2939 5.6132 1.5506 3.1871 5.3022 4.8604 5.4045 8.6856 0.01654 0.53997-0.04501 1.0514-0.16778 1.5382 2.647 2.5529 7.2782 1.4115 10.563 1.7551 4.1445 0.43371 9.0334 2.8107 10.883 6.7217 1.5015 3.1748 0.52368 8.2438 4.525 9.6757 4.2182 1.5097 8.886 1.3828 13.284 1.6652 2.1315 0.13499 4.4227 0.91231 6.5498 0.65455 0.90008-0.0263 1.7019-0.3027 2.4138-0.82229 1.4197-0.96962 2.5488-0.0376 4.0095-0.52377 1.8083-0.60544 1.8533-2.4014 4.1159-2.0824 1.7019 0.23765 3.6084 2.2338 4.2099 3.7517 1.4115 3.5593-3.0561 6.0674-3.0929 9.5489-0.03267 3.2729 2.3729 8.612-1.211 10.846 1.4769 2.3851 3.9234 3.6616 5.0198 6.3536 1.0105 2.4874 1.9719 3.2974 4.8111 3.1297 0.02444 0.52369 0.20456 0.94509 0.48684 1.2969 2.6593-3.6534 3.8418-6.6277 9.3812-6.7548 2.7452-0.0612 6.1776-0.42957 8.5424 1.2314 1.612 1.1292 3.3466 2.6675 5.4741 2.0333 5.9527-1.7715 5.7482 3.5185 8.6364 7.397 2.0006 2.6838 4.0832 5.9689 6.7014 8.4115 0.21269-3.3466 1.1578-5.9117 2.5611-8.9187 1.3664-2.9906 1.8247-6.501 4.2182-8.9229z" fill="#e2b584" />
   <path id="Lower Subansiri" d="m192.6 135.01c2.3934-2.1029 4.3122-4.701 6.73-6.7709 2.8843-2.467 10.989-2.5406 8.5382-7.7854-1.3501-0.053-5.5519-0.70775-4.1362-3.0479 0.16357-0.26998 0.364-0.52365 0.58507-0.76096-7.5196-0.77735-9.8107-8.833-14.638-13.084-4.0136-3.5307-13.341 3.5062-16.181-2.0088-1.3869-2.6961-0.39276-5.9444-1.0596-8.8003-0.94914-4.0707-4.7337-2.7002-7.7813-2.9743-1.211-0.11055-2.2788-0.51959-3.2525-1.1251-0.65457 3.4448-2.2584 8.9312-4.525 11.566-1.9474 2.2665-4.9585 3.6452-7.1801 5.6662-2.9252 2.6552-6.8567 3.273-9.6798 5.785-1.3664 1.215-1.5587 3.0766-3.0111 4.1934-1.3133 1.0146-2.8106 1.7347-4.2182 2.602-4.3859 2.7043-3.4325 5.2736-3.8211 9.9374-0.27416 3.2771-3.003 5.6745-5.1714 7.8674-2.3934 2.4261-2.8516 5.9321-4.2385 8.9064-1.4033 3.007-2.3483 5.5722-2.5611 8.9188 1.1742 1.0923 2.4507 2.021 3.8824 2.651-1.1046 2.7821-3.5511 5.2778-6.3126 6.4356-1.9433 0.81413-4.3693 1.4932-4.3652 4.0624 2.2706 0.95327 6.2964 2.6961 7.3763 5.0812 0.72823 1.6078-0.74459 3.3548 1.0146 4.6517 1.0924 0.80191 2.4056 1.0146 2.6961 2.5734 5.6008 0.90005 11.738-0.17599 17.42-0.10226 4.3449 0.0571 7.8103-1.657 6.5867-6.4314-0.34775-1.3542-1.5383-3.7066-0.87142-5.0976 0.90413-1.882 2.9825-1.5383 4.0053-2.9252 1.2069-1.6406 0.84281-3.6902 2.5447-5.3104 1.0269-0.97376 2.3279-1.5384 3.6739-1.9228 4.3039-1.2233 8.9394-2.3402 13.006 0.0696 3.8786 2.2992 9.0252 2.0579 12.56-0.73641 2.692-2.1275 7.086-6.7506 10.833-3.5184 1.8902 1.6324 0.88371 4.5697 2.9334 6.1735 0.60546-0.52771 1.1987-1.0514 1.7756-1.5628 1.4442-1.2887 5.2285-1.5056 5.3676-3.7681 0.13085-2.1438-1.7715-4.7991-2.6306-6.6604-0.58504-1.2683-3.6698-3.2607-3.6576-4.4757 0-0.11848 0.0301-0.25344 0.0655-0.39276-2.2133-0.0301-3.6985-0.65872-5.7072-1.7183-0.87554-3.048 1.4156-4.4145 3.4039-6.1614z" fill="#a3b0a3" />
   <path id="Upper Subansiri" d="m89.426 41.069c2.2792 1.9389 3.7427 4.9475 6.8087 5.7799 2.107 0.57388 4.341 0.29124 6.4893 0.27466 1.9226-0.01491 3.7509 0.81576 5.6652 0.97966 2.9268 0.25054 6.4893 0.54934 9.1251-1.0125 2.976-1.7627 5.3043-5.5341 9.096-5.5873 3.259-0.04517 5.6528 3.0827 7.8912 5.001 2.7628 2.3654 5.5587 2.5253 9.0387 2.7137 1.2093 2.4061 3.0581 4.5828 3.4475 7.3294 0.28284 1.984 0.44268 3.8983 1.402 5.698 2.9966 5.6325 1.7012 9.4611 0.70505 15.459 5.37 1.365 7.8871 8.2396 12.347 11.007 0.0132-0.0614 0.0246-0.12689 0.037-0.1888-0.0132 0.0614-0.0246 0.12733-0.037 0.1888 0.97561 0.60664 2.0455 1.0166 3.259 1.1272 3.0539 0.27465 6.8457-1.0986 7.7966 2.9802 0.66815 2.8614-0.32791 6.1159 1.0617 8.8177 2.8448 5.53 12.191-1.525 16.213 2.0126 4.8371 4.255 7.1328 12.326 14.666 13.109 1.8037-1.9349 5.3002-2.7834 7.5754-3.5212 6.3171-2.0455 12.216-5.1362 18.458-7.3908 3.0827-1.115 13.7-2.1439 8.2475-6.7718-2.3858-2.025-4.0298-3.5744-5.4806-6.403-1.361-2.6562-3.431-2.9432-5.206-4.9313-3.0704-3.4353-1.115-10.183-6.4398-11.535-5.8619-1.488-7.8174-5.8905-7.4443-11.556 0.3116-4.7716-4.5376-8.6823-2.566-13.511 0.54517-1.3323 3.2999-1.861 3.2712-2.763-0.0657-2.2586-1.1232-3.8779-2.7546-5.3454 1.5209-1.1724 4.587-1.3405 5.2757-3.3983 0.43864-1.3199 0.26224-2.8448-1.2215-2.6317-1.9758 0.28672-3.7878-0.05306-5.333-1.2625-1.8119-1.4224-4.3821-0.49189-5.3003-3.2385-1.4757-4.4106-0.13521-10.289-6.69-11.228-2.0128-0.28671-3.0581 1.5536-4.3903 2.6728-1.6929 1.4183-3.8697 1.1723-5.8454 0.5042-3.6934-1.2462-9.2765-3.6032-8.6615-8.1617 0.64354-4.7795-0.11905-6.9565-4.7674-8.4035-5.53-1.7175-7.1328-6.9933-11.835-9.498-4.8206-2.5662-5.6201-4.0746-5.6856-9.0922-0.19677-0.01491-0.38942-0.04107-0.58209-0.08624-5e-3 0-6e-3 0-0.0132-0.0088-4.0704-0.97562-6.1449-6.0056-9.9693-4.009-2.4104 1.2585-2.0332 5.0666-5.3989 5.2633-1.8938 0.11065-3.1236-2.23-4.8904-2.517-5.2143-0.84029-7.6286 4.78-12.925 4.9642-4.3778 0.15155-9.4652-1.361-13.359-2.0291-4.5746-0.78705-8.0591 1.1438-12.47 1.9964-3.8573 0.74607-10.289 0.56567-13.433 2.5538 0.13522 1.7872-0.10262 3.6156-0.69278 5.2472-1.3978-0.63132-3.5458-0.73789-4.8985 0.30705 4.5214 4.3002 1.3199 11.884-2.4965 15.291-0.54931 0.49192-2.6317 0.64772-3.55 1.3445-0.71739 0.54523-0.66001 3.1195-1.4921 3.9191-1.9062 1.8324-5.5669 0.51241-7.0876 3.6811 2.9966 1.5086 3.267 4.0912 7.5957 3.423 0.40174 2.6604 0.53289 6.3661-0.38944 9.0673 5.9192-0.08625 13.003-0.75021 17.831 3.3654z" fill="#c2f0c2" />
  </g>
  <path d="m112.32 231.36 3.4322-2.8265 0.80758 1.0095 1.2114-1.4132h2.4227l1.4132 1.6152 1.4133-2.4227 1.817-1.4132 0.40379-2.6246h3.2303l1.0095-3.0284 1.6151 0.40378 0.40378-0.80757 1.4133-0.80758 1.4132-1.4132 1.2114-0.40379-0.60567-1.6151 2.0189-2.0189v-2.4227l1.2114-1.4133v-1.2114l-0.2019-0.80757-1.4132-0.40379-0.40378-0.40379 1.4132-1.2114-0.80755-2.0189 0.40378-1.6151 1.0095-2.2208 1.6152-1.6152v-2.6246h-1.4132l-1.817 0.20188-0.60567-2.2208-1.4132-1.817-1.6152-1.4133-0.40379-1.6152-0.80757-2.0189-1.6152-1.0095-0.20189-1.817 1.2114-0.80758 0.40378-3.0284 1.6152-3.2303-0.60568-1.817 0.80757-1.6151 1.0095-2.6246 1.6152-1.4132 0.80758-0.80759v-2.8265h3.2303l1.2114-4.8454-1.4133-2.4227 2.4227-3.2303 0.80758-2.4227 3.2303-0.40378v-1.817l1.4133-1.2114v-2.2208l4.4416 0.2019-0.80757-1.817v-1.6151l2.0189-0.60569 0.2019-2.0189 3.6341-1.2114 1.4132-0.80757h2.8265l1.4132-1.6151 0.60568-2.2208 2.2208 0.40378 1.0095 0.20189 0.60568-2.2208 2.6246 1.6152 0.4038-1.0095 1.4132-2.2208-0.4038-2.6246 0.80757-1.4132 1.817 0.60567 1.2114-1.2114 0.60569-2.2208 0.80757-0.80757 1.817 2.6246 0.80758-1.6151 2.2208-0.80757h1.4132l2.2208 0.60567 2.0189 1.817v-1.6151l2.4227-2.0189-1.2114-1.0095-1.0095-1.0095v-0.80758h2.0189l1.4132 0.40379 1.0095-0.80758-0.40378-1.6151-1.2114-1.2114 0.80757-1.0095 3.0284 2.2208 0.20189-1.6152 1.817-0.80757 0.20189-1.0095-0.40378-1.2114-2.2208-0.80757-1.2114-1.6151 0.80757-0.80757 1.4133-0.80757 1.0095-1.0095-1.2114-0.60568-0.20189-0.80758 1.2114-1.6152-1.4132-1.2113v-0.80758l-2.4227 0.60568-1.817-2.0189" stroke-width=".5px"/>
  <path d="m92.626 131.14 2.157-0.2876 1.7256-0.14379 1.438 0.28759 1.5818 0.57519h0.71899l1.7256 1.438 0.57519 0.71899 1.1504 1.2942 1.438 0.28759 1.0066 0.86279 0.2876 0.86278 0.43139 1.1504 1.2942 0.28759 0.57519 1.438 0.71899 0.86278h1.5818l-2.157 2.4446 2.876 0.71898 1.7256-0.57519v-0.57519l1.438-0.71898 0.86278-0.57519 1.438 2.7322-1.7256 0.86278 2.3008 1.0066v1.1504l-1.438 0.57519v0.86278l2.3008 0.1438h2.7322l-1.0066 0.71899 0.43139 0.71899-0.86278 1.438-0.86279 1.0066 1.0066 0.43139-0.43139 0.71899-0.71899 0.71899v1.0066l0.4314 0.71898 1.0066-0.28759-2.0132 3.0197 1.0066 0.57519h2.157l-0.71899 1.2942 0.28759 1.8694h2.3008l1.0066 1.1504-0.71899 2.7322 1.8694 0.4314-0.71899 1.1504 2.157 0.86279 1.8694 1.1504 2.0132 0.14379-0.43141 1.438 1.0066 0.43139v0.57519l1.8694 0.57519" stroke-width=".5px"/>
 </g>
 <g fill-rule="evenodd">
  <g stroke-width=".29254">
   <ellipse cx="91.758" cy="131.6" rx="3.4429" ry="3.477"/>
   <ellipse cx="189.84" cy="102.39" rx="3.4429" ry="3.477"/>
   <ellipse cx="112.65" cy="231.39" rx="3.4429" ry="3.477"/>
  </g>
  <ellipse cx="137.69" cy="165.68" rx="3.0986" ry="3.1293" stroke-width=".26329"/>
  <ellipse cx="125.35" cy="222.87" rx="2.5822" ry="2.6078" stroke-width=".21941"/>
 </g>
 <g fill="#000000" font-family="sans-serif" font-size="3.5278px" letter-spacing="0px" stroke-width=".26459" word-spacing="0px">
  <text x="98.050339" y="241.82222" style="line-height:1.25" xml:space="preserve"><tspan x="98.050339" y="241.82222" font-size="5.6445px" stroke-width=".26459">Gangtok</tspan></text>
  <text x="182.88965" y="94.396538" style="line-height:1.25" xml:space="preserve"><tspan x="182.88965" y="94.396538" font-size="5.6445px" stroke-width=".26459">Daporijo</tspan></text>
  <text x="112.30612" y="216.78767" style="line-height:1.25" xml:space="preserve"><tspan x="112.30612" y="216.78767" font-size="5.6445px" stroke-width=".26459">Yupia</tspan></text>
  <text x="143.94702" y="164.28465" style="line-height:1.25" xml:space="preserve"><tspan x="143.94702" y="164.28465" font-size="5.6445px" stroke-width=".26459">Ziro</tspan></text>
  <text x="93.530205" y="125.34202" style="line-height:1.25" xml:space="preserve"><tspan x="93.530205" y="125.34202" font-size="5.6445px" stroke-width=".26459">Koloriang</tspan></text>
 </g>
</svg>
