<svg width="207.23mm" height="145.05mm" version="1.1" viewBox="0 0 207.23321 145.05009" xmlns="http://www.w3.org/2000/svg" xmlns:cc="http://creativecommons.org/ns#" xmlns:dc="http://purl.org/dc/elements/1.1/" xmlns:rdf="http://www.w3.org/1999/02/22-rdf-syntax-ns#">
 <metadata>
  <rdf:RDF>
   <cc:Work rdf:about="">
    <dc:format>image/svg+xml</dc:format>
    <dc:type rdf:resource="http://purl.org/dc/dcmitype/StillImage"/>
    <dc:title/>
   </cc:Work>
  </rdf:RDF>
 </metadata>
 <g transform="translate(-1.2843 -65.379)" stroke="#fff" stroke-width=".5">
  <path d="m181.81 142.98 1.7645 0.67486 0.69442 0.0455 0.77408 0.21925 1.5909 0.67486 1.7531 0.85141 0.93347 0.62928 1.1099 0.76599 1.7531 1.1162 1.6279 1.1589 1.5511 0.89696 1.3518 0.89693 1.5482 0.80584 1.3917 1.2643 0.49235 0.35025 2.4475 1.9818 0.85661 0.80581 0.61471 0.98524 1.016 1.438 0.11952 0.63216 0.15925 0.58657 0.202 0.49832 0.45536 0.17656 0.23905 0.3531 0.45536 0.62928 0.0797 0.54103 0.41551 1.2614 0.37284 0.89411 0.28173 1.1589 0.31876 1.2643-0.15926 0.71757-0.0797 0.35309 0.11952 1.5262 0.0427 0.49832 0.15946 0.76312-0.45536 2.6852-0.65456 0.35307-1.9239 0.49831-1.3917-0.13107-1.884-0.0882-0.7371 0.54386-1.847 0.0427-2.6183 0.22211h-2.086l-1.2693 0.17379-0.77694 1.9819-0.23908 1.1589-0.20201 0.2648-0.77409 1.1618-1.7104 1.3497-1.4714 1.1589-1.3091 0.17656-1.1526 0.35027-1.5084 0.17657-1.016 0.2648-0.61474-0.0427-0.27891 0.26484-0.81675-0.0882-1.6279-0.49832-2.2057-0.80582-1.2295-0.0455-1.1896 1.3953-1.5909 0.80578-1.5938 1.6117-1.0558 1.0735-1.2295 1.6145-1.5909 1.5262-0.0427 1.3497 0.77411 1.7028 0.73711 1.1589-0.77411 2.0274-1.0587 0.62928-1.5084 1.3924-0.202 1.438-1.016 2.5969-1.2693-0.13108-0.97618-0.67484-0.93633-0.67773-1.3091-0.67482-1.0188 0.26481-0.93348 1.438-1.1896 0.17378-1.3092-0.54102v-0.80865l0.15946-1.9819-0.49232-1.6145-1.8072 0.45277-2.5385-0.35026-0.28178-1.1589-0.0399-1.4807v-1.8793l0.0797-1.3953-0.57487-0.93968-0.23907-1.1162-0.57489-1.6145-1.2294-0.72039-1.2693-0.54108-1.312-0.58941-1.5112-0.21925-0.77411-0.0882-0.97618-0.0882-0.77411 0.0882-1.0558 0.17656 0.61473-0.7204-0.24191-0.54104-0.31874-0.76596-0.57773-0.49832-0.57489-0.89411-0.202-1.2614-0.04-1.6145 0.57489-1.1589 2.0462-1.791 1.1868-0.63215 0.61475-1.0707 0.27889-1.6145-0.36142-0.80583 1.2295-1.1618 1.0587-0.54102 1.1498-0.17656 0.97615 0.26477 1.5511 0.35027 1.1867 0.54388 1.5938-0.63217 1.3092-1.438 1.11-2.2893-0.97336-1.5234-1.2323-1.028-0.97332-0.54102-1.349-0.80868-0.93629-1.3497-1.5909-1.0735-0.0797-1.3497 0.36145-0.85138 1.5112-2.0246 1.847-1.2614 1.7104-0.89696 1.8044-0.80585 1.3917-0.80868 1.6706-0.0882 2.0434 0.63216 1.5511 0.62928 1.016-0.26482 1.2693-0.45559 1.2295-1.6145 1.0587-0.9824 1.2294-1.438 0.97617-2.0274 0.37283-0.98238 0.61757-2.3748 0.61473-1.5718 0.81396-0.76313 1.0587-0.13108 1.6706 0.67483 1.6706 0.8087 2.0861 0.39579 1.7104 0.30757 1.4315 0.17934z" fill="#e2b584"/>
  <path id="Ramgarh" d="m130.21 148.95 4.3315 0.80586 4.1295-1.7911 5.9594-1.4408 4.1295 1.4408 4.0925 2.2438 2.3252 3.0524-1.8043 0.80867-1.7133 0.89412-1.8442 1.2614-1.5112 2.0246-0.36142 0.85141 0.0825 1.3497 1.5909 1.0706 0.93348 1.3497 1.349 0.80584 0.97614 0.54384 1.2295 1.0251 0.9762 1.5291-1.11 2.2893-1.312 1.438-1.5909 0.62931-1.1896-0.54102-1.5511-0.35307-0.97328-0.26483-1.1526 0.17657-1.0558 0.54386-1.2295 1.1589 0.36143 0.80871-0.28174 1.6145-0.61473 1.0706-1.1896 0.63215-2.0434 1.791-0.57488 1.1589 0.04 1.6146 0.20201 1.2614 0.57488 0.89696 0.57489 0.49829 0.32158 0.76313 0.23907 0.54387-0.61474 0.71757-0.81679-0.17657-0.61473 0.35307-0.57489 0.72042-0.53502 1.7455 0.61471 1.307 0.69726 1.0707 0.85378 1.4379 0.36429 0.80871-0.202 1.1589-0.77409 1.0707-2.7805 0.67771-1.9239-0.30754-1.551-0.4556-1.2294-0.17656-1.349-0.26484-0.65458-0.17656-0.77411-0.35308-0.4155-0.58659-0.65456-0.93967-0.45537-0.54102-0.93347-0.80871-0.89649-0.2648-0.65457-0.0882-1.1099-0.17658-0.97619-0.35308-0.85661-0.98239v-1.2643l-0.73428-1.6146-0.36145-1.7882-1.0558-1.791-0.93349-1.8765-1.1099-1.7028-0.61757-0.89696-1.312-2.0246-1.1868-0.49832-2.5016-0.35307-1.3092 1.6572-1.5482 0.17656-2.3677 0.76313-2.2455-1.0735 0.41554-1.2614 0.41265-1.0251-0.1195-1.4836 0.41268-1.3041-0.04-2.0274 0.23907-1.7028 0.15946-0.71754 0.49521-1.6145-0.57489-1.8338-0.49521-0.58657-1.551-1.159-1.5112-0.72039-0.23906-1.9818 1.2295-1.3953 0.41549-0.30753 0.57489-0.67485 0.57489-0.58658 1.349-0.39863 0.81395-1.6572 0.16224-1.028 0.73427-2.9216 0.61757-1.2158 0.89648-0.76599 1.6307 0.26482 1.1099 1.569 0.53505 1.2187 1.884-0.0854 0.89648-0.35309 0.89647-0.54388 0.97618 0.89697 0.65457 0.98237 0.77409 1.7882-0.0797 2.2465 1.1925 1.9819 1.6279 1.1589 1.5112 0.80869 1.349-1.159 2.0434-1.9676 1.0188-1.8765 1.11-2.0701 0.53218-2.2438z" fill="#fcc"/>
  <path id="Giridih" d="m144.66 146.53-5.9594 1.4408-4.1295 1.791-4.3315-0.80582-0.69441-2.1128-0.85665-2.1157-0.57488-1.0707-0.97614-1.1589-2.7407-1.6145-1.8043-0.80866-2.7008-1.0706-2.661-0.80585-2.126-1.438-2.2057-1.1589-1.1498-0.80869-0.32161-1.7455 0.32161-0.85141 0.97617-1.7911 1.5909-1.438 1.884-1.3042 1.551-0.72042 1.9637-0.6777 1.1099-0.2648 0.45538-0.26482 0.8566-0.54104 1.1099-0.89695 0.97616-0.98237 0.49235-0.80584 0.93633-1.3497 0.53218-1.2643 0.20201-2.5969-0.23905-2.0701-0.73711-3.0069-0.41268-0.67486-0.61756-1.5718-0.23905-0.85138-0.53504-2.1555-0.27891-2.6852 0.45535-1.0707 0.89649-1.3953 1.016-2.6424v-1.8793l-0.85664-1.3497-1.349-0.93967-0.97616-0.85138-1.1868-0.72041-0.4952-1.438v-1.6146l-0.15925-1.0706-0.49521-1.438 0.0427-1.5262 0.41551-1.7911 0.97333-0.89409 0.85663-0.41006 1.1896-0.31036 0.41267-0.26483 0.81679-0.76314 0.85378-1.8338 0.4952-1.6601 0.3216-0.85141 2.2455-0.08829 0.93631-0.45561 0.69727-0.26196 1.4287-1.5263h0.41553l0.4155-0.17657 0.81396-0.26482 1.7531-0.45559 1.2693-0.49832 1.6706-0.31037 1.1896-0.3531 2.0434-0.62929 1.349-0.72041h-0.5322 0.5322l-0.81396 0.98239 0.45538 0.80869 1.884 0.45559 2.126 1.0251 1.6706 1.7028 0.89647 3.0099 0.85662 3.0496 0.77698 2.1585 0.45535 0.98238 0.73708 1.922 0.65174 1.3924 1.6706 0.26483 1.3917 0.54385 2.0064 0.26481 0.89646-0.17657 1.5909-0.08829 2.0861 0.35309h0.36144l1.016 0.35309 0.69726 0.17379 1.016 1.5262 0.37283 0.71757-0.33298 1.569-0.23908 1.1162 0.11952 2.1555-0.0399 2.2468-0.0797 1.0706 0.89651 1.3497 1.016 0.17934 1.0587 0.0427 0.89649 0.39582 1.2693 0.13103 0.97617 0.50116 1.7104 0.89412 0.28176 0.72039 0.65172 1.0707 0.57774 1.5262 0.77406 0.22211 1.5909 0.0427 0.73429 0.35309 0.89931 0.80583 0.53219 0.45561 0.3216 0.80867 0.69439 0.35309-0.23902 0.80586-0.27891 0.89693 0.15946 0.58658 0.28171 1.3042 0.49238 1.028 0.97616 1.9221 0.65457 1.1618 0.77696 1.438 0.53504 2.0701-0.16224 1.2614-0.15947 1.438-0.4155 1.2187-0.41553 1.3041-0.2789 1.8338 0.5322 1.0279 1.3917 0.45559 1.7531-0.0882h1.016l0.85662 0.21928 0.65174 1.0279 0.53504-0.26484h0.69442-0.69442l-0.53504 0.26484 0.41553 0.4556 0.0399 1.5262-0.27891 1.2614-0.53505 1.2614-0.73426 0.50119-0.81681 0.84851-0.97614 0.98524-0.65171 0.63213-0.77414 0.89413-0.8168 1.3952-0.61471 0.49833-0.49521 0.58658-1.1099 0.39865-1.4287-0.17656-1.7133-0.30753-2.0833-0.39581-1.6706-0.80584-1.6706-0.6777-1.0587 0.13108-0.81395 0.76596-0.61756 1.569-0.61472 2.3776-0.37571 0.9824-0.97329 2.0246-1.2295 1.438-1.0587 0.98237-1.2294 1.6145-1.2693 0.45276-1.0188 0.2648-1.5482-0.62931-2.0463-0.63213-1.6706 0.0913-1.3888 0.80584-2.3252-3.0524-4.0925-2.2438z" fill="#c2f0c2"/>
  <path id="Koderma" d="m111.43 133.05-3.6372-0.49834-6.4147-2.7877-5.9624-5.4757-0.45534-6.0167-4.1295 0.45276v-5.9284l1.3917-3.6847-2.3252-3.6819-5.0287-1.8793-1.8442-4.1231-2.7407-4.2996h0.81679l1.7104-0.04553 1.5511 0.13104 1.1099-0.17379 1.6706-0.45559 1.8442-0.8514 0.7741-0.76312 1.2294 0.26483 1.7503 0.4983 1.847 0.3958 1.3888 0.30754 1.4714-0.30754 1.1896-0.45274 0.85664-1.1162 0.57488-0.9824 0.36144-2.1585-0.23906-0.67486-0.0398-1.0707 1.3092-0.98238 1.3917 0.49832 1.3092 0.672 1.7502 0.63215 0.89364 0.71755 0.89933 0.6777 1.7104 0.30752 1.1099-1.3497 0.45536-1.1589-0.16225-1.3497-0.53218-0.98238-0.69728-1.6601-0.45536-0.76312-0.45536-1.3497 0.0797-1.0735 0.89648-1.2614 0.93349-0.72041 1.3518-0.45559 0.65174-0.89409 0.16224-1.1589 0.45534-1.9676-0.15925-0.41004-0.28175-1.5718 0.45535-0.89411 0.33297-0.89411v-1.2643l0.57491-0.80585 0.69441-1.2614 1.6308-1.2614 1.4315 0.98239 0.20201 0.89411 0.41264 1.3497 0.57775 1.438 1.2295-0.17379 0.69442-0.45559 0.85662-0.45559 1.3888-0.3531 1.349-0.54103 1.312-0.26198 1.2693-0.17939 0.93635 0.45559 0.49233 1.0279 1.016 0.93966 0.61758 1.1589 0.57488 0.89697 0.53507 0.89411 0.27887 0.98236 0.23909 0.89697-1.4287 1.5262-0.69726 0.26481-0.93349 0.45561-2.2455 0.08829-0.3216 0.85141-0.49236 1.6572-0.8566 1.8338-0.81397 0.76312-0.41551 0.2648-1.1896 0.30752-0.85662 0.41006-0.97333 0.89696-0.41551 1.7882-0.0398 1.5262 0.49233 1.438 0.15947 1.0706v1.6145l0.49521 1.4351 1.1896 0.72041 0.97331 0.85138 1.349 0.93969 0.85664 1.3497v1.8765l-1.016 2.6424-0.89647 1.3924-0.45537 1.0735 0.27891 2.6852 0.53504 2.1585 0.23909 0.85137 0.61756 1.569 0.4155 0.67486 0.73427 3.0069 0.23907 2.0701-0.19923 2.5997-0.53504 1.2614-0.93633 1.3497-0.49233 0.80867-0.9762 0.98238-1.1099 0.89411-0.8538 0.54387-0.45819 0.26484-1.1071 0.2648-1.9666 0.67487-1.551 0.7204-1.884 1.307-1.5909 1.438-0.97617 1.7882z" fill="#abacda"/>
  <path id="Chatra" d="m57.845 169.32 1.3917-9.6415 0.89648-6.4154 3.2358-8.7902 9.5994-0.89414 0.45536-5.974-12.377-5.5185 1.8442-6.9108 2.7805-1.3497-3.2358-6.0167-3.1817-4.5788-0.61473-4.5788-0.61473-0.76028-0.93632-1.1162-0.37283-1.5262-0.11954-2.1555-0.32159-0.80867-0.73711 0.35309-0.65458 0.54387-0.69442 0.54102-0.69442 1.438-0.93632 0.62929-0.89648 0.35306-1.5909 0.89414-1.7104 0.0883-1.4714-0.13104-1.4287-0.0455-1.0587-0.50114-0.61473-0.30754-1.4315-1.6145-0.69442-1.7911-0.93632-1.4807-0.85379-0.49834-1.1498-1.2643-1.349-0.80581-0.61473-1.159-0.81679-1.307-0.69442-0.93964-1.5511-0.80585-1.1498 0.35027-0.73711 0.45559-1.5084 0.54387-1.9666 1.3497-1.0559 0.63213-1.4714 0.63215-1.4714 0.80583-1.1099 0.98238-0.61473 1.2614-0.73711 1.7028-0.65458 1.3497-1.016 0.72039-1.0559 0.0855-1.1896-0.17657-1.5511 0.35311-2.0064 0.26194-1.1896 0.26483-1.1896 1.3497-1.2295 0.98522-0.77695 1.1618-1.4287 1.0706-0.69726 1.6145-0.89648 1.3497-1.0559 1.3497v0.89411l-0.23906 0.98241-1.4315 1.3497-1.6706 0.54385-1.0559 0.89696 0.039844 1.6145 1.0559 1.4807 0.57489 1.1162 1.0559 0.50117 1.9239 0.21925 1.5511 0.17656 1.4315 0.54103 0.53505 0.39581 0.41267 0.93966 0.32159 1.438 0.65458 1.2187 1.4315 0.49829 0.69442 0.62929 0.57489 0.89411 0.1224 0.89699 0.2789 1.2614-0.69442 1.438-0.93632 1.0707-0.69442 0.49832 0.04267 1.4835-0.04267 0.89409 0.16222 1.159 0.03984 0.89408 0.45536 1.2614 0.7741 0.80871 1.1099 0.80583 0.65458 0.89698 1.3917 0.54387 0.61473 0.0882 1.1099-0.4556 1.1099-1.7028 0.20207-0.89411 0.53504-0.45559 0.73426-0.17379 0.61473 0.17379 0.4952 0.9852-0.07969 0.76314 0.12237 0.58659 1.7503-1.5262 0.20207-0.17934 0.89648-1.2614 0.53504-0.80869 0.41267-0.26482 0.69442-0.6293 1.1099-0.26194 1.016 0.7204 0.57489 0.9824 0.28175 1.5234 0.41267 1.5718 0.15938 1.3953 0.45536 1.2614h1.9125l1.349 0.21928h0.4952l1.016 0.76312 1.3518 0.89408 1.9239 0.89698 0.89648-0.17656 0.97617-0.0882 1.3888 0.0882 1.5909 0.4556 1.3917 1.1589 0.69442 1.438 0.45536 1.2614 0.07969 1.438-0.11954 1.3497-0.15938 0.54386 0.45536 1.0707 1.2693 1.6145 0.45536 0.80586-0.03985 0.39579 0.03985 0.93967-0.32159 0.72044-1.016 0.76308-0.85664 0.3104-0.85379 0.0854-1.3917 0.54387-0.15938 0.63213 0.19922 1.2614 0.89648 1.1162 0.69442 0.67488v1.922l0.15938 0.76313 0.16222 1.3497v0.7204l0.07969 0.45562-0.07969-0.45562 1.6307 0.93969 1.7503 1.0706 1.884 0.49832 1.1896-0.35309 1.1868-0.45275 1.4714-0.4556 1.793 0.0882z" fill="#a3b0a3"/>
  <path id="Hazaribagh" d="m71.655 171.76-1.6706-0.89409-1.2295 0.35304-1.5112 1.7028-0.85379 1.6145-1.4714 1.9819-1.1896 1.4807-1.3917 0.13107-1.4287-0.5866-2.0064-1.2614-1.3092-1.3497-1.4315-1.0251 1.6706-4.5788 1.3888-9.6415 0.89648-6.4126 3.2358-8.7902 9.5966-0.8941 0.45536-5.974-12.38-5.5185 1.8442-6.9136 2.7805-1.3497-3.2358-6.0167-3.1817-4.576-0.61473-4.5816 1.9637-1.2614 1.6706-0.71757 0.4952-0.80583 1.4315-0.9824 1.2693-0.80583 1.1498-1.1618 0.32159-1.2614 0.19922-1.3924 0.16222-1.2187 0.57489-0.54387 1.4685-0.21928 1.3917 0.5866 1.1896 0.17657 1.349 0.26194h1.2181l1.1099-0.17657 0.08254-1.2614 0.53504-1.0251 0.49236-1.4835 0.65458-0.26483 0.97617 0.17656h1.3888l0.57489-0.17656 2.7407 4.2997 1.8442 4.1231 5.026 1.8793 2.3252 3.6847-1.3917 3.6817v5.9257l4.1295-0.45275 0.45536 6.0167 5.9622 5.4729 6.4147 2.7878 3.6372 0.50115 0.32159 1.7483 1.1498 0.80586 2.2055 1.1618 2.126 1.438 2.661 0.80586 2.7008 1.0707 1.8044 0.80584 2.7407 1.6145 0.97618 1.1589 0.57488 1.0707 0.85664 2.1128 0.69442 2.1128-0.11949 1.8793-0.53502 2.2438-1.11 2.0701-1.016 1.8793-2.0434 1.9676-1.3518 1.1589-1.5084-0.80581-1.6307-1.159-1.1896-1.9818 0.0427-2.2468-0.73713-1.7882-0.65455-0.98524-0.97331-0.89411-0.89649 0.54388-0.89649 0.3531-1.884 0.0882-0.53502-1.2187-1.11-1.569-1.6307-0.2648-0.8965 0.76312-0.61471 1.2187-0.73711 2.9216-0.15946 1.0251-0.81679 1.6572-1.349 0.39583-0.57489 0.58657-0.57489 0.67484-0.4155 0.31039-1.2295 1.3924 0.23909 1.9818 1.5112 0.7204 1.551 1.1618 0.49236 0.58658 0.57488 1.8338-0.49235 1.6145-0.16224 0.71757-0.23907 1.7028 0.0427 2.0246-0.41552 1.307 0.1195 1.4807-0.4155 1.0251-0.41267 1.2614 2.2455 1.0707 2.365-0.76309 1.551-0.17657 1.3092-1.6573 2.4988 0.35311 1.1896 0.4983 1.312 2.0246 0.61473 0.89695 1.1099 1.7028 0.93347 1.8765 1.0587 1.791 0.36143 1.7911 0.7371 1.6145v1.2614l0.8538 0.98237 0.97616 0.35311 1.11 0.1738 0.65455 0.0882 0.89647 0.26198 0.93351 0.80868 0.45817 0.54104 0.65173 0.93968-1.5482 0.39578-0.97616 0.0882-0.85666 0.17379-0.65458 0.4556-0.49233 0.26481-0.85664 0.72042-0.36143 0.62928-0.45535 0.85141-0.16224 0.58658-1.1498-0.6293-1.884-0.22212-1.016-0.58657-1.884 0.17935-2.0064-0.54672-2.365-0.0427-2.9825 0.0427-4.9462-0.80584-1.6308-0.89694-2.7008-2.2438-1.6307-1.3497-1.5909-0.62928-2.0462-0.45563-1.9267 0.76314-2.9-0.58658-1.7901-0.45276-2.4049-0.80868-3.0622-0.98237-4.3315-0.98241-2.661-1.1589-3.0225-0.80581-2.163-0.54389-1.3518-1.7911-0.37567-1.2928 0.07969-1.2187 0.57489-1.1589 0.85663-1.5718 0.77695-1.5718 0.41267-1.7028z" fill="#e7de69"/>
 </g>
 <g fill="none" stroke="#345">
  <g stroke-width=".5px">
   <path d="m90.005 142.51-2.3217-1.2664-1.6885-0.21105-1.4774-0.63319-1.6885-0.42213 0.21107-1.6885-0.42212-2.9549-3.377-1.2664-3.377-0.21106-3.377-1.6885-4.2213-2.3217-4.6434-1.2664 0.42213-1.8996v-0.63318l-1.2664-1.2664v-2.5328l-0.21106-1.2664 0.63319-2.1106-0.63319-1.6885h-2.7438l-0.63319-0.21106 0.42213-2.1106-0.63319-0.42213h-2.1106l-0.21107-2.9549 0.42213-2.3217-1.4774-2.1106-1.4774-1.2664-0.63319-1.8996-0.42214-0.63319-0.21106-2.3217-0.84426-0.6332-1.8996-1.2664-1.0553-1.4774-6.9651-4.0102 0.21106-3.166 0.42213-2.5328-0.42213-3.5881 0.84426-1.8996 2.3217-1.8996 1.4774-1.8996-0.42213-4.0102 1.2664-1.8996-0.63318-0.84426 1.2664-1.8996-1.2664-2.9549 0.21106-1.0553-0.63319-1.6885 1.2664-4.2213"/>
   <path d="m90.001 142.52 8.8445-6.8944 1.0284-1.8634 1.8512-1.3044 3.0853-2.0497 1.2341-2.4224 0.82276-0.55899 0.61707-1.118-0.82275-1.3044 2.6739-2.795 0.61706-0.74534 0.61707-1.677-0.61707-0.55901 1.8512-1.4907 0.20571-0.74534-0.41138-1.118 0.61705-0.74534v-1.118l-1.4398-0.55902-0.61706-0.18632-0.61707-1.8634-0.20568-0.55901-0.82275-0.55901-0.61705-0.37267 1.0284-2.0497-0.20571-0.55901-1.0284-0.37267-0.82275-0.55901 0.41137-0.74533-0.82275-0.55901-0.61705-0.93168v-0.37268l-0.61706-0.55899-0.82275-1.3044v-1.3043l-0.61706-1.3044-0.82275-0.74534-0.82275-1.4907-0.82276-1.677-0.61705-1.3044-2.0569-2.0497-2.6739-2.6087-1.0284-1.8634 0.61706-2.9814"/>
   <path d="m95.555 84.568 0.22444-1.6987 0.67331-3.822 0.33666-3.185v-1.6987l-0.11222-1.0617-0.44888-1.911 0.22444-1.0617-0.22444-1.6987-0.22444-1.6987 0.22444-1.4863 0.78554-3.185 0.5611-1.911-0.11222-1.0617-0.11222-1.6987 0.22444-2.9727 0.5611-2.7603 0.22444-1.911 0.56109-1.4863 0.78554-0.21234h0.78553l0.5611-1.0617 0.44887-2.3357v-2.9727l0.5611-1.0617h0.44888l0.44888-1.4863 1.1222-1.0617 1.1222-0.42467 0.78554-0.637 1.1222-1.6987h1.4588l1.4588-0.637 1.3466 0.84934h1.01v-0.637l0.89775-3.822"/>
  </g>
  <path d="m95.545 84.581 1.345-0.96071 1.7293-0.19214h1.7293l1.5371-0.38428 1.9214-1.5371 2.1136 0.76856 1.7293-0.57642 1.9214-0.38428 3.0743 0.57642 2.4978-0.38428 2.8821-1.9214 2.1136 0.96071 1.7293-0.76857 0.96071 0.57642 0.76856 0.38428 1.5371-0.19214h2.1136l3.2664-2.4978 4.035-2.69 2.69 0.57642 5.9564 2.69 6.9171 4.6114 1.5371-1.5371h1.5371l1.345-0.38428 1.345-0.96071 1.5371-1.345 2.69 0.38428h2.1136l0.57642-0.57642 0.38428-0.57642 0.19216-1.5371 0.57641-0.76857h1.345l0.96072-0.96071 1.9214-3.2664 1.345-2.3057 1.9214-1.9214 1.345-0.57642 1.345-1.9214" stroke-width=".49px"/>
  <g stroke-width=".5px">
   <path d="m98.846 135.62 3.6659-2.3051 3.4502 1.0478 3.4502 0.20956 0.21563-1.4669 2.1564 0.4191 2.1564-0.62864 2.1564-0.41911 1.9408 0.41911 3.2346-3.3528 3.019-1.4669 2.1564-0.41911 1.0782-1.2573 1.7251-1.0478 1.0782-1.886 1.2938-2.3051 3.6659-0.20956 0.64692-1.0478 1.5095-2.5146 5.391 0.41911 1.2938-1.6764 3.2346 0.83821 0.43128-1.0478 3.019-1.2573 1.0782-2.0955 1.5095-1.2573 0.64692-1.4668-0.43129-1.0478-3.2346-1.886-1.2938-1.6764 0.64691-1.0478 0.21565-1.4668v-1.886l0.86256-0.83821h1.2938l0.64691-0.8382v-2.3051l-1.5095-1.4669 1.0782-1.886v-3.5624l-0.86257-1.2573 0.43128-1.4669-1.0782-0.4191-1.0782-0.62866v-1.0478l0.43128-1.886"/>
   <path d="m150.81 114.67 0.59123-0.70948 1.6555 0.59123 0.82772-0.59123 1.419 0.23649 0.70949 0.82773 0.47297 1.419 0.82774 0.59123 4.7298 0.11824 1.419-2.8379 1.0642-0.11825"/>
   <path d="m150.39 106.92h1.5383l2.393 1.6088 1.1965-0.3575h1.1965l0.85463 0.89375 1.3674-0.3575 1.8802 1.43h1.0256l0.51277-0.53626h1.1965l0.68369-1.43 1.0256-1.0725-0.17092-1.0725 2.393-0.89376 0.51276-1.2512 1.7093-0.71501 1.0256-0.89375 2.3929 0.53625 2.9057-2.86 2.0511 0.89375 1.3674-0.89375 1.1965 0.89375 1.3674-2.5025 1.8802 1.9663 1.7092-1.0725 3.4185 1.2513 2.0511-0.3575 1.5383 0.3575 0.68371 1.2513 2.0511 1.6088"/>
   <path d="m195.34 103.34-1.9845 0.125-3.3075 0.24999-1.5435 0.74997-1.323 0.12498-1.9845 1.4999-2.646 0.37498-1.764 0.125-1.9845-0.37499-2.205 0.49999-1.9845 0.24999v0.62496l2.646 1.3749v0.87496l-0.66153 1.4999v0.37498l1.9845-0.37498-0.22049 1.7499-6.615 0.87497-5.292 0.74996-3.7485 1.125"/>
   <path d="m95.545 84.581-2.8426 0.43733-1.7493 0.21867-2.1866-0.21867-1.968-0.87466-3.0613 0.65599h-2.8426l-1.0933-0.43733-0.87466-0.21866-1.312 0.43733-1.7493 0.43733-1.5307-1.7493-1.968-0.43733-5.248-1.5307-1.312-1.5307-1.7493-0.87466-1.7493-0.43733-1.968-1.312-1.968-0.21866-2.8426-0.43733-2.1866-0.656-1.968 1.312-1.5307 0.656-2.4053 1.312-1.312 0.43733"/>
  </g>
  <path d="m48.003 59.995 4.6472 0.21078 0.80821-0.63232 1.8185-0.42155 1.2123-0.42155h2.4246l2.2226-2.3185 2.2226 0.42155 2.2226-2.3185 3.0308 0.21077 1.0103-1.6862 1.6164-0.63232 2.4246-1.6862 2.0205-1.897 1.8185-1.2646 1.0103-2.1077 1.2123-1.4754 0.4041-1.4754 1.6164-0.63232 2.2226 1.0539 1.2123-1.4754 1.2123-1.4754 2.0205-2.1077 2.6267 1.897h1.0103l0.60615-1.0539v-1.2646l0.8082-0.8431 1.0103-1.2646 0.80821 1.0539h0.8082l0.60615-1.0539 2.6267 0.63232 1.6164 1.0539v1.2646l2.0205 0.8431" stroke-width=".49px"/>
  <path d="m112.39 35.515 3.052-0.21668 1.4086 1.3001 1.1738 0.65003-0.46953 1.0834 1.1738 0.8667h1.6434l1.1738-1.9501 1.8781 0.65002h1.4086l1.1738-0.8667 1.4086 0.8667h2.5824l1.8781-1.3001 2.5824-1.3001 2.1129-0.21667 2.5824 0.8667 2.1129 0.65003h3.2867l4.4606-0.43335 1.6434 1.0834v1.3001l0.70432 1.3001 1.8781 0.8667 0.93907 1.7334 2.3477 0.8667 1.4086 2.1668 5.6344 3.4668-0.70432 1.0834 2.8172 2.3834 5.1648 9.5337 3.2868 3.0335" stroke-width=".49px"/>
  <path d="m174.13 64.983 3.9275 4.8983 1.091 1.3359 0.43638 2.0039h1.7456v1.5586l-0.21821 1.1133 1.1192 1.283 1.1396 1.5505 1.8994 0.38764 1.3296 0.77527 0.18996 1.9382v2.132l-0.18996 0.96909v0.77527l1.3296 1.1629 2.6592 0.77527 1.7094 0.96909 1.3296 1.3567 0.37989 1.9382v2.132l0.18993 0.96909 0.75975 1.3567v1.7444l0.56982 2.3258-0.18993 1.9382v0.96909l-1.5195-0.19382-1.8994 0.38764-1.1396 0.19382" stroke-width=".5px"/>
 </g>
 <g fill-rule="evenodd" stroke-width=".41538">
  <ellipse cx="113.29" cy="30.536" rx="2.4454" ry="2.5838"/>
  <ellipse cx="95.544" cy="84.796" rx="2.4454" ry="2.5838"/>
  <ellipse cx="48.209" cy="60.198" rx="2.4454" ry="2.5838"/>
  <ellipse cx="174.09" cy="65.366" rx="2.4454" ry="2.5838"/>
  <ellipse cx="193.52" cy="102.99" rx="2.4454" ry="2.5838"/>
  <ellipse cx="163.96" cy="113.94" rx="2.4454" ry="2.5838"/>
  <ellipse cx="108.36" cy="109.81" rx="2.4454" ry="2.5838"/>
  <ellipse cx="90.17" cy="142.47" rx="2.4454" ry="2.5838"/>
 </g>
 <g font-family="sans-serif" letter-spacing="0px" stroke-width=".26458" word-spacing="0px">
  <g font-size="3.5278px">
   <text x="95.337784" y="142.46732" style="line-height:1.25" xml:space="preserve"><tspan x="95.337784" y="142.46732" font-size="6.35px" stroke-width=".26458">Ranchi</tspan></text>
   <text x="35.186123" y="54.82365" style="line-height:1.25" xml:space="preserve"><tspan x="35.186123" y="54.82365" font-size="6.35px" stroke-width=".26458">Chatra</tspan></text>
   <text x="77.974419" y="79.835167" style="line-height:1.25" xml:space="preserve"><tspan x="77.974419" y="79.835167" font-size="6.35px" stroke-width=".26458">Hazaribagh</tspan></text>
   <text x="142.46693" y="66.19252" style="line-height:1.25" xml:space="preserve"><tspan x="142.46693" y="66.19252" font-size="6.35px" stroke-width=".26458">Giridih</tspan></text>
  </g>
  <text x="105.2597" y="95.13147" font-size="6.35px" style="line-height:1.25" xml:space="preserve"><tspan x="105.2597" y="95.13147">Ramgarh</tspan><tspan x="105.2597" y="103.06901">Cantonement</tspan></text>
  <g font-size="3.5278px">
   <text x="153.42239" y="123.03689" style="line-height:1.25" xml:space="preserve"><tspan x="153.42239" y="123.03689" font-size="6.35px" stroke-width=".26458">Bokaro steel city</tspan></text>
   <text x="164.17114" y="96.371704" style="line-height:1.25" xml:space="preserve"><tspan x="164.17114" y="96.371704" font-size="6.35px" stroke-width=".26458">Dhanbad</tspan></text>
   <text x="116.21516" y="31.879198" style="line-height:1.25" xml:space="preserve"><tspan x="116.21516" y="31.879198" font-size="6.35px" stroke-width=".26458">Koderma</tspan></text>
  </g>
 </g>
 <path d="m64.492 100.83 1.328 1.941 1.6345 1.1237 0.40863-0.10216 0.51079-0.71511 0.51078-0.20431 0.51079 0.51079 1.0216 0.20431-0.10216 0.91942 0.51079 1.0216 0.81725 0.30648h0.61295v-0.51079l-0.10216-0.61294 0.61294-0.61295 0.7151-0.81725h1.0216l0.91942-0.40864 1.0216 0.10216 0.7151 1.328v2.6561l-1.2259 0.51078h-2.1453l-1.0216 0.30647-0.61294 0.91942-1.0216 0.81726-0.81726 1.0216 0.91942 0.30647 1.6345 0.10216h1.328l-0.10215-0.51079h0.61294l0.7151 0.40863h1.328l0.10216-0.61294 1.0216-0.20431 0.81725 0.61294 1.3281 0.30647 1.4302 0.61294 0.20431-0.51079 0.20431-0.40862-0.20431-0.30648-1.2259-1.1237 1.0216 0.30648 0.81725 0.10216 1.0216 1.0216 0.61294-0.40863v-0.61294l-0.20431-0.10216-0.7151-0.91942 1.1237 0.30648 1.0216 0.40862v-0.30647l0.40863 0.10216 0.91942 0.81725-0.10215-0.81725v-1.2259l1.0216 0.30648 0.61294 0.91941 0.81726-0.20431 0.10215-0.51079v-1.0216l1.4302 1.328 0.81726 0.30647 0.61294-0.20431 0.91942-0.30648 0.20431 0.81726 1.2259-0.51078 0.10215 0.40862-0.30646 0.61295 2.0431-1.0216-0.61295-0.10216h-0.51078l-0.20432-0.20432v-0.40863l0.91942-0.51078-0.91942-0.61294-0.81726-0.81726h-2.6561l0.91942-0.81726 0.7151-0.30648 0.61294-0.61294 0.7151-0.20431v-0.51079l-0.40863-0.91941h0.91941l1.1237-0.10216 1.0216 0.81726 0.91942-0.10216 0.61294-0.40863-0.10215-1.2259 1.0216 0.10216h2.5539l-0.40863-0.51079-1.328-0.7151-0.40863-1.1237h-0.7151l-0.91942-0.10216-0.51079-0.30646-0.7151-0.20432-0.20431-0.51079h1.941l0.81726-0.40863 0.20431-0.61295 0.61294-0.30647 0.40864-0.10216 0.91941-0.30647 0.51078-0.81726h-1.0216l-1.1237-0.40863-1.5324-0.10216h-0.71509l-1.0216-0.30648-1.2259-0.51079h-1.6345l-0.51079 0.10216-1.2259 0.10216-0.30648 1.1237-1.2259 0.10216-1.1237 0.10216 0.7151 0.81726 0.30646 0.51079-0.81725 2.4518h0.81725l0.7151 0.20432-0.40863 0.7151-1.0216 1.0216v0.51079h-0.91942l-0.51078 0.30647h-0.51079l-0.51079-0.20431-0.61294-0.61295-0.30648 0.51079-0.61294 0.7151-0.40863 0.51079-0.20432 1.1237v0.40862l-0.61294 0.10217-0.51079 0.20431-0.20431 0.7151-1.328 0.20431-0.61294-0.30647h-1.0216l-0.40864 0.20432-0.51078-0.40863 0.61294-1.0216 1.0216-1.0216 0.81725-1.0216 0.81726-1.328v-0.61294l-0.51079-0.61295-0.61294-0.7151-1.0216-0.40863-0.51079-0.10216h-0.91942l0.10215-0.61294 0.51079-0.30647-0.30646-0.61295-1.1237-0.30647-0.51078-0.51079-0.7151-1.0216-0.7151-0.30648-1.5324-0.20431h-1.8388l-1.328 0.40863-0.51079 0.61294-0.30648 0.7151v0.81726l-1.2259 0.20431h-0.71509l-1.2259 0.40863h-1.2259l-0.91942-0.20431 0.51079 0.7151v1.0216l-0.61294-0.30648-0.7151 0.40863-0.51079 0.40864z" fill="green" stroke="stroke" stroke-width=".26459px"/>
 <path d="m53.646 99.564 4.508 3.3447h1.5996l0.29084 1.0179 1.1634 0.58168 1.745 0.29085 1.8905 0.14543 0.14542-0.87253-0.29084-0.87252-1.5996-0.87253-0.29084-0.87252-0.58168-1.1634-0.29084-1.018 1.1634 0.14544v-1.4542l-0.43626-1.0179 0.58168-1.745h-1.1634l-0.43626-0.14544h-0.87252l-0.58168 0.87252-0.14542-0.58167v-1.0179l-2.4721 0.58168 1.4542 1.0179 0.58168 1.018-1.0179 0.14542-1.1634 0.14542h-0.87252v0.58169l-1.3088 0.58167z" fill="green" stroke="none" stroke-width=".37664px"/>
 <text x="59.714939" y="92.153008" fill="#000000" font-family="sans-serif" font-size="3.5278px" letter-spacing="0px" stroke-width=".26459" word-spacing="0px" style="line-height:1.25" xml:space="preserve"><tspan x="59.714939" y="92.153008" stroke-width=".26459">Chatra forest range</tspan></text>
</svg>
