<svg width="207.09mm" height="186.28mm" version="1.1" viewBox="0 0 207.08745 186.27878" xmlns="http://www.w3.org/2000/svg" xmlns:cc="http://creativecommons.org/ns#" xmlns:dc="http://purl.org/dc/elements/1.1/" xmlns:rdf="http://www.w3.org/1999/02/22-rdf-syntax-ns#">
 <metadata>
  <rdf:RDF>
   <cc:Work rdf:about="">
    <dc:format>image/svg+xml</dc:format>
    <dc:type rdf:resource="http://purl.org/dc/dcmitype/StillImage"/>
    <dc:title/>
   </cc:Work>
  </rdf:RDF>
 </metadata>
 <g transform="translate(-1.9339 -46.447)" stroke="#fff" stroke-width=".5">
  <path d="m86.352 68.708 1.8876 0.91142 1.1777 0.65691 1.7152-0.12729 0.89044-2.0733-0.2339-2.0733-1.2926-2.644-0.88634-2.2622-0.82889-2.4552-0.2339-3.2351 0.46368-2.139 0.89043-1.8187 0.7099-0.97303 0.1149-0.91142-0.1149-0.65692 2.3512 1.3549 2.5236 1.5437 2.7165 0.71849 1.7152-0.50911 1.7152-0.65278 2.1174-0.65688 2.581 0.12729 2.064 1.478 1.8876 1.946 2.8888 1.8188 2.064 0.84574 2.0066-0.18893 1.7152-2.1349 2.1214-2.8575 1.231-2.3279 2.1789-2.4551 1.7727-0.5091 2.4087 1.2891 0.22979 1.9461-0.59499 2.4551-1.1202 2.2663-1.2351 2.2663-0.82888 1.671-0.11491 1.7572 0.52113 2.0117 1.945 2.5783 3.1226 0.78416 4.3536 1.1619 3.8367 1.671 6.2452 1.4164 4.4152 1.4164 3.4675 1.1619 2.581 0.65278 4.1812 0.84574 2.778-1.1003 2.9504 0.65688 2.2938 0.91142 2.3512 1.9461 3.894 3.1735 2.3513 1.3508 7.1316 1.1618 4.3002-0.06165 3.4099 0.06165 2.8888 0.78416 2.7206-0.25458 1.4649 0.84578 2.7164 0.32019 1.6578 0.90735-0.46369 2.3279 0.29125 1.3548 1.0013 0.84577 1.1161 0.97303 1.1161 1.3548 0.40622 1.1619 0.40215 1.1659 0.0617 0.50912 1.1735 1.6094-0.48006 1.6093-0.40627 1.166-0.93966 2.9806-0.65651 1.671-0.71401 2.5824-0.65657 1.946-0.22993 2.4551 0.52115 2.2622 0.29125 1.6094 0.40215 1.4205 0.115 1.671 0.8289 2.2006 0.40621 1.4206 1.0587 2.0733 0.34469 1.2892-0.17229 0.84575-1.0012 0.973-1.4075 1.9461-1.4649 1.946-0.65656 2.4551-0.11901 2.3894-1.1161 2.644-0.115 1.9502v1.8187l0.65652 3.2351 1.0012 2.5208 0.94378 1.8845 0.65654 1.8187 1.0587 2.3279 1.2967 2.9847 0.88633 2.5167 0.77143 2.0118 0.22962 2.2006-2.7739 0.59116-3.1226-1.478-2.1214-1.6751-2.7739-2.0733-1.7152-1.0346-1.0587-0.65688-1.4074-0.25458-3.0078-0.65688-1.1736-0.44754-1.7727-0.0617-2.064-0.38184-1.0012 0.0617-2.0066 0.50909-2.0024 0.65688-1.0012 0.84578-2.5852 2.3894-2.5441 2.0117-1.8712 2.1596-4.009 2.9848-2.4087 1.8188-1.7152 1.2891-2.778 1.6751-2.3513-0.65688-3.0078-1.1619-4.6654-2.3279-1.35-1.0346-3.1803-2.3895-1.8916-1.1003-2.9504-0.50497-1.4649-0.3818-1.8301-0.25458-1.6578 0.71852-2.2364 0.50908-2.0066 0.84575-1.945 1.166-1.4074 1.2933-2.1215 1.1619-2.064 0.65278-2.6016 0.25458-3.3525 1.3548-1.945 1.2276-1.5224 1.0387-0.82889 2.5824-0.22979 3.3667-0.17235 1.671-0.17235 1.8229-2.3512 4.3354-1.3459 2.3936-0.71399 1.7572-1.2926 2.1349-0.94379 2.9191-0.1149 1.3548-0.23386 1.8229 0.29131 1.671-0.65654 2.3895-0.46369 1.5437-0.88632 1.8845-0.82889 0.91146-0.40624-1.1619-0.77144-1.0387-0.65655-1.8228-0.70988-1.1619-1.2351-2.0117v-1.478l0.82889-0.65688-0.17235-2.5783-0.94378-1.2933-0.53755-1.946 1.1161-0.78011 0.77144-1.946 0.46368-3.2391 0.17235-0.90733-2.0025-1.1619-2.1174-0.71848-2.2938-1.4821-0.17235-1.6094 0.94379-3.617v-2.7713l0.17645-1.6094-0.48011-2.7097-0.71399-2.4552-0.714-3.0463 0.714-1.7572 0.71399-1.6093 1.5224-0.65695 1.3459-1.0387 0.119-1.2891-1.4649-1.8187-1.4075-0.7842-2.5441-1.0387-2.2938-0.90732-2.2938-0.57067-1.2351-1.3548-0.53755-2.5783 0.28724-2.3936-0.77144-1.1003-0.94378-0.12721-1.5265-0.1272-0.77144-0.38177-0.88634-0.91149-1.0012-1.946-1.1777-0.90732-1.6578-0.18893-0.4801-0.38183 0.29134-1.8845 0.29135-1.3548 0.28724-1.6094 0.71399-0.78006 0.94378-1.0387 1.4075-0.90733 0.1149-2.4551-0.70989-0.65694 0.17235-1.4164 0.17235-2.3279 1.1161-0.65691 1.6578-0.12729 1.1161-2.5783 1.0628-2.3936-0.17235-2.5167-0.40622-0.65687-1.6578-1.2892-1.2351-1.5478-1.2926-1.2276v-1.6094l0.82888-1.8188 0.82889-1.166 1.0053-1.2276-0.82889-2.3935h-1.0628l-0.52112-1.1619-0.2339-0.38177-0.1149-0.90738-0.06148-0.72256-0.45958-2.3894-0.34878-2.0734-0.05745-1.946 0.34468-1.2892 0.82889-2.7097 1.2351-2.4551 1.6003-2.7097 1.5224-2.7055 1.4649-1.4164 0.05748-1.5478-1.35-1.4164-1.5224-0.5912-1.7152-0.12729-1.231-0.44338-0.28725-0.7842 0.77144-1.1618 1.1161-1.166 0.71399-0.84577 0.5991-0.973z" fill="#e7de69"/>
  <path id="Lohardaga" d="m21.899 58.137 4.1813-0.71852 2.7164-0.12729 1.8301-0.12729 1.7727-1.4164 0.71399-1.1003 0.94378-1.2276 2.2364-0.25458 1.7152 0.25458 1.6578 0.19294 0.70989 1.2276 1.0012 2.5167 0.2298 1.7572 1.2351 1.0387 1.945-0.38183 0.65654-1.4821 0.52112-3.5553 0.4801-2.0774 0.65245-1.1619 1.5265-0.25458 2.4661 1.675 1.0012 1.8188 2.3512 3.1122 1.3459 2.3279 0.94378 1.2891 3.1803 1.166 1.5224 0.31612 0.94378 0.57477 1.0628 1.1619 1.0012 1.8229 2.2938 2.3279 2.5441 1.2892 1.7152-0.25057 1.945-1.0387 0.89043-0.38184 1.2926-0.65691 1.945 0.25458 1.6003 1.4164 1.7727 0.91145 1.1202-0.65691 0.77144-0.7842 1.6003-0.3818 1.0587-0.25057 1.4075 0.3777 0.52112 2.4552-0.59501 0.97303-0.71399 0.84574-1.1161 1.166-0.77144 1.1618 0.29135 0.78419 1.2351 0.44338 1.7111 0.12328 1.5265 0.5953 1.3459 1.4164-0.05742 1.5437-1.4649 1.4205-1.5265 2.7097-1.6003 2.7055-1.231 2.4551-0.82889 2.7097-0.34878 1.2933 0.06151 1.9461 0.34469 2.0733 0.46368 2.3935 0.05742 0.71846 0.1149 0.91148 0.2298 0.3818-0.40213 0.78417-1.0628 0.50909-0.94378 0.50909-1.7152 0.25026-1.2926-0.0617-1.7727-0.25457-1.7727 0.25457-1.5224 1.8188-1.7727 1.1003-1.2926 2.0734-1.2351-0.12729-0.53755-1.2276-0.2298-1.8188 0.17235-1.671 0.17235-0.90732-1.2926-0.65281-1.4649 0.12328-0.82889 0.25457-0.94378-0.25457-1.1161-0.50912-0.595-0.65685-1.6619-0.12729-0.45958 0.25458-0.40623 1.4164-0.82889 1.0387-1.2351 0.84574-2.3512-0.59119-2.5236-2.2006-1.4649 0.38183-0.94378 0.12328-2.7165-0.37773-0.82889-0.12729-1.9491-1.0387-1.6003-0.90732-1.4075-1.671-0.65655-0.12729h-1.6003l-1.6003-0.25057-1.5265-2.0733-0.34469-1.0387-0.88633-1.4164-1.8917 0.25458-0.94378 1.0387-1.0587 1.2933-1.0053-0.06564-0.595 0.06564-1.4649-1.6094-0.88633-1.8845-0.82889-2.0733-1.0012-1.7572-1.0053-1.7572-0.2298-1.5437 0.65655-1.671 1.4075-1.946 1.0587-1.4164 1.0012-1.2892 0.65655-1.671 0.1149-1.2892 0.1149-1.4164 0.40623-1.6751v-1.4779l-0.22981-1.7572v-2.0733l-0.71399-1.671-1.4075-1.2276-3.0652-1.2275-1.2926-0.78416-1.0628-2.7056-0.05745-1.0387z" fill="#abacda"/>
  <path id="Gumla" d="m4.6339 85.319 1.2926-2.2006 1.1161-2.3935 0.595-2.2622 1.1777-2.139 1.0012-2.0692 1.8301-2.139-0.40623-2.2622l0.05745-1.9461 0.54165-1.5437 1.231-0.90735 2.064-0.50909 2.3512-0.5953 1.4075-1.3548 0.94378-1.5437 0.88634-1.671 0.5991-1.0346 0.595-0.5953 0.40623 0.973 0.05745 1.0387 1.0628 2.7097 1.2926 0.78416 3.0652 1.2275 1.4075 1.2276 0.70989 1.671v2.0733l0.2298 1.7572v1.478l-0.40623 1.671-0.1149 1.4164-0.1149 1.2933-0.65655 1.6668-1.0012 1.2933-1.0587 1.4164-1.4075 1.9461-0.65655 1.671 0.2298 1.5437 1.0012 1.7572 1.0012 1.7572 0.82889 2.0734 0.88634 1.8804 1.4649 1.6094 0.595-0.06564 1.0012 0.06564 1.0587-1.2932 0.94378-1.0387 1.8917-0.25057 0.88634 1.4164 0.34878 1.0387 1.5224 2.0733 1.6003 0.25458h1.6003l0.65654 0.12729 1.4075 1.671 1.6003 0.91139 1.945 1.0388 0.82889 0.12729 2.7164 0.38184 0.94378-0.12729 1.4649-0.3818 2.5236 2.2006 2.3512 0.5912 1.2351-0.84571 0.82889-1.0388 0.40623-1.4164 0.46368-0.25457 1.6578 0.12729 0.595 0.6528 1.1202 0.5091 0.94378 0.25858 0.82889-0.25858 1.4649-0.12729 1.2926 0.65277-0.17645 0.90732-0.17235 1.6751 0.2298 1.8188 0.53755 1.2275 1.2351 0.12729 1.2926-2.0733 1.7727-1.1002 1.5018-1.7777 1.7727-0.18892 1.7727 0.25057 1.2926 0.0656 1.7152-0.25458 0.94378-0.50906 1.0628-0.50909 0.40213-0.78004 0.52113 1.1618h1.0587l0.82889 2.3895-1.0012 1.2275-0.82889 1.1618-0.82889 1.8188v1.6094l1.2926 1.2275 1.231 1.5478 1.6578 1.2891 0.40213 0.6569 0.17235 2.5167-1.0587 2.3935-1.1202 2.5824-1.6578 0.12729-1.1202 0.65691-0.17235 2.3279-0.17645 1.4164 0.71399 0.6569-0.119 2.4511-1.4075 0.91142-0.94378 1.0346-0.71399 0.78413-0.29135 1.6094-0.28724 1.3548-0.29135 1.8804 0.48011 0.38183 1.6578 0.18894 1.1736 0.90731 1.0012 1.9461 0.88634 0.91139 0.77144 0.37776 1.5224 0.12737 0.94378 0.12721 0.77145 1.1003-0.29135 2.3894 0.54165 2.5824 1.231 1.3548 2.2938 0.57067 2.2938 0.90733 2.5441 1.0387 1.4075 0.78416 1.4649 1.8188-0.1149 1.2891-1.35 1.0387-1.5224 0.65687-0.71399 1.6094-0.714 1.7572 0.714 3.0463 0.71399 2.4552 0.48011 2.7097-0.17235 1.6093v2.7713l-0.94378 3.621 0.17235 1.6094 2.2938 1.478 2.1214 0.71846 2.0066 1.166-0.17235 0.90733-0.46368 3.2394-0.77144 1.9461-1.1202 0.78415 0.54165 1.946 0.94379 1.2891 0.17234 2.5825-0.82888 0.65685v1.478l1.231 2.0117 0.71399 1.1618 0.65655 1.8188 0.77143 1.0346 0.40623 1.166-0.17235 2.1349 0.17235 2.0118 0.94379 1.4164 0.88633 1.5437 0.29135 1.4164-1.6578 0.0657-2.064 0.3777-0.82889 0.78006-3.1802 1.4862-2.064 0.38181-3.3525 1.5437-1.5224 0.91144-2.4087 0.44338-2.6631 0.18894-0.34469 1.3548-2.1789 1.6053-1.945-0.90732-1.8301-0.90736-4.6654-1.4164-2.4087-0.50906-1.6003-0.12737-2.1215 1.3548-2.1789 0.18892-2.659 0.18893-2.1789 0.71851-3.0078 0.90733-2.5236 1.0346-2.8354-0.65687-2.5277-1.6094-2.659-1.2276-2.2938-0.65278-2.659 0.50906-1.4649-0.12721-2.4087 0.78414-2.7165 0.57072-3.6438 1.2933-2.659 2.2006-1.945 2.2047-1.1777 1.2892-2.4087 2.0733-2.0025 0.50913-1.8342 1.0346h-2.3512l-3.7217 0.50903h-2.9503l-4.7804-0.78414-3.3525-0.78416-2.1215-0.97304-1.945-1.2891 3.1226-1.3549 2.064-0.65687 2.8929-2.0733 1.0012-2.5824 1.6003-4.274 0.4801-0.84984 0.94378-4.274v-1.5478l0.65655-2.644-0.71399-1.3548-1.7727-0.97304-1.7152-0.25458-1.231-0.25458-2.2938 0.12721-2.1215-1.2933 0.1149-2.7056 0.65655-1.1003 0.89044-0.71846-0.061517 1.2932 2.8354-6.4786 1.8917-2.919 2.1215-2.7712 2.2363-1.8188 3.2949-1.671 2.6631-1.4164 5.3016-1.8187 3.1803-1.8229 3.7751-1.478 1.8301-2.0118 1.1161-2.2005 0.94378-2.0733 0.54165-2.0076 2.7164-2.644 2.1748-2.2006 1.8876-2.4551 2.1789-4.0195 1.8876-3.8099 1.4649-2.7754 0.94378-1.8187 0.77144-2.4552 0.05745-1.8187 0.4801-1.8188 0.46368-2.9847 0.05745-2.2006-0.17235-1.1003-1.0628-1.675-2.8929-0.0617-4.6654 0.18892-1.8917 0.59526-2.8929-1.0387-2.1748-0.50496-3.0652-0.38183-1.2926-0.91145-2.4087-1.7531-1.231-1.671-2.0025-1.1003-1.231 0.5912-0.2339 0.973-0.2298 0.65281 0.2298 1.0387-0.77144 2.3278-1.0587 1.3548-2.8929-1.2275-0.65655-1.6094 1.1736-0.90735-1.0587-1.0387-0.2298-2.644-0.65654-2.5167 0.05745-2.2047-2.064-2.5167-2.0066-1.0387-3.4099-1.5436-2.1789-1.478-1.231-2.139-0.82889-2.1349 0.65655-2.7754 0.2298-2.3935 0.46368-2.3894 0.65655-1.4164-0.34468-0.78416v-2.3278l0.057448-1.5437 0.1149-2.451 0.34468-1.4821 0.05745-1.8188v-1.5437l0.119-1.3549 0.1149-1.1618-1.0628 1.0346-0.595-4.7829-1.0053-1.1619z" fill="#a3b0a3"/>
 </g>
 <g fill="none" stroke="#345">
  <path d="m150.47 46.532-0.88049-0.60494h-1.761l-2.0544-1.0587h-2.348l-1.4675-1.0587-7.7776 5.5957-2.6415-0.15124-3.5219 1.0587-1.761 0.45371-6.3101-0.15124-3.6687 1.5124-3.3752 0.30247-3.5219 1.8148-2.0545 0.45371-2.348 1.9661-1.9077 1.0587-1.6142 1.3611-0.58699 0.60494-2.0545 1.9661-2.348 0.75618-5.1362 3.3272-1.4675 2.1173-3.3752 2.4198-4.1089 1.8148-4.2557 0.15124-3.5219 0.60494-1.761 2.8735-1.4675 0.75618-2.0545 2.2685-2.0545 1.2099-0.73374 1.2099-2.7882 1.8148-2.7882 1.0587-4.2557 4.2346-2.348 0.90742-4.2557 1.5124 3.6687 1.2099 3.2284 0.90742 1.3207 1.2099-0.44024 2.2685 1.6142 1.9661 0.14675 2.2685 1.174 1.0586-0.2935 3.176 2.2012 3.4784-0.14675 1.5124 0.73374 1.0586-0.2935 1.5124 1.0272 1.5124v2.8735l1.4675 1.2099 0.14675 1.3611 0.44024 1.0586v1.3611l-0.44024 1.3611 0.73374 0.75618v1.0586l-0.29349 1.5124 1.3207 1.3611 1.9077 3.4784 0.14675 0.90741-1.0272 1.6636 0.44024 0.75618 2.0545 0.90742 0.29349 0.45371-0.88048 3.3272-3.2285 3.6297-1.3207 0.90741 0.14674 1.5124h-4.5492l-3.2285-0.45371-2.4947-0.90741-3.0817-1.2099-0.2935-0.45371h-1.174l-2.0545 2.1173 0.29349 1.2099h-1.174l-1.4675 0.75618-0.88049 1.6636-0.58699 2.4198-0.88048 1.8148" stroke-width=".5px"/>
  <path d="m150.47 46.532 1.2454-0.6793 0.11322 1.2454 0.67929 0.33965v0.90572l-0.56607 1.2454-1.8114 1.4718 2.0379 1.6982 0.22644 0.33965-0.79251 2.0379-0.33965 1.2454-0.79251 3.2833-0.79251 1.585 0.22643 1.8115-1.2454 3.0568-0.33965 1.585v4.3022l-0.45286 1.0189-1.3586 1.8115 0.56608 0.90572-1.2454 3.5097-1.3586 2.0379-0.67929 3.7361-1.1322 1.9247-0.67929 0.33964v0.79251l0.22643 4.5286 1.0189 2.1511 1.585 1.3586-0.45287 0.90573 0.11322 6.4533" stroke-width=".49px"/>
  <g stroke-width=".5px">
   <path d="m112.91 52.448-5.5302-0.79462-5.0493-0.59597-5.0493-2.3839-4.328-1.1919-3.3662-0.19865-4.0875-1.3906-3.3662-0.79462-3.3662-0.79463-5.5302-3.3772-2.164-2.1852v-1.9866"/>
   <path d="m71.071 36.754-1.1318 4.0042-3.1125 3.5331-1.6977 2.8265-1.9807 3.7687-4.2443 3.5331-2.2636 2.1199-0.56591 1.8843-4.2443 1.8843-0.28295 2.8265-2.2636 4.0042-0.28296 1.4132v8.9506l0.28296 2.8265 0.56591 3.062 1.4148 1.8843-0.84886 2.3554v3.062"/>
   <path d="m144.5 103.44-1.2772 0.67967-2.1519-0.18879-1.2911 0.58527-1.1523 1.5576-3.0126-0.0944-1.1523 0.67967-0.27766 0.0944v0.49088l-0.5831 0.48143-2.4295 0.58526-3.443 1.3688-0.5831 0.9723v1.1706l-1.2772 0.98174-1.4438 0.58528-0.86073 0.97232-0.13885 0.58527-0.86074 0.58527h-3.443l-2.1519 0.78352-1.1523 0.58526h-1.7215l-0.70803-0.10384-1.8742 0.19824-1.2911 0.67967-0.99958 1.0762-2.5822-0.38703-1.7215-0.58528-2.7211 0.18881h-1.8603l-1.4438 0.49086-0.70804-0.38703-2.4434-0.39648-0.43038 0.78351-1.7215 0.97232-0.72192 1.0761-1.5688 0.87792-1.43-0.10384-1.8742-0.0944-1.9992 0.49088-2.8738 1.4632-1.7215 0.97232-0.13883 1.1705-3.1653 2.5394-0.43038 0.29263-0.5692 0.97231 0.29154 0.49088-0.86075 1.652-1.8742 0.67968-0.13883 0.87791-0.56921 0.49087-0.56921 1.0762-2.1519 1.5576"/>
  </g>
 </g>
 <g fill-rule="evenodd" stroke-width=".38267">
  <ellipse cx="149.16" cy="45.439" rx="2.4668" ry="2.6098"/>
  <ellipse cx="71.454" cy="38.329" rx="2.4668" ry="2.6098"/>
  <ellipse cx="51.476" cy="90.885" rx="2.4668" ry="2.6098"/>
  <ellipse cx="144.53" cy="103.48" rx="2.4668" ry="2.6098"/>
  <ellipse cx="44.636" cy="152.26" rx="2.4668" ry="2.6098"/>
 </g>
 <g font-family="sans-serif" font-size="3.5278px" letter-spacing="0px" stroke-width=".26458" word-spacing="0px">
  <text x="156.24556" y="43.976784" style="line-height:1.25" xml:space="preserve"><tspan x="156.24556" y="43.976784" font-size="6.35px" stroke-width=".26458">Ranchi</tspan></text>
  <text x="151.95506" y="101.8987" style="line-height:1.25" xml:space="preserve"><tspan x="151.95506" y="101.8987" font-size="6.35px" stroke-width=".26458">Khunti</tspan></text>
  <text x="50.41293" y="157.31781" style="line-height:1.25" xml:space="preserve"><tspan x="50.41293" y="157.31781" font-size="6.35px" stroke-width=".26458">Simdega</tspan></text>
  <text x="43.619617" y="33.2505" style="line-height:1.25" xml:space="preserve"><tspan x="43.619617" y="33.2505" font-size="6.35px" stroke-width=".26458">Lohardaga</tspan></text>
  <text x="27.172655" y="98.323273" style="line-height:1.25" xml:space="preserve"><tspan x="27.172655" y="98.323273" font-size="6.35px" stroke-width=".26458">Gumla</tspan></text>
 </g>
 <path d="m30.553 6.1641 1.3507 0.22512 1.013 0.11256 0.67537 0.67536 1.3507 0.33769 1.5759 0.11255h1.4633l1.801 0.78793 0.5628 1.5759 0.33768 0.78793 0.22512 1.4633v1.4633l0.22512 0.56281 1.3507 0.90048 1.1256 4.0522-0.90049 1.2382-0.90049 1.013-0.5628 1.013-0.11256 1.0131-0.33768 0.45024v0.90048l0.90049 0.33769 0.45025 1.3507-0.22512 1.013-0.45024 1.013-0.78793 0.78793-1.1256 1.2382-0.33768 1.1256h-0.45025l-0.22512 0.33769-0.33768 0.5628-0.11256 0.90049 0.5628-0.67537 0.45024-0.45024 0.33769 1.013 0.22512 0.9005-0.11256 0.56281-0.33768 0.45024 0.11256 0.78793h0.45024l0.78793-0.22512 0.90049 0.22512 0.90049 0.11256-0.33769 0.90049 0.33769 0.67536 1.4633 0.90049-0.11256 0.45024-0.78793 0.11256-0.33768 0.22513 0.90049 0.67536-0.33768 1.1256-0.45024 0.90048v0.45024l0.78793 1.0131-1.013 0.33768-0.67537 0.78793-0.22512 0.90048-0.22512 0.56282 0.11256 0.67536v0.45024l-1.013-0.67536-1.1256-0.56281-1.1256-0.56281v-1.2382l0.5628-1.2382 0.56281-0.9005-0.56281-0.78793-0.22512-1.1256-0.22512-0.78792-0.90049-0.78793-0.33768-1.1256-0.33768-0.45024-0.45024-1.1256-0.33769-0.56281-0.78793-0.45024-0.33768-0.22512-0.67537 0.90048-0.90049 0.33769-0.45024 0.45024-0.33768 0.78793v0.33769l0.33768 0.90049-0.78793 0.22512-0.90049 0.11256-0.78793 0.11257-0.56281-0.11257-0.33768-0.78793-0.11256-0.5628-0.90049 0.45025-1.2382-0.22512-0.67536-0.67538-0.67537-0.33769 1.013-0.78792 0.67537-0.56281 0.90049-0.22512-0.11256-0.9005 0.22512-0.45024 0.33768-0.11257 0.78793-0.45024v-0.33769l-1.2382 0.33769-1.2382-0.33769-0.22512-0.45024v-1.013h1.4633l-1.2382-2.1387-0.5628-0.56281-0.90049-0.22512-0.67537-0.90048-0.78793-1.013v-0.33769l1.0131-0.45024 0.90049-0.22512h0.56281l1.013 1.2382-0.11256-1.013 0.11256-1.013-0.78793 0.45024-0.78793-0.11257-0.11256-0.33768 0.22512-0.78793v-0.78793h0.78793l1.1256-1.2382-0.67537-0.22512-0.45024 0.33768-0.33768 0.33769h-0.45024l-0.90049-0.33769 0.22512 0.67537 0.22512 0.78793v1.013l-0.67536 0.33768-0.67537 0.45025h-0.56281l-0.33768 0.90048-0.90049 0.67537-0.90049 0.33768-0.67537-0.45024-0.11256-0.33769 0.22512-0.67536-0.22512-0.56281h-0.90049l-0.5628-0.33769-0.22512-0.90048-0.33768-0.56281-0.45025-0.33769-0.33768-0.33768 0.22512-0.67537-0.33768-0.78793-0.22512-1.2382 0.90049 0.11257-0.22512-0.56281 0.33769-1.013 0.45024-0.67536 1.013-0.67537 0.11256 0.56281 1.013 0.22512 1.3507 0.67536 0.22512 0.45025 0.5628 0.11255-0.22512-1.013-0.22512-0.78793v-1.4633l0.78793-0.22512-0.22512-0.78793 0.45024-0.9005 0.67537 0.33769v-1.5759l0.45024-0.67536 0.45024-1.1256h1.013l0.11256-0.67536v-0.67537l0.45024-0.11256 1.2382 0.78793v-1.4633l1.1256-1.4633z" fill="green" stroke="none" stroke-width=".29153px"/>
</svg>
