<svg width="206.46mm" height="160.34mm" version="1.1" viewBox="0 0 206.45636 160.3347" xmlns="http://www.w3.org/2000/svg" xmlns:cc="http://creativecommons.org/ns#" xmlns:dc="http://purl.org/dc/elements/1.1/" xmlns:rdf="http://www.w3.org/1999/02/22-rdf-syntax-ns#">
 <metadata>
  <rdf:RDF>
   <cc:Work rdf:about="">
    <dc:format>image/svg+xml</dc:format>
    <dc:type rdf:resource="http://purl.org/dc/dcmitype/StillImage"/>
    <dc:title/>
   </cc:Work>
  </rdf:RDF>
 </metadata>
 <g transform="translate(-1.8518 -49.159)" stroke="#fff" stroke-width=".5">
  <path id="West Singbhum" d="m96.355 74.892 0.641 1.6681 0.49434 0.86306 0.88308-0.05121 1.8104-0.15698 1.5684-0.86306 2.1616-0.85965 2.3559 0.41957 1.6161 0.54241 2.4514 1.46 1.8581 1.46 1.9059 1.3918 0.83191 0.80851 1.715 0.59696 1.5684 0.26269 1.807 0.26607 1.3808 0.47417 0.78078 0.3684 0.83532 0.85965 1.7627 1.3884 0.641 1.0711 1.4218 1.7227 0.73642 0.26266 1.4729 1.46 0.87962 0.96539 2.0525 1.5624 1.7627 0.7027 0.78416 0.05121 0.40231 0.05454-2.6422 3.1111-1.7627 2.7974-0.54551 2.48v3.1111l-0.49778 2.7426-1.7627 3.6058-0.78418 3.657-2.2571 2.7426-3.0448 1.3918-1.2649 0.26266-3.0447 0.85963-1.7593 0.54578-3.0447 1.9342-2.3048 3.3398-2.4991 2.7938-0.242 1.6169-1.2649 5.0452 0.242 1.0745 2.5469 1.3884 2.2571 0.85965 0.49437 0.21485 0.28641 1.1769 0.49777 1.617 0.73986 0.31381 0.58984 1.5658-0.9751 2.1969 0.14315 1.3884-0.14315 1.5112-1.4729 0.75388-1.7627-0.75388-1.6672-0.42301-0.64095 0.42301-0.0479 1.5658 0.44661 1.2315 0.19437 1.2315 0.8797 0.91417 2.4037 2.04 1.4729 1.0746 1.2683 1.4566 0.43298 1.46 0.14316 2.3742-0.54551 2.4254-0.44662 1.7739-0.19436 2.48 1.0739 1.1769 1.074 1.883 1.0263 1.883-0.40233 1.1769-2.448 1.9342-2.257 1.6169-0.59325 0.42301-0.0955 0.96541 0.33413 1.2314 0.38528 1.2315 0.44661 1.0746 0.49781 1.0712 0.73644 0.96881 0.58984 1.1769-0.43304 2.1423-1.0262 1.8319-0.38528 1.6169-0.39893 1.7227-1.074 2.48-1.3297 2.6914-1.0228 2.688-2.6934 3.6568-0.23867 0.26609-1.3297 2.0911-0.73982 0.51171-1.6638 0.49122-0.92736 0.21152-1.6672-0.75733-1.6161-0.85963-1.5684 0.21152-1.807 0.15698-1.2649-0.26269-1.0229-0.75389-1.9093-0.5458-0.242-0.64811-0.33414-1.0712-0.14315-0.80851 0.09552-0.91422 0.4944-1.3918 0.83532-1.3372 0.63755-0.80848 0.88305-2.3197 1.0263-1.02-0.92736-1.3884-1.7627-0.60037-1.5206 0.70615-1.9059 0.10577-1.3297 0.42297-1.6161 0.26269-2.356 1.3372-2.0014 1.7773-0.92738 0.59696-2.0491 0.75391-3.331 0.75389-1.8582-0.31727-1.8104-1.3884-1.074-0.65156-1.6638-0.96539-2.1002-1.8284-3.1879-1.9854-3.331-1.46-3.3787-1.3884-3.2834-1.7227-2.0968-0.86308-0.78418 0.21485-1.4729 0.7539-1.6672 1.0712-1.4252 1.0746-0.68872 0.54239-1.3774 1.0746-1.1694 0.54236-1.1694 0.54585-1.8104 0.96879-2.356 1.6169-1.1183 1.2827-0.54552 1.6169-0.59325 0.80849-0.54552 1.02-2.448 1.1769-0.24208-0.5458-0.68869-0.6482-0.87965-1.0746-1.2649-2.0365-0.93078-0.96879-1.6638-0.70612-2.2093-0.80851-2.5946-0.26608-2.3525-0.15698-1.5718-1.1769-0.92738-1.3918-1.715-0.85962-1.5206-0.65156-0.73645-0.423-1.5684 0.423-1.6672 0.7539-1.1183 0.59694-0.78418 0.91422-1.074 0.96542-0.73986 1.3884-1.2478 0.31726-0.54552-0.423 0.54552-2.04 0.33753-0.96879 0.33753-1.0712 1.9536-1.46 1.3774-1.8284 1.715-1.5658 0.97511-1.9342 1.1694-2.0399 0.78418-1.8318 0.23867-1.7738 1.6195-3.657 0.23867-2.48-0.39892-1.8796 0.2898-0.96545 1.7627-0.10577 0.39891-2.3743-0.83191-2.1969-0.19094-1.883-0.97511-2.1457-0.28639-2.5859-0.05111-1.2826 0.54552-1.1769 0.33753-2.5859-0.04773-2.248-0.54552-2.5859-0.23867-1.1803-0.73986-1.2827-0.78418-1.1803-0.1432-1.6716 0.1432-1.7773 0.68872-0.7573 0.73645-1.5658 0.38526-1.2826 0.54552-1.9854-0.24208-1.3884 0.19094-1.5146 0.09548-1.1257 0.78418-2.4254 1.074-1.7739 0.59325-1.46 1.1217-1.9888 1.9536-3.6022 0.1432-1.5146 0.1432-1.3884 0.19094-2.7974 0.68872-2.1457 1.2649-0.86306 1.6161-1.0199 2.7856-1.1258 2.1616-0.21153 1.715-0.54582 1.7627-0.96538 1.1694-1.0746 1.6161-0.96879 1.6672-0.70275 1.8582-0.423 1.3774-0.59698 1.5206 0.21152 1.2172 0.31724 2.4514 0.4196 1.5684 0.91422 2.6424 1.9854 1.1217 0.86305 3.8765 1.9342 2.4991 0.96539 1.9536 0.54584 2.3048-1.3918 1.4252-1.0711 2.0014-1.5112 3.331-2.48 1.6161-1.8319 2.1139-1.6681 2.1445-1.9888 0.83191-0.70272 1.6672-0.54242 1.6638-0.423 0.83192-0.05454 1.715 0.31724 1.4729 0.05121 0.97854 0.36841 2.4957 0.54579 1.1694 0.21153 0.88306 0.54576 1.4217 0.85965 2.3082 1.7227 1.7627 1.3884 2.5946 1.2314 2.3082-0.4912-0.19437-1.8319-0.64095-1.6681-0.73304-2.0945-1.074-2.48-0.88303-1.9342-0.54554-1.5112-0.78418-1.5658-0.83189-2.0911-0.54554-2.688v-1.5146l0.09552-1.617 0.93079-2.1969 0.09194-1.9854 0.54551-2.0399 1.2206-1.6169 1.1661-1.617z" fill="#e2b584"/>
  <path id="East Singbhum" d="m134.89 93.637h0.23867l1.9093-0.10577 1.4218-0.96879 1.524-1.2826 1.5684-0.54241 1.5684 1.2281 1.7149 1.3372 1.6161 1.2826 2.257 0.21153 1.9536 0.60036 0.64101 0.36843 0.58984-0.05121 1.7627 0.05121 1.5718-0.10577 1.1183-0.05121 1.1217 0.05121 2.4037 1.02 1.4217 0.3684 1.6195-0.26264 1.6161-0.54241 0.92738-0.60036 1.3297-0.10243 1.4217 0.21153 1.074 0.54582-0.44665 1.3884-2.1446 0.80846-0.49777 0.47419-1.5684 1.1769-1.5206 0.31726-1.3297-0.10577-1.2172 0.10577-1.2172 0.42302-1.3774 0.65151-1.1217 1.5112-0.14315 1.6681 0.14315 0.4776 0.88303 1.1769 0.68871 1.2826 0.68875 1.02-0.38531 1.9888-0.33411 0.96538-0.78416 0.91425 0.0476 1.8796 0.83191 1.9342-0.19103 1.1769 0.88304 2.3742 0.92739 1.3884 0.97853 1.3884 1.2649 2.04 0.83536 0.86301 1.4728 0.20819 0.54554-0.20819 1.9059-0.15698 1.9536 0.0512 1.6638-0.31724h1.8104l0.58987-0.10577 0.49777-0.10577 0.38529 0.423 0.68872 0.65153 0.43298 0.20819 0.54551 0.42303 0.38528 0.65156 0.68871 1.2314 0.19437 1.46 0.0919 1.3884 1.074 1.5146 0.45002 1.0712 1.166 2.0911 1.6195 2.0399 1.6161 0.26607 1.4729 0.70274 0.58982-0.0513 1.1217 0.10577 1.4217 0.65155 1.1694 0.54236 2.2571 0.75731 1.2172 0.96542 0.14314 0.65156 0.54552 1.1803 0.88306 2.2514 0.87964 1.825 0.14649 0.96879-0.3989 0.21152-0.88308-0.21152-1.3774 0.10577h-1.1695l-0.33751 0.70268-0.33414 1.2315 0.33414 1.7773 0.33751 0.70272 0.19079 0.96541 0.45006 0.96539 1.4218 1.5658 0.43296 0.31726 1.2649 1.02 1.3775 0.75389 1.8581 0.9654 1.5241 0.86304 1.074 0.31726 0.58986 1.9342-0.0988 0.64817-0.14316 3.3397-0.49439 2.2515 1.3774 1.0166 0.68873 0.47416 1.1217 0.91422 0.87969 0.42302 0.54547 0.15699 0.83192 0.75388 1.2683 0.75391 0.88306 1.46-1.2683 1.9888-0.92737 0.31384-1.4251 0.54242-1.3774-0.65159-1.2172-1.2826-1.5684-0.41959-1.5206 1.6169-0.59328 0.31726-0.97509 0.9654-0.88303 1.1769-0.54213 1.5112-0.73644 1.1803-1.2172 0.96541-0.78418 0.54578-1.3774 0.65156-1.4252 0.4196-1.074 0.10577-0.73988-0.0513-1.7627-0.26266-1.6161-0.59702-1.6672-1.1257-1.0228-1.228-1.4729-1.5146-1.2683-1.6681-0.58982-0.59697-1.1218-0.91422-2.4036-2.04-1.4729-0.42298-0.87963-0.10576-0.73988-0.31728-1.1694-0.75388-0.83191-0.66861-1.4218-0.64815-1.4729-1.5112-1.9536-0.86305-1.1217-0.36843-2.2537-0.49122-1.0774 0.21152-0.92738 0.65153-0.92739 0.65155-0.78418 0.96882-1.0739 0.54239-1.3297-0.3684-1.7627-1.2315-1.8582-1.3884-1.3774-1.02-2.5946-2.1969-0.78418-0.75391-1.074-1.8318-1.2683-1.7227-1.3297-1.2314-1.0228-1.1769-1.9059-1.6681-3.331-1.8796-3.573-2.4288-1.715-0.64814-2.2127-0.423-1.3297 0.36843-2.1445-0.59704-1.7116-0.0545-1.4252-0.59696-1.1695-1.5658-0.58984-1.5624-1.1694-1.0745-2.7856-2.0366-2.448-1.2827-1.2683-0.423-0.28638 0.59699-0.58986-1.5658-0.73986-0.31728-0.49777-1.617-0.28638-1.1769-0.4978-0.21153-2.2536-0.85967-2.5503-1.3918-0.23867-1.0711 1.2649-5.0488 0.242-1.617 2.4992-2.7938 2.3048-3.3398 3.0447-1.9342 1.7627-0.54581 3.0447-0.8596 1.2649-0.2661 3.0447-1.3884 2.2571-2.7426 0.78418-3.6568 1.7627-3.6058 0.4978-2.7426v-3.1111l0.54551-2.48 1.7627-2.7938z" fill="#abacda"/>
 </g>
 <g fill="none" stroke="#345" stroke-width=".5px">
  <path d="m123.93 70.239-1.7746 1.9365-0.98588 1.6138-0.39437 2.0979-2.7604 1.7752h-2.5633l-1.1831 0.48413-0.59151 1.6138-0.19718 2.582-2.5633 0.80689-1.3802 0.96827-6.704 5.4868-0.39435 1.6138-1.7746 1.4524v1.1296l-1.7746 3.0662"/>
  <path d="m123.93 70.239-2.1866 0.65599-1.0933-0.87465-1.312-1.5306-0.43733-0.43733-1.7493-0.21866-0.656 0.87465v1.0933"/>
 </g>
 <g fill-rule="evenodd" stroke-width=".27679">
  <ellipse cx="116.37" cy="69.453" rx="3.8006" ry="3.9687"/>
 </g>
 <g font-family="sans-serif" font-size="3.5278px" letter-spacing="0px" stroke-width=".26458" word-spacing="0px">
  <text x="43.937096" y="7.6067319" style="line-height:1.25" xml:space="preserve"><tspan x="43.937096" y="7.6067319" font-size="6.35px" stroke-width=".26458">Ranchi</tspan></text>
  <text x="75.025482" y="108.47864" style="line-height:1.25" xml:space="preserve"><tspan x="75.025482" y="108.47864" font-size="6.35px" stroke-width=".26458">Chaibasa</tspan></text>
  <text x="126.28825" y="85.327705" style="line-height:1.25" xml:space="preserve"><tspan x="126.28825" y="85.327705" font-size="6.35px" stroke-width=".26458">Jamshedpur</tspan></text>
  <text x="82.632217" y="68.791328" style="line-height:1.25" xml:space="preserve"><tspan x="82.632217" y="68.791328" font-size="6.35px" stroke-width=".26458">Saraikela</tspan></text>
 </g>
 <path d="m77.143 92.589 0.79823 4.1907v1.5965l-1.1973 3.3925 1.1973 0.99779 0.79823 0.79823v2.7938l3.3925 2.9934v3.3925l2.7938 1.796-0.99778 0.99778-0.79823 1.796h-1.796l-2.5942 0.39912h-1.796l-1.1973-0.39912-2.5942-0.59867-2.7938-0.99778-3.3925-0.39911-3.1929 2.9934-2.9934 1.796-0.99778 0.59867-1.3969 1.9956-1.3969 1.9956 3.3925 2.3947 3.9911 1.796 1.3969-0.99779 0.99778-0.59867 1.5965-0.99778 0.99779 1.5964 1.5965 0.19956 1.5965-0.99778 0.99779 1.796 1.5965 1.796 1.796 0.79824-0.59867 1.1973-0.79823 2.7938-2.1951 1.9956-0.99778 0.59867-2.5942 0.59867h-2.3947l-2.7938 0.39911h-3.1929l-2.3947-0.79822-3.9911-1.3969-2.3947-1.3969-1.3969-0.59867-2.9934-1.9956-0.59867-0.99778-0.99778-0.39911 0.59867-0.9978-1.3969-0.19956-1.9956 0.39912-1.1973 0.79824-1.5965 0.79822-0.79823 0.99779-0.59867-1.5965-0.79823-2.7938 1.1973-0.99779 0.79823-0.19955v-0.99779l-0.39912-0.59867-1.3969-0.99778-0.59867-0.19956-0.79823 0.19956-0.59867-0.19956-1.1973 0.19956 1.1973 0.79823v1.1973l-0.19956 1.5964-1.5965 0.19956-0.79823 0.19956 0.39911-0.79823 0.59867-0.99779-5.7872-5.1885-3.592-3.7916 0.59867-2.1951 0.99778-1.1973v-1.796l-0.99778-0.79823 0.59867-2.3947 0.39911-0.99778 0.79823 1.5964 1.9956 0.39912-0.19956 1.3969v0.79823l0.99778 0.99778 0.79823-0.99778 1.1973-1.796h0.39911l0.39912-1.5965-0.19956-2.5942 0.59867-2.5942 0.39911-2.7938 0.99779-2.7938-1.5965-2.9934-0.99778-2.3947-0.59867-0.59867-0.39911-0.39911-1.3969 1.1973-0.59867 1.3969-1.9956-0.39911-2.1951-0.59867-2.1951-0.19956-1.796-0.39912-1.796-1.3969-2.7938-1.9956 0.59867-1.5965 1.9956-1.3969-2.3947-2.5942-1.5965-1.9956 1.1973-2.1951 1.1973-0.59868-1.1973-2.3947-0.39911-0.99778 0.19956-1.5965v-1.5965l1.3969-1.1973-0.19956-0.99778-1.5965-0.39912-1.1973 0.39912-1.3969 1.1973-2.5942 1.796-1.1973 1.796 2.9934 2.1951-1.3969 0.59868-1.1973 0.39911-2.7938 1.1973h-2.7938l-0.99778-0.19956-1.1973-2.1951-1.3969-1.796 1.1973-2.5942h1.3969l1.9956-2.5942-1.796 0.79823-0.59867-0.39912v-0.99778l-0.59867-1.3969-0.79823-0.79823h3.1929l-1.5965-1.1973v-1.9956l0.99779 0.19956 0.59867 0.39912v-1.5965l-0.79823-0.19956-0.79823-1.1973-0.79823-0.39911-0.19956-0.59867v-0.99778l1.796-0.99778h0.59867l2.3947 1.796h1.796l-0.39911-1.1973v-2.9934l3.3925 0.79823-0.39911 0.59867-0.39911 0.59867 1.9956 0.59867v1.1973l3.3925 0.19956-1.3969 1.5965-0.39912 1.5965h-2.5942l0.39912 1.5965 0.99778 0.19956 2.3947 0.19956 1.9956-1.1973 0.39912-0.99778 1.796-0.39911 0.19956 1.5965 1.796 2.7938 0.59867-2.5942 0.19956-2.7938-0.79823-2.5942-0.99778-0.59867 1.796 0.59867 0.99778-1.9956 1.5965-1.796-1.1973-1.9956-1.3969-0.99778v-1.9956l1.5965-0.59867 1.3969-0.99778 0.59867-2.1951 0.99778 1.1973 2.3947-0.79823 1.796-0.39912v0.99778l1.5965-0.39911v-1.9956l1.796 1.1973 2.7938 0.59867 0.39911-0.59867h3.3925v3.592l-0.79823 1.3969-1.5965 0.19956 0.39911 1.3969 0.39911 1.1973-1.1973 0.79823-0.39911 1.9956 1.796 0.79823-0.19956-1.9956 1.3969 0.59867 0.39912 1.1973 5.7872 1.9956 1.5965-1.796-0.79823-0.79823-0.59867-1.9956v-1.9956l0.79823-0.39911v-1.1973l-0.99779-1.1973-1.3969-0.99778-1.5965-2.1951 0.39911-1.9956 1.796-0.79823 2.5942-0.59867 2.9934-0.39911 2.1951 0.79822 1.9956 0.99779 0.39912 1.796 0.39911 1.1973 1.5965-1.3969 0.19956-1.3969 0.79823 0.79823 1.5965 1.1973 1.796 0.39911h1.9956l2.3947-2.1951 2.1951-0.59867v-2.5942l2.1951-0.79823 1.796 2.3947 1.5965 0.79823 0.39911-1.3969v-1.3969l3.7916-1.1973 1.796 3.1929h2.9934l0.59867-0.79823 0.79823-0.99778 2.5942-0.99778-1.1973 1.9956-1.1973 1.796 1.1973 0.79823h0.79823v-1.3969l-0.19956-1.1973 1.796-1.5965 4.1907-2.7938-1.1973 1.796-0.19956 2.3947-1.3969 0.39912-0.19956 0.99778 0.19956 1.5965 1.3969 0.19956h0.99778l1.1973-0.99778v-0.79823l-0.79823-0.79823v-0.59867l2.7938-1.796 1.9956 0.19956 3.3925 0.79823 1.796 0.59867 1.9956 0.39911 2.7938 0.79823 3.1929 0.59867 0.79824 1.3969 2.3947-0.19956 1.3969-1.3969h4.1907l1.9956 1.796h1.3969l0.99778 0.99778 0.99777-0.39912 1.5965 0.59867h2.1951l1.3969 0.19956 0.79823-0.39911 0.19955-0.99778 0.79822-0.79823 1.796 0.59867 1.3969 0.59867-0.39912 0.59867 1.3969 1.9956v-2.9934l1.9956 2.1951 2.5943 0.39912 3.7916 1.3969v0.79823l2.1951 1.3969 0.79823-0.99779 1.1973-0.19956h0.79823l1.796 1.3969 0.19955 1.1973-0.79823 1.5965-1.9956 1.1973 1.796 1.9956h0.99778l0.79823-1.3969h1.9956l1.796-0.79823 1.5965-1.1973v-0.79823l2.3947-0.39911h1.3969l2.3947 0.39911 1.3969 1.1973 0.99778 1.3969 0.59868-1.3969 1.5964-0.19956 0.99778 0.59867 0.59869 0.99778-1.3969 1.5965h-2.1951l0.79823 1.5965-0.59868 1.1973 1.3969-1.1973 0.59867-0.59867 1.5965 1.1973-0.19955 1.3969 0.99778 1.9956 2.3947 2.5942 1.5965 0.59866 0.0573-1.0015 1.0402-0.69346 0.86682-0.5201-0.17336-0.34673-0.34673-0.5201-0.34673-0.5201-0.5201-0.5201-0.52009-1.3869 1.907 1.0402 0.34674 1.0402 1.2136 1.2136 0.69345-0.34673 0.34673-0.5201 1.2136-0.17336-0.17337-1.3869-0.69345-0.86683-0.34674-1.2136-0.52009-0.5201-1.2136-0.5201v-0.5201h-1.0402l-1.7336-0.5201-0.69346-0.17336-1.0402 0.69346-0.34672 1.2136-0.69346-1.5603-0.17337-1.2136-0.34673-1.907 1.2136 1.0402 0.5201 0.86683 0.52009-0.86683h0.86683l-0.34674-0.5201-0.86682-0.69346-0.69346-0.69346-0.5201-0.34673 0.86682 0.17336h0.69347l0.34673-0.34673 0.34673-1.0402-0.86683-0.69346-1.7336 0.5201 0.34673-1.0402 1.0402-0.5201 1.2136 0.17337 1.2136 1.0402s0.86682 0.69346 0.86682 0-0.86682-1.2136-0.86682-1.2136l-0.86683-0.86682 0.69346-1.2136 1.2136-0.34673h1.7337l-0.17336 2.7738 1.2136 1.0402h7.4547l1.2136-0.5201 1.7336-1.3869 0.86683-0.34673-0.69347 1.7337-0.52009 2.0804-0.17336 0.86683-1.5603 0.69346-1.7336 1.5603-1.0402 1.907 2.6005-0.86683 1.3869-1.5603 1.5603-0.17336 0.69346-1.907h1.2136l1.2136-0.69346 1.2136-0.17336 0.69346 1.3869 1.907 1.7337 2.2537 0.86683-1.2136 1.2136-1.3869-0.34673 0.69345 1.5603-0.69345 0.5201-0.5201 1.907-0.17337 2.7738-0.86682-1.0402-0.69346-0.17336-0.17336-4.3341-1.2136 1.2136 0.17336 1.5603-0.52009 2.2537-0.5201 1.0402-1.2136-1.0402-0.34672-0.17336 0.69345-1.7337 0.5201-1.5603v-2.4271l-1.0402-0.5201-1.5603 0.5201v1.5603l0.69345 1.2136 0.5201 0.5201-1.0402 1.7337-1.0402 0.69346-1.2136 0.86683-1.0402 1.0402-0.34673 0.86683v2.7738l1.2136 2.7738v2.4271l-1.5603 0.69346-1.3869 1.907-1.0402 0.86683-0.86683 0.34673v2.2537l-0.34673 2.9472-0.5201 0.52009-1.0402 1.2136-1.907 3.814-0.52009-2.0804-0.17338-2.0804-1.3869 2.0804-0.52009 1.3869h-1.0402l-0.86683-0.52009-0.52009-0.86683-1.3869-0.52009-0.86683-0.52009-0.86682-0.5201-0.69346-1.2136s-1.0402-0.69346-0.17337-0.69346 1.5603 0.69346 1.5603 0.69346l1.0402-1.2136 0.17336-1.7337 0.86683-1.0402-0.34674-2.4271-0.52009-1.5603-1.2136-1.5603-1.3869-0.34673-1.0402-0.52009h-1.2136l-2.6005 1.0402-1.907 0.5201-1.907 1.2135-1.0402 1.5603-2.2538 1.3869-0.86681-0.34673-0.17338-1.0402-0.34673-1.5603-0.17336-1.3869-0.34673-2.2537 0.17337-2.0804-0.34673-1.3869-0.86683-1.0402-0.86683-0.69346-0.17336-0.86683-0.69346-1.7337-1.5603-0.86682-1.2136-0.86682-1.0402-0.86683-1.5603-0.69346-1.5603-0.86683-2.4271-0.86683-1.0402-0.17337-2.0804-0.5201-1.0402-0.5201-2.9472-0.69346-2.4271-0.86683-2.2537-0.5201-2.0804-1.3869-1.5603-0.69346-1.5603-0.34673-2.2537-0.69346-1.2136-0.5201-0.69346-0.69346-0.17337-1.0402-2.2538 1.907-0.86682 0.5201-0.17337-1.5603v-1.2136l-1.7336 0.69346-0.69346-0.34673-0.17336-1.5603 2.0804 0.17337 1.907 0.34673 2.0804-0.5201-1.7336-1.5603h4.1608l-2.0804-0.5201-1.907-0.69346-1.7336-0.86683-2.0804 0.34673h-2.0804l-1.7336-0.5201-0.86683 0.34673-0.86683 0.69346-1.0402-0.34673-1.0402-0.17336h-4.8542l-0.5201-0.17336 0.34673 1.2136 1.907 0.5201 0.17336 0.5201-0.69346 0.69346 0.86682 0.34673 0.34674 0.5201-0.69346 0.69346-0.86683 0.5201-1.2136 0.17336v0.69346h2.2538l1.5603-1.0402 2.0804-0.5201 2.0804 0.34673 1.3869 1.7337-0.17336 1.3869-1.2136-1.0402-1.7336 0.17336-1.907 0.5201h-0.69342l-1.3869 0.34673-0.69346 0.17337v1.3869h0.69346l1.7337-0.86683-1.0402 1.3869-0.52011 1.5603-1.0402 0.17336-0.34674-0.69346-1.907 0.86683-0.34674 1.2136h-1.0402l-0.69346-0.69346-1.5603 1.0402-1.5603 1.0402-1.5603-0.17336-1.0402-0.5201-0.86682-0.5201 1.5603-0.34673 0.34672-1.0402-0.17336-0.5201-0.86683-0.86683 1.5603-0.17336 1.2135-0.17337 1.2136-0.86682-1.2136-0.34673h-0.86682l-1.3869 1.0402-0.52009-0.86683-1.0402-0.5201h-1.3869l-1.2135-0.34673h-1.7337l-2.0804 0.5201h-1.2136l-1.0402-1.0402 0.34673-0.17337v-0.69346l-0.5201-0.86683h-1.5603l-1.2136-0.34673h-0.69346l-1.0402-0.5201-1.3869-0.69346v-0.69346l1.0402-0.86683-1.2136-0.34673h-2.2537l-1.0402-0.34673h-1.5603l-1.0402-0.17336h-2.6005l-1.2136 0.69346-0.69346 0.86683-0.34673 1.0402 2.0804 0.69346h0.69346l2.2537 1.3869 0.5201 0.34673h2.0804l2.0804-0.17336 1.907 0.69346 0.5201 1.2136-2.0804 1.0402-2.0804 0.86683-2.4271 0.17336-2.7738 2.4271-0.5201 2.0804s-1.0402 0.34673-1.3869 1.2136c-0.34673 0.86683-2.6005 2.2537-2.6005 2.2537l-3.1206 1.7337-2.7738 0.52009h-2.9472l-0.86682 2.2537-0.86683 0.69347h-3.1206l0.86683 1.0402h1.5603l1.2136 0.69346 1.0402-1.2136 2.0804 0.34672 2.0804 3.2939-1.2136 0.34672-1.3869 0.86683-0.17337 4.3341-1.5603-0.86683-1.907-0.69347h-1.3869l-0.69346 0.69347v0.69346l0.86682 1.3869-1.3869-0.17336h-1.7337l-0.69346 0.69346h-1.2136l-0.5201-1.0402h-2.4271l0.69346 1.5603v1.907l-0.34673 0.34673v1.2136l1.3869-0.86683 0.69346-0.52009 1.0402 0.52009v1.3869l-1.0402 0.52009-0.69346 0.5201 0.34673 1.0402 0.17337 1.0402-0.69346 0.86683 0.5201 1.3869-1.0402 0.69347-2.2537 0.17336v1.7337l1.0402 1.7336 1.5603-0.52009 1.5603 0.34673 1.907-1.0402 1.907-1.0402v-3.6407l1.5603-0.34673 0.34673-1.0402h1.3869l1.7337-1.2136 1.0402 0.17336 2.6005-0.34672 2.7738-0.5201 2.4271-0.17336 4.6809-4.3341 1.907-2.2537 2.4271-1.5603 1.2136-1.2135v-3.4673l4.5075 0.52009 2.4271-0.86683 3.1206-0.52009-0.17336 2.2537-0.5201 2.2537v1.5603l-0.86683 1.0402-0.5201 1.5603-0.69346 2.0804-1.7337 1.2136-1.2136 0.52009-0.86682 1.0402-1.907 0.86683-1.7337 0.52009-1.3869 0.69346-1.0402 0.86683z" fill="green" stroke-width=".27738px"/>
 <text x="19.180593" y="78.314262" fill="#fff" font-family="sans-serif" font-size="3.5278px" letter-spacing="0px" stroke-width=".26458" word-spacing="0px" style="line-height:1.25" xml:space="preserve"><tspan x="19.180593" y="78.314262">Saranda-Singhbhum</tspan><tspan x="19.180593" y="82.723961">      Range</tspan></text>
 <path d="m33.114 3.7336-0.79887 2.1263 1.3315 1.7011-2.6629 8.2926 0.53258 1.7011-1.0652 1.7011-0.53258 1.7011-2.1303 3.4021v0.6379l-0.79888 1.4884v1.4884l1.0652 1.7011 0.79887 0.63789v3.1895l0.26629 2.5516 1.3315 4.2526-0.26629 2.7642-0.79888 4.8905-0.79887 1.4884-1.864 1.4884 0.79888 2.1263 1.3315 2.1263 2.3966 1.2758 1.5978 0.21263 1.3315 2.1263h1.3315l2.1303 5.1032 1.5977 0.42526v1.4884l-0.26629 4.04 1.0652 0.42526 2.1303 0.85053 2.9292-0.42526 2.9292-0.85053 4.527 1.7011 1.5977 1.7011 1.864 2.1263 1.3315-0.42526 0.79887 2.1263 5.3258 0.63789 4.2607 1.0632h1.5978l3.9944 1.7011 2.1303 2.5516 1.5978-1.0632 2.1303 0.42526 1.5978 1.0632 0.79887 0.6379 2.6629 2.339 2.3966 0.42526 2.3966 1.4884 2.1303 0.85053 4.2607 4.04 2.1303 0.63789 1.3315 2.9768" fill="none" stroke="#345" stroke-width=".5px"/>
 <path d="m33.114 3.7336 3.6881 1.3616 0.68739-0.67418 0.54198 0.13219 0.54198 1.2294 0.965-0.6874 2.3133 3.8203h0.6874l1.7714 3.4238 3.2783 2.4588 1.2294 0.40979 1.0972 2.1812 2.049 2.8686 1.084 0.2776 1.3748 1.7714 1.084-0.5552 3.6881-1.3616 1.9168 1.3616-0.68739 0.965 0.68739 0.95178 1.2294 0.40979 1.0972 0.81959 1.2294 0.40979 0.81958 0.95178 0.54199 1.2294 0.54198 2.4588 1.2294 1.9168 0.40979 2.4588 1.0972 1.6392 1.7714 1.507 3.6881 3.8203 5.8693 3.0007h1.2294l1.0972 1.6392h1.2294l2.3133 1.6392 5.7371 2.4588 1.9168 0.13219 1.2294 0.2776 1.507 0.95178 0.95178 0.40979h1.2294l1.4938-0.13219 1.2294 0.13219 2.1944 0.68739 3.1329 1.3616h2.7364l1.507 2.3266 0.81959 0.54198 0.67417 0.40979v0.95178l0.6874 0.5552 0.40979 1.3616 1.6392 1.507h1.3616l1.6392 0.67418h1.0972l1.2294 0.2776h0.81958l0.26439 0.4098 0.14541 1.7714-0.55521 1.0972-1.084 1.507v0.81959l0.54199 0.81959 0.95178-0.40979 0.81958 0.26438 1.0972 1.507 1.0972 0.40979 0.81958 1.3616 1.2294 0.54198 1.9036 1.0972 1.7846 1.507 0.95178 0.40979 1.4938 0.13219 0.965 0.95178 1.3616-0.54198 0.13219-0.95178 0.68739-0.81959 2.4588-0.14541" fill="none" stroke="#345" stroke-width=".5px"/>
 <g>
  <ellipse cx="98.967" cy="96.73" rx="3.8006" ry="3.9687"/>
  <ellipse cx="139.67" cy="74.936" rx="3.8006" ry="3.9687"/>
  <ellipse cx="34.249" cy="4.4357" rx="3.8006" ry="3.9687"/>
 </g>
</svg>
