<svg width="425.63mm" height="349.91mm" version="1.1" viewBox="0 0 425.62555 349.90757" xmlns="http://www.w3.org/2000/svg" xmlns:cc="http://creativecommons.org/ns#" xmlns:dc="http://purl.org/dc/elements/1.1/" xmlns:rdf="http://www.w3.org/1999/02/22-rdf-syntax-ns#">
 <metadata>
  <rdf:RDF>
   <cc:Work rdf:about="">
    <dc:format>image/svg+xml</dc:format>
    <dc:type rdf:resource="http://purl.org/dc/dcmitype/StillImage"/>
    <dc:title/>
   </cc:Work>
  </rdf:RDF>
 </metadata>
  <g transform="translate(193.18 -22.199)" stroke="#fff" stroke-width=".5">
   <path d="m144.08 29.825 1.5406 1.7718 0.26319 1.33 1.1508 2.0867 2.1607 2.3734 1.2166 2.3734 0.13159 1.7671-0.39457 2.082-0.54953 2.082-1.0804 1.6214-0.19722 2.3734 1.1461 1.33 1.2119 1.4052 1.4796 2.2277 0.39927 3.0266-0.26778 2.0115-1.0146 2.4439-1.6769 0.60623-1.3481 0.75197 0.39458 2.0115 0.81735 2.4439-0.26778 2.3733-1.5407 2.2277-1.4796 1.189-0.26319 1.6214 0.13159 1.33-0.13159 2.3734-0.53076 2.8105 0.0656 1.6214 0.61536 1.4757 1.3481 2.1572 0.81258 1.4052 1.7474 2.3029 2.2922 2.8105 0.81727 2.5895-1.5454 2.082-2.1607 0.43709-2.56 0.58276-2.1607 0.89295-0.26777 2.519 1.5454 1.4804 1.3434 2.8104 1.2776 3.9947-0.39457 2.6647-0.61999 3.3415 0.0706 3.6327v3.271l0.39457 1.7671-0.68581 2.8104-0.88308 3.1018-1.6769 1.189-0.5308 0.1457-1.8319 1.9175-1.3434 1.8423-2.3627 2.2982 0.39457 0.89765 0.53076 0.57803 1.4796 1.33 0.68578 0.89765-0.68578 0.43709-0.5496-0.29142-1.8319 0.1457-1.6064-0.1457-1.5453-0.5828-1.4796-1.1843-1.2777-1.6214-2.2922-3.0266-1.4138-1.2595-1.0804-0.43709-1.5407-1.7718-1.4796-1.6214-0.81733-1.33-0.81259-1.189-1.8977-0.89764-1.6816-0.14113-1.9588 0.74724-2.9545 0.296-2.3627 0.67676-2.8934-0.75194-2.2265-0.0706-1.7474-1.1843-2.4895-1.0433-1.5454 0.43709-1.9588-0.14571-1.4139-0.50758-2.7572-1.3347-1.7427-0.67679-1.3481-0.43706-1.8319 0.29142-2.2922-0.75197-1.2777-0.89764-0.54955-0.89296 0.13159-0.96813 0.06597-3.1018 0.3334-2.4485 0.06597-1.7624 0.81729-3.4167 0.94884-2.2276 0.81263-2.8104-0.06597-2.8105-0.26778-1.3347-0.13159-1.4757 0.06597-1.4052 0.3334-0.97283 1.2118-2.3734 2.0997-2.9514 2.1654-2.8104 3.3068-3.7784 1.0757-2.7352 0.33337-1.1843 0.39457-3.271-0.066-2.7352 0.066-1.4052 0.3334-2.4439 0.53081-2.3029 0.88308-2.082 1.2118-1.33 0.75625-2.8104 1.1461-0.89764 1.4797-0.4324 1.8319-0.58273 1.4796-0.50758 1.7426-1.0433 0.88312-1.6919 1.2166-0.43709 2.2922-0.89764 1.2166-1.4804 1.6111-1.33 2.095-5.475 0.26319-2.9514 1.7427-3.7082 0.33341-3.0971 1.5406-0.89765 2.2265 0.43708 1.6111 1.189 2.7572 1.0434 2.6258-0.14567 2.8277-0.65327 1.4092-1.0386 1.832-0.22089 1.1508 0.14567 1.8272-0.14567 0.75155-1.4804-0.20181-2.082-0.39454-2.6647z" fill="#e2b584" id="Godda" />
   <path d="m86.962 122.38 1.2776 0.89295 2.2922 0.75193 1.8319-0.29141 1.3481 0.43709 1.7427 0.67675 2.7572 1.33 1.4139 0.50759 1.9587 0.1457 1.5454-0.43709 2.4895 1.0387 1.7473 1.189 2.2265 0.0706 2.8935 0.75194 2.3627-0.67676 2.9545-0.29141 1.9588-0.75197 1.6769 0.1457 1.8977 0.89765 0.81259 1.1843 0.81732 1.3347 1.4796 1.6214 1.5407 1.7671 1.0804 0.43706 1.4139 1.2595 2.2922 3.0266 1.2776 1.6214 1.4796 1.1891 1.5454 0.58277 1.6065 0.1457 1.8319-0.1457 0.54957 0.28683 0.68578-0.43709 2.8935-1.33 1.8319-1.0387 2.3627 0.89764 1.2119 1.189 2.1654 0.28683 3.6405-0.58273 3.3115-0.57807 1.0804 1.1843-0.26778 2.8104-0.066 2.0115-0.75158 1.5509 0.53083 3.854 1.0756 2.6647 0.2018 2.082 1.4796 2.519 1.1461 2.3734 0.066 2.66 0.88308 4.6012-0.39458 1.33-0.19722 2.8809-0.0706 3.1018-0.81259 2.2982-0.26778 1.7671 0.26778 2.0114 2.095-0.21627 2.0292 0.36661 2.56-0.29143 1.7473 0.51227 1.8319 0.36657 1.6769 0.21627 1.7426 0.58274 2.2969 0.74726-1.8319 1.189-1.5454 0.8225-0.52606 0.68143-2.1654 1.4052-2.56 1.6919 0.88307 1.9128 1.0804 1.6214 2.095 0.65322 2.2923 0.96813 1.8319 0.82716 0.13152 1.2595 0.39462 1.7671-2.9123 2.082-0.59657-0.14567-4.1947-0.36189-2.6257 0.0751-0.88314 0.74727-0.54953 2.3028-1.1461 2.1572-1.4139 2.519-3.0438 3.1018-3.7061-1.8422-2.2969-1.4052-2.1654-0.43708-1.6065 0.14567 0.32882 2.2276 0.53079 1.7671-0.53079 2.2276-0.94884 1.4757 1.4139 1.2595 0.3334 1.6966-0.19722 1.6261-1.6769 1.2596-2.6304-0.36661h-1.5407l-1.1461 2.082-1.0146 1.0433-1.8319 1.4757-1.7426 2.082-1.4139-0.14113-0.88308-1.6261-2.1654-1.33-0.26284-0.5828-0.68578-0.82243-3.5699 0.82243-1.0193 1.5509-0.68111 0.50758-1.4796-1.33-1.3481-2.3734-1.8977-2.9561-1.3434-0.43708h-3.9082l-2.4238 0.58275-2.56 0.75198-0.39456 1.9127 1.3434 1.7671 2.3627 2.082 1.6112 1.1843 0.46501 0.97283 1.1461 2.1572 0.81262 2.519 0.3334 1.3347 0.53078 2.9514 0.46036 2.2324h-2.2265l-1.6064 1.0386-1.0804 0.75197-1.0193 0.51227-2.0949 2.082-2.0997 1.4052-1.0803 0.58273-1.4092 0.752-1.9024 0.74725-1.3434 0.65322-0.46033 0.0706-1.8319 1.3347-1.4796 1.5462-0.6858 0.8225-1.6769 1.4804-1.6112 0.57807-2.2922 0.14567-1.6816-0.29143-2.358-0.43708-1.9024-0.89765-3.3115-0.50758-2.5365-0.60623-2.4284-0.89765-1.8319-0.89294-3.2411-0.89765-2.1607-0.36187-2.3627-0.68147-1.6769-0.75194-2.0292-0.14113-2.6915 0.4324-1.9587-0.5828-2.8934-0.28683-1.1461 0.28683-1.3481-0.14567-1.5407-0.0751-1.5454 0.36657-1.2119 1.0387 0.59185 1.7671-0.06597 1.6214v1.2595l-1.4138 2.1571-1.8319 1.1843-0.26319 1.6966-2.1607 2.3734-0.26778 0.65321-0.61535 1.6214-0.53081 1.5509-0.46029 2.0115-0.3946 1.4757-0.26778-1.2595-0.06597-0.82247-0.19722-2.5237 0.13159-0.58274 0.26778-1.1843-0.53081-2.082-0.46502-1.9128-0.61531-1.4804-0.68583-2.082-0.13159-0.89764-0.77506-0.96817-0.39456-0.58276-0.74683-0.29142-0.3334-0.82246-0.26319-0.96813-0.19722-1.0386-1.6769-2.3734-1.0193-1.6261-1.4091-1.33-4.0395-3.271-0.81732-0.58277-2.2922-2.082-2.56-1.33-2.2264-1.4757-2.56-1.4804-2.6915-1.9081-2.8934-1.8423-1.8319-1.2595-1.5407-1.0433-2.8935-1.4005-2.6257-1.1138-1.2823-0.36184-1.1462-0.0706-2.9122-1.1185 0.81259-0.96813 1.0146-0.8272 1.3434-2.2981 1.2823-1.4804 1.0804-1.0386 1.6112-1.6214 1.3434-1.4052 1.2165-0.82713 0.88312-2.082 0.46029-2.082-0.06597-2.519-0.6858-0.75197 0.88308-0.43701h1.1461l1.6769 0.0751 1.6769-0.68149 1.2776-0.28682 3.7061-0.89765 1.4139-0.74724 1.2776-0.5828 2.0292-0.29143 3.5088 0.14113 2.0292 0.4371 1.8977 0.36183 1.2166 0.36661 3.1095 1.33 0.88311 1.33v1.6966l0.26284 1.2595 0.75152 1.1891 2.0292-0.0751 1.4796 0.5122 0.81732 1.7671 0.46033 0.89765 0.81732 0.43705 1.5407-0.89296h1.4139l0.9488 0.14568 1.3434 0.50757 2.0997 0.96813 2.095 1.33 1.8319-0.14113 2.3627-0.89769 2.3627-0.21627 2.0292-0.0706 1.8319 0.29141h3.0438l2.4284-0.29141 1.9587-0.43237 1.0803-2.8105 0.39457-1.7671-0.13159-2.5191-0.3334-2.3733-1.0804-1.7671-1.4139-0.14567-1.6769-0.28683-0.6858-1.4052 1.0804-2.0115 1.8319-0.75197 1.4139-1.0386 0.39456-1.7718 0.94884-1.7671 0.26778-1.4804-0.46502-1.8376 1.0804-0.21627 1.3434-0.58275 1.2165-0.14567 2.2923 0.82716 2.6915-0.22087 1.6769 0.65796 1.6769-3.3462-0.94884-1.4757-0.75152-1.4804-1.2777-2.082-2.3627-2.0114-2.56-3.4872-1.5454-0.29143-2.095-0.29141-1.0193-0.75193-1.2166-2.6648-1.0756-1.0433-1.0804-0.68145-0.75156-1.2595-0.3334-1.7671-1.0193-0.74728-0.75152 0.28683-1.4796 0.14567-0.13159-1.4052 0.3334-1.6261 0.39457-2.7352 0.62004-2.8104 0.3334-2.6647-0.46502-0.75201-1.7426 0.96817-1.3481 1.5509-0.61534 1.189-2.0292 0.14567-1.8319-2.3734-0.61535-1.1891 0.06597-1.4757 1.3434-1.189 1.4796-2.3029 0.75156-2.5942 0.81729-2.8057 0.81262-1.7671 1.2777-1.6214 0.53074-1.0387-0.06597-2.2276 0.53081-2.4486-0.46502-1.6966-0.53078-2.082-0.3334-2.6647 0.68583-1.7718 1.4138-0.89764 1.7427-0.89295h1.5454l1.4796 0.1457 1.4796 0.96814 1.3434 1.1138 2.0292 0.82243 1.8319-0.0706 2.2969-0.75193 1.0756-1.4757 0.62003-1.4804 0.26319-0.67676 0.07056-0.75193z" fill="#a3b0a3" id="Dumka" />
   <path d="m20.989 135.1 2.56 0.89292 3.1096 1.7718 3.3115 1.8376 2.3627 0.0751 2.6257-0.75193 2.2264-1.7718 1.7427-2.2981 1.832-2.0115 1.2119-0.82246 2.1654-1.7671 1.0146-0.43709 1.9024 0.96814 1.6111 1.2596 1.0146 1.8376 1.6111 1.8423 1.7427 1.8376 1.1508 0.89764 2.0292 0.43706h2.4285l2.2922-0.43706 1.2823 0.89761 2.0292 1.0387 2.0997 1.2595 1.2776 0.65795 1.3434 0.89298-0.81263 1.7671-0.81728 2.8104-0.75156 2.5896-1.4796 2.3028-1.3434 1.1891-0.07056 1.4757 0.62007 1.189 1.8319 2.3734 2.0292-0.14567 0.61535-1.189 1.3434-1.5462 1.7474-0.96817 0.46036 0.75197-0.32882 2.6647-0.62007 2.8058-0.39453 2.7352-0.3334 1.5509 0.13159 1.4757 1.4796-0.14567 0.75156-0.29143 1.0193 0.75197 0.32882 1.7671 0.75156 1.2596 1.0803 0.67672 1.0804 1.0433 1.2166 2.6648 1.0146 0.75193 2.0997 0.29141 1.5407 0.29143 2.56 3.4872 2.3627 2.0114 1.2823 2.082 0.75156 1.4804 0.94888 1.4757-1.6769 3.3462-1.6769-0.65797-2.6915 0.22087-2.2922-0.82716-1.2166 0.14567-1.3434 0.58275-1.0803 0.21627 0.46029 1.8423-0.26319 1.4804-0.9488 1.7671-0.3946 1.7671-1.4139 1.0386-1.8319 0.75196-1.0804 2.0115 0.68583 1.4052 1.6769 0.29143 1.4138 0.14567 1.0804 1.7718 0.32882 2.3734 0.13159 2.5143-0.39456 1.7718-1.0804 2.8104-1.9634 0.4371-2.4284 0.29141h-3.0438l-1.832-0.29141-2.0292 0.0706-2.3627 0.22087-2.3627 0.89763-1.8319 0.14567-2.0949-1.33-2.0997-0.96813-1.3434-0.50754-0.9488-0.14567h-1.4139l-1.5407 0.89292-0.81728-0.43705-0.46033-0.89295-0.81735-1.7671-1.4796-0.50758-2.0292 0.0706-0.75152-1.189-0.26319-1.2595v-1.6966l-0.88307-1.33-3.1096-1.3347-1.2166-0.36187-1.8977-0.36189-2.0292-0.43705-3.5088-0.14112-2.0292 0.28683-1.2776 0.58277-1.4139 0.75193-3.7061 0.89296-1.2823 0.29141-1.6769 0.68149-1.6769-0.0751h-1.1461l-0.88308 0.43706-1.0804-1.6966-1.4138-0.36189h-1.6769l-2.8935 0.14567-2.2922-0.75198-0.88304-1.6966 0.46498-3.0266 0.6811-2.1525 0.6858-2.0115 0.26319-2.3734 0.26778-2.082-0.88308-3.4167-1.2776-2.3734-1.0803-1.9175-1.6064-3.1723-0.81732-1.6966-0.46032-2.1525-0.26778-0.96814 0.46505-1.4804 0.39453-1.33 0.065974-1.6214 0.59654-2.3734 0.1316-2.3733 0.26778-2.3687 0.26319-2.0115 0.75152-1.6966 0.81735-2.2276 0.75156-2.0115 0.94884-2.4486 1.2776-3.4166 1.3434-2.2277 2.0292-3.3415 1.6111-1.4804 2.0292-1.8423 2.5599-1.9128 1.8319-1.0434z" fill="#abacda" id="Deoghar" />
   <path d="m151.52 98.253 12.199 4.6012 10.592-4.6012 9.0471 3.849 8.3658-4.6011 6.5292 1.33 0.3334 3.7082 0.75154 2.6647 0.61536 1.33 1.9024 0.1457 4.4576 3.7033-1.2824 2.3734 0.066 1.1843 0.75154 1.6214 1.5454 2.6648 1.1461 1.3347-0.61536 2.5143-1.4796 1.9175-1.3481 2.1525-0.68114 0.89767-0.19722 1.1138 1.2776 1.9128 0.68112 0.67672 1.6111 2.1572 0.46507 0.82246-0.68582 1.4052-1.8319 1.9128-1.8977 0.75197-1.4139-0.14571-1.2166-0.75197-2.5599-2.0115-2.2265-1.2595-2.2922-0.89765-1.5454 0.14571-0.81257 1.4052v1.8423l0.88307 1.33 1.1461 2.082 0.46033 1.33-0.46033 2.082-0.33342 1.7671 0.81729 3.1018 0.39457 1.5462 0.61536 2.4485-1.6112 3.6327-1.0804 0.89295 0.39926 1.6966 0.87839 2.6647 0.46499 1.8423-0.8173 3.7784-3.3726 4.2861-1.6111 3.3415-0.94883 1.7718-1.4796 3.4872-1.4139 1.6966-1.2776 1.5509-0.94883 1.2595-1.5407 1.1139-0.94883 0.51224-0.88307 0.0706-1.8319 1.189 1.8319-1.189-2.2969-0.75195-1.7427-0.58275-1.6769-0.21627-1.8319-0.36192-1.7426-0.51222-2.5553 0.29141-2.0338-0.36187-2.095 0.21627-0.26319-2.0115 0.26319-1.7671 0.81262-2.2982 0.0706-3.1018 0.19722-2.8809 0.39454-1.33-0.88303-4.6011-0.066-2.6647-1.1461-2.3734-1.4796-2.5237-0.19722-2.082-1.0803-2.6647-0.53079-3.849 0.75154-1.5509 0.066-2.0115 0.26778-2.8104-1.0803-1.189-3.3115 0.58273-3.6405 0.5828-2.1654-0.29141-1.2119-1.1843-2.3627-0.89761-1.8319 1.0386-2.8935 1.3347-0.68578-0.89768-1.4796-1.33-0.5261-0.58273-0.39923-0.89764 2.3627-2.3029 1.3481-1.8423 1.8272-1.9128 0.53084-0.1457 1.6769-1.1891 0.88304-3.0971 0.68582-2.8104-0.39458-1.7718v-3.271l-0.0706-3.6327 0.62005-3.3462 0.39455-2.6648-1.2776-3.9947-1.3434-2.8104-1.5453-1.4758 0.26778-2.519 2.1607-0.89764 2.4895-0.58277z" fill="#c2f0c2" id="Pakur"/>
   <path d="m174.31 98.253-10.592 4.6012-12.199-4.6012 1.5406-2.082-0.81258-2.5895-2.2969-2.8105-1.7426-2.2981-0.81262-1.4052-1.3481-2.1572-0.61533-1.4757-0.066-1.6214 0.52611-2.8105 0.13159-2.3733-0.13159-1.33 0.26778-1.6214 1.4796-1.189 1.5407-2.2277 0.26778-2.3733-0.81735-2.4439-0.39454-2.0115 1.3434-0.75194 1.6816-0.6063 1.0146-2.4439 0.26778-2.0115-0.39924-3.0266-1.4796-2.2277-1.2118-1.4052-1.1461-1.3347 0.19722-2.3734 1.0757-1.6214 0.54953-2.082 0.39927-2.082-0.13159-1.7671-1.2166-2.3734-2.1607-2.3734-1.1508-2.0867-0.26319-1.33-1.5454-1.7718 1.0193-1.189 0.75155-1.7671 1.8319-1.189 2.4285-0.57805 1.8319-0.14567 1.2776-0.3619 1.4139-0.2162 1.2119-0.75195h2.0292l0.75158-1.0386 4.4576 2.5191 3.3726 0.50756 4.5235 0.36189 2.56 1.0386 3.1096 1.4757 3.7061 0.96814 2.8888 0.3619 2.6305 0.89296 2.2922 0.75195 2.0997 0.43238 0.32881 1.189-0.59661 2.1572-0.3334 1.6966 0.1317 1.7671 0.75151 1.6261 0.62005 2.66 0.32882 1.4804-0.32882 2.5895-0.3334 1.2595 0.066 1.4804 0.53072 2.519 0.5496 0.89764 1.2776 1.6261 0.94882 0.43705 1.2166 1.4052 1.9587 1.8376 1.4796 1.2595 1.4797 1.8423 0.95349 3.5625 0.68108 3.849 0.62007 0.97283 1.2776 2.8809 0.26318 2.5191 0.26321 2.8104 0.3334 2.0068 0.54956 1.6966 0.61997 3.4166 0.19724 1.0386 0.46032 2.8105-0.066 0.75194 0.39462 2.4439-0.75162 1.5462-1.9634 1.1843-1.8319 1.6214-1.6065 1.0433-1.6111 0.74724-0.81735 0.296-6.5292-1.3347-8.2952 4.6012z" fill="#e7de69" id="Sahibganj" />
  </g>
  <g fill="none" stroke="#345" >
   <path d="m373.52 7.1986 4.2775 4.2775 1.4258 9.2679-7.1292 10.694-4.9904 12.12-4.2775 3.5646 2.8517 4.9904-3.5646 7.8421 5.7033 8.555-4.2774 2.1388-2.8517 4.9904v10.694l8.555 8.555 2.1388 10.694-2.8516 4.9904-4.2775 12.12-4.9904 6.4162v7.1292l-4.2775 1.4258v3.5646l-6.4162 4.9904-0.71299 9.9808-9.9808 4.2775-8.5551 3.5646-4.9904-2.1387h-2.8517l-7.1291 11.407-4.9905-2.1387-3.5646 2.8517-2.1387 0.71292v5.7033l-0.71299 1.4258-3.5646 2.1388-9.2679 4.9904-4.9904 2.8517-2.1387 1.4258-9.2679 9.2679-6.4163 11.407-6.4162-2.8516-7.1292 1.4258-0.7129 7.1292-2.1387 2.8517-4.2775-1.4258-6.4163 3.5646h-4.2775v1.4258l-5.7034-0.71294-5.7033-5.7034-4.2775 0.71295-4.9904-7.1292-7.8421-2.8517-8.555 5.7033 7.8421 9.2679-1.4258 5.7033 9.2679 2.1388-0.71291 5.7033-3.5646 0.71293-4.2775 2.8516-6.4163 2.8517-2.8516 4.9904-28.517-6.4162-2.1387 2.1388-3.5646 7.8421-4.9904-1.4258-4.9904 2.8517-7.1292 1.4258-9.2679 5.7033h-7.1292l-9.9808-0.71294 2.8517 5.7034v4.9904l-2.1387 4.9904-5.7033 2.1388-5.7033 0.7129-8.555 2.8516-7.1292 2.1388h-5.7033l-0.71294 3.5646-1.4258 4.9904-4.2775 2.8517-6.4162 3.5646-9.2679 7.8421h-11.407l-6.4162 2.1388-4.9904-2.1388-3.5646 1.4258-8.555 4.2775-3.5646 2.1388-4.2775 6.4163-15.684 13.545" stroke-width=".5px"/>
   <path d="m119.01 261.71v-5.7504l7.1018-4.3129v-2.1564l-3.5509-2.1564 3.5509-5.7505-1.4204-2.8752-0.71016-2.1564-0.7102-4.3129-2.8407-1.4376v-6.4693l4.261-5.0316h3.5509l4.9712-3.594 6.3916-2.1564h5.6814l4.261-2.8752 0.71016-5.0317 4.9712-5.7505 4.261-5.0317 6.3916-5.7505-0.71017-4.3128 4.261-4.3128 4.2611-6.4693h16.334l4.261-1.4376h2.8407l3.5509 2.1564 3.5509-1.4376 4.261 0.71879 7.8119-2.1564 3.5509 5.7505 4.261 2.8752 5.6814 2.1564h4.261l4.261-1.4376 4.9712 2.1564 2.8407-0.71881 4.2611-1.4376h4.261l7.8119 5.0317 4.261-5.0317h10.653l6.3916-3.594 19.885-2.8752" stroke-width=".5px"/>
   <path d="m220.54 146.84-3.8116-0.54753-2.178 2.7377-5.9896 6.0229-3.267 4.3803-2.178 2.1902-2.178 4.3803-3.8116 6.5705" stroke-width=".5px"/>
   <path d="m220.58 146.89 12.812 9.227 2.2566 5.9591 6.7698 9.291 3.7124 11.277" stroke-width=".5px"/>
   <path d="m369.24 94.887 3.7887 0.94718h4.7358l2.8415 0.47358 1.8944 4.2623 4.2623 1.8944 5.6831 0.47358" stroke-width=".5px"/>
   <path d="m220.55 146.83h4.7616l1.4651-2.8917-0.36625-1.9278h5.4942l2.1977-0.48198h1.8314l1.8314-3.3736 3.2965 1.4458 1.8314-4.3376 2.9302 1.9278 2.1977-2.4098 3.2965-1.4459 2.9302-0.48191 1.4651-1.9278 2.5639-0.48193h4.029l3.6628 0.9639 6.2267-10.121h2.5639l2.5639-2.8917 4.7616 1.4458 1.4651-2.8917 4.3954-2.4098 8.4244-10.603 1.4651-4.8195 2.1977-0.48196v-5.3014l0.73256-3.3736-0.36631-1.9278 4.3954-13.013-1.0989-4.3375 1.8314-2.4098 2.5639 1.4458h4.3954l4.7616 0.96391 1.4651 3.8556" stroke-width=".5px"/>
   <path d="m318.71 74.533-0.47529 5.7051-3.3272 6.5827 2.3766 3.072-0.95066 4.8274 1.426 6.5828-2.8519 2.1942-6.1791 0.87769-1.426 3.9497v1.7554l-0.47531 3.9496-2.8519 4.8274 6.6545 4.3885 1.4259 6.1439 2.8519 4.3885 0.95063 3.5108 1.9012 4.8273 4.2779 2.1942v4.3885l-3.8026 3.5108 1.4259 3.9496v3.072l-0.95064 2.6331-2.3766 3.5108 0.95066 3.0719" stroke-width=".5px"/>
   <path d="m317.25 70.686 3.5014 2.2205 3.1124 2.9607 3.1123 1.8504 4.2795 1.8504 2.7233-0.74018 3.8904-1.4804 0.38907 1.4804 2.3343 0.37009 1.1671-2.9607 4.2795-3.7009 5.4466-0.74018h6.2247l5.0576 0.37009" stroke-width=".5px"/>
   <path d="m235.93 226.06-3.826 5.2059-4.1738 0.74371 3.4782 2.603-1.3913 2.2311 1.7391 1.8593-0.69563 2.9748 2.7825 1.4874 3.826 6.6933 1.7391 3.7185v2.9748l-0.69564 2.603-1.3913 2.2311-0.34784 3.7185 1.0435 5.2059-0.34784 2.9748-0.3478 2.2311v2.603l-1.7391 1.1156-3.826 0.74371h-2.0869l-0.69564 2.2311 1.3913 3.3467-1.7391 2.603-1.0434 2.9748-0.69564 3.3467-1.7391 1.8593-1.3913 1.4874-3.4782 1.1156-2.4347-1.1156-2.4347 1.1156-1.7391-0.37186h-2.4347l-1.3913 4.0904-2.7825 3.7185-4.1738 3.7185-7.652 4.0904h-2.0869l-3.826 3.7185h-3.1304l-5.5651 3.3466-1.3913 3.7185-2.4347 4.0904-5.2173 2.9748-1.0434 2.2311-3.4782 1.4874v0.74371h-3.4782l-2.0869-0.37185-4.5216 0.74371-3.1304-0.74371-4.5216-1.8593h-2.7825l-2.4347-1.4874-3.826-1.1156-11.13-1.1156-3.826-1.1156-2.7825 1.1156-5.2173-0.74371-4.1738 3.7185h-2.7825l-1.3913 0.37186-2.4347 0.37185-1.7391 1.4874-4.1738 3.3467-4.5216-0.74371-5.2173-1.1156-4.5216-0.74371-3.1303 2.603-4.1738 1.4874-3.826 0.37186-1.3913-0.74371-2.0869-2.9748-3.1304 1.8593-17.391 1.4874-2.4347-0.74371-2.4347-2.2311h-4.1738l-3.1304-0.37184-2.7825-2.603h-3.826l-2.7825-1.1156-1.0434-0.7437-3.826-0.74369-7.652 6.6933-0.69564-2.2311-2.0869-0.74371-1.7391 0.37186-6.2607-0.37186" stroke-width=".5px"/>
  </g>
 <g fill-rule="evenodd">
  <ellipse cx="5.4266" cy="334.94" rx="5.4268" ry="5.7414" stroke-width=".29168"/>
  <g stroke-width=".34655">
   <ellipse cx="220.09" cy="146.78" rx="6.4475" ry="6.8213"/>
   <ellipse cx="235.75" cy="224" rx="6.4475" ry="6.8213"/>
   <ellipse cx="392.88" cy="103.05" rx="6.4475" ry="6.8213"/>
   <ellipse cx="316.75" cy="71.189" rx="6.4475" ry="6.8213"/>
   <ellipse cx="373.98" cy="8.0133" rx="6.4475" ry="6.8213"/>
   <ellipse cx="306.49" cy="173.78" rx="6.4475" ry="6.8213"/>
  </g>
 </g>
 <g fill="#000000" font-family="sans-serif" font-size="3.5278px" letter-spacing="0px" stroke-width=".26458" word-spacing="0px">
  <text x="390.72394" y="11.793045" style="line-height:1.25" xml:space="preserve"><tspan x="390.72394" y="11.793045" font-size="6.35px" stroke-width=".26458">Sahibganj</tspan></text>
  <text x="304.86942" y="58.770042" style="line-height:1.25" xml:space="preserve"><tspan x="304.86942" y="58.770042" font-size="6.35px" stroke-width=".26458">Godda</tspan></text>
  <text x="402.60318" y="106.82697" style="line-height:1.25" xml:space="preserve"><tspan x="402.60318" y="106.82697" font-size="6.35px" stroke-width=".26458">Pakur</tspan></text>
  <text x="203.3559" y="134.3652" style="line-height:1.25" xml:space="preserve"><tspan x="203.3559" y="134.3652" font-size="6.35px" stroke-width=".26458">Deoghar</tspan></text>
  <text x="223.31308" y="207.75926" style="line-height:1.25" xml:space="preserve"><tspan x="223.31308" y="207.75926" font-size="6.35px" stroke-width=".26458">Jamtara</tspan></text>
  <text x="321.60834" y="180.26227" style="line-height:1.25" xml:space="preserve"><tspan x="321.60834" y="180.26227" font-size="6.35px" stroke-width=".26458">Dumka</tspan></text>
  <text x="11.128198" y="343.33188" style="line-height:1.25" xml:space="preserve"><tspan x="11.128198" y="343.33188" font-size="6.35px" stroke-width=".26458">Ranchi</tspan></text>
 </g>
</svg>
