<svg width="298.77mm" height="358.33mm" version="1.1" viewBox="0 0 298.77256 358.32704" xmlns="http://www.w3.org/2000/svg">
  <g transform="translate(1.2945 -1.3443)"  stroke="#fff" stroke-width=".5">
   <path d="m91.073 182.28c-0.30795 3.1214 2.1416 4.717 4.9549 4.983 1.8476 0.18206 4.0172 0.14022 5.6547-0.88177 1.2038-0.7559 1.6237-2.4495 3.4152-1.9737 0.16797 5.641-0.58789 7.1386 5.389 8.7342 1.0078-3.3592 6.2146-8.2302 5.599-11.604-2.1975-0.5879-5.5568-5.6968-1.9456-6.4806 2.1416-4.5211 1.1898-8.0063 6.9005-8.2302 0.9798-5.2069 2.0856-9.602 2.6033-14.893 3.5692-1.4977-1.5817-6.4385-3.2753-7.2225-4.521-2.1136-11.254-0.99376-16.125-1.4557 1e-3 -0.51794-1e-3 -0.9378-0.07-1.3157-3.5413-0.0563-4.5631-0.14021-7.8524 1.7916-2.4775 1.4557-6.5927 2.7015-9.462 2.2256 0.15394-0.6859-0.20996-1.6797-0.04184-2.3656-7.6285-1.5117-12.136 6.0888-18.686 5.5008 2.7015 4.535-2.6315 4.1711-5.7529 5.109 0.4339 3.0374-2.1136 2.8693-3.9333 4.003 1.9736 0.60193 7.2086-0.68582 6.9565 2.7994-0.18199 2.5615 5.1648 1.3717 4.3811 5.193 1.1478 0.18181 2.2255 0.7138 2.4355 1.8336 5.8928 1.1337 2.4355 6.4385-0.11195 8.6222-5.6968 4.871 0.74185 9.0981 1.2597 14.543 3.3874 0.54591 9.8958-4.871 13.703-3.7791 0.5459-3.1635 1.6937-5.655 4.0033-5.137" fill="#e7d369" id="Hubballi" />
   <path d="m116.39 143.95c1.8896 0.1818 12.737 5.655 7.2365 7.9644-0.5319 5.3048-1.6377 9.6861-2.6034 14.893-5.7108 0.22366-4.7591 3.7091-6.9005 8.2302-3.6112 0.76984-0.23797 5.8928 1.9456 6.4806 0.61586 3.3732-4.591 8.2441-5.5989 11.604 3.7791 1.0638 7.7545 0.54592 11.59 1.2457-0.41987 2.8275 2.2115 4.5771 4.675 4.927 3.2334 0.46187 4.129-0.0256 5.0109 4.1711 3.7373-4.1151 10.848-8.0205 16.223-10.022 2.5615-0.95179 1.3297-6.5506 1.2597-8.6361-0.16786-5.5569 1.4557-10.918 1.3018-16.405-2.5754-1.6097-4.997-2.2955-6.5787-5.0809-2.2675-4.0033 0.81182-4.1012 3.9612-5.8928 3.4292-1.9456 0.71385-15.985 4.661-14.921 0.65786 2.0436 0.5739 3.7652 0.67186 5.8649 2.9254 0.29414 5.7529 0.48987 7.7545-2.0716 2.9114-3.7091 1.4277-3.7512-1.7076-5.7807-1.8056-1.1617-5.6968-1.2877-6.9147-2.6454-3.0793-3.4713-2.8135-6.5366-7.4885-8.9161 1.3157 2.2955 2.4775 3.8912 2.2395 6.6487-2.2255 0.0697-4.465 0.15393-5.5847-1.7916-3.4434 0.0423-6.3127-1.8336-10.036-1.6657-1.4137 2.9254-9.924-1.7356-11.716-3.1492-3.7091 12.346-3.0653-2.1416-7.8802-1.2317-0.07 1.4837-0.11195 2.9954-0.57388 4.4511-5.4308 0.2941-1.2877 9.8261-7.1946 9.714 0.056 0.36398 0.0839 0.79781 0.07 1.3158 4.0732 0.36395 8.0763 0.30788 12.177 0.69982" fill="#a3b0a3" id="Gadag" />
   <path d="m36.543 267.88c6.0046 0.15366 5.5399 0.35393 11.531 0.13025 0.20996-2.2955 0.07001-4.605 0.29393-6.8866 1.2877-0.75581 1.6377-2.2675 2.8835-2.9814 2.0156-1.1478 4.465 0.37772 6.5645 0.30799 0.78384-4.339-4.9131-5.263-2.8135-9.4201 1.9736-0.40579 3.1635 2.5894 4.4511 3.5694 2.2815 1.7356 7.0686 1.3437 9.728 1.2457 0.5459-2.9393 6.2846-4.9688 3.1214-8.986-1.0218-1.3018-3.1074-1.1338-4.199-2.4355-2.1555-2.5615 1.5537-2.8275 1.1618-4.941-1.8336-0.25182-1.4417-2.0716-1.2317-3.5413 2.3935-0.40574 4.8849-1.2737 7.3064-0.86784 0.05604 1.3437-0.05604 2.7435 0 4.1011 1.8476 0.54588 2.9954-1.1898 4.8431-0.90981 0.252-2.7436-1.4417-5.333-0.72786-8.0763 0.76985-2.9532 2.3935-3.6391 2.5894-7.1386-2.7993-2.6315-0.90981-7.2925 2.6175-8.1883 0.82582-8.3423 0.93781-17.216 2.4075-25.446-3.8073-1.0918-10.316 4.325-13.703 3.7791-0.50388-5.2769-5.6408-8.0344-2.4215-13.241 1.4557-2.3655 9.0142-8.4262 1.2877-9.924-0.20996-1.1338-1.3017-1.6657-2.4355-1.8336 0.78384-3.8073-4.5631-2.6175-4.3811-5.193 0.25199-3.4853-4.983-2.1836-6.9565-2.7994-0.75585 0.47611-1.3717 1.1618-1.6097 2.4075-6.3406 0.88181-11.66-2.3235-17.077-2.4775-0.82583-0.0266-2.5055-2.7015-3.1353-3.2474-3.2613-2.8693-5.9207-6.6206-10.554-6.8445 1.2037 1.9036 1.6937 3.8912-0.69986 4.801 1.5537 2.3795-1.3157 7.3904-1.5397 10.162 3.7933 1.0638 6.2427 3.3732 5.2909 7.6285-1.1198-0.22364-1.7916 0.16836-1.9876 1.1758-0.64388 1.7496-4.0451 1.5817-5.4308 1.5817-0.5179 3.9052 5.4729 2.0716 3.8912 6.4948-0.25189 0.0423-0.5179 0.0839-0.78384 0.14022-0.26594 2.7015 1.1198 7.9923-1.6377 9.7561-2.7154 1.7496-1.9036 3.0375-2.1975 5.8926-2.8135 0.55996-4.1151-2.3794-6.7887-2.8972 0.26591 0.79781-0.0014 2.2955 0.20996 3.1914-5.8368 0.2102-6.4106-1.2598-11.8 0.25182-0.9518 10.68-0.57386 8.2596 15.615 19.855 3.1062 11.282 7.162 13.838 11.315 30.409-0.48988 13.479-0.0797 13.355 7.0016 21.396" fill="#f9d3c6" id="Karwar" />
   <path d="m87.925 223.22c-0.11195 0.46182 0.15394 1.1897 0.04184 1.6516 3.1635 0.43383 6.7605-0.37769 6.2288 4.3672 1.1198 0.11208 2.2955 0.0842 3.4013 0.19601 0.02789 2.8554 2.6733 4.395 4.8149 5.6828 2.9114 1.7497 1.7216 5.179 2.2535 8.1184 0.51793 2.8414 2.2255 3.7091 4.913 3.9051 4.0172 0.29398 4.1572 0.93777 6.1728 4.2411 1.1758 1.9456 4.339 3.1774 6.4806 2.3516 2.5334-0.97979 1.8756-4.857 1.7776-6.9147-0.14-2.7575-1.0498-4.073-1.8756-6.4106-1.2598-3.5831 6.9986-1.2876 8.1744-1.4556 0.36391-2.1416 3.9751-1.0918 5.1091-2.6175 0.83982-1.1337 2.4355-5.9068 2.6733-7.3064 0.89584-5.333-4.7591-10.89-7.0546-15.229-2.4495-4.605 1.9596-7.0965 0.19598-12.163-1.5257-4.395-10.12-0.88173-9.1821-7.2504-4.395-0.79781-8.8321-0.62984-13.213-1.6097-5.0391-1.1198-3.6392-4.325-3.7652-8.3702-1.9036-0.48985-4.9549 2.7994-7.4046 2.9114-3.2192 0.14021-6.9986-1.1198-6.6066-5.0249-5.3469-1.2037-6.0467 26.833-6.4246 30.569-7.4745 1.9176-3.0093 10.778 3.2892 10.358" fill="#c2f0c2" id="Haveri" />
   <path d="m33.587 152.32c1.8616 1.2598 6.0046 6.9844 8.1602 5.6268 0.0014-1e-3 4.9409 1.4277 5.7529 1.4836 3.5692 0.25183 5.5429 1.6937 9.336 1.1618 0.64387-3.4852 6.0888-2.5754 5.5429-6.4106 3.1214-0.93777 8.4543-0.57388 5.7529-5.109 6.5366 0.58787 11.058-6.9986 18.686-5.5008-0.16795 0.68591 0.19598 1.6797 0.04184 2.3656 5.5569 0.93777 11.352-5.9628 15.999-4.3532 6.9705 2.4354 3.1214-9.0842 8.5104-9.392 0.47591-1.4417 0.50388-2.9535 0.57389-4.451 4.801-0.92381 4.1572 13.563 7.8802 1.2317-3.9751-3.1074 2.5055-9.98-1.1338-12.905-2.0576-1.6516-3.1353-2.1975-4.605-4.5489-1.7077-2.7015-3.7652 0.81178-5.9347 0.25182-0.89582-2.3655 1.4417-9.4901-2.5894-8.8321-0.07-1.0078-0.16796-2.0576-0.37793-3.0514-1.6237-0.40576-7.0405-4.269-7.6845-5.7668-1.9456-4.5631-3.8212-0.58786-6.8305-3.0093-4.2832-3.4852 8.3283-6.5648-2.8693-8.6922-0.12602-3.2332-0.72786-7.6984 1.1618-10.554 2.5476-3.8352 5.9207 3.3592 8.4543 3.5692 2.3935 0.19573 4.521-0.25182 5.9768-2.3095 0.23797-1.0778 0.74186-2.0015 1.5257-2.7714 1.5257-0.92379 2.9814 0.33592 3.8633-1.8476 0.78384-1.9316 0.19598-4.8289 3.1774-5.0809 4.7031-0.37773 3.4573-4.0593 6.3546-6.7747 0.36391 0.20996 0.75585 0.46189 1.1478 0.72784 0.15394-3.2892-1.6097-2.3655 2.0856-4.3811-1.8756-0.65787-3.7233-1.5817-5.4729-2.3935-0.96581-2.4635-1.2178-4.7591-1.2457-7.1946-1.6237 0.09798-3.1635 0.34992-4.5771 0.85382 0.37794 1.8476 1.8616 4.6189-0.51791 5.7389-2.2115 1.0498-5.9907 1.4417-7.6285-0.76985-4.2272-5.7387-11.66-6.4106-18.238-5.9765 1.7636 0.85383 0.9518 5.0949 0.79784 6.9147-0.85383-0.112-1.8616 0.12597-2.7154 0.02797-0.36391 4.1151-1.5957 7.9923-6.3546 8.2583-2.3235 0.14-7.8103 0.9518-8.8321 3.5134-5.4308-0.53187-8.5943 3.5131-4.3811 7.2365-3.1493-0.11221-5.9768 1.4837-9.448 1.1758-0.112-2.5894 0.0014-5.0809-2.9675-5.9907-2.1276-0.64388-6.5927-0.81184-7.8803 1.5677-1.8056 3.3592 0.86782 3.1353-3.9612 3.7373-3.0653 0.39202-3.0935 2.1695-3.3313 4.7731-3.2192 0.65783-3.7512-2.9814-6.8586-2.8693-0.36392 4.5071 8.8603 10.134 5.9489 13.423-2.0716 2.3515-3.6533 1.4837-2.6315 5.8928 0.50391 2.1835 2.9814 5.2769 4.2411 1.5817 6.8305-1.1897 9.0281 10.778 8.6361 15.187-3.7512 0.14021-6.7326-0.27985-10.134 1.2598-1.5117 5.2069 3.9612 3.5552 6.6766 5.4729 3.8633 2.7293-2.6315 9.2802-5.6689 9.6301-0.18199 1.9176-0.08396 3.9191-0.25189 5.8368-3.1774 0.11208-5.0109-1.8756-7.9363-1.4976 0.02797 0.19551-0.02797 0.69986-0.02797 0.93778 1.3997 0.37774 2.1276 1.5117 2.2815 2.8835-4.731-1.0358-17.188 1.3157-15.453 8.5803 5.8789 0.53186 12.933 2.8275 13.297 10.428 2.3795 0.18181 4.5631-0.33595 6.6766 1.1057" fill="#abacda" id="Belgaum" />
   <path d="m121.52 53.019c-3.6952 2.0156-1.9316 1.0778-2.0856 4.3811 1.9176 1.2737 4.801 3.0653 5.6829 5.333 1.3017 3.3734-2.1136 5.2769-2.5194 8.1462-0.33591 2.3935 2.1556 5.263 3.4574 7.0265 2.8693 3.8772 3.4713 2.3096 7.3904 2.3935 0.4199 11.086 13.899 10.12 21.5 14.613 4.479 2.6594 8.6782 5.263 11.45 9.6301 2.9533 4.6471 8.6922 3.3313 12.989 5.6268 1.1478-0.85385 1.5117-2.5194 2.9954-2.9954 1.4137 0.056 2.8275 0.0697 4.255 0.0697 1.5677-0.61581 2.2815-2.5476 3.8212-3.2753-1.8616-2.6594-6.1867-7.2365-5.067-10.82 1.3717-4.325 6.7605-2.5336 9.798-4.269 3.8073-2.1835 0.6019-8.2444 0.93783-11.604 0.48986-4.7031 3.6673-9.588 3.5413-14.123-4.3532-0.92383-4.0033-2.3375-3.5834-6.8305 3.3734-0.12602 6.0746-2.4215 9.448-2.3095 0.37792-0.64385 0.5599-1.5957 0.4339-2.3375-4.2551-0.05599-8.5943-2.9535-3.8491-6.4945 1.0918-0.81184-3.3313-3.5834-3.6673-4.1851-1.8617-3.2613 0.15391-6.9147-1.1197-10.26-2.0156-0.48988-3.2892 1.0218-5.0949 1.4277-2.7154 0.61586-5.3748-2.3935-6.8866-4.1572-3.6812-4.2832-6.2988-8.0202-6.1588-13.829-0.336-0.12597-0.65783-0.25199-0.99376-0.37794 0.07 0.65787 0.12577 1.3297 0.18181 1.9876-2.9533 1.3017-7.8945 0-11.128-0.27993-1.1058-2.7294-4.7731-8.8742-8.2302-8.1602-1.0918 1.8896-6.2706 0.75585-7.4604-0.53188-2.5334-2.7433-3.8073-5.7807-8.2162-5.1369-0.3359 3.8212-1.2458 7.3764-1.6376 11.086-0.41993 3.9472 3.1074 6.8305 2.7154 10.918-2.8135 1.3577-4.3671 3.8352-2.8275 6.8305 1.7916 3.4852 1.0638 5.0809 1.4277 8.9721 0.16787 1.7916 0.37792 7.2646-3.5692 4.7449-3.0374-1.9316-0.32188-4.0312-5.5429-3.8772-0.12602 1.4557-0.11195 2.9814-0.18196 4.4511-5.5148 0.19598-12.779-1.7077-18.896-1.3437 0.028 2.4355 0.27993 4.731 1.2457 7.1946 1.7216 0.78384 3.5834 1.7216 5.4448 2.3655" fill="#e2b584" id="Vijaypura" />
   <path d="m131.53 132.14c3.7091-0.18181 6.5926 1.6936 10.036 1.6656 1.1338 1.9316 3.3592 1.8616 5.5847 1.7916 0.30796-3.8212-3.4992-6.1867-1.7496-9.7561 2.4635 0.15392 8.5243 0.51794 9.056 3.6394 1.7356 0.16836 2.1835 2.9674 3.3734 3.9891 0.68585-1.0078 2.2115-15.103 7.5724-10.596 1.8476 1.5536-0.60189 4.605 1.2877 6.2706 1.8196 1.5957 5.1648 0.92383 7.3346 0.83979 1.1338-2.8554 9.0702-0.3222 11.198-0.40576 0.57388-4.3532-1.0078-15.173-4.2272-18.252-4.913-4.6889-11.744-1.6656-15.579-8.4682-6.4388-11.436-31.438-8.1463-31.968-22.535-3.9051-0.08419-4.521 1.4837-7.3904-2.3935-1.3017-1.7636-3.7933-4.6471-3.4573-7.0265 0.40594-2.8693 3.8212-4.7731 2.5194-8.1462-0.99379-2.5755-4.5489-4.7449-6.8305-6.0607-1.7076 1.6097-1.9176 6.2567-4.5631 6.7047-4.339 0.74186-3.5134 1.5817-4.9549 5.1509-1.0078 2.4775-4.129 0.57385-4.8291 3.1214-0.83982 3.1214-3.5692 4.0591-6.5366 3.8073-2.5334-0.21003-5.9068-7.4043-8.4543-3.5692-1.8896 2.8554-1.2877 7.3204-1.1618 10.554 11.212 2.1275-1.4137 5.2069 2.8693 8.6922 2.0016 1.6236 5.137-1.2038 6.2567 1.5397 1.0638 2.5754 5.4169 6.5506 8.2444 7.2504 0.21001 0.99383 0.30795 2.0436 0.37795 3.0514 4.0312-0.65786 1.7076 6.4666 2.5894 8.8321 1.8896 0.48987 3.0514-1.8756 4.8991-1.2317 1.5397 0.53186 1.8476 3.0653 3.0514 4.0451 4.199 3.4292 3.2334 4.3532 2.6875 9.7001-0.50388 4.9409 1.6517 3.9333 4.8149 6.0046 1.7916 1.1057 6.2988 5.2209 7.9502 1.7916" fill="#f2c0f2" id="Bagalkot" />
  </g>
  <g fill="none" stroke="#345">
   <path d="m145.92 42.418 19.052 37.399-2.8225 6.3507 8.4676 11.29 4.2338 9.8788 7.7619 11.29 4.9394 28.225 5.645 9.8788v9.8789l5.6451 4.9394-2.1169 12.701 2.1169 7.0563v7.0563l-8.4676 15.524 1.4113 9.1732 2.1169 4.2338 7.0563 4.2338-2.8225 9.1732 1.4113 4.9394v7.0563l9.1732 9.1732 9.8788 16.23 9.8788 7.762 11.29 6.3507 1.4113 7.762 13.407 21.169 22.58 22.58 16.23 9.1732" stroke-width=".5px"/>
   <path d="m199.55 252.7-11.537-6.395-5.0038-3.5757-9.3126-0.68761-10.772-4.951-11.537-4.2633-0.69498-2.8881-10.772-5.6386-9.3127-8.5266-7.1582-4.951-4.3088-0.75639-0.7645-3.5069-9.3127-8.5266-5.0038-6.395-2.1544-4.2633-2.1545-22.761 5.0038-2.1316 7.1583-7.839 1.4594-6.395 5.7683-2.1316-1.4595-3.507 1.4595-9.9707 8.6177-7.0826v-5.7074l10.703-24.136 0.7645-13.478 4.3088-4.2633 0.69499-4.2633-2.8494-5.7074 6.4633-11.346-2.9189-14.234" stroke-width=".5px"/>
   <path d="m99.712 164.54-8.7263-5.5531-3.9665-2.3799-2.3799-4.7598-4.7598-3.1732-2.3799-1.5866-4.7598-1.5866-2.3799-3.9665-6.3464-7.933-4.7598-5.5531-4.7598-3.9665-8.7263-4.7598" stroke-width=".5px"/>
   <path d="m134.79 159.97-5.7557 7.9141-2.1584 5.7557-2.8779 7.9141-3.5973 4.3168-3.5973 7.1947-7.1946 5.0362" stroke-width=".5px"/>
   <path d="m193.2 166.61-11.132 0.54689-8.3007-2.594h-9.8571l-2.0752-2.0752h-7.2631l-5.1879-2.594h-3.1128l-5.7067 1.5564-5.7722-1.4814-17.055 1.4814-17.986 3.1611" stroke-width=".5px"/>
   <path d="m138.46 95.71 8.263 4.9687 8.263 8.5178-3.0047 0.70984h-3.7559l-6.0094 7.808 0.75116 4.2589 8.263 6.3884 9.0141 3.5491-0.75116 3.5491 9.0141 0.70981-6.7606 3.5491 4.5071 4.2589 7.5118 2.8392-5.2583 4.9688 3.0047 8.5178 2.2535 4.2589" stroke-width=".5px"/>
   <path d="m109.07 198.03-5.8482-4.3862-7.3103 2.1931-5.1172-1.4621-2.9241-0.73105h-7.3103l-3.6552 3.6551-8.7724 7.3103-7.3103 9.5034-2.1931 5.1172-8.0413 5.1172h-7.3103l-9.5034-3.6552-6.5793-7.3103-2.1931-8.7724-0.73103-2.9241" stroke-width=".5px"/>
   <path d="m24.267 201.68-6.6542 1.2682-5.1879-2.0752-8.52-6.0013" stroke-width=".5px"/>
   <path d="m45.944 119.3-0.51611 6.2767 2.0645 16.476-2.5806 8.6304 1.0322 17.261 0.51613 11.769-6.7096 3.9229-1.5484 9.415-6.7096 6.2767-7.2257 2.3537" stroke-width=".5px"/>
   <path d="m45.944 119.3 11.265-3.3401 10.514-2.004 2.253-4.6761 3.004-2.6721v-5.3442l6.7589-4.0081 12.767-6.0122-0.751-5.3442v-4.0081l3.7549-4.0081v-7.3483l13.518-2.0041h1.502l3.0039-4.0081 3.755-0.66802h4.5059l5.257-4.0081 6.7589-0.66802 12.016-16.701" stroke-width=".5px"/>
  </g>
 <g fill-rule="evenodd">
  <ellipse cx="146.77" cy="43.424" rx="5.162" ry="5.4473" stroke-width=".34914"/>
  <g stroke-width=".34914">
   <ellipse cx="46.665" cy="119.95" rx="5.162" ry="5.4473"/>
   <ellipse cx="5.162" cy="196.73" rx="5.162" ry="5.4473"/>
   <ellipse cx="135.38" cy="159.89" rx="5.162" ry="5.4473"/>
   <ellipse cx="100.1" cy="164.56" rx="5.162" ry="5.4473"/>
   <ellipse cx="139.53" cy="95.563" rx="5.162" ry="5.4473"/>
   <ellipse cx="114.11" cy="202.43" rx="5.162" ry="5.4473"/>
   <ellipse cx="293.61" cy="352.88" rx="5.162" ry="5.4473"/>
  </g>
 </g>
 <g fill="#000000" font-family="sans-serif" font-size="3.5278px" letter-spacing="0px" stroke-width=".26458" word-spacing="0px">
  <text x="243.2877" y="353.40259" style="line-height:1.25" xml:space="preserve"><tspan x="243.2877" y="353.40259" font-size="6.35px" stroke-width=".26458">Bengaluru</tspan></text>
  <text x="5.161984" y="186.87022" style="line-height:1.25" xml:space="preserve"><tspan x="5.161984" y="186.87022" font-size="6.35px" stroke-width=".26458">Karwar</tspan></text>
  <text x="94.913071" y="214.88499" style="line-height:1.25" xml:space="preserve"><tspan x="94.913071" y="214.88499" font-size="6.35px" stroke-width=".26458">Haveri</tspan></text>
  <text x="156.64938" y="44.202297" style="line-height:1.25" xml:space="preserve"><tspan x="156.64938" y="44.202297" font-size="6.35px" stroke-width=".26458">Vijaypura</tspan></text>
  <text x="56.522434" y="122.02116" style="line-height:1.25" xml:space="preserve"><tspan x="56.522434" y="122.02116" font-size="6.35px" stroke-width=".26458">Belgaum</tspan></text>
  <text x="106.32652" y="90.374832" style="line-height:1.25" xml:space="preserve"><tspan x="106.32652" y="90.374832" font-size="6.35px" stroke-width=".26458">Bagalkot</tspan></text>
  <text x="66.898285" y="169.23128" style="line-height:1.25" xml:space="preserve"><tspan x="66.898285" y="169.23128" font-size="6.35px" stroke-width=".26458">Hubballi</tspan></text>
  <text x="129.67216" y="173.38161" style="line-height:1.25" xml:space="preserve"><tspan x="129.67216" y="173.38161" font-size="6.35px" stroke-width=".26458">Gadag</tspan></text>
 </g>
</svg>
