<svg width="203.44mm" height="150.17mm" version="1.1" viewBox="0 0 203.43584 150.17145" xmlns="http://www.w3.org/2000/svg">
  <g transform="translate(-2.6035 -71.265)" stroke-width=".5" stroke="#fff">
   <path d="m160.97 186.88c-1.806-2.5664-2.4713-5.8269-2.9277-8.8876-0.44676-2.9657-0.68438-1.0836 1.0551-3.2509-2.3193-1.6444-3.2887-2.3573-3.2887-5.2566-0.74144-0.4848-1.4924-0.94106-2.2148-1.4543-2.2434-0.10432-3.479 0.45625-5.3992-1.0456-1.2167-0.95058-3.7642-1.3118-4.6766 0.23743-1.0266 1.73-2.3193 4.5151-2.5189 6.5207-0.34235 3.3079-0.59883 4.0302-3.6691 5.1804-0.22815 1.7395 0.0381 3.6311 0.0953 5.399 1.6634-0.0174 1.6634 1.3212 1.9486 2.5474 0.33267 1.4258 2.2812 2.9085 3.0227 4.3439 1.5209 2.9277 7.5092-0.57032 7.129 2.2242-0.13294 0.0174-0.26621 0.0475-0.39923 0.0665-0.0855 3.4885 1.1502 5.0284 4.2014 6.3591 9e-4 -0.31364 0.0173-0.62737 0.0475-0.92201 2.5664-0.0953 8.3077 0.85547 9.705-2.1386 1.1216-2.3954 1.1786-5.1994 1.901-7.7184-0.0665-0.13293-0.13311-0.26619-0.19019-0.3897-1.0741 0.82695-3.0513-0.72242-3.8212-1.8156" fill="#e7de69" id="Bengaluru Urban" />
   <path d="m117.45 114.56c-0.30419 3.2889 0.0856 7.3381-2.2148 10.123-1.8821 2.2812-5.0568 5.7127-4.7717 9.1821-0.87451 0.59884-0.43726 1.692-1.8156 1.4163-1.5399-0.30425-2.1386 1.635-2.3479 2.7661-2.0152 2.3384-6.3116-1.2832-7.4808 2.9087-1.6159 0.0665-3.2984-0.39927-3.8592 1.5684-1.3117 0.36115-2.9941 0.3897-4.23 0.8745-0.81747 0.31363-0.50379 0.96952-1.6444 1.1596 1.0266 0.36119 1.7204 0.90298 0.76045 1.901 0.57983 1.7584 4.0018-0.24715 2.9562 2.8991-0.83646 2.538-1.73 5.5987-3.8592 7.3666-0.70339 1.8821-0.73189 4.2203-0.26615 6.1594 0.74144 3.0513 3.0513 2.4524 4.9334 4.2489 1.3973 1.3308 0.57034 4.648 3.555 4.3629 3.2414-0.31364 4.1824 2.0532 4.0588 5.0188 0.25664 0 0.50379 0 0.73191-8.9e-4 1.2072-3.745 4.3059-2.8896 7.1481-1.3497 1.0361 0.56078 1.9677 1.1786 2.4999 2.2718 0.94104 1.9296 1.806 1.2357 3.0227 2.4808 0.78896 0.80799 0.44675 2.3288 0.34222 3.2794-0.23768 2.2812 0.64634 4.401 1.7204 6.3592 1.4828 2.709 4.7433 1.5114 7.2811 2.0055 2.8136-2.7186 2.9657-3.3648 2.6995-7.3286-0.22815-3.4695 3.8876-5.399 0.57033-8.7734-2.2718-2.3098-3.9543-6.0454 0.5228-7.2811 0.66537-0.18071 2.7756 0.11416 3.1272-0.65585 0.48475-1.0646 0.55131-2.9468-0.84597-3.384-0.66541-3.8498 5.7697-1.4638 7.1004-3.6786 1.8346-3.0416-0.80797-10.789 5.5321-7.4808 9e-4 -0.12346 9e-4 -0.23743 0-0.34201-0.63685-0.20919-1.1882-0.38973-1.8251-0.59884 8.9e-4 -2.5569-0.92202-6.283 0.30427-8.6784 1.3022-2.5474 6.0549-2.1008 8.1556-3.593 0.0173-0.14274 0.0665-0.26619 0.15188-0.30429-3.2698-0.18992-2.3763-3.1842-2.4713-5.7792-2.6995-0.23743-7.4522 0.0287-9.6575-1.7395-1.5398-1.2357-2.3954-3.1463-4.7242-2.6711-0.095 1.1216 0.93154 7.2241-0.50377 7.5283-2.2718 0.4848-4.8097-0.20916-7.091-0.41822-0.27565-1.6825 0.51331-3.8117 1.1026-5.3706 3.7166-0.36122 3.4695-3.6405 1.5019-5.9503-0.76995-0.91251-1.9771-0.93151-2.7756-1.749-1.1691-1.1786 0.12364-3.1272 0.076-4.4771-1.3307-0.46573-2.9087-1.863-4.42-1.8535-0.0194-0.76045 0-1.5494 0.057-2.3098 3.8212 0.0174 6.8153 2.3668 7.8991 5.9979 1.0171 3.3934 4.9618 0.96954 5.171 5.6938 1.1787 0.3897 1.9961-0.12348 2.1862-1.2928 3.9448-0.75092 7.0148 0.65585 8.6689 4.325 2.0532 4.5532 7.3096-1.6254 2.6044-3.0322-2.9468-0.88398-3.5455-5.5035-1.1407-7.823 1.4828-1.4353 7.5662 0.9981 6.7393-2.5664-1.5019-0.12346-2.5285-1.7776-3.0892-2.9846-0.35172-0.73193-0.56085-1.5114-0.61783-2.3288-0.34242-1.8916-1.4353-1.0266-2.4713-2.0057-0.12348 1.1502 1.0551 5.3895 0.71291 5.9598-0.62738 1.0551-3.2889-2.4524-4.8762-2.5474 0.0763-1.3878-0.21866-2.747-0.15189-4.1633-0.23743 0.14274-0.41822 0.0761-0.69388 0.17103-0.47526 2.1292-3.441 1.1501-4.8383 0.87445-3.5835-0.69387-3.6691 1.7681-3.9922 4.5341-0.99807 0.0379-2.0246 0-3.0132-0.0762-0.38023-1.7776-3.2698-0.86498-4.439-0.884-2.4143-0.0476-1.806-2.8707-1.7109-4.439-2.6236 1.8346-5.7222 2.8135-6.0549 6.4826" fill="#e2b584" id="Tumkur" />
   <path d="m143.5 141.91c-4.2489 1.1406-2.6044 6.8533-2.6139 10.123 0.63687 0.20916 1.1882 0.38972 1.8251 0.59885v0.34202c1.7965 0.94103 4.7242-0.71294 6.0359 1.1026 1.7395 2.4143 2.4429 4.9143 4.7717 7.1004 0.57983-0.1997 1.0266-0.48473 1.2547-1.0931 1.5399-0.0761 3.2509-0.32332 4.7147 0.27557 2.4334 0.9981 0.43723 3.7451 2.0816 5.0568 1.8916 1.5113 4.9998-0.43726 7.1196 0.56081 2.8896 1.3592-0.56078 6.8249-1.1977 8.6593-1.0646 3.0418-3.0322 4.9237-2.8991 8.4122 0.0572 1.5398 1.8631 4.3629 0.19968 5.6271 0.0569 0.1331 0.12346 0.26623 0.18993 0.38973 0.38022-1.3308 6.0454-0.71293 6.9864 0.19969 1.806 1.7395 2.2242 3.9543 4.7527 1.5779 1.844-1.7395 2.0247-2.2718 4.0968 0.28525 1.5969 1.958 4.1444 2.0911 6.3306 2.9752 0.28526-1.92 1.1312-4.1728 3.0797-4.9712 1.2262-0.49426 4.2014-0.69389 3.6786-2.5855-2.1863 0.10432-5.5512-3.2128-1.7965-3.4601 3.2984-0.21842 3.7166 4.8478 6.2641 4.8573 3.0132 8.9e-4 0.37072-6.1499 0.5038-7.4806 0.31362-3.0132 2.3098-2.9087 4.8192-3.0038-0.11417-1.1786-0.45628-3.7642 1.2927-3.7736 0.22817-1.597 2.1006-7.88 0.22817-8.916-2.5285-1.4163-6.226-0.35172-8.9922-0.59885-0.17103-1.0646-0.47526-2.0911-0.91252-3.0797-0.2189-1.4828 0.0665-3.3078 0.16169-4.7811 0.0856-1.3498 1.2262-5.5037-0.38023-6.4256-1.3973-0.79847-8.2507-0.73193-8.3933 1.4258-0.33265 0.0856-0.80794 0.0856-1.1406-0.0287-0.0174-1.6064 0.79844-3.1367 0.54182-4.6766-0.62739-0.18994-1.2167-0.45624-1.7681-0.80792-1.3022-0.59885-2.1102 0.50374-3.384 0.12347-1.7681-1.7395 0.15189-1.8726 1.6349-1.8535 0.13312-2.1386 1.8154-8.2221-0.70337-9.4294-1.4068-0.67485-5.6557-0.87451-5.3041 1.6444-0.53225 0.0953-1.3117 0.0762-1.8346-0.0475-0.0952-2.8515 1.8535-3.6405 1.7679-6.5492-0.52279-0.12347-1.3117-0.14275-1.8346-0.0475-0.0761 0.7509-0.0573 1.5494-0.13311 2.3003-0.40876 0.10432-1.1977 0.0856-1.5969-0.0381 0.0856-2.1578-4.439-1.5874-5.9409-1.5018 0.94105 0.78895 0.66537 2.1102 0.5703 3.2603-1.787 0.44676-2.4999 1.4828-3.6216 2.7945-1.2737 1.4828-3.0132 1.2832-4.7717 1.3498 0.0174 0.25649-0.11416 0.61779-0.0952 0.87447-2.7946 0.10432-5.5891-0.12347-8.3743-0.14275-0.0476 0.0476-0.10432 0.0854-0.15188 0.13294-0.0665 1.0075 0.11416 2.0246-1.0266 2.3479-0.0665-0.15188-0.22819-0.85548-0.17101-1.2642-1.3688 0.97906-4.287 1.73-5.8648 2.1578" fill="#abacda" id="Kolar" />
   <path d="m149.13 193.51c0.1331-0.0287 0.26623-0.0475 0.39924-0.0665 0.42773-3.1748-4.9142 0.44673-6.3781-1.0931-0.54179-0.61785-0.91252-1.3212-1.1122-2.1197-0.43724-1.4163-1.6349-1.4068-2.3479-2.5285-0.79843-1.2547-0.12364-3.4029-2.2718-3.3745-0.0665-1.7679-0.32332-3.6596-0.0952-5.399 4.1158-1.5398 2.5474-3.0322 4.0113-6.6062 1.1311-2.7661 2.0436-7.4903 6.0834-5.7983 0.94103 0.38972 1.5398 1.1976 2.5094 1.5684 1.4068 0.52279 2.9276-0.34202 4.3534 0.0381 2.2909 0.61786 1.0456 1.9391 1.5589 3.6121 0.4182 1.3688 2.1672 2.2337 3.2414 2.9943-1.3783 1.7109-1.9961 0.32334-1.1882 2.804 1.0551 3.2128 1.0456 6.4542 3.0607 9.3343 2.0627 2.9371 5.2089 2.2528 4.1444-1.5208-1.2642-4.4865 0.99805-6.7488 2.3763-10.703 1.5779-4.5246 4.4676-9.4294-2.5189-8.84-2.2148 0.18069-3.9637 0.18069-4.0207-2.538-0.0761-3.6881-3.3459-3.3364-6.188-3.1842-0.23743 0.60838-0.6844 0.88402-1.2547 1.0932-1.901-1.787-4.1444-8.0131-6.8819-7.9466-2.7186 0.0665-7.6898-2.7756-8.5453 0.95055-0.42773 1.8916 0.46574 6.4256-2.0532 7.129-1.7681 0.49424-6.5206-0.30431-5.9789 2.8136 1.1502 0.36122 1.8346 3.2603 0.49427 3.7356-1.692 0.59886-3.3364-0.0854-4.8003 1.4353-3.8876 4.0398 5.0188 6.7299 2.1483 11.454-1.3878 2.2812-0.96007 3.612-0.79846 6.131 0.18067 2.8421-2.2434 3.2984-3.6025 5.209-1.5779 2.2242 0.5323 4.1158 1.1121 6.226 0.43725 1.5874-0.0284 3.2509-0.0856 4.8573-0.057 1.7109 0.75093 1.9866 1.0836 3.4599 1.6445 0.55132 2.8042-2.1006 4.7336-1.7109 0.64637 2.0722 1.5114 5.437 3.1558 6.9486 1.8821 1.73 1.2832 2.3954 1.3973 4.7622 1.0266 0.36122 2.2242 0.64641 3.3173 0.56084 1.4733-0.12348 0.41822 1.1216 1.1216 1.749 1.0932 0.98852 5.8078 2.2907 7.3477 2.4904-0.20917-0.17102-0.40874-0.3612-0.59883-0.58934 1.9201-1.0931 5.4086-3.1939 6.8533-4.8097 1.9772-2.2053 1.4638-5.7983 1.3688-8.4978-0.42775 0.0665-1.0836-0.2092-1.5114-0.13311 0.85549-2.1672 0.44678-5.0663 0.5038-7.5378-2.9941-1.3308-4.23-2.8706-4.1444-6.3591" fill="#c2f0c2" id="Bengaluru Rural" />
   <path d="m63.667 88.885c-0.16161 0.94104-1.2452 4.1824-1.8154 4.9618-0.76993 1.036-3.2223 0.32332-3.4695 1.7776-1.5589 0.22817-3.1083-0.75093-4.6766-0.3612-1.9582 0.48474 0.06653 2.576 0.24713 3.5741 0.57033 3.0797 0.55132 8.9921-4.2203 6.3781 0.15208 0.60838 0.2186 1.1787 0.05706 1.6254-6.2641-0.0381-9.7526 8.4122-1.4068 8.127-8.95e-4 0.2662 0.08554 0.61785 0.05706 0.87447 1.2547 0.63689 1.9961 2.4143 3.2414 0.79844 0.02837-0.21841 0.04755-0.41819 0.08554-0.62731 2.481-0.55133 3.3554 0.31361 5.6463 0.6083 0.06654 2.0247-0.29466 2.3859-1.6825 3.536-0.16161 1.7395 0.24713 3.4315 0.02837 5.1615-1.1597 0.0476-2.7375-0.36121-3.7451 0.46577-1.0741 0.86496-0.76993 2.4713-2.2433 3.0322-0.37072 1.692 0.44676 3.3363 2.2148 3.6025 0.24714 0.63685 0.35171 1.5018 0.29466 2.3287 2.0722 1.3022 2.1008-1.0171 2.6614-2.4619 2.4143-0.0952 4.8097-0.0761 7.1481-0.76043 2.3288-0.6844 4.8478 0.24715 7.1481-0.60836-0.01901-0.76044 0.15208-1.5874 0.3707-2.2907 1.7204-0.865 1.7776-0.23743 2.747-1.9771 0.64636-1.1787 1.9961 0.87451 2.7375 0.89352 0.07606-2.8515 0.23764-5.6841 0.44674-8.5358 0.25666-3.422-1.0551-6.9675-0.63686-10.256 2.3954-0.0287 4.5151-2.0816 5.9123-3.8496 0.7129-0.89351 0.69389-2.1483 0.61783-3.2128-0.1237-1.7109 1.2262-1.7585 1.6254-3.2033 3.5265-1.1977 5.5416 3.1272 8.8496 2.9468 2.9087-0.16169 5.8458-4.0683 7.0531-6.3877-1.7585-2.0152-0.89352-5.1138-3.8973-5.9409-2.7375-0.75097-1.7109-3.8973-5.0093-3.2603-2.3384 0.45624-3.9162-0.12346-4.6196-2.4429-0.38973-1.2928-0.6939-2.0532-1.7776-2.8992-1.8821-1.4734-0.05699-1.8631 0.1427-3.2223 0.15195-0.10435 0.30418-0.19968 0.46577-0.28526-0.71292-1.0836-2.2623-1.2072-3.2698-1.863-1.4924-0.96959-2.2433-3.422-4.439-2.7375-3.3934 1.0551-4.5721 2.3668-8.3268 2.0436-3.441-0.29458-5.342-0.10435-4.5151 3.5265 0.98857 4.3059-1.3878 1.4448-2.747 3.9637 1.2167 1.7679 3.0892 4.648 2.6995 6.9579" fill="#f3d9c6" id="Davnagere" />
   <path d="m3.9913 115.68c1.1311 2.4999 0.56082 5.1614 3.479 6.7678 2.6614 1.4639 6.169 1.9107 9.1347 2.1767 0.08554 2.3954-0.28514 4.7811 1.0361 6.9389 1.1597 1.8916 3.4029 3.1177 4.23 5.2089 0.903 2.3003-0.08554 4.8192 0.61785 7.1576 0.79845 2.652 2.8421 2.3763 5.0188 3.0988 0.66538-1.9391 2.4619-3.6691 3.2889-5.7033 1.0266-2.5285 2.3098-3.1369 4.1633-0.94103 2.0911 2.4808 4.3345 1.2547 6.0645-0.94104 2.1862-2.7756-1.7204-3.0132-1.1977-5.171 2.0057 0.32332 2.0532-2.1958 3.8401-2.0247 1.6634 0.15189 3.2033 2.633 4.5816-0.12347 2.5664-0.51333 2.2812 2.5855 4.0207 2.633 0.04755-0.82693-0.04755-1.692-0.29466-2.3288-1.7584-0.26622-2.5855-1.9105-2.2148-3.6025 1.0931-0.41822 1.2452-1.3878 1.692-2.3098 0.80795-1.654 2.8326-1.1312 4.2964-1.1977 0.2186-1.73-0.1901-3.422-0.02841-5.1615 1.3878-1.1501 1.749-1.5113 1.6825-3.536-2.2812-0.30429-3.1653-1.1691-5.6462-0.6083-0.03804 0.20917-0.05705 0.41825-0.08554 0.62731-1.2452 1.6159-1.9866-0.16169-3.2414-0.79842 0.02841-0.25654-0.06653-0.61783-0.05706-0.8745-8.3457 0.28525-4.8667-8.1651 1.4068-8.127 0.16161-0.43725 0.09507-1.0076-0.05706-1.6254-1.4828-0.80792-1.5684-2.5094-2.7281-3.5835-1.2737-1.1786-3.8022 0.15187-5.1899-1.2072-1.7965-1.749 0.12357-5.3706-1.5494-6.8439-1.5304-1.3498-4.0777-1.8916-4.1063-4.4009-0.76043-0.07606-1.5589-0.05685-2.3098-0.13294 0.3612-3.2223-2.0817-2.6711-4.23-2.9657 0.07606-0.31364-0.10454-0.80795-0.02838-1.1216-1.3593 0.08556-2.9752-0.51328-3.9923-1.4733-0.11406 1.9487-0.05702 2.5474-1.2927 4.0683-1.4448 1.787 0.2186 4.2584 0.03802 6.2641-1.2547-0.18992-2.0341 0.98859-3.2889 0.6179-0.03802-0.91255 0.03802-1.8726 0-2.7851-1.6444-0.27559-3.3459 0.32332-4.9618 0.5893-0.14258 0.99809-0.40874 2.2337 0.83647 2.4049 0.24713 1.3212-1.4258 1.0836-1.1787 2.4905 0.23764 1.3688 1.6539 1.5779 2.6805 2.1006 3.3554 1.673-1.2927 5.0949-1.5589 6.5207-1.9961 0.0761-4.0493-0.0287-5.9884-0.55131-1.4163-0.38019-2.0341-3.0511-3.6405-2.7186-1.4258 2.8326 2.4429 3.4599 1.9105 6.3972-1.1406 0.0381-2.2147-0.52278-3.3459-0.47527-1.7015 0.0761-1.787 1.5399-3.0702 2.2907-0.10454 1.1216-0.095072 2.2718-0.12359 3.4029 0.56082 0.3992 1.0741 0.884 1.3878 1.5779" fill="#a3b0a3" id="Shivmogga" />
   <path d="m112.08 71.363c-0.76995-0.17101-1.6254-0.12364-2.3193 0.1807-0.44674 1.4068-0.12348 2.8137-0.13296 4.2394-8.9e-4 1.4638-1.1026 2.7375-0.80797 4.2205 0.96955 0.73191 4.0683 2.7375 0.68441 2.3384-1.9866-0.22819-1.6729 3.0038-2.804 4.0968-1.0646 1.0266-1.5209-0.09516-2.0152 1.806-0.37071 1.4068-0.5038 2.5855-1.5019 3.7452-0.86497 0.99804-2.747 4.7622-4.2489 3.0322-1.2072 2.3288-4.1538 6.226-7.0531 6.3877-3.3079 0.18994-5.3136-4.1444-8.8496-2.9468-0.39922 1.4449-1.749 1.4924-1.6254 3.2033 0.07599 1.0646 0.09498 2.3193-0.61785 3.2128-1.4068 1.7679-3.5171 3.8212-5.9123 3.8497-0.3422 2.7565 0.86498 5.6747 0.74142 8.5072-0.14258 3.4315-0.45627 6.8439-0.55132 10.275 0.82696 0.13293 1.7015-0.31363 2.595-0.14276 0.15208 3.9543-0.17112 7.8135 4.1063 9.2677 2.1102 0.7224 2.8706 2.9562 3.2223 4.9142 0.41822 2.3763 2.1481 2.3193 4.0777 2.9943 1.1406-0.19971 0.83647-0.846 1.6444-1.1596 1.2452-0.4848 2.9182-0.51334 4.23-0.87454 0.56082-1.9677 2.2433-1.5018 3.8592-1.5684 1.1692-4.1824 5.4656-0.5703 7.4808-2.9087 0.20919-1.1121 0.57031-2.0532 1.5399-2.7281 0.54183-0.0381 1.0836-0.0476 1.6349-0.0381 0.33271-0.46577 0.66539-0.94105 0.99809-1.4163-0.40873-4.9428 4.8762-8.3077 6.188-12.5 0.84596-2.6995 0.18068-5.6177 1.1121-8.2221 0.922-2.5855 3.707-3.6216 5.8078-5.0474 0.0194-0.24716 0.0194-0.48474 8.9e-4 -0.71289-1.9771 0.34203-1.9582-1.2832-2.2528-2.6805 0.20917-0.0665 0.42773-0.0381 0.64636-0.0572 0.38022-0.6369 0.37071-0.55135 0.97906-0.93153 0.1331-1.3022 1.1882-1.9771 2.4429-1.8346 0.60832-2.3193-1.1502-1.5684-2.5569-1.4543-2.0722 0.17101-2.6995-1.7014-4.439-2.3098 0.13312-1.73-0.73188-1.806-1.7776-2.785-1.4353-1.3403-1.0076-4.1254-0.67487-5.8172 0.34219-1.73 0.72241-5.5226 2.9752-5.1899 0.3042-3.4218 0.98857-6.7108 1.2167-10.133-1.3498-0.12347-3.0702 0.22817-3.6119-1.4163-1.0361-0.2662-4.7717 0.38026-4.439-1.3973" fill="#f99" id="Chitradurga" />
  </g>
  <g fill="none" stroke="#345" >
   <path d="m41.353 48.757 1.2992 0.14429 0.23622 1.1543 1.4173 1.2986 1.2992 0.57717 1.6536 1.5872-0.11811 2.0201 0.9449 0.72146 1.7717 0.72146 0.82679 2.453 1.6536 1.5872 1.6536 2.453 5.0788 1.4429 1.4174 1.7315 1.1811 2.8859 2.4804 2.8859 1.063 2.453 4.7245 4.0402 2.2441 3.3187 0.23622 1.2986 0.82678 0.28858 4.6064 6.3489 2.2441 0.28859 1.2992 1.4429h1.063l1.4173 0.57717 4.4883 0.14429 1.1811 0.72146 3.0709 4.4731 0.1181 1.4429h6.0237l1.5355 1.7315 3.6615 2.453 0.23622 1.1543 1.1811 0.86575 1.063 2.5973 0.47244 2.1644 0.82679 0.57717 0.9449 0.57717 0.9449-0.86575 1.2992-0.43288 1.6536 0.14429 2.0079-0.57718 1.2992-0.43287 1.7717 0.28858 0.70868-0.86576 1.4173-0.28858 1.2992-1.01 1.7717-0.1443 2.0079-1.5872 2.0079-0.72146 1.6536 0.43288 1.2992 0.57717 1.063-0.43288 0.82678 0.14429 0.94491-0.14429 0.82678 0.43288 1.2992-0.28859 1.063-1.8758h0.9449l2.3622 1.2986 1.4174 1.2986 1.5354 0.4329 2.3622 1.4429 2.0079 1.5872 0.35433 2.1644" stroke-width=".5px"/>
   <path d="m135.84 103.73-1.88-2.2829-5.2372-3.8943-1.3429-1.2086-0.26856-0.80572-3.6258-3.3572-0.53714-0.94001-1.3429-0.67144-0.67144-0.67144-0.53714-0.53714-0.40287-1.88-1.3429-1.2086-0.67143-1.7457-1.4772-1.7457-1.2086-1.4772-0.26857-0.80572-1.4772-1.0743-0.53715-0.94001-0.40285-2.4172-1.2086-1.3429-1.3429-2.1486-1.0743-2.2829-0.94001-1.7457v-2.2829l-1.3429-1.2086-0.40287-1.0743-4.2972-2.0143-0.80571-0.94001-1.6114-1.3429-1.88-1.0743-3.0886-2.6857-2.4172-2.5514-0.94001-0.67143-0.80572-1.3429-0.80572-0.53715-0.80572-1.3429-0.94-2.82-1.2086-1.7457-1.6114-2.5514-0.40285-0.53715-1.7457-1.4772-1.2086-2.0143-1.2086-1.2086-1.2086-0.40286-1.6114-1.88" stroke-width=".5px"/>
   <path d="m146.83 111.96 0.36455-0.48386 1.2759 0.48386 0.36454-0.24194 0.25519-0.42336 0.1458-0.4234 0.40101-0.0605 0.58326-0.3629 2.6976-2.3588 0.58326-0.0605 0.18227-0.7258 1.7863-1.754 1.1665-1.3911 0.72909-0.90724 0.401-0.24193 0.25518-0.30243 0.58326-1.0282 0.14582-0.24193 1.0207-1.0282 0.76553 0.18145 0.58327-0.54435 0.69263-0.84677 0.65617-0.12095 0.51037-0.42338 0.21871-0.24195 0.36455-0.18144 0.54681-0.3629 0.91135-0.96773 0.65618-1.1492 0.76554-0.12095 0.25517-0.48387 0.51037-0.18144 0.61972-0.48387h0.43745l0.65617-0.3629h0.58327l0.72908 0.48387 1.0572-0.36289 1.5311 0.78627 0.69263-1.0887 0.43745 0.06049 0.51036 0.42339 0.91135 0.3024 0.72909 0.42339 0.4739 0.06048 1.604 0.60483 0.18228 0.18144 0.80199-0.3629 0.58326-0.18144 0.58327-0.3629 1.0936-1.0282 0.25517 2.0564-1.322-1.07" stroke-width=".5px"/>
   <path d="m146.47 109.79 0.18624-0.55874-0.18624-0.27937-0.74498-0.37249-0.27937-0.65187-0.0931-2.0487 0.46562-1.3969 0.46561-1.7693-0.0931-2.5143 0.74498-1.7694 1.3037-2.4212v-1.0244l1.3969-2.4212 0.74498-1.1175 1.8625-1.3968 3.2593-3.2593v-0.65186l0.55874-0.46562 0.46562-0.8381 0.37249-2.235 0.0931-0.93123 0.18625-6.5186-0.0931-1.8625 0.27937-2.3281" stroke-width=".5px"/>
   <path d="m77.679 34.803-3.0415-1.7132-2.0277-1.7132-1.6897-2.9981h-3.3794l-2.7035-0.85658-2.0277-1.7132v-1.2849l-2.7035-0.42829" stroke-width=".5px"/>
   <path d="m80.512 37.121-7.2602 7.8516-1.21 0.46186-13.714 1.3856-2.0167 2.3093-2.4201 2.3093-1.21 1.3856-2.8234 4.1567" stroke-width=".5px"/>
   <path d="m60.106 24.096-0.78135 6.9983v4.3322l0.78135 3.3325-0.78135 0.99975-4.6881 4.9987-4.6881-0.6665-4.6881 3.3325-3.9068 1.333" stroke-width=".5px"/>
   <path d="m181.42 94.058-2.6409-1.5289-0.94495-3.0238-2.0789-1.5119-1.3229-0.18899-1.3229-0.94495-2.0789-2.0789-0.75595-2.6459-0.75596-2.6459-1.8899-0.75596-0.18899-1.3229-0.37798-3.5908-1.3229-0.75596-1.7009-0.37798h-1.7009l-1.3229-0.18899-2.2679-0.18899-1.3797-1.3476" stroke-width=".5px"/>
  </g>
 <g fill-rule="evenodd" stroke-width=".32305">
  <ellipse cx="41.266" cy="48.684" rx="1.9594" ry="2.0789"/>
  <ellipse cx="59.907" cy="23.737" rx="1.9594" ry="2.0789"/>
  <ellipse cx="79.562" cy="36.4" rx="1.9594" ry="2.0789"/>
  <ellipse cx="116.23" cy="82.135" rx="1.9594" ry="2.0789"/>
  <ellipse cx="157.61" cy="71.363" rx="1.9594" ry="2.0789"/>
  <ellipse cx="181.62" cy="95.553" rx="1.9594" ry="2.0789"/>
  <ellipse cx="147.03" cy="111.81" rx="1.9594" ry="2.0789"/>
 </g>
 <g fill="#000000" font-family="sans-serif" font-size="3.5278px" letter-spacing="0px" stroke-width=".26459" word-spacing="0px">
  <text x="93.546944" y="88.938713" style="line-height:1.25" xml:space="preserve"><tspan x="93.546944" y="88.938713" font-size="5.6445px" stroke-width=".26459">Tumkur</tspan></text>
  <text x="82.018562" y="36.399513" style="line-height:1.25" xml:space="preserve"><tspan x="82.018562" y="36.399513" font-size="5.6445px" stroke-width=".26459">Chitradurga</tspan></text>
  <text x="7.1785526" y="47.360935" style="line-height:1.25" xml:space="preserve"><tspan x="7.1785526" y="47.360935" font-size="5.6445px" stroke-width=".26459">Shivmogga</tspan></text>
  <text x="61.418655" y="22.036282" style="line-height:1.25" xml:space="preserve"><tspan x="61.418655" y="22.036282" font-size="5.6445px" stroke-width=".26459">Davnagere</tspan></text>
  <text x="127.18716" y="119.74406" style="line-height:1.25" xml:space="preserve"><tspan x="127.18716" y="119.74406" font-size="5.6445px" stroke-width=".26459">Bengaluru</tspan></text>
  <text x="177.2695" y="103.30195" style="line-height:1.25" xml:space="preserve"><tspan x="177.2695" y="103.30195" font-size="5.6445px" stroke-width=".26459">Kolar</tspan></text>
  <text x="161.20535" y="70.417702" style="line-height:1.25" xml:space="preserve"><tspan x="161.20535" y="70.417702" font-size="5.6445px" stroke-width=".26459">Chikballapur</tspan></text>
 </g>
</svg>
