<svg width="219.63mm" height="458.76mm" version="1.1" viewBox="0 0 219.63039 458.75543" xmlns="http://www.w3.org/2000/svg">
 <g transform="translate(-24.118 -7.4618)" stroke="#fff" stroke-width=".5">
  <path id="Koppal" d="m66.907 188.29c-2.0889 0.0943-5.3099 0.72776-7.0621-0.80862-1.8329-1.6038 0.5391-4.5418-1.2399-6.0377-5.1617-4.3396-6.6307 9.2318-7.2911 10.202-1.1455-0.98378-1.5768-3.6792-3.2481-3.8409-0.51212-3.0054-6.3343-3.3558-8.7196-3.504-0.86254 1.752-0.92992 2.1968-0.48516 2.992 3.7332 1.9138 4.5013 3.6658 6.3206 7.2103 1.7116 3.3289 4.097 0.71428 6.3612 2.8841 2.0485 1.9677 5.8895 1.9137 3.7332 5.337-2.0755 3.2884-4.69 3.6253-8.3693 3.2615-0.08092-2.035-0.0013-3.6927-0.64691-5.6468-4.2318-1.1321-1.2668 11.537-3.1536 13.396-1.4016 1.3881-7.035 2.3854-6.0108 4.9866 1.469 3.7466 4.043 4.5958 7.1698 6.5499 0.17522 6.0511-1.3747 12.008-1.186 18.154 3.4905 1.2668 6.9273 1.9272 10.553 0.593 3.2344-1.186 5.3504-3.8409 9.1913-3.531 1.9811-4.3128 16.536 1.8194 12.426-5.9703 3.2884-0.1753 6.6981 0.39067 9.8788-0.71432 3.3829-1.1725 5.1077-4.4473 8.1266-6.1456 5.4852-3.0728 13.76-1.4286 16.995-8.0323 0.21535-2.4529-2.7493-1.2264-2.7898-3.5174-4.5284-1.5094-7.035-6.8463-11.604-7.453-3.5311-0.4717-12.035-0.48497-10.714-6.6442-0.31004-0.0408-0.6065-0.0539-0.91644-0.12138-0.06734-1.779 0.90297-5.337-1.9003-5.1077 0.08079-1.5364 0.4178-2.992 0.36392-4.6092-4.2723-0.92989-4.744 1.8868-4.9866-3.8409-1.2938-0.12138-2.6551-0.0943-3.9622-0.20216-0.0013-0.21534-0.0013-0.43143-0.0013-0.6469-2.8706-0.35044-6.2398-0.63342-6.8194 0.80861" fill="#e7de69" />
  <path id="Kalaburagi" d="m82.662 93.987c2.628 0.98382 3.9756-1.9003 6.6847-1.2534 1.0377 2.7359-0.29658 5.7008 0.45824 8.4906 0.6873 2.4932 3.221 2.7359 4.2857 4.8382 0.31004 0.60649-2.4932 2.5472-2.3046 3.9893 0.31004 2.372 4.043 2.8301 5.8761 2.8572 0.1211 0.71431-0.05396 1.6307-0.41781 2.2507-3.2344-0.10792-5.849 2.1024-9.097 2.2237-0.39085 4.3262-0.7278 5.6739 3.4502 6.5767 0.10768 3.5445-2.3316 7.399-2.992 10.916-0.63341 3.4232 1.7116 9.6767 0.05386 12.547-1.9542 3.3692-7.0216 1.2668-9.6496 3.6927-3.7332 3.4232 1.6981 9.2452 3.7198 12.143 3.5311-1.6577 7.682-0.51215 11.253-1.8733 4.5687-1.7251 10.256-2.9649 14.151-5.8355 3.2884-2.4258 6.8329-0.40443 10.35-1.5633 1.752-0.57953 2.5877-2.2237 3.0594-3.868 0.90299-3.1536 4.1644-1.0782 6.3072-1.4286 0.6469-1.3881 1.1995-3.0862 2.5606-3.9893 3.6927 1.9542 7.1564 4.7979 9.8383 7.9784 3.5984 4.2588 5.4044 3.3826 10.431 4.5821 0.35045-0.0943 0.7008-0.1753 1.0512-0.28325-1.0512-0.31017-2.1429-0.55254-3.3018-0.66039-1.1321-6.6847 8.1671-3.1941 11.86-4.4879 0.63345-1.7655 2.6145-5.4178 4.8787-5.2022 0.35043-1.2129 0.14796-2.8435 1.4285-3.3423 0.52563-2.0081-0.55254-3.3018-2.5203-3.4366 1.186-2.7224-1.0782-5.566-0.36369-8.3424 1.2804-0.054 2.6011 0.054 3.8814 0 0.75476-3.6253-3.4637-6.2398-1.1321-9.7978 2.6146-3.9893 2.6011-7.9381 3.7332-12.507 1.4151-5.7413-1.6307-3.5579-5.2291-5.7008-3.9488-2.345 0.48489-7.1969 3.5174-6.7655 1.186-8.3019 13.032-16.402 20.418-16.685 1.2399-4.0162-5.6605-4.407-8.0592-4.5284-2.1429-0.10792-4.3531 0.13476-6.4691-0.1482-2.8436-0.37733-3.6927-2.7898-6.8463-2.9649-1e-3 -0.06738-1e-3 -0.13478-0.0247-0.20216-3.3289 0.08082-6.5365-0.6604-8.9352-3.046-3.1671-3.1402-6.7252-2.5066-10.229-4.6495-3.2749-1.9946-10.323-8.2211-9.5419 0.02686-1.9946 0.56606-3.0054 0.08082-4.1375-1.496-1.6173-2.2507-4.6361-2.1024-7.1295-2.0755-6.3477 0.05396-9.8517-2.3046-12.83-7.7089-2.5203-0.12134-4.7305-1.5499-7.3045-1.2668-3.4502 0.37736-3.8006 3.046-5.8221 5.3236-1.4016 1.5768-0.39083 5.5392-2.7762 5.7816-2.628 0.26954-4.8653-1.8464-7.5067-1.6712-0.47167 1.6442 0.56604 2.9112 0.99732 4.3936 0.6469 2.2507-1.0647 3.5984-1.3073 5.6739-0.33697 2.8706 0.48515 7.6414 3.7871 8.5985 0 1.8059-1.8059 2.8572-2.062 4.5958-3.2076-1.9138-4.7979-4.7171-8.9623-4.5553-4.3802 0.1753-7.5472-2.4529-11.873-3.3289-0.13468 6.2398 4.5687 14.838 10.795 17.183" fill="#e2b584"/>
  <path id="Ballari" d="m119.99 206.26c-1.4825 2.992-4.0027 4.1912-5.6065 6.9408-1.2938 2.2237-0.52558 6.8328-4.1778 6.9408 0.04-0.18874 0.0674-0.35043 0.0808-0.49869-3.1268 6.388-9.8654 4.4205-15.081 7.0082-3.2344 1.6172-5.1617 4.3128-8.0997 6.2264-3.5445 2.3045-7.8707 1.4555-11.833 1.6711 4.1106 7.8033-10.445 1.6712-12.426 5.9703-2.5606-0.20216-5.283 0.87603-7.2643 2.3855-3.7198 2.8301-8.4366 2.0081-12.48 0.55253 0.1887 5.8626-1.1186 4.8922-5.3099 7.9247-3.9893 2.8975-8.3558 4.1104-11.604 7.682 0.71429 3.3692-1.8868 4.0567-1.8194 6.8328 0.0539 2.628 2.6685 5.7952 4.097 7.8707 1.1051-2.062 6.0243-0.44465 4.3936-4.3936-1.6173-3.9354-1.3882-6.5094 3.5445-6.388 5.0001 0.13508 7.682 0.67386 12.143-1.8059 3.1941-1.7925 4.636-0.88957 6.8734 1.6172 1.6442 1.8329 4.7708 1.9811 6.0782 3.9893-0.22928 0.1211-0.44473 0.25619-0.66039 0.40446-0.24272 1.6577-2.372 1.2534-1.213 3.4502 0.82211 1.5364 2.5337 1.7924 3.0594 3.6118 0.9434 3.2481 1.7385 5.4449 5.6065 5.2965 5.3638-0.21536 3.0997 0.60643 6.6038 3.5445 1.5634 1.3073 3.9219 0.83558 4.8922 2.9514 0.67386 1.469 0.7278 3.0862 1.4421 4.5824 4.1778 8.7062 8.6657-9.5419 10.93-9.9325 3.4905-0.60646 1.5903-5.0269 4.0296-6.1724 0.92994-0.43143 2.3316 0.56604 3.1133-0.10783 1.9407-1.6846-2.372-2.8572-2.9786-3.3155-0.41781-2.1159 1.1186-3.9219 1.1455-5.9837 0.0013-2.0216-0.43129-4.0162 0.18849-6.0108 0.98387-0.43143 2.1968-0.51211 3.2884-0.25619-0.47167 2.5203 4.8248 1.6038 6.2938 1.9946-0.44472-1.3612-0.1482-3.1536-0.0276-4.5418 1.6173-0.0247 1.9542-2.0216 2.4932-3.2481 2.628 3.0594 4.5958 8.0055 9.5688 6.2264 3.8814-1.3881 6.0511-0.4314 9.5687 1.0781 1.779 0.75479 6.4959-3.5579 7.5606-4.973 4.0296-5.2964-1.469-4.8248-2.0485-8.5714-0.67388-4.4473 0.75469-7.5067-2.938-10.809-1.2803-1.1455-7.035-6.4017-6.5902-7.992 0.37738-1.3612 2.992-1.2938 3.7332-2.4932 0.90291-1.4555 0.8086-3.5984 0.95685-5.2291 0.40428-4.4744 1.6038-5.0809 5.7547-5.2291 0.26927-1.6577-0.37746-3.0594-0.53906-4.636-5.283-1.3746-3.9893-8.3424-2.035-11.846-3.1807 0.63342-11.267 4.744-12.709 7.682" fill="#abacda"/>
  <path id="Raichur" d="m150.71 157.25c-3.7735-0.88945-6.1996 0.22926-9.0568-2.9649-3.3152-3.7198-6.7386-7.2238-11.213-9.5956-1.3612 0.90299-1.9137 2.6011-2.5606 3.9893-2.1564 0.35046-5.4178-1.7386-6.3072 1.4286-0.67388 2.3585-2.0755 4.0162-4.6632 4.1241-2.4798 0.10798-5.1617-0.66042-7.5067 0.51211-3.531 1.7655-5.5796 2.9112-9.5687 3.814-2.8572 0.66041-4.8922 2.8841-7.8707 3.3018-3.0054 0.41768-6.3746 0.0539-9.205 1.3746-2.372 1.1186-2.6145 3.6658-5.7008 3.1402-3.1807-0.53907-2.8975 1.3073-4.9461 2.8301 4.5418 2.4258 6.2398 13.922 5.6199 18.679-0.78167 0.0257-2.2911-0.20216-3.9219-0.40443 0 0.21534 0 0.43143 0.0013 0.64691 1.2938 0.12138 2.6551 0.0943 3.9622 0.20216 0.22925 5.7278 0.71427 2.9109 4.9866 3.8411 0.05386 1.6172-0.28311 3.0862-0.36392 4.6092 2.8033-0.22926 1.8329 3.3289 1.9003 5.1077 0.31004 0.0672 0.60645 0.0809 0.91644 0.12138-1.3208 6.159 7.1832 6.1725 10.714 6.6442 4.5687 0.60645 7.0755 5.9434 11.604 7.4527 0.0276 2.2237 3.275 1.3612 2.7088 4.0162 2.3854-0.0672 2.9515-2.2911 3.3558-4.1915 0.78167-3.7198 3.6927-4.1241 5.4312-7.0621 2.7359-4.5821 7.9784-9.1644 13.72-10.323 5.9974-10.795 24.675-2.0215 33.881-2.2911 0.67382-7.5201-2.7762-21.577 2.1968-28.193 4.1644-0.20216 7.1698 0.55258 7.1158-4.5552-1.186-0.10797-2.4258-0.081-3.6119-0.18848-0.83555-2.5472-5.4583-2.4798-7.5338-2.628-3.6927-0.26942-6.8868-1.4555-10.297-2.7898-1.4286 0.0672-2.5606-0.35044-3.8006-0.64691" fill="#f9d3c6"/>
  <path id="Bidar" d="m124.76 60.887c2.7493 0.26954 6.9273-0.74124 9.1915 1.3342 1.7385 1.6038 1.9811 3.1133 4.8382 2.3181-0.71426-7.5741 5.4044-2.8706 8.6659-0.60646 3.0323 2.1159 7.0082 1.4421 9.8519 4.0027 3.1402 2.8438 5.7276 4.3665 10.189 4.2589-0.48544-3.6658 2.5877-3.7198 5.4446-3.7061 0.41769-4.4473 0.43146-5.7816 4.9058-5.9434 0.16187-1.9677 0.0673-4.0027 0.24246-5.9703 2.7764 0.57949 8.8815-4.8922 9.4879-7.5741 0.91641-4.0296-5.1077-12.79 1.4286-12.844 0.14796-1.7386 0.20239-3.5579 0.13507-5.2965-2.2237-0.1753-1.2264-5.3638-1.0647-7.1158 0.75475-0.0013 1.496-0.02693 2.2506-0.0539-0.66031-0.13479-0.4314-4.8653-1.5229-4.973-2.6416-0.28301-5.2156-1.0243-7.8436-1.3208-3.1402-0.3639-2.5066 3.4637-5.2291 3.585-4.9193 0.22913-2.4664-10.458-2.5877-13.167-6.496-0.51214-4.8516 0.80863-7.6146 5.4718-2.3046 3.9083-6.806 4.7979-8.9623 8.2345-3.9488 6.3209-14.555-3.9219-17.655 5.849 1.8599 0.40428 3.0054 1.752 3.0054 3.6524-1e-3 3.7061-0.0408 3.3963-3.5579 3.5713-0.22926 2.8167 0.82211 4.6631-1.9677 6.3206-3.4502 2.062-7.4798 2.5337-11.065 0.66037 0.0942-0.80862-0.14796-1.779-0.0403-2.5877-0.31002-0.0013-0.60647-0.02686-0.91646-0.02686-0.20192 2.2507-1.6307 5.337 0.57953 7.0485 2.8301 2.1968 2.1968 3.9219-1.3746 5.2156-4.3262 1.5634-4.5821 10.566-8.1403 2.0216-0.25618 0.0013-0.48515 0-0.74126-0.0013 2.2642 4.1509 4.2049 7.089 10.067 7.6549" fill="#c2f0c2"/>
 </g>
 <g fill="none" stroke="#345">
  <path d="m150.58 38.761-15.385 2.9304-19.78 10.989-0.73262 4.3956 0.73262 3.663-8.0586 8.0586-10.256 20.513-3.663 6.5934-0.73259 10.256 3.663 5.8608-4.3956 4.3956v19.78l1.4652 3.663 3.663 2.1978 4.3956 8.7912-13.187 8.7912v5.1282l-8.0586 5.1282v6.5934l-8.7912 9.5238v5.8608l-5.8608 6.5934-1.4652 6.5934v17.582l-3.663 5.8608-4.3956 4.3956-1.4652 7.326-1.4652 8.0586v9.5238l6.5934 8.7912-1.4652 6.5934v10.989l0.73258 6.5934-1.4652 7.326-3.663 5.1282-2.1978 7.326v10.989l2.1978 3.663 5.8608-0.73261 0.73258 1.4652v4.3956l-2.1978 6.5934 2.9304 4.3956-0.73262 5.8608 10.989 11.722 5.8608 14.652 13.919 9.5238 9.5238 6.5934 4.3956 13.187 13.187 20.513 21.245 19.048 19.048 11.722" stroke-width=".5px"/>
  <path d="m101.47 239.18-9.4785 14.677v3.8623l-2.3696 4.6347-3.9494 5.4072 1.5797 1.5449-7.1089 7.7245-3.9494 12.359v13.132l-0.78989 13.132v22.401l-3.9494 20.856" stroke-width=".5px"/>
  <g stroke-width=".5px">
   <path d="m101.47 239.18-3.9319-2.2468-3.9319-1.6851-5.6171 0.56171-10.672-3.3702-3.3702-1.1234h-5.617l-7.8639-2.8085"/>
   <path d="m158.63 454.14 2.0114-14.001 9.3867-9.3338 0.67047-8.0004 2.0114-8.6671 4.0229-12.593v-15.334l-4.6934-5.3336-3.3524-6.0003-2.0114-6.667-6.0343-3.3335 1.341-6.0003v-5.3336l0.67047-3.3335 1.3409-11.334v-6.667l-1.3409-4.0002v-12.667l-2.0114-5.2595-2.6819-2.6668v-1.3334l2.0114-6.0003v-9.3338l-0.67049-5.3336v-3.3335l3.3524-10.667 1.3409-6.0003-2.6819-4.6669-4.6933-3.3335-4.0229-14.001-9.3866-7.3337-10.728-15.334h6.0342l6.0343-2.0001 4.6933-6.5929v-4.0002l-2.0114-3.3335-0.67049-3.3335v-5.3336l-6.7047-0.66669 2.6819-6.667 2.6819-4.6669-0.67048-4.0002-2.6819-4.0002-2.6819-5.3336-1.3409-8.6671 2.6819-10-3.3524-6.0003-2.6819-6.667-4.0229-16.593h-6.0343l4.6934-7.3336 0.67043-7.3337 1.3409-9.3338 1.341-10 0.67047-5.3336 8.0457-6.0003-2.6819-10 6.0343-5.3336 3.3524-1.3334-0.67047-5.3336-5.3638-5.3336-0.67048-10"/>
   <path d="m137.86 166.09-11.379 0.63451-13.513 1.9036-10.668 3.1726-8.5344 1.9036-7.8232-1.2691-5.6896-2.5381"/>
   <path d="m63.663 217.06h-3.7798l-7.1396 2.9398h-13.019l-5.4597-3.3598"/>
   <path d="m101.48 239.04 8.1852-0.81849 6.5482-4.0926 3.2741-2.4556 1.637-3.2741-2.4556-3.2741 2.4556-4.0926 6.5482-6.5482v-6.5482l-4.0926-8.1852v-8.1852l4.9111-7.3667 5.7297-4.9111 3.2741-13.915"/>
  </g>
 </g>
 <g fill-rule="evenodd" stroke-width=".43497">
  <ellipse cx="138.05" cy="165.35" rx="5.3809" ry="5.6697"/>
  <ellipse cx="34.974" cy="217.17" rx="5.3809" ry="5.6697"/>
  <ellipse cx="101.12" cy="239.22" rx="5.3809" ry="5.6697"/>
  <ellipse cx="158.45" cy="453.09" rx="5.3809" ry="5.6697"/>
  <ellipse cx="93.954" cy="95.9" rx="5.3809" ry="5.6697"/>
 </g>
 <path d="m153.71 39.373 4.4104 17.462 5.8805 1.5184 41.898 11.388 1.4701 9.8696 7.3506 1.5184 4.4104 12.147-6.6155 5.3144-2.2052 5.3144-5.8805 6.0736-5.1454 22.017-8.0856 8.3512-5.8805 7.592-2.2052 8.3512 1.4701 14.425 1.4701 7.592 0.73507 0.75918-5.8805 5.3144v5.3144l8.8207 10.629 1.4701 11.388-5.8805 12.906-4.4104 16.702-5.8805 9.1104-2.9402 3.0368-2.2052 3.796-5.8805 8.3512" fill="none" stroke="#345" stroke-width=".5px"/>
 <g font-family="sans-serif" font-size="3.5278px" letter-spacing="0px" stroke-width=".26458" word-spacing="0px">
  <text x="110.49039" y="454.1911" style="line-height:1.25" xml:space="preserve"><tspan x="110.49039" y="454.1911" font-size="6.35px" stroke-width=".26458">Bengaluru</tspan></text>
  <text x="101.67092" y="161.49507" style="line-height:1.25" xml:space="preserve"><tspan x="101.67092" y="161.49507" font-size="6.35px" stroke-width=".26458">Raichur</tspan></text>
  <text x="133.09027" y="31.959175" style="line-height:1.25" xml:space="preserve"><tspan x="133.09027" y="31.959175" font-size="6.35px" stroke-width=".26458">Bidar</tspan></text>
  <text x="48.754143" y="98.105164" style="line-height:1.25" xml:space="preserve"><tspan x="48.754143" y="98.105164" font-size="6.35px" stroke-width=".26458">Kalaburagi</tspan></text>
  <text x="29.461552" y="204.48997" style="line-height:1.25" xml:space="preserve"><tspan x="29.461552" y="204.48997" font-size="5.6445px" stroke-width=".26458">Koppal</tspan></text>
  <text x="80.724686" y="228.7435" style="line-height:1.25" xml:space="preserve"><tspan x="80.724686" y="228.7435" font-size="5.6445px" stroke-width=".26458">Ballari</tspan></text>
 </g>
 <ellipse cx="151.84" cy="39.333" rx="5.3809" ry="5.6697"/>
</svg>
