<svg width="218.17mm" height="174.77mm" version="1.1" viewBox="0 0 218.17184 174.76595" xmlns="http://www.w3.org/2000/svg">
  <g transform="translate(9.2971 -51.134)" stroke="#fff" stroke-width=".5">
   <path d="m184.9 182.49c-1.0507 0.0825-2.0305-0.14179-2.9394-0.64926-0.15334-0.6847-0.33062-1.3694-0.5194-2.0541-0.86175-0.67288-3.8485-0.42475-4.9935-0.81452v-0.15333c-3.2818 1.0388-6.6816-1.0861-9.9162-0.16531-1.9124 0.54302-1.4284 6.2567-3.211 5.808-0.18862 2.3374-2.8804 2.6561-4.8754 2.42 0.484 3.1402-3.5652 1.0979-4.9227 2.609-2.5617 2.8569-7.4727-0.27128-6.9414-3.7658-0.56664 0.99163-0.90898 2.2194-2.1013 2.2666-0.94439 4.3324 5.7727 4.0018 4.7338 8.3108-5.4304 0.20082-10.683-0.44857-16.126 0.0473-2.9512 0.27125-8.24-0.0945-5.5129 3.754 3.4824 4.8992-5.572 3.3998-6.5401 5.4302-1.6055 3.3408-4.7101 6.5754-8.6176 7.0475 0 0.0216-1e-3 0.0357-1e-3 0.0473 1.6999 1.8416 4.1081 1.275 6.3275 1.6645 2.8331 0.49583 2.1603 2.8096 2.9749 4.8992 1.6291-0.12959 6.3748-1.1923 7.2011 0.82635 0.18871 0.44863 1.0507 5.6547 0.67291 5.6192 1.818 0.16509 3.3643-1.2159 5.1352-1.3812 2.361-0.22441 4.8402 0.0945 7.1893 0.37789 5.7255 0.68467 5.6545-0.30697 6.9413-5.3123 1.0625-4.1434 4.0018-6.351 8.122-7.0593 1.7708-0.30697 4.2497-0.63749 5.6547 0.8027 1.027 1.0507 1.936 3.6714 3.8603 3.27 0.22441-1.0389 0.6729-1.9242 0.60205-3.0222 3.931-1.2513 6.8942-0.29485 10.695 0.53125 2.9041 0.63744 7.6733 2.9984 10.459 2.656 0.18863-3.1755 0.7201-7.0358 3.0575-9.4205 3.3173-3.3644 8.4523-2.2429 12.667-2.3964 0.16531-1.7235-0.21236-3.9783 1.6173-4.9699 1.086-0.59025 2.1013-1.0152 2.4555-2.3139 0.62566-2.2902 0.81452-5.2768 0.18862-7.5907-1.4284-5.2651-13.717-2.054-17.141-4.8992-2.42-0.29487-3.9311-1.8652-6.1859-2.42" fill="#e7de69" id="Chamarajanagar" />
   <path d="m112.64 212.55c3.8012-0.53125 6.8234-3.7777 8.3815-7.024 0.97982-2.0423 10.022-0.53129 6.5401-5.4304-2.7271-3.8365 2.5618-3.4824 5.5129-3.754 5.4421-0.49581 10.695 0.15355 16.126-0.0473 1.0389-4.3089-5.6782-3.9901-4.7338-8.3108 1.1923-0.0473 1.5346-1.2749 2.1013-2.2666-0.47223 3.1047 3.2345 5.9379 6.1032 4.5095 1.1687-0.57847 1.3104-1.6763 2.8451-1.4402 1.511 0.23588 3.211-1e-3 2.9159-1.9242 1.995 0.23591 4.6866-0.0825 4.8754-2.42-0.76729-0.18862-1.5228-1.7707-1.8652-3.1165-1.4048 0.2244-5.0525-2.656-6.3983-3.3526-3.3173-1.7118-0.0706-6.3157-0.33054-8.8892-3.3998 1.3458-7.4489 0.0706-10.471 2.5145-2.8451 2.2902-3.2583 4.3087-6.847 3.0928-0.30691-1.511-1.6409-2.538-1.7826-4.0846-2.3609-1.3104-4.8992-2.55-6.6461-4.6748-1.6881-2.0659-2.7861-1.8534-4.97-3.0222-1.9006-1.0152-0.43681-3.0339-1.0507-4.5095-1.3576-3.2818-4.7691-2.5618-6.7762-4.5568-1.4284 2.5027-5.4304 1.1451-7.6968 1.2277-3.1402 0.11823-4.0964 1.9242-5.1943 4.5568-3.3053 0.11822-4.6041-0.95618-6.9768-3.0222-3.093 2.8214-6.8232 7.083-8.6414 10.884-0.31875-0.0473-0.76733 0.0945-1.0979 0.071-0.15349 0.63744-0.17712 1.6173-0.04727 2.2666 0.57845 0.46037 0.86177 0.86175 0.82635 1.7944 4.2379 1.6645 4.9227 1.6645 7.2366 5.3476 1.6881 2.6915 3.6832 5.3831 6.6816 6.6698 3.093 1.334 2.3257 5.0408 2.2784 7.8739-0.059 4.4978-1.511 5.6547-5.2533 7.4254 0.46038-0.0825 0.89718-0.10608 1.3104 0 0.08263 2.0187-0.14166 4.0964-0.07084 6.1269 1.9124-0.43679 5.206-0.73192 6.5753 1.0624 0.55484 0.7319 1.0507 3.754 2.1013 3.8838 0.0352-0.16531 0.0708-0.33059 0.1062-0.49574 1.877-0.43685 2.8331 1.7353 4.0138 3.0457 0.118 1e-3 0.22441 0 0.31879-1e-3" fill="#e2b584" id="Mysuru" />
   <path d="m103 195.45c0.92079-2.6561 0.99162-6.9413 0.37777-9.6801-0.46038-2.0777-3.0692-2.3137-4.4978-3.5179-2.1013-1.7707-3.7895-4.2379-5.088-6.6344-1.5937-2.9277-3.3643-2.7859-6.4338-3.9901 0.02357-0.93262-0.2479-1.334-0.82635-1.7944-0.12983-0.64926-0.1062-1.6291 0.04727-2.2664 0.33052 0.0216 0.77912-0.11822 1.0978-0.071 1.818-3.8012 5.5484-8.0629 8.6414-10.884-1.5819-1.3694-2.609-1.2041-5.2651-1.4284-0.22429-1.9714 1.2631-4.8046 1.3222-7.024 0.05905-2.1013-0.09441-5.7372-1.9478-7.1656-2.3492-1.7944-3.7422 1.0979-4.3915 2.9276-1.0034 2.8332 0.79093 4.0491 0.30693 6.41-2.55 0.0945-4.486-0.77911-6.7289-1.8298-2.8686-1.334-5.0052 0.0357-7.6615-0.73192-0.12983 3.3173 1.6527 8.228-2.8569 9.1371-2.7271 0.54305-5.2768 5.3241-7.8621 4.5921-0.53123-1.2395-1.027-3.4706-2.3964-4.1199-2.2076-1.027-1.7471 2.6443-3.2345 2.8449 2.1013 1.4048-2.9867 3.931-2.8451 5.5366 0.12983 1.4048 1.6409 1.5464 1.4874 3.152-0.10625 1.1096-0.30692 2.3019-0.14166 3.4116 0.40138 2.7388 4.8046 1.4402 6.5046 2.727 2.1013 1.5937 4.5921 6.0088 4.1789 8.712 3.2228-0.22438 5.206 3.1755 7.3309 5.0054 2.2666 1.9596 8.3816 0.40153 8.8775 3.5769 1.4638 9.4912 9.7981 8.0037 17.306 6.5991 2.0423-0.95624 3.8365-1.0153 4.6984-3.4944" fill="#f9d3c6" id="Madikeri" />
   <path d="m56.391 159.87c0.61386-0.75547 0.47219-3.4116 2.42-2.5027 1.3694 0.64929 1.8652 2.8686 2.3964 4.1199 2.5853 0.73189 5.1353-4.0491 7.8621-4.5921 4.5213-0.90902 2.7388-5.82 2.8569-9.1371-2.1013-0.60201-0.17708-6.2567-1.2513-8.169-2.5735-4.6038-2.6561-8.4996-1.3812-13.694-1.3576-3.3408-3.5179-6.245-4.9462-9.4677-1.6291-0.14157-3.3173-0.0706-4.9462-0.21241-0.10625-2.7388-1.5228-6.6226-5.1943-5.9616 1.5819 6.7642-5.1233 2.2194-7.5317 1.7589 0 0.40155-0.0012 0.79095-0.04722 1.2041-1.6055-0.10632-2.0895 1.6763-3.2936 2.3257-1.4638 0.76732-2.3609-0.11823-3.8365-0.11823-3.5414 0-5.0998 4.545-7.3782 6.5163-2.5145 2.1604-4.4978 0.54308-4.8992-2.3847-0.7083-5.1235 0.4368-4.6984-5.1588-5.206-0.12983-3.1873 0.03526-4.8637-3.872-4.7101-3.3408 0.14158-4.4085 0.42476-7.6313-0.66114 1.8943 10.425 2.5491 10.306 1.7936 15.63 5.3287 7.0616 5.2132 7.7814 8.2106 16.433 4.3797-0.68473-0.51943 0.30697 3.8365 0.28338 4.5921-0.0216 5.2886-3.5414 5.5012 2.4908 1.9832-0.79096 4.2144 2.1839 1.9951 3.1047 0.12983 1.1451 1.1569 2.3847 2.5262 2.0422 0.79094-2.9039 2.0777-3.3171 4.545-1.6173 3.3763 2.3374-0.10625 2.6088 0.49582 4.9935 1.2395 0.10632 2.538 0.0712 3.7775 0.18863 0.04722 1.0506-0.04722 2.1368 0.02359 3.1992 0.34234-0.73193 3.3408-3.3881 4.1319-3.3998 0.05904 1.4638 0.2007 3.4116-0.34236 4.6866 2.5617 0.66104 2.6798 2.2666 3.7657 4.4858 0.42499 0.15335 1.2513 0.16531 1.6763 0.0357 0.27149-1.5819 2.1839-1.936 3.0812-1.3339 0.29514-0.0216 0.57845-0.0216 0.81455-0.33062" fill="#a3b0a3" id="Mangaluru" />
   <path d="m15.345 109.79c4.8519 0.1296 6.5401-0.72016 6.7524 4.5685 3.3998 0.30697 5.8671-0.68468 5.2413 3.7775-0.4486 3.2228 1.6881 6.4928 4.8046 3.813 2.1721-1.877 3.2463-5.0998 6.0559-6.245 1.4402-0.57841 2.42 0.15335 3.813 0.21241 2.1839 0.0945 2.5853-2.8332 4.6511-2.6916 0.03526-0.41317 0.04722-0.80275 0.04722-1.2041-0.97981-0.18863-1.7117 0.10632-2.5735-0.64934-0.44858-2.1486-0.36594-4.533-1.4874-6.4928-1.1569-2.0187-3.5652-2.9159-2.9512-5.6427 0.9444-0.04727 1.936 0.02141 2.8804-0.0012 0.18888-2.1839-0.22429-4.6276 0.49582-6.7289-1.8416-0.61383-4.1789-0.34224-5.4304-2.1604-1.8298-2.668-0.80274-5.8906-1.1569-8.8655-0.36595-3.0575-2.8686-4.6511-4.6984-6.8469-2.5145-3.0102-2.1248-6.2802-2.2547-9.9517-3.6832-0.3306-8.0392-0.88538-11.345-2.7033-4.3915-2.42-2.538-7.8856-6.0679-10.365-0.0012 0.53121-0.03526 1.0624-0.08264 1.5818-5.0762 0.18863-4.6133-0.04958-9.7483-0.11995 4.7097 11.1 4.3182 11.845 4.6251 17.582 0.36594 6.7524 0.89371 6.8881-2.06 22.152 6.6831 7.5157 2.9503 7.9666 5.7032 16.169 7.2719 0.81337 0 0 4.7863 0.81188" fill="#c2f0c2" id="Udupi" />
   <path d="m132.32 139.41c-1.4284 4.1554-1.3694 1.8298-4.7456 2.3257-0.75552 1.334-1.2513 3.3055-2.2429 4.368-1.4284-2.2902-1.9714-6.5518-5.4186-6.6462-0.67287 4.0964-1.6763 10.79-3.7422 14.39 1.511 1.4992 4.1199 1.3812 5.7845 3.1402 1.5937 1.6881 0.0351 4.8637 2.0423 5.9261 1.4756 0.79093 3.0222 0.41315 4.1436 1.936 1.9832 2.6915 4.6038 4.1671 7.4727 5.7608 0.14157 1.5346 1.4638 2.5735 1.7826 4.0846 3.5887 1.2277 4.0019-0.80278 6.847-3.093 3.0222-2.4437 7.083-1.1569 10.471-2.5145 0.2716 2.5735-2.0777 5.3241-0.76735 7.8504 0.48403 0.93259 6.4338 4.5568 7.508 4.3915 1.877 7.3782 2.8804-0.70828 4.2026-2.1839 2.0186-2.2548 8.0392 0.54304 10.79-0.34223-0.0357-2.8804 0.50762-3.7067-1.7471-5.7726-2.0423-1.877-3.1165-6.0561-3.9193-8.6296-2.3964-0.47216-3.8365 2.8214-5.8788 2.1248-0.41319-1.818-1.4167-2.1604-1.3458-4.297 0.0708-1.9832 0.64928-4.0491 0.10632-6.0324-0.81456-2.9394-3.7067-5.5957-0.79093-8.417-3.1637-0.62569-7.2011 0.86173-9.0426-2.4908-1.1096-2.0305-2.0895-4.2026-2.2076-6.5636-0.0825-1.57 0.93259-4.0846-0.35408-5.4066-1.0507-1.0742-2.3492-0.17727-3.1638-1.8298-0.95624-1.9242-1.7472-3.0222-3.695-4.0726-3.5296-1.9006-7.3781-2.9632-8.8775 1.6763-0.28336 1e-3 -0.59027 0.0216-0.90899 1e-3 -0.17692 3.6595-1.1333 6.8942-2.3019 10.306" fill="#abacda" id="Mandya" />
   <path d="m119.85 92.339c-2.0187-0.15333-6.304 0.5194-8.287 1.0742-2.9394 0.82637-2.8569 3.2463-4.3442 5.4066-6.6699 0.16531-6.8587 3.8365-7.5435 9.1961-0.29514 2.3019-11.026 0.18862-12.891 0.50761-4.9109 0.84996-6.2802 8.9718-7.0948 12.679-0.66108 3.0222-2.55 1.9478-4.7811 2.5145-1.3458 0.34221-4.2852 5.5011-5.6192 2.1838-0.82635 3.3763-1.7589 7.9094-0.10625 11.168 1.7471 3.4353 2.3609 4.5095 1.6881 8.358-0.63748 3.6832 3.2583 1.8298 5.1353 1.995 3.7185 0.3306 6.4455 3.0457 10.318 2.9041 0.48399-2.3492-1.3104-3.5652-0.30693-6.41 0.64926-1.8298 2.0423-4.7221 4.3915-2.9277 1.8534 1.4166 2.0187 5.0643 1.9478 7.1656-0.05905 2.2194-1.5583 5.0525-1.3222 7.024 4.9582 0.43678 7.2836 4.6393 12.254 4.4623 2.7033-6.4338 6.1504-2.8096 11.475-4.5921 3.1992-1.0742 4.6631-12.584 5.1588-15.583 3.4471 0.0948 3.9901 4.356 5.4186 6.6463 0.99161-1.0624 1.4874-3.0339 2.2429-4.3679 1.0388-0.15334 2.3847 0.44859 3.3408 0.17729 1.452-0.42524 2.2194-4.7574 2.5853-5.9379 0.88539-2.8214 3.0575-13.599-2.5618-13.233-5.6074 0.36583-3.7422-4.8754-8.299-6.5163-4.4978-1.6291-4.7811-7.7205-3.3053-11.663 2.3374-1.9478 3.211-4.8992 4.2144-7.6497 2.0068-5.4539-2.1366-2.2076-3.1047-5.1115-0.16512 0.15355-0.35414 0.34219-0.60206 0.5312" fill="#95c279" id="Hassan" />
   <path d="m99.516 66.692c-0.7083 0.20081-1.0742 0.67291-1.0979 1.4166-0.48399 1.5819-1.9124 0.92079-3.0812 1.511-0.28331 0.87359-0.49582 1.9006-0.46038 2.8451-2.2784 0.84994-4.7811 0.28338-7.1303 0.46038-3.5651 0.27159-6.9767 1.1096-10.613 1.2513-2.9632 7.685-3.5534-1.1687-8.299-0.21238-1.7235 3.4236-3.6242 0.35425-5.69 0.15355-2.2076-0.2124-2.2666 2.9276-4.7691 2.5145-0.64928 2.6798 4.2026 2.9749 1.4874 6.422-3.211 4.0728-5.4776 3.1402-8.6294-0.10608-2.6325-2.6916-4.356 3.1755-4.9227 4.8164-0.51941 1.4757-1.5465 2.2666-2.5145 3.4589-1.7235 2.1131-0.97981 5.4894-1.2041 7.9802-0.9444 0.04727-1.936-0.03572-2.8804 0.0012-0.48399 2.1131 0.82635 3.152 2.1131 4.545 1.936 2.1013 1.7707 4.9817 2.3257 7.6025 0.89718 0.77917 4.9817 2.1131 6.1149 2.597 2.8331 1.216 4.6276-0.99159 3.9901-3.7185 3.6714-0.6611 5.0762 3.211 5.1943 5.9616 1.6291 0.15333 3.3173 0.071 4.9462 0.21238 1.1215 2.5262 2.8922 5.3476 4.3089 7.7558 2.2666 3.8367 2.0895 2.3964 5.029 0.12959 2.2429-1.7235 5.2178 0.54306 6.0089-3.1165 0.37777-1.7235-0.44858-3.5769 0.57845-5.1941 0.80274-1.2632 2.0659-1.7708 2.727-3.2463 3.6714-8.2635 9.9517-1.2041 16.126-3.8958 1.2395-0.53117 0.53123-4.5803 0.81455-5.631 0.88536-3.3408 4.1436-4.3442 7.2836-4.415 1.0152-1.4756 1.1805-3.6477 2.7506-4.7101 1.8416-1.2513 7.6615-1.936 9.8689-1.7708 3.0812-2.4082-1.3104-3.1165-3.1165-3.6477-2.9041-0.84996-2.2546-4.9699-3.8012-7.0713-1.8652-2.5263-5.3594-1.9715-6.5636-5.1115-1.027-2.6443-0.90898-5.6192-1.0152-8.4051-0.37777-0.07079-2.8331 0.17728-3.2345 0.17728-0.95619-0.1296-1.7944-1.6055-2.6443-1.5701" fill="#f99" id="Chikmagaluru" />
  </g>
  <g fill="none" stroke="#345" >
   <path d="m212.26 73.327-3.9316-3.6291-10.283-4.8388-1.5121 2.7218-2.241-0.3596-2.702 0.49126h-1.7194l-4.4214-1.2282-1.7194 1.4738-2.702 0.98254-2.4564 0.24563-0.98254 1.2282h-1.4738l-1.4738 1.4738h-5.404l-4.4214 0.98253-1.7194 0.7369h-2.2107l-2.9476 0.7369h-3.6845l-1.7194-0.7369-0.98253 0.98253h-6.6321l-2.702 1.4738-7.6147 2.702-1.7194-2.2107-4.1758-0.98254-1.7194-2.2107h-4.9127l-2.4563-0.98254-3.4389-0.7369-2.9476 1.7194-4.1758-0.98254-2.702 1.9651-1.7194 0.24563-1.4738 0.7369-2.702-0.7369-0.73691 0.98254h-1.4738l-2.702-0.7369-1.4738 0.49127-2.4563 0.24563-1.4738 1.7194-1.2282 0.98253-1.7194 1.2282-0.49127 1.4738-0.98253 1.2282-2.702 0.73689-2.4563 0.24563-2.702 0.24563-1.7194-0.98253-0.7369 1.2282h-1.2282l-1.4738-0.49128-1.9651 0.98254-2.9476-0.98254-3.1932-0.98252-1.7194-0.49128-3.1932 1.2282-2.9476 0.49126-1.9651-0.73689-1.7194 1.4738h-1.9651l-1.7194-0.49126-2.2107-0.49128-2.4563-0.49126-1.2282-0.73691-0.98253-1.7194h-1.4738l-2.4563 0.98254-1.7194-0.24564h-3.9301l-4.1758 0.73691" stroke-width=".5px"/>
   <path d="m28.738 81.721-3.4279-3.9388-1.714-3.9388v-2.3633l0.42849-5.1205-0.85698-2.7572-2.1425-4.3327-1.2855-3.9388-0.85698-3.5449v-2.3633l0.42849-2.7572-0.42849-5.5144" stroke-width=".5px"/>
   <path d="m212.26 73.327-2.3539 0.72428-2.535 1.2675-0.54322 0.54321-1.2675 0.18107-0.36215 0.90535-1.8107 1.4486-1.0864 0.54321-2.1728 1.8107-0.72428 1.6296-1.0864 0.72428-1.2675 2.8971-0.54321 1.0864-1.4486 1.0864-1.4486 1.4486-2.1728 0.72428-1.6296 0.90535-0.72429 1.2675-2.1728 0.72428-0.36215 1.4486-1.9918 1.2675-1.6296 1.4486-1.8107 1.6296-7.4239 2.3539-3.0782 1.6296h-1.2675l-0.72428 1.9918-1.0864 0.72428-0.72428 2.1728 0.54321 1.6296 0.36214 2.3539v6.8807l1.8107 1.8107" stroke-width=".5px"/>
   <path d="m169.52 120.59-1.8015 1.4412-3.0626 0.7206-1.9817 0.54045-4.5038 0.54045-3.7832 1.8015 1.8015 2.8824-0.54045 1.4412 1.2611 0.7206 0.90075 2.5221-0.36031 1.6214 0.54046 1.6214 3.0626 5.2244-0.18015 1.0809 2.342 5.7648-2.5221 5.4045-0.36029 2.1618 0.18015 1.4412" stroke-width=".5px"/>
   <path d="m166.83 107.86-3.0763 1.4198-1.0649 0.47328h-1.3015l-1.7748 1.1832" stroke-width=".5px"/>
   <path d="m159.62 110.93-2.0539 0.63196-0.78996 0.31598-1.7379 0.78996-0.94795 0.47397h-1.4219l-2.2119 1.4219-0.78996 1.1059-1.1059 0.94795-1.1059 0.47397-1.2639 0.63197-0.31599 0.78995-1.5799 0.31598-1.2639 7.5836" stroke-width=".5px"/>
   <path d="m143.03 126.42 0.27327 1.3446v1.9209l0.27328 5.9549 1.0931 2.6893-0.68319 1.3447 0.54655 1.3446 2.1862 2.113 1.7763 2.8814 3.6892 3.8419 0.68319 1.7288 0.81983 0.19209 0.95647 0.1921 5.0556 6.147 0.81983-0.57628" stroke-width=".5px"/>
   <path d="m143.01 126.37-7.2385-6.6414h-1.3572l-0.60322 1.3836-0.75401 1.1069-1.0556 0.55345-1.2064 0.27671-1.0556-0.27671-1.8096-1.6603-3.016 1.3836-3.0161 2.7672-1.2064 0.55347h-1.508l-0.90483-0.55347-1.0556 0.55347-1.0556-0.55347h-0.60321l-0.90482-0.83016-2.262-1.9371h-2.8653l-0.75401-0.55345h-3.0161l-4.5241-6.3647-1.508-3.5974-1.508-3.3207-0.90482-0.55344-2.262 0.55344-2.1112 1.6603-1.2064-0.55344-0.30161-0.27672h-1.508l-0.45241-1.1069h-1.0556l-0.75401 0.55347-1.2064 1.1069h-0.60321l-0.45241 0.27671-3.3177 1.1069" stroke-width=".5px"/>
   <path d="m135.77 119.72 2.2502 0.37178h2.1769l2.0095-0.16745 2.0861-1.0972" stroke-width=".5x"/>
   <path d="m109.07 72.381-0.15092-2.113-1.0565-1.5093-0.30185-0.90556-0.30185-1.3583-0.75463-0.90556-0.60371-0.15093-0.30186-0.75464-1.2074-0.75463-1.0565-1.0565h-1.8111l-1.2074-1.3583-1.962-0.15093-2.2639-1.2074-0.75464-0.30185 1.0565-0.90556v-0.90556l-0.75464-1.0565-1.2074-0.30186v-1.6602l-0.45277-1.2074-0.90556-0.30185-1.3583-1.2074-0.90557-0.90556-1.6602-1.0565" stroke-width=".5px"/>
   <path d="m89.148 50.345-4.2678 3.3555-2.8452 5.1858-1.7071 4.5757-2.5607 0.30504-1.4226-1.5252-8.8201 5.4908-4.2678 3.3555-1.7071 1.8303-4.8368 0.30505-2.8452 1.5252-4.2678 1.5252-7.1129 3.9656" stroke-width=".5px"/>
   <path d="m84.881 53.701-2.8101 0.95766-1.8734-1.5961-3.1224-2.5538-4.6836-4.1498-4.0591 1.5961-1.8734-0.31922-1.249-0.63844-1.5612-2.5538-0.93671-0.31922-2.1857 0.95765-1.2489 0.31922-1.2489-0.95766-3.1224-2.2345-7.4937 9.2573-3.1224 4.7883-1.8734 1.5961-3.7468 0.95765h-1.5612l-1.8734-1.2769-1.2489-0.95766h-3.7468l-1.5612-1.5961h-1.5612l-1.5612-1.2769-2.1857-1.5961-1.2489-0.63844-2.8101-3.1922" stroke-width=".5px"/>
   <path d="m109.05 72.381 0.13565 2.1813-0.2713 2.3491 1.0852 2.1813-0.27129 1.1745v0.50338l1.0852 0.33558v1.3423l-0.5426 0.83896 1.0852 0.67117h0.54259l1.2208-0.67117 0.0608 1.822 0.88141 0.54513 0.77122 0.8177 0.99158 1.7717 0.8814-0.54513 1.873-0.13628 0.4407 1.7717 0.99158 1.2265 0.77122 1.6354v1.0903l0.44071 0.95398 0.11018 1.3628 3.3052 7.223 1.9832 5.0424 0.88139 1.2266-0.22034 2.0442 2.3137 2.8619-0.66105 1.7717 1.3221 1.4991-0.22035 1.0903 1.2119-0.13629 0.55088 0.68141h0.99158l0.8814-1.7717 2.0933 2.5894" stroke-width=".5px"/>
   <path d="m82.082 111.42h-3.7032l-1.8516-1.8516-1.0581-0.52902-2.3806-1.3226-2.6451-0.79354-0.79354-2.1161h-4.2322l-5.0258-1.0581-1.5871-0.52903-1.8516-3.7032-3.4387-1.3226-3.1742-2.1161-1.8516-1.5871-0.79354-2.6452-2.3806-2.6451v-1.8516l-2.1161-0.79355-1.0581-1.8516-2.1161-0.52903-2.1161-3.1742" stroke-width=".5px"/>
   <path d="m108.92 76.911-1.2644 0.85668 0.70246 1.4686-1.5454 1.1014 0.84295 0.97906-0.98345 1.3462 0.42148 1.2238-1.1239 2.8148 0.1405 1.1014 0.28098 0.48954h-1.6859l-0.56197-0.48954-0.42148 0.61192-0.70246-0.36715h-1.2644l-0.98345 0.61192-0.28098 0.48953-1.1239-0.12238-1.2644 0.36715v0.97907h-2.6694l-0.98344 0.24477-0.28099 0.85668v1.7134l-0.28098 1.7134-0.56197 0.85669-1.1239 0.7343-0.14049 0.85668v0.85669l-1.1239 0.48953-0.42148 0.61192-0.56197 0.61192v1.591l0.56197 0.73429 0.28098 0.61192-0.70246 1.1014 0.56197 0.73429h-2.1074l-0.98345 0.24476v0.73431h-0.56197l-0.14049 1.1014-0.84295 0.61192-1.1239 0.85668v0.36714l0.14049 0.36716-1.1239 0.61191-1.2644 0.48953-0.56197 1.3462" stroke-width=".5px"/>
  </g>
 <g fill-rule="evenodd" stroke-width=".20054">
  <ellipse cx="18.722" cy="40.206" rx="3.0868" ry="3.2684"/>
  <ellipse cx="89.406" cy="50.634" rx="3.0868" ry="3.2684"/>
  <ellipse cx="28.086" cy="82.072" rx="3.0868" ry="3.2684"/>
  <ellipse cx="109.33" cy="72.734" rx="3.0868" ry="3.2684"/>
  <ellipse cx="212.05" cy="73.045" rx="3.0868" ry="3.2684"/>
  <ellipse cx="82.558" cy="111.33" rx="3.0868" ry="3.2684"/>
  <ellipse cx="142.32" cy="124.09" rx="3.0868" ry="3.2684"/>
  <ellipse cx="160.07" cy="157.4" rx="3.0868" ry="3.2684"/>
  <ellipse cx="159.13" cy="111.02" rx="3.0868" ry="3.2684"/>
 </g>
 <g fill="#000000" font-family="sans-serif" font-size="3.5277px" letter-spacing="0px" stroke-width=".26458" word-spacing="0px">
  <text x="177.18507" y="75.224373" style="line-height:1.25" xml:space="preserve"><tspan x="177.18507" y="75.224373" font-size="5.6444px" stroke-width=".26458">Bengaluru</tspan></text>
  <text x="21.860369" y="33.513924" style="line-height:1.25" xml:space="preserve"><tspan x="21.860369" y="33.513924" font-size="5.6444px" stroke-width=".26458">Udupi</tspan></text>
  <text x="-0.5512107" y="91.410515" style="line-height:1.25" xml:space="preserve"><tspan x="-0.5512107" y="91.410515" font-size="5.6444px" stroke-width=".26458">Mangaluru</tspan></text>
  <text x="71.663872" y="42.229542" style="line-height:1.25" xml:space="preserve"><tspan x="71.663872" y="42.229542" font-size="5.6444px" stroke-width=".26458">Chikmagaluru</tspan></text>
  <text x="109.01651" y="67.442574" style="line-height:1.25" xml:space="preserve"><tspan x="109.01651" y="67.442574" font-size="5.6444px" stroke-width=".26458">Hassan</tspan></text>
  <text x="69.173706" y="120.3588" style="line-height:1.25" xml:space="preserve"><tspan x="69.173706" y="120.3588" font-size="5.6444px" stroke-width=".26458">Madikeri</tspan></text>
  <text x="118.35467" y="131.25333" style="line-height:1.25" xml:space="preserve"><tspan x="118.35467" y="131.25333" font-size="5.6444px" stroke-width=".26458">Mysuru</tspan></text>
  <text x="141.38879" y="104.7952" style="line-height:1.25" xml:space="preserve"><tspan x="141.38879" y="104.7952" font-size="5.6444px" stroke-width=".26458">Mandya</tspan></text>
  <text x="164.11165" y="150.24091" style="line-height:1.25" xml:space="preserve"><tspan x="164.11165" y="150.24091" font-size="5.6444px" stroke-width=".26458">Chamarajanagar</tspan></text>
 </g>
</svg>
