<svg width="182.91mm" height="230.84mm" version="1.1" viewBox="0 0 182.91293 230.83709" xmlns="http://www.w3.org/2000/svg" xmlns:cc="http://creativecommons.org/ns#" xmlns:dc="http://purl.org/dc/elements/1.1/" xmlns:rdf="http://www.w3.org/1999/02/22-rdf-syntax-ns#">
 <metadata>
  <rdf:RDF>
   <cc:Work rdf:about="">
    <dc:format>image/svg+xml</dc:format>
    <dc:type rdf:resource="http://purl.org/dc/dcmitype/StillImage"/>
    <dc:title/>
   </cc:Work>
  </rdf:RDF>
 </metadata>
 <g fill="none" stroke="#000">
  <g transform="translate(-24.938 -40.59)" stroke="#fff" stroke-width=".5">
   <path id="Upper Siang" d="m104.08 81c1.1441 1.4133 2.3219 3.0229 3.8613 4.0381 1.2367 0.81601 2.6557 1.2423 3.7603 2.2714 2.148 1.9966 2.6892 3.9034 5.9505 4.198 3.508 0.31687 6.3487 3.1435 8.9791 5.2634 2.305 1.8564 4.9719 3.4549 6.8928 5.7373 2.3387 2.7817 1.6881 6.0992 1.3068 9.4307-0.33091 2.8995 0.6029 4.184 1.6348 6.7554 0.0103 0.0207 0.0155 0.0394 0.0232 0.059 1.2395-0.54116 1.9097-2.1396 3.267-2.5686 2.0527-0.64775 3.682-0.11758 5.3616 1.1497 1.3713 1.032 2.8268 1.977 4.5513 0.97306 1.175-0.68703 2.148-2.2574 3.71-1.8676 1.4077 2.8884 3.2418 5.5046 6.632 4.6353 2.8211-0.72348 5.4822 0.43466 5.2327 3.6428-0.12343 1.5704-3.2557 5.4459-2.6696 6.4412 1.3152 2.2433 4.0688 3.4603 4.3887 6.2843 0.37854 3.3482-2.9585 6.5198-1.4021 9.767 1.5003 3.1351 5.1317 3.4126 7.1479 6.001 2.807 3.609 3.6848 0.7207 6.8562-0.34208 3.3033-1.1077 3.2361-0.98991 3.4155-4.4446 3.2417-0.65057 3.1969-4.226 3.3649-7.0106 1.0797-0.21882 1.9602-0.58612 3.0735-0.59734 0.86088-0.51596 1.4329-1.3824 2.12-2.3135-0.0102 0.0103-0.0206 0.018-0.0309 0.0258-2.0863-1.0964-2.5658-4.8876-3.7745-6.8113-1.189-1.8901-1.6376-4.742-0.93937-6.9124 0.72066-2.2462 3.7549-3.393 4.9972-5.4345 2.3808-3.9119 0.18223-4.1614-1.5984-7.2686-1.2282-2.1425-2.263-5.6168-2.5687-8.0817-0.3758-3.0397 2.9639-5.0168 2.2518-8.3229-0.65898-3.0567-2.7201-5.2046-4.3268-7.6974-1.2507-1.9433-1.0824-5.9843-1.3068-8.2753-1.7274-0.52156-5.4485-1.5255-5.816-3.6567-0.50193-2.9219 0.93943-6.2786 1.5536-9.2456-0.0394-0.01318-0.0814-0.02811-0.11773-0.04774-2.5182-1.2563 0.21882-3.8278-3.365-4.4307-2.4481-0.41222-11.217 0.51878-10.704-3.0987-2.5659-1.0151-4.6523-1.8704-7.4817-1.6881-0.14846 1.8199-2.2826 3.3624-2.6136 0.84125-1.3937-0.09825-2.9444-0.70944-4.1588-0.60853-1.074 0.08976-3.2219 1.862-2.5658-1.074-1.1021-0.07014-4.052-0.56923-5.0196-0.07014-1.5704 0.81044-1.5676 4.4727-3.6987 1.4302-1.332-1.9041-0.34209-4.1866-1.1946-6.1974-0.58326-1.374-2.0247-2.992-2.8827-4.2652-2.1256-3.1546-5.9029-7.4984-10.205-6.674 0.0701 1.3236-0.11495 2.7397-0.55805 3.9735-2.3247-0.18506-3.4211 2.9332-4.6577 4.5848-1.6377 2.1873-2.8294 3.2528-5.3644 3.5753-4.725 0.6029-10.591-1.977-10.157 4.8905-2.106 0.08976-4.2765-0.77955-6.2675 0.55805-1.0067 0.67582-1.5536 2.221-2.4901 3.0819-0.931 0.85528-2.1817 1.1105-2.8631 1.7442-2.793 2.608-3.5474 5.6729-4.083 8.9482 5.5889-0.69548 11.433 4.8541 14.548 8.7041z" fill="#cc2" />
   <path id="West Siang" d="m144.77 194.07c-0.1652-1.6798 0.40099-3.0596 1.3993-4.3773 0.94779-1.2507 2.2601-2.3078 3.0062-3.6987 1.1806-2.2069-1.2227-2.7734-1.0067-4.7868 0.16288-1.5283-0.0729-2.2461-1.5031-2.7621-0.96461-0.34771-1.747-0.80479-1.3516-1.977 0.35894-1.0656 1.9573-1.1301 2.5575-2.0526 0.81881-1.2591-0.18223-3.3005-0.83008-4.4278 1.8452-0.82727 2.8015-1.834 2.9948-3.8923 0.12036-1.2703-0.10923-2.6557 0.40382-3.8585 0.4571-1.0684 1.7274-1.5647 1.5199-2.9023-0.54403 0.10952-1.3432-0.19923-1.8227-0.14028-0.14871-2.3584-0.21032-4.5175-1.4666-6.5732-0.9338-1.5255-2.3499-3.8503 0.48236-4.0353 2.1256-0.13735 3.909-1.0348 3.0846-3.5866-0.93943-2.9137-2.4986-5.3616-3.2642-8.4154-0.3617-1.4414-0.33089-4.1559-1.8003-5.0057-1.6853-0.97587-4.7869-0.74035-6.7188-0.9226-6.5255-0.6169-2.3583-7.6472-4.0016-11.912-0.20181 0.0898-0.42062 0.15128-0.65898 0.17372 0.23841-0.0231 0.4571-0.0844 0.65898-0.17372-0.0103-0.0207-0.0155-0.0391-0.0232-0.059-1.0292-2.5743-1.9658-3.8585-1.6348-6.7554 0.38137-3.3314 1.032-6.6461-1.3068-9.4306-1.9181-2.2826-4.5876-3.8783-6.8928-5.7374-2.6304-2.12-5.4709-4.9466-8.9791-5.2634-3.2585-0.29446-3.8026-2.2013-5.9505-4.198-1.1048-1.0291-2.5238-1.4554-3.7603-2.2714-1.5367-1.0151-2.7173-2.6219-3.8613-4.0381-3.1154-3.8503-8.9595-9.3997-14.562-8.7072-0.21031 1.2787-0.38699 2.5856-0.63655 3.9147-0.60851 3.2193-1.8956 3.2698-4.2064 4.6018-2.6863 1.5508-2.7088 3.1745-4.7082 5.3335-0.33933 0.36738-2.1817 1.1385-2.8603 1.6517-0.8609 0.64778-1.6208 1.3236-2.42 2.0779-1.3516 1.2787-3.7353 4.8204 0.48513 3.5332-0.42905 3.1407-4.7054 12.552-8.6062 12.311 0.04485 3.4325 0.5917 4.4616 3.8894 6.2198 3.2165 1.7134 4.3129 5.3196 8.0959 6.4974 3.1799 0.98986 3.7044 2.4789 3.2613 5.7487-0.42064 3.1183 3.3987 4.7307 5.9253 5.5832 1.3516 0.4571 2.8407 0.62814 3.9987-0.34496 0.91136-0.7655 1.6264-2.0246 3.0033-1.8283 4.484 0.64214 3.567 4.6634 4.5766 7.6807 0.62813 1.8788 2.3864 1.2423 3.6258 2.2153 1.0572 0.82723 2.2966 1.0572 3.6482 0.86367 1.0123-0.14584 1.1357 0.89736 0.83563 1.8003-0.47109 1.4105-2.5687 1.5227-3.609 2.3247 1.1161 1.0039 1.8368 2.1116 1.8845 3.6567 0.0206 0.61694-1.8676 0.97865-2.2378 1.89-1.3488 3.3062 1.9686 5.9786 1.7555 9.2428-0.25233 3.8755 1.0824 6.8871 5.0925 7.9052 3.6428 0.9254 2.3051 5.5412 4.4054 7.891 1.2142 1.3572 2.6304 1.5563 3.5613 3.3734 0.98986 1.9349 2.1144 2.9948 3.7492 4.3802 3.7268 3.166-3.5333 3.8727-5.642 4.6324-4.2709 1.5423-8.3088 3.6567-12.627 5.0559-1.5592 0.50478-3.9485 1.0881-5.1822 2.4088 0.1683 0.018 0.34212 0.0309 0.5188 0.0363-0.17681-7e-3 -0.35055-0.0206-0.5188-0.0363-0.15129 0.1629-0.2888 0.33368-0.40099 0.52156-0.97026 1.6041 1.9096 2.0527 2.835 2.0891 1.6797 3.5951-3.8783 3.6454-5.8523 5.3363-1.6573 1.419-2.9724 3.1969-4.6129 4.641-1.3628 1.1974-2.9304 2.134-2.3359 4.226 1.3769 0.72627 2.3948 1.1581 3.9119 1.1778 0.29162-1.1021 2.0919-3.0397 2.7229-3.5613 1.0291-0.84969 2.0919 1.0852 2.1901 1.876 0.04488 0.34773-0.87773 2.5238-0.97588 2.4172 0.68426 0.74597 2.2378 0.40947 3.124 0.48795 1.8928 0.16546 3.2247 0.61694 4.9129 1.405 2.7482 1.2843 5.9423-4.8513 8.5977-2.8379 0.84687 0.64219 0.66736 1.7078 1.6685 2.1424 0.14871 0.0644 0.32529 0.11524 0.53277 0.14871 1.2703 0.19924 3.0987-0.0898 4.3044-0.51875 1.3881-0.49353 2.2826-1.7246 3.2247-2.7789 1.4582-1.632 3.1126-2.3891 5.2018-2.9387 1.7807-0.46831 3.1745-1.1133 4.7335-2.0808 1.4919-0.92534 2.9949-0.80756 4.6382-1.1553 1.2002-0.25514 1.374-1.2843 2.6667-0.45429 1.2395 0.79639 2.277-1.3376 3.1492-1.9517 1.0347-0.73193 2.0947-1.461 3.1856-2.1452 0.1598-1.6937-1.0291-3.2108-1.1918-4.8794z" fill="#e2b584" />
   <path id="East Siang" d="m203.15 170.64c0.90577-2.134 2.3247-3.9791 3.1268-6.1832 0.95904-2.6387 1.2871-5.4263 1.3236-8.2191-0.31124-5.2523-0.62811-10.376-4.1502-14.708-1.8087 0.51312-3.8136 2.0807-5.7235 1.0628-2.148-1.147-2.549-3.9036-4.7588-5.0307-0.41222 0.45143-1.0291 0.49632-1.4638 0.92819-0.68703 0.931-1.2563 1.7975-2.12 2.3134-1.1133 0.0102-1.9938 0.37857-3.0735 0.59734-0.16829 2.7845-0.12344 6.36-3.3649 7.0106-0.17681 3.4546-0.11187 3.3371-3.4155 4.4446-3.1717 1.0628-4.0492 3.951-6.8562 0.34211-2.0134-2.5884-5.6448-2.866-7.1479-6.001-1.5563-3.25 1.7807-6.4216 1.4021-9.767-0.31688-2.824-3.0735-4.0382-4.3887-6.2843-0.58323-0.99548 2.549-4.8709 2.6696-6.4412 0.24948-3.2052-2.4144-4.3662-5.2327-3.6428-3.3876 0.86932-5.2242-1.747-6.6319-4.6353-1.5619-0.38694-2.535 1.1834-3.7098 1.8676-1.7218 1.0067-3.1773 0.059-4.5513-0.97309-1.6825-1.2647-3.309-1.7974-5.3616-1.1497-1.3601 0.42903-2.0275 2.0274-3.267 2.5686 1.6433 4.2652-2.5238 11.295 4.0016 11.912 1.9321 0.18223 5.0307-0.0533 6.7188 0.92261 1.4694 0.84962 1.4385 3.5642 1.8002 5.0054 0.76557 3.0567 2.3247 5.5046 3.2642 8.4154 0.82447 2.5519-0.95624 3.4492-3.0845 3.5866-2.8322 0.18505-1.4162 2.5098-0.48238 4.0353 1.2563 2.0527 1.318 4.2147 1.4666 6.5732 0.47673-0.059 1.2787 0.24666 1.8227 0.14028 0.20749 1.3376-1.0656 1.834-1.5199 2.9023-0.51317 1.2058-0.28321 2.591-0.40381 3.8585-0.19613 2.0583-1.1497 3.065-2.9948 3.8923 0.64496 1.1273 1.6488 3.1717 0.83005 4.4279-0.60012 0.92259-2.1985 0.98707-2.5574 2.0526-0.39542 1.1722 0.38698 1.6265 1.3516 1.977 1.4302 0.51601 1.6658 1.2367 1.5031 2.7621-0.21598 2.0134 2.1873 2.5827 1.0067 4.7868-0.74308 1.3909-2.0583 2.4482-3.0062 3.6987-0.99829 1.318-1.5676 2.6948-1.3993 4.3773 0.16547 1.6685 1.3517 3.1856 1.1918 4.8876 1.9882-1.2479 4.083-2.3471 6.3124-3.0286 1.7274-0.52715 3.4521-0.82162 5.0139-1.775 1.9068-1.1638 3.4884-2.3191 5.7149-2.8126 3.4183-0.75716 6.3234-2.9304 9.7812-3.8698 3.9062-1.06 7.6696-3.4688 11.309-5.2466 1.475-0.72071 2.9892-1.719 4.6495-0.95903 1.3713 0.62812 2.4958 1.5115 3.9905 1.8788 1.4161 0.35054 3.0397 0.55803 4.4755 0.19613 1.7751-0.44866 3.0678-3.0034 5.1121-2.2714 0.68988 0.24666 1.2676 0.33647 1.7751 0.30562-2.7258-2.6276-2.2995-7.5405-0.94782-10.732z" fill="#a3b0a3" />
  </g>
  <g>
   <path d="m6.0674 229.23 2.6654-1.765h1.9241l2.1645 1.2025 1.2025-1.443h1.6835l0.48101-1.2025 2.4051-1.6835 1.443-0.7215h1.924l5.5316 1.6835 7.6962 0.48101 3.3671-2.6456 1.924-1.6835h1.2025l2.6456-0.96202 2.1645-2.1646 0.72152-1.6835 2.8861-1.2025 2.4051-2.4051 0.2405-0.96201 2.4051-3.8481v-1.6836l1.443-2.8861 1.2025-1.924 0.72151-1.924v-1.2025l0.24051-1.924v-0.96202l1.2025-1.443 1.6835-0.96204 2.6456-0.24049 3.1266 0.96202 2.1646 0.48101 1.924-0.96202 2.4051 0.96202 1.924 1.443 3.1266 0.72151 3.3671-0.72151 7.6962-3.1266 1.924-2.8861 0.2405-1.924 1.924-2.6456 3.8481-3.1266 4.8101-3.1266 4.8101-0.72152 3.3671-3.3671 0.96202-5.2911 4.3291-1.6835 4.5696-2.4051 4.5696-3.8481 6.7342-1.443 2.8861 1.6836 3.6076 1.2025 1.9241-1.9241 2.6455 0.48101 1.9241-0.24048 0.96198-2.8861 0.72152-1.924 3.3671 0.72151 1.2025-2.4051-0.48096-2.8861 8.4177-1.924v-1.6836l-1.443-1.924 1.443-1.9241-0.48101-3.1266 2.4051-1.924 0.96199-4.8101-1.6835-2.4051 0.48102-2.405-2.8861-2.4051 0.24051-1.924-0.72151-2.8861-4.8101-3.1266-1.443 0.72151-0.96197-0.72151 1.443-4.8101-1.924-2.8861 0.2405-2.4051-1.2025-1.443-0.48101-2.1646 0.96201-2.1645 0.72152-3.1266 2.6455-3.6076v-1.924l0.96205-1.924-2.1646-2.6456-0.24053-1.6835-0.72146-1.6835-2.1646-0.72152-1.443-1.2025-0.72152-2.6456-1.6835-1.924-0.48101-0.96202-2.6456-2.1646-1.443-2.4051h-2.6456l-2.886-1.6835" stroke-width=".5px"/>
   <path d="m107.58 178.4-2.1617-8.148-0.83144-0.99773-0.83144-0.83142-0.49887-0.66515-0.16629-0.83144-0.66515-0.99771-0.33257-0.49887 0.16628-0.83144 0.83144-0.99772 2.6606-0.49885 0.66516-0.99773v-1.164l0.16628-1.164v-0.83143l-0.49886-0.99772 0.16629-1.4966 2.328-2.4943-1.164-0.49886-0.49886-0.33258v-1.4966l3.9909-1.6629 1.3303 0.49886 0.16629-1.164 1.6628-1.4966v-3.1594l-4.9886-4.3234-2.8269-0.49886 0.16629-1.4966-1.4966-1.164-0.66515-1.164-0.49886-1.3303-0.33258-1.3303-0.33258-1.6629 0.49887-0.99772v-1.6629l-0.33258-1.164-0.16629-1.3303-0.33257-1.164v-1.9954l0.83144-0.66515 0.99773-0.99772 1.164 0.49886 0.33258 0.83143 1.4966 0.99772 1.4966-0.66514 1.164-0.66515 0.83144-1.8292 0.99773-0.99772 0.83141-0.16629 1.164 0.49886 0.99773-0.83143 0.66515-1.8292v-0.66515l-0.83144-0.16628-1.4966-0.66515 0.49886-1.164v-1.9954l0.83144-2.1617h1.164" stroke-width=".5px"/>
   <path d="m115.89 110.72 2.1489-1.6992 1.2893-2.7612h1.7191l0.42978 0.42478 1.7191-0.84957h3.653l2.3637 0.21238-0.0771 1.5076 0.42395 0.83805 0.84784 0.97772 0.98919 0.27936 0.28261 0.55869 0.56526 0.5587 1.837 0.97771 2.6849 1.2571h1.6957l2.261-0.41902 1.837-0.83806 0.70655 0.83806 1.2718-0.69837 0.2826 0.55869 1.2718-0.13967-0.14128 1.1174 2.6849-0.41903-0.84784 2.7935 3.3914 1.3967" stroke-width=".5px"/>
   <path d="m116.33 110.36 2.0038-1.6136 1.3872-2.787v-2.9337l0.61655-0.73343 0.61656-0.29338 0.7707-1.3202-0.15415-1.1735 1.079 0.14667v-0.44005l0.61656 0.29338v-1.1735l2.0038 1.0268-0.46241-1.7602 1.3873 0.58674 0.92481-0.44006 1.079 0.14668 0.7707-1.1735 1.3873 1.7602 0.7707-0.14668 0.15411-1.6136 0.46244-1.1735 0.4624 0.73343 1.079 0.14668 0.61658 0.73342-0.15414-1.1735 1.3872-0.14669 1.079-0.44006 0.46244-0.88011-0.3083-0.29338 0.46241-1.1735-0.15411-0.73343-0.92485 0.29337h-1.079v-0.73342l1.3872-1.1735v-0.73342l-0.92481-0.73343v-0.73343l2.0038-0.14669 1.5414-0.88011 0.15412-1.7602-0.15412-1.1735-0.46244-1.1735-1.5414-0.58674-0.3083-1.7602 0.61656-0.14668v-0.73344l-0.7707-1.3202v-1.1735l-0.61655-0.44007-0.7707-0.73343-0.30827-2.9337" stroke-width=".5px"/>
  </g>
 </g>
 <g fill-rule="evenodd" stroke-width=".30869">
  <ellipse cx="134.45" cy="73.279" rx="1.5912" ry="1.6708"/>
  <ellipse cx="116.49" cy="110.34" rx="1.5912" ry="1.6708"/>
  <ellipse cx="151.27" cy="117.16" rx="1.5912" ry="1.6708"/>
  <ellipse cx="6.1888" cy="229.17" rx="1.5912" ry="1.6708"/>
 </g>
 <g fill="#000000" font-family="sans-serif" font-size="3.5278px" letter-spacing="0px" stroke-width=".26459" word-spacing="0px">
  <text x="-0.3775886" y="222.41129" style="line-height:1.25" xml:space="preserve"><tspan x="-0.3775886" y="222.41129" font-size="5.6445px" stroke-width=".26459">Itanagar</tspan></text>
  <text x="101.40173" y="110.00982" style="line-height:1.25" xml:space="preserve"><tspan x="101.40173" y="110.00982" font-size="5.6445px" stroke-width=".26459">Aalo</tspan></text>
  <text x="155.8643" y="117.92814" style="line-height:1.25" xml:space="preserve"><tspan x="155.8643" y="117.92814" font-size="5.6445px" stroke-width=".26459">Pasighat</tspan></text>
  <text x="136.16508" y="73.508308" style="line-height:1.25" xml:space="preserve"><tspan x="136.16508" y="73.508308" font-size="5.6445px" stroke-width=".26459">Yingkiong</tspan></text>
 </g>
</svg>
