<svg width="201.32mm" height="244.51mm" version="1.1" viewBox="0 0 201.31596 244.51207" xmlns="http://www.w3.org/2000/svg" xmlns:cc="http://creativecommons.org/ns#" xmlns:dc="http://purl.org/dc/elements/1.1/" xmlns:rdf="http://www.w3.org/1999/02/22-rdf-syntax-ns#">
 <metadata>
  <rdf:RDF>
   <cc:Work rdf:about="">
    <dc:format>image/svg+xml</dc:format>
    <dc:type rdf:resource="http://purl.org/dc/dcmitype/StillImage"/>
    <dc:title/>
   </cc:Work>
  </rdf:RDF>
 </metadata>
 <g transform="translate(-6.6848 -6.9225)" stroke="#fff" stroke-width=".5">
   <path d="m96.526 176.08c-0.30019-1.7272-0.05797-3.678-0.2237-5.4121-6.3494 0.0174 0.4761-9.2052-7.0838-7.9976-0.58783-3.2146-2.7424-6.0316-2.3067-9.4347-1.6649-0.61895-3.3873-0.90428-5.1293-0.9933 0.0015 0.0311 0.0031 0.0598-0.0093 0.10557-5.7284-0.13533-4.2587 7.9007-11.309 7.4141-6.6443-0.46319-13.476 5.7696-17.048 10.78 1.0659 1.1912 0.80641 2.2415 1.0594 5.068 3.3008 0.11251 8.1464-0.30667 8.279 4.2238 0.17026 6.1064-1.646 11.46-0.28635 17.684 1.9309 8.8387 17.897 0.83506 18.857 7.4556 2.9337 0.53738 5.0209 1.7803 6.4158 3.5402 2.8285-1.4704 6.2708-0.65915 9.2956-0.95289 3.9486-0.38726 7.4698-3.2161 10.142-5.9555 0.26967-0.28487 4.6675-5.5332 3.5166-5.7734-3.4973-0.7182-2.2063-4.9476-2.4271-7.4452-2.1641-0.14192-4.1262-0.71524-6.3753-0.47718-0.17597-1.929-0.34412-3.708-0.34166-5.376-0.74681 0.0395-1.5117 0.0208-2.3096-0.0588-0.54071-2.3155-2.2677-3.8327-2.7164-6.3933" fill="#e2b584" id="Harda" />
   <path d="m31.267 131.12c3.9777 0.4526 6.8412 3.653 11.03 3.2833 6.0233-0.52597 10.929-4.6596 17.019-5.3394 5.8966-0.65463 9.144-0.1333 10.925 5.843 0.40161 1.3763 0.51919 7.6204 1.9247 8.1478 2.0588 0.98883 4.6333 1.8155 6.9035 1.982 1.3198 2.3198 2.9516 4.3075 2.7132 7.1897 1.742 0.0888 3.4644 0.37432 5.1293 0.99327 0.24301-1.9359 10.743-6.4826 12.823-6.8021 6.4037-0.98164 15.364-0.0541 21.063-3.3276 4.275-2.4477 6.2822-8.4428 10.101-10.446 4.0957-2.1529 11.715-1.0797 16.287-1.0188-0.40143-5.3729-5.2899-11.487-10.975-6.8021-2.599 2.1345-4.0196 3.0353-7.3968 3.4678-3.2136 0.40877-4.6647 2.7235-7.0399 4.5609-7.3826 5.7357-22.728-9.5815-18.786-17.241-3.0918 0.73291-6.358 0.42331-9.4929 0.33229-1.1215-4.5388-4.8977-8.007-5.9825-12.698-1.2386-5.3439-1.6243-10.988 1.5173-15.63 2.8357-4.1902 2.4224-8.3603 1.1264-13.085-1.0728-3.8953-6.8322-8.6269-6.0555-12.379-0.55187 0.04392-1.0903 0.05711-1.5683 0.08211-0.70212 2.3205-3.1587 2.5996-4.7956 3.9472-2.8002 2.2953-0.43979 6.1832-1.5146 9.1094-1.6501 0.52215-3.2687 0.50181-4.6537 1.2205 0.38282 0.15982 0.76564 0.32017 1.1335 0.4815-2.7074 1.4941-1.5757 6.5131-1.7064 9.45-1.5841 0.92435-3.0133 2.5168-3.3829 4.6097-7.0146 0.75826 1.2503 21.285-8.3856 20.888-4.293-0.18069-2.6213-6.864-5.6003-8.5563-3.5658-2.0217-7.2538 7.9076-9.695 0.47807-6.3192-1.1262-7.089 10.198-10.738 6.0167-1.5609 7.6542-2.6861 13.332-1.9272 21.241" fill="#c2f0c2" id="Sehore" />
   <path d="m6.917 29.112c1.9005 5.1141 7.3625 5.3086 7.3777 11.888 0.01317 6.2497 5.3688 4.1359 6.168 8.8117 0.58547 3.455-1.4674 9.7227 1.4167 12.171 5.0317 4.2736 5.8811 8.7667 6.4522 15.092 3.7811 0.13229 8.5545-3.0927 11.972-2.19 2.0195 0.52517 3.4644 2.0872 5.2376 3.061 2.7607 1.523 5.8423 0.5953 8.8034 0.51517 2.8268-0.07298 5.5868-0.5632 8.3327 0.3897 1.9369 0.66478 3.9704 1.7452 6.1002 1.2278 1.213-0.28902 1.0118-1.27 1.3687-2.1752 0.86012-2.1636 4.3121-2.0289 6.0797-2.5874 0.93088-2.5278-0.73234-5.4006 0.48783-7.8384 1.2744-2.5459 4.9558-2.3181 5.8229-5.2033 0.47797-0.0277 1.0156-0.05305 1.5683-0.08245 0.79654-3.9483-1.5668-12.178 2.1343-14.716-7.8986-1.8248-0.08646-13.653-11.75-13.297-4.8596 0.14918-9.2077-1.0801-12.945-4.3848-2.5437-2.2406-2.7408-6.0015-4.5952-8.8041-1.1132 0.76449-1.9316 1.7239-1.9128 3.2254-3.5447 0.66653-5.015-2.5318-4.67-5.6599-3.4817 0.72338-5.4986-1.4697-8.8249-1.4907-0.11228-2.1426-0.15856-4.454-0.46499-6.5865-0.11007 0.18587-0.44498 0.93987-0.67848 1.3428-2.1193 0.14087-4.3882 0.29005-6.5082 0.41615 0.27427 1.2327-0.42151 3.1022-0.11813 4.3183-7.5622-2.5486-16.875-3.0672-24.772-4.5765 0.86376 3.3352 1.6096 6.1358 0.13236 9.3835-0.97961 2.1698-3.1581 5.1836-2.2149 7.7487" fill="#a3b0a3" id="Rajgarh" />
   <path d="m106.34 55.521c2.1326 1.8265 5.42 2.8261 7.8592 4.2158 5.4335 3.0808-0.79513 7.1185-3.0004 11.336 1.8306 3.4948 3.8642 4.5755 7.4961 5.572 3.6914 0.99351 5.1431 4.1179 8.4466 5.4169 4.5263 1.7761 17.673-0.86614 16.747 7.4909 3.3787 0.16827 7.0271 0.05254 10.378-0.30321-2.6593-2.4449-7.2327-5.4055-3.3066-9.3676 2.7594-2.789 7.549-5.1286 11.389-5.8707 0.0816-2.1528-1.1945-5.9323 1.7101-6.8055 1.9756-0.59933 5.3047 0.05221 5.9108-2.6687-1.613-1.3428-3.9313-2.4233-5.2881-2.5926-2.0112-7.7976-1.194-15.638-2.2642-23.485-0.87295-6.3698-9.4465 0.07434-12.904-0.1654-0.88726-4.0704 3.714-6.2947 3.6662-10.634-0.0478-4.6253 0.23883-8.3064 3.1239-12.123-4.645-3.778-12.727-4.7509-18.23-3.9459-5.1915-6.2386-8.3974-5.4051-13.59-2.2461-4.1317-0.82015-3.1184 0.44868-7.673-1.0104-4.2951-1.3675-5.3525 1.124-10.063 4.4059-2.5722 1.7875-5.0628 4.5623-8.486 2.9689-2.0116-0.94634-5.3615-5.9994-7.7695-3.6496-4.8451 4.7163 0.19906 11.514-0.59053 17.024-0.37198 2.6187-1.4058 5.1822-1.2645 7.8792 0.18608 3.8365 3.4279 5.9655 5.0901 9.1087 7.1212 0.42308 7.9526 5.4279 12.612 9.4507" fill="#fcc" id="Vidisha" />
   <path d="m162.77 68.051c-1.0055 1.3899-0.31394 4.2985-0.39102 5.9704-3.8403 0.74212-8.63 3.0816-11.389 5.8706-3.9261 3.9618 0.64736 6.9225 3.3066 9.3676-3.3661 0.3567-7.0153 0.45778-10.378 0.30319 0.7928-7.1634-10.293-6.6574-14.792-7.0527-3.8818-0.33747-5.1282-4.1186-8.5445-5.2916-4.2851-1.4583-7.0717-1.7629-9.3527-6.1358-2.6943 5.1746-2.7835 12.902 0.50445 17.913 2.0178 3.0645 8.1696 6.9942 4.8576 11.239-0.95441 1.222-2.3191 2.0447-3.3356 3.2249-1.849 2.1553-1.0151 4.9212-1.6025 7.431-0.76035 3.21-5.9268 4.0819-8.6342 4.7194-3.7652 7.3188 9.6192 20.651 16.952 18.253 2.8269-0.92941 4.15-3.9735 6.8762-5.1082 2.8151-1.1542 5.4948-0.3181 7.9381-2.5646 5.8011-5.3372 11.895-1.9456 12.431 5.4335 4.6308 0.0581 8.747 0.0106 12.913-2.2243 3.264-1.7336 6.1656-2.9524 9.9304-2.8492 4.9791 0.12975 4.5242-1.9799 7.664-4.6537 4.3017-3.651 8.5404-1.0786 12.715 1.1366 5.9022-1.4061 6.7104-4.2733 9.6531-8.9948 1.548-2.4701 5.4138-10.155 7.908-11.142-0.51544-3.5488-1.63-6.8111-3.9479-9.6043-1.3905-1.67-6.611-2.9741-7.0143-4.6658-1.9176-8.0129 8.5009-11.263 7.8599-18.066-2.8214-0.10762-6.1143-0.64122-8.1748 1.7656-1.9056 2.2184-3.3238 3.7351-6.4933 3.841-6.9381 0.21321-2.5362-8.386-5.006-11.217-0.57381-0.66103-3.2772-0.51936-4.2065-0.81622-2.3448-0.7335-0.54303-2.0751-2.3149-3.0189-5.8232-3.0905-6.9405 2.1667-6.855 6.0835-0.0465-0.8841-0.78437-1.822-1.7866-2.6559-0.83034 3.5893-5.557 1.1326-7.2898 3.5073" fill="#abacda" id="Raisen" />
   <path d="m83.986 63.621c0.66484 3.8265 5.0282 6.7831 6.1742 10.93 1.2952 4.7101 1.7093 8.8951-1.1264 13.085-2.9057 4.284-2.5011 8.2894-1.9259 13.263 0.68201 5.8689 5.058 9.6362 6.3909 15.066 4.9046 0.1333 9.1367 0.0174 13.752-1.6523 6.3795-2.3025 2.3775-6.6453 5.9766-10.846 3.6132-4.2158 6.0212-6.2805 1.19-11.301-5.3217-5.5207-6.8509-14.125-3.2163-21.076 2.2052-4.2172 8.4337-8.2548 3.0004-11.336-3.9822-2.2554-7.7899-3.4682-10.479-7.3389-3.678-5.3061-8.5611-7.6044-15.139-5.9527-3.518 0.89051-4.5093 3.4065-4.2148 6.7415 0.30874 3.3194-0.917 7.3652-0.38264 10.417" fill="#e7de69" id="Bhopal" />
   <path d="m179.8 236.48c0.13397-6.5879 6.6533-11.647 9.8958-16.941 4.5668-7.4511-1.4357-9.1049-3.34-15.721-2.5179-0.31913-4.4484-2.0055-6.9035-1.9821-0.0595-0.28243-0.1333-0.54891-0.1935-0.83124-11.76-2.0581-10.162-25.009-7.4151-32.891-4.2601 0.73403-7.1631 4.492-11.598 4.4543-3.5956-0.0241-6.8225-0.43875-9.748 2.0435-5.664 4.8042-9.8252 5.9991-10.566-2.1358-8.1045-1.1829-18.697 0.45403-26.865 1.2126-1.9459 4.8797-5.8741 8.5113-11.491 8.7906-2e-3 1.6829 0.16648 3.462 0.34166 5.376 2.2498-0.2229 4.212 0.35022 6.3753 0.47723 0.17206 1.8541-0.58824 4.2079 0.34082 5.9319 1.2781 2.3821 3.2906 0.48861 1.4745 3.5589-3.1895 5.4407-9.0571 9.7898-15.469 9.7653-6.5158-0.0208-9.434 1.456-10.416 8.1634-0.80606 5.4812-5.2013 6.4926-4.3377 12.683 1.0495 0.0208 2.0855 0.0709 2.9196-0.0173 3.3177-6.4241 6.9803-9.6964 14.992-8.5687 8.1478 1.1506 9.7421 12.997 14.377 18.283-1.6084 0.45989-3.1696 1.5334-3.897 2.8035-0.23657-0.79896-1.1154-2.1352-1.076-3.3843-2.3985 1.9587-7.3767 0.41662-10.478 0.68432 1.3763 3.3986 3.2451 12.766 7.2368 13.203-0.24273-2.0607 2.5726-8.3534 5.1352-4.6111 3.0011 4.3951 4.0358 2.1324 8.4985 2.9802 12.116 2.2798 20.713-4.8718 32.253-5.5668 0.58049-5.4993 5.1912-11.255 11.183-8.6694 2.2223 0.96535 4.9271 2.8519 7.3742 1.2512 2.0259-1.3532 1.3878-5.2414 4.6862-4.6028 0.32672 3.6641 1.2742 15.739 6.7688 6.8423-0.0491-0.92896-0.0653-1.8146-0.0598-2.5811" fill="#dcc" id="Betul" />
   <path d="m198.77 140.81c-2.2834-4.7032 0.84156-7.3763-5.1704-9.4953-3.7385-1.3215-3.4475-4.9126-3.2036-8.261 0.0136-7.3e-4 0.0311-2e-3 0.0439-0.0173-4.2518-2.2562-10.458-5.5068-13.78 0.25683-2.8704 4.9583-8.3815 2.3925-13.027 4.3488-5.9063 2.4731-9.7165 4.0701-16.416 3.9704-4.7056-0.0541-10.316-0.51108-14.919 0.54144-3.374 0.77781-5.4519 6.2805-8.0603 8.5206-4.9739 4.2574-9.9608 3.6921-16.009 4.5952-6.6875 0.99648-10.515 2.2638-16.364 5.2597-1.5314 0.78643-4.663 0.4698-4.9361 2.6927-0.42075 3.4026 1.7189 6.2203 2.3067 9.4348 7.5442-1.2218 0.71963 8.0156 7.0838 7.9976 0.42422 4.6655 1.8729 7.4442 2.9685 11.774 6.2801 0.6625 11.51-2.9922 13.815-8.7321 8.1676-0.75859 18.76-2.3955 26.865-1.2126 0.72672 8.1503 4.9019 6.9398 10.566 2.1357 3.7569-3.1868 7.755-1.2028 12.028-2.268 5.6035-1.3905 8.6622-4.4658 14.928-4.6437 1.8096-0.0495 7.927 0.36586 9.225-1.445 2.1762-3.0589 0.58221-8.6096 0.2641-12.109-1.0205-11.185 5.0354-11.082 14.422-10.883-1.0384-0.66673-2.0933-1.3627-2.6302-2.4614" fill="#f9d3c6" />
  </g>
 <g fill="none" stroke="#345">
  <path d="m94.396 87.725 4.9388 10.186 8.9517 13.891 4.0128-0.61737 0.61735 2.4694v2.1608l0.61734 3.0868 0.61738 2.4694-0.61738 2.7781 2.7781 3.0868-0.61735 5.2475 4.6302 2.1608-0.30868 1.8521 3.8333 9.7464 2.6736 4.5451 1.3368 3.4757 1.6041 3.743v5.3472l1.6042 7.4861 4.0104 12.833-0.26735 1.6042-1.0694 4.0104-1.6042 6.4166-0.26736 2.4062-0.53472 2.4062 0.53472 5.0798 2.1389 4.2778" stroke-width=".5px"/>
  <path d="m94.396 87.725 2.165-4.3301 8.2993-7.9384 3.9692-1.0825 0.72168-3.2476 3.9692-3.6084 2.5259-2.8867h6.4951l3.2476 1.0825h2.8867l0.36084-2.165 2.5259-2.165 7.2168-5.0518" stroke-width=".5px"/>
  <path d="m94.396 87.725-2.4119-2.2096-1.5348-1.6572-2.1926-1.6572-3.9467-2.4858-2.1926-1.381-2.6311-1.1048h-1.0963l-1.9734-1.381-1.0963-1.381-0.65779-0.55241-1.7541-0.27621-0.87705-2.4858-1.0963-3.5907-0.65778-2.4858-1.3156-1.381-0.43852-3.8669v-2.2096l0.65779-4.4193 3.0697-0.27621-0.87704-1.9334 0.43852-1.9334v-2.4858l1.0963-1.1048-0.21926-1.6572h-0.43852l-1.0963-1.6572-0.87704-0.8286-1.7541-0.27621-1.0963-1.381-1.9734-2.4858-5.9201-8.8386 1.3156-2.4858-1.0963-0.8286-2.8504-0.55241-1.9734-3.0383-0.65779-2.2096-2.1926-0.82862-1.9734-0.5524-1.7541-0.55242" stroke-width=".5px"/>
  <path d="m94.396 87.725 7.6264 2.0355 5.0843-0.50888 4.2369-0.50888h2.9658l3.8132 0.50888 2.1184-0.50888 2.4797-3.5607 2.0648 0.41332 2.753-2.8933h1.7206l1.7206-0.82664 1.7206-1.24 1.3765-3.3066" stroke-width=".5px"/>
  <path d="m128.68 65.714 2.3765 2.3758 1.7284 4.2237 0.64815 1.8479 0.64813 3.1678" stroke-width=".5px"/>
  <path d="m120.33 134.64-1.0846 1.5313-1.0845 2.4063-1.0845 1.0938-1.6268 1.9688-1.0845 1.3125-1.0845 1.5313-1.3556 1.5313-2.7113 2.6251-0.81341 0.21875h-1.0845l-1.6268 1.3125-1.0845 1.5313-1.3557 0.65627-1.8979 1.0938-1.3557 1.3125-1.6268 1.3125-3.2536 1.3125-3.5247 0.87503-2.9825 0.4375-5.9649 1.5313-5.1515 1.75-2.7113-0.21876-4.3381 1.3125-3.5247 1.3125" stroke-width=".49px"/>
  <path d="m94.394 87.744-2.8492-1.1927-3.3672 0.4771-4.9213 1.9083-6.4754 2.3855-3.6262 1.6698-4.9213 1.6698-1.0361 0.23855-2.5902-0.23855" stroke-width=".5px"/>
  <path d="m64.607 94.662-1.9502 7.1644-0.35458 4.0598v1.9105l2.3047 1.6717 2.3048 3.1046 1.4183 2.8657-0.53186 2.3881 0.70915 0.95524v1.9105h1.7729l1.7729 2.8658 2.1275 1.9105 0.53186 3.821 0.53186 2.1493 0.88644 3.5822-3.3685 1.9105-0.70915 2.3881-1.241-1.1941-3.1912-0.23881-2.6593 0.71644-0.88644 1.1941-1.0637 1.9105-4.2549 3.3434 0.88644 3.3434 0.17729 3.5822 1.9502 1.6717 5.1414 10.747" stroke-width=".5px"/>
  <path d="m74.775 161.77v5.3004l1.5706 0.69136h2.0194l2.2437-0.46092 3.8144 2.3045 0.67312 2.0741 2.9168-0.23046 1.3462 1.6132 0.44876 1.8436 1.5706 0.69136 1.1219 1.3827 0.89748 2.0741 0.22438 1.6132h2.0194l2.4681-0.69136 1.1219 1.1523 0.67312 1.8436-0.22438 2.3045-0.67312 1.8436 0.67312 1.8436 2.6925 3.4568 1.795-0.46091h2.2437l2.2437 1.6132 5.1606 3.4568 4.7119 5.07 0.44874 1.8436 0.8975 1.6132 2.2437 1.8436-0.67312 1.3827 2.9169 3.2264 2.4681 0.9218 1.3462-1.1523h3.3656l2.4681-2.0741" stroke-width=".5px"/>
  <path d="m134.08 77.329 7.4294 2.2412 4.5888 0.20376v3.4638l3.4962 4.6863v4.6863l-3.4962 4.6863-2.8406 0.20374h-3.9332l-5.2443 3.26-2.1851 0.81499h-1.9666l-1.5296 1.2225-1.3111 1.0188h-1.5296l-2.6222 1.63-1.3111 0.40749-3.4962 1.0187" stroke-width=".5px"/>
  <path d="m118.13 106.87-9.839 4.9292" stroke-width=".5px"/>
  <path d="m146.1 97.296 3.2011 0.9133 1.7461 0.22833 1.455 1.8266-0.58202 2.5116 2.6191 2.74h6.4022l1.1641 0.91331 2.9101-1.5983 0.58206 6.8499-4.0742 3.4249-4.9472 3.6532-2.9101 0.45666h-4.0742l-3.7832 0.22833h-3.4921l-2.9101-0.22833h-1.1641l-2.0371 1.1416-2.9101 2.7399-1.455 1.37-1.164 1.37-0.58202 1.37-1.7461 0.9133-1.7461 1.8266h-2.9101l-1.4551 1.37-1.9071 3.3267" stroke-width=".5px"/>
  <path d="m72.902 73.639 0.57021 2.6313-0.85531 1.4168-1.5681 2.8337-0.2851 0.80963v1.8217l0.85531 3.0361 1.7106 1.6193 0.14255 2.2265-0.42766 2.8337" stroke-width=".5px"/>
  <path d="m48.351 17.293 7.1699-3.5843 5.5119-0.85535 8.828-2.4031 4.8845-5.295 3.8986-0.89608 3.8987-0.89608h4.8845l7.17-1.7922 3.8987 0.85535-0.85143 1.5885 2.375 3.3399 1.2996 0.40731-0.89625 1.5478-1.2547 2.9734-0.44814 2.3624 0.22406 2.5253 1.2996 2.5661 1.0755 0.97754 1.9269 0.61097 1.9717 2.729 2.7784 1.3849 1.5236 1.9551 1.7476 0.81462 3.2265 1.7514 7.3492 3.9509 1.7477 3.3399 3.0024 1.7514-0.62735 3.1363 0.62735 1.3849 4.7949 3.9509 2.7784 1.9551 2.8231 3.3399 1.7477 3.5436" stroke-width=".5px"/>
 </g>
 <g fill-rule="evenodd">
  <ellipse cx="94.348" cy="86.924" rx="3.3448" ry="3.489" stroke-width=".40133"/>
  <g stroke-width=".40133">
   <ellipse cx="64.835" cy="95.065" rx="3.3448" ry="3.489"/>
   <ellipse cx="139.27" cy="56.685" rx="3.3448" ry="3.489"/>
   <ellipse cx="120.37" cy="134.61" rx="3.3448" ry="3.489"/>
   <ellipse cx="66.87" cy="164.55" rx="3.3448" ry="3.489"/>
   <ellipse cx="133.16" cy="209.33" rx="3.3448" ry="3.489"/>
   <ellipse cx="134.91" cy="79.073" rx="3.3448" ry="3.489"/>
   <ellipse cx="49.134" cy="18.306" rx="3.3448" ry="3.489"/>
  </g>
 </g>
 <g fill="#000000" font-family="sans-serif" font-size="3.5278px" letter-spacing="0px" stroke-width=".26459" word-spacing="0px">
  <text x="126.1841" y="89.831268" style="line-height:1.25" xml:space="preserve"><tspan x="126.1841" y="89.831268" font-size="6.3501px" stroke-width=".26459">Raisen</tspan></text>
  <text x="28.490952" y="28.77306" style="line-height:1.25" xml:space="preserve"><tspan x="28.490952" y="28.77306" font-size="6.3501px" stroke-width=".26459">Rajgarh</tspan></text>
  <text x="112.22794" y="57.557648" style="line-height:1.25" xml:space="preserve"><tspan x="112.22794" y="57.557648" font-size="6.3501px" stroke-width=".26459">Vidisha</tspan></text>
  <text x="79.9543" y="76.456612" style="line-height:1.25" xml:space="preserve"><tspan x="79.9543" y="76.456612" font-size="6.3501px" stroke-width=".26459">Bhopal</tspan></text>
  <text x="126.47484" y="137.22408" style="line-height:1.25" xml:space="preserve"><tspan x="126.47484" y="137.22408" font-size="6.3501px" stroke-width=".26459">Hoshangabad</tspan></text>
  <text x="134.32518" y="202.64359" style="line-height:1.25" xml:space="preserve"><tspan x="134.32518" y="202.64359" font-size="6.3501px" stroke-width=".26459">Betul</tspan></text>
  <text x="58.147797" y="174.73125" style="line-height:1.25" xml:space="preserve"><tspan x="58.147797" y="174.73125" font-size="6.3501px" stroke-width=".26459">Harda</tspan></text>
  <text x="33.724514" y="94.483322" style="line-height:1.25" xml:space="preserve"><tspan x="33.724514" y="94.483322" font-size="6.3501px" stroke-width=".26459">Sehore</tspan></text>
 </g>
</svg>
