<svg width="202.31mm" height="236.03mm" version="1.1" viewBox="0 0 202.31097 236.02627" xmlns="http://www.w3.org/2000/svg" xmlns:cc="http://creativecommons.org/ns#" xmlns:dc="http://purl.org/dc/elements/1.1/" xmlns:rdf="http://www.w3.org/1999/02/22-rdf-syntax-ns#">
 <metadata>
  <rdf:RDF>
   <cc:Work rdf:about="">
    <dc:format>image/svg+xml</dc:format>
    <dc:type rdf:resource="http://purl.org/dc/dcmitype/StillImage"/>
    <dc:title/>
   </cc:Work>
  </rdf:RDF>
 </metadata>
 <g>
  <g transform="translate(-16.398 -14.564)" stroke="#fff" stroke-width=".5">
   <path d="m99.66 219.9c-4.8618 0.53262-9.7802-5.5041-15.014-5.7746-0.87819-3.9509 5.5083-4.6594 4.9964-8.9394-0.85548 0.14107-1.3922-0.34381-2.0369-0.44893 0.5089-1.4694-0.04794-3.15 0.88257-4.5026 1.0591-1.541 2.1208-0.79514 3.5299-1.5529 2.259-1.2084 3.3603-5.4019-0.09025-5.7874-0.0013-0.0222-0.0013-0.0319-0.0028-0.0534-5.5846 0.96592-17.337-6.6041-21.481 0.0996-1.512 2.4517-9.002-0.0102-11.713 1.5115-1.7898 1.0129-2.1651 2.3898-4.5636 1.746-2.4959-0.67068-4.5161-0.59687-7.0881-0.68648-0.05362-0.61701-0.12961-1.2543-0.22691-1.8904-3.7872 2.1328-7.8397-0.1876-9.5862 5.1084-0.08609-0.0197 6.3872 5.4041 6.2715 4.8224 1.1789 5.6235 0.99545 16.555 9.5234 16.258 5.9118-0.21368 14.909-4.9706 19.992 0.75831 3.2377 3.6456 4.0429 12.505 10.513 11.568 2.9287-0.42069 5.717 1.3568 8.5194 0.55803 3.8726-1.1113 5.3711-0.77307 9.1585 0.3536-0.34642-4.3741-1.1832-8.7546-1.5838-13.147" fill="#dcc" id="Barwani" />
   <path d="m132.82 162.71c1.6327-0.14968 4.9388-0.077 5.5691-2.0766 0.94063-2.988-3.3489-4.5481-5.1102-5.8342-3.3782-2.4626-4.7421-6.5376-7.6942-9.4072-1.9865-1.9264-6.9729-3.5673-6.6393-6.9618-2.4959-0.0613-5.0361 0.05-7.48 0.57372-2.075 0.4507-4.1355 1.7877-6.3328 1.5288-0.1588-1.8084 0.18808-3.9319-0.64548-5.6087-2.8812 0.31129-6.4497 2.7532-8.3739 4.8632-1.8732 2.0645-0.38386 5.2779-2.3851 7.5416 8.5347 0.64276 5.476 12.612 13.726 12.703 4.2209 0.046 3.4962 2.2748 0.82778 5.022-2.7588 2.8484-5.2052 5.7658-5.8652 9.84 2.6621-0.42804 3.8172 1.6915 6.1028 2.416 3.0976 0.97045 6.7414-0.2356 9.6714-1.2442 2.0409-0.69475 4.7628-1.2008 6.5521-2.4273 3.0641-2.1056 0.36992-6.1535 2.081-8.8722 1.8115 1.6363 3.8741 1.3572 5.9686 0.87345-0.01-0.98275-0.0172-1.9762 0.0276-2.9297" fill="#e7de69" id="Indore" />
   <path d="m57.468 130.73c3.2409 0.24692 6.7045-0.32999 9.937-0.64903 2.4479-0.24569 2.1368 3.169 4.4812 3.5909 2.0236-1.0251 4.9393 0.74568 6.818 1.4274 2.204 0.79282 4.0196 0.27019 6.0521-0.58438-0.23255-0.57556-0.6027-0.93022-1.187-0.89959-0.70881-3.1581 2.3246-4.4285 2.9907-7.1671 0.72872-2.9664-1.6436-3.7185-3.6239-5.1212-4.3711-3.1158-5.2082-12.177 1.0581-13.553 3.1067-0.68645 15.236 2.2899 13.972-2.923-1.606-6.6592 6.2365-7.6366 11.262-8.7119-0.18341-1.6682 0.0694-3.3487 0.36428-5.042-2.7999-2.0013-3.2785-4.0173-6.2089-4.6439-0.17159-0.02461-0.35338-0.03496-0.50488-0.08025-0.66537-0.09355-1.4241-0.13884-2.3595-0.10069-0.0268-0.10561-0.0453-0.25412-0.0748-0.41288-2.0543 0.64201-4.3502 0.33486-6.2752 1.4083-2.7847 1.5459-4.5799 2.4522-7.8749 2.5929-6.1651 0.25899-11.927 3.735-18.158 4.5745-0.02289 11.35-12.054 12.291-20.432 15.861-0.06227 3.487 1.8796 4.3578-0.92745 7.305 5.2187 1.8104 14.919 5.7904 4.3524 9.0586 3.1635-7e-3 6.8663 0.51651 6.3387 4.0708" fill="#c2f0c2" id="Ratlam" />
   <path d="m75.58 63.294c2.1275-0.46416 3.1938-2.0696 5.3945-0.93461 1.8501 0.95031 4.3155 0.42574 5.5947-1.1802 1.0477 1.6977 4.9829 1.3739 6.5999 1.1289 2.5894-0.39218 5.0312-3.1919 6.4371-5.2318 1.8615-2.6946-0.65385-5.9716 1.2278-8.6886 2.4162-3.493 2.6953-5.4846 3.2603-9.7462-1.9285 1.0094-2.1565-0.90221-1.8791-2.5198-4.9098-0.1807-9.7681-0.59952-14.663-0.90935-4.6067-0.29294-5.5317-5.545-0.485-5.7988 0.11646-2.6564-1.0335-6.9135 3.0365-6.4965 0.08905-2.5695 0.02117-5.2911-0.20921-7.8545-2.9784-0.12186-6.9376-0.86536-9.531 1.0766-2.8085 2.1029-0.65955 5.9123-3.149 8.2122-1.9509 1.8014-5.7771 2.173-8.0455 0.76366-2.4556-1.5278-2.1613-5.2621-5.1806-6.1619-4.0452 7.1691 6.8527 11.439 7.2309 17.842-2.3831 0.66991-3.4024-1.7026-4.8145-3.0392-1.4352-1.3675-3.0491 0.56587-2.8145-2.4814-5.5107-0.87602-2.2943 3.7857-1.4983 6.576 0.67808 2.369-2.3172 2.7396-3.7286 3.861-1.9632 1.567-0.74281 5.1365-0.55954 7.2107 2.1202 0.0074 4.9913 0.72158 5.8266 2.6335-2.1466 1.117-1.3197 3.072-1.2309 4.9696 0.14746 2.8135-2.4353 4.1458-3.7293 6.2867 3.1372 0.10291 6.3596-0.20507 9.4975-0.09182 0.15702 1.7764 0.26707 3.2669 0.53593 4.7382 0.56506-5.8859 2.4419-3.2059 6.8764-4.1648" fill="#fcc" id="Neemuch" />
   <path d="m109.23 96.136c6.9103-1.4843 7.8911 8.4884 14.308 8.9751 2.8878 0.22255 5.8229-0.48683 8.6935-0.18858 2.549 0.26185 3.3669 3.0616 4.4684 4.9701-1e-3 -0.032-2e-3 -0.064-5e-3 -0.0854l0.10906 0.25079c0.71338 1.2129 1.3982 2.4915 1.6867 3.7268 1.6046 2.3632 2.7093 5.1478-0.15634 6.9758-1.8759 1.1991-3.1431 2.4303-1.44 4.4356 5.493-1.9016 21.7-1.8212 19.712 7.8156 2.5953 2.9738 3.1431-5.0698 7.6376-4.2795 1.5457 4.6958 3.7357-0.47359 6.0762-0.53216 2.713-0.0672 1.95 4.8884 3.9058 6.0258 6.1095 3.5592 3.3238-14.227 6.8726-14.606 0.26291-1.4886 1.2795-2.6212 2.4062-3.2788 0.0928-2.0888-0.71202-5.6587 1.2137-6.7215-0.26167-0.11448-0.53394-0.22822-0.80623-0.34247-1.8676 0.95282-0.61129 2.7679-3.3376 2.5793-3.7098-0.25443-6.5642-1.4621-10.528-1.0726-3.8893 0.3855-5.0041-1.7789-8.3747-2.671-2.4305-0.64203-5.8263 1.6412-8.5152 1.5577-0.17873-1.989-0.21124-4.0284-0.89653-5.9268-0.94647-2.6113-3.3787-3.4885-4.4856-5.7067-1.2372-2.4678 1.906-9.3654-2.2287-9.8004-2.132-0.23018-2.3628-2.6012-2.3733-4.2251-3e-3 -3.1202-1.3685-4.5663-3.601-6.5117-2.176-1.8844-1.9646-3.5412-0.76286-6.0194 1.4718-3.0158 1.4613-4.8428 0.60766-8.1216-1.9156-0.3698-3.826-0.44068-5.8239 0.26248 0.11448 3.4031-1.5039 7.4847-3.4041 10.256-1.4846 2.1617-4.1835 1.8864-6.4022 2.847 0.23363 2.2213 1.9098 3.715 1.6032 6.1998-1.7624-0.08937-3.2502 0.58708-3.6966 2.2348-3.4252 0.29708-7.3884-0.92727-10.508-0.0906-0.91485 2.0571-0.12949 4.6449-0.95144 6.4406-0.23141-0.1482-0.44114-0.28678-0.64073-0.43664-0.28301 1.714-0.54646 3.395-0.36317 5.0632" fill="#a3b0a3" id="Shajapur" />
   <path d="m87.725 134.25c3.9309 4.0686-2.0214 12.449 6.0105 13.054 1.8704-2.1178 0.78247-4.3797 1.8019-6.6774 1.152-2.6145 6.2454-5.4356 8.9577-5.7166 0.83356 1.6769 0.47561 3.7901 0.64548 5.6087 2.1974 0.25887 4.2473-1.0776 6.3328-1.5288 2.444-0.52346 4.9841-0.63518 7.48-0.57366 5e-3 -0.0965 0.0122-0.18243 0.0278-0.2793 1.6657-0.73921 4.3116-0.0549 5.5132-1.721 1.3308-1.8438 0.39392-5.4923 0.2196-7.5992-0.23462-2.8516-2.0452-11.381 3.262-10.526 0.58223 6.4349-0.17529 13.528 5.46 17.593 0.15337-4.5927-1.3671-9.012 3.4674-10.676-1.703-2.0053-0.4365-3.2472 1.44-4.4356 2.8656-1.828 1.761-4.6129 0.15632-6.9758-0.27781-1.2358-0.97332-2.5138-1.6867-3.7268l1.3401 3.2106c-0.72795-1.084-1.3714-2.183-1.434-3.3768-2.5276-4.3238-3.3187-4.9878-8.3296-4.864-6.1063 0.15978-8.4517-0.48676-12.102-5.4999-4.0299-5.5489-7.7048-2.2893-12.935-1.4808-4.1422 0.64454-6.466 2.2411-5.3642 6.8 1.1007 4.5375-6.1105 2.7248-8.8077 2.6845-4.4356-0.0776-9.0098 0.24776-9.7107 5.5745-0.68077 5.3042 3.1453 7.1661 6.3131 10.089 3.4139 3.1446-2.9939 6.9002-2.2131 10.418 0.58428-0.0305 0.9544 0.32401 1.187 0.89962 1.3951-0.61815 1.673-1.6159 2.9686-0.27312" fill="#abacda" id="Ujjain" />
   <path d="m131.37 233.56c0.0913-2.1208 0.5309-4.5055-0.77067-6.3717-0.73745-1.0621-2.271-2.8839-1.4082-4.3078 1.2062-1.9868 5.0572-0.0512 6.5447-2.5658 1.9773-3.331 1.9557-7.6046 0.0571-10.904-1.0432-1.8155-3.7229-6.1956 0.11104-6.6208-0.38061-2.7906 3.4747-4.4354 4.2756-6.8392 1.3539-4.0464-4.3052-2.4673-6.2129-3.0941-0.34476-3.733 1.126-7.3793-3.7391-6.3015-1.0582-3.7276 7.741-6.369 9.9636-7.8638-2.1537-2.2703-0.44087-4.9568-1.7558-7.2818-0.83357-1.4738-3.9647-2.8807-5.4765-3.4747-0.0822-0.75446-0.11227-1.533-0.14181-2.3009-2.0951 0.47314-4.1577 0.75225-5.9686-0.87343-1.5842 2.4983 0.45929 5.5117-1.211 7.9931-1.3448 1.9834-5.2766 2.5742-7.412 3.2953-2.5951 0.89476-5.4573 1.7715-8.24 1.5219-2.8789-0.25521-4.5444-3.1709-7.5447-2.6931-0.49395 3.5846 2.1248 9.2395-0.0662 12.357-1.7351 2.4634-7.6989 5.1377-10.444 5.6129 0.0013 0.0222 0.0013 0.0319 0.0028 0.0534 2.8824 0.31914 2.6205 3.4533 1.0123 5.0873-1.0317 1.0479-2.0912 0.75083-3.3118 1.2422-2.2645 0.89881-1.4109 3.7716-2.0221 5.524 0.64468 0.10533 1.192 0.58941 2.0369 0.44896 0.50075 4.2699-5.8746 4.9886-4.9964 8.9394 5.234 0.27076 10.152 6.3074 15.014 5.7749 0.40065 4.3925 1.2374 8.773 1.595 13.157 4.9125 1.4524 11.946-1.342 17.115-1.506 1.7439-0.0594 4.5262-0.8357 5.6823 0.89909 1.481 2.2414 2.894 1.7612 5.3837 2.5178 0.50213-0.58203 1.1374-1.0641 1.928-1.4262" fill="#e2b584" id="Khargone" />
   <path d="m51.303 195.45c3.8893 0.42666 4.0525 0.89902 7.4258-0.99832 3.3526-1.8856 7.7703 0.49046 11.075-0.89028 0.92762-0.39064 0.82705-1.6998 1.6982-2.1516 1.7736-0.91584 4.0181-0.77698 5.9391-0.70671 4.0868 0.1278 7.3141 0.72813 11.211 1.9132 4.5575 1.3855 14.88-3.2805 14.374-8.8858-0.32578-3.5737-1.2828-7.1996-0.16815-10.731 1.2247-3.8686 3.9312-6.0944 6.4396-9.047 4.6535-5.523-5.5829-2.86-7.3847-7.1578-1.4004-3.3462-1.7268-5.9154-4.945-8.1725-3.6941-2.5956-7.2592-0.0899-7.8621-5.9039-0.21628-2.094 0.26374-6.7572-1.3806-8.4557-1.4978-1.5459-4.2204 1.183-6.2843 1.2377-2.9255 0.0785-6.8062-3.234-9.5554-1.8289-2.8327 1.4416 0.55151 6.255 0.39875 8.4217-5.6038 1.4158-4.85 11.123-6.3946 14.784-3.6562 0.36262-5.7712-0.96924-6.3598 3.6569-0.26401 2.0764 0.07528 3.8753 0.24681 5.9288 0.21847 2.7458-2.5414 3.7453-2.7256 6.3305-0.2002 0.0423-0.38915 0.095-0.58933 0.13787 0.18383 2.085-2.0041 2.2103-3.4233 2.7763-2.5776 1.0221-1.4036 3.504-1.9159 5.5186-0.62133 2.3729-3.8849 2.2982-4.8005 4.3445-1.2101 2.7243 0.51176 7.1225 0.766 9.9412 1.3554 0.0468 2.8437-0.21319 4.2153-0.0608" fill="#f99" id="Dhar" />
   <path d="m133.42 135.87c-5.6353-4.0648-4.8778-11.158-5.46-17.593-4.9635-0.79782-3.6554 6.6784-3.3598 9.4734 0.25316 2.3912 0.79534 5.2163 0.31212 7.5819-0.57606 2.8302-3.9583 1.9173-5.9359 2.8012-0.55092 3.1067 3.132 4.4738 5.0952 5.9526 3.4715 2.618 4.7781 6.8136 7.9101 9.663 2.0027 1.8293 5.9339 2.8524 6.4532 5.8495 0.51367 2.8905-3.7872 2.9449-5.6104 3.1153-0.0689 1.7349-0.0293 3.5068 0.14624 5.2288 1.9687 0.77314 5.7074 2.3939 5.8249 4.8349 0.19718 3.9652 0.72757 7.1755 5.4674 7.365 6.9495 0.27699 12.547-7.155 18.261-1.3844 1.8674 1.8898 3.6626 4.4354 5.7518 1.4084 2.1187-3.0712 3.992-6.557 7.1843-8.6588 1.3901-0.9171 3.0441-1.8801 4.5754-2.5375 1.9481-0.83946 4.0794 0.19227 5.8995-0.65115 2.5375-1.1803 1.8365-5.2045 5.2387-5.1262 0.19301-2.0085-0.99618-3.5599-1.9231-5.1892-1.6147-0.11847-3.4565-0.70582-4.9102-1.4098-0.86942-0.32847-1.0962-4.4524-1.2566-5.2773-0.71495-3.6816-2.4236-4.9812-6.1324-4.8084-4.5161 0.21518-7.6826 2.401-11.872 3.5717-4.0841 1.1438-6.1006-1.5611-9.8299-1.9855-0.53979-5.625 0.24993-9.6632 1.3719-15.087 0.6359-3.1111-2.3821-7.0351-5.3835-8-4.1168-1.3124-9.6147-1.1312-13.764-7e-3 -5.3148 1.4434-3.911 6.6812-4.0538 10.867" fill="#c2f0c2" id="Dewas" />
   <path d="m91.592 88.898c3.1155-1.5311 5.5713-2.0339 8.8518-3.0606-0.30739-2.2067-1.4922-12.414 3.4174-10 2.9851 1.468 4.473 2.0098 7.8843 1.2433 3.5478-0.80577 5.4238-3.02 8.5679-4.2108-0.49415-2.1115-3.9026-1.4947-4.7507-4.2608-0.71781-2.3135 0.84344-4.6395 0.93581-6.9421 0.17085-3.8561-2.5148-2.0483-3.0124-4.2236-0.51374-2.2814 0.47448-5.9881 2.9806-6.7498 5.9529 5.8542 6.0002-3.606 5.608-7.0265-1.6802 0.05589-3.4856-0.04161-5.0831-0.64199-0.29057-3.1052-0.14058-6.3404-0.41994-9.4358-5.5393-0.20138-7.9456 2.6714-12.487 5.0467-0.4324 3.3354-0.13958 6.0775-2.4601 8.7531-2.7029 3.1018 0.0812 6.6321-2.028 9.6814-1.2475 1.8073-3.3767 4.2699-5.5211 5.0235-1.6847 0.57985-6.3869 0.9011-7.5051-0.92115-2.749 3.4462-6.1242-0.38435-9.2504 1.3504-4.4413 2.4556-7.9682-1.8266-8.6071 4.8861 0.78478 4.4046 4.6404 7.6437 1.2518 11.893-3.7884 4.751-1.8132 9.5101-1.818 15.11 3.829-0.52125 7.706-1.3443 11.281-2.8462 3.9085-1.6475 8.4559-0.85996 12.164-2.668" fill="#e2b584" id="Mandsaur" />
   <path d="m189.59 214.36c0.2987-2.2279 2.1316-2.6232 2.8223-4.6897 0.7818-2.36 0.23856-5.4093 2.862-6.7757-0.99238-1.2517-2.4769-2.1358-4.5634-2.518-0.64945-4.4649-11.392 0.53291-13.162-4.3864-1.3714-3.8073-0.77506-8.0812-0.16865-11.96 0.67959-4.3103-2.3727-4.4174-5.766-4.5282-0.19055-2.0098-4e-3 -2.7568-0.7535-3.6047-0.90309 1.2656-3.009 6.0034-5.0784 5.5454-2.4249-0.53546-4.6976-4.2635-7.0526-5.4974-2.1246-1.1069-5.7222 1.9991-7.6408 2.7943-2.908 1.2211-8.5276 2.3385-11.031-0.30888-2.212 1.4945-11.011 4.1358-9.9636 7.8638 4.865-1.0778 3.3945 2.5685 3.7391 6.3015 1.8647 0.61832 6.1164-0.98313 6.3488 2.029 0.25756 3.2886-4.8721 4.6047-4.412 7.8936-3.8339 0.42533-1.1649 4.8059-0.11103 6.6208 1.56 2.6948-2.5461 8.3121-3.5698 11.263 10.834 2.378 21.577 3.0052 32.313 3.4782 2.4752-0.3328 5.0686-1.3596 4.7197-3.9489 4.1532-0.43142 6.3529-2.7696 10.167-3.7815 1.8178-0.47996 7.044-1.5767 6.9086 1.7326 0.71571-0.77487 2.1197-0.81638 3.474-0.7912-0.13247-0.90142-0.19277-1.8494-0.0792-2.7317m-57.461 6.1562c-1.4874 2.5146-1.8658 0.10563-3.072 2.0923-0.86281 1.4238 0.66013 3.2463 1.4082 4.3078 1.301 1.8554 0.86193 4.251 0.77067 6.3716-0.79064 0.36208-1.4258 0.84419-1.9403 1.3948 3.5503 1.075 4.8209 10.071 3.7584 13.172-0.20015 0.0423-0.39979 0.0957-0.59996 0.1383 0.26258 3.5877 7.4258 2.0474 9.5359 1.862 1.8871-0.17381 3.7882 0.32514 5.6713 0.0767 2.4971-0.32322 1.1464-3.3302 1.0978-4.8667 2.089-0.18416 4.3059 0.44762 6.3478-0.22575 1.7278-0.57148 2.5107-2.7071 4.5151-2.6731 0.68286-2.825-0.62325-3.5582-3.1343-4.1104 1.2174-2.1797 2.5215-5.1441 5.3837-5.2087 0.15215-1.7713 1.3314-2.0361 2.6928-2.6844 1.8115-0.86773 1.6878-4.2434 1.4313-6.043-11.397-1e-3 -22.715-0.87763-33.866-3.6035z" fill="#a3b0a3" id="Khandwa and Burhanpur"  />
   <path d="m70.986 134.07c0.20744-0.31015 0.46298-0.51589 0.7532-0.67002-1.9575-0.35693-1.9831-2.8777-3.4346-3.539-2.7285-1.2463-7.9566 0.83379-10.984 0.59698 0.52746-3.5543-3.1756-4.0868-6.3392-4.0814-3.5114 1.0924-7.6166 1.8312-9.3781 5.0119-1.8608-0.54365-4.7889-1.7367-5.6008 0.45387-0.58987-0.0758-1.2474 0.18317-1.886 0.60115-0.14722 2.8824-0.95987 7.0927 1.2827 9.4333 2.1866 2.2899 7.0243-0.52842 7.466 3.4238 0.45043 4.123-4.1705 10.234-6.7826 13.245l2.6052 1.7091c0.04943 4.6754 1.2264 7.9402 7.2592 5.1292 4.3687 2.7928 6.4896-0.1351 7.0406-1.664 1.6325-1.9302 4.09-0.62576 6.1715-0.796-0.01945-7.174 2.617-6.0272 6.573-6.3291 1.5445-3.6611 0.78074-13.357 6.3946-14.784 0.15946-2.0388-2.3055-5.9812-1.1408-7.7414" fill="#e7de69" id="Jhabua"  />
   <path d="m38.779 160.42c-0.688 0.34072-1.8113-1.6063-3.1818-2.0322-1.9163-0.5956-4.2552 0.19499-6.0267 0.37007-0.61516 1.881-1.4512 3.8164-2.957 5.1671-2.666 2.3839-5.6092 0.49702-8.6516 1.1908-1.3296 8.9825 13.314 1.1938 12.647 10.612-3.6259 0.32898-8.0497-0.74294-11.258 1.4557-3.7844 2.5921-3.2017 3.3418-0.66181 6.4787 1.1501 1.4145 4.5929 6.9408 2.4809 8.1095-3.2817 1.8178 0.12701 8.5214 1.9061 10.149 2.6798 0.52215 7.4721 3.5412 9.6785 0.51868 1.1329-1.5555 1.7749-4.5494 4.3514-3.9684 1.7465-5.296 5.799-2.9754 9.5862-5.1084-0.32248-2.2914-1.5395-5.797-0.53911-8.0509 0.91487-2.057 4.1786-1.9823 4.8005-4.3445 0.42392-1.668-0.59078-3.7522 1.0671-5.0467 1.4018-1.0994 4.4999-0.72741 4.2719-3.2482 0.20018-0.0423 0.38915-0.095 0.58933-0.13757 0.13711-2.059 4.3379-4.7729 1.6927-9.242-2.0679-0.89003-4.0981-1.589-5.6274 0.25816-2.0543 1.076-0.98469 5.1995-7.5787 1.8469-3.6434 1.0664-7.2382 2.0414-6.5895-4.977z" fill="#abacda" id="a" />
  </g>
  <g fill="none" stroke="#345" >
   <path d="m185.27 108.68-0.75128 0.75128-1.6278-0.62607-0.12521-0.87649-1.5026 0.12522-4.6329 1.5026-3.6312 1.3774-1.6278 1.1269-3.6312 0.87649-1.5026 1.0017-1.3774-0.37563-2.7547 1.3774-3.3808 0.75128-1.5026 1.5026-1.3773 0.8765-2.5043 2.0034-2.3791 0.87649-2.2538 1.2521h-1.6278l-2.5043 1.0017h-1.5026l-0.75129 0.25042-1.1269 0.62607-1.3774-0.12521-3.506 1.6278-1.753-0.50085-0.37564 0.50085h-0.87649l-2.6295 1.1269-3.0051-0.62608-1.1269-0.50085-3.8816-0.37564h-1.2521l-1.0017 0.75128h-1.6278l-1.753-0.37564-1.1269 0.50085-3.7564 0.25043-2.1286-0.25043-2.7547-1.753-1.3774-1.1269-3.6312-2.8799-0.62606-0.75127-4.8833-4.132-1.6278-2.3791-0.25042-0.8765-0.50086-1.6278-0.37564-0.37564h-1.3774l-0.37563-0.87649-1.5026-0.62607-2.3791-1.1269-1.5026-1.0017-0.87649-1.0017h-0.50086l-1.753-0.87649-0.37564-0.25043h-1.753l-1.1269-0.87649-1.0017-2.379-0.75128-1.8782-0.62607-0.37564-0.87649-0.25043-0.87649-1.1269-0.50086-1.0017h-2.7547l-1.1269-0.25043-1.6278-1.1269-2.5043 0.12521-0.25043-1.2521-1.3774-1.2521-0.37564-1.6278h-0.62607l-1.0017-0.8765-1.3774-0.37563-1.6278-1.5026h-0.75129l-0.37564-0.87649 0.25043-2.2538-1.1269-0.25042-1.1269-5.259-0.12522-3.2556-0.12521-4.3825v-3.7564l-0.12521-1.6278-0.50086-2.3791-0.62606-1.2521 0.25042-2.6295-0.87649-0.8765" stroke-width=".5px"/>
   <path d="m94.36 110.56-4.9014 3.0342-2.334-0.2334-1.8672 1.4004-5.1348-0.2334-6.3017 4.9014-3.7344 1.4004-2.334 1.167-3.501-2.334-2.1006 1.4004h-2.1006l-1.8672 0.93359-1.8672-1.8672h-6.5351l-0.2334 1.8672-1.6338 2.5674h-1.167l-1.8672 0.4668-0.7002 1.8672h-2.5674l-2.334 1.8672-2.8008 0.46679-0.2334 2.1006-3.0342 3.9678" stroke-width=".5px"/>
   <path d="m150.92 121.01-0.42246 3.3247v5.4203l0.62363 3.1232 1.2473 1.2493 0.62363 3.3247-0.82481 0.62465v1.0478l-0.62364 2.9016v1.0478l-2.0721 3.1232-1.2473 3.5262 0.40235 1.471 0.42247 4.574 0.42246 3.5464-1.2473 0.20151-2.0922-0.20151-1.8709 1.4508-3.943 0.42315-0.42246 1.4508h-0.82481l-0.82481 0.82615-1.4686 0.62465-0.62364 1.2493-1.6496 0.62465-1.6697 1.8739 3.7418 4.7957 1.0461 2.0754 0.20118 2.9217v2.4986l-1.8709 2.7001-0.62363 3.3247-3.1182 2.7202-1.8709 2.7001" stroke-width=".5px"/>
   <path d="m103.06 134.19-1.1959 1.7939-0.59797 0.89695-1.1959 2.0929-0.89696 1.1959h-3.5878l-1.7939 2.3919-2.0929-0.29898h-0.89695l-1.4949 1.4949 1.4949 5.6807-0.89694 2.3919-3.8868 3.2888-2.9898 0.89693-1.7939 3.2888-1.7939 2.0929v2.0929l-1.4949 3.2888-0.89695 1.7939v2.0929l-0.89695 2.6908 0.29898 1.4949 2.9898-0.29898 2.9898 0.89695 4.4847 0.29898 1.7939 4.7837-0.59796 2.6908-0.59797 1.4949 0.29898 1.7939-0.29898 1.1959-1.4949 2.9898v3.5878l1.4949 2.6908" stroke-width=".5px"/>
   <path d="m74.266 177.7-5.2888-0.65706-0.56666 0.65706-2.2666 0.43804-1.7-0.43804-2.4555 1.3141-6.7999 0.87607-4.911 0.43804" stroke-width=".5px"/>
   <path d="m110.05 126.05-1.1639 1.0184h-1.0184l-1.6003 1.3094v0.58194l-0.8729 1.0184v2.1823l-1.3094 1.0184-1.0184 1.0184" stroke-width=".5px"/>
   <path d="m76.453 174.86-2.1866 2.8426" stroke-width=".5px"/>
   <path d="m54.275 98.86 0.77673 1.7088 0.93207 0.77673 0.31069 0.93207 0.93207 1.5535 1.2428 1.8642 1.3981 0.31069-0.15535 0.93208 0.62138 1.7088 1.3981 1.3981 2.0195 2.0195 0.62138 0.93207v2.4855l2.6409 3.8836 0.46604 1.0874 0.31069 1.5535" stroke-width=".5px"/>
   <path d="m54.263 98.854-0.52502 3.5565v5.1475l-1.275 0.31198-1.3 2.2774h-2.8501l-0.50002 0.96711-1.55 2.2462-1.3 0.65513-0.52502 1.5911-0.77502 2.5893-1.8001 1.6222-1.55 2.9013 1.3 4.1804" stroke-width=".5px"/>
   <path d="m33.199 135.31-0.47514 1.663-2.3757 2.1381-0.47514 2.1381v3.0884l-0.23757 0.71271 0.47514 1.9006 2.1381 3.0884-0.23757 1.9006-0.47513 2.3757-3.5635-0.23757h-0.95027l-2.1381 0.47514-1.4254 0.95027-1.1878 1.663-0.47514 1.663-0.7127 2.3757" stroke-width=".5px"/>
   <path d="m182.77 107.93-5.3363-3.6944-3.8996-1.0262-2.0524-0.82097-0.82098-0.82098-1.0262-0.41048-1.642-0.41049 0.20525 1.642-1.8472 2.0524v2.2577l-1.8472-0.41049-1.4367-0.61573h-1.0262l-2.2577 0.20524-0.4105-0.61573-4.5154-0.20525-5.7468 0.82098-0.41049-2.6682-0.20524-1.0262-0.82098-0.61573-0.61572-0.20525-2.8734 0.82098-2.4629 0.61573 0.61574 2.6682-1.4367 1.8472-1.0262 0.41048h-1.4367l-1.2315 0.82098-3.2839 0.61573-3.4891-1.642-2.8734 0.41049-0.61574-4.5154-1.2315-2.8734-1.2315-0.41048" stroke-width=".5px"/>
   <path d="m124.48 100.13-4.5273 3.166-2.2636 1.9788-1.6977 1.9788-0.5659 1.7809v2.1767l0.28295 1.9788v2.3745l-0.84887 2.5724-1.1318 2.3745-1.6977 3.5618-1.9807 1.9788" stroke-width=".5px"/>
   <path d="m118.17 104.64-1.3735-0.21903-1.5261 1.9712-2.4418 0.43803h-1.0683l-1.6787-0.21902-0.91566-0.21901-1.9839-0.21904-1.2209 0.8761-2.4418 1.7522-2.1366 0.65707-2.4418 0.87608-1.0683 0.21903h-3.51" stroke-width=".5px"/>
   <path d="m124.48 100.13-1.0293-1.3937-0.25731-1.3937 0.25731-0.76019-0.77195-0.63349-1.2866-2.0272-1.158-2.9141-0.77196-2.6607-0.25732-1.6471v-1.9005l-1.4153-0.50679h-0.64331l-1.2866-0.1267-0.90062-0.1267h-0.90062l-1.6726-0.88689h-0.90062l-0.6433-0.63349v-0.5068l-0.64331-0.2534h-0.77196l-0.64331-0.63349-0.77196-0.5068-1.2866-0.1267h-0.51464l-0.6433 0.2534-0.77197-0.2534-4.5031-0.1267-1.4153-1.3937-1.1579-0.88689 0.12866-1.267-0.12866-0.63349 0.25732-1.1403-0.90062-0.63349-0.90063-0.50679-1.0293 0.1267-0.77196-0.1267-1.1579-1.3937-1.0293-0.76019-0.77196-1.0136-1.5439-1.267-1.9299-0.76019-1.4153-1.0136-1.5439 0.5068h-0.90062l-1.5439-0.3801-2.3159-0.63349-0.6433 0.38009-0.77196-0.2534-2.1872-0.50679-0.77196-0.76019-1.5439-0.1267-1.1579-0.2534-0.77197-0.2534-0.12866-1.1403-0.38598-0.63349-2.0586-0.3801h-2.1872l-2.3159-0.76019-1.6726 0.1267-1.9299-0.76019-1.6726-0.63349-1.6726-0.1267-1.5439-0.63349" stroke-width=".49px"/>
   <path d="m47.232 36.992 0.56688 1.845 0.75584 1.6144 1.3227 1.845 3.0234 5.9962-0.18896 2.5369 0.75584 3.2287 1.1338 2.7675 1.3227 2.7675" stroke-width=".5px"/>
   <path d="m58.424 81.368-1.5581 1.8213-0.38953 0.97135-0.77906 1.3356-0.25969 1.457-0.12984 0.48567v1.5784l-0.38953 1.2142-0.25969 1.2142v0.72851l-0.38953 0.36426 0.12984 1.0928 0.51938 1.2142-0.25969 0.84993-0.25969 1.0928-0.12984 0.60709v1.457" stroke-width=".5px"/>
   <path d="m104.08 133.19-2.692 0.9789-2.4473 0.9789-5.8734 0.9789-1.4683-0.24472-2.2025-0.97891-3.1814 0.73417-2.4472 0.97891h-3.4261l-2.692 1.4683-1.4683 0.9789-2.2025 0.48945-2.2025 0.24472h-1.4683l-0.97891 0.97889" stroke-width=".5px"/>
   <path d="m69.325 140.78-2.798 0.91027h-6.7468l-1.1733-0.91027-1.8728-0.29364-1.6246-0.76345-1.399-0.60196-1.8728-0.30831-1.8503-0.14682-1.6472-0.91027-2.0985-0.91027-1.1508-0.91028h-1.399l-1.6246 0.14682-2.798-0.76345-1.399-0.29364-1.6472-0.1615-3.0236 0.30832" stroke-width=".5px"/>
   <path d="m21.083 161.2 4.0548 1.0066 0.20274 1.5099 1.0137 0.25165 6.4876-0.50331 5.6767 4.7814h4.2575l0.20274 1.5099 1.6219 3.2714v2.0132l3.4465 1.2582 1.8246 2.0132 0.40548 2.0132" stroke-width=".5px"/>
   <path d="m129.7 197.64h-4.8048l-2.6246-0.4445-2.6246-4.8048-2.8363 0.65616-5.0376 0.65615-2.8363 1.524-0.86782-0.65616-3.2808 1.3123-1.9685 1.1007-0.65616 0.65616-1.9685-1.3123h-3.4925l-3.937 0.86782-1.3123 0.4445-1.9685-0.4445-1.9685-0.21166" stroke-width=".5px"/>
   <path d="m130.34 191.58l0.66691 2.2128-1.3101 3.8449" stroke-width=".5px"/>
   <path d="m70.597 183.38 1.0032 0.87776h1.7555l-0.25079 1.1286 1.1285 0.75236-0.25079 1.0032 2.6333 0.25079v1.2539l1.2539 0.87776 4.138 0.87776 2.1317 2.5079 1.8809 1.3793" stroke-width=".5px"/>
   <path d="m70.597 183.38 0.88572-1.894 1.7715-0.8609v-1.5496l1.0123-1.3774" stroke-width=".5px"/>
   <path d="m129.7 197.64-1.5047 3.8872-2.6333 1.3793-0.87775 0.62697 0.50157 1.5047 1.5047 1.5047 1.8809 3.8872-0.75237 1.8809v2.0063l-0.25078 1.0032v1.0032l-0.50158 1.7555-0.87776 1.0032-0.37619 1.1286v0.87776l-0.12539 1.7555-0.50158 1.3793-1.3793 2.7587-1.0032 1.6301" stroke-width=".5px"/>
   <path d="m87.516 196.98-0.12598 2.725 1.3857 1.6869 0.62988 0.90833 1.0078 1.8166v1.1678h2.0156l1.3857 1.5571 0.62988 1.0381v0.6488l1.6377 0.51904 0.37793 0.90833 0.37793 0.12975 0.75586-0.51904 0.37793 0.12976 0.62988-0.25952h1.2598l2.0156 0.38928 1.1338 0.77857 1.3857 1.9464v2.2059l0.37794 1.5571 0.88183 1.9464 0.37793 1.2976 0.37793 0.51904 1.1338 0.90833 1.0078-0.12977 2.0156-0.12975h2.2676l2.8975 0.6488 1.2598-1.2976 1.8896-1.6869 2.5195 1.5571 1.1338-0.12976h1.6377l1.6377 0.38928" stroke-width=".5px"/>
  </g>
 </g>
 <g fill-rule="evenodd" stroke-width=".25802">
  <ellipse cx="186.72" cy="108.37" rx="3.2763" ry="3.4511"/>
  <ellipse cx="47.702" cy="36.476" rx="3.2763" ry="3.4511"/>
  <ellipse cx="56.042" cy="59.196" rx="3.2763" ry="3.4511"/>
  <ellipse cx="54.317" cy="99.458" rx="3.2763" ry="3.4511"/>
  <ellipse cx="124.78" cy="100.03" rx="3.2763" ry="3.4511"/>
  <ellipse cx="123.05" cy="228.59" rx="3.2763" ry="3.4511"/>
  <ellipse cx="87.389" cy="196.66" rx="3.2763" ry="3.4511"/>
  <ellipse cx="50.578" cy="180.27" rx="3.2763" ry="3.4511"/>
  <ellipse cx="21.244" cy="161.58" rx="3.2763" ry="3.4511"/>
  <ellipse cx="33.61" cy="134.83" rx="3.2763" ry="3.4511"/>
  <ellipse cx="69.559" cy="140.58" rx="3.2763" ry="3.4511"/>
  <ellipse cx="103.78" cy="133.11" rx="3.2763" ry="3.4511"/>
  <ellipse cx="110.4" cy="126.2" rx="3.2763" ry="3.4511"/>
  <ellipse cx="94.291" cy="110.67" rx="3.2763" ry="3.4511"/>
  <ellipse cx="131.39" cy="192.92" rx="3.2763" ry="3.4511"/>
 </g>
 <g fill="#000000" font-family="sans-serif" font-size="3.5278px" letter-spacing="0px" stroke-width=".26458" word-spacing="0px">
  <text x="178.35829" y="119.30208" style="line-height:1.25" xml:space="preserve"><tspan x="178.35829" y="119.30208" font-size="6.35px" stroke-width=".26458">Bhopal</tspan></text>
  <text x="82.212669" y="230.02396" style="line-height:1.25" xml:space="preserve"><tspan x="82.212669" y="230.02396" font-size="6.35px" stroke-width=".26458">Burhanpur</tspan></text>
  <text x="136.85463" y="195.80083" style="line-height:1.25" xml:space="preserve"><tspan x="136.85463" y="195.80083" font-size="6.35px" stroke-width=".26458">Khandwa</tspan></text>
  <text x="86.814095" y="192.06216" style="line-height:1.25" xml:space="preserve"><tspan x="86.814095" y="192.06216" font-size="6.35px" stroke-width=".26458">Khargone</tspan></text>
  <text x="40.799805" y="188.89868" style="line-height:1.25" xml:space="preserve"><tspan x="40.799805" y="188.89868" font-size="6.35px" stroke-width=".26458">Barwani</tspan></text>
  <text x="61.506237" y="150.9369" style="line-height:1.25" xml:space="preserve"><tspan x="61.506237" y="150.9369" font-size="6.35px" stroke-width=".26458">Dhar</tspan></text>
  <text x="101.76874" y="143.17198" style="line-height:1.25" xml:space="preserve"><tspan x="101.76874" y="143.17198" font-size="6.35px" stroke-width=".26458">Indore</tspan></text>
  <text x="113.27232" y="133.68153" style="line-height:1.25" xml:space="preserve"><tspan x="113.27232" y="133.68153" font-size="6.35px" stroke-width=".26458">Dewas</tspan></text>
  <text x="47.989536" y="31.587337" style="line-height:1.25" xml:space="preserve"><tspan x="47.989536" y="31.587337" font-size="6.35px" stroke-width=".26458">Neemuch</tspan></text>
  <text x="60.643467" y="57.182785" style="line-height:1.25" xml:space="preserve"><tspan x="60.643467" y="57.182785" font-size="6.35px" stroke-width=".26458">Mandsaur</tspan></text>
  <text x="86.814102" y="102.9095" style="line-height:1.25" xml:space="preserve"><tspan x="86.814102" y="102.9095" font-size="6.35px" stroke-width=".26458">Ujjain</tspan></text>
  <text x="124.20071" y="91.405914" style="line-height:1.25" xml:space="preserve"><tspan x="124.20071" y="91.405914" font-size="6.35px" stroke-width=".26458">Shajapur</tspan></text>
  <text x="3.9883759" y="169.91779" style="line-height:1.25" xml:space="preserve"><tspan x="3.9883759" y="169.91779" font-size="6.35px" stroke-width=".26458">Alirajpur</tspan></text>
  <text x="3.7007871" y="135.69466" style="line-height:1.25" xml:space="preserve"><tspan x="3.7007871" y="135.69466" font-size="6.35px" stroke-width=".26458">Jhabua</tspan></text>
  <text x="26.99552" y="100.89635" style="line-height:1.25" xml:space="preserve"><tspan x="26.99552" y="100.89635" font-size="6.35px" stroke-width=".26458">Ratlam</tspan></text>
 </g>
</svg>
