<svg width="363.13mm" height="241.42mm" version="1.1" viewBox="0 0 363.13163 241.42107" xmlns="http://www.w3.org/2000/svg" xmlns:cc="http://creativecommons.org/ns#" xmlns:dc="http://purl.org/dc/elements/1.1/" xmlns:rdf="http://www.w3.org/1999/02/22-rdf-syntax-ns#">
 <metadata>
  <rdf:RDF>
   <cc:Work rdf:about="">
    <dc:format>image/svg+xml</dc:format>
    <dc:type rdf:resource="http://purl.org/dc/dcmitype/StillImage"/>
    <dc:title/>
   </cc:Work>
  </rdf:RDF>
 </metadata>
  <g transform="translate(155.78 -51.053)" stroke="#fff" stroke-width=".5">
   <path d="m61.372 89.36c-0.16015 4.474 0.89696 21.03 6.7333 20.946 2.0397 3.076-0.46699 9.7634 3.055 11.305 4.7027 2.0814 6.9576 5.1879 10.453 8.932 3.4915-1.7507 3.5346-2.8407 6.8347-4.9297 3.0715-1.9346 8.3344-3.3499 11.664-4.8706 3.9622-1.807 5.1963-4.014 9.3566-5.0555 5.3904-1.3594 11.61-5.2857 17.671-4.6849 14.949-5.9281 11.49-3.6838 19.665-6.4589 2.4375-0.17548 8.9473 0.65209 10.899-1.2555 2.1469-2.1078 6.1565-1.2111 7.7448-3.7331-0.0219-0.71148-0.99968-2.6914-1.0675-3.3846-1.6778-0.08606-3.4384 0.05324-5.1161-0.03652-0.26267-2.9-0.13644-5.9154-0.39884-8.8152-3.0838-0.10798-6.2565 0.20137-9.3402 0.09375-0.0941-1.4995-0.17766-3.0944-0.27214-4.594-4.1749-0.14555-9.423 1.3896-13.337-0.70144-4.2544-2.2632-2.5225-8.8397-2.862-12.607-4.5273-0.83963-10.12 2.383-13.598-1.932-0.72573-0.89625-0.77119-2.9683-1.859-3.5448-2.8235-1.4673-6.4119 0.2415-9.3526 0.15758-0.53003-3.4878 2.3195-6.9467 0.90703-10.404-1.5914-3.8597-7.1524-2.143-10.231-1.8549 1.4712 3.9768-1.7618 5.8405-0.94503 9.3767-3.1626 0.49825-4.3587-1.2443-6.251-3.0138 0.05363-1.0796-0.70087-1.9269-0.7878-2.9833-4.0596-0.95914-5.9208 2.3847-7.1761 4.9366-0.28163-0.8562-0.91209-2.3434-0.71316-3.6681-1.7349-0.27324-3.6099-0.20648-4.7093 1.1019 5.2452 6.4079-5.2981 10.048-1.7997 16.864-1.807 0.15796-6.3524 0.7763-10.713 1.0049-0.27433 4.7017-3.0536 8.6004-3.0431 13.62-0.47144 0.04086-0.92464 0.12804-1.411 0.18532" fill="#dcc" id="Rewa" />
   <path d="m49.041 187.75c-5.0592 0.45516-9.5704 1.1191-11.747-4.2617-7.5249 0.0934-3.9589 19.337-15.182 17.835-1.7708 3.5608-1.0967 8.5927-0.73315 12.517 0.68602-0.1627 1.7971 0.25391 2.4831 0.0916-0.93902 5.2751 9.7258 2.7523 12.225 2.8431 0.31045 6.2229 3.8133 6.7996 5.7669 11.844 4.9734 1.2279 8.1239-1.3125 12.806-1.4313 4.2726-0.0974 9.099 0.12482 13.179 1.463 11.853 3.8761 14.693-1.7624 18.857-6.7705 0.22983-6.1565-0.82826-13.166-1.8048-19.148-1.095-6.9168-8.5865-19.199-9.8728-27.203 9.2785-1.8921 6.3623-4.7378 0.69361-5.4098-1.8835-1.9293-4.0789-6.1999-6.3309-6.6344-0.58625-0.86219-4.6652-2.2538-3.5596-4.2562 0.84577-1.532-0.51533-2.2833-2.4857-2.644-1.0689-0.19554-0.07223-1.487-1.0383-1.8371-1.1275-0.40876-3.3333 1.0248-4.5338 1.2231-2.3365 1.5002-2.6839 3.9097-5.6567 4.7144-1.1989 1.2188-2.373 2.0088-4.6243 2.4277-0.37663 8.4759 1.8575 16.166 1.5596 24.638" fill="#e2b584" id="Umaria" />
   <path d="m17.303 83.596c0.42822 2.7487 4.2748 5.065 3.3998 7.9455-1.0656 3.4605-5.3988 4.8118-8.3694 5.9653-2.5379 0.97228-16.289 10.877-7.0116 11.991 2.0017 0.24368 0.493 14.226 3.3596 17.116 2.6503 2.6799 5.6655 1.4767 8.7211 2.8527 3.0233 1.3618 0.25536 7.2867 1.3574 9.937 2.8531 6.8497 5.7669 12.144-3.7192 15.476-2.1542 0.76218-6.9157 0.26739-8.4843 1.9649-1.0158 1.0984-1.2589 5.7986 0.30899 6.4921 5.1383 2.2645 13.005 0.56946 16.447-3.6488 2.567-3.1275 15.777-8.5865 14.565-0.0985 3.9075-0.14123 7.6059 1.4542 11.49 1.4723 4.895 0.0328 5.0278-2.8605 8.4015-5.0486 2.1219-1.3781 2.4141-2.6897 4.2212-5.2547 1.5139-2.138 2.6507-1.265 5.4809-2.0784 2.7152-1.6378 6.1707 1.298 7.8477-0.33926 2.0052-1.9576 3.3529-6.2182 7.3688-6.6924 3.1619-0.37331 8.9174-0.29621 6.3951-5.5684-4.2278-5.3503-4.8607-4.8293-9.0527-6.8912-2.8997-3.221-3.9133-4.6994-7.4326-6.7953-5.165-3.0707-1.3956-7.3538-4.5156-12.067-5.8362 0.0839-6.8934-16.472-6.7333-20.946 0.4706-0.05618 0.9404-0.1284 1.4259-0.20137-0.01101-5.0194 2.7686-8.9181 3.0431-13.62-4.9431 0.25938-9.6276 0.03282-9.8071-1.8931-4.5521-0.10981-5.9963 5.4608-10.695 4.3609 2.1328-3.5798 2.621-7.5169 2.6752-11.605-0.25281-1.8079-0.09339-3.5898 0.47914-5.3142 0.7715-1.5448 2.7053-1.6936 2.9183-3.6525-1.8675-0.09193-3.8053-0.02554-5.6753 0.13863 0.2032 1.4621 0.01101 3.1983-0.48826 4.238-0.07989-0.61349-0.80108-2.0325-0.68588-3.147-2.4673-0.09193-5.4327-0.34839-7.6168 0.74759 0.25281 1.5069 1.0695 2.636 2.42 3.1036 0 0.3006-0.0024 1.1561 0.04305 1.4229-2.3256-0.0996-5.7111 0.96443-7.8561-0.20575-2.6321-1.4297-1.0089-5.3944-5.2948-4.0457 0.08536 1.6266-0.59752 2.1533-0.96046 3.0591-1.0844-2.3185-4.0837-1.7179-5.8519-0.2156 1.3537 2.9378 3.1437 10.888-1.7471 10.638-0.40537 3.4101-0.93088 6.9372-0.37013 10.408" fill="#f3d6e9" id="Satna" />
   <path d="m92.964 258.96c-1.9508-0.8716-2.728-2.7879-8.0597-3.617-7.9944-10.381 1.0171-13.748-2.1794-16.915-0.80601-1.4528-1.9309-2.1489-2.4114-3.405-4.2285-2.2349-8.1338-5.3007-8.1338-5.3007-2.1104 0.5617-5.2204-0.97299-7.7744-2.7803-3.6736-2.5998-5.7063-0.0145-7.7835-0.0861-5.3291-0.17983-9.5324 2.7482-14.953 1.4171-1.9533-5.0442-5.4564-5.6206-5.7669-11.844-2.0249-0.0835-6.6986 0.79445-9.6492 0.2207 0.04852 0.0145 0.09594 0.0292 0.14447 0.0402 0.36188 2.3881-0.5405 4.7472-0.33088 7.2385-4.7691 0.86746-6.5826 2.7045-5.9668 7.5336 1.9189 0.46955 3.3547 1.6611 5.1642 2.1522 0.13645 1.6873 0.17948 3.4269 0.14227 5.1234-1.1235 0.24915-2.2884 0.30972-3.4898 0.27798 3.517 2.9511 7.5774 5.4305 8.9725 10.061-1.9041 4.6469-5.5414 9.9403 5.1737 11.669 3.9669 2.8009 9.0549 0.49142 13.119 3.0339 3.3132 2.075 5.2999 5.9456 9.7707 5.4105 0.37703 7.5023 1.7121 7.3687 8.647 7.1637-0.18532 5.6002-7.6949 5.3357-5.0657 10.031 3.5865 2.7733 3.0102 0.0906 4.1205 0.58917 3.0948-9.6433 9.6025-7.5836 9.2858-1.0345 2.1283 4.1781 4.5743 6.3458 4.5714 6.286 4.775-0.45611 3.7561 0.37323 8.2782-1.5899 2.1609-0.93671 2.9646-2.1665 5.6002-1.877 2.2544 0.24588 4.4707 2.4736 6.8376 1.8586 0.30169-5.6852 7.8448-5.4309 11.119-7.7088 2.1162-1.4886 1.1369-3.3058 2.495-5.1029 1.7267-2.2916 5.8935-3.2068 8.2294-4.7228-3.2972-5.6863-2.3551-6.371-6.6406-9.5036-3.7926 3.1628-17.372-0.054-23.465-4.6178z" fill="#abacda" id="Dindori" />
   <path d="m98.145 141.89c0.02918-3.9282 0.3597-2.298-0.29549-6.0642-1.7713-0.0657-6.3524-0.21597-8.504-0.0108 1.083 5.053-1.4271 6.2853-5.5086 5.7618-4.1092-0.52701-7.4983 4.8034-8.3971 7.3316 0 0-5.9661-1.247-5.9679-0.93265-0.47564 0.86426-6.8679 1.1773-7.36 2.0265-1.8377 2.5633 1.1898 5.0512 0.75213 6.5118l2.7242 1.1882c0.8817 1.4609-0.64319 3.4147 1.1798 4.2034 5.6334 2.4366 6.5713 4.6867 8.882 8.1498 6.9106 0.82401 7.2159 3.991-0.87744 5.4816 3.1685 7.3038 3.1165 8.7317 7.9587 21.978 4.0563 6.9536 3.4821 11.825 2.6489 17.082 1.6022 7.2006-5.4659 12.707-2.5484 12.7 3.6049-0.0108 10.588 14.06 15.171 11.322 3.3689 0.61378 15.275 13.09 6.6625-4.8523-1.8534-3.8611-0.72191-2.9961 2.5728-6.386 3.8801-3.9925 6.5957-9.6244 18.499-5.169 2.4899-3.8465 6.4173-14.979 14.14-15.072 1.7989-4.8257-2.3788-7.1816-6.0901-6.5694-3.4211 3.7269-1.5054 1.3926-5.0639-1.9023-4.3014-2.8625-8.0794-0.77672-11.776 1.8716-3.8735 3.0753-9.8648-4.5806-7.0886-9.3788 3.045-3.0417 13.105-10.728 6.6107-15.36-1.2525-3.1173-7.2965 1.0995-6.5111-6.1284-3.0539-0.74258-2.1071-4.2883-5.4458-4.4455-0.5201-5.1037-4.5933-5.5889-1.9962-14.644z" fill="#a3b0a3" id="Shahdol" />
   <path d="m155.86 116.36c-12.79 8.7707-13.336 9.9928-19.678 17.913-5.83 7.2805-6.6351 9.952-3.486 14.78 3.2364 4.9617 10.496 10.4 17.618 8.0732 0.41763-0.13635 7.1612 3.0955 8.6583 3.4164 3.8385 0.82269-0.626 10.044 1.2214 12.945 2.219 0.51902 9.9593-1.3163 10.834 2.051 0.73107 2.8137 3.348-0.57273 6.8817-0.54815 8.8809 7.4822 5.3565 3.3404 8.3143 0.30024 0.72103-6.154 1.6337-3.439 3.5611-2.9627 4.9709 1.2284 5.065-4.6812 4.821-7.7317 1.6008-2.285 4.4532-1.4686 6.7635-1.9698 3.6365-0.79226 2.2647-4.9804 4.544-6.9682-7e-3 -0.0949-0.0108-0.17405 2e-3 -0.26959-2.7466 0.30205-2.609-1.8903-2.8548-3.8728-0.40665-3.2409-2.1818-5.953-5.0818-6.7672-0.26121-0.7623-1.1365-2.2269-0.90771-2.9832 1.0514 0.18276 2.1761 0.24295 3.2117 0.42613 0.0982-2.3489 0.58347-4.9771 1.6184-7.2167 0.79376-1.7202 2.4453-4.4601 3.0992-6.7431 2.5548-8.2155-3.2394-7.569-4.5936-7.1714-0.21924-2.3797-0.1441-4.8542-0.34692-7.2188-0.68602 0.16233-1.7805-0.23931-2.4823-0.0759-0.20321-2.3647 0.32795-5.5648 0.43947-7.9459 5.1817 2.183 14.354-3.0699 5.1898-7.6343-1.6818-1.6696-3.552-0.70932-3.4407-4.3099 0.10984-3.6163-5.4105-1.5252-8.0152-0.92937-13.999 3.445-10.504 2.0869-20.466 1.6127-0.31883 2.6454 0.21524 6.5429-2e-3 9.3256-3.2802 0.96367 0.69283 3.739-3.4102 4.6666 0.53346 0.89531-12.012 7.808-12.012 7.808z" fill="#c2f0c2" id="Singrauli" />
   <path d="m109.53 115.77 17.256-5.4966 20.516-5.9114 13.268-2.0723c2.1831-1.1507 5.1591-3.3218 7.2104-0.39376 1.1436 0.74653 2.3861 1.2411 1.9636 5.9748l-2.134 0.64223c-4.5499 4.1847-8.0571 5.4123-12.044 7.9448-7.2283 4.6316-13.445 10.174-18.047 16.909-14.075 10.163-3.0143 25.599 12.979 23.822l7.2097 3.1259c1.9705 0.93598 3.3127 2.1812 2.7994 4.339l-0.88238 8.6624c-0.0522-0.99549-20.031-4.8822-26.835-2.094-5.6191 2.3025-10.255 0.24551-10.273-0.0507 1.704-10.424-12.284-1.591-12.71-1.2505-3.1807-2.7398-2.8274-4.3861-5.1938-4.6823-2.7932-6.9343-4.0727-9.4037-1.8115-14.666-1.9752-3.3169-4.2019-6.4779-4.6531-8.5635 0.42562-2.5137 0.52062-5.7939-0.61554-5.9748-0.37601-0.89783-9.4741-0.0532-7.673-0.26156 0.18204-0.0219-8.2213-5.6614-8.3895-6.5709 2.8585-0.84477 11.749-6.0963 15.904-7.7441 3.6528-1.4488 7.5614-3.6864 12.155-5.6881z" fill="#fcc" id="Sidhi" stroke-linecap="round" stroke-linejoin="round"/>
   <path d="m72.353 229.96 9.894-3.2269c5.7355 3.116 12.187 14.819 15.905 11.944 15.342 9.5671 7.314 1.1856 7.3206-3.1273-0.0905-2.4383-4.1376-4.3649 0.60833-7.4202 5.189-4.8542 9.5682-10.554 19.685-5.888 4.1716-4.6787 4.2493-13.116 13.229-14.599 2.8721-0.47418 4.3098-0.40691 9.1202 2.1809 9.1063 9.5499 5.6166 10.334 7.9382 17.174-0.0328 10.081-9.9983 10.226-16.164 11.971 0.83595 3.9067-1.1492 4.0847-3.9297 5.2065-0.97665 2.7205-3.129 5.1887-3.133 8.0728-7e-3 4.6936-4.0297 7.8248-7.3917 11.15 0.3705 4.2044 1.2178 8.7412-3.081 9.6911-1.7052-3.3178-2.2418-7.4224-6.2287-9.2034-0.68248 1.5079-14.013 1.1024-22.193-4.3284-0.33343-0.22144-3.4762-3.7039-7.6861-4.281-4.7783-0.6553-4.478-7.804-4.6466-10.998 4.8366-6.1182-2.3878-10.242-9.2464-14.319z" fill="#cc2" id="Anuppur" stroke-linecap="round" stroke-linejoin="round"/>
  </g>
  <g fill="none" stroke="#345" >
   <path d="m5.1769 166.17 0.85737-3.1436h1.4289l3.7152-4.5726 2.8579-1.1431 0.28577-2.0005 4.1678-3.1238h1.8569l2.0891 0.23211 1.1606 1.1606 2.5533-2.7854 5.3387-3.0175 6.2672-2.7854h1.6248l3.0175-2.5533 4.4102-2.0891 1.8569-0.23211 0.69634-1.1606 0.46426-2.3212 1.6248-1.1606 1.1606 0.69635 1.1606-2.7854 2.7854 0.69637 3.2496-1.1606 0.92848-1.3927 1.3927-0.46423 2.5533-1.6248 2.7854-0.92847 1.1606 1.6248 1.6248-0.46423 1.6248 0.23211 1.3927-0.46423h2.5533l0.69635-0.69636 3.946 0.23212 6.9635-2.5533 1.8569-0.23211 3.2497-2.7854 4.1781-0.69635 4.1781 1.6248 1.3927 1.3927 3.946 1.6248 0.23212 1.1606 5.3387 1.8569 2.3212-0.46424 2.089 0.23212 3.2496 0.92848 2.5533-0.46424 3.2496-1.1606h1.8569l3.946-1.857 2.3212 1.6248h1.3927l0.69636-1.1606-0.69636-0.69635v-2.3212l2.0891 0.23211 7.6599 0.69635 1.1606-1.8569 1.3927 0.46424 2.0891-0.69636h2.7854l2.0891-1.1606h7.1956l1.6248-0.92848h3.2496l3.4818-0.23211h5.5708l2.5533-0.23212 4.1781-0.46424 3.0175 0.69636 4.6424 0.23211 0.23211 0.92848 1.857 1.3927 2.3212-2.0891 1.8569 3.0175 4.6424 2.7854 4.1781-1.1606 3.4818 0.92846v-2.5533l1.3927-0.69636 1.3927 1.3927 1.3927-1.3927 1.3927-0.46424 1.3927 0.46424 1.857-1.6248 3.0175-0.92848 3.2496-1.6248 2.3212-1.857 3.4818 1.857 0.69637 0.92847 1.3927 0.23212 1.3927 2.0891-0.2321 1.6248 1.3927 3.4818 0.23214 2.0891 1.3927 2.0891h0.92848l1.3927-0.69636 4.1781-0.23212 3.2496-0.69634 1.857 0.92846h2.7854l3.0175-0.69635 1.857 0.92847 1.3927-3.946-1.6248-6.7314 1.3927-6.7314-0.69637-1.8569 2.3212-3.4818 5.1066-4.1781 2.5533 0.69635h3.946l1.6248-2.0891 1.8569-0.46423 0.69635-1.6248 3.2497-0.69637 1.3927-2.0891 3.0175 2.0891" stroke-width=".5px"/>
   <path d="m194.1 122v-4.0217l1.3182-3.1599 1.0545-2.8726 1.5819-1.4363 1.3182-1.4363 1.5818-0.8618 2.6364-0.86179 3.4273-3.4472 3.9546-3.4472 3.9546-2.8727 2.9-2.0108 2.1091-4.5962 3.9546-1.1491 0.79091 0.86182 2.1091-1.7236h2.3727l2.3727 0.86177 3.691-3.7344 3.9546-1.7236 2.6364-4.309 7.1182-8.3307 4.4818-2.0109 4.7455-2.8727" stroke-width=".5px"/>
   <path d="m203.72 107.35v-8.5217l1.3122-4.8696 0.87481-1.8261 2.1871-4.8696v-5.4782l1.3122-7.3043 0.87481-6.087 0.87481-0.60868-0.87481-3.0435v-5.4782" stroke-width=".5px"/>
   <path d="m210.28 59.259 7.2077 1.5165 5.6633 1.2638h8.2373l7.2077 1.7692 5.1483 1.5165 6.1781 0.5055 8.2373 1.011" stroke-width=".5px"/>
   <path d="m254.55 132.22 0.19275 3.7018 0.9637 4.072-0.57821 2.2211 0.77098 5.5527 0.38547 7.0334 0.3855 7.4036v5.1825l-1.3492 4.072-1.1564 3.3316v2.5912l-0.38549 4.4422" stroke-width=".5px"/>
   <path d="m235.18 132.85-2.9519 3.9979-2.9518 3.4268-2.3615 5.7113-0.88559 3.4268-0.59039 4.5691-2.9518 5.1402-0.88559 3.9979-1.1808 2.8556-2.3615 2.8557" stroke-width=".5px"/>
   <path d="m218.06 168.83 3.4976 2.522 1.9986 1.94 0.99927 1.552 2.4983 0.77602 0.99932 1.552 2.7481 0.97002 2.9979 0.388 3.4975 1.164 1.7488-0.388 1.499-0.58201 2.9979 1.552 1.9986-0.388 2.2484 0.97001 1.7488-0.194 2.2484 0.97002 1.9986 0.194" stroke-width=".5px"/>
   <path d="m253.79 181.87 1.9051 0.24852h1.2701l1.2701 0.74558 1.0584 0.49704 0.63507 1.7397 1.0584 0.74557h1.0584l0.42336 0.99408 0.63506 0.74558 2.1168-0.24852 1.9052 1.4911 3.1752-0.49706 2.7518 1.4911 1.2701 2.2367v1.4911l-0.42337 2.2367" stroke-width=".5px"/>
   <path d="m258.16 66.842h5.3647l1.6094 0.76187 2.6824 0.76187 3.7552 1.1428 2.6823-0.76186 4.8282 0.38093 1.6094 1.1428 5.3647 1.5237 3.7552 3.4284 8.047-0.76187 0.53642 3.8094" stroke-width=".5px"/>
   <path d="m218.06 168.83-0.48243 1.8518-1.6885 0.41153-1.2061 1.4403-0.96486 0.41152h-1.4473v1.4403l-0.96486 0.61729-2.1709 1.2346-0.48243 1.0288v5.144l-1.2061 1.4403 0.96486 0.82304 0.72367 2.6749 1.2061 2.4691 3.8594 3.0864 1.2061 1.8518 1.6885-0.41151 1.6885 1.8518 1.6885-0.20576 0.96486 1.2346 1.9297-1.0288 4.3419 1.6461 1.9297 1.4403 1.9297 2.4691 2.6534 2.4691 0.48243 0.61729" stroke-width=".49px"/>
   <path d="m280.83 101.11 0.56676-3.6068-0.56676-1.603 3.9675-4.4083 2.834-2.4046 3.9676-3.6068-1.1336-4.4084 7.9352-2.8053" stroke-width=".5px"/>
   <path d="m234.7 204.83 3.0014 1.0653 1.0005 0.85222 2.5011 0.63916 5.2525 3.4089 3.2515 1.0653v-1.7044l0.50024-1.7044-0.2501-1.0653-0.50024-2.3436v-0.85222l0.75034-1.0653-1.0005-2.3436 4.0019-4.4741-3.0014-0.4261 0.75033-2.1306-0.75033-0.21306 3.7518-6.1786-0.2501-5.5394" stroke-width=".49px"/>
   <path d="m250.21 208.46 1.5796-1.3043 3.8362-0.93164 3.1592-2.9812 2.9336-0.37265 2.031-0.55899 2.2566-0.18633 2.7079-0.18633-0.22568-1.3043 0.90264-1.4906 1.354-1.677 3.1592-1.677" stroke-width=".5px"/>
   <path d="m200.47 127.81 2.0216 5.246 0.60648 4.2922 4.6498 5.2461 1.213 0.95382 2.0216 5.246-0.60648 3.8153 1.6173-0.47694 1.6173 4.7692 1.0108 5.2461 1.4151 3.8153 2.0216 2.8615" stroke-width=".5px"/>
  </g>
 <g fill-rule="evenodd" stroke-width=".31886">
  <ellipse cx="4.0665" cy="168.43" rx="4.0672" ry="4.15"/>
  <ellipse cx="235.64" cy="204.79" rx="4.0672" ry="4.15"/>
  <ellipse cx="274.09" cy="196.11" rx="4.0672" ry="4.15"/>
  <ellipse cx="218.69" cy="169.24" rx="4.0672" ry="4.15"/>
  <ellipse cx="253.84" cy="181.64" rx="4.0672" ry="4.15"/>
  <ellipse cx="298.48" cy="78.287" rx="4.0672" ry="4.15"/>
  <ellipse cx="257.14" cy="66.298" rx="4.0672" ry="4.15"/>
  <ellipse cx="210.84" cy="59.683" rx="4.0672" ry="4.15"/>
 </g>
 <g fill="#000000" font-family="sans-serif" font-size="3.5278px" letter-spacing="0px" stroke-width=".26458" word-spacing="0px">
  <text x="12.815085" y="170.47816" style="line-height:1.25" xml:space="preserve"><tspan x="12.815085" y="170.47816" font-size="6.35px" stroke-width=".26458">Bhopal</tspan></text>
  <text x="306.33856" y="80.354057" style="line-height:1.25" xml:space="preserve"><tspan x="306.33856" y="80.354057" font-size="6.35px" stroke-width=".26458">Sidhi</tspan></text>
  <text x="252.18141" y="55.549255" style="line-height:1.25" xml:space="preserve"><tspan x="252.18141" y="55.549255" font-size="6.35px" stroke-width=".26458">Rewa</tspan></text>
  <text x="188.10234" y="54.722427" style="line-height:1.25" xml:space="preserve"><tspan x="188.10234" y="54.722427" font-size="6.35px" stroke-width=".26458">Satna</tspan></text>
  <text x="280.08517" y="204.29112" style="line-height:1.25" xml:space="preserve"><tspan x="280.08517" y="204.29112" font-size="6.35px" stroke-width=".26458">Anuppur</tspan></text>
  <text x="217.8681" y="213.88658" style="line-height:1.25" xml:space="preserve"><tspan x="217.8681" y="213.88658" font-size="6.35px" stroke-width=".26458">Dindori</tspan></text>
  <text x="188.92917" y="163.45013" style="line-height:1.25" xml:space="preserve"><tspan x="188.92917" y="163.45013" font-size="6.35px" stroke-width=".26458">Umaria</tspan></text>
  <text x="244.73996" y="171.30499" style="line-height:1.25" xml:space="preserve"><tspan x="244.73996" y="171.30499" font-size="6.35px" stroke-width=".26458">Shahdol</tspan></text>
 </g>
</svg>
