<svg width="214.48mm" height="334.77mm" version="1.1" viewBox="0 0 214.47401 334.771" xmlns="http://www.w3.org/2000/svg" xmlns:cc="http://creativecommons.org/ns#" xmlns:dc="http://purl.org/dc/elements/1.1/" xmlns:rdf="http://www.w3.org/1999/02/22-rdf-syntax-ns#">
 <metadata>
  <rdf:RDF>
   <cc:Work rdf:about="">
    <dc:format>image/svg+xml</dc:format>
    <dc:type rdf:resource="http://purl.org/dc/dcmitype/StillImage"/>
    <dc:title/>
   </cc:Work>
  </rdf:RDF>
 </metadata>
 <g transform="translate(7.3019 -6.6242)" stroke="#fff" stroke-width=".5">
   <path d="m54.976 129.1c1.7375-2.3428 4.6876-1.788 6.117-4.7316 0.94345-1.9465 3.1417-4.5913 3.7826-6.4446 2.1081-6.1255-1.5553-8.5554 6.867-10.37 6.2943-1.3478 4.9775-5.6437 4.1944-10.908-0.75826-5.0809 7.901-4.4243 9.0291 0.08207 0.47611-0.01067 0.89167-4.61e-4 1.3654-0.05614 0.74742-3.0467 2.3888-4.8756 4.5014-5.9273-1.6405-0.50009-2.6467-1.2186 0.33256-2.7474-0.0028-0.07711 0.0036-0.17019 0.0022-0.24694-0.23805-0.14177-0.44463-0.26968-0.80693-0.43582-0.53974-1.7917 0.01067-3.2858 1.0041-4.6027-0.41361-6.7182-7.7056-0.64494-11.591-3.7883-3.4036-2.752-11.866-8.4471-15.873-3.0548-8.4762 11.349-14.909-1.6864-17.293-10.507-7.7727 1.595-13.127 9.1399-16.817 15.595-4.0423 7.06-9.0497 10.376-17.69 10.968-3.5507 2.6538-0.0394 11.57-6.7128 10.963 2.0881 5.2269 4.6176 10.662 6.3877 15.983 1.2957 3.8959 0.82744 9.0412 3.9727 12.146 7.3268 7.2042 22.606 5.6785 31.806 5.5048 4.3504-2.3563 4.6492-3.6984 7.4213-7.422" fill="#e2b584" id="Sheopur" />
   <path d="m158.97 22.199c-1.2682 7.1922-7.7592 8.3036-13.203 11.797-7.4977 4.7885-7.2934 14.263-7.5826 22.237-1.7834 0.29384-2.0772 1.7283-2.5711 3.1577 6.4517-0.10694 12.626 0.6647 13.231 4.2882 3.0955 0.09984 6.7036-1.1688 9.6086-0.59609 0.10764 1.1819 0.86164 2.0678 0.73253 3.4164 1.6341 0.08385 3.3488-0.05223 4.9821 0.01777-0.11552 2.4892 0.92859 3.9304 1.8097 5.4884 4.3433-2.4948 6.2257-12.634 13.049-7.4085 0.48151 4.7867-0.71146 9.5997-0.61411 14.391 0.0994 5.7169 2.8772 7.9617 6.3348 12.037 0.47785-1.151 1.4252-1.5553 3.2092-0.07569 0.31303-3.7027 3.2985-7.4682 3.9912-11.268 4.28-2.2294 3.1961-10.301 7.206-12.701 0.11553-2.4892-0.50809-5.2945 0.49586-7.5524 3.779-0.35211 0.62096-6.6336 6.8418-7.0369-0.46527-5.3584 1.6848-11.563-0.76245-16.602-2.0857-4.3017-5.8331-6.866-5.874-12.046-0.0356-4.1781 0.0249-6.587-4.4218-7.5109-2.4402-0.50446-6.354-0.96255-5.9479-4.3614-1.4025-0.94443-2.5539-1.7941-3.6376-2.5239-2.9728-0.98551-6.0164-1.5663-9.2146-1.5684-0.0558 0.40391-0.12574 0.82402-0.0778 1.1608-2.9535 0.26292-7.2846 0.93701-10.919 0.81901-2.0039 4.5931-5.7645 7.3506-6.6663 12.441" fill="#e7d369" id="Bhind" />
   <path d="m179.05 64.577c-6.8234-5.2255-8.7058 4.9136-13.049 7.4085 3.3243 5.9333-1.8476 8.7491-5.3549 12.527l0.94352-3.1187c-7.5713 8.0776-11.015 18.638-21.166 24.429 3.8885 3.7908 5.9024 5.5513 11.628 6.2541 0.53647 2.6093 2.2922 5.309 4.2459 7.088-1.146-12.772 14.003-2.6927 19.78-8.9335 3.0408-3.2903 8.2737-0.54159 10.526-4.2068 1.9272-3.124-3.4098-6.0985-3.4331-9.1819 0.47288-0.07071 0.91671-0.10979 1.3742-0.18014-0.21105-1.3924-0.40242-4.1585 0.22669-5.6569-3.4576-4.0758-6.2197-6.3216-6.3348-12.037-0.0817-4.7924 1.0956-9.6043 0.61411-14.391" fill="#a3b0a3" id="Datia" />
   <path d="m62.136 78.252c3.6089-4.1838 9.6185-5.9795 14.564-1.9663 2.1682 1.768 4.7913 5.1779 8.0314 4.2214 2.9366-0.87877 6.3032-3.2299 6.6347 2.2125 4.3706-5.7816 6.974-5.1005 7.2707-12.936 2.5403-0.22562 5.3414 0.12115 7.7685-0.79268 3.3772-1.2721 5.449-4.8663 8.5349-6.7093 5.4714-3.2634 14.583-2.7847 20.727-2.8908 0.49394-1.4294 0.78859-2.8484 2.5712-3.1577 0.42431-12.145 1.7602-19.51 13.01-25.174 4.1937-2.1169 6.9068-4.0327 7.761-8.8585 0.90085-5.1061 4.6623-7.848 6.6652-12.457-3.6497-0.11725-6.8276-1.786-10.331-2.6204-4.624-1.0995-8.9879 1.8746-13.475 0.75246-4.5941 1.5209-6.2648 4.5543-7.6263 8.7899-1.5077 4.6752-1.8466 4.3689-7.2081 4.4495-7.988 0.12578-19.566-0.48606-20.361 10.167-5.5744 2.4668-8.5473 2.0674-12.642 6.9552-3.7332 4.4523-10.5 6.4726-16.044 7.1797-2.2299 5.2682-11.377 6.1639-15.863 8.5583-2.9164 1.5563-3.9535 4.0629-5.6757 6.6983-2.2936 3.4671-6.0985 3.9134-9.8403 4.6801 1.8153 6.7683 7.9312 21.671 15.528 12.898" fill="#c2f0c2" id="Morena" />
   <path d="m76.742 161.96c2.1181 3.1587-0.41464 8.0719 2.9471 7.9728 4.6514-0.13579 4.7821 2.107 9.3034 2.4253 7.0067 0.51196 19.747-1.8756 23.19-6.0044 2.0102-2.4188 6.8802-0.43767 8.5004 1.4361 2.4715 2.8626 1.5998 6.4712 1.5173 9.8839-0.24658 9.3748 13.73 2.0721 18.273 1.6181-0.98192-2.6014-3.811-4.6588-3.6454-7.6594 3.0599 0.59539 6.8578-3.2128 8.9001-5.0162 4.2157-3.7528 3.3017-7.6995 3.4956-12.8 4.2381 0.4874 2.4034-5.7709 7.4259-4.9853 0.30769-2.638-1.6209-4.5266-2.2575-6.9918-5.2614 0.81556-5.3957-5.8555-5.3818-9.4036 7e-3 -2.2366-0.28211-4.5042-0.19791-6.7142 0.20288-5.2238 4.7643-1.792 7.6622-3.1161 0.0444-1.2053-0.0465-2.3573-0.15001-3.4469-1.9535-1.7793-3.7094-4.479-4.2459-7.088-5.7254-0.70251-7.7393-2.4631-11.628-6.2541-4.1649 2.3775-7.8736 2.3097-12.377 1.1576-4.8457-1.2266-9.8271-0.34856-14.707 0.12328-6.0282 0.56266-5.2422-9.6733-12.926-8.7306-2.4044-4.5163-4.7825-6.1809-9.5933-7.6252-2.128 1.0523-3.7702 2.8658-4.5014 5.9272-0.47447 0.0405-0.9046 0.04762-1.3654 0.05614-1.1278-4.506-9.7873-5.163-9.0291-0.08207 1.3471 8.9829 0.04474 9.0664-7.9305 11.783-3.2327 1.0949-3.1029 3.5712-3.2161 6.3994-0.13252 3.6313-1.5456 3.9521-2.7562 7.2547-1.6561 4.4826-4.6588 3.8071-7.028 7.0003-2.7721 3.7236-3.0699 5.0809-7.4519 7.4235 2.78-0.0529 4.6435-2.3409 7.2014-2.5212 3.3997-0.25511 5.2902 2.0825 8.4236 2.6123 1.7571-6.3692 2.1575-9.2899 9.8001-9.2586 0.32098 3.4843-1.3159 10.094 4.1383 9.1449 0.40555 5.9784 0.65938 12.289 0.43554 18.285-0.83196-0.0356-1.6422 0.0551-2.4177 0.21922-0.30535 5.3215-2.0746 1.9901 1.1279 6.7732" fill="#f99" id="Shivpuri" />
   <path d="m154.28 90.724c2.0055-3.3903 3.919-6.4826 6.5838-9.3215l-0.94355 3.1187c2.4162-2.5944 6.225-4.4289 6.4627-8.4052 0.22561-3.6209-3.0806-5.977-2.9029-9.6264-1.6341-0.08385-3.3489 0.05223-4.9821-0.01777 0.11506-1.3324-0.62445-2.2345-0.73249-3.4164-2.9196-0.55651-6.5285 0.69686-9.6083 0.59609-1.2576-7.5688-21.108-3.7982-25.915-3.4076-4.6698 0.36813-8.1149 1.5203-11.604 4.7568-4.4271 4.1188-6.9118 4.2335-12.742 4.7551-0.16557 4.4658 0.23628 5.6789-2.9249 8.7285-2.3702 2.2989-6.5568 4.8471-5.3499 8.8095 0.34713 0.16699 0.69561 0.36454 1.0297 0.5784-4.4972 2.1944-0.17374 2.8469 2.0769 3.5464 3.4383 1.0691 5.3556 3.9144 6.9594 6.9459 5.255-0.64555 6.812 2.959 9.1367 6.8319 2.3924 3.9926 9.8506 1.0878 13.619 1.1216 6.4289 0.049 10.999 3.0635 17.239-0.50243 6.0022-3.3992 11.127-9.1741 14.599-15.093" fill="#abacda" id="Gwalior" />
   <path d="m39.218 245.42c2.1924 1.9364 5.5066 3.8604 8.4244 4.386 3.3988 0.60841 8.2609-1.0808 11.117 1.4841 3.5335 3.1771 0.01955 10.934 5.794 12.282 2.1522-1.47 5.2365-1.5853 7.7194-1.4378-3.0403-5.794-6.0882-7.6239-4.4609-14.711 1.4012-6.1195-3.0584-13.181 0.04949-18.711 2.0256-3.5918 4.1567-1.6523 6.4474 0.40238 3.4996 3.1172 6.5014 2.6051 9.9998-0.16947 3.2175-2.5592 8.5267-5.3648 11.888-5.1399-0.78686-5.3104-9.5432-9.7614-11.152-14.758-1.7345-5.3882 0.78977-12.303 2.934-17.013 2.6622-5.848 1.6705-14.075 1.4102-20.265-1.4381 0.29844 0.52002-1.7181-9.2199-1.8914-1.7145-5.1385-5.5357-9.9692-5.2731-15.227-2.0077 0.41368-3.8856 1.2524-5.7922 1.5374 0.22768-1.5233-0.57759-3.3937-0.18451-4.9874-4.5337 2.0883-8.1483 5.5783-13.242 6.3543-6.2683 0.96085-12.627-0.0786-18.915 0.4977-0.10587 2.6738-0.87992 5.799 0.07131 8.402 1.0392 2.8142 3.9311 3.4338 4.4289 6.77 0.78164 5.2337-6.0275 4.6808-9.3915 5.0266 2.0712 5.1971 4.538 7.3812 10.14 8.0903 5.4632 0.6853 9.4913 2.1554 10.255 8.2229 0.50816 4.1223-0.4058 12.499-5.8924 12.833-4.8578 0.30129-6.8081-5.8125-12.334-4.474 2.3294 5.7233 0.1962 26.039 6.688 27.581 0.14901 3.4316-3.7759 4.2232-6.2541 5.9265 1.947 2.8285 2.1494 6.6891 4.7451 8.99m57.642-21.802c3.1161 1.7612 7.0529 0.88875 10.169-1.0192 3.2725-2.004 8.1714-0.0832 11.342 3.9421 6.4588 1.4969 7.7151-0.11661 18.153 4.263 2.1999-2.9069 4.9025-7.9529 7.5446-10.05 3.7776-3.0205 5.6942-5.4657 8.8603-9.3023-0.99282-8.0914-11.422-3.2109-10.92-10.934 7.6349-2.1739-0.20572-17.418-1.7588-21.531-5.7802 0.59598-19.102 8.0804-18.18-3.0881 0.28815-3.5933-1.1256-8.7914-4.6066-10.969-4.7583 0.30983-6.5704 0.18973-8.8138 3.7314-2.1588 3.3983-14.177 4.9658-18.824 3.3686-0.02842 7.2082-0.21318 14.318-2.0387 20.38-3.3036 6.8226-3.73 12.28-2.8657 17.125z" fill="#dcc" id="Guna and Ashoknagar" />
  </g>
 <g fill="none" stroke="#345">
  <path d="m78.672 331.25 2.283-4.1094 14.611-14.155 7.7622 0.9132 4.1094-3.6528-0.9132-1.8264 5.0226-2.7396 0.4566-1.8264-4.1094-4.1094 5.0226-12.328-0.4566-4.1094 1.3698-4.1094 3.1962-2.7396 4.1094-6.3924 5.4792-12.785-0.91319-5.4792v-4.1094l0.45659-5.4792-4.566-8.6754 15.068-8.2188 0.9132-10.045-1.3698-7.3056 4.566-10.045 1.3698-18.264 2.7396-1.8264 3.6528-6.849 0.45661-5.9358 1.3698-5.9358-4.1094-1.8264-1.8264-4.1094 2.7396-5.0226-0.9132-2.7396 2.7396-1.8264 1.3698-8.2188 4.1094-10.045h5.9358l0.9132-5.9358-1.8264-1.3698 4.1094-5.4792 4.566-2.7396-2.283-4.1094-0.9132-3.6528-11.415-23.743-2.7396-2.283-1.3698-7.7622-2.7396-4.566 2.7396-5.4792 2.7396-3.6528 1.8264-3.6528-1.3698-2.283-2.7396-1.8264-2.283-0.9132-7.3056 0.4566-2.283-1.8264-3.1962-4.1094-1.8264-4.1094-5.0226-6.3924" stroke-width=".5px"/>
  <path d="m150.01 46.721 4.818-7.884 5.694-4.818 4.38-1.752 7.008-1.314 13.14-3.504 7.008-3.504" stroke-width=".5px"/>
  <path d="m30.008 97.65-1.2162 6.3846-2.1284 5.5865 1.2162 4.3894-0.60812 2.7932-5.169 3.1923-0.60812 1.9952-2.1284 2.3942-1.5203 6.7836 0.30406 6.3846-0.91218 2.7932v7.9807l1.2162 5.9855-1.8244 3.9903-0.30406 5.1875-4.865 7.1826v10.375l-1.5203 4.3894v3.9903l-1.2162 1.5961-2.7365 3.1923-1.5203 3.5913-3.0406 3.1923-1.2162 3.5913v7.1826l5.169 1.5961 2.1284 1.5962 2.4325 3.9903 2.7365 1.5962 2.4325-0.79808h6.0812l1.2162 3.1923-2.1284 1.5961-1.5203 3.5913 0.30406 2.7932-1.2162 2.3942 0.30406 5.1874-1.8244 4.7884 5.169 9.5768 3.3447 5.5865 6.6893 0.79808 6.6893 1.1971 2.1284 5.5865 3.3447 1.1971v2.7932l6.9934 11.971 6.3853 3.1923-0.91218 3.1923-1.2162 1.9952 0.91218 3.9903-0.30406 1.1971-2.1284-0.39905-0.91218 3.9904-0.30406 3.5913v3.5913l3.0406 4.3894 0.60812 4.7884 1.8244 0.39904 3.0406 3.5913 2.4325 0.39903 4.2569 2.3942 7.6015 6.3845 0.60812 3.1923 3.0406-0.79807" stroke-width=".5px"/>
  <path d="m121.57 233.49-2.3705-1.6426-0.33862-2.4639-3.3864-4.1065-1.6932-2.8746-1.3546-4.5172-4.5674-9.6734v-3.4161l0.25608-5.9006 3.5854-5.2794 0.25611-3.1056 0.76827-3.4161 4.3536-4.9689-0.25609-1.5528-0.51219-1.5528-1.5366-1.8633-2.3048-0.62111-1.7927-1.2422-1.5366-0.62111-2.3049-5.2794-1.7927-1.2422-0.5122-1.8633-2.0488-1.8633-0.76828-4.3478 1.0244-2.4844-2.0488-4.9689-2.3049-0.31053-0.7683-6.2111 2.0488-2.4844-0.76828-1.5528 2.0488-7.7639-0.76828-4.6583 1.7927-6.2111-5.8902-5.9006-6.1463-0.93166-10.756-6.5216-3.0732-0.31056-0.76829 2.1739-5.6341 2.1739-3.5854-3.1056-3.3293 1.5528-2.8171 0.62111-3.3293 2.4844h-1.2805l-3.5853-3.4161-3.0732-0.31055-1.5366-2.795-2.3049-2.1739-4.3536-1.5528-3.3293-2.795-2.8171-4.6583-4.3536-0.31057" stroke-width=".5px"/>
  <path d="m56.642 115.66 0.62902 3.9388v4.2418l2.0967 4.2418v3.0299l-0.20967 2.4239 0.83869 1.8179-0.41935 5.4538 2.3064 2.7269-2.7258 1.5149 1.258 3.6358 1.8871 1.8179v1.212l0.62902 3.3328-1.4677 1.5149-1.6774 3.0299 0.83869 2.4239 1.4677 0.90895 1.258 2.1209v1.8179l0.83869 2.1209 2.0967 1.212h0.83869l1.258 3.6358 1.8871 0.90895-1.0484 7.2717 1.6774 2.1209v2.1209l2.5161 1.5149-1.6774 3.9388 1.258 1.8179 0.62902 3.6358-3.1451 7.5746 2.3064 1.5149 1.0484 1.5149v1.8179l0.83869 3.3328 2.5161 6.6657 1.0484 1.5149 0.41935 2.1209 1.8871 3.9388 0.41935 3.0299 2.9354 7.2716-3.5644 6.6657v5.7567l-2.3064 6.0597 2.7258 3.9388-1.258 0.90895-0.62902 5.7567v2.1209l1.0484 2.1209 2.0967 1.2119 0.83869 2.4239 1.6774 1.5149-0.20967 1.212 2.3064 1.2119-1.4677 2.7269-0.20967 2.4239-0.20967 2.7269v1.5149l-2.5161 2.4239-0.41935 2.1209-0.20967 3.9388-1.6774 0.90897-0.62902 4.5448-0.62902 3.3328-0.20967 7.5746-0.41935 3.3328 0.62902 15.149" stroke-width=".5px"/>
  <path d="m127.98 29.896 1.1726 4.7039-1.4657 1.0453-0.5863 5.2266h0.87945l-0.95273 6.5957-4.4338 2.7496-3.0844 5.843-2.5061 0.68741-7.9038 14.779-0.96388 16.154-1.735 4.8119 0.19278 17.185-0.19278 2.0622-3.47 8.9363-0.96388 2.7496" stroke-width=".5px"/>
  <path d="m127.94 30.006-7.2105 3.0465-5.9102 10.196h-4.807l-9.1018 3.2902h-3.2309l-12.293 4.9962-3.4673 0.52806-4.5706 3.6151-0.27581 3.5745-2.1277-2.1935-1.3397-0.853-7.4863 3.8589-6.6983 2.7621-0.55162 1.9498-2.6793 1.0967-2.6793 7.1897-0.51222 4.3869-1.3397 7.7177 0.27581 3.3308 2.6793 6.621-6.1861 12.714 0.27581 4.1026" stroke-width=".5px"/>
  <path d="m101.97 123.43 5.0872-2.3339h2.4241l1.6161 0.82415h2.2221l4.6462 0.54948 2.2221 0.27458 2.4241 1.0989 2.4241 0.54944 2.4241-0.54944 2.4241-0.82419 2.8282-1.9231h5.6562l10.504-4.3956 2.0201-0.82418 3.0301 0.27458 3.0302-0.54948 4.8482-0.54945" stroke-width=".5px"/>
  <path d="m181.29 28.358 1.5299 3.837 0.38247 3.0696v3.0696l3.4423 12.278 11.092 7.674-1.9124 4.2207-1.5299 4.9881-4.9722 5.7555-9.5619 9.9762-6.5021 12.662-1.1474 4.2207v4.9881l-3.8248 4.6044" stroke-width=".5px"/>
  <path d="m70.476 204.75 12.685-0.65736 2.9272 0.16435 8.1311 1.6434 4.2282 0.32868 5.5292 1.479h3.9029" fill="none" stroke="#345" stroke-width=".5px"/>
  <path d="m98.386 152.31-0.93623 4.7331-3.1208 12.937-6.8658 6.9419-9.0503 10.413-4.6812 9.7817" fill="none" stroke="#345" stroke-width=".5px"/>
 </g>
 <g fill-rule="evenodd" stroke-width=".38119">
  <ellipse cx="191.29" cy="24.43" rx="3.6613" ry="3.7353"/>
  <ellipse cx="128.17" cy="30.033" rx="3.6613" ry="3.7353"/>
  <ellipse cx="30.121" cy="97.891" rx="3.6613" ry="3.7353"/>
  <ellipse cx="102.03" cy="123.1" rx="3.6613" ry="3.7353"/>
 </g>
 
 <g fill-rule="evenodd" stroke-width=".38119">
  <ellipse cx="71.832" cy="203.41" rx="3.6613" ry="3.7353"/>
  <ellipse cx="142.8" cy="56.18" rx="3.6613" ry="3.7353"/>
  <ellipse cx="163.35" cy="96.957" rx="3.6613" ry="3.7353"/>
  <ellipse cx="78.68" cy="331.04" rx="3.6613" ry="3.7353"/>
 </g>
 
 <ellipse cx="107.94" cy="207.46" rx="3.6613" ry="3.7353" fill-rule="evenodd" stroke-width=".38119"/>
 <g fill="#000000" font-family="sans-serif" font-size="3.5278px" letter-spacing="0px" stroke-width=".26458" word-spacing="0px">
  <text x="85.839554" y="330.72443" style="line-height:1.25" xml:space="preserve"><tspan x="85.839554" y="330.72443" font-size="6.35px" stroke-width=".26458">Bhopal</tspan></text>
  <text x="112.92049" y="201.23396" style="line-height:1.25" xml:space="preserve"><tspan x="112.92049" y="201.23396" font-size="6.35px" stroke-width=".26458">Ashoknagar</tspan></text>
  <text x="55.645859" y="212.1286" style="line-height:1.25" xml:space="preserve"><tspan x="55.645859" y="212.1286" font-size="6.35px" stroke-width=".26458">Guna</tspan></text>
  <text x="105.13861" y="133.37598" style="line-height:1.25" xml:space="preserve"><tspan x="105.13861" y="133.37598" font-size="6.35px" stroke-width=".26458">Shivpuri</tspan></text>
  <text x="22.339422" y="90.731285" style="line-height:1.25" xml:space="preserve"><tspan x="22.339422" y="90.731285" font-size="6.35px" stroke-width=".26458">Sheopur</tspan></text>
  <text x="119.45726" y="65.829277" style="line-height:1.25" xml:space="preserve"><tspan x="119.45726" y="65.829277" font-size="6.35px" stroke-width=".26458">Gwalior</tspan></text>
  <text x="159.92303" y="90.420006" style="line-height:1.25" xml:space="preserve"><tspan x="159.92303" y="90.420006" font-size="6.35px" stroke-width=".26458">Datia</tspan></text>
  <text x="120.39109" y="23.807127" style="line-height:1.25" xml:space="preserve"><tspan x="120.39109" y="23.807127" font-size="6.35px" stroke-width=".26458">Morena</tspan></text>
  <text x="180.77847" y="17.892899" style="line-height:1.25" xml:space="preserve"><tspan x="180.77847" y="17.892899" font-size="6.35px" stroke-width=".26458">Bhind</tspan></text>
 </g>
</svg>
