<svg width="274.08mm" height="296.28mm" version="1.1" viewBox="0 0 274.08175 296.27652" xmlns="http://www.w3.org/2000/svg" xmlns:cc="http://creativecommons.org/ns#" xmlns:dc="http://purl.org/dc/elements/1.1/" xmlns:rdf="http://www.w3.org/1999/02/22-rdf-syntax-ns#">
 <metadata>
  <rdf:RDF>
   <cc:Work rdf:about="">
    <dc:format>image/svg+xml</dc:format>
    <dc:type rdf:resource="http://purl.org/dc/dcmitype/StillImage"/>
    <dc:title/>
   </cc:Work>
  </rdf:RDF>
 </metadata>
 <g transform="translate(0 -.0028413)">
  <g transform="translate(62.073,-7.7864)" stroke="#fff" stroke-width=".5">
   <path id="Sagar" d="m16.364 91.695c-4.1974 2.7346-7.952 8.3163-10.099 13.09-1.3466 3.0021-0.43483 5.935-1.0312 9.0207-0.54888 2.8255-3.5339 3.73-2.8577 6.835 2.8104 0.1961 9.8221-5.0655 10.535 0.13507 0.87373 6.4063 0.19441 12.808 1.8485 19.173 1.8592 0.24612 5.6468 2.0592 5.7756 4.2847-0.08448-4.1782 0.0085-5.4221 4.8067-5.1093 1.8772 0.12235 0.69882 1.6684 1.6447 2.2198 1.0724 0.63068 3.8442 0.32597 4.482 1.0653 1.8219 2.1002-1.3129 7.8455 2.8079 9.0157 2.0106 0.56927 4.4359-0.28145 5.7092-1.8815 2.1687-2.7141 4.2-2.6856 7.557-2.5549 0.52336 5.5538-7.9817 8.2197-6.4168 14.749 0.32852 1.3689 3.4616 1.6586 4.4986 2.5487 2.7017 2.3239 3.9657 5.6798 4.463 9.1007 3.6294-1.4414 11.734-1.4736 15.269 0.18114 1.9176 0.89305 3.7043 2.5535 5.9319 2.5962 3.3904 0.0679 2.8676-2.211 3.7323-4.6114-0.69695-2.4e-4 -1.417 0.0282-2.1403-0.0117-0.69366-2.9688 1.1664-5.2743 0.86364-8.4844-5.2805-1.6 5.0096-9.8671 7.089-10.553 0.68175-3.3231-2.007-7.9659-1.9439-11.661-2.9349-1.1709-8.1335-7.7429-8.4669-10.841-1.7148-0.0571-3.4932 0.0727-5.1958 0.0142-0.3316-3.7605-0.96292-7.1744 2.1364-9.8637 4.5492-3.955 1.1093-5.8968 1.2424-10.356-2.071-0.55384-3.7962-1.7391-6.0158-1.402 0.96153-2.884-1.316-4.8129-1.4256-7.6039 2.9272 0.32498 3.6461-1.1233 4.7583-3.4633 1.5635-3.2957 1.1194-2.6714 5.1709-3.0555 0.0992-2.7774 0.25912-5.558-3.3002-5.8129-4.5662-0.33721-5.597 2.3909-9.3002 3.5907-0.06047 0.7146-0.08393 1.4395-0.08393 2.1387-3.7032 1.1999-6.1184 4.8101-9.541 5.9952 0.07545-3.463-3.7611-3.8753-6.2218-2.9982 0.17717 0.81254-0.22776 1.95-0.05143 2.7504-5.3628-0.36914-3.541-7.1374-6.6971-9.2658-2.3449-1.5821-6.2944 0.28088-7.171-3.3777-2.9863 2.2786-3.2867 4.4777-3.4353 8.1776-1.6314 0.36763-3.1691-0.27552-4.7959-0.28835-0.37012-2.8631 0.7839-5.8061 0.44458-8.5483-1.4223 1.7918-2.6732 3.8199-4.5769 5.0604" fill="#e2b584"/>
   <path id="Chhindwara" d="m81.498 268.33c1.0291-4.8623 6.7864-6.7587 7.5717-11.841 0.64846-4.1923 2.0036-11.23 1.0675-15.327-1.4607 0.35867-2.6897 9e-3 -2.9066-1.565-3.062-0.5632-0.32782-13.954-1.5715-16.453-2.4323 0.25009-4.2839 1.0831-6.8921 1.0113-0.98368-2.9046 2.6104-5.2517 4.2932-6.9715 2.8439-2.8967 0.76856-6.0998 1.63-9.4935-0.21956 0.0117-0.42807-1e-3 -0.63857-0.0525-1.1763-1.214-1.1165-3.1061-2.3153-4.2822-1.469-1.4318-3.6614-1.2679-4.9985-2.9886-1.6261-2.0982-7.646-0.0775-10.269 0.50138-5.4275 1.1921-1.3743 4.5738-4.025 7.4236-2.0725 2.2184-12.7 1.2543-15.579 1.1476 0.18622-1.5798-0.9773-2.3162-2.1806-3.1117-7.6748-0.16193-12.607-0.24698-11.774 8.8845 0.25997 2.8569 1.5488 7.3892-0.2156 9.8857-1.6283 2.2932-9.615 1.0804-12.099 1.5172-2.2427 6.4346-3.5472 25.172 6.0537 26.852 0.0486 0.23058 0.1088 0.44816 0.15796 0.67864 2.0043-0.0226 3.5803 1.3579 5.636 1.6182 1.5425 5.402 6.4431 6.7522 2.7268 12.835-3.2779 5.3481-8.4341 9.151-8.0168 15.949 0.1687-0.27862 0.32539-0.55681 0.45823-0.8213 3.8566-1.073 7.0922 3.9705 10.312 5.2124 5.4416 2.1068 11.555-1.6359 17.073-1.5694 0.0958-2.8385-0.69085-5.2506-0.51935-8.0439 3.8205-0.3597 8.3649 1.6591 12.524 1.6865-0.42031-0.78754-0.03533-1.605-0.26138-2.415 1.1758-0.42957 2.6275-0.72647 3.9527-0.63647 0.55012-2.1018 0.18028-6.1302 3.4768-5.9842 3.4932 0.16023 3.1078 5.6391 7.8249 5.5883-0.65832-2.9953-1.0477-6.6915-0.49618-9.235" fill="#e7de69"/>
   <path id="Seoni" d="m101.34 274.75c2.8611-2.1003 5.6798-1.9781 7.2159-5.8 1.0712-2.6566 0.53815-6.7624 3.3729-8.4318 0.19299-4.2542 5.1788-3.1417 6.3738-6.9334 0.49167-1.5836 0.42124-4.0946 1.502-5.4023 1.8157-2.2172 5.4572-0.16361 7.7585-0.34531 0.13818-3.6625-1.2586-9.7837 3.3777-11.143-0.49974-3.2366 0.50731-5.4851 2.3506-6.9432 0.33711-3.1332-3.7416-8.4025-7.1317-8.4578-1.1361-9.3118 5.3376-8.7436 11.898-9.3203 0.20714-5.3834 1.7058-10.148 1.2196-15.458-5.219-0.19272-9.9437-0.28845-15.077-0.47328-0.54872 0.26166-1.324 0.40058-2.4002 0.3956 0.6542-4.5481-8.056-3.9324-10.694-3.1686-3.9502 1.1516-10.027 8.6212-10.761-0.71176-4.1595 2.058-1.875 7.3843-6.1314 9.9258-2.4542 1.4657-6.6061 5.0686-9.5088 5.2085-0.87368 3.3943 1.2138 6.5971-1.6301 9.4935-1.695 1.7202-5.2769 4.0669-4.2932 6.9715 2.6204 0.0712 4.4726-0.74954 6.8921-1.0113 1.2436 2.4985-1.5027 15.89 1.5715 16.453 0.22916 1.5704 1.4458 1.9236 2.9066 1.565 0.74682 3.285-0.79492 6.5304-0.9055 9.7868-0.10765 3.0722 0.33786 6.2136-1.4637 8.9328-1.6437 2.4658-4.3206 4.1149-5.6719 6.7983-1.6181 3.1881-0.82635 7.5626-0.11389 10.886 3.4585-0.0339 7.1006-0.29854 7.4629 4.0493 0.28924 3.4195 7.9074 0.86134 9.5746 0.47953-0.39007-2.7763 0.20968-5.8008 2.305-7.3456" fill="#a3b0a3"/>
   <path id="Balaghat" d="m184.41 228.97c-1.451-1.5554-1.0957-2.0563-2.3253-3.8196-0.51593-0.74572-1.6666-1.0043-2.3334-1.595-1.4652 1.2053-3.5204 1.8895-4.6224 3.4927-1.5687 2.2656-0.1345 5.3673-1.558 7.6008-1.1187 1.7514-5.0143 1.146-6.6875 1.1846-3.836 0.0662-3.9064-4.0762-6.9246-4.2737 0.11506 0.55823-0.14835 1.3693-0.0698 1.9295-1.6795 0.14977-12.983-0.65662-13.584-2.7962-3.2463-0.1122-5.9712 0.15343-8.8111 1.7252-3.1126 1.7332-4.6569 1.2008-4.224-2.6735-1.8426 1.4704-2.8504 3.7066-2.3506 6.9432-4.6357 1.3714-3.2395 7.4804-3.3776 11.143-5.7965 0.45095-6.8997-1.9322-8.8439 4.3641-1.2754 4.1271-6.5976 4.2955-6.7782 8.316-3.5345 2.0865-2.3866 8.1227-5.1022 11.135-3.6512 4.0553-8.7938 3.2208-7.8025 10.467 5.2542-1.2321 8.3341-0.32631 13.118 1.8393 3.3822 1.54 7.7082 1.0312 11.284 0.65981 4.2197-0.44195 5.8672-1.203 8.5743-4.3746 0.58729-0.69318 2.3734-2.3078 3.3791-1.0848 1.6184 1.9514 2.3097 1.6085 4.9389 1.618 0.77191 2.1306 4.5365 1.4059 5.9316 4.4608 2.2909 4.9827 6.5095 9.8888 12.154 10.501 3.5153-5.0172 11.37-0.71857 13.584-8.1699 1.9033-6.3801-0.61929-12.05-0.78513-18.248 5.5922 0.55331 8.4895-3.8916 7.0574-8.8212-0.71607-2.4648-1.8987-4.9663-2.0109-7.5734-0.15824-3.4876 2.6501-2.6289 4.933-3.6317 0.093-2.6544-0.18453-5.3874-0.0915-8.0419 3.1358-0.36056 5.2664 2.03 8.0888 1.2934 0.0525-1.5606 0.0169-3.2146-0.14015-4.7764-2.4413-0.85335-0.82165-5.0542 0.32021-7.2973-1.6211 0.0973-4.2901-0.18592-5.1836-1.1326" fill="#c2f0c2"/>
   <path id="Narsinghpur" d="m47.278 177.71c-1.3813 2.8077-3.708 5.3094-5.261 8.1015-1.3754 2.4517-3.6967 3.4198-6.3049 4.0471-0.41104 5.4555 1.1774 5.2006 5.1005 7.7302 2.4046 1.5544 0.69416 4.6125 1.7363 6.7658 0.98626 2.0213 4.6284 2.456 4.3285 5.1336 4.7781 0.17915 10.302 0.12234 15.007-0.86008 2.4066-0.50641 0.34237-5.599 2.7138-7.0113 1.3875-0.82099 10.398-2.9369 11.37-2.1169 1.639 1.4106 2.4778 2.2498 4.5538 3.1346 2.3264 0.99426 1.9771 3.4291 3.541 5.0398 2.6634 0.6577 6.1978-3.0603 8.4121-4.2065 2.1063-1.1039 4.5619-2.3121 4.9997-4.9231 0.41858-2.512 0.19723-4.6349 2.867-5.9522-0.19949-2.6391 0.97783-7.7053-1.0513-9.7947-1.4086-1.4472-3.6048-0.1913-3.0129-3.1293-3.8629-0.21476-7.8283-0.0556-11.75-0.21814-0.19497-2.3204 0.34997-3.5879 0.8179-5.391-1.8451-0.21023-3.712-0.60279-5.4735-0.62083-1.2269-1.7143-2.9456-1.845-4.8652-1.8426-0.86522 2.3882-0.34232 4.6668-3.7323 4.6114-2.8033-0.0619-4.7445-2.5726-7.4013-3.1081-3.5099-0.71147-7.1269-0.20318-10.668-0.10337-3.9219 0.0585-4.3475 1.5036-5.9276 4.7143" fill="#f99"/>
   <path id="Jabalpur" d="m155.9 157.37c-2.6968 1.2699-9.2592 6.0051-12.172 5.0169-5.0418-1.7107-0.86658-7.9032-1.5858-11.361-2.1191-0.0726-4.3096 0.12767-6.4171 0.0415 0.0802-1.9668 0.30959-3.8922 0.12469-6.017-3.2217-0.11364-6.6033-0.24273-9.7216 0.68129-2.3355 0.69887-6.02 1.3212-6.6216-2.2289-0.0489 3.0323-4.1974 5.7643-6.076 7.715-1.5423 1.6018-3.673 3.4062-4.643 5.432-1.0032 2.0888 0.0376 4.9169-2.681 6.0037-4.0607 1.6112-17.735 5.2593-16.928 11.326-1.2341 0.24839-2.5209 0.19357-3.825 0.0407-0.46798 1.8032-1.0251 3.0713-0.81792 5.391 3.9092 0.16333 7.8868 5e-3 11.75 0.21814-0.61244 3.0128 3.9923 2.6856 3.9959 6.7209-1e-3 3.0052-1.1161 12.067 4.3808 11.031 3.6204-0.68036 4.9638-4.2098 9.1488-4.3799 2.4766-0.10545 8.5955-0.70808 8.0046 3.4197 6.7265 0.0282 1.3366-7.3931 2.9055-11.057 2.0372-4.7558 8.962-4.9101 13.305-5.3218 0.46007-9.6532 12.371-3.5554 18.691-4.9906 0.0289-1.314-5e-3 -2.6615-0.11026-3.9685-1.401-0.36814-2.526-1.3028-4.0002-1.6671-0.47791-3.7529 0.92764-5.1636 4.6219-5.8355-0.16163-1.9173 0.52516-3.7442 0.25629-5.6069-0.0373-0.0117-0.0744-0.0226-0.11195-0.0311-0.53133-0.10713-0.98057-0.27974-1.3361-0.53098-0.0611 3e-3 -0.0992-0.0226-0.13705-0.0419" fill="#abacda"/>
   <path id="Katna" d="m113.91 136.65c1.2302 2.4746 5.6392 3.7769 5.5922 6.8458 0.32014 1.909 3.348 3.9216 5.1641 2.8817 3.2045-1.8484 7.6262-1.4669 11.179-1.3342 0.1848 2.1247-0.0446 4.0502-0.12456 6.017 2.1198 0.085 4.3102-0.11533 6.4171-0.0419 0.71925 3.4582-3.4559 9.6506 1.5858 11.361 2.8628 0.96618 9.5613-3.7394 12.196-5.0305-0.47236-0.38-0.70975-0.94405-0.55698-1.7616-0.53139 0.12599-1.392-0.19667-1.9234-0.0706-0.28145-3.0394-0.80376-6.9373 0.56789-9.6956 8.6935 1.1635 5.9313-13.742 11.76-13.815 1.6864 4.1802 5.1802 3.6537 9.099 3.3011 0.24301-6.5629-1.4998-12.519-1.1946-19.06 1.7437-0.32445 2.6525-0.94858 3.582-1.8804-3.4362 0.92831-7.4748-1.0066-11.026-0.8818 0.80703-5.599-8.1965-3.3486-10.338-1.0406-3.3446 3.6096-8.5141 6.2235-13.696 3.9437-0.65215 1.7882 0.0226 6.9169-3.188 5.8954-5.8073-1.8545-6.716-4.027-13.277-2.0641-4.2743 1.2666-5.1932 0.29667-5.8898 4.7369-0.58485 3.7719-3.6924 3.5054-6.8466 2.579 0.23595 3.3364-0.68254 5.8745 0.91784 9.1148" fill="#fcc"/>
   <path id="Panna" d="m132.59 50.975c-4.3031 0.94927-9.1985 1.0954-10.662 6.3117-0.7433 2.6149 0.21136 5.4351-1.1248 7.9339-1.2811 2.3855-3.4107 4.4472-5.447 6.1856-2.0724 1.7522-6.6779 2.7664-7.219 5.7386-0.73766 4.1234 2.0531 9.5458 0.14976 13.35 0.0622 0.25432 0.0511 0.51253-0.0464 0.75069-0.72904-0.14581-1.4042 0.03666-2.0351 0.36424 1.4394 2.7335 2.2568 6.6649 2.2091 9.7218-0.0381 3.2404-3.8236 7.7687-0.94147 10.5 1.956 1.8601 2.6709 3.368 2.7651 6.0986 0.13196 3.4523 2.4993 6.1616 2.7521 9.5828 3.1541 0.92643 6.2625 1.2051 6.8466-2.579 0.69659-4.4402 1.6278-3.4706 5.8898-4.7369 6.5618-1.9508 7.4702 0.22182 13.277 2.0641 3.2081 1.0216 2.5359-4.1073 3.188-5.8954-2.7159-1.1947-0.10648-5.5264 2.0829-5.7516 3.6967-0.39004 9.3166-1.6413 9.7862-6.2167 0.42124-4.0946-3.5164-6.4394-2.8091-10.905 0.86542-5.4179-6.1955-2.7296-8.5319-6.7163-1.4105-2.4162 0.47677-10.967-1.2162-12.006-3.8029-2.3398-2.7799-4.9816 0.94322-7.4338 3.0261-1.9862 9.2513-2.6559 10.463-6.5957 0.5649-1.8205-1.3803-3.2395-2.1272-4.66-1.4528-2.7574-0.5573-6.6683-0.19696-9.5941-0.2693-0.0117-0.56542-0.05591-0.88759-0.13734-0.13225-1.5877 0.55604-4.0892-0.69793-5.3851-2.1473-2.2426-5.8152 0.32931-5.2057 3.094-1.548 0.55948-3.1968 0.59689-4.8993 0.53887-2.1571 2.002-2.6553 5.5609-6.3052 6.3778" fill="#e7de69"/>
   <path id="Chhatarpur" d="m62.113 89.349c5.0734-3.0504 9.1671-0.29642 8.9764 4.9268-1.4966 0.13987-5.3017-0.83838-4.9539 1.8297 0.37201 2.8998-2.4422 4.961-4.9754 4.6888 0.09748 2.7916 2.3871 4.7202 1.4256 7.6039 2.2199-0.33714 3.9448 0.84815 6.0158 1.402 0.11699-4.2992 5.7016-3.4266 8.1092-5.7852 3.652-3.5769 3.1016-6.8477 3.4695-11.491 1.4235-0.1362 2.9292-0.10453 4.3647-0.24076 0.61624-2.4733 4.0711-6.5428 6.5739-3.3497 3.3799 4.3 2.8636-0.41994 5.9777-0.96336 1.5304 4.7035 7.4324 0.43231 9.1163 3.6314 0.63154-0.31523 1.306-0.51005 2.0351-0.36424 0.0978-0.23821 0.12091-0.49702 0.0463-0.75066 2.1464-4.3076-1.8997-9.8852 0.13083-14.297 0.74582-1.6337 3.2059-2.2901 4.6298-3.1129 2.3028-1.3228 4.322-3.3912 6.0138-5.4057 3.9702-4.7343 0.73429-12.82 7.527-15.494 2.4202-0.94868 5.3178-0.48719 7.5833-1.8203 2.254-1.3202 2.8812-4.0516 4.7366-5.7434-0.0983-0.0091-0.1961-0.0013-0.29396-0.0091 0.1492-1.3571 1.2574-2.372 2.6808-2.5079 0.80549-0.96219 0.3537-0.71772 1.5962-1.2735 0.28559-0.38295 0.74843-1.5848 0.79789-2.0412-0.3857-0.12716-0.70083-0.30671-1.1468-0.41827-1.2538-4.3257 6.1503-3.9654 4.9485-9.3977-2.1878-0.68268-4.7764-3.8835-6.7307-5.2407-2.2326-1.5389-2.3538-3.851-2.5719-6.3786-1.7662-0.1037-8.1538 2.1323-8.0699 4.2008-1.9478-0.53577-4.8564-0.97212-6.874-0.51065 2.812 4.1949-3.814 7.0198-6.8938 7.2795-1.7411 0.14016-2.6819-1.4785-3.7569 1.3377-0.86011 2.253 0.0198 4.7583-0.0698 7.069-4.7459 0.43271-10.405 1.1709-14.985 0.80984-1.2641-3.589-5.4984-5.0598-4.6278 0.11981-1.935 0.17491-3.8694-0.33694-5.8121-0.07601-3.6916 0.48782-1.1252 3.4935-1.4065 5.5933-9.7139-1.0365 3.899-12.397 3.2926-15.1-3.7487-0.13479-6.7562 1.274-6.6519-3.5031-2.6859 0.54555-3.7832-1.9606-6.3883-1.9712 0.40033 2.0397 4.9759 9.7851 1.8227 10.282 0.1252 0.98699-0.15598 2.1547-0.04291 3.1423-0.86383 0.31513-1.7225 0.49508-2.6608 0.55648 0.28031 0.45142 0.73676 0.75872 1.4619 0.83112 0.3893 4.3955 0.54309 8.2634 1.2122 12.632 0.40615 2.6159-0.69398 4.955-1.1742 7.4581-0.60471 3.1595 0.05708 6.4614-0.06956 9.645-2.6795 0.66787-2.2741 4.4368-2.2826 6.6084-3.3313-0.10739-4.4387 2.5632-6.7678 4.3167-2.3766 1.7805-5.2107 2.064-8.0699 2.3364-0.06895 1.7209 0.03702 3.2731-0.19978 4.5857 0.61221 0.71619 1.2032 1.4947 1.904 2.2676-1.8894 1.0435-2.4421 2.8634-2.6091 4.81 1.8394-0.59934 1.5975-1.4821 3.6357-2.7174" fill="#c2f0c2"/>
   <path id="Damoh" d="m79.887 173.42c3.0954 0.0337 6.1885 1.1967 9.2988 0.57981-1.1663-8.7215 18.406-7.8582 19.187-15.578 0.46041-4.5136 6.5974-8.2697 9.3842-11.556 3.6506-4.3006-0.0725-5.8228-3.0035-9.0176-3.4763-3.8043-0.84339-10.026-2.9142-14.542-1.0774-2.36-1.4142-4.3539-1.6952-6.9152-0.29119-2.757-2.341-3.3732-3.4692-5.5343-1.2911-2.4714 1.1241-4.9163 1.5272-7.2558 0.69719-3.9617-0.70487-7.1509-1.6577-10.867-1.1504-4.4537-7.8944 0.08256-9.4678-4.7414-1.9388 0.33467-2.8973 5.144-5.2517 1.9802-2.6439-3.5537-6.3329-1.6184-7.3004 2.3207-1.4357 0.13678-2.9292 0.10453-4.3647 0.24076-0.30954 3.8922 0.3539 6.9853-2.3373 10.23-2.2881 2.7694-6.5668 2.319-8.5378 4.8389-2.4286 3.1202 2.2183 6.397 0.32225 9.882-1.0257 1.8937-3.1897 2.8289-4.1293 4.7304-1.1605 2.3546-0.50217 5.3498-0.2867 7.8285 1.7026 0.058 3.4811-0.0718 5.1958-0.0169 0.33353 3.0982 5.532 9.6701 8.4669 10.841-0.06332 3.6956 2.6257 8.3383 1.9439 11.661-2.0794 0.68549-12.37 8.9524-7.089 10.553 0.29052 3.2109-1.5695 5.5162-0.86368 8.4844 2.4503 0.0922 5.3922-0.46656 7.0421 1.8511" fill="#a3b0a3"/>
   <path id="Tikamgarh" d="m59.4 80.392c2.8597-0.26025 5.6931-0.55598 8.0699-2.3365 2.3291-1.7535 3.4364-4.424 6.7678-4.3167-0.0052-2.1831-0.40912-5.9401 2.2825-6.6084 0.19159-5.211 0.78996-9.8914 1.2921-15.008 0.26392-2.6634-1.1466-4.8465-1.4282-7.4199-0.26224-2.4395 0.36862-4.8643 0.15512-7.3066-0.73738-0.07149-1.1815-0.37967-1.4619-0.83109-1.926 0.11359-3.1979-0.82595-4.9796-1.2233-2.4997-0.56818-3.7769 1.4246-6.1232 1.4494 0.05623-0.55493-0.25432-1.3482-0.17294-1.9044-2.3913-0.36537-1.1878-2.3665-1.5503-3.9177-0.59926-2.569-4.4919 0.14977-5.7855 0.42587-0.09156 1.5258-1.1945 2.6385-2.7963 2.4035-0.21928-0.68768-0.25347-2.0352-0.05736-2.7323 2.7937-1.5202 2.8061-3.6184 2.5508-6.6225-1.2207-0.19356-2.4189 0.04069-3.5432 0.51686 0.04917 1.408-0.17859 2.6589-0.43921 3.9849-0.71938-0.42839-1.854-1.0804-2.773-1.5842-0.9643-5.3345 3.1118-5.9528 7.067-6.3072-0.18565-2.3699-2.427-4.0802-2.5853-6.4024-0.18085-2.5173 3.1669-3.9685 1.393-6.5496-3.0564 1.4113-4.2816 4.6281-7.5044 4.7233-0.03475 1.437 0.06866 2.9402 0.0085 4.3786-0.99411-0.07036-2.1499 0.27212-3.1434 0.21363-0.21956 4.6727-0.80506 4.7032-5.6075 4.5258-0.49965-4.868-2.3929-5.7623-7.0356-3.3601-1.3306 3.075-2.7979 6.1079-6.3829 6.2958-0.67019 2.8441 3.4791 1.7557 5.1251 2.1356 5.0115 1.1357 2.9659 8.0628 4.656 11.384 5.5527-1.3704 3.0095 10.526 4.0169 13.417 1.164 3.3121 4.8954 1.2521 6.0709 3.3861 2.5116 4.5295-0.64182 12.251-0.193 17.318 3.4387 0.51896 6.3741-2.0268 9.2372-1.7598 0.0056 1.484 1.0229 2.0194 1.9515 2.9397 1.5344 1.5142 0.80781 3.981 0.74798 5.8731-1.634-0.1475-2.6936 0.86487-2.2528 2.51 2.0241 0.59309 3.1818 1.6854 4.2508 2.9541 0.2221-1.3609 0.11557-2.9256 0.17237-4.6456" fill="#abacda"/>
   <path id="Mandla" d="m145.13 174.32c-4.855 0.45074-7.0351 0.14779-7.2832 5.4476-4.1002 0.3866-9.8165 0.50217-12.587 4.0943-2.3356 3.0295 2.0582 10.343-1.2354 11.889 5.1328 0.1848 9.8578 0.2806 15.077 0.47332 0.47395 5.311-1.0133 10.062-1.2196 15.458-6.5725 0.57757-13.047-3e-3 -11.898 9.3203 3.3898 0.0557 7.4685 5.3246 7.1317 8.4578-0.43277 3.8742 1.1113 4.4065 4.224 2.6734 2.8399-1.5717 5.5642-1.8494 8.8111-1.7252 0.58898 2.1403 11.905 2.9456 13.584 2.7962-0.078-0.56015 0.1961-1.3841 0.0703-1.9294 1.5955 0.11272 2.0702 1.4738 2.8501 2.586 1.3617 1.9526 3.7312 1.6689 5.7951 1.6221 2.7116-0.0559 5.1938 0.18143 5.5233-3.0984 0.38718-3.8106 0.60804-7.2029 5.2113-8.8173 1.9495 0.37392 1.974-9e-3 4.6665 5.3738 0 0 7.342 2.0507 5.8174-0.0667-0.62203-0.48506 4.0765 1.5701 4.8502-0.59436 0.93646-2.6202-1.8257-9.6416-0.21277-11.812 1.0722-1.4427 5.1248 0.46926 4.3379-0.6753-0.4511-0.65603-2.7519-1.6658-2.9857-4.2288-0.40348-4.419-2.8377-7.3227-6.8819-0.9047-1.9108 3.0324-5.3046 0.17577-3.9547-0.4322 3.1728-3.027 2.8215-4.5747 4.4099-6.3394-5.3718 0.15881-6.4055 0.26195-6.698-5.549-3.463 0.41456-5.0019-2.5836-7.5683-4.1909-3.1479-1.9694-7.0885-0.16814-10.162-2.35-3.1171-0.33358-5.1229-0.25093-5.5631-2.9651-0.83004-5.1186 1.742-5.4504 1.5558-6.0737-1.0806-3.5865-4.2257-5.5069-6.95-7.793-2.8278-0.0602-5.831-0.90878-8.7153-0.64723" fill="#e2b584"/>
  </g>
  <g fill="none" stroke="#000">
   <g stroke-width=".5px">
    <path d="m2.5282 158.15h18.117l2.2646-1.6176 2.5881-1.6176 1.9411-0.32352 2.2646-2.2646 6.1468 1.9411 5.4997 0.32352h4.5292l5.1762-1.294 2.5881 2.5881 2.2646 0.64702 3.8822 4.2057 5.4997 1.9411-0.32352 2.2646 3.8822 5.4997 6.1468-1.2941 1.2941 0.32352 4.8527 3.2351 4.5292-0.97054 4.8527-1.6176 2.9116-2.2646h5.1762l1.9411-1.9411 8.4114-1.9411 6.4703 4.5292h2.2646l3.5586 1.294 3.2351 0.64704h3.2351l3.8822-0.64704h2.5881l2.2646-0.3235 2.2646-1.2941 2.9116-2.5881 2.2646 2.2646h2.5881l1.6176-2.5881 4.2057-1.6176 5.4997 0.64703 2.5881 0.97054 2.5881 2.2646 5.1762-0.97053 2.5881-0.32352h7.7643l2.5881 0.64702 6.4703-2.5881"/>
    
    <path d="m133.37 184.65-0.24422 2.9626 1.9538 2.0738 0.65314 3.2968h1.2921l-2.0304 2.4631-0.18459 2.4631 0.55375 2.0153-1.4767 8.061 1.4767 3.5827-1.1075 7.1654-2.215 2.2392-1.1075 3.8066v8.061l-1.1075 1.5674-0.55376 1.7914-0.73834 0.67175-1.8458 0.89567-1.2921 0.89568-0.18459 1.5674v0.67176l-1.4767 2.687-1.6612 2.4631 0.36917 0.44783v1.7914"/>
   </g>
   <path d="m122.54 248.29 2.9228-0.46149 1.8459 0.61531 1.9998-0.30765 2.1536 0.92297 1.5383-0.15383 1.6921 0.46149 1.5383-0.46149 1.9998 0.46149 1.5383-0.46149h2.6151l1.3845-0.30766 2.1536 0.92298 1.2306-0.46149h0.76913l1.6921-1.5383 2.6151-0.76914" stroke-width=".5px"/>
   
   <path d="m106.4 115.77 2.3785 2.0697 1.7839 1.1827 0.29732 2.0697 2.0812 1.774 3.865 1.774 2.3785 2.9567 7.1354 2.9567 1.7839 2.0697 4.757 2.0697 1.7839 2.3654 4.1623 2.3654h3.2704l3.5677 1.4784 2.0812 0.88702 0.2973 1.1827 2.0812-0.59134 0.89196 0.59134 0.89191 1.774 2.3785 0.88702 0.89192 2.0697 1.1892-1.1827 1.4865-0.29567 0.29733 2.661 1.7839 0.59135 3.865 2.6611 1.4865 2.0697 1.1892-0.29568 2.3785 2.6611 14.271 6.5048 4.4596 1.1827" stroke-width=".5px"/>
   <path d="m2.5902 158.12 1.4076-2.6656 1.4076-0.59236 5.2785-4.4427 1.7595-0.29619 1.4076-2.6656 4.5747-3.258 2.8152 0.29617 2.4633-0.29617 2.8152 0.88853 1.4076-2.6656 6.6862-2.9618 8.0938-2.9618h2.4633l2.1114-2.0733 8.4457-3.5542 2.8152-0.59237v-2.3694l1.7595-0.88855 1.7595-2.0733 3.519 0.59236 4.5747-2.3694 8.7976-3.5542 2.1114 1.4809 2.4633-0.29618 5.6305-0.29618 1.4076-0.88855h4.9266l7.0381-2.3695 3.8709-1.4809" stroke-width=".5px"/>
   <g stroke-width=".5px">
    <path d="m106.4 115.77 1.3045-0.20327 2.1741-2.6424h3.4786l6.5224 3.4555 2.609 0.40653 0.65224 1.2196 5.2179 2.2359 4.3482-0.20327 2.609 1.0163 3.696-0.20327 5.0005-1.0163 5.6527-2.2359 2.3916-1.0163"/>
    <path d="m152.11 116.6 2.8993 6.3824 4.4605 4.0422 4.9066 3.1912 1.5612 3.8294 3.5684 3.8294 4.9066 0.21274h3.3454l1.1151 1.0637v1.9147s-0.89211 4.2549-0.44606 2.9784c0.44606-1.2765-1.7842 2.9784-1.7842 2.9784l3.3454 3.8294 1.1152 5.5314 2.8993 4.2549 3.5684 3.6167"/>
    <path d="m152.11 116.59 2.5598-0.91616h2.3465l6.6128 0.30538 1.0666-0.91617 1.9198 0.3054 5.3328-1.2216 4.053-0.30538 6.3995-0.30539 6.3995-0.45808 8.5326-0.1527 3.6264-0.15269h4.6929l5.5462 0.30539 1.9198 1.0688 3.1998 2.9012"/>
    <path d="m216.32 117.05-1.6084 0.44121-0.80418 1.5442-1.8094 3.3091v2.206l-2.4125 3.0885-2.8146 3.9709-1.4073 2.6473-5.0261 4.8533-1.8094 1.7648-1.0052 1.7648-0.40209 1.7648-0.60313 2.4267-1.2062 2.8679-2.2115 1.9854-1.4073 1.7648v2.206l-1.0052 2.206-1.6084 2.6473-0.80418 2.4266-0.80418 1.3236"/>
    <path d="m187.61 164.31 2.1485 3.7109 1.9531-0.39063 3.9063 0.97657-0.39059 2.3438 3.3203 2.7344 1.5625 1.7578 0.97657 3.3203 2.9297 1.9531-0.39059 1.5625 1.3672 2.1484 4.1016 4.6875v2.5391l1.9531 1.7578 0.97657 0.97656-0.39063 1.3672-0.19531 0.78126v1.1719l2.1484 1.1719v1.9531"/>
   </g>
   <path d="m198.41 70.826v1.2868l-1.7716 2.15-1.9351 2.7573-1.2901 2.1085-0.64503 1.1353-2.3651 2.4329-1.075 3.0816-4.0852 6.4877-4.0852 1.1353-0.64504 0.48658-0.86003 0.32438-1.9351 1.1353-2.5801 0.32438-3.6552 0.64876-9.0304 4.5414-4.3002 5.6767-1.075 1.4597-2.1501 1.4597-1.075 1.6219-0.64503 1.4597-0.21501 1.9463-0.86005 2.1085" stroke-width=".5px"/>
   <g stroke-width=".5px">
    <path d="m198.41 72.113 2.1182 7.1377 2.7411 2.5775 0.99677 1.3879 1.1214 5.7498 3.1149 5.155 2.6165 9.1204 0.24919 7.1377 1.7444 3.7671"/>
    <path d="m159.62 53.667-6.1736 6.0997-1.9403 1.7428-1.7639 1.5975-2.9986 2.0332-1.0583 0.87138-0.17641 1.1618-0.70553 1.0166-0.52919 1.0166-2.1166 0.72615-0.35278 2.7594v1.5975l-0.35277 1.4523-1.2347 1.888-0.17639 1.7428-0.52916 1.3071-0.35278 1.3071-1.7639 1.7428-1.5875 1.3071-2.6458 1.4523-2.6458 1.0166-1.5875 0.72615-0.70555 2.0332-1.7639 1.5975-0.35278 2.1785-1.9403 1.0166-0.35278 0.58092-0.17638 0.72614-0.35278 1.1619v2.0332l-1.2347 0.58092-0.35278 0.58092-0.70555 1.0166-0.52916 1.5975-0.52916 1.1618-1.2347 1.0166-1.7639 0.72616-0.70555 1.888-2.8222 2.6141-3.5278 2.1784"/>
    <path d="m111.28 60.7 2.6847 3.3559 4.866 4.866 2.6847 2.8525 1.8457 0.67118 2.8525 3.3559 0.33559 1.1746-0.50339 1.5101v1.1746l0.83898 3.5237 0.50338 2.0135 0.67118 1.1746 0.83898 1.8458"/>
    <path d="m111.28 60.7 5.076-1.251 0.46145-1.0008 3.9224-1.251 4.6146 2.7522 2.3073 0.2502 1.3844 1.5012h2.0766l2.0766-0.2502 3.2302 1.7514 7.8448 6.0048"/>
   </g>
   <path d="m157.1 56.231-1.3229-0.33073h-0.66146l-1.3229 0.4961h-0.9922l-0.4961-0.16537-0.99219-0.16537h-0.66147l-0.66146-0.33073-0.9922-1.1576-0.4961-0.4961-0.82683-0.4961-0.99219-0.82683-1.4883-0.9922-0.99219-0.4961-1.1576-0.33073-1.1576 0.16537h-1.1576l-1.6537 0.16537-0.82683 0.16537-0.9922 0.33073h-1.1576l-0.82683-0.16537-0.82683 0.9922-0.4961-0.33073-0.16537-0.82683-0.66146-0.82683-0.33073-0.4961-1.1576 1.819 0.33073 1.819v0.9922l-0.33073 1.4883-0.33074 0.66146-1.6537 1.3229-1.3229 0.82683-0.66146 1.1576" stroke-width=".5px"/>
   
   
   <path d="m200.9 263.93-0.57088 2.7514-0.8373 1.3397-3.4453-0.36682" stroke-width=".5px"/>
  </g>
 </g>
 <g transform="translate(0 -.0028413)" fill-rule="evenodd" stroke-width=".3308">
  <ellipse cx="3.2394" cy="157.2" rx="3.2394" ry="3.4084"/>
  <ellipse cx="122.43" cy="248.14" rx="3.2394" ry="3.4084"/>
  <ellipse cx="199.59" cy="267.77" rx="3.2394" ry="3.4084"/>
  <ellipse cx="213.77" cy="200.97" rx="3.2394" ry="3.4084"/>
  <ellipse cx="187.6" cy="164.7" rx="3.2394" ry="3.4084"/>
  <ellipse cx="215.95" cy="116.44" rx="3.2394" ry="3.4084"/>
  <ellipse cx="106.89" cy="115.08" rx="3.2394" ry="3.4084"/>
  <ellipse cx="152.69" cy="116.44" rx="3.2394" ry="3.4084"/>
  <ellipse cx="197.96" cy="72.266" rx="3.2394" ry="3.4084"/>
  <ellipse cx="111.52" cy="60.542" rx="3.2394" ry="3.4084"/>
  <ellipse cx="159.51" cy="52.089" rx="3.2394" ry="3.4084"/>
 </g>
 <g transform="translate(0 -.0028413)" font-family="sans-serif" font-size="3.5278px" letter-spacing="0px" stroke-width=".26459" word-spacing="0px">
  <text x="7.4964609" y="164.73746" style="line-height:1.25" xml:space="preserve"><tspan x="7.4964609" y="164.73746" font-size="6.3501px" stroke-width=".26459">Bhopal</tspan></text>
  <text x="150.8138" y="43.027969" style="line-height:1.25" xml:space="preserve"><tspan x="150.8138" y="43.027969" font-size="6.3501px" stroke-width=".26459">Chhatarpur</tspan></text>
  <text x="66.587296" y="60.226048" style="line-height:1.25" xml:space="preserve"><tspan x="66.587296" y="60.226048" font-size="6.3501px" stroke-width=".26459">Tikamgarh</tspan></text>
  <text x="208.5817" y="70.809486" style="line-height:1.25" xml:space="preserve"><tspan x="208.5817" y="70.809486" font-size="6.3501px" stroke-width=".26459">Panna</tspan></text>
  <text x="188.73778" y="123.72665" style="line-height:1.25" xml:space="preserve"><tspan x="188.73778" y="123.72665" font-size="6.3501px" stroke-width=".26459">Katni</tspan></text>
  <text x="85.990257" y="109.61541" style="line-height:1.25" xml:space="preserve"><tspan x="85.990257" y="109.61541" font-size="6.3501px" stroke-width=".26459">Sagar</tspan></text>
  <text x="134.49765" y="105.64661" style="line-height:1.25" xml:space="preserve"><tspan x="134.49765" y="105.64661" font-size="6.3501px" stroke-width=".26459">Damoh</tspan></text>
  <text x="108.92104" y="177.08479" style="line-height:1.25" xml:space="preserve"><tspan x="108.92104" y="177.08479" font-size="6.3501px" stroke-width=".26459">Narsinghpur</tspan></text>
  <text x="219.60611" y="204.42534" style="line-height:1.25" xml:space="preserve"><tspan x="219.60611" y="204.42534" font-size="6.3501px" stroke-width=".26459">Mandla</tspan></text>
  <text x="185.43037" y="279.12674" style="line-height:1.25" xml:space="preserve"><tspan x="185.43037" y="279.12674" font-size="6.3501px" stroke-width=".26459">Balaghat</tspan></text>
  <text x="102.30639" y="257.3425" style="line-height:1.25" xml:space="preserve"><tspan x="102.30639" y="257.3425" font-size="6.3501px" stroke-width=".26459">Chhindwara</tspan></text>
  <text x="133.68849" y="241.85693" style="line-height:1.25" xml:space="preserve"><tspan x="133.68849" y="241.85693" font-size="6.3501px" stroke-width=".26459">Seoni</tspan></text>
  <text x="161.39722" y="173.11601" style="line-height:1.25" xml:space="preserve"><tspan x="161.39722" y="173.11601" font-size="6.3501px" stroke-width=".26459">Jabalpur</tspan></text>
 </g>
 <g fill="none" stroke="#000">
  <path d="m169 78.305 2.4765 2.286-0.57152 1.7145 2.4766-0.1905 0.9525-0.76202 1.3335 0.76202v0.95251l-0.57151 0.381-1.7145 0.57151-1.6657 1.2469 0.67699 0.40619 1.0832 0.13541h3.5204l0.81238 0.40619v0.9478l-0.40621 0.67699 1.2186-0.67699 2.708-1.8956-0.67699-0.1354-0.94781-0.81239-0.40618-1.2186 0.54157-0.8124 1.0832-0.5416 1.0832 0.4062 1.2186 1.6248 1.354 2.9788 1.8956-1.2186 3.9266-2.8434 2.8434-5.2806v-1.2186l-0.13539-0.677h-1.8956l-0.5416-0.54159-0.81238-1.2186-2.031 2.031-0.81238-0.2708-0.40621-0.9478 1.0832 0.13541 1.7602-1.354-0.13539-0.54159-0.40621-0.4062-0.81238-0.67699 1.2186-0.2708h0.94777l0.67699-0.8124 0.5416-0.27079-0.13539-0.67701-0.67699-0.13539-0.27079-0.94779 1.0832 0.13539v-0.81239h1.0832l1.0832-0.4062h1.7602l0.27082-0.81239 1.354-0.13541 0.40621 0.40621 0.13539 0.81239 1.4894-0.81239h0.81242l-0.67699-1.354-0.94781-0.5416-0.67699-0.27079-0.81241-0.2708 0.4062-1.7602h-1.7602l-0.81238 0.13539-0.27081 0.40621-0.1354 1.2186-0.9478 0.2708-0.94778 0.4062-0.67699 1.2186h-1.0832l-0.5416-0.40619-0.27082 0.40619-0.5416 0.5416-0.54156 0.27079-0.27082 0.677 0.67699 0.54159-0.13539 0.40621-0.13539 0.40619-2.768 0.29708-0.54985 0.21995-0.54986 0.7698 0.21993 0.98976-0.65982 1.3197-1.0998 1.8695-0.98974-0.43988-0.76979-0.21995-0.10999-0.43989-0.10997-0.65983-0.43989-0.65984-0.98975-0.21994h-0.98975l-0.43989 0.54986-0.32993 0.65983v1.4296l-0.65982 0.32992v0.87978l0.21997 0.98975-0.76982-0.87978-0.76982-0.21994-0.87978-0.21995-0.98975-0.21994-1.8695 0.10997-1.9795 0.43989-1.3197 0.87977z" fill="green" stroke="none" stroke-width=".32767px"/>
  <path d="m186.27 181.41-0.91444 1.486h-0.34292l0.1143 0.80014 1.1431-0.22861 0.80014 0.68584 0.45723 0.45722 1.2574-0.11431 0.45722 0.80014 1.2574-0.22861-0.57153 0.57153-0.45722 0.68584-0.11431 0.34292 0.91445 1.3717 1.9432-0.11431-0.22862 0.80015 0.11431 0.45722 0.68584 0.45722 0.45722-0.45722 0.91448-0.68584-0.11431 0.91445 4.0007 0.11431 0.45723-0.57153 1.0288-1.1431 2.0575 0.1143 1.0288 0.68584 1.0288 1.1431-0.34292 0.91444-0.57152 0.57153v-1.7146l-0.57153-0.91445-1.0288-0.34292h-0.68583l-0.91445 0.57153-1.0288 0.68584-0.22861 0.68583-1.1431 0.45722h-0.80014l-0.68584-0.34291-0.91444-0.22861h-2.0575l-0.34292 1.0288h-0.68583l-0.11431-0.45723-0.80014 0.57153h-0.68584l-0.22861-0.34291 1.0288-0.80014-0.80014 0.22861-0.34291-0.57153-0.57153-0.34292-0.54856-0.45952v-0.59618l-0.4968-0.59617-0.0994 0.69554-0.49684 0.0994 0.39745 0.99362h-1.2917l0.19874-1.5898h-0.69555l-0.69552-0.29809 1.1923-0.79489-0.29807-0.19874-0.49684-0.29807-0.4968-0.0994-0.69552 0.69552-0.19874-0.89425h-0.99361l-0.0994-0.7949-0.2981-0.59617-0.89425-0.99362 0.99361 0.0994v-0.89426l-0.0994-0.99363 0.29809 0.39745v-0.79488l-0.69554-0.49682v-0.69553h0.49681l0.19873-0.69554-0.19873-1.093-1.093-1.7885 1.093 1.093 0.4968 1.2917 0.19874 0.29809 0.49681-0.59618 1.2917-0.29808h0.99362l1.2917-0.49682 0.0994 1.4904-0.49683-0.29809-0.19871-0.19872h-0.2981v0.49681l0.69555 0.39745 0.89425 0.69553-0.69554-0.0994h-1.093l-0.29809-0.29809h-0.89426z" stroke-width=".29605px" fill="#85c5e3" stroke="none" />
  <path d="m56.332 208.67 2.7956 6.6078v2.7956l0.25415 1.0166-0.25415 1.5249 0.25415 1.5249 0.5083 2.2873 2.0332 0.25415h2.2873l1.2707-1.5249 2.0332 1.779 2.2873 0.76243 2.5415 3.3039 2.5415 3.3039h2.2873l1.2707-0.25415 3.0498 1.2708h2.0332l8.3869-2.7956 1.2707-3.0498 1.2707-1.779 2.2873-1.2707 3.5581-1.5249 3.8122-1.5249 2.2873-1.2707h2.7956l2.5415-1.0166 3.5581-2.5415 9.1493-14.741 2.0332-6.0995v-1.0166l-5.3371 0.25415-10.42 2.0332-4.5747 0.76245h-4.0664l-1.2707 0.25415-1.2707 0.76243-11.945 2.2873-12.199 2.5415h-1.2707l-1.0166-0.5083h-2.0332l-3.8122 1.0166-1.5249 0.76244-1.779 1.2707z" fill="green" stroke="none" stroke-width=".30752px"/>
  <path d="m201.8 225.39 1.9213-2.6898h2.1134l0.96064-1.3449-0.38427-0.38426v-3.4583l-0.38427-0.76851h-3.6504l-0.96063 1.1528-2.6898 0.19213-1.3449 1.7292-0.7685-1.7292h-1.7291l-0.38423-1.1528h-2.8819l-1.9932 0.60826-2.3456-1.5079-1.3403 0.83771 0.50262 0.33508-1.0052 1.5079 0.83769 0.33509-2.178 1.5079-1.6754 1.0052-0.16757 0.83771-2.3456 1.5079-1.1728 0.33509 0.83772 0.50262-8.3771 5.1938-8.7122 4.8587-3.0158 1.843-0.67019 1.843-0.33505 2.8482-0.16757 4.1885v1.1728l-0.83768 1.843-3.0158 1.6754-7.7069 3.3508-5.0262 0.50262-9.5499 2.0105-8.042 1.3403-4.8587 0.83771-1.843 1.1728-0.50262 1.5079v1.5079h2.0105l4.1885 0.33509 3.3508 0.33508 5.864 1.1728 1.6754 1.3404v1.0052l0.67018 0.33509 1.3403 0.67016 1.0052-1.0052 1.0052-0.8377h1.843l2.178 0.16753v2.8482l-0.50264 1.6754-1.1728 0.50262 1.0052 1.1728h2.0105l1.6754 0.50262 1.6754-0.16755 1.3404 0.67018v1.1728l0.16753 1.3403-1.6754-0.33509-1.5079-0.50262-1.3403 1.843-1.1728-0.50263-0.83771-0.16753-1.3403 0.67016-1.0053 1.3403-1.0052-0.83771-1.843-0.50262-2.178 0.33508-1.6754-0.33508-3.0157-1.843-3.5184-1.6754-1.6754-0.50263-4.021-0.83771-1.5079-0.16755-2.3456 0.83771-1.843 0.67018-1.843 1.5079-0.16754 2.0105 0.16754 1.5079 2.6807 1.3403 1.843-0.33509h1.3403l1.6754 2.5131 2.5131 0.67016 5.3613 2.8482 1.5079-0.83771 1.5079-1.1728 1.6754-0.33509 0.50262 1.6754h1.843l1.3403 1.1728 1.6754-1.0052-1.3403-1.843-0.33509-0.50262 0.67017-1.0052h2.178l0.83771 0.33509 1.0052-0.33509 1.3403 0.16754 1.0052-0.33507h1.3403l0.50264 0.33507 0.33507 1.0053 2.0105 2.178h1.843l2.3456-0.16755h2.178l1.5079 0.33509 1.843-0.83771 1.0052-1.1728h2.0105l2.0105-0.16753 1.1728-0.16754 1.843 0.50262 1.1728 0.67016 0.33508 1.0053 3.6859-0.50262v-1.1728l0.3351-1.843 0.83772-0.16755 0.83769-2.0105 0.16755-0.83769 1.1728-0.83771 1.5079-0.50262 0.16757-1.0053 0.16753-1.1728 2.178-2.6807 1.0052-1.3403 1.5079-1.1728 1.0052-3.5184 0.83772-2.8482-2.5131 1.843-1.5079 1.5079-2.5131 1.5079-2.5131 0.67018-2.178-0.16755 0.33509-1.0052v-1.3403l-0.33509-0.50262-0.83768-0.50264-1.1728-0.33507-0.83769-0.67017-0.67018-0.16754-0.50263-2.0105-0.50262-0.16754-0.67016 0.16754-0.83772-0.33509 0.3351-1.3403 0.33509-1.5079 1.6754-0.50262 4.021-1.5079 3.1833-0.83771 2.5131-1.0052 4.021-1.3403 2.8482-3.0158-1.3403-13.738-0.50262-4.6912v-1.6754l1.0052-1.843 1.5079-2.178 0.50263-1.1728v-0.50262l-0.16757-1.5079 0.50262-1.1728h0.83772l1.0053-0.16754 0.50262-0.67017 0.67015-0.50262 1.1728 0.67017 2.0105-0.16755h0.50263l0.50262 0.33508-0.16753 0.50263-1.1728 0.83771-0.33509 0.67017 2.8482 1.0052 0.83772-1.1728 1.3403 1.3403-0.67019 1.3403 2.0105 0.67018 2.0105 0.67017 1.0052 0.33507 1.0052-0.33507z" fill="green" stroke="none" stroke-width=".35351px"/>
  <path d="m197.04 231.5h-1.6784l-0.69937-0.97909 0.41961-1.6785 0.55951-1.2588 5.1752 1.2588 0.83923 1.6785 1.9582 0.55948-1.3987 1.3987 1.2588-0.13987 0.97912-0.55949 3.4968 1.3987 0.5595-0.97911-0.27975-0.41961-0.55951-0.69936 0.1399-0.9791h1.119v0.55949h0.97908l0.69937-0.83923 0.97909-0.41961 0.27976 0.83922 0.83922-0.69936 0.97909-0.13986 0.13987 0.55948-0.9791 0.69936-0.69936 0.9791v1.2588l0.13989 1.9582 1.2588 0.55949 0.69934-1.8183 1.7236-0.01-0.83268 0.92516 1.3878 0.55511 1.0177-0.37007-0.64759 1.0177-0.46259 0.83265-0.37009 0.37007-0.0925 1.1102 1.2027 0.0925v0.83265l-0.0925 0.74014v0.74012l0.74015 1.1102-0.18505 1.0177 0.18505 0.46257 0.27754 0.55511 0.83265-1.0177-0.37007-0.27756-0.27757-0.18503-0.18501-0.83265v-0.55511l0.55511 0.37008 0.83264 0.37006 0.92517-0.18503 0.27754-0.37007-0.0926-0.46259v-1.8503l0.74015 0.0925 0.83264-0.27755 0.37007-0.74014v-0.37006l-0.37007-0.5551-0.83264-0.27755 0.37007-0.74014h-0.55512l-1.2027 0.37006 1.0177-1.1102-0.18505-0.0925h-0.83264l-0.27757-0.92516h-0.92517l-0.6476-0.46259v-0.5551l-0.55511-0.18503 0.74012-1.0177 0.74015 1.1102 0.64761-0.18504-0.74013-0.83265-0.27753-1.0177 1.3878 0.74013 1.0177 1.1102 1.3878 0.37007 0.46259 0.46258 0.37006 0.92518 1.7578 0.18502-0.55511 0.64763-0.37006 0.64761h-0.5551l0.5551 1.2027-0.27756 0.74013-0.46259 0.64761-0.27754 0.92518 1.1102-0.5551 1.0177 0.37006-0.83265 0.5551-0.0925 0.64761v0.46259l-0.0926 0.92517-0.74012-0.37007-0.83265-0.83265-0.27754 0.46259-0.0925 0.64761 0.92517 1.1102-0.18504 0.74013-0.74013 0.37007-0.46258 0.18504-0.64763-0.0925-0.37006-0.46259v-0.64762l-0.37007-0.46258h-0.83264l0.0925 0.83265 0.0925 0.5551 1.4803 0.83265v0.37006h-0.64763l-0.27754 0.74014-0.46259 1.1102-0.92517 0.46258-0.92517-0.18503h-1.1102l-0.83268 1.1102 0.64763 0.46259 0.18505-0.74014 0.37006-0.18504 1.0177 0.74014 0.74015 0.37006 0.55511-0.27755 0.18502-0.18502h0.83265l0.5551-0.37008 0.83265-0.83265 0.74015-0.92517 1.0177-1.6653 0.64763-1.6653 0.55511-0.46259 1.8503-0.27755 0.64759 0.5551 0.0926 0.74014v0.37006l1.6653 1.5728v2.1279l-0.0925 1.1102 1.2952 2.1279v1.8503l0.0925 1.3878 0.37007 0.92516v0.92518l0.46257 0.92516h1.8503l3.1456-3.1456-0.18505-0.46259-0.46257-0.5551-0.18502-0.64762 0.27754-0.5551 0.74012 0.18503 0.18505-0.83265v-0.55511l-0.92517 0.27756-1.1102-0.18503-0.6476-0.5551v-0.92518l0.46258-0.64761 0.46259-0.37007 0.37006-0.64762 0.83264 0.27755v-0.46252l-0.46257-0.27755-0.37007-0.64763v-1.1102l0.37007-0.5551 0.46257-0.37006v-0.64762h-0.74011l-0.27758-0.64762-0.37006-0.46258 0.37006-0.46259 0.27758-0.46259-0.74016-0.5551-0.27754-0.5551 0.18505-0.92516v-0.83265l-0.64763-0.0925 0.18505-1.0177 0.185-0.92518v-0.37006l-1.0177-0.18504-0.55508-0.0925-0.5551-0.46258-0.64763-0.37007h-1.2952l-0.6476-0.5551-0.92517-0.18503-1.2027-0.74013-0.46258-0.74014-0.37007-1.3878-0.27754 0.55511-0.18504 0.74013-0.55511-0.64761-0.0925-0.74014h-1.0177l-0.18505 0.37007-0.46259-0.18503h-0.6476l-0.18504 0.74013 0.18504 0.5551-1.2027-0.46258-0.74012-0.5551-0.55511-0.46259-0.46259-0.18504-0.0925-0.74013-0.74011-0.18503-0.37007-0.18504-0.27757-0.5551-0.18501-0.64761 0.6476-0.46259 0.46259-0.5551-0.64761-0.46258-1.2952-0.18504-1.2952-0.18503-0.64763-0.55511v-0.74013l-0.18505-1.0177-1.6653-1.3878 0.18504-0.83265 0.0925-0.74014h0.46258l-0.37006-0.83265-0.92517-0.0925-0.83265-0.55509-0.74011-0.27755-0.83265-0.64762-0.55511-0.64762-1.0177-0.18503-0.46257-0.18504-0.74013-0.18503h-0.92518l0.46259-0.83265v-0.83265l0.27754 0.83265 0.74013 0.0925 0.37008-0.46259 0.0925-1.1102 0.18505 0.46259 0.92517 0.46257 0.83265 1.2027 0.27757-0.92517 0.18502-0.74013-0.37007-0.5551 0.83264 0.27755h0.83265l0.37009 0.5551 0.55508 0.18502 0.27757-0.37006v-1.1102l-0.74015-1.0177 0.83264-0.0925h1.6653l0.83265 0.83265 0.27754 0.18503 0.18505-0.64761 0.92516-0.27755 0.27754-0.64762 0.74015-0.37007 1.0177-0.27755 0.92516-0.37007 0.46259-0.18503 0.3701 0.83265v0.64762l0.18501 0.74013v0.37007l0.37006 0.55511 0.18504 0.64761 0.46259 0.46259h0.37007l0.83264-0.37008 0.74016 0.37008h0.46257l-0.18503 0.64761-0.27754 0.5551-0.46259 0.74014-0.3701 0.18503v1.1102l0.83269-0.37006 0.74011 0.18503 0.0926-0.74013 0.18502-0.83266h1.1102v0.46259l-0.37006 0.37007-0.18505 1.6653h1.4803v1.6653l-0.64764 0.18504-0.27753 0.83265-0.46258 0.92517-0.0925 0.83265 1.0177-0.27755 0.18504 0.92516 0.0925 1.1102v0.64763l0.0925 0.27754-0.0925 0.37007-0.18501 0.64762 1.3878 0.27755-0.0925 1.2952v0.92516l0.6476-0.27755 0.92517-0.64761-0.18502-0.74014-0.74015-1.3878 1.2027 0.92517 0.37007 0.37007 0.18503-0.64762-0.27756-0.55511 0.92517-0.18503-0.74013-1.3878-0.37005-0.64761 0.46257-0.74014h1.0177l0.18505-0.64762 0.74012-0.27755 0.55511-0.27755 0.74012 0.74013 1.5728 1.1102h0.37007l-0.74012-1.1102-0.27757-0.5551-0.46259-1.0177-0.37006 0.0926-0.46258 0.37006-1.0177-0.0925-0.46255-0.0925 0.46255-0.37007 0.92518-0.74014 0.0926-0.0925v-0.55512l-1.1102-0.27755 1.0177-0.27755 1.0177-0.27755 1.7578 0.92518-0.18502 1.1102v0.64762l0.92518 1.1102 0.46258-0.46259 0.46258-0.83265 0.55508 0.92517 0.64763-0.0925 0.83265-0.5551 0.37006-0.46259 2.0354 1.2952 0.46259-1.1102 0.6476 0.46259 1.0177-0.18503h0.92518l1.9428-0.37007 1.8503-0.83265 2.683-0.18503 1.0177 0.46258 0.64761 0.83265 1.1102 0.0925-0.64764 0.5551-0.83264 0.0925-0.92516 1.7578-0.46259 0.46259-0.37006 3.1456-0.37007 0.92518-0.18505 0.92516-0.37005 1.2952v1.1102l0.18504 1.1102v0.83266l-0.18504 0.92516-0.64764 0.46259-0.55507 1.3878-0.37009 1.1102-0.0925 0.46258v1.2952l-0.27757 0.5551v0.46258l0.37006 0.5551-0.27754 0.92517-0.74012 0.64762-0.55511 0.74014-0.46258 1.0177-0.55512 0.5551-0.83264 1.3878-0.37006 0.64761-0.83265 0.64762-0.46258-0.46258-0.3701-1.3878-0.27754-0.64762v-0.64761l-0.74011-0.37008-0.55511-0.74012v0.83265l-0.46259 0.46259v0.55509l0.64763 0.92517 0.46256 1.2027-2.3129 1.5728 0.55508 0.27755v3.3306l-2.4054 1.5728v1.6653l0.0925 0.83265-0.0925 1.2027-0.83267 1.6653-0.46255 1.6653-0.83268 2.2204-0.46259 1.2027-0.74012 1.1102-1.0177 0.18504-0.55512 1.2027-0.74011 1.6653-0.74013 2.9605-0.18505 0.92517v1.0177l0.0926 0.64761 0.55511 0.64761 1.2027 3.7932-0.18505 0.64761-1.1102 1.0177-1.0177-0.0925-0.83265-0.18503h-0.27754l-0.27756 0.64761-0.55511 1.0177-2.1279 2.498h-0.55512l-0.64759-0.0925h-0.74016l-0.74011 0.46258-0.92518 0.37007-0.18505 0.92517 0.0926 1.0177-0.5551 0.27755-0.74013 0.64763-0.46259 1.0177-0.27753 0.83266-0.18504 1.0177-0.92518 1.1102-0.37006 0.83265-0.74012 1.0177-0.37009 0.18502v-1.2027l-0.27754-0.46259v-1.1102l0.27754-0.27755 0.64763-0.37007-0.27754-1.1102v-1.9428l-0.18505-0.83265-0.37006-0.5551-1.4803 0.5551-0.92516 0.74012-0.92518 0.37008-1.0177-0.27755-0.37006-0.64762v-1.2025l-0.27754-0.92517-0.0925-1.2952 0.0925-1.2027 0.46259-0.83265 1.1102-0.74014 0.55511-0.0925v-0.92516l0.27757-0.37008v-1.5728l0.0925-0.92517 0.46258-0.37007 0.27757-0.46259 0.83264-0.37006 0.92518-0.0925-0.37007-0.92516v-2.1279l-0.27757-0.46257-0.27754-0.27755 0.18503-0.92517 0.46257-0.37007-0.46257-0.64762v-1.1102l0.37008-0.37006 0.27754-0.5551-0.18505-0.0925-0.55507-0.64762-0.5551-0.27755-0.37007-0.64762-0.64764-0.27755-0.46257-0.46258-0.83265-0.5551-0.46259-0.46259-0.64763-0.74014-0.18501-1.5728-0.83265-0.18503-0.74015-0.64762-0.0925-1.0177-0.37009-0.18502v-0.64763l0.46258-0.37006-0.83264-0.5551-0.46259 0.64761-0.18501 0.37008v1.0177l-0.74015-0.0925-0.92518-0.27755-0.0925-0.46257-0.46259-1.1102-0.46257-0.74012v-0.64762l0.46257-0.0925 0.0925-0.37007 0.18505-0.5551-0.0925-0.5551-0.37006-0.5551 0.37006-0.64762 1.1102-0.64762-0.83268-0.18503h-0.6476l-0.27756-0.37007-0.37007-0.18503-0.46258-0.5551v-1.0177l-0.64761 0.18504-0.46257 0.46258-0.55512-0.18503-0.64762-0.46259h-0.27754l-0.64764-0.0925-0.27754 0.18504-0.64762 0.0925-0.64761 0.37006v-0.83265l0.0925-0.83265 0.27754-0.37007 0.0926-0.74014h0.92517l-0.74015-0.74014-0.27754-0.27756v-0.83264l-0.27754-0.37007h0.55508l0.5551 0.0925 0.55511-0.5551-0.83265-0.18503-0.83264-0.18504v-1.6653l-1.0177 0.83265-0.37006 0.5551-0.37007 0.46259-0.92517 0.46258 0.18502-0.5551v-0.46258l-0.55511-0.27755-0.55508-0.5551 0.6476-0.83265-0.55511-0.83266-1.1102-0.74013-0.74012-0.55511-0.18505-0.92516-0.37006-0.64761h-0.37006l-0.3701-0.27755h-2.0354l0.83265-0.37008 0.46258-0.18503 0.92517-0.37007h0.74013l-0.37006-0.18503-0.55512-0.0925-0.0925-0.5551 0.55508-0.46258-0.18501-0.46259-0.46259-0.74013-0.27757-0.5551-0.18502-0.92518 0.74013-0.27755 0.64764 0.0925h0.64759l0.18505-0.83264-0.92517 0.0925-1.2027 0.18503-0.64763-0.0925-0.55511-0.37007-0.46259-0.18503-0.46258-1.1102h1.2952l0.46259 0.27757 0.37009 0.27754h0.27754v-0.92517l-0.64763 0.18504 0.18504-0.83265 0.37006-1.1102v0.64762l0.46259 0.18504 0.64764-1.0177z" fill="green" stroke="none" stroke-width=".29513px"/>
  <path d="m162.99 167.53h-2.1279l-0.79794 1.3442-2.1279 0.26882-1.8619 0.80649-2.3939 1.8818-3.7238 3.226-3.9898 3.4948-4.2557 3.4948-2.3938 1.8818-1.5959 0.80649-1.5959 0.26884-1.5959-0.53766" stroke="#000" stroke-width=".5px" />
 </g>
 <ellipse cx="134.39" cy="184.25" rx="3.2394" ry="3.4084"/>
 <path d="m194.56 215.77-2.9212 0.35378-1.4011 0.19262-3.5027 0.96306-2.1016 1.5409-1.226 1.1557-2.2768 0.19262-1.7513 0.77044-3.3275 2.6966-0.70054 2.6966-0.87567 3.2744-1.4011 1.3483-1.4011 2.1188-1.5762 0.57785-1.4011 1.1557-1.7513 0.57785-2.1016 2.6966-1.7513 1.1557-1.9264 1.9261-8.9319 5.5858" fill="none" stroke="#000" stroke-width=".49px"/>
 <ellipse cx="152.42" cy="245.77" rx="3.2394" ry="3.4084"/>
 <text x="249.64012" y="242.22736" fill="#000000" font-family="sans-serif" font-size="3.5279px" letter-spacing="0px" stroke-width=".26459" word-spacing="0px" style="line-height:1.25" xml:space="preserve"><tspan x="249.64012" y="242.22736" font-size="3.8806px" stroke-width=".26459">Chilpi range</tspan></text>
 <text x="235.12431" y="271.8808" fill="#000000" font-family="sans-serif" font-size="3.8806px" letter-spacing="0px" stroke-width=".26459" word-spacing="0px" style="line-height:1.25" xml:space="preserve"><tspan x="235.12431" y="271.8808">Dongagarh Khara</tspan><tspan x="235.12431" y="276.7316">Reserve forest</tspan></text>
 <path d="m213.11 200.85-0.44178 1.6848-0.66262 0.96273-0.66267 1.9255 1.3253 1.9255h0.88356l0.88355 2.6475-1.7671 2.1662-1.988 0.96275-2.2089 2.6475-1.7671 0.72205-2.8715-0.48138-1.988-0.72203-1.988-0.24069-1.1044-0.72206-1.5462-0.48137-1.7671 0.48137-0.88355 1.4441 1.1044 1.2034 0.44178 6.4985 0.26193 2.7199 0.33624 3.4803 0.84054 0.91586-0.50435 0.91588v2.5645l0.16811 0.91587v3.6635l-0.5043 2.1981-0.50431 1.4654 2.1854 5.1289-1.0087 1.8317-0.33623 3.4803 3.194 3.2972 0.84055 2.1981-0.50431 1.4654 0.3362 4.213" stroke-width=".5px" fill="none" stroke="#000" />
 <path d="m159.66 53.693 1.1202 1.8451 6.4972 6.0626 7.3933 3.1631 3.5846 1.3179 7.1693 1.5815 2.0164 1.5815h4.9289l4.0327 1.5815h2.0164" fill="none" stroke="#000" stroke-width=".5px"/>
 <path d="m81.142 172.71 1.1606 5.3743 2.0311 0.89573 2.3213 2.09 4.9327 2.09 4.3524 1.4929 2.9016-0.59715 3.772-2.9857 6.3835 4.18 2.9016 1.4929 2.0311 0.29857 1.1606-1.1943 2.3213-1.1943 2.3212-0.59715 2.0311-1.7914 1.741 0.89571 1.4508-1.7914 4.0622 1.7914 1.1606-1.4928 2.0311 0.89571 1.1606 2.09h1.1606l1.1606 2.3886 2.9016 2.09 3.772 1.1943 2.0311 2.3886 0.29015 1.1943 2.0311 2.9857 3.1918 2.3886v4.18l2.3212 1.7914h0.58032l3.1917 4.18 1.1606 1.7914-1.1606 0.89571-1.741 2.09 0.87047 3.8814-2.9016 3.8814-0.29015 2.9857 0.87047 8.0614-0.87047 4.7771 0.29015 8.9571 4.0622 0.59715 1.1606 1.1943h1.741l1.1606 1.1943 2.3212-0.29857 2.3213 2.6871 4.0622-1.1943 2.9016 1.4928 2.0311 0.29857 3.4819-0.89571 2.6114-0.59715 2.3212 0.29857 2.9016 2.6871 1.741 5.6728 3.772 3.5828v1.7914l5.2228 2.3886" fill="none" stroke="#000" stroke-width=".5px" />
 <path d="m2.5873 158.17 1.2724 4.2386 2.0358 2.9001 9.6699 12.939 4.0715 0.89233 0.76341 5.354-0.50894 2.4539 2.5447 4.6848-0.25447 2.9001 2.7992 1.5616 2.0358 0.22309 6.6162 3.1232 7.3796-0.22309h2.7992l12.978 1.3385 6.6162-0.89234h2.2902l5.5984-0.66926 5.5983-0.44616 0.76341 3.3463 1.5268 1.7847v1.3385l1.5268 1.1154 2.0358 0.22309 1.0179 1.5616 1.5268-0.22309 1.7813-0.22309 1.7813 0.44618v0.89233l2.0358 0.44617 0.50894 2.0078 2.2902 0.22308-0.25447 2.4539 2.2902 0.89235-0.25447 2.2308 1.7813 1.5616-0.25447 1.7847 0.25447 1.5616-0.50894 2.4539 1.2724 1.1154v1.1154l2.5447-0.22308h2.5447l0.50894 2.677 1.5268 2.0078-0.25447 1.7847 2.0358 0.2231v3.1232l0.50894 0.89234 2.0358 0.44617v1.1154l1.7813 1.5616v1.3385l2.0358 1.3385 1.5268 2.4539 2.7992 1.5616 4.8349 1.3385" stroke-width=".5px" fill="none" stroke="#000" />
</svg>
