<svg width="97.03mm" height="293.1mm" version="1.1" viewBox="0 0 97.029306 293.09508" xmlns="http://www.w3.org/2000/svg" xmlns:cc="http://creativecommons.org/ns#" xmlns:dc="http://purl.org/dc/elements/1.1/" xmlns:rdf="http://www.w3.org/1999/02/22-rdf-syntax-ns#">
 <metadata>
  <rdf:RDF>
   <cc:Work rdf:about="">
    <dc:format>image/svg+xml</dc:format>
    <dc:type rdf:resource="http://purl.org/dc/dcmitype/StillImage"/>
    <dc:title/>
   </cc:Work>
  </rdf:RDF>
 </metadata>
 <g transform="translate(11.436 .27234)" fill="none">
  <g transform="translate(-47.165,-2.5549)" stroke="#fff" stroke-width=".5">
   <path d="m63.222 61.827 0.31388-0.05851 0.36841-0.17478 0.28569-0.17478 0.36841-0.17478 0.4229-0.11645 0.31392 0.02863 0.31199 0.08838 0.24811 0.17478 0.25751 0.14472 0.2481 0.20496 0.25751 0.17478 0.28572 0.11844 0.28572 0.11647 0.25751 0.17478 0.28572 0.14652 0.2199 0.20496 0.25 0.17658 0.1654 0.30074 0.22182 0.23306 0.19361 0.33076v0.33082l0.19361 0.30076 0.25751 0.24252 0.25751 0.11844 0.28572 0.11645 0.02837 0.35899-0.19361 0.26316-0.19361 0.27263-0.1372 0.24251-0.02811 0.3308 0.19361 0.30263 0.22179 0.20295 0.28572 0.11645 0.31199 0.11645h0.31389v0.38907l-0.05447 1.2161 0.84769 1.2461 0.3402 1.0695v0.7086l0.67289 0.70864 0.6992 1.2743v0.08621l-0.31199 0.56388-0.87401 0.30263-0.1654 0.6804-0.4229 0.47741-0.79131 0.23306-0.4511-0.05813-0.9567 0.08621-0.6992 0.03006-0.56198 0.05814-0.98491 0.30263 0.24813-0.30263 0.11096-0.4473 0.28569-0.30074-0.05447-0.20496-0.5056 0.14472-0.25751-0.08621 0.31388-0.59207-0.1654-0.11645-0.24811-0.05814-0.19361-0.36088v-0.05814l-0.05447-0.3609 0.1372-0.11645 0.19361 0.20295 0.19361-0.02862 0.05447-0.17478-0.36841-0.83829-0.02837-0.35895 0.31202-1.3702 0.05448-0.71049-0.5056-0.26116-0.28572 1.342-0.08272 0.17478-0.36841 0.73866h-0.1936l-0.08272-0.20496-0.1654-0.17478-0.21993 0.05814-0.05447 0.17478 0.3402 1.6615-0.05447 0.23304h-0.28566l-0.31388-0.17478-0.19361 0.05814 0.1372 0.30263-0.02837 0.35899-0.79131 0.38908-0.11097 0.20497 0.1372 0.20496 0.6165 0.02862 0.1654 0.17658 0.08273 0.38905 0.08273 0.38908-0.11096 0.23306-0.42293 0.11844-0.39658-0.17658-0.72741-0.53378-0.36838-0.03006-0.11096 0.20494 0.1654 0.30072 0.4511 0.11646 0.5338 0.53573 0.76499 0.17478 0.31388 0.17478 0.08272 0.68039-0.36841 0.3308-0.11096 0.41727-0.25751 0.36088-0.2481 0.11646-0.31202 0.11645-0.3402 0.59209-1.2969 1.2142-0.28572 0.08622-0.1654-0.7086-0.64468-0.17478-0.1372-0.11645-0.28569-0.92478-0.56201 0.68228-0.47928 0.05814-0.21993 0.11466-0.28572 0.44733-0.08272 0.26316-0.08273 0.33078 0.31388 0.73866-0.6992 1.4868-0.11096 0.86647-0.25751 0.6804-1.7499 2.3138-0.31202-0.05816-0.05447-0.41729-0.05447-0.30075 0.19361-0.3007 0.61651-0.11844 0.22179-0.23306 0.1654-0.76874-0.28572-1.0695-0.22179-0.11844-0.31388 0.05814-0.84769 0.59208-0.11096-0.23306 0.1372-0.65036 0.6165-1.0112 0.28572-0.76878 0.02839-0.05814 0.1654-1.1277v-1.2462l0.16544-0.11645 0.59019 0.05814 0.39469-0.17478-0.02837-0.80632 0.19361-0.36092 1.2988-0.8646 0.21992-0.30072-0.05447-0.11645h-0.47932l-0.4229 0.38908-0.1372 0.11646-0.45111 0.14472-0.64468 0.38908-0.3402-0.14652 0.4229-2.4679-0.05447-0.47741-0.2481-0.80632-0.58833-1.3702-0.11096-0.95297-0.3402-0.05617-0.2481-0.14652-0.3402 0.98114-0.13718-0.14652-0.22182-0.3308-0.1372-1.0695-0.22182-0.47739 0.05647-0.24251 0.4229-0.20295 0.13719-0.33078 0.11097-0.68041 0.5056-0.73868-0.11096-0.3308-0.19361 0.14652-0.16544-0.11844-0.02837-0.20295-0.28569 0.6804-0.3402 0.23304-0.22179-0.08838 0.1654-0.4473v-0.05617l-0.02837-0.23304-0.11096-0.11844-0.08271-0.30076 0.21992-3.0918-0.08273-1.3702 0.28572-0.59394 0.1372-1.0695 0.22182-0.30262 0.21993-0.02863 0.1654 0.08621 0.02837 0.30263 0.02837 0.30071 0.76499 0.05814 0.9567-0.65032 1.0958-0.38905 0.42293 0.03006 0.45108 0.11645 1.0958 0.53566 1.0958 0.76687 0.5338 0.11645 0.67103 0.05814-0.05447-0.20295 0.4511 0.02863z" fill="#c2f0c2"/>
   <path d="m69.806 145.82 2.2273-1.8176 1.0131-0.30261 0.72741-0.27259 0.47928-0.41731 0.45111-0.17478 0.31199-0.30261 0.64468-0.5056 0.36841-0.20498 0.59019-0.17477 0.9567 0.0582 0.81951 0.0586 0.9567 0.11648 0.874 0.14652 0.874 0.33079 0.79131 0.47742 0.84768 0.73869 0.47928 0.73867v0.41722l0.1372 0.71053v0.71046l0.36841 0.5338 0.72738 0.53568 0.28572 0.53381-0.1372 0.47557-0.28569 0.47739-0.28572 0.53565v0.71051l0.4229 0.68039 0.3402 0.44736 0.5056 0.24252 0.6165-0.11648 0.79131-0.17478h0.874l0.5338 0.17478 0.11096 0.83643-0.22179 0.47551-0.1372 0.95292 0.1372 0.23305 0.56201 0.0582 0.4229 0.0881 0.69921-0.27434 0.4511-0.65031 0.42293-0.38908 0.28572-0.0302h0.4774l0.76499 0.38909 0.47928 0.11648 0.9567-0.0863 0.69921-0.35898 0.45108-0.0586 0.6165-0.0582 0.64468 0.17659 0.5902 0.17478 0.93038 0.30072 0.02843 0.30258 0.42289 0.76879 0.28569 0.76874 0.19358 0.95296 0.08281 1.2442-0.5338 0.89469-0.21993 0.65224-0.19362 0.59392-0.31388 0.59211-0.16542 0.53566-0.05453 0.35899 0.02844 0.71049-0.21992 0.6522 0.45111 0.38908 0.53381 0.0285 0.84768 0.17479 1.1503 0.47741 0.69921 0.41726 0.8195 0.76874 0.31387 0.47741 1.2706 1.0112 0.42293 0.17479 0.87399 0.83639 0.50561 0.59397 0.2481 0.76688 0.16543 0.71045-0.11106 0.71049-0.0829 0.56391 0.16542 0.38908 0.45111 0.70861 0.5338 0.6503 0.45108 0.76873 0.3684 0.73869 0.1936 0.86649-0.3684 0.83643-0.47928 0.41724-0.47928 0.41729-0.1936 0.59393 0.13716 0.65222 0.42288 1.186 0.24811 0.76874 0.56197 1.0394 0.36842 0.59396 0.19357 0.98112 0.0284 0.36088-0.39471 0.59394-0.765 0.68044-0.5056 0.30259-0.42479 0.11648-1.0131 0.14651-0.72741-0.14651-0.39658 0.76876 0.22182 1.2161v1.4303l-0.0284 1.0112 0.0546 0.76872 0.0546 0.89471 0.0545 0.5338 0.16542 0.65225 0.2218 0.89462 0.16541 0.27263 0.312 0.56387 0.13716 1.545 0.90217 0.0582v0.41916l-0.19361 0.83639-0.312 0.95299-0.19363 0.38904-0.11106 0.33081-0.4511 1.3439-0.21991-0.68042-0.0284 0.47554 0.31388 1.0413 0.84769 0.59206 0.98489 0.44731 1.0413 0.0586h0.6165l1.124 0.30071 0.874 0.53382 1.2988 0.95483 1.4078 1.6616 0.47927 0.62211 0.22181 0.98116 0.3684 1.0695 0.31389 1.6916-0.0284 1.0695-0.3139 0.76878-0.31201 0.92286-0.39659 0.0881h-0.53384l-0.61647-0.20497-0.95671-0.71048-0.64468-0.17479-0.45111-0.0586-0.7274 0.0866-0.13717 0.83829 0.28569 0.80635 0.6992 0.5056 0.76312 0.27261 0.50559 0.30263 0.47928 0.30259 0.25751 0.41728-0.25751 0.80632-0.8477 0.20297-0.69921-0.14471-0.93037-0.03-0.69921-0.0863-0.0284 0.3308 0.0545 0.73871 0.39659 0.53566 0.47928 0.50559 0.24808 0.53571-0.39656 1.0112-0.58833 1.2443-0.11103 1.1278 0.39466 1.1277 0.28574 0.95292 0.2481 0.95298 0.312 0.35899 0.87399 0.3026 0.90218-0.23306 0.562-0.0582 0.67288-0.35896 0.79131 0.17476 0.59018 0.53567-0.39657 1.0112-0.16542 0.95295v1.5769l0.11105 0.86461-0.25752 0.76877-0.0828 1.0093-0.36837 0.36089-0.8195 0.11648-0.6992 0.11647-0.79131-0.11647-0.3139 0.0582-0.45111 1.1278-0.19358 0.95291-0.64468 0.59397-0.67289 0.50557-0.59018-0.24251-1.1221-0.6804-0.53379-0.35902-0.5338-0.0582-0.50561-0.0582-0.87402 0.50561-1.0676 0.80633-1.0676 0.35903-0.45109 0.68226-0.0284 0.41727 0.0545 0.27262-0.28568 0.36088-0.9567 0.50558-1.4924 0.62217-1.4642 0.17476-1.0413-0.24249-0.58833-0.50558h-0.61648l-1.0131-0.27264-0.39658-0.53378-0.9567 0.44733-0.47929-0.0582-0.5338-0.30075-0.19361-0.50563-0.42293-0.41911-2.0525-0.65034-0.21993-0.17478h-0.02837l0.08272-0.11648-0.4229-0.41727 0.05447-0.23305 0.13903-0.0863 0.4229-0.0302 0.08272-0.71046 0.31202-0.17477-0.19361-0.30075v-0.1165l-0.19358-0.0601-0.25751 0.44922-0.4229 0.24253-0.3402 0.0581-0.11096-0.23306 0.1372-0.44734-0.11096-0.23505-0.1654-0.17478-0.6165 0.0285 0.05447-0.44734 0.3402-0.20296 0.08272-0.56389-0.11096-1.4585 0.1654-0.20498 0.25751-0.11621 0.28572 0.03 0.21993-0.44737-0.08273-0.11648-0.19361 0.0601-0.67289 0.30073-0.67289-0.59394-0.08272-0.76877-0.28569-0.50559-0.24814-1.8476-0.31388-0.33084v-0.3308l0.31388-0.70861 0.11096-1.1578 0.21993-0.38908 0.39658-0.62214-0.3402-0.38909-0.312 0.20494-0.25751 0.0582-0.2481-0.11649-0.19361-0.41724-0.39472-2.0224 0.16544-1.186-0.3684-0.71047-0.05447-0.30073 0.19358-0.36089 0.84769 0.0582 0.1654-0.11649-0.1654-0.23305-0.05447-0.0582-0.3402-0.17478-0.39658-0.11838-0.42293 0.30263-0.3402 0.0286-0.02837-0.26313 0.47928-1.1861-0.22179-0.65031 0.11096-0.59397-0.0545-0.83641 0.08272-0.30262 0.31389-0.0581 0.08272-0.11648 0.28572-1.2443 0.1372-0.14653 0.22179 0.0581 0.02839 0.20496 0.3402-0.17477-0.36841-0.53568-0.81948-0.0582-0.64468-0.53381-0.25751 0.23304-0.1654-0.0586-0.05447-0.11648 0.22179-0.36088h0.42293l0.05447-0.38908-0.13903-0.56386-0.39661-0.47556-0.67286 0.0565-0.16544-0.35898 0.05447-1.4887h0.11096l0.19361 0.0301 0.5338 0.3308 0.39472 1.342 0.39658 0.27262 0.36838 0.47743 0.11096-0.0863-0.72741-1.6052 0.08272-0.23306 2.2555 0.47739 0.19361 0.0863 0.19361 0.0586 0.05447-0.11649-0.312-0.53379-0.64468 0.11648-0.39659-0.0582-0.5338-0.33085-0.81948-0.0566-0.11096-0.14651 0.6992-1.6634-0.02837-0.1748-0.39472-0.30071-0.28571-1.8476-0.59019-0.17478-0.08273-0.24251 0.2199-0.62215-0.05447-0.3308-0.21992-0.23506 0.08273-0.89465-0.3402-0.73869-0.21993-0.71049-0.67288-1.1559-0.11096-0.11836h-0.39659l-0.28572-0.35903-0.24997-0.0581 0.02838-0.11649 0.45108-0.0301 0.19361-0.14472 0.05447-0.17657 0.11096-0.41726-0.08273-0.41727-0.67289-0.68039-0.25751-0.89471-0.39472-0.62211-0.08272-0.65226-0.4511-0.76871-0.1372-0.0866-0.22179 0.33084-0.25751-0.14471-0.11096-0.26316-0.11096-0.98113-0.3402-0.3308-0.19361-0.27062-0.05451-0.0863 0.08272-0.23505h0.28565l0.3402 0.23505 0.24811-0.0603 0.3402-0.38904 0.59019 0.03 0.21993 0.27261v0.92285l0.13903 0.36086 0.1372 0.0863 0.53381-0.0302 0.21992 0.0884 0.22179 0.26316 0.45111 0.95293 0.2481 0.17479 0.13719-1.3026 0.02839-0.24251 0.36838-0.33081 0.47928 0.50559 0.6992-0.3026 0.1654 0.11648 0.19361 0.41723 0.3402-0.23306-0.1372-0.59393-0.22179-0.30074h-0.21987l-0.72741 0.20295-0.64468-0.38905h-0.19361l-0.45108 0.23506-0.31388 0.36085-0.39472-0.11837h-0.22179l-0.19361-0.24254 0.3402-0.83641-0.05447-0.14653-0.1654-0.20294-1.0413-0.62399-0.19361-0.27261 0.21993-0.24252 0.31389-0.36089 0.05447-0.2425-0.08272-0.14653-0.31199-0.11647-0.11097-0.20497 0.19361-0.44545-0.11096-0.33084-0.47739-0.71045-0.28572-0.76873-0.59019-0.36089-0.72741 0.0601-0.19361-0.11838-0.5056-0.59208-0.11097-0.35898 0.02837-0.17657 0.36838-0.17478 0.4511-0.47552 0.1372-0.14472 0.08273-0.50561 0.45111-0.47742 0.08272-0.30075-0.1654-0.17476-0.47928-0.11649-0.05447-0.17477 0.25751-1.0413v-0.5054l0.02839-0.36092-0.3684-1.2161-0.39659-0.73869-0.25751-0.38908-0.6165-0.68233-1.1221-1.1559-0.1654-0.27259-0.11096-0.62215 0.21993-0.62212 0.42292-0.30076 0.61648 0.17477 0.22182-0.11849 0.1654-0.44547 0.13719-0.03-0.02837-0.70861-0.64468-0.30071-0.6992-0.7105-0.1654-0.41724-0.6165-1.312-0.08272-0.41917 0.25751-0.36085-0.90218-2.0224-0.11096-0.4774-0.02837-0.7086 0.61651-0.65223 0.28572-0.47551 0.0545-0.36088-0.19361-0.44548-0.08271-0.20497-0.16538-1.0995-0.76499-2.1108-0.5338-0.95297-0.64468-0.80633-0.39658-0.80637-0.08272-0.30069 0.1372-0.73867-0.08272-0.38906-0.02837-0.70862-0.39658-0.70861-0.21993-0.89467-0.56198-0.76876-0.6992-0.65034-0.22182-0.41724 0.22182-0.73868-0.08273-0.50562-1.0131-0.71046-0.19361-0.23306-0.19361-1.3119 0.05447-0.41729 0.47928-0.47741z" fill="#c2b0c2"/>
   <path d="m71.051 80.747-0.31199-0.20295 0.25751-0.53566 0.19361-0.14472 0.16544 0.08838v0.59205l-0.05447 0.11646zm-14.695 19.884-0.21993-0.17477-0.1654-0.38906 0.1654-0.27262 0.28572-0.03001 0.19361 0.20496zm7.3191-16.676h-0.3402l-0.19361-0.27262-0.05447-0.36088 0.31388-0.30072 0.90221-0.11645-0.21993 0.24251zm-5.6895 16.14-0.1654-0.0582-0.13903-0.20295 0.1654-0.38908 0.25751-0.08811 0.13903 0.27262zm15.063-26.341 0.6992-0.11466 1.0958 0.56386 1.0131 0.80638 1.0394 1.1277 0.90221 0.14652 0.874-0.56386 0.64468-0.73866 1.2067-0.02863 1.4097 0.14652 0.7631-1.1578 0.39658-1.0112 0.5338-1.186 1.2706-0.65222 1.0131 0.24251 0.76499 0.59394 1.1503 0.53382 1.1221 0.24251 1.2067-0.02863 0.87401 0.20295 1.0131 0.11844 1.0131 0.11646 1.124-0.05814 0.64469 0.03006 1.0131 1.3702-0.16542 0.11645 0.11088 0.86653-0.84768 1.545-0.874 1.78-1.0413 1.6051-0.53381 0.8947-0.36838 0.98114-0.4229 1.0413-0.93039 1.4303-0.9567 1.3026-1.0394 0.41916-1.1503 0.80632-0.61651 0.68042-0.59019 0.4774-0.64468 0.76689-0.02837 1.1277-0.02837 0.76876-0.19358 1.4284-0.25751 1.0695-0.39658 0.9229-0.1654 1.156-0.56198 1.0112-0.72741 0.83641-0.53378 0.59391-0.16544 0.89469 0.3684 0.76878 0.47928 0.23304 1.1503 0.47744 0.95671 0.41723 0.02837 0.76692-0.3402 1.2462-0.8759 1.5168-0.39658 0.80633-1.3251 0.41728-0.39472 0.83642 0.25751 1.3025 0.47928 1.0112 0.50563 1.0112 0.50746 0.41728 0.56202 0.59392 0.36838 0.30074-0.08273 0.5357-0.39658 0.30071-0.31199 0.30073-0.5056 0.53571v0.47737l0.5338 0.59211h0.67289l1.0413-0.20297 1.1221 0.44735 0.50749 0.59209 0.28572 1.0112 0.05447 1.2161v0.92289l0.45111 1.0995 0.7913 0.68038 0.76499 0.73869 0.4229 0.86651-0.5056 0.41724-0.64468 0.17477-0.56201 0.24252-0.3402 0.71047 0.11097 0.68045 0.72741 0.38905 0.84769 0.98113 1.0676 0.38909 1.124 0.41726 0.93039 0.56389 0.87401 0.53567 0.64468 1.2443 0.2575 0.86647 0.2218 0.98115 0.47928 0.73869 0.53379 0.73865 0.67289 0.62215 1.1221 0.41728h0.81951l1.233 0.36089 1.1785 0.36086 0.5338 0.30074 0.4511 1.0112-0.56197 0.89468-0.87401 1.6051-0.47928 1.186-0.21994 0.71051-0.22178 0.92472 0.08276 0.80633 0.93039 0.73871 0.8458 0.27261 0.56198 0.30071 0.3966 0.53382 0.45109 1.2462-0.13897 0.41726-0.34019 1.3025-0.8477 0.89471-0.87398 0.95291-0.72743 0.59207-0.50559 0.38908-0.90221 0.68041-0.72741 0.47554-0.36839 0.76876-0.02843 0.80633-0.2481 0.80636-0.4793 0.59202-0.3684 0.59398-0.58832-0.17478-0.64468-0.17477-0.61648 0.0586-0.45111 0.0582-0.6992 0.35899-0.9567 0.0863-0.47928-0.11648-0.7631-0.3891h-0.47928l-0.28572 0.0285-0.4229 0.38906-0.45111 0.65223-0.6992 0.27263-0.4229-0.0881-0.56198-0.0581-0.1372-0.23306 0.1372-0.95295 0.22179-0.47741-0.11096-0.83642-0.53381-0.17658h-0.874l-0.79131 0.17658-0.6165 0.11649-0.50563-0.24253-0.3402-0.44733-0.42293-0.68039v-0.71054l0.28572-0.53377 0.28569-0.47742 0.1372-0.50561-0.28569-0.50748-0.72741-0.53382-0.36838-0.53564v-0.70861l-0.1372-0.71049v-0.41916l-0.47928-0.73871-0.84769-0.74053-0.7913-0.47553-0.87401-0.33084-0.874-0.1465-0.9567-0.11648-0.81951-0.0581-0.9567-0.0585-0.59019 0.17477-0.36841 0.20297-0.64468 0.50749-0.31388 0.30072-0.4511 0.17496-0.47928 0.41915-0.72741 0.27262-1.0131 0.30263-2.2273 1.8176-0.1654-0.17478-0.45111 0.0285-0.11096-0.23306-0.11096-0.0582-0.02811-0.20497-0.02837-0.0585 0.1654-0.65034-0.19361-0.24253-0.64468-0.36088-0.08271-0.17478 0.05447-0.17478 0.2481-0.11849 0.67289 0.11849 1.0958-0.71046 0.22179-0.36091v-0.24251l-0.19361-0.0301-0.84769 0.73867-0.13903-0.0285-0.08272-0.11648 0.08272-0.23307 0.5338-0.62214-0.08272-0.14652-0.08272 0.03h-0.08273l-0.61653 0.65036-0.19361 0.74052-0.1372-0.11837-0.22182-0.92289-0.47928-0.53564-0.39469-0.17476-0.16544-0.30264 0.02837-0.26316 0.36841-0.33078-0.02837-0.36088-0.7913-1.7781-0.3402-0.5075-0.39658-0.59204-0.08272-0.47742 0.81948-1.4003 0.1654-0.35901-0.05447-0.53568-0.3402-0.68039-0.08271-0.50564v-0.98112l-0.25751-0.38902-0.72738-0.59209-0.5056-0.30259h-0.08273l-0.3402-0.11647-0.81948 0.0581-0.25751-0.20497 0.16544-0.2706 0.47929-0.23304 0.02838-0.17478 0.02837-0.98302-0.28572-1.5751 0.02838-0.59207 0.19361-0.03 0.39472 0.14471 0.47928 0.36088h0.61651l0.05447 0.47553v0.17478l0.28572 0.35902 0.08272 0.53565 0.1654 0.33083 0.22179 0.14472 0.7913-0.17477 0.72741 0.0582 1.0676 0.23304 2.4209 1.2837 0.25751 0.32894v0.359h-0.05447l0.22179 0.65221 0.28572-0.23303 0.1654-0.56386-0.11097-1.6916-0.64468-0.53566-0.1372-0.38912-0.02837-0.33074 0.3402-0.76691-0.02839-0.17478-0.72741-0.56385-0.1654-0.41918v0.50751l-0.31202-0.0881 0.1654 0.38906-0.08271 0.20296-0.16544 0.17476-0.4229 0.14654-0.45111 0.0582-0.47928-0.14654-0.19361-0.80821-0.7631-0.41723-0.36841-0.0582-0.64468 0.17478h-0.05422l-0.31388-0.17478-0.28569-0.47741-0.47928-0.41726-0.28572-0.65032-0.4229-0.30263-0.1654-0.68042-1.7123-1.2838-0.72741-0.0582-0.19361-0.11649-0.19361-1.1879 0.13719-0.0582 0.56198-0.20495 0.1372-0.14653 0.1654-0.38908-0.19361-0.50561-0.28572-0.38908-0.93039-0.92291v-1.1277l-0.19361-1.1879-0.2199-0.65219-0.4229-0.17478 0.1654-0.7105 0.19361-0.23306 0.1654-0.20497 0.5338-2.2856v-0.30258l-0.22179-0.47741 0.1654-0.53378-0.1372-0.41728 0.312 0.11647 0.39658 0.41723 0.31389 0.11648 0.4229-0.3007 0.72741-0.17659 0.6992-0.03 0.36841 0.14651 0.19361-0.5357-0.19361-0.11648-0.1372-0.0586-0.47928-0.11648h-0.61637l-0.81951 0.17478-0.25751-0.24252-1.2067-2.4998-0.93039-2.6746-0.05447-0.0863 0.05447-0.27261 0.56201 0.30071 0.22179 0.0581v-0.1147l-0.39659-0.41911-0.31388-0.14472h-0.98487l-0.19361-0.27262-0.6165-2.8494 0.1654-1.4867 0.1372-1.3026 0.11096-2.9169-0.02838-1.0695 0.19361-0.30078 0.25751-0.20496 0.3402 0.03005 0.28569-0.05816 0.36841 0.30263 0.28569-0.17478 0.5056-0.05816 0.11096 0.11644 0.53378 0.47742 0.21993 0.0601 0.4229-0.35899 0.45111-1.2744 0.28569-0.38905h0.1372l0.19361 0.05816 0.50559 0.6522 1.2067 1.312 1.1785 0.71048 0.1654 0.24423-0.05447 0.08626 0.39472-0.08626 0.22179-0.11844-0.02838-0.17478-0.3402-0.38908-0.58833-0.4473-0.11097-0.24251 0.11097-0.30263 0.1654-0.11646 1.4642 0.3308 0.7913 0.08626 0.5056 0.24251h0.28572l0.3402-0.17658h0.67289l0.31202-0.3308-0.56198-0.20497-0.36841 0.08821-0.31389-0.08821-0.47928-0.30263-0.76499-0.17479h-0.79131l-0.4511 0.11646h-0.40223l-0.21993-0.11646 0.02837-0.35898 0.08272-1.4304-0.22179-0.56384-0.1372-0.80638-0.3402 0.08626-1.4642 0.86651-0.53381 0.17478-0.31388-0.11646-0.42293-0.359-0.39469-0.05816-0.1654-0.11645-0.47928-1.0112-0.4229-0.95295 0.08272-0.76876 0.39658-0.41726 0.59019-0.30075 0.90221 1.1578 0.1372-0.20496-0.08272-0.35901-0.19361-0.36092 0.05447-0.14471 0.25751-0.17478 0.45108 0.14652 0.1372-0.14652 0.13903-0.4473-0.13903-0.36092-0.3947-0.65219-0.02811-0.47553 0.25751-0.30075 0.69921-0.33079 0.25751 0.05651 0.5338 0.30264 0.19361-0.02865-0.1654-0.47744-1.4905-0.83642 0.25751-0.23306 0.31199 0.05651 0.45111 0.24251 0.36841-0.05651 0.81951-0.47739 0.95857 0.17478 0.19361-0.05814 0.98491-0.98112 0.24811-0.08621 0.28572 0.47738 0.08273 0.11645 0.1654 0.11645 0.11096-0.17478-0.11096-0.59394 0.05447-0.24251 1.3815-0.17478 0.6992-0.47745 0.31389-0.02863 0.7631 0.35901 0.1654-0.02863-0.21992-0.47743-0.25751-0.24251-0.72741-0.11645-0.21993-0.14652 0.11096-0.27261 0.56198-0.11646 0.31389-0.11645 0.19361-0.30071-0.11096-0.30263-1.0676 0.3609-0.13719-0.20496 0.02837-0.14652 0.28572-0.27261 0.90219-0.02863 0.24814-0.17478 0.13903-0.23306-0.02837-0.17478-0.11096-0.11647-0.31202 0.05814-0.39659 0.30071-0.45108-0.11646-0.3402 0.17478-0.67289 0.71049-0.4511 0.08838-0.50749 0.5056-0.1654 0.41727-0.31388 0.27261-0.1372-0.0882-0.11096-0.3308-0.1372-0.0882-0.1372 0.0882-0.11096 0.47552-0.25751-0.20297-0.47928 0.44544-0.1372-0.17478 0.05447-0.41724-0.19361-0.14652-0.19361-0.17478-0.02837-0.23306 0.11096-0.47743-0.5338-1.2725-0.08272-0.38908 0.36841-0.24253v-0.08622l-0.59019-0.38908-0.08272-0.17478 0.98488-0.30074 0.56198-0.06012 0.6992-0.02863 0.9567-0.0882 0.4511 0.05814 0.7913-0.23306 0.4229-0.47739 0.1654-0.68043 0.87401-0.30074zm-14.86 22.239-0.28572-0.05816-0.11096-0.17478 0.1654-0.27261 0.3402-0.03005 0.13903 0.23306zm0.24811-1.2743-0.11096-0.20295 0.02837-0.27263 0.13903-0.33082 0.21993-0.02865 0.11096 0.30074-0.11096 0.38905z" fill="#e2b584"/>
   <path d="m100.38 277.28-0.11105-0.0586 0.11105-0.11648 0.0545 0.0581v0.0582zm-11.572-42.986h0.02839l0.21992 0.17658 2.0525 0.65224 0.4229 0.41909 0.19361 0.50562 0.5338 0.30262 0.47928 0.0565 0.9567-0.44734 0.39659 0.53382 1.0131 0.27261h0.6165l0.58831 0.50561 1.0413 0.2425 1.4642-0.17478 1.4924-0.62216 0.95671-0.50557 0.2857-0.35902 0.0829 0.44736 0.67289 0.0881 0.72742 0.50561 0.6165 0.17657 0.25751 0.62215 0.0827 0.89466-0.22178 0.71052-0.50562 0.89467-0.59017 0.80636-0.25751 0.68038 0.13716 0.36088 0.3402 0.4774 0.50559 0.53382 0.765 0.65222 0.81949 0.36085 0.7274 0.35901 0.67288 0.53569 0.87402 0.80632 0.81949 0.33081h0.59019l0.67288 0.0863 0.9022-0.41727 0.72741-0.14651h1.0394l0.64471 0.0582 0.93037 0.11471 0.79128 0.20669 0.79132 0.33078 0.13897 0.65034-0.6729 0.41727-0.9567 0.17479-0.765 0.3308 0.34022 0.50746 0.67288-0.0884 0.5056-0.0863 0.39659 0.14652 0.5056 0.56388-0.36841 0.80633-0.79131 0.20495h-0.64468l-0.6165 0.8947 0.13716 0.76874 0.0829 0.53564 0.22179 0.11648 0.874-0.11648 1.3815-0.41723 0.9304-0.0882 0.39656 0.73866-0.1936 0.95296-0.45108 0.71047-0.61649 0.71051-0.34021 0.50559-0.0284 0.73866 0.76312 0.47744 0.56198-0.11649 0.67102 0.36085-0.2481 0.89467-0.36841 0.7105 0.42291 0.41725 0.61648-0.11647 0.72742-0.0582 0.79132 0.0582 0.9567 0.11647 0.16542 0.11648 0.34019 0.59396 0.28572 0.6804v0.83641l-0.98492 0.3007-0.874 0.44923-1.0394 0.44548-0.84769 0.73867-0.45111 0.11838-0.79129-0.20496-0.5056-0.0285-0.6992 0.0863-0.64469 0.2706-0.76499 0.92479-0.36841 0.98114 0.0545 1.1277 0.0829 0.70861 0.16543 0.8947 0.3684 0.47737 0.67288 0.68041 0.58833 0.0285 0.2857-0.0582 0.67288-0.41915 0.53376-0.53381 0.53383-0.65224 0.67291-0.53565 0.72739-0.26115 1.0131 0.23304 0.5056 0.17479 0.67289 0.27061 0.8195 0.59206 0.562 0.30072h0.90219l0.59018 0.1185 0.1935 0.11648 0.53383 0.53567 0.13733 1.0112 0.0285 0.71051 0.13733 0.41724 0.76498 0.11648 0.3684-0.17496 0.39472-0.23305 1.0958 0.0884 0.42295 0.2726 0.0285 1.1278 0.16543 1.2743-0.1935 1.0977-0.13896 0.71048-0.36842 0.76874 0.11092 0.50558 0.1109 0.33083 0.34023 0.86462 0.16543 0.70859v0.73868l0.13733 0.83827 0.0285 0.59208 0.25743 0.30262v0.7669l-0.64472 1.0695-0.47926 0.33078-0.36842 0.0863-0.47927 0.26315-0.45112 0.27062-0.59018 0.50564-0.31389 0.38905-0.24795 0.44923-0.56197 0.73867-0.0285 0.89468 0.31389 0.76684 0.21988 0.68228 0.1935 0.86461 0.1654 0.36093 0.16543 0.17479 0.42289 0.2726 0.25742 0.14472 0.36842-0.0285 0.42292-0.0582 0.34017-0.14651 0.4793-0.47554 0.16542-0.30077-0.0545-0.59396-0.3966-0.47552-0.0285-0.47555-0.0545-0.76873 0.34021-1.2442 0.50744-0.36091 0.87401 0.0601h0.4793l0.93038 0.0582 0.45107 0.11648 0.47928 0.59395 0.25744 0.17479 0.36842 0.35899 0.24823 0.5357 0.16543 0.53378 0.28578 1.1879-0.76501-0.50565-0.61646 0.73872-0.69921 0.47737-0.5902 0.76691-0.671 1.2443-0.36839 1.186-0.42293 0.1185-0.16542 0.41723-0.16541 0.86462v0.50561l-2.3119 0.17477-1.2987 0.38909-1.3815 0.0884-0.22179-0.80635-0.61651-0.86647-0.61645-0.11648-0.56204-0.17478-0.72741-0.5056-0.36837-1.2443 0.11105-0.56382 0.13715-0.65226-0.0284-1.0112 0.16543-0.76686-0.21992-1.2443-0.16543-0.73866-0.64467-0.50562-1.0131-0.24249-0.874-0.38909-0.90222-0.6221-0.67289-1.2161-0.28568-0.26316-0.4229 0.35902-0.59017 0.47739-0.34022 0.30074-0.6165 0.76874-0.64467 0.47741-0.84769-0.17477-1.0676-0.30071-0.87401 0.30071-0.5056 0.35903-0.59017 0.38908-0.69921 0.73865-0.42292 0.36086-0.36835 0.11649-0.0545-0.44732-0.56196-1.4285-0.31202-0.68231-0.21991-0.30068-0.31389-0.17479 0.0545-0.36089-0.22184-0.8364-0.31388-0.7105-0.45107-0.71048-0.22182-0.0582-1.7499-3.3249-0.2575-0.17478-0.81948 0.0582-0.28572-0.47555-0.28572-0.30073-1.1503-0.76688-0.34019-0.0582-0.19361 0.30074-0.3402-0.30074-0.98491-0.11648-0.16542-0.20496-0.3684-0.71049-0.02843-0.36088 0.34019-0.53379-0.11087-0.73867 0.34019-0.62213 0.13716-0.0884 0.02843-0.20496-0.05448-0.0863-0.1936 0.0586-0.31199 0.4755-0.13716 0.0582-0.16542-0.11649-0.13716-0.71049-0.11105-0.23305-0.11107-0.11648v-0.47737l-0.1936-0.86651-0.5056-1.0394-0.42291-0.17478-0.21992-0.23305-0.22181-0.56385h-0.28569l-0.13716-0.20297 0.16542-0.41725 0.25751-0.23305 0.28571-0.0863 0.16542 0.0285 0.3402 0.68227 0.13896-0.03 0.11105-0.14471-0.11105-0.44732h0.29322l0.02844-0.11648-0.05454-0.0285-0.39657-0.30074-0.874 0.0302-0.13716-0.0586-0.02844-0.23303 0.64468-0.89471 0.0828-0.47741-0.02844-0.76688-0.47928-0.17479-0.11105 1.3703-0.16542-0.11647v-1.3214l-0.16542-1.3702-0.39659-0.95299-0.34019-1.6634-0.3402-1.0112 0.1654-0.30259 0.22179 0.14651 0.1654-0.0285 0.11105-0.4173 0.39659-0.47741-0.25751-0.47741 0.05454-0.47743-0.13716-0.17477h-0.08281l-0.16542 0.76688-0.08272 0.17479-0.1654 0.41913-0.28572 0.30074h-0.31204l-0.22179-0.11648-0.1372-1.2443-0.6165-1.3702-0.19361-0.71048v-1.0695l0.24811-0.30263 0.90218-0.23304 0.47928-0.53383-0.08272-0.0581-0.19361 0.0581-0.64468 0.36089-0.31389 0.0585-0.21993-0.30263h-0.11096l-0.28572 0.53383-0.13719-0.0582-0.19361-0.65034-0.4229-0.5639-0.2199-0.62213 0.05447-0.59207-0.08272-0.53566-0.47928-0.86464 0.08272-0.70859 0.05447-0.20497h0.05447l-0.02837-0.5056-0.90218 0.27062-0.08272-0.359 0.05447-0.23305-0.08273-0.7105 0.1372-0.65221 0.19361-0.0285 0.08272 0.44732 0.1372-0.0586 0.25751-0.53571 0.1654-0.0285 0.5338 0.17477 0.31199-0.23506 0.1654-0.4473 0.28572-0.17477 0.0545-0.35896-0.13719-0.14651-0.72741 0.68039-0.5338-0.20497-0.39469 0.4473-0.19361 0.0586-0.39658-0.23308-0.25751-1.0112-0.31388-0.44736-0.11096-0.35901 0.05447-0.44731 0.5338-0.0586 0.84769-0.80632-0.19361-0.14652-0.6165 0.44734-0.0545 0.0285h-0.4229l-0.312-0.11839-0.3684-0.41725-0.6165-1.186-0.79131-2.498-0.56198-0.41917-0.08273-0.95295-0.19358-0.59392 0.1654-0.47745 0.02837-0.11647 0.36838-0.4774h0.21993l0.1654 0.1185 0.4229-0.30262h0.1654l0.5338 1.9642 0.7631 0.65219 0.02837 0.20496-0.1372 0.0285-0.28571-0.11647-0.1372 0.0285-0.11096 0.20496 0.11096 0.36089 0.3402 0.11648 0.36838-0.11648 0.28572-0.27262 0.31388-0.0586-0.08271-0.56387-0.9567-0.76875-0.11096-0.23305 0.3684-0.0302 0.1654-0.20296-0.13903-0.24251-0.28572-0.11837-0.31389-0.30071-0.08272-0.20497 0.1654-0.24252 0.4511 0.36086 0.08272-0.11648-0.19358-0.44732 0.08272-0.17477-0.05448-0.11647-0.56198-0.0603v-0.0582l-0.11096-0.27262-0.19361-0.20294-0.61651-0.0582-0.24811-0.17476-0.1654-0.4173-0.3402-0.41913-0.11096-0.41916 0.05447-0.24252 0.22179-0.23306h0.47928l0.28572 0.0581 0.53377 0.53573 0.28572 0.0582zm8.9203 39.957-0.13716-0.0582-0.11105-0.14652-0.31388-0.44917-0.16542-1.1842h0.24809l-0.05435 0.1147 0.19357 1.0695 0.47928 0.53569zm-3.1202 5.2309-0.05447-0.0301 0.08273-0.0582 0.08273 0.0285-0.02839 0.0302zm1.5187-5.2891-0.02844-0.0582 0.02844-0.0601 0.05453-0.0586 0.05454 0.0882-0.02844 0.0881zm-1.0958-1.0713-0.05454-0.0302v-0.0863l0.05454-0.0582 0.02844 0.0582v0.11647zm0.30263 3.7142-0.05454-0.0863 0.02844-0.11649 0.0828 0.0582 0.02844 0.11648zm-0.05454 2.5299-0.05453-0.0586-0.02844-0.0582 0.05454-0.0582 0.05453 0.03z" fill="#b0c2b0"/>
   <path d="m59.733 60.05-1.3533-0.23306-0.36841-0.11646-0.02837-0.11645 0.53381-0.20295 0.28569 0.02863 1.0131 0.53566zm5.0073-56.009 0.02838 0.76871v0.92288l0.08272 1.0394 0.11096 1.3702 0.08273 0.59393 0.22182 0.7086 0.61647 0.59396 0.39658 0.47554 0.53381 0.41913 0.50749 0.41726 0.95671 0.30074 0.4511 0.53379 0.47928 0.71049 0.72741 0.20296 0.56198-0.17487 0.02837-0.62214-0.11096-0.59393 0.02837-0.47554 0.28572-0.30071 0.59018 0.23306 0.81948 0.83639 0.31202 0.35898 0.7913 0.11839 0.5883-0.11839 0.72741 0.17658h0.671l0.59019 0.17658 0.5338 0.53379 0.59019 0.56389 0.50562 0.23305 0.90221-0.68042 0.72741-0.89464 0.61648 0.47554 1.0958 0.76874 1.3251 1.0977 1.5751 0.62211 1.1503 0.36091 1.6014 0.3007 1.0958 0.95295 0.84769-0.11645 0.76499 0.02862 0.874 0.27261 1.0131 0.47554 0.3402 0.41913 0.1372 0.7086v1.0112l-0.22182 1.6033-0.7913 1.186-0.4229 1.3721-0.31388 0.65219-0.3402 0.76874-0.08273 0.53382-0.02838 0.41724 0.21993 0.83831 0.11096 0.47552 0.4229 0.76876 0.81951 1.1879 0.5056 0.76685 1.0676 0.65222 0.874 0.71045 1.0131 0.08622 0.76499 0.7387-0.3684 1.6052-0.36841 0.89468 0.11096 0.53378 1.0676 0.95106 0.72741 0.65224 0.95671 0.62211 0.93038 1.0996 0.36841 0.41724 0.61651 0.83642 0.95672 1.1278 0.47928 0.30263 1.2969 0.65217 0.0545 0.30074 0.3684 0.76877 0.3402 0.71046 0.3139 0.30263-0.0284 1.0112-0.42293-0.03006 0.0284 1.1277 0.21994 1.1578h0.87399l0.95673 0.20295 1.2969-0.08621 0.31387 0.47741v0.76874l-0.0545 1.1278 0.13716 0.7086 0.47929 0.83642 0.31389 0.23306 0.79129 0.47557 0.87402 0.05814 0.93038 0.38905 0.13716 0.44733-0.0284 0.83642 0.13718 0.65222 0.47926 0.41729 0.6165 0.11645 0.3684 0.41913 0.13716 0.47558 0.67291 0.74053 0.0284 0.95295 0.25751 0.50558 0.19363 0.33082 0.34018 0.33082 0.25752 0.8646 0.0284 0.44733-0.11092 0.59207-0.59021-0.30072-0.562-0.30074h-0.36846l-0.22178 0.35901-0.47928 0.41727-0.13716 0.17478h-0.42289l-0.16543-0.68039-0.45105-0.80632-0.4229-0.59207-0.64469 0.17478-0.4229 0.5338-0.5338 0.47743-0.31203 0.17478-0.6992 0.30074-0.6992-0.02863-1.0676 0.11646-0.31198 0.3308 0.31198 1.2443 0.36841 0.53377 0.11106 1.0695 0.0545 0.98112-0.64469 0.92289-1.1221 1.0131-0.95671 0.47549-0.5902 0.17478-1.2424 0.53382-0.69921 0.41913-0.67289 0.76878-0.765-0.03006-1.0394-0.30071-0.98491-0.08838-0.36837 0.65221-0.3684 0.76685 0.02844 0.71049 0.28569 0.50562 0.13896 0.80632-0.13896 0.44922-0.45108 0.44548-0.08281 1.0413-1.0131-1.3702-0.64469-0.02863-1.124 0.05814-1.0131-0.11645-1.0131-0.11645-0.874-0.20497-1.2067 0.03006-1.1221-0.24424-1.1503-0.53378-0.76499-0.59396-1.0131-0.24253-1.2706 0.65224-0.5338 1.186-0.39469 1.0112-0.76499 1.156-1.4097-0.14652-1.2067 0.03006-0.64468 0.73868-0.874 0.56388-0.90218-0.14652-1.0394-1.1277-1.0131-0.80632-1.0958-0.5639-0.69921 0.11645v-0.0882l-0.69913-1.2722-0.67289-0.71051v-0.71047l-0.3402-1.0695-0.84769-1.2443 0.05447-1.2161v-0.38727h-0.31389l-0.31388-0.11844-0.28572-0.11645-0.21993-0.20496-0.19361-0.30071 0.02838-0.33084 0.1372-0.24251 0.19361-0.27261 0.19361-0.26316-0.02838-0.35904-0.28572-0.11647-0.25751-0.11466-0.25751-0.24251-0.19361-0.3007v-0.3308l-0.19359-0.33084-0.22182-0.23306-0.1654-0.30256-0.24814-0.17478-0.22179-0.20496-0.28572-0.14472-0.25751-0.17478-0.28572-0.11645-0.28572-0.11646-0.25751-0.17658-0.2481-0.20297-0.25751-0.14652-0.2481-0.17478-0.31389-0.0882-0.312-0.02863-0.42479 0.11645-0.36841 0.17478-0.28572 0.17478-0.36838 0.17478-0.31389 0.05814-0.1654 0.41913-0.4511-0.03006-0.08272-0.20496-0.39658-0.05814-0.67103-0.33078-1.0676-1.4886-0.05447-0.02863-0.47928-0.47741-0.64468-0.38908-0.4511-0.17478-0.36841 0.03006-0.47928 0.23306-0.42479 0.08838-0.69921 0.47554-0.67289 0.03006-0.28572-0.11844-0.67289-0.65023-0.9567-0.83642-0.28569-0.5357-0.05447-0.05651-0.45111-0.41913-0.22179-0.33271-0.05447-0.44544 0.53381-0.83642-0.4511-0.65224-0.11096-0.41913-0.08272-1.0977-0.28572-1.0996-0.3402-0.53375-0.08271-0.30263 0.13903-0.38908 0.61651-0.50562-0.98492-2.1691-0.22179-1.0695-0.7631-1.4003-0.42479-2.1409-0.02837-0.47737 0.13903-0.59211 0.31392-0.11645 1.0676-0.05851 0.19361-0.17478-0.81948-0.30074-0.12785-0.1692-0.11096-0.36088 0.02837-0.05651 0.05447-0.3609-0.56201-1.3119-0.6992-2.528 0.05447-0.30261 0.28572-0.35901-0.24811-0.56386-0.25751-1.3139-0.28572-0.23304 0.02837-0.20496 0.3402-0.23306 0.28569-0.20295 0.21993-0.71047-0.5056 0.30263h-0.31415l-0.53378-0.36084-0.13903-0.65222 0.11096-1.1277-0.1372-0.65224 0.24811-0.8947 0.5338-0.3007 0.21993-0.23304-0.05447-0.11645-0.56201 0.17478-0.2481-0.02863-0.08273 0.27261-0.28572-0.02862-0.08273-0.47741-1.2969-1.342-0.22179-0.41913v-0.24253l0.36838-0.50558 0.1654-0.14652h0.3684l0.22179-0.59066 0.42293-0.38909 0.05447-0.35901-0.11096-0.86648-0.19361-1.1277-0.1654-0.05851 0.13903-1.2443-0.0545-0.11645-0.3402-0.27433-0.13719-0.30071 0.36838-0.33084 0.56198-0.05814 0.42292-0.83644 0.59019-0.59203 0.45111-0.23306h0.53381l0.31388 0.11844 0.31202 0.23304 0.4229 0.92474 0.22182 0.23306 0.59019 0.24251 0.56198 1.1579-0.1372-1.2838-0.19361-0.20297-0.76499-0.3308-0.13903-0.41913 0.08272-0.27261 0.25751-0.35899-0.72741-0.23306-0.53378-0.3609-0.13719-0.20297 0.13719-0.56386v-0.59392l-0.02837-0.11645-0.05447-0.17478-0.72741-1.2161 0.24811-0.56386v-0.41727l-0.47928-2.0807 0.05447-0.27262 0.05447-0.02866 0.72741-0.47738 0.3402-0.30077 0.28572-0.53566 0.19361-0.76691 0.11096-2.917 0.31388-1.1278v-0.17485h0.11096l0.61651 0.20296 0.2481-0.028668 0.5056 0.05819 0.5056-0.11639 0.50746-0.23506 0.19361-0.59207 0.7913-0.23305 0.31388-0.088286 0.39659 0.088286 0.53381 0.17487 0.31199 0.3026 0.42479 0.30263 0.31388 0.44547 0.19361 0.20496 1.0394 0.47554 0.64468-0.24252 0.31388-0.89467 0.3402-0.59393 0.5056-0.41729 0.31388-1.0695 0.61648-0.71046 0.3402-0.47741 1.5751 0.27262zm-13.12 47.498-0.25751-0.36092v-0.17478l0.21992 0.03006 0.28572-0.11646 0.08273 0.14652-0.1654 0.35901z" fill="#f9d3c6"/>
  </g>
  <g stroke="#000" stroke-width=".4px">
   <path d="m12.144 73.061 0.87257 0.74168 0.39265 0.17451 0.3054-0.08725 1.0471-0.78531 0.87257-1.0471 0.95982-2.5304 0.56717-1.178 1.6579-2.7486 0.08725-0.21814-0.04363-0.17451-0.13088-0.34903-0.21814-0.43628-0.08725-0.87256 0.08725-0.13089 0.95982-1.0034 0.13088-0.47991"/>
   <path d="m14.602 73.197 0.2351 0.34804 0.94641 0.41754 0.25052 0.08351 0.27836 0.33403 0.94641-0.33403 0.58455-0.19485 0.50104-0.13918 0.52888-0.11134 0.3897-0.33403 0.36186 0.02783 1.5588 0.08351 0.05568 0.89074 0.44537 0.52888 0.19485 0.8629 0.52333 0.37914 0.77148 0.04537 1.3614-0.95301 1.4976 1.1118 0.45381 0.22691 0.90762 0.7261 1.6337 1.8379 0.40843 0.54457-0.31767 1.1118 0.31767 1.0211"/>
   <path d="m29.437 81.712 1.9965 3.1944 3.394 3.993-0.3993 2.3958 0.99824 2.1961-0.19963 3.993-0.79859 2.3958-1.9965 2.5954-1.5972 1.1979-0.59894 1.1979-1.5972 1.1979-2.1961 0.39929 1.7968 2.1961 1.7968 5.9894 0.99824 2.3958v3.5936l5.5901 7.3869 0.19963 5.1908 3.394 1.7968 1.5972 0.79855 0.3993-1.3975 1.5972 1.1979 1.3975-1.1979 0.79859 1.7968-0.19963 6.1891-1.1979 0.79855v0.99825l-1.3975 1.1979 0.79859 2.1961-2.1961 4.1926 0.99824 5.7898-0.79859 2.1961 3.1944 4.3922 2.1961 3.1944 0.79857 2.3958v2.1961l0.1997 1.9965 1.9965 4.1926v0.99823l-1.1979 0.99823 0.39931 0.59894 0.59894 1.5972-1.1979 0.99825v1.3975l2.1961 3.9929v1.3975l-0.59894 1.3975v0.79862l0.39928 1.9965v0.79857l-3.394 0.19945-0.1997 2.1961-2.3958 0.19947 0.19963 1.3975 0.3993 1.1979-0.79859 1.1979 0.19963 2.3958 2.9947 4.5919 0.59893 1.7968 1.1979 1.1979 0.99825 2.3958 0.59894 4.1926 1.5972 2.1961v3.1944l-1.5972 2.5954-1.1979 1.5972-0.39931 1.1979 0.79862 2.1961 2.795 1.9965 1.9965 0.79861 0.59896 1.1979 0.59894 1.5972 0.19947 2.3958 0.59894 2.1961 0.59894 1.1979 1.5972 3.394 0.59896 1.3975 0.59894 1.9965v6.788l-1.1979 4.1926 1.3975 3.5936"/>
   <path d="m26.488 76.47 0.06112 1.1613 0.42784 0.24448 0.24448 0.55008-0.12224 0.36672 0.06112 0.3056 0.6112 0.12224 0.42784 0.36672-0.24448 0.67232-0.18336 1.8336-0.18336 0.48896-0.79456 1.7725-0.24448 0.48896-0.12224 0.30559-0.06112 0.67232-0.48896 1.2835-0.06112 0.42784v0.6112l-0.24448 0.97791 0.18336 0.73343 0.12224 0.12224-0.12224 0.55008 0.18336 0.42784-0.24448 0.67232 0.06112 0.48895 0.18336 0.6112-0.42784 1.3446-0.97791 0.42783-1.4058 0.9168-0.55008 0.18335-0.36672 0.61121h-0.48896l-0.73344 0.36672-0.42784 0.3056-0.85568-0.12224-0.67232-0.12225-0.9168-0.42783-0.42784 0.3056-0.48896-0.12224-0.61119-0.06112h-0.42784l-0.55008 0.61119v0.55008l-0.97791 0.48895-0.73344 0.67233-0.3056 0.3056-0.36672 0.12224-0.67232-0.36673"/>
   <path d="m44.983 203.91-1.011 1.8775-1.8775 0.43327-3.755 0.86654"/>
  </g>
 </g>
 <g transform="translate(11.436 .27234)" fill-rule="evenodd" stroke-width=".50712">
  <circle cx="20.229" cy="60.9" r="1.3644"/>
  <circle cx="11.627" cy="72.231" r="1.3644"/>
  <circle cx="13.051" cy="99.164" r="1.3644"/>
  <circle cx="38.679" cy="207.01" r="1.3644"/>
  <circle cx="61.34" cy="264.44" r="1.3644"/>
 </g>
 <g transform="translate(11.436 .27234)" font-family="sans-serif" font-size="3.175px" letter-spacing="0px" stroke-width=".26458" word-spacing="0px">
  <text x="16.847857" y="99.875404" style="line-height:1.25" xml:space="preserve"><tspan x="16.847857" y="99.875404" stroke-width=".26458">Alibag</tspan></text>
  <text x="23.254789" y="59.416813" style="line-height:1.25" xml:space="preserve"><tspan x="23.254789" y="59.416813" stroke-width=".26458">Thane</tspan></text>
  <text x="-3.874197" y="73.342628" style="line-height:1.25" xml:space="preserve"><tspan x="-3.874197" y="73.342628" stroke-width=".26458">Mumbai</tspan></text>
  <text x="19.932676" y="210.81023" style="line-height:1.25" xml:space="preserve"><tspan x="19.932676" y="210.81023" stroke-width=".26458">Ratnagiri</tspan></text>
  <text x="53.984329" y="270.72693" style="line-height:1.25" xml:space="preserve"><tspan x="53.984329" y="270.72693" stroke-width=".26458">Oros</tspan></text>
 </g>
 <circle cx="33.504" cy="75.825" r=".7712" fill-rule="evenodd" stroke-width=".28663"/>
 <text x="35.165359" y="75.35054" fill="#000000" font-family="sans-serif" font-size="3.175px" letter-spacing="0px" stroke-width=".26458" word-spacing="0px" style="line-height:1.25" xml:space="preserve"><tspan x="35.165359" y="75.35054" font-size="2.1167px" stroke-width=".26458">Navi Mumbai</tspan></text>
</svg>
