<!-- Created with Inkscape (http://www.inkscape.org/) -->
<svg width="230mm" height="243.5mm" version="1.1" viewBox="0 0 230.00044 243.49929" xmlns="http://www.w3.org/2000/svg" xmlns:cc="http://creativecommons.org/ns#" xmlns:dc="http://purl.org/dc/elements/1.1/" xmlns:rdf="http://www.w3.org/1999/02/22-rdf-syntax-ns#">
 <metadata>
  <rdf:RDF>
   <cc:Work rdf:about="">
    <dc:format>image/svg+xml</dc:format>
    <dc:type rdf:resource="http://purl.org/dc/dcmitype/StillImage"/>
    <dc:title/>
   </cc:Work>
  </rdf:RDF>
 </metadata>
 <g transform="translate(20.597 -26.325)" stroke="#fff" stroke-width=".5">
  <path d="m15.527 44.623 0.08634-1.0868 0.47081-0.46687 0.14319-0.4669-0.14319-0.84154-0.2982-0.52767-0.02932-0.73958 0.3845-0.80232 0.3845-0.6807 1.0279 0.09215 1.0848 0.31582 0.79841 0.03142 0.70228-0.8004 0.72974-0.43549 1.2967-0.55908 0.614-0.1825 0.99849-0.49829 1.1731-1.0554 0.67284-0.96516-0.05688-1.024-0.11581-1.1162-0.3845-0.55905-0.32759-1.2986 0.32759-0.34526 1.1142-0.12147 0.72974 0.03141 0.72975-0.31582 0.32759-0.1825 0.55712-0.49823 0.44137-0.55714 0.67284-0.1825 0.44137 0.61988 0.47081 0.84157 0.17263 0.71011h0.4414l0.14319-0.1825 0.50022-0.43552 0.23148-0.37664h0.38449l0.58656 0.31585 0.61597 0.31585 0.11581-0.61991-0.02962-0.46688-0.26876-0.90434-0.35506-0.34526-0.20204-0.34526-0.26876-0.5277 0.41196-0.80232 0.82587 0.03142 0.85528 0.12147 0.67287-0.06074 0.50022 0.21392 0.94162 0.61793 0.99849 0.71209 0.64343 0.11967 0.20207-0.11967 1.3555 0.09006 0.97103 0.28452 1.0868 1.0554 0.72974 0.46685 0.29817-0.15288 0.3845-0.43549 0.55709-0.49631 0.58656-0.6807 0.25894-0.09006 0.55712 0.09006 0.67284-0.73952 0.4414 0.49626 0.67284 1.177 0.20204 1.7361 0.1451 1.6733 0.49824 1.2378 0.94162 0.99458 0.94159 0.61793 1.0279 0.74153 1.9421 0.96514 1.4124 0.64929h0.85531l1.0848 0.12147 1.385 0.37664 1.1142 0.02993 1.2594 0.46688 0.41391-0.12147 1.2005-0.06074 1.0868-0.49823 1.0573-0.49826 0.64343-0.31585 1.2594-0.28452 1.2005 0.1825 0.99849 0.67873-0.08634 1.2692-0.44334 0.6179-0.52768 0.43747-0.99849-0.12147-0.75919-0.1825-0.32565 0.12147-0.52768 0.1825-0.17266 0.55905-0.17263 0.93378-0.32565 0.49826-0.55712 0.1825-1.0279 0.34526-0.97103 0.61991-0.97103 1.026-0.41391 0.31384-0.6434 1.4301-0.22953 0.5277-0.4414 0.61991-0.14319 0.55711 0.3845 1.4007 0.58653 1.6752 1.383 1.3594 0.67284 0.93378 0.94162 1.3693 1.3849 1.024 0.79643 1.2692 1.6439 1.5536 1.6145 1.6145 1.4124 1.6733 0.85528 0.93375 0.79841 1.026 1.1437 1.2692 1.2967 1.177 0.35506 0.43552 1.0848 0.99458 1.4987 1.5222 0.88472 0.9024 1.1142 1.4614 0.58653 0.90237 0.99852 0.96514v0.61988l-0.20207 0.21182-0.70228 0.74153-0.23148 0.49826-0.08634 0.80038 0.2982 0.77291 0.64341 0.28243h0.61597l0.91218 0.06283 1.5282 0.12147 1.2966 0.80232 0.05685 0.73958 0.55713 1.1162 0.11581 0.9024-0.02963 0.46684 0.41194 0.80035 0.20207 1.026 0.1451 0.77093 0.05685 0.99458 0.82587 1.432 0.17263 0.84157 0.4139 1.3006 0.97103 1.4614 0.5571 0.34526 1.2006 0.70816 0.32761 0.12357 0.72974-0.1843 1.0848-0.49632 0.08646-0.55908 0.35507-1.33 0.11578-0.49635 0.23157-0.71011 0.8553 0.12147 0.94162 0.31384 0.88471 0.74153 0.61401 0.7415 0.35507 0.43552 0.14331 1.177 0.1451 1.024 0.05685 0.80232 0.29829 0.4669 0.7984 0.1825 0.50023-0.02993 0.75918-0.09215 1.2967 0.09215 0.82587 0.64932 0.5002 0.80235 0.11579 0.80038-0.44136 0.93572 0.0299 0.31381 0.14331 0.40608 0.8553 0.96319 0.38448 0.06074-0.11578 1.024-0.72974 0.96517-0.47079 0.58846-0.47083 0.73958 0.58655 0.87494 0.82784 0.52569 1.4418 0.3747 1.4693 0.49825 1.6713 0.24324 1.8832 0.37664 1.23 0.28452 1.5576 0.3747 1.5556-0.1825 0.58655 0.21391 0.6434 0.43546 0.50026 0.5277 1.0279 1.024 0.47078 0.77096 0.67287 0.0901 0.85527 0.24324 0.7984 0.0314 0.67284 0.52767 0.44336 0.99458-0.14511 0.87295 0.14511 1.2986 0.64342 0.31582 0.5571 0.2531 0.79646 0.43549 0.55712 0.37668-0.17264 0.93372-0.44138 1.026-0.79843 1.0848-1.4124 1.5831-1.3261 0.84155-1.1142 0.55908-1.8263 1.2986-0.35504 1.024-0.0864 0.80235-0.0299 1.1162 0.17263 0.52767-0.2591 0.8749h-0.64345l-0.82586-0.2531-1.7008-0.52965-0.72973-0.15109-0.97103-0.43549-1.0279 0.0314-1.2006-0.28452-1.585-0.43745-0.97103-0.15109-1.383-0.21391 0.20195-0.43546 0.20195-1.1162-0.0864-0.84155-0.79646-0.4669-0.72974-0.25311-1.1142-0.5571-1.4124-0.37668-1.0848-0.31584-1.1437-0.28453-1.0279-0.43549-1.8538-0.5277-1.3261 0.71014-0.29829-1.1456-0.58658-0.24324-0.75915 0.0608-0.70033 0.0314-1.23 0.21182-1.4713-0.28452-1.7302 0.21182-1.5851-0.24323-1.2006 0.37664-1.4987-0.31581-2.1716-0.12148-1.5556-0.49826-2.2579 0.3747-2.4403-1.026-1.6713-0.71014-2.0853-0.84155-1.4693 0.18251-1.8832-0.15288-1.5576-0.24324-2.1716-0.61796-2.1421-0.61988-1.8832-0.31387-3.3525-1.3006-2.2579-0.87299-2.0284-0.77093-2.0853-0.84155-1.9695-0.1825-2.4697-0.99457-1.2006-0.12148-2.2873-0.46684-0.88472 0.40605-0.14319 0.96514-0.05685 1.4006-0.47078 1.1162-0.97103 1.3594-0.50022 0.87296-0.25894 0.99259-0.25894 1.3006-1.1437 1.7341-1.0848 0.1825-0.99849-0.24323-0.82587-0.1843-0.58653-0.059-0.50022 0.49631-0.20204 0.6807-0.47081-0.12147-0.70034-0.7415-0.85528-0.73955-1.3536-0.68073-0.97103 0.0611-0.52768 0.49826-0.72975 0.25311-1.23-0.18251-1.23 0.12148-1.0573 0.87296-0.47084-1.2986-0.41391-0.55905-0.58653-0.3139-0.88472-0.28453-0.97103-0.77093-0.08634-0.84158 0.23148-0.96513 0.22953-0.73955 0.50022-1.2378 0.91218-1.6753 0.58653-0.93378-0.47081-1.0554-0.55712-0.31388-1.23-0.3747-1.2869-0.37466h-0.85532l-1.1711-0.43555-0.70228-0.64929-0.55709-0.77094-0.50022-0.77093-0.23148-1.026-0.26881-0.90242-0.67285-1.2986-0.91222-0.55908-0.97103-0.58852-1.1711-0.43546-1.1142-0.40611-0.88471-1.026-0.75919-0.40605-0.11581-0.71014 0.35506-0.7415 0.58653-0.25311 0.67284-0.1825 0.52768-0.43549-0.4414-0.90431-0.79841-0.77093-0.82587-0.71014-0.47081-1.1476v-0.96319l-0.056845-1.2692-0.2982-1.0554-0.52966-0.61793-1.1711-0.46688-1.0868 0.21392h-0.70203l-0.55712-0.61988v-0.49632l0.52768-0.55908 0.32759-0.31582 0.41391-0.3139 0.086344-0.55905-0.38447-0.3139-0.58656-0.61988-0.52966-0.43549-0.52768-1.0554-0.50022-1.0554-0.26876-1.3594 0.41196-0.87296 1.383-0.43746 0.41391-0.84154 0.91218-1.5831 0.35506-1.3006-0.029619-0.80038-0.99849-0.43549-1.2006-0.49826-0.50022-0.24324-0.3845-0.80034 0.17263-0.93378 0.55712-0.61991 0.75918-0.87293 0.58656-1.0574 0.17263-1.2064 0.41391-0.96319 0.26876-1.1162 0.20207-1.4909 0.029619-0.80235 0.029619-1.177 0.67284-0.80035 0.61399-0.49826 0.64343-0.71014 1.2006-0.84154 1.0848-0.43744 0.99849-1.3595 0.97103-1.4928 0.4414-1.0868 0.38447-1.024 0.55712-0.93375 1.0868-1.6753 0.91218-1.8577 0.88472-1.6145-0.11581-0.90237z" fill="#c2f0c2"/>
  <path d="m101.96 98.414 0.99849-0.6807 0.72978-0.49826 0.99849-0.61988 0.70227-0.21182 1.2967-0.15288 0.91218-0.4669 0.94159-0.77094 0.82587-0.93375 0.99849-0.49829 1.4987-0.24324 0.82586-0.31384 0.50024-0.43549 0.58655-1.177 1.1436-0.37664 1.0848 0.77093 0.97102 0.46688 0.91219-0.55905 0.94162-0.64734 0.44138-0.99457 0.17263-0.58852 1.2967-1.0554 0.67286-1.6145-0.0864-0.80035 0.44135-0.93375 0.88472-0.12147 0.91217 0.64932 0.64343 0.40608 0.97106 0.15288 0.70227-0.80232 0.58652-0.9024 0.64345-0.74152 0.94162 0.37473 0.94159 0.43543 0.75917 0.37667 1.0868 0.25311 0.70227-0.03141 0.26866-0.09215 0.67284 0.55905-0.0299 0.61796-0.0864 0.93375 0.17263 0.80232-0.29829 0.96319-0.23157 0.84154-0.22947 0.6807 0.0864 1.2378 1.0868 0.93378 1.1731 1.2378 0.72975 0.49628 0.79839 0.8749 0.79844 0.84157 0.55711 0.6807 0.94159 1.0848 0.5277 1.43 0.55711 0.90236 0.3276 0.64934 0.6434 0.93375 0.25909 1.4614 0.44141 1.5831v0.90237l0.17263 0.90239 0.61595 0.68068 0.75919 0.3139 0.64342-0.0608 0.88471-0.2531 0.67283 0.12356 1.1712 0.15109 1.2594 0.0314 0.72976-0.15288 0.85532-0.28452 0.44134-0.37664 0.22947-0.73955-0.11581-0.80233 0.23158-0.90433 0.79842-0.84155 1.4418-0.64935 1.0574-0.61988 1.0573-0.68066 0.72975-0.58855 0.35507-0.77289 0.5865-1.0534 0.72976-0.96514 0.67286-0.37664 1.2868-0.34526 1.4124-0.25311 0.7984-1.2064 0.47079-1.2692-0.82588-0.28632-0.0864-0.80038-0.0864-1.2986 0.0864-0.99458 0.44137-0.80235 0.55709-0.1825 1.3261 0.21392 0.44137 0.64935 1.2594 1.4614 0.79642 0.58852 0.88471 0.84157 1.2005 1.0848 0.47082 0.93375 1.3555 0.1843 1.1731 0.24324 1.23 0.49628 1.2006 0.06283 1.2299 0.40608 0.94162-0.28632 0.75918-0.58852 0.44135-0.64929 0.38451-0.93378 0.44333-0.55905 0.44139-0.43552 0.99849-0.12147 1.0279-0.1843 0.82586-0.68067 0.38451-0.99458 0.52766-0.61988 0.4414-0.58852 0.67286-0.15109 0.91217 0.90236 0.61597 0.84158 0.35507 1.0868-0.14502 0.77097-0.47084 0.87296-0.91217 1.1181-1.23 1.2378-1.6439 1.177-1.1142 1.2986-0.79841 1.2986-0.99849 1.4301-0.14337 0.37464 0.25909 0.80238 0.55708 1.1162 0.0568 0.87298 0.22949 0.84155 0.03 1.024-0.14337 0.61988-0.14517 0.6807-0.0864 0.73956-0.44135 0.0608-0.47081 0.31582-0.38448 0.15288-0.32566 0.34526 0.22947 0.67878 0.6434 1.1456 1.2594 0.96513 0.25879 0.77097 0.82586 1.2692 0.35507 0.80035-0.11581 1.0868 0.14337 1.5537-0.0864 1.0868-0.64345 0.43549-0.8553 0.3139-1.173 0.21392-1.3555-0.0901-0.94158-0.31584-1.2006-0.87296-0.67284-0.64928-0.67287-0.55715-0.79838-0.40605-0.79841 0.3472-0.47079 0.61797-0.23156 0.71205-0.32568 1.4909v0.74156l-0.22947 1.1162 0.03 0.87295 0.41389 1.1162 0.88473 1.8263 1.0573 1.2378 1.0279 1.33 0.99849 0.73955 0.79844 0.25311 0.55709-0.12147 0.7592-0.93375 0.75917-0.55909 0.88474 0.12148 0.70226 0.21391 0.72975-0.15288 1.0868 0.12357 1.1143 0.61793 0.11581 0.49632-0.38451 0.58849-0.79841 0.77094-0.50023 0.49826 0.11581 0.71017 0.0589 0.8749 0.94163 0.80034 1.4418 0.28452 1.5281-0.43746 0.91219-0.58849 1.5282 0.0922 1.4693 0.0611 1.2967 0.0901 0.97103 0.31586 0.88471 0.84152 0.20195 0.84156-0.64342 0.40608-0.38452 0.43548-0.5002 0.43552 0.35504 1.1162 1.2967 0.93375 1.2006 0.31581 0.99849 0.18251 1.0279-0.24324 1.2005-0.31384 1.4987-0.58853 1.1142-1.024 0.55712-0.80235 0.82586-0.31583 0.82591 0.99455 0.32757 0.46691 0.72976 0.96516 0.55711 0.43546 1.0279-0.0607 0.52964-0.49628 0.3276-0.0922 0.4139-0.0922 0.64345 0.40605 0.52767 0.6199 0.88472 0.9024 0.64345 0.93375 0.5571 0.87296 0.99849 0.43746 0.38448 0.73952 0.41196 0.74153 0.64342 0.52769-0.32563 0.0922-0.26867-0.0315-0.47079 0.64931-0.32564 0.43546-0.14322 0.49829-0.20196 0.73955-0.38451 0.80232-0.55714 0.55912-0.85531-0.25312h-0.5571l-0.91416-0.24323-0.61401-0.21391-0.61404 0.0315-0.58656 0.25311-0.61598 0.37466-0.20195 0.40608-0.03 0.6179 0.03 0.46889 0.58655 0.80033 0.23156 0.37668 0.72975 0.71011 0.41388 0.52768 0.0567 0.71211-0.26867 0.77093-0.75917 0.64931-0.55712 0.55709-0.64345 1.024-0.32757 0.80235-0.03 1.024 0.20195 0.52768 0.35507 0.55906 0.88471 0.43552 0.72974 0.28243 0.41389 0.21391 0.35507 0.24324 0.057 0.61986 0.0864 0.71016-0.17263 0.52766 0.03 0.43748 0.23156 0.18249 0.52771 0.43549 0.47079 0.34525 0.50023 0.77094 0.11581 0.80232-0.29828 0.73955-0.55714 0.93378-0.64343 0.49632-0.88471 0.31585h-0.35507l-0.35504-0.18251-0.44138-0.49824-0.0864-0.25312-0.50021-0.49823-0.22946-0.67878-0.67287-0.12154-0.61401 0.12154-0.14517 0.43552-0.20196 0.40605-0.38451 0.46687-0.44138 0.31386-0.44138-0.68069-0.32758-0.4649-0.3276-0.34528-0.67284-0.61989-1.4124-0.73952-0.52767-0.1825-0.85527 0.27465-0.50023 0.25312-0.88472-0.0315-0.82586 0.18429-0.82785 0.18251-0.8553 0.37467-1.0279 0.0628-0.94161-0.24324-0.38449-0.28453-0.88471-0.46687-0.64342-0.43549-0.61601 0.12153-0.29827 0.37664-0.38445 0.43549-0.32566 0.43552-0.4139 0.49823-0.47078 0.55714-0.61405 0.99458-0.29829-0.40609-0.75918-0.21392-0.52767-0.0607-1.0574-0.12154-0.3276-0.15289-0.72973 0.03-0.58659 0.37664-0.41388 0.31387-0.85527 0.0607-0.72974 0.0315-0.97103 0.0315-0.61405-0.0922-0.99849-0.12154-0.8553-0.84153-0.47079-0.67874-0.26867-0.64928-0.72976-1.2692-0.35505-0.43747-0.91218-1.177-1.2967-0.21393-1.1142-0.71017-0.75917-0.12349-0.38448 0.12349-0.2983 0.28453-0.3276 0.90431-0.50023 1.177-0.14337 0.55715-0.41195 0.55908-0.35507 0.11973h-0.32757l-0.52771-0.73955-0.55709-0.49629-0.50025-0.49632-0.70032-0.71208-0.2983-0.5277-0.29827-0.21182-0.72973 0.03-0.8553 0.0315-0.7592 0.0315h-0.96905l-0.67283-0.18252-0.94161-0.67875-0.32762-0.5277-0.14337-0.84154 0.057-0.71011-0.67284-0.58853-0.58651-0.37466-0.55714-0.37469-0.5002-0.68071-0.38452-0.34525-0.17263 0.15289-0.32566 0.67875-0.38445 0.99455 0.11371 1.0534 0.14336 0.87295 0.38451 0.80233-0.23156 0.68071-0.64348 0.46691-0.91219 0.0922-0.67282 0.18252-0.47083 0.25309-0.11581 0.37471-0.14518 0.7415 0.057 0.55712 0.64345 0.93378 0.44138 0.37663 0.44334 0.31583 0.82585 0.52767 0.38452 0.90434-0.29828 0.0922-0.97104 0.03-1.5282 0.61796-0.97102 0.62183-1.2594 0.73955-0.41392 0.24323-0.88472 0.84154-0.61595 0.4669-0.38448 0.71013-1.0005-0.46685-0.82586-0.55911-0.91218-0.61792-1.2594-0.80232-0.72974-0.43552-0.58655 0.52773-0.17262 0.40605-0.17264 0.31582 0.11579 0.87296 0.3276 0.61988 0.58655 1.6125 0.0864 1.3594-1.383 0.71014-0.94159 0.03-0.55714-0.93375-0.20195-0.68073-0.55711-1.6438-0.17263-1.1476-0.67283-0.52769-2.0264 0.71011-1.4124 0.93378-0.67284 0.87292 0.4708 1.2378 0.67286 1.4909 0.20196 0.80232-0.67287 1.4301-1.1436 0.31387-1.1731-0.0607-0.79646-0.61987 0.38448-1.177v-0.74155l-0.88471-0.31386-0.97103-0.49829-0.67284-0.15289 0.38445-0.46489 0.91219-0.9338 0.99849-0.93375 0.23157-1.3712-0.20196-0.80035-0.58652-1.0574-1.5556-0.73955-0.7023 0.46688-1.4124 0.90436-1.6439 0.55712-1.7871 0.34522-1.7008 0.0607-1.7576-0.03-1.8832 0.15289-1.0848 0.27256-1.2594 0.74152-1.2299 0.37469-2.2285 1.6439-0.82586 1.1476-1.383 2.5168-1.1731 1.3594-1.3555 0.40608-0.70227-0.55906-0.26866-0.37469-0.0864-1.177 0.70228-0.93378 0.26867-1.177-0.26867-0.31583-0.50023-0.43552-0.94162-0.18249-0.94163-0.24325-0.94158-0.31578 0.38451-0.96319 0.99849-1.2398 0.88472-0.84154 0.26867-1.2378 0.20194-1.3712 0.7984-0.1825 0.97103 0.0901 0.50024 0.0922 0.97103-0.8004 0.94162-1.5536 0.52767-0.99457 0.70227-1.5537 0.91217-1.9264 1.5576-1.4301 0.91217-1.0868 1.0848-2.2638-0.44139-0.96319-0.91217-0.34527-0.88472 0.0607-0.5002 0.28632-0.64345 0.90236-1.1437 0.68071-1.0573 0.74152-0.91217-0.03-0.0569-1.3398-0.50023-1.9892-0.14331-1.177 0.47082-0.87296 0.50021-0.93375 0.58654-1.2378 0.14331-0.74149-1.3555-0.55908-0.14331-0.43553 0.0864-0.55907-0.55711-0.34326-0.70225 0.0901-0.47082 0.12349-0.14331-0.43552 0.25909-0.7415 0.0299-0.84158-0.41198-0.0901-0.52964-0.12154-0.32761-0.31388-0.20195-0.62184-0.38448-0.24323-0.32761-0.61992v-0.80035l-0.0568-0.90434-0.1451-0.5277-0.67283-0.67872-0.64345-0.71212 0.41197-0.77096 0.11578-1.2064-0.85527-0.77097-1.0574-0.24323h-1.7286l-1.1437-1.1476-0.55714-0.77095-0.88469-0.43549-0.72977 0.40608-1.3261 0.52769-0.75921-0.34528v-0.87293l-0.20195-0.90433-0.82586-0.18251-0.70227 0.18251-0.88472-0.55708-0.38451-0.24534-1.2594-2.4855-1.0279-0.80034-1.0279 0.43549-0.61599 0.43546-1.0573 0.43552-0.97102-0.61794-0.26876-0.58852 0.52966-0.9043 0.44137-0.99458 0.55712-0.87295 0.20207-0.93375-0.52966-0.3747 0.02962-1.0554 0.82586-0.74153 0.79843-0.43548 0.82587-0.52768 0.82586-0.77093 0.20195-0.93378 0.26867-1.0868 0.72974-1.024 0.70227-0.93375 0.72977 0.28243 1.3261-0.71014 1.8538 0.52766 1.0279 0.43552 1.1437 0.31385 1.0848 0.28243 1.4125 0.37667 1.1142 0.55711 0.72977 0.25311 0.7984 0.4669 0.0864 0.84155-0.20195 1.1162-0.20195 0.43548 1.383 0.21393 0.97099 0.15109 1.5851 0.43746 1.2005 0.28452 1.0279-0.0299 0.97099 0.43549 0.72977 0.15108 1.7008 0.52771 0.82587 0.2531h0.64346l0.25909-0.87295-0.17263-0.5277 0.0299-1.1162 0.0864-0.80035 0.35505-1.026 1.8263-1.2986 1.1142-0.55714 1.3261-0.84158 1.4124-1.5831 0.79843-1.0868 0.44139-1.024 0.17262-0.93375-0.55714-0.37667-0.79839-0.43546-0.55712-0.25311-0.64342-0.31387-0.14331-1.2986 0.14331-0.87295-0.44138-0.99458-0.67284-0.52766-0.79642-0.0314-0.8553-0.24324-0.67287-0.0901-0.47077-0.77289-1.0279-1.024-0.50024-0.5277-0.64339-0.4355-0.58654-0.21391-1.5576 0.1843-1.5576-0.37664-1.23-0.28452-1.8832-0.37668-1.6713-0.24323-1.4693-0.49632-1.4418-0.37466-0.82589-0.5277-0.58652-0.87296 0.47083-0.74153 0.47078-0.58849 0.72978-0.96514 0.11578-1.024z" fill="#c2b0c2"/>
  <path d="m23.078 116.78 1.0573-0.87494 1.23-0.12147 1.23 0.1825 0.72975-0.2531 0.52966-0.49635 0.97103-0.0608 1.3555 0.67872 0.85528 0.74157 0.70228 0.74149 0.47081 0.12148 0.20207-0.68071 0.50022-0.49826 0.58653 0.0608 0.82587 0.18251 0.99849 0.24323 1.0848-0.18251 1.1437-1.7341 0.25894-1.3006 0.25894-0.99458 0.50022-0.87292 0.97103-1.3594 0.47081-1.1162 0.05688-1.4007 0.14319-0.96319 0.88472-0.40605 2.2873 0.46685 1.2006 0.12148 2.4697 0.99453 1.9695 0.18251 2.0853 0.84153 2.0264 0.77097 2.2579 0.87293 3.3543 1.2986 1.8832 0.31388 2.1422 0.6199 2.1716 0.61794 1.5576 0.24532 1.8832 0.1529 1.4712-0.18251 2.0853 0.84352 1.6713 0.71011 2.4403 1.024 2.2579-0.37469 1.5576 0.49826 2.1716 0.11966 1.4987 0.31579 1.2005-0.37662 1.5851 0.24325 1.7302-0.21183 1.4693 0.28244 1.23-0.21393 0.70227-0.0314 0.75918-0.0608 0.58655 0.24323 0.29829 1.1476-0.72974-0.28453-0.70227 0.93372-0.72974 1.026-0.26867 1.0848-0.20195 0.93375-0.82586 0.77294-0.8259 0.52767-0.7984 0.43549-0.82585 0.74152-0.02963 1.0554 0.52966 0.3766-0.20207 0.93375-0.55712 0.87296-0.4414 0.99461-0.52963 0.90234 0.26876 0.58852 0.97104 0.61988 1.0573-0.43546 0.61596-0.43751 1.0279-0.4374 1.0279 0.8023 1.2574 2.4854 0.38451 0.24323 0.88472 0.55911 0.70227-0.18429 0.82589 0.18429 0.20195 0.90235v0.87295l0.75918 0.34527 1.3261-0.52966 0.72977-0.40413 0.88471 0.43552 0.55711 0.77094 1.1437 1.1476h1.7282l1.0574 0.24324 0.8553 0.77096-0.11578 1.2064-0.41194 0.77094 0.64342 0.71016 0.67282 0.68068 0.14511 0.52769 0.0569 0.90241v0.80231l0.32761 0.61793 0.38448 0.24324 0.20195 0.61992-0.5277 0.68069-0.61596 0.67872-0.61596 0.99458-0.35507 0.93378-0.11578 0.8749-0.26867 0.96316-0.25909 1.0868-0.17263 0.93372-0.5571 0.87295-0.44139 0.68073-1.1142 0.80232-1.7008 0.37468-1.7302 0.0607-0.55714-0.1825-1.383-0.55906-0.79843-0.31386-0.91218-0.61992-1.3261-0.25309-0.72977 0.34522-0.61596 0.74152 0.38451 1.3595 0.41389 1.024-0.08646 0.80232-0.67283 1.1162-0.8553 0.74152-0.75918-0.0922-0.7984 0.0315-1.23-0.24323-1.0848-0.49826-0.9416-1.0554-1.23-0.49828-0.72974 0.58853-0.67284 0.96319-0.50022 0.80232-0.88472 0.5571-1.6439 0.34527-1.9401 0.28451-2.1147 0.31388-1.5851 0.37663-0.85528-0.21391-0.64343 0.0315-1.3261-0.43743-1.383-0.61989-1.2967-0.74153-1.8263-0.5277-1.9695-0.40605-1.23 0.40605-1.0573 0.93375 0.23148 1.0868 0.79643 0.55909 0.94159 0.49629 0.67284 0.49826 0.14319 1.1162-0.47078 1.2064-0.91218 1.4007-0.4414 0.87292-0.35506 1.2064 0.2982 0.52768 0.14319 0.87489 0.02962 0.96319-0.20207 0.90436-0.11581 1.1162-0.22953 0.77093-0.67284 1.2065-0.97103 1.43-0.55712 1.0868-1.23 0.64935-1.0279 0.1825-1.2594 0.1825-0.47081 0.18251-1.2967-0.21182-1.5576-0.0315-0.72974 0.68067-1.1437 0.99458-1.3261 0.80235-0.94159 0.37466-1.0279 0.061-1.1142-0.31586-0.88472-0.43546-1.0868-0.99461-0.91218-0.43548-1.3555-0.61793-1.2594-0.43748-0.67284-0.21182-1.0868-0.52767-0.614-0.87298-1.2006-0.37664-1.1437-0.99455-0.70228-0.84156-1.1142-1.024-0.99849-0.93378-1.0573-0.9632-1.1437-0.43549-0.75918-0.0922-1.1142-0.24323-0.47081-0.25312-0.32759-0.90433 0.02962-1.1456-0.41391-0.87295-0.82587-0.25312-0.58653 0.55909-0.3845 0.61792-0.4139 0.80233-0.85528 0.61795-0.64344 0.12154-1.3261 0.87295-0.14319-1.6125-0.3276-0.58851-0.17263-0.28451-0.23148-0.93378-0.17263-0.67874-0.05685-0.5571-0.05685-0.93375-0.05688-0.80235 0.02962-1.0554v-1.4909l-0.22953-1.2692 0.41194-0.80235 0.75918 0.15287 1.0573-0.15287 0.44137-0.11972 0.52966-0.31581 0.79643-0.71014 0.41391-0.61989-0.02962-0.37469-0.20204-1.024-0.3845-0.61986-0.58653-1.0848-0.25894-0.80233-0.44137-1.2359-0.14319-0.68066 0.20207-0.61992 0.50022-0.43549 0.50022-0.43549 0.38447-0.87295-0.2021-0.90437-0.3845-0.77093-0.47078-0.80236-0.55712-0.67872-0.47081-0.73955-0.17263-0.40608 0.08634-0.5885 0.11581-0.74149-0.17263-0.74156-0.25894-0.80034-0.52768-0.61987-0.91218-0.87296-0.4414-0.1825-1.3261-1.0554-0.3276-0.49631-0.85528-0.80232-0.72974-0.43549-1.2006-0.4963-0.88472-0.18252-0.55712-0.0315-0.47081-0.40413 0.23148-0.6807-0.02962-0.7415 0.05685-0.37664 0.17263-0.55711 0.32565-0.61793 0.20207-0.61991 0.23148-0.6807 0.55712-0.93375-0.08634-1.2986-0.20207-0.99457-0.2982-0.80037-0.44137-0.80233-0.02962-0.31387-0.97103-0.31387 0.3845-0.61988 0.50022-0.61793 0.25894-0.84154 0.02962-0.84155 0.3845-0.80041 0.75918-0.49825 0.94159-0.71011 0.52966-0.40411 0.75918-0.61991 0.91218-0.99457 0.88472-0.93375 0.35506-1.3281z" fill="#e2b584"/>
  <path d="m24.724 169.95 1.3261-0.87292 0.64343-0.12153 0.85531-0.61991 0.41391-0.80232 0.3845-0.61793 0.58653-0.55908 0.82587 0.2531 0.41193 0.87297-0.02962 1.1476 0.32562 0.90434 0.47081 0.25311 1.1142 0.24323 0.75918 0.0901 1.1437 0.43743 1.0573 0.96317 0.99849 0.93378 1.1142 1.024 0.70228 0.84348 1.1437 0.9946 1.2006 0.37467 0.61597 0.87295 1.0848 0.52767 0.67284 0.21393 1.2594 0.43746 1.3536 0.61793 0.91218 0.43549 1.0848 0.99458 0.88472 0.43549 1.1142 0.31585 1.0279-0.0628 0.94162-0.37463 1.3261-0.80238 1.1437-0.99458 0.72974-0.68067 1.5576 0.0315 1.2967 0.21183 0.47081-0.18251 1.2594-0.18249 1.0279-0.18251 1.23-0.64929 0.55709-1.0868 0.97103-1.4301 0.67284-1.2065 0.23148-0.77093 0.11581-1.1162 0.20207-0.90435-0.02962-0.96514-0.1451-0.87298-0.2982-0.52767 0.35506-1.2084 0.44137-0.87295 0.91218-1.43 0.47078-1.177-0.14319-1.1182-0.67284-0.49632-0.94159-0.49629-0.79841-0.55907-0.2295-1.0868 1.0573-0.93378 1.23-0.40608 1.9695 0.40608 1.8263 0.5277 1.2967 0.73953 1.383 0.61989 1.3261 0.43745 0.64343-0.0315 0.85528 0.21391 1.5851-0.37663 2.1127-0.31192 1.9401-0.28452 1.6439-0.34522 0.88471-0.55714 0.50022-0.80232 0.67284-0.96318 0.72974-0.58851 1.23 0.49826 0.94162 1.0554 1.0848 0.49826 1.2299 0.24323 0.79843-0.0315 0.75918 0.0922 0.85528-0.73955 0.67283-1.1162 0.08646-0.80235-0.41195-1.026-0.38451-1.3594 0.61599-0.74152 0.72974-0.34331 1.3261 0.2531 0.91221 0.61988 0.79642 0.31387 1.383 0.55908 0.55714 0.1825 1.7302-0.0607 1.7008-0.37468 1.1142-0.80235 0.44142-0.67872 0.5571-0.87296 0.17263-0.93375 0.25909-1.0868 0.26867-0.96513 0.11578-0.87295 0.35507-0.93375 0.61401-0.99458 0.61596-0.6807 0.52968-0.6807 0.32757 0.31581 0.5277 0.12154 0.41389 0.0922-0.0299 0.84155-0.25909 0.73958 0.1451 0.43743 0.47082-0.12153 0.70227-0.0904 0.55715 0.34528-0.0864 0.55909 0.14331 0.43549 1.3555 0.55712-0.1451 0.74149-0.58652 1.2398-0.50023 0.93378-0.4708 0.87292 0.14331 1.177 0.5002 1.9891 0.0569 1.3398 0.91218 0.0315 1.0573-0.7415 1.1437-0.68067 0.64342-0.90434 0.50023-0.28453 0.88472-0.0607 0.91218 0.34524 0.44139 0.96514-1.0848 2.2618-0.91219 1.0848-1.5556 1.43-0.91218 1.9284-0.70228 1.5517-0.52766 0.99457-0.94165 1.5536-0.97103 0.80235-0.50021-0.0922-0.97103-0.0901-0.79839 0.18251-0.20195 1.3693-0.26867 1.2378-0.88472 0.84162-0.99849 1.2378-0.38451 0.96513 0.94162 0.31387 0.94161 0.24323 0.94159 0.18252 0.50025 0.43743 0.26866 0.31386-0.26866 1.1751-0.70231 0.93375 0.0864 1.177 0.26867 0.37661 0.7023 0.55714 1.3536-0.40609 1.1731-1.3594 1.383-2.5169 0.82587-1.1476 2.2304-1.6439 1.2299-0.37668 1.2594-0.73951 1.0848-0.27466 1.8832-0.15108 1.7576 0.0315 1.7008-0.061 1.7871-0.34521 1.6439-0.55909 1.4124-0.90237 0.70231-0.4669 1.5575 0.74155 0.58655 1.0554 0.20195 0.80227-0.22947 1.3693-0.9985 0.93375-0.91218 0.93381-0.38447 0.46684 0.67282 0.15288 0.97103 0.49628 0.88472 0.31391v0.74149l-0.38451 1.177 0.79645 0.61793 1.1731 0.0628 1.1437-0.31582 0.67286-1.4301-0.20194-0.80037-0.67287-1.4928-0.4708-1.2378 0.67284-0.87296 1.4124-0.93375 2.0264-0.7101 0.67283 0.52765 0.17263 1.1476 0.55711 1.6439 0.20195 0.68069 0.55713 0.93375 0.94163-0.03 1.3849-0.71209-0.0864-1.3594-0.58652-1.6125-0.32563-0.61791-0.11578-0.87292 0.17262-0.3139 0.17263-0.40606 0.58658-0.52771 0.73169 0.43554 1.2594 0.80033 0.91219 0.61989 0.82586 0.55713 0.99849 0.46689 0.38451-0.71013 0.61596-0.46687 0.88472-0.8416 0.41195-0.24323 1.2594-0.74149 0.97102-0.61792 1.5282-0.61792 0.97104-0.0628 0.29828-0.0607 0.58653 1.4634 0.94157 1.5831 1.0279 1.177 0.91219 1.4301-0.11582 1.026-0.70228 1.0868-0.8553 0.80232-0.41392 0.73955 0.32762 1.1162 0.03 1.026 0.38445 1.3692 0.99853 0.64936 0.79841 0.2531 0.75917 0.37662 0.03 0.99458-0.50021 1.2358-0.44139 1.5222v0.80235l0.14337 0.40605 0.03 0.87098 0.26865 0.87296 0.32762 0.99458-0.38449 1.5517-1.0848 0.24325-1.0573-0.0607-0.94162 0.21182-1.0279 0.34526-0.5277-0.0901-0.0864-0.64934 0.55715-0.87292 0.20194-1.4301-0.72977-0.28243-0.99849 0.15289-0.64339 0.34522-0.72974 0.96319-0.26867 0.77097-0.94158 0.67872-0.55712 0.0628-0.85533 0.27256-0.88472 0.74149-0.88471 0.61797h-0.79643l-0.72974-0.80041-0.20195-0.61988-0.38451-1.432-0.0864-0.40408-0.85528-0.34525-0.70227 0.12139-0.88274 0.49829-1.6439 0.43546-1.5576-0.0607-0.61398 0.31388-0.91217 0.46687-1.4987 1.795-0.61595-0.96319-0.97103-0.15289-1.0848-0.34525-0.91218-0.24533-0.41391-0.25312-0.4708 1.177v0.9926l0.26866 0.87296 0.0864 0.80035-0.17264 0.87295-0.85527 1.1162-0.75918 0.67878h-1.2595l-0.97103 0.64931-1.3261 1.1476-0.97102 0.67877-0.75919-0.61798 0.0569-1.1181-0.41389-1.4909-0.55714-0.37466-0.88472-0.0315-1.3261-0.03-0.52768-0.80236-0.85527-0.31383-0.58652-0.12153-0.61599-0.31387-0.5002-0.99455-0.22948-0.87494-0.7023-0.52767-1.0573 0.18251-1.1731 0.0901-1.0279-0.11972-0.94159-0.0901-1.1437-0.34529-1.1436-0.49826-1.5281 0.03-1.2006-0.46688-1.4419 0.0901-0.41389 1.0868 0.0864 0.93375 0.97103 1.0554 0.91218 0.5277 0.35507 1.0848-0.35507 0.99458-0.82587 0.68067-1.1437 0.31386-1.1142 0.49829-0.44139 0.68072-0.0299 0.74149 0.88471 0.6199 0.97104 0.73958 0.94161 1.1162 0.0569 0.68073-1.4693 0.37463-1.2967-0.0607-0.94159-0.0607-1.0279 0.24324-1.7969 0.55713-1.5576 0.12364-1.3555 0.1825-1.2594 0.24325-1.4987 0.52766-1.2006-0.15288-1.383 0.34525-0.29829-0.21182-0.35504 0.12154-0.7984-0.37471h-0.52967l-0.9985-0.3766-0.67283-0.03-0.41392-0.21182-0.8847-0.99455-0.52768-0.61987-0.67284-0.93378-0.22953-0.24324-0.85531-0.80235-0.72974-0.34526-0.99849-0.77093-0.44136-0.43747-0.2982-0.93375-0.4414-0.68069-0.14319-0.18252-0.82587-0.43549-1.0279-0.4649-0.91218-0.52768-0.44137-0.49829-0.85531-0.64933-0.79841-0.21391-0.61402 0.25311-0.47078 0.49829-0.88471 0.12349-0.67284 0.12154-0.61399-0.12154-0.52966-0.6807-0.52768-1.3594-0.41391-0.49629-0.50022-0.34527-0.58653 0.64933-0.44137 0.80232-0.58656 0.43549-0.85528-0.67874-0.72974-0.96514-0.82587-0.77093-0.91218-0.61796-1.0573-0.31582-1.1142 0.0607-0.94162 0.25311-1.0279 0.52573-1.2006 0.21391-0.88472-0.93378-0.99849-0.49625-1.0848-0.0922-1.2006 0.5277-1.3555 0.49823-0.75918 0.43552-0.94159 0.34527-1.2006-0.5277-0.26876-0.49826-0.55712-0.74153-0.22953 0.12349-0.41391 0.0901-0.41391 0.21182-0.55712 0.18252-0.82587-0.1511-0.61402-0.40605-0.38447-0.49829-0.52966-1.2692-0.55712-1.2398-0.72974-1.2692-0.61597-0.93375-0.2982-0.40605-1.585-1.4006-1.0573-1.0554-1.3261-0.80229-0.94162-0.49828-1.7008-1.3692-1.1437-1.1162-1.9126-1.4301-1.23-0.87293-0.82587-0.73955-1.2869-0.80232-1.0848-0.87296-0.88472-0.37663-0.32565 0.43549-1.0573 0.31387-0.72974-0.03-0.58653 0.21392-1.0279 0.0315-1.7302-0.46687-1.383 0.65127 0.47081-1.4006 0.11581-0.34524 0.20204-0.40605 0.3276-0.99461 0.20207-0.87295v-0.43744z" fill="#85c5e3"/>
  <path d="m24.347 174.43 1.3849-0.64933 1.7302 0.46691 1.0279-0.0315 0.58656-0.21182 0.72974 0.03 1.0573-0.31586 0.3276-0.43546 0.88472 0.37661 1.0868 0.87294 1.2869 0.80036 0.82587 0.74156 1.23 0.87293 1.9126 1.4301 1.1437 1.1162 1.7008 1.3712 0.94162 0.49826 1.3261 0.80037 1.0573 1.0554 1.585 1.4007 0.2982 0.40605 0.61402 0.93378 0.72975 1.2692 0.55709 1.2398 0.52966 1.2692 0.3845 0.49629 0.61402 0.40608 0.82587 0.15289 0.55712-0.18251 0.41193-0.21392 0.41391-0.0922 0.23148-0.12154 0.55712 0.74153 0.26876 0.49629 1.2006 0.5277 0.94159-0.34527 0.75919-0.43746 1.3555-0.49632 1.2005-0.52767 1.0848 0.0901 0.99852 0.49826 0.88471 0.93375 1.2005-0.21182 1.0279-0.52767 0.94159-0.25312 1.1142-0.0607 1.0573 0.31388 0.91218 0.6179 0.82587 0.77094 0.72974 0.96516 0.85528 0.67871 0.58656-0.43547 0.44137-0.80231 0.58653-0.64932 0.50022 0.34525 0.41391 0.49829 0.52768 1.3594 0.52966 0.6788 0.61597 0.12364 0.67284-0.12364 0.88472-0.12139 0.47081-0.49826 0.61597-0.25491 0.7984 0.21392 0.85531 0.64928 0.4414 0.49829 0.91218 0.52767 1.0279 0.4669 0.82587 0.43549 0.14319 0.18252 0.44138 0.68072 0.2982 0.93375 0.44137 0.43744 0.99849 0.77093 0.72974 0.34526 0.85528 0.80037 0.22953 0.24323 0.67284 0.93379 0.52768 0.61793 0.8847 0.99458 0.41198 0.21391 0.67283 0.03 0.9985 0.37663h0.5277l0.7984 0.37663 0.35504-0.12138 0.29829 0.21391-0.35504 0.4669-0.67286 0.64932-0.44136 0.28452-0.75918 0.37467-1.2967 0.43552-1.1142 0.12153-0.97102 0.0607-0.72975 0.18428-0.05685 0.64933-0.05685 0.34525-0.14319 0.7415 0.17263 0.77096 0.50021 0.40606 0.55712 0.40606 0.41392 0.46496 0.61598 0.93374 0.17263 0.93375-0.05685 0.6807-0.70229 0.74156-0.67284 0.55906-0.88471 0.18249-0.55713-0.12138-0.82586-0.61792-0.82587-0.52773-0.88472-0.71011-0.67284-0.61789-1.4418-0.93378-0.64343-0.46691-0.97103-0.21391-0.91218-0.0607-0.67284-0.31388-0.6434-0.61987-0.58653-0.71015-0.4414-0.27255-0.50022 0.37467-0.3276 0.87295v0.6807l-0.38447 0.87296-0.52768 1.4909v0.71999l-0.25894 0.58856-0.85531-0.25312h-1.028l-0.99849 0.18251-0.61597 0.15288-1.0573-0.34523-0.85528-0.68073-0.94159-0.6787-1.23-0.2531-0.52768 0.49628 0.41196 0.74153 0.17263 0.87292 0.25897 0.90237-0.58656 0.55911-0.94162 0.55711-0.35506-0.58852-0.20207-0.61988-0.20207-0.6807-0.14319-0.80037-0.26876-0.49823-0.88472-0.37668-0.35506 0.37668-0.35506 0.49823-0.2982 0.67875 0.25894 1.2064 0.3845 0.40608 0.32565 1.0534 0.14319 0.87289 0.47081 1.177 0.64343 0.43749 0.91218 0.12154 1.1437 0.43549 0.88472 0.40607 0.44137 1.1162 0.41391 0.64928 0.70228 0.93378 0.35506 1.0554-1.0279 0.93378-0.70228 0.61983-0.35506-1.177-0.72975-0.6807-0.32759 0.03-0.4414 1.0554 0.20207 1.024 0.08634 0.93375-0.41391 1.5831-0.2982 1.1456 0.11581 2.1108 1.0279-0.18252 0.88471-0.46687 0.55712-0.49826 0.3845-0.55713 0.44137-0.34523 0.82587 0.15289 0.72974 0.58851 0.85528 0.55708 0.61597 0.31586 1.1711 0.43552 0.88472 0.71011 0.47078 0.96316 0.41391 0.80234 0.91218 0.49631 1.7302 0.7415 0.17263 0.96517-0.91218 0.96318-0.50022 1.2378 0.3845 1.2986 1.2005 0.93378-0.23148 1.2986-0.58656 0.0607-0.91218 0.1825-1.2006-0.31387-1.3849-0.12153-0.88472 0.12153-0.58653 0.4963-0.94162 0.87492-1.4124 1.3692-1.2594 1.2378-0.08634 0.93375 0.2982 0.43746h1.0338l0.85528-0.27465 1.1142-0.15288 1.2594-0.61991 0.99849-0.37466 0.99849 0.5571 0.67284 0.73955v1.9283l-0.26876 1.7047-1.0848 1.6125-1.385 1.6459-1.7302 1.3692-1.9421 1.4909-1.1142 0.68073-0.67284 0.93375 0.44137 0.15108 0.94159-0.15108h1.7577l0.29816 0.43546-0.20207 0.84156-1.4987 1.024-0.3845 0.0607-0.25894 0.77094-0.14319 0.71014-0.3276 1.4928-0.97103 0.68066-0.61597 0.24325-0.58653 0.12152-0.20207 0.61991-0.70228 0.61988h-0.82587l-0.67284-0.43546-0.64343-0.49826-0.91218-0.12364-0.55712 0.40601-0.75918 0.90436-0.85528 0.49633-0.61402-0.24324-0.05688-0.93375 0.17263-0.9946 0.1451-1.177-0.23148-1.0554-0.14319-0.37469-0.32562 0.24326-0.7984 0.31577-0.67284 0.49635-0.64344 0.46685-0.58653 0.55911-0.99849 0.9632-0.67284 2.2324-0.2982-1.2378-0.17263-0.55912-0.25894-0.55712-0.3845-0.37663-0.26876-0.18252-0.50022-0.61789-0.47081-0.12364-0.97103-0.0589h-0.50021l-0.91218-0.061-0.52768 0.37467-0.35506 1.3006 0.05685 0.80035 0.02962 0.49829 0.41194 0.49826 0.05688 0.61789-0.17263 0.31586-0.50022 0.49829-0.35506 0.15287-0.44138 0.0589-0.38447 0.0315-0.26876-0.15289-0.44137-0.28451-0.17263-0.18252-0.17263-0.37663-0.20207-0.90434-0.23148-0.71011-0.3276-0.80038 0.02962-0.93375 0.58656-0.77096 0.25894-0.46491 0.32562-0.40607 0.61597-0.52572 0.47081-0.28632 0.50022-0.27256 0.3845-0.0901 0.50022-0.34527 0.67284-1.1162v-0.80233l-0.26876-0.31385-0.02962-0.6199-0.14319-0.87297v-0.77091l-0.17266-0.74152-0.35506-0.90433-0.11581-0.34525-0.11581-0.52768 0.38447-0.80238 0.14319-0.73955 0.20207-1.1476-0.17263-1.328-0.02962-1.177-0.4414-0.28453-1.1437-0.0901-0.41394 0.24324-0.38447 0.18249-0.79643-0.12153-0.1451-0.43747-0.02962-0.73955-0.14319-1.0554-0.55712-0.55712-0.20204-0.12364-0.61597-0.12139h-0.94145l-0.58656-0.31585-0.85531-0.6179-0.70228-0.28453-0.52768-0.1843-1.0573-0.24324-0.75918 0.27465-0.70228 0.55712-0.55713 0.68069-0.55712 0.55909-0.70228 0.43546-0.2982 0.0607-0.61597-0.0315-0.70228-0.7101-0.3845-0.49829-0.17263-0.93375-0.08634-0.7415-0.05685-1.177 0.3845-1.026 0.79643-0.96323 0.67287-0.28453 0.72974-0.0901 0.52768 0.0315 0.82587 0.21182 0.47081-0.12154 0.88472-0.7709 1.0848-0.46885 0.91218-0.46687 1.0279-0.31582v-0.87098l-0.2982-0.71211-0.35506-0.61794-0.17263-0.12153-0.99849-0.12153-0.82587-0.061-0.75918 0.061-0.64344 0.12153-0.44137-0.43747 0.3845-0.74149 0.25897-0.93378-0.70228-0.37664-0.58653 0.12153-0.79643-0.49632 0.02962-0.77288 0.35506-0.5277 0.64343-0.74152 0.47081-0.73955 0.20204-0.99455-0.41193-0.77094-0.97103 0.0922-1.4418 0.43549-0.91218 0.12154-0.23148-0.12154-0.08634-0.55907-0.14319-0.80233 0.64344-0.93375h0.67284l0.82587-0.21391 0.3845-0.84157-0.52768-0.58853-0.41391-0.15109-0.52772 0.0922-0.70228 0.0901-0.35506-0.5277 0.79841-0.34525 0.99849-0.18251 0.70228-0.43747-0.1451-0.67872-0.82587-0.34528-0.82587-0.21183-0.97103-0.12153-0.67284-0.061h-1.0847l-0.75918 0.1511-0.94162 0.43747-0.70228-0.0922h-0.61408l-0.85531-0.34513-0.91218-0.84155-0.70228-0.55713-0.75918-0.37665-0.85528-0.37466-0.7984-0.67872-0.52966-0.55909-0.35506-0.49829-0.1451-0.37469 0.26876-0.71011 0.61597-0.84159 0.52768-0.93375 0.23151-0.74149-0.08634-0.93378-0.26876-0.64931-0.64346-0.18252-0.75915-0.52767-0.70228-0.0922-0.08634-0.4669-0.05685-0.28453 0.02962-0.43746 0.47078-0.71014 1.1142-0.37465 1.1142-0.84157 0.91218-0.5277 0.52966 0.0607 0.55712 0.0607 0.55712 0.37469 1.1731 0.71209 0.61597 0.25311 0.70228-0.5277 0.67284-0.6199 0.20207-0.99458 0.47081-1.177 0.3276-0.0607 0.82587 0.12154 0.72974-0.12154 0.85528-0.12154 0.3845-0.3766 0.08634-1.0554 0.26876-0.80232-0.11581-0.90433v-1.6439l0.17263-0.99458 0.41196-1.0554-0.61597-0.55711-0.82587-0.1825-0.70228 0.37469-0.58656 0.061-0.94162 0.24323-0.9122-0.31578-0.32759-0.37469-0.25894-0.99655-0.2982-0.99455-0.41391-1.177 0.11581-1.177 0.61597-1.2986 0.41391-1.0554-0.25894-0.55907-0.50022-0.52774-0.4139-0.55905-0.05688-0.77094 0.02962-0.34525 0.72974 0.0901 0.97103 0.03 0.72974 0.15287 0.88472-0.21391 0.26876-0.84157-0.26876-0.43746-0.50022-0.31385-0.52768-0.31584-0.7984-0.28453-0.72975-0.5277-0.2982-0.84157 0.14319-0.87294 0.75919-0.0901 0.47081 0.0607 0.67284 0.18249 1.0005 0.74153 0.64341 0.21181h0.55712l0.41391-0.0922 0.32562-0.96318 0.3276-0.80234 0.02962-1.1162-0.3276-1.7655-0.3845-1.1162-0.22953-1.024-0.50022-0.65131-1.4712-1.7341-1.3555-0.99458-0.91218-0.55907-1.1731-0.31388h-0.64342l-1.0848-0.0607-1.0279-0.4669-0.88471-0.61793-0.3276-1.0868 0.02962-0.49826z" fill="#f9d3c6"/>
 </g>
 <g fill="none" stroke="#000">
  <path d="m2.0011 37.651 3.1441 1.8341 3.1441-1.31h1.8341l1.048 1.8341 3.4061 0.26201 2.0961 1.8341 2.3581 2.6201v2.0961l1.8341 1.31 1.048 2.0961 2.0961 2.8821 2.6201 2.0961 1.5721 1.3101 2.6201 0.78603v-0.78603l2.3581-0.26201 1.31 0.52402v1.8341l4.7162-1.048 3.1441 2.6201 3.6681-0.78603 2.0961 0.78603 3.1441 3.1441 2.3581 3.1441 0.52402 2.3581v3.6681l3.6681 4.4542 1.048 2.6201-0.26201 2.3581v2.0961l1.8341 3.1441 3.1441 3.4061 1.8341 3.1441 3.1441 7.8603 0.26201 0.78603-1.5721 0.52403-2.3581 9.9563v1.048l3.9302 7.3363-0.78604 4.7162v0.786l2.8821 3.4062 1.8341 8.6463v1.048l5.5022 7.8603v3.6681s-1.3101 5.2402 0.26201 6.2882c1.5721 1.048 6.5502 12.576 6.5502 12.576l-1.572 6.0262s-1.3101 7.8603-1.3101 6.5502" stroke-width=".5px"/>
  <path d="m77.775 151.55 3.7427 0.8317 11.644 9.9805 6.6536 0.83171 9.9805 8.317" stroke-width=".5px"/>
  <path d="m53.619 66.479 1.8281 0.45702 1.8281 2.9706 4.1132 0.68553 1.5996 1.8281 6.6268 0.68553 10.968-0.22851 12.339 2.5136 5.4842 2.5136 4.1132 1.5996 11.882 4.7987 1.5996 5.7127 8.4548 0.91403 6.1698 4.7987v3.1991l3.1991-0.68551 3.6561 3.1991 5.4842 0.91404 0.68553 2.0566 2.7421-0.22851 5.4842 4.7987 9.8259 5.2557 3.8847 0.91402 17.367 7.7693 3.4277 3.8846" stroke-width=".49215px"/>
  <path d="m82.507 184.38 2.5612-2.8457h1.992l3.1303-0.56913h1.4229l2.5611-1.4229h1.7074l3.984-1.1383 3.984 0.56912 3.6994-1.7074 2.2468-5.7576" stroke-width=".5px"/>
  <path d="m109.8 171.51 2.4453 0.5643 1.5048-0.5643 7.524-9.405 2.0691-1.5048 3.5739-3.5739 3.0096-3.0096 6.2073-11.662 5.4549-3.5739 4.3263-5.0787 4.8906-10.346 5.4549-3.5739 3.5739-1.1286 4.3263-1.5048 3.762-0.7524" stroke-width=".42511px"/>
  <path d="m68.988 122.43 8.0434 0.22979 3.677-0.68943 3.9068-0.91923 5.5155 0.68942 4.3664 0.68945 4.826 1.6087 7.1242 1.3789 6.2049 0.45962 3.9068 0.22979 3.9068-0.22979 14.248-3.2174 3.9068 0.68947 3.2174 0.45961 3.677-0.45961 3.2174-0.22983 2.0683 0.22983" stroke-width=".49px"/>
 </g>
 <g fill-rule="evenodd" stroke-width=".44776">
  <circle cx="186.51" cy="127.56" r="2.0072"/>
  <circle cx="82.498" cy="183.76" r="2.0072"/>
  <circle cx="110.23" cy="172.27" r="2.0072"/>
  <circle cx="53.302" cy="66.067" r="2.0072"/>
  <circle cx="68.995" cy="122.82" r="2.0072"/>
  <circle cx="2.0272" cy="38.513" r="2.0072"/>
 </g>
 <g font-family="sans-serif" font-size="3.5278px" letter-spacing="0px" stroke-width=".26459" word-spacing="0px">
  <text x="-0.34495145" y="45.629738" style="line-height:1.25" xml:space="preserve"><tspan x="-0.34495145" y="45.629738" stroke-width=".26459">Mumbai</tspan></text>
  <text x="56.221756" y="63.512119" style="line-height:1.25" xml:space="preserve"><tspan x="56.221756" y="63.512119" stroke-width=".26459">Pune</tspan></text>
  <text x="71.00209" y="118.43656" style="line-height:1.25" xml:space="preserve"><tspan x="71.00209" y="118.43656" stroke-width=".26459">Satara</tspan></text>
  <text x="63.520687" y="182.66716" style="line-height:1.25" xml:space="preserve"><tspan x="63.520687" y="182.66716" stroke-width=".26459">Kolhapur</tspan></text>
  <text x="105.83031" y="166.37387" style="line-height:1.25" xml:space="preserve"><tspan x="105.83031" y="166.37387" stroke-width=".26459">Sangli</tspan></text>
  <text x="185.04788" y="120.80872" style="line-height:1.25" xml:space="preserve"><tspan x="185.04788" y="120.80872" stroke-width=".26459">Solapur</tspan></text>
 </g>
 <path d="m33.016 30.681v2.3601l0.8952 0.16276 0.97659 0.32553-0.08139 0.97659-0.24414 0.40691-0.56967 0.56967-0.24415 0.81382v0.81382l0.24415 0.24414 0.08138 0.65106 0.32553 1.2207 0.32553 0.8952 0.97658 0.40691 0.08138 1.709-0.73244 0.40691-0.32553 0.24415-0.81382-0.16276-0.48829 0.32553-0.16277 0.56967 0.40692 1.058h-0.40691l-0.32552-0.32553-0.49067-0.59156-0.32267-0.32268-0.48401 0.10755-0.26889 0.21512-0.0538 0.16134v0.53778h-0.43022l-0.484-0.48401-0.16134-0.0538 0.0538 1.2907 0.43023 0.64534 0.32267 0.0538h0.16134l0.10755-0.32267 0.32267-0.16133 0.32267 0.0538 0.37645 0.26889 0.21511 0.0538 0.37645 0.0538 0.32267 0.16134 0.16134 0.0538h0.43023l0.48401 0.21512 0.32267 0.26889 0.43023 0.0538 0.484 0.0538 0.64535-0.10755 0.16134-0.10755h0.53778l0.59157-0.26889v-0.32264l0.37645-0.21512 0.32267-0.21511 0.37645-0.16134 0.484-0.0538 0.2689-0.32267 0.2689-0.21512 0.26889-0.21511 0.64534-0.10755 0.26889-0.64534-0.0538-0.43023v-0.37645l0.10755-0.21512 0.37645-0.32267 0.43023-0.16134 0.16134-0.16134v-0.59157l-0.43023-0.21511-0.64535-0.21512-0.69912-0.43023-0.37645-0.0538-0.0538-0.16134 0.26889-0.21512 0.80668-0.10755 0.91424-0.43023 0.21511-0.53779-0.10755-0.53779 0.10755-0.43023 0.21511-0.80668-0.10755-0.37645-0.10755-0.43023-0.21511-0.64534 0.10755-0.80668v-0.37643l-0.37645-0.2689-0.48401 0.0538-0.26889 0.10756-0.26889-0.2689-0.16134-0.37645 0.7529-0.16134 0.48401-0.53779 0.37645-0.64534v-0.86046l-0.0538-0.64535-0.0538-0.32267-0.484-0.2689-0.43023-0.32267-0.37645-0.48401v-0.91425l-0.75292-0.43023-0.80668-0.21512h-0.96801l-0.96802 0.43023h-0.48401l-0.48401 0.16134-0.53778-0.10755-0.32268 0.21511-0.21511 0.64534-0.37645 0.32267-0.43022 0.10756h-0.26889l-0.32268 0.10755-0.37645 0.26889z" fill="green" stroke="none" stroke-width=".18392px"/>
 <text x="44.307289" y="33.932678" fill="#000000" font-family="sans-serif" font-size="2.8222px" letter-spacing="0px" stroke-width=".26458" word-spacing="0px" style="line-height:1.25" xml:space="preserve"><tspan x="44.307289" y="33.932678">Bhimsankar </tspan><tspan x="44.307289" y="38.342407">wildlife</tspan><tspan x="44.307289" y="42.75214">reserve</tspan></text>
</svg>
