<svg width="230.07mm" height="245.8mm" version="1.1" viewBox="0 0 230.06933 245.80317" xmlns="http://www.w3.org/2000/svg" xmlns:cc="http://creativecommons.org/ns#" xmlns:dc="http://purl.org/dc/elements/1.1/" xmlns:rdf="http://www.w3.org/1999/02/22-rdf-syntax-ns#">
 <metadata>
  <rdf:RDF>
   <cc:Work rdf:about="">
    <dc:format>image/svg+xml</dc:format>
    <dc:type rdf:resource="http://purl.org/dc/dcmitype/StillImage"/>
    <dc:title/>
   </cc:Work>
  </rdf:RDF>
 </metadata>
 <g transform="translate(22.474 -33.118)" stroke="#fff" stroke-width=".5">
  <path id="Jalgaon" d="m129.13 75.057 1.4007 0.83457 0.90464 0.34241 0.96299 0.12046 0.4669-0.06023 0.72373-0.12258 1.1634-0.25101 1.3151-0.31321 0.93383 0.15162 1.1342 0.76456 1.1342 0.49414 1.5427 0.18099 1.3443 0.31127 1.5447 0.12046 0.90463-0.06023 0.9338-0.40272 0.72374-0.03117 0.99023 0.12046 0.66726 0.18099 0.8774 0.37162 0.81904 0.3424 0.61086-0.03117 0.55254-0.02966 1.1906 0.40269 1.0194 0.08928 1.0194-0.15162 1.0194-0.49414 1.2198-0.37161 1.5428 0.24122 1.6575 0.61479 1.6867 0.25101 1.4007 0.15162 1.2859-0.52333 1.3152 0.43383 0.58165-0.12258 1.1906-0.4319 1.4299-0.24122 1.7159-0.06023 1.3715-0.06023 0.90464 0.25101 0.87743 0.18099 1.1906-0.37356 0.84823-0.12046 0.90463-0.12046h1.1634l1.0486 0.18276 0.87739 0.55254 1.0194 0.55443 0.66731 0.37159 0.61086 0.46302 0.99024 0.24122 1.3151 0.08928 1.3735 0.06023 0.90462 0.12046 1.105 0.73539 0.87543 0.6128 0.79181 1.4182 0.52333 1.2295 0.32486 1.5389 0.1712 1.2295 0.0564 0.73347 0.49611 1.0467 0.5233 0.52327 0.6381 0.76458 0.29582 1.0467 0.1712 1.0466-0.26645 0.61475-0.5233 0.49417-0.5817 0.18099-0.81906-0.28217-0.7237-0.14982-0.3521-0.06023-0.38134 0.02966-0.38126 0.21006-0.29582 0.18278-0.20027 0.6128 0.72369 0.43191 0.78987 0.49414 1.3443 0.98632 0.5817 0.06023 0.72371 0.73344 0.0584 1.2898 0.20029 1.0466 0.46693 0.61281 1.249-0.25101 1.4863-0.31124 0.93383-0.24331 1.3715-0.43191 0.75293-0.06023 1.2198 0.18101 1.4572 0.12046 1.6867 0.89491 1.6303 0.43387 1.3715-0.21214 1.6867-0.06023-0.1712 1.107 0.11486 0.79568-0.29582 1.319-0.7529 1.7509-0.55252 0.73344-0.58167 0.55442-0.81903 0.15162-1.7159-0.58363-1.0486-0.43387-1.1906-0.181-0.6381-0.73339-1.1634-0.28217-0.0858-0.58364-0.4105-0.64397-0.63807-0.70425-0.81903 0.0623-1.8385 0.40272-0.5817 0.67312-1.286 0.9552-0.84819 0.34239-1.5155 0.83464-0.32294 0.37349-1.1634 1.0467-1.0194 1.2879-0.90659 0.79567-0.75293 1.0156-0.0297 1.391-0.41045 1.2256-0.32491 0.98635 0.11486 1.107-0.3521 1.0486-0.52333 0.61282-0.52527 0.67315-0.46693 0.43185-0.72565 0.70623-0.8774 1.0758-0.79181 0.4922-0.81903 0.98635-0.1712 1.107 0.43771 0.70618 0.61089 0.86575 0.38131 0.89685 0.1712 0.8657 0.22757 0.49417 0.38132 1.0466 0.22759 0.58365 0.29582 0.89686v0.56419l-0.32297-0.15162-0.55251 0.31324-0.46693 0.37157-0.90464 0.24122-0.32486 0.18099-1.1634 0.3735-0.4105 0.18278-0.72369 0.61281-0.35215 0.73542-0.38129 0.83459-0.32491 1.0778-0.0858 0.43187-0.7529 0.43191-0.99023-0.49417-0.1421-0.15161-0.55252-0.58362-0.4377-0.92602-0.52333-1.107-0.0858-0.37159-0.49414-0.67508-0.49609-0.0602-0.46687 0.25102-0.61087 0.86576-0.0564 0.55446-0.14391 0.67507 0.0297 0.4319-0.79184 0.95714-0.4377 0.3424h-0.90463l-1.2762-0.58362-0.43772-0.52337-0.58167-0.5233-0.66728-0.5233-1.0758-1.0486-0.29582-0.40272-1.0486-0.0312-0.90462-0.55248-0.5817-0.6751-0.49611-0.92602v-1.0661l-0.17119-0.49417-0.96299-0.12046-0.5233 0.0602-0.43774 0.92605-0.49608 0.61478-0.29582 0.49218-0.84822 0.79568-1.1634-0.12046-0.5253 0.6751-0.3521 0.49217-0.60897 0.37356-0.66726 0.0602-0.69647-0.24122-0.99023 0.0893-1.6303 0.31127-0.4669 0.89493-0.61091 1.4474-0.22964 0.89686-0.32291 0.98635-0.26644 0.12046-0.72373-0.37159-0.63811-0.21215-0.8774-0.58362-1.0486-0.61282-0.25695 0.61282-0.46687 1.1984-0.22757 0.83462-0.20028 0.79568-0.79182-0.12046-0.93383-0.15162-0.61088-0.83462-0.55249-0.8657-0.32294-1.5097-0.22965-0.70425-0.7529-0.61281h-1.3151l-0.55251 0.43188-0.99023-0.0623-0.63811-0.31129-0.63813 0.18278-0.58167 0.55253-0.6381 0.25101-0.61089-0.14981-0.43771 0.0312-1.3443 0.4319-0.69645 0.73539-0.35215 0.98634-0.49606 0.79569-0.35213 0.73539-0.66728 0.92602-0.87739 0.55251-0.96299 0.43188-1.247 0.70427-1.4299 1.5097-0.32486 1.8423-0.11486 1.107-1.105 1.1673-0.49606 0.31324-0.0564 0.73342-0.0297 0.86574-0.3249 0.67507-1.1906 1.0467-0.93381 0.55251-1.5155 0.8657-0.52333-0.12046-0.81903-0.61478-1.105-0.61475-0.3735 0.12636-0.78987 0.83459-0.29582 1.1362-0.61086 0.79567-0.66727 0.34243-0.52333 0.61283-0.90464 1.0155-0.0564-0.43187-0.38133-0.55252-0.81903-0.0914-0.84824 0.28217-0.29582 0.0914-0.40856 0.14982h-0.38128l-0.38132-0.3735-0.41047-0.46109-0.35213-0.40269-0.3249-0.49417-0.26643-0.55446-0.11486-0.98631-0.1712-0.79571-0.5817-1.2879-0.14392-0.49414-0.1712-0.61283-0.32294-0.67507-0.0297-0.98438-0.4669-1.107-0.90463-0.61475-0.1712-0.79375-0.20027-1.319-0.40858-0.89683-0.58167-0.86575-0.58172-0.79571-0.61086-1.5408 0.20028-0.70428 0.38132-0.8657 0.40856-0.89491 0.22966-0.70429 0.6381-1.2587 0.6381-1.1089 0.69647-0.83461-0.49606-1.107 0.43775-0.0914 0.41047-1.0467 0.5525-0.24122 0.79182-0.37353 1.0194-0.21006 0.9338-0.40271 1.0194-0.49417 0.3813-0.24122 0.40857-0.18099 0.72369-0.37159 0.63812-0.55446 0.69645-0.79569 0.29582-0.73536 0.81904-0.43388 0.79179-0.43379 0.41047-0.61284 0.1421-1.2879v-0.49217l-0.3521-0.83458-0.26645-1.1984 0.0297-1.4785 0.29582-0.86573-0.81902-1.6011-0.11486-1.0466-0.61089-1.0778-0.69647-0.76455-0.43774-0.28217-0.84823-0.46495-0.58166-0.6751 0.0297-0.98634 0.32491-1.6595 0.1712-1.4493v-0.76456l-1.2198-0.67507-0.0564-1.9727-0.6965-0.73343-0.4669-0.92602-0.1712-0.55449-0.0858-0.79376 0.40853-0.95715 0.6109-0.83459 0.81903-1.0447 0.81903-1.7509 0.84824-1.57 0.79179-0.58365 1.572-1.3579 1.0486-1.0778 0.90462-0.6751 1.1614-1.1672 0.90467-0.49222 0.69645-0.61475 0.72371-0.67315 1.286-0.55446 1.5155-0.92602 1.1615-0.67312 0.61086-0.89491 0.7237-0.70623 0.55252-0.73536 0.0858-0.79376-0.1421-0.55249-0.1421-0.86574 0.0564-0.95521 0.1712-0.3424 0.1712-1.107 0.32489-1.2276 0.78986-0.61278 0.55251-0.49222z" fill="#c2b0c2"/>
  <path id="Nashik" d="m21.274 123.48 0.55251-0.73536 0.66728 0.24123 0.52332 0.58363 0.81904 0.64397 1.3716 0.37153 1.6575 0.43388 1.3443 0.64393 0.78984 0.95522 0.52528 1.0467 0.43775 1.3501 0.63811 1.1984 2.068-0.18099 0.72371-0.76456 0.63811-0.49414 0.8482-0.18099 1.249 0.37353 2.5641-0.0312 1.3424-0.0297 1.1634-1.2879 0.72371-0.83654 0.72371-0.52335 0.55251-1.107 0.05637-0.37157-0.35212-1.0486-0.35212-0.92602 0.2004-1.5991 0.63811-0.6459 1.1342-0.24123 1.105-0.0312 0.7529-0.37156 1.2198-0.18278 0.75287-0.0602 1.105-0.55445 0.81904-0.55251 0.22955-0.6751 0.26654-0.86573 0.14195-1.4182 0.02936-0.73539 0.69647-0.0893 1.7431-0.0312 0.72371-0.24122 1.0778-0.4319 1.1342-0.21215 0.963-0.21213 1.4299-0.0602 1.4572-0.0893 1.8968-0.14982 1.4864 0.12046 1.3443 0.0602 1.6576 0.21215 1.4863 0.24122 2.0388 0.21215 1.5155 0.12046h1.2198l1.4863-0.12046 1.3735 0.12046 0.66728-0.181 1.1634-0.0602 0.93384 0.79571 0.69647 0.89491 1.0758 1.107 0.90464 0.58364 1.3151-0.0914 1.105-0.49218 1.1906-0.95718 0.72372-0.49417 1.2198 0.64591 1.7159 0.70426 1.249-0.18099 1.0758 0.0602 0.58167 0.79371 1.7159 0.43385 0.61088 0.46302 0.90464 1.0778 0.75287 1.782 0.49609 1.107 0.43771 1.1673 0.02966 1.2879h0.6965l1.4007 0.24122 1.4008 0.181 0.8774 0.37159h1.2198l0.90462 0.12046 1.0486 0.18099 0.52332 0.58362 0.81903 0.34436 0.49609 0.67311 0.35211 0.3716 0.20027 1.5408-0.43771 0.0914 0.49608 1.107-0.69647 0.83462-0.63807 1.107-0.63816 1.2587-0.22965 0.70423-0.41047 0.89686-0.38132 0.83458-0.20029 0.73539 0.61088 1.5389 0.58171 0.79568 0.58167 0.86574 0.41049 0.89488 0.20029 1.3171 0.1712 0.79571 0.90464 0.61279 0.46693 1.107 0.0297 0.98633 0.32487 0.67507 0.1712 0.61478 0.1421 0.49218 0.5817 1.2898 0.1712 0.79376 0.11486 0.98634 0.26645 0.55443 0.32489 0.49221 0.3521 0.40269 0.40857 0.46498 0.38133 0.37162h0.38127l0.40856-0.15162 0.29582-0.0893 0.84824-0.28217 0.81903 0.0914 0.38134 0.55248 0.0564 0.43388-0.43774 0.67507-0.69646 1.2879 0.0858 0.8657 0.3521 1.5097 0.22966 1.2587-1.0486-0.73345-0.49607-0.92603-0.72369-0.92602-0.72374-0.43193-0.66728-0.92602-0.49606-1.1673-0.26644-0.73344-0.96299-1.107-0.72374-0.18278-0.3521 0.0624-0.38131-0.24329-0.6381-0.12046-0.35213 0.25102-0.93379 0.64394-0.55251 0.49222-0.55252 0.98634-0.52332 1.4182-0.66729 0.0914-0.963 0.18099-0.38129 0.43385-0.29582 1.4182 0.0297 0.73539-0.1421 1.6011-0.0297 0.43188 0.0858 0.92607-0.11486 1.3579-0.38134 1.9124-0.66726 1.0467-0.72371 1.5096-0.05645 0.79376-0.02966 1.8424-0.52333 1.57-0.72371 1.0466-0.66729 0.61478-0.02966 1.3482 0.11486 1.1673-0.79179 1.9435-1.1342 0.86377-1.3151 0.89688-0.32489 0.79568 0.3521 0.73343 0.22758 0.64394 0.5817 1.4786-0.63811-0.64394-1.105-0.12258-0.87743-0.31133-1.0758-0.55443-0.96299-0.83455-0.25696-0.89497 0.22966-0.8657 0.8482-0.73542 0.93383-1.0447 1.249-0.79572 0.93383-0.55249 0.49611-0.4319 0.11486-0.86763-0.1421-0.49221-0.11486-0.67311 0.20029-0.79571 0.20027-1.2879-0.72371-0.79571-1.4299-0.40269-1.6867-0.83461h-1.286l-1.6011 0.0602-0.90465 0.24122h-1.2486l-0.69647 0.18099-1.249-0.55249-1.3424 0.12046-1.926 0.24122-1.0778 0.3716-1.286 0.0602-0.99023 0.0602-0.81904 0.18099-1.286-0.25101-2.0388-0.37159-1.1342-0.49411-1.8968 0.18099-1.8112 0.0602-0.81903 0.12046-0.08565 0.79373 0.55251 0.31321 0.08565 0.55448-0.02936 0.92602 0.2296 1.2256 0.52332 0.92605 0.84824 0.55443 0.9338 0.12045 0.32295 0.0914 0.49608-0.0602 1.1342 0.12046 0.7529 0.0312 0.52527 0.31127 0.4669 0.67509 0.29573 1.0778 0.20039 1.0778 0.29573 1.4493-0.7918 0.76458-0.96299 0.12258-0.46691 0.15161-0.93383 0.3424-0.7918 0.49222-0.58171 0.31127-0.58167 0.12258-0.90464 0.0602-0.99024 0.18277-1.4863 0.79372-1.5155 0.83461-1.1342 0.70426-1.2859 0.67509-1.105 0.61475-1.1615 1.6614-0.32489 0.61279-0.41048 1.1673-0.11486 0.61278-0.26654 0.4942-0.25681 0.86571-1.4863 0.31124-0.8774-0.31124-1.286-0.86571-1.3151-0.73542-1.4863-0.67507-1.0778-0.18099-1.105-0.24122-1.4299-0.15162-0.69648 0.0893h-0.29585l-0.8774-0.12046-1.1342-0.12046-0.93383-0.24124-0.2004-0.55443-0.02937-0.95518 0.2004-0.95719 0.1712-0.92602 0.11486-0.92604-0.7529-0.6731-0.8774-0.0297-0.66728 0.15162-0.7918 0.79376-1.0486 0.98634-0.49608 0.95519-0.9338 0.64591-0.81904 0.31127-0.46692 0.31126-0.35212 0.43191-0.08562 0.92603v0.79373l0.11486 0.79571-0.14201 0.73344-0.75291 0.86765-0.7529 0.3716-0.8774 0.31324-1.0778 0.0602-1.3716 0.21214-0.963 0.15163-1.249 0.70423-1.1906 0.28217-0.7529 0.37162-1.7431 0.0893-0.58168 1.1381 0.02937-1.0467-0.32495-0.31129-0.35212-0.73345-0.38132-0.7957-0.05637-0.31127-1.3424-0.67507-0.49608-0.31127-0.99024-1.1672-0.63811-0.86575-0.38132-0.43382-0.963-1.1362-0.99023-0.64392-0.7529-0.67507-1.105-0.98636-0.11486-0.55252 0.38132-0.92603 0.38132-1.6614-0.7918-0.76457-1.0486-0.0893-0.90464-0.73541-1.105-0.67507-0.52335-0.79374-0.8482-1.2276-0.43772-0.79568-0.11486-0.49219-0.22956-0.86576 0.02937-0.43186 0.08562-0.55446 0.35212-0.79376 0.32489-0.67504 0.43772-1.4182 0.81904-1.2295 0.22764-1.6595v-1.0467l-0.14201-0.73538-0.35212-0.4319-1.0486-0.49417-0.90464-0.28215-0.7918-0.0297-0.8774 0.12046-1.1342-0.98631-1.6575-0.31128-1.1906-0.3715-1.6303-0.64588-1.3716-1.1362-1.1342-0.79568-0.63811-0.49416 0.14201-0.181 0.22761-0.4027 0.61087-0.92602v-0.46109l0.49608-0.64588 0.84821-0.25101 0.90464-0.5233 0.63808-0.31323 0.69647-0.6128 0.8774-0.79574 0.72371-0.31124 0.99023-0.49417 1.1634-0.24122 0.963-0.12046 0.81904 0.4008 0.69647 0.34237 0.90463-0.67507 1.0778-0.79373 1.0194-0.98634 0.32488-1.6614 0.61088-1.4202 0.26653-1.4785 0.35212-0.12258-0.69647-3.3812-0.72371-0.99217-0.38129-1.8424-1.105-0.28008-0.2004 0.0893 0.08562-0.46301 0.11486-0.5525 0.29573-0.64394 0.84823-0.98634 0.69644-1.1673 0.63814-0.58363 0.99023-1.0466 0.69647-0.92607 0.26653-0.76455 0.38132-1.0466 0.11486-1.0467 0.43772-1.2879 0.38132-1.6595-0.0564-0.89683-0.58168-0.52337-0.46692-0.21214-0.9338-0.30928-0.72371-0.27417-0.46692-0.3113-0.22956-0.83459 0.1712-1.1984 0.02937-1.6595 0.38129-0.8346 0.99024-0.79569 0.55251-0.76458 1.3151 1.5408 0.81904-1.0466 0.46691 0.6128z" fill="#c2f0c2"/>
  <path d="m25.962 195.1 0.58168-1.1361 1.7431-0.0914 0.7529-0.3735 1.1906-0.28009 1.249-0.70429 0.963-0.14982 1.3716-0.21213 1.0758-0.0602 0.8774-0.31124 0.7529-0.37356 0.7529-0.86573 0.14201-0.73536-0.11486-0.79373v-0.79569l0.08562-0.92605 0.35212-0.43188 0.46692-0.31324 0.81904-0.31126 0.93383-0.64586 0.49608-0.95719 1.0486-0.98634 0.7918-0.79571 0.66728-0.14982 0.8774 0.0312 0.7529 0.67318-0.11486 0.92602-0.1712 0.92604-0.2004 0.95521 0.02937 0.95716 0.2004 0.55249 0.93383 0.24122 1.1342 0.12258 0.87741 0.12046h0.29573l0.69647-0.0893 1.4299 0.15162 1.105 0.24122 1.0778 0.18099 1.4863 0.67312 1.3152 0.73539 1.2859 0.86573 0.8774 0.31324 1.4863-0.31324 0.25681-0.86573 0.26654-0.49414 0.11486-0.61478 0.41051-1.1673 0.32489-0.61475 1.1634-1.6595 1.105-0.61475 1.286-0.67507 1.1342-0.70424 1.5155-0.83463 1.4864-0.7957 0.99023-0.18099 0.90464-0.0602 0.58168-0.12046 0.58168-0.31125 0.78987-0.49414 0.9338-0.3424 0.46691-0.14982 0.963-0.12046 0.78984-0.76459-0.2957-1.4493-0.20039-1.0778-0.29573-1.0778-0.46691-0.67503-0.52333-0.31324-0.7529-0.0297-1.1342-0.12258-0.49609 0.0624-0.32488-0.0914-0.93383-0.12046-0.84821-0.5525-0.52528-0.92602-0.22763-1.2276 0.02936-0.92603-0.08565-0.55252-0.55251-0.31318 0.08565-0.79571 0.81903-0.12046 1.8112-0.0602 1.8968-0.18099 1.1342 0.49222 2.0388 0.37352 1.286 0.25102 0.81904-0.18099 0.99023-0.0602 1.286-0.0602 1.0758-0.37164 1.9241-0.24122 1.3443-0.12046 1.249 0.55449 0.69647-0.18278h1.249l0.90464-0.24122 1.6011-0.0602h1.286l1.6867 0.83459 1.4299 0.40269 0.72374 0.79376-0.20029 1.2879-0.20027 0.79568 0.11486 0.67315 0.1421 0.49414-0.11486 0.86377-0.49609 0.43385-0.93383 0.55246-1.249 0.79376-0.93386 1.0466-0.84819 0.73542-0.22758 0.86572 0.25696 0.89685 0.96299 0.83654 1.0778 0.55249 0.8774 0.31324 1.105 0.12045 0.63813 0.64396 0.26643-0.3424 0.43771 0.25101h1.105l0.72371 0.18099 0.20029 1.5097 0.20027 0.7062 1.4863 0.79372 0.41047 0.0312 1.2198 0.0893 0.66726 0.0605 1.0758 0.37352 0.1712 0.64201-0.58167 0.34242-0.32489 0.67507-0.46693 1.2879 0.46693 1.1673 0.38132-0.37355 0.7529-0.49218 0.8774-0.18099 0.4669-0.3716 1.0758 0.79375 0.6965 0.43385 0.55251 0.18099 0.90463 0.40269 1.1342 0.21008 1.249 0.18099h0.66728l0.81903 0.0602h2.105l1.1906 0.24122 1.5719 0.49222 1.1906 0.67313 0.41047 0.2528 1.1342 0.5525 0.9338 0.37353 0.7529-0.12258 0.5817-0.15161 0.7529-0.0914 1.2198 0.24331 0.79181 0.25101 1.0486 0.28396 0.99023 0.46109 0.93382 0.79763 0.96301 0.98439 1.247 0.83461 0.8774 1.0778 0.81904 0.43187 0.81903 0.12257 1.1634 0.31129 1.0194 0.31127 1.5719 0.55446 0.61089 0.3424 0.99023 0.34237 1.5719 0.24123 1.2859 0.43385 0.72374 0.55443 0.84822 0.8346 0.7918 1.0175 0.69645 0.92607 0.63815 0.83458 0.81903 0.70426 0.63807 0.43187 0.46693 0.25101 0.96297 0.31324 0.63813 0.12046 0.72369-0.12046 0.63813-0.18099 0.93381 0.11864 0.99023 0.7646 0.40853 0.21213 0.5253 1.4785-0.84825-0.67311-0.0858 0.58362-0.0858 0.89493-0.5233 1.2295-0.66727 1.4182-0.5817 0.98635-0.52333 0.79568-0.79181 1.0156-0.69648 0.83457-0.7918 0.58363-1.0758 0.3424-0.52525 0.15162-0.72371 0.34237-0.4105 0.46304-0.11486 1.0156 0.14392 0.49411 0.84819 0.61477 0.6109 0.46106 0.11486 0.79571-0.61089 0.49414-0.4377 0.79376-0.22965 0.64394 0.5233 0.37157 0.9338 0.0602 0.90464 0.25101 0.63813-0.0602 0.87739 0.83654 0.26645 0.58365-0.58173 0.31321-0.84823 0.49414-0.90463 0.14982-1.0194 0.0312-1.3151-0.24122-0.81903-0.15162-0.7237 0.15162-0.66726 0.31324-0.6965-0.0312-1.5155-0.3424-0.5233 0.31128h-1.5447l-1.1615 0.37352-0.58167 0.46301-0.99023 0.21215-0.66727 0.0602-1.286-0.3113-0.6381-0.61475-0.6673-0.18099-0.99023-0.24122-0.79181 0.0602 0.14392 1.319 0.55252 1.0174 0.69647 0.73539 0.66727 0.61475 0.75288 0.40272 0.52335 0.0312 0.43771-0.27031 0.55252-0.43385 0.43771-0.61475 0.43776-0.21007 0.64002 0.0297 1.0486 0.15161 1.0778 0.67507 0.66731 0.92607 0.6089 0.8657 0.0565 0.98635-0.43774 0.79568-1.286 0.37353-1.5719-0.4319-1.3443-0.37349-0.6965 0.12257-1.1906-0.3424-1.0486-0.34237-0.79182-0.86772-0.963-0.58359-0.29582-0.34242-1.9532-0.49414-0.79181-0.52336-1.0194-0.0297-0.84823-0.12257h-1.0758l-1.0194-0.37155-0.79179-0.52336-0.9338-0.76649-0.0564-0.4922 0.41047-0.0914 0.90466-0.15162 0.58167-0.43187 0.66728-0.79568 0.69648-1.2276-1.3152-0.24122-1.2198 0.43189-1.6575 0.25102-1.1906 0.18099h-1.1906l-1.4299-0.18099-1.0486-0.31318h-0.61089l-1.0758 0.0602-0.8482 0.79375-0.63813 1.4202 0.0297 0.61477 0.4669 1.4182 0.93383 1.0155 1.0486 0.98636 0.61086 0.89686v1.4805l-0.49606 0.98439-0.84823 0.49414-0.90464 0.43385-1.2859-0.73538-0.5817-0.55449-0.5525-0.37153-1.1342-0.12257-1.3443-0.3716-1.2198 0.12046-0.93379 1.1673 0.20027 1.0758 0.81903 1.2587 0.69646 1.2879 1.4863 0.37353 0.9902 0.67311 0.84826 1.2276 0.5233 0.73343 0.46693 1.107 0.60894 0.49414 0.69647 0.86573 1.1906 1.3891 1.5447 1.1381 1.0194 0.86571 1.6011 0.58365 1.4863 0.40269 0.72371 1.0778 0.72372 0.52332 1.249 1.1673 0.79182 1.107 0.9902 0.89683 1.105 1.0778 0.9902 0.86575 0.58173 0.55252 1.0194 0.46299 0.75288-0.76456 0.26645-1.5408-0.11486-1.2276 0.11486-1.2587 0.3813-0.40272 0.6381-0.37153 1.0758-0.0914 0.49606 0.14982 1.2198 0.3424 1.4007-0.21006 0.5817-0.21215 0.84819-0.70426 0.7918-0.92604 0.46693-0.67507 0.49606-0.73538 0.8774-0.4319 0.84823 0.25103 0.9338 0.49416 1.1634 0.34237 0.7529 0.0297 0.55252-0.86569 0.22966-1.2879-0.0297-1.1673 0.14391-0.86768 0.6381-0.0893 0.7529 0.0893 0.75293 0.52525 0.3229 1.0156 0.55254 0.86572-0.1421 1.107-0.14391 0.5836 0.41047 0.58368 0.49609 0.21215 0.29582 0.70423-0.29582 1.0466-0.0858 0.98637 0.5817 0.67311 0.79179-0.31125 0.90464-0.24122 0.52526 0.0893 0.93383 0.15162 0.4669 0.25101 0.84821 0.70425 0.49609 0.5233 0.4669-0.24122 0.55253-1.0466 0.0565-0.86573-0.0565-0.98638 0.4669-0.15162 0.61089 0.58366 0.90464 0.31323 0.84822 0.61279 1.3715 0.95523 0.14209 0.76455-0.14209 0.37353-0.69646 0.0605-0.7237 0.12046-1.1906 0.46301-0.90463 0.21008-0.81903 0.92602-1.0194 1.0155-0.38132 1.0486-0.4669 0.83462-1.105 0.95516-1.1634 0.89686-0.96104 0.58365-0.99025 0.52333-0.96299 0.7354-0.40851 0.73343-0.49609 0.92798-1.3151-0.12257-1.1906-0.31129-1.105-0.25101-1.105-0.21006-0.8774 0.46304-0.4105 0.43385-0.32293 0.46105-0.63813 0.89686-0.72369 0.12046-0.69647-0.0297-0.25696 0.28217-0.66726-0.55249-0.26645 0.0914-0.69646 0.0297-1.0759-0.25101-0.75289-0.37159-0.93385-0.43388-0.9338-0.37154-0.63809 0.73535-0.5817 0.89491-0.69647 0.79376-0.96299-0.15162-0.6381-0.40269-0.90463-0.64399-0.8774 0.12046-0.43774 0.92602 0.0858 0.79568-0.66727 1.5992-1.286 1.0467-0.1712 0.58559-0.43771 0.98634-0.93383 0.64588-0.90466 0.55254-0.96296-0.46112-1.0758-0.76649-1.1342 0.37159-0.5817 1.1673-0.49609 0.43189-0.81903 0.31323-1.4864 0.24123-0.99024 0.49217-0.81903 0.92604-0.93383 0.76458-0.90463 0.46109-1.2859 0.15161-0.69647 0.21215-0.99023 0.61478-0.72371 0.49414-0.99022 0.67507-0.84824-0.95523-0.1421-0.40269-0.0297-0.3132 0.43772-0.92605-0.11486-0.79568-0.4961-0.7957-0.81903-0.64397-1.286-0.0914-0.7529 0.0914-0.49611 0.0312-0.79179-0.18278-0.29582-0.46301-0.05645-0.79566-0.14392-1.0175-0.1421-1.1673-0.3521-0.43386-0.60894-0.73341-0.87743-0.73539-0.9338-0.31128-0.8482-0.12046-0.22964 0.70429-0.11486 0.49411-0.35213 1.3171-0.0858 0.55251-1.0758 0.49414-0.72372 0.18099-0.32488-0.12046-1.1906-0.70623-0.55254-0.34237-0.96299-1.4474-0.41047-1.2878-0.1712-0.83459-0.81904-1.4183-0.05645-0.98636-0.14392-0.76455-0.20028-1.0175-0.40856-0.79569 0.02936-0.46304-0.11486-0.89686-0.55251-1.107-0.05645-0.73536-1.286-0.79376-1.5155-0.12258-0.90464-0.0602h-0.60966l-0.6381-0.28217-0.29573-0.76456 0.08565-0.79568 0.22765-0.49222 0.69647-0.73539 0.20039-0.21215v-0.61475l-0.99023-0.95521-0.58171-0.89684-1.105-1.4494-0.8774-0.89686-1.4863-1.5096-1.0778-0.98636-0.35213-0.43191-1.286-1.1673-1.1342-1.2587-0.79179-1.0156-0.84821-0.92604-1.4007-1.6614-1.6011-1.6011-1.6303-1.5388-0.78985-1.2587-1.3716-1.0155-0.9338-1.3599-0.66728-0.92602-1.3716-1.3501-0.58171-1.6595-0.38129-1.389 0.14195-0.55254 0.43772-0.61475 0.22957-0.52333 0.63811-1.4182 0.41048-0.3132 0.96299-1.0155 0.963-0.61286 1.0194-0.34237 0.55252-0.18099 0.32295-0.4922 0.1712-0.95719 0.1712-0.5233 0.52332-0.18099 0.32297-0.12046 0.7529 0.18099 0.99023 0.12258 0.52528-0.43189 0.43772-0.61477 0.08565-1.2587-0.99023-0.6731-1.1906-0.18278-1.249 0.28394-0.63811 0.31132-1.0486 0.49217-1.0758 0.49414-1.1906 0.0602-0.41051 0.12046-1.249-0.46109-1.105-0.0312-1.3716-0.3735-1.0778-0.12046h-0.84824l-1.4007-0.64394-1.926-0.95715-1.0194-0.73344-0.9338-0.61474-0.93383-0.98639-0.49609-1.2276-0.14392-1.6614-0.20036-1.7198-0.66729-1.1673-0.43771-0.49413-0.66728 0.73535-0.55252-0.0914-0.25679 0.0914-0.58171 0.67315-0.55251 0.4922-0.38132 0.43385-0.2957 0.14982-0.72371-0.46303-1.0778-1.0467-0.963-0.28217-1.3443-0.0914-0.2004 0.12046-0.63808-0.12046-0.99026-0.70425-0.9338-0.61474-0.49611-0.21007-0.66728 0.0602-0.84823-0.12046-0.81904-0.0297-0.40856 0.79376-0.02937-0.98635-0.69647-0.76655-0.14201-0.49217-0.38132-0.43385-0.63811-0.12046-0.49608-0.43187-0.1439-0.6751 0.02937-0.86573-0.14201-0.46299-0.963-0.40272-0.90464-0.0602-0.81904-0.49219-0.32488-0.24122-0.49608-0.86573-0.14201-0.73343 0.0564-1.1673v-0.79568l-0.32293-0.49417-1.3443 0.0893-0.99023-0.21008h-0.90453l-0.22956-1.1984-0.02937-1.1672z" fill="#b0c2b0"/>
  <path d="m47.671 102.23 10.111-8.2719-1.2198-3.9669 14.855-0.37156 12.435-1.6011-4.8404-7.1359 9.2333-5.9085 5.6224 1.9747 4.4024-0.37356 3.2023-4.7703 2.4202-5.5349-0.5253-4.0951-1.1615-0.25101-1.4863-0.31126-1.8385-0.73539-1.6303-0.61283-1.4864-0.43382-1.5427-0.43383-1.3735-0.5817-2.0097-1.2276-0.40855-0.64397-0.84825-1.1673-0.29552-0.70428-0.52334-0.58362-0.93383-0.31324-1.2198-0.06023-0.66728 0.12258-0.63811-0.49414-0.14195-0.61475-0.11486-1.2276 0.14392-1.5389v-1.1069l0.22763-0.61478 0.20041-0.31318 0.14195-0.92605 0.08565-1.2879 0.1712-1.782 0.32488-2.4668 0.1712-1.107-0.66729-1.4182-0.61089-0.49417-0.61086-0.43187-0.81904-0.61286-0.69647-0.73731-0.46688-0.92606-0.20039-0.6731 0.17123-0.86378-0.29573-0.73537-0.75291-0.43191-0.58168 0.61475-0.60894 0.37161-0.81904 0.4338-0.8774 0.06023-1.0194 0.28217-1.286 0.49414-0.66728 0.2062-1.1906 0.73542-0.58168 1.0466-0.32489 0.79568-0.30541 1.0466-0.52332 0.37353-1.0486 0.02966-1.4863 0.21215-1.4299-0.06023-1.3443-0.15162-1.1906-0.79373-0.81904 0.0914-0.2957-0.28217-1.2859-0.3424-1.5622 0.37353-1.6575 0.40272-0.963 0.21215-1.7431 0.46301-0.7529 0.3424-2.7353 0.95523-1.2859 0.76455-1.1342 0.4319-1.105 1.57-1.3443-0.83462-0.61087 0.61475-1.3443 0.40272-0.9338 0.34237-1.1615 0.06023-1.4863 0.08928-1.0758-0.02966-0.72371 0.12046-0.52332 0.18099v0.73539l0.49608 0.6751 0.8482 0.31321 1.0778 0.83459 0.46691 1.2276 0.41049 1.4494 0.22763 1.1069 0.7918 0.43188 1.0194 0.67507 0.32489 0.86574 0.14195 1.1673-0.11486 1.4202 0.41048 0.86767 0.32295 0.86573-0.32295 0.86574-1.0194 0.06023-0.84824-0.31324-0.81904-0.37158-0.49608-0.06023-0.29573 0.61475-0.61087 0.06023-0.55252-0.12046-0.66728-0.18099-0.60891-0.14982-0.7918 0.02966-0.22956 0.46302-0.22764 0.58362 0.35212 0.61478 0.7529 0.49219 0.93383 0.79374 0.43772 1.0486 0.22764 0.7354 0.11486 1.2879 0.61088 1.2276 0.14201 0.61475 0.40852 0.98632 0.35213 0.73539 0.8774 0.37353 0.72371-0.06023 0.84822-0.40274 0.58168-0.34237 0.2957-0.61281 0.6109-0.12046 1.0194-0.03117 0.81904-0.21215 0.43772 0.06023 0.22955-0.02966 0.61087 0.7646-0.81901-0.4319 0.81901 0.4319 0.49415-1.8812 1.9532-0.73347 1.105-0.06023 1.1634-0.15162 1.0759-0.24124 0.58167-0.06023 0.93383-0.12258 0.69647-0.06023 1.0778 0.21213 0.84821-0.58362 0.72371-0.46304 0.7918-0.14982 1.1634 0.40077 1.3151 0.89491 1.1614 0.24122 1.2198-0.02966 1.1906-0.58362 1.0759-0.43191 0.90464-0.25103 1.2762 0.12046 1.1342 0.43191 0.84822 0.55443 0.38129 0.61286 0.29573 1.107-1.0194 0.79569-1.3443 1.2276-1.0486 0.67508-1.1342 0.49414-1.7431 0.61478-1.7431-0.12046-1.3152-0.02966-1.1614-0.08928-0.84824 0.24122-1.1634 0.37158-0.93383 0.18099h-1.2861l-0.90464-0.12046-0.84824 0.02966-0.41048 0.15162-0.90464 1.107-1.5719 0.61475-0.90464 0.06023-1.0778-0.12046-1.0778 0.37156-0.14195 1.2587-0.32292 2.1245-0.58168 1.9123-0.49608 1.3599-0.60895 1.3482-0.963 1.4202-0.78984 0.43193-1.0486 0.24329-1.4591-0.03299-1.286 0.40269-0.69454 0.21215-0.81904 0.28217-0.60895 0.43188-0.46689 0.86574-0.32296 1.4785-0.2568 1.107-0.46692 1.2899-0.55251 0.79371-0.7529 0.61481-1.0486 0.14982-0.49608-0.12046-0.96299-0.12046-0.84824-0.03117-0.75287 0.06023-0.93383 0.15162-1.1906 0.34237-1.0486-0.18278-0.8774-0.34045-1.3151-0.15162-0.90464 0.24124-0.93383 1.0155 0.63811 0.89494 0.81904 0.67507 1.0758 0.463 1.0778 0.15162h0.963l0.8482-0.06023 0.55251 0.12046 1.0758 0.37356 0.9338-0.12258 1.1614 0.21215-0.38129 0.67507-0.29573 1.319 0.93383 0.79373 0.41048-0.37156 1.249-0.18099 0.90464-0.06023 0.84823 0.37159 0.46689 0.40272v0.55443l0.49608 0.79376 0.32296 0.83459 0.43772 0.55449 1.3443 1.0466 1.1342 0.31125 1.105 0.92605z" fill="#e3b584"/>
  <path d="m83.851 88.023-4.8403-7.1359 9.2333-5.9085 5.6224 1.9727 4.4024-0.37356 3.2023-4.7703 2.4202-5.5349-0.52528-4.0951 1.249 0.06023 0.99026-0.49417 1.0486-0.27238 1.0758-0.15162 0.99024-0.21006 1.1342-0.15162 1.3151 0.73345 1.1906 0.61475 1.1634 0.58364 1.3715 0.21006 1.9532 0.0914 1.5719 0.61475 1.249 0.89494 1.0194 0.49222 0.84821 0.89686 0.1712 0.83457 0.29582 1.0155 0.5253 1.2295 0.25694 1.1362 0.5233 0.86571 1.1634 0.73342 1.3443 0.95716 1.4299 0.70426 1.0778 0.83654 0.78983 0.64591-0.40856 0.37156-0.55247 0.49417-0.79181 0.61476-0.32292 1.2276-0.1712 1.107-0.17122 0.34237-0.0564 0.95715 0.1421 0.86578 0.14391 0.55443-0.0858 0.79374-0.55251 0.73537-0.72371 0.70429-0.60895 0.89683-1.1634 0.67507-1.5155 0.92604-1.286 0.55446-0.7237 0.67315-0.69646 0.61475-0.90464 0.49417-1.1634 1.1672-0.90463 0.67315-1.0194 1.0778-1.6011 1.3579-0.79179 0.5837-0.84826 1.57-0.81903 1.7509-0.81903 1.0467-0.61088 0.83654-0.41048 0.95523 0.0858 0.79765 0.1712 0.55252 0.4669 0.92604 0.6965 0.73536 0.0564 1.9727 1.2198 0.67312v0.76455l-0.1712 1.4494-0.3229 1.6614-0.0297 0.98633 0.58167 0.6751 0.84821 0.46301 0.43774 0.28217 0.69646 0.76453 0.61086 1.0778 0.11486 1.0467 0.81906 1.5991-0.29582 0.86576-0.0297 1.4785 0.26645 1.1984 0.3521 0.83457v0.49414l-0.1421 1.2898-0.40855 0.61281-0.79179 0.43192-0.81906 0.43185-0.29582 0.73542-0.69646 0.7957-0.6381 0.55246-0.72371 0.37356-0.4105 0.18099-0.38132 0.24122-1.0194 0.49411-0.93383 0.40273-1.0194 0.21214-0.79182 0.37163-0.55251 0.24122-0.41049 1.0466-0.43773 0.0914 0.43773-0.0914-0.20027-1.5408-0.3521-0.37157-0.49611-0.67314-0.81903-0.3424-0.5233-0.58365-1.0486-0.18101-0.90463-0.12046h-1.2198l-0.8774-0.37153-1.4008-0.18278-1.4007-0.24122h-0.69645l-0.02966-1.2899-0.43774-1.1673-0.49606-1.1069-0.75293-1.7801-0.90464-1.0777-0.60894-0.46304-1.7159-0.43192-0.5817-0.79564-1.0758-0.0602-1.249 0.18099-1.714-0.70426-1.2198-0.64391-0.72371 0.4941-1.1906 0.95522-1.105 0.49416-1.3151 0.0893-0.90464-0.58365-1.0758-1.107-0.69647-0.89487-0.9338-0.79571-1.1634 0.0602-0.66728 0.18099-1.3716-0.12046-1.4863 0.12046h-1.2198l-1.5155-0.12046-2.0388-0.21215-1.4863-0.24122-1.6576-0.21008-1.3443-0.0602-1.4864-0.12045-1.8968 0.15161-1.4572 0.0914-1.4299 0.0602-0.963 0.21215-1.1342 0.21006-1.0778 0.43189-0.72371 0.2433-1.7431 0.0312-0.69647 0.0914-0.20041-1.6614-0.14195-0.55446-0.38132-0.61283-0.49608-0.49413-0.78985-0.86573-0.11486-1.0175 0.14195-1.1381 0.35213-0.86573-0.35213-0.67506-0.9338 0.79375 0.14195-1.1965-0.35213-0.58364-0.38129-0.18099-0.17123-0.37353 0.22765-0.49217 0.38128-0.73344 0.35213-1.1984-0.6108-0.76654 10.111-8.272-1.1906-3.9669 14.826-0.37156z" fill="#f9d3c6"/>
 </g>
 <g fill="none" stroke="#000">
  <path d="m12.434 190.04 2.5547 0.68125 1.3625-3.2359 2.0437-3.0656-0.68124-2.0437 0.51094-0.85155 1.7031 0.51093 6.3015-4.939v-3.0656l7.664-3.5765 2.2141-1.1922 1.1922-1.7031h1.1922l1.1922-1.0219-0.68125-3.4062 2.3844-2.3844 0.17031-1.1922 2.3844-3.2359 2.3844 0.51093 2.2141-2.0437 0.34062-3.2359 3.5765 1.3625 1.8734-0.51094 1.5328-1.7031 2.3844-4.5984 0.34062-3.2359 1.7031-3.2359 1.8734-1.8734 2.725-3.9172 2.5547-1.3625 2.2141-1.1922 6.1312-6.1312 0.85156-2.725 1.7031-0.85157 2.214-1.1922 2.3844-3.9172 1.0219-0.68125 6.4719-2.0437 0.85156-0.68125 1.1922-0.17032 1.8734-0.68125 2.2141-3.0656 2.214-2.0437 3.9172-3.4062h0.68126l1.7031-1.8734h1.5328l2.5547-1.1922v-1.7031l6.1312-4.7687 1.8734-4.4281 2.5547-4.5984 0.17032-1.0219 2.725-4.939 10.73 2.725 4.2578-0.51093 5.1093-1.1922 4.939-1.0219 3.5766-0.85156 1.8734-0.51094 1.1922-1.1922 2.5546-3.5765 0.34065-0.68124 1.0219-0.34062 1.0218-0.17031 1.0219 0.34062h5.9609" stroke-width=".5px"/>
  <path d="m14.88 190.36 1.7144 1.1717 2.4298-0.86337 0.30834-0.148 1.9611 0.074-0.16034 0.54268 0.55502 0.62903v0.86335l0.93737 0.62905 1.8007-1.0977 2.1091 1.3321 2.5778 2.7381-0.23434 0.93737v0.54269l0.08634 0.62902 0.70303 0.86337 1.332 0.93737 0.54269 0.39468 1.332 2.6641 2.8984 2.4174 0.54269 1.0237 1.1717 0.46868 0.70303 0.70303 0.86337 0.46868 1.0237 0.46869 0.54269-0.62903 0.39468 0.55502 0.93737-0.0863 0.074-0.23434 0.32068-0.14801 1.7144 0.38235 0.32068 0.46869-0.32068 0.78935 0.46868 0.23436 0.86337 0.23434 1.0237-0.4687 2.9724-0.62901 0.54268 0.16033 0.08634 0.77704 1.7884 1.4184 1.7267 0.30835 2.7381-0.46868 0.32068-0.62902-0.39468-0.77703 0.86337 0.30835h3.2808l0.54269-0.23434 1.7267-0.23436 1.4061-0.074 0.78936-0.62902 1.332-0.39468 1.5664 0.074 3.9098 1.2581 0.86337 0.23435 0.54268-0.16034 0.54269-0.074h0.86336l1.0237 0.23434 1.8747 0.46869 5.0815 1.6404 0.71536 0.23433h0.70303l0.93736-0.38234 1.4061-0.86337 1.1717-0.70301 0.86336 0.074 0.16034-0.39468 0.54269-0.38236 1.4924-1.332 2.2694-1.1717 0.38235-0.55501 0.23434-0.16034 1.184-0.30835 0.85103-0.46868 0.9497-0.93737h1.4801l0.86336-0.70302 0.62904-0.78937-0.08635-0.54268v-0.62902l0.78937-0.4687 1.0977-1.48 3.1204-2.1954 1.184-0.78937 0.93737-0.46868 0.61668-0.61669 1.0977-0.32068 2.1954-2.3434 0.54267-0.16034 0.9497-0.77704 0.85105-0.23433 1.4184-0.78937 0.54268-0.46867 0.93738-0.30836 1.0237-0.70302 0.77701-0.32068 0.93738-1.2457" stroke-width=".5px"/>
  <path d="m117.96 188.81-3.4142-0.30455h-2.1033l-2.4354-0.66422-2.6568-0.1107-2.3247-1.107-1.5498-1.2177-1.107 0.1107-2.3247-0.99631-0.99632 0.6642-1.107-0.11069-0.44282 0.22141-0.8856-0.22141-0.77492 0.11069-1.4391-0.55349-1.6605 0.3321-2.3247-1.4391-3.7638 3.6531-1.3284 0.2214-2.8782-3.0996-0.4428-0.77491-1.4391-0.2214-3.4317-3.2103-1.8819-0.9963h-0.55351l-0.4428-0.44281-0.77491 0.2214-0.6642-0.2214-0.4428-0.2214-2.6568-1.7712-1.2177-0.22139-0.6642 0.22139-1.107 0.33211h-0.44281l-0.3321-0.33211-0.1107-0.22139 0.2214-0.55351-1.4391-1.6605h-3.0996l-0.77491 0.1107-0.55351 0.55351-1.5498-0.3321v1.107l-1.107-0.1107-0.99631 0.7749h-0.99631l-2.1033-0.2214-0.3321 0.5535-0.77491 0.22141-0.55351 0.33211-2.3247-0.1107-0.66421 0.3321h-1.2177l-1.2177 0.7749-1.8819 0.44281-1.8819 0.55351h-3.5424l-0.88562 0.44281-0.77491-0.11071-1.7712-1.4391-0.88561 0.11069-2.3247 1.107-0.99631 0.1107-1.107 0.4428-1.107 0.2214h-0.9963l-0.44281-0.6642-0.99631 0.4428h-0.4428l-0.55351-0.3321-1.107-0.99632" stroke-width=".5px"/>
  <path d="m82.943 116.47 0.85706-4.2853 2.9997-9.4276v-0.85705l-0.6428-2.1427 1.0713-3.4282-0.85706-0.85707-2.3569-2.5712-0.85706-1.4998-0.21426-4.2853 0.64279-2.7854-1.2856-2.1426 1.0713-5.3566-1.2856-1.9284v-2.5712l-1.0713-1.0713 2.5712-2.5712-0.42853-3.214 0.21426-3.6425 2.9997-2.7854 1.2856-2.3569-0.21427-0.42853 1.4998-0.42853 1.0713-2.7854v-2.7854l0.6428-1.0713v-1.0713l-2.5712-0.21426-0.6428-1.2856 2.1426-6.4279" stroke-width=".5px"/>
  <path d="m165.04 71.766 3.6202 2.3866 1.2945 2.1575 1.0788 3.4521-0.21576 3.6678 0.21576 2.1575 2.1575 7.9829 0.86302 0.86302 0.64724 3.6678 1.2945 1.9418-0.21577 1.0788-0.21571 0.863-1.0788 0.86301-0.64725 2.1575-2.1575 3.8836-1.2945 5.3939-0.21572 1.726-0.86304 1.0788-2.8048 3.0206-3.0205 1.726h-0.43151l-1.9418 3.452-3.0205 1.726-0.86304 0.86302-1.0787 1.9418-0.43153 1.2945-0.21572 3.0205-3.2363 3.2363-0.43153 1.5103-2.3732 2.3733-3.8836 4.7466-2.1576 0.86302-4.3151 3.6678-0.4315 0.86301-1.5103 0.21576-1.2945 2.589-0.4315 0.64726-1.5103 1.0788-6.9041 12.514-0.64726 2.3733-0.64727 2.8048-1.726 2.589-1.5103 2.1575 0.4315 1.0788-3.2363 3.0206-0.64726 2.1575-0.86301 4.0993" stroke-width=".5px"/>
  <path d="m122.63 79.152-4.2386 0.27398-2.3842-0.27398-9.8018-2.4658-1.3246-0.82194-2.914 0.27398-2.1193-1.9179-1.0597-0.54796-4.5036-1.3699 0.79475-4.1097-0.26492-1.0959-1.8544-2.7398-1.0597-3.8357-4.2386-3.8357" stroke-width=".5px"/>
  <path d="m117.95 188.81-1.1151-2.3417-0.66906-0.44604-0.78058-1.6727-1.4496-1.0036 0.1115-0.44603 0.44605-1.1151-0.66906-0.66906v-0.55755l0.44604-0.44605v-0.66906l-0.89208-1.1151-0.66908-4.4604-0.33452-0.66907 0.11151-1.5611v-0.44606l-6.0216-7.6942-0.44604-1.2266-7.1367-5.3525-1.2266-0.44604-2.4532-2.6763-2.6763-1.0036-0.78058 0.44604h-1.0036l-0.33454-0.22302-1.8957-0.89208-1.0036-0.11151h-0.66906l-1.0036 0.22302-0.89209-0.22302-0.89209-0.55756-0.11151-0.44603-0.78058-0.22304-2.7878-3.1223-2.6763-2.0072-6.1331-4.9065-1.6727-1.1151-0.55755-0.55756-1.3381-0.66906-1.1151-1.0036-1.4642-1.2654-0.33696-0.75815-0.58967-0.75815" stroke-width=".5px"/>
  <path d="m122.63 79.152 3.781 8.3826 0.63016 0.4089 1.0503 3.6802 1.0503 2.249 3.3882 4.764 0.95502 2.6338 0.63671 1.0845 2.2284 2.9436 1.1142 1.8591 0.47753 1.2394-0.47753 1.2394 0.63671 2.4788 0.95502 0.92958 3.5018 2.7887v3.5633l-0.47749 2.4788-0.47753 2.9436v0.92957l3.1834 4.183 2.2284 2.4789 0.15918 2.3239 2.5467 2.0141 2.5468 0.6197" stroke-width=".5px"/>
 </g>
 <g fill-rule="evenodd" stroke-width=".30529">
  <circle cx="11.245" cy="189.69" r="2.0458"/>
  <circle cx="118.31" cy="189.28" r="2.0458"/>
  <circle cx="122.95" cy="80.175" r="2.0458"/>
  <circle cx="165.77" cy="72.537" r="2.0458"/>
  <circle cx="89.94" cy="40.623" r="2.0458"/>
  <circle cx="152.68" cy="137.73" r="2.0458"/>
  <circle cx="64.572" cy="135.27" r="2.0458"/>
 </g>
 <g font-family="sans-serif" font-size="3.5278px" letter-spacing="0px" stroke-width=".26459" word-spacing="0px">
  <text x="-0.34762037" y="184.37376" style="line-height:1.25" xml:space="preserve"><tspan x="-0.34762037" y="184.37376" stroke-width=".26459">Mumbai</tspan></text>
  <text x="55.570538" y="128.72838" style="line-height:1.25" xml:space="preserve"><tspan x="55.570538" y="128.72838" stroke-width=".26459">Nashik</tspan></text>
  <text x="158.95094" y="139.36647" style="line-height:1.25" xml:space="preserve"><tspan x="158.95094" y="139.36647" stroke-width=".26459">Aurangabad</tspan></text>
  <text x="173.6806" y="72.264687" style="line-height:1.25" xml:space="preserve"><tspan x="173.6806" y="72.264687" stroke-width=".26459">Jalgaon</tspan></text>
  <text x="115.58027" y="73.901321" style="line-height:1.25" xml:space="preserve"><tspan x="115.58027" y="73.901321" stroke-width=".26459">Dhule</tspan></text>
  <text x="122.9451" y="188.73811" style="line-height:1.25" xml:space="preserve"><tspan x="122.9451" y="188.73811" stroke-width=".26459">Ahmednagar</tspan></text>
  <text x="94.84964" y="39.804874" style="line-height:1.25" xml:space="preserve"><tspan x="94.84964" y="39.804874" stroke-width=".26459">Nandurbar</tspan></text>
 </g>
 <path d="m160.21 27.496 0.35403 1.7702 6.0187 2.7143 0.11795 0.9441-0.70807 1.2981-1.8882 1.4162-1.1801 0.59006-1.8882-0.23603-1.2981 0.35404-0.35404 1.1801 0.9441 1.5342 2.2422 2.1242 0.35403 1.5342-0.59006 0.82609-0.59006 0.35404h-1.2982l-1.6522-0.11801-1.1801-0.11801-1.1801 0.47205-0.8261 0.82609-0.9441 0.70808-1.5342 0.59006-0.9441 0.47205h-1.0621l-1.4162-0.47205-0.35404-0.59006-0.59006 1.6522 1.2982 1.1801 1.6522 0.35404 1.6522 0.11801 2.8323-0.59007 2.0062-0.47205 2.3603-0.47205 2.2422-0.35404 1.6522 0.11801h1.2981l1.0621 0.70808 1.0621 1.4162 3.0683 1.5342 1.2982-0.70807v-0.35405l0.9441-0.11801h2.0062l1.5342-0.11801 2.4783 0.35404 2.9503 0.9441 2.5963 0.47205 2.7143 0.47205h1.7702l2.1242-0.35404 1.7702-0.11801h2.4783l1.6522-1.4162 1.6522-1.8882 0.70809-0.23603 1.0621 0.11801 2.3603-0.11801 1.6522-0.11801 2.0062-0.59006 1.0621-0.47205 5.4286-3.3044 6.1367-4.1305 0.11795-1.8882-0.11795-1.0621-0.35406-0.59006-1.2981-1.0621-1.2982-0.11801-2.7143-0.11801-2.2422-0.35404-1.5342-0.23602h-1.7702l-2.8323-0.35404-2.5963 0.23603-2.0062 0.59007h-1.2982l-1.7702-0.23603-1.7702-0.23602-2.0062-0.35404-1.7702-0.11801-1.4162-0.11801-2.3603-0.47205-2.7143-0.11801-3.3044 0.82609-1.8882 0.47205-1.4162 0.59007-1.6522 0.47205-1.8882 0.70808-2.2422 0.70807h-0.9441l-0.23604-4.1305v-3.1864l-0.47205-0.47205-2.9503-0.23603-2.8323-0.59007-1.8882-0.35404-1.5342-0.23603-0.9441-0.11801-0.47206 0.11801z" fill="green" stroke="none" stroke-width=".37646px"/>
 <path transform="matrix(.26459 0 0 .26459 -.001819 0)" d="m772.54 177.43c-0.66-0.24714-4.181-2.1987-7.8246-4.3368-6.4267-3.7714-6.809-3.8857-12.8-3.826-3.3965 0.0338-7.6154 0.50766-9.3754 1.053-2.2022 0.68235-4.0731 0.75893-6 0.2456-4.0306-1.0738-19.717-0.1555-23.898 1.3989-2.7452 1.0207-4.0545 1.1168-6.0848 0.44674-1.8622-0.61457-3.2356-0.60213-4.9022 0.0444-2.8409 1.1021-10.964 0.39843-16.169-1.4006-7.5711-2.617-9.7346-2.6871-15.241-0.49365-3.9807 1.5858-5.9046 1.9233-8.8 1.5438-9.4278-1.2358-13.516-2.0304-16.106-3.1309-4.3739-1.8585-9.2294-2.4234-11.301-1.3147-2.344 1.2544-8.4062 1.2362-15.564-0.0468l-5.6654-1.0154 1.9452-2.0959c1.662-1.7909 1.8768-2.62 1.4756-5.6959-0.40394-3.0969-1.126-4.2149-5.1666-8-5.6995-5.3391-7.6202-8.309-6.992-10.812 0.55963-2.2298 3.8527-3.1682 8.4134-2.3977 3.4154 0.57702 5.9266-0.40744 11.889-4.6606 4.381-3.1253 6.7476-6.9085 6.4189-10.261-0.24319-2.4808-0.66018-2.7582-11.612-7.725-10.127-4.593-11.414-5.3988-11.859-7.4284-0.275-1.2521-0.27208-2.6452 6e-3 -3.096 0.82015-1.327 6.5374-0.91797 17.212 1.2315 5.5 1.1075 12.968 2.3367 16.596 2.7317 3.6279 0.39494 6.9579 0.94165 7.4 1.2149 0.47331 0.29253 0.80388 4.8726 0.80388 11.138 0 14.645 0.52292 18.064 2.7626 18.064 0.9598 0 7.6609-2.0186 14.891-4.4857 7.2304-2.4672 17.646-5.72 23.146-7.2286 10.829-2.9702 16.804-3.2246 29.2-1.2432 3.08 0.49234 12.8 1.8256 21.6 2.9629l16 2.0677 6.4-1.693c5.6434-1.4929 7.724-1.6334 17.6-1.1884 6.16 0.27752 14.44 0.99104 18.4 1.5856 3.96 0.59456 10.8 1.3251 15.2 1.6235 7.4898 0.50791 8.1634 0.6987 10.563 2.992 2.9501 2.8194 3.799 5.697 3.0275 10.263-0.52348 3.0984-0.99106 3.52-12.267 11.061-14.123 9.4454-29.364 18.834-33.961 20.921-3.292 1.4945-6.9696 1.8818-9.3622 0.98591z" fill="green" fill-rule="evenodd" stroke-width=".8"/>
 <text x="170.39204" y="40.69553" fill="#000000" font-family="sans-serif" font-size="3.5278px" letter-spacing="0px" stroke-width=".26459" word-spacing="0px" style="line-height:1.25" xml:space="preserve"><tspan x="170.39204" y="40.69553" fill="#fff" stroke-width=".26459">Yawal wildlife sanctuary</tspan></text>
</svg>
