<svg viewBox="0 0 305.82738 169.59664" xmlns="http://www.w3.org/2000/svg">
 <g transform="translate(97.207 -84.703)" stroke="#fff">
  <path id="Aurangabad" d="m19.02 108.12 0.77184-0.86648 0.44817-0.52451 0.56933-0.29214 0.5212-0.67888 0.25229-0.97105 0.67557-0.71207 0.32532-0.10277 0.94282 0.52289 0.69881 0.52451 0.4465 0.10277 1.293-0.73863 0.79675-0.4731 1.0159-0.89135 0.27552-0.57598 0.02507-0.7403 0.04813-0.62577 0.42326-0.26558 0.94282-0.99593 0.098-0.9445 0.27552-1.5719 1.22-1.288 1.0656-0.60253 0.82164-0.36852 0.7486-0.4714 0.56933-0.79009 0.30044-0.62579 0.42326-0.67889 0.30044-0.84156 0.59259-0.62577 1.147-0.3685 0.37347-0.02658 0.51953 0.12936 0.54447-0.21416 0.49629-0.47306 0.54447-0.15443 0.54442 0.26558 0.84488 0.05316 0.47138-0.37016h1.1221l0.64238 0.52454 0.19586 0.60088 0.2772 1.288 0.47141 0.7403 0.51953 0.7121 0.79676 0.12785 0.67557 0.10454 0.17098-0.67889 0.19586-0.71207 0.39838-1.0225 0.2191-0.52287 0.89467 0.52287 0.74861 0.49798 0.54442 0.18101 0.61747 0.31702 0.22741-0.10277 0.2772-0.84153 0.19422-0.76524 0.5212-1.2349 0.39838-0.7652 1.391-0.26561 0.8449-0.07796 0.59424 0.20758 0.56933-0.05139 0.51953-0.3187 0.30043-0.42161 0.4465-0.57432 0.99261 0.10277 0.72369-0.67889 0.25227-0.42161 0.42326-0.52289 0.3735-0.79009 0.4465-0.05138 0.82164 0.10454 0.14607 0.41998v0.89303l0.42159 0.7901 0.49629 0.57598 0.77184 0.47304 0.89467 0.02528 0.25232 0.34363 0.91791 0.89301 0.56933 0.44648 0.49632 0.44654 0.37347 0.44649 1.0905 0.49798h0.77184l0.37347-0.29214 0.67557-0.81501-0.02329-0.37019 0.12116-0.57595 0.04815-0.4714 0.51955-0.74029 0.39838-0.21416 0.42326 0.05138 0.42326 0.57595 0.07306 0.31705 0.44817 0.94613 0.37349 0.79009 0.47138 0.49795-0.39837 1.6566v0.84156l-0.67557 1.288 0.35023 2.3869-0.79675 2.1031-2.2359 1.4159-2.4633 1.9155-0.4465 2.0184-0.56933 3.1788-0.56933 3.3314-0.99261 4.7225-0.12116 2.6026 0.12116 4.148-0.35023 0.47144-0.77184 0.81667-0.89467 2.2591-0.12116 1.6831-1.5686 3.6501-1.5686 2.6026-0.35023 3.3048-0.67557 3.2036 1.0159 2.6276 0.22741 2.2326-0.67557 1.786v1.1835l0.67557 4.1481-1.2449 3.0742-1.8856 1.547-0.86976-0.31866-1.0972-0.52455-0.49629-0.12936-0.47141-0.21416-1.0407 0.24074-0.44653-1.2631-0.35023-0.181-0.84488-0.65235-0.79675-0.10277-0.54444 0.15442-0.61747 0.10277-0.54444-0.10277-0.82164-0.26555-0.39838-0.21418-0.54444-0.37015-0.69881-0.60087-0.54444-0.71209-0.59427-0.7901-0.6739-0.86645-0.7237-0.71377-0.61748-0.47306-1.0972-0.36847-1.3412-0.20581-0.84488-0.29218-0.51956-0.2921-1.3412-0.47308-0.86978-0.26556-0.99094-0.26725-0.69881-0.10277-0.69881-0.37016-0.7486-0.91789-1.0656-0.71209-0.82164-0.84159-0.79673-0.67885-0.84488-0.39505-0.89467-0.24075-0.67557-0.21417-1.0407-0.20582-0.64238 0.078-0.49629 0.12783-0.64238 0.10455-0.79674-0.31868-0.9677-0.47139-0.35023-0.21417-1.0159-0.57433-1.3412-0.4216-1.0159-0.20582h-1.796l-0.69881-0.0516h-0.56933l-1.064-0.15442-0.9677-0.18101-0.77184-0.34361-0.47141-0.15443-0.59423-0.37013-0.91791-0.67721-0.39835 0.31702-0.7486 0.15443-0.64238 0.41998-0.32535 0.31703-0.39838-0.99591 0.39838-1.0989 0.2772-0.57431 0.49629-0.29214-0.14607-0.54942-0.91791-0.31704-0.56933-0.0514-1.0407-0.078-0.34858-0.0266-1.2681-0.6772-0.17098-0.60253-0.17098-1.2881-0.61747-0.15442h-0.9428l-0.37349-0.21417-0.22741 0.29217-0.49629-1.2615-0.19589-0.5494-0.30043-0.62745 0.27552-0.67723 1.1221-0.76522 0.9677-0.73865 0.67557-1.6582-0.097998-0.99588 0.025067-1.152 0.56933-0.52451 0.61747-0.89135 0.4465-1.3395 0.025067-1.5719 0.048101-0.67723 0.61747-1.2881 0.56933-0.89301 0.32534-1.6317 0.097998-1.1586-0.073062-0.79012 0.025067-0.36847 0.12116-1.3644-0.025067-0.62741 0.25232-1.2101 0.32532-0.36849 0.82164-0.15443 0.56932-0.078 0.4465-1.21 0.47141-0.84156 0.47141-0.42163 0.79673-0.54942 0.30043-0.21417 0.54444 0.10277 0.32532 0.20759 0.30043-0.0532 0.61747 0.15443 0.82164 0.94444 0.22741 0.6258 0.42326 0.99591 0.56933 0.79014 0.61748 0.37012 0.61747 0.79011 0.42329 0.7901 0.89467 0.62577-0.19422-1.0723-0.30043-1.2881-0.07306-0.73701 0.59424-1.0988z" fill="#c2b0c2" />
  <path id="Jalna" d="m71.741 91.029 0.12116 0.12936 0.84487 0.4216 0.64239-0.36849 0.07304-0.37016 0.2772-0.91791 0.32534-0.71207 0.30044-0.62744 0.61747-0.52287 0.35023-0.15443 0.99097-0.31705 0.2772-0.15442 0.77184-0.20581 0.39835-0.31705 0.47141-0.26558 0.2772 0.12936 0.49629 0.96938 0.39838 0.94448-0.39838 0.68055-0.14607 0.86644-0.32534 0.65233-0.54442 0.6789-0.8449 0.47142-0.79672 0.57595-0.77185 0.76522-0.54444 0.76354-0.44651 0.89302-0.098 1.1586-0.22741 0.73863-0.49629 0.71375-0.32534 1.288-0.17096 0.7121-0.30043 0.97103-0.34858 1.2632 0.02507 0.99591v0.737l0.47139 1.2615 0.37349 0.4714 0.5212 0.36852 0.64239 0.0532 0.69881-0.31704 0.42326-0.31869 1.0656 0.0266 0.56935 0.10277 0.54442 0.24074 0.89467 0.31872 0.72372-0.15442 0.54442-0.49795 0.25232-0.44652 0.32534-0.84156 0.19421-0.3187 0.42326-0.36848h0.54441l0.67394 0.15442 0.5212 0.84156 0.54444 0.47307 0.32532 0.47142 0.64238 0.15443 1.0407 0.4216 0.61746 0.31869 0.30044 0.62578-0.04808 0.62742-0.30043 0.47309-0.42326 0.67721-0.32535 0.34359 0.09804 0.84156-0.02504 0.71209-0.09793 0.62745-0.30043 0.73865-0.54445 0.65233-0.61747 0.815-0.30043 0.37014-0.54441 0.76354-0.44651 0.67891-0.4465 0.84154-0.51954 0.71376-0.79674 1.074-0.67557 0.65231-0.56933 0.57598-0.39838 0.20581-0.61747 0.52451-0.64238 0.52289 0.32534 0.57431 0.39837 0.3436 0.07306 0.815-0.4465 0.67889-0.54444 0.76354 0.22741 0.34358 0.7237 0.4731 0.72372 0.34355 0.89467 0.29049 1.1221 0.26559 0.86978 0.42161 0.49632 0.41995 0.39837 0.57598 0.09793 0.62744 0.09627 1.0988-0.12116 0.79013 0.17099 0.31872 0.37348 0.52283 0.30043 0.26724 0.22741 0.10277 0.56933-0.52289 0.54442-0.84155 0.22741 0.26725 0.14606 0.73865 0.25232 0.84156 0.67557 0.31703 1.147-0.893 0.2772-0.31706 0.7237-0.44815 0.91957-0.12785 0.96771-0.10277 0.51956-0.24074 0.86976-0.12936 0.4963-0.0762 1.22-0.12937 0.30043-0.0514 1.0159 0.26558 0.51952-0.0762 0.54447 0.0514 1.147-0.181-0.64239 0.37019-0.12278 0.3187 0.25232 0.62576 0.17098 0.62577-0.51956 0.57595-0.47141 0.26727-0.54444 0.42159-0.02504 0.52287 0.19589 1.0225-0.07312 1.3395-0.72371 0.94448h-0.47142l-0.59423 0.0514-0.74861 0.0266-1.1951-0.078-0.6988-0.10277-0.89467 0.10277-0.4465 0.18101-0.32535 0.54942 0.07312 0.52286 0.2772 0.57598 0.39835 0.73865 0.35022 0.5743 0.39837 0.99594 0.073 0.74029-0.34858 1.0723-1.1221 0.71375-0.59424-0.3187-0.19422-1.1503-0.30043-1.1852-0.47141-0.34358-0.77184 0.4216-0.30043 1.1503 0.39837 1.21 0.39837 0.99426 0.30043 0.73865-0.56933 1.7595-0.04808 0.24075-0.07312 0.57597 0.25232 0.57434 0.42325 0.9959 0.44651 0.67724 0.27719 0.79009-0.09793 0.89301-0.2523 0.71212-0.07312 0.52284 0.0482 0.94449-0.07312 0.84156-0.39837 1.2366-0.74861 0.84155-0.25232 0.73866 0.09804 0.81665v1.2881l0.17098 1.3644-0.02504 1.2632 0.04808 1.4673-0.4963-0.73864-0.47141-0.21416-0.54445-0.12936-0.56932-0.12936-0.39838-0.10277-0.59423-0.21417-0.72373-0.0514-0.51952 0.31703-0.84656 0.57433-0.94281 0.62743-0.61748 0.10455-0.69881-0.15594-0.30044-0.576-0.27722-0.73865-0.19419-0.60087-0.14607-0.34361-0.79675-0.21569-0.47141 0.078-0.94279 0.15443-0.91958 0.7652-0.64239 0.42161-0.77184 0.31702-0.59259 0.0514-0.82164-0.15443-0.99261-0.36849-0.54444-0.65403-0.07306-0.17922v-0.73866l0.19589-0.37014 0.12116-0.52453 0.21911-0.52287 0.34858-0.47304 0.02507-0.6258-0.42326-0.31866-0.9179-0.29214-0.84488 0.0514-0.47141 0.15443-0.91791 0.0762-0.99261-0.23062-0.64238-0.24074-0.89467-0.41997-1.0159-0.21416-0.61747 0.24074-0.67557 0.60089-0.35023 0.15443-0.64239 0.47304-0.69881 0.67889-0.89467 0.57597-1.147 0.29215-0.7486-0.0762-0.64238-0.0764-0.7237-0.12783-1.6184-0.47308-1.4391-0.36848-0.14607-0.0514 1.8856-1.5454 1.2449-3.0742-0.67557-4.1463v-1.1851l0.67557-1.786-0.22741-2.2325-1.0158-2.6277 0.67557-3.2018 0.35023-3.3064 1.5686-2.6011 1.5686-3.6501 0.12116-1.6831 0.89467-2.2574 0.77184-0.81666 0.35023-0.4714-0.12116-4.148 0.12116-2.6026 0.99261-4.724 0.56932-3.3314 0.56933-3.177 0.4465-2.0184 2.4633-1.9138 2.2359-1.4159 0.79673-2.1047-0.35023-2.3869 0.67558-1.2881v-0.84154z" fill="#c2f0c2" />
  <path id="Nanded" d="m160.23 137.3 0.82165 0.181 1.0407-0.0266 0.9677 0.31703 0.89471 0.21416 0.74857 0.57598 0.56936 0.47142 0.82164 0.67889 0.77187 0.41993 0.96767 0.37016 0.69882-0.10454 0.79674 0.26725 0.64239 0.31703 0.37345 0.41996 0.27722 0.49795-0.21923 0.86647-0.17089 0.62743-0.0731 0.76522 0.0253 0.20582 0.32535 0.39505 0.7237 0.47304h0.49632l0.59422-0.0266 0.69881 0.12785 0.30044-0.0514 0.42328 0.10277 0.52122 0.49797 0.21923 0.44651-0.0253 0.26559 0.21923 1.0208 0.19595 0.49793 0.67557 0.81665 0.44651 0.39508 0.37348 1.1254-0.35025 0.23898-0.51955 0.18099-0.59422 0.12785-0.52119-0.0514-0.72372 0.0514-0.51955 0.10277-0.44816 0.31702-0.32534 0.67891 0.0481 0.62743 0.27556 0.47142 0.61747 0.65232 1.0159-0.29216 0.84487 0.10454 0.37346 0.0253 0.67389-0.12936 0.77187-0.15443 0.69881-0.10277 0.69881-0.15595 0.72371-0.37013 0.22734-0.3685 0.30044-0.4216 0.22734-0.84156 0.0481-0.41996-0.0253-0.52451 0.0979-0.67724 0.42325-0.52453 0.37351-0.26556 0.44816-0.15443 0.77181-0.26725 0.77187-0.10277 0.67554 0.10277 0.74866 0.24074 0.44648 0.15443 0.42328 0.41999 0.44816 0.41993 0.4963 0.42162 0.79673 0.55108 0.35024 0.31701 0.82167 0.42161 0.44648 0.10277 0.54446-0.26558 0.54444-0.73865 0.27553-0.37014 0.22733-0.10277 0.47139-0.18101 0.77185 0.12936 0.86976 0.15443h0.47143l0.84489-0.15443 0.54442 0.21417 0.74863-0.7901 0.44815-0.42162 0.34857-0.79009 0.84488-1.2366 0.35026-0.39504 0.44649-0.26558 0.91958-0.57434 0.59423-0.52615 0.2524-0.52289 0.17087-0.73863 0.25241-0.52452-0.14608-0.91793-0.27715-0.5494-0.37351-1.3146-0.44648-0.37013-0.69883-0.12785-0.7237-0.24075-0.94282 0.0514-0.74861 0.15443-0.72371 0.10277-0.67392 0.31699h-0.89465l-0.96773-0.2672-0.89467-0.52289-0.67557-0.47304-0.82164-0.36853-0.70048 0.0266-1.0656-0.29211-1.0158-0.21418-1.4142-0.20581-0.89467-0.41998-0.82166-0.10454-0.84653-0.42161-0.84488-0.57597-0.94279-1.0457-0.14607-0.71207-0.32533-1.074-0.25239-1.21 0.27721-0.73862 0.56933-0.84159 0.91957-0.94444 0.94282-1.2632 0.86978-0.62742 1.0408-0.7901 1.0407-0.10454 1.0656-0.31704 0.86979-0.26556 0.51953 0.15442 0.61748-0.0764 0.54444-0.0764 0.74863-0.26555 0.52117-0.10455 1.147 0.31868 1.0159 0.57432 0.72369 0.31703 0.61747 0.44651 0.96773-0.29214 0.61748-0.52286 0.59422-0.47143 0.99261-0.15594 0.67555 0.10454 0.82163 0.31703h0.56938l0.4714-0.0514 0.67559-0.52451 0.69881-0.26559 0.72369-0.34361 0.21923 0.44652-0.14607 0.73865-0.64238 0.36847-0.0731 0.79013-0.0481 0.62743 0.82166 0.0514 0.77184 0.12936 0.64236-0.181 0.4465-0.36849 0.52121-0.84156 0.32532-0.62744 0.44818-0.3187 0.39837-0.12936 0.79673 0.47306 0.3735 0.54942 0.37345 0.47143 0.47142 0.52451 0.0253 1.1503-0.30044-0.97103-0.39839-0.20581-0.21923-0.34361-0.22733-0.15441-0.49628-0.15443-0.2524 0.10277-0.37347 0.21416-0.19595 0.15443-0.12277 0.76354 0.0979 0.36849 0.3004 0.44816 0.6175 0.60087 0.56934 0.44653 0.77184 0.52451 0.64235 0.84156 0.27556 1.1603-0.19417 0.60089-0.64237 0.49793-0.64239 0.84158-0.14606 0.4714 0.0253 0.57598-0.19594 0.74029-0.3984 0.62578-0.44813 0.26725-0.89469 0.10277-0.47144 0.20581v0.41996l-0.0729 0.5494 0.30044 0.71377-0.14606 0.67885-0.17088 0.65236-0.0481 0.60089-0.3253 0.94449 0.64238 0.91953 0.0481 0.6789 0.2524 0.18101 0.19417 0.52287-0.94279 0.44648-0.91795 0.24076-0.12278 0.73867 0.54444 0.7901 0.0481 0.99591 0.0731 0.49796 0.21923 0.71209 0.34857 0.84323 0.0481 0.57431-0.77185 0.7901-0.79675 0.79009-0.42328 0.12936-0.44815-0.15443-0.79673-0.181-0.67562 0.3685-0.0729 0.73864-0.3253 0.65233-0.2524 0.12785-0.25239-0.3187-0.2772-0.52287h-0.32534l-0.17088 0.20582-0.34859 0.84156-0.17087 0.65236-0.12127 0.67885-0.22733 0.76524-0.0253 0.83989-0.14607 1.1337-0.0979 0.81668-0.0481 1.21 0.30045 0.89303 0.0253 0.79009-0.17089 0.34359-0.35023 0.54942-0.79676 0.4714-0.64235 0.0762-0.67393 0.0266-0.47142 0.3187-0.39834 0.3187-0.49633-0.42161-0.82164-0.4714-0.21923-0.36848-0.77184-0.26727-0.54444 0.10277-0.12126 0.62747-0.21923 0.37014-0.19417 0.37017-0.17088 0.23239-0.30044-0.0514-0.27718-0.39505-0.2524-0.654 0.0731-0.44649-0.0979-0.52286-0.35023-0.65233-0.14607-0.47307-0.74858-0.47142-0.37348-0.34359-0.61749-0.24074-1.7396-0.44655-0.56934-0.10123-1.1951-0.20759-0.39838 0.15443-0.89467 0.0514-0.79673 0.10123-0.64238 0.49798-0.27721 0.4465-0.0253 0.26558 0.49629 0.52453 0.37351 0.52451 0.32532 0.29214-0.14607 0.60089-0.42327 0.55107-0.37348 0.60089-0.79676 0.62741-0.64238 0.55109-0.17088 0.34194-0.0979 0.37016 0.14607 0.20581 0.30044 0.67892 0.14608 0.15442 0.12126 0.97104-0.30045 0.39338-0.51952 0.81667-0.0731 0.44652 0.0253 0.29212-0.0731 0.89302 0.0481 0.31705v0.65234l-0.49631 0.0762-0.74857 0.18101-0.72374-0.15443-0.64239-0.15594-0.35021 0.67891-0.0481 0.36849-0.0731 0.4714-0.0253 0.5245-0.12126 0.47144-0.44649-0.24076-0.56934-0.23897-0.59256 0.7901-0.14607 0.67723-0.12278 0.576-0.14608 0.62742-0.42327 0.57433 0.17088 0.86811 0.0979 0.65234 0.49625 0.42159 0.32539-0.0266 0.77184 0.0266h0.59423l0.49631 0.54942 0.30042 0.5494 0.2772 0.0498 0.64237 0.15443 0.7237-0.10277 0.54446 0.31702 0.34857 0.67891-0.0228 0.84154 0.0228 0.57432 0.32535 0.29214 0.30041 0.12936 0.59427 0.24076 0.52119 0.15443 0.52119 0.0762 0.30044-0.17924 0.22734-0.29214 0.35021 0.10277 0.51955 0.36853 0.44818 0.15442 0.37349 0.6789 0.52116 0.99591 0.22734 0.34361 1.1951 1.6067-0.30044 0.41997-0.49629 0.39504-0.35026 0.21569-0.4714 0.10277-0.56932 0.0253-0.84655 0.0762-0.56934-0.0253h-0.49631l-0.77182-0.0514-0.52121 0.10454-0.64239 0.52453-0.52119 0.3685-0.52122 0.79009-0.0731 0.84157-0.59423 0.94446-0.5212 0.67889-0.21898 0.76356-0.49631 0.81665-0.30044 0.15441-0.32532 0.15443-0.42325 0.20759-0.52123 0.31705-0.6988 0.20581-0.61747 0.26559-0.59423 0.54942-0.54446 0.81665-0.0253 0.60087 0.0253 0.62576-0.0481 0.73865 0.0481 0.62745 0.0979 0.76521 0.12278 0.73863 0.0481 0.52287 0.25239 0.54944-0.35021 0.29211-0.56936 0.44818-0.61748 0.29212-0.89467 0.26559-0.30042 0.26722-0.22732 0.15443-0.21924-0.4714-0.7486-0.62742-0.49629-0.99593-0.47142-0.20581-0.56933 0.0266-0.34858 0.34358-0.22733 0.15442-0.0253 0.31869-0.19594 0.84157-0.22733 0.7121 0.0253 0.52453-0.0481 0.86644-0.49632 0.84157-0.67554 0.57597-0.51957-0.54942-0.56932-0.181-0.12126 0.4216 0.0253 0.4731 0.32535 0.62741 0.35022 0.34359-0.0731 0.62576-0.4963 0.20582-0.49631-0.078-0.34858 0.0266-0.0481 0.34359v0.42162l-0.19594 0.62744v0.79007l-0.56935 0.57598-0.61749 0.26725-0.35022 0.17923 0.14608 0.5494 0.27719 0.498 0.44817 0.36848 0.84487 0.47306 0.59424 0.49796 0.47141 0.41998-0.30044 0.89298-0.5212 0.47142-0.25239 0.44648 0.0253 0.99595 0.0731 0.29214 0.0731 1.1852-0.37345-0.815-0.37349-0.10277-0.39837-0.15443-0.32533-0.37016-0.32534-0.52284-0.39837-0.67891-0.35023-0.10277-0.64239 0.20582-0.14606 0.42163-0.2524 0.62742-0.19594 0.6789-0.64236 0.67889-0.37349 0.26559-0.77182-0.10278-0.89469-0.0762-0.51954-0.26723-0.32534-0.54944 0.12125-0.31703 0.22734-1.049 0.30046-0.52287 0.0481-0.57433-0.67557-0.34358h-0.59424l-0.32534 0.39505-0.4465 0.3436-0.54445 0.42161-0.22732 0.23239h-0.3735l-0.82161-0.078-0.32534-0.12784-0.42326-0.67889-0.14608-0.47304v-0.71209l0.0253-0.67725 0.14608-0.39504 0.0481-0.57431 0.30044-0.99593-0.0253-1.0225-0.14608-0.81501-0.39837-0.47304-0.56935-0.10277-0.0731-0.31703 0.12126-0.57597 0.0731-0.84157-0.0481-0.57597-0.17087-1.152-0.37346-0.57432-0.32535-0.26558-0.52121 0.20581-0.47141 0.31699-0.69878 0.39508-0.69881 0.23898-0.54445-0.15442-0.32533-0.3685-0.14608-0.52453-0.14606-0.54943 0.0979-0.73865-0.51954-0.4465-0.47139 0.12936-0.39837-0.29212-0.0979-0.26726 0.12278-0.62744 0.37346-0.36849 0.39835-0.52287 0.64239-0.73863 0.59424-0.79009 0.17087-0.52453v-0.60089l-0.37348-0.5743-0.54445-0.91959-1.0656-0.31705-0.47141-0.37014-0.77185-0.67721-0.5212-0.99593-0.82163-0.10277-0.77185-0.0266-1.318 0.47304-0.82163 0.0253-0.42326-0.10277 0.2524-0.86814 0.49629-0.91789 0.59424-0.31869 0.32534-0.34361 0.79675-0.76354-0.0979-0.57598-1.4142-0.52451-0.89467-0.0514-1.0408 0.23897-0.47141 0.60086-1.1221-0.0514-0.64236 0.26556-0.77185 0.26559-0.77184 0.15442-0.84491 0.0514-0.44649-0.52289 0.0481-0.81665 0.12126-0.65232 0.0731-0.67725-0.32534-0.89299-0.47141-0.31708-0.79674-0.24076-0.54443-0.76354-0.4963-0.57429-0.0731-0.73867-0.44817-0.31869-0.14607-0.60088 0.64238-0.49795 0.32533-0.42161 0.14606-0.20581 0.37347-0.26723 0.32535-0.7901 0.22732-0.36852 0.37347-0.52284-0.0979-0.91957-0.67557-0.2905-0.2772-0.10454-0.67558 0.20581-0.4714 0.10454h-0.67558l-0.82164 0.26559-0.54441 0.26722-0.69884 0.15443-0.61748-0.10277-0.14606-0.24075 0.0731-0.57598 0.72373-0.49795 0.84488-0.4714 0.56933-0.0516 0.84489-0.15443 0.47139 0.0514 0.27718-0.078 0.37351-0.41997 0.32531-0.24226 0.34858-0.36849 0.59424 0.0266 0.54444 0.078 0.32532-1.2117 0.12126-0.65402 0.49631-0.86648 0.0253-0.81665-0.0253-0.67887 0.0253-0.54943 0.0481-0.79009-0.0253-0.67889 0.4963-0.41995 0.84487-0.62578 0.74861-0.31872 0.44816-0.20582 0.51956 0.0253 0.35023 0.29214 0.59424-0.57597 0.59423-0.576 0.64236-0.67888 0.25239-0.31705 0.72372-0.97101 0.61748-0.86646 0.32534-0.99595-0.39837-0.0762 0.7237-1.4939 0.21923-1.5437 0.37514-1.7097 0.25239-0.79012 0.64238-0.6025 0.56933-0.57436 0.5212-0.39502 0.61748-0.62744 0.72371-0.52287 0.61748-0.57598 0.17088-0.44651 0.47141-0.60089 0.77185-0.79009 0.49631-0.15443 0.47141-0.21416 0.47141-0.42159 0.2772-0.576 0.35022-0.29214 0.54445 0.18101 0.2772 0.39507 0.30043 0.60086 0.56935 0.44652 0.59423-0.34361 0.77185-0.57595 0.7237-0.31872 0.39837-0.15443 0.49629-0.26558 0.49632-0.21417 0.67557-0.0514 0.19418-0.42161 0.0481-0.84156-0.0253-0.7901 0.19416-0.73698 0.22734-0.74029 0.64238-0.65234 0.54444-0.12936 1.0407-0.42163 0.67557-0.3436 0.64239-0.24075 0.30043-0.71207-0.0481-0.57598-0.0498-0.44649 0.0253-0.94447-0.0731-0.47309-0.32533-0.8399-0.0481-0.62744 0.25239-0.36846 0.25237-0.49798 0.0253-0.62742-0.0481-0.49795-0.21899-0.73868-0.17088-0.71207 0.0731-1.0225-0.12278-0.57597-0.19417-0.84157z" fill="#b2c0b2" />
  <path id="Beed" d="m50.788 156.27 1.0407-0.24074 0.47141 0.21416 0.49629 0.12785 1.0972 0.52451 0.86979 0.31706 0.14607 0.0514 1.4391 0.36849 1.6184 0.47143 0.72372 0.12784 0.64238 0.0762 0.7486 0.078 1.147-0.29216 0.89467-0.5743 0.69881-0.67725 0.64239-0.47306 0.35023-0.15443 0.67557-0.60085 0.61748-0.24228 1.0158 0.21417 0.89467 0.4216 0.64239 0.24076 0.99262 0.23239 0.91791-0.0762 0.47141-0.15596 0.84488-0.0514 0.91791 0.29216 0.42326 0.31703-0.02507 0.62744-0.34859 0.47305-0.21913 0.52289-0.12116 0.52287-0.19589 0.3701v0.73868l0.07306 0.17924 0.54444 0.65399 0.99097 0.37016 0.82164 0.15443 0.59424-0.0514 0.77185-0.31705 0.64238-0.42163 0.91958-0.76518 0.94279-0.15443 0.47141-0.0764 0.79675 0.21417 0.14607 0.3436 0.19422 0.60087 0.27719 0.73865 0.30044 0.57431 0.69881 0.15442 0.61748-0.10277 0.94282-0.62745 0.84488-0.57595 0.51956-0.31706 0.72372 0.0514 0.59424 0.21416 0.39837 0.10278 0.56933 0.12936 0.54441 0.12936 0.47141 0.21416 0.4963 0.73866 0.7486-0.55107 0.77184 0.15443 0.89467 0.60086 0.89467 0.42162 0.61747 0.31701 0.79672 0.26725h0.17099l0.4465-0.0514 0.89467-0.31705 1.0158 0.26559 0.59258-0.10277 0.94282 0.31703 0.59423 0.94616 0.34859 0.83986 0.35022 0.52453 0.14608 0.3934 0.17098 0.81666-0.32532 0.62577-0.25232 0.79009-0.4714 0.57598-0.77186 0.89303-0.64238 0.97102-0.64239 0.86814 0.2191 0.41993 0.67557 0.3187h0.42329l0.84488-0.47304 0.61748-0.91791 0.2772-0.0266 1.0407 0.0516 0.51955 0.52284 0.91791 0.86648 0.8698 0.86812 1.0158 0.89299 0.0981 0.26556 0.30043 0.9445v0.67721l-0.098 1.0474 0.025 0.52287 0.25232 0.62744 0.34858 0.34358 1.0407 0.60086 0.54444 0.0514 0.30044 0.31705 0.51955 0.84156 0.59424 0.60089 0.42326 0.0762 0.72372-0.3685 0.25232-0.12785 0.59424-0.47304 0.47141-0.0253 0.12115 0.52286-0.073 0.99593 0.14608 0.62742 0.0981 0.60088 0.42326 0.39506 0.47141 0.10277 0.61746-0.20759 0.37347-0.21418 0.61748 0.0514 0.39838 0.67721-0.0499 0.84156 0.17098 0.52456 0.82166 0.52448 0.17088 0.84157 0.0731 0.79009 0.17088 0.6258 0.14607 0.67886 0.17088 0.26561 0.56932 0.21416 0.5212 0.0514 0.27555-0.10277 0.56933-0.20582 0.56935-0.0514 0.49629 0.15443 0.44817 0.31869 0.79674 0.6258-0.0731 0.18101-0.17087 0.44649-0.12278 0.62742-0.17088 1.3146-0.25239 0.52451-0.79673 0.47142-0.99094 0.47305-0.52119 0.42162-0.19595 0.26556-0.25239 0.67889-0.17088 1.21-0.19594 0.52287-0.32535 0.67893-0.7486 1.0473-0.22741 0.60257-0.0731 0.62577-0.025 0.5245 0.35022 0.44653 0.59424 0.24074 0.82163 0.078 0.91791 0.4216 0.32535 0.52454-0.19417 0.99591-0.35024 1.0988-0.67557 0.67724-0.42326 0.29214-0.54443-0.34361 0.0731-0.76518-0.34858-1.0208-0.47141-0.65236-0.30044-0.0266-0.54445 0.42161 0.025 0.73865v0.67888l-0.39839 1.0988-0.61746 0.60253-1.5686-0.0762-0.84655-0.31869-1.5686 0.0514-0.72373-0.62742-0.91791 0.15443-1.3412-0.0499-1.318-0.67888v-0.44652l-0.12116-0.60088-0.39838-0.41994-1.391-0.37015-0.9677-0.20583-1.293-0.21416-1.8856-0.36849-0.9677-0.0514-2.3089-0.23239-0.82163-0.96938-0.72372-0.47305-0.82163-0.39507-0.61749 0.12936-0.9677 0.576-0.54444 0.26557-0.79673 0.79009-0.94282 0.37016-0.91791-0.15442-0.21913-1.1238-0.32532-0.97104-0.64238-0.57598-0.91959 0.10277-1.3661 0.52453-1.22 0.0514-1.5205-0.21417-1.8126-0.37014-1.3661-0.0498-1.147-0.10454-1.6184-0.99593-0.7486-0.67723-1.1702-0.7901-1.318-0.36852-1.4391-0.20758-1.391-0.10455-1.3412-0.31702-0.77184-0.0514-0.67557-0.26559-0.35023-0.15441-0.86976-0.20582-0.56933 0.0514-0.37346 0.26725-0.82164 0.4714-0.56933 0.10277-0.32532 0.31705h-0.37349l-0.89467-0.15442-0.49629-0.15442h-0.51958l-0.47141 0.10277-0.79675-0.0516-0.72369-0.52452-0.49632-0.37015-0.64239-0.4714-0.47141-0.57434 0.12278-0.31869-0.12278-0.65234-1.1702-0.81497-0.72372-0.52454-0.77349-0.26558-0.51956-0.49796-0.39838 0.12785 0.0481 0.84156-0.0481 0.73865-0.47141 0.89301-0.39838 0.20758-0.42326-0.44652-0.72372-0.60085-0.39838-0.21569-0.79673-0.12785-0.44817-0.078-0.77184 0.20581-0.67557 0.26723-0.49629-0.57596 0.07306-0.84156 0.25229-0.89302-0.25229-0.60253-0.42326-0.17923-0.35023-0.49798 0.12278-0.49797 0.12116-0.94448-0.47139-0.73863-0.27555-0.86812-0.64238-0.44652-0.64239-0.0762-0.54444 0.0762-0.12116 0.73864 0.02507 0.99593-0.19589 1.0988-0.47138 0.73865-0.64239-0.0266-0.99261-0.29214-0.79675-0.42164-0.7237-0.21416-0.74861 0.37013-0.42326 0.62747-0.39838 0.57431-0.6739 0.79009-0.7237 0.60087-0.49632 0.181-1.1951 0.17923-1.0407-0.29211-0.42326-0.12936-0.91791 0.0762-0.54444 0.3187-0.32532 0.34361-0.098 1.0739 0.098 1.0474-0.22741 1.3147-0.64238 0.65233-0.86979-0.39508-0.49629-0.4714-0.84488-0.73865-0.94279-0.91961-0.84488-0.76354-0.67557-0.94446-1.0656-0.99594-0.61748-0.44651-0.61747-0.91959-1.2682-0.31699-1.3661-0.52289-0.86979-0.73865-1.318-0.96939-1.0158-1.1851-0.59424-0.73865-0.5212-0.42163-0.39835-0.94448-0.4465-0.62741-0.72369-1.0474-0.84655-0.576-1.2681-0.31706-0.59423-1.0988-0.69881-1.074-0.17098-0.91791 0.79675-0.9959 1.0407-0.10455 1.147 0.31867 0.9677 0.10278 0.47141 0.31869 0.49632 0.4714 1.0972 0.62747 0.77184-0.36851 0.72372-0.42161 0.42326-0.84154v-1.2632l-0.5212-0.76354-0.89467-0.84156-0.79673-0.86648-0.39838-1.2117-0.02507-0.52284 0.54444-1.2101 0.7237-0.67887 0.91958-0.0499h0.5212l0.89467 0.26558 1.22 0.15443h1.0158l1.0159-0.15443 1.4142-0.21416 1.0407-0.3685 1.1221 0.20581-0.59424 1.0474-0.56933 0.67724-0.49629 0.36849-0.77184 0.12936-0.35023 0.078 0.04812 0.42162 0.79676 0.65233 0.67557 0.44648 0.86976 0.3187h0.91958l0.72372 0.10124 0.86976 0.0266 0.67557 0.44649 1.6665 0.42163 0.25229 0.29211 0.82164 0.49799 0.67557 0.73865 0.89467 0.29214 1.0158 0.29214 0.59424-0.10277 1.147 0.31705 1.3412 0.37016 1.0972-0.31705 0.37347-0.67721-0.0481-0.84156-0.5212-0.73865-0.56933-0.7901-0.91956-0.57601-0.89467-0.12784-0.54444-0.0281-0.37347 0.181-0.37349 0.52289-0.47138 0.36849-0.37347 0.2324-0.4465-0.0266-0.64238-0.34361-0.56933-0.52287-0.59259-0.62742-0.47141-0.86646-0.12116-1.1238 0.67557-0.0514 0.84488 0.20582 0.56933 0.15441 0.54444 0.52287 1.0972 0.26559 0.56933-0.0516 0.84488-0.17923 0.49629-0.39504 0.99261-0.31706h1.318l0.4465-0.26722 1.293 0.29214 0.59259 0.0253 0.56933-0.26559 0.61748-0.12936 0.69881 0.12936 1.1221 0.20581 0.86976-0.0266 0.77184-0.12937 0.72372-0.41993 0.49629-0.26558-0.22741-0.49796-0.7486-0.71374-0.54444 0.0514-0.77184-0.21417-0.79675-0.0516-0.4465-0.31869 0.19589-0.54941 0.37347-0.67891 0.51956-0.42159-0.098-0.67723-0.5212-0.39508-0.72372-0.52283-0.12278-0.41999 0.098-0.86642 0.35023-0.39505 0.61747-0.29217 0.44817-0.12783 0.91791-0.29212 0.67557-0.49798 0.59423-0.71209 0.6739-0.86812 0.44817-0.67889 0.49629-0.84156 0.56933-1.21 0.4465-1.0474 0.07306-0.76521 0.07306-0.49799z" fill="#cc2" />
  <path id="Latur" d="m117.53 189.88 0.30044-0.4714 0.61746-0.94447 0.77185-0.9959 0.84487-0.86648 0.5212-0.24227 0.69882 0.15594 0.74861 0.0514 0.82163 0.15442 0.91791-0.15442 0.56935-0.0514 0.32535-0.15594 0.37346-0.31705 0.17088-0.57598 0.14608-0.36848 0.30043-0.47308 0.6988 0.12937 0.42327 0.29211 0.77184 0.20581 0.67557 0.34361 0.72372 0.18101 0.69881-0.0253 0.54444-0.0266 0.39837-0.0498 0.47139-0.0514 0.51954 0.47139 0.44652 0.31702 0.0731 0.73866 0.49631 0.5743 0.54445 0.76521 0.79672 0.24075 0.47141 0.3187 0.32535 0.89303-0.0731 0.67888-0.12125 0.65233-0.0481 0.81501 0.44816 0.52453 0.84488-0.0514 0.77185-0.15441 0.77348-0.26727 0.64239-0.26722 1.1221 0.0514 0.4714-0.60086 1.0407-0.24227 0.89468 0.0514 1.4142 0.52287 0.0979 0.57595-0.79676 0.76524-0.32531 0.34358-0.59424 0.31705-0.4963 0.91789-0.25239 0.86814 0.42325 0.10454 0.82164-0.0266 1.3179-0.47142 0.77187 0.0253 0.82163 0.10277 0.5212 0.99593 0.77184 0.67891 0.47141 0.36849 1.0656 0.31703 0.54444 0.91791 0.37346 0.57597v0.60253l-0.17087 0.52287-0.59424 0.79012-0.64239 0.73862-0.39835 0.52455-0.37349 0.36846-0.12279 0.62745 0.0979 0.26558 0.39839 0.29217 0.47139-0.12785 0.51954 0.44652-0.0979 0.73862 0.14607 0.54945 0.14607 0.52284 0.32534 0.37015 0.54445 0.15443 0.6988-0.24074 0.69878-0.39508 0.47141-0.31867 0.51956-0.20581 0.32532 0.26722 0.37516 0.57596 0.17089 1.1503 0.0481 0.57602-0.0731 0.84318-0.12125 0.576 0.0731 0.31703-0.44652-0.10277-0.51956 0.15443-0.59421 0.15442-0.44653 0.181-0.37346 0.20582-0.5212 0.15442-0.72373 0.39508-0.51952 0.21416-0.61748 0.20582-0.84488 0.44651-0.67557 0.654-0.19416 0.26389-0.61746 0.60256-0.79675 1.0208-0.30044 0.84156-0.32534 0.62743 0.0253 0.57598-0.19594 1.5188 0.0979 0.79013v0.62741l0.0979 0.57434-0.37345 0.41993-0.77182 0.4714-0.72372 0.20758-0.82165 0.24076-0.59423 0.0762-0.42326 0.67893-0.12278 0.52285-0.42326 0.26725-0.49631 0.15443-0.25241-0.0514-0.56932-0.0514-0.21923 0.60086-0.0253 0.47307 0.0979 0.34358 0.0253 0.67891-0.56935 0.17923-0.54444-0.0266h-0.62578l-0.52118-0.0516-0.64239-0.10277-0.61747 0.21416-0.42327 0.0514-0.72371 0.0762-0.39838-0.0253-0.44649-0.39505-0.22734-0.60088-0.32535-0.73866-0.49628-0.24075-0.82167 0.0514-0.39835 0.31872-0.12126 0.29214-0.17088 0.42161-0.25239 0.52284-0.0481 0.18099-0.30043 0.49799-0.94282 0.42158-0.19417 0.2656-0.12278 0.62743 0.2772 0.62742 0.59422 0.31704 0.69882 0.31872 0.49632 0.29211 0.4714 0.73867-0.0979 0.91955 0.0253 0.62744-0.2524 0.73865-0.89468 0.47308-0.44651 0.47139-0.47141 0.26723-0.0979 0.26725-0.0253 0.44652-0.6988 1.0208-0.14608 0.31872-0.14606 0.47138-0.17089 0.62743 0.12126 0.52287 0.32532 0.57597 0.59427 0.5494 0.47141 0.60089-0.12126 0.52453-0.25238 0.29212-0.59424 0.36852-0.91957 0.0762h-1.5685l-1.0972 0.29214-0.79675 0.15442-0.77183 0.29212-0.69882 0.18101-0.27556 0.39504-0.32531 0.62742-0.14607 0.31869-0.32531 0.21417-0.61748-0.0514-0.14608-0.60086-0.12278-0.39508-0.0731-0.5743-0.19595-0.60089-0.44652-0.36848-0.0253 0.0266-0.6988-2.2076-1.2432-0.36846-1.4391-1.4176-2.0168-0.36848-2.3338-0.94448-3.9022-1.864-1.5686-1.1852-2.0167-0.23239-2.0168 0.23239-2.4633-0.47306-1.3179-1.6582-2.0168-0.94444-2.0167-1.6565v-4.593l0.44816-0.91792 0.77186-1.6848v-1.4159l-0.6739-1.7595-0.54445-0.71209 0.09805-0.21417 0.12116-0.60086-0.22741-1.5453-0.79676-1.2881-0.54445-0.60086-1.5686-1.0474v-1.6234l0.22741-0.73864 0.79676-0.10278 1.4391-0.57433v-0.73863l0.77184-0.3436 0.56933 0.47307 0.77184 0.24074 1.2449-0.47142 0.54447-0.94446 0.35024-0.57598 0.35022-1.9404 1.293 0.21417 0.96769 0.20759 1.391 0.36846 0.39837 0.42164 0.12116 0.60253v0.44648l1.318 0.67724 1.3412 0.0514 0.91959-0.15442 0.72369 0.62744 1.5686-0.0514 0.84491 0.31867 1.5686 0.0762 0.61749-0.60089 0.39837-1.0988v-0.67892l-0.025-0.73694 0.54446-0.42164 0.30044 0.0266 0.47141 0.65234 0.35023 1.0225-0.0731 0.76354 0.54446 0.34361 0.42327-0.29214 0.67557-0.67721 0.35023-1.1005 0.19594-0.99426-0.32531-0.52454-0.91959-0.42157-0.82163-0.0764-0.59424-0.23898-0.35025-0.44651 0.0251-0.52451 0.0731-0.62747 0.22743-0.60087 0.74696-1.0474 0.32535-0.67892 0.19594-0.52285 0.17088-1.2101 0.25239-0.68055 0.19417-0.26557 0.5212-0.41997 0.9926-0.47304 0.79674-0.47142 0.2524-0.52451 0.17087-1.3147 0.12279-0.62741 0.17088-0.4465z" fill="#a0c2a0" />
  <path id="Osmanabad" d="m97.992 202.21-0.35024 1.9404-0.34857 0.57598-0.54442 0.94447-1.2433 0.47307-0.77184-0.24227-0.56933-0.4714-0.77184 0.34361v0.73863l-1.4391 0.57597-0.79672 0.10278-0.22742 0.74031v1.6217l1.5686 1.049 0.54444 0.60089 0.79672 1.2881 0.22742 1.5453-0.12116 0.60088-0.09805 0.21417 0.54447 0.7121 0.67557 1.7612v1.4175l-0.77184 1.6815-0.44818 0.91957v4.5946l2.0168 1.6582 2.0168 0.94444 1.3179 1.6566 2.4633 0.47142 2.0168-0.23239 2.0167 0.23239 1.5686 1.1852 3.9022 1.864 2.3338 0.94446 2.0168 0.37019 1.4391 1.4159 1.2449 0.36846 0.69881 2.2077-0.4465 0.0514-0.42328 0.29214-0.51953 0.3685-0.17088 0.60085-0.0481 0.52454 0.0731 0.52454 0.4714 0.4199 0.35024 0.21417 0.27722 0.181 0.52117 0.3934 0.52121 0.26727 0.12127 0.47139 0.0731 0.26559-0.0253 0.4216-0.0496 0.26558-0.0979 0.57598-0.22734 0.36852-0.9677 0.79006-0.64239 0.31871-0.69879 0.34359-0.17087 0.34361-0.0731 0.42161v0.5743l0.0253 0.3685 0.0481 0.20581-0.12126 0.49795-0.39839 0.34361-0.61747 0.57598-0.19594 0.31704-0.17088 0.79009-0.12126 0.71211-0.12278 0.34357-0.2772 0.34361-0.74693 0.94448-0.39838-1.0208-0.19417-0.37014-0.19594-0.21417-0.2524-0.49796-0.27554-0.81667-0.37347-0.26559-0.54445-0.15441-0.35023-0.26556-0.32531-0.54942-0.0482-0.49798-0.25232-0.89301 0.025-0.41993-0.2772-0.26727-0.25232 0.65232-0.12115 0.62744-0.098 0.7121-0.37347 0.84158-0.3735 0.73863-0.19421-0.79009-0.19587-0.42162-0.098-0.47306-0.0963-0.47142 0.0481-0.73865v-0.52451l-0.39835-0.44482-0.30043-0.181-0.35024-0.0496-0.5212 0.36849-0.54444 0.52289-0.64238 0.42157-0.30044 0.62745-0.25232 0.84154-0.32534 0.73864-0.47141 0.29215-0.25231 0.0253-0.37347 0.15596-0.17096 0.181-0.098 0.34358-0.098 0.41995 0.0731 0.71211-0.0731 0.654-0.17097 0.36848-0.35024 0.31703-0.14606 0.078-0.74861 0.24075-0.56935 0.0266-0.54441-0.44651-0.3486-0.62742-0.32533-0.62744-0.84489-0.36849-0.47141-0.73866-0.54444-0.7901-0.74861-0.7652-0.44817-0.52287-0.54444-0.34358-0.35022 0.0762-0.2772 0.078-0.44651 0.4216-0.86976 0.0514-0.4714-0.37011-0.61748-0.81501-0.27553-0.3934-0.6988-0.84323-0.69882 0.26726-0.47141 0.67721-0.9428 0.86647-1.2682 0.49796-1.0158 0.26725-0.86978 0.20581-0.84488-0.15442-1.0158-0.26726-1.0972-0.79012-0.30043-0.94444 0.42326-0.37016 0.32535-0.37019 0.54444-0.34356-0.17099-0.71209-0.7486-0.71207-0.82165-0.26725-1.0972-0.0762-1.2449-0.0516-1.2931-0.078-0.77184 0.49795-1.293 0.36849-1.22-0.24075-0.79676-0.67886-0.0481-0.73865-0.098-0.60089 0.42326-0.41996 0.67557-0.65397 0.32534-0.49798-0.098-0.42161-0.94282-0.52453-0.91958-0.10277-0.61747 0.12936-0.5926-0.181-0.7486-0.10278-0.64239 0.47144-0.64238 0.79009-0.47141 0.10301-0.67557-0.21416-0.84488-0.62743-0.86979-1.1238-0.89467-1.0474-0.7486-1.547-0.35023-0.9445-0.02507-0.73863 0.19422-0.94446v-0.62578l0.27719-1.2632 0.19422-0.60089 0.39838-0.52453 0.67557-0.29214 0.6739 0.34361 0.56935 0.47306 0.56932 0.54775 1.0158 0.7403 0.79675 0.26559 1.147 0.0762 0.99262-0.18101 0.72372-0.26724 0.54442-0.36848 0.07306-0.91959-0.12278-1.313 0.098-0.91957-0.30044-0.67889-0.69881-1.0723-0.21913-0.65232-1.0656-0.81665-0.54442-0.97105-0.19589-0.57432 0.2772-0.29216 0.32534-0.12936 0.39835-0.26559 0.37346-0.0516 0.07306-0.62742 0.12116-0.57595 0.12116-0.52289-0.02507-0.86648-0.19586-0.71207-0.0481-0.73865-0.47141-0.94446-0.21913-0.67889 0.12278-0.3187 0.84488-1.21 0.6739-1.0988 0.94282-1.0988 1.391-0.99593 1.0407-1.049 0.77184-0.94447 0.39838-0.73866 0.12116-0.65232-0.30043-0.91956-0.5212-0.7121-0.77184-0.76518-0.56933 0.12936-0.37347 0.49796-0.4465 0.52289-0.32533 0.84156-0.6988 0.57598-0.86976 0.15442-0.84488 0.10455-0.37347 0.36852-0.37349 0.4714-0.32534 0.79009-0.37347 0.54945-0.64238 0.49795-0.79675 0.24075-1.0407-0.3436-1.0158-0.0516-1.0407-0.42157-0.99261-0.20582-1.147-0.15442-0.39838-0.79012-1.0159-0.91956-0.7486-0.71209-0.67557-0.49796-1.0656-1.2366-0.37347-0.54939-1.1221-0.17924-0.47141 0.15443-0.37347 0.67721-0.07306 0.84156 0.07306 1.0988 0.07304 0.67891 0.69881 0.24074-0.39838 1.074-0.6739 1.0225-1.1951 0.21417-1.0889 0.29214-0.56933 0.31701-0.61748 0.81667-0.49629 0.89301-0.30044 0.65236-0.61748 0.49793-0.89467 0.57434-0.89467 0.52453-1.22 0.5494-0.67557 0.71209-0.19422 0.76518 0.09623 0.67724-0.19422 0.62744-0.37347 0.31706-0.7237 0.24074-0.61747 0.12936-1.0656-0.0266-0.99261-0.12784-0.56933-0.10277-0.7486 0.21417-0.54442 0.0514-0.64238-0.26722-0.5212-0.57598-0.14607-0.76522v-0.76354l-0.37347-1.3395-0.21911-1.2366-0.54442-0.79011-0.27719-0.5494-0.47141-0.76524-0.4465-1.21-0.79673-0.91791-0.47141-0.57597-0.67557-0.71208-0.6739-0.73866-0.61748-0.42159-0.99094-1.0474-0.91958-0.79012-0.07306-1.0474 0.19587-0.57598 0.19422-0.7121 0.25232-0.81665-0.14607-0.67892 0.07306-0.79009 0.02507-0.52286 0.2191-0.24227 0.59423 0.0266 0.61748-0.10454 0.54444-0.76354 0.2772-0.39505 0.35023-0.36849 0.7486-0.39671 0.94282 0.181 0.94279 0.21417 1.0159 0.26558 1.1221 0.10277 0.42326-0.79009 0.35023-0.62742 0.82164-0.62579 0.84488-0.44652 0.82164-0.49793 0.99261-0.76357 0.94279-0.81665 0.39838-0.71209 0.32534-0.89135 0.86976-0.86812 0.69881-0.7901 0.77184-0.17923 1.0158-0.39505 0.61748-0.10277 0.59423-0.0532 0.47141 0.57598 0.64238 0.47142 0.49629 0.36846 0.72369 0.52452 0.79675 0.0514 0.47139-0.10277h0.5212l0.49629 0.15442 0.89467 0.15443h0.37349l0.32534-0.31703 0.56933-0.10454 0.82164-0.47142 0.37514-0.26723 0.56933-0.0514 0.86976 0.20582 0.35023 0.15442 0.67557 0.26723 0.77184 0.0514 1.3412 0.31704 1.391 0.10277 1.4391 0.20581 1.3179 0.3685 1.1702 0.79009 0.7486 0.67888 1.6184 0.99594 1.147 0.10278 1.3661 0.0516 1.8126 0.3685 1.5205 0.21416 1.22-0.0516 1.3661-0.52451 0.91791-0.10277 0.64239 0.57598 0.32533 0.97103 0.21912 1.1237 0.91957 0.15443 0.94282-0.36849 0.79673-0.79012 0.54444-0.26558 0.9677-0.57598 0.61749-0.12936 0.82164 0.39502 0.72372 0.4731 0.82163 0.96935 2.3089 0.23239 0.96772 0.0516z" fill="#acebdf" />
  <path id="Parbhani" d="m114.29 129.18 1.2449 6.4072 1.7147 1.6815 4.1298 0.67889 4.7721 0.31703v3.7263l-2.7322 2.3603-3.0823 4.3622-2.04 4.0701 1.0159 4.0701 2.7322 4.3538 0.69882 4.7225 0.67557 5.066 1.3661 3.3845 1.0158 4.045 2.4151 2.7555-0.0731 0.57598 0.14608 0.24075 0.61747 0.10454 0.69881-0.15442 0.54611-0.26559 0.82164-0.26723h0.67557l0.47141-0.10277 0.67555-0.20758 0.27555 0.10277 0.67557 0.29214 0.0979 0.91956-0.37345 0.52453-0.22734 0.37014-0.32535 0.79012-0.37346 0.26555-0.14607 0.20583-0.32535 0.42157-0.64239 0.49798 0.14608 0.60089-0.5212-0.4714-0.47139 0.0514-0.39837 0.0514-0.54445 0.0266-0.6988 0.0253-0.7237-0.18101-0.67393-0.34361-0.77184-0.20581-0.42326-0.29217-0.69881-0.12936-0.30044 0.47308-0.14607 0.36846-0.17088 0.576-0.37347 0.31703-0.32535 0.15594-0.56932 0.0514-0.9179 0.15442-0.82167-0.15442-0.74861-0.0514-0.6988-0.15594-0.51954 0.24227-0.86976 0.86646-0.74863 0.99594-0.61747 0.94447-0.30044 0.4714-0.79673-0.62577-0.44816-0.31872-0.49632-0.15443-0.56933 0.0514-0.56935 0.20581-0.2772 0.10277-0.51953-0.0514-0.56935-0.21418-0.19594-0.26555-0.12126-0.68056-0.17088-0.62578-0.0731-0.79009-0.17087-0.84156-0.82165-0.52453-0.17098-0.52285 0.0482-0.8432-0.39838-0.67726-0.61747-0.0514-0.39836 0.21418-0.59424 0.20759-0.4714-0.10277-0.42326-0.39505-0.098-0.60086-0.14608-0.62747 0.0731-0.99591-0.12115-0.52286-0.47139 0.0253-0.59424 0.47142-0.25229 0.12785-0.72372 0.3701-0.42326-0.078-0.59424-0.60089-0.51956-0.84156-0.30043-0.31706-0.54444-0.0532-1.0407-0.60086-0.35022-0.34359-0.25232-0.62746-0.025-0.52284 0.098-1.0474v-0.67722l-0.30043-0.94449-0.0981-0.26557-1.0158-0.89467-0.86979-0.86646-0.91791-0.86645-0.5212-0.52287-1.0407-0.0532-0.2772 0.0266-0.61747 0.91791-0.84487 0.47305h-0.42326l-0.67558-0.31869-0.2191-0.42161 0.64239-0.86648 0.64239-0.97102 0.77184-0.89303 0.47138-0.57597 0.25232-0.7901 0.32535-0.62576-0.17098-0.81665-0.14608-0.39341-0.35022-0.52454-0.35022-0.84153-0.59424-0.94449-0.9428-0.31705-0.59424 0.10277-1.0158-0.26392-0.89467 0.31703-0.44652 0.0532h-0.17098l-0.79672-0.26722-0.61748-0.31702-0.89467-0.42163-0.89467-0.60254-0.77184-0.15442-0.74861 0.54939-0.04808-1.469v-1.2615l-0.14608-1.3661v-1.2881l-0.09805-0.81669 0.25232-0.73863 0.74861-0.84154 0.39837-1.2366 0.073-0.84157-0.0482-0.94447 0.073-0.52287 0.25232-0.71207 0.07312-0.89302-0.25232-0.79009-0.4465-0.67727-0.42326-0.99591-0.25232-0.57431 0.073-0.57598 0.0482-0.24226 0.56933-1.7595-0.30043-0.7403-0.39838-0.99594-0.39838-1.21 0.30044-1.1503 0.77184-0.4216 0.47141 0.34357 0.30043 1.1852 0.19421 1.1503 0.59424 0.31868 1.1221-0.71375 0.35022-1.0723-0.073-0.73863-0.39838-0.99593-0.35022-0.57597-0.39836-0.73699-0.2772-0.57597-0.073-0.52456 0.32532-0.5494 0.44651-0.18101 0.86977-0.10277 0.72371 0.10277 1.1951 0.078 0.7486-0.0266 0.59424-0.0514h0.47141l0.72372-0.94449 0.073-1.3395-0.19589-1.0225 0.02504-0.52285 0.54444-0.42162 0.47141-0.26726 0.52121-0.5743-0.17095-0.62578-0.25232-0.62577 0.12116-0.31869 0.64239-0.36846-1.147 0.17923 1.147-0.17923 0.04808-0.31708 0.22741-0.39672 0.14606-0.17923 0.19422-0.65234 0.2191-0.65396 0.14606-0.20582 0.34858-0.10277 0.74861 0.44649 0.4465 0.71209 0.2191 0.3187 0.27553-0.21569 0.3735-0.7652 0.2772-0.65234 1.4142-0.49795 0.8698 0.0253 0.9677 0.0266 1.0972-0.12937 0.49633 0.20582 0.30043 0.65232-0.19421 0.44649-0.35024 0.67888-0.30043 0.44819-0.22741 0.34191 0.12278 0.20581 0.47141-0.0514h0.61916l0.54441 0.31701 0.56932 0.44817 0.61915 0.26561 0.42326-0.12936 0.77184 0.65397 0.99261 0.54945 0.5212-0.23899 0.64239-0.12936 0.99097-0.15443 0.61748-0.3685z" fill="#f9d3c6" />
  <path id="Hingoli" d="m126.16 138.27-4.7721-0.31703-4.1298-0.67888-1.7147-1.6814-1.2449-6.4072 0.54444-0.0762 0.30043-0.0253 1.2449-0.15441 0.61745-0.3685 1.0408-0.62742 1.3661-1.2632 0.77185-0.42159 0.30043-0.20581 0.54445-0.79012 0.61747-0.94446 0.2772-0.47308 0.4714-0.52286h0.42326l0.64239-0.18101 0.42326-0.24074 0.82166-0.52287 0.17088-0.49798 0.47141-0.24075 0.54444 0.31872 0.67554 0.44649 0.82165 0.18101 0.72372-0.15443 1.293-0.76518 0.9677-0.21418 1.3661-0.71209 0.67557 0.10277 0.64237 0.44651h0.49629l1.2681-1.2632 0.82166 0.0253 0.61913 0.62745 0.61747 0.42159 1.2449 1.2632 0.51954 0.31706 1.4873 0.89301 0.94279 0.73863 0.69881 0.15443h1.0159l1.1702-0.36849 0.61748-0.36847 0.32535-0.42162 0.39834-0.42161 0.4465-0.23897 0.64239 0.0762 0.5942 0.44652 0.64239 0.81497v0.4731l0.39838 0.71207 0.19594 0.29214 0.42329 0.15443 0.30041-0.0253 0.61747-0.24074 0.49631-0.21417 0.35024-0.20582 0.59426 0.10277 0.14607-0.3187 0.37349 0.39506 0.4465 0.76354 0.22733 1.1503 0.51956 0.62581 0.82161 0.67891 1.3661 0.84153 0.89467 0.94447 0.21923 0.73865 0.2524 0.67891-0.0731 0.36846-0.21923 0.9445-0.69881 0.89464 0.19594 0.57433 0.39838 0.3685 0.61747-0.3685 0.69882-0.21416 0.2772 0.0253 0.67391-0.0253 0.44818 0.31705 0.27553 0.36849 0.25239 0.42161 0.35022 0.52451 0.32533 0.44653 0.0481 0.17923 0.17087 0.3187 0.19418 0.62578 0.0481 0.73865 0.19595 0.84156 0.12126 0.57598-0.0731 1.0225 0.17087 0.73865 0.21923 0.71208 0.0498 0.49796-0.0253 0.62747-0.25239 0.49795-0.25237 0.36846 0.0481 0.62747 0.32535 0.84154 0.0731 0.4714-0.0253 0.94448 0.0481 0.44649 0.0481 0.57601-0.30043 0.71207-0.64235 0.24075-0.67393 0.34358-1.0407 0.41996-0.54444 0.12785-0.64238 0.65399-0.22734 0.73863-0.19593 0.73865 0.0253 0.79012-0.0481 0.84154-0.19594 0.42163-0.67558 0.0516-0.49629 0.21416-0.49631 0.26559-0.39839 0.15442-0.72369 0.3187-0.77184 0.57598-0.59424 0.3436-0.56933-0.44651-0.30043-0.60089-0.27721-0.39504-0.54445-0.18101-0.35024 0.29216-0.27552 0.5743-0.47141 0.41995-0.47141 0.21567-0.49632 0.15443-0.77183 0.7901-0.4714 0.60086-0.17087 0.44651-0.61743 0.57598-0.72372 0.52286-0.61747 0.62745-0.5212 0.39504-0.56935 0.57433-0.64237 0.60087-0.25239 0.79009-0.37347 1.7097-0.21922 1.5453-0.72373 1.4939 0.39838 0.078-0.32534 0.99594-0.61748 0.86811-0.72369 0.97106-0.25239 0.31701-0.64239 0.67889-0.59424 0.57598-0.5942 0.57432-0.35026-0.29214-0.5212-0.0266-0.4465 0.20582-0.74861 0.31869-0.84487 0.62745-0.49632 0.41996 0.0253 0.67888-0.0481 0.79009-0.0253 0.54943 0.0253 0.67721-0.0253 0.815-0.49629 0.86812-0.12127 0.65236-0.32533 1.21-0.54443-0.0514-0.59422-0.0532-0.35026 0.37017-0.32532 0.24074-0.3735 0.42161-0.27718 0.0762-0.47142-0.0514-0.84488 0.15443-0.56932 0.0514-0.84487 0.4714-0.72373 0.49797-2.4151-2.757-1.0158-4.045-1.3661-3.3846-0.67557-5.0675-0.6988-4.7225-2.7322-4.3539-1.0158-4.0701 2.04-4.0701 3.0808-4.3622 2.7322-2.362v-3.7015h0.0432z" fill="#e2b584" />
 </g>
 <g fill="none" stroke="#000">
  <path d="m1.2941 86.338h1.6491l2.9318-5.4971-0.36648-1.6491 0.73296-1.0994 1.6491 0.54971 5.4971-4.2145v-2.1989l0.36647-1.2827 5.4971-1.6491 2.5653-2.1989 1.2827-0.91619 0.54972-0.73295 1.8324-0.36648v-2.3821l-0.54971-0.91619 1.2827-1.8324 1.4659-0.73295 0.36647-1.6491 2.0156-2.3821h2.3821l1.8324-1.6491-0.18324-2.5653 1.0994-0.73295 2.3821 1.0994 1.2827 0.18324 2.0156-1.8324 2.0156-0.54971 1.4659 1.4659 1.8324-0.36647 2.0156-0.91619 1.6491-4.7642h1.8324l0.73295-1.2827 1.6491 0.36648 1.6491 0.18324 0.91619 0.73295h1.6491l0.91619-0.54971 1.8324-1.0994 2.3821-0.36648 3.115 0.36648 2.5653 0.54971 2.1989 0.91619 2.1989 0.91619 2.9318-0.73295 2.3821-0.54971 1.4659-0.36648 2.0156-0.73295h1.6491l2.1989-0.73295 1.2827-0.36648 1.4659-1.0994 2.9318-0.91619 2.5653 0.54971 2.1989-0.54971 1.6491-0.73295 1.8324-0.91619 5.3139-7.696 3.6648-1.4659 2.0156 0.36648 2.5653 1.2827 16.675 10.078 2.7486 0.18324" stroke-width=".5px"/>
  <path d="m40.169 103.65 2.8213 3.3453h1.0076l1.2898 3.305 2.0152 0.24183 0.7658 2.5795 3.8693 1.0076 2.781 1.5316 5.6427 0.28213 9.4717 0.24183h2.2974l10.237 2.5392 3.0632 2.0556 2.8214 0.76579 9.9553 3.829 2.2974 5.8845 6.6503 0.52397 5.6427 4.1111v2.781l3.305-0.76581 3.0632 2.8214 4.6351 1.5316 3.305-0.52398 2.5795-1.2494 5.8845-1.8137 5.8442-1.7734 7.4161-5.1187-0.24183-1.5316 1.8137-1.2898h2.2974l4.3529-1.2898h3.5468l5.1187-2.5392 3.3453-2.5392 3.829 0.48365 2.8214-1.2495 3.5871-0.52394 3.305-0.24184 2.8214-0.28214 3.829 0.76579 3.5871 0.28213 5.3606-0.76578" stroke-width=".5px"/>
  <path d="m2.4262 86.347 2.665 1.5228 1.9035-0.57106 0.76141-0.3807h1.3325l0.57106 1.9035 1.1421 0.38071 1.3325-0.76141 2.4746 2.0939 0.95176 1.5228v1.7132l2.4746 1.5228 1.1421 2.8553 4.5685 4.1878 1.3325 0.38071 1.3325-0.19036 1.5228-0.3807 0.76141 0.76141 0.1635 0.90105" stroke-width=".5px"/>
  <path d="m28.695 102.91 1.2103 0.37239 4.0032-1.3034 0.1862 0.93097 0.65168 0.93097 1.955 0.65168 1.7688 0.0931 2.0481-1.0241 7.4478-0.83787 0.46549-0.65168 1.0241-0.3724 1.955-0.0931 2.2343 0.46549 1.7688 0.74477 1.0241 0.0931 1.2103-0.18619 9.2166 2.6998 3.3473-2.1962 1.1045 0.12271 1.4726-1.7181 2.8225-1.2272 0.6136-0.85903 2.2089-0.98175 1.3499-0.36816h0.49088l0.98175-0.73631 0.36816-0.73631 0.36815-1.5953 1.2272-1.2272 1.8408-1.3499 2.0862-1.4726 3.4361-1.8408 1.7181-2.0862 2.4544-1.2272 3.5588-2.0862 1.3499-1.1045 2.0862 0.6136 1.2272 0.61359 1.8408 1.7181 0.24544 0.12272 1.2272-0.49088 1.9635-0.36816h2.0862l1.3499 0.36816 0.98172 0.12272 1.2272-0.24544 0.24542-0.36816 0.6136 1.1045 0.24545 0.85903h1.4726l1.9635 0.36816 1.3499 0.73631 2.0862 1.4726 1.9635 1.1045h0.49089l0.85904-0.6136h1.4726l1.1045 0.6136 1.3499-0.6136h0.98175l1.1045 1.1045 1.8408 0.98175 2.2089 0.12272h2.0862l2.9452 0.98175 2.0862-1.1045 2.4544-0.73631 3.068-0.36816-0.49087-1.4726 0.36816-0.98175 1.2272-0.6136 6.0132 0.73631" stroke-width=".5px"/>
  <path d="m160.31 127.87 3.9509 1.3828 1.5804-0.39508 7.9018 1.3828h0.98772l4.7411-1.7779" stroke-width=".5px"/>
  <path d="m180.41 128.55h2.4994l1.4059-0.15621h2.4994l1.0935-0.31242 0.93727 0.78105 2.187-1.0935 1.8745-5.936" stroke-width=".5px"/>
  <path d="m133.04 40.923h3.6652l0.73304 0.73304 20.525-0.48869 4.1539 1.4661 0.24434 1.4661 1.9548-0.73304 6.1087 0.73304 1.4661 3.1765 2.6878 2.4435 10.263 2.1991 1.2217 1.7104 4.8869 0.24435 1.2217 1.7104 6.5974-0.24434 2.4434 2.4435 5.3756-0.48869 10.996 3.9096h1.9548l1.4661-1.2218 3.6652 1.4661 0.73306 1.7104 6.1087 3.4209-0.48872 1.7104 2.6878 2.6878v2.1991l4.1539 0.24435-0.24435 3.1765 1.9548 2.1991 0.24434 4.1539" stroke-width=".5px"/>
  <path d="m99.665 82.731 3.1962 0.71026 4.084-0.17756 1.0654-0.71026 2.6635-0.71026 0.71026-1.0654h1.4205l3.5513-2.841 1.9532-0.35513 1.243 0.17756 1.5981-0.35513 2.6635 1.4205 1.243-0.35513 3.0186-1.7756 1.0654 0.5327h1.243l4.7942 2.1308 4.4391-0.88782 1.0654 0.17757 1.0654-0.35513 3.1962 1.243 3.5513-0.71026 7.1026 0.53269-0.3551-2.6635 5.682-0.17756 1.9532 0.71026 1.9532-1.9532h1.0654l2.4859 1.5981 3.0186-1.0654h1.243l7.2802 2.4859 1.0654 2.3083 1.0654-1.243 0.71023 0.35513 5.5045-2.4859v-1.4205l1.5981-0.88782 1.0654-1.5981 2.841-0.5327 1.5981-1.243 3.1962-4.2616 4.6167 2.3083 9.4109 2.841" stroke-width=".5px"/>
  <g stroke-width=".5px">
   <path d="m225.4 63.159 1.5048-2.3826 0.75239-1.881 0.87781-1.881v-1.254l1.254-0.75239 0.50158-1.3794 1.254-0.75239"/>
   <path d="m231.55 52.876 1.0032 0.62699h2.2572l0.87781 0.2508 2.6334 0.87779 1.254 0.50159 1.254 1.254 0.12542 0.75239 1.1286 0.62699 1.7556 2.1318 0.627 2.3826v4.0128l-0.75239 2.0064-0.627 1.1286 0.12541 2.3826-0.37619 0.87779-0.3762 0.2508 0.3762 1.7556-0.87781 1.5048-0.75239 1.7556"/>
   <path d="m241.21 77.956-1.6282 0.84112"/>
  </g>
  <path d="m212.64 72.711 2.9163-0.18205h1.7878l0.84683-1.2044h0.28227l1.8819-1.1117 2.2582 0.09264 2.4464 0.27793 4.7046 0.74114s0.37637-0.09264 0.75274 0c0.37636 0.09264 2.2582 1.3896 2.2582 1.3896l0.94092 0.46321" stroke-width=".5px"/>
  <path d="m155.6 79.358-0.58665 9.1415" stroke-width=".5px"/>
  <path d="m137.44 41.656 4.7346 7.5944h3.0302l1.7045 2.7616 0.18938 3.2794 0.56815 1.0356v1.5534l3.4089 2.4164 1.5151 3.2794v2.589l-0.37877 2.0712 1.3257 2.9342 1.3257 3.1068 0.37877 2.4164" stroke-width=".5px"/>
  <path d="m239.18 82.138-3.468 1.7515-2.0808 2.6273-1.6184 2.1894-2.312 1.5326-2.312 1.7515-7.1672 8.5387-2.7744 5.0357 1.8496 4.3788-2.312 1.7515-0.94179 0.92622-1.049 2.1524-1.5735 0.82783-11.889 4.8015-2.4478 1.159-0.87421-0.49671" stroke-width=".5px"/>
  <path d="m162.36 44.1-2.5927 5.2807-0.39888 1.6974-0.59831 3.2061-1.1966 2.0745-0.39888 1.3202-0.79777 2.6403-1.5955 2.0745-2.1939 3.7719" stroke-width=".5px"/>
  <path d="m155.13 88.033-1.3612 6.3451-1.5314 6.1736v2.2294l-0.51047 2.7438 4.4241 5.4877 1.0209 1.5434h1.0209l2.0419 2.7438 2.5523 0.51447-0.17015 2.9153 2.3822 0.1715 0.68062 0.51448 1.0209 1.7149 0.68063 2.9153" stroke-width=".5px"/>
  <path d="m153.15 97.308 6.2042 3.6166 5.3485 1.4892 2.3533 0.42549 4.2788 1.7019 2.5673 0.21276 10.055 1.2764 1.7115-0.42548 6.4917 1.5434 3.0918 5.6636 2.9291 2.7509v5.5017" stroke-width=".5px"/>
 </g>
 <g fill-rule="evenodd" stroke-width=".26459">
  <ellipse cx="162.76" cy="44.331" rx="1.8206" ry="1.942"/>
  <ellipse cx="231.94" cy="53.312" rx="1.8206" ry="1.942"/>
  <ellipse cx="212.76" cy="73.217" rx="1.8206" ry="1.942"/>
  <ellipse cx="239.71" cy="83.412" rx="1.8206" ry="1.942"/>
  <ellipse cx="180.23" cy="129.05" rx="1.8206" ry="1.942"/>
  <ellipse cx="155.23" cy="88.51" rx="1.8206" ry="1.942"/>
  <ellipse cx="198.2" cy="121.52" rx="1.8206" ry="1.942"/>
  <ellipse cx="130.72" cy="40.689" rx="1.8206" ry="1.942"/>
  <ellipse cx="1.8179" cy="86.811" rx="1.8206" ry="1.942"/>
 </g>
 <g font-family="sans-serif" font-size="3.1751px" letter-spacing="0px" stroke-width=".26459" word-spacing="0px">
  <text x="10.093334" y="82.357567" style="line-height:1.25" xml:space="preserve"><tspan x="10.093334" y="82.357567" font-size="3.5279px" stroke-width=".26459">Mumbai</tspan></text>
  <text x="127.98685" y="35.200161" style="line-height:1.25" xml:space="preserve"><tspan x="127.98685" y="35.200161" font-size="3.5279px" stroke-width=".26459">Aurangabad</tspan></text>
  <text x="158.89407" y="88.41156" style="line-height:1.25" xml:space="preserve"><tspan x="158.89407" y="88.41156" font-size="3.5279px" stroke-width=".26459">Beed</tspan></text>
  <text x="200.95338" y="125.05414" style="line-height:1.25" xml:space="preserve"><tspan x="200.95338" y="125.05414" font-size="3.5279px" stroke-width=".26459">Latur</tspan></text>
  <text x="176.73741" y="134.9317" style="line-height:1.25" xml:space="preserve"><tspan x="176.73741" y="134.9317" font-size="3.5279px" stroke-width=".26459">Osmanabad</tspan></text>
  <text x="243.96858" y="82.676201" style="line-height:1.25" xml:space="preserve"><tspan x="243.96858" y="82.676201" font-size="3.5279px" stroke-width=".26459">Nanded</tspan></text>
  <text x="163.99217" y="51.131718" style="line-height:1.25" xml:space="preserve"><tspan x="163.99217" y="51.131718" font-size="3.5279px" stroke-width=".26459">Jalna</tspan></text>
  <text x="229.94882" y="46.670883" style="line-height:1.25" xml:space="preserve"><tspan x="229.94882" y="46.670883" font-size="3.5279px" stroke-width=".26459">Hingoli</tspan></text>
  <text x="202.86517" y="79.171257" style="line-height:1.25" xml:space="preserve"><tspan x="202.86517" y="79.171257" font-size="3.5279px" stroke-width=".26459">Parbhani</tspan></text>
 </g>
 <path d="m109.39 24.052 3.0984 0.5342h0.96156l1.7095-0.42736v2.2437l1.0684 0.53421 1.8163-0.21369 1.2821 1.0684 0.53421-0.85473-0.10678-1.0684-0.64107-0.21369-0.64105-0.10687-1.1752-0.96157 0.42733-0.85473 1.0684-0.42736 0.74788-0.64104 0.32053-1.2821 0.32052-0.32053 1.4958-0.32052 0.96156 0.85473 1.6026-0.85473 1.3889-0.32052 1.0684 0.21368 0.21368 1.2821v1.1753l-0.42739 0.64104h1.7095l-0.32053 0.64105-0.21365 0.64104 0.96155-0.10687 0.42736 0.21369 0.53421-0.53421 1.0684-0.32052v-0.53421l0.53423-0.85473 0.74788-0.32052 0.74791-0.53421h0.96155v-0.32052l0.21367-0.64105 0.85474 0.42736 0.90194 0.45402 0.70552 0.5644 0.35272 0.1411v-0.56441l-0.14108-0.28221-0.14111-0.70551 0.77607 0.70551 0.49386 0.63496 1.0582 0.21166-0.0706-0.4233-0.21164-0.63496 0.98769 0.14109 0.70551-0.2822 0.70552-0.35276 0.56439-0.4233-0.49385-0.4233-0.77606-0.49386h-0.28218l-0.56444 0.14109h-0.7055l-0.56442-0.07049 0.0706-0.56441 0.63498-0.1411 0.49384-0.21164 1.1994 0.1411-0.77606-0.42331-0.35278-0.4233-0.70547-0.21166h-0.91712l-1.0583 0.1411-0.91715 0.1411-0.49386 0.07051-0.42331 0.14109-0.21163 0.28221-0.35276 0.07049-0.21166-0.35275-0.0706-0.42331-0.28218-0.14109-0.77609 0.07051-0.49386 0.35275-0.14108 0.4233-0.14111 0.28221-0.28221 0.07049-0.35273-0.63496-0.35278-0.1411-0.28218 0.35276-0.28221 0.21164h-0.63495l-0.77606-0.49385 0.42332-0.21166 0.8466-0.14109 0.63495-0.21166 0.98771-0.21166h1.1994l0.28219-0.63496 0.35278-0.21164 0.2822-0.35276 0.56438-0.1411 0.35278 0.07051 0.70552 0.49386 0.21164-0.35276h0.84659l-0.4233-0.49385-0.14109-0.28221-0.21165-0.56441h0.56439l0.42332-0.07049h0.4233l0.42332 0.35276v-0.63496l0.2822-0.28221 0.35274-0.63496 0.0707-0.07049 0.5644 0.21166 0.42332 0.35275 0.21165-0.35275 0.42327-0.49385 0.84663-0.4233 0.63497-0.63496 0.63493-0.21166 0.63497 0.21166 0.77606 0.9877 1.1994 1.0583 0.91716 0.77606 0.84661 1.0583h0.35275l0.14111-0.56441 0.49385-0.70551-0.42332-0.14109-0.49385-0.21166v-1.5521l-0.14111-0.21165-0.5644-0.42331v-0.21165l0.42332-0.5644 0.35273-0.42331 0.21167 0.07051-0.35275 0.77606 0.21166 0.35275 0.77605 0.07061 0.84659 0.07051 0.0707-0.4233 0.63494-0.5644 0.21165 0.8466 0.56443 0.84661 0.77605 0.1411v-0.21166l-0.21166-0.70551 0.14112-0.91716 0.2822-0.63496v-0.84661l0.21165-0.49385 0.77605-0.4233 0.91716-0.70551 0.63494-0.21166 0.28224-0.56441 0.14107-0.56441 0.35278-0.4233 0.56439 0.2822 0.49385 0.1411 0.35277 0.21166-0.49385 0.4233-0.35277 0.4233-0.42331 0.5644 0.84662-0.21164h0.35274l0.42331-0.49385h0.2822l0.49385 0.8466 0.84662 1.3405h0.77605l0.84663-0.49385 3.7392-1.6932 0.91713 0.4233 1.0583 0.2822 2.5398 0.42331 1.2699-2.1165h-1.1288l-6.4906-0.91718-4.3742-0.91716h-0.42328l-0.77608 0.77606-0.2822 0.2822-1.0582-0.14109-1.8343-0.35276 0.35272 1.0583-0.63493-0.070494-0.35278-0.21165-0.56439-0.070506-0.70551-0.070506-0.70551-0.070605-0.70551-0.070506-0.2822-0.21165-0.35276 0.77605-0.2822 0.56442v0.77605h-1.3404l-0.28224 0.63496-0.2822 0.4233v0.1411h-0.63496l-0.49385-0.21165h-1.0582l-0.49386-0.35276-0.35276 0.28221-0.56439 0.2822-0.42331 0.49386-0.5644 0.2822-1.5521-0.1411-0.98771 0.1411-1.4816 0.1411-0.98771 0.70551-0.77605 0.4233-0.28223 0.21166-0.63494-0.1411 0.98772-0.77606 0.28218-1.1994 0.0706-0.77606 0.42331-0.8466 0.35278-0.91716-0.56445 0.21166-0.84658 0.63496 0.21167-0.98772 0.35273-0.91716 0.21165-0.4233-0.21165-0.49387-0.35273-0.35275h-0.28224l-0.49385 0.21166-0.21167 0.70551-0.56438 0.35275-0.49386-0.1411-0.35277-0.2822-0.42327 0.21164-0.35278-0.21164-0.49385-0.21166h-0.35274l-0.35277 0.5644-0.56439 1.0583-0.14113 0.70551 0.56444 0.84661 0.28219 1.1288 0.70551 1.0583 0.14107 0.84661-0.35272 0.07051-0.42331-0.63496-0.42333-0.49385-0.63493-0.63496-0.70551-0.28221 0.42328 1.1288v0.91716l-0.35274 1.1288v0.63496l0.28221 0.4233-0.14112 0.49386-0.49387-0.14109-0.49385-0.28221h-0.70549l-0.49385 0.49385-0.5644 0.70551-0.35276-0.21164-0.4233-0.28221v-3.1748l-0.49384 0.70551-0.98774 1.0583-0.5644 0.91717h-0.7055l-0.77605 0.1411-1.0583 0.4233-0.91717 1.0583-0.21163-0.14109-0.35276 0.63495-1.0582 0.63496-0.21166 0.77606-0.7055 0.07049-0.91718 0.49385-0.63496 0.49385-0.84659 0.21166h-0.91716l-0.84662 0.07051-0.63494 0.07049-0.84662 0.07051-0.56441 0.28221-0.63495 1.1994-0.28221 0.70551-0.35275 0.5644-0.35275 0.21164-0.77605 0.28221-0.70551 0.4233-0.21165 0.84661z" fill="green" stroke="none" stroke-width=".29702px"/>
 <text x="143.08499" y="19.307419" fill="#000000" font-family="sans-serif" font-size="2.8223px" letter-spacing="0px" stroke-width=".26459" word-spacing="0px" style="line-height:1.25" xml:space="preserve"><tspan x="143.08499" y="19.307419">Gautala</tspan><tspan x="143.08499" y="23.717314">wildlife</tspan><tspan x="143.08499" y="28.127209">sanctuary</tspan></text>
</svg>
