<svg width="410.4mm" height="290.45mm" version="1.1" viewBox="0 0 410.39654 290.45904" xmlns="http://www.w3.org/2000/svg" xmlns:cc="http://creativecommons.org/ns#" xmlns:dc="http://purl.org/dc/elements/1.1/" xmlns:rdf="http://www.w3.org/1999/02/22-rdf-syntax-ns#">
 <metadata>
  <rdf:RDF>
   <cc:Work rdf:about="">
    <dc:format>image/svg+xml</dc:format>
    <dc:type rdf:resource="http://purl.org/dc/dcmitype/StillImage"/>
    <dc:title/>
   </cc:Work>
  </rdf:RDF>
 </metadata>
 <g fill="none" stroke="#000">
  <g transform="translate(202.03 -43.501)" stroke="#fff" stroke-width=".5">
   <path id="Lohit" d="m142.28 234.82c-0.68921-1.0088-0.70173-2.4498-1.2155-3.5683-0.89284-1.9455-2.2682-3.6058-3.5902-5.2695-2.0269-2.5501-3.6746-5.5013-6.1151-7.6942-2.7819-2.5-6.7261-2.3496-9.6772-4.5424-5.1315-3.8128 0.21626-9.7745 0.18198-14.633-0.0202-2.5658 2.2776-5.448 1.0276-7.7725-1.1873-2.2087-3.4368-4.6553-5.7518-5.708-0.59527-2.0489 1.6761-3.8471 2.9228-5.097 2.2588-2.265 2.7287-4.8715 3.1641-7.9449 0.44485-3.1203 0.64227-6.3031 1.2563-9.3953 0.46367-2.3433 0.75503-5.1002-1.5664-6.344-0.16298 0.0378-0.32893 0.38535-0.50124 0.40412-3.0734 0.32897-4.5678-0.80193-5.7048 2.6692-0.75493 2.2964 0.0847 6.012-3.3584 4.4549-1.8672-0.84275-2.5094-2.8634-3.7532-4.2856-0.52006 0.53254-0.94615 0.63281-1.3408 0.52943-1.4411 1.1497-2.2556 3.465-3.8284 4.439-1.8139 1.1216-3.7843 2.0896-5.1379 3.8128-1.4129 1.8013 1.3189 2.1397 1.7262 3.3959 0.55133 1.7074-1.4474 3.3084-2.4906 4.3265-2.0959 2.0489-5.6734 10.774-8.9285 7.594-1.6573-1.6196-2.0833-3.1235-4.7305-3.2361-1.8171-0.0783-2.5502 1.0808-2.1867 2.8007 4.2104 1.1998 1.0401 5.4667-0.35712 7.691-1.1999 1.9078-1.5695 4.1886-2.8133 6.0682-0.96176 1.4536-1.7168 2.6033-1.6134 4.4203-1.5602 0.62032-2.7945 2.5219-3.7155 4.0005 0.04697 5e-3 0.0942 8e-3 0.1408 0.012-0.69234 4.1321-4.2073 7.6222-6.2188 11.156-1.0369 1.8202-2.8007 2.8854-4.3014 4.2732-1.8546 1.7136-2.8007 4.1071-4.2104 6.1497-1.062 1.5382-7.4059 4.8684-3.2142 6.8796 0.85525 0.41039 1.9925 0.57955 2.218 1.6384 0.18457 0.86152 0.39162 2.0677 0.0691 2.9196-0.31016 0.81456-1.3784 0.9587-1.156 2.005 1.344 0.50441-0.21912 2.9136 1.1278 3.277 1.0965 0.29448 2.5063 0.0596 3.139 1.2751 0.58583 1.1278 0.60463 2.5094 1.7826 3.2957 0.99936 0.6673 2.5219 0.39791 3.3052 1.4474 0.05644 0.0751 0.11261 0.15664 0.16902 0.24446 2.5877-0.8709 5.4635-0.3289 8.1266-0.83963 2.1084-0.4041 3.894-1.4316 5.5295-2.7882 1.8547-1.5351 3.7187-3.9285 6.2626-4.2574 2.4593-0.31637 5.1598 1.0777 7.3089 2.099 3.6403 1.7293 9.1822 6.4693 13.083 3.139 3.5338-3.0201 4.4422-7.2838 9.5614-8.3552 2.4843-0.52002 5.0532-0.44481 7.5721-0.66411 2.4718-0.21308 4.8934-0.88659 7.3777-0.97119 3.0794-0.10367 3.6622 1.3033 5.8992 2.8571 1.2875 0.8929 2.5093 0.26317 3.6435-0.55762 0.99937-2.1272 2.5282-2.951 0.88348-5.3478z" fill="#cc2" />
   <path id="Anjaw" d="m207.96 199.54c0.12209-1.1372 0.28507-2.9856 0-4.0725-0.8709-3.3144-3.659-1.7575-5.9429-3.1422-3.7469-2.2682 3.3083-3.1609 2.4499-5.896-1.463 0.17852-2.2306-0.51694-2.146-1.9267 0.11608-1.9455 1.2468-0.81145 2.0677-2.1867 1.3565-2.2775-0.62033-4.5614 3.4555-4.7526 0.16902-0.95549 0.11261-2.03 0.0691-3.0388-3.4368-0.23812-3.7782-0.7331-6.4943-2.5752-2.1742-1.4756-5.0155-1.1372-7.1646-2.5627-0.81764-0.54199-1.0871-1.7668-1.9423-2.1303-0.88346-0.37285-2.7945 0.0259-3.7751 0.0172-3.9974-0.0406-3.1076-2.1773-5.4042-4.6366-0.64849-0.69549-1.8108-1.4975-2.7256-1.6448-2.0489-0.33208-2.0238 0.75503-3.2173 1.5727-1.6134 1.1059-4.3829 4.389-6.4379 4.3265-1.4693-0.047-4.7213-2.1867-6.0213-3.0639-1.698-1.1466-3.3052-3.0702-4.129-4.9562-2.6285-0.42914-3.0953 2.4969-5.2726 3.0921-1.7293 0.47303-3.659-0.401-5.0126-1.2688-1.6416-1.0495-2.3653-1.9862-3.1486-3.7593-1.3095-2.9637-0.6203-2.0989-3.7437-1.8639-4.7964 0.35707-2.807-5.9211-7.5188-5.0282-3.0921 0.58587-5.8522 2.359-8.471 4.0195-1.4818 0.93987-2.807 2.3809-4.5082 2.7851 2.3214 1.2437 2.0332 4.0005 1.5664 6.344-0.61406 3.0889-0.8114 6.2749-1.2562 9.3952-0.43861 3.0763-0.90539 5.6798-3.1641 7.9449-1.2469 1.25-3.518 3.0484-2.9228 5.097 2.3152 1.0526 4.5646 3.4992 5.7517 5.708 1.25 2.3246-1.0432 5.2067-1.0275 7.7725 0.0346 4.8592-5.3132 10.821-0.18197 14.633 2.951 2.193 6.8954 2.0395 9.6771 4.5424 2.4405 2.1961 4.0884 5.1442 6.1154 7.6942 1.322 1.6635 2.6973 3.3239 3.5902 5.2695 0.51381 1.1184 0.5263 2.5626 1.2155 3.5683 1.6416 2.3966 0.11581 3.2205-0.87717 5.351 0.64852-0.46992 1.2657-1.0025 1.8484-1.3503 2.6315-1.5695 3.6467-0.0907 5.9084 0.93359 1.792 0.81141 2.4092-0.83336 3.6372-1.6948 3.1045-2.1805 10.652-0.42296 14.032 0.62652 1.6823-2.1115 3.3176-4.1572 5.0941-6.2248 0.77693-0.90534 1.4286-3.1892 2.0113-3.7123 1.0119-0.90854 2.4279-0.52008 3.6248-0.67358 2.9168-0.37276 4.5957-0.82394 5.9522-3.1422 1.6823-2.8728 2.8571-4.7495 5.7958-6.9862 1.0182-0.7738 2.713-1.4912 3.446-2.4969 0.76756-1.0495 0.86468-1.9924 1.4818-3.0389 0.89604-1.5257 4.5145-4.7307 6.275-4.9657 3.5087-0.46678 2.453 4.9562 6.3722 3.3271 0.4323-2.5157-0.80511-5.4322-0.21913-7.7944 0.31328-1.2625 1.1028-1.7262 1.2876-3.4336z" fill="#e2b584" />
   <path id="Lower Dibang Valley" d="m97.511 156.99c-1.8421 0.0532-3.9568 1.2062-5.4699 1.5444-3.7155 0.82707-7.9446-0.10968-11.723-0.12502-3.4993-0.012-7.4091 2.2932-9.5801 4.9781-2.5282 3.1266-6.5727 2.926-9.978 1.319-3.6591-1.7262-4.9404-4.5614-7.359-7.5188-2.6347-3.2237-7.4437-1.2375-11.009-2.3778-4.433-1.416-8.7031-2.6002-12.845-4.7682-2.0551-1.0777-4.2983-2.0426-6.1966-3.3866-1.4787-1.0464-2.9418-2.4217-4.4549-3.4837 0.45427 1.0118 0.35085 2.1679-0.9179 4.251-1.3878 2.2807-4.7777 3.562-5.5827 6.0714-0.77696 2.4248-0.27585 5.6078 1.0495 7.7224 1.3502 2.1491 1.8859 6.3846 4.2168 7.6095 0.01148-0.012 0.02303-0.0202 0.03456-0.0288 0.13764-0.18803 0.27873-0.37593 0.42606-0.56396-0.14743 0.19148-0.28825 0.3791-0.42606 0.56396 0.48554-0.48247 1.1748-0.53261 1.6353-1.037 2.4687 1.2594 2.9136 4.3389 5.3164 5.6202 2.1303 1.1372 4.3734-0.61401 6.3941-1.1874 3.9349 4.8402 4.2888 10.564 4.6366 16.432-0.0406 3.1203-0.40414 6.2375-1.4787 9.1822-0.89599 2.4624-2.4812 4.5206-3.4932 6.9078-1.5131 3.5652-1.9862 9.0506 1.062 11.992 0.12238-8e-3 0.24129-0.0201 0.35718-0.0375-0.0087-0.0973-0.01147-0.19752-0.01147-0.29449l0.02879 0.29133 0.02879 0.30075 0.02303 0.11568 0.01147 0.012c0.01148-0.25684 0.0057-0.43232-0.03456-0.42293 1.7669-0.36338 2.8946-2.0457 4.0383-3.2957 1.3941-1.5225 2.9732-2.6566 4.505-4.01 1.4129-1.25 1.7355-3.8128 3.8407-4.0506 4.6709-0.52949 9.8027 0.20358 14.517 0.20358 5.0532 0 10.088 0.0406 15.128 0.4417 0.92107-1.4787 2.1554-3.3803 3.7155-4.0005-0.1034-1.8202 0.65162-2.9669 1.6134-4.4204 1.2438-1.8797 1.6166-4.1572 2.8133-6.0682 1.3972-2.2212 4.5646-6.4912 0.35715-7.691-0.36341-1.7168 0.36968-2.8759 2.1867-2.8008 2.6472 0.11288 3.0734 1.6134 4.7305 3.2361 3.2551 3.1799 6.8326-5.545 8.9285-7.594 1.0432-1.0213 3.042-2.6221 2.4906-4.3264-0.40728-1.2563-3.139-1.5977-1.7262-3.3959 1.3534-1.723 3.3239-2.6879 5.1379-3.8126 1.5727-0.97426 2.3903-3.2893 3.8284-4.439-0.61091-0.15692-1.1591-0.79263-1.8922-1.0934-1.2375-0.51067-1.8327-0.6203-3.3616-0.71118-0.65784-0.0406-3.4586 0.0231-3.6936-0.68924-0.05951-0.18198 0.26002-0.34147 0.30702-0.48556-0.07538-0.0627-0.15346-0.11888-0.22862-0.17218-0.03456 0.0564-0.06271 0.11261-0.08432 0.17218-0.54512-0.46994-1.1591-0.6579-1.8076-0.67671z" fill="#a3b0a3" />
   <path id="Upper Dibang Valley" d="m133.1 117.45c-0.37593-1.955-2.0332-4.3297-3.211-5.8834-1.3941-1.8358-3.966-2.6033-4.6366-4.7618-0.74564-2.3903-0.41039-4.79-1.3315-7.1428-1.1184-2.8603-1.9674-2.4593-4.5583-3.5715-0.11261-1.5696-0.4762-4.0506-0.0691-5.5859 0.50752-1.9048 3.7688-3.3585 3.4117-5.2758-3.1077 0.67982-4.1981 3.139-7.4719 3.3959-2.5407 0.2004-5.2536-0.37911-7.5188 0.47308-2.7349 1.0275-4.8119 2.6096-6.8076 4.6962-2.0708 2.1648-4.674 3.5776-6.4379 6.1027-1.6949 2.4279-3.2801 6.0495-5.3351 1.958-2.0395-4.0633 1.7011-2.5188 2.2838-5.708 0.3947-2.1523-2.0019-4.2669-2.5031-6.2657-0.85212-3.4054-0.33207-3.2456-4.0256-3.4932-0.87718-2.8164 3.7063-2.6973 5.2787-3.0702 3.609-0.8521 2.6441-2.7256 3.9098-5.097 2.5281-4.7305 10.395-1.8734 13.145-5.8833 1.5727-2.2901 2.7224-3.8157 2.9919-6.579 0.0532-0.542 0.31017-3.0233-0.0627-3.3835-1.4724-1.416-1.4348 0.89598-2.4342 1.2281-0.92106 0.30702-2.6253-0.53885-3.4682-0.07205-1.1028 0.61406-0.71117 2.2493-2.1773 2.8822-1.4254 0.61717-4.9686 0.02015-6.5321-0.07832 0.11888-0.61719-0.21624-1.4818-0.0942-2.099-4.0601 0.091-4.1508-5.3979-4.9594-8.2173-0.60775-2.1178-2.7537-3.7938-4.3921-5.3009-1.8734-1.723-3.3084-4.5018-5.0846-5.9493-1.0182-0.83017-1.8108-1.1998-3.374-0.93981-2.2838 0.37906-1.6165 1.1936-2.8977 2.6629-1.2626 1.4474-1.6855 0.98056-3.1391 1.864-1.3878 0.84272-1.3032 1.6573-3.0483 2.052-2.384 0.54201-5.5387-0.78632-7.7633 0.13789-1.2343 0.51376-1.8013 2.1115-2.8195 3.1641-0.21624 0.22243-2.4781 2.7757-2.6378 2.8383-1.1184 0.43233-2.1021-0.66104-3.3835-0.50124-2.0457 0.25376-1.6008 1.4536-3.1485 2.5126-1.0558 0.72364-2.381 0.5357-3.3677 1.369-0.85839 0.72679-1.8358 2.5877-2.6378 3.465-0.83334 0.91168-2.2337 3.6058-3.3772 3.9599-0.70489 0.21942-2.2838-0.60461-3.1327-0.65474-1.9518-0.11581-2.4186 0-2.8321 1.8797-0.44486 2.0175 1.6134 1.5852-0.93671 1.889-1.3377 0.15982-2.6253-1.0087-3.4618 1.0965-0.62968 1.5821 1.0307 2.3402 1.5946 3.6185 0.7456 1.6917 0.68298 4.1635 0.07832 5.9024-1.0526-1.3064-3.797-4.408-5.6611-2.9856-1.6698 1.2782-0.41353 5.5891-0.68923 7.3935-0.43861 2.8603-1.9893 5.423-4.6994 5.9525-2.4122 0.47308-5.3697-0.42293-7.5251-1.3314-1.3816-0.58268-2.2306-1.2312-3.7532-1.4881-0.9837-0.16585-2.6754 0.40416-3.6248 0.05964-0.68292 3.3144-2.2932 7.0644-1.7355 10.329 0.41036 2.3809 4.5675 3.5024 6.4975 4.0852 0.2508 2.5595 0.059601 7.074 1.4599 9.245 1.7951 2.7882 4.0979 5.1848 4.8338 8.5997 0.79573 3.6936-2.9355 5.9024-2.5157 9.2982 0.34152 2.7537 1.4944 6.6354 2.8697 9.0287 1.0432 1.8139 2.2087 2.7569 2.7067 3.8689 1.5131 1.0589 2.9761 2.4373 4.4549 3.4837 1.8985 1.344 4.1416 2.3089 6.1966 3.3867 4.1416 2.1711 8.4085 3.3521 12.845 4.7682 3.562 1.1372 8.3708-0.84591 11.009 2.3778 2.4186 2.9574 3.6968 5.7926 7.359 7.5188 3.4086 1.6071 7.4497 1.8107 9.978-1.319 2.171-2.6848 6.0809-4.9936 9.5801-4.9781 3.7811 0.012 8.0074 0.94922 11.723 0.12502 1.5852-0.35406 3.6622-1.6009 5.4699-1.5445 0.68299-0.0202 1.3315 0.11261 1.8922 0.49502 0.46051-0.73937 2.1679-1.037 2.8415-1.3941 2.0112-1.0683 6.9455-4.0852 7.6815-6.0213 1.0088-2.6472-1.3784-4.7117-3.725-4.7526 0.0846-2.9542 4.505-3.8189 6.9205-4.8779 2.2494-0.9868 6.8704-3.0544 7.9418-5.4103 1.1278-2.4844-1.5288-5.2131 0.11261-7.196 3.3115-4.0037 13.512-2.1554 11.93-10.351z" fill="#c2f0c2" />
  </g>
  <g>
   <path d="m2.0215 283.66 3.561-2.374 1.9783-0.39567 0.79132 1.5826 3.9566-0.79131 3.1653-2.374 0.79133-0.7913 2.7696-2.7696 4.3523 0.39567 4.3523 2.374h2.7696l8.7046 0.39565 3.9566-2.374 3.1653-2.374 2.7696-1.187 4.7479-2.7696 0.39565-2.7696 7.5176-3.9566v-2.7696l3.561-4.7479v-3.1653l2.7696-3.561 1.187-3.9566 0.79132-1.9783-0.79132-1.9783 1.9783-3.1653 2.7696-1.187h1.9783l4.3523 0.79132 2.374 1.187 4.3523-1.187 3.561 1.9783 5.9349 1.5826 5.9349-1.5826 8.3089-2.7696 1.187-3.561 3.9566-5.1436v-2.7696l4.3523-1.187 1.5826-3.5609 3.9566 1.5827-1.5826 3.5609h6.7262l-2.7696 8.3089 2.374 2.374 2.374 3.5609 1.187 2.7696-1.187 1.9783 5.5393 1.187 2.7696-2.374 4.3523-3.1653 3.9566-0.39568h3.1653l4.7479-2.7696-0.39566-3.1653 4.7479 2.374 5.1436-0.39568 5.5392-0.39563 4.3523-0.39567 3.561-2.7696 4.7479-1.9783 3.561-1.187 4.7479 1.187 3.9566 2.374 4.3523-0.79131 2.7696-1.187 3.1653 0.79133h7.5176l1.9783-2.374v-2.374l2.7696-2.374 3.5609-1.187 3.561-1.9783-0.39565-13.452 4.3523-9.1002 9.4959-4.7479 0.39566-6.3306h5.1436l5.1436-3.9566-2.7696-2.7696 2.7696-3.561-0.79133-6.7262-1.5826-1.187v-10.683l12.266-13.452-4.748-3.9566-0.7913-2.374-0.79133-3.561 4.748 0.39566h1.9783l1.5827-2.7696 4.3523 2.374 2.374-1.9783-3.9566-1.9783 7.1219-9.1002-1.187-3.5609-3.1653-3.561 1.187-1.5826-4.3523-1.9783-1.187-3.561-3.9566-0.39567-0.39568-2.7696 1.5826-1.9783-3.9566-3.1653 1.9783-3.9566 1.187-3.9566-1.5826-2.7696 0.79131-2.374 3.5609-1.5826-2.7696-2.7696v-5.1436l0.79131-5.9349 0.79134-5.9349 4.7479-5.9349" stroke-width=".5px"/>
   <path d="m248.91 169.71 3.1578-0.35086 6.3156 2.4561 4.9122-1.4035 1.4034 1.0526 6.3156-4.2104 2.1052-0.35088 3.5087 2.8069 1.0526-3.8595h4.5613l0.70174-2.8069 5.263 0.35086 2.8069-3.8595 3.1578 1.0526 1.0526 1.4035 9.4734 0.35086 5.263 2.1052 1.0526-2.8069 2.1052-0.70174h2.807l1.0526-1.7543 3.1578-0.35086 0.70172-2.8069 2.1052-3.1578v-2.1052l3.1578-1.0526 0.70174-2.807-0.70174-0.70173v-3.1578h2.4561l2.456 1.4035 1.7544-0.35088-0.35088-2.8069 2.807-0.35088 5.6138 1.4035 0.70174 3.1578 4.2104 1.0526 1.7543 2.4561 0.35088 3.1578 3.5086 4.5613h2.807l2.807-1.4035 1.7543 2.4561 3.5087 0.70173 6.6665 5.6139-2.4561 2.4561" stroke-width=".5px"/>
   <path d="m261.18 145.5 7.0223-0.33358 2.3408-1.401 5.0968 5.871 2.3408-0.70052 1.1704-1.0341 4.2662 5.1705-0.75506 3.8028-1.9632 3.1023 1.5479 5.871" stroke-width=".5px"/>
  </g>
 </g>
 <g fill-rule="evenodd" stroke-width=".25199">
  <ellipse cx="267.56" cy="59.549" rx="2.1181" ry="2.2241"/>
  <ellipse cx="366.42" cy="166.75" rx="2.1181" ry="2.2241"/>
  <ellipse cx="291.24" cy="160.08" rx="2.1181" ry="2.2241"/>
  <ellipse cx="261.22" cy="145.62" rx="2.1181" ry="2.2241"/>
  <ellipse cx="2.1159" cy="283.73" rx="2.1181" ry="2.2241"/>
 </g>
 <g fill="#000000" font-family="sans-serif" font-size="3.5278px" letter-spacing="0px" stroke-width=".26459" word-spacing="0px">
  <text x="4.3399434" y="289.29321" style="line-height:1.25" xml:space="preserve"><tspan x="4.3399434" y="289.29321" font-size="5.6445px" stroke-width=".26459">Itanagar</tspan></text>
  <text x="360.85522" y="174.53218" style="line-height:1.25" xml:space="preserve"><tspan x="360.85522" y="174.53218" font-size="5.6445px" stroke-width=".26459">Hawai</tspan></text>
  <text x="269.22437" y="65.553734" style="line-height:1.25" xml:space="preserve"><tspan x="269.22437" y="65.553734" font-size="5.6445px" stroke-width=".26459">Anini</tspan></text>
  <text x="261.44019" y="141.83865" style="line-height:1.25" xml:space="preserve"><tspan x="261.44019" y="141.83865" font-size="5.6445px" stroke-width=".26459">Roing</tspan></text>
  <text x="290.35284" y="154.29333" style="line-height:1.25" xml:space="preserve"><tspan x="290.35284" y="154.29333" font-size="5.6445px" stroke-width=".26459">Tezu</tspan></text>
 </g>
</svg>
