<!-- Created with Inkscape (http://www.inkscape.org/) -->
<svg width="207.1mm" height="151.62mm" version="1.1" viewBox="0 0 207.09966 151.62071" xmlns="http://www.w3.org/2000/svg" xmlns:cc="http://creativecommons.org/ns#" xmlns:dc="http://purl.org/dc/elements/1.1/" xmlns:rdf="http://www.w3.org/1999/02/22-rdf-syntax-ns#">
 <metadata>
  <rdf:RDF>
   <cc:Work rdf:about="">
    <dc:format>image/svg+xml</dc:format>
    <dc:type rdf:resource="http://purl.org/dc/dcmitype/StillImage"/>
    <dc:title/>
   </cc:Work>
  </rdf:RDF>
 </metadata>
 <g transform="translate(-1.5275 -63.182)" stroke="#fff" stroke-width=".5">
  <path id="Amravati" d="m158.32 72.772 0.48754-0.20643 0.73983 0.39575 0.6003 0.85075 0.0843 1.2656 0.31735 1.9997-0.13965 1.0286 0.0554 0.72264 0.16824 0.91 0.22364 0.87944 0.5716 0.455 0.45884 0.36517 0.6003 0.6347 0.22364 1.1184-0.0292 1.0285-0.31927 0.94059-0.084 0.94062-1.3478 1.2063-1.2637 0.57358-0.77809 0.08981-1.0304 0.30586-0.73987 0.20848-0.8909 0.20643-0.73984 0.05918-0.86224 0.08981-0.91764-0.149-1.17 0.12042-0.62706-0.06123-0.77617 0.17786-0.54294 0.11838-0.94636 1.3937-1.864-0.66339h-0.45885l-1.4052 0.05918-0.91764 0.02915-1.0859-0.08777h-1.0591l-1.0018 0.23705-0.88895-0.149-0.71118 0.26766-0.80488 0.11838-0.60032 0.03061-0.77807 0.08777-0.88901 0.36517-0.34601 0.54483-0.0292 1.1471 0.43013 0.69208 0.26183 0.94059 0.22568 1.1471 0.0554 0.60411 0.43016 1.2962 0.2907 1.2943 0.5716 1.3344 0.54294 1.0878 0.40342 1.0285 0.48748 0.91 0.86222 0.99986 0.59839 0.91003 0.31928 0.63278 0.45882 1.2656 0.3747 0.91-0.0843 1.604 0.0554 1.2962 0.2907 1.5428 0.16823 1.6614 0.43019 1.5734 1.3765 2.2349 0.73984 0.6328 1.5447 1.7206 1.0859 0.88137 1.3478 0.99794 0.91767 2.2961 0.83352 0.69205 0.59836 1.7206 0.11284 1.5122-0.0554 1.0878-0.13966 0.85079-0.13966 1.0877-0.22567 0.78197-0.45882 1.0878 0.11283 2.1164-0.83352-0.48558-0.48754 0.24841-0.48751 0.11836-0.77617 0.30779-1.1987 0.23705-0.83352 0.17786-0.91767-0.12047-0.60032-0.14723-1.1432-0.14723-1.4052-0.24667-0.80486-0.0592-1.2924 0.23704-0.73984 0.42444-0.77809 0.60223-0.43019 0.85264-0.65572 0.96926-0.48754 0.96927-1.321 1.1777-0.45885 0.85076-1.0572 0.91003-0.94633-0.11837-0.54294-1.0286-0.65575-0.9387-0.86218-1.0285-0.37473-0.0592h-1.0018l-0.68441 0.72265-1.1413 1.3248-0.60029 0.78195-1.6289 1.4243-1.17 0.51424-1.3478-0.75133-2.6039-0.455-0.57161-0.33648-1.2637-0.33647-1.2274-0.27729-1.9194-1.1184-1.0859 1.0285-0.19682-1.7818 0.25251-0.75133v-0.72077l-0.19681-0.63277-0.22568-1.4243 0.0843-1.3937-0.22363-0.78001-0.22568-0.93866 0.0292-0.60414-0.19681-0.57353-0.80486-1.6614-0.91764-1.0266-0.62707-0.85075-0.94633-1.147-0.86222-0.94062-0.40341-0.72266-0.43014-0.9387-1.321-0.82013-1.0018-0.96928-1.1432-0.78002-0.88899-0.17786-0.97309 0.11838-0.88899 0.11838-1.2637 0.42634-1.1413 0.11838-0.37472 0.17786-1.4339-0.14724-0.71115-0.27729-0.97313-0.23705-0.71118 0.36707-0.9731 0.60221-0.54293 0.17785-0.62706 0.17786-0.57165 0.0877-0.97309-0.20644-0.77807-0.3078-1.4893-0.60219-0.73985 0.17786h-1.4606l-0.97313 0.149-0.7781 0.0292-0.9731 0.0592h-0.54295l-0.37469-0.26562-0.51619-0.33651-0.45883-1.1471-0.3747-0.85265 0.05541-1.1471-0.31929-0.42439-0.83353-1.8793-0.45884-0.60414 0.65576-1.0266 0.31924-0.57353 0.65576-0.57355 0.22565-0.42634 0.08427-0.45497 0.0554-0.60225-0.68442-0.51425-0.73988-0.60414-0.19681-0.42441-0.19681-0.54483-0.05541-0.4837 0.19681-0.66338-0.02915-0.60414 0.83356-0.78002 0.346-0.57353 0.43017-0.39575 0.57162-1.0285 0.2907-0.78194-0.22364-0.93866-0.26183-0.6328 0.02915-0.78192 0.34606-0.99797 0.16824-0.69208 0.19681-0.91 0.34603-1.147-0.05746-1.1471-1.1987 0.05918-0.48752 0.36514-0.65573 0.39575-0.54295 0.39575-0.71119 0.24667h-0.91741l-0.86222-0.27904-0.7781-0.45313-0.2907-0.45693-1.4606-0.27524-0.51426 0.11838-0.73987 0.05918-0.54296 0.11838-0.40338 0.24842-1.0304-0.08777-0.73985-0.14724-0.57164 0.30589-0.7781 0.36517-0.68442 0.36514-0.2907 0.94059-0.43014 0.82016-0.57161 0.24667-1.4606-0.0592-0.68442 0.0898-1.6021-0.20847-1.1987-0.17786-1.0304 0.17786-1.3478-0.0592-1.4052-0.12042-0.80486-0.0575-1.4893-0.36706-2.3782 0.78191-0.37472-1.2675-0.31737-0.05918-0.51619-0.05918-0.57156-0.08981-0.88898-0.39572-0.54295-0.30589-0.51619-0.42442v-0.66339l0.19681-0.57353 0.08427-0.72267 0.08427-0.78002-0.2907-0.75133-0.86222-0.36703-0.54295 0.03061-0.37472 0.08777-0.73987 0.14724-0.68442 0.149-0.16824 0.36703-0.16824-0.75133-0.54295-0.33648-0.62704-0.23705-0.80486-0.42631-0.31926-0.42634v-0.66339l0.65573-0.66339 0.91767-0.72266 0.80483-0.99791 0.65576-0.57358 0.57161-0.66144 0.77813-0.78194 0.62704-0.82014 0.11284-0.85078 0.11284-1.0591v-0.97916l0.45883-1.0878 0.51426-1.0878 0.37472-0.99989 0.2907-0.94059 0.22568-0.82014 0.9731-0.63283 0.97499-0.42439 0.71119-0.87944 0.48752-0.94059 0.57164-1.2656 0.54292-0.99986 0.7781-0.20848 0.80486-0.149 0.9731-0.30589 0.7781-0.149 0.94633 0.08777 1.1414 0.149 0.94633-0.45503 1.321-0.82014 1.0859-0.72077 0.73987-0.36706 1.17-1.2063 0.9463-0.82017 1.17-0.87944 1.0591-0.72266 1.0304-0.72266 1.1433-0.54294 1.2637-0.20848 1.2924-0.02915 0.9731-0.17961 0.88898 0.14724 0.73988 0.27904 0.86221 0.54297 0.62707 0.42631 0.54292 0.54486 0.65576 0.11838 1.0859-0.42634 1.0572-0.42438 0.94633-0.11838 0.80487 0.11838 1.17-0.42442 0.31927-0.99986-0.22364-0.149-0.22568-0.455 0.43014-0.69397 0.83356-0.11838 0.89088 0.02915 1.7417-0.63283 1.1146 0.05918 1.0572 0.23705 1.0304 0.30781 0.89091-0.05918 1.3765-0.66146 0.88898-0.17786 1.0592-0.17786 0.91764 0.30592 0.43018 0.36706 0.48749 0.51428 1.3478 0.27729 1.17 0.94062 0.43015 0.36517 0.57161 1.1777 0.57162 1.4835 0.65575 1.2943 0.31737 1.1471 0.31927 0.72264 0.31926 0.88134 0.43014 0.96928-0.1414 0.94059 0.22568 0.54486 0.19681 0.36517 0.34603 0.17786 1.0304 0.85072 0.68442 0.48556 0.19681 0.54489-0.51426 1.0286-0.91767 0.54486-1.0859-0.11838-1.713-0.69208-1.4338-0.36517-1.0018-0.36703-0.86224-0.45311-1.17-0.36703-0.73985 0.08777-1.2273 0.63473-0.77813 0.72264-0.02915 0.69205 0.19681 1.0591 0.31736 0.69205 0.16824 0.8202 0.43014 0.48559 0.68442 0.78384 0.6825 1.0266 0.16823 0.39575 0.0262 0.69012 0.13966 0.78191-0.0554 0.60224 0.22568 0.66146 0.19681 0.88134 0.65572 0.57353 0.68442 0.11838 0.34603-0.11838 0.73988-0.54486 0.6003-0.54294 0.54295-0.33648 0.68442-0.03061 0.86222 0.24667 0.43014 0.60411 0.11284 0.72074 0.2907 0.42634 0.54295 0.54294 0.91767 0.05918 0.68441-0.17786 0.3747-0.42628 0.26183-0.96931 0.6003-0.33648 0.83352 0.02915 1.4893 0.48562 1.0018 0.42438 1.2924 0.69205 1.0572 0.39575 0.65573-0.02915 1.4052-0.82014 0.6825-0.36517 0.51618-0.20848 0.54293 0.08777 0.65575 0.06123 0.57162-0.54483 0.51429-0.77999 0.6003-0.54489 0.57161-0.05918 0.31737 0.17786 2.0036 0.63283 1.6575 0.149 1.4052 0.75133 2.1718-0.149 2.2291-0.85072 2.3496-1.3956 1.4606-1.3344 2.0035-0.60414 2.0322-0.85075 1.4893-0.60411 1.864-0.96928 1.2274-0.96928 0.25251-0.77999-0.14141-0.78194-0.48751-0.85075 0.45882-0.72264 0.68441-0.54294 1.2637-0.08981 1.1146-0.08981 0.97502-0.05918 1.0572-0.149 0.45885-0.39575-0.16824-0.42442-0.48754-0.48562 0.31738-0.42438 0.68441-0.11838h1.1433l0.73984 0.36517 1.0018 0.33645 1.4052-0.54484 1.321-0.45503 0.68441-0.30776 0.43016-0.30592 0.51425-0.60411z" fill="#c2f0c2"/>
  <path id="Buldhana" d="m49.591 95.135 0.16824-0.36703 0.68442-0.14724 0.73987-0.14724 0.37469-0.08981 0.54295-0.03061 0.86222 0.36703 0.2907 0.75133-0.08427 0.78002-0.08427 0.72266-0.19681 0.57352v0.66339l0.51429 0.42442 0.54292 0.30781 0.88898 0.36514 0.57164 0.12042 0.51426 0.05918 0.31926 0.05918 0.37472 1.2656h-0.19681l0.25221 2.1164-0.22364 1.7512-0.31926 2.0571v2.5407l-0.02915 3.2043-0.31737 2.2941 0.08427 1.1471-0.40145 1.2064-0.40341 1.3344-0.43015 0.60222-0.73987 0.72266-0.40335 0.42442-0.51429 0.82017-0.26183 1.1184 0.19681 0.96927 0.19681 0.78193 0.31737 0.85076 0.43015 0.78192 0.34603 0.85076 0.45884 1.0286 0.11284 0.72263-0.16824 1.0285-0.4856 0.96929-0.43207 0.60411-0.48749 1.2656-0.31737 0.66341-0.45881 0.69206 0.02915 0.99798 0.2525 1.3363 0.54295 0.72075 0.65573 1.2063 0.62707 0.88134 0.48753 0.45503 0.4875 0.78192 0.34603 0.72263 0.22568 0.39385-0.13966 0.33645-0.31926 0.0307-0.59841 0.0592-0.57161 0.24842-0.13966 0.33649 0.05541 0.48366 0.43015 0.85078 0.22568 0.26563 0.08427 0.57352-0.22568 0.48561-0.88898 0.39573-1.4052 0.57356-0.57161 1.2044-0.57164 1.365-0.2907 2.145-0.25221 3.5693 0.22568 0.90999 0.60033 1.3363 0.45884 0.60414 0.83352 0.60221 0.80486 0.57352 0.7781 0.75137 0.88898 0.72263 0.73984 0.54298 0.91767 0.82206 1.0285 0.78001 0.34603 0.5735-0.40146 0.42444-0.31926 0.36514-0.59841 0.48559-0.31926 0.48368-0.43015 0.63281-0.02915 0.45499 0.48749 0.54298 0.65576 0.30778 0.57164 0.11837 0.65573 0.12047 0.4875 0.91004-0.45884 0.72074-0.62707 0.48556-0.9731 0.30592-1.0572 0.72263-1.2274 0.27729-1.864 0.39573-0.73987-0.0592-0.68442 0.0592-0.7781 0.77998-0.13967 1.2656-0.34603 0.54294-0.62707-0.23704-0.65573-0.20848-1.1414-0.0292-0.51426 0.24667-0.45884 0.30586 0.73987 0.72075 0.51426 0.23704 1.0572 0.60417 0.65576 0.23706 1.1146 0.42631-0.16824 1.2656-0.05541 0.54488 0.57164 0.90999 0.97307 1.3249 0.2907 0.66145-0.40338 0.45503-0.59838 0.51426-0.34603 0.23704-0.57164 0.14901-0.73984 0.69209-0.34606 0.75135 0.2907 0.94059 0.05541 0.42438 0.37472 0.91004-0.02915 0.91003-0.19681 0.66338v0.17786l-0.62704 0.12047-1.3765 0.17786-0.71116 0.42442-1.1433 0.17785-0.73987 0.14901-0.59841 0.27729-1.1432-0.63277-0.88898-0.75135-0.48749 0.14723-0.71119-0.30588-0.62707-0.51427-0.65573-0.36707h-0.71118l-0.54295 0.0595-0.13954-0.23706 0.26192-0.39574 0.34603-0.51425 0.40338-0.78191 0.22559-0.51428-0.34603-0.75133-0.57164-0.23704-1.2637 0.14901-1.1146-0.0307-1.0018-0.0306-1.6288 0.57356-0.31734 0.75133-0.43017 0.88131-0.31926 0.24667-0.25236-0.3671-0.51619-0.82011-0.86221-0.51425-0.40338 0.12048-0.16827 0.23704-0.25236 0.75133-0.22559 0.75133-0.16824 0.20847-0.26192 0.455-0.05542 0.36514-1.3191 0.20848-0.62707-0.0592-0.59841 0.088-1.17-0.30585-0.34603 0.0592-1.4052 0.14901-0.57164 0.0877-1.0018 0.14902-0.5984 0.2773-1.1146 0.11836-1.0572 0.14901-0.83352 0.51428-0.31737 0.36514-1.321 1.0305-0.77617-0.36723-0.29061-0.96929-0.16824-0.85074-0.26192-0.30589-0.62704 0.96927-0.65573 0.60411-0.26192-0.11837-0.34603-0.30778-0.43015-0.60226-0.19693-0.36703 0.13955-0.90999-0.11287-1.2675-0.11287-0.72074-0.45884-0.66338-0.57161-0.4856-1.0018-0.48369-1.2924-0.30779-1.0304-0.3365-0.83355-0.39571-0.83352-0.54295-0.26192-0.39574 0.62707-0.88133 0.51426-0.7819-0.084148-0.94062-0.45884-0.39575-0.37472-0.66337 0.73987-0.60224 0.71119-0.60412 0.45884-0.23704 0.65573-0.66338 0.7781-0.75323 0.91764-1.237 0.6003-0.82016 0.51426-0.96927 0.51619-0.78192 0.62707-0.87942 0.34603-0.42633 0.71119-0.94062 0.62707-0.75134 0.34603-0.85071 0.11287-0.72263 0.02886-0.82018-0.11287-0.96927 0.37472-0.39575 0.4875-0.78002 0.34603-0.54487 0.05541-0.72074-0.34603-0.72266-0.71118-0.36707-1.1987-0.48366-0.73987-0.17786-0.37472-0.54294-0.62707-0.54489-0.6003-0.96926-0.77618-0.17786h-0.6271l-0.4875 0.42442-0.22559 0.36706-0.37472 0.96928-0.29061 0.51429-0.62707 0.57352-0.83353 0.17786-1.0304-0.36513-0.62707-0.27731-0.65573-0.11658-1.2274-0.0306-0.4875 0.36703-0.80486 0.36517-0.73987-0.0592-0.59841-0.42634-0.43014-0.54293-0.54295-1.4549v-0.85077l-0.028865-1.147 0.40338-1.4549 0.34603-1.1165 0.19693-0.82018 0.37472-1.4835 0.57161-0.82018 0.26192-0.85264 0.11287-1.3344 0.51618-1.0285 0.62707-0.88134 0.88898-0.88133 0.91767-0.6634 0.97309-0.54292 0.62707-0.78195 0.37472-0.75133 0.16824-1 0.45883-0.78-0.45883-1.0878-0.57164-1.1165v-0.51424l-0.29061-0.87943-0.2237-0.57352-0.37469-1.0304-0.22562-0.48368-0.16824-0.85076-0.37472-0.87942-0.59838-0.85076-0.43018-0.69205 0.16824-1.0878 0.80487-0.96927 0.77618-0.48563 0.86222-1.0591 0.71118-0.69205 0.45883-0.42632 0.51426-0.66148 0.51426-0.60411 0.34603-1.0286-0.11287-1.0878 0.31926-0.96925 0.40149-1.2064 0.02887-1.365 0.73987-0.99794 0.88898-0.78194 1.0018-1.2656 1.1433-1.0285 0.31734-0.36514 1.4893-0.8202 0.83355-0.33644 1.2637-0.94059 0.57161-0.66149 1.8066-0.39573 0.80486-0.0575 0.62707 0.69205 0.40148 0.63473 0.08415 0.57352 1.1433 0.27729 0.62707 0.72267 1.17 0.17786 1.0304 0.42441 1.6862 0.57353 0.80486-0.149 0.57164-0.54291 0.54292-0.72269 0.73987-1.7206 0.29061-1.2962-0.11287-0.78005 0.16824-1.0878h0.57161l0.43014-1.9386 0.83356-0.4531 1.1987-0.51618 0.97502-0.42441 1.1146-0.30589 1.1146-0.0592 0.73987-0.0592 0.86222 0.0592 0.45883-0.12043 1.0859-0.11838 0.94633-0.11838 1.1433-0.54487 1.0572-0.48558 0.86221-0.48559 0.73988-0.54294 0.45884-0.78194 0.51618-1.4549 0.22369-0.93869 0.2525-1.0591 0.45884-0.85075 0.86221-0.72266 0.43015-0.66146 0.19681-0.75136v-0.27729z" fill="#f0c2f0"/>
  <path id="Yavatmal" d="m115.31 141.09 1.0859-1.0286 1.9195 1.1165 1.2274 0.27903 1.2637 0.33649 0.57165 0.33457 2.6038 0.45498 1.3478 0.75135 1.17-0.51428 1.6288-1.4243 0.60032-0.78 1.1432-1.3248 0.68254-0.72075h1.0018l0.37467 0.0592 0.86222 1.0286 0.65575 0.93866 0.54296 1.0305 0.94634 0.11837 1.0591-0.91004 0.45879-0.85075 1.3192-1.1777 0.48749-0.96925 0.65575-0.96928 0.43015-0.85076 0.7781-0.60413 0.73989-0.42632 1.2924-0.23704 0.80483 0.0592 1.4052 0.24667 1.1432 0.14901 0.60029 0.14901 0.91767 0.11837 0.83352-0.17786 1.1987-0.23704 0.77806-0.30782 0.48754-0.11836 0.48749-0.24668 0.83355 0.48367-0.0292 1.3249-0.19681 1.2656 0.2907 1.7206 0.65575 0.88134 0.94633 1.1471 1.3478 1.0286 1.9481 0.91001 1.6002 0.66146 1.6288 0.23705 1.4606 0.42442 1.17 0.30589 0.94633 0.23908 0.83353 0.30782 1.0305 0.27728 1.17 0.45498 0.65575 0.36707 0.54291 0.54292 0.65578 1.0878 1.0859 0.9387 0.77808 0.45692 0.88898 0.11837 1.0018-0.17786 0.73984-0.0592 1.1432 0.36703 1.0304 0.91002 0.77811 1.0572 0.62704 1.1184 0.88898 1.3344 1.0304 1.2369 1.1987 1.4836 0.83352 0.60411 0.91766 0.36515 1.0572 0.17786 0.5716 0.12047 0.29071 0.0592 1.0304 0.36514 0.9731 0.77998 0.77812 0.42635 1.2924 0.72073 2.4356 0.94063 1.2637 0.33646 1.8067 0.85076 1.8353 1.3937 0.54294 0.60412 0.73984 0.96928 0.62705 2.0284 1.1146 0.99794 1.3478 0.72266 1.4338 0.91 1.0572 1.0286 1.0304 1.0285 0.57159 1.9385 0.48753 1.2656 0.1396 1.2063-0.0292 1.2656 0.0555 1.0897 0.0292 1.2369 0.0554 0.99794 0.37469 0.7208 0.54294 0.54293 0.51428 0.42437 1.4338 0.60417 1.17 0.33646 0.80486 0.33645-0.37473 0.36517-1.1987 1.2064-1.6575 1.0591-2.2941 1.453-1.3765 0.63279-1.4893 0.78191-1.4319 0.23706-1.1146 0.42634-1.3765 0.39575-1.0859 1.1776-0.80487 1.9386-1.1987 0.455-0.94632 0.0574-0.71119-0.0877-0.83356-0.30588-0.73983-0.23531 0.0292-0.30778-0.54297-0.42442-0.54295-0.17785h-0.54712l-0.94632-0.0592-0.86028-0.0306-0.37473-0.0292-0.43016-0.24841-0.25221-0.33648-0.71117-0.20847-0.629-0.24667-0.29069-0.0592-1.17 0.6022-0.71118-0.0592-1.0304-0.30587-1.0018-0.42633-1.0859-0.30588-1.0018-0.3078-1.4052-0.24668-1.1432-0.17785-0.91765-0.39572-0.62708-0.20644-1.0572-0.17961-1.0018-0.0592h-0.80486l-1.321-0.17786-0.88894 0.0574-0.68447 0.0592-0.8622 0.14901-1.4338 0.0292-0.94633 0.0592-1.1433-0.17786-0.97309-0.30781-0.97309-0.11837-0.65575-0.42628-0.86222-0.9693-0.34604-0.63278-0.73986-0.6328-0.83353-0.20643-1.2274 0.51428-0.0292-1.3249-0.54294-0.60413-0.43016-0.54485-0.43015-0.63281-0.91764-0.54489-0.45882 0.14901-0.51431 0.36517-0.3747 0.72263-0.60032 0.96928-0.51425 0.42634-0.73984 0.20643-0.88898-0.14723-0.94633-0.0592 0.0554-0.72267 0.0843-0.91001 0.73984-0.42444 0.16824-0.85072-0.2525-0.51426-0.83352 0.39574-0.80487 0.30781-0.77812 0.60216-0.54294 0.0592h-0.65575l-0.94633-0.3671-0.77809-0.11837-1.1432 0.17786-0.68441 0.54486-0.71121 0.60222-1.1146 0.33647-0.71121-0.51428-0.83352-0.36706-1.17-0.66339-1.3191-0.36513-0.60032 0.11836-0.86032 0.30779-0.62706 0.0877-0.71117 0.0877-0.60033-0.17786-1.0017 0.30589-1.2274 0.36517-1.1987 0.12047-1.1987 0.90999-1.0018 0.72076-1.0859 1.4529-1.0572 1.0878-0.65578 0.96931-0.31925 0.8488 0.2907 1.3956 0.3747 1.2369 0.16824 0.82018 1.0859 1.2063 0.9731 0.66342 0.97309 0.48365 0.94637 0.11836 1.0304 0.4856 1.6288 0.23704 1.17 0.24842 1.2274 0.33455 0.80486-0.0292 0.94633 0.42445 0.77809 0.54292 1.0304 0.60416 1.1146 0.30585h1.0304l0.7781-0.36703 0.83355-0.11837 0.86221-0.17961 1.0859-0.0595 0.83355 0.27728 0.80486 0.14901 0.51425 0.42442 0.43016 1.5141 0.31927 0.6328 0.16824 1.0591-0.2907 0.60221-0.19681 0.85266-0.2907 0.60224-0.68441 0.60219-1.0572 0.66145-0.51425 0.30782-0.40342 0.45503-0.9731 1.4242-0.40339 0.91001-0.51425 0.48558-0.86221 0.91005-0.62709-0.24667-0.9731 0.17788h-0.54294l-1.0018-0.17788-0.88897-0.14901-0.54294 0.20847-0.26184 0.11837-0.31927 0.42441-0.62706 0.85072-0.62708 0.30588-0.51425-0.11836-0.94633-0.48563-0.4015-0.36703-0.91764-0.63091-0.57163-0.48558-0.51428-0.48562-0.48751-0.48558-0.51617-0.17787-0.86225-0.27729-0.77806-0.11836-0.88901 0.11836-0.88895 0.30591-0.51427 0.17785-0.43016 0.30589-0.48751 0.60221-0.11284 0.7819 0.0292 0.60224-0.0554 0.48557-0.26183 0.96929-0.34604 0.48558-0.26184 0.42442-0.83355 0.42441-0.80484 0.17786-0.80486 0.12047-0.88898 0.17786-0.7781 0.14901-0.43017-0.0306-0.97307-0.11837-1.17 0.33645-0.71119-0.75133-0.31736-0.54486-0.0554-0.72074 0.37469-0.78191 0.51426-0.36513 0.6003-0.11837 0.83356-0.0595 0.59841 0.0595 0.68439-0.14901 0.6003-0.20645 0.40341-0.27728-0.43017-1.2943-0.51619-0.455-0.77808-0.93869-0.22363-0.57356-0.25251-1.1777 0.0292-0.30587-0.25221-0.51619-0.59838-0.57352-0.48749-0.11837-0.34603 0.0592-0.80487-0.14901-0.68252 0.0307h-0.57162l-0.83352-0.54296-0.37472-0.455-0.0292-0.23706 0.084-0.87941 0.19682-0.72266 0.25221-0.99798-0.31737-0.57352-0.43204-0.48559-0.73988-0.36705-0.91767-0.30591-0.80483 0.11837-1.1146-0.42438-0.88898-0.48561-0.94634-0.78002-0.65573-0.54484-0.86224-0.66342-1.0304-0.24667-1.1146-0.3651-1.1987 0.0292-0.94633-0.20644-0.22568-0.72078-0.19681-0.36704-0.0554-0.20644-0.37468-0.51431-0.40341-0.6041-0.2907-0.48556-0.31929-0.42445-0.51619-0.36517-0.77807 0.0292-0.31737-0.0292-0.80486 0.24667-0.71118 0.42442-0.45884-0.42442-0.22568-0.66338 0.80486-1.0305 0.2525-1.0878 0.08427-0.42442-0.2907-0.78195-0.2525-0.85071-1.0304-1.0878-1.5734-0.96928-0.94636-0.78005-0.6003-0.72263-0.26183-1.3249-0.51429-0.88134-0.43015-0.4531-0.16824 0.36517-0.08427-1.2063 0.57162-0.6041 0.34605-0.48566 0.43015-0.51425 0.57161-0.39574 0.59841-0.66148 0.43015-0.57354 0.43014-1.2369 0.22568-1.6308-0.16824-1.365v-1.1776l-0.14141-1.2962 0.57161-0.36517 0.62707-0.11837 0.80486-0.0877 0.83356-0.0306 1.1145 0.51431 1.3211 0.75131 0.91764-0.0877 1.3478-0.17787 0.88898-0.23704 1.1432-0.3365 0.91767 0.14901 0.86029 0.23704 0.60031 0.3671 0.73984 0.6328 0.73988 0.82013 1.0572 0.4837 1.6862 0.48558 1.1432-0.30589 0.83355-1.2063 0.9731-1.5715 0.68442-1.147 0.57161-1.8487-0.0843-1.5428-0.73987-0.45693-0.86222-0.0877-0.54295-0.42441 0.0292-0.66335 0.40338-0.60417 0.43017-0.51427 0.40338-0.57354 0.19681-0.72075-0.51426-1.0878-0.40341-0.23908-0.65573-0.60412-0.80486-0.60221-0.7781-0.72267-0.54296-0.78001-0.51618-1.7512-0.48753-0.69207 0.22568-1.6021 0.26184-0.96931 0.34602-1.5715 0.80487-0.78191 0.91767-1.1165 1.2637-0.75323 0.57164-0.91003 0.4875-1.0285v-1.0783l-0.0554-1.4549-0.0292-0.6041-0.19682-1.2962 0.0843-1.1758 0.22568-0.42443z" fill="#cc2"/>
  <path id="Akola" d="m58.512 162.02 9.7942-11.067 2.7816 0.36513 1.5734-2.3247 0.77807-2.3248h4.7201l3.9516 2.7205 2.753 1.9386 1.9749-1.1471 0.40338-4.2919-0.40338-4.2918-0.40338-3.8676 2.7816-2.7204 7.4731 0.39382 7.0984 0.39573 5.9284 0.36516 1.17-4.2326 1.17-3.9574-0.94632-1.147-0.86225-0.93866-0.40338-0.7227-0.43015-0.93869-1.321-0.82013-1.0018-0.96929-1.1414-0.78191-0.89088-0.17786-0.9731 0.12043-0.88898 0.11838-1.2637 0.42441-1.1432 0.12043-0.37469 0.17786-1.4319-0.149-0.71119-0.27729-0.97502-0.23705-0.71118 0.36514-0.97503 0.60417-0.54292 0.17787-0.62707 0.17785-0.57164 0.0877-0.9731-0.20644-0.7781-0.30592-1.4893-0.60411-0.73987 0.17786h-1.4606l-0.9731 0.14725-0.7781 0.0306-0.97306 0.0592h-0.54296l-0.37472-0.26766-0.51429-0.33648-0.45881-1.1471-0.37472-0.85075 0.0554-1.1471-0.31737-0.42438-0.83352-1.8793-0.45884-0.60225 0.65573-1.0304 0.31737-0.57353 0.65573-0.57352 0.22364-0.42634 0.08427-0.45308 0.0554-0.60414-0.68442-0.51427-0.73984-0.60222-0.19681-0.42442-0.19681-0.54486-0.05541-0.48559 0.19681-0.66146-0.02915-0.60414 0.83352-0.78194 0.34606-0.5735 0.43012-0.39575 0.57164-1.0286 0.2907-0.78001-0.22568-0.94059-0.26183-0.63278 0.02915-0.78194 0.34603-0.99794 0.16824-0.69208 0.19681-0.91003 0.34603-1.1471-0.0554-1.147-1.1987 0.05918-0.4875 0.36706-0.65575 0.39575-0.54296 0.39572-0.71118 0.24667h-0.91767l-0.86218-0.27729-0.7781-0.45497-0.2907-0.45503-1.4606-0.27729-0.51616 0.11838-0.73988 0.05918-0.54292 0.11838-0.40148 0.24667-1.0304-0.08777-0.73987-0.14724-0.57164 0.30589-0.77807 0.36517-0.68442 0.36703-0.2907 0.94062-0.43015 0.82013-0.57164 0.24667-1.4606-0.0574-0.68442 0.0878-1.6021-0.20848-1.1987-0.17786-1.0304 0.17786-1.3497-0.0592-1.4051-0.11838-0.80489-0.0592-1.4893-0.36514-2.3783 0.78002h-0.19681l0.2525 2.1183-0.22568 1.7493-0.31737 2.0571v2.5427l-0.02915 3.2043-0.31734 2.2941 0.08427 1.1471-0.40148 1.2044-0.40338 1.3363-0.43015 0.60414-0.73984 0.72264-0.40148 0.42441-0.51429 0.82017-0.26183 1.1165 0.19681 0.96928 0.19681 0.78194 0.31734 0.85076 0.43017 0.78192 0.34603 0.85071 0.45883 1.0266 0.11284 0.72266-0.16824 1.0285-0.48752 0.9693-0.43015 0.60412-0.4875 1.2656-0.31926 0.66148-0.45884 0.69207 0.02915 0.9999 0.2525 1.3363 0.54295 0.72076 0.65573 1.2063 0.62707 0.88133 0.48749 0.45311 0.4875 0.78192 0.34606 0.72073 0.22364 0.39575-0.14141 0.33645-0.31926 0.0307-0.59838 0.0592-0.57164 0.24667-0.14141 0.3365 0.05541 0.48561 0.43017 0.85073 0.22568 0.26767 0.08427 0.57353-0.22364 0.48557-0.88898 0.39577-1.4052 0.57352-0.57164 1.2063-0.57161 1.365-0.2907 2.145-0.2525 3.5693 0.22568 0.90999 0.59838 1.3344 0.45883 0.60413 0.83352 0.60411 0.80486 0.57352 0.7781 0.75137 0.88898 0.72263 0.73988 0.54295 0.91767 0.82016z" fill="#f9d3c6"/>
  <path id="Washim" d="m84.841 151.32 1.9768-1.1471 0.40146-4.2939-0.40146-4.2918-0.40341-3.8676 2.7816-2.7205 7.4731 0.39575 7.0984 0.39573 5.9284 0.36708 1.17-4.2327 1.17-3.9554 0.62707 0.85074 0.91767 1.0285 0.80483 1.6614 0.19681 0.57354-0.0291 0.60217 0.22568 0.94063 0.22567 0.78005-0.0843 1.3956 0.22567 1.4243 0.19682 0.63278v0.72265l-0.25251 0.75132 0.19682 1.7799-0.45881-0.54295-0.22364 0.42445-0.0843 1.1776 0.19681 1.2962 0.0292 0.60412 0.0554 1.453v0.96927l-0.4875 1.0286-0.57161 0.91-1.2637 0.75325-0.91767 1.1165-0.80486 0.78191-0.34603 1.5734-0.26184 0.96924-0.22567 1.604 0.48749 0.69205 0.51426 1.7512 0.54295 0.78001 0.77813 0.72264 0.80484 0.60413 0.65576 0.60223 0.40146 0.23704 0.51429 1.0897-0.19682 0.72072-0.4034 0.57352-0.43015 0.51431-0.40338 0.60411-0.0292 0.66147 0.54296 0.42441 0.8622 0.0898 0.73988 0.45503 0.084 1.5428-0.57162 1.8506-0.68444 1.1471-0.97308 1.5734-0.83355 1.2044-1.1413 0.30778-1.6862-0.48368-1.0591-0.48556-0.73985-0.82019-0.73984-0.63281-0.60033-0.36513-0.86222-0.2391-0.91764-0.14723-1.1414 0.33648-0.88895 0.23706-1.3478 0.17786-0.91767 0.0898-1.3211-0.75322-1.1146-0.51431-0.83353 0.0307-0.80487 0.0877-0.62706 0.11837-0.57162 0.36706 0.13966 1.2943v1.1777l0.16824 1.3631-0.22568 1.6327-0.43017 1.2369-0.43015 0.57349-0.6003 0.6634-0.57162 0.39575-0.43014 0.51431-0.34606 0.48556-0.57161 0.60221 0.08427 1.2063 0.16824-0.36511-0.16824 0.36511-0.68442-0.11837-0.40338 0.23706-0.57161 0.24667-0.71119 0.27904-0.34603 0.0292-0.48752-0.17786-0.22568-0.33645-0.45881-0.82016v-0.54487l-0.73987-0.9387-0.68442-0.51424-0.73987-0.0877-0.51427 0.27728-0.45883 0.48558-0.37469 0.48559-0.71311 0.42442-1.3478 0.42445h-1.17l-0.80483-0.17788-1.0859-0.85074-1.7149-1.0285-0.59838-0.36515-1.4338-1.453-0.71118-0.48558-0.71119-0.72267-0.94633-0.0292-1.4606 1.4243-0.57164 0.0306-0.73988-0.51429-0.77807-0.11837-1.5734 0.82017-1.1146 0.24667-1.4893 0.87941-0.83355 0.17961-0.9463-0.20847-0.7781-0.51425-0.62707-0.36516-0.54295 0.27728-0.19681 0.57356-0.94633 0.6041-0.48753 0.27729-0.73984 0.20847h-0.4856l-0.54295 0.60222-0.31926 0.54486-0.71118 1.0878-0.62704 0.91006-0.34606 0.23908-0.88898 0.48557-1.5734 1.453-1.1987 0.72077-0.71118 0.42628-1.4338 0.17786-0.34606-0.17786 0.19681-0.66335 0.02915-0.91001-0.37469-0.90999-0.05745-0.42445-0.2907-0.93869 0.34603-0.75133 0.73984-0.69207 0.57164-0.14901 0.34603-0.23706 0.6003-0.51617 0.40146-0.455-0.2907-0.66152-0.9731-1.3248-0.57161-0.91002 0.05541-0.54484 0.16824-1.2656-1.1146-0.42633-0.65573-0.23706-1.0572-0.60413-0.51616-0.23704-0.73988-0.72267 0.45884-0.3078 0.51426-0.24666 1.1433 0.0292 0.65576 0.20847 0.62707 0.23706 0.34603-0.54488 0.13967-1.2656 0.77618-0.78191 0.68442-0.0571 0.73987 0.0571 1.864-0.39577 1.2274-0.27728 1.0591-0.72074 0.9731-0.30589 0.62707-0.48559 0.4588-0.72263-0.48749-0.91006-0.65576-0.11837-0.57158-0.11836-0.65576-0.30586-0.4875-0.54487 0.02915-0.455 0.43015-0.63087 0.31926-0.48561 0.6003-0.48559 0.31737-0.36514 0.40338-0.42634 9.796-11.067 2.7816 0.36706 1.5734-2.3247 0.77807-2.3248h4.7201l3.9516 2.7205z" fill="#e2b584"/>
 </g>
 <g fill="none" stroke="#000">
  <path d="m192.09 42.274-4.179-0.71641-4.4178 1.4328-7.2835 0.2388-1.194-0.3582-10.507 0.4776-2.0298-1.3134h-2.985l-1.6716 0.95521h-1.791l-1.5522-1.194-2.6268-0.4776-2.6268 0.1194-1.194 0.71641-2.0298-0.1194h-3.8208l-5.1343 2.985h-1.0746l-2.1492 1.194-2.5074-0.59701-11.94 5.1343h-1.4328l-1.6716 0.4776-2.0298-0.3582-0.83582-0.3582-2.8656 3.7014 0.83581 2.1492-6.0895 9.3133-2.8656 1.4328-3.3432 3.8208-0.71641 0.95521-2.8656 1.4328-2.5074 4.4178-4.0596 2.1492 0.71641 4.2984 1.791 1.5522-1.5522 2.1492-2.0298 1.0746-1.791 0.1194-1.6716 1.5522h-1.3134l-1.194 1.0746-4.6567 2.5074 0.1194 0.95521-2.388 7.8805 0.3582 1.5522-2.1492 2.388v1.194l-3.2238 3.2238" stroke-width=".28895px"/>
  <path d="m192.09 42.274-0.92921 3.6007-0.58076 3.2523-1.3938 3.833-1.8584 4.1815-2.9038 1.9746-1.8584 1.51h-1.6261l-1.2777 0.46461-1.6261 1.0454-3.6007-0.34846-1.1615 0.58076-3.833 0.2323-0.81308 0.34845-1.1615 2.323-1.9746 1.6261-2.9038 1.7423-1.9746 1.7423-1.6261 1.51-1.0454 1.6261-0.81307 0.69691-1.3938 0.34846h-0.46461l-1.7423 2.323-2.6715 2.4392-1.1615 2.4392-0.92921 1.7423-2.323 4.5299-1.214-0.1402-3.5232 2.0679-3.2934 0.76591-2.4509 0.91909-2.3743 0.15318" stroke-width=".28109px"/>
  <path d="m102.42 67.109-4.0127-0.25079-4.3888 1.1286-2.1317 1.0032-1.5048 0.62698-2.5079-0.25079-1.8638 0.45961-1.2026 1.0933-2.7333 0.76533-2.4053-1.312-1.4213 0.10934-2.952-0.54666-2.624 0.76533-3.28 1.0933-1.7493-0.76533-3.3893 0.21866-5.6853 1.8587-0.98399 0.328-2.8426-1.4213h-0.87465l-0.984 0.21867-0.76532 0.87466h-6.4506l-4.1546-2.4053-1.0933 3.4986-0.43733 1.64-0.21867 3.8266-0.76533 1.8587-3.0613 2.4053-0.43733 1.7493-7.8719 0.76533" stroke-width=".26458px"/>
 </g>
 <ellipse cx="192.07" cy="42.674" rx="1.498" ry="1.5564" fill-rule="evenodd" stroke-width=".3461"/>
 <path d="m69.938 111.4-6.6285-7.3926-1.4049-1.5821-4.4956 1.1075-2.9503 2.3731-2.7686-0.5524-10.884 1.7809-2.4186 0.41903-2.2326 1.3618-3.0698-1.7809v-3.1427l-1.2093-1.3618-2.3256-1.2571-2.8838-1.6761-0.09308-1.7809 0.74419-1.6761 0.37211-0.7333h0.74419l-0.55815-3.9808 0.65118-1.6761 0.27907-0.10477 0.78627-3.4564" fill="none" stroke="#000" stroke-width=".29519px"/>
 <path d="m133.59 91.803-2.1815-0.21563-1.382 1.0017-3.4019 0.1113-0.38288 0.88835-1.2181-0.12753-0.54815 0.76517-1.888 1.4028-1.7662-0.76517-4.6896-0.25506-1.5226 0.95646-3.2279 1.6579h-0.54813l-0.73084 0.31882-1.2181 0.12753-1.0354 0.19129-1.5835 0.19129-1.7053 0.25505h-0.60904l-0.42633-0.63764-3.6542 0.25506-2.3144 0.25505-2.3753-2.4868h-3.2279l-1.6444 0.82893-0.66994 0.76516-3.167-0.12753-3.7152 1.5941-0.97447 0.57388-0.18271 1.4666 0.18271 0.82894 1.0354 1.6579-0.30452 0.82892-0.30452 0.38259-1.5226 0.57389-0.79175 0.51011-1.5835-0.12752-2.1316 1.6578-0.79176 1.2115-0.18271 0.70141-2.558 2.5506-2.7055-0.18866" fill="none" stroke="#000" stroke-width=".30349px"/>
 <g fill-rule="evenodd" stroke-width=".3461">
  <ellipse cx="26.902" cy="86.697" rx="1.498" ry="1.5564"/>
  <ellipse cx="70.259" cy="111.38" rx="1.498" ry="1.5564"/>
  <ellipse cx="57.141" cy="72.912" rx="1.498" ry="1.5564"/>
  <ellipse cx="111.17" cy="56.904" rx="1.498" ry="1.5564"/>
  <ellipse cx="133.73" cy="92.044" rx="1.498" ry="1.5564"/>
 </g>
 <g font-family="sans-serif" font-size="3.5278px" letter-spacing="0px" stroke-width=".26458" word-spacing="0px">
  <text x="176.6895" y="46.8377" style="line-height:1.25" xml:space="preserve"><tspan x="176.6895" y="46.8377" stroke-width=".26458">Nagpur</tspan></text>
  <text x="114.83265" y="56.946228" style="line-height:1.25" xml:space="preserve"><tspan x="114.83265" y="56.946228" stroke-width=".26458">Amravati</tspan></text>
  <text x="133.19159" y="96.903908" style="line-height:1.25" xml:space="preserve"><tspan x="133.19159" y="96.903908" stroke-width=".26458">Yavatmal</tspan></text>
  <text x="75.05497" y="112.383" style="line-height:1.25" xml:space="preserve"><tspan x="75.05497" y="112.383" stroke-width=".26458">Washim</tspan></text>
  <text x="55.256119" y="69.365501" style="line-height:1.25" xml:space="preserve"><tspan x="55.256119" y="69.365501" stroke-width=".26458">Akola</tspan></text>
  <text x="17.278332" y="82.684723" style="line-height:1.25" xml:space="preserve"><tspan x="17.278332" y="82.684723" stroke-width=".26458">Buldhana</tspan></text>
 </g>
 <path d="m74.02 15.196 3.5986 3.9258 1.7084 1.2359-0.10905 0.98145-0.61794 0.727-3.9621 1.6357-1.1995 0.727-1.3813 0.3635-1.5267 0.10905h-1.5994l-1.1632 0.47255-1.2359 1.2722-0.7997 0.90874-0.83604 1.3813-0.54525 0.7997-0.69066 1.2722-0.69064 0.90875-1.0541 1.1268-0.7997 0.9451-1.2359 0.90875-0.69066 1.0178-0.14546 1.2722-0.2181 1.4903-0.47254 1.5994 1.3813-0.10905 1.2722-0.2181 1.7084-0.2181 1.3813-0.3635 1.2722-0.10905h1.5994l1.0542 0.5816 2.7262-0.69065 0.7997-0.25445 0.58159-0.32715 1.5994-0.69065 2.0719 0.10905 1.5994-1.1268 1.7448-0.47255v-0.5816l0.32715-1.2722 0.10905-1.2359-0.2181-0.7997h1.0541l1.0178-0.5816 0.79969-0.90875 1.4903-0.9451 1.9629-1.8175 1.3813-1.2722 1.5994-1.0178 1.4903-1.0541 0.79971-0.4362 0.69064-0.69065 0.90876-0.47255 2.0719-0.69065h1.2722l1.3813 0.10905 1.7084 0.9451 0.69064 0.69065-0.47254-1.2722-0.4362-0.90875-1.0541-0.69065-1.0178-0.5816-0.79969-0.5816-0.10905-1.1632h1.0178l0.61794-0.25445-0.07264-0.4362 0.94511 0.3635h0.79969l0.58159 0.32715-0.39984-1.563-0.2908-0.4362-0.32715-0.18175-0.25446-0.25445-0.61794-1.0541h-0.61795l-1.1269-0.32715h-1.8175l-0.4362-0.10905-0.36349-0.32715-0.18176-0.61795-0.18174-0.69065 0.29079-0.3635 0.5816-0.5089h0.98145l0.8724-0.61795 0.94509-0.4362 0.94509-0.5089 0.72699-0.18175h1.8175l0.4362-0.4362h1.9993l0.0726-0.25445 1.1268-1.2359 0.54524-0.5089-1.0541-0.4362-0.8724-0.25445-0.76335-0.25445-1.0541-0.10905h-2.4354l-2.1083 0.54525-1.454 0.32715-0.54525 0.25445h-0.94505l-1.0541 0.4362-0.69066 0.2908-0.50889-0.10905-0.727-0.25445-0.83604-0.25445-1.3086-0.25445-1.0541 0.072694-1.2359 0.25445-0.76335 0.4362-0.98143-0.25445-0.8724 0.18175-0.83606 0.76335-0.79969 0.61795-0.50889 0.69065-0.8724 0.8724-1.1269 0.4362-1.3086 0.3635-0.79969 0.4362-1.1995 0.25445-0.98145 0.5089-0.4362 0.61795z" fill="green" stroke="none" stroke-width=".47255px"/>
 <text transform="rotate(-33.155)" x="35.863689" y="68.154617" fill="#000000" font-family="sans-serif" font-size="3.5278px" letter-spacing="0px" stroke-width=".26458" word-spacing="0px" style="line-height:1.25" xml:space="preserve"><tspan x="35.863689" y="68.154617" font-size="2.8222px" stroke-width=".26458" fill="#fff">Melghat tiger reserve</tspan></text>
</svg>
