<svg width="206.57mm" height="217.64mm" version="1.1" viewBox="0 0 206.57306 217.64026" xmlns="http://www.w3.org/2000/svg" xmlns:cc="http://creativecommons.org/ns#" xmlns:dc="http://purl.org/dc/elements/1.1/" xmlns:rdf="http://www.w3.org/1999/02/22-rdf-syntax-ns#">
 <metadata>
  <rdf:RDF>
   <cc:Work rdf:about="">
    <dc:format>image/svg+xml</dc:format>
    <dc:type rdf:resource="http://purl.org/dc/dcmitype/StillImage"/>
    <dc:title/>
   </cc:Work>
  </rdf:RDF>
 </metadata>
 <g transform="translate(-1.4706 -24.516)" fill="none" stroke="#fff" stroke-width=".5">
  <path fill="#c2b0c2" id="Nagpur" d="m85.364 24.517 0.82176 0.47352 0.57113 0.53933 0.69652 0.7347 1.0808 0.67097 1.2995 0.60303 1.0192 0.70287 1.5904 0.03401 1.7475-0.19754 1.2676 0.13147 1.1742-0.26328 1.0808-0.27397 1.1126-0.53933 0.8642-0.19754 1.2677-0.19754 0.8939 0.13149 0.9258 0.40558 0.29081 0.40769 0.53936 1.1424 0.66673 1.308 0.32287 1.1084 0.21859 0.83448 0.18686 0.76867 0.95763 1.274 0.50963 0.70283 0.35458 0.50536 0.0615 0.40768 0.24839 1.4715-1.0829-1.5819-0.47773 1.5819-0.72835 0.86848-0.86421 1.1423-0.76015 1.0107-0.5712 0.7347-0.29081 0.86845-0.12533 1.274-0.0615 0.94491 0.50963 1.2082 0.60302 0.94491 1.206 0.80261 0.69649 0.57116 0.9258 0.63706 1.5606 1.55 1.1764 1.3398 0.60306 1.2401 0.28013 1.7135v1.3398l-0.0933 1.4057v1.4056l-0.18686 0.80054 0.0324 1.274-0.21859 1.5819-0.28045 1.5819v1.274l0.25066 1.4736-0.0324 1.3058 0.38431 1.1084 0.29081 1.0765 0.47779 1.1402 0.44801 0.86845 0.89393 1.1084 0.66676 1.1105 0.98736 1.1764 0.72829 1.0426 0.15706 1.8134-0.15706 1.342-0.21859 1.3738-0.0615 0.30571 0.12533 1.4057-0.15706 1.3738-0.44593 0.671-1.1445 0.33971-1.4673 0.77081-0.95764 0.97674-0.66672 1.3738-0.63489 1.8112-0.20823 1.3207-0.25066 1.0765-0.47773 1.274-0.4162 1.1424-0.41617 0.73467-0.44804 1.5819-0.47773-0.60306-0.38437 0.22928-0.24838 0.66886-1.0808 1.1105-0.66673 0.91094-0.69649 0.80047-1.2379 0.19949-0.9874-0.13147-0.41617-0.66884-0.50963-0.47352-0.8642-0.76864-1.2061 0.16548-0.69646 1.2082-0.47776 1.5161-0.3843 0.83447-1.945 2.1212-1.7794 1.4057-0.54143 0.13375-0.76015 0.22928-0.54146 0.34188-0.66673 0.34185-0.78988 0.50535-0.15706 1.0447-0.69649-1.3399-0.98736-1.0766-1.1742-0.9449-1.3313-1.0766-1.4354-1.0107-1.8409-1.3059-1.5288-1.7136-1.5288-1.2082-1.7794-1.0766-2.4758-0.86631-1.4354-0.91094-2.1637-1.308-1.2995-0.43955-1.6838-0.80261-1.4672-0.91094-1.0511-1.2082-1.4035-1.6159-1.2698-1.5501-1.6541-1.0766-1.5288-1.0107-1.4036-0.80051-1.841-1.3399-1.4354-0.86842-1.8728-1.7135-0.57331-1.3738-1.4354-1.6817-0.9258-1.3738-1.4354-1.7794-1.206-1.6817-1.8091-1.4078-1.8091-1.1424-2.3824-1.0107-1.2698-0.73684-1.5288-1.3398-2.0066-2.1191-1.9768-1.979-1.1764-1.2082-1.5904-0.47139-1.3632-0.47138-1.1445-0.26328-1.1127-0.671-2.0066-1.0765-2.0384-1.0107-1.841-1.2421-1.945-1.6478-1.3632-1.1424-1.0192-0.47346-1.7475-0.47142 1.0511-1.5479 0.60304-0.13149 0.86421-0.19754 0.69646 0.06574 1.2995-0.13375 1.0192 0.16548 0.95764-0.09748 0.82176-0.06574 0.98737-0.22928 0.82176-0.23155 1.1445-0.33968 0.86211-0.09974 1.4035-0.637 1.497-1.3399 0.09359-1.0447 0.35463-1.0426 0.03238-1.1424-0.24839-1.2401 0.9258-0.76864 0.50961-0.33974 1.2379-1.0765 0.86421-0.47135 1.1127-0.29502 1.0808 0.19754 1.3632 0.30797 1.2379 1.2082 0.66463 0.27397 0.9576 0.26328 1.3632 0.34185 0.9874-0.7368 1.5606 0.13149 1.2995 0.06574 0.63491 0.34185 0.57117 0.53933 0.78989 0.47138 0.69646 0.03238 0.86421-0.22928 1.3632-0.83451 0.78989-0.53719 1.5288-0.09974 0.78989 0.50536 0.76016 0.43952 1.2698-0.34185 0.89394-0.63703 0.60304-0.43952 1.0511-0.03401 0.89394-0.03238 0.89394-0.06574 0.86418-0.19754 0.89394 0.09748 1.0511 0.06574 1.0192 0.43952 1.2995 0.47142 0.47775-0.67097-0.50961-1.3059-0.6646-0.63703-1.4035-0.86845-0.35463-0.53719 0.25065-2.2189 0.66674-0.86848 0.38436-0.7368 0.78989-0.53933 1.7157-0.47142 1.1764-0.06574 0.86421 0.19754 1.841-0.37371 2.4121 0.06574 1.3632 0.09748 1.0192-0.37368 0.66674-0.63703 0.92577-0.16548 1.1742-0.37371 1.1127-1.2401 1.6838-0.37368 1.2698 0.13149 1.2698-0.13149 0.98737-0.671 0.09327-0.29729 0.03238-0.94491-0.78989-0.83444-0.32287-0.60513 0.06154-0.60516 0.3546-0.9109 0.21859-0.57116 0.63491-0.40558 0.69647-0.26328h0.58179v-0.03595z"/>
  <path fill="#c2f0c2" id="Wardha" d="m15.74 52.985 1.7475 0.47138 1.0192 0.47349 1.3632 1.1424 1.945 1.6477 1.841 1.2421 2.0384 1.0108 2.0087 1.0765 1.1126 0.67097 1.1445 0.26328 1.3632 0.47135 1.5904 0.47142 1.1764 1.2082 1.9768 1.979 2.0066 2.1191 1.5288 1.3399 1.2698 0.7368 2.3803 1.0107 1.8091 1.1424 1.8091 1.4077 1.2061 1.6817 1.4354 1.7794 0.92581 1.3738 1.4354 1.6817 0.5712 1.3738 1.8728 1.7135 1.4354 0.86848 1.8409 1.3398 1.4036 0.8005 1.5288 1.0107 1.6541 1.0765 1.2698 1.55 1.4036 1.6159 1.0511 1.2082 1.4672 0.91094 1.6838 0.80264 1.2995 0.43952 2.1637 1.308 1.4354 0.9109 2.4758 0.86634 1.7794 1.0765 1.5288 1.2082 1.5288 1.7136 1.841 1.3059 1.4354 1.0107 1.3313 1.0766 1.1743 0.9449 0.98733 1.0765 0.69646 1.3399-0.8642 0.13149-1.2379 0.34188-0.75802 0.40555-1.1126 1.3738-0.54145 1.1105-0.54145 0.57119-0.89394 1.0426-0.47775 0.73467-0.82176 0.53932-0.44802 0.34185-0.9258 0.22928-0.69646-0.0324-1.6222 0.16548-1.4036-0.43955-1.3313-0.40765-1.1127-0.19949-1.0511 0.34185-0.63487 0.66886-0.54148 0.60517-0.54145 1.3398-1.4036 0.53932-1.2698 0.19755-1.2379 0.57119-0.76016 0.70284-1.2061 0.80264-0.89394 0.7028-0.66674-0.50536-0.76013-0.60302-0.35463-0.40769-1.0511-0.26328-1.0192-0.0657-0.6965 1.3399-0.44588 1.1424-0.50961 1.0766-0.18686 1.2082-0.29081 1.274-0.18686 1.1424-0.18686 1.0766-0.21859 1.274-0.09359 0.86845-0.32287 0.70287 0.06154 1.1763-1.4354-0.80261-0.86421-0.47139-1.0808-0.86841-1.1445-0.40561-0.32287-0.0657-0.63487-0.13149-1.1742-0.19754-1.0192-0.40768-0.92577-0.66884-1.3314-1.6478-1.1445-1.3738-0.98736-1.4821-0.69646-1.2422-0.86421-1.1742-1.1445-1.0107-1.2698-0.40555-0.82176 0.0657-1.1126 0.19754-0.9895-0.13374-0.86416-0.50325-1.206-1.0447-0.72833-1.2082-0.60304-0.60302-0.7283-0.40766-1.2995-0.50328-1.1445-0.30797-0.9258-0.33971-1.0511-0.26329-1.2995-0.34188-1.6222-0.47135-1.8091-0.26328-1.7794-0.73681-2.1637-1.0107-1.497-1.1424-1.0511-1.274-0.72833-0.97674-0.32287-1.911 0.21859-1.4057 0.03238-1.4715-0.12533-2.3506 0.50961-1.2082 0.24839-0.86845 0.15706-1.2082 0.15512-0.94487 0.06154-1.2103l-0.12533-1.6817-0.66674-1.9111-0.9258-0.76864-1.0192-2.5502-1.497-1.1084-1.206-0.97888-1.7157-1.911-0.82173-0.7028-1.5288-2.4822-0.47775-1.7475-0.18686-1.8452-0.32287-1.7136-0.06153-1.4396 0.093266-1.7815-0.41619-1.0107-0.50961-1.4057-0.3546-0.7028-0.6646-1.0107-0.95764-1.1105-0.54145-1.0107-0.44805-1.1424-0.60304-1.2082-0.63487-1.4821-0.32287-1.4375-0.47778-1.4396-0.06153-0.671-0.25065-1.274-0.29081-1.0447-0.47775-0.76864 0.032385-1.274 0.38432-0.60513 0.9895-0.40558 0.86421-0.09748 0.6646-0.03401 0.89397-0.13149 0.78986-0.29502 0.98736 0.16354 1.1127-0.26328h1.1742l1.2061 0.09974 1.0192-0.03401 1.5607-0.06574h0.50961z"/>
  <path fill="#b2c0b2" id="Gadchiroli" d="m133.29 97.997 0.2186 0.03238 1.2061 0.06574 1.2995-0.22928 1.1127 0.13149 1.1126-0.19754 0.76016-0.60513 1.1126-0.66886 1.0511-0.60516 1.2698-0.66886 1.2995 1.0765 0.98733 0.40558 1.2698 0.19949 1.1445-0.13149 1.3314-0.03238 1.5288 0.03238h1.2379l2.1935 0.40555 1.1764 0.19754 1.5925 0.22928 2.2869-0.13149 2.8283-1.1424 1.0193-1.1764 0.78988-2.151 1.206-1.945 0.12538-1.3398 0.0616-1.274-0.2186-0.91097 0.0325-1.3738 0.66673-0.40561 1.4354 0.53726 1.8091 0.40765 1.0808 0.19754 1.1126-0.60516 0.86418-0.671 1.4036-0.13147 1.8409-0.13149 1.0511-0.13149 1.0511-0.19754 0.95766-0.50532 0.8939-0.22928 0.69649 1.0107 0.44804 1.0107v1.0107l0.0324 1.4715-0.24839 1.4821-0.50962 1.548 0.47778 0.60303 0.38434 1.2103 0.82172 0.9449 0.89394 1.0765 0.57329 0.33974 0.28044 1.0107-0.66671 0.9109-0.86421 0.91094-0.89393 0.60303-0.66673 0.50535-0.82175 0.37375-1.1445 0.80047-0.6349 0.67097-0.4162 0.73681-0.0324 1.0107 0.78988 0.76867 1.3314 0.43952 1.2061-0.34185 1.4672-0.83451 1.4673-0.57116 0.82171-0.19754 0.98736 0.19754 0.69649 0.13149 0.32286 1.7454-0.12537 2.4164-0.15513 1.9769 0.25065 1.4396-0.21858 1.911-0.41617 2.3187-0.28046 1.274-0.41616 0.53933-0.69646 0.91093 0.57119 1.1105 0.66673 1.0107 0.38434 1.0107 0.28012 1.2082-0.15706 1.3059-0.50963 0.57116-1.3313 0.86844-2.1637 0.83451-1.2698 0.19755-0.89393 0.29728-1.2379 0.34185-0.95763 0.47138-0.54147 0.40769-1.1445 0.33974-1.2061 0.19754h-1.2676l-1.4354-0.2636h-0.72832l-0.2908 0.47352-0.35252 1.0107 0.0325 0.40555 0.0324 0.80267 0.41616 0.5393 0.95764 0.57119 0.29081 0.83451 0.15511 0.86841-0.63492 0.80051-1.4354 0.80264-0.12537 0.73681 0.76018 0.86847 1.7157-0.53935 1.497-0.16549 1.4035-0.23155 1.8091 0.19755 0.89397 0.60306 1.2379 0.70494 0.72832 0.37371 0.54146 0.40555 0.35462 0.26328 0.24837 1.5479-0.32286 1.4396 0.12538 0.80056 0.15512 2.0533 0.28044 2.2529-0.18685 1.9769-0.24838 0.91091-0.54144 0.91094-0.82178 0.57115-1.0808 0.40772-1.7156-0.13145-1.2995-0.50539-1.497-0.23154-0.95763-0.034-0.98739 0.13144-0.92573 1.0447 0.57325 0.63703 0.78989 0.73678 1.497 0.29502 0.89395 0.23155 1.8728 0.47137 1.1445 0.50325-0.18686 1.308-0.76016 1.4056-0.44803 0.40771-0.60302 0.80051-0.60308 0.7368-0.92576 0.19754-0.78988 0.0658-1.0808 0.34184h-0.54142l-1.0808 0.37372-0.32287 0.7028 0.41614 0.80057 1.0192 0.0658 1.4036-0.43955 0.95765-0.22927 1.3313 0.16548 1.1127 0.53932 1.051 0.70287 0.47774-0.73474-0.66459-0.86844-0.32288-1.0447 0.28014-0.97674 1.2995-0.47349 1.5904 0.94488 0.76016 1.2082 0.57333 1.2082 0.57116 1.4057 1.2061 1.911 0.95766 0.16548 2.289 1.3399 1.7794-0.34189 1.4354 0.73681 0.41617 0.60516 0.41616 1.6138-0.89393 2.3187-0.4778 1.0426-0.18685 0.80264-0.32288 1.2082 0.18687 0.66889 1.2061 0.34185 1.9025-0.30571 2.0066 0.0324 1.5288-0.13144 2.0384 0.80268 0.60306 0.86844 0.63489 0.94491 0.86421 1.0426 0.8642-0.37373 0.8621-0.40765 0.9576 0.53934 0.60306 0.8026 1.1126 1.2082 0.0935 0.76868 1.2379 0.7028 1.4036 0.66885 1.1444 0.53937 0.38434 1.4396-1.4035 1.1105-1.1445 0.53935-0.95766 0.5393-0.78988 0.33977h-0.81114l-1.4036 0.16355-0.92576-0.22929-2.0066 1.0426 0.29081 0.57119 0.21858 1.0766 1.2698 0.43955 1.4672 0.37367 0.18685 1.1084 1.4354 0.83452 0.4162 0.53929-0.35465 1.274-2.892 1.6796-4.3889 2.5162-2.1 1.4397-1.1424 0.27397-0.0324-0.53937-0.72832-1.6477-0.15706-0.91094-0.2186-0.94494-0.86424-0.603h-1.361l-1.4354 0.33972-0.72829 0.43952-0.44804-0.43952 0.0935-1.0447 0.25066-1.1764-0.7899-0.66885-0.95766-0.47139-0.92576-0.0658h-2.3293l-0.92576 1.0766-1.2061 0.60512-1.841 0.637-1.2698 0.60306-0.98733 1.5819-0.4162 1.8792v0.66887l-1.1742 1.274-1.2697 1.0107-1.6839 0.8026-1.0808 0.47142-0.32286 0.73682-0.18687 0.94489-0.0935 0.80048 0.0324 1.2082-0.44585 1.6159-0.72836 0.40769-0.95763 0.37372-0.92577 0.43952-1.0192 1.6817 0.66463 0.50322 0.41615 2.0554-0.18685 0.60303-0.25065 1.1424-0.29081 1.0766-0.72833 1.274-0.50959 1.8112-0.2186 0.40765-0.25065 0.94491-0.4162 1.1424-0.0616 1.1424 0.1551 0.9449 0.60308 0.94491 0.63489 1.7136 0.60303 1.0765 0.72831 1.2401 0.32287 0.53933 0.69859 1.2103 0.15512 0.8663-0.32288 1.6477-0.69644 1.0448-1.2061 1.1424-0.92581 0.0658-0.6349 0.26554-0.76015 0.26329-0.78988 0.86847 0.0935 0.73681-0.0616 0.53936 0.15513 1.1423 0.0935 0.86849-0.2186 1.8134-1.4354-1.0766-0.98733 0.47134-0.76015 0.0658-0.89606 0.19754-0.98736 0.19754-1.0192 0.19755-1.5925 0.23154-1.1126-0.23154-1.3632-0.22928-1.0808-0.47349-1.0808-0.37372-1.3632-0.70283-1.4672-1.1764-1.238-1.4396-1.6838-1.2082-1.945-1.1424-0.98739 0.0998h-1.2059l-1.5288-0.73684-0.69646-0.53719-0.86423 0.47135 0.50962-1.7475 0.32288-0.50539 0.448-0.43952 0.4162-0.67096 0.66676-0.6689 0.41617-1.0107-0.0324-1.4078-0.41613-1.3398 0.12533-1.0447-0.0936-0.83448-0.15512-0.60306-0.47777-0.86844-0.44804-1.1764 0.0324-1.274 0.0324-1.3738v-1.3738l-0.60306-0.33974-1.1445-0.29729-0.82171 0.0658-0.41621 0.13372-0.63486 0.13144-0.9258-0.91307-0.21859-0.37371-0.78988-1.8792-0.0936-0.50537 0.15707-1.1763 0.35247-0.83448 0.75805-0.76656 0.3843-0.43952 1.7794-1.1445 0.78989-0.0324 1.2061-0.47137 0.47773-0.47139 0.3525-0.53937 0.0615-0.86844-0.0324-0.30571-0.54143-0.7028-0.50963-0.80054-0.60303-0.83446-0.29081-1.4375 0.15512-0.63703 0.29081-0.637 0.44587-0.86845 0.66675-1.2082 0.69646-1.6138 0.32287-1.6138 0.38433-2.0873 0.35458-1.342-0.0324-0.7368v-1.2401l-0.0936-0.83446-0.0324-0.63703-0.21859-0.91094-0.78989-1.4078-1.0808-1.2082-1.1445-0.86633-0.63486-0.34186-0.21859-5.7778-1.497-3.8348 0.2186-4.7668v-3.6266l-0.86421-2.2189-1.7156-5.4378 0.2186-2.4822 1.0808-2.7222 5.5336 0.43742v-4.7331l-1.0511-1.1105-3.2148-5.4378-1.497-2.0108 1.497-2.7562 0.6349-1.7794 1.2698-3.1872-0.63276-4.0301-0.41617-3.1532-0.21859-1.3738-0.21859-2.7242 0.448-3.3614 0.63489-2.9536-0.21892-2.0108-2.134-4.5696 0.4162-4.5035v-2.9559l-1.686-2.4843z"/>
  <path fill="#f0c2f0" id="Chandrapur" d="m106.25 96.832 1.8091-1.4056 1.2676 0.29502 1.7156-0.06574 1.0192 0.34188 2.0066 0.40765 0.63493 0.53936 0.92576 0.47135 0.76019 1.0107 0.8939 0.66886 1.3314 1.0766 0.9576-0.034 1.2995-0.70074 0.9258-0.67097 0.60303-0.7007 0.57119-0.91097 1.3314-1.1105 0.89393-0.16354 1.4354 0.33974 2.5799 0.19949 1.5925 0.33978 1.0808 0.9109 1.4354 0.37375-0.21859 1.5479 1.6838 2.4844v2.9557l-0.41613 4.5035 2.1318 4.5696 0.21859 2.0108-0.63489 2.9536-0.448 3.3614 0.21859 2.7242 0.21859 1.3738 0.41617 3.1532 0.63489 4.0301-1.2698 3.1872-0.63489 1.7794-1.497 2.7582 1.497 2.0108 3.2148 5.4378 1.0511 1.1105v4.7351l-5.5336-0.43955-1.0808 2.7221-0.21859 2.4822 1.7157 5.4378 0.86417 2.2189v3.6266l-0.21859 4.7668 1.497 3.8348 0.21859 5.7778-0.35247-0.19754-0.66672-0.60517-1.1127-0.66887-1.1127-0.53932-0.69645-0.60305-0.63489-0.40556-0.76016-0.50535-1.4354-1.1764-0.5096-0.40765-1.0808-1.274-0.60306-1.0107-1.3313-1.1424-1.0829-0.40768h-0.9555l-1.2995-0.0638-0.69646 0.66887-1.1742 0.60303-1.0192 0.60305-0.54147 0.19755-1.9769 0.13371-0.72829 0.30797-1.4673 0.83449-0.47773 1.2082-0.57119 0.86844-0.47777 0.66882-0.25065 0.40773-0.69646 0.13144-0.69648 0.034-1.2061 0.63697-1.4672-0.94488-1.2995-0.70283-1.1742-0.57116-0.54146 0.47139-0.38434 0.73677-0.76015 0.53935-0.50963 0.34189-0.82175-0.0998-0.92577-0.70287-0.82171-0.80051-0.76022-0.60302-0.76016-0.40555-0.69645 0.0975-1.2698 0.16354-1.3632 0.13372-1.1445-0.40769-0.66673-0.53723-0.4162-0.47348-1.2995-0.86634-0.9576-0.30798-0.95767 0.5054-0.57116 0.66885-0.4162 0.27398-0.448-0.33975-0.18686-0.86848-0.12533-1.24-0.32287-1.1743-0.18686-0.8026-1.0192-0.60516-0.92583 0.63703-0.69646 1.308-0.03238 0.86844 0.03238 1.342-0.28012 0.94278-0.5733 1.274-0.47776 1.2082 0.15512 0.73677 0.35461 0.9449-0.15706 1.0107-0.63492 0.91303-0.7283 0.70284-0.44588 0.13144-1.1742-0.0658-0.98736-0.53932-1.5607-1.0766-1.3313-0.7347-1.6223-1.3398-1.0511-0.67104-1.2995-1.1424-1.1127-0.19754-1.5607-0.60303-1.2061-0.53932-0.50961 0.33975-0.3546 0.73677-0.89394 1.1402-0.92577 0.50753v-0.67103l0.09359-0.77078 0.44588-0.97673-0.54145-1.0107-0.69646-0.0998-0.63491 0.27398-0.35459 0.6052-0.44802 0.66882-0.69647 0.60516-0.78989-0.0998-0.7283-0.70283 0.06154-0.66884 0.21859-0.63703 0.63487-0.70283 0.38436-0.63703 0.47775-1.7135 0.7283-1.0426 0.38433-0.63703-0.12533-0.73678-0.6349-0.43955-0.7283-0.19754-1.4673-0.16549-0.7283-0.0324-1.2995 0.0975-1.1742 0.19754h-0.82172l-1.2061-0.60306-0.21859-0.50536-0.15512-0.83448 0.21859-0.7347 0.41619-0.7368 0.50962-0.60516 0.35249-0.60303 0.28045-0.80264 0.82172 0.26329 0.9258 0.33973 0.78989 0.0998 1.0511-0.0658 1.3313-0.50539 0.89394-2.151 1.2061-1.308 1.5288-0.43955 1.2379-0.47348 1.5904-0.26329 1.6541-0.86844 1.5288-0.70283 2.548-1.6138 1.841-1.1763 1.3314-1.3398 0.41619-0.40771-0.89394-0.37373-1.2995-0.3737-1.5904-0.67098-0.57118-0.47348-0.60304-0.60305-0.41619-0.80262-0.06154-1.1084-0.02915-1.3738-0.06154-1.2082 0.03238-1.4078-0.15512-1.3399-0.54148-1.4077-0.63487-2.151-1.1445-1.1445-1.1742-1.1402-1.5904-1.0107-1.4991-0.80264-1.2379-1.1084-0.69646-2.2529-0.82172-1.0766-0.60304-0.671-2.0385-1.5479-2.0066-0.94491-1.4036-0.37371-2.7052-1.0447-0.06154-1.1742 0.32287-0.70281 0.09359-0.86847 0.21859-1.274 0.18686-1.0765 0.18686-1.1445 0.29081-1.274 0.18686-1.2082 0.50961-1.0766 0.44802-1.1424 0.69647-1.342 1.0192 0.0657 1.0511 0.26328 0.35246 0.40772 0.76016 0.60303 0.66674 0.50535 0.89394-0.70283 1.2061-0.80264 0.76016-0.70281 1.2379-0.57122 1.2676-0.19754 1.4036-0.53933 0.54144-1.3398 0.54148-0.60306 0.63487-0.67097 1.0511-0.33974 1.1127 0.19754 1.3313 0.40769 1.4036 0.43955 1.6223-0.16354 0.69647 0.034 0.92577-0.23154 0.44802-0.33975 0.82176-0.53725 0.47775-0.73467 0.89394-1.0447 0.54145-0.57116 0.54148-1.1084 1.1126-1.3738 0.76019-0.40768 1.2379-0.33975 0.86213-0.13374 0.15706-1.0426 0.78992-0.50538 0.66669-0.33975 0.5415-0.33971 0.76016-0.23155 0.54146-0.13147 1.7794-1.4057 1.945-2.1212 0.38434-0.83448 0.47773-1.5161 0.69645-1.2082 1.2061-0.16354 0.86424 0.76864 0.5096 0.47138 0.41617 0.671 0.98736 0.13149 1.2379-0.19754 0.69646-0.80265 0.66462-0.91094 1.0808-1.1084 0.25065-0.66883 0.38434-0.23155z"/>
  <path fill="#e2b584" id="Bhandara" d="m138.18 36.34-5.3147 5.7118-3.4951 3.4928v2.548l4.3889 1.7476 5.2425 4.2956 3.4951 4.7668 1.7476 3.8986 2.1955 5.1745-1.2995 4.7351-6.1366 2.185-3.0577 3.4271-3.941 1.7454-4.3889 0.86848 0.44594 2.548 2.1956 2.1871 3.047 3.8665v2.1849l2.7349 6.1409-1.2995 0.22928-1.206-0.06574-0.21859-0.03238-1.4354-0.37375-1.0808-0.9109-1.5925-0.34188-2.5799-0.19754-1.4354-0.33974-0.89397 0.16354-1.3313 1.1084-0.57119 0.91094-0.60303 0.70287-0.9258 0.66883-1.2995 0.70494-0.95766 0.0324-1.3313-1.0765-0.89396-0.671-0.76016-1.0107-0.9258-0.47139-0.63489-0.53933-2.0066-0.40558-1.0192-0.34185-1.7156 0.06574-1.2698-0.29729-1.8091 1.4078 0.44803-1.5819 0.41617-0.73467 0.41617-1.1424 0.4799-1.274 0.24839-1.0765 0.18686-1.274 0.63486-1.8112 0.66672-1.3738 0.95767-0.97888 1.4672-0.76867 1.1127-0.33971 0.47776-0.67097 0.15706-1.3739-0.12533-1.4057 0.0615-0.30571 0.2186-1.3738 0.15706-1.3399-0.15706-1.8133-0.72836-1.0426-0.98736-1.1764-0.66672-1.1084-0.89391-1.1084-0.44593-0.86842-0.47986-1.1424-0.29081-1.0765-0.38434-1.1084 0.0324-1.3059-0.25065-1.4715v-1.274l0.28012-1.5819 0.21859-1.5819-0.0324-1.274 0.18686-0.8005v-1.4078l0.0936-1.4057v-1.342l-0.28012-1.7135-0.60306-1.2422-1.1742-1.342-1.5606-1.5479-0.92577-0.63703-0.69646-0.57119-1.2061-0.80261-0.60306-0.94487-0.5096-1.2082 0.0638-0.94487 0.12533-1.274 0.29081-0.86848 0.57119-0.73681 0.76016-1.0107 0.8642-1.1424 0.72832-0.86845 0.47777-1.5819 1.0808 1.5819 1.4651-0.33974 0.82175-0.03238 1.1445-0.53936 0.86417-0.22928 0.4778-0.06574 1.7475 0.13149 1.5288-0.80261 0.95764-0.80051 1.3313-1.1764 1.2379-0.70494 1.0192-0.47142 1.0192-0.27397 0.86424 0.47142 1.1742 0.27397 1.497 0.13375 0.9258 0.37375 0.72829 0.83448 0.63489 0.80264 0.9258 0.91094 0.82172 0.7007 1.0511 0.53929 1.4036 0.33974 1.2061 0.16548 2.1-0.50536 0.72829-0.67097 0.86421-0.34188 1.1445 0.16548z"/>
  <path fill="#f9d3c6" id="Gondia" d="m146.44 67.978-2.1934-5.1745-1.7476-3.8986-3.4951-4.7668-5.2425-4.2956-4.3889-1.7475v-2.548l3.4951-3.4928 5.3147-5.7118 1.1764-0.06574 1.0808-0.40768 1.3313-0.26328 1.7475-0.33974 0.44804-0.27397 1.1126-0.73677 1.1764-1.0766 0.98736-0.53929 0.8939-0.19754 0.78989-0.57119 0.4162-0.50536 0.50959-0.40558 0.47777-0.40765 1.1127-1.0765 0.8642-0.671 0.95763-0.06574 1.2379 0.60303 1.4672 0.37375 0.93643 0.54992 0.95763 0.97888 0.50959 0.8005 0.38433 0.50539 1.7157 0.30798 1.3313 0.53719 0.75803 1.0787 0.69645 1.0107 0.89397 0.86845 1.3313 0.8005 0.50963 0.80268 0.57116 0.86842 0.41618 0.83451 0.4162 1.0765 0.54146 0.83448 0.3546 0.86634 0.38431 0.97888 0.50963 0.70283 1.5904 0.47352 1.7794 1.274 1.3313 0.43952 1.2379 0.37371 1.9025 0.53722 1.1445 0.53929 0.98739 0.671 0.98733 0.57119 1.1445 1.0107 0.69649 1.0107 0.66458 0.43955h1.0192l0.86207 0.13149 0.72832-0.03401 0.54146 0.22928 0.72829-0.06574 0.66466 0.30797 0.82171 0.50539-0.78988 0.86848-1.497 1.1424-1.2995 1.1445-0.66672 0.86634-0.92581 0.94701-1.3313 1.4715-0.94702 1.2846-0.72832-0.13375-0.92579 0.80261-1.686 0.80264-1.497 0.33974-0.69647 0.27397-1.6859-0.40772-0.9258 0.97888-0.89389 0.70283-1.0808 1.7454-1.4672 2.6139-0.44589 1.9769-0.0324 1.5819 0.12538 1.9429 0.92576 1.1105 0.69646 0.6052 0.3525 0.70494 1.4354 1.274 1.5288 0.50535 1.0192 0.30798 1.1445 0.60303 0.98736 0.60516 1.4673 0.43952 0.44801 1.1084 0.38433 1.2082 0.15706 0.94283-0.0324 1.1423 0.0935 1.274-0.69646-1.0107-0.89393 0.23155-0.95766 0.50536-1.0511 0.19754-1.0511 0.14216-1.841 0.13375-1.4035 0.12953-0.86423 0.67097-1.1126 0.60306-1.0829-0.19754-1.8091-0.40772-1.4354-0.53936-0.66459 0.40558-0.0324 1.3738 0.2186 0.9109-0.0616 1.274-0.12537 1.3398-1.2061 1.945-0.78988 2.1509-1.0192 1.1764-2.8283 1.1424-2.289 0.13149-1.5904-0.22928-1.1742-0.19949-2.1956-0.40555h-1.2379l-1.5288-0.03401-1.3314 0.03401-1.1445 0.12953-1.2676-0.19754-0.98946-0.40558-1.2995-1.0765-1.2676 0.66886-1.0511 0.60516-1.1126 0.66886-0.76016 0.60516-1.1126 0.19754-1.1127-0.13147-2.7349-6.1409v-2.187l-3.047-3.8666-2.1934-2.1849-0.44801-2.5502 4.3889-0.86631 3.943-1.7475 3.0576-3.4271 6.1366-2.1849z"/>
 </g>
 <g fill="none" stroke="#000">
  <path d="m64.838 43.963 2.6241 0.20185 1.2111 0.20185 0.80741-0.4037 3.2296 0.80741 2.5232-0.20185 6.0556 0.70648 4.5417-0.50463 2.2204 0.20185 1.312-0.60556 2.1194-0.4037 3.2296-0.50463 3.4315 0.50463 1.0093-0.10093 1.5139-0.4037 2.1194 0.20185h1.5139l1.413-0.30278h1.9176l1.2111 1.312h0.90833l1.0093 0.80741 2.4222 2.6241h1.0093l2.0185 1.1102 4.4407 1.2111 6.5602 0.70648 1.8167-0.80741 2.9268-0.90833 4.5417-0.4037 4.037 0.80741 1.7158-0.30278 2.725 0.20185 0.80739-5.0463 0.80742-1.1102 0.20185-1.6148 2.0185-4.3398-0.30279-6.1565v-1.0093l0.40371-2.4222-0.20186-2.6241-0.90833-2.0185v-1.1102l0.60556-1.6148 1.8167-1.9176" stroke-width=".5px"/>
  <path d="m64.838 43.963-0.71285 2.495-1.4257 5.1088v0.95047l-1.6633 4.1583-1.4257 3.3266-0.71285 0.83166-1.6633 3.8019-0.95046 1.5445v4.1583l-2.2574 4.5147-0.11881 8.3166 2.8514 3.8019 0.71285 1.6633 0.11881 1.9009 0.59404 5.1087 0.83166 3.5642 1.1881 2.9702 0.47523 2.8514-0.11881 1.901-0.47523 3.3266 0.11881 2.2574 0.23762 1.1881 0.59404 0.59404 1.7821 1.0693 1.3069 0.83166 1.0693 1.4257v1.0693l1.9009 1.9009 1.1881 0.35642 2.9702 3.9207 0.35643 1.901 3.089 1.3069 2.6138 1.9009 2.6138 1.3069" stroke-width=".5px"/>
  <path d="m56.292 66.17-5.8252 4.2798-0.95105-0.29721h-0.65386l-0.59441 0.23776-3.6259 1.7238-4.3986 0.17833-0.23777-0.35665-0.95106 0.59442-2.4965 0.47553-3.2098-0.23776-0.41608 0.17832-0.59442 0.29721-0.47553 0.17832-2.1993 3.0315-0.59441 1.1888-0.11888 0.2972-5.6469 3.3287" stroke-width=".5px"/>
  <path d="m135.29 112.88-1.221 0.661-1.5391 2.0888-1.2093 0.43975-0.76957 0.76958h-1.0994l-1.4292 1.759-5.7168 0.54969-2.9683 2.5286-7.6957 0.87951-0.43974 0.54969h-1.4292l-2.5286 1.0994h-2.0888l-1.5391 0.8795-2.5286 0.54969-1.3193 0.98944-2.5286 0.32981-3.2982 1.6491-5.6068 0.21989-3.9578 0.98944-1.4292 0.76956-3.0206 0.70773" stroke-width=".5px"/>
  <path d="m144.97 49.62-0.57075 0.81537-0.8969 0.81536-1.06 1.8753-0.16308 3.4245-0.65229 1.1415-0.48922 3.4245 0.16306 0.48922-0.89689 1.7938-1.8753 2.9353-1.3046 1.06-0.0815 1.06-0.65229 0.73383-0.0815 3.1799 0.4077 0.8969-0.6523 0.32615-0.24461 1.06-0.73382 0.24461v1.06l-0.73383 1.3861 0.57075 0.57076-1.06 1.3046-0.0815 0.73383v0.57076l0.24462 0.32614-0.89692 1.1415-0.40767 0.24461v1.06l0.16305 0.57076 0.0815 0.48922v1.1415l-0.2446 0.97843 1.3861 2.3646v1.3046l-0.48922 2.12 0.73688 1.906v2.5113l-0.20091 0.90406 0.10046 1.7077-0.30136 1.4063-0.23282 1.3431 0.11546 0.92356v0.98128l-0.0577 0.80813 0.11545 0.75039 0.0577 1.039 0.28861 0.7504 1.0967 2.5398-0.16776 2.8753" stroke-width=".5px"/>
  <path d="m23.302 81.268 2.6238 0.66279 3.2142 0.06627 3.0174 1.657 4.0669 1.3919 2.1646 3.1151 1.3775 0.26511 0.98393-0.26511 5.0508 2.7174 2.1646 0.26511 3.7389 1.3256h1.5087l1.5087 0.19883h3.083" stroke-width=".5px"/>
  <path d="m116.21 49.211 1.2397 5.7515v0.65111l-0.2066 1.1937-0.10331 0.54259v1.1937l-0.20663 1.3022 0.61985 1.4107-0.20662 2.6044 0.92975 2.1704v2.2789l0.41324 1.8448-2.3761 4.3407v0.86815l-3.2025 3.7982-1.1364 1.8448-1.5496 1.5193-2.2727 1.0852-1.1364-0.21704-2.9959-0.65111-1.1364-0.65112-2.686 3.4726h-2.0661l-1.4463 1.1937-2.686 0.43407-1.6529 0.97667-1.5496 2.713-4.2356 0.86815h-0.30992l-3.3058-1.7363-0.61984 0.21704h-0.92976l-1.9628-0.75963-0.82645 0.43407-1.0331-0.10851-1.6529-0.10852-2.1694 1.0852-0.5746 0.10456-1.4116 1.4004-1.0195-0.16476-1.0195 0.65904-1.49 0.82378-0.47054 0.49428-1.0979-0.16476-4.1564-0.08241-1.5684-0.65904h-0.7058l-2.4311-0.57665" stroke-width=".5px"/>
  <path d="m64.85 43.978 5.8851 4.7246v2.6524l1.1604 2.0722 0.41444 1.2433 0.6631 2.7353 0.746 1.3262 2.1551 1.4091 0.82888 1.492 1.1604 0.49733 0.82888 0.33155 0.41444 1.5749 1.4091 1.1604 0.33155 1.4091 0.99466 1.3262 0.41444 1.492 1.5749-0.33155 0.66311 0.49733 1.7407 0.49733 0.746 1.2433 0.74599 0.49733 1.4091 0.58022 1.9893 0.08289 4.6417 1.492 4.1444 2.7353 2.0722 1.8235 1.7407 3.1498 0.82889 1.3262 1.0775 1.2433 3.8129 2.4866 1.1604 3.73h3.3155l2.6524-0.49733 3.1498-0.82888 1.7406-0.33155 2.8182-0.24866 0.0829-0.33155 2.238 2.4038 0.49734 1.492 2.9011 3.9786 1.1604 2.5695 2.9011 1.4091" stroke-width=".5px"/>
  <path d="m64.84 43.963-0.14846-1.1942 7.2743-4.7768 1.0392 0.89565 3.1176-1.1942 0.44536-1.3435-0.74227-4.4782-0.74228-1.7913 2.8206-5.971h4.6021l2.2268 1.3435 0.44536-0.89565 1.1876 0.74637 2.0784 0.5971h0.59382l1.4845-0.74638 0.14846-1.0449 1.0392-0.44782 2.2268 0.29855 4.6021 0.74637h1.3361l1.9299 0.74637 0.44536-1.1942 3.266 0.74637 1.0392-0.74637 1.0392 0.29855 0.74228-0.5971 2.0784 0.74637 1.0229-0.15336 0.55518 2.233 0.47586 0.4785 1.5069 0.71775h0.95173l0.6345 1.1165 2.1414 0.39875 1.269-1.595h1.9035l0.6345-1.0367 0.87243-0.39875 2.0621 0.39875 0.55518-0.55825 2.3793 0.4785 0.15863-0.23925 0.0792-2.6317 0.55519-0.4785 1.4276-0.1595 2.6173-2.233 0.87243 0.1595 0.87242-0.87724 1.9035-0.71774h2.0621l3.569-1.595 2.0621 0.1595 1.031-0.39875 0.87245 0.1595 1.4276-0.71775 0.95174 0.71775 0.95173-0.23925 1.4276 1.0367" stroke-width=".5px"/>
 </g>
 <g fill-rule="evenodd" stroke-width=".31739">
  <ellipse cx="64.973" cy="44.329" rx="1.2987" ry="1.3308"/>
  <ellipse cx="150.14" cy="18.653" rx="1.2987" ry="1.3308"/>
  <ellipse cx="135.42" cy="112.9" rx="1.2987" ry="1.3308"/>
  <ellipse cx="80.002" cy="131.22" rx="1.2987" ry="1.3308"/>
  <ellipse cx="23.484" cy="81.434" rx="1.2987" ry="1.3308"/>
 </g>
 <text x="54.013371" y="40.884937" fill="#000000" font-family="sans-serif" font-size="3.5278px" letter-spacing="0px" stroke-width=".26459" word-spacing="0px" style="line-height:1.25" xml:space="preserve"><tspan x="54.013371" y="40.884937" stroke-width=".26459">Nagpur</tspan></text>
 <ellipse cx="132.92" cy="49.339" rx="1.2987" ry="1.3308" fill-rule="evenodd" stroke-width=".31739"/>
 <g fill="#000000" font-family="sans-serif" font-size="3.5278px" letter-spacing="0px" stroke-width=".26459" word-spacing="0px">
  <text x="124.46559" y="46.521114" style="line-height:1.25" xml:space="preserve"><tspan x="124.46559" y="46.521114" stroke-width=".26459">Bhandara</tspan></text>
  <text x="152.02023" y="23.506723" style="line-height:1.25" xml:space="preserve"><tspan x="152.02023" y="23.506723" stroke-width=".26459">Gondia</tspan></text>
  <text x="29.589931" y="81.277542" style="line-height:1.25" xml:space="preserve"><tspan x="29.589931" y="81.277542" stroke-width=".26459">Wardha</tspan></text>
  <text x="137.46011" y="116.97334" style="line-height:1.25" xml:space="preserve"><tspan x="137.46011" y="116.97334" stroke-width=".26459">Gadchiroli</tspan></text>
  <text x="83.290184" y="134.5081" style="line-height:1.25" xml:space="preserve"><tspan x="83.290184" y="134.5081" stroke-width=".26459">Chandrapur</tspan></text>
 </g>
</svg>
