<svg width="433.21mm" height="125.88mm" version="1.1" viewBox="0 0 433.21842 125.8807" xmlns="http://www.w3.org/2000/svg" xmlns:cc="http://creativecommons.org/ns#" xmlns:dc="http://purl.org/dc/elements/1.1/" xmlns:rdf="http://www.w3.org/1999/02/22-rdf-syntax-ns#">
 <metadata>
  <rdf:RDF>
   <cc:Work rdf:about="">
    <dc:format>image/svg+xml</dc:format>
    <dc:type rdf:resource="http://purl.org/dc/dcmitype/StillImage"/>
    <dc:title/>
   </cc:Work>
  </rdf:RDF>
 </metadata>
 <g fill="none" stroke="#000">
  <g transform="translate(225.13 -76.206)" stroke="#fff" stroke-width=".5">
   <path id="Tirap" d="m54.806 165.9c-3.0485 0.50978-7.8022-2.0634-6.073-5.3701 0.8474-1.619 1.1781-3.3448 1.1574-5.1738-0.0285-2.2012-2.1495-4.0958-1.8636-6.2211 3.1726 0.20676 5.05-3.7339 4.3507-6.4725-0.93004-3.6444-6.3484-2.6558-4.2851-7.8298-1.0437-0.0997-2.0255-0.46853-2.8591-1.2332-1.681-1.5432-3.5031-4.9535-6.2382-3.7859-1.5191 0.64761-3.1897 1.7843-4.3953 3.1932-0.85427 0.99552-1.4743 2.1288-1.6328 3.3309-0.42712 3.1967-1.4123 7.4612-3.9476 9.7623-2.1082 1.9118-5.5423 0.62342-8.1397 1.1057-0.1374 0.0254-0.27196 0.0555-0.40645 0.0899-0.1792 1.9842-2.3286 2.8694-3.8856 3.5893-2.2286 1.03-3.2242 3.455-5.1222 4.9569-1.4192 1.123-4.0474 2.7075-5.8282 1.4433-1.1058-0.78539-2.2701-0.38584-3.3208 0.36167 0.75784 1.7154-0.037993 3.7064 0.94384 5.3736 1.2366 0.21054 2.9831-0.17256 3.0795 1.6328 0.058572 1.0644-0.1621 2.1288-0.13741 3.1967 0.048124 2.2046 2.8832 2.5835 2.5352 4.6746-0.43405 2.6214-3.4376 3.4445-4.3782 5.7456-0.4616 1.1264 0.44434 1.7395 0.71649 2.742 0.29982 1.0954-0.055089 2.2562 0.00633 3.3654 1.2849 0.50978 2.9865 1.116 3.6789 2.4216 0.83705 1.5708-0.91284 2.9452-1.5983 4.168-0.82673 1.4709 0.88185 2.9073 1.3365 4.2335 0.46502 1.3607 0.86114 2.6868 1.4605 3.9647 0.39616-0.0481 0.81295 0.1754 1.2125 0.85432 1.2848 2.1736 4.0027 1.9462 6.2417 1.5845-0.04147-1.6775 1.9566-0.57872 2.8556-1.5708 1.8016-1.9945 3.4135-0.77508 5.6975-1.7603 1.0851-0.46851 3.7099-1.7051 4.4058-2.673 1.5673-2.1839 0.79228-3.3344 3.8685-3.9337 1.5914-0.30996 1.7189-3.0176 2.2046-4.2436 0.81644-2.06 1.7051-5.0225 3.4446-6.5035 2.6283-2.2391 6.6552 1.4467 9.6727 0.93004 0.64418-2.6869 3.4069-4.5124 0.62689-6.917 0.9232-0.71648 1.8981-0.67513 2.3975-1.9186 0.34104-0.85084 1.2194-2.432 2.308-2.115-0.0285-1.6534 0.13424-3.4069-0.08611-4.9981z" fill="#cc2" />
   <path id="Changlang" d="m199.74 128.45c-1.7395-1.9703-3.2207-3.2999-5.1602-4.8053-3.6098-2.7971-3.5791-4.9053-4.6502-8.8942-0.66136-2.4732-2.4905-7.182-4.7088-8.6222-2.208-1.4329-3.5446 0.50642-4.1509-2.7385-0.59938-3.2106 2.0358-3.0555 2.7695-5.1567 0.50292-1.4433-1.0644-4.1784-1.4674-5.5217-0.55112-1.8361-0.0725-4.5023-2.9728-3.841-0.48916-2.1943 3.1209-5.5977 4.168-6.9065 0.17254-0.21719 0.34445-0.43061 0.5167-0.64762-3.7169-1.154-12.015-3.0864-15.429-0.6889-1.3503 0.94722-2.0289 2.7557-3.9992 1.8635-2.487-1.1229-3.6032-2.7488-6.4966-1.0265-1.7671 1.0507-3.8409 3.5791-6.0419 2.0978-2.4836-1.6707-3.1002-3.2553-6.4864-3.1416-2.7316 0.09274-5.3945 0.83359-8.1122 1.0679-2.7695 0.23776-5.5942 0.15482-8.3258 0.73022-5.6253 1.1781-6.6276 5.8662-10.513 9.187-4.2886 3.6618-10.382-1.5501-14.385-3.4515-2.3631-1.123-5.3324-2.6559-8.0365-2.308-2.7971 0.36176-4.8468 2.9969-6.886 4.6812-1.7981 1.4882-3.765 2.6215-6.0799 3.0658-2.9315 0.55805-6.09-0.03412-8.9356 0.92319 1.3572 2.0634 3.052 7.2545 1.154 9.0284-3.0106 2.8177-1.0472 6.5795 0.23777 10.093 0.48224 1.3124 5.0776-2.3768 6.2901-2.9418 4.1784-1.9428 6.1211-0.77163 7.3131 3.6823 1.061 3.9581-3.834 4.6021-4.9946 7.7231-1.1574 3.114-6.5035 2.4458-6.3623 6.7102-2.6214 0.36862-4.0819-2.9038-6.7378-2.2011-1.0334 0.27229-1.7189 1.1574-2.7041 1.526-1.7499 0.65449-2.5319-0.95418-4.0854-0.9025-2.8728 0.0965-6.6552 4.7227-9.3488 5.9697-1.9979 0.92317-4.6711 2.0427-7.0272 1.8153-2.0634 5.1773 3.3515 4.1854 4.2851 7.8298 0.6993 2.7386-1.1781 6.6758-4.3507 6.4725-0.28589 2.1253 1.836 4.0198 1.8636 6.2211 0.02216 1.8257-0.30995 3.5516-1.1574 5.1738-1.7292 3.3034 3.0279 5.8767 6.073 5.3701 0.22067 1.5914 0.05889 3.3414 0.08611 5.0016 0.14438 0.0415 0.29286 0.11394 0.44441 0.2308 1.5742 1.2091 4.0993 3.2138 5.9558 1.2022 1.3675-1.4812 1.4812-3.9166 1.836-5.7975 0.56493-3.0106 2.7833-4.6229 2.8108-7.9744 1.3331-1.0541 3.114 0.0446 4.5435-0.78542 1.1953-0.69238 1.8774-0.64755 3.2312-0.63727 2.4078 0.012 4.2817-2.1632 6.848-2.3872 0.59593-2.3286 2.1633-4.2164 3.2723-6.3037 1.1953-2.2528 2.2011-4.4713 4.5435-5.7045 2.3527-1.2366 1.1609-2.7282 2.208-4.5919 2.0393-3.6342 7.1583-5.6424 10.654-7.4473 2.1977-1.1368 4.5539-2.5663 6.8895-3.455 5.7354-2.1804 11.988-1.1953 18.171-1.5329 3.1827-0.17256 6.3383-0.6166 9.6451-0.61317 4.0958 6e-3 5.77-1.3813 8.784-4.1405 2.4767-2.27 3.8166-4.5159 7.4096-5.1602 3.1381-0.56146 6.6346-0.7854 9.9104-0.68893 2.8969 0.0861 6.7172 0.95421 8.7045 3.083 1.9118 2.0427 2.1047 5.694 4.3646 7.4473 1.9875 1.5398 6.2002 0.89909 5.6253 4.7157-0.44779 2.9865-7.1373 3.2173-5.0291 6.2487 1.1711 1.681 3.4309 1.0713 5.1152 1.3503 2.3389 0.3858 4.471 1.4984 6.779 1.9979 1.5604 0.33757 3.0554 0.0722 4.4779 0.6373 3.1862 1.2676 8.8596 7.6781 12.229 5.1808 8.3189-6.1762-0.14114-12.294-4.5745-17.313z" fill="#e2b584" />
  </g>
  <g>
   <path d="m5.0433 75.39 3.3118-2.5759h2.2079l1.1039-0.73596 2.5908 1.4933h2.8476v-1.8121l3.3653 0.77662v-2.5887l4.9185-2.3298-0.25887-1.0355 4.6597-0.51773 8.8016 3.8831h10.873l3.3653-2.3298 6.7306-3.8831 8.025-5.954-0.25887-2.3298 7.5072-3.3653 1.0355-3.6242 3.8831-4.6597 0.25887-4.1419 3.6242-5.4363 1.8121-7.5072-0.25888-2.5887 1.8121-2.8476 5.6952-1.8121 8.8016 2.5887 3.883-1.0355 3.883 2.5887 6.9895 1.8121 8.5427-1.8121 1.0355-1.5532 7.7661-2.071 0.77661-2.3298 4.4008-5.6952 1.5532-6.2129 4.9185-0.25887 1.8121-5.1774 2.5887 1.2944 2.3298 1.8121-0.25888 3.8831 3.3653-1.5532 3.1064 2.071-3.1064 8.8016 2.8476 1.8121-1.0355 1.8121 3.6242 2.8476 0.25887 3.1064-1.5532 3.6242 5.6952-1.5532 2.071 2.5887 2.3298-2.5887 4.1419-3.6242 6.9895-1.2944h2.3298l5.954-3.1064 0.25887-1.2944v-2.8476l6.2129 3.3653 13.202 4.6597 14.497 8.8016h4.6596l4.6597 3.6242 3.6242 0.25887 2.3298 2.8476 0.25888 4.1419 5.954 3.6242h3.3653l3.6242 2.5887-0.77661 3.8831 1.8121-0.25887 5.954 5.6951-2.8476 10.096-3.3653 0.25887-0.51774 2.3298 4.4008 3.3653-0.25886 2.5887 1.8121 0.25887 0.51775 6.4718 3.6242-1.0355 2.071 5.6951" stroke-width=".4px"/>
   <path d="m235.85 36.812 2.4084-3.2112 14.049 2.8098 8.0281-4.8169 12.845-3.2112 3.2113-4.4155 5.2183-0.4014v3.2112l2.8098 1.2042 2.007 3.2112v8.0281l2.007 3.6126 3.2113-1.6056 2.983 4.8108-0.73963 1.7258 2.2189 0.24655 2.712 4.4379-4.4379 3.2051-0.49309 2.9586 7.643 0.24654 0.98621 1.2327-1.9724 3.2051-1.7258 4.1913" stroke-width=".4px"/>
   <path d="m263.81 89.362 5.7775-1.26-0.6933-1.855 1.6947-0.315 2.0799-0.62999v-1.575l2.7347-0.62999-1.0014-2.17 3.0813 0.62999 1.04-1.575h1.7332l0.65479-1.855 1.04 0.27999 3.1198-4.375h-1.7332l5.1612-2.8 1.7332-0.62999 0.30814-2.485 1.7332 1.54 6.5478-2.17" stroke-width=".4px"/>
  </g>
 </g>
 <g fill-rule="evenodd">
  <ellipse cx="4.7745" cy="75.273" rx="4.7745" ry="4.8739" stroke-width=".31437"/>
  <ellipse cx="263.21" cy="88.038" rx="3.8651" ry="3.9456" stroke-width=".25449"/>
  <ellipse cx="298.94" cy="66.685" rx="3.8651" ry="3.9456" stroke-width=".25449"/>
 </g>
 <g fill="#000000" font-family="sans-serif" font-size="3.5278px" letter-spacing="0px" stroke-width=".26459" word-spacing="0px">
  <text x="14.853914" y="83.860184" style="line-height:1.25" xml:space="preserve"><tspan x="14.853914" y="83.860184" font-size="5.6445px" stroke-width=".26459">Itanagar</tspan></text>
  <text x="305.89813" y="63.900208" style="line-height:1.25" xml:space="preserve"><tspan x="305.89813" y="63.900208" font-size="5.6445px" stroke-width=".26459">Changlang</tspan></text>
  <text x="255.76611" y="97.321556" style="line-height:1.25" xml:space="preserve"><tspan x="255.76611" y="97.321556" font-size="5.6445px" stroke-width=".26459">Khonsa</tspan></text>
 </g>
</svg>
