<svg width="104.36mm" height="215.88mm" version="1.1" viewBox="0 0 104.35548 215.88039" xmlns="http://www.w3.org/2000/svg">
 <g transform="translate(-55.638 -35.656)" stroke="#fff" stroke-width=".5">
  <path d="m121.34 175.46c-1.256 0.52105-1.7462 1.8688-3.0942 2.2824-1.2407 0.38266-3.2626-0.7965-4.3808-0.0614-1.8535 1.2101-1.7156 5.7748-1.256 10.232 0.44404 0.45967 0.8578 0.91906 1.256 1.4245 2.0526 2.6193 1.8687 4.1204 2.0219 7.2912 0.22983 4.6413 3.2933 10.079 2.267 14.812-2.1598 0.0764-4.6872-0.55115-6.4334 0.7199-1.2254 6.1884-1.2867 11.182-0.82712 17.431 0.39831 5.3305-1.1253 9.7091-1.7227 15.009 3.1917 6.8314 4.6508 7.4052 10.837 6.16 6.3899-2.7524-2.4028-10.338 7.5994-11.283 1.1358-8.077 8.8391-5.9251 11.862-13.282 1.6766-10.206 2.7122-11.127-4.921-21.199-1.8209-12.434-1.8104-12.295-1.2932-17.87l0.22867-3.837c0.12391-4.8024 0.13316-4.8024 0.71736-8.9143-2.4848 1.5556-1.0281 1.6595-3.6796 1.3378-3.0333-0.5685-6.6247-1.3263-9.1674-0.25414z" fill="#e2b584"/>
  <path d="m108.82 245.97c0.5974-5.3152 2.4508-11.059 2.0679-16.39-0.45967-6.2496-0.39831-11.243 0.82712-17.431 1.7462-1.2867 4.2736-0.64333 6.4334-0.71992 1.0263-4.7178-2.0372-10.171-2.267-14.812-0.15342-3.1708 0.029-4.6719-2.0219-7.2912-0.38325-0.49037-0.81184-0.96503-1.256-1.4245 0.38267 3.5996 0.9803 7.138 0.91905 8.8076-4.0438 0.96503-5.1927-5.2998-8.5779-5.882-0.0289 1.4399-0.61269 6.5406-2.0219 7.2759-2.5734 1.3174-4.3042-2.8184-5.3152-4.3042-2.1904-3.2321-4.8404-8.6085-7.9652-10.983-3.7528-2.849-8.5437-1.6241-12.94-1.7926 2.4262 6.7432 3.1035 8.0017 4.6163 14.316 2.2103 4.2096 2.9866 5.5807 4.1134 11.118 2.6836 5.9159 2.6421 8.7556 2.4937 17.886 0.80911 9.9132 0.92972 11.403 4.1951 21.41 4.2572 1.7798 5.3132 0.2692 6.2019-10.562 3.5798 0.68522 7.4751 1.1717 10.497 10.78z" fill="#abacda"/>
  <path d="m122.75 164.79c-1.9606-2.4202-3.8141-4.9782-5.2999-7.6129-1.547-2.7572-3.4771-5.8054-4.8097-8.7157-0.52104-1.1641-1.0263-3.9213-2.221-4.7178-1.2714-0.84247-3.5078-0.41336-5.0089-0.55114-0.0289-0.35258-0.0463-0.68928-0.092-1.0416-2.9103-0.24488-7.8579-0.0614-9.2825 2.7112-2.5121 0.24489-4.8097 0.61269-5.6828-1.8075-0.47484-1.302-0.19915-4.2889-0.24506-5.7441-0.03068-1.0416 0.0015-1.9453 0.13785-2.7418-0.19915-0.22983-0.41359-0.42899-0.58207-0.67399-0.70461-1.0263-1.2101-2.267-1.5471-3.6303-3.8141 1.1488-8.3481 0.15342-12.009-0.75058 0.0015 5.882-5.2539 6.893-5.0242 12.423-2.1578 0.0463-2.1681-0.0463-2.3937 3.1403-0.62802 2.96-0.71901 2.9439-0.85595 6.3024-0.42951 4.5956-0.35309 4.727-0.33821 9.0619 1.9476 4.2889 1.8707 4.3392 2.9254 8.9052 1.2564 4.0937 0.62573 3.4183 1.6822 5.2883 1.9147 1.9155 1.2531 1.3927 2.7232 3.5856 1.1185 1.4263 1.1631 1.3493 1.8822 2.8065 4.3962 0.1684 9.1717-0.99519 12.925 1.8539 3.1248 2.3742 5.7747 7.7507 7.9651 10.983 1.011 1.4858 2.7419 5.6216 5.3153 4.3043 1.4092-0.73525 1.9913-5.836 2.0219-7.2759 3.3852 0.58205 4.534 6.8469 8.5778 5.882 0.0614-1.6696-0.53609-5.208-0.91906-8.8077-0.47473-4.4574-0.61268-9.022 1.2561-10.232 1.1182-0.73525 3.1248 0.44404 4.3808 0.0614 1.348-0.41335 1.8381-1.7615 3.0942-2.2823 2.558-1.0722 3.3655-0.41394 7.6871-0.44405-0.93665-1.8701 0.22868-0.77969-0.86133-2.5116 0.15342-0.38267 0.2912-0.12162-0.10826-2.6674-4.3676-3.3282-1.0656 0.12393-2.7659-1.3311-1.2259-2.131-1.7922-2.221-2.5274-3.7681z" fill="#e7de69"/>
  <path d="m86.997 111.73c-1.2254-7.8733-2.8491-14.873-2.1138-22.869 0.13785-1.5011-0.15319-3.6609 0.47484-5.208-1.0263-0.38268-2.0219-0.71996-2.9257-0.90377-0.337-2.267-0.55143-5.2386-0.38296-7.5669-3.0329-0.2912-4.3043 0.49036-4.8557-2.8491-0.52081-3.2014 0.32166-3.1861-1.976-5.2693-1.0263-0.9344-1.593-1.4245-1.9607-1.976-2.0526 1.93-4.9935 3.1401-7.7967 2.5121-0.10722-2.9869 0.18381-6.0658 0.07659-9.0527-0.55144-0.04631-4.8863 0.42899-8.9608 0.85775-0.70461 3.1248-0.90374 6.173-0.42887 9.0068 0.15319 0.87315 3.9826 2.267 3.8141 5.1161-0.13785 2.1598-1.0569 4.3349-0.76588 6.51 0.35228 2.604 2.1598 4.7025 2.5274 7.3218 0.81183 5.8973-1.6696 11.595-2.4202 17.355 2.1262 5.2378 1.3924 1.1829 2.1651 3.2228 0.99261 2.4734 0.08517 2.2022 1.0167 4.5123 0.4947 4.6644 0.64042 2.3378 1.5457 5.3292-0.34522 2.5992-0.57384 3.9326-0.54472 6.6468-0.96766 2.2779-0.40879 2.569 0.8021 4.3406l0.94486 1.4032c2.3197 1.6495 2.5983 2.7733 3.415 4.4027 0.09085 1.5045-0.10983 3.4155-0.15694 6.0092-0.32733 1.5528 0.46465 1.5924 2.6375 1.3398-0.22978-5.5297 5.0242-6.5253 5.0242-12.423 3.6609 0.90372 8.1796 1.8994 12.009 0.75053-1.4858-5.6368-0.38296-13.525-1.1641-18.519z" fill="#c2f0c2"/>
  <path d="m100.32 57.105c-0.0614-1.2254 0.0289-2.4968-0.0289-3.7069-2.9716-1.9913-5.1008-3.3546-6.1118-6.9082-0.32189-1.1642-0.49036-2.2977-0.55172-3.4005-1.976-2.221-4.5799-4.197-5.8207-6.5406-0.22978 3.3852-0.0015 9.2672-2.4202 11.81-1.4858 1.5624-3.615 1.3786-4.6259 3.4311-0.65866 1.348-0.19915 3.9214-0.337 5.4225-1.4552 0.0015-3.0023 0.02895-4.4574 0.02895-0.32166 3.4924-0.04574 5.0242-2.313 7.4137-0.13785 0.1378-0.27575 0.26052-0.42887 0.39831 0.36762 0.55172 0.93438 1.0416 1.9607 1.976 2.313 2.0832 1.4552 2.0678 1.976 5.2692 0.55144 3.3392 1.8381 2.5581 4.8557 2.8491-0.16848 2.3282 0.04574 5.2999 0.38296 7.5669 0.91906 0.19915 1.8994 0.52104 2.9257 0.90372 0.16848-0.39831 0.38296-0.76587 0.68929-1.0722 1.0569-1.0109 5.9279-2.1751 7.4444-2.5734 1.1029-0.2912 2.6653 0.1071 3.7988 0.02895 0.7199-1.6542 2.2823-2.7725 2.8797-4.1204 1.639-3.6609-0.2912-7.9651 1.2101-11.703 0.21478-0.55172 3.8294-5.9892 3.4465-6.0964-1.4705-0.38268-2.9717-0.68928-4.4728-0.98031z" fill="#f3d6e9"/>
  <path d="m125 76.053c-1.5624-2.5734-0.2912-5.0548-0.78121-7.9652-0.21421-1.2561-0.67394-2.558-1.1641-3.86-0.44404-0.32189-0.96503-0.58206-2.1751-0.78121-3.9673-0.68928-6.8929-0.02895-10.661-1.8534-0.45967-2.5121 1.5931-2.9104 2.5734-4.7638 0.87309-1.6543 0.64337-3.5996 0.68928-5.4224 0.092-3.9366 0.32188-7.0308-1.1029-10.738-0.1378-0.35257-0.29121-0.7199-0.42899-1.0875-0.1378 1.0569-0.24489 2.1904-0.38268 3.5996-2.7418 1.2101-5.7594-0.58212-8.1183-0.16848-2.6806 0.47472-4.7025 3.6609-7.7047 3.3545-0.42899-1.1795-1.2101-2.2516-2.1139-3.2626 0.04631 1.1029 0.21421 2.2364 0.55173 3.4005 1.011 3.5537 3.1401 4.9169 6.1117 6.9082 0.0764 1.2101-0.0289 2.4968 0.029 3.7069 1.5011 0.2912 3.0022 0.5974 4.5034 1.0109 0.38268 0.1071-3.232 5.545-3.4465 6.0965-1.4858 3.7375 0.42899 8.0417-1.2101 11.703-0.59735 1.348-2.1598 2.4661-2.8797 4.1204-1.1335 0.06136-2.6959-0.32189-3.7988-0.02895-1.5164 0.39831-6.3874 1.5624-7.4444 2.5734-0.32166 0.2912-0.52081 0.674-0.68929 1.0722-0.62802 1.5471-0.337 3.7069-0.47484 5.208-0.73525 8.0111 0.88842 14.996 2.1138 22.869 0.7812 4.9935-0.32166 12.867 1.1182 18.519 0.35228 1.3633 0.84247 2.604 1.5471 3.6303 0.16848 0.24489 0.38296 0.45967 0.58206 0.67393 0.35228-2.1291 1.4245-3.3545 4.2583-3.4924 2.7725-0.12274 8.0724 1.4705 7.8274-2.7112-0.24489-4.197-4.917-6.0198-6.556-9.3897-1.1335-2.3436-0.9344-7.6895 0.42899-10.094 4.7025 1.2561 5.8973 8.6698 9.7574 10.937 1.2101-4.4115 5.79-4.3962 8.5472-2.1751 0.44404-0.13778 0.91906-0.24489 1.4552-0.27558 0.39831-4.5034-0.96503-7.6282-1.5931-11.703-0.58205-3.8141-0.33693-8.149 0-12.009 0.76588 0.15342 1.8075-0.19915 2.5734-0.04631-2e-3 -3.7069 3.7988-5.7288 6.0198-7.9039 1.2254-1.2101 3.5844-3.4158 4.0898-5.1467 0.75059-2.5734-0.84246-2.5274-2.0526-4.5034z" fill="#a3b0a3"/>
  <path d="m125 76.053c1.2101 1.9913 2.8032 1.9454 2.0526 4.5188-0.49036 1.7156-2.849 3.9213-4.0898 5.1467-2.2057 2.1751-6.0198 4.2123-6.0198 7.9039-0.76587-0.15342-1.8075 0.19915-2.5734 0.04631-0.35257 3.86-0.58206 8.2102 0 12.009 0.62803 4.0745 1.9913 7.1993 1.593 11.703-0.55114 0.0289-1.0263 0.13778-1.4552 0.27557 1.2714 1.0263 2.1445 2.5121 2.1445 4.2583-2e-3 4.5953-0.5974 9.2978-0.73525 13.954-0.0463 1.7462-0.70462 4.871 0.94969 6.0811 1.4858 1.0875 4.9935-0.39831 6.7551 0.24489 2.8337 1.0263 6.6478 8.8689 7.1993 11.779 0.93434 5.0395 0.29237 12.61 4.7025 13.464l-1.9147-0.0463c-1.9937-4.8235 2.6944 1.3469 0.82562-0.73628-0.94968-1.057 5.1404-1.2558 1.3221-0.67123-2.3806 1.2387 0.0107-0.20378 0.91674 0.59295 1.7003 1.4705-1.1498 0.86052 3.1954-0.4944 3.8927-0.69067 4.0578-0.85951 6.4328-5.7683 2.7951-6.4435 2.8918-6.3386 6.0595-18.277 0.63445-17.319 0.31668-6.9786 1.005-18.682-1.075-8.5635-1.138-8.5521-4.1431-17.484-0.73536-5.883-0.79465-5.8605-1.9435-10.885-2.4381-3.3095-1.5782-2.416-3.4481-4.9281-1.5595-2.0247-0.41858-0.07584-2.1025-3.9528-1.1795-1.2561-0.24375 0.37283-0.99398-3.8897-0.842-4.6767-1.008-4.5541-4.0588-8.7093 1.7064-3.1562 1.7646-3.5166 2.4288-8.3303-2.6658-0.71886-5.6796 0.904-8.4674 0.8581-1.7003-0.02895-3.9673 0.29062-5.5603-0.44462-1.1182-0.53609-1.5011-0.98037-2.0066-1.348 0.49036 1.3173 0.94968 2.6193 1.1641 3.86 0.47473 2.8797-0.7965 5.3765 0.76587 7.9499z" fill="#deabab"/>
  <path d="m90.107 137.29c0.03068 1.4552-0.22978 4.4421 0.24506 5.7441 0.87311 2.4202 3.1707 2.0526 5.6828 1.8075 1.4245-2.7725 6.3874-2.9563 9.2825-2.7112 0.029 0.352 0.0614 0.68928 0.092 1.0416 1.5165 0.1378 3.7528-0.2912 5.0089 0.55115 1.2101 0.79649 1.7002 3.5537 2.221 4.7178 1.3173 2.9104 3.2627 5.9433 4.8097 8.7157 1.4705 2.6347 3.324 5.208 5.2999 7.6129 0.91905 1.1335 1.8535 2.2364 2.8031 3.2933 1.8687 2.0678 1.8998 2.0671 1.8381-2.2364l7.0446 0.82609c-3.9805-3.0171-2.6944-7.673-3.6288-12.713-0.55114-2.9104-4.3655-10.753-7.1993-11.779-1.7462-0.62803-5.2693 0.85781-6.7551-0.24489-1.6543-1.2101-0.99565-4.3349-0.94968-6.0811 0.12274-4.6566 0.7199-9.3744 0.73525-13.954 0-1.7462-0.87315-3.232-2.1445-4.2583-2.7572-2.2211-7.3218-2.2364-8.5473 2.1751-3.86-2.267-5.0701-9.6808-9.7573-10.937-1.348 2.4049-1.5624 7.7354-0.42899 10.094 1.6237 3.3699 6.3109 5.1927 6.556 9.3897 0.24489 4.1818-5.0548 2.5887-7.8273 2.7113-2.8338 0.12274-3.9213 1.3633-4.2583 3.4924-0.10722 0.81184-0.15319 1.7156-0.12256 2.7418z" fill="#f99"/>
 </g>
 <g fill="none" stroke="#000">
  <path d="m38.579 63.705-0.16817 2.3544 0.43437 2.026v1.1078l0.55392 0.77549-0.55392 1.6618 0.44313 1.2186-0.88626 0.99705 0.22157 1.4402-1.4402 5.2068-0.88626 0.99705 0.88626 0.88627-0.6647 1.551 0.88627 1.1078-0.33235 1.4402 2.3265 1.551 1.1078-0.77548 1.4402 2.4372v1.3294l1.4402 1.1078-1.551 0.11078-0.55392 0.77549 0.44313 1.1078-0.6647 1.3294 0.6647 0.99705 0.99705 0.6647 0.88627 1.1078v1.2186l0.77549 1.6618-0.44314 2.9912-1.551 2.1049-0.6647 2.1049-1.3294 0.88627-0.11079 2.3265-0.6647 1.1078 1.7725 4.8745-1.1078 2.2157 1.8833 4.3206 0.99705 1.1078-0.22157 1.2186 1.9941 0.6647 1.8833 4.099 0.22158 1.7725 1.6618 0.77548-0.33235 3.2127-0.55392 2.6588-0.44313 1.7725 0.11079 1.6618-0.44313 1.1078-1.2186 0.22157-0.33234 1.2186 0.6647 1.2186-0.33235 0.88627 0.66471 1.7725 0.99705 1.2186 1.6618 1.7725-0.22158 1.551-0.22157 1.7725v2.3265l0.22157 1.4402 0.11079 0.88627 0.88626 1.551v1.2186l1.551 0.33234-0.22157 1.9941 0.44314 0.99705 0.33234 1.1078-0.33234 0.99705-0.66471 0.22157 0.55392 1.4402 0.55392 0.77549-0.22157 0.99705 0.6647 1.4402 1.1078 0.55392-0.66471 1.2186v1.4402l-0.22157 1.2186-0.11078 1.2186-0.33235 1.3294 0.77548 0.88628 0.88627-0.66471 1.4402-0.44313-0.44313 1.551" stroke-width=".5px"/>
  <path d="m55.02 181.75 0.77017 2.6186 1.3863 1.6944 3.2347 2.6186-1.0782-1.8484-0.30806-1.5403v-1.8484l-0.30807-1.3863 1.6944-2.6186 1.8484 0.61614 0.46209-3.2347" stroke-width=".5px"/>
  <path d="m38.579 63.705 0.60878-0.60878 1.1161 0.20292 0.30439-0.60878h0.91316l0.60878 1.0146 0.91316-0.50731 0.30439 0.71024 0.8117-0.50731h0.30439l0.50731-0.8117 0.60878 0.91316 0.30439 1.0146 0.50731-1.0146 0.50731-0.20292 0.40585-1.0146 0.30439 0.91316h1.6234l0.71024 0.40585 0.91316 0.30439 0.8117 0.71024 0.91316 0.50731 0.40585 0.50731-0.20293 1.0146 0.8117 0.50732v2.7395l0.71024-0.10146 0.71024 0.40585v0.71024l0.81171-0.20292 0.8117-0.40585-0.20293 0.71024 1.0146-0.30439v0.91316l0.60877-0.50731 0.71024 0.10146 0.91316-0.20293h0.60877v-0.50731l0.20293-0.91316 1.6234 0.10146 0.10146 0.8117 0.71025-0.60878 1.0146-0.20292 1.5219-1.9278 0.40585 1.8263 0.20292 0.60878 0.71024 1.1161-0.10146 1.5219 0.10146 1.4205 0.40585 0.30439h0.60878l0.40584-1.4205 0.91316 0.50731-0.20293-1.7249 0.71025-0.71024 1.2175 0.91316-0.20292 1.1161 0.60878 0.50731-0.30439 1.1161 0.20293 1.0146 0.71023-0.71024 0.20293 0.71024 0.8117 0.30439-0.60877 0.91316 0.40584 0.71024 0.60878 0.40585-0.30439 1.1161 1.1161 0.10146 0.71024 0.20292v0.8117l1.1161 1.0146h1.2176l0.8117 0.71024 1.0146 0.40585 0.60877 1.0146 0.60878 0.10146 0.81171 0.8117v0.8117l1.2175 2.0293 0.91316 0.30438 0.10147 0.71025 0.20293 0.60877 0.81169-1.0146 1.0146 0.30439 0.20293 0.30439 1.0146 0.60878 0.60877 1.8263 0.40585-0.91316v-1.0146l0.91316 0.30439-0.10146-0.91316-0.20292-0.8117 0.8117 0.20293 1.2176 1.1161 1.319 0.20293 1.9278 1.2176" stroke-width=".5px"/>
  <path d="m38.579 63.705-0.1333-1.0664-1.333-0.2666-0.1333-1.0664-1.333 0.13331-0.1333-0.93311 0.5332-0.7998-0.3999-0.5332-0.7998-0.2666v-0.9331l-0.6665-0.7998-0.3999-0.5332h-0.3999l0.9331-1.0664 0.2666-1.7329-1.1997-1.4663-0.7998-1.8662v-1.8662l1.333-0.3999 0.5332-0.93311-0.2666-0.7998-0.7998-0.3999 0.7998-1.0664h1.0664l1.1997-1.0664-0.6665-1.333 0.1333-1.1997-0.2666-1.7329 0.1333-0.7998-0.7998-0.9331 0.1333-1.4663-0.1333-1.5996 0.9331-1.8662-0.2666-2.7993 1.0664-1.5996v-1.7329l-0.2666-0.6665 0.6665-0.6665-0.3999-0.9331 0.2666-0.9331-0.1333-1.5996-1.5996-3.4658" stroke-width=".5px"/>
  <path d="m44.385 101.1 1.2589 1.6365 1.5106-0.37766v1.2589l1.0071 1.8883 0.88121 0.62944 0.88122 0.12588v1.0071l0.62943 0.25178 0.75532-0.25178v0.88121l1.0071 0.37766 0.50355-1.3848 0.62943 0.12589 0.37767-1.133v-0.50355l-0.62944-1.0071-0.12589-0.62943 0.37766-0.37767 0.12589-1.0071-0.50355-1.133-0.12589-2.8954" stroke-width=".5px"/>
  <path d="m53.448 107.27 0.57328 0.39843 0.1911 1.2949 0.47773 0.19923 0.66883 1.1953 2.1976 1.5937 1.5288 1.4941 1.3377 0.0996 1.4332 0.99606 0.66883 0.59764 0.19109-0.99606 0.85993 0.0996 0.66883 0.0996 0.09554-0.99606 1.2421 1.3945v1.1953l1.3377 1.4941 2.5798 0.79686 0.95547 0.1992v-0.39843l-0.38218-0.59763 1.051 0.59763 0.28664-0.69725h0.57328l-0.1911-2.6894 0.76438 0.99609 0.76438-0.69725 0.47774-0.19923 0.19109-0.79686-0.28664-1.2949-0.1911-0.89648v-0.49802l1.051 0.49802 0.57328-0.29882 0.19109-0.99606-0.19109-0.39844-0.66883-0.59763-1.1466-0.79686-0.09555-5.9764 0.47774 0.19923 0.38219-0.59767 0.57328 0.29884v-1.6933l0.28664-0.69725 0.38219-0.69725 0.85992 0.2988-0.09554-0.69725v-0.59764l0.57328 0.09959 0.66883 0.19922 0.47774-0.89647 0.28665-1.4941 0.28662-1.0957 0.66884-0.49803 0.47773-0.19922-0.28665-0.39842 0.38219-0.79686 0.5733 0.79686 0.47773-0.89647 0.38219-0.69725 0.66882-0.39842 1.051-0.29883v-0.79686l-0.09553-0.29881-0.47776-0.39844 0.09556-0.89645-0.19111-0.69725-0.66882-0.49805 0.66882-0.39842 0.09553-0.59764" stroke-width=".5px"/>
  <path d="m55.363 110.36 0.10901 0.91771 0.43605 0.50985-0.65406 0.3059-0.76308 1.4276v2.8551l0.21803 1.0197v1.1216l-0.32704 1.0197v1.3256l-0.10901 0.81576v0.50983l-0.8721 0.50984 0.8721 0.71378-0.32704 0.91772 0.76308 1.1216-0.32704 0.6118v1.3256l0.32704 1.0197 0.65406 1.0197 0.21803 1.2236 0.76308 0.6118v1.8354l0.32703 0.61182-0.54506 0.91771-0.32704 0.50985-0.10901 1.7334 0.21802 1.0197 0.43606 2.0394-0.10902 1.5295-0.21802 0.71378-0.10902 0.91772-0.54505 0.40787-0.43604-0.50984-0.65406 0.30589-0.32704 1.0197-0.54506-0.40788v-1.2236l-0.76308 0.71378h-0.76307l-0.65407 0.40787-0.65407 1.0197-0.43604 0.40788-0.76308-1.0197-0.32704 0.6118-0.10901 0.71378-0.43604-0.91771-1.1991-1.2236" stroke-width=".5px"/>
  <path d="m33.381 56.64-0.49709 0.49709-0.91133 0.41424-0.74563 0.41424-0.24854-0.82848-0.74564-0.33139-0.1657-0.57994-0.49709 0.33139-0.08285 0.41424-0.91133 0.57994-0.02589-0.55301-0.12531-0.50123 0.87716-1.441-0.75185-0.25062 0.56389-0.37592-0.87716-0.31327 0.75185-0.12531-0.12531-0.50123v-0.50123l-0.87716 0.25062-1.5037-0.50123-0.31327-0.31327-0.25062-0.50123-0.18796 0.62654v0.31327l-0.06265 0.8145 0.18796 0.87716-0.25062 1.3157-0.62654-0.06265-0.43858-0.37592-0.06265 0.37592-0.31327 0.25062-0.31327 0.18796 0.43858 1.0651-0.62654 0.18796-0.25062 0.62654-0.68919 0.25062 0.12531 0.56388-0.43858 0.50123h-0.8145v-0.50123l-0.62654-0.31327-0.75185 0.37592-0.37592 0.06265-0.18796 0.50123-0.31327 0.18796-1.0651 0.50123 1.441 0.12531-0.8145 0.25062-0.25062 0.8145-0.62654 0.06265-0.31327 0.43858-0.50123-0.31327-0.37592 0.12531-0.31327 0.8145-0.25062-0.43858-0.25062-0.18796 0.06265-0.56389 0.43858-0.75185-0.87716 0.31327 0.31327-0.62654-0.37592-1.0025-0.50123 0.8145-0.62654-0.18796 0.18796 0.75185-0.18796 0.37592-0.50123 0.12531 0.31327 0.50123-0.25062 0.06265-0.50123 0.50123-0.31327-0.25062-0.25062 0.50123-0.50123 0.50123-0.37592-0.75185-0.25062-0.50123 0.06265-0.50123 0.18796-0.56388-0.37592-0.37592-0.12531-0.50123-0.12531-0.62654-0.06265-0.56389-0.18796-0.31327-0.31327-0.8145-0.87716-0.12531-0.31327-0.37592 0.25062-0.50123-0.18796-0.43858-0.25062-0.37592 0.50123-0.31327v-0.25062l-1.0025-0.37592-0.43858-0.68919v-0.37592l0.43858-0.43858-0.56389-0.37592-0.18796-0.50123 0.12531-0.68919 0.56388-1.3784v-0.68919l0.25062-0.62654 0.62654-0.12531 0.18796-0.75185 0.25062-0.87716v-0.75184l0.25062-0.87716-0.06265-0.56389-0.37592-1.0025-0.25062-0.93981-0.06265-0.75185 0.25062-0.43858-0.06265-0.31327-0.18796-0.18796-0.18796-0.62654 0.06265-0.56388-0.43858-1.7543v-1.5664" stroke-width=".5px"/>
  <path d="m52.905 98.586-0.40358-0.3898-0.11531-0.30319 0.23062-0.25987v-0.38981l-0.23062-0.17326-0.11531-0.30318-0.05766-0.47644-0.05765-0.21656h-0.17296l0.46123-0.17325v-0.25988l0.05766-0.17325-0.05766-0.47643 0.46123-0.04329 0.11531-0.43312-0.05765-0.51975-0.05766-0.30318 0.23062-0.43312 0.34593-0.17326-0.23062-0.17325v-0.693l-0.46123-0.25987h0.34592l0.28827-0.3465v-0.51975l-0.23062-0.08662-0.40358-0.04333v-0.51975l0.23062-0.30319 0.40358 0.25988 0.34592-0.17325-0.23062-0.21656-0.1153-0.12994v-0.95287l0.28827-0.43312-0.23062-0.25988 0.05765-0.21656-0.46123-0.25988v-0.47647l0.51889-0.77962 0.11531-0.25987 0.05765-0.38981-0.57654-0.3465 0.17296-0.21656-0.46123-0.04333 0.51889-0.43312-0.51889-0.08663-0.1153-0.17325v-0.38981l0.34592-0.56306-0.34178-0.1181 0.1908-0.20067-0.1908-0.172v-0.45867l0.03815-0.54468 0.11448-0.37267 0.11448-0.28667v-0.344l-0.03815-0.31534-0.07633-0.37267 0.22896-0.258-0.34344-0.22934 0.57239-0.83135-0.38159-0.20067-0.30528-0.11467 0.34344-0.57334 0.03816-0.20067-0.15264-0.20067 0.07633-0.48734 0.41975-1.032-0.1908-0.08599-0.07633-0.63068 0.22896-0.28667 0.57239-0.086-0.11447-0.14334h-0.3816l-0.19079-0.344 0.22895-1.032 0.07633-0.51601-0.26712-0.172v-0.20067l0.38159-0.05734 0.1908-0.11467 0.07632-0.91735v-0.48734l-0.30528-0.20067v-0.28667l-0.45791-0.11467 0.22895-0.086v-0.31534l0.15264-0.11467v-0.20067" stroke-width=".5px"/>
 </g>
 <g fill-rule="evenodd" stroke-width=".21354">
  <ellipse cx="35.257" cy="19.019" rx="1.4484" ry="1.5146"/>
  <ellipse cx="9.2732" cy="37.019" rx="1.4484" ry="1.5146"/>
  <ellipse cx="38.643" cy="63.627" rx="1.4484" ry="1.5146"/>
  <ellipse cx="93.517" cy="90.512" rx="1.4484" ry="1.5146"/>
  <ellipse cx="62.674" cy="176.97" rx="1.4484" ry="1.5146"/>
  <ellipse cx="53.743" cy="174.02" rx="1.4484" ry="1.5146"/>
  <ellipse cx="45.549" cy="145.57" rx="1.4484" ry="1.5146"/>
  <ellipse cx="52.914" cy="98.706" rx="1.4484" ry="1.5146"/>
 </g>
 <g fill="#000000" font-family="sans-serif" font-size="3.5278px" letter-spacing="0px" stroke-width=".26458" word-spacing="0px">
  <text x="38.436306" y="19.065475" style="line-height:1.25" xml:space="preserve"><tspan x="38.436306" y="19.065475" font-size="4.2334px" stroke-width=".26458">Kolasib</tspan></text>
  <text x="12.334501" y="37.594532" style="line-height:1.25" xml:space="preserve"><tspan x="12.334501" y="37.594532" font-size="4.2334px" stroke-width=".26458">Mamit</tspan></text>
  <text x="38.597427" y="59.023796" style="line-height:1.25" xml:space="preserve"><tspan x="38.597427" y="59.023796" font-size="4.2334px" stroke-width=".26458">Aizawl</tspan></text>
  <text x="55.676388" y="99.62661" style="line-height:1.25" xml:space="preserve"><tspan x="55.676388" y="99.62661" font-size="4.2334px" stroke-width=".26458">Siaha</tspan></text>
  <text x="82.422684" y="95.920799" style="line-height:1.25" xml:space="preserve"><tspan x="82.422684" y="95.920799" font-size="4.2334px" stroke-width=".26458">Champhai</tspan></text>
  <text x="28.930094" y="142.64626" style="line-height:1.25" xml:space="preserve"><tspan x="28.930094" y="142.64626" font-size="4.2334px" stroke-width=".26458">Lunglei</tspan></text>
  <text x="65.504845" y="177.60979" style="line-height:1.25" xml:space="preserve"><tspan x="65.504845" y="177.60979" font-size="4.2334px" stroke-width=".26458">Siaha</tspan></text>
  <text x="54.709656" y="170.5204" style="line-height:1.25" xml:space="preserve"><tspan x="54.709656" y="170.5204" font-size="4.2334px" stroke-width=".26458">Lawngtlai</tspan></text>
 </g>
</svg>
