<svg width="202.61mm" height="225.01mm" version="1.1" viewBox="0 0 202.60797 225.01195" xmlns="http://www.w3.org/2000/svg" xmlns:cc="http://creativecommons.org/ns#" xmlns:dc="http://purl.org/dc/elements/1.1/" xmlns:rdf="http://www.w3.org/1999/02/22-rdf-syntax-ns#">
 <metadata>
  <rdf:RDF>
   <cc:Work rdf:about="">
    <dc:format>image/svg+xml</dc:format>
    <dc:type rdf:resource="http://purl.org/dc/dcmitype/StillImage"/>
    <dc:title/>
   </cc:Work>
  </rdf:RDF>
 </metadata>
 <g transform="translate(-3.1184 -42.234)" stroke="#fff" stroke-width=".5">
  <path d="m191.1 52.761c2.8837-0.11776 2.9152-3.7822 2.9152-3.7822 0.30939 3.5135-0.50757-0.50467-1.4867-2.2064-2.2782-3.9588-1.4071-4.8826-2.2782-3.9588-1.4602 1.5488-5.3452 5.8099-7.4473 6.4958-1.8806 0.5974-4.2482 0.2655-6.2172 0.86289-2.6994 0.79651-7.235 0.95139-9.4476 2.5445-2.3452 1.7037-1.239 5.111-2.3674 7.7218-3.2303 0.68588-5.0446 5.465-6.4163 7.6553-1.3718 2.2125-3.6286 3.8277-5.9074 5.1995 1.7037 2.5445 2.5445 5.7305 2.6772 8.6953-1.7701 0-1.8806 0.73012-3.2303 1.6594 0.73014 1.6373 0.50885 5.0004 1.3939 6.2614 1.6594 2.301 2.1461 0.53101 4.4471 1.593 3.8499 1.7701 3.9162 4.9561 5.7083 9.0493 1.4824 3.4294 5.1773 6.3057 6.1067 9.713 0.88497 3.2525-0.95138 6.704 0.44235 10.089 2.8321 6.8589 12.103 7.744 18.298 4.6022 2.655-1.3497 2.6739-1.1497 2.3257-5.5027-1.3063-5.1875-1.4746-5.2285-0.4131-13.423 2.3543-3.0752 2.3756-3.304 5.3277-8.973 3.73-7.04 4.0362-6.7012 9.8847-13.962-2.9242-4.2891-2.7026-3.3077-5.7092-9.5347-1.214-5.8698 0 0-1.4816-8.8513-5.5785-7.0564-4.9274-5.703-7.1244-11.948z" fill="#e2b584"/>
  <path d="m198.61 156.96c1.4832-5.3424 1.1833-2.6656 1.6328-9.5257-3.9764-3.2938-6.1222-14.044-7.1961-18.632-2.6203-5.1194 5.2992 15.127 3.486 8.3015-2.7247-4.6099-5.5384-13.494-8.2154-12.167-5.427 3.9101-15.466 2.2568-18.298-4.6021-1.3939-3.3852 0.44236-6.8367-0.44234-10.089-0.92933-3.4073-4.6022-6.2836-6.1067-9.713-1.7701-4.0711-1.8585-7.2793-5.7083-9.0493-2.3012-1.062-2.7878 0.70804-4.4473-1.593-0.90714-1.239-0.68586-4.6242-1.3939-6.2614 1.3497-0.92927 1.4603-1.6594 3.2303-1.6594-0.1327-2.9647-0.97353-6.1508-2.6772-8.6953-0.79649 0.4646-1.571 0.90714-2.3454 1.3496-2.2125 1.2169-4.5357 2.3232-6.881 3.4073 0 2.5887-1.2612 5.5756-1.947 8.4962-1.5708 6.5934 5.0004 8.1422 5.0225 14.116 0 2.7214-1.2833 5.487-1.3054 8.3191-0.0444 3.1418 0.17709 5.996-0.50885 9.1157-1.3054 6.0403-5.6641 8.3413-9.8236 12.545-6.0403 6.1066 0.5974 3.9604 1.9912 9.8458 0.1327 0.55317 0.2212 1.062 0.26565 1.5708 2.1904 0.19913 4.3144-0.37613 6.5049 0.13269 9.5361 2.2568 1.5488 20.644 1.239 27.479 1e-3 -1e-3 0.0445-0.0659 0.0659-0.0885l1.7479-6.2836c-0.0886 3.2967-0.59739 4.779-1.7479 6.2836l-0.0886 0.30972c0-0.0659 1e-3 -0.15491 1e-3 -0.24334-0.66371 0.84079-1.5266 1.7257-2.6329 2.9427-2.5887 2.8543-2.1241 5.9518-4.2924 8.651 3.164 1.3496 7.08 1.7257 9.9122 3.1418 2.8541 1.4381 4.1818 5.2215 5.819 7.7882-1.2833 0.33189-2.1683 0.95139-3.1418 1.4824 0.86291 0.59741 1.7037 1.2169 2.4338 1.8585 1.5268-2.6329 3.9384-2.0355 6.3279-3.186 2.9869-1.4603 3.9384-3.9826 7.766-2.9205 0.81868 3.0534 3.009 5.5313 3.8056 8.5626 0.7526 2.8321 0.39803 6.2836 0.84083 9.2042 0.28752 1.947 0.84074 3.7391 1.4824 5.465 1.062 0.55319 2.1461 1.0842 3.2523 1.4603 2.7354-11.392 3.2423-11.201 6.3706-18.306 8.9919-7.1294 8.8764-7.3654 7.0929-15.819-2.2224-6.2808 0.94934-11.729 5.8239-18.396 3.2881-4.403-8.2196 13.062-4.8745 6.6675z" fill="#f2c0f2"/>
  <path d="m174.04 213.37-6.3819 5.4178c4.7177-5.0568 2.8136-2.5747 5.2535-6.1037-0.64139-1.7257-1.1948-3.518-1.4824-5.465-0.44238-2.9205-0.11054-6.3721-0.84084-9.2041-0.79606-3.0312-2.9869-5.5092-3.8056-8.5626-3.8278-1.062-4.7791 1.4824-7.766 2.9205-2.3895 1.1505-4.8012 0.55317-6.3278 3.186-0.7301-0.64163-1.5488-1.2611-2.4338-1.8586-0.531 0.28767-1.1063 0.57526-1.7701 0.70805-1.925 0.42039-4.2924-0.24334-6.2836-0.17702-3.0754 0.11065-3.5622 0.57526-6.0403-0.9514-1.9912-1.239-3.0976-3.2082-5.0888-4.3366-4.5357-2.5445-23.719-1.5488-22.258 6.0403-0.73011-0.13269-1.4381-0.3319-2.1241-0.55316-0.70802 3.1418-1.7257 6.2172-3.2303 9.1599-3.872 7.5448-5.7526 16.638-7.1022 25.113 0.88501 0.59739 1.1284 1.6594 2.655 1.9028 1.5046 0.24335 3.0534-0.79651 4.6684-1.3718 4.0047-1.4381 6.35-2.3232 10.753-2.4559 2.8321-0.0885 7.9873 0.48678 10.244-1.6152 1.8806-1.7479 0.77436-3.6728 1.4824-5.6861 0.68588-1.9028 1.5488-2.3896 2.7214-4.1153 0.6195-0.90716 6.4827-9.8901 7.5448-9.1379 1.2611 0.90715 2.2125 1.3718 3.7613 1.925 0.26566 6.9031-0.64161 13.961-0.37613 20.864 6.5934 0.57523 6.4909 1.681 13.195 2.367 1.3857-4.2078 1.3857-4.2078 4.7161-5.4407 3.872-0.5974 4.1366-0.7363 7.9422-1.8204 2.1344-5.6173 2.0906-5.1679 4.8066-7.9054 2.8017-2.9172-0.28333-0.0678 3.5683-2.8431z" fill="#e7de69"/>
  <path d="m96.34 190.2c-0.28751-1.7921-0.13264-4.7128 0.88502-6.2394 0.90713-1.3718 2.9869-1.3939 3.6729-2.7214 1.593-3.1418 0.0885-8.3413 1.5488-11.749h0.35398c-5.0888-1.6594-9.6467-1.925-9.5361 4.0268-3.1196 1.3939-6.9474 0.19912-10.266 0.33192-3.3851 0.13269-5.819 1.5046-8.9166 2.5665-1.1726 0.39829-2.279 0.6638-3.2967 0.79651 0.35397 3.6065-0.39832 7.0138-2.279 9.6024 2.1241 2.3896 3.894 4.8233 4.5135 6.7261 1.7037 5.3101-5.5313 11.085-9.359 14.293-0.44254 1.6594-1.8585 2.6329-2.3232 4.2702-0.44254 1.5488 0.55316 4.757-0.53101 5.9296-1.925 2.1019-10.288 0.22126-12.789-0.17703-2.5887-0.42038-2.8321-1e-3 -4.8675-1.7037-0.92928-0.77433-2.2125-3.8277-2.8099-4.1373-4.9561-2.633-5.6863 2.6329-6.0181 5.9738-3.3189 0.53098-7.6553-1.2612-10.687-2.3896-0.97352-0.35397-2.0798-0.73012-3.2303-1.1063-1.4824 1.1726-3.3631 1.6815-3.3631 5.2215-3.1196 1.2833-10.974 3.6064-12.678 6.4385-2.279 3.7835-0.1328 1.593 1.3497 4.4915 0.2655 0.50892 2.6108 4.9119 3.4073 5.465 6.1952 4.2038 9.9121-1.5488 9.6024 8.9166-0.13278 4.6684-0.68588 9.2263 0.81867 13.341 3.2303 0.11054 6.6818 0.28785 7.744 3.2303 4.1817 1.1284 7.9651 3.7613 12.036 5.3323 2.5887-5.3765 3.6064-10.996 8.1642-14.913 2.7214-2.3454 4.58-3.9604 6.5712-7.1022 2.9869-4.7128 1.4603-8.8059-3.9162-9.337 1.5046-3.8276 8.0093-3.6064 11.328-5.2659 4.3366-2.1461 7.1687-3.0312 12.28-2.9205 3.7613 0.0659 7.3456 0.35399 10.864 1.4824 2.3454 0.7523 3.3409 1.8143 5.841 1.4824 1.3718-0.17705 3.3409-2.0134 4.0489-2.0577 0.92928-0.0443 1.4824 0.1327 1.9028 0.42037 1.3496-8.474 3.2303-17.567 7.1023-25.113 1.5046-2.9427 2.5445-6.0181 3.2303-9.1599-2.9427-0.90714-5.6863-2.301-8.7397-2.5223-0.61948-0.66383-0.92925-1.0842-1.6594-1.7257z" fill="#c2f0c2"/>
  <path d="m68.505 186.79c-1.9028 2.6329-4.9118 4.4251-9.0272 4.7348-4.6464 0.35399-6.35 0.0443-8.8944-4.3587-1.2611-2.1683-3.518-7.3235-0.46461-9.0714-4.0489 2.3232-8.0979 3.164-12.634 3.9826-0.86288 3.54-0.28766 6.6154 3.2525 8.2528-2.8763 7.058-12.811 6.7483-17.102 12.744-2.3674 3.3189-0.48677 5.9074-1.8364 9.5581-0.30974 0.86289-0.84076 1.416-1.3939 1.8586 1.1505 0.37614 2.2568 0.75227 3.2303 1.1063 3.0534 1.1284 7.3678 2.9205 10.687 2.3896 0.33189-3.3409 1.062-8.6288 6.0181-5.9739 0.59742 0.33189 1.8806 3.3631 2.8099 4.1374 2.0355 1.6815 2.279 1.2833 4.8675 1.7037 2.5001 0.39829 10.864 2.279 12.789 0.177 1.0841-1.1948 0.08848-4.4029 0.53101-5.9296 0.46461-1.6372 1.8806-2.6107 2.3232-4.2702 3.8278-3.2082 11.063-9.005 9.359-14.293-0.61948-1.925-2.3896-4.3587-4.5135-6.7483z" fill="#a3b0a3"/>
  <path d="m111.21 153.45c-2.1904-3.4073-1.8364-6.173 0.79653-8.0758-0.57527-0.99564-0.99564-2.1241-1.1505-3.4073-0.68589-5.5092 2.3232-11.66-2.8321-15.753-0.15487-3.8056 0.0886-7.5891 0.70803-11.151-0.15487 0.0443-0.30976 0.11065-0.53101 0.15486-1.947 0.46461-3.0976-0.30974-3.6729-1.947-0.90713-2.6329 0.50885-6.3943-0.1771-9.1821-1.4824-0.22126-5.7526 0.35398-6.7483 1.5046-4.8675 5.6199-2.5887 14.934-6.4163 21.108-2.3674 3.8056-6.0401 3.6729-8.6953 6.3278-0.33196 0.33189-10.576 19.25-11.063 18.011 2.5887 6.527 7.5005 5.7083 1.4603 12.08-4.4029 4.6242-4.8675 3.9384-2.8985 10.244 0.39822 1.2832 0.64166 2.5665 0.77438 3.8277 1.0178-0.13284 2.1241-0.39831 3.2967-0.79652 3.0976-1.062 5.5313-2.4559 8.9166-2.5665 3.3189-0.13269 7.1465 1.062 10.266-0.3319-0.11077-5.9517 4.4473-5.6862 9.5361-4.0268 5.5756-0.15491 8.0536 0.0443 10.687-5.5092 1.571-3.2745 3.5844-10.532-2.2568-10.51z" fill="#abacda"/>
  <path d="m141.27 86.547c0.68587-2.8985 1.947-5.8854 1.947-8.4962-9.3812 4.2924-19.205 8.1864-23.409 17.877-1.2833 2.9205-0.8629 6.1952-1.6815 9.2041-0.95137 3.4516-4.9782 5.1552-7.2571 7.6333-1.062 1.1505-0.86287 1.8364-2.1241 2.279-0.61948 3.5622-0.8629 7.3456-0.70806 11.151 5.1552 4.1153 2.1461 10.244 2.832 15.753 0.15488 1.2833 0.57524 2.4116 1.1505 3.4074 0.5974-0.44255 1.3054-0.84076 2.1461-1.1726 3.2303-1.2612 2.4559 0.73013 4.4915-2.1019 0.97353-1.3496 1.239-3.7834 1.9028-5.4208 5.5535 0.11066 1.6594 7.8102 8.8944 5.7526 1.1726-0.33188 1.3718-2.1019 3.0312-2.2568 1.2611-0.11065 2.4116 1.5266 3.5843 1.7479 0.2875 0.0443 0.55315 0.0885 0.81866 0.11065-0.0444-0.50885-0.13271-1.0178-0.26565-1.571-1.3939-5.8854-8.0095-3.7392-1.9912-9.8458 4.1596-4.2038 8.5184-6.5049 9.8237-12.545 0.68585-3.1418 0.46461-5.9961 0.50885-9.1157 0.0444-2.832 1.3275-5.5977 1.3054-8.3191 0-5.9296-6.5712-7.4784-5.0004-14.072z" fill="#fcc"/>
  <path d="m147.6 184.41c-2.8321-1.416-6.7483-1.7921-9.9123-3.1418 2.1905-2.6994 1.7037-5.7968 4.2924-8.651 1.1063-1.2169 1.9692-2.0798 2.6329-2.9427 0.30975-6.8367 8.2971-25.223-1.239-27.479-2.1904-0.50885-4.3144 0.0659-6.5049-0.13269-0.26565-1e-3 -0.55319-0.0659-0.81871-0.11065-1.1948-0.22127-2.3452-1.8808-3.5842-1.7479-1.6594 0.15492-1.8586 1.925-3.0312 2.2568-7.2351 2.0576-3.3409-5.6419-8.8944-5.7526-0.64163 1.6152-0.90713 4.0489-1.9028 5.4208-2.0355 2.8321-1.2611 0.84077-4.4915 2.1019-0.84073 0.33189-1.5488 0.73011-2.1461 1.1726-2.633 1.8806-2.9869 4.6684-0.79654 8.0758 5.8412-1e-3 3.8498 7.2349 2.301 10.51-2.6329 5.5535-5.133 5.3543-10.686 5.5092h-0.35397c-1.4603 3.4294 0.0445 8.6068-1.5488 11.749-0.68588 1.3275-2.7656 1.3496-3.6729 2.7214-1.0178 1.5266-1.1726 4.4472-0.88501 6.2394 0.7301 0.64165 1.0178 1.062 1.6373 1.7257 3.0534 0.22127 5.7968 1.6152 8.7395 2.5223 0.68587 0.22126 1.3939 0.42037 2.1241 0.55317-1.4603-7.5891 17.722-8.5626 22.258-6.0403 1.9912 1.1063 3.0976 3.0976 5.0888 4.3366 2.4781 1.5266 2.9427 1.062 6.0403 0.9514 1.9692-0.066 4.3586 0.57526 6.2836 0.17701 0.66371-0.1549 1.239-0.42037 1.7701-0.70802 0.97352-0.53101 1.8586-1.1727 3.1418-1.4824-1.6815-2.5887-2.9869-6.3943-5.841-7.8324z" fill="#dcc"/>
 </g>
 <g transform="translate(-3.1184 -42.234)" fill="none" stroke="#000" stroke-width=".5px">
  <path d="m187.08 83.95-2.1292-2.3067-1.4195-0.53232-0.17744-0.8872-1.2421-0.17744-1.7744-0.17744-0.88721 1.0646h-1.7744l-0.88718 1.5969-1.597 1.4195h-2.3067l-0.17743 1.0646 0.35487 1.4195-3.0165-0.17744-1.4195-0.53231-0.53231-1.9518-0.17745-1.597-1.597-0.53232-0.70974 0.35488-1.4195-0.53232-0.17744-0.8872 0.53231-1.9518-1.0646-0.17744-0.53233-2.4841v-1.597l-1.0646-0.17744 0.17744-2.839-1.0646-2.839 0.8872-2.3067-2.4842-1.2421-3.1939-6.0329-1.2421-0.70976-2.1293 1.9518-3.5488 2.6616-3.5488 0.70976-1.9518 0.70976-3.0165 0.17744-1.9518 1.9518-2.4842 0.53232-2.6616 3.5488-2.1293 0.8872-2.1293 2.3067-2.1293 3.3713-3.1939 2.839-1.9518 1.9518-0.35487 2.4841-0.53232 2.3067h-2.1293l-4.2585 2.3067-4.6134 2.6616-2.4841 0.53232-1.9518 0.70976-2.6616 2.839-7.9848 3.0165-5.3232 3.3713-2.1293 0.70976-1.9518 2.1293-2.6616 0.70975-2.1293 1.4195-3.0165 0.53232-4.436 1.7744-0.35488 1.7744-3.7262-0.17743h-6.3878l1.2421 3.3713v1.597l-1.9518 1.4195-0.17744 3.0165-1.7744 0.70975v1.0646l-0.53232 1.597-1.4195 1.4195-1.2421 2.1293-0.35488 2.1293v1.597l1.2421 1.9518-1.597 1.2421 0.35488 2.839-1.9518 2.6616-2.1293 5.1457-3.7262 3.1939 0.35488 1.9518v2.6616l-0.88719 6.3878-1.0646 3.9036-0.17744 2.1293-2.1293 3.7262 1.2421 2.4842-0.17744 2.1293-1.0646 1.9518-0.53232 2.4842-2.839 1.2421 0.53232 2.839-0.17744 2.1293h1.5969l2.3067 5.1457 1.4195 5.678 0.70976 2.3067 1.7744 0.70976 0.17744 1.9518 0.70976 1.7744 1.4195 0.17744 2.6616 1.597 4.9683-1.597 3.3713-0.70975 1.9518 0.35487 1.4195 1.9518 2.1293 0.35488 1.0646 0.35487v1.4195l1.597 0.35488 1.597-0.17744 1.4195 0.53231 1.9518 1.0646 0.70976 1.597v1.2421l-0.35488 1.5969h2.1293l2.1293 1.4195 2.6616 2.3067"/>
  <path d="m83.629 215.43v-1.6194l-1.4395-0.89968v-1.6194l-1.9793-2.1592 1.6194-1.7994-1.4395-1.4395-0.35987-2.3392 1.2596-0.89969 2.879-0.35988 2.1593-1.4395 0.35988-1.4395 2.1593-3.5988-0.35988-2.1592 1.6194-2.5191 4.1386-2.879 0.89969-2.6991 1.6194-1.2596v-1.2596l-1.0796-1.4395-0.17994-2.3392 2.6991-2.5191 1.9793-2.879v-3.5988l0.17994-2.5191 1.0796-3.5988-1.7994-3.5988 2.1593-1.0796 2.879-0.89969 1.7994 0.89969h2.879l3.5988 2.879 1.0796-1.7994 1.6194-0.89969 2.3392 0.17994-0.71976-1.2596 0.35987-1.4395 0.8997-1.9793-0.17994-1.7994-0.17995-0.71975 0.35989-1.2596 0.89968-2.3392v-1.0796l-0.35987-0.89968-0.17994-1.4395-0.53981-1.0796s-0.8997-0.17994-0.35987-0.89969c0.53981-0.71975 3.0589-3.2389 3.0589-3.2389l3.2389-0.53982 1.6194-1.9793 2.5191-0.53981 0.53981-1.2596v-1.4395l1.4395-1.9793 2.5191 0.35988 0.71975-0.17994 0.8997-3.059 0.17994-2.3392 1.7994-0.17994 3.9586-4.6784 0.35987-2.3392 1.9793-0.35987 0.89969-4.1386 1.9793-1.7994 0.17994-2.6991 1.4395-1.6194v-3.5988l1.6194-2.879-1.2596-3.0589 0.17993-3.9586 0.35988-0.89969h1.2596l2.5191-1.4395 0.53981-1.2596 1.4395-1.9793 1.2596-0.89969 2.6991 1.0796-0.17994-1.2596 0.71976-1.2596 0.53979-2.1593h1.0796l1.4395 0.53981 1.4395 0.17994 2.879-4.8583"/>
  <path d="m117.59 195.23 1.0986-0.76793h0.66127l0.10665-0.44796 1.2159-0.66126 0.76792 0.55461h1.2159l-0.11732-0.66126 0.22398-0.55461-0.10666-0.66127h0.76792l0.55461 0.77858 0.54395-0.22397 0.11732 0.66127 0.66126 0.22397-1.4398 1.4292-0.10666 0.66127 0.9919-0.66127 0.43729 0.33064 0.11732-0.66128 1.2052-0.43728 0.77859 0.54395-0.22398-0.87459 0.43729-0.22397 1.3225 0.55461-0.21331-0.66127 0.43729-0.22397 0.66126 0.43728 0.66127-0.54394 0.66126-0.22398 1.6532-0.66127 0.10665 1.7598-0.54395 2.0905 0.99191 0.9919-0.33063 1.2159"/>
  <path d="m117.59 195.23-1.0566 0.89404h-0.73149l0.16256 0.48765-0.16256 0.40638-0.48766 0.16256-0.48765 0.56893-0.56893-0.16255-1.8694 1.1379 0.40638 1.1379-0.73148 0.24383-0.56893 0.89404-0.81276 0.89403-0.97531 1.3817-0.48766 0.56894 0.0813 1.1379 0.40638 0.89404-1.3004-0.24383v0.56893l-0.89404 0.48765-0.6502-0.16255-0.81276-0.56893-0.56894 0.40638-1.463 0.16255v0.89404l0.48766 0.24383-0.56893 0.97531-1.0566-0.16255-1.3004 0.24382-0.24382 0.56894 0.48766 0.48765-0.56894 0.65021h-0.81276l-0.3251 0.56893v0.56893l-0.97531 0.32511 0.56893-0.97531-0.3251-0.81276 0.0813-0.32511 1.1379-0.24383-0.56894-0.48765-0.3251-0.65021 0.24382-0.40638-0.6502 0.16255-0.16255-0.65021-0.56894 0.81276-0.24383-0.56893-0.65021-0.0813-0.3251 0.3251 0.65021 0.73148-0.16255 0.65021-0.3251-0.40638-0.32511-0.16255-0.40638-0.3251-0.40638 0.24382 0.16255-0.81276-1.0566-0.16255 1.1379-0.24383v-0.6502l-0.56893-0.40638-0.48766-0.40638-0.16255 0.48765h-0.81276l-0.56893 0.32511-0.40638 1.1379 0.3251 0.65021 0.16255 0.97531-0.65021-0.0813-0.08128 1.1379-0.89403-0.48766 0.08127 0.65021 0.24383 0.65021-0.56893 0.24383-0.16255 0.0813h-0.32511l-0.40638 0.16255-0.08127 0.48766-0.40638 0.40638h-0.65025l-0.56893-0.40638-1.5442-1.7068-0.08128-0.24382-0.73148-0.32511-0.3251-0.65021-0.48766-0.3251-0.24383-0.16255-0.3251-0.40638 0.24383-0.48766v-0.73148l0.08128-0.56893-0.48766-0.24383-0.56893-0.16255-0.40638-0.0813-0.73148 0.56893 0.08128-0.56893-0.73148-0.24383-0.24383-0.6502-0.73148 0.81275-0.3251 0.73149-0.24383 0.3251"/>
  <path d="m83.629 215.43 0.70266 2.108-1.2648 1.4053 1.5459 0.56213 0.56212 1.6864-0.84319 1.9674h0.70266l1.4053-0.84319 0.56212-0.14054 0.56213-0.56212 0.70266-0.14054 0.4216 0.4216 1.4053-0.28106 0.98372-0.56213 0.98372-0.42159 1.4053-0.14054v-1.6864l0.98373 0.98372 0.70266-1.6864 0.84319 0.4216 0.4216 2.6701 0.28106-1.4053 1.2648-0.84319 0.70266 0.28107 0.56213 0.70266v1.2648l-0.98374 2.2485-0.42158 1.4053-0.56213 1.6864h0.98371l1.5459 0.98371 0.8432-0.56211 2.108 1.1242 1.1242-0.70266 0.8432 0.14053 2.108 0.4216 0.28107-0.84319 1.1423 0.23256 0.22572 1.7305 0.75241 0.3762 0.7524-0.67716 0.30096-1.1286 0.52669 1.2791 0.7524-2.1067 1.0534-0.52668 0.52669 1.2791 0.67716-0.7524 0.30096-1.1286h1.3543l0.67716-0.22573 1.2791-0.22572 0.52669-0.82765 0.0752 1.5048h1.1286l0.15048-0.75242 1.0534-0.3762 1.1286-0.3762 0.67716-0.15047 0.3762 0.30096 0.52669-1.3543 0.67716 1.2791 1.2791-0.15048 1.2791-1.2791 1.2038-1.2038 0.90289-0.37621 0.52669-1.2038 0.52667 0.75239 1.2039 0.0752 0.52668 0.60194 1.3543-0.52669 1.0534-0.0752 0.45144-0.52667 1.3543-0.75241 0.7524 0.0752 0.90289 0.7524v1.1286l1.6553 0.0752s0.60193-1.1286 1.0534-1.3544c0.45145-0.22571 1.2038-0.67716 1.2038-0.67716l-0.22573-0.75241 1.4296-1.0534 0.75241-0.0752 1.0534 0.15048 0.67717-2.182h1.2791l0.97812-1.5048-0.7524-0.30096 0.7524-1.1286-0.0752-0.5267 0.82765-0.0752 0.97813-0.45143 0.7524-0.37621 0.22572-1.0534v-1.2038l-0.3762-0.75241v-1.58h0.67717l0.52668 0.97813 0.97813 0.90288 0.0752-1.9563v-0.97813l0.0752-1.2038 0.90289 0.45144h0.60193l0.45144-1.2038 0.52668 0.7524-0.30096 0.7524-0.30096 0.52669-0.22572 1.5048 0.67717-0.22572 0.22572 0.30096 1.2038-0.3762 0.22574-0.90289 1.4296-0.22572-0.7524-0.82765 0.60192-0.3762-0.0752-0.60192 0.30095-0.67717h0.90291l-0.45145-1.2791 1.2038 0.37621-0.45144-2.0315 1.5048 1.2038 0.75241-0.30097v-1.0534l0.82766-0.30096v-1.9563"/>
  <path d="m161.36 198.21-0.15048-1.5048 1.3543 0.45144 0.37621 1.2039 0.30096-2.7087 0.82766 1.0534 0.3762-0.67717h1.2038l-0.37621-0.60191h1.58l-2.0315-1.6553 2.182 0.7524-0.22572-0.97812 0.67717 0.30096-0.30096-1.58 1.3543-0.45144-0.37621-1.7305 0.97812 1.4296h0.82764v-0.97814l0.60193-0.3762-0.60193-0.45144-0.0752-1.0534-1.2039-0.67717-0.15046-1.0534-0.22575-0.37621"/>
  <path d="m168.28 186.55-1.6509-2.7003"/>
  <path d="m134.73 127.44 0.68195 0.58955 0.90924 0.11785v0.94329l0.7956 0.94332 0.79559-0.23584 1.3639 0.35375v0.94329l1.1366 0.70749-0.11358 1.0612h0.68194l1.4775 1.1791 0.22732-0.47167 0.22732-1.297 0.56827-0.11784 0.22731 1.1791 1.4775 0.47165-0.34095 0.8254-0.34097 0.94329 0.2273 0.8254 0.68195 0.58957 1.0229-0.70748 0.34097 1.415-1.0229 2.2403-1.2502 0.35374-0.68194 1.5329 1.1366 0.8254 0.11358 1.8866 0.79559-0.23583v2.0045l1.2502-0.23583 1.1366-0.47165 0.90926-0.94329 0.34095-0.47167 1.3639-1.0612 1.2502 1.0612 0.7956 1.8866 0.68192-0.11784-0.45462-1.1791 1.3639-0.23582 2.5004 2.0045 1.4775 0.11784v-0.47165h1.0229l1.5912-0.82539 0.68193-1.7687 1.1366 0.47165-0.34097-1.0612 0.45463-1.1791 1.5912-0.58957 0.90923 0.23583 1.2502 0.11784 0.45464 0.58958 1.9322-0.35374"/>
  <path d="m129.54 175.06-0.6587 0.26348-0.26349 0.26348v0.35131l-0.3074 0.96611 0.43915 0.48305-0.35132 0.26348-0.0878 0.39523-0.43913 0.0878-0.52697 0.74654-0.13174 0.61479 0.0439 0.48306 0.39523 0.39522v0.0878l-0.48305 0.0878-0.0878 0.35132-0.39523 0.21957-0.21956 0.21957-0.39523-0.35132-0.13174 0.43914h-0.3074l-0.35131-0.21957-0.39522 0.13175-0.21957 0.3513-0.0878 0.65871 0.39522-0.13174v-0.26348h0.43914l0.0878 0.3074v0.3513l-0.21957 0.39523-0.26348 0.26348-0.17566 0.35132 0.48306 0.26348-0.26349 0.39522-0.17565 0.39523-0.0878 0.52696-0.17566 0.52697-0.43913 0.3074-0.17566 0.13174-0.0439-0.3074-0.26349-0.39523-0.21957 0.0439-0.39522 0.13174-0.21957-0.0878-0.3074 0.26349 0.43914 0.43913v0.3074h0.35131l0.3074 0.52697v0.35131l-0.13174 0.21956-0.35131 0.35132-0.35131 0.0439-0.17566 0.3074-0.52697 0.39522-0.30739 0.0439-0.3074-0.21956-0.48305 0.21956 0.13174 0.17566 0.21957 0.35131 0.0878 0.21957v0.39522h-0.43914l0.0439 0.43914 0.26349 0.0878-0.26349 0.43914-0.26348 0.35131-0.26348 0.52697-0.35131 0.74653-0.21957 0.26348-0.21957 0.52697-0.52697 0.17566-0.61479 0.57088-0.87828 0.6587-0.21957 0.52697"/>
  <path d="m129.54 175.06 0.5508-0.59995 0.27539-0.89996v-1.0499l-0.34424-0.44997-0.75733-0.37499-0.5508-0.97493 1.1016-0.075 0.20655-0.44998-0.1377-0.29996h0.55079l0.0688-0.59997 0.55079-0.29998v-1.2749l0.48194-0.52497-0.1377-0.67495 0.2754-0.74996-0.1377-0.89994-1.1016-0.52495 0.55079-0.82496 0.27539-1.4249-0.34424-0.74996-0.1377-0.22498 0.20655-0.82496-0.1377-0.22497h-1.1016v-0.44998l0.34426-0.89994-0.34426-0.37499v-0.67494l-0.34423-0.44999 0.0688-0.22498-0.27541-0.29998 0.27541-0.59996-0.20655-0.52497v-0.59996l-0.6885-0.44998-0.41309 0.29999-0.34424 0.22499-0.75735 0.075-0.34424-0.37499-0.1377-0.74995h-0.82619l-0.27539 0.67496-0.82619 0.29998-0.34424-0.52497-0.6885-0.52497-0.68848-0.44996-0.61964-0.44997-0.96389 0.075v0.59995l-0.0688 0.37499h-0.34425l-0.48195-0.52497-0.75734-0.15-0.61964-0.14999-0.55079-0.22497-0.34424-0.37499"/>
  <path d="m125.91 137.88 1.159 1.7976v2.4718l-0.57949 0.89882v2.0224l0.0177 2.2099 0.44818 0.69513-0.0897 1.1122 0.80671 0.41707-0.0897 0.97319 0.71709 0.55611 0.0897 1.3902v0.97319l0.17927 1.1122"/>
  <path d="m166.63 183.85 0.16303-1.174 0.48907-1.4941-0.16304-1.0672-0.32603-0.74706-0.16303-1.0672 0.16303-1.6009 0.48907 1.3874 0.7336 0.53362 0.65209 0.32017 0.65209 0.10675-0.24455-1.6008v-2.0278l0.48908 0.10675-0.0815-1.8143 0.32606 0.96051 0.81511 0.4269-0.24455-0.85379-0.0815-1.174h0.6521l-0.24454-0.96051 0.73361 0.10675 0.40757-0.32018 0.97812-0.10675-0.89661-0.53362 0.57058-0.32017 0.16302-1.2807-1.3042 0.21344 0.81511-1.174-0.57058-1.8143 1.0597 1.0672 0.7336 0.32017-0.32606-0.96051 0.73362 0.32017-0.40756-1.3874 0.97812-0.10676-0.16302-1.2807 0.73361 0.32017 0.65209 0.74707 0.16302-1.0672-1.0525-1.0023-0.0663-0.60726 0.26504-0.26026-1.3252-1.735 0.0663-2.7761 0.53007-1.1278h-0.66259l-0.66258-0.43376 0.0663-1.2145-0.86136-1.1278 3.3792-5.3786-0.0663-0.86752 0.59632 0.1735 0.66259-0.69401-0.46381-0.34702-0.13252-0.26025 0.19878-1.041-0.66259-0.95427-0.7951 1.2145-0.39753-0.60726-0.19877 0.95427-0.59633-0.34701v0.95427l-0.99388-0.43376-0.0663 1.1278-0.86136-0.0868v0.78077l-0.46379-0.52051-0.19877-1.041-0.59633 0.69401h-0.72884l-0.39755 1.9953-0.19877-0.95426-0.19879-1.6483 0.86137-0.52051-0.72885-0.0868-0.19877-0.60726 0.0663-0.78077 0.19878-0.69402v-0.347l-0.33129-0.78078 0.19877-0.78077 0.46381-0.86753v-1.1278l0.0663-3.2098 0.26504-0.60727 0.13252 0.52051 0.26502 0.69402 0.59633 0.69402-0.13252-1.3013 0.26504-1.2145 0.72882-0.0868h1.2589l-0.53007-0.69402 0.33129-0.34702 0.86137-1.1278 0.72883 0.26027-0.19877-0.43377v-0.86752l0.13252-0.0868 0.53005 0.26027 0.19877-0.69403 0.66258 0.34702v-0.60728l0.26504-1.1278 0.33129 0.78077h0.46381l0.72882 0.78077 0.13252-0.95428-0.13252-0.78077-0.19875-0.26025h1.4577v-0.52051l-0.26503-0.69402 0.39754-0.43377 0.0663-0.95427 0.0663-0.78077v-0.43375l0.26504-0.86753 0.33129 0.34701 0.53007 0.52052-0.3313-1.041-0.72883-0.78076-0.59633-0.43377-0.26504 0.34702-0.0663-0.60727v-1.041l0.66259 0.0868 0.33129 0.86751h0.7951l-0.19878-0.78076-0.39755-0.17351 0.53006-0.1735 0.86134-0.52051 0.86136-1.1278 0.86136-1.2145-0.99387 0.69402-0.7951 0.347-0.53005-0.1735-0.26504-0.0868-0.7951 1.1278-0.86135-1.2145-0.72885-0.0868-0.39753-0.52051-0.13251-0.34701-0.0663-0.69402 0.46379-0.0868h0.7951l0.39754-0.17351 0.66259-1.041-0.72884 0.0868-0.53007-0.1735-0.39755 0.26026-0.19877-0.60727 0.0663-0.347 0.46381-0.26026 0.79511-0.0868 1.1926-2.4291-0.33129-0.78076 0.99386-0.86752-0.33129-0.43376-0.1325-0.78077 0.66256-2.0821h-0.46381l-0.53004-0.34703-0.3313-0.86752h0.53007l0.33127-0.43375v-0.86753l-0.79508-0.0868 0.72882-1.041-0.19875-0.17351-0.26503-0.43376-0.13252-0.26026v-0.52051l0.66256-0.26025h0.86136l-0.19877-0.60727-0.86134-1.2145-0.19878-0.60728 0.13252-1.2145 0.66256-0.0868 0.92762-1.2145 0.39755-0.60726-0.39755-0.60727 0.13252-1.2145-0.19878-0.52051 0.99388-2.082h0.5963l0.66258-0.08679 0.13252-0.60726-0.46381-0.17351-0.5963-0.08679v-1.041l0.39753-1.2145 0.7951-0.52051 0.72884 0.1735 0.13252-0.60726 0.59633-0.60727 0.66255-0.43375v-0.95428l0.39756-0.78078 0.7951-0.43376-0.39756-0.95427 0.26504-1.9085"/>
 </g>
 <g transform="translate(-3.1184 -42.234)" fill-rule="evenodd" stroke-width=".20577">
  <ellipse cx="42.802" cy="184.75" rx="2.5551" ry="2.6659"/>
  <ellipse cx="82.021" cy="207.45" rx="2.5551" ry="2.6659"/>
  <ellipse cx="166.08" cy="82.28" rx="2.5551" ry="2.6659"/>
  <ellipse cx="169.54" cy="142.12" rx="2.5551" ry="2.6659"/>
 </g>
 <path d="m129.79 156.08v1.6908l0.76472-0.68122 1.6216-2.372-0.19348 1.108 0.57124 0.84537-0.76472 0.33652-0.57123 0.93565-0.0737 0.67301 0.25798 0.32831-0.69101 0.67301 0.62651 0.44322-0.62651 0.5581 0.24876 0.45142-0.18427 0.2216 0.11979 0.38576-0.49753 0.27905 0.37774 0.27906-0.19347 0.55811-0.31326 0.33651 0.0644 0.6648 0.44223-0.54989 0.68179-0.33651 0.57123-0.27906 0.56202-0.50066 0.31326-0.61556 1.1885-1.0013-0.37775 0.94386 0.0646 0.44321-0.37774 0.33651-0.56202 0.67302v0.8864l0.0644 0.73047 0.11977 0.66482 0.93976 0.73047 0.37776 1.2804-0.49753-0.11491-1.253 0.17235 0.18427 0.32831 0.37775 0.33651v0.27904l-0.56202 0.17237-0.31326 0.60735 0.62652 1.0095-0.31326 0.66481-1.6308-0.16415 0.81077 1.0588-0.31326 0.77972-0.6265 0.10669-0.24876 0.61557 0.87526 0.89462v0.61557l-0.43302 0.32829 0.62651 0.67302-0.50673 0.0574-0.36855 0.50066-0.19347 0.27906v0.77972l-0.56202 0.16414-0.18427 0.55812 0.24876 0.55811 0.0644 0.39396" fill="none" stroke="#000" stroke-width=".5px"/>
 <g transform="translate(-3.1184 -42.234)" fill-rule="evenodd" stroke-width=".20577">
  <ellipse cx="132.71" cy="192.46" rx="2.5551" ry="2.6659"/>
  <ellipse cx="168.44" cy="186.78" rx="2.5551" ry="2.6659"/>
  <ellipse cx="101.14" cy="163.72" rx="2.5551" ry="2.6659"/>
  <ellipse cx="129.12" cy="175.44" rx="2.5551" ry="2.6659"/>
  <ellipse cx="128.74" cy="135.17" rx="2.5551" ry="2.6659"/>
 </g>
 <g transform="translate(-3.1184 -42.234)" font-family="sans-serif" font-size="3.5278px" letter-spacing="0px" stroke-width=".26458" word-spacing="0px">
  <text x="166.17401" y="76.379898" style="line-height:1.25" xml:space="preserve"><tspan x="166.17401" y="76.379898" font-size="5.6444px" stroke-width=".26458">Mon</tspan></text>
  <text x="103.97691" y="129.50264" style="line-height:1.25" xml:space="preserve"><tspan x="103.97691" y="129.50264" font-size="4.9389px" stroke-width=".26458">Mokochung</tspan></text>
  <text x="80.912941" y="163.34241" style="line-height:1.25" xml:space="preserve"><tspan x="80.912941" y="163.34241" font-size="4.9389px" stroke-width=".26458">Wokha</tspan></text>
  <text x="19.850134" y="180.35681" style="line-height:1.25" xml:space="preserve"><tspan x="19.850134" y="180.35681" font-size="4.9389px" stroke-width=".26458">Dimapur</tspan></text>
  <text x="173.54691" y="142.73608" style="line-height:1.25" xml:space="preserve"><tspan x="173.54691" y="142.73608" font-size="4.9389px" stroke-width=".26458">Tuensang</tspan></text>
  <text x="133.09044" y="172.79485" style="line-height:1.25" xml:space="preserve"><tspan x="133.09044" y="172.79485" font-size="4.9389px" stroke-width=".26458">Zunheboto</tspan></text>
  <text x="172.60167" y="188.29688" style="line-height:1.25" xml:space="preserve"><tspan x="172.60167" y="188.29688" font-size="4.9389px" stroke-width=".26458">Kiphire</tspan></text>
  <text x="137.62762" y="189.24211" style="line-height:1.25" xml:space="preserve"><tspan x="137.62762" y="189.24211" font-size="4.9389px" stroke-width=".26458">Phek</tspan></text>
  <text x="62.575195" y="217.7885" style="line-height:1.25" xml:space="preserve"><tspan x="62.575195" y="217.7885" font-size="4.9389px" stroke-width=".26458">Kohima</tspan></text>
 </g>
</svg>
