<svg width="201.44mm" height="225.07mm" version="1.1" viewBox="0 0 201.43274 225.07198" xmlns="http://www.w3.org/2000/svg">
 <g fill="none">
  <g transform="translate(-4.3743 -55.869)" stroke="#fff" stroke-width=".5">
   <path id="Mayurbhanj" fill="#95c279" d="m74.968 56.689 0.23486-0.50921 1.026 0.35878 1.9926 1.0936 2.2626 1.7389 0.94776 0.9143 0.48327 1.3338 0.95045 1.3367 1.1556 0.50923 1.3932 0.0433 1.7443 0.51211 1.08-0.31536 1.7955 0.35877 1.3933 0.55262 2.8972 2.0716 2.7054 1.6058 1.5498 1.4235 0.83164 1.004 1.08 1.0503 1.0288 1.4698 0.87208 1.5624 0.63721 0.64518 2.106 1.8749 1.1178 0.87087 1.5094 1.1833 1.4283 1.0503 1.08 0.31246 0.87212-0.46291 0.63721-0.82459 0.75329-0.55553 0.75334-0.55552 0.87212-0.17941 1.836 0.4195 0.91263 0.31536 1.5848 0.73489 1.1962 1.2904 1.1583 0.55262 0.67496 0.64521 0.95045 0.6452 0.59937 0.26907 0.71283 0.0896 1.1961 0.36165 1.9521 1.7388 0.9126 0.77829 0.48064 0.51209 1.0287 1.4235 1.1962 1.2875 0.83162 1.0503 1.3527 0.95769 1.3149 0.50923 1.431 0.22566 0.59937 0.0462v0.55548l0.40233 1.3338 0.75331 1.2441 1.9927 1.1862 1.755 0.17941 1.2339 0.55553 1.5094 1.4698 1.9116 1.4698 1.9521 1.0936 1.08-0.26907 2.1843-0.26909 1.234 0.50923 2.0682 0.96057 0.83163 0.22566 2.3814 0.7812 1.9116 1.6492 1.431 0.82459 1.1961 1.004 0.98822 1.7389-0.19418 1.0936-0.19442 2.115-0.27273 2.2047-0.83428 0.82169-1.1556 1.0069 0.0378 1.6029 0.27267 3.0756 0.67773 1.2441 0.59668 0.22566 2.2249 1.0936 1.1556 0.46581 1.1583 0.17942 1.0288 0.17941 0.87209 0.17941-1.1205 1.2441 0.32676 0.18231 0.67763 0.59892 0.67506 0.55549 0.324 0.73492 0.31321 0.46581 0.59673 0.41953 0.63722 0.31536 0.55889 0.31534 0.8343 0.40507 0.52112 0.42243 0.15374 0.6452-0.23219 0.91428-0.59944 0.46579-0.0378 0.7783-0.0375 0.82459-0.19443 0.95766-0.4832 0.78118h-0.88292l-0.79384-0.68859-0.79111-0.50921-0.63721-0.37613-0.98827-1.0966-0.52107 0.0898-0.16997 0.91427 0.63724 0.9143 0.98819 0.5555 0.0782 0.46582-0.67499 0.35877-0.71551-0.0898-0.55892 0.64523-0.48061 0.91425-0.15641 0.36168-0.36451 0.73491 0.15641 0.91718-0.63719 0.27197-0.63722 0.46291-0.0758 0.55553-0.27541 0.46581-0.52107 0.17942-0.48059-1.0966-0.44284-1.0937-0.44279-1.4235-0.79382-0.87089-0.7938 0.0898-0.31318 0.91425 0.27539 0.55552 0.52107 1.2441 0.31052 0.73491 0.79382 1.4264 0.32669 1.1834-0.61295 0.81012-0.8721 0.36165-0.2727 0.55262-0.56158 0.26909-0.19176-0.6452-0.40499-1.004-0.71552-0.26907-0.71283 0.73489-0.11622 1.004 0.36447 1.004 0.59671 0.55257 0.71551 0.6915-0.52114 1.2441-0.98819 0.46577-0.19443 0.64523 0.52112 0.82459 0.79377 0.6452 0.11888 1.0966-0.95044 1.004-1.7955 0.37323-0.55893-0.46291-0.52107 0.22299-0.0378 0.31827-0.15641 0.64516-0.51843 0.73491-0.405-0.46582-0.87212-0.40507-0.63712-0.22566-0.59676-0.46581-0.48334 0.18256-0.44282-0.4658-0.44284-0.91427-0.83157-0.55553-0.83161-0.73491-0.52112-1.0502-0.71549-0.96059-0.59676 0.55841-0.19418 0.868 0.52105 0.68857 0.23486 0.64521-0.52112 0.868-0.67496 0.22542-0.59947-0.17942-0.52107 0.26907-0.55896 0.2691h-1.377l-0.75331-0.17942-1.1583-0.42242-1.7037 0.0462-1.9521-0.37323-1.1556 0.26905-0.99098 0.31541-1.3527 0.78118-1.3932 0.46579-0.86948-0.22299-0.59932-0.50923-0.79385 0.55552-0.87216 1.0068-1.026 0.1765-0.79653 1.2933-0.19176 1.1834-0.35369 1.3772-0.87212 1.0503-0.79379 0.17942-0.9099-0.0433-0.83432-0.0925-0.79113 1.2904-0.91263 1.652-0.31321 0.73493-0.71278 1.2441-0.71554 1.14-0.67499 1.14-1.1178 1.5595-1.4337 2.0108-1.4688 1.6058-1.5498 1.7388-1.3122 1.4235-1.5093 0.96061-0.75336 0.37326-0.75329 0.5555-0.23752 1.0502-0.71276 1.1399-0.83161 0.55266-1.1178 0.73489-1.5877 1.1399-1.5876 0.40509 0.44555-1.1863 0.11622-0.2691-0.0402-1.5131-0.23486-0.6915-0.59676-0.91428-1.4311-0.73488-0.192-0.5526-0.71821-0.36168-0.59668-0.46581-0.48335-0.73491-0.8721-0.46284-0.87214-0.51216-0.95038-0.95769-0.71285 0.26905-0.11622 0.31253v0.91715l-0.27534 0.68859-0.48063 1.0039-0.6777 1.3367-0.90996 1.14-1.2744 0.55549-0.4401 0.55555 0.0782 0.5526-0.27541 0.91718v0.91427l-0.51845 1.9182-0.15641 0.73494-0.9882 1.3801-0.98819 0.73486-1.1179 0.13631-0.99085-0.78123-0.79385-1.1862-0.63724-0.55552-0.55891 0.22541-0.67494 0.59889-0.3132 1.247h-0.40505l-0.31326-0.22518-0.55886-1.3801-0.32398-1.1862-0.48064-0.87086-0.48332-1.247-0.48059-1.0908 0.40505-0.82745 0.44272-0.91427 0.63726-0.87091 0.48059-0.96054 0.52111-0.82455 0.4428-1.2905 0.15641-0.96054 0.4401-0.59891 0.32403-0.31539 0.63717-1.2441 0.91263-1.1834 0.0755-0.9172-0.51843-0.82452-0.63722-0.64516-0.63721-0.55555-0.8721-0.55262-0.79384-1.0966-0.8721-1.0039-0.98817-0.82752-0.98824-0.59889-1.0801-0.5092-1.1555-0.27196-0.99103-0.55266-1.3527-0.6915-0.9099-0.86796-0.44557-1.0937-0.19201-0.36166 0.36181-1.3801 0.44284-0.69148 0.756-0.77832 0.67496-0.60177 0.63721-0.41954 0.59942-1.1862 0.55892-0.73492 0.44281-1.0068 0.52107-1.0936 0.67501-1.14 0.23486-0.35877 0.35103-0.35878-0.40229-0.96057-0.19442-1.3801-0.19443-1.5595 0.23486-0.82456-0.63716-0.46582h-0.40234l-0.79382-0.13583-0.36451-0.7783-0.31318-0.17941-0.44284 0.35877-0.40502 0.73489-0.52107 0.36166-0.3105-1.004-0.15641-1.004 0.11622-0.73487 0.23486-0.6452-0.55894-0.8275-0.36176-0.91427-0.29969-0.61625-0.48066-0.46294-0.40497 0.17941-0.87213 0.59889-1.08 0.41955-0.75334-0.0896-0.79384-0.17941-0.95035-0.60181-0.95047-0.77828-0.79385-0.6915-0.87205-0.35877-0.63719-0.31537-0.95047-0.40216-0.87209-0.69147-0.59671-0.55262-0.99093-0.59891-0.79382-0.36166-1.0259-0.55552-0.79653-0.59889-0.63722-0.35878h-0.75602l-0.40229 0.31534-0.67503 0.22275-0.44279-0.55259-0.19443-0.6915-0.0404-0.59891v-0.59918l-0.0378-1.0502-0.0782-0.82459v-1.0878l-0.11646-1.0966-0.36453-1.004-0.44277-0.73486-0.3672-0.9143-0.19201-0.87089 0.11622-0.96054v-2.7459l-0.41853-0.94324-0.9126-0.69149-0.71283-0.55262-0.95042-0.78116-0.44277-0.46582-0.40502-0.55552-0.67499-0.35877h-0.67503l-0.55889 0.17941-0.56165 0.26907-0.67501 0.18231-0.40497-0.27197-0.11622-0.68862v-0.69147l0.19418-0.59891 0.27273-0.41953 0.0755-0.46293-0.27263-0.22275-0.31326-0.22566-0.48058-0.26907-0.36723-0.18232-0.79111-0.26907-0.44279-0.0896-0.19442-0.4195 0.15399-0.68862 0.19442-0.82459 0.23486-0.91428 0.36451-0.69147 8.1541 2.8933 1.5471 0.46582 0.83166 0.64521 1.026 0.22565 1.4715-0.13607 1.2744-0.18232 1.3149 0.73492 1.3527 0.6452 0.75339-0.17941 1.3527-0.46582 0.59666-0.36166 1.08-1.7851 0.19442-0.22566 2.1843-3.119 0.8343-2.2915 1.08-2.2944 0.87214-2.115 0.32398-1.4698 0.31321-1.3801 0.83164-1.5595 0.35372-1.8286-0.42931-1.004-0.59944-0.82459-0.40498-0.91428-0.36449-0.91427-0.31323-1.0503-0.27272-1.0502 0.0755-0.8246 0.48327-0.35877 1.8334-1.3801 1.9899-1.6492 0.32403-1.004-0.83159-1.6058-0.87215-1.6058-0.87209-1.004 0.15641-2.115 0.36441-1.5132 0.44289-2.0658-0.11622-2.0253-0.35105-1.2441-1.0288-1.2441-1.1961-0.9143-1.952-1.7388-0.71285-0.7783-0.15641-1.0474-0.36175-1.0502 0.0375-1.3338 0.52109-0.35878 1.3527 0.35878 1.4311 0.6452 1.1961-0.6452 0.11622-1.2904-0.11622-1.1834z"/>
   <path id="Keonjhar" fill="#e2b584" d="m7.0537 106.7 1.9899-1.004 0.44282-0.87087 0.48064-0.6915 0.44279-1.3801 0.90987-1.0936 1.9117-1.3801 1.4715-0.8246 0.94774-0.46579 0.9504-0.46582 1.1205-0.9143 0.55894-0.46581 1.1583-0.91428 1.3149-0.9143 1.1961-0.6452 0.63729-0.18232 1.7037 0.73489 2.6677 1.4698 2.7432 1.1834 2.7054 1.2441 2.5895 1.6954 1.7037 1.5595 1.35 0.82459 0.87212 0.55552 1.4715 1.1834 1.5094 0.26906 2.7054-0.6452 1.6632-0.64518 0.75331-0.50923 1.6255-1.5161 1.9116-1.1399 1.3149-0.22566 1.0801-0.36168 1.5472-0.0896 1.2339-0.59891 1.4337 0.50923 0.75334 1.1862-0.83159 0.87086-0.71554 1.979-0.52109 0.69147-0.67501 1.14-0.40231 1.1862-0.0785 0.78118 0.11622 0.68862 0.2727 0.91718 0.19418 0.55259-8.1541-2.8933-0.3618 0.69149-0.23752 0.9143-0.19201 0.82459-0.15641 0.6886 0.19419 0.41952 0.44279 0.0898 0.79382 0.26907 0.36458 0.18232 0.48054 0.26906 0.31318 0.22566 0.27539 0.22275-0.0782 0.46294-0.27541 0.41952-0.19201 0.59889v0.6915l0.11622 0.68862 0.40236 0.26909 0.67772-0.18232 0.55894-0.26907 0.55889-0.17941h0.67496l0.67501 0.35878 0.40504 0.5555 0.44282 0.46581 0.95035 0.78118 0.71559 0.55262 0.90984 0.6915 0.40505 0.91425v2.7456l-0.11622 0.96348 0.192 0.87086 0.36723 0.9143 0.44008 0.73488 0.36453 1.004 0.11646 1.0966v1.0937l0.0782 0.82457 0.0375 1.0503v0.59891l0.0402 0.59891 0.19418 0.68857 0.44555 0.55552 0.67499-0.22566 0.40504-0.31538h0.75332l0.63724 0.35877 0.79379 0.59891 1.026 0.5555 0.79384 0.36166 0.99091 0.59891 0.59671 0.55552 0.87209 0.6886 0.95045 0.40504 0.63714 0.31248 0.87215 0.36166 0.79379 0.6915 0.95045 0.78118 0.9504 0.59888 0.79113 0.17942 0.756 0.0896 1.0801-0.4195 0.87209-0.59891 0.40502-0.18232 0.48057 0.46582 0.19442 0.64518 0.3618 0.9143 0.55896 0.82459-0.23486 0.64521-0.11621 0.73488 0.15641 1.004 0.31047 1.004 0.52117-0.36166 0.40223-0.73491 0.44284-0.35878 0.31319 0.17941 0.36177 0.7783 0.79387 0.13608h0.40231l0.63721 0.46581-0.23485 0.82457 0.19442 1.5595 0.19442 1.3801 0.40231 0.96059-0.35103 0.35876-0.23219 0.35877-0.67499 1.1399-0.52114 1.0937-0.44284 1.0039-0.55893 0.73491-0.59933 1.1862-0.63721 0.4195-0.67504 0.60179-0.75336 0.7783-0.44272 0.6915-0.36182 1.3801 0.19176 0.36163 0.4455 1.0937 0.90992 0.86793 1.3527 0.6915 0.99095 0.55261 1.1556 0.272 1.08 0.50923 0.98822 0.59884 0.98822 0.82752 0.87481 1.004 0.79382 1.0965 0.87212 0.55265 0.63724 0.55549 0.63716 0.64526 0.51841 0.82452-0.0755 0.91427-0.91261 1.1834-0.63721 1.2441-0.32665 0.31539-0.44289 0.59889-0.15641 0.96051-0.44274 1.2905-0.52117 0.82457-0.48061 0.96057-0.63724 0.87091-0.44276 0.91427-0.405 0.82745 0.48061 1.0937 0.48328 1.2441 0.48063 0.87083 0.32396 1.1863 0.55901 1.3801 0.31316 0.22518h0.40504l0.31316-1.247 0.67501-0.59891 0.55887-0.22541 0.63726 0.55547 0.79111 1.1863 0.99093 0.78118 1.1178-0.13607 0.98822-0.73491 0.98819-1.3801 0.15641-0.73489 0.51839-1.9182v-0.91427l0.2727-0.91718-0.0785-0.5526 0.44289-0.55552 1.2744-0.55548 0.90992-1.14 0.67767-1.3368 0.48059-1.0039 0.27272-0.68864v-0.91713l0.11622-0.31249 0.71281-0.26904 0.95045 0.95766 0.87209 0.51206 0.87212 0.46292 0.4833 0.73493 0.59671 0.46582 0.7155 0.36161 0.19176 0.55261 1.4338 0.73491 0.59671 0.91428 0.23486 0.6915 0.0404 1.5132-0.11622 0.26902-0.44281 1.1863 0.23486 1.2904-0.15641 0.73491 0.0784 0.46289 0.40505 0.55555 0.52109 0.50923 0.48056 0.68859 0.15375 0.64521-0.35095 0.73493-0.52112 0.46291-0.78033 0.46582-0.15375 0.26907 0.19418 0.73489 0.36459 0.82749-0.0378 1.0907-0.52111 1.2904-0.27539 1.0937-0.48061 0.65963-0.63719 0.40217-0.63727-0.0433-0.63719-0.46577-0.27268-0.17917-0.11646 0.28648-0.15641 0.46296-0.79108 0.17941-1.08 0.26912-0.7155 0.60174-0.51845 0.96057-0.15641 0.64518 0.19442 0.91427 0.71552 1.0041 0.87481 0.68857 0.59675 0.5555 0.48059 0.77832 0.15641 1.0039 0.0785 0.6452 0.48066 0.73491 0.71556 0.73489 0.36452 0.73491-0.36452 0.82747-0.71556 0.37323-0.44006 1.0503-0.19708 1.0502-0.44277 1.004-0.63719 0.91718-0.32408 0.26907-0.55892-0.91428-1.3932-1.004-0.87215-0.55548-1.35-0.87096-0.75331-0.13292-0.756 0.13292-0.55894-0.13292-1.1961-0.13607-0.95042-0.22542-1.1961-0.55264-1.0287-0.55552-0.7128-0.5555-1.6254-0.46582-0.87217 0.18232-0.6777 0.82171-1.08 0.91713-1.026 0.26905-0.48066 0.91427-0.19418 0.64525-0.0785 1.2904-0.26999 0.41955-0.52109 0.41947-1.1584-0.13341-1.026-0.59888-0.63726-1.0936-0.35367-0.91715-0.40228-1.0937-0.0404-1.0936-0.63717-0.55557-0.39964-0.46286 0.32401-0.51223 0.7128-0.55545 0.75329-1.2441 0.36456-0.77826 0.36449-0.59886 0.52107-0.3617 1.1962-0.9143 0.23219-0.60175 0.31314-1.14 0.44282-1.1834 0.63728-0.78113 0.19443-1.14-0.67777-0.17965-0.90982 0.46296-0.98824 0.17965-0.71555 0.55257-0.55891 0.27198-0.98819 0.50923-0.79385 0.41952-1.2744 0.55264-0.55888 0.27193-1.1205 0.27197-0.51841-0.13268-0.59944-0.18232-0.52112 0.22542-0.55891 0.36163-0.67497 0.55267-0.67501-0.0893-0.55896 0.64521-0.3672 0.74936-0.351 0.41953-0.8343 0.82457-0.0756 0.64525-0.87476 0.9142-1.234 0.18208-1.2744 0.26904h-1.08l-0.90992-0.22541-1.08-0.59891-0.9504-0.26903-0.83164-0.26909-0.75326 0.46291-0.87212-0.26909-0.59942-0.46584-0.63719-0.13607-1.026-0.22518-0.63722-0.18256-0.40502-0.55261-0.2727-0.9143-0.0402-1.0068-0.55891-0.9143-0.48059 0.2691-0.63724 0.55555-1.2744-0.26912-0.19733-0.82748-0.19442-0.77832-0.75331-0.77825-0.51839-0.64523-0.15641-0.46293-0.48063-0.18256-0.4833 0.46581-0.55898-0.17917-0.44275-0.17965-0.52114 0.5555-0.756 0.82461-0.55894 0.26907-0.90986 0.31532-0.95043 0.0431-0.90989 0.18231-0.27273 0.17966-0.40507 0.64525-0.79375 1.1863-0.79116 0.37321-0.71552 0.0898-0.59668-0.17966-1.3149-0.64518-1.5094-0.59893-0.87207-0.55262-0.63726-0.046-0.40497 0.7812-0.63722 1.4235-0.7938 1.0474-0.75329 1.1863-0.79384 0.31248-0.90989 0.0458-0.79382-0.42238-1.0287-0.82457-0.59676-0.73486-0.67772-0.82464-0.94771-1.1834-1.08-0.91427-0.71554-1.2905-1.08-1.0039-0.84505-0.91435-0.79387-1.004-0.31323-1.1862-0.32672-0.96059-0.31318-0.5555-0.36446-0.46584-0.55891-0.4195-0.79384-0.46577-0.63724-0.46301-0.79377-0.59891-0.8721-0.31531-0.63722-0.22299-0.48064-0.18232-0.63717-0.41948-0.71557-0.64525-0.90992-0.22299-0.23486 0.17965-0.52114 0.046-0.55886 0.046-0.32672-1.14 0.19442-1.2904 0.15399-1.0069 0.44284-0.46293 0.19733-0.36166 0.19442-0.37616 0.80462-0.25456 0.31318-0.73489 0.23486-0.17941 0.55891-0.0893 0.40228-0.272 0.40502 0.0896 0.52109 0.046v-1.0503l0.48061-0.37611 0.63719-0.73486 0.11622-0.64523-0.0782-1.0474 0.40224-0.46579 0.04043-0.91425-0.7154-0.60187-0.52114-0.64518-0.40233-0.69147-0.31052-1.004-0.32401-1.14-0.44277-0.0925-0.90994-0.35878-1.0287-0.31536-0.83159-0.50923-0.52107-0.73493-0.44282-0.64521 0.19442-0.55547 0.351-0.17917 0.55889 0.17917 0.48064 0.13631 0.79377 0.41948 0.98824-0.41948 0.55894-0.41957 0.55889-0.46296 0.59937-0.73489 0.23486-0.73491 0.15641-1.0502-0.19442-0.87093-0.19418-0.73482 0.32667-0.22299-0.36451-1.0503-0.40231-0.26907-0.04019-1.004-0.19418-0.60179-0.40228-0.0433-0.52112-0.0901-0.40497-0.46582-0.19442-0.59889-0.44282-0.6915-0.11864-0.5092 0.44282-0.41952 0.55891-0.55553 0.27275-1.0474-0.32679-0.59886-0.15399-0.26907-0.67777-0.91718-1.08-1.004-0.87219-1.004 0.11622-0.46582-0.11622-0.55547-0.40226-0.73201-0.48337-0.64523v-0.98964l-0.11622-0.77833-0.15641-0.46581-0.83161-1.0474-0.59937-0.17941-1.1178 0.37323-0.75338-0.0898-0.83159-0.50923-0.63719-0.0898-0.15641 0.50923-0.27265 0.91428-0.27275 0.35877-0.27268-0.22275-0.36446-0.50921-0.27273-0.51213-0.11646-0.46291 0.0782-0.73489 0.23486-0.31536 0.36451-0.2691-0.31321-0.82459-0.23486-0.73488 0.0782-0.82457 0.3618-0.46584 0.75331-0.0898 1.08-0.64521 0.32398-0.6452 0.03777-0.37614-0.67506-0.5092-0.63724-0.31248-0.23486-0.55553-0.2213-0.48029 0.19442-0.64518v-1.1402l0.23486-0.7783 0.23219-1.2441 0.15641-0.91718 0.27268-0.6452 0.32672-1.0937 0.40502-0.4224 0.35098 0.60182 0.40497 0.64518 0.44284 0.73491 0.48061 0.73488 0.75329-0.37613 0.71823-0.64521 0.59673-0.46581 0.44279-0.5526 0.55894-0.73488 0.36449-0.41953 0.55889-0.0462 0.48059 0.37325 0.51843 0.60179 0.75331 0.5555 0.91268 0.22566 0.83159-0.17941 0.87207-0.22566 0.90989-0.50923 0.40238-0.91715 0.19442-0.87089 0.40497-0.35878 0.35103-0.87088 0.32401-0.96055 0.07845-0.87088 0.11622-0.64521 0.19709-0.91427 0.31326-0.91428 0.36449-0.55261 0.23486-0.82745-0.19442-0.73491-0.19418-0.68862 0.03777-0.6915-0.07845-0.46291-0.48061-0.73491-0.55889-0.31537-0.79384-0.60181-0.67767-0.64521h-0.83115l-0.55894 0.2691-0.71285-0.2691-0.67767-0.46584-0.71547-0.17941-0.48066 0.31539-0.6777 0.0433-1.3122 0.13316-0.75329-0.13316-0.71547-0.55553-0.48064-0.73488-0.63721-0.17942-0.63446-0.46291-0.44286-1.14-0.11622-0.41955 0.19442-0.9143z"/>
   <path id="Bhadrak" fill="#e9a0a0" d="m104.36 190.16 2.4192 1.2875 1.6659-3.5674 2.8972 1.38v3.119l2.511 1.7852 5.3704 1.3338 4.177 1.3801 0.83164-2.6994 4.1771 1.7852 1.6254 3.119 2.5084 4.9504 3.3427 1.3338 0.83161-4.0361 0.40229-2.251 4.177-1.7852 1.6632-0.86794 3.2645-0.82749-0.0378 0.37616 0.27273 0.55547 0.0785 0.73489-0.15375 1.0936-0.19443 0.55842-0.63723 0.41953 0.75336 0.69145 0.15641 0.46301 0.59939 1.4263 0.55899 2.52 2.7054 7.0626 0.40228 0.50925 0.55891 0.78116 3.3427 7.2447 0.31314 0.82169 0.23219 1.8748 0.27268 0.46577 1.8333 2.9829 1.08 1.0965 0.27544 0.55555 0.48061 4.499v1.0937l-0.15399 0.46582-2.0305-0.0462-0.44277-0.41955-0.52109-0.64521-0.71549-0.40507h-0.63455l-1.4715-0.22323h-2.4328l-0.52114-0.36171-0.32667 0.31253-0.98822 0.87084-0.55889 0.78121-1.3528 0.82461-0.5211 0.18208-1.026 0.13268-0.75603 0.0898-0.59937 0.17965-1.2339 0.55267-0.44284 0.22517-0.67501-0.0433h-0.87214l-0.71542-0.6915-0.48066-0.77827-0.15641-0.64521-0.31319-0.5555-0.95044-0.22517-0.87205 0.55552-0.90994 0.6018-0.48066 0.17626-0.63719-0.37318-0.87208-1.004-0.59946-0.64516-0.55892-0.55259-0.90989-0.6915-1.1988 0.0462-0.79378-0.0891h-0.79384l-0.75329 0.0891-0.71556 0.27205-0.19443-0.36173-0.19732-0.18208-0.0404-0.68856 0.19418-0.96057 0.0404-0.82464-0.59933-0.59889-0.3618-0.31539-0.32674-0.5555-0.40502-0.91427-0.44282-0.55548-0.63721-0.68866-1.08-0.37609-1.1962-0.13292-1.2339 0.17917-0.95047-0.4658-1.1205-0.3732-0.79375 0.17917-1.35 0.37618-0.98817 0.73489-0.44558-0.272-1.3878 0.42243-0.87209 0.9143-0.95038 0.5092-1.1584-0.17941-1.1178-0.64525-1.431-0.46577-1.3149-0.272-0.83438 0.6452-0.98824 0.64523-1.2744 0.55262-0.27273 0.0463-0.90989-0.60185-0.65073-0.39056-0.5967-0.31541-0.56161-0.73487 0.11622-0.55259 0.52107-0.46584-0.55891-0.5555-0.48064-0.37323-0.32665-0.18256-0.19442-0.73486-0.0785-0.36168-0.63724-0.37323h-0.55893l-0.55892 0.17941-0.48058 0.0433-0.27268-0.31248-0.11622-0.59894 0.0378-0.78115v-0.55553l0.19443-0.87086 0.0784-1.14 0.11622-0.77828-0.0375-0.96059 0.15375-1.3801 0.0378-1.8748 0.19443-1.4235 0.324-0.26914 0.63724-0.91425 0.44282-1.0069 0.19442-1.0503 0.44277-1.0502 0.71554-0.37323 0.36185-0.82459-0.36185-0.73489-0.71554-0.73489-0.4832-0.73491-0.0755-0.6452-0.15641-1.0039-0.48058-0.77835-0.59942-0.55552-0.87215-0.68862-0.71556-1.0039-0.19443-0.87096 0.15375-0.68859 0.52114-0.96059 0.71545-0.60177 1.08-0.26905 0.79382-0.18256 0.15399-0.46293 0.11888-0.27193 0.27268 0.17965 0.63726 0.46582 0.63725 0.0431 0.65067-0.40214 0.48059-0.64811 0.27541-1.0937 0.5211-1.2904z"/>
   <path fill="#85c5e3" id="Baleswar" d="m103.93 181.81 1.5876-0.40507 1.5849-1.14 1.1178-0.732 0.83431-0.55553 0.71551-1.1399 0.23486-1.0502 0.75331-0.5555 0.75334-0.37611 1.5093-0.95771 1.3122-1.4235 1.5472-1.7388 1.4715-1.6029 1.431-2.0108 1.1178-1.5566 0.67506-1.14 0.71547-1.14 0.71551-1.2441 0.31321-0.73494 0.90987-1.6491 0.79115-1.2904 0.83435 0.0925 0.9099 0.0433 0.79648-0.13583 0.87217-1.0936 0.35103-1.3801 0.19442-1.1862 0.79379-1.2875 1.0287-0.18231 0.87217-1.004 0.79379-0.55548 0.59676 0.50918 0.87205 0.22566 1.3932-0.46582 1.3527-0.77827 0.98821-0.31539 1.1583-0.26907 1.9521 0.37614 1.701-0.0436 1.1583 0.41952 0.75326 0.17941h1.4554l0.56153-0.27197 0.51843-0.26907 0.59939 0.18256 0.67501-0.223 0.52115-0.87088-0.23486-0.64521-0.5211-0.69147 0.19709-0.86801 0.59671-0.55262 0.71552 0.95769 0.52111 1.0502 0.83164 0.73488 0.8343 0.55262 0.4428 0.9143 0.44279 0.46579 0.48327-0.17941 0.59676 0.46584 0.63716 0.22542 0.87215 0.40504 0.40502 0.46582 0.52109-0.73489 0.15641-0.6452 0.0378-0.31244 0.52117-0.22541 0.55884 0.46291 1.7956-0.37325 0.95045-1.0068-0.11622-1.0937-0.79651-0.64521-0.52112-0.82454 0.19685-0.64523 0.98822-0.46584 0.52111-1.2441-0.71283-0.68861-0.59939-0.55553-0.36449-1.004 0.11622-1.004 0.71278-0.73489 0.71544 0.26907 0.40505 1.0069 0.192 0.64518 0.56158-0.26907 0.27267-0.55553 0.87217-0.35877 0.63722-0.82459-0.32403-1.1862-0.79382-1.4235-0.31319-0.73491-0.52114-1.2441-0.27265-0.55552 0.31047-0.91425 0.7938-0.0898 0.79382 0.91716 0.44281 1.3801 0.44282 1.0936 0.48334 1.0937 0.51839-0.17942 0.27541-0.46581 0.0785-0.55553 0.63726-0.46291 0.63448-0.26907-0.15375-0.91715 0.36447-0.73489 0.15641-0.35878 0.48063-0.91715 0.55889-0.64521 0.71552 0.0896 0.67498-0.35878-0.0755-0.46584-0.99086-0.55259-0.67501-0.94612 0.15641-0.91427 0.51846-0.0898 0.99086 1.0966 0.63452 0.37614 0.79653 0.5092 0.80462 0.67414h0.8721l0.48327-0.7812 0.19709-0.96055 0.0378-0.82459 0.0378-0.7783 0.5994-0.46579 0.23486-0.9143-0.15642-0.64521-0.51845-0.41952-0.83161-0.40507-0.55889-0.31539-0.63724-0.31245-0.59935-0.41955-0.31057-0.46582-0.32403-0.73491-0.67765-0.5555-0.67506-0.59891-0.32667-0.18232 1.1178-1.2441 1.08 0.0898-0.11622-1.6492-0.31319-1.4698-0.27272-1.4235 0.23486-1.4264 1.5471-0.17941 1.4688-0.0898 0.75604-0.68862 0.63719-2.6994 0.59669-0.96057 1.2744 0.96057 1.7955 1.6492 0.59671 1.7389-0.15399 1.3801 0.75331 2.4737 0.87212 1.0966 0.94769 1.0937 0.75338 0.59891 1.1583 1.0502 1.0288 1.9183 0.51835 1.3801 0.75332 0.91428 1.7037 0.55552 1.1178 0.26904 0.87215-0.26904h1.08l1.666 1.1833 1.5849 0.82459 0.95042 0.17942 1.7037-0.0896 1.7929-0.0896 2.0682 0.5555 1.1962 2.115 0.27531 2.115 0.90997 3.2115-0.192 1.7823 1.3527 2.251 0.71554 1.5132 1.1178 2.115 0.67504 1.7851 0.59934 1.2904 0.15399 1.0936-0.59666 0.22541-1.3149 0.22542-0.35374 0.0896-2.8999 0.82462-3.98 1.6028-2.5084 1.5161-0.55894-0.0436-0.3132-0.40216-0.56156 0.82169 0.63722 0.36163-0.0758 0.31536-0.56153 0.22542-6.8798-0.0896-1.9899 0.13317-0.98826 0.22517-3.98 0.9143-0.71549-0.0896-0.23486 0.18256 0.36451 0.31243-4.447 2.1613-0.36445 0.37328-0.27275 0.51209-0.44279 0.0431-0.35095-0.17941-0.44287 0.13608v0.0431l-0.15374 0.37616-2.1466 1.6954-1.9521 1.7851-0.11646-0.046-0.63714 0.35878v0.046l-0.90987 1.2875-0.63728 0.55557-0.48328 0.17965-1.6254 1.6491-1.1557 0.82454-2.989 3.0091-1.431 2.115-0.95037 1.004-0.63724 0.6886-1.5471 2.0687-0.48337 0.46575-0.55889 1.004-0.40229 0.36168-0.31318 0.0872-0.36722 0.0898-0.0785 0.73491-0.32396 1.004-2.1466 3.3446-1.5471 4.0795-0.83435 1.4698-0.48327 1.0966-0.55896 1.8286-3.2643 0.82454-1.6632 0.87089-4.177 1.7851-0.40236 2.251-0.83161 4.0361-3.3427-1.3367-2.5084-4.9475-1.6254-3.119-4.177-1.7852-0.83161 2.6994-4.1771-1.3801-5.3704-1.3367-2.511-1.7823v-3.119l-2.8972-1.3801-1.6659 3.5674-2.4192-1.2904-0.36449-0.82459-0.19418-0.73487 0.15399-0.26914 0.79655-0.46284 0.51834-0.46581 0.35373-0.73489-0.15641-0.64525-0.48053-0.6886-0.52112-0.51213-0.40502-0.55257-0.0755-0.46587 0.15399-0.73496z"/>
   <path fill="#a69d98" id="Jajpur" d="m51.337 198.5 1.2744 0.272 0.6345-0.5555 0.4833-0.26909 0.55894 0.9143 0.0375 1.004 0.27268 0.91718 0.40502 0.55262 0.63724 0.17917 1.026 0.22299 0.63719 0.13607 0.59679 0.50928 0.87209 0.22299 0.75329-0.46296 0.83159 0.26907 0.95045 0.2691 1.08 0.60179 0.90987 0.22299h1.0801l1.2744-0.26909 1.234-0.17965 0.8721-0.9143 0.0784-0.64516 0.83433-0.82459 0.351-0.41955 0.36449-0.78118 0.56163-0.64516 0.67498 0.0896 0.67501-0.55552 0.55896-0.36164 0.52105-0.22323 0.59673 0.17965 0.5211 0.13293 1.1206-0.2691 0.55891-0.26904 1.2744-0.5555 0.79387-0.41955 0.98817-0.50923 0.55898-0.26909 0.71814-0.5555 0.98824-0.17966 0.90992-0.46579 0.67496 0.18256-0.19225 1.14-0.63728 0.77827-0.4428 1.1862-0.31318 1.14-0.23486 0.59891-1.1961 0.91427-0.52114 0.35873-0.36718 0.59889-0.36447 0.78127-0.75336 1.2441-0.7128 0.5526-0.32401 0.50923 0.40233 0.46582 0.63722 0.55261 0.0404 1.0966 0.40229 1.0965 0.35103 0.91428 0.63723 1.0966 1.0287 0.60179 1.1583 0.13317 0.51838-0.4195 0.2728-0.41953 0.0782-1.2874 0.19442-0.64526 0.48332-0.91715 1.026-0.26912 1.08-0.91423 0.67501-0.82749 0.87476-0.17651 1.6255 0.46293 0.71281 0.55555 1.0287 0.5555 1.1961 0.5555 0.94776 0.22541 1.1961 0.13269 0.5616 0.13607 0.75334-0.13607 0.75331 0.13607 1.35 0.87091 0.87215 0.55259 1.3932 1.004 0.55886 0.91427-0.19442 1.4264-0.0378 1.8748-0.15641 1.38 0.0404 0.96067-0.11646 0.77825-0.0785 1.14-0.19442 0.86794v0.55552l-0.0378 0.78115 0.11622 0.59892 0.27262 0.31541 0.48335-0.0431 0.55891-0.18208h0.55894l0.63717 0.37614 0.0785 0.36168 0.19418 0.73482 0.32676 0.17917 0.48061 0.37611 0.5589 0.55552-0.52108 0.46582-0.11621 0.55554 0.55891 0.73487 0.5994 0.31536 0.67506 0.31539 0.9126 0.60179 0.27268-0.046 1.2744-0.55265 0.98817-0.6452 0.83164-0.64811 1.3122 0.27197 1.431 0.46299 1.1179 0.64513 1.1582 0.17966 0.95037-0.50926 0.87215-0.9142 1.3932-0.42245 0.4401 0.27197 0.98817-0.73493 1.3528-0.37321 0.79648-0.17917 1.1178 0.37614 0.9505 0.46586 1.2338-0.17941 1.1962 0.13631 1.0801 0.37616 0.63717 0.68862 0.44281 0.5555 0.40231 0.91425 0.32674 0.5555 0.36181 0.31539 0.59937 0.59891-0.0404 0.82457-0.192 0.96061 0.038 0.68855 0.19443 0.18256 0.19442 0.36165-2.2248 2.0224-2.1061 2.2944v3.5703l-4.1393-0.91428-2.8972 0.46582-3.3427-1.3338-1.666-0.46582-0.40221 1.7851-2.9025 1.3801-4.177 0.91432-2.8972 1.7388-2.1088 4.0361-5.3704 1.8286v-4.0332l-2.1087-3.1623-3.302-0.42235-3.772 2.2047-3.3049 3.5703-0.83164 0.46296-2.0682-0.868v-4.5019l-9.7417-1.3338 1.5093-0.41955 1.3149-0.36166 1.0261-0.31246 0.71551-0.17941 1.08-0.0896 1.026-0.0896 0.75341-0.0927 0.40494-0.73484 0.23486-0.73493-0.31316-0.4195-0.48063-0.95774 0.15399-1.1862 0.52109-1.4264 0.11646-1.0937 0.0407-0.96057-0.59947-0.73491-0.405 0.0462-0.79377-0.0462-1.0801-0.0896-0.95035 0.0896-0.71286-0.73486-0.44276-1.2875-0.52112-0.26915-0.91258 0.0431-0.83164-0.0431-0.55891 0.37609-0.83162-0.0462-1.0287-0.0462-0.94769-1.6058-0.0785-1.0039 0.19443-1.4235 0.55894-1.0502 0.23485-1.0503 0.31326-0.82459 0.36456-1.2904-0.23486-0.26909-0.63719-0.17941-1.2339 0.0462-1.5093-0.17941-0.8964-0.0893-0.55896-0.0896-0.59942 0.0896-1.1961-0.46584-0.75336-0.41953-1.3149-1.14-0.83437-1.0502-1.3149-0.41948-0.87214-0.46584-0.59671-1.004-0.63724-0.46582-0.67762-0.37323-0.44287-0.0896-0.90989 0.27198-1.4715-0.82747-0.32398-1.004 0.0404-1.0966 0.19443-0.87091 0.32671-1.6926 0.11622-1.0039-0.56162-0.64523-0.79385-0.55553-0.90989-0.73488-0.79379-0.82167-0.48066-1.004-0.52107-1.4698-0.0784-0.5555 0.0784-0.59891 0.11622-0.64523 0.15641-0.69147 0.36185-0.26912 0.48334-0.22517 0.83162-0.22542 0.52109-0.13631 0.55891-0.22542 0.405-0.17965z"/>
  </g>
  <path stroke="#e7de69" d="m27.828 85.461 3.6179-0.42564 2.5538 1.4897 1.0641 2.341 2.1282 1.9154 1.4897 1.2769 2.5538 0.42564 2.9794-0.63845 2.5538 0.63845 2.1282 1.7025 1.9154 2.7666 1.7025 2.7666 2.9794 2.9794 0.63845 2.5538 0.85127 3.4051 1.9154 2.1282 5.1076 1.9154 3.1923 0.85126 3.4051 1.4897 2.341 1.9154 2.1282 1.7025 1.7025 4.4692 0.85127 3.1923-0.42564 2.341 2.7666 1.4897 0.42563 3.6179-1.2769 4.8948-0.21282 5.5332 1.7025 2.7666-0.21282 8.2999 2.341 1.9154 7.4486 2.5538-2.9794 4.682 1.0641 1.0641-1.2769 1.4897 0.85127 2.1282-3.6179 2.1282h-1.9154l-0.42564 0.63845 1.4897 3.4051-1.4897 2.5538-1.2769 5.3204 0.42563 1.0641-5.7461 5.9589-1.4897 0.42564-0.21281 1.4897-7.4486 5.7461h-1.4897l-2.9794 2.341v1.7025l-1.2769 1.0641-1.9154 3.4051-2.341 2.9794 0.42563 3.6179 1.0641 1.9154-0.42564 2.9794v2.7666l-1.0641 1.4897-0.85127 0.85127-3.8307 0.21282" stroke-width=".8px"/>
  <path d="m80.655 134.04-0.57748-4.0425 1.155-3.1763-3.465-5.1976 4.9088-6.3526 1.4438-2.8875-1.155-12.994 5.7751 5.1975 3.1763-2.0213 5.1976 1.7325 2.5988-3.1763 4.0425-2.31 6.3526-1.4438 12.128-3.1763 12.416-34.073 3.7538-1.4438 9.2401 13.86v3.7538l7.5076 13.86-0.28872 7.2188-2.5988 0.86625-1.4438 6.9301-6.9301 5.7751-2.0213 5.4863-10.395 7.5076-2.5988 2.8875 1.155 3.7538-7.2188 4.3313-3.465 6.0638-14.149 13.86-10.973 3.465-4.0425 1.4438" stroke="#e7de69" stroke-width=".8px"/>
 </g>
 <g fill-rule="evenodd" stroke-width=".23813">
 
  <circle cx="138.42" cy="58.884" r="1.5564"/>
  <circle cx="82.044" cy="156.59" r="1.5564"/>
  <circle cx="111.44" cy="148.81" r="1.5564"/>
  <circle cx="151.74" cy="100.56" r="1.5564"/>
 </g>
 <circle cx="83.254" cy="99.004" r="1.5564" fill="#008000" fill-rule="evenodd" stroke-width=".23813"/>
 <path  d="m85.139 99.632c4.4022-1.0358 6.4738-2.3306 6.4738-2.3306l3.1075-0.5179v-1.0358l-3.8843-0.51791h-1.8127l-1.2948-0.25895-2.8485-3.6254-3.1074 3.3664-0.25896-2.8485-3.8843-2.5895 4.1433 0.77686 2.5895 0.77686 0.77686-3.1074-3.1074-0.51791-1.2948-0.77686h-2.8485l-1.2948-1.8127 2.0716-0.25895-2.0716-7.2507-0.25895-3.6254 3.3664 1.2948 0.77686 1.2948 2.3306 1.0358-0.77686-3.1074-4.4022-2.8485 2.0716-5.697 1.5537-1.2948 3.3664 1.0358-0.25896-1.0358-2.5895-2.3306 1.2948-1.2948 6.2149 2.0716-1.0358-2.5895-4.6612-0.51791-0.51791-3.8843 2.5895-0.77686 2.0716-1.8127 3.1074 1.2948v-1.8127l-1.5537-1.0358 2.5895-2.5895 4.9201-1.0358 3.1074-1.0358h2.3306l4.6612-3.8843h2.8485l1.0358 1.5537-3.1074 3.3664-2.8485 2.5895-6.2149 3.6254 5.438-1.8127 2.8485-1.8127 3.3664-0.25895-1.5537 3.1074 2.5895 3.3664 2.8485 0.51791 1.2948-2.0716 2.3306-1.0358 1.5537 4.4022 1.2948 4.4022 1.2948 1.8127-2.3306 3.1074 2.8485 1.2948-3.8843 2.0716-3.6254 5.1791-2.5895 1.0358 1.2948 2.0716-1.8127 1.0358-2.0716-0.77686 3.8843 1.5537-3.3664 3.6254-0.25895 2.0716-0.25895 0.77686-1.0358 1.8127-1.2948 3.6254-0.51792 1.0358-3.1074 1.5537-1.0358 1.5537-4.9201 0.25896-4.6612 3.3664-3.1075 1.2948z" fill="#2d5016" stroke="none" stroke-width=".45576px"/>
 <circle cx="163.32" cy="109.73" r="1.5564" fill="#04a" fill-rule="evenodd" stroke-width=".23813"/>
 <g fill="#000000" font-family="sans-serif" font-size="3.5278px" letter-spacing="0px" stroke-width=".26459" word-spacing="0px">
  <text x="166.60786" y="112.66587" style="line-height:1.25" xml:space="preserve"><tspan x="166.60786" y="112.66587" stroke-width=".26459">Chandipur</tspan></text>
  <text x="35.179184" y="85.688408" style="line-height:1.25" xml:space="preserve"><tspan x="35.179184" y="85.688408" stroke-width=".26459">Keonjhar</tspan></text>
  <text x="130.63791" y="55.771091" style="line-height:1.25" xml:space="preserve"><tspan x="130.63791" y="55.771091" stroke-width=".26459">Baripada</tspan></text>
  <text x="156.75072" y="101.42526" style="line-height:1.25" xml:space="preserve"><tspan x="156.75072" y="101.42526" stroke-width=".26459">Baleswar</tspan></text>
  <text x="63.540112" y="161.25989" style="line-height:1.25" xml:space="preserve"><tspan x="63.540112" y="161.25989" stroke-width=".26459">Jajpur Road</tspan></text>
  <text x="110.75068" y="154.8614" style="line-height:1.25" xml:space="preserve"><tspan x="110.75068" y="154.8614" stroke-width=".26459">Bhadrak</tspan></text>
 </g>
 <g fill-rule="evenodd">
  <circle cx="23.939" cy="88.801" r="1.5564" fill="#0fc" stroke-width=".23813"/>
  <circle cx="19.096" cy="92.606" r="1.5564" fill="#5fd" stroke-width=".23813"/>
  <circle cx="56.19" cy="106.53" r="1.4699" stroke-width=".2249"/>
 </g>
 <g fill="#000000" font-family="sans-serif" font-size="3.5278px" letter-spacing="0px" stroke-width=".26459" word-spacing="0px">
  <text x="58.698002" y="108.34255" style="line-height:1.25" xml:space="preserve"><tspan x="58.698002" y="108.34255" font-size="2.8223px" stroke-width=".26459">Ghatgaon</tspan></text>
  <text x="24.111509" y="79.981636" style="line-height:1.25" xml:space="preserve"><tspan x="24.111509" y="79.981636" font-size="2.1167px" stroke-width=".26459">Sanghagra waterfall</tspan></text>
  <text x="25.149105" y="92.259842" style="line-height:1.25" xml:space="preserve"><tspan x="25.149105" y="92.259842" font-size="2.1167px" stroke-width=".26459">Badaghagra waterfall</tspan></text>
 </g>
 <path d="m27.828 85.461-0.60418-5.1338v-3.4586l-0.17293-4.8421 1.7293-3.1128 2.594-5.8797 1.7293-6.3985-2.4211-1.9023-4.4962-4.1504-1.5564-2.594-0.17293-2.7669" fill="none" stroke="#e7de69" stroke-width=".8px"/>
 <circle cx="24.457" cy="45.049" r="1.2105" fill="#00d4aa" fill-rule="evenodd" stroke-width=".18521"/>
 <text x="13.562629" y="45.91394" fill="#000000" font-family="sans-serif" font-size="3.5278px" letter-spacing="0px" stroke-width=".26459" word-spacing="0px" style="line-height:1.25" xml:space="preserve"><tspan x="13.562629" y="45.91394" font-size="2.1167px" stroke-width=".26459">Deojhar</tspan></text>
 <text x="21.171659" y="95.545555" fill="#000000" font-family="sans-serif" font-size="3.5278px" letter-spacing="0px" stroke-width=".26459" word-spacing="0px" style="line-height:1.25" xml:space="preserve"><tspan x="21.171659" y="95.545555" font-size="2.1167px" stroke-width=".26459">Gonasika</tspan></text>
 <circle cx="96.57" cy="168.52" r="1.5564" fill="#fc0" fill-rule="evenodd" stroke-width=".23813"/>
 <text x="92.592773" y="172.5005" fill="#000000" font-family="sans-serif" font-size="3.5278px" letter-spacing="0px" stroke-width=".26459" word-spacing="0px" style="line-height:1.25" xml:space="preserve"><tspan x="92.592773" y="172.5005" font-size="2.8223px" stroke-width=".26459">Biraja Temple</tspan></text>
 <path d="m130.03 130.57 3.2 5.0954 4.6692 1.5564 0.69173 5.8797 1.7293 3.9774 3.1128 6.5714 3.1128 6.7444 1.5564 4.1504 1.5564 4.4962 1.2105 1.7293-0.6263 5.7357" fill="none" stroke="#e7de69" stroke-width=".8px"/>
 <circle cx="150.18" cy="176.13" r="1.5564" fill="#00f" fill-rule="evenodd" stroke-width=".23813"/>
 <text x="145.5101" y="180.9742" fill="#000000" font-family="sans-serif" font-size="3.5278px" letter-spacing="0px" stroke-width=".26459" word-spacing="0px" style="line-height:1.25" xml:space="preserve"><tspan x="145.5101" y="180.9742" stroke-width=".26459">Dhamra port</tspan></text>
 <circle cx="155.54" cy="93.125" r="1.5564" fill="#fc0" fill-rule="evenodd" stroke-width=".23813"/>
 <text x="158.48004" y="93.124504" fill="#000000" font-family="sans-serif" font-size="3.5278px" letter-spacing="0px" stroke-width=".26459" word-spacing="0px" style="line-height:1.25" xml:space="preserve"><tspan x="158.48004" y="93.124504" font-size="2.8223px" stroke-width=".26459">Khirachora Gopinath</tspan></text>
 <circle cx="55.758" cy="58.538" r="1.5564" fill="#fc0" fill-rule="evenodd" stroke-width=".23813"/>
 <text x="58.179203" y="58.710941" fill="#000000" font-family="sans-serif" font-size="2.1167px" letter-spacing="0px" stroke-width=".26459" word-spacing="0px" style="line-height:1.25" xml:space="preserve"><tspan x="58.179203" y="58.710941">kichakeswari temple</tspan><tspan x="58.179203" y="62.12072">Khiching</tspan></text>
 <circle cx="136.69" cy="108" r="1.5564" fill="#fc0" fill-rule="evenodd" stroke-width=".23813"/>
 <text x="125.7958" y="103.84631" fill="#000000" font-family="sans-serif" font-size="3.5278px" letter-spacing="0px" stroke-width=".26459" word-spacing="0px" style="line-height:1.25" xml:space="preserve"><tspan x="125.7958" y="103.84631" font-size="2.1167px" stroke-width=".26459">Panchalingeswara</tspan></text>
 <circle cx="80.487" cy="133.76" r="1.4699" fill-rule="evenodd" stroke-width=".2249"/>
 <circle cx="72.965" cy="132.99" r="1.297" fill="#fc0" fill-rule="evenodd" stroke-width=".19844"/>
 <text x="53.682961" y="136.87642" fill="#000000" font-family="sans-serif" font-size="3.5278px" letter-spacing="0px" stroke-width=".26459" word-spacing="0px" style="line-height:1.25" xml:space="preserve"><tspan x="53.682961" y="136.87642" font-size="2.1167px" stroke-width=".26459">Kushaleshwara Temple</tspan></text>
 <circle cx="49.36" cy="106.96" r="1.5564" fill="#5fd" fill-rule="evenodd" stroke-width=".23813"/>
 <text x="31.720539" y="111.8012" fill="#000000" font-family="sans-serif" font-size="3.5278px" letter-spacing="0px" stroke-width=".26459" word-spacing="0px" style="line-height:1.25" xml:space="preserve"><tspan x="31.720539" y="111.8012" font-size="2.1167px" stroke-width=".26459">Gundichaghagi waterfall</tspan></text>
 <g fill="#0fc" fill-rule="evenodd">
  <circle cx="12.698" cy="79.117" r="1.5564" stroke-width=".23813"/>
  <circle cx="23.766" cy="83.267" r="1.3835" stroke-width=".21167"/>
  <circle cx="15.984" cy="76.177" r="1.5564" stroke-width=".23813"/>
 </g>
 <text x="3.3596127" y="82.402687" fill="#000000" font-family="sans-serif" font-size="2.1167px" letter-spacing="0px" stroke-width=".26459" word-spacing="0px" style="line-height:1.25" xml:space="preserve"><tspan x="3.3596127" y="82.402687">Khandadhar</tspan><tspan x="3.3596127" y="86.812462">waterfall , Keonjhar</tspan></text>
 <text x="16.329548" y="73.756065" fill="#000000" font-family="sans-serif" font-size="3.5278px" letter-spacing="0px" stroke-width=".26459" word-spacing="0px" style="line-height:1.25" xml:space="preserve"><tspan x="16.329548" y="73.756065" font-size="2.1167px" stroke-width=".26459">Handibhanga waterfall</tspan></text>
 <circle cx="125.97" cy="173.02" r="1.5564" fill="#fc0" fill-rule="evenodd" stroke-width=".23813"/>
 <text x="122.683" y="166.10199" fill="#000000" font-family="sans-serif" font-size="2.1167px" letter-spacing="0px" stroke-width=".26459" word-spacing="0px" style="line-height:1.25" xml:space="preserve"><tspan x="122.683" y="168.10199">Akhandalamani</tspan><tspan x="122.683" y="170.51176">Temple</tspan></text>
 <circle cx="118.62" cy="65.369" r="1.1241" fill="#0fc" fill-rule="evenodd" stroke-width=".17198"/>
 <text x="122.08291" y="67.613129" fill="#000000" font-family="sans-serif" font-size="3.5278px" letter-spacing="0px" stroke-width=".26459" word-spacing="0px" style="line-height:1.25" xml:space="preserve"><tspan x="122.08291" y="67.613129" font-size="2.1167px" stroke-width=".26459">Lulung</tspan></text>
 <circle cx="86.367" cy="99.35" r="1.1241" fill-rule="evenodd" stroke-width=".17198"/>
 <circle cx="119.22" cy="69.26" r="1.1241" fill="#0fc" fill-rule="evenodd" stroke-width=".17198"/>
 <text x="118.53263" y="73.064331" fill="#000000" font-family="sans-serif" font-size="2.1167px" letter-spacing="0px" stroke-width=".26459" word-spacing="0px" style="line-height:1.25" xml:space="preserve"><tspan x="118.53263" y="73.064331">Sitakund</tspan><tspan x="118.53263" y="77.474106">Watefull</tspan></text>
 <g fill="#0fc" fill-rule="evenodd" stroke-width=".17198">
  <circle cx="103.31" cy="65.974" r="1.1241"/>
  <circle cx="98.127" cy="64.764" r="1.1241"/>
  <circle cx="105.74" cy="84.651" r="1.1241"/>
 </g>
 <g font-family="sans-serif" font-size="3.5278px" letter-spacing="0px" stroke-width=".26459" word-spacing="0px">
  <text x="90.171715" y="60.959061" fill="#000000" style="line-height:1.25" xml:space="preserve"><tspan x="90.171715" y="60.959061" fill="#ffffff" font-size="2.1167px" stroke-width=".26459">Barehipani Waterfall</tspan></text>
  <text x="97.953682" y="69.60569" fill="#000000" style="line-height:1.25" xml:space="preserve"><tspan x="97.953682" y="69.60569" fill="#ffffff" font-size="2.1167px" stroke-width=".26459">Joranda Waterfall</tspan></text>
  <text x="99.164207" y="88.282394" fill="#000000" style="line-height:1.25" xml:space="preserve"><tspan x="99.164207" y="88.282394" fill="#ffffff" font-size="2.1167px" stroke-width=".26459">Devkund</tspan></text>
  <text x="88.788254" y="75.139519" fill="#ffffff" style="line-height:1.25" xml:space="preserve"><tspan x="88.788254" y="75.139519">Similipal</tspan><tspan x="88.788254" y="79.549294">National </tspan><tspan x="88.788254" y="83.959076">Park</tspan></text>
  <text x="70.803276" y="97.101952" fill="#000000" style="line-height:1.25" xml:space="preserve"><tspan x="70.803276" y="97.101952" font-size="2.8223px" stroke-width=".26459">Thakurmunda</tspan></text>
 </g>
 <circle cx="51.781" cy="223.52" r="1.5564" fill-rule="evenodd" stroke-width=".23813"/>
 <text x="59.216801" y="223.51558" fill="#000000" font-family="sans-serif" font-size="3.5278px" letter-spacing="0px" stroke-width=".26459" word-spacing="0px" style="line-height:1.25" xml:space="preserve"><tspan x="59.216801" y="223.51558" stroke-width=".26459">Bhubaneswar</tspan></text>
  <circle cx="27.743" cy="84.997" r="1.5564"/>
</svg>
