<svg width="206.59mm" height="209.99mm" version="1.1" viewBox="0 0 206.58223 209.98631" xmlns="http://www.w3.org/2000/svg">
 <g fill="none">
  <g transform="translate(-3.0697 -30.343)" stroke="#fff" stroke-width=".5">
   <path id="Angul" d="m135.35 143.32 0.18314-4.6194-1.1623-3.363 2.1313 0.86129 1.5667 0.82033 0.7859-2.3301 0.59764-4.2379-0.78333-2.5427 0.85716-3.7991 0.78583-1.3 1.5667-0.43884 0.80879-5.4371-0.41714-5.5241-1.1623-3.7991-3.1486-3.7991 0.41709-2.9842 2.734-1.2536 2.3272-2.164 0.78331-4.6194 1.9864-0.82032 8.4285-2.1585-0.74511-0.94571-0.29508-1.1174-0.30773-0.9048-0.29504-0.52327-0.34079-0.43877-0.52643-0.39513-0.75029-0.43881-0.60022-0.43607-0.7477-0.56412-0.8215-0.297-0.60025-0.21028-0.45266-0.17196-0.60029-0.39519-0.67391-0.60773-0.8571-0.21004-0.22122 0.16877-0.49082 0.04355-0.52647 0.04355-0.30526-1.0738 0.18312-1.2155 0.14734-0.9484 0.41712-0.43601 0.18315-0.34067 0.18314-0.35431 0.77061-0.2398 0.29504-0.69231 0.22121-0.16877 0.52645-0.0842 0.37898-0.25621 0.3815 0.08433 0.49084 0.04355v-0.98924l0.45273-0.35432 0.5646-0.69223 0.14488-0.60775-0.0736-0.98654 0.34335-0.4388 0.0739-0.86115-0.67394-0.56691-0.49089-0.60774-0.37892-0.65132-0.2925-0.94574-0.3052-1.0738-0.41709-0.08696-0.85708-0.33792-0.96898-0.29708-0.78335-0.47966-0.49087-0.69222-0.41706-0.60776 0.18315-0.52324 0.33058-0.16877 0.52651 0.16877 0.45266 0.12818 0.74776 0.39518 0.93085-0.39518 0.52646-0.39516 0.5265-0.43606 0.5646-0.69226 0.22122-0.6922 0.14733-0.98926-0.18314-0.82036-0.18291-0.6922 0.30775-0.21005-0.3434-0.98926-0.41701-0.25344v-0.94571l-0.1829-0.56688-0.37896-0.0408-0.49089-0.08433-0.38146-0.43877-0.18313-0.56414-0.41712-0.65135-0.11177-0.47966 0.41712-0.39514 0.52646-0.5233 0.22124-0.98656-0.25945-0.56415-0.14501-0.25347-0.63844-0.8639-1.0147-0.94569-0.82151-0.9457 0.11178-0.43876-0.11178-0.52324-0.37895-0.6895-0.45272-0.60777v-0.93228l-0.11178-0.73309-0.14487-0.4388-0.78587-0.98657-0.56209-0.169-1.0529 0.35159-0.7121-0.08439-0.78333-0.47967-0.60026-0.08462-0.14735 0.47967-0.25686 0.86122-0.25685 0.33795-0.25684-0.20982-0.2696 0.08463-0.18313 0.21256 0.0736 0.29706 0.10944 0.73582-0.0739 0.60776-0.25685 0.43877-0.49086 0.52054-0.56207 0.56416-0.52644 0.25343-0.45273 0.29706-0.41707 0.69223-0.2569 0.52327-0.14732 0.47966-0.0352 0.39515v0.25617l-0.63839 0.169 0.63839-0.169 0.48828 0.25618 0.78339-0.08433 0.67394 0.04108 0.63588 0.04355 0.41706 0.169 0.56463 0.69221 0.37896 0.43878 0.25683 0.60773v0.64862l0.0356 0.38155 0.38149 0.60778 0.22123 1.1146-0.18314 0.8612-0.0355 0.69226-0.038 0.7767-0.34335 0.56412-0.63583 0.6922-0.63582 0.774-0.30521 0.63772-0.41707 0.77674-0.63839 0.29703-0.41706 0.29436-0.14501 0.4388-0.30515 0.52321-0.29497 0.2535-0.45276 0.0842-0.44254-0.15509-0.60025 0.2535-0.52646 0.08696-0.67144 0.08391-0.82149 0.21027-0.67392-0.21027h-0.67398l-0.52646 0.21027-0.82156 0.64857-0.60023 0.56691-0.48827 0.0408-0.89268-0.0842-0.74779-0.29711-0.7477-0.2121-0.45266 0.12832-0.45527 0.39518-0.5621 0.08435-0.74769 0.4388-0.52647 0.60773-0.10974 0.9048 0.038 0.7767 0.29499 0.64866 0.37894 0.77671 0.45525 0.69224 0.29504 0.33795-0.038 0.60767 0.0736 1.2156-0.038 1.0302 0.038 0.69224 0.22121 0.94842 0.22122 0.69227 0.30778 0.6513 0.25682 0.69222 0.41712 0.169 0.60021 0.65138 0.2569 0.60773-0.41708 0.8612-0.85715 0.08696-0.63832-0.08696-0.49089 0.21233-0.4883 0.47962-0.85711-0.169-0.93336-0.35432-0.56209-0.33792-0.63839 0.04064-0.85708 0.90486-0.78332 0.86122-0.70958 0.86388-0.63837 0.94568-0.0356 0.35432 0.41711 0.86115 0.6739 0.4388 0.45279 0.25341 0.56206 0.25342 0.37899 1.0329 0.41453 1.0302 0.25944 0.77944 0.10976 0.43879-0.038 0.43873-0.48829 0.52326-0.34339 0.69227 0.0739 0.34066 0.67398 0.60777v0.47963l-0.41711 0.64862-0.37897 0.77671-0.38152 0.12847-0.41707-0.47958-0.22124-1.2128-0.22121-0.60778-0.45533-0.43603h-0.60012l-0.37898-0.17173 0.0739 0.77673 0.22121 1.0738-0.0378 1.1719-0.41708 0.12832-0.56204-0.16923h-0.70954l-0.70963-0.21233-0.78586-0.4388-0.60023-0.3543h-1.2717l-0.22122-0.34063-0.8953-0.25342-0.63831-0.47972-0.85712-0.21233-0.85705 0.17174-0.85962 0.29436-0.74778 0.39521 0.0739 0.35154 0.56211 0.29706 0.63828 0.47966 0.1829 0.77946-0.34332 0.38152-0.56207-0.29702h-0.52903l-0.45273 0.73582-0.89521-0.39789-0.78335-0.39516-0.82148-0.56415-0.45273-0.64862-0.33057-0.33797-0.60025-0.56691-0.74775-0.34064-0.63839 0.25343-0.37888 1.0329-0.63841 0.4388-0.7833-0.39794-0.52649-0.33793-0.63836-0.12528-0.63583 0.77673-0.45269 1.1746-0.22122 0.90476-0.56203 1.3-0.14733 0.60773 0.0736 0.60781v0.69226l0.18314 0.60769 0.45269 0.52326 0.78587 0.52327 0.67401 0.60776-0.25941 0.9457-0.6358 0.0842-0.85707-0.60775-0.70965-0.52327-0.9665-0.5205-1.2004 0.0841-0.60026 0.0842-0.67388 0.17196-1.2768 0.56413-0.82146 0.16923-0.6358 0.56682-0.82152-0.25619-1.3836-0.33794-1.2742-0.2561-0.52651-0.25626-1.0529-0.43601-0.63834 0.0818-0.67144 0.35426-0.93339 0.69227-0.30523 0.29706-1.236 1.4689-1.1648 0.65137-0.89521 0.52051-0.41459 0.21233-0.56206 0.21209-0.9334 0.16946-1.0911 0.33799-0.07389 0.35152 0.52646 0.43877 0.52646 0.25345 0.22127 0.94842-0.18317 0.52324-0.34334 0.35431-0.11192 0.21005 0.11192 0.56687v0.60772l-0.33318 0.82027 0.03803 0.73588-0.34336 0.64862-0.41713-0.0406h-0.85706l-0.5646-0.0871h-0.67395l-0.74771 0.25341-0.63584 0.0843h-1.4576l-0.93086 0.25343-0.4171 0.25352-0.41711 0.43878-0.45271 0.60775-0.74774 0.60775-0.63837 0.60768-0.82148 0.47969-0.4527 0.12818-0.18321 0.35161v0.436l0.10931 0.29981-0.67398 0.29435 0.8571 2.8971 0.85712 0.6486 0.93083 0.1715 0.78334 0.12789 0.93083 0.5206 0.67398 0.56682 0.1832 0.43882 0.18296 0.25344 0.33064 0.6922 0.30521 0.82033 0.29504 1.0738-0.07389 0.9893-0.03571 1.0738-0.03803 0.77671 0.52648 0.86119 1.0555 1.3409 0.89271 0.90478 0.89524 0.169 1.9863 0.52054 0.85712 0.12818 0.93082 0.12542 0.56464 0.0406 0.70956 0.12818 0.8571 0.0842 0.82151 0.43606 1.4217 1.0329 0.85709 0.98928 0.60019 0.16923 0.78332 0.29704 1.1267 0.16877 0.89524 0.43879 0.70956 0.52056 0.78333 0.52322 0.63836 0.86123 0.63586 0.77673 0.89522 1.2155 0.82155 1.1147 0.71208 0.6077 0.96642 0.52324 1.0173 0.60779 1.3124 0.69224 0.56457 0.25344 1.0174 0.0843 1.3835 0.21006 1.3123 0.12817 1.2742 0.12833 0.9309 0.12832 1.0554 0.0841 1.053 0.16877 1.1648 0.25344 0.70962 0.60771 0.25691 0.43877 0.29501 0.73314-0.18565 0.25621 0.18565-0.25621 0.45269-0.12527 0.52651 0.39515 0.45266 0.39524 0.6358 0.60772 0.56463 0.69222 0.29249 0.52055 0.25684 0.5233 0.22123 0.77665 0.34335 0.5233 0.74773 1.2128-0.74773-1.2128 0.7833-0.35434 0.41455-0.25343 0.14734-0.6922 0.37892-0.98933 0.89526-0.69225 0.52901-0.3815 0.37898-0.73311 0.52643-0.73313 0.45525-0.12847 0.7096 0.35161 0.96643 0.39514 0.82153-0.16923 1.0555 0.16923 0.85709 0.0839 0.63579 0.43605 0.85711 0.94569 0.82147-0.16923 0.41716-0.7767 0.82141-0.86119 0.85712 0.12527 0.93084 0.12832h1.0911l1.2004-0.0408 0.49086-0.0406 0.67394-0.0842 0.67402-0.52331 0.25687-0.52326 0.34334-0.25345v-0.90476l0.22122-0.82035 0.74517 0.12542 0.52649-0.21027 0.8596 0.34063 1.2742 0.0843h0.6358l0.41708 0.2535 0.5265 0.1715z" fill="#95c279"/>
   <path id="Dhenkanal" d="m138.06 137.01 0.7833-2.3329 0.60023-4.2379-0.7833-2.5454 0.85704-3.7991 0.78334-1.3 1.5692-0.4388 0.79607-5.4233-0.41709-5.5242-1.1623-3.7991-3.1486-3.7991 0.41705-2.9842 2.734-1.2537 2.3652-2.1638 0.74774-4.6194 1.9863-0.82036 8.4285-2.1584 0.78584 0.86121 1.0173 0.94571 0.67405 1.2155 1.0173 0.86118 0.89265 1.1146 0.63833 0.77668 0.56467 0.69224 0.96642 0.77675 0.74773 0.39788 0.85718-0.04355 0.74764-0.29432 0.71215-1.1174 0.74771-0.98652 0.5621-1.3409 0.41712-0.73588 0.60014 0.04341 0.82157 0.52056 1.4217 0.56409 1.2386 0.60776 0.56459 0.16923 0.67396-0.0842 0.74771-0.3516 0.74779-1.1174 0.38148-0.60778 0.2569-0.16878 0.85964-0.17173 0.89265-0.04064 0.85967-0.29706 0.52647-0.25343 0.70956-0.77677 0.49087-0.52326 0.41708 0.16877 0.52649 0.21233 0.45266-0.48241 0.45525 0.17174 0.14502 0.43608 0.4908 0.60777 0.7096 0.73307 0.18565 0.73309 0.18314 0.77948-0.41716 0.16923-0.38146 0.17196-0.52651 0.21233-0.49082 0.12542-0.78587 0.21233-0.45271 0.2121-0.34339 0.25344-0.14734 0.65139-0.10947 0.60777-0.0739 0.56688 0.0739 0.52048 0.49083 1.3845 0.45274 0.94569 0.74515 0.77669 0.85963 0.69222 0.74521 0.52327 0.5265 0.60777-0.10945 0.94563-0.3052 1.5972-0.18565 0.81752-0.0352 1.0302 0.30768 0.9484 1.3861 0.77665 0.85712-0.25342 0.4171 0.0843 0.63581 0.35155 0.60022 0.43874 0.56468 0.94573 0.82144 0.43875 1.2386 0.39519 0.7833 0.98933 1.2386 1.0738 0.70959 0.39518 1.1521 0.41153 0.56465-0.0843 0.52647 0.0843 0.8215 0.12818 1.4217 0.16923 1.1623-0.0406 0.60021 0.16876 0.22122 0.25617-0.34083 1.2154-0.29504 0.7768-0.22123 0.98923-0.52641 0.98663-0.18566 1.3436 0.0711 0.94564 0.89522 1.5099 0.96901 0.0435 0.78334 0.0406 0.52896-0.35429 0.78335 0.0435 0.8597-0.0435 0.48829 0.25346 0.41964 1.2155 0.67142 0.68951 0.8952-0.0846 1.0174 0.0846 0.74521 0.0435 0.38145-0.0435 0.56207 0.69225-0.0352 0.90474-0.10946 1.0329-0.49085 1.3408-0.14502 1.1174 0.45273 0.90216 0.295 0.39786-0.21873 0.69224-0.38145 0.69223-0.7096 0.0843-0.9665 0.0846-1.0172 0.0871-0.67403 0.16876-0.96638 0.29705-1.2361 0.33795-1.4217 0.39522-0.70963 0.21211-0.25934 0.12817-0.0359 0.90488-0.38146 0.98925-0.38146 1.3844-0.48833 0.82031-0.45525 0.33796-0.71219 0.64868-0.63575 0.16878-0.70962-0.43604-0.74773-0.25614-0.74774-0.16877-0.59762-0.16947-0.67405-0.35427-0.60017 0.12832-0.41457 0.3952-0.33063 0.25345-0.6358 0.39789-0.70961-0.12848-0.7859-0.16923-0.89516 0.35429-0.52654 0.77669-0.14502 0.8612-0.60023 0.6078-0.52904 0.0432-0.93084 0.21004-0.93084-0.169-0.45272 0.56691-0.18313 0.64866-0.10945 0.43872-0.67401 1.4689-0.60023 0.4388-0.41701 0.69222-0.67149 0.60779-0.63583 0.47963-0.82402 0.21211-0.74776 0.34068-0.38144 0.69219-0.45268 1.1147h-1.5667l-0.63842 0.69224-0.41703 0.3952-0.89272 0.12846-0.74773 0.0824-1.0529 0.43875-0.22124-0.25338-0.38148 0.43875-0.49084 0.43602-0.4171 0.35434h-0.7477l-0.6358-0.43609-0.49094-0.43876-0.74773-0.35426-0.60019 0.25338h-0.71211l-0.7834-0.16876-0.70951-0.12818-0.49087 0.98929-0.85713 0.86122-0.85704 0.77669-0.60024 0.94575-0.45271 0.60771-0.67399-0.0408-0.85706-0.38153-0.67402-0.60779-0.70952-0.16876-1.0555 0.0406-0.25685 0.60779-0.0739 0.52329-0.25683 0.47956-0.78336 0.0846-0.74777-0.56694-0.60019-0.12513-1.4954 0.0841-0.63585-0.43869-1.4955-0.0843-1.1622-0.77676-0.74777-0.52327-0.93084-0.16877-0.74776 0.43609-0.60017 0.52319-0.60027-0.17149-0.52647-0.0843-0.45266-0.77674-1.5311 0.0871-0.70953-0.56692-0.969-0.29704h-0.60027l-0.60023-0.35429 0.22122-0.94566-0.30516-0.94568-0.25693-1.2155-0.6739-1.1174-0.34339-0.68951-0.25686-0.52323-0.93339-0.82037-0.60024-0.47965-0.45267-0.52323-0.0356-0.25619-0.37897-0.39517h-0.67342l0.18313-4.6194-1.1622-3.363 2.1313 0.86386z" fill="#e7de69"/>
   <path id="Nayagarh" d="m106.68 146.27 0.48838-0.12499 0.49085 0.39513 0.45519 0.39522 0.63587 0.6077 0.56458 0.69222 0.29249 0.52054 0.25687 0.52328 0.22123 0.77675 0.38153 0.52325 0.70956 1.2128 0.96647 0.77665 0.60022 0.5642 0.74767 0.52323 1.3098 0.56414 0.89526 0.16878h1.9482l1.3123 0.52596 1.0173 0.35159 0.89524 0.52051 1.2742 0.65133 1.0911 1.3408 1.4573 0.86126 0.93084 0.69225 1.1266 0.73584 0.89526 0.56407 1.091 0.77677 0.93085 0.43878 1.0911 0.43604 1.0173 0.52597 1.4955 0.86122 0.9308 0.60503 0.82153 0.77943 0.96901 0.69223 0.74774 0.2943 0.96649-0.0406h1.0529l0.63584-0.16877 0.78584-0.25613 0.7096-0.0843 1.2004-0.0843h0.63842l0.89268 0.0843 0.74773 0.56419 1.0173 0.64862 0.82152 0.43875 0.60023 0.33798 0.3789 0.16921 1.2742 0.29702 1.0173 0.0435 0.78335-0.29706 0.78335-0.16877 0.89527-0.43878 0.93078-0.56416 0.85712-0.0819 0.45526 0.43609-0.0739 0.56411-0.18314 0.90483-1.0529 0.86113h-0.63588l-0.78586 0.52326-0.14733 0.39521 0.0356 0.47964 0.22122 0.52332-0.14502 0.52323-0.18314 0.38155-0.25689 0.73583-0.18314 0.52322 0.0355 0.6923 0.37892 0.69221-0.85701 3.7145-2.3653 0.86117h-4.3109l-3.553 2.5019-0.78336 4.2379 3.1486 1.3 5.5011-1.3 3.1486-1.6816 3.553 0.43609 1.5667 3.7991-2.3652 1.6816-1.9837 1.3 1.2004 2.0766 3.1486-0.39512 3.1486 2.1176 1.1648 1.6815 1.2004 2.5427-3.9318 3.3603h-5.1349l-5.0968 3.363-5.9157-0.43877-5.4656 1.7251-7.485-1.2999-5.0968 2.1612-0.7859 6.6962-1.0173-0.86122-0.70962-0.29701-0.6358-0.69229-0.8215-0.81756-0.18565-0.29703 0.45527-0.86123 0.10944-0.94841-0.30775-0.69227-0.5646-0.2534-0.71212 0.2534h-0.78331l-0.60026-0.17174-0.38146-0.16876 0.25686-0.90478 0.34333-0.29435 0.22123-0.21186 0.30513-0.29703-0.0356-1.0302-0.14734-0.60773-0.0353-1.0302-0.10944-0.35154-0.34336-1.3845-0.37899-0.81759-0.14735-0.56683-0.78335-0.52059-1.1648 0.21026h-1.0174l-0.63579-0.34067-0.41715-0.39508-0.18315-0.77399-0.25688-1.3001-0.18312-0.86387-0.67404-1.1719-0.85708-0.9893-0.85711-0.47965-0.78333-0.5233-0.96901-1.5943-0.22121-0.69223 0.22121-0.77671 0.18314-0.43602 0.34338-0.69227 0.379-0.43879 0.45269-0.69219 0.18313-0.8612 0.4171-1.0329 0.14712-1.3845-0.30515-1.2536 0.0739-0.90488 0.25685-1.6787-0.0352-1.2591-0.38144-0.35155-0.85716-0.25345-0.93085-0.25344-0.82145-0.4797-0.82149-0.81757-0.45269-0.69219-0.45275 0.16877-0.89269 0.0846-0.45519 0.0406-0.60029 0.0435-0.29504-0.34071-0.45272-0.25616-0.37888-0.52327-0.41715-0.69222-0.70956-0.52322-0.45277-0.77672-0.60019-0.60777-0.70954-0.16923-0.70956 0.39514-0.52655 0.12543-0.25682 0.17175-0.45269 0.68948-0.22123 1.0329-0.34336 1.0738-0.56457 1.3436-0.45269 1.1147-0.56213 1.1746-0.74774 1.3-1.2767 0.90479-1.3098 0.60773-0.67395-0.0406-1.1266-0.48236-0.22121-0.60775-0.60018-1.1147-0.49086-0.6922-0.38149-0.94565-0.67404-0.98933-0.52642-0.98929-0.1829-1.2999-0.11178-1.2155 0.07389-1.0329 0.0736-0.86118 0.30773-1.766-0.34333-0.60777-0.11192-1.597-0.60021-0.3951-1.3123 0.25343-0.8571-0.0434-0.41708-0.65137-0.37895 0.21209-0.52644 0.12834-0.25692-0.17174 0.07374-0.73308 0.10974-0.5669 0.22113-0.35161 0.6358-0.52319 0.60019-0.5642 0.29507-0.86117v-0.60776l-0.52649-0.38424-0.18315-0.47967 0.21866-0.77674 0.38153-0.47968 0.37899-0.12846 0.56204-0.25619 0.38149-0.39517 0.82151-0.12818 0.67392 0.43876 0.60024-0.4824 0.63836-0.73576 0.78333 0.0432 0.78591 0.12572 1.0173-0.29704 0.89527-0.56419 0.56204-0.0839 0.60021 0.169h0.67395l1.0886 0.29707 1.0555 0.0843 1.0529-0.29703 0.6358-0.43887 0.5646-1.0301 0.25437-0.69224-0.41711-0.65137 0.03527-0.98653 0.52905-0.43882-0.03789-0.77673 0.30773-0.73578 0.295-0.64869 0.25945-0.25339 0.74768-0.48237 0.0737-0.6923 0.29503-0.94568 0.45271-0.48236 0.7859-0.43605 0.70955-0.12832h0.60024l0.70957 0.12832 0.63838-0.5233 0.41712-0.34063 0.41709-1.4254 0.49087-0.56684 0.56206-0.47968 0.38147-0.77397-0.10945-0.69228z" fill="#e9a0a0"/>
   <path id="Kandhamal" d="m83.99 163.67-2.8054-6.5708-1.5692-4.6602-2.3652-3.8018-1.5692-2.1203-1.2004-4.6194-0.7833-2.5835-2.7696-1.6407-2.7315-0.86118-2.3628 2.1176 3.1486 2.5427 0.37895 2.9379-4.7152 2.5427-3.1486-2.1176-3.5149 1.6815-3.9346 1.6816-7.1188-1.6816-4.3134-2.1175-3.932 2.9352-3.553 3.8426-2.3627 2.5454 0.78333 4.2379-1.5692 4.6602-3.5149-1.2999-3.9701-2.1203-2.3652 0.82035-5.463 2.2457-0.18569 0.62138-0.10934 0.47965-0.07371 0.86392v0.47968l0.18309 0.67857 0.49086 0.2121 0.78333 0.48237 0.82148 0.69222 0.45271 0.25347 0.56462 0.43608 0.85709 0.77668 0.33062 0.56688 0.22127 0.56412 0.14756 0.60775 0.22129 0.9457 0.34335 1.2564 0.49086 1.2564 0.03814 0.94566v0.65136l0.0712 0.82033-0.25687 0.86119-0.34335 0.52328-0.52646 0.65136-0.37895 0.47959-0.22127 0.4388-0.14756 1.0302v0.77675l0.14756 1.3844 0.10934 0.43604 0.52646 0.25622 0.3052-0.17152h0.52646l0.60022-0.16877 0.37895-0.0841 0.56462-0.16924 0.49086 0.43609 0.22124 0.2535 0.34082 0.29701 0.29502 0.73587-0.07372 1.0302-0.14751 0.60771-0.82148 0.82036-0.71213 0.69223-0.74518 0.39517-0.52901 0.94562-0.03559 1.2564-0.07372 0.82029-0.25687 1.172-0.3052 0.65134-0.45526 0.60779-0.52646 0.16876-0.56206 0.17152-0.70957-0.17152-0.78588-0.12831-0.52646-0.0407-0.34082 0.0843-0.52646 0.21029-0.25689 0.21232-0.49086 0.16877-0.56206 0.0842-0.22129-0.0842-0.52646-0.60772-0.56206-0.52328-0.60022-0.21187-0.82149-0.29434h-0.67399l-1.1623-0.17173-0.63582 0.21186-0.3815 0.29709-0.34335 0.60779-0.37895 0.52051-0.52646 0.52329-0.25942 0.34061 0.073713 0.86123-0.60022 1.1146-0.38151 0.52323-0.52646 0.29439-0.60022 0.90477-0.34335 0.52061-0.60022 0.6922-0.41711 0.77941-0.52646 0.9457-0.25942 0.77673-0.37895 1.0302-0.25687 0.69222-0.14756 0.77949h-0.37896 0.37895l0.60022 0.43597 0.56462 0.33799h0.74771l0.52899 0.0843 0.89268 0.69225 0.63837 0.86118 0.48831 1.1174-0.073724 1.3-0.60022 1.3-0.22127 0.77405-0.10934 0.52327-0.45271 0.47966-0.37895 0.2943 0.10934 0.69223 0.34588 1.033 0.29249 0.69219 0.41711 0.33794 0.56206-0.1715 0.56462-0.43609 0.63582-0.0843h0.52646l0.89524 0.86115 0.60022 0.86124 0.89269 1.2154 0.52646 0.90485 0.63582 1.0302 0.18311 0.65132-0.45524 1.1147-0.67144 0.60771-0.60022 0.60777 0.52646 1.2155 1.2004 2.1584 1.0173 0.90488 0.52646 1.1718 0.4527 0.56686-0.03559 1.4254 0.3408 1.0329 0.49086 0.81751 0.63582 0.35162 0.63837-1.3436 0.52899-0.77675 0.63584-0.52327 0.74518 0.29701 0.41711 0.82041 0.67397 1.3817v0.90482l0.82149 0.64864 0.56206-0.60778 0.49086-0.5641 0.56462-0.48245 0.93087-0.68945 0.56462-0.94569 0.03815-0.9484 0.3052-0.86127 0.29502-0.94563h0.63582l0.67398-0.12846 0.85711-0.47964 0.74773-0.35429 0.67398 0.43873 0.52646 0.35431 0.52646 0.60775 1.3861-0.16923 0.63582 0.9457 0.25687 1.3845 0.52646 0.86391 0.63582 0.77672 1.1267 0.7358 0.67398-0.16877 1.0173-0.65132 0.82149-0.69224 0.89269 0.0822 0.70957-0.52057 0.56462-0.16922 0.48831 0.60776v1.0301l-0.67398 0.21234-0.45271 0.2121 0.10931 0.86121 0.49086 0.25618 0.14754 0.64866-0.3815 0.2121 0.3815-0.2121 0.63582 0.0434 0.89524 0.43878 0.67397 0.77671 0.34335 0.68949 0.45271 0.0843 1.0173-0.86118h1.5667l0.49086-0.0843 0.82149-0.98934 0.82148-0.56413 0.56208 0.29704 0.67398 0.39792 0.969 0.16876 0.63584-0.25343 0.63838 0.25343 0.82149 0.60776 0.71213-0.25618 0.52646-0.21003 1.0885 0.0435 0.82148 0.16923 0.45271 0.43879 0.60022 1.2154 0.4171 1.3846 0.41708 0.65133 0.85709 0.21232 1.0529-0.0841 0.34335-0.0843h0.56462l0.82149 0.43872 0.41458 0.56416 0.74773 0.39523 0.93086 0.25335 0.30773-0.25335 0.10931-0.6923 0.10931-0.52323-0.07374-0.43612-0.30521-0.77668-0.25687-0.35428 0.18323-0.69229 0.56207-0.52049 0.45526-0.86115-0.2213-0.86393-0.56206-0.86121-1.1267-1.4254-0.969-0.65139-0.93084-0.56412-0.37895-1.4253 0.29247-0.69224 0.56462-0.86118 0.25687-0.52055-0.03806-0.86119-0.56206-0.35434-0.63837 0.0843-0.56462 0.3379-0.74773 0.86394-0.56462 0.21006-0.14496-1.1719-0.11189-1.3845-0.29502-0.7767-0.4171-0.7767-0.41711-0.94569-0.45271-0.60771-0.25687-1.0329 0.22129-0.25349 0.37895 0.16876 0.30773 0.16924 0.82148-0.0846 0.60022-0.33793h0.7096l-0.22129-0.90481-0.41711-0.65136 0.52646-0.82036 1.5692-0.82029 0.41711-0.60779-0.14756-0.90477-0.93084-0.56416-0.10934-0.94837 0.78588-0.25346 1.4217 0.16876 1.6048-0.86122 1.0911 0.34067 1.4573-0.90204 0.85964-0.0435 0.96645-0.60771 1.0911-1.2128 0.70959-1.0329 0.34333-0.16924 0.34333 0.60779 0.34335 0.69224 0.4171 0.73305 0.63583 0.56693 0.63838 0.60773 0.63837 0.60777 0.52646 0.43876h0.7096l0.78334 0.25348 0.93083 0.39513 0.56206 0.39519 1.0911 0.34066 1.0529 0.86118 0.82152 0.60777 0.70957 0.0846 0.60022-0.16878 0.3433-0.2971-0.03789-0.77945 0.03789-0.56413 0.10974-0.3407 0.22108-0.52323-0.34332-0.73315v-0.52324l0.07375-0.7358-0.14782-0.86118-0.14784-0.4388 0.30524-1.0302 0.49087-1.0302 0.29502-1.2591 0.14502-0.82027 0.25942-0.90481-0.74774-0.4797-0.63837-0.43601h-0.52644l-0.29503-0.0846-0.37895-0.0839-1.0173 0.0839h-0.78336l-0.78333 0.0846-0.52646-0.43611-0.67399-0.56683-0.60022-0.38161-0.78333-0.43874-0.3815-0.2121-0.52646-0.0406-0.34335 0.0843-0.78335 0.3543-0.45269-0.52599-0.22126-0.43611v-0.86115l0.52899-1.1147 0.63584-0.69228 0.78334-0.69222 0.41708-0.60768 0.52902-0.17175 0.52646 0.25614 0.52646-0.0842 0.78333-0.25626 0.45274-0.16921 0.45522-0.0842 0.81895-0.52325 0.34331-0.94573-0.21873-0.43879-0.52902-0.43877-0.4883-0.29701-0.25942-0.82034 0.30775-1.0329 0.60024-0.64857 0.14756-1.0738 0.29503-0.99198 0.30775-0.69228 0.70959-0.69222 0.03788-0.90481 0.41706-0.52328 0.14783-0.86118 0.03789-0.94567-0.34585-1.2155 0.03788-0.82028 0.52651-1.033 0.60019-0.73303 0.33067 0.25345-0.03789 1.1146 0.07375 0.94841 0.18317 0.60775 0.71214 0.56419 0.74769 0.73577 0.6384 0.69227 0.78333 0.25344 0.49083 0.43606 0.41713-0.21028 0.22111-0.69222 0.41711-0.5641 0.41716-0.16945 0.74768 0.35431 0.37898 0.43608 0.41707 0.25342 0.60025-0.21005 0.45526-0.12847 0.45268-0.25616 0.03789-0.90208 0.52646-0.56417 0.63582-0.0846 0.52649-0.3543 0.29497-0.69221-0.22123-0.60771-0.60022-1.1174-0.4909-0.68945-0.37888-0.94573-0.67402-0.98929-0.52652-0.98656-0.18291-1.3-0.10945-1.2154 0.0736-1.0302 0.07344-0.86121 0.30516-1.766-0.3433-0.60778-0.10945-1.5943-0.60025-0.39787-1.3124 0.25614-0.85709-0.0435-0.41713-0.64857-0.38146 0.21209-0.52643 0.12542-0.2569-0.16876 0.07374-0.73312 0.10945-0.56683 0.22114-0.35161 0.6384-0.52326 0.60024-0.56414 0.29245-0.8612v-0.60771l-0.52644-0.38154-0.18317-0.47972z" fill="#e2b586"/>
   <path id="Boudh" d="m68.172 136.8-2.3652 2.1176 3.1486 2.5427 0.38149 2.9379-4.7152 2.5427-3.1486-2.1204-3.5174 1.6816-3.932 1.6815-7.1188-1.6815-4.3134-2.1176-3.932 2.9379-3.553 3.8429-2.3652 2.5427 0.78333 4.2379-1.5692 4.6602-3.5174-1.3-3.9676-2.1176-2.3652 0.8203-5.463 2.2457-0.63837-0.86125-0.96646-0.73582-0.82149-0.77678-1.0911-0.56681-0.74773-0.6077-0.60022-0.35438-0.52646-0.94566-0.41711-0.16923-0.60022 0.0824-0.56208-0.16625-0.33063-0.52325 0.10935-0.77398 0.41711-1.1174 1.1267-1.8069 0.52646-0.52324 1.0173-0.16876 0.969-0.21233 1.2004-0.47966 0.78333-0.52325 1.1648-0.86393 1.0529-0.60775 1.1648-1.3845 0.49086-0.60772 0.56206-0.68952 0.4527-0.60773 0.63838-0.8612 0.37895-0.56687v-0.90479l-0.10934-1.2155-0.63584-0.6078-0.0356-0.34061 0.82149-1.2155 0.56206-1.3 0.56462-1.3845 1.0173-2.0767 0.34335-1.2564v-1.0301l0.18309-1.0738-0.10934-0.52329 0.78333-2.3301 0.52902-1.2155 0.4171-0.64862 1.2386-1.0738 0.96644-0.33797 1.0555-0.47961 0.89269-0.0435 1.1648-0.16876 1.2004-0.087 1.1648-0.0843 0.93084 0.0434 0.74518-0.21186 0.82148-0.35432 0.70957-0.52326 1.0173-0.52331 0.89524-0.52327 1.2742-0.3406 1.0885 0.169 1.2004-0.12514 0.67397 0.0843 1.2004 0.12818 0.82148 0.43876 0.63838 0.60775 0.89271 0.43879h0.74773l1.0173-0.35428 1.1267-0.25621 0.96646-0.25343 0.52646-0.25348 0.82148-0.25342 0.85709-0.25351 1.3479-1.0329 1.3479-0.86119 0.67398-0.60775 1.0173-0.6078 1.1267-0.60773 1.4573-0.94565 1.2004-0.47965 0.78333-0.47968 1.2005 0.4388 0.89525 0.0824 1.3479 0.60776 0.45525-1.9895 0.82148 2.8944 0.8571 0.65139 0.93084 0.16901 0.78588 0.12831 0.93085 0.52326 0.67653 0.56416 0.18322 0.43608 0.18323 0.25344 0.33062 0.69221 0.30522 0.82034 0.29247 1.0737-0.07127 0.98935-0.03803 1.0737-0.03571 0.77672 0.52646 0.86119 1.0529 1.3409 0.8927 0.90484 0.89526 0.16876 1.9838 0.52325 0.85961 0.12818 0.93082 0.12499 0.5646 0.0407 0.70962 0.12818 0.85963 0.0843 0.82148 0.43873 1.4217 1.0302 0.89273 0.98927 0.5646 0.16899 0.78332 0.29703 1.1267 0.16876 0.89271 0.4388 0.74777 0.52324 0.74765 0.5233 0.6359 0.86119 0.6384 0.77673 0.8927 1.2128 0.82148 1.1173 0.70956 0.60783 0.96901 0.52047 1.0173 0.60776 1.3123 0.69222 0.56213 0.2562 1.0173 0.0842 1.3861 0.2121 1.3454 0.12832 1.2385 0.12846 0.93087 0.12834 1.0555 0.0843 1.0529 0.16878 1.1623 0.25618 0.70955 0.60775 0.29504 0.43877 0.2569 0.73584-0.18314 0.2534 0.18314-0.2534 0.48827-0.12818-0.48827 0.12818-0.18314 0.2534 0.10975 0.69224-0.38155 0.77406-0.56455 0.47962-0.48836 0.56413-0.41711 1.4254-0.41707 0.34069-0.63835 0.52326-0.70963-0.12848h-0.60024l-0.70956 0.12848-0.78333 0.43601-0.45268 0.4824-0.29501 0.94571-0.0379 0.69223-0.78335 0.48239-0.25687 0.25344-0.295 0.64865-0.3078 0.73309 0.03803 0.77946-0.52656 0.43874-0.03527 0.98658 0.41715 0.64859-0.2569 0.69227-0.56464 1.0302-0.63584 0.43877-1.0555 0.29705-1.0529-0.0843-1.0911-0.29714h-0.67398l-0.60019-0.16921-0.56209 0.0846-0.89524 0.56418-1.0173 0.29703-0.78584-0.12528-0.78593-0.0432-0.63581 0.73587-0.60021 0.48234-0.67401-0.43877-0.82148 0.12542-0.37899 0.39522-0.52645 0.25343-0.41707 0.12817-0.37895 0.4797-2.8052-6.5708-1.5692-4.663-2.3627-3.7991-1.5692-2.1176-1.2005-4.6194-0.78586-2.5862-2.7696-1.6379z" fill="#e9aaf9"/>
  </g>
  <path id="Mahanadi" d="m31.609 55.061-0.287 1.435-0.1435 1.435-0.4305 1.722-0.86099 2.296-1.2915 1.722-0.71749 1.0045-0.86099 3.444-0.574 1.722-2.009 2.296-0.86099 1.435-0.4305 1.8655 0.574 2.1525v1.8655l0.1435 1.2915-0.1435 1.2915-0.7175 1.2915 0.86099 0.57399 0.4305 2.1525-0.1435 1.2915 0.574 0.574 1.5785 0.57399h2.009l1.148 1.435 1.435 1.435 2.009 0.861 1.435 0.57399h4.305l1.722 0.14349 2.4395 2.1525 2.1525-1.0045 3.157-0.574 1.435-1.2915 2.296-1.0045 2.7265-1.722 0.574-0.86099 1.0045 0.14349 2.87-1.0045 3.8745 1.2915 2.87 1.5785 1.5785 0.86099 3.0135 2.583 0.4305 1.0045 0.1435 1.148 0.4305 1.722-0.4305 1.2915 0.574 1.0045 1.722 0.86099 1.2915 0.57399 1.722 0.4305 0.574 0.28699 1.2915 0.14351h0.574l1.435-0.28699h1.722l0.4305 0.86098 0.7175 1.0045 0.574 0.86099 0.861 0.861 1.5785 0.86099 1.148 0.574 1.5785 0.287 2.009 1.435 1.722 1.5785 0.7175 1.0045 1.0045 1.722 1.5785 0.71749 1.0045 0.43049 1.148 0.287 0.86099 0.287h1.0045c1.0045 0 1.722 0.4305 1.722 0.4305l2.009-0.287s0-0.57399 1.5785 0c1.5785 0.57401 2.7265 1.148 2.7265 1.148l0.861 0.57399 0.86099 0.71751 1.435 1.148 0.28701 0.7175 1.2915 1.435 1.148 1.435 1.148 1.2915 2.4395 1.2915 1.0045 0.71749 1.5785 0.1435h1.148l1.722-0.1435 1.148 0.7175 1.722 1.148 1.0045 0.57401 1.2915 1.0045 3.157 2.1525 3.444 1.5785 1.2915 0.71751h1.5785l0.861 0.287 1.0045 0.57399 0.7175 0.861 0.71749 0.574h0.86099l1.5785 0.1435 1.148 0.1435 1.5785 0.14349h0.86099l1.435 1.0045 1.435-0.43049 1.2915 1.148 1.148 0.861h1.0045l0.57399-0.71749 1.2915-0.14351 1.435-0.14348 1.2915 0.28699 2.1525-0.7175 0.7175 0.57399 1.2915-1.0045h1.148l1.0045 0.43049 0.86099-1.148h1.2915l1.2915 0.86099h1.0045l3.444-1.8655h1.2915l1.8655-0.7175 1.148-0.4305 1.148-0.14349 1.5785-0.287 1.5785-0.43049 0.86099-0.14351 0.86099-1.0045 0.71751-1.2915 0.71749-1.0045h1.2915l1.2915-0.1435-0.287 0.1435 1.148 1.148 1.5785 0.28701h1.2915l1.0045-0.43049h1.2915l0.7175-0.287 0.574-1.435 1.2915-0.14349 0.86099-1.0045v-1.5785l1.2915-0.86099 1.0045-0.1435h1.722l2.583-0.1435h2.009l1.2915 0.43049 2.4395 0.57401 1.2915 0.71749 2.583 0.71749 2.1525 1.5785 2.87 1.0045 1.5785 0.1435 1.435 0.14351 1.2915-0.28701v1.5785l-1.0045 0.4305-2.7265 0.7175-1.8655-0.861-1.722-0.4305-1.0045-0.57399-0.57401-0.28699-1.0045-0.43051-1.148-0.71749-0.86099-0.4305-1.2915-0.57399-0.861-0.861-1.435-0.4305-1.722-0.43049-2.009-0.287h-1.435l-1.5785 0.287-1.148 0.43049-0.43051 0.287-0.43049 1.435-0.7175-0.14349-0.71749 0.28699-0.14349 0.4305-0.1435 0.57399-1.2915 1.148-0.4305 1.435-1.8655 0.43052-1.5785-0.43052-0.287-0.43048-1.0045 0.43048-1.2915-0.57398-1.2915-0.574-1.722-0.28699h-0.57399l-0.43049 1.2915-0.43051 1.2915-2.7265 1.435-2.4395 0.86099-1.8655 1.0045-3.157 1.5785-1.435 0.574-0.71749-0.287h-2.009l-1.435 0.71749-3.3005 0.14351h-3.444l-0.86099 0.86098-1.8655 0.28701-1.2915 0.1435h-1.148l-1.2915-0.1435-0.861-0.57399-2.296-0.287-1.5785-0.43051h-1.148l-2.009-0.43049h-3.444l-1.5785-0.7175-1.0045-0.57399-1.148-1.0045-1.722-1.148-0.86099-0.574-1.8655-0.28699-2.1525-0.57401-1.5785-0.86099-1.148-1.2915-2.296-1.435-1.0045-0.71749-2.7265-1.148-0.7175-0.574-1.148-0.287-0.86098-0.43049-0.861-0.287h-0.57399l-1.2915 0.1435-0.861-0.1435-0.71749-1.148-0.57399-0.574-0.71751-0.57399-2.1525-2.1525-1.5785-2.009-1.0045-1.148-1.0045-0.574-0.4305-0.7175-1.2915-1.0045-0.71749-0.287-0.57401-0.574-0.4305-0.28699-1.2915-0.57401-0.43049-0.14348-1.2915 0.14348-1.435 0.1435h-0.43049l-1.2915-0.57399h-1.148l-1.435-0.1435-0.861-0.1435-0.71749-0.28699-1.148-0.43051-1.148-0.71749-0.574-1.148-0.7175-1.0045-0.7175-0.43048-0.4305-0.14351-0.4305-0.861-0.4305-0.287-1.0045-0.71749-1.148-0.43048-1.5785-0.28701-1.0045-0.287-1.5785-0.4305-0.71749-1.148-0.574-0.7175-1.0045-0.4305-1.2915-0.4305-1.435-0.4305h-3.0135l-1.722-1.148-1.5785-0.287-0.7175-1.0045-0.7175-0.14349-1.0045-1.0045-1.0045-1.148-0.4305-0.71749-1.0045-3.0135-1.0045-1.0045-1.722-1.148 0.86099-0.1435 0.4305-0.861-0.861-0.57398-1.435-0.4305-1.8655-1.2915-2.1525-1.2915-2.296 0.287-1.148 0.287-1.722 0.7175-1.435 0.7175-1.435 0.861-1.435 1.8655-2.1525 0.57399-2.1525 0.4305-2.583 0.861-1.722 1.148-1.435-2.4395-0.7175-0.57399-0.861 0.7175h-1.8655l-2.4395-0.287-1.435-0.287-1.435-0.57401-1.435-0.7175-0.4305-0.86098-1.148-1.435-2.009-0.57399-1.148-0.4305-0.861-0.574-0.7175-0.43049-0.574-1.0045-0.1435-1.8655-0.7175-1.2915-0.287-0.7175 0.1435-2.009 0.287-1.435v-1.5785l0.287-1.2915-0.1435-1.722-0.574-1.2915 0.4305-0.861v-1.2915l0.4305-0.287 1.2915-1.435 1.148-1.435 0.4305-1.148 0.574-1.435 0.287-1.435 0.287-1.435 1.435-0.57399 0.4305-1.5785 0.574-1.5785 0.287-1.435 0.57399-1.148v-1.0045l-0.1435-1.148z" fill="#85c5e3" stroke="none" stroke-width=".2052px"/>
  <g stroke="#000" stroke-width=".5px">
   <path d="m122.94 86.719h-4.9486l-0.53021 3.358 1.7674 1.0604 3.1813 5.6556 1.0604 0.70695 2.6511 6.3625 4.5952 0.35348 4.4184 0.88368 2.651 3.0045h1.2372l1.2372 2.8278 1.9441 0.70695 1.4139 1.9441 0.88368 1.2372 0.88369 0.8837h1.2372l0.35348-0.17674 0.70695-0.35347 2.1208 0.53021 2.2976 1.0604h2.2976l2.4743 0.70696 1.9441 1.0604 1.0604 0.88367 1.2372 1.5906 1.7674 1.2372 1.9441 1.0604 2.4743 0.35348 3.7115 0.35347 3.358-0.35347v1.7674l1.0604 0.8837 1.5906 0.17674 1.0604-0.70695 1.0604 2.1208 0.70696 1.4139 1.0604 0.53021 0.70696 0.53022 0.88368 0.17674h1.0604l0.53022-0.88369 1.5906 2.2976 0.17674 0.70695 1.7674-0.88369 0.53021 1.2372 2.2976-1.9441 3.0045 0.70695 0.8837 1.7674 0.70695 1.7674v1.7674l-1.2372 1.7674 1.2372 1.7674-1.2372 2.2976 0.35347 5.6556h3.1813l2.2976-1.5906 1.2372-2.4743-0.35348-1.2372 0.70695-1.4139-0.17674-2.4743-1.2372-3.0045v-3.0045l3.0045-3.1813 1.2372-3.7115 1.7674-1.0604v-1.5906l0.53021-1.4139-3.1813 0.35346-8.1299 0.53022-1.7674-0.88368-1.9441-1.7674-1.2372-0.53022-6.8928-1.7674-3.8882-1.0604-1.9441-1.4139-2.1208-1.4139-1.4139-1.5906-1.2372-3.5347-1.5906 0.70695-1.4139 0.35347-1.4139-1.2372-0.5302-1.2372v-3.5347l-2.4743-0.35348-1.9441-0.53021-1.5906-0.53021-0.53022-0.70696-0.17674-1.5906-1.0604-0.88368-1.7674-1.4139-2.6511-1.0604-2.4743-1.5906-2.1208-0.88369-2.6511-0.17674-2.4743-0.17674-3.5348-1.2372h-1.7674l-1.4139-1.7674-0.88369-1.0604-3.5347-1.5906-2.6511-0.70695-2.2976-0.70695-2.4743-0.35348-1.7674-0.35347z"/>
   <path d="m169.6 110.4 0.33545 1.9693 0.16774 1.4322v1.7903l-0.33547 1.6112-0.50319 1.7903-0.33545 0.89512-0.33546 1.0742v2.8644"/>
   <path d="m194.17 148.58-2.6695 2.3136-1.2458 3.0255h-2.3136l-3.5594 2.6695-3.2034 0.88986-1.6017 0.88985-2.4916 1.0678h-2.4916l-3.3814-1.0678-3.7374-1.6017-3.2034-0.53391-3.2034 1.4238-12.28 3.2034h-4.9831l-5.695 1.9577-2.4916-0.35594-1.0678 0.35594-2.8475 1.2458-4.4492 1.6017-3.9153-3.5594-4.6272-0.17797-3.7374-5.1611-0.17798-4.0933-2.8475-4.4492-0.17797-1.4238-5.517 0.35594-1.4238-0.71188-6.051-4.4492-3.3814-2.1356-2.4916-1.7797-2.4916-0.17797-2.4916-0.35594-3.3814 0.53391-1.6017 0.71187h-1.4238l-1.7797 0.53391v-1.9577l-2.1356-0.88985h-1.6017l-1.2458-0.71187-1.6017-1.6017-1.2458-0.71188-0.71188-0.88984-0.35594-2.1356-0.17797-0.5339-3.3814-3.0255-3.2034-3.0255 0.35594-2.6695-1.2458-2.8475 1.2458-1.9577v-0.71187l-1.2458-3.0255-1.4238-0.71188-2.8475-3.7374 0.17797-0.71188-1.9577-1.9577-2.1356-2.1356-0.71188-1.9577-0.53391-0.71188v-3.7374l1.6017-1.0678"/>
   <path d="m73.15 134.16-2.1046 2.5556-2.4053-0.60131-1.6536 1.2026-0.75164-0.90197-2.2549-1.5033-1.353 0.90197-1.5033 0.15033-1.353-0.60131-0.75164-1.0523-0.45099-0.90197-1.353-0.60131-0.75164 0.15032-1.353-0.45098-0.45099-0.75165-1.5033-0.15033-1.0523 1.2026-1.5033 0.15032-1.6536-0.30066-2.1046-1.9543"/>
  </g>
 </g>
 <g fill-rule="evenodd">
  <g stroke-width=".26458">
   <ellipse cx="123.01" cy="86.381" rx="1.6003" ry="1.707"/>
   <ellipse cx="55.262" cy="95.982" rx="1.6003" ry="1.707"/>
   <ellipse cx="47.154" cy="131.4" rx="1.6003" ry="1.707"/>
   <ellipse cx="118.21" cy="161.27" rx="1.6003" ry="1.707"/>
   <ellipse cx="194.38" cy="149.11" rx="1.6003" ry="1.707"/>
   <ellipse cx="169.63" cy="110.7" rx="1.6003" ry="1.707"/>
  </g>
  <ellipse cx="103.82" cy="146.02" rx="1.3002" ry="1.3869" stroke-width=".21497"/>
 </g>
 <path d="m100.92 0.37019 0.39326 1.442v0.78652l-0.4654 0.11513h-0.79345l-0.4959-0.09918-0.69427-0.09918-0.49591 1.4877-0.29754 1.3885-0.19837 0.69427 0.0992 0.59509 1.091 3.1738 1.5869 1.3885 2.0828 1.3885 1.8845 0.79346 1.1902 0.49591 0.89263-0.09918 0.79345-0.79345 0.5951-0.79346 0.69427-0.09918h0.49591l0.4959 0.29754v2.3804l0.49591 2.2812 0.39673 1.5869 1.3885 2.0828 0.19836 1.4877-0.4959 0.79346-0.49591 0.59509-1.1902 0.19836-0.79345-0.29754-0.59509-0.29755-1.091-0.39673-1.6861 0.39673-1.2894 1.091-0.79344 1.2894-0.49593 0.79346 0.79347 1.1902h1.7853l1.091 0.49591 0.99181 0.49591 0.39673 0.79345 1.091 0.09918 1.091 0.79346 0.39674 1.4877v1.1902l-7e-3 0.82758 0.94585 1.2038 0.34395 1.9777 1.1179 2.6656 0.60191 1.9777-0.17198 1.8917-0.68791 2.1497-0.60192 1.7198-0.17197-0.94587-0.42994-0.51593-0.94585 0.17197 0.51593 0.6879-0.34396 1.4618-1.0319-0.51593 0.34396 0.68791-1.2038 0.51592 1.3758 0.68791-0.68789 0.25796h-0.34396l0.51593 0.68791-0.51593 0.25796-0.25795 0.17198h-0.68792l-0.51594-0.85988-0.25794-0.17197-0.51593 0.25796 0.42994 0.51593 0.17197 0.25796-0.51593 0.08598-0.34393 1.2898-1.1178-0.60191 0.42993 0.6879-0.77389 0.08598h-0.34395l0.51592 0.77389-0.086 1.1178-0.25796-0.6879-0.17198-0.51593-0.34394 0.60192-0.25798-0.08599-0.086-1.2038-0.34396-0.77389-0.25795-0.51593-0.42995-0.34396 0.17197 0.60192-0.25795 0.85988-0.086 0.34395-0.34396-0.51593-0.42995-0.08599-0.77388 0.51593 0.6879 0.34395h0.25797l-0.34395 0.51593 0.42994 0.42994-1.2898 0.08598 0.6879 0.42994h0.94587l-0.34396 0.25796-0.77388 0.34396 1.2038 1.0319 0.94586-0.34396v0.60191l0.68792 0.94587-0.60192 0.08599 0.25796 0.77389h-0.42995l0.6879 0.85988-1.1178 0.08599-0.25797-0.85988 0.25797-0.34395-0.81807-0.49914-0.59747 1.419-0.4481-0.37341v-0.52278l0.22405-0.97087-0.82152 0.59746-0.82151-0.29872 0.14938 0.59746-1.3443-0.67214 0.74684-0.82151v-1.1202l-0.59746-0.07468-0.29874-0.59746-0.14936-0.22405-0.29873 0.22405-0.0746-0.4481-0.14937-0.4481-0.74683 0.52278-0.14936 0.59746 0.52276 0.52278 0.29875 0.14936-0.29875 1.419-0.22403-0.22404v-0.74683l-0.52278-0.29873-0.89619 0.52278 0.97088 1.2696 0.89619 0.22405 0.59746 0.89619-0.59746 0.22405h-0.82151l-0.37341 0.22405 0.8215 0.14937 0.59746 0.59746 0.59746 0.22405 0.29874-0.59746 0.7468 0.59746-0.52276 0.67215h1.3443l-0.14936 1.4937 1.1949-0.52278h0.29873l-0.14937 0.74683v0.22405l2.4645-0.4481-0.37342 0.52278 0.89618 0.29872 0.37343 0.82151v0.67214l-0.44811 0.74683-0.52277-0.07468-0.8962 0.82151 0.97089 0.07468 0.3734 1.1202 0.22405 0.59746 0.74683 0.29872v1.419l0.8962-0.52278 1.7177 0.4481 1.1949 0.4481 1.3443 1.1202 0.59746 0.37341v1.3443h1.1203l1.1202 0.22405 0.89619 0.07468 0.44809 0.4481 0.59747 0.07468 0.44809 0.59746h0.8962l0.67214 0.07468h0.59746l0.67214 0.37341 0.67216-0.37341 0.8215 0.22405 0.74683 0.22405 0.22406-0.07468 0.37341-0.22405 0.67212-0.07469 0.59748-0.07467 0.14936 0.29872 0.82152-0.07467 0.3734-0.22405 0.52279-0.07468 0.14937-0.07469-1.1949-0.52277-1.2696-0.59746-3.062-1.1949 2.2405-0.29873 0.8215-0.29873 1.0456-0.07468 0.0746 0.82151 1.5684-0.07468-0.74683-0.59746h1.1949l0.59747 0.59746 0.14937-0.74683 1.1202 0.22405-1.2696-0.89619 0.8215-0.89619-2.7632 0.22405 0.44809-0.4481 0.59747-0.59746v-0.74683l0.97088-0.59746h-0.97088l-0.59747-0.82151-0.29873 0.82151-0.14936 0.82151-1.0456-0.74683-0.29873 0.07468 0.3734 0.74683h-0.7468l-0.8962-0.74683-0.74684 0.22405 0.59747 0.67215-0.59747 0.22405 1.1202 0.74682-1.3443 0.07468-0.97089-0.4481 0.8962-0.29872v-0.82151l-1.5683 0.22404-0.89621-0.97087-0.22404 0.82151h-0.52278l-0.8962 0.29873 0.44811-0.67215 0.0746-0.82151h0.8962l-0.97088-1.1202 1.2696 0.07468 0.82151 0.74683-0.14938-0.89619 1.3443 0.89619-0.74684-1.2696 0.82151-0.82151-1.5683-0.29873 1.4937-0.52277 0.14936 0.37341 0.7468-0.22405 1.1949 0.29873-0.74681-0.97088 0.52277-0.67214-1.7924 0.07468 0.74682-0.67215-0.0746-0.22405h0.97087l-1.0456-0.74683 0.14937-0.29873 0.59747-0.14936 0.82151 0.14936 0.44809 0.82151-0.0746 1.0456h0.52278v-0.29873l0.44811 0.59746 0.3734 0.59746 0.14936-0.74682 1.1202 0.82151-0.67213-1.2696-0.52279-0.07468-0.67215-0.59746 0.59747-0.07468-0.97087-1.3443-0.59746 0.07468-0.52279-0.59746 0.74683-0.59746 0.59746 0.74683 0.22406-0.67214 0.59745 0.4481 0.14936-0.82151-0.14936-0.29873 0.29873-0.52278 0.82152-0.37341 0.3734-0.22405 0.67215 0.22405 0.59746 0.22405-0.52278-0.82151-0.37341-0.37341-0.74682-0.22405h-0.22405l-0.29873 0.4481-0.29874 0.29873h-0.52277l-1.1202-0.52278 0.74683 1.4936-1.2696-0.14937-0.89617 0.82151 0.37341-1.2696-1.1949 0.14936-0.67215-2.0911h-0.8215l0.59745 1.3443-0.8215-0.07468 0.74682 1.0456-0.4481 0.4481 0.82152 0.14937v0.37341l-0.14938 0.07468v0.59746l-1.643 0.22405v1.1949l-0.97088-1.643v1.419l-1.7924-0.4481 1.0456 1.643-2.1658-0.59746 0.67213-1.3443-1.5683 0.89619-0.82151-0.4481-0.0746-1.419-0.44809-0.07468-0.29875 0.37341 0.22407 0.89619-0.74684-0.29873 0.97088 1.1202-0.29873 0.59746h0.67214v0.4481h-0.8962v0.52278l-1.4936 0.07468 1.419 0.4481 0.97088 0.67214-1.1949-0.14937-0.44809 1.0456-0.29873 1.1202-0.74683-0.82151-0.67215 0.74683-1.1202-1.419 1.1949 0.59746 0.29874-1.2696-1.1202-0.07467 0.29872-0.4481 0.37342-0.67214-0.14937-0.4481 0.29873-0.37341 0.89619-0.29873-0.89619-0.22405h-0.59746l0.8962-0.59746 0.82149-0.4481-0.97085-0.07468-0.82152 0.22405 0.52278-0.89619v-0.07468l-0.97088-0.59746-0.44809 0.52278-0.0747 0.67214v0.4481l-0.59747 0.74683-0.0746-1.1949-0.29873-1.0456 0.52279 0.07468 0.59745-0.4481-0.74683-0.4481 0.82151-0.59746 0.22404-0.67215 0.74685 0.74682 1.1202-0.14936-1.0456-0.89619h1.1202l-0.37341-0.97088h0.74682v0.37341h1.2696l-0.97085-0.97088-0.5228-0.37341-0.29872-0.82151 1.1202 0.14936-0.3734 0.29873 0.44808 0.14936 0.44809 0.07468 0.0747 0.37341h-0.37342l0.52278 0.37341 0.89619 0.29873-0.52276-1.0456 0.59744-0.4481-0.97087-0.07468-0.14936-1.1949 0.37343-0.14936 0.44808 0.14936 0.52279-0.07468 0.52278-0.52277-0.29874-0.29874h-1.0456l-0.14936-0.14936 0.0746-0.52278-0.82152-0.07468 0.29873-0.4481 0.44811-0.14937 0.8215 0.14937-0.22405-0.89619h0.52279l0.44809 0.14937 0.29872 0.37341 0.22404 0.22405 0.37343-0.22405 0.52278-0.22405v-0.82151l0.82151-0.74683h-1.9418l-0.29872 0.14937 0.29872-0.4481 0.8962-0.97088-1.419 0.74683-1.0456 0.59746 0.82152-2.2405 0.89617-3.3607v-2.1658l-0.22404-0.07469-0.67213-1.5683-0.22406-0.74683-0.53543-1.6555-0.0697-1.1846-0.3484-0.34841-0.55745-0.55745-0.13937-0.48777-0.27873-0.06968v-3.066l-1.3936-1.1846-1.4633-0.69681-0.27872-0.41809-1.9511-1.1149h-1.1149l-0.7665 0.20904-0.27872-0.62713-0.27872-0.55745 0.34839-0.62713 0.90587-0.62713 0.48778-0.62713 0.55745-0.62713 0.69681 0.27873 1.1149 0.27872 1.1149 0.48777 1.1846-0.13936 1.1846-0.34841 0.62713-0.62713 0.62712-0.69682v-2.6479l-0.48775-0.83618-1.4633-1.9511-0.13936-1.0452-0.0697-1.1149-0.0697-1.1846-0.0697-1.2543v-0.48777l-0.4181-0.27872-0.48777-0.27873-0.83618-0.48777-0.62711 0.20904-0.55746 0.20904-0.27872 0.62713-0.55745 0.83618-0.4181 0.41809-0.4181-0.06968-0.69681-0.41809-0.83616-0.48777-1.0452-0.7665-0.90587-0.41809-0.48777-0.48777-0.6968-0.41809-0.90587-0.69681-0.6968-0.41809-0.13937-0.27873-0.48777-1.1149-0.41808-1.1846-0.13937-1.2543 0.83617-2.0208 0.34842-0.55745 1.3936 0.27873 0.48777-0.34841 0.3484-0.7665v-0.83618l-0.13935-0.62713-0.34842-0.55745z" fill="#85c5e3" stroke="#fff" stroke-width=".18745px"/>
 <g font-family="sans-serif" font-size="3.5277px" letter-spacing="0px" stroke-width=".26458" word-spacing="0px">
  <text x="117.99326" y="82.966782" style="line-height:1.25" xml:space="preserve"><tspan x="117.99326" y="82.966782" stroke-width=".26458">Angul</tspan></text>
  <text x="148.2381" y="111.95973" style="line-height:1.25" xml:space="preserve"><tspan x="148.2381" y="111.95973" stroke-width=".26458">Dhenkanal</tspan></text>
  <text x="166.21487" y="149.11147" style="line-height:1.25" xml:space="preserve"><tspan x="166.21487" y="149.11147" stroke-width=".26458">Bhubaneswar</tspan></text>
  <text x="117.83661" y="157.66864" style="line-height:1.25" xml:space="preserve"><tspan x="117.83661" y="157.66864" stroke-width=".26458">Nayagarh</tspan></text>
  <text x="102.2039" y="143.13712" style="line-height:1.25" xml:space="preserve"><tspan x="102.2039" y="143.13712" stroke-width=".26458">Daspallah</tspan></text>
  <text x="39.25975" y="127.5611" style="line-height:1.25" xml:space="preserve"><tspan x="39.25975" y="127.5611" stroke-width=".26458">Phulbani</tspan></text>
  <text x="40.753345" y="98.756157" style="line-height:1.25" xml:space="preserve"><tspan x="40.753345" y="98.756157" stroke-width=".26458">Boudh</tspan></text>
 </g>
 <text transform="rotate(25.161)" x="124.23596" y="14.72501" fill="#000000" font-family="sans-serif" font-size="3.5277px" letter-spacing="0px" stroke-width=".26458" word-spacing="0px" style="line-height:1.25" xml:space="preserve"><tspan x="124.23596" y="14.72501" fill="#ffffff" font-size="2.1166px" stroke-width=".26458">Rengali Dam</tspan></text>
 <circle cx="76.319" cy="98.512" r="1.3877" fill="#0cf" fill-rule="evenodd" stroke-width=".26458"/>
 <g fill="#f60" fill-rule="evenodd" stroke-width=".26458">
  <circle cx="186.87" cy="102.86" r="1.3877"/>
  <circle cx="177.8" cy="87.873" r="1.3877"/>
  <circle cx="57.724" cy="93.609" r="1.3877"/>
 </g>
 <circle cx="54.209" cy="92.684" r="1.3877" fill="#a05a2c" fill-rule="evenodd" stroke-width=".26458"/>
 <circle cx="36.817" cy="180.57" r="1.3877" fill="#008000" fill-rule="evenodd" stroke-width=".26458"/>
 <g fill="#f60" fill-rule="evenodd" stroke-width=".26458">
  <circle cx="126.37" cy="89.723" r="1.3877"/>
  <circle cx="123.04" cy="132.28" r="1.3877"/>
  <circle cx="120.63" cy="172.24" r="1.3877"/>
  <circle cx="111.38" cy="169.84" r="1.3877"/>
 </g>
 <g fill-rule="evenodd" stroke-width=".26458">
  <circle cx="106.75" cy="144.86" r="1.3877" fill="#008000"/>
  <circle cx="97.504" cy="143.19" r="1.3877" fill="#0cf"/>
  <circle cx="97.689" cy="111.37" r="1.3877" fill="#0cf"/>
 </g>
 <g fill="#000000" font-family="sans-serif" font-size="3.5277px" letter-spacing="0px" stroke-width=".26458" word-spacing="0px">
  <text x="79.001495" y="98.974274" style="line-height:1.25" xml:space="preserve"><tspan x="79.001495" y="98.974274" font-size="2.1166px" stroke-width=".26458">Deulajhari hotsprings</tspan></text>
  <text x="96.023346" y="108.22528" style="line-height:1.25" xml:space="preserve"><tspan x="96.023346" y="108.22528" font-size="2.1166px" stroke-width=".26458">Satkosia Gorge Sanctuary</tspan></text>
  <text x="110.26989" y="145.04428" style="line-height:1.25" xml:space="preserve"><tspan x="110.26989" y="145.04428" font-size="2.1166px" stroke-width=".26458">Baisipalli Sanctuary</tspan></text>
  <text x="109.15976" y="136.34833" style="line-height:1.25" xml:space="preserve"><tspan x="109.15976" y="136.34833" font-size="2.1166px" stroke-width=".26458">Kantilo Nilamadhaba</tspan></text>
  <text x="171.88156" y="84.91275" style="line-height:1.25" xml:space="preserve"><tspan x="171.88156" y="84.91275" font-size="2.1166px" stroke-width=".26458">Joranda Matha</tspan></text>
  <text x="183.90787" y="99.529343" style="line-height:1.25" xml:space="preserve"><tspan x="183.90787" y="99.529343" font-size="2.1166px" stroke-width=".26458">Kapilash temple</tspan></text>
  <text x="59.944431" y="93.053627" style="line-height:1.25" xml:space="preserve"><tspan x="59.944431" y="93.053627" font-size="2.1166px" stroke-width=".26458">Ramnath Temple</tspan></text>
  <text x="54.393833" y="90.648376" style="line-height:1.25" xml:space="preserve"><tspan x="54.393833" y="90.648376" font-size="2.1166px" stroke-width=".26458">Rajbati</tspan></text>
  <text x="122.11117" y="93.423676" style="line-height:1.25" xml:space="preserve"><tspan x="122.11117" y="93.423676" font-size="2.1166px" stroke-width=".26458">Hingola Temple</tspan></text>
  <text x="123.59133" y="173.35234" style="line-height:1.25" xml:space="preserve"><tspan x="123.59133" y="173.35234" font-size="2.1166px" stroke-width=".26458">Sarankul Ladubaba</tspan></text>
  <text x="113.79723" y="169.64537" style="line-height:1.25" xml:space="preserve"><tspan x="113.79723" y="169.64537" font-size="2.1166px" stroke-width=".26458">Odagaon Raghunathjiu</tspan></text>
  <text x="34.411667" y="176.86772" style="line-height:1.25" xml:space="preserve"><tspan x="34.411667" y="176.86772" font-size="2.8222px" stroke-width=".26458">Daringibadi</tspan></text>
  <text x="87.882462" y="146.70946" style="line-height:1.25" xml:space="preserve"><tspan x="87.882462" y="146.70946" font-size="2.1166px" stroke-width=".26458">Kuanria Dam</tspan></text>
 </g>
 
 <text transform="rotate(-9.3056)" x="131.30762" y="163.99086" fill="#000000" font-family="sans-serif" font-size="3.5277px" letter-spacing="0px" stroke-width=".26458" word-spacing="0px" style="line-height:1.25" xml:space="preserve"><tspan x="131.30762" y="163.99086" font-size="2.1166px" stroke-width=".26458">Mahanadi River</tspan></text>
</svg>
