<svg width="147.01mm" height="94.668mm" version="1.1" viewBox="0 0 147.01126 94.668905" xmlns="http://www.w3.org/2000/svg">
 <g transform="translate(-48.123 -95.831)">
  <g fill="#e7de69" stroke="#fff" stroke-width=".2526">
   <path id="jagatsinghpur" fill="#95c279" d="m157.6 135.55-0.15693-0.0852-0.11906-0.16768 0.0392-0.1474 0.63857-0.0216 0.22188 0.0839-0.37746 0.30156zm1.771-1.1359-0.71704 0.5328-0.20293 0.0419-0.26111-0.21636-0.25976 0.0838h-0.26111l-0.1177-0.0838-0.0987-0.12712 0.0392-0.30157-0.16234-0.25828h-0.0785l-0.28005 0.40704 0.11635 0.34349v0.49088l0.0988 0.16903 0.13664 0.16769 0.26111 0.0838 0.26111-0.0419 0.6778-0.44761 0.5141-0.10548 0.63857-0.51252 0.41805-0.14605 0.33822-0.30156 0.16234 0.0622-0.0785 0.17579-1.1932 0.83436-0.0961 0.0622-2.0348 1.0724-0.58039 0.51252-0.35717 0.0838-0.97814 0.51117-0.18264 0.16904-1.3542 0.66532-1.0959 0.68697-0.63721 0.51252-0.0974 0.0635-0.0582-0.0433-0.33957 0.23936 0.0392 0.10413-0.49516 0.30156-0.45593 0.51117-0.54115 0.93849-0.51546 1.1995-1.0553 1.5416-0.0974 0.10547-1.4733 1.5213-0.54116 1.0507-0.30034 0.44897-0.0974-0.16904-0.0203-0.25964 0.31928-0.72754-0.1177-0.0433-0.35852 0.62476-0.35716 1.0927-0.39911 0.42732 0.30035 0.0838 0.138 0.12576 0.0379 0.0838 0.24217-0.0203 0.0974 0.40704 0.18265-0.19608 0.20157-0.0203-0.0203 0.19608-0.20293 0.14741-0.0771 0.17579-1.1933-0.30156-1.0945 0.34348-1.0945-0.68696-1.5775-0.51252h-0.77657l-1.1134 0.17579-0.77521-0.34347-0.47622-0.66534-1.0945-0.83571-0.77656-0.16769 0.99843-3.3861-0.63992-1.6674-2.0726-2.7208-1.89-2.2921-1.0363-1.4781-1.4544-2.2922-1.2582-1.8851-0.20158-1.8851v-2.2921l1.6559 0.83436 1.89 1.2401h2.488l2.511 0.856 1.6546-0.42732 2.2945 0.64503 1.871 0.19609 2.7112 0.21773 1.6749 1.6674 1.0363 0.40568 1.6749 0.21772 2.0726-1.24 2.5096-0.21772 0.61827 1.8851 1.472 0.40703 1.871 0.40705z"/>
   <path id="cuttack" fill="#e2b584" d="m124.36 115.66 4.8799 0.62476v2.1028l1.0363 0.40704 0.4167-0.21772 1.6559-1.6674 1.8886-1.0304 1.656 0.19608 1.0553 1.4794v1.8851l0.39909 1.8851 0.63723 1.8864-0.83475 1.4578 0.20294 1.4997v0.60313l0.22188 0.64504 1.0363 1.6674-1.6559 0.42869-2.5083-0.85465h-2.4893l-1.8886-1.2414-1.6559-0.83436v2.2921l0.20293 1.8864 1.2568 1.8851 1.453 2.2921 1.0363 1.4794 1.89 2.2921 2.0726 2.7195 0.63857 1.6687-0.99844 3.3848-1.1716 0.0203-0.3991 0.0216-0.20158-0.0216-0.59934 0.0636-0.18264-0.30156 0.0785-0.40704-0.0203-0.27994-0.39775-0.0216-0.5804-0.0635-0.41668 0.0635-0.24217-0.0419-0.63856 0.0636-0.24083-0.30156 0.019-0.38405 0.15693-0.16903 0.24216-0.1758 0.31929-0.21772 0.0974-0.44896-0.20159-0.40704-0.20293-0.32185-0.31928-0.46925-0.28005-0.0216-0.20294 0.21637-0.11635 0.12712-0.22187 0.0419-0.22188-0.0838-0.22187-0.3854-0.37746-0.40704-0.0974-0.34349 0.33822-0.27992 0.24218-0.3854 0.22187-0.25965-0.184-0.34348-0.33822-0.0419-0.28005 0.0838-0.18264 0.0636-0.2814-0.21636-0.25976-0.34349-0.20293-0.44896-0.1637-0.55309-0.22187-0.30156-0.35853-0.36511-0.41668-0.36378-0.67916-0.81407-0.54116-0.58148-0.61827-0.58149-0.75627-0.51252-0.45728-0.60177-0.43699-0.34349 0.43699-0.42732 0.37882 0.0838 0.2611 0.238 0.0785-0.14604 0.16235-0.12577 0.0771-0.34348-0.16235-0.42733-0.15693-0.34347-0.22188-0.44897-0.63857-0.60313-0.31927-0.30156-0.20159-0.27992-0.7955 0.27992-0.22187-0.0216-0.13665-0.1758-0.0974-0.46924-0.33957-0.18933-0.45592-0.0216-0.35853 0.0216-0.13664 0.0203-0.3964-0.21636-0.11905-0.1474-0.0974-0.53281-0.18264-0.66668-0.24082-0.42732-0.39775-0.238-0.45728-0.19609-0.63992 0.19609-0.22188 0.51252 0.26111 0.34347-0.0392 0.23801-1.0553 0.40704-0.0771-0.38676 0.0771-0.34347-0.35851-0.0838-0.39776 0.25829-0.35851 0.34348-0.4167 0.12576-0.47622 0.12576-0.35851 0.53416-0.31793 0.66533-0.0785 0.51117-0.20293 0.49089-0.24082 0.44896-0.20293 0.30156-0.57904 0.0838-0.37746 0.42868-0.6778 0.38405-0.11771 0.42868 0.22188 0.30156 0.11771 0.12577-0.15694 0.30156-0.6521 0.0987-0.47622-0.19744-0.57904-0.0203-0.91861-0.16769h-0.35863l-0.13664-0.36376-0.437-0.32319-0.39774-0.1758-0.37746 0.0838-0.24082 0.0838-0.13664-0.12577-0.41669 0.0216-0.30035 0.36513-0.37745 0.21636-0.28005-0.0419-0.45593-0.0852-0.33957 0.34349-0.33958 0.42732-0.0189 0.21638-0.37745 0.19607-0.37746 0.27993-0.49516 0.0852-0.45593 0.10412-0.39775 0.23936-0.41669 0.18932-0.35851 0.0622-0.11771-0.34348 0.0582-0.60176 0.019-0.27994-0.33823-0.10547-0.33822 0.0622-0.51546 0.19743-0.61827 0.25829-0.35852 0.10549-0.37745-0.0216-0.20159-0.34214-0.0203-0.34347 0.0974-0.25965 0.13665-0.36377 0.0974-0.18932 0.0785-0.25964-0.1177-0.25964-0.0189-0.238 0.0785-0.19744 0.41669-0.25964h0.33958l0.56009-0.42732 0.0974-0.44897 0.0392-0.28127-0.24081-0.21637-0.45593 0.0419-0.49516 0.28129-0.47622 0.21771-0.41669 0.0839-0.41669 0.1474-0.54116-0.0216-0.6778-0.14605-0.20294-0.0838-0.31928-0.16904-0.43699-0.21637-0.54116-0.3232-0.39775-0.27992-0.47622-0.0419h-0.33822l-0.63856 0.0419-0.37746 0.0419-0.4167 0.12576-0.33957 0.0852h-0.5601l-0.51546 0.0203-0.39774-0.14604-0.51411-0.34348-0.437-0.38541-0.49515-0.30157-0.79551-0.42732-0.54115-0.25963-0.5804-0.21642-0.49516-0.21771-0.5804-0.38541-0.47486-0.27993-0.59933-0.36511-0.49516-0.34348-0.77657-0.42733-0.58039-0.66533-0.6778-0.32185-0.47621-0.25829-0.54116-0.17444-0.69675-0.25964h-1.0363l-0.47486-0.0838-0.6981-0.27992-0.39775-0.25965-0.31928-0.27992-0.51546-0.38676-0.3788-0.60177 0.39774-0.1758 0.22188-0.12576 0.0785-0.34348 0.20294-0.49089 0.49515-0.34348 0.2611-0.18932 0.20159-0.36377 0.28005-0.36377 0.24081-0.0636 0.37746 0.1758 0.51546 0.19609 0.43699-0.0838 0.56009 0.0838 0.45593 0.0419 0.33957 0.21771 0.45593 0.46925 0.43698-0.0838 0.22188-0.3854 0.43698-0.42733 0.45593 0.0636 0.49516 0.0622h0.57904l0.63856-0.0203 0.26112-0.0203 0.35852-0.0419 0.35851-0.25964 0.13665-0.25964 0.18263-0.12576v-0.44896l0.1177-0.40704 0.39776 0.0636 0.28005-0.10548 0.45592 0.16768 0.6778 0.0433h0.33958l0.22188 0.12577 0.28006 0.0852 0.37745-0.23936h0.35717l0.20294 0.19608 0.0203 0.12577 0.24081 0.25964 0.31929 0.23935 0.49516 0.40569 0.13664 0.25964 0.20158 0.34349 0.33822 0.55309 0.138 0.60312 0.1637 0.46925-0.1177 0.46924 0.31793 0.1758h0.31928l0.51546 0.14605 0.37746 0.28128 0.81445-0.0433 0.24081 0.38675 0.28005 0.0419 0.31928 0.0838 0.30034-0.25829 0.39775-0.21772 0.49517 0.0852 0.39909 0.25964 0.61828 0.38541 0.7955 0.0419 0.33823 0.21772 0.7955-0.0419 0.31928 0.0622 0.39776 0.28127 0.41668-0.0419 0.13665-0.238 0.0392-0.25829 0.13664-0.30156 0.56009-0.0216 0.37746 0.0852 0.35853 0.30156 0.45592 0.18932 0.35852 0.0216 0.24081-0.30156 0.31928-0.46925 0.45728-0.3854 0.45593-0.42868 0.26111-0.49088 0.37881 0.0622 0.41669 0.0852h0.37746l0.31929-0.12712 0.39774 0.17445 0.25976 0.21772 0.33958 0.21772h0.3964l0.22187-0.1758 0.26111-0.21772 0.20294-0.21772 0.1177 0.12711 0.5601-0.21772 0.3964-0.0419 0.47622-0.0622 0.22188-0.19608 0.33957-0.34348h0.83338l0.24082-0.55444 0.20293-0.34349 0.3964-0.16903 0.43699-0.10413 0.33957-0.23801 0.35717-0.30156 0.22188-0.34348 0.31927-0.21772 0.35852-0.72889 0.0582-0.21771 0.0974-0.3232 0.24081-0.28128 0.49516 0.0852 0.49516-0.10548 0.28141-0.0203 0.31793-0.30156 0.0785-0.42733 0.28005-0.3854 0.47622-0.17445 0.41668 0.0838 0.37746 0.0636 0.33958-0.19608 0.17588-0.12712 0.22051-0.19608 0.31929-0.0636 0.35852 0.1758 0.31928 0.0838 0.3991 0.0838 0.39775 0.12576 0.37746 0.19608 0.33823-0.0622 0.37881-0.32184 0.24082-0.16904 0.2611-0.40704 0.20294-0.68697 0.20293-0.49088 0.019-0.44896 0.13799-0.0622z"/>
   <path id="kendrapada" d="m162.04 130.83-0.24082-0.12576-0.0785-0.30156 0.15558-0.62477-0.15558-0.40703 0.0785-0.16904 0.43699-0.36377-0.0582-0.96824 0.0974-0.27993 0.0582-0.1474 0.0189-0.21772-0.20293-0.51116 0.0203-0.12712 0.11771-0.0406 0.1177 0.12576 0.37881 1.7593-0.0771 0.30156-0.47622 0.77081-0.0974 0.38675 0.0392 0.72889zm-23.435-1.7526-1.0363-1.6674-0.22188-0.6464v-0.60312l-0.20293-1.4997 0.83338-1.4578-0.63721-1.8864-0.39775-1.8851 2.7112-0.85601 1.0363-1.8851 1.453-0.81273 2.0929-0.42733 1.453-0.64504 0.20294-0.83437 0.83338 0.21772 1.6749 0.62476 1.4544-0.21772 2.0726 0.42732v-1.6674l1.0566-1.0724 1.1134-0.94661 0.35851-0.12576 0.37746-0.0419h0.39776l0.39639 0.0419 0.59933-0.0203 0.45728 0.32184 0.28005 0.261 0.29899 0.3002 0.43698 0.46925 0.31929 0.17445 0.24217-0.0838 0.45592-0.27992 0.43699-0.25965 0.47622 0.10548 0.15693 0.25964 0.0785 0.30157 0.24217 0.36376 0.35717 0.32185h0.43698l0.33958 0.0216 0.22187-0.10548 0.61828-0.25964 0.30034-0.0852 0.37881-0.0419 0.5141-0.0636 0.26111-0.0838 0.6778-0.3854 0.28005-0.36512 0.49651-0.40704 0.1637-0.1474 0.28005 0.16768h1.1919l0.73598 0.10548h0.31928l0.35852 0.18932 0.26111 0.30156 0.22187 0.19609 1.0147 0.0203-0.11636 0.238 0.20158 0.66668 0.31929-0.0852 0.18129 0.0216 0.18264 0.0203 0.41804 0.46925 0.20294 0.72889 0.33822 0.81273v0.21772l-0.0785 0.21771-0.15693 0.17445-0.26111 0.0419-0.26111 0.55309 0.37881-0.0838-0.18264 0.19608 0.0189 0.0622 0.0203 0.0838h0.75492l0.0988 0.1474 0.11635 0.0216 0.22187-0.0419 0.33958-0.238 0.20159-0.3232 0.13663-0.12576h0.28005v0.0838l-0.61827 0.60312-0.54115 0.36377-0.73733 0.62476-0.47622 0.34348-2.4501 1.6687-2.2742 1.6268-0.61827 0.46925-2.607 1.9906-1.2771 1.24-0.65885 0.23801-0.0189 0.0852 0.0771 0.0419 0.22323 0.0419-0.43834 0.55444-0.45593 0.8533h-0.0974l-0.26111 0.19743-0.15558 0.27993-0.13664 0.46924 0.0785 0.98853 0.13665 0.46925-0.54116 1.0102-0.24082 0.10548 0.0771 0.10547 0.26111 0.10414 0.0189 0.0852-0.29898 0.21637 0.0582 0.0852 0.47622-0.0419 0.0771-0.0825 0.1177 0.10413v0.238l-0.13663 0.19609-0.28006 0.1474-0.1637 0.18932 0.0189 0.14605 0.37746-0.17446 0.17587 0.10549 0.33823-0.23801 0.15693-0.55309 0.59934-0.42868 0.18399-0.21771 0.31793-0.16769h0.13799l0.0974 0.60313-0.0392 0.17444-0.47622 0.32185-0.0974 0.12712 0.0392 0.25963 0.45728-0.27992 0.17587-0.0838v0.0419l-0.28005 0.81273-0.15693 0.19744-0.45729 0.32185-0.0771 0.19607 0.0392 0.16904 0.13664 0.0216 1.3948-1.2617 0.13663-0.19608 0.20294-0.91956-0.0974-0.28128-0.0379-0.0838 0.15559-0.0433 0.13799 0.16905 0.1177 0.25963-0.0189 0.30156-0.26111 0.72889-1.7141 1.7174-1.3556 0.70861-0.95649-0.75053-1.8711-0.40703-1.472-0.40705-0.61827-1.8864-2.4893 0.21772-2.0916 1.2414-1.6749-0.21637-1.0363-0.40704-1.6749-1.6687-2.7112-0.21636-1.8711-0.19609z"/>
   <path id="khordha" d="m84.549 156.14 0.39776-3.3212 2.7112-1.0724 3.9816 0.64505 2.9074-0.856 3.1468 0.21771 2.7112-1.6674h2.7315l2.0916-1.6687-0.63858-1.2617-0.61962-0.83437-1.6749-1.0507-1.6749 0.19608-0.63857-1.0304 1.0553-0.64505 1.2582-0.83436-0.83339-1.8851-1.89-0.21772-1.6749 0.83436-2.9263 0.64505-1.6749-0.64505 0.4167-2.1028 1.89-1.2401h2.2932l1.2582-0.42868 0.45593-1.8432 0.37746 0.0203 0.35716-0.10548 0.61963-0.25829 0.5141-0.19608 0.33957-0.0622 0.33958 0.10412-0.0203 0.28128-0.0582 0.60312 0.1177 0.34348 0.35852-0.0636 0.41669-0.18932 0.39776-0.238 0.45592-0.10547 0.49516-0.0838 0.37746-0.27992 0.37746-0.19608 0.0203-0.21773 0.33822-0.42732 0.33823-0.34349 0.45728 0.0838 0.28005 0.0419 0.37746-0.21771 0.29899-0.36377 0.41804-0.0216 0.13665 0.12712 0.24081-0.0839 0.37746-0.0838 0.3964 0.17444 0.43698 0.32185 0.138 0.36512h0.35851l0.91862 0.16769 0.58039 0.0216 0.47622 0.19607 0.67645-0.0838 0.15693-0.30021-0.11635-0.12711-0.22187-0.30021 0.11771-0.42732 0.6778-0.38541 0.37746-0.42732 0.58038-0.0852 0.20294-0.30156 0.24081-0.44761 0.20294-0.49089 0.0771-0.51252 0.31929-0.66532 0.35987-0.53281 0.47622-0.12576 0.4167-0.12712 0.35851-0.34349 0.39775-0.25963 0.35851 0.0852-0.0785 0.34348 0.0785 0.3854 1.0553-0.40703 0.0392-0.23801-0.26111-0.34348 0.22187-0.51117 0.63858-0.19609 0.45726 0.19609 0.39776 0.238 0.24082 0.42732 0.184 0.66534 0.096 0.53281 0.11905 0.14874 0.3964 0.21773 0.13664-0.0216 0.35852-0.0203 0.45592 0.0203 0.33959 0.18932 0.0974 0.46924 0.13664 0.17444 0.22053 0.0216 0.7955-0.27992 0.20158 0.27992 0.31928 0.30157 0.63857 0.60177 0.22187 0.44896 0.15694 0.34349 0.16235 0.42732-0.0771 0.34348-0.1637 0.12577-0.0785 0.14739-0.26111-0.238-0.35716-0.0852-0.45728 0.42868 0.43698 0.34349 0.45729 0.60312 0.75627 0.51116 0.61827 0.58149 0.54116 0.5815 0.6778 0.81272 0.41669 0.36512 0.35851 0.36376 0.22188 0.30156 0.16235 0.55444 0.20294 0.44896 0.25975 0.34349 0.2814 0.21771 0.18129-0.0635 0.28005-0.0852 0.33822 0.0419 0.184 0.34348-0.22188 0.25829-0.24217 0.38676-0.33822 0.28128 0.0988 0.34347 0.37746 0.4057 0.22187 0.3854 0.22053 0.0852 0.22187-0.0419 0.1177-0.12576 0.20294-0.21772 0.28005 0.0203 0.31928 0.47059 0.20294 0.32185 0.20158 0.40705-0.0974 0.44761-0.31792 0.21771-0.24217 0.1758-0.15694 0.16769-0.0189 0.38676 0.24081 0.30156-1.2974 0.72888h-1.6735l-1.2582-0.21772-2.5096-0.21772-1.6749-1.4578-1.453-1.478-2.3135-0.40704-1.6749 0.6234-1.2582 1.4794-1.2568 0.18932-1.2568-0.40705-1.6749 2.3138-1.0363 0.40568v3.5822l-1.0553 2.5099-1.8521 0.98852-0.43698 1.9487 0.4167 3.3659 1.0363 3.7918-1.3164 0.72889-1.3556 0.75052-2.8086 1.2617-0.93891 0.55444-0.0974 0.0622-1.3948 0.70726-1.2379 0.87628-0.6778 0.36512-1.4327 1.0521-2.5881 1.9067-0.86044 0.72889-1.3164-0.856-0.9592-1.3739v-1.3536l0.63857-2.3544 0.31928-1.0088 0.16235-1.3753 0.0974-0.53281-0.138-0.28127-0.22052-0.46925-0.22188-0.44897-0.63856-0.36511-0.43699-0.72753-0.33958-0.4057-0.51546-0.18932-0.31928 0.0406-0.33958-0.238-0.35852-0.0636h-0.45592l-0.47486-0.34347-0.28141-0.42733-0.39775-0.51251-0.43698-0.60314-0.31929-0.19608-0.73597-0.1474-0.59934-0.16768-0.59933-0.23801-0.28005-0.3232-0.0974-0.68696-0.47622-0.5328h0.0257v-0.0243z" fill="#f1eca7"/>
   <path id="puri" fill="#0088cc" d="m131.19 145.58 0.63857-0.0636 0.24216 0.0419 0.4167-0.0635 0.5804 0.0635 0.39774 0.0216 0.0203 0.30156-0.0785 0.38406 0.18263 0.30157 0.59934-0.0636 0.20158 0.0216 0.39911-0.0216 1.1716-0.0203 0.77657 0.16903 1.0945 0.83437 0.47487 0.66533 0.77657 0.34348 1.1134-0.17579h0.77656l1.5775 0.51252 1.0945 0.68696 1.0945-0.34349 1.1919 0.30156-0.0582 0.12578-0.0974 0.14739-0.49517 0.28128-1.5315 0.53281-0.71839 0.238-1.2122 0.5328-2.5678 1.5213-0.30035 0.12576-0.0392-0.34347-0.13663 0.0852-0.0582 0.30156-0.0974 0.16769-0.29899 0.0636-2.8289 0.9466-1.0958 0.46925h-0.24081l-0.5601 0.238-0.67916 0.18932-1.154 0.3232-0.75627 0.16769v-0.0852l0.61827-0.25964 0.0203-0.0636-0.0582-0.0216-0.43699 0.17445-0.41804 0.0838-0.59934-0.0838-0.18128 0.0419-0.0203 0.10547 0.24217 0.0852 0.13664 0.0419 0.30035-0.0203 0.0974 0.12576-1.8521 0.30157-3.1671 0.73024-0.20294 0.0419-1.6938 0.46923-1.8318 0.64505-0.43562 0.0419-1.3164 0.40705-1.3164 0.46925-0.95784 0.49088-0.71705 0.16768-2.373 0.81274-0.29899 0.0852-2.0537 1.0724-0.75627 0.46925-0.71703 0.23801-0.33823 0.36511-1.6952 0.77217-1.0363-3.7918-0.41668-3.3645 0.43698-1.9486 1.8508-0.98854 1.0553-2.5085v-3.5809l1.0363-0.40704 1.6749-2.3138 1.2568 0.40705 1.2595-0.18932 1.2568-1.4794 1.6749-0.62341 2.3121 0.40705 1.453 1.478 1.6749 1.4578 2.5083 0.21771 1.2582 0.21638h1.6749z"/>
   <path fill="#e9a0a0" id="ganjam" d="m67.076 140.69 0.59934 0.23801 0.35851 0.0203 0.69675-0.30156 0.67914-0.44896 0.3964-0.64505 0.30035-0.58148 0.24081-0.55309 0.29899-0.66533 0.18265-0.5328 0.1177-0.51117 0.24081-0.34347 0.13665-0.0852 0.28005-0.0636 0.37746-0.19608 0.37745 0.0838 0.31928 0.30156 0.24082 0.38541 0.37746 0.25964 0.22187 0.34348 0.20158 0.25964 0.24217 0.12576 0.18264 0.16904 0.29899-0.0216 0.24082-0.0216 0.47621-0.0419 0.24083-0.0838 0.24216 0.34347 0.43698 0.40705 0.437 0.238 0.49515 0.12576 0.45592 0.12577 0.20158 0.17579 0.019 0.62477-0.13664 0.83436-0.0392 0.44897 0.1637 0.6234-0.0771 0.68697-0.22188 0.51252-0.0974 0.42732-0.24216 0.34349-0.20159 0.21772-0.18264 0.34348-0.0974 0.21772-0.11769 0.38405 0.11769 0.34349 0.51546 0.79244 0.4167 0.25964 0.45727 0.238 0.45593 0.49088 0.35851 0.58285 0.0974 0.42732 0.13665 0.6437 0.0974 0.3854 0.22187 0.19608 0.33959 0.16904h0.54115l0.61963-0.10549 0.41669 0.25829 0.0785 0.28129 0.20294 0.40703 0.18263 0.68697 0.0582 0.1758 0.0189 0.51252 0.0785 0.30157 0.0189 0.51115-0.16235 0.14741-0.11769 0.10548-0.18264 0.14739-0.138 0.44761 0.20294 0.0852 0.31927 0.0838h0.4167l0.37746-0.12576 0.30034 0.12576 0.16235 0.34349-0.0582 0.46925-0.24081 0.42732 0.0974 0.14741 0.43699 0.40703 0.33957 0.34349 0.37881 0.14739 0.5601 0.42733 0.45592 0.53281 0.0974 0.68697 0.28005 0.32319 0.59934 0.238 0.59933 0.16769 0.73732 0.14605 0.31929 0.19744 0.43698 0.60177 0.3964 0.51252 0.28005 0.42732 0.47622 0.34349h0.45593l0.35852 0.0622 0.33822 0.238 0.31929-0.0419 0.51546 0.18932 0.33958 0.40704 0.43698 0.72754 0.63857 0.36376 0.22187 0.44896 0.22188 0.46925 0.13665 0.28128-0.0974 0.5328-0.16235 1.3739-0.31929 1.0102-0.61962 2.3544v1.3523l0.93891 1.3753 1.3164 0.85466-0.30034 0.25964-0.75627 0.51117-0.0582 0.0419-1.1932 1.0507-0.75628 0.53281-0.39775 0.42868-0.45594 0.25829-0.5141 0.55444-0.73597 1.1562-0.22188 0.51117 0.0203 0.0852-0.0582 0.0419-1.7926 0.856-1.8508 1.2401-0.0785 0.0419-0.95785 0.81274-0.71703 0.60312-1.4341 1.3753h-0.0392v0.0419l-0.22187 0.1758-0.11635 0.0419-0.95786 0.89659-1.1148 1.0304-1.2974 1.6471-1.0363 1.5213-0.24081-0.12712-0.0974 0.16903 0.15558 0.12577 0.0392 0.12712-0.15558 0.40704-0.0974 0.3854-0.0785 0.238-0.71703 1.0088-2.2296-3.9176-0.39776-0.30156-0.51544-0.44761-0.59934-0.238-0.51545-0.38541-0.39775-0.38676 0.184-0.25829 0.49515-0.21771-0.17588-0.25965-0.25975-0.21636 0.0189-0.19744 0.30035-0.0622 0.33957 0.0216 0.0771-0.34348-0.31927-0.28128-0.95786 0.0216-0.31929-0.0636-0.31927 0.46925-0.0785 0.34348-0.0203 0.77216-0.5601-0.0838-0.15694 0.0838-0.51544 0.12712-0.25976 0.12576-0.47623 0.0419-0.71703-0.21638-0.0988 0.25829 0.54116 0.58149 0.47622 0.49088 0.22188 0.42733 0.20157 0.0838 0.35852-0.25964 0.59933-0.0838 0.43699 0.16769 0.138 0.46925-0.16235 0.34348-0.0203 0.23936-0.0771 0.21637-0.18264 0.10547-0.22188 0.0419-0.2814-0.0419-0.58039-0.0838h-0.47487l-0.15694 0.19608 0.22188 0.51117-0.24082 0.53281-0.25975 0.27992-0.13799 0.32185-0.24082-0.0419-0.1637-0.32185-0.30035-0.75052-0.13664-0.68697-0.35851-0.51116-0.26112 0.32184-0.0189 0.1474-0.31928 0.0419-0.45592-0.0838-0.26111 0.21636-0.13665-2.8736-0.63856-2.1028h-1.8711l-3.1482 2.3111-1.0553-2.7411 2.1119-1.24 1.453-2.3341-1.0363-1.0507-1.2582-0.42867-0.83338-1.4997-0.41804-1.8864-0.86045-1.6958-0.20158-0.19609-0.22187-1.716 0.22187-1.6687-0.41804-1.0724-1.472-0.856-1.2582 1.7174-1.0363 0.21773-1.1337-0.46925 0.0582-0.25829-0.0392-0.21772-0.1637-0.3854-0.13664-0.17445 0.0974-0.34349 0.30034-0.25964 0.24082-0.42732-0.1177-0.42868-0.29899-0.42732-0.59934-0.70725-0.51545-0.3232-0.49516-0.27992-0.20293-0.70861 0.15693-0.34348 0.30034-0.42733 0.13665-0.25964-0.0189-0.42732-0.30034-0.17445-0.33823 0.0406-0.30034 0.16769-0.39776 0.42733-0.29899 0.10412-0.0785-0.58148-0.0582-0.68697-0.15558-0.3854-0.22187-0.38541-0.22188-0.46925-0.24081-0.30156-0.138-0.51117 0.1177-0.12576 0.20158 0.0838 0.16235 0.0839 0.43698-0.0419 0.31929-0.16903h0.37746l-0.1177-0.44897-0.22188-0.3232 0.28005-0.40704 0.83474-0.40704 0.22188-0.30156-0.0974-0.44761-0.47487-0.27993-0.0582-0.46925 0.41669-0.12576 0.75492 0.0839 0.85367-0.42733 0.5804 0.16904 0.77521-0.44896 0.45592-0.0203 0.51545-0.30157 0.5804-0.60312 0.37881-0.51252 0.18264-0.0838 0.18129 0.30156 0.18263 0.34349 0.22188 0.36376 0.33822 0.28129 0.33823 0.30156 0.33958 0.30156 0.28005 0.21771h0.37746l0.41669 0.12577 0.49516 0.19608 0.30034 0.19609 0.57904 0.16768 0.54116 0.42733 0.45592 0.30156 0.37746 0.0419 0.31929-0.0838 0.18264-0.1474-0.0189-0.38541 0.0189-0.27992 0.0582-0.16904 0.11769-0.25963-0.18264-0.36378v-0.25829l0.0392-0.36511-0.0785-0.42733-0.0771-0.21771 0.1637-0.51117 0.25976-0.51252 0.13664-0.62476 0.0974-0.40705 0.13664-0.44896-0.39775-0.238-0.33822-0.21772h-0.28005l-0.15693-0.0419-0.20294-0.0419-0.54116 0.0419h-0.41669l-0.41669 0.0419-0.28005-0.21772-0.35852-0.27992-0.31928-0.18932-0.4167-0.21773-0.20157-0.10412-0.28141-0.0216-0.18264 0.0419-0.41669 0.1758-0.24081-0.25965-0.11771-0.21637v-0.42868l0.28005-0.55308 0.33822-0.34349 0.41805-0.34348 0.22187-0.30156 0.28005-0.0838 0.2814 0.12711 0.28005-0.0419 0.4167-0.12578 0.24217-0.0852 0.24081-0.0406 0.43699-0.25963 0.18264-0.46925-0.11635-0.21636-0.2814-0.21637-0.25976-0.14876-0.13664-0.40704 0.16234-0.51116 0.31929-0.3232 0.0771-0.53281 0.15694-0.49088 0.16234-0.34349 0.37881-0.34348 0.0203-0.44896 0.22053-0.25964 0.0785-0.42732 0.0189-0.46925-0.18264-0.60312 0.0189-0.40704 0.28141-0.51252 0.31927-0.36378 0.17588 0.12578-0.0392 0.55443 0.0582 0.46924 0.0974 0.30157 0.37881 0.27992 0.39775 0.36512 0.33822 0.34349 0.4167 0.12576 0.26111 0.21636 0.22188-0.10547 0.11769-0.34348 0.22188-0.28128 0.22052-0.0838 0.39775 0.17445 0.20158 0.21637 0.22188 0.12712 0.31928-0.10549 0.24081-0.0636 0.24083-0.12576 0.0189-0.44896 0.28005-0.27992 0.33957-0.0419 0.28005-0.1758z"/>
  </g>
  <path d="m116.1 135.25 0.0826 1.2842 1.1189 0.7184 0.52576 1.0276 0.22252 3.2677-0.70663 1.632 0.64435 0.39974-0.7074 2.1057-1.366 4.0594 0.55507 1.1083-0.0896 1.5959-0.42063 2.3246-0.53706 1.357 1.3956 1.1349 0.12602 2.497" fill="none" stroke="#f99" stroke-width=".8px"/>
  <g fill="#000000" font-family="sans-serif" font-size="6.35px" letter-spacing="0px" stroke-width=".26458" word-spacing="0px">
   <text x="117.251" y="155.41702" style="line-height:1.25" xml:space="preserve"><tspan x="117.251" y="155.41702" font-size="3.5278px" fill="#fff" stroke-width=".26458">Puri</tspan></text>
   <text x="119.16247" y="134.83072" style="line-height:1.25" xml:space="preserve"><tspan x="119.16247" y="134.83072" font-size="3.5278px" stroke-width=".26458">Bhubaneswar</tspan></text>
<!--<text x="118.92464" y="146.55051" fill="#000000" font-family="sans-serif" font-size="6.35px" letter-spacing="0px" word-spacing="0px" style="line-height:1.25" xml:space="preserve"><tspan x="118.92464" y="146.55051" font-size="2.8222px" stroke-width=".26458">63.3 km</tspan></text>-->  </g>
  <path d="m118.09 139.79 1.467 0.7721 2.2391 1.1582 5.4047 2.2391-0.23163 2.1619 1.0037 2.5479 3.7061 4.8642" fill="none" stroke="#f99" stroke-width=".6px"/>
  <g stroke-width=".26458">
   <circle cx="130.84" cy="151.89" r="1.4826" fill="#f00" fill-rule="evenodd"/>
   <text x="132.70506" y="151.27248" fill="#fff" font-family="sans-serif" font-size="3.5278px" letter-spacing="0px" word-spacing="0px" style="line-height:1.25" xml:space="preserve"><tspan x="132.70506" y="151.27248" stroke-width=".26458">Konark</tspan></text>
<!--<path d="m122.59 141.45 2.4874-1.7964v-4.2838h13.266v4.2838l-9.9494-1e-5z" fill="none" stroke="#000" stroke-width=".17688px"/>--><!-- <text x="126.0905" y="138.45671" fill="#000000" font-family="sans-serif" font-size="3.5278px" letter-spacing="0px" word-spacing="0px" style="line-height:1.25" xml:space="preserve"><tspan x="126.0905" y="138.45671" font-size="2.8222px" stroke-width=".26458">65.4 km</tspan></text>-->
   <text x="122.6246" y="159.53679" fill="#000000" font-family="sans-serif" font-size="3.5278px" letter-spacing="0px" word-spacing="0px" style="line-height:1.25" xml:space="preserve"><tspan x="122.6246" y="159.53679" font-size="2.1167px" stroke-width=".26458">Puri-Konark Marine Drive</tspan></text>
   <circle cx="133.33" cy="154.79" r="1.4826" fill="#f4d7d7" fill-rule="evenodd"/>
   <text x="135.57942" y="154.27319" fill="#000000" font-family="sans-serif" font-size="3.5278px" letter-spacing="0px" word-spacing="0px" style="line-height:1.25" xml:space="preserve"><tspan x="135.57942" y="154.27319" font-size="2.1167px" stroke-width=".26458">Chandrabhaga Sea Beach</tspan></text>
   <text x="134.65958" y="156.26942" fill="#000000" font-family="sans-serif" font-size="3.5278px" letter-spacing="0px" word-spacing="0px" style="line-height:1.25" xml:space="preserve"><tspan x="134.65958" y="156.26942" font-size="2.1167px" stroke-width=".26458">(4.9 km from Konark)</tspan></text>
  </g>
  <path d="m116.82 157.27c-13.213 5.8838-9.4621 6.011-14.366 9.4404" fill="none" stroke="#f99" stroke-width=".6px"/>
  <g stroke-width=".26458">
   <circle cx="102.94" cy="164.71" r="1.4826" fill="#f00" fill-rule="evenodd"/>
   <text x="102.93944" y="168.84245" fill="#000000" font-family="sans-serif" font-size="3.5278px" letter-spacing="0px" word-spacing="0px" style="line-height:1.25" xml:space="preserve"><tspan x="102.93944" y="168.84245" font-size="3.5278px" stroke-width=".26458">Satapada</tspan></text>
   <circle cx="114.32" cy="152.89" r="1.4826" fill="#f4d7d7" fill-rule="evenodd"/>
<!--<path d="m115.92 149.75 2.4874-1.7964v-4.2838h13.266v4.2838l-9.9494-1e-5z" fill="none" stroke="#000" stroke-width=".17688px"/>-->
   <text x="113.65436" y="153.55922" fill="#000000" font-family="sans-serif" font-size="3.5278px" letter-spacing="0px" word-spacing="0px" style="line-height:1.25" xml:space="preserve"><tspan x="113.65436" y="153.55922" font-size="2.1167px" stroke-width=".26458">1</tspan></text>
  </g>
  <path d="m117.64 158.09 3.8895-0.14507 2.2674-0.68695 1.6938-0.46923 3.3701-0.77214 1.2771-0.6815 3.4634-0.42462" fill="none" stroke="#f99" stroke-width=".6px"/>
  <g stroke-width=".26458">
   <circle cx="114.15" cy="97.314" r="1.4826" fill="#f4d7d7" fill-rule="evenodd"/>
   <g fill="#000000" font-family="sans-serif" font-size="3.5278px" letter-spacing="0px" word-spacing="0px">
    <text x="113.44973" y="98.08651" style="line-height:1.25" xml:space="preserve"><tspan x="113.44973" y="98.08651" font-size="2.1167px" stroke-width=".26458">1</tspan></text>
    <text x="116.64962" y="97.98008" style="line-height:1.25" xml:space="preserve"><tspan x="116.64962" y="97.98008" font-size="2.1167px" stroke-width=".26458">Sakhigopal temple</tspan></text>
    <text x="70.821022" y="157.53549" style="line-height:1.25" xml:space="preserve"><tspan x="70.821022" y="157.53549" font-size="2.1167px" stroke-width=".26458">Balugaon Ghat,Chilika</tspan></text>
   </g>
  </g>
  <path d="m97.584 156.13s-6.016 5.0457 0 0l5.5526-6.05 5.7504-7.5111 7.2145-7.3209" fill="none" stroke="#f99" stroke-width=".6px"/>
<!--<path d="m109.47 141.38-2.4874-1.7964v-4.2838h-13.266v4.2838l9.9494-1e-5z" fill="none" stroke="#000" stroke-width=".17688px"/>-->
  <g stroke-width=".26458"><!--<text x="94.665199" y="138.34393" fill="#000000" font-family="sans-serif" font-size="3.5278px" letter-spacing="0px" word-spacing="0px" style="line-height:1.25" xml:space="preserve"><tspan x="94.665199" y="138.34393" font-size="2.8222px" stroke-width=".26458">94.5 km</tspan></text>-->
   <circle cx="135.8" cy="147.62" r="1.4826" fill="#f4d7d7" fill-rule="evenodd"/>
   <text x="135.02478" y="148.35519" fill="#000000" font-family="sans-serif" font-size="3.5278px" letter-spacing="0px" word-spacing="0px" style="line-height:1.25" xml:space="preserve"><tspan x="135.02478" y="148.35519" font-size="2.1167px" stroke-width=".26458">2</tspan></text>
   <circle cx="114.03" cy="101.96" r="1.4826" fill="#f4d7d7" fill-rule="evenodd"/>
   <text x="113.5587" y="102.49551" fill="#000000" font-family="sans-serif" font-size="3.5278px" letter-spacing="0px" word-spacing="0px" style="line-height:1.25" xml:space="preserve"><tspan x="113.5587" y="102.49551" font-size="2.1167px" stroke-width=".26458">2</tspan></text>
   <text x="116.3306" y="102.54308" fill="#000000" font-family="sans-serif" font-size="3.5278px" letter-spacing="0px" word-spacing="0px" style="line-height:1.25" xml:space="preserve"><tspan x="116.3306" y="102.54308" font-size="2.1167px" stroke-width=".26458">Kakatapur temple</tspan></text>
  </g>
  <path d="m116.1 135.25 3.9155-6.1003 10.368-11.258 11.885 6.5865 9.8577-0.48744 9.3992-5.6056 5.8992-6.8376" fill="none" stroke="#f99" stroke-width=".6px"/>
  <g fill="#000000" font-family="sans-serif" font-size="3.5278px" letter-spacing="0px" stroke-width=".26458" word-spacing="0px">
   <text x="170.7227" y="113.83224" style="line-height:1.25" xml:space="preserve"><tspan x="170.7227" y="113.83224" stroke-width=".26458">BhitaraKanika</tspan></text>
   <text x="175.23282" y="116.36095" style="line-height:1.25" xml:space="preserve"><tspan x="175.23282" y="116.36095" font-size="2.1167px" stroke-width=".26458">National Park</tspan></text>
<!-- <path d="m113.34 157.93-2.4874-1.7964v-4.2838h-13.266v4.2838l9.9494-1e-5z" fill="none" stroke="#000" stroke-width=".17688px"/>
  <text x="98.295471" y="154.80368" fill="#000000" font-family="sans-serif" font-size="3.5278px" letter-spacing="0px" stroke-width=".26458" word-spacing="0px" style="line-height:1.25" xml:space="preserve"><tspan x="98.295471" y="154.80368" font-size="2.8222px" stroke-width=".26458">48.4 km</tspan></text>-->  </g>
  <path d="m120.02 129.15 22.253-4.6719" fill="none" stroke="#f99" stroke-width=".6px"/>
  <g stroke-width=".26458">
   <text x="109.92628" y="127.3064" fill="#000000" font-family="sans-serif" font-size="3.5278px" letter-spacing="0px" word-spacing="0px" style="line-height:1.25" xml:space="preserve"><tspan x="109.92628" y="127.3064" stroke-width=".26458">Cuttack</tspan></text>
   <circle cx="114.03" cy="106.87" r="1.4826" fill="#f4d7d7" fill-rule="evenodd"/>
   <g font-family="sans-serif" font-size="3.5278px" letter-spacing="0px" word-spacing="0px">
    <text x="113.58299" y="107.6441" style="line-height:1.25" xml:space="preserve"><tspan x="113.58299" y="107.6441" font-size="2.1167px" stroke-width=".26458">3</tspan></text>
    <text x="116.41944" y="107.46581" style="line-height:1.25" xml:space="preserve"><tspan x="116.41944" y="107.46581" font-size="2.1167px" stroke-width=".26458">Banki temple</tspan></text>
    <text x="131.12094" y="107.34291" style="line-height:1.25" xml:space="preserve"><tspan x="131.12094" y="107.34291" font-size="2.1167px" stroke-width=".26458">(60.4 km from bbsr )</tspan></text>
   </g>
   <circle cx="136.04" cy="121.16" r="1.4826" fill="#fc0" fill-rule="evenodd"/>
   <circle cx="61.112" cy="97.977" r="1.4826" fill="#fc0" fill-rule="evenodd"/>
   <text x="63.882233" y="98.796776" fill="#000000" font-family="sans-serif" font-size="3.5278px" letter-spacing="0px" word-spacing="0px" style="line-height:1.25" xml:space="preserve"><tspan x="63.882233" y="98.796776" font-size="2.1167px" stroke-width=".26458">LalitaGiri,UdayaGiri &amp; Ratna Giri</tspan></text>
   <circle cx="153.6" cy="137.08" r="1.4826" fill="#80b3ff" fill-rule="evenodd"/>
   <text x="153.32544" y="140.70865" fill="#000000" font-family="sans-serif" font-size="3.5278px" letter-spacing="0px" word-spacing="0px" style="line-height:1.25" xml:space="preserve"><tspan x="153.32544" y="140.70865" font-size="2.1167px" stroke-width=".26458">Paradip Port </tspan></text>
   <circle cx="81.482" cy="162.84" r="1.4826" fill="#f4d7d7" fill-rule="evenodd"/>
   <g font-family="sans-serif" font-size="3.5278px" letter-spacing="0px" word-spacing="0px">
    <text x="80.779861" y="163.53761" style="line-height:1.25" xml:space="preserve"><tspan x="80.779861" y="163.53761" font-size="2.1167px" stroke-width=".26458">4</tspan></text>
    <text x="60.643433" y="164.00589" style="line-height:1.25" xml:space="preserve"><tspan x="60.643433" y="164.00589" font-size="2.1167px" stroke-width=".26458">TaraTarini temple</tspan></text>
    <text x="79.39975" y="186.60666" style="line-height:1.25" xml:space="preserve"><tspan x="79.39975" y="186.60666" font-size="2.1167px" stroke-width=".26458">Gopalpur Beach</tspan></text>
   </g>
  </g>
  <path d="m79.571 184.87 2.3819-11.505 15.633-17.237" fill="none" stroke="#f99" stroke-width=".6px"/>
  <g stroke-width=".26458">
   <circle cx="78.673" cy="183.44" r="1.4826" fill="#f4d7d7" fill-rule="evenodd"/>
   <circle cx="77.268" cy="173.14" r="1.4826" fill="#0cf" fill-rule="evenodd"/>
   <g font-family="sans-serif" font-size="3.5278px" letter-spacing="0px" word-spacing="0px">
    <text x="76.588158" y="173.907" style="line-height:1.25" xml:space="preserve"><tspan x="76.588158" y="173.907" font-size="2.1167px" stroke-width=".26458">5</tspan></text>
    <text x="63.477921" y="173.26044" style="line-height:1.25" xml:space="preserve"><tspan x="63.477921" y="173.26044" font-size="2.1167px" stroke-width=".26458">Tapta Pani</tspan></text>
    <text x="60.29578" y="175.60918" style="line-height:1.25" xml:space="preserve"><tspan x="60.29578" y="175.60918" font-size="2.8222px" stroke-width=".26458">Hot Spring</tspan></text>
   </g>
   <circle cx="109.58" cy="132.4" r="1.4826" fill="#80b3ff" fill-rule="evenodd"/>
   <text x="108.77221" y="133.12875" fill="#000000" font-family="sans-serif" font-size="3.5278px" letter-spacing="0px" word-spacing="0px" style="line-height:1.25" xml:space="preserve"><tspan x="108.77221" y="133.12875" font-size="2.1167px" stroke-width=".26458">6</tspan></text>
   <circle cx="61.112" cy="101.96" r="1.4826" fill="#80b3ff" fill-rule="evenodd"/>
   <g font-family="sans-serif" font-size="3.5278px" letter-spacing="0px" word-spacing="0px">
    <text x="60.659607" y="102.95966" style="line-height:1.25" xml:space="preserve"><tspan x="60.659607" y="102.95966" font-size="2.1167px" stroke-width=".26458">6</tspan></text>
    <text x="65.092186" y="102.19174" style="line-height:1.25" xml:space="preserve"><tspan x="65.092186" y="105.41024" stroke-width=".26458"/></text>
    <text x="63.66515" y="103.01707" style="line-height:1.25" xml:space="preserve"><tspan x="63.66515" y="103.01707" font-size="2.1167px" stroke-width=".26458">Dhabaleswara temple</tspan></text>
   </g>
   <circle cx="106.77" cy="130.52" r="1.4826" fill="#aef" fill-rule="evenodd"/>
   <circle cx="103.96" cy="134.27" r="1.4826" fill="#f4d7d7" fill-rule="evenodd"/>
   <text x="105.09503" y="135.42842" fill="#000000" font-family="sans-serif" font-size="3.5278px" letter-spacing="0px" word-spacing="0px" style="line-height:1.25" xml:space="preserve"><tspan x="105.09503" y="138.64693" stroke-width=".26458"/></text>
   <text x="103.51478" y="134.80486" fill="#000000" font-family="sans-serif" font-size="3.5278px" letter-spacing="0px" word-spacing="0px" style="line-height:1.25" xml:space="preserve"><tspan x="103.51478" y="134.80486" font-size="2.1167px" stroke-width=".26458">3</tspan></text>
   <circle cx="61.112" cy="106.31" r="1.4826" fill="#aef" fill-rule="evenodd"/>
   <text x="63.280483" y="107.40524" fill="#000000" font-family="sans-serif" font-size="3.5278px" letter-spacing="0px" word-spacing="0px" style="line-height:1.25" xml:space="preserve"><tspan x="63.280483" y="107.40524" font-size="2.1167px" stroke-width=".26458">Ansupa Lake (61.5 km from bhubaneswar)</tspan></text>
   <circle cx="140.96" cy="142.93" r="1.4826" fill="#f4d7d7" fill-rule="evenodd"/>
   <text x="143.29694" y="143.99236" fill="#000000" font-family="sans-serif" font-size="3.5278px" letter-spacing="0px" word-spacing="0px" style="line-height:1.25" xml:space="preserve"><tspan x="143.29694" y="143.99236" font-size="2.1167px" stroke-width=".26458">Sarala temple (82.7 km from bbsr)</tspan></text>
   <g fill="#f00" fill-rule="evenodd">
    <circle cx="117" cy="134.12" r="1.4826"/>
    <circle cx="116.21" cy="157.52" r="1.4826"/>
    <circle cx="122.46" cy="129.12" r="1.4826"/>
    <circle cx="167.06" cy="113.2" r="1.4826"/>
    <circle cx="94.594" cy="158.85" r="1.4826"/>
   </g>
  </g>
 </g>
 <path d="m50.25 63.794 2.5908-1.7797 2.5908-0.94919 1.7272-1.7797 2.344-0.11865 3.0842 1.7797 0.78637 1.1873 0.0138-0.05704-0.0138 0.05704 0.0138-0.05704-0.0138 0.05704l-1.8967 3.2027-2.6061 0.38905-1.8352 1.7466-2.7141 0.11865-1.3571 1.1865-1.7272-0.71189-1.1726 1.9942-0.80134 1.9213-1.4555 2.0625-0.86893 1.1387-2.1168 0.47692 1.9691-4.3228 1.0167-3.385z" fill="#85c5e3" stroke="#85c5e3" stroke-width=".8px"/>
 <text transform="rotate(-27.868)" x="13.093839" y="84.319862" fill="#ffffff" font-family="sans-serif" font-size="3.5278px" letter-spacing="0px" stroke-width=".26459" word-spacing="0px" style="line-height:1.25" xml:space="preserve"><tspan x="13.093839" y="84.319862" fill="#ffffff" font-size="2.8222px" stroke-width=".26459">Chilika</tspan></text>
</svg>
