<svg width="255.91mm" height="207.92mm" version="1.1" viewBox="0 0 255.91825 207.9227" xmlns="http://www.w3.org/2000/svg">
 <g fill="none">
  <g transform="translate(-6.4879 -44.771)" fill="#c2f0c2" stroke="#fff" stroke-width=".5">
   <path id="Sundargarh" fill="#a69d98" d="m122.2 53.783 1.12 0.78035 1.2214 0.5902 1.9312 0.47167 2.7539 0.47415h1.6984l2.1432-0.30622h1.3528l1.0555-0.62724 1.1546-0.30868 1.3874-1.2545 0.67753-0.78035 1.1223-1.3335 1.5326-1.3311 2.0994-0.78037 1.5648-0.34573 1.3874-0.47167 0.80888 0.11605 1.5326-0.30868 1.3205 0.39758 1.5325 0.74332 1.4542 0.97299 1.6316 0.39758 1.4542-0.62724 1.733-0.55069 1.2537-0.43464 1.5325-0.11605 1.2536-0.11605 1.2214-0.8174 0.92179 0.07411 1.3873 0.30868 2.6871 0.85691 1.0555 0.55069 1.12 0.55069 1.256-0.97297 0.20044-0.81988 1.5325-0.1136 1.3873-0.26917 0.87575-0.55069 1.9335-0.93594 1.1869-0.22965 1.8321-0.89643 0.47703-0.47415 1.1891-0.22966 0.9541-0.03701 0.37796 1.8793 0.0322 1.6397-0.2304 1.8793-0.37799 0.85937 0.0321 0.93346 0.20045 1.8818 0.67753 1.5607 0.13353 1.3681 0.57614 1.6002-0.27655 1.7286-1.2214 0.07656-0.20047 0.70626 0.27657 1.3706-0.16595 1.8027-1.1223 2.6621-0.16823 1.294-0.54385 1.3311-0.81122 1.4842-0.67528 1.4076-1.1891 1.1409-0.95409 1.3311-1.355 1.0619-0.23279 0.78284-0.23504 0.70135-0.37795 1.4841 0.37795 0.30622 0.87804-0.22966 0.50928-1.0125 0.7444-0.70379 0.54388-0.66678 0.77663-0.4371 1.1546-0.5507 1.0877-0.30622 0.50934 0.30622 1.0554 0.47415 1.1869 0.62724 0.64295 1.01 1.0878 0.85692 1.6316 0.11615 1.7976 0.1926 1.5326 0.59021 1.1523 0.51118 0.64296 0.70379 0.87803 1.4866 0.61075 0.78036 0.47701 0.47413 0.16593 0.39513 1.5648 5.3243-0.16595 0.78282 0.0994 0.35807 0.37794 0.97298 0.54384 0.39757 0.5439 0.15313 0.41021 0.62724 0.61075 0.47415 0.64294 0.11366 1.1223-0.11366 0.57844-0.03947 0.41021-0.26671 0.61069 0.15313 0.57615 0.39759 0.61072 0.22966 0.47704-0.22966h0.70981l0.57844 0.55072 0.67525 0.51116 0.47702 0.26671 0.41253 0.62727 0.0669 0.39759-0.0322 0.58775 0.16842 0.58773 0.16595 0.62724-0.20047 0.70381-0.30879 0.47415-0.26735 0.78035-0.16576 0.78038-0.0992 0.5507-0.0669 0.74328-0.27658 0.81741-0.29959 0.74332-0.34337 0.30621-0.16573 0.74332-0.34566 0.78282-0.77666 0.43464-0.74438 0.19013-0.71208 0.15561-0.77664-0.1926-0.64299-0.47415-0.4425-0.51118-0.41253-0.31857-0.47698 0.037-0.31114 0.35809-0.47706 0.62725-0.37792 0.47412-0.51159 0.3976-0.61073 0.55069-0.64297 0.32104-0.41023-0.62726-0.37791-0.62725-0.34572-0.55067-0.29955-0.51367-0.34569 0.3581-0.27655 0.93344-0.23276 0.55071-0.13355 0.78035-0.20046 1.0619-0.20045 0.66678v0.97296l-0.1889 0.47415 0.16597 0.4371 0.20044 0.47412 0.54383 0.26671 0.57618 0.4371-0.0322 0.32105-0.27888 0.55068-0.92184 0.54821-0.64296 0.0766-0.31114 0.39513-0.0667 0.70626 0.20046 0.62725 0.26735 0.70133-0.3111 0.23214-0.20045 0.26671-0.0669 0.62724 0.10121 0.39756 0.23275 0.43712 0.31114 0.43462-0.21205 0.0493-0.16574 0.19261 0.0667 0.26916 0.0992 0.66678-0.0669 0.55065-0.23274 0.39761-0.44479 0.47167-0.5093 0.51119-0.47702 0.22965-0.41026 0.26918-0.37794 0.62722-0.23274 0.47413-0.13355 0.43467v0.59018l-0.61064 0.15313-0.51163-0.22966-0.74438-0.43461-1.1892 0.11596-0.84345 0.0764h-0.92183l-0.67749 0.32102-0.54393 0.47414h-1.0555l-0.70982-0.89641-0.20045-0.81987-0.032-0.62724 0.032-0.30621-0.31109-0.85693-0.50937-0.81986-0.13353-0.51367v-0.78031l-0.032-0.85692-0.29961-0.43462-0.41254-0.11597h-2.4406l-0.54383-0.22963-0.44486-0.30623-0.30876 0.15313-0.34568 0.93347-0.26735 0.15562v-0.47416l-0.77662 0.23214-0.44474-0.0394-0.31117-0.26916-0.84349-0.23214-0.31108 0.30622-0.41022 0.55068-0.3434 0.0394-0.67751 0.11361-0.31344-0.0766-0.70981 0.30622-0.47702 0.22966h-0.67751l-0.57617-0.22966-0.44473-0.1926-0.51165 0.35805-0.70983-0.0765-0.81116 0.037-1.0877-0.19012h-0.44482l-0.34335 0.85692 0.032 0.70381 0.0992 0.81986-0.0322 0.66428-0.44478 0.55072-0.61073 0.26915-0.77662-0.0394-0.95411-0.19032-0.26733-0.59022 0.13353-0.62725-0.20046-0.81986-0.44249-0.59019-0.61062-0.39761 0.20047-0.58772-0.0321-0.8989-0.44477-0.51121-0.44477-0.81739-0.41023-0.78035-0.31343-0.39513-0.18889-0.10369-0.27652 0.22966-0.44474 0.47167-0.74443-0.1136-0.44242-0.15314-0.31113-0.78035-0.0322-0.81989-0.3779-0.66676-0.37799-0.55067-0.0667-0.43712 0.0322-0.62725-0.50934-0.31856-0.44481-0.26917-0.71207-0.26918-0.7098 0.0766-0.47707 0.0764-0.5784 0.15314-0.80895-0.43465-0.61066-0.11621-0.27887 0.22966-0.57616 0.23214h-0.57845l-0.61068-0.0765-0.47707-0.23213-0.44247-0.47415-0.37796-0.62722-0.16573-1.01 0.0667-0.66674-0.235-0.51118-0.54389-0.32103-0.60844-0.47415-0.47936-0.15313-0.77893-0.74087-0.23274-0.62724 0.0322-0.58773 0.23273-0.93346 0.27882-0.36055 0.29963-0.11366 0.27886-0.22966-0.10133-0.78033-0.51166-0.5507-0.37791-0.62724-0.099-0.78284-0.27653-0.62724 0.0669-0.39759-0.23512-0.70627-0.64296-0.43464-0.84346-0.1926-0.37791-0.19012 0.27885-1.0125 0.47702-0.35807 0.34565-0.23214 0.80896-0.11366 0.23274-0.07667 0.34565-0.51118-0.20046-0.97296 0.13353-0.78036 0.26735-0.51118v-0.30883l-0.0669-0.5507-0.44246-0.30868-0.27654 0.22966-0.16594 0.70379-0.34567 0.58775-0.37795 0.1926-0.26733-0.78034v-0.51121l0.23275-0.59021 0.16572-0.26671 0.20028-0.89641-0.0667-0.5507 0.0323-0.51118-0.34338-0.6643 0.54387-0.39759 0.26733-0.03947 0.23504-0.35805 0.2766-0.93595-0.0669-0.47415-0.47701-0.62724-0.34569-0.70381 0.0346-0.39759 0.0667-0.62724 0.23507-0.39759-0.10133-0.47413-0.47705-0.35808-0.47702-0.27165-0.37795-0.5507 0.0343-0.47167 0.13369-0.35805 0.0343-0.74332-0.0667-0.62726-0.0667-0.62726-0.27655-0.93592-0.13397-0.47415-0.26496-0.66678-0.41254-1.0989-0.57611-1.1409-0.47705-0.70131-0.74442-0.39759h-0.98909l-0.84349 0.22966-0.67753 0.30622-1.0232 0.70379-0.50934 0.39759-0.77663 0.66678-0.41253 0.78282-0.84344 0.97298-0.9218 0.30622-0.57615 0.39759-0.37795 1.1384-1.0555 0.59021-0.95407 0.22966-0.64527 0.5507-0.67526 0.59019-1.1546-0.1926h-0.70962l-0.5116 0.1926-0.166 0.89397 0.26732 0.47415 0.0668 0.55068-0.2005 1.1014 0.0322 0.97298-0.0991 1.4866-0.13121 1.1384-0.34569 1.1779-0.41021 1.01-0.41021 0.78038-0.19818 0.39759-0.54388 0.47415-0.77665 0.39513-0.5093 0.07667-0.77663-0.07667-0.64295-0.58775-0.51163-0.89643-0.80889-0.26917-0.7098-0.26917-0.71212-0.31854-0.47704-0.70381-0.31112-0.36055-0.54389-0.35807-0.51162 0.5507-0.64296 0.31856-0.74437 0.3087-0.27655 0.32104-0.26732 0.70379-0.44249 0.03699-0.44247-0.03699-0.37794 0.70135-0.0668 0.47661v0.70131l-0.13369 0.78284-0.27655 0.93347-0.34336 0.74084-0.54388 0.26917-0.87805-0.07668-0.34337-0.39759-0.23506-0.39756-0.44478-0.39761-0.44247-0.22966-0.72133 0.15313-0.31341 0.74332-0.47706 0.97544-0.16592 0.58775-0.54387 0.81985-0.44246 0.07419-0.95641 0.78284-0.77663 0.47167-0.37792-0.1926-0.3457-0.85692-0.16589-0.66428-0.87572-0.93595-0.57617-0.32104-0.61069-0.07666-0.95409-0.23214-0.57845-0.15313-1.0209 0.32104-3.397 2.4695 0.95409-1.215 0.03227-1.0619-1.3551-1.8447-0.51162-0.81741-0.95408-1.0619-0.47704-1.9583-0.26733-1.5607-0.03227-1.2915-0.16592-1.9978-0.26732-1.2545 0.34338-1.4841 0.77663-1.0989 0.67522-0.89641 0.84349-0.97298 0.1659-1.1014-0.44478-1.4076-0.44478-0.78036-0.47704-0.70381-0.06681-0.78038 0.23275-1.3706 0.71211-1.2916 1.4196-2.0497 0.61071-1.7286 0.92182-1.2545 1.6316-1.2545 1.7653-1.0619 1.5648-0.66429 2.1432-0.85937 1.4219-0.39512 1.7653-0.55069 1.597-1.1039 1.1868-1.01 1.498-2.1509 1.4887-1.4471 1.9312-0.93346 1.1569-0.62724 1.6316-0.35807 1.2537-0.74332z"/>
   <path id="Debgarh" fill="#e9a0a0" d="m160.72 160.27-1.1224-5.4774-0.34341-3.4425-2.5096-1.1385-1.0555 2.6991-1.7861 1.8818-2.4751 1.9583-1.7975-3.0967-0.7121-3.0967-2.8531-6.5022-1.0532-3.4424-2.1432-5.0056v-5.3242l1.7653-3.0967 2.5096-2.304v-1.8793l-2.5096-1.178-0.71215-4.2252 3.5629-0.78038 0.70981-2.267 1.6985-3.5191h0.57846l0.57617-0.23214 0.27651-0.22966 0.61073 0.11609 0.80884 0.43464 0.57848-0.15314 0.47708-0.0764 0.70976-0.0766 0.70981 0.26919 0.4448 0.26916 0.51159 0.31855-0.0346 0.62725 0.0667 0.43712 0.37793 0.55069 0.37796 0.66676 0.032 0.81986 0.31105 0.78037 0.4425 0.15313 0.74434 0.11361 0.44251-0.47168 0.27651-0.22966 0.23511 0.0765 0.30876 0.39513 0.41252 0.78284 0.44246 0.81739 0.44248 0.51366 0.0346 0.89642-0.20046 0.58775 0.61067 0.39758 0.4448 0.58773 0.20045 0.81991-0.13352 0.62722 0.26732 0.58775 0.95406 0.1926 0.77668 0.0372 0.61071-0.26668 0.44252-0.55069 0.0346-0.66675-0.0992-0.81989-0.0346-0.70383 0.34339-0.85691h0.44476l1.0877 0.1926 0.80893-0.0394 0.70978 0.0766 0.5116-0.35809 0.44251 0.1926 0.57843 0.22967h0.67751l0.47705-0.22967 0.71207-0.30868 0.30887 0.0766 0.67754-0.1136 0.34334-0.0394 0.41256-0.55067 0.31111-0.30871 0.84345 0.22968 0.31344 0.26915 0.44479 0.037 0.77659-0.22964v0.47413l0.26739-0.15314 0.34339-0.93592 0.31105-0.15314 0.44246 0.30623 0.5439 0.22966h2.4406l0.41024 0.11597 0.29958 0.43461 0.032 0.85694v0.78035l0.13355 0.51363 0.51161 0.81992 0.30879 0.85689-0.0322 0.30619 0.0322 0.62724 0.20045 0.81744 0.71209 0.89642h1.0555l0.54385-0.47416 0.67985-0.32103h0.91949l0.84353-0.0764 1.1868-0.11361 0.74438 0.43462 0.51158 0.23212 0.61075-0.15581 0.41016 0.23215 0.71217-0.0764 0.61069 0.0372 0.5784 0.0394 0.37799 0.15312 0.50929 0.6273 0.34572 0.39508 0.2327 0.5507v0.58774l0.0322 0.34573 0.3434 0.55066 0.20047 1.0125-0.16593 0.78038-0.0343 0.62722-0.0346 0.70631-0.3111 0.51363-0.57847 0.62478-0.57846 0.70381-0.34107 0.60256-0.37793 0.70381-0.57844 0.26919-0.37792 0.26672-0.13152 0.39758-0.27654 0.47412-0.26735 0.22965-0.41021 0.0764-0.40101-0.14051-0.54388 0.22965-0.47706 0.0788-0.60838 0.0764-0.74438 0.19033-0.61065-0.19033h-0.61078l-0.47701 0.19033-0.74438 0.58772-0.50929 0.51364-0.47702 0.0367-0.80895-0.076-0.67751-0.2692-0.67755-0.19241-0.41021 0.1161-0.41251 0.35808-0.50929 0.0764-0.67752 0.39751-0.4771 0.55078-0.0992 0.81982 0.0346 0.70381 0.26729 0.58772 0.34343 0.70386 0.41251 0.6272 0.26729 0.30624-0.0346 0.55075 0.0667 1.1013-0.0343 0.93354 0.0343 0.62724 0.20046 0.85934 0.20045 0.62724 0.27885 0.59024 0.23278 0.62725 0.37795 0.15291 0.54383 0.59021 0.23278 0.55071-0.37797 0.7803-0.77659 0.0794-0.57845-0.0794-0.4448 0.1928-0.44245 0.43463-0.77668-0.15335-0.84578-0.32097-0.50924-0.30625-0.57852 0.0371-0.74437 0.81988-0.74432 0.78036-0.64295 0.78283-0.57848 0.85688-0.0322 0.32107 0.37801 0.78035 0.61068 0.39758 0.41022 0.22966 0.50928 0.22965 0.34336 0.93595 0.37569 0.93344 0.23505 0.70631 0.0992 0.39759-0.0346 0.39755-0.44251 0.47415-0.3111 0.62729 0.0667 0.30863 0.61069 0.55068v0.43468l-0.37788 0.58774-0.34341 0.7038-0.34568 0.11609-0.37796-0.43464-0.20047-1.0989-0.20044-0.5507-0.4125-0.39512h-0.54388l-0.34338-0.15541 0.0667 0.70377 0.20044 0.97303-0.0343 1.0618-0.37787 0.11609-0.50937-0.15294h-0.64292l-0.64299-0.1926-0.71209-0.39759-0.54389-0.32099h-1.1522l-0.20046-0.30873-0.81122-0.22965-0.57847-0.4346-0.77657-0.19218-0.77664 0.15561-0.77894 0.26671-0.67758 0.35808 0.0667 0.31854 0.50929 0.26916 0.57846 0.43469 0.16574 0.70622-0.3111 0.34574-0.5093-0.26915h-0.47937l-0.41016 0.66676-0.81122-0.36055-0.70981-0.35812-0.74437-0.51115-0.41023-0.58774-0.29958-0.30624-0.54384-0.51364z"/>
   <path id="Bargarh" fill="#e2b584" d="m105.05 160.04 1.8321-2.8917 2.8531-4.2252-0.7098-5.4007 0.37796-5.3637-1.0877-5.3612-0.70982-3.0449-0.34337-5.0056-1.7998-3.84-1.7653-8.0653-1.7976-6.8874-3.5652-5.3637-1.4196-6.4133 0.06684-1.0619-0.61072 0.47415-0.9218 0.58771-0.51162 0.31856-0.61071 0.5507-1.3873 1.2175-1.3873 0.39761-1.0878-0.11615-1.0209-0.11365-0.54388 1.8818 0.0668 1.7286-0.16592 2.0349-0.34338 1.2545-0.74437 0.7433-0.54387 0.93347-0.57845 0.85692v1.3311l-0.1659 1.1014-0.27654 0.7038-0.10139 0.32104-1.0555 0.93595-0.7098 0.93345 0.06679 1.2175-0.64299 0.97296-0.23275 0.3087-0.8112 1.4842-0.09906 1.5632-0.77894 1.8422-0.61071 1.9583-0.74436 2.2645-0.16593 2.0744 0.84346 2.1881 1.4542 1.8051 1.2882 2.0349 0.95409 2.3953v1.1384l-1.0555 1.1014-1.1546-0.0763-0.77663-0.0367-1.733-0.59022-0.98866-0.22964-2.3069-0.39755-0.23275 0.15583-1.0532 0.70378-0.54387 0.43464-0.67754 1.4866-1.0209 0.8199-0.27655 1.331 0.27655 1.1779 0.26732 0.85691-0.13136 0.70378-0.44478 0.74089-0.74437 0.81986-0.98866 1.4842-0.03226 1.2545-0.13368 1.4101-0.34338 1.7138-0.47704 1.4077-0.77663 0.70375-1.4542 1.2545-1.3205 2.3955-0.98866 0.66429-1.3228 0.47162-1.6316 0.5507-0.54387-0.0763-1.4219-0.55069-1.5648-0.55074-1.2859-0.47413-1.6316-1.3311-0.31112-0.62723-0.84346-0.89642-1.0209-0.74331-0.6107-1.01-0.34567-0.85684-0.16594-0.78037-0.61071-0.55073-1.2537 0.39759-1.2882 0.0764-1.3551 0.39506-0.87803 0.5507-1.0555 1.01-1.0209 0.47415-1.2214-0.15314-1.12-0.43461-0.77665 0.0392-1.1892-0.22959-1.12 0.43459-0.64296 0.36054-0.98866 0.39517-0.92183 0.47415-0.57613-0.0392-0.47704-0.15335-1.2214-0.35805-0.67754-0.47661-0.77663-0.22971-0.84346 0.15583-0.77894-0.11609-1.1546-0.11609-1.0555 0.15563-0.87803 0.31856-0.98866 0.6273-1.1868 0.85687-0.74437 0.93349-0.23276 0.93347 0.03227 0.85692 0.34569 0.8569 0.09908 0.34573 0.41021 1.4472-0.47936 1.4841 0.06681 1.1015-0.16592 0.9359-0.50932 1.2545-1.1892 2.9709-0.71211 1.6372-0.47704 1.0619 0.20052 0.62728 0.44478 0.81985 0.23276 0.62478-0.31112 0.66675-0.34338 0.78039-0.23276 0.55067-0.13371 1.178 0.09907 0.34573 0.57845 0.19055 0.47704-0.19055 0.57613 0.32103-0.80889 1.2545-0.03456 0.97298-0.41021 0.89641 0.27654 0.39513 0.54387 0.35809 0.77665-1.3335 0.54387-0.35809 0.98866-0.7038 0.74437-0.55071 0.77663-0.62723 0.64298-0.39513 1.0209-0.47414 0.37795-0.0763 0.77663-0.0764 0.61071 0.22963 0.74437 0.74335 0.61071 0.5507 0.47704 0.70376 0.67524 0.26673 0.74437-0.55074 0.6107-0.4741 0.47704 0.15333 0.23276 0.58773-0.03456 1.2174 0.09908 0.89647 0.41252 0.93591 0.80891 1.1384 0.71211-0.62722h0.64296l0.31112-0.15294 0.92182-0.30623 1.2214-0.43457 1.2882 0.0763 1.5003-0.11632 1.597-0.3087 1.3205-0.19241 1.0877 0.0392 1.3205-0.22964 1.6339-0.78282 1.1546-0.78037 0.57843-0.66427 0.54387-0.89643 0.41021-0.70132 0.98866-0.70626 0.80888-0.0767 0.47704 0.39512 0.31112 0.22962 0.3088 1.0125 0.13371 1.0101 0.23276 0.47417 0.09907 0.66426 0.54388 0.70377 0.1659 0.51119 0.06681 0.7063 0.20052 0.85692 0.47704 0.55069 0.37795-0.22969 0.5116 0.0368 0.31112 0.0391 0.19823-0.19219 0.20048-0.35805 0.23507-0.22967 0.23276-0.30628 0.51161-0.23207 0.44476-0.0746 0.06451-0.55073 0.44478-0.47412 0.64297-0.0763 0.44478 0.39763 0.23278 0.34569 0.74436 0.23215 0.51162-0.11632 0.5093-0.11361 1.0877-0.7013 0.61071-0.26916 0.87572 0.0763 0.98865-0.70628-0.23276-0.85697-0.64297-0.97297-1.0209-0.66673-0.57845-0.55071-0.09907-0.62721 0.34338-1.3311 0.2005-1.331-0.23275-1.1409-0.87804-1.1385-0.13136-0.34822h-0.23267l-0.44478 0.11633-0.7098 0.15583-0.3457 0.3062-0.6107 0.32108-0.61071-0.23213-0.37795 0.076-0.44478-0.62723-0.54388-0.81746-0.31112-0.66672 0.03227-0.62724 0.34569-0.30623 0.23275-0.31854 0.44478-0.5507 0.57614-1.01 0.77894-0.62725 0.50932-0.22968 0.54387-0.15332 0.47704-0.39516 0.57845 0.15335 0.67754 0.15581 0.77663 0.19032 0.64296-0.26916 0.57614 0.22965 0.44478 0.70384 0.47704 0.93345 0.44477 1.01 0.23275 0.32102 0.41021-0.0764 0.77663-0.39508 0.84346-0.39761 0.37795-0.8569 0.34338-0.7063 0.51161-0.0764 0.87572 0.62724 0.09907 0.55069 0.44247 1.0101h0.41252l0.23046-0.11645 0.34569-1.5212 1.1223-0.0767 1.3205-0.0395 1.0232-0.81743 1.4887-0.78283 1.0555-0.70382 0.95408-0.70627 0.44478-0.66432 0.6107-0.8569 0.84348-0.35804 0.5093-0.0763h1.1892l1.256 0.0371 1.0532 0.36051 1.12 0.47174 0.67754 0.51357 0.34338 0.81989 0.67754 0.55068 0.47936-0.66679 0.5093-0.97294 0.20052-0.30866 1.1569-0.22968 0.50932-0.78035 0.84578-0.55073 0.13371-0.9359 0.50932 0.0763 0.77663 1.3311 0.5093 0.89639 0.10142 0.51115 0.70982 0.89644 0.47704 0.26919 0.7121 0.5507 0.57612 0.62723 0.74437 0.39513 0.44478 0.23212 0.84346-0.85936 0.44478-1.01 0.67755-1.2916 0.54386-1.0124 0.37796-0.58774 0.47704-0.78034 0.44478-0.78287z"/>
   <path id="Jharsuguda" fill="#95c279" d="m133.97 83.095 0.70983 3.84-1.4196 2.341 1.0532 3.0449 0.37795 4.2253-1.7976 4.1858-2.1432 1.9188-2.1432 0.78034-4.6183-0.39759h-3.5629l-3.1849 1.1903-1.7999 3.0448v3.8401l-1.4196 3.4424-4.2748 0.78035-6.0403 1.4866-1.7976-6.8874-3.5629-5.3612-1.4219-6.4133 0.95408-1.2175-0.95408 1.2175 3.397-2.4695 1.0209-0.32104 0.57614 0.15313 0.95408 0.22968 0.6107 0.07894 0.57612 0.31854 0.87804 0.93595 0.1659 0.6643 0.34338 0.8569 0.37795 0.1926 0.77895-0.47413 0.95407-0.78038 0.44478-0.07895 0.54386-0.81741 0.16593-0.59019 0.47704-0.97298 0.31111-0.74332 0.81121-0.07915 0.44248 0.23214 0.44246 0.39759 0.23506 0.39759 0.3434 0.39759 0.87572 0.07646 0.54388-0.26917 0.34568-0.74332 0.27654-0.93595 0.13136-0.78036v-0.7038l0.0668-0.47167 0.37795-0.70379 0.44478 0.03947 0.44477-0.03947 0.26503-0.70381 0.27885-0.31856 0.74438-0.30868 0.64296-0.32104 0.54386-0.55068 0.51162 0.35805 0.30882 0.35807 0.47703 0.70627 0.7098 0.31856 0.70981 0.26917 0.8112 0.26917 0.50932 0.89393 0.64297 0.59021 0.77663 0.07666 0.51159-0.07666 0.77663-0.39758 0.54388-0.47167 0.20049-0.39761 0.41252-0.78033 0.4102-1.0125 0.34568-1.1779 0.13123-1.1384 0.0991-1.4841-0.0322-0.97298 0.20053-1.1014-0.0668-0.5507-0.26735-0.47415 0.166-0.89641 0.54388-0.1926h0.67753l1.1546 0.1926 0.67755-0.58775 0.64296-0.5507 0.9564-0.23214 1.0532-0.58773z"/>
   <path id="Sambalpur" fill="#00cc00" d="m151.42 156.75 2.4751-1.9583 1.7976-1.8818 1.0555-2.6991 2.5074 1.1385 0.3434 3.4425 1.1223 5.4774-0.57844 0.22974-0.34335 0.93595-0.57619 0.39757-0.70977-0.36059-0.47703-0.30619-0.57843-0.1135-0.57615 0.7038-0.41021 1.0643-0.20046 0.81991-0.5093 1.178-0.13353 0.55066 0.0667 0.55073v0.62728l0.16573 0.55064 0.41021 0.47417 0.70981 0.47411 0.61066 0.55072-0.23273 0.85693-0.57617 0.0763-0.77663-0.55063-0.6107-0.47416-0.92184-0.47169-1.0877 0.0763-0.54389 0.0763-0.61065 0.15541-1.1546 0.51114-0.74437 0.15356-0.57613 0.51358-0.74442-0.23209-1.2536-0.30625-1.1546-0.23209-0.47706-0.23214-0.9541-0.39515-0.57609 0.0739-0.61071 0.32099-0.84348 0.62733-0.27654 0.26915-1.12 1.3311-1.0555 0.59019-0.77662 0.47166-0.41255 0.19239-0.50928 0.19241-0.84348 0.15334-0.98867 0.30626-0.0669 0.31857 0.47703 0.39751 0.47703 0.22969 0.20048 0.85935-0.16597 0.47418-0.31109 0.32102-0.099 0.19053 0.099 0.51366v0.55067l-0.2996 0.7433 0.0346 0.66677-0.31111 0.58776-0.37794-0.0371h-0.77678l-0.51161-0.0789h-0.6084l-0.67983 0.22966-0.57613 0.0764h-1.3207l-0.8112 0.22964-0.41019 0.22967-0.37795 0.39755-0.41252 0.55073-0.67523 0.55073-0.57615 0.55065-0.74437 0.4371-0.41018 0.11645-0.16605 0.31855v0.39516l0.0991 0.27169-0.60842 0.26661-0.34568-3.1337-0.2005-0.70629-0.166-0.47166-0.64296-0.62726-0.41022-0.31856-0.64297-0.11644-0.77893 0.0367-0.54387-0.3951-0.44248-0.15335-0.37793-0.39759-0.0346-0.55071-0.0668-0.43464-0.47704-0.7433-0.13136-0.7038 0.23277-0.7038-0.16602-0.62729-0.26731-0.32099-0.61073-0.30865-0.13135-0.31859-0.67754-0.30871-0.9564-0.15334-1.0209-0.47418-0.81119-0.30625-0.95409-0.11348-0.64296 0.15293-1.0555 0.0371-0.70979-0.34574-0.64297-0.70374-0.67755 0.11632-0.57845 0.19033-0.54386-0.11633-0.54388-0.74086-0.13367-0.74329-0.23277-0.70137-0.0346-0.70621-0.23275-1.0989-0.0322-0.47666-0.0668-0.31853-0.37795-1.2545-0.64297-0.62725-0.77893-0.55064-1.0532-0.62733-0.44479-0.47418-0.92182-0.47164-0.51162-0.62721-0.70979-0.55073 1.8321-2.8942 2.8531-4.2228-0.70978-5.4032 0.37795-5.3612-1.0877-5.3613-0.7098-3.0473-0.34337-5.0056-1.7999-3.84-1.7653-8.0628 6.0403-1.4842 4.2748-0.78035 1.4196-3.4424v-3.8396l1.7976-3.0448 3.1872-1.178h3.5629l4.6183 0.39759 2.1432-0.78036 2.1432-1.9188 1.7975-4.1858-0.37796-4.2253-1.0532-3.0448 1.4196-2.341-0.7098-3.8401-1.6662-3.1756 0.37795-1.1409 0.5784-0.39513 0.92185-0.30866 0.84347-0.97298 0.41022-0.78036 0.77892-0.66428 0.50931-0.39759 1.0209-0.70381 0.6775-0.30622 0.84348-0.23214h0.98865l0.74437 0.39758 0.47937 0.70381 0.57846 1.1384 0.41023 1.1014 0.26731 0.6643 0.13396 0.47413 0.2765 0.93347 0.0667 0.62726 0.0667 0.62722-0.0318 0.74332-0.13368 0.35807-0.0322 0.47415 0.37792 0.5507 0.47706 0.26915 0.47706 0.35807 0.099 0.43464-0.23043 0.43464-0.0667 0.62724-0.0318 0.39757 0.34335 0.70381 0.4794 0.62726 0.0667 0.47415-0.27883 0.93345-0.23274 0.36055-0.26737 0.037-0.5439 0.39759 0.34569 0.6643-0.0343 0.51117 0.0667 0.5507-0.20045 0.89644-0.16596 0.26917-0.23273 0.58773v0.50131l0.26728 0.78284 0.378-0.19012 0.34337-0.59021 0.16845-0.70381 0.27659-0.22966 0.44474 0.3062 0.0669 0.5507v0.30622l-0.26509 0.51119-0.13324 0.78034 0.20044 0.97298-0.34334 0.51118-0.23505 0.07646-0.81122 0.11615-0.37796 0.22968-0.47706 0.36053-0.23274 1.01 0.37795 0.1926 0.84349 0.1926 0.64297 0.43464 0.23275 0.70379-0.0669 0.39758 0.27658 0.62724 0.10132 0.78036 0.37794 0.62724 0.50929 0.5507 0.0992 0.78035-0.27654 0.22968-0.2996 0.11366-0.27889 0.35807-0.23274 0.93593-0.0346 0.59021 0.20045 0.62726 0.81119 0.74333 0.47708 0.1556 0.61066 0.47166 0.54392 0.32104 0.23272 0.51119-0.0669 0.6643 0.16573 1.0125 0.37789 0.62726 0.41019 0.47168 0.50935 0.22965 0.6107 0.0765-1.6984 3.5191-0.71211 2.2645-3.5629 0.78283 0.70979 4.2228 2.5073 1.1754v1.8818l-2.5073 2.304-1.7652 3.0967v5.3243l2.141 5.0031 1.0555 3.4449 2.8531 6.5022 0.70978 3.0967z"/>
   <path id="Sonepur" fill="#a69d98" d="m70.161 169.65 2.4084 3.5216 3.2195 1.1779 3.5629 1.1779h2.8531l1.7653 1.8818-0.7098 2.6991-3.185 4.2252-0.37795 2.304 3.9407 1.4841 2.1432 1.5633 0.7098 4.2228-1.4196 3.4449-0.37796 2.6621 2.1755 5.707 0.74437-1.0989 0.51162-1.178 0.51162-1.2545 0.92182-1.8817 0.31112-1.1385v-0.93589l0.1659-0.97298-0.09909-0.47421 0.70982-2.1114 0.47704-1.1014 0.37795-0.58775 1.1223-0.97299 0.87803-0.30619 0.95408-0.43464 0.81121-0.0395 1.0555-0.15333 1.0878-0.0767 1.0555-0.0739 0.84346 0.0371 0.67755-0.19219 0.74436-0.32103 0.61071-0.47169 0.95409-0.47413 0.8112-0.4716 1.1523-0.30871 0.98867 0.15334 1.0878-0.11633 0.60837 0.0763 1.0878 0.11632 0.74437 0.39763 0.57613 0.5507 0.81121 0.39749h0.67754l0.91949-0.31848 1.0232-0.23214 0.87574-0.2297 0.47703-0.22967 0.74437-0.22968 0.77665-0.22963 1.2214-0.93592 1.2214-0.78036 0.61072-0.55074 0.92182-0.55065 1.0209-0.5507 1.3228-0.85693 1.0878-0.43465 0.70979-0.43453 1.0878 0.3975 0.81121 0.0788 1.2214 0.55068 0.37796-1.8052-0.34567-3.1362-0.19821-0.70377-0.16833-0.47418-0.64529-0.62724-0.41019-0.32105-0.61071-0.11608-0.80893 0.0395-0.54388-0.39764-0.44476-0.1529-0.37795-0.3976-0.0322-0.55068-0.0668-0.43462-0.47707-0.74339-0.13369-0.70373 0.23275-0.70384-0.166-0.62726-0.26733-0.32097-0.61071-0.30875-0.13369-0.32102-0.67754-0.30869-0.95639-0.15292-1.0209-0.47413-0.83195-0.26922-0.95407-0.11361-0.64296 0.15354-1.0555 0.0367-0.70978-0.34574-0.64297-0.7038-0.67753 0.11609-0.57844 0.19034-0.54388-0.11633-0.54388-0.74084-0.13367-0.74329-0.23277-0.70136-0.0346-0.70631-0.23276-1.0989-0.0322-0.47663-0.0668-0.31859-0.37796-1.2545-0.64296-0.62722-0.77893-0.55074-1.0532-0.62727-0.44477-0.47412-0.92182-0.47161-0.51162-0.62734-0.70979-0.55068-0.74437 0.39511-0.44478 0.7804-0.4448 0.78031-0.4102 0.59021-0.54388 1.0101-0.67753 1.2915-0.44248 1.0125-0.84347 0.85689-0.44479-0.22965-0.74437-0.39761-0.57845-0.62726-0.70979-0.55069-0.47704-0.26916-0.71211-0.89643-0.0991-0.51114-0.51162-0.89649-0.77662-1.331-0.51162-0.0763-0.13371 0.93344-0.84347 0.55067-0.5093 0.78286-1.1546 0.22968-0.20052 0.30874-0.51161 0.97291-0.47704 0.66425-0.67754-0.55059-0.34569-0.8199-0.67754-0.51119-1.12-0.47415-1.0555-0.35806-1.2537-0.0392h-1.1891l-0.5093 0.0764-0.84577 0.35808-0.60841 0.85936-0.44478 0.66677-0.95408 0.70135-1.0555 0.70631-1.4864 0.78035-1.0209 0.81984-1.3205 0.0371-1.12 0.0788-0.34567 1.5237-0.23276 0.11315h-0.41034l-0.44478-1.01-0.09906-0.55066-0.87803-0.62724-0.51162 0.0764-0.34569 0.70389-0.37796 0.85685-0.83195 0.46179z"/>
   <path fill="#e9a0a0" id="Balangir" d="m37.656 184.14 0.71211-0.62734h0.64296l0.31112-0.15334 0.92183-0.3062 1.2214-0.43464 1.2882 0.0743 1.5003-0.11609 1.5971-0.30868 1.3205-0.19035 1.0877 0.0392 1.3205-0.22961 1.6339-0.78036 1.1546-0.78289 0.57845-0.66427 0.54387-0.89643 0.41021-0.7038 0.98866-0.70632 0.80889-0.0764 0.47704 0.3951 0.31112 0.23218 0.30881 1.01 0.13368 1.0124 0.23276 0.47414 0.09907 0.6643 0.54387 0.70628 0.16592 0.51119 0.06683 0.70378 0.20052 0.85692 0.47704 0.55069 0.37795-0.22961 0.51162 0.0392 0.31112 0.0395 0.1982-0.1924 0.20052-0.3581 0.23507-0.23212 0.23276-0.30622 0.51161-0.23212 0.44478-0.0761 0.06455-0.55073 0.44478-0.4741 0.64297-0.0767 0.44478 0.39517 0.23275 0.34574 0.74437 0.22959 0.51161-0.11349 0.50932-0.11609 1.0877-0.70383 0.61071-0.26915 0.87572 0.0764 0.98865-0.7038-0.23276-0.85937-0.64296-0.97301-1.0209-0.66422-0.57845-0.55074-0.09907-0.62722 0.34338-1.331 0.20052-1.3311-0.23276-1.1408-0.87804-1.1385-0.13136-0.30871-0.23276-0.0395-0.44478 0.11361-0.70979 0.15541-0.34569 0.30621-0.61071 0.32099-0.6107-0.22964-0.37795 0.0743-0.44478-0.62719-0.54387-0.81745-0.31112-0.66673 0.03227-0.62479 0.34569-0.30865 0.23275-0.32107 0.44478-0.55067 0.57614-1.0125 0.77894-0.62725 0.50932-0.22964 0.54388-0.15335 0.47704-0.3976 0.57845 0.15581 0.67753 0.15335 0.77663 0.19218 0.64297-0.26918 0.57613 0.22962 0.44478 0.70387 0.47704 0.9359 0.44478 1.01 0.23276 0.32103 0.41021-0.0763 2.4084 3.5214 3.2195 1.178 3.5629 1.1779h2.8531l1.7653 1.8818-0.7098 2.7016-3.1872 4.2228-0.37795 2.304 3.9432 1.4842 2.1432 1.5607 0.70982 4.2252-1.4219 3.4424-0.37795 2.6621 2.1777 5.7094 0.03226 0.30865 0.57615 0.55069 0.09907 1.0989v0.81985l-0.34338 0.51121-0.57845 0.78037-0.41021 0.55063-0.50932 0.62727-0.44478 0.55069 0.44478-0.55069-0.92182-0.47413-0.37564-0.26671-0.54388-0.1924-0.54387 0.70625-0.44478-0.43705-0.81121-0.35808-1.1546 0.15561-0.92182-0.6667-0.13371-0.43465-0.06681-0.62731-0.06683-0.93343 0.26733-0.93596 0.2005-0.70627-0.31112 0.0395-0.61071 0.51115-0.6107 0.72849-0.64297 0.43464-0.6107 0.62725-0.87804 0.93593-0.84346 0.62723-0.84346 0.47169-0.34338 0.85692-0.60839 0.85939-0.57845 0.74078-0.51162 0.66681-0.84346 0.51121-0.87803 0.4741-0.87574 0.78034-0.23507 0.93594 0.03456 0.62724-0.10137 0.89398-0.74438 0.22966-0.7098-0.39509-0.74437-0.0395-0.74437 0.0789-0.64528 0.19219-0.95408 1.0101-0.67754 0.62724-0.70982 0.70378-0.67754 0.70381-0.6107 0.39758-0.54387 0.39756-0.23505 0.78039-0.6107 1.1014-0.51161 1.1755-0.34567 0.85688-0.20052 0.74335-0.92182 0.93353-1.0877 0.51359-1.0209-0.0368-0.64296 0.0368-0.51162-0.11349-0.70982 0.24203-0.54387-0.26671-0.74437-0.5507-0.80891-0.85693-0.7098-0.22961-1.0209-0.39512-0.31112 0.0743-0.51162-0.47173-0.37564-0.15335-0.77662 0.15335-0.64528 0.22973-0.74437 0.32103-0.57845-0.0792-0.74437-0.0743-0.41021 0.34575-0.54387 0.58771-0.74437 0.47417-0.61302 0.47166-0.44247 0.15561-0.61071-0.0392-0.92182-0.15292-0.71211-0.35809h-0.92184l-1.9635-0.70382-0.47704-0.15332-0.84346 0.32104-0.27655 0.47413-0.09907 0.7804-0.67985 0.47412-0.5093-0.22964-0.37795-0.0764-0.54387-0.22968-0.54387-0.19219-0.84346-0.11361-0.51162-0.0763-0.60841-0.11632-0.54387 0.0395-0.8112 0.0763-0.44478 0.0395-0.34338-0.51118 0.13371-0.55066 0.27654-0.35809 0.47704-0.51363 0.37795-0.39519 0.44478-0.30619 0.26733-0.59018 0.26733-0.51124 0.30881-0.62721 0.6107-0.74084 0.09907-0.39512-0.37795-0.59021-0.31112-0.55071 0.13371-0.32098 0.54387-0.66431 0.37793-0.35811-0.2005-0.78037-0.31112-0.85688-0.29959-0.30622-0.64528-0.19055-0.47704-0.11633-0.87804-0.23211-0.77663-0.22966-0.13368-0.43467 0.13368-0.66425 0.23276-0.55069 0.74437-0.93597 0.09907 0.70378 0.41021 0.78288 0.09907 0.30619 0.84348 0.0369 0.37795 0.15335 0.23276-0.43461-0.20052-0.47413 0.06681-0.62728 0.16595-0.66425v-1.0125l-0.26502-0.43711-0.37795 0.0789-0.27886 0.15335h-0.26506l-0.23276-0.15335-0.41021-0.39758-0.20052-0.30623-0.23046-0.15291-0.41252-0.15335h-0.37796l-0.13371 0.2321-0.16826 0.62724-0.19818 0.62729-0.26733 0.55068-0.27654 0.39515-0.54387-0.39515-0.23276-0.23208-0.06681-0.39516 0.16592-0.55073 0.09907-0.39753 0.34338-0.43466 0.47704-0.43457 0.37795-0.36057 0.44247-0.58774 0.34338-0.62728-0.06681-0.70625-0.41021-0.2297-0.47704-0.0368-0.23276 0.35804-0.47936 0.74334-0.67522 0.66674-0.23275 0.22968-0.34338 0.26917-0.61302-0.26917-0.7098-0.19221-0.67754-0.26913-0.29959 0.0763-0.71211 0.22968-0.57613 0.1161-0.34568-0.0367-0.20052-0.0763-0.03227-0.47173 0.26502-0.47411 0.41021-1.0989-0.1659-0.39761-0.29961-0.55074-0.27886-0.39753-0.41021-0.85693-0.47704-0.62724-0.54387-0.66679-0.29959-1.0866-0.16592-1.1779 0.13371-0.78034 0.34338-0.62728 0.34338-0.8569 0.47704-1.1014 0.23276-1.331 0.50932-1.4842 0.03227-0.85691 0.10141-1.1779-0.0668-1.0125 0.27655-0.8569 0.44478-0.51117 0.37795-0.19218 0.41021-0.55071 0.13371-0.39758 0.37795-0.70381 0.13367-0.47164 0.37795-0.93593 0.5093-0.70382 0.29959-0.5507-0.03226-0.39514-0.34338-0.43466-0.57613-0.43456-0.06681-0.47414-0.06683-0.62726-0.06681-0.58776-0.37795-0.43464 0.13136-0.39512 0.03455-0.62724-0.37795-0.4346-0.57845-0.0392-0.54387-0.11609 0.77663-1.3286 0.54387-0.3581 0.98634-0.7038 0.74437-0.55068 0.77665-0.62724 0.64296-0.39757 1.0209-0.47172 0.37795-0.076 0.77665-0.0767 0.6107 0.23208 0.74437 0.74335 0.6107 0.55073 0.47936 0.70378 0.67522 0.26919 0.74437-0.55076 0.6107-0.47413 0.47704 0.15313 0.23276 0.5902-0.03227 1.2174 0.09907 0.89644 0.41021 0.93597z"/>
   <path d="m34.658 252.23 0.8112-5.7464 2.8531-4.6601 0.37795-3.4425 0.34338-3.4819-0.7098-2.304-1.7008-4.5414-0.5093-0.23215-0.37795-0.0763-0.54387-0.22964-0.54387-0.19221-0.84346-0.1136-0.51161-0.0794-0.60842-0.1135-0.54387 0.0368-0.8112 0.0764-0.44478 0.0367-0.34338-0.5112 0.13371-0.55064 0.27654-0.35808 0.47704-0.51115 0.37795-0.39762 0.44478-0.30621 0.26733-0.59027 0.26733-0.51363 0.30882-0.62724 0.61071-0.74084 0.09907-0.39763-0.37795-0.59012-0.31112-0.55074 0.13371-0.32106 0.54388-0.66423 0.37795-0.35813-0.20052-0.78031-0.3111-0.85696-0.29959-0.3087-0.64528-0.19032-0.47704-0.11644-0.87803-0.22971-0.77665-0.22964-0.13371-0.43458 0.13371-0.66433 0.23275-0.55068 0.74437-0.93349 0.09907 0.70381 0.41021 0.78036 0.09907 0.30625 0.84348 0.0392 0.37795 0.15332 0.23275-0.43704-0.2005-0.4717 0.0668-0.62729 0.16592-0.66424v-1.0125l-0.26502-0.43465-0.37795 0.0784-0.27886 0.15293h-0.26503l-0.23276-0.15293-0.41021-0.39758-0.2005-0.30626-0.23046-0.15335-0.41252-0.15291h-0.37791l-0.13371 0.22971-0.16826 0.62724-0.1982 0.62726-0.26733 0.55064-0.27654 0.3976-0.54387-0.3976-0.23275-0.23204-0.0668-0.39512 0.1659-0.55074 0.09907-0.39513 0.34338-0.43465 0.47704-0.43703 0.37795-0.35809 0.44247-0.5878 0.34338-0.62723-0.0668-0.70627-0.41021-0.22967-0.47704-0.0367-0.23275 0.35815-0.47936 0.74079-0.67525 0.66432-0.23275 0.23212-0.34338 0.26919-0.61302-0.26919-0.7098-0.19219-0.67754-0.26922-0.29959 0.0763-0.71211 0.22964-0.57613 0.1161-0.34569-0.0368-0.20052-0.0763-0.03226-0.47412 0.26503-0.47413 0.41021-1.0989-0.1659-0.39767-0.29959-0.55065-0.27886-0.3976-0.41021-0.85691-0.47704-0.62724-0.54388-0.66429-0.29959-1.0742-0.16592-1.178 0.13371-0.78036 0.34337-0.62721 0.34338-0.85689 0.47704-1.1014 0.23275-1.331 0.5093-1.4842 0.03226-0.8569 0.10139-1.1779-0.06683-1.0125 0.27654-0.85692 0.44478-0.51118 0.37795-0.1924 0.41021-0.55072 0.13371-0.39758 0.37795-0.70383 0.13371-0.47167 0.37795-0.93594 0.5093-0.70383 0.29959-0.55067-0.03227-0.39511-0.34338-0.4346-0.57613-0.43465-0.06681-0.47416-0.06681-0.62726-0.0668-0.5877-0.37795-0.43467 0.13133-0.39511 0.03457-0.62721-0.37795-0.43464-0.57845-0.0392-0.54387-0.11644-0.54388-0.35809-0.27654-0.39754 0.41021-0.89402 0.03223-0.97295 0.8112-1.2545-0.57613-0.3186-0.47704 0.19241-0.57845-0.19241-0.09907-0.34572 0.13371-1.178 0.23276-0.55066 0.34338-0.78036 0.31112-0.66427-0.23276-0.62732-0.44478-0.81733-0.1982-0.62729 0.47704-1.0619 0.71211-1.6397-0.71211 1.6397 0.71211-1.6397-1.4219 1.5632-1.1868 0.85691-0.74437 1.178-1.3228 2.0348-0.57613 1.2545-0.37795 0.93346-0.77663 2.188-0.98866 2.0349-0.8112 1.2544-0.95408 0.39763-1.0209 0.0743-1.0209-0.62726-0.6107-0.70381-0.51162-0.81985-1.2859-1.215-1.0555-0.0392-0.47704 0.31855-0.47704 0.39757-0.16592-0.47168-0.13131-0.78038-0.23507-0.66674-0.13136-0.66676-0.23505-0.15334-0.77663 0.55071-0.27886 0.93345-0.1982 0.62727-0.034568 1.0125 0.20052 1.1014 0.44247 1.3311 0.47704 1.7163-0.066825 1.6892 0.29959 2.472-0.26733 2.4301-0.032258 1.6003 1.2537 2.2251 0.54387 1.1038 0.34567 1.5608-0.27654 1.9607 0.95408 4.1463 0.41021 2.3435-0.03457 1.4446 1.1569 1.8423 0.31112 1.3335 0.5093 1.8052 1.7653 2.0348 0.34338-1.4471 0.37795 0.11644 0.84346 1.1014 0.16592 1.178 0.26733 1.5607-0.44249 1.9607-0.92182 0.62729-0.84346 1.294-0.64297 1.3682 0.16592 1.1779 0.74437 0.39513 1.3873 1.0125 0.34569 1.6372-0.37795 1.0125-1.0209 1.215-0.57613 1.6767 0.41021 1.4842 0.47704 1.5607 0.26733 1.0619-0.61071 1.5237 0.20052 1.3311-0.61071 1.8052 0.31112 2.546 0.41021 2.6251 0.7098 2.509 1.2537 2.0349 1.4219 1.0125 2.5741 0.78033 1.7999 0.43467 1.8644-0.32108 1.733-0.55064 2.2077-0.1924 2.2424 0.31855 2.3414 0.11361z"/>
  </g>
  <g stroke="#f99" stroke-width=".5px">
   <path d="m119.93 87.924 6.692 5.9199 1.5443 4.1182 1.5443 2.3165 1.5443 1.5443 0.51478 1.0295 0.77217 1.0296 1.0295 3.346-0.51478 3.346 0.51478 2.0591 1.8017 2.3165 2.5738 1.2869h1.5443l2.0591 2.3165 1.5443 0.25739h1.2869l3.0886-0.25739h0.77215l1.0296 1.0296 1.0295-1.287 1.2869 0.25739 1.8017 1.2869 1.0296 1.0295 1.0295 1.2869 1.8017 2.3165h5.6625l4.3756 2.0591 10.81 3.8608 7.2068 2.5738 2.3165 2.5739 7.4642 4.1182 1.8017 3.8608 6.1772 3.0886 4.8903 1.5443 6.1772 1.2869 4.1182 4.633 3.0886 2.5738 5.4051 1.0296 2.5739 0.25738 3.8608 3.6034 4.8903 0.77218h3.0886l0.51477 1.5443 2.0591-0.51478 1.5443 3.346 2.5739-0.77215 1.8017 3.0886 3.346-1.8017 2.3165 3.346-0.77216 8.7511"/>
   <path d="m214.08 149.73 1.7393-7.7025-0.49694-1.2423-1.2423-1.2423v-3.2301l-2.4847 0.24846-2.2362-0.99386-0.49694-1.9877-2.9816-0.99387-3.4786-1.9877-4.2239-0.7454-2.4847-0.74541-1.7393-1.9877-5.2178-1.9877 0.24847-4.2239v-1.9878h2.7332l2.2362-3.4785-0.7454-1.4908 1.2423-1.7393-0.7454-2.9816-1.2423-1.9877 0.7454-1.4908-1.7393-2.7332-2.7331-1.9877-1.4908-2.4847-1.4908-1.4908 0.99387-2.4847 0.49693-2.9816-1.7393-5.7147-1.4908-1.9877v-1.2423l2.7332-2.7331-3.2301-2.7331-4.7209-0.24847-1.4908-2.9816-2.7331-1.4908h-2.4847l0.7454-5.2178-1.7393-0.99387-0.99386-2.4847-4.2239-1.4908 0.24845-1.2423-1.7392-2.2362v-2.7331l2.7331-0.49693 0.99387-2.9816-2.4847-2.7331 1.9877-4.2239-0.74541-1.9877-1.9877-2.7331 0.49692-2.2362 2.2362-3.9755-0.74541-2.7331-1.7392-5.2178-0.7454-0.99387 0.24845-1.2423-2.9816-2.9816v-2.7331l1.9877-1.4908"/>
   <path d="m111.02 134.28 1.3712 2.0567 2.2853-0.68558 5.9416 1.3712 2.0567 1.1426 5.7131-0.45704 2.9708-1.5997 3.6564-2.2852 4.1135-0.68557 4.342 1.8282-1.5997 2.9708 0.68557 3.8849 3.6564 2.9708 0.22851 2.0567 2.9708 2.7423 1.5997 1.8282-1.1426 2.5138 0.9141 1.5997-0.45705 2.0567 2.2852 3.4279 2.2853 1.3712 1.3711 1.1426-0.68557 1.3711 1.8282 2.0567 2.0567 0.9141 3.8849 1.3711 0.22853 1.5997 2.2852-0.22852 5.7131-1.3712 1.3712 0.45707 6.6272 4.342 3.4279 2.5138 2.0567 0.9141 2.5138-0.9141 2.0567 0.9141 0.9141 1.8282 1.3712 2.0567-0.22853 2.5138 1.5997 2.5138 0.91409 1.8282 1.3712 1.8282 2.5138-0.68557 3.1994 2.7423 3.1993-0.22852 2.5138-2.0567 4.342-0.45705 3.6564-0.9141h3.1994l4.5705-1.1426 4.1134-0.9141 4.799-1.8282 2.0567 0.45706 3.4279 0.9141 2.9708 1.3711h2.5138l3.1993-1.3711 2.9708-1.3712 2.9708-1.5997 2.7423-3.6564"/>
   <path d="m119.93 87.962 2.4806 0.55849 3.3752-4.8621 0.89463-3.1867 1.9519-3.4166 0.183-3.7452-0.71163-3.1538 1.4233-4.5993v-4.008l2.1349-5.7491 0.89464-3.7452-0.18299-1.4455 2.2976-4.008 1.7892-1.7083 0.34567-2.891-1.4233-6.012-1.2403-5.7491 0.36598-3.4495 3.3752-2.891 5.6727-3.4166 2.5009 0.85416 4.4325 0.85416 1.4233-3.1538 1.6062 0.29567 1.4233 1.4126h1.7689l1.4233-1.4126h2.1349l1.0776 2.004 1.7689-0.29567 0.52865-3.7452"/>
   <path d="m111.02 134.28-3.7907-0.71075-2.6061 0.71075-2.843 2.6061-1.6584 1.4215-1.6584 0.94765-1.8954 1.4215-1.1846 0.94765h-6.1598l-1.4215 1.4215-3.7907 1.4215-1.6584-0.23692-1.8953-0.47383-1.1846-2.1323-3.7906 0.47385-4.0276 0.71076-2.3692 0.71073h-7.3444l-0.71075 0.71075-0.47384 0.23692 1.1846 2.3692"/>
   <path d="m62.074 147.74-1.5133-3.2788h-3.7832l-10.593-3.0265-1.5133 0.50441-2.2699-2.0177h-7.0619l-1.5133 1.2611v1.5133l-5.0443 2.7743-1.5133 4.792-2.5221-1.2611-2.0177 3.531-2.2699 0.50445-2.2699 3.531-2.5221 1.5133 2.0177 1.7655-4.792 3.0266"/>
   <path d="m119.93 87.924 2.1812-1.6359-0.9543-1.227 2.7266-3.5445 0.27265-0.9543 1.9086-2.0449v-4.2262l0.54531-1.227-0.27266-2.0449 0.81797-2.0449v-0.54531l0.68164-1.3633-0.27265-1.6359-2.1813-5.4531-1.227-1.7723-0.95429-0.27266-0.13632-1.6359 0.68163-2.0449-0.27265-2.3176-0.40898-0.13633 0.40898-2.1812-0.9543-1.4996 0.68164-0.9543-1.0906-2.9992 0.9543-0.9543"/>
   <path d="m119.93 87.924 0.25661 3.8491-0.76983 4.6189-4.1057 7.1849 0.76982 0.76981-1.283 2.8227 0.51321 1.7962-1.5396 1.7962v1.7962l-2.3094 1.283 0.5132 1.7962-1.7962 2.8226v2.8227l1.7962 3.5925 0.51322 2.3094 2.3094 5.3887-1.283 3.5925"/>
   <path d="m119.93 87.924 1.7749-1.2908-1.2908-1.1295-2.0976-0.48406-2.0976-0.32271-1.6135 0.96812-1.2908 1.7749 0.16136 2.2589-0.16136 1.9362-4.8406 1.2908-4.8406 3.5498-5.1633 0.64541-1.6135 0.96812-1.9362-0.64542-1.1295 0.96812-1.9362-0.64541-2.5816 0.80676-2.0976 0.16136 2.0976 0.96811-0.32271 1.9362-1.6135 0.16135-3.0657 2.2589-2.4203 2.2589"/>
   <path d="m82.061 106.1 0.87221 2.1805 2.1805 0.14535 2.1805 1.5991 0.14537 1.1629-1.163 1.3083-1.3083 7.9953-0.29074 3.3435-1.3083 3.3435-1.0176 1.163 0.72684 2.1805-0.58148 3.3435-0.87221 1.7444 0.72684 1.3083-1.0176 0.87221-0.14536 3.1981-0.72685 2.762"/>
  </g>
 </g>
 <g fill-rule="evenodd" stroke-width=".26459">
  <ellipse cx="82.054" cy="106.48" rx="1.153" ry="1.2137"/>
  <ellipse cx="62.028" cy="147.38" rx="1.153" ry="1.2137"/>
  <ellipse cx="123.2" cy="43.489" rx="1.153" ry="1.2137"/>
  <ellipse cx="163.25" cy="18.487" rx="1.153" ry="1.2137"/>
  <ellipse cx="254.77" cy="176.51" rx="1.153" ry="1.2137"/>
  <ellipse cx="113.61" cy="135.85" rx="1.153" ry="1.2137"/>
  <ellipse cx="12.994" cy="163.16" rx="1.153" ry="1.2137"/>
 </g>
 <path d="m159.03 84.374-0.99188 0.33062 0.33063 1.1572 1.3225 1.1572-0.82656 0.49594-1.3225 0.82656-0.82656 1.9838v1.9838l-1.9838 3.3063 0.99188 1.9838 1.1572-1.1572 1.3225 0.33062 3.3063 4.2982 0.66125 1.4878-0.33062 0.82656 2.3144 2.9756 3.3063 0.99188 1.8184 1.6531-0.33063 1.1572-1.3225 3.6369 0.16532 0.82657 1.1572 0.49595 0.49594 1.6531 0.49594 0.66126 1.6531 1.4878 2.8103 4.2981 2.3144 1.9838 1.1572 2.8103 3.9675 2.4797-0.66124 0.99188" fill="none" stroke="#f99" stroke-width=".5px"/>
 <path d="m158.55 84.491-4.0544-0.27962-2.5166-0.41942-2.2369 0.27962h-4.7535l-1.1185 0.27962-2.3767-0.41942-1.5379 0.83885-1.8175 0.69904-0.83884 0.97866-1.3981 0.1398-2.6564 0.13983v1.1185l-2.0971 1.1185-1.8175 0.27963h-6.1516l-1.3981-0.13982-0.83886-0.41942h-0.97865" fill="none" stroke="#f99" stroke-width=".5px"/>
 <g stroke-width=".26459">
  <ellipse cx="120.29" cy="88.396" rx="1.153" ry="1.2137" fill-rule="evenodd"/>
  <g font-family="sans-serif" font-size="3.5278px" letter-spacing="0px" word-spacing="0px">
   <text x="156.09071" y="15.452229" style="line-height:1.25" xml:space="preserve"><tspan x="156.09071" y="15.452229" stroke-width=".26459">Rourkela</tspan></text>
   <text x="124.1135" y="48.238457" style="line-height:1.25" xml:space="preserve"><tspan x="124.1135" y="48.238457" stroke-width=".26459">Jharsuguda</tspan></text>
   <text x="161.06693" y="89.609833" style="line-height:1.25" xml:space="preserve"><tspan x="161.06693" y="89.609833" stroke-width=".26459">Debgarh</tspan></text>
   <text x="125.67699" y="92.625549" style="line-height:1.25" xml:space="preserve"><tspan x="125.67699" y="92.625549" stroke-width=".26459">Sambalpur</tspan></text>
   <text x="69.067795" y="104.05296" style="line-height:1.25" xml:space="preserve"><tspan x="69.067795" y="104.05296" stroke-width=".26459">Bargarh</tspan></text>
   <text x="97.347206" y="132.21098" style="line-height:1.25" xml:space="preserve"><tspan x="97.347206" y="132.21098" stroke-width=".26459">Sonepur</tspan></text>
   <text x="56.809341" y="152.2372" style="line-height:1.25" xml:space="preserve"><tspan x="56.809341" y="152.2372" stroke-width=".26459">Balangir</tspan></text>
   <text x="7.5327711" y="168.50087" style="line-height:1.25" xml:space="preserve"><tspan x="7.5327711" y="168.50087" stroke-width=".26459">Nuapada</tspan></text>
   <text x="228.5491" y="177.72508" style="line-height:1.25" xml:space="preserve"><tspan x="228.5491" y="177.72508" stroke-width=".26459">Bhubaneswar</tspan></text>
  </g>
 </g>
 <path d="m159.04 84.376 9.4103 1.9303h2.4129l1.689-2.6542 3.1368-1.2065 3.1368 0.96516h5.3084" fill="none" stroke="#f99" stroke-width=".5px"/>
 <path d="m71.767 65.617 3.6683 2.201 2.9346-1.7119 1.9564-2.4455 0.4891-2.6901 0.73366-0.97821 0.73366-0.73366 0.97821-0.48911 1.4673 0.73366 0.97821 0.24456 1.9564 2.201h2.9346l2.6901 1.2228 1.9564 1.9564 2.201 4.1574h-3.1792l0.73367 0.73366-1.2228 2.4455 1.7119-1.7119 1.7119 1.4673 1.2228-0.48911 1.4673 2.4455-0.73366 1.7119 0.24453 1.7119 2.9347 1.9564-0.48912 2.201 1.7119 0.97821 1.7119 0.4891 1.2228 0.24456 1.4673 0.73366 0.97821-0.73366 0.73366-1.2228 0.48912-3.1792h0.97821l1.7119 1.4673 1.7119 0.48911-1.9564-1.7119v-1.7119l0.73367-0.97822h2.4455l2.4455-1.2228 1.7119 0.4891 2.201-2.201v-0.73366l0.97822-1.2228 1.4673 0.73366 0.97821-2.9346-2.6901-0.24456-0.97822-1.7119-1.2228-3.4237-0.24455-2.201 3.1792 0.48911 0.73365 1.2228h1.2228l-0.97821-1.2228 0.73366-0.97822h-1.2228l-2.6901-0.4891-0.4891-1.7119-0.73366 0.24455h-1.7119l-0.97819-1.2228v-1.7119l-0.97822-0.97822-0.97821-0.4891 2.9346-2.4455-0.48909-1.2228-0.24455-1.4673 0.97822-5.3802 0.9782-2.9346 3.6683-0.97821 1.4673-2.6901 0.73365-0.73366v-0.73366l-1.7119-2.201-0.24454-1.4673-1.7119-1.2228 0.24455-2.6901-0.48911 2.6901 1.7119 2.201 1.2228 1.9564-1.9564 3.9128-3.6683 1.9564-1.2228 5.8693-0.97821 3.9128 1.2228 0.73366-3.9128 3.1792 2.4455 1.7119-0.73364 0.97821 2.4455 3.4237 0.24456 0.97822-1.9564 0.24455 1.7118 1.2228 0.97824 1.7119-0.97824 0.4891 1.2228 1.9564-0.4891 1.7119-2.201-1.7119 2.4455 3.9128-1.2228 0.24456-0.73366-0.48911 0.24456-1.2228-1.7119-0.48911h-0.48912v0.73366l-1.2228 0.24456-1.024-0.59435-0.77868-0.25956-0.38935-1.2978h0.64891l1.2978 0.12979h0.51911l-0.12971-0.77868-0.51913-0.51912 0.12973-0.90846h0.90846l-0.12972-0.90846-0.25956-0.38934-0.90847-0.12979 0.12973-0.77868 0.64888-0.25956v-0.25956l-0.77867-0.90846-1.2978-0.90846-0.77867 1.6871 0.5191 0.25956-0.64889 0.38934-0.51915-0.38934-0.1297 0.77868v0.77868h-0.64888v-1.0382l-0.38935-0.38934 0.12971-1.2978-1.168 0.77868-0.77867 0.12978v1.2978l-0.38935 0.12979-0.12972-0.90847-0.25957-0.38934-2.2062 0.12979 1.4276 1.8169 0.90843 1.8169 1.4276 1.0382-0.38935 1.168-2.8552-3.3743-1.2978-0.90846 0.25957 0.90846-1.0383 1.2978-1.168-0.12979v-1.9467l-1.9467-1.4276-0.12972-0.6489 2.7254-3.1147-0.5191-0.38934-2.336 1.168-0.25957-2.0765-0.38933-0.6489-1.5574 2.4658-0.25956-1.8169-1.4276 0.51912-0.51913-2.0765-1.168 0.90846-0.25957-1.168h-2.0765l0.12978-2.2063-1.4276-0.38934 0.38934 0.90846-1.2978 1.5574-1.168-1.6871v-0.12979l-1.5574 1.0382-1.4276-0.38934-1.6871-0.6489h-0.77868l0.38934 0.90846 1.0382 0.77868h-1.4276l0.12978-0.6489-1.5574 0.38934-0.12979-0.77868v-1.168l-1.6871 2.0765 1.5574 0.51912-1.2978 1.168-0.25956 3.3743-3.1147 3.6338-1.168 0.90846z" fill="#85c5e3" stroke-width=".40102px"/>
 <text x="101.58106" y="73.963501" fill="#000000" font-family="sans-serif" font-size="3.5279px" letter-spacing="0px" stroke-width=".26459" word-spacing="0px" style="line-height:1.25" xml:space="preserve"><tspan x="101.58106" y="73.963501" fill="#f9f9f9" font-size="2.1167px" stroke-width=".26459">Hirakud Dam</tspan></text>
 <ellipse cx="115.83" cy="93.207" rx="1.153" ry="1.2137" fill="#f60"/>
 <ellipse cx="121.01" cy="97.092" rx="1.153" ry="1.2137" fill="#f60"/>
 <text x="119.52891" y="101.34783" fill="#000000" font-family="sans-serif" font-size="3.5279px" letter-spacing="0px" stroke-width=".26459" word-spacing="0px" style="line-height:1.25" xml:space="preserve"><tspan x="119.52891" y="101.34783" font-size="2.1167px" stroke-width=".26459">Huma Shiva Temple</tspan></text>
 <ellipse cx="183.73" cy="48.985" rx="1.153" ry="1.2137" fill="#0ff"/>
 <text x="171.15207" y="53.240231" fill="#000000" font-family="sans-serif" font-size="3.5279px" letter-spacing="0px" stroke-width=".26459" word-spacing="0px" style="line-height:1.25" xml:space="preserve"><tspan x="171.15207" y="53.240231" font-size="2.1167px" stroke-width=".26459">Khandadhar waterfall</tspan></text>
 <ellipse cx="38.116" cy="144.83" rx="1.153" ry="1.2137" fill="#f60"/>
 <text x="31.640005" y="149.64047" fill="#000000" font-family="sans-serif" font-size="3.5279px" letter-spacing="0px" stroke-width=".26459" word-spacing="0px" style="line-height:1.25" xml:space="preserve"><tspan x="31.640005" y="149.64047" font-size="2.1167px" stroke-width=".26459">Harishankar Temple</tspan></text>
 <ellipse cx="38.301" cy="130.77" rx="1.153" ry="1.2137" fill="#f60"/>
 <text x="27.199303" y="127.80702" fill="#000000" font-family="sans-serif" font-size="3.5279px" letter-spacing="0px" stroke-width=".26459" word-spacing="0px" style="line-height:1.25" xml:space="preserve"><tspan x="27.199303" y="127.80702" font-size="2.1167px" stroke-width=".26459">Nrusinghnath Temple</tspan></text>
 <ellipse cx="154.68" cy="81.55" rx="1.153" ry="1.2137" fill="#0ff"/>
 <ellipse cx="157.09" cy="81.55" rx="1.153" ry="1.2137" fill="#0ff"/>
 <text x="159.49522" y="81.36467" fill="#000000" font-family="sans-serif" font-size="3.5279px" letter-spacing="0px" stroke-width=".26459" word-spacing="0px" style="line-height:1.25" xml:space="preserve"><tspan x="159.49522" y="81.36467" font-size="2.1167px" stroke-width=".26459">Pradhanpat waterfall</tspan></text>
 <text x="142.84259" y="79.329353" fill="#000000" font-family="sans-serif" font-size="3.5279px" letter-spacing="0px" stroke-width=".26459" word-spacing="0px" style="line-height:1.25" xml:space="preserve"><tspan x="142.84259" y="79.329353" font-size="2.1167px" stroke-width=".26459">Kurudkut Waterfall</tspan></text>
 <ellipse cx="8.6964" cy="142.24" rx="1.153" ry="1.2137" fill="#f60"/>
 <text x="5.550878" y="145.93988" fill="#000000" font-family="sans-serif" font-size="3.5279px" letter-spacing="0px" stroke-width=".26459" word-spacing="0px" style="line-height:1.25" xml:space="preserve"><tspan x="5.550878" y="145.93988" font-size="2.1167px" stroke-width=".26459">Yogeswar Temple</tspan></text>
 <ellipse cx="115.83" cy="134.47" rx="1.153" ry="1.2137" fill="#f60"/>
 <text x="116.18607" y="131.88576" fill="#000000" font-family="sans-serif" font-size="3.5279px" letter-spacing="0px" stroke-width=".26459" word-spacing="0px" style="line-height:1.25" xml:space="preserve"><tspan x="116.18607" y="131.88576" font-size="2.1167px" stroke-width=".26459">Sashisena Temple</tspan></text>
 <text x="107.502" y="95.981995" fill="#000000" font-family="sans-serif" font-size="3.5279px" letter-spacing="0px" stroke-width=".26459" word-spacing="0px" style="line-height:1.25" xml:space="preserve"><tspan x="107.502" y="95.981995" font-size="2.1167px" stroke-width=".26459">Ghanteswari Temple</tspan></text>
 <ellipse cx="158.39" cy="84.974" rx="1.153" ry="1.2137" fill-rule="evenodd"/>
</svg>
