<svg width="307.57mm" height="267.21mm" version="1.1" viewBox="0 0 307.57395 267.2098" xmlns="http://www.w3.org/2000/svg">
 <g fill="none">
  <g transform="translate(-2.0074 -2.6248)" fill="#c2f0c2" stroke="#fff" stroke-width=".5">
   <path id="Gajapati" d="m183.29 119.08 1.9492 0.86487 1.7817-0.40128 2.1632-3.1654 2.533 1.5752 0.71873 1.9766-0.38145 3.0732 0.38145 3.1654 0.34893 0.3614 1.477 3.1255 0.71643 3.4745 1.4351 2.7666 2.1632 0.78762 1.7817 1.9391-2.4981 4.3021-3.6309 2.2881 1.8166 5.0496 5.4126-4.2621h3.2146l1.0978 3.8758 0.23493 5.2964-0.4815 0.55579-0.16748 0.40132-0.48149 0.15436-0.38143 0.15705-0.48148 0.30905-0.1675 0.39882-0.0999 0.55829-0.75132 0.2318-0.41399 0.11748-0.16998 0.40131-0.1675 0.59321-0.13495 0.4761-0.44893 0.0397-0.0674 1.0718-0.3466 0.70783-0.78386-0.63312-1.0979-0.86731-0.9304-0.26921-0.85128-0.0398 0.48146 0.47855 0.41636 1.5753 0.54894 0.63307 0.61404 0.55586-0.4815 0.47603-0.99778 0.32401-0.41407 1.0219 0.16729 0.55582 0.0676 0.7079 0.38145 0.23423 0.23494 0.55587-0.0997 0.36137-0.51635 0.75024-0.38147-0.23179-0.31402-0.15705-0.48146 0.51593-0.13495 0.59566h-0.48153l-0.78385-0.23423-0.6164 0.32398-0.0325 0.39882 0.58148 0.30903 0.71877 0.47859 0.16998 0.86489-0.71877 0.47854-0.58149-0.67048-0.6489-0.4387-0.68387 0.30905-0.035 0.63308 0.61637 0.55586 0.58152 0.11748-0.16748 0.75023-0.78385 0.19398-0.58379-0.2716-0.5164-0.71043-0.41401-0.51593-0.71641 0.43867-0.13497 0.63312 0.0676 0.63308 0.38145 0.5558 0.34888 0.23433 0.5815 0.70783v0.94465l-0.20232 0.63305-0.3815 0.4761-0.68379 0.27167-0.58152 0.43871 0.34657 0.63307 0.13495 0.47601-0.0349 0.63314-0.34658 0.40126-0.64895-0.077-0.58381-0.23184-0.64894-0.40122-0.48149-0.30909-0.51638 0.39878-0.0999 0.94461-0.26748 0.39879-0.71642 0.39881-0.99783-0.0771-0.68386-0.55579-0.54894-0.5559-0.75125-0.0771-0.7513 0.23426-0.78386 0.47606-0.88389 0.63307-0.51635 0.47859-0.71642-0.39878-1.2328-0.15706-0.81876 0.5184-0.0349 0.63308-0.0349 0.5957-0.75128 0.15455-0.99785-0.55585-0.58384-0.0795-0.2675 0.15476-0.51404 0.39879-0.44891 0.15705-0.9304-0.077-1.0978-0.94462-0.61406-0.86489-0.54895-0.6331-0.48148-0.59319-0.20232-0.27172-1.1327-0.23173-1.3677 0.51589-0.99785 0.19398-0.85131 0.23186-0.88385-0.0771-0.58383-0.55582-0.68384 0.0771-0.71874 0.47599-0.78385 0.55589-0.44892 0.08-0.38145-0.15435-0.78387-0.5558-0.38147-0.71037-0.44657-0.43871-0.23726-0.55828-1.3677 0.59569-0.44658 0.23176-0.16747-0.26917-0.3489-0.48099-0.41404-0.36143-0.78384-0.19399-0.7513-4.3793-2.2958-2.6097-0.65129-3.4745 0.78387-0.15435 0.81873 0.71038 0.93041 0.78756 0.71641 0.63314 0.78386 0.63306h0.41636l0.74897 0.15686 0.314-1.0219-0.20236-0.94463 0.44659-0.47609 0.85364-0.15476 0.68384 0.15476h0.48148l0.37913 0.0771 0.27912 0.23179 0.20238 1.0194 0.44891 0.51594 0.93041-0.1942 0.81875-0.59317 0.6815-0.75028 0.8862-1.0219 0.13253-0.78761-0.30237-0.47861-0.8513-0.63304-0.75131-0.40126-0.44892-0.86491 0.13492-0.55582 0.68617-0.2318 0.58149-0.3215 0.54895 0.15435 0.414 0.40129 0.64897 0.15434 0.68384 0.40132 0.58383 0.31146 0.48149-0.55571-0.13496-1.022-0.64897-1.2263-0.38146-0.51596-0.10227-1.3434 0.75129-0.40129 0.58384-0.15706 0.0999-0.39877-0.48148-0.5558-0.38147-0.55585-0.7164-0.47608-0.78385-0.63304-0.48381-0.55582v-1.2662l-0.16747-0.55582 0.20238-0.63312 0.48148-0.78763-0.1-1.0219-0.75129-1.0194-0.3489-0.79013-0.16747-0.51596 0.48149-1.0718 0.64894-1.2661 0.8513-1.0194 0.38148-1.189 0.44657-0.90473-0.54892-1.2263-0.0651-0.47851 0.64895-0.32406 0.58382-0.26918 0.34658-0.98204 0.10248-0.63307-0.2698-1.4207-0.68384-0.78758-0.68384-0.7876-0.85133-0.15685-0.41401 0.47856-0.23492 0.3091-0.58152-0.23179-0.75129-0.47856-0.81875-0.94464-0.51637-0.47858-0.34656-0.23175-0.16747-0.71284-0.41403-0.55587 0.13495-0.59566 0.31402-1.3808 0.13493-0.79008 0.51405-1.0194 0.51638-0.71037 0.34657-0.63305v-1.0194l-0.23495-0.5559-0.16744-0.7128 0.0349-0.55332 0.54895-0.43869 0.41401-0.40129 0.1-0.90228 0.1-0.55582-0.58151-0.63308-0.64894-0.48105-0.71642-0.55577-0.6815-0.78764-0.54894-0.86484v-0.71288l0.2698-0.90474-0.1-0.71036 0.0326-1.2263-0.0326-1.1889 0.51404-0.23431 0.34888-0.19209 0.58149 0.0374 0.78619 0.40132 0.64894 0.71036 0.31403 0.63303 0.41401 0.0775 0.9304-0.78759h1.4374l0.4466-0.077 0.7513-0.90474 0.75129-0.51849 0.51404 0.26919 0.61639 0.36391 0.88389 0.15456 0.5838-0.23177 0.58385 0.23177 0.75127 0.55591 0.64897-0.23186 0.48148-0.1944 0.99788 0.0398 0.75127 0.15475 0.41402 0.40132 0.54894 1.1091 0.38147 1.2662 0.38148 0.59324 0.78383 0.19418 0.96297-0.0771 0.31401-0.0774h0.51636l0.7513 0.3988 0.38148 0.51593 0.68386 0.36393 0.81874 0.23178 0.31167-0.23178v-0.73028z" fill="#95c279"/>
   <path id="Malkangiri" d="m56.824 208.5-4.4147-3.2801-2.1632-0.75022-2.4981-0.78768-0.7164-1.1889-2.2305-1.9391-2.1306 1.0718-1.2002 0.94466-2.0935 1.0219-0.85131 0.51596-1.8492 2.2482-1.5468 1.4207-1.163 1.8619-2.6331 1.5353-0.8862 0.5957-0.78385 0.86488-0.16747 1.6924-0.09996 2.1335 0.16747 2.2109-1.2328 0.90473-1.2328-0.19418-2.7121 0.23175-1.3002 2.0538-0.81643 1.8993-1.5468 1.822-1.5793 0.5932-1.8143 0.77759-0.8862 1.5354-1.0304 0.75022-1.2002 0.40128-1.4002 1.1888-0.81643 1.6526-0.38146 1.2662 0.06745 0.94465 0.03255 1.3434 0.13491 2.131 0.31401 2.5324-0.31401 1.9765-0.38147 1.6924-0.31401 1.5378-0.64894 1.2662-0.64895 1.0194-0.10234 2.0538-0.23492 1.7846-1.0979 1.7821-0.58149 2.844-0.61639 2.2856-0.88389 2.3653-1.8143 1.3833-1.8492 1.0195-0.38146 0.11748-0.034901 1.1889 0.41636 1.346 0.54893 1.149 0.64895 2.4527 0.26981-2.2482 1.1653-0.39881 0.85131-0.55574 0.7164-0.7876 0.51404-0.3116 0.51637-0.36142 0.54893 0.27167 0.13257-1.0219 1.2677-1.2661 0.7164-1.1889 0.8862-1.306 1.0304-0.51592 1.063-0.40132 1.0304-0.3215 1.2328-0.0767 1.0653-0.67295 0.6815-0.673 0.8862-0.43869 0.48148-0.36139 0.7164-0.31153 1.3002 0.0771 0.99785-0.55583 0.61638-0.30907 0.54893 0.0373 0.54894 0.43874-0.54894-0.43874 1.0979-2.2082 0.20238 0.90473 0.64897-0.90473 0.03255-0.75028-0.06743-1.0194-0.03255-0.71038 0.26982-1.0194 0.78385-0.2318 1.0979 0.39882 0.65128 0.55576 0.51404-0.0397 0.41636-0.51596 0.31401-0.71032 0.58149-0.4013 0.8862-0.15476h0.58149l0.65128-0.63313 1.3002 0.15435 0.75129 0.36393 0.99785 0.5932 0.44658 0.43868 1.0979-0.0372 0.81875-0.15435 0.78387 0.47853 0.96529 1.1092 0.51404 0.59567 0.78385-0.27168 0.58383 0.15706 0.68384 0.98205 0.99785 0.75018 0.9304 0.63309 1.0304-0.36388 0.61639-0.59323 0.30237-1.0219-0.20238-1.1889-0.13493-1.1092 0.27912-1.0219 0.44892-0.86491 0.30237-0.31154 0.44892 0.79011 0.16745 1.2662 0.48148 0.86492 0.88388-0.31158 0.28143-0.63315 0.20236-0.55577 0.48381 0.19231 0.71642 0.36138h0.41636l0.44658-0.43865-0.09999-0.98201 0.38146-1.0219-0.64894-1.1092-0.41636-0.94463-0.06745-1.0717 0.16747-1.0718-0.03258-1.1116 0.03258-0.7104 0.34891-0.15435 0.75129 0.47613 0.78619 0.67296 0.23492-1.1491-0.28143-0.86487-0.96296-0.8649-0.61639-0.15683-0.61639 0.11721h-0.4466l-0.31401-0.74775-0.68384-0.47857-0.51637-0.78763 0.20236-0.78762 0.7513-0.31156 0.61405-0.63307 0.20236-0.63308-0.61639-0.23179-0.64894-0.63309 0.48148-0.47853 0.16745-0.43871 0.26982-0.90472-0.06741-1.1889 0.75129-1.0743 1.0979 0.15435 1.1979-0.67049 0.68384-0.55582 0.13253-0.86492 0.0349-0.63304 0.68384-0.63306-0.27912-0.47608-0.64894-0.4013-0.54893 0.15477-1.063 0.40131h-0.8862l-1.0304-0.75029 0.31633-0.47606 0.64894-0.27159 0.28145-0.82506 0.41402-0.75025 0.99785-0.75021 0.48148-0.59322 0.48148-0.23179-0.54893-0.86492-0.7164-1.2661-0.9304-1.0194 0.03254-0.7901 0.65128-0.63306 0.58149-0.94211 0.64894-1.498 0.96296-0.86484 0.61639-0.63313 0.20236-0.86488 0.20003-0.55583 0.65128-0.94213 0.38147-0.55582 0.38146-1.0718 0.41402-0.82747z" fill="#e2b584"/>
   <path id="Koraput" d="m61.588 154.71 8.1224-3.2428 4.3123 0.40128 2.1632 1.5778h4.3146l3.5984-1.9765 4.3123 1.1889 2.1631 0.78765h4.324l4.3146 2.2856 1.0979 3.5542-0.38147 3.4745h1.4351l3.5961-4.2623 2.198-2.3653 5.7592-0.40125-0.71639 3.9529-1.0979 2.6869 1.8142 0.39883 2.8796-3.8758 3.2169-0.78759 1.2328 4.8976-0.96297 0.0775-0.41402 0.51838-0.41402 0.67297-0.26982 1.0219-0.61639-0.23182-0.48147-0.0771-0.16748 0.4013 0.51638 0.82496 0.68384 0.67296 0.54894 0.86486 0.58148 1.4207-0.7513 0.2318-0.20235 0.94464 0.38146 0.70783 0.68383 0.0771 0.41404-1.2661 0.13252-1.0195 0.16747-0.82746 0.64895-0.43867 0.75129 0.71034 0.16984 0.78765 0.20003 0.59313 0.64895 0.51595-0.16746 0.63314-0.75132 0.32398v-0.71034l-0.58147-0.47851-0.51405 0.55576 0.0652 0.86491 0.23725 0.74773 0.31401 0.4387 0.64897 0.15686 0.78387 0.2318 0.26748 0.94465 0.0349 0.86487 0.71408 0.43867 0.93039 0.36144 0.38148 0.78762h-0.96295l-0.38148 0.78759 0.0326 0.94216-0.0674 0.23424-0.81643 0.15434-0.78385-0.71034-0.7164 0.0775-0.65128 0.55587 0.71639 0.51589 0.38147 0.55582-0.31401 0.36138-0.23493 0.55587-0.48147 0.5957-0.54894 0.15707-0.34656 0.27168-0.34892 0.0772-0.88387 0.19419-0.99785 0.15436-0.85132 0.31154-0.96295 0.5184-0.38147 0.71289 0.0326 0.23175 0.41402 0.23183 0.41636 0.47604-0.75129 0.74776-1.2677 0.0424-0.9304 0.15456-0.88388-0.39881-0.71873-0.15434-0.38145-0.0796 0.38145 0.82753 0.16982 0.9446-0.1 0.75025-0.13494 0.86486-0.44658 0.90228-0.58382-0.7502-0.23495-0.94463-0.64895-0.55587-1.2002 0.077-0.48149-0.51591-0.58382-0.59327-0.58382-0.15705-0.61405-0.23175-0.51638-0.47857-0.41403-0.39875-0.96529 0.15434-0.44658 0.63308-0.20236 0.71281 0.16746 0.47611 0.0348 0.55578-0.48148 0.55583-0.64895 1.1889-0.71641 1.1889-0.64895 1.149-1.1304 1.6151-0.54893 1.7447-0.03494 0.71037 0.06745 0.5558-1.5002 0.78761-1.1653 0.31158 0.48148 0.94213 0.37912 0.78765-0.09998 0.7502-0.38147 0.55581-0.44892 0.7876 0.38146 0.27171 0.5815-0.27171 0.71641-0.51838 0.65128-0.26922 0.5815 0.43869 0.03494 0.67048-0.44892 0.4013-0.7513 0.26913-0.68617 0.31157-0.06516 0.55583 0.06516 0.40126 0.54892 0.47861 0.58383 0.79005 0.38146 0.32156 1.0304 0.31156 0.71639-0.44118 0.81875-0.75024 0.75129 0.63313 0.13493 0.63307-0.28145 0.86484-0.41402 0.75022-0.44892 0.51846-0.61639 0.71041-0.34657 1.0194-0.41403 1.1889-0.34657 0.71033-0.51636 0.55587-0.48148 0.78762-0.96296 0.47853-0.23726 0.94213 0.7862 0.44116 0.85129 0.0372 0.06745 0.63305 0.26982 0.55584 0.31402-0.32394 0.34658-0.47857 0.58382-0.15476 0.23492 0.59572-0.0674 0.67047-0.0675 0.63306 0.1 0.32401 0.31402 0.26921 0.51636-2.1709 0.31168 2.455 0.0349 0.35887-0.1 0.67299-0.54893 0.55581-0.51637 0.23178h-0.48153l-0.64895-0.43865-0.68384-0.63308-0.58382 0.0372-0.99552 1.0219-1.0327 0.75027-1.1304 0.36138-1.2328 0.55583-1.5003-0.31157-0.64894 0.15707-0.68384-0.0397-0.93039-0.63307-0.71874-1.149-0.26748-1.1116 0.10227-0.86487-0.96527 0.32404h-1.0978l-0.8862-0.39883-0.71642-0.0796-0.64894-0.23182-0.03253-0.7103-0.54893-0.39883-0.7164-0.40131 0.10231-0.32149-0.10231-0.51841-1.1304 0.32398-1.2328 0.78761-0.78385 1.1515 0.61407 0.94469 0.41636 0.63308-0.58383 1.3434 0.06745 0.7876v1.1116l-0.16747 0.71035-1.1328 1.0219-0.25818 0.51595-0.75129 0.0372-0.13493 0.51844-0.44892 0.78757-0.88388 0.2318-1.0304 0.19398-0.7164 0.55581-0.34891 0.51847-0.41402 0.5558-0.41636 0.4013-0.54893 0.47853-0.8862 0.78762-0.5815 0.55583-0.64896 0.63307-0.23726 0.71034 0.06743 0.78766-0.30239 1.1889-0.61638 0.67042-1.2002 0.67052-0.44892-0.0771-0.23492-0.34896-0.51404-0.7876-0.9304-0.90482-0.81643-0.82495-0.13493-0.59567 0.06744-0.74777 0.03255-0.63312-0.51404-0.90473-0.41402-0.47606 0.20005-0.32404 0.13495-0.48105 0.41402-0.23177 0.58383-0.40131 0.16745-1.0194-0.20238-0.71288-0.03255-0.75014-0.34657-0.78767-0.64894-0.51843-0.99552-0.55583-0.8862-0.31155-0.75129-0.15206-0.64895-0.11748-0.38144-0.51562v-0.78769l0.48148-0.86484 0.20238-0.59573-0.31401-0.59319-0.3489-0.23427-0.44659-0.36139-0.64896-0.43872-0.54893-0.86488-0.27912-0.74775 0.09999-0.27168 0.27912-0.23179 0.30237-1.0194 0.03255-0.86491-0.16747-0.82742-0.48147-0.67303-0.58383-0.27165-0.7513-0.0771-0.61638 0.11748-0.61639-0.47853-0.41402-0.825-1.0304-0.51594-4.4147-3.2826-2.1631-0.75015-2.4981-0.78765-0.7164-1.1889-2.2282-1.9391 0.34657-0.98207 1.0653-1.3459-0.06741-0.8649-0.85131-0.94213-1.4677-0.32407-0.99783-0.67295-0.9304-0.43867-0.38146-0.7876 0.9304-2.2881 1.2653-1.6549 1.9492-1.822 1.3002-0.94215 2.1609-1.1888 1.5119 0.23423 1.6794-0.23423 1.3002-0.67301 0.64897-1.2662 1.1304-1.149 1.3351-0.98203 2.0958-0.67293 1.4328-0.94217 0.78619-1.655 0.03255-0.94218-0.09999-1.3434-0.51637-1.1889-0.20236-1.1117 0.34891-1.4606 0.44892-0.90475 1.5793-0.71032 0.85133 0.15705 1.2653 0.55578 0.61638-0.63307 0.44892-1.2662-0.54893-0.63301-0.58149-1.498-0.99785-1.5379-0.58149-2.2856 0.31168-0.82754 0.09999-1.2662-0.16749-2.2881-0.64894-0.55582-0.96296-1.6151 0.13495-0.63307-0.06744-1.2263z" fill="#e9a0a0"/>
   <path id="Rayagada" d="m129.34 87.089-2.0515-0.3614-2.1608 2.7242-2.1632 2.7641v5.8522l2.8796 2.7641 0.71641 6.2786-2.1609 5.4908-1.0979 5.4908v3.1255l-3.5984 1.5752-1.7817-0.40129-0.38149 3.5517 2.1632 6.2412-0.34657 2.3653-3.2494 1.5778-1.0653-3.9555-3.2494-1.9366-1.0653 4.7034-2.8796 2.3653 1.4351 3.5143-0.38148 4.3021-2.533 3.9529-2.8796 2.7267-1.4351 2.3254-2.8796 1.5777 1.0979 3.5519-0.37915 3.4745h1.4328l3.5984-4.2621 2.1957-2.3652 5.7592-0.39883-0.71641 3.9532-1.0979 2.6869 1.8143 0.40132 2.8796-3.8758 3.2146-0.78766 1.2328 4.8953 0.41402 0.47859 0.20004 0.70789 1.0304 0.23174 0.68384-0.23174 0.61638-0.15436 0.30236 0.0799 0.34657 0.55331v0.55578l0.48149 0.55584 0.64897 0.3614 0.58383 0.67296 0.16746 0.67046 0.0674 0.36143 0.7513 0.40127 0.54894-0.23182 0.13494-0.94461-0.16744-1.1889 0.16744-1.498-0.0674-0.75021-0.16745-0.43869 0.41403-0.0772 0.64895 0.2343 0.78618 0.19229-0.0349-0.97949-0.48148-1.0717-0.38145-0.90233 0.31402-0.90476-0.20237-0.7901-0.0673-0.94467-0.16746-0.74771 0.41403-0.67295 1.0653 0.15707-0.0349 0.9422 0.20239 0.94462 0.71639 0.78758 0.38147 0.51592 0.1-0.74773 0.54894 0.32402 0.38146 0.59573-0.68152 0.75023-0.16982 0.43864-0.31169 0.94465 0.23492 0.30904 1.0979 0.55584h0.38146l0.71874-0.51841 0.0674-1.3036 0.44891-0.79015 0.41637-0.59566 0.20238-0.51594-0.23726-0.63308-0.13254-0.55584 0.34657-0.78759 0.61639 0.077 0.1 0.55582 0.20005 0.55583 0.13495 0.31154 0.44658-0.15685 0.54894-0.40129 0.48379-0.5932 0.13253-0.59578 0.20236-0.44107 0.75129-0.3091 0.68384-0.59321-0.41402-0.47857-0.48147-0.82746-0.31402-0.82751-0.23493-0.74773 0.85131-0.55584h0.68385l0.68383-0.19377-0.0674-0.70783 0.26981-0.63311 0.65127-0.47857 0.41404 0.63312-0.31402 0.86488-0.16748 0.75021 0.68384 0.36145 0.48378-0.23186 0.54895 0.23186 0.1 0.51592-0.9304 0.44114-0.20235 0.47858 0.71639 0.324 0.58383 0.27169 0.31402 0.36139 0.2349 0.39878-0.48381 0.47857 0.23727 0.75022 0.54892 0.59325 0.4466 0.15476 0.58381 0.36136 0.54894 1.1516 0.44892 0.55581 0.51638 0.5558-0.0675 0.55589 0.23726 0.67292 1.0304 0.11748 0.93041 0.0372 0.20238 0.47854-0.51637 0.67301-0.9304-0.0775-0.16749 0.32399 0.64894 0.71038 0.78385 0.71038 0.23492 1.1889 0.23492 0.36142 0.71873 0.98202 0.0325 0.63309 0.23494 0.90479 0.51637 0.86487 0.65128 0.27168 0.44891 0.59321 1.6817-0.90475-3.0146-4.342 3.0146-2.6097 0.85131 4.342 0.78385-0.15706 0.81874 0.71032 0.9304 0.78763 0.71873 0.63307 0.78386 0.63308h0.41634l0.75129 0.15436 0.31168-1.0194-0.20236-0.94213 0.44891-0.47854 0.85132-0.15476 0.68152 0.15476h0.48147l0.38147 0.077 0.27911 0.23179 0.20237 1.022 0.4466 0.5184 0.93041-0.19399 0.81874-0.59572 0.68152-0.74773 0.88621-1.0194 0.13254-0.78759-0.30238-0.47853-0.85131-0.63313-0.7513-0.40133-0.44891-0.86482 0.13495-0.55586 0.68384-0.23175 0.58149-0.32151 0.54893 0.15455 0.41402 0.39881 0.64895 0.15684 0.68384 0.3988 0.58384 0.30904 0.48146-0.55575-0.13494-1.0195-0.64895-1.2288-0.38146-0.51591-0.1-1.3434 0.7513-0.43869 0.58382-0.11468 0.0999-0.4013-0.48148-0.5558-0.38146-0.55582-0.7164-0.47855-0.78388-0.63314-0.48147-0.55581v-1.2636l-0.16747-0.55585 0.20238-0.63307 0.48148-0.78758-0.1-1.0194-0.75129-1.0219-0.34658-0.78764-0.16982-0.51842 0.4838-1.0718 0.64893-1.2661 0.85131-1.0195 0.38145-1.1889 0.44659-0.90472-0.54892-1.2288-0.0675-0.47606 0.65129-0.32401 0.5815-0.27165 0.3489-0.98202 0.10017-0.63311-0.26983-1.4207-0.68384-0.78759-0.68384-0.79015-0.85129-0.15477-0.41404 0.47604-0.2349 0.30907-0.58151-0.23177-0.75129-0.47856-0.81875-0.94465-0.51637-0.47857-0.34658-0.23427-0.16745-0.70782-0.41403-0.55584 0.13494-0.59569 0.31402-1.3833 0.13491-0.78767 0.51403-1.0219 0.51639-0.7103 0.34657-0.63307v-1.0195l-0.23492-0.55575-0.16747-0.71036 0.035-0.55587 0.54892-0.43862 0.41403-0.44121 0.10227-0.86484 0.1-0.55582-0.58147-0.63312-0.64897-0.4785-0.71874-0.55583-0.68149-0.79009-0.54895-0.8649v-0.70787l0.26982-0.90475-0.1-0.71039 0.0325-1.2288-0.0325-1.1889 0.51403-0.23178 0.34891-0.1942-0.13254-0.5932-0.44892-0.23179-0.1-0.79013 0.41401-0.23175 0.6164-0.15436v-0.9446l-0.44892-0.55589-0.51638 0.15436-0.64894 0.47851-0.81641-0.0767-0.7513 0.63308-0.93039 0.59321-0.61639 0.15685-1.0304-0.67296-0.58153-0.71037-0.48146-0.78761-0.23493-1.2662-0.5815-0.86489-1.2653 0.15433-0.48148-0.55584-0.48149-0.32403-0.61638-0.39883-0.68382 0.32407-0.78387 0.43868-0.61638 0.11454h-0.5815l-0.26983 0.86491-0.27912 0.78759-0.0325 0.8649-0.51637 0.86488-0.85131 0.6331-0.51637 0.43866-0.44658 0.51594-0.51638 0.55582-0.75129-0.59568v-0.82539l-0.61639-1.2686-0.38144-0.74771-0.68383-0.27165-0.58151 0.47854-0.48147 0.71029-0.58382 1.2263-0.58381-0.32401-0.44892-0.74774-0.31402-0.94466 0.0325-1.3035-0.41401-0.51598-0.48148-1.0717-0.9304-0.82503-1.0979-1.979-0.48148-1.1117 0.54893-0.55578 0.61639-0.55583 0.41402-1.0219-0.16748-0.59322-0.58148-0.94466-0.48148-0.82746-0.81873-1.1091-0.54895-0.78764-0.81873-0.79013h-0.48158l-0.5815 0.07972-0.51637 0.40128-0.51638 0.15477-0.38147-0.31156-0.26981-0.63308-0.314-0.94213-0.1-0.6331 0.34657-0.27168 0.41636-0.4387 0.1-0.4761 0.20238-0.71031 0.54894-1.1889 0.0675-1.189-0.44659-1.0218-0.58383-0.78763-0.81641-0.6331-0.48148-0.07717h-0.68383l-0.51404-0.30905z" fill="#85c5e3"/>
   <path id="Nabrangpur" d="m86.482 95.099-2.3957 3.3573-0.71874 5.5308 0.34891 5.8397-0.7164 3.9532 4.3474 5.0897 3.2146 1.9391 3.2494 5.1295 1.063 4.7032 1.8166 7.0687 5.3777 3.1255 0.38146 4.3019-1.0979 3.1628-2.4981 2.7267 0.34657 4.7032-4.3146-2.2856h-4.324l-2.1609-0.78758-4.3123-1.1889-3.5984 1.9765h-4.3123l-2.1609-1.5777-4.3146-0.39878-8.1224 3.2426-0.78385-0.71034-1.2653-0.78765-0.78387-0.47851-0.38147-1.498-0.23492-1.6898 0.20236-1.5404-0.23726-2.4524-0.51403-1.498-1.0304-2.3652 0.58151-0.47859 0.96296-0.43858 1.7817-0.36145 1.6491-0.47852 0.51404-1.0195-0.71642-1.4207-1.0979-0.63305-1.1653-0.47859-1.9492-0.47603-0.69548-1.139-0.20238-1.149 0.61638-1.1117 0.54893-0.4761 0.96296-0.63305 0.44892-2.455-0.8862-1.0194-1.063-0.0397-0.78385-0.19418-1.4002-1.0194-0.75129-2.1709-1.4002-2.9584-0.75129-1.2662-0.64895 0.15476-0.78385 1.189-0.61639 0.71028h-1.163l-0.99785-0.78758 1.1979-1.9765-0.23492-2.0538-0.64894-1.3435-0.68384-1.6525 0.54893-1.5004 0.75129-2.131 0.48148-1.4606-0.64895-2.3254-0.75129-2.3653-0.58149-1.822-0.03255-1.1889 0.61405-2.131 0.16982-1.1889-0.16982-1.0194-1.4328-0.23186-1.2002 0.15456-1.8817-0.6331-0.85131-0.39879-0.8862-1.1116-0.41402-1.7323-0.58149-1.3035-1.4677-0.82752h-0.8862l-1.4677-0.82747-1.6142-1.1515-1.4002-1.2263-0.41636-1.3833-0.23492-2.5722-0.06741-1.0194-0.0349-1.022 0.0349-1.3409-0.06743-1.5403-0.38146-1.8969 0.06741-1.3459 0.54893-0.5159 0.7164-0.98207 0.51637-0.55582-0.16745-0.71032 0.75129-1.3036 0.96296-0.44114h1.3351l1.5793 0.32403 1.8841 0.11721 2.1283 1.3808 1.1653 1.8993 0.99785 1.4606 0.68152 1.306 0.8862 1.1117 0.58383 0.3215 0.31401-0.55578 0.09996-0.98203 0.54893-0.44121 0.58149-0.03733 0.68384 0.43868 0.38147 0.86487 0.85131 1.3061 1.2653 0.7502 0.54893-0.98455 0.16745-0.90227 0.20236-0.86481 1.1677-0.23186 0.64895 0.70789 0.51404 1.1889 0.58383 1.022 1.1328 0.23175 0.48148-0.4013 0.85131-0.86485 0.44892-0.98205 1.1328-0.3614 1.063 0.70785 1.0653 1.1141 0.9304 1.2661 0.81641 0.82749 1.0304 1.5379 1.3002 2.844 1.5142 3.5917 1.1653 2.6496 1.6468-1.1864 1.0304-0.63312 2.1957-1.4979 1.8817-1.4207 1.8492-0.79006 1.5468-0.15435 1.8492-0.36142 1.0979-0.3988 0.8513-0.11722 1.0304 1.2263 0.9653 0.5184 1.1979-0.2318 1.5468-0.03983 0.78386 0.27168 0.06745 1.8993-0.85131 0.67043-1.1304 0.98207-0.31401 1.3434 0.16746 1.4232z" fill="#a69d98"/>
   <path d="m122.97 92.22v5.8522l2.8796 2.7641 0.7164 6.2786-2.1609 5.491-1.0978 5.491v3.1255l-3.5984 1.5753-1.7817-0.40131-0.38148 3.5516 2.1632 6.241-0.34657 2.3653-3.2494 1.5752-1.0653-3.953-3.2494-1.9366-1.0653 4.7034-2.8796 2.3653 1.4351 3.5145-0.38147 4.2994-2.533 3.9532-2.8796 2.7267-1.4351 2.3229-2.8796 1.5777-0.34657-4.7034 2.4981-2.7242 1.0979-3.1654-0.38147-4.3021-5.3777-3.1255-1.8143-7.0662-1.0653-4.7032-3.2494-5.1295-3.2169-1.9366-4.3474-5.0895 0.7164-3.9529-0.34657-5.8397 0.7164-5.5283 2.398-3.3572 0.64894 0.75019 0.71874 0.30909 0.44659 0.27166 0.54893 1.5353 1.1328-1.498 0.06745-1.0194-0.09998-1.0219 0.31401-1.1116 1.1328-0.26919 2.2633-0.44116 1.6119-0.47855 0.58382-1.2263 0.51404-3.3998-0.34657-2.0139-1.063-1.8993-0.85131-1.6151-0.58382-1.8992-0.23492-1.6151-0.64894-1.4207 0.81874-5.8026 2.8796-4.7032 0.38146-3.477 0.34657-3.5143-0.71639-2.3254-1.7166-4.5887-0.51404-0.23175 0.51404 0.23175 0.68618-0.47606 0.09998-0.78759 0.27913-0.47854 0.85131-0.32403 0.48148 0.15435 1.9817 0.71034h0.9304l0.71874 0.3614 0.93039 0.15435 0.61639 0.03713 0.44659-0.15476 0.61871-0.4786 0.7513-0.47852 0.54893-0.5957 0.41403-0.34893 0.75128 0.07947 0.58384 0.07696 0.75129-0.3215 0.65128-0.23432 0.78387-0.15477 0.37913 0.15477 0.51637 0.47858 0.31402-0.07947 1.0304 0.40135 0.71639 0.23177 0.81643 0.86481 0.75128 0.55592 0.54894 0.27163 0.68384-0.2318 0.51405 0.11722 0.64894-0.03963 1.0304 0.03963 1.0979-0.51596 0.93041-0.94461 0.20003-0.75028 0.3489-0.86485 0.51405-1.1889 0.61638-1.1117 0.23261-0.79014 0.54894-0.39876 0.61639-0.40126 0.68382-0.71038 0.71874-0.71034 0.68385-0.6331 0.96295-1.0194 0.64894-0.19398 0.7513-0.07717 0.75129 0.03713 0.7164 0.40126 0.7513-0.23177 0.1-0.90475-0.0326-0.63308 0.23492-0.94215 0.88389-0.78764 0.88619-0.47854 0.85131-0.51842 0.51637-0.67048 0.58149-0.75024 0.6164-0.86485 0.34889-0.86489 0.85131-0.51842 0.85132-0.59322 0.88385-0.94217 0.61639-0.63306 0.64895-0.4387 0.61639-0.74774 0.61637-0.51842 0.31402-0.03713-0.20238 0.71036-0.26748 0.94219 0.0674 0.94459 0.0674 0.6331 0.13266 0.43864 0.9653 0.6705 1.1328-0.15435 0.81876 0.3614 0.44658 0.43862 0.54893-0.71032 0.54892 0.1921 0.38148 0.27167 0.9304 0.476-0.44892 0.55588-1.063 1.2662-0.96295 0.5558-1.0653 0.78762-0.7164 0.47854-1.0979 0.43866-0.8862 0.19398-0.9304 0.15435-0.48147 0.47858-1.0304 1.6524-0.38147 1.0219-0.1 0.70789 0.30236 0.4785 0.51637 0.15164 0.54893-0.07508 0.38145 0.15476 0.48147 0.86489 0.54894 0.32403 0.68384 0.55586 0.99785 0.51836 0.7513 0.71038 0.88385 0.673 0.58383 0.78755-0.11402 0.58077-0.1 0.43866-0.0675 0.79014v0.4387l0.16745 0.62056 0.44892 0.19419 0.71639 0.44116 0.7513 0.63308 0.41403 0.23179 0.51637 0.39876 0.78385 0.71038 0.30238 0.51846 0.20235 0.51594 0.13495 0.5558 0.20237 0.86489 0.31401 1.149 0.44892 1.149 0.0349 0.86485v0.59572l0.0651 0.75022-0.23493 0.78759-0.31402 0.47858-0.48146 0.59568-0.34659 0.43862-0.20234 0.40135-0.13496 0.94213v0.71034l0.13496 1.2662 0.1 0.39876 0.48149 0.23432 0.27912-0.15706h0.48146l0.54894-0.15477 0.34657-0.07696 0.51636-0.15435 0.44894 0.39878 0.20238 0.23186 0.31167 0.27165 0.26983 0.67298-0.0674 0.94209-0.13496 0.55586-0.75129 0.75022-0.65127 0.6331-0.68154 0.36138-0.4838 0.86491-0.0326 1.149-0.0675 0.75024-0.23493 1.0718-0.27912 0.59572-0.41636 0.5558-0.48147 0.15497-0.51404 0.15706-0.64894-0.15706-0.71874-0.11743-0.48149-0.03713-0.3117 0.07717-0.48146 0.1921-0.23493 0.19398-0.44891 0.15497-0.51405 0.07696-0.20235-0.07696-0.48149-0.5558-0.51404-0.47854-0.54892-0.19398-0.7513-0.26919h-0.61638l-1.063-0.15706-0.58149 0.19398-0.3489 0.27167-0.31401 0.5558-0.34659 0.47608-0.48146 0.47854-0.23726 0.31158 0.0675 0.78759-0.54894 1.0194-0.34891 0.47856-0.48148 0.26915-0.54893 0.82749-0.31401 0.47602-0.54894 0.63312-0.38146 0.7129-0.48148 0.86479-0.23726 0.7104-0.34657 0.94213-0.23491 0.63308-0.13491 0.71286h-0.34657 0.34657l0.54893 0.3988-0.88389-0.3988-2.0515-0.36389-2.1632 2.7292z"/>
  </g>
  <g stroke="#000">
   <path d="m306.37 54.968-1.8139 1.3576-2.4105-0.24594-2.5273 1.0765-2.1294 1.5796-2.9604 2.4221-1.8839 1.8839-0.80738 1.8839-0.80737 2.153-4.306 4.0369-3.7677 3.4986-2.4221 1.8839-1.8839 0.80737-0.80737 2.6912-5.3825 4.5751-1.0765 0.26912-1.6148 2.4221-2.9604 1.6147-2.153 1.8839-0.53826 5.1134-1.8839 2.6912-2.6912 3.7677-0.80739 1.8839-1.0765 2.6912 0.26913 3.4986-1.6148 7.5355-5.6516 3.2295-3.7677 0.80737-3.7678 1.0765-3.7677 2.153-2.9604 1.8839-1.3456 1.8839-0.80735 1.8839-1.6148 2.6912-1.3456 2.4221-0.53824 2.9604-3.7677 3.2295-3.4986 4.5751-0.53825 2.153-0.80738 0.53825-1.0765 2.6912-1.0765 2.6912-2.4221 2.4221-2.153 2.4221-2.153 3.2295-3.7677 0.80738v2.6912l-0.53826 1.0765-1.8838 0.26914-3.7677 2.9604-1.6148 2.153-3.7678 2.4221-2.4221 3.4986-2.4221 3.2295-1.3456 1.6148-2.9604 4.0369-3.2295 1.6148-2.153 2.153-2.4221 2.6913-2.9604 2.6912-3.4986 0.26914-2.4221 2.153-4.0369 2.153-2.153-3.4986-0.53826-2.9604-1.8839-1.8839-2.9604-2.153-0.53824-0.80735-0.53825-1.8839-3.7678-0.53827h-2.153l-3.4986 0.26912-3.7677-0.80736-3.2295-0.80738-3.2295-0.80737-2.4221-1.0765-3.2295 0.80737-4.8442-0.80737-3.2295-1.0765-2.4221-1.0765h-7.2664l-1.0765 1.0765-0.53825 1.6147-1.8839-0.26913-1.6148-1.8839-1.8839-2.9604-1.0765-0.53825-2.4221-0.53824-1.3456-2.153-1.6148-0.53825-0.26912-1.8839v-3.7677l-2.4221-3.2295-1.8839-2.9604-1.3456-0.80738h-1.8839l-2.153-0.26913-1.6147-2.153-1.0765-1.8839-1.0765-2.4221v-4.306l0.26912-1.0765-0.53825-1.0765-1.3456 0.26914-3.4986-2.153-2.4221-2.153-1.6147-2.4221-0.26912-0.80736 0.80737-11.034-0.80737-1.6148" stroke-width=".5px"/>
   <path d="m191.25 184.28-8.1173-1.0969-3.949-1.7551-3.9489-0.2194-2.4133 0.2194-1.9745-2.6327-1.5357-0.43877-1.3163-0.43876h-2.1938l-0.43879 0.43876-2.4132-1.0969h-1.7551l-1.7551-1.7551-1.9745-0.43875 0.43875-2.852-1.3163-2.852 0.21938-2.852-1.9745-2.852-0.65816-1.7551-1.097-2.1939-0.21937-1.7551-2.1939-2.852-0.21938-1.5357-2.6326-1.9745-0.87756-1.3163-1.9745-0.65815-3.0714-1.5357-1.5357-3.0714-3.2908-0.65816-0.65817 2.1939-1.7551 1.0969-1.0969-0.43876-0.65813-0.87755-1.3163 0.65815-6.1428-2.1939-0.65816 6.801" stroke-width=".38612px"/>
   <path d="m306.37 54.968-1.2541-1.7809l-0.68747-2.5207-1.375-1.1458-1.6041 0.91663-1.1458 0.68747-1.1458-0.45831-1.1458-1.3749-0.22917-0.45831-1.6041 0.68747-1.1458-1.3749-1.6041-2.0624h-2.5207l-0.45831-1.1458-2.979-0.22916-3.6666-0.91663-1.8332-1.1458-1.6041-1.8333-1.8333-0.91663-3.2082-0.68747-2.979-0.45832-2.2916-0.45832-0.91664-1.8333-1.8332-1.1458-0.68751-1.1458-1.1458-1.1458-2.0624-1.8333-3.4374-0.45832h-2.2916l-2.7499-0.91663-2.7499-1.6041-2.2916-0.91664-2.5207-1.1458-0.91664-0.22916-1.8333-4.1248-8.2497-4.5832-1.8333-2.5207-5.4998-1.8333h-2.7499l-4.8123-2.5207-4.354-1.3749-1.8333-0.45832-3.4374-1.6041-2.5207-0.45831-2.7499-0.68748-0.91663-0.91663-1.375-1.6041-0.68747-1.1458-2.7499-1.3749h-1.1458l-0.91662 0.91663-1.1458-1.3749-1.8332 0.91663-0.91664 1.1458 0.91664 2.2916v0.91663l-0.91664 2.5207-1.3749 0.91663-1.8333 2.7499-3.8957 2.7499-2.979 0.91663-2.979 0.22916-4.8123 0.68748-4.8123 0.22916-3.8957 0.68747-3.4374 0.22916-1.375-0.22916-0.68746 1.375-3.4374-0.68748-2.7499 0.91663-2.0624 1.6041-2.5207 1.3749-0.91663 1.6041-2.7499 2.0624-5.0415 0.91663-5.4998 1.3749-4.1248 2.0624-2.2916 1.6041-1.8333 3.4374-0.45832 2.2916-0.91663 4.354-1.375 2.9791-1.3749 2.2916-1.6041 2.2916-1.1458 1.3749-0.68747 0.91663-1.375 3.4374-0.68747 0.91663 1.1458 5.4998-3.6665 2.2916-0.91664 1.6041-0.91663 1.8333v1.3749l-2.5207 2.0624-1.6041 1.8333-1.6041 2.2916v4.5832l0.22916 2.2916 0.22914 5.7289-1.1458 4.354" stroke-width=".5px"/>
   <path d="m79.769 130.32-1.8502-6.6509 1.8502-1.0392 0.92511-5.196 0.92511-1.8706v-1.8706l2.2203-2.4941 1.8502-3.5333 1.4802-2.2863h0.92511l0.55507-1.0392 3.3304-1.8706 0.55507-2.0784 4.6256-5.4039 7.4009-3.7411 4.6256 0.20784" stroke-width=".5px"/>
   <path d="m228.19 141.28-1.1007-0.74083-1.2912-0.74082-1.8626-1.8626-2.7728-2.032-8.1279 0.74083-10.731-7.4083-0.74082-2.032h-1.4817l-0.38099 1.6722h-1.8415l-1.2912 5.1858-3.1538 1.8415 1.4816 2.2225-2.2225 2.7728 0.38099 1.2912-0.74082 0.57149-0.74083 3.8735-2.0531 3.5136-3.8735-0.55033" stroke-width=".27516px"/>
   <path d="m90.265 159.12-4.0806 4.0806v6.5289l-10.609-1.6322-17.138 22.035v5.7128l-4.8967 3.2645-2.4484 10.609-5.7128 2.4483v5.7128l-5.7128 6.5289-10.609-0.81613-4.8967 12.242" stroke-width=".5px"/>
   <g stroke-width=".5px">
    <path d="m124.7 152.29-2.264-0.67921h-2.1508l-0.90561 0.56601-0.1132 1.2452-0.56602 0.79242-0.45281 0.2264-1.0188-0.33961-1.0188 1.9244-0.56601 1.9244v0.79242l-1.3584 0.1132-1.2452 0.1132-1.3584 0.79242-1.132 0.45281-0.45281 1.3584-1.4716 0.1132-1.0188 1.0188-0.2264 0.45281h-0.45281l-0.67921 0.45282-1.698 0.79242-1.5848 0.6792-0.79242 0.33961h-1.0188l-1.4716 0.56602"/>
    <path d="m185.64 149.6-1.2936 1.8151h-1.4784l-1.1088 3.2268-0.7392 2.2184-2.4024 2.6218 0.55441 1.6134 2.4024 1.0084v3.2268l2.0328 2.0167-0.5544 4.0335 2.9568 3.0251v1.6134l-1.2936 1.6134-1.848 1.8151-0.7392 0.60502-1.1088 0.8067-0.5544 1.0084"/>
    <path d="m197.2 132.09-1.5848-1.3206-2.6413-0.26412-1.5848-2.9054-2.9054-0.52824-2.9054 1.8489-7.6597-0.79237-1.8489 0.79237-3.4337 5.5467 0.52827 2.9054-3.1695 2.113-0.79237 3.4337-1.8489 0.52826-6.6032 3.4336-6.0749 3.6978-2.3772-0.26413-3.6978 2.113"/>
    <path d="m284.6 73.297-7.0186-2.6979h-2.4904l-6.7922 2.2482-4.5281 1.3489h-4.7545l-2.9433 0.89929-2.9433-0.22482-4.0753 2.4731h-2.7169l-2.4905-2.0234-4.0753-0.22483-2.7169-3.3723-0.45281-3.822-2.2641-3.1475-0.45283-1.7986h-1.8112l-2.2641 0.67447-2.4905-2.0234-0.67923-0.22482-7.9242-5.1709-5.8866 0.22482-2.0376 1.1241h-1.5848l-0.45281-1.7986-3.1697-0.67447-1.132-0.44965-0.6792-1.7986h-0.90563l-1.8112 1.5738h-1.5848l-0.67921 0.89929-2.0376-1.3489-2.0377 0.67447-1.8112-0.22482-0.90562-1.7986-1.8112-0.44964-1.3584-0.89929-2.2641 1.3489-3.1697-2.0234 0.22641 3.5972-2.0377 1.1241v1.3489l-1.8112 1.7986-2.9433-0.22482-1.5849 1.5738 0.67923 6.5199-0.90564 2.6979-1.132 1.3489-1.132 2.9227h-1.8112l-1.5848 2.6979-2.0376 1.3489-3.1697-0.22482-2.0377-2.2482-2.2641-2.6979-1.5848 0.89929-2.0376 1.1241-0.45283 3.1475-1.3584 1.1241-2.9433 0.67447-2.4905 2.2482-2.4905 2.6979-0.67921 2.0234-1.3584 3.822 2.0376 2.6979v8.3184l-0.67921 1.5738-0.67922 0.44965-0.90563 5.3958-0.67921 0.67447-2.4905 1.1241-1.132 2.9227-4.9809 1.7986-0.90561 1.7986h-2.4905l-1.8113 2.2482-0.67922 2.9227 1.5848 1.5738v3.1475l-3.1697-0.22483-1.3584 1.7986 0.90561 2.2482-0.90561 2.473v4.2716l0.2264 2.0234v0.44965l-0.90561 5.1709"/>
    <path d="m109.19 91.451 1.854-1.1571 1.3484-0.96422 1.1798-1.5427 1.854-1.3499h2.3596l3.5394 1.5427 2.1911 0.96422 0.67417 1.5427 1.1798 4.2426 1.1798 4.6282-0.84272 4.2425-3.5394 3.4712-0.50564 3.4712-2.3596 2.8926-2.1911-0.38569-0.84273 0.77137 0.33709 3.4712 1.5169 4.2425 0.33709 2.1213-0.50563 1.5427 0.33709 3.8569 0.33709 3.0855 0.50564 0.96422 2.1911-0.19284 0.67419 4.4354 0.84272 2.1213 0.67418 1.7356 2.0225 3.2783"/>
   </g>
  </g>
 </g>
 <g fill-rule="evenodd" stroke-width=".21857">
  <ellipse cx="124.88" cy="151.69" rx="1.4525" ry="1.5908"/>
  <ellipse cx="90.604" cy="159.48" rx="1.4525" ry="1.5908"/>
  <ellipse cx="109.36" cy="91.487" rx="1.4525" ry="1.5908"/>
  <ellipse cx="171.49" cy="178.57" rx="1.4525" ry="1.5908"/>
  <ellipse cx="24.458" cy="235.67" rx="1.4525" ry="1.5908"/>
  <ellipse cx="80.557" cy="132.01" rx="1.4525" ry="1.5908"/>
  <ellipse cx="185.89" cy="149.6" rx="1.4525" ry="1.5908"/>
  <ellipse cx="228.09" cy="141.22" rx="1.4525" ry="1.5908"/>
  <ellipse cx="306.12" cy="54.982" rx="1.4525" ry="1.5908"/>
 </g>
 <g font-family="sans-serif" font-size="3.5278px" letter-spacing="0px" stroke-width=".26458" word-spacing="0px">
  <text x="66.155182" y="138.04062" style="line-height:1.25" xml:space="preserve"><tspan x="66.155182" y="138.04062" stroke-width=".26458">Nabrangpur</tspan></text>
  <text x="101.48869" y="96.846107" style="line-height:1.25" xml:space="preserve"><tspan x="101.48869" y="96.846107" stroke-width=".26458">Bhawanipatna</tspan></text>
  <text x="209.49866" y="144.90637" style="line-height:1.25" xml:space="preserve"><tspan x="209.49866" y="144.90637" stroke-width=".26458">Brahmapur</tspan></text>
  <text x="175.83974" y="147.25076" style="line-height:1.25" xml:space="preserve"><tspan x="175.83974" y="147.25076" stroke-width=".26458">Gajapati</tspan></text>
  <text x="141.67844" y="182.24936" style="line-height:1.25" xml:space="preserve"><tspan x="141.67844" y="182.24936" stroke-width=".26458">Paralakhemundi</tspan></text>
  <text x="73.188385" y="159.30769" style="line-height:1.25" xml:space="preserve"><tspan x="73.188385" y="159.30769" stroke-width=".26458">Jeypore</tspan></text>
  <text x="21.276617" y="241.02687" style="line-height:1.25" xml:space="preserve"><tspan x="21.276617" y="241.02687" stroke-width=".26458">Malkangiri</tspan></text>
  <text x="106.34494" y="148.75789" style="line-height:1.25" xml:space="preserve"><tspan x="106.34494" y="148.75789" stroke-width=".26458">Rayagada</tspan></text>
  <text x="277.98871" y="54.981781" style="line-height:1.25" xml:space="preserve"><tspan x="277.98871" y="54.981781" stroke-width=".26458">Bhubaneswar</tspan></text>
 </g>
 <g fill="#0ff">
  <ellipse cx="57.173" cy="204.67" rx="1.4525" ry="1.5908"/>
  <ellipse cx="77.772" cy="106.51" rx="1.4525" ry="1.5908"/>
  <ellipse cx="187.01" cy="171.69" rx="1.4525" ry="1.5908"/>
 </g>
 <ellipse cx="190.56" cy="155.56" rx="1.4525" ry="1.5908" fill="#784421"/>
 <ellipse cx="189.59" cy="139.58" rx="1.4525" ry="1.5908" fill="#803300"/>
 <ellipse cx="60.346" cy="172.01" rx="1.4525" ry="1.5908" fill="#f60"/>
 <g font-family="sans-serif" font-size="3.5278px" letter-spacing="0px" stroke-width=".26459" word-spacing="0px">
  <text x="60.990948" y="176.37057" style="line-height:1.25" xml:space="preserve"><tspan x="60.990948" y="176.37057" font-size="2.1167px" stroke-width=".26459">Gupteswar Temple</tspan></text>
  <text x="60.345547" y="205.25253" style="line-height:1.25" xml:space="preserve"><tspan x="60.345547" y="205.25253" font-size="2.1167px" stroke-width=".26459">Duduma Waterfall</tspan></text>
  <text x="192.97665" y="154.74945" style="line-height:1.25" xml:space="preserve"><tspan x="192.97665" y="154.74945" font-size="2.1167px" stroke-width=".26459">Mahendragiri</tspan></text>
  <text x="178.61635" y="137.00076" style="line-height:1.25" xml:space="preserve"><tspan x="178.61635" y="137.00076" font-size="2.1167px" stroke-width=".26459">Chandragiri</tspan></text>
  <text x="184.58638" y="168.14165" style="line-height:1.25" xml:space="preserve"><tspan x="184.58638" y="168.14165" font-size="2.1167px" stroke-width=".26459">Gandahati Waterfall</tspan></text>
  <text x="49.050926" y="107.1507" style="line-height:1.25" xml:space="preserve"><tspan x="49.050926" y="107.1507" font-size="2.1167px" stroke-width=".26459">Chandandhara Waterfall</tspan></text>
 </g>
 <path d="m50.44 219.01-0.60737 0.40491-0.28342 0.16196-0.48589 0.64785-0.0701 0.26955-0.26167-0.0327-0.03267 0.52333-0.65417 0.19624-0.09801 0.55604-0.785 0.26166 0.55604 0.0981-0.22896 0.13083-0.71957 0.13084 0.06546 0.4906-0.43745 0.0472-0.02476 0.34553-0.49363 0.24683-0.09869-0.0248 0.07405-0.49363-0.22214 0.0987-0.04941 0.6664-0.2468-0.12343-0.24683 0.22213 0.32087 0.0741 0.07405 0.14809v0.0987l-0.22213 0.32087-0.1234 0.074-0.39491-0.0495-0.44428-0.27148 0.07416 0.29617-0.29618 0.34555 0.09869 0.22213-0.56767 0.37023 0.07405 0.14808h-0.24683l-0.12339 0.1234 0.24681 0.17277-0.09869 0.14809-0.3949 0.0987-0.02475-0.29615-0.32086 0.32085 0.19746 0.41958-0.14809 0.074h-0.09869l0.02475 0.29619-0.66639-0.0987-0.04941 0.46893-0.27151-0.0495 0.17277 0.34556-0.24682 0.3702-0.07405-0.19745-0.46894-0.1234 0.22214 0.32085-0.37023 0.37023 0.59236 0.14809-0.07405 0.19746-0.32085-0.0987-0.32087-0.0987-0.44425 0.34555v0.29617l-0.02475 0.1481-0.19746 0.0987-0.17277-0.0987-0.09869-0.0248-0.02475 0.19746v0.14807l-0.12341 0.46897-0.78981 0.1234 0.09869-0.41959 0.39491-0.22213-0.07405-0.0987-0.41959 0.12341-0.34554 0.17276-0.12341 0.0248 0.24683 0.61703-0.6664-0.22214 0.09869 0.34556 0.32085-0.0248-0.46893 0.51831 0.2468 0.19746-0.12339 0.0494v0.074l-0.29618-0.22212-0.24682 0.1234-0.07405 0.22214-0.19745-0.0248v-0.51828l-0.24683 0.27148h-0.07405l-0.07405-0.1234-0.04941 0.29619-0.04941 0.14808-0.96258 0.66639-0.22214 0.12341 0.04941 0.37024 0.41958-0.17279v0.074l-0.07405 0.24681-0.41959 0.32085-0.04941-0.39488-0.17276-0.074-0.46896 0.41958v0.24681l0.17277-0.074 0.29618-0.12339h0.04929l-0.17276 0.17276-0.14809 0.22214 0.32085-0.0248-0.07405 0.37021 0.29618-0.0987 0.02475 0.22212 0.34554-0.0248-0.29618 0.0987-0.02475 0.22213-0.44427-0.2715-0.34553-0.0248-0.02475 0.22213 0.34555 0.0987 0.02475 0.0987-0.64173 0.2715-0.32085-0.22213 0.09869-0.17279 0.04941-0.22212-0.39491-0.0248 0.04941 0.32088-0.46897 0.074 0.49363 0.29618-0.09869 0.14807-0.2715 0.074v-0.2468l-0.86385 0.0248 0.32086 0.27149-0.07405 0.22213 0.19745-0.0495h0.34554l-0.02475 0.22212 0.29617-0.14808h0.12342v0.0987l-0.1481 0.14808 0.39491 0.0248 0.07405 0.0987-0.07405 0.0987 0.14809 0.22214v0.12342h-0.09869l-0.1234-0.12342-0.1481-0.0248-0.14808-0.32086-0.37023 0.27149-0.32085 0.0248 0.24682 0.19747h0.32086l0.27148 0.19743-0.1234 0.0741-0.29617-0.0741 0.32085 0.27149 0.34555 0.0248h0.27148l-0.14808 0.17275-0.29617 0.12343-0.02475-0.24683-0.29618-0.0248-0.17276 0.32085-0.37023-0.59237-0.09869-0.0987-0.07405 0.34553-0.17276 0.32086 0.34554 0.17276-0.14809 0.24683-0.04941-0.17277-0.44427-0.0247-0.07405 0.0494 0.04941 0.2715-0.34554 0.37023 0.07405 0.14808-0.29618 0.17277-0.22213 0.41959 0.14809 0.24681-0.54299 0.37024 0.46896 0.44425-0.51831-0.14808 0.17276 0.46893h-0.37019l-0.1234-0.24679-0.17277 0.29617-0.02475 0.17276 0.17277 0.0248 0.3949 0.24683-0.2715 0.0987-0.64171-0.3949-0.02475 0.46894 0.41959 0.0494-0.54299 0.22215 0.29617 0.34553-0.39491 0.12339-0.07405-0.3949-0.34554 0.27151-0.81449-0.66641-0.14808 0.22214-0.19745-0.44427 0.02472 0.71576-0.2715 0.543 0.41958-0.24683 0.39491-0.27147 0.3949 0.3702-0.09871 0.17278-0.29618-0.074-0.04942 0.27148-0.02472 0.29619-0.02472 0.17277-0.09874 0.2468 0.27151 0.51832 0.02472 0.41959-0.04942 0.44427-0.04943 0.22213-0.34554 0.49362-0.24681 0.56768-0.34555 0.41958-0.09873 0.0248-0.14809-0.12342-0.04942 0.27151 0.14808 0.2715 0.29617 0.0248 0.19745 0.22214v0.22214l-0.14809 0.24682-0.1481-0.12341h-0.07405l-0.17277-0.074-0.07405-0.0248-0.04943-0.0248-0.09873-0.32087-0.12341 0.39491-0.3949 0.69107-0.09873-0.29616-0.09871 0.22213-0.29618-0.29617-0.04942 0.34554-0.09873 0.49363-0.07405 0.2468-0.19744 0.074-0.1481-0.0247-0.24681-0.0987 0.17277 0.29617-0.24681 0.9379-0.29618-0.0987-0.2715-0.51831-0.02472 0.29618-0.6664-0.0248-0.07405 0.1234-0.12341 0.12341-0.12341-0.46894-0.14808-0.2715-0.24681-0.0987h-0.19746l-0.1481 0.27151-0.29617 0.24682-0.46894 0.0248-0.34555 0.1481-0.34554 0.22212-0.09873 0.32088-0.09873 0.29617v0.29617l0.12341 0.32086 0.12341 0.29618 0.07405 0.34553-0.07405 0.12342h-0.37023l-0.41958 0.14808-0.27149 0.074-0.04942 0.0248v0.2715l-0.02472 0.12342-0.09872 0.12339-0.1481 0.0741-0.22213-0.0248-0.14809-0.0494-0.39491 0.543-0.19744 0.14807-0.32087 0.24684-0.19746 0.17276-0.1234 0.22213-0.1481 0.074-0.32086 0.0741h-0.19744l-0.24681 0.0493h-0.24681l-0.32086-0.0493-0.02472 0.34554-0.17277-0.0494-0.09873 0.0987-0.19745 0.0493-0.19745-0.24684-0.04943 0.27152-0.44426-0.0248-0.14809-0.32085-0.19745 0.37021-0.34554 0.0494-0.1481-0.19746-0.2715 0.29618-0.32086 0.29617-0.37022 0.14809-0.14808 0.074-0.32087-0.074-0.17276-0.0987 0.04942 0.37021-0.2715-0.0493-0.12341-0.0494-0.07405 0.24682 0.22214 0.17278h0.29617l-0.29617 0.24681h1.1107l0.32087 0.0248 0.3949-0.19745 0.1481-0.22213 0.02472-0.17277h-0.22213l-0.09873-0.0495-0.02472-0.14807 0.09871-0.19745h0.37022l0.07405 0.074-0.02472 0.17276h0.19746l0.29618-0.0987 0.27149-0.0495 0.22214-0.1234h0.2715l0.17276-0.0987 0.1481-0.0987v-0.14809h0.22213l0.1481-0.0248 0.07405-0.12341 0.34554-0.17277 0.24681-0.12341 0.2715 0.0495 0.46894-0.37023 0.07405-0.12341v-0.14809l0.1481-0.0248h0.07405l0.2715-0.14808 0.19745-0.17277 0.17277-0.34553 0.24681-0.12343 0.24681 0.0248h0.1481l0.14808-0.22213 0.1234-0.17278v-0.17276l0.17278-0.19746 0.41958-0.0493 0.37021-0.0495 0.17278-0.17275 0.04932-0.19746v-0.19744l-0.12341-0.32087-0.07405-0.19746-0.07405-0.14808v-0.44427l0.02472-0.22214 0.17278-0.14809 0.24681-0.0494 0.07405-0.12342 0.19745-0.12339 0.17277-0.0495h0.24681l0.09873-0.074 0.12341-0.14809 0.17277-0.0987 0.04942-0.1234h0.17277l0.14809 0.0987 0.09874 0.17278-0.02472 0.3949-0.1481 0.17278-0.27149 0.27149-0.27151 0.24683-0.04942 0.0494-0.09873-0.19745-0.17277 0.14809-0.02472 0.34554v0.19745l0.1234-0.1481 0.32087-0.27148 0.22213-0.19745 0.2715-0.19745 0.02472-0.12341 0.1234-0.12341 0.09873 0.3949 0.14808-0.0493 0.19746-0.0247 0.19744-0.0493 0.07405-0.0495h0.17277l0.07405 0.14808 0.1234 0.12341 0.12341-0.0987 0.17276-0.074 0.07405-0.0493h0.09873l0.17278 0.1234 0.02471 0.14809 0.09873 0.074v-0.14809l0.02472-0.074v-0.074l0.09873-0.0248 0.17277 0.17279 0.19745 0.14808-0.07405-0.44426v-0.29618l0.24681-0.61704-0.34554-0.14809 0.56768-0.19745 0.41958-0.7898 0.27149-0.51832 0.64172 0.074h0.17278l0.22213-0.29618 0.12341-0.2468-0.02472-0.17278-0.19745-0.22214-0.1481-0.14808-0.09873-0.14808 0.34555-0.49363 0.22213-0.44427 0.24681-0.34555 0.24681-0.46894 0.07405-0.37022-0.09873-0.54299-0.12341-0.29619-0.09873-0.27151 0.02472-0.19744 0.04943-0.0495 0.12341-0.19744 0.29617-0.12341-0.17277 0.29618 0.19746 0.37023v0.2468l0.07405 0.17278 0.17277 0.2715 0.32087 0.22212 0.29617 0.1481 0.29617 0.0247 0.37021-0.074v0.19744l0.24682-0.27148 0.27152-0.0987 0.02475-0.074 0.24681 0.0987 0.29618 0.0493-0.12341 0.41958-0.37022 0.0495 0.51831 0.27149 0.02475 0.46895-0.32086 0.34553h0.32086l0.14806 1.012 0.09881-0.66641 0.07405-0.29618h-0.17277l-0.07405-0.24682 0.09869-0.37021-0.02475-0.1481 0.22213-0.12339-0.07405-0.074-0.04941-0.0741 0.04941-0.14808h0.46894l0.09869 0.24681-0.07416 0.17277-0.14809 0.34554-0.09869 0.29618 0.34553 0.24683 0.22214-0.37024 0.09869 0.1481 0.09869 0.24681 0.02476-0.22213 0.14808-0.12342 0.5183 0.83918 0.02475-0.59235 0.37023-0.22214-0.17277-0.61704h0.22213l0.09869-0.17276 0.44427 0.29618 0.29618-0.27151-0.04941 0.56767-0.02475 0.29619-0.07405 0.19746-0.3949 0.24679 0.09869 0.19747 0.98727-0.2962 0.19745 0.22215-0.46896 0.2715 0.34555 0.0248 0.46894-0.074 0.56767 0.64172-0.02475 0.66639 0.59236-0.46893 0.54299 0.27148 0.09869 0.2715h0.32086l0.22214-0.3949 0.5183-0.54298-0.5183-0.37024 0.14808-0.22212 0.07405-0.2715 0.37022 0.51831 0.543-0.0248v-0.24682l-0.46896 0.12341-0.07405-0.41958 0.46896-0.27149-0.02475-0.12341 0.17277-0.56768-0.29617 0.46896-0.32086 0.0493 0.02475 0.27151-0.24683 0.074-0.29617-0.17278-0.09869 0.37024-0.07405 0.0248-0.27148-0.24683-0.04941 0.34555-0.34555 0.17278 0.32086 0.0493 0.29617 0.14808 0.27151 0.1481 0.1234 0.17277-0.14808 0.24681-0.19746 0.19745-0.24682 0.0248-0.19745 0.0495-0.32085-0.14812-0.24682-0.1234 0.04941-0.22213 0.19746-0.19745-0.86385-0.37021 0.19745-0.074 0.64171-0.14808-0.07405-0.19746-0.14808-0.19746 0.37022-0.22213h-0.32085l-0.39491 0.19746-0.14807-0.29618-0.17278 0.0987 0.07405-0.29619-0.04941-0.34553-0.24682 0.27149-0.22213-0.2468-0.27151-0.19745-0.09869 0.29617h-0.27151l-0.1234-0.74045v-0.27149l-0.51831-0.0248 0.34553 0.2715-0.22213 0.0495-0.19745 0.074-0.32086-0.14807 0.22213-0.61704 0.34555-0.0248 0.19745-0.29618 0.51831-0.074h0.2715l0.22214 0.0987 0.2715 0.22212 0.07405 0.0741 0.12341-0.22214-0.09869-0.24682-0.39491-0.29616 0.1234-0.22215-0.37021-0.074-0.12341 0.19744-0.27148-0.24683-0.04941 0.4196-0.543 0.0248-0.19745-0.14808 0.17277-0.44426-0.37021-0.0248-0.59236 0.6664-0.29618 0.0494-0.2715-0.0494 0.34554 0.44427-0.27151 0.29617-0.32085-0.17275 0.09869 0.49361-0.14809 0.0987-0.17277-0.0987-0.22213-0.074 0.14809 0.34555-0.09869 0.41958-0.17278-0.3949-0.24682-0.14809 0.22214-0.61704-0.78981 0.32088-0.3949-0.1481-0.02475-0.34555 0.44426-0.59235 0.64172-0.0248-0.46895-0.24682h-0.09869l-0.02475-0.074 0.1234-0.17276h0.39491l-0.19745-0.17278-0.34554-0.51832-0.22214-0.074 0.04941-0.19745 0.37023-0.27149 0.61704 0.27149-0.34554-0.69108 0.59236 0.22214-0.22214-0.2715v-0.0984l0.24682-0.0987 0.07405-0.17276 0.07405-0.41958 0.49364-0.32086-0.04941-0.22213 0.44426-0.34556 0.39491 0.14811 0.32086 0.0495 0.32085 0.32084-0.19745-0.51831-0.37023-0.51829 0.41959-0.32088 0.59236 0.14811-0.32086-0.41958h0.29618l0.24682 0.29617 0.09869 0.0987 0.14809 0.074-0.09869 0.39491 0.22213 0.12342 0.1234-0.37023 0.09869-0.1481 0.19746 0.0248-0.02475 0.17277-0.1234 0.27148 0.04941 0.17278 0.19745-0.32086 0.2468 0.12341 0.19747 0.1234 0.1234 0.1481 0.3949-0.1481-0.1481 0.76513v0.8145l0.2715-0.51832h0.14809l0.19745 0.0495 0.09869-0.37024 0.32085 0.17278-0.0493-0.24682h0.29616l-0.22214-0.29618-0.0493-0.0495v-0.14809l0.12341-0.0987 0.32085 0.12342 0.12341 0.0248 0.02475-0.29618 0.07416-0.0495 0.19745-0.0987 0.19745-0.0247-0.1234-0.19744-0.02475-0.14809 0.56767-0.8392-0.0493-0.074-0.543 0.64171-0.32085 0.34553h-0.2715l-0.74044 0.59238-0.49363-0.44428-0.22214 0.17278-0.19745-0.074-0.22214-0.24683-0.04928-0.14806-0.17277-0.12343-0.07405-0.074h-0.2715l0.14808-0.27149 0.44427-0.0248-0.09869-0.074-0.2715-0.0987 0.2715-0.24682-0.34555 0.0248h-0.07405l-0.17276-0.074-0.04941 0.14808-0.12341 0.17277-0.07405 0.0987-0.07405-0.24681-0.32086 0.0248 0.09869-0.22213-0.543-0.0248-0.02475-0.27148-0.07405-0.0248v-0.12335l0.14809-0.12342 0.22213 0.0493 0.46895 0.0495-0.17276-0.19747 0.59234-0.29616-0.51831-0.074 0.22213-0.24683 0.07405-0.32084 0.44426-0.0741v-0.0987l-0.19745-0.17276 0.32085-0.64172-0.27148-0.0495 0.19744-0.0987 0.59236-0.074-0.34554-0.46895-0.09869-0.22214 0.12341-0.17278 0.29617-0.0987 0.09869 0.29618 0.32085-0.19747 0.24682-0.074h0.51831l0.32086-0.66639 0.0493-0.0493 0.1481 0.19745 0.29617-0.0987 0.17277 0.0495 0.14808 0.27149 0.09869 0.41959 0.19746-0.29618 0.02475-0.0741 0.17276 0.0248 0.19746 0.14808 0.19746 0.0987 0.27148-0.0987 0.14809-0.0248 0.17277 0.074 0.34554 0.17277 0.17277 0.12341 0.04941 0.0493 0.32086 0.0248h0.24681l0.17277 0.074 0.17277 0.074 0.22214 0.22212 0.19745 0.17278-0.22213 0.14808h0.46894v-0.12341l-0.24682-0.27149 0.1234-0.14808 0.49363 0.19744 0.54299-0.37022h-0.34553l-0.22214 0.19746-0.51831-0.22214-0.32085 0.22214-0.61705-0.46896-0.3949 0.12339-0.09869-0.0248-0.17276-0.76511-0.29618 0.3949-0.24682-0.0987-0.44427 0.14809-0.44427-0.44427 0.12341-0.14808-0.24683-0.32086-0.04929 0.19745h-0.12342l-0.2715-0.19745-0.02475-0.56767 0.3949 0.17278h0.12342l0.32085-0.4196h0.34554l0.07405-0.1234v-0.0741l0.14807-0.17276-0.1234-0.59237 0.39491 0.0248 0.09869-0.34557 0.1234-0.17276h0.22214l0.1481 0.0248 0.17276 0.17277 0.07405-0.074-0.04941-0.1481-0.09869-0.074 0.02475-0.14809 0.29617 0.0741-0.02475-0.22213 0.19744-0.074h0.19746l0.02475 0.22212 0.49362 0.14809-0.32085-0.24682 0.3949-0.59235 0.543 0.32085v0.34554h0.27149l0.24681 0.1481 0.07405 0.32087-0.04941 0.49362 0.54298 0.24681 0.27151 0.14809-0.04941 0.1234 0.69108 0.0742 0.17278-0.22216h0.37021l0.17277-0.34552-0.44426 0.2468-0.09869-0.0248-0.24683 0.14809h-0.46894v-0.0987l-0.51831-0.27148-0.19745-1.086 0.17277-0.22211-0.27151-0.12343-0.51831-0.0987-0.1234-0.46895-0.44427-0.0248h-0.09869l-0.32086 0.32087 0.02475-0.44427 0.44426-0.44428-0.04941-0.34554h0.32087v-0.34554l0.02475-0.19745 0.19745-0.24683 0.04941-0.29615 0.2715-0.24683 0.14807 0.19745v-0.56761l-0.41958 0.0248 0.2715-0.27149 0.14807 0.19744 0.17278-0.29617 0.1234-0.0987-0.04929-0.1234 0.14809-0.074 0.07405-0.0987v-0.0987h0.22213l0.07405 0.19747 0.04941 0.27148 0.34554 0.29618 0.24682 0.17276 0.59236 0.0741-0.543-0.19744-0.46894-0.44426-0.14809-0.12342v-0.2468h0.29617l-0.07405-0.0987-0.34554-0.0987 0.17278-0.12341 0.22213 0.1481v-0.37023l0.37023 0.19746-0.07405-0.39491 0.37021-0.0495 0.37023-0.49366 0.22214 0.0495-0.04941-0.74045 0.37022 0.0248 0.04928-0.24681h0.17277l0.34555 0.0495 0.14808-0.41958 0.39491 0.0248-0.34555-0.37023h0.41967l-0.04941-0.32087-0.27148 0.12342 0.04941-0.27149 0.29616-0.12342 0.22215 0.19747v-0.22168l0.22212-0.44426h-0.1234l0.17277-0.24681 0.12341-0.2715 0.2715-0.29617 0.29618-0.29617z" fill="#85c5e3" stroke="none" stroke-width=".066397px"/>
 <path d="m58.935 216.32 1.3317 0.73242 0.46607-0.49937-0.06656-0.29963-0.29963 0.19974-0.49937-0.26632 0.7324-0.23305-0.06656-0.13317-0.59924-0.0999 0.63254-0.16645-0.03323-0.19976 0.66584 0.0333-0.26632-0.36621 0.39949 0.0999 0.36622-0.33291-0.33292-0.49939 0.46609 0.23305v-0.3995l-0.39951-0.23305-0.06656-0.86558 0.76571-0.19976-0.06656 0.66585 0.19975-0.39951 0.63255 0.16646-0.53266 0.16646v0.4328l0.33291-0.26634 0.13317 0.53267 0.66584 0.3662 0.09987-0.29962 0.36621-0.36621-0.13316-0.36621-0.26634-0.16646 0.3329-0.0332-0.09987-0.96546 0.33292 0.43279 0.19975-0.16646-0.09988 0.69913 0.13317 0.19975 0.26634-0.23305-0.16646-0.53266 0.36621-0.29962 0.03323 0.96546 0.16646 0.19974 0.43278-0.43279-0.06656-1.5314 0.29962-0.0999-0.13317 0.49937 0.26633 1.032 0.36622-0.19974 0.53267-0.73242 0.23304 0.33292-0.53267 0.3995 0.13317 0.33291-0.46609-0.0666-0.23304 0.0999-0.46609 0.26633 0.43278 0.13317 0.29964 0.4661 0.32429-0.27066h0.37834l0.48645-0.35132-0.13513 0.37834-0.18917 0.16216-0.4324-0.054-0.08109 0.24322 0.08109 0.40538 0.21621 0.37836-0.48645-0.35134s-0.51348-0.56751-0.62158-0.56751-0.29728 0.24321-0.29728 0.24321l-0.59456-0.45942-0.2162 0.1081 0.27025 0.24322-0.37834 0.1081-0.08109 0.29728 0.35131 0.32431 0.29728-0.2162 0.16215 0.2162 0.21621-0.24323 0.45942 0.27025 0.13512 0.4324-0.29728-0.16216-0.18918 0.29729-0.10809 0.24322-0.4324 0.18917 0.75669 0.51349 0.05406 0.45941h0.16215l0.4324 0.51349-0.02703-0.99993 0.40538 0.94588 0.3243 1.108 0.27025-0.29727v-0.48645l0.48645 0.054 0.27025-0.0811h0.4324l0.51348-0.5405-0.16215 0.37834 0.02703 0.21621 0.3243 0.18918-0.05406-0.27026 0.29728-0.0269 0.02712-0.24323-0.05397-0.70266 0.24323 0.59456v0.24322l-0.21621 0.27026 0.05406 0.16215 0.3243-0.0811 0.40537-0.13512 0.21621 0.35133 0.51347 0.027-0.2162 0.37834 0.18917 0.48645 0.54052-0.45942-0.29729 0.72968 0.08109 0.18917 0.40538-0.62158 0.40537 0.29727h0.16215l0.64861-0.24321-0.64861 0.48644-0.48645 0.027h-0.21622l-0.24322 0.4324 0.35132 0.6486 0.43241 0.6486-0.70265-0.56753-0.02703-0.18918-0.37836-0.40537-0.13512-0.10809-0.08109 0.16214 0.08109 0.16216 0.16214 0.18916-0.1081 0.10811-0.18917 0.29728-0.35133 0.18916 0.16216-0.29728 0.35132-0.45941-0.37836-0.27025 0.37836-0.24322v-0.24324l-0.1081-0.1081-0.24322-0.027-0.16216 0.16215v0.18918l-0.08109 0.24323-0.10811 0.0811h-0.27024l-0.16216-0.1081-0.08109-0.16215 0.02703-0.5405v-0.27025l0.37834-0.18917-0.05406-0.35133h-0.54049l-0.45942 0.48645 0.13512-0.59455-0.51347-0.4324-0.13513 0.27025-0.48644-0.13512-0.37835 0.40537 0.70264 0.81075-0.18917 0.59455 0.78373 1.108-0.43241-0.13512 0.02703-0.24323-0.5405-0.62158 0.02703-0.70265-0.29728-0.40537-0.51348-0.0811-0.05406 0.21621-0.35132-0.13512-0.4324 0.2162 0.29728-0.48646-0.62158-0.13512-0.16216-0.0811 0.35133-0.35133-0.05397-0.37834-0.24323 0.13512-0.24323-0.29728-0.35132 0.16216-0.32432 0.35132 0.18918-0.45943 0.18918-0.27025-0.24324-0.24322-0.37833 0.18916 0.16215-0.35133 0.24321-0.18915-0.08109-0.0811-0.45943-0.35133-0.40538-0.27025-0.08109-0.45944 0.13512-0.13511h0.27025l-0.18916-0.24323-0.67564 0.24323 0.29727 0.59455-0.2162 0.35133 0.40539 0.75669h-0.37837l-0.45942-0.75669-0.18918 0.16214 0.24322 0.56753-0.43239-0.35132-0.94588 0.70264-0.16214-0.9729-0.48646-0.37834-0.16215 0.0271-0.10809 0.40537 0.59455 0.5405-0.48645 0.1081 0.02703 0.51348 0.7567-0.24322 0.02703 0.16213 0.56754 0.0541 0.13512-0.35133 0.29727 0.43241 0.24323-0.1081v0.40538l0.2162-0.027 0.56753 0.67563 0.13512-0.37836 0.48644 0.37836 0.1081 0.054h0.62158l-0.24322 0.35133 0.13511 0.35132 0.45943-0.45943 0.45942 0.0811-0.48644 0.35133 0.48644 0.67563-0.4324-0.10811-0.24322 0.18918 0.40537 0.0811-0.13512 0.40538 1.3512 0.45942 0.27025 0.9729-0.45942-0.27024-0.29728 0.18916 0.16215 0.24323-1.135-0.35133-0.16216 0.24324 0.62158 0.70264-0.02703 0.40539 0.83778 0.0811 0.89183 0.67564-0.56752 0.18917-0.18918 0.78373h-0.35136l-0.51348-0.21621-0.56752 0.18919 0.27024-0.59456-0.10809-0.40538-0.45942 0.0271-0.5405-0.054-0.43241 0.54049-0.24322 0.40539 0.48645 0.0811-0.13513 0.16215 0.4324-0.0541 0.35132-0.2162-0.27026 0.37834 0.24324 0.45943v0.0811l-0.24324 0.40537-0.02703 0.27025-0.13512 0.37836-0.1081 0.37835-0.08109-0.45943 0.18918-0.35133-0.05406-0.29728 0.24323-0.40537-0.16214-0.29727-0.40539 0.054-0.13512-0.1081-0.10811-0.0811-0.3243-0.10811-0.13512 0.13514-0.16216 0.13511-0.10809-0.1081-0.18918 0.18917-0.05397 0.027-0.16214-0.027-0.35134 0.18918-0.13512-0.0811-0.10808 0.2162-0.37837 0.24322v-0.13512l0.35134-0.18917-0.05397-0.027-0.59455-0.16215 0.70264-0.10809 0.35133-0.0811h0.27025v-0.18917l0.48645-0.18918-0.08109-0.0811 0.29729-0.51348v-0.27025h0.24322l0.18918 0.0811-0.18918-0.62158 0.21621 0.0811 0.05397 0.054 0.48646-0.27026 0.6486 0.32431 0.16214-0.13512 0.18918 0.0541-0.10809-0.94589h-0.27025l-0.35133 0.24322 0.21621-0.43239-0.18918-0.89183h0.59455l0.40536-0.0811v-0.13513h0.13513l-0.08109-0.18916h0.18917l-0.24323-0.21621-0.43238-0.18917-0.40538 0.45943-0.89183-0.21621 0.56753-0.24322 0.40537-0.054-0.02703-0.13511 0.16214-0.13513-0.72966-0.24322 0.62157-0.45944-0.48645-0.0271-0.08109-0.56753-0.3243 0.027-0.2162 0.40539-0.02703-0.48646-0.35132-0.0811-0.21621-0.16215-0.2162-0.2162-0.27025 0.054-0.16216-0.27024-0.29728 0.10811 0.51348 0.51346 0.29728 1.4323-0.59455-0.51349-0.02703-0.72966-0.2162-0.027-0.16214 0.35133-0.37836-0.72967h-0.24324l-0.13512 0.27024-0.54051-0.48645-0.10809 0.24323 0.45942 0.81075-0.27026-0.0811-0.59455-0.7567-0.67562 0.45941-0.02703 0.59455 0.29728 0.32431-0.24323 0.0811 0.24323 0.67562-0.3243-0.13513-0.13512-0.59455 0.08109-0.3243-0.37834-0.29727 0.21619-0.5405 0.81076-0.51347v-0.48646l-0.62158-0.59455-0.24323 0.4324-0.32431-0.16215-0.78372 0.56752-0.10811-0.0811 0.13513-0.29727-0.2162-0.27025 0.51348 0.16215 0.6486-0.40538 0.02703-0.13513-0.62159-0.3243h0.43241z" fill="#85c5e3" stroke="none" stroke-width=".07386px"/>
 <text x="61.666626" y="210.18315" fill="#000000" font-family="sans-serif" font-size="3.5278px" letter-spacing="0px" stroke-width=".26459" word-spacing="0px" style="line-height:1.25" xml:space="preserve"><tspan x="61.666626" y="210.18315" font-size="2.1167px" stroke-width=".26459">Jolaput Reservoir</tspan></text>
 <text transform="rotate(-37.625)" x="-146.43401" y="209.25926" fill="#000000" font-family="sans-serif" font-size="3.5278px" letter-spacing="0px" stroke-width=".26459" word-spacing="0px" style="line-height:1.25" xml:space="preserve"><tspan x="-146.43401" y="209.25926" font-size="2.1167px" stroke-width=".26459">Balimela Reservoir</tspan></text>
</svg>
