<svg width="206.26mm" height="180.2mm" version="1.1" viewBox="0 0 206.25702 180.19702" xmlns="http://www.w3.org/2000/svg" xmlns:cc="http://creativecommons.org/ns#" xmlns:dc="http://purl.org/dc/elements/1.1/" xmlns:rdf="http://www.w3.org/1999/02/22-rdf-syntax-ns#">
 <metadata>
  <rdf:RDF>
   <cc:Work rdf:about="">
    <dc:format>image/svg+xml</dc:format>
    <dc:type rdf:resource="http://purl.org/dc/dcmitype/StillImage"/>
    <dc:title/>
   </cc:Work>
  </rdf:RDF>
 </metadata>
 <g transform="translate(-2.0209 -71.824)" stroke="#fff" stroke-width=".5">
  <path d="m105.99 134.86c0.98235-0.50581 1.3962-1.7055 1.6888-2.6293 0.56432-1.7891-0.98235-2.9093 0.74407-4.1802 1.7891-1.3209 3.8833-3.4277 5.0956-5.2293 0.50579-0.75243 0.6939-3.6534 1.9647-3.6034 0.76079 0.0293 1.6553 1.0952 2.4203 0.38038 0.87786-0.81928 1.2708-2.1193 1.9898-3.0599 0.91963-1.1955 3.2019-1.576 4.7027-1.9103 1.5424-0.34279 3.0932-0.69811 4.5605-1.275 0.29258-0.81932-0.89458-1.5174-1.2791-2.1486-0.86529-1.4087-3.3944-2.0399-4.0296-3.687-0.12962-0.33441 1.5174-2.3367 2.0357-2.6503 0.62285-0.37621 1.484-0.43475 2.2113-0.74402 0.99073-0.42222 1.7139-1.3126 1.7222-2.3493 6e-3 -0.96981-1.0242-2.5164-0.61868-3.3985 0.72319-1.5634 1.509-2.8466 1.8058-4.5688 0.20491-1.183-0.26334-1.9396 0.75245-2.8843 0.79421-0.7399 0.96978-1.0701 0.69387-1.484-0.0543 0.03359-0.1086 0.06673-0.16321 0.1046 0.0546-0.03765 0.1086-0.07124 0.16321-0.1046-0.13796-0.20491-0.38453-0.43056-0.72731-0.73988-1.0325-0.93218-0.74824-1.2917-0.52669-2.4203 0.3511-1.7849 0.69391-3.641 0.52248-5.4633-0.0584-0.60614-0.70224-1.9647-0.40966-2.738-0.98231-0.16298-1.9772-0.33858-2.9345-0.53923-1.2875-0.26753-2.5583-1.0367-3.9-1.0032-2.4037 0.05455-4.5688-1.3376-6.9682-1.3669-6.0528-0.071-12.177-0.09626-18.28-0.02502-2.8509 0.03359-5.6642 1.02-8.5108 0.21325-1.4338-0.40548-2.9303-0.66465-4.3472-1.1119-0.30512-0.09625-0.58521-0.22993-0.85691-0.38459-0.04189 0.03359-0.08365 0.0629-0.12528 0.09626 0.04603-0.03359 0.08365-0.06267 0.12528-0.09626-0.76498-0.43892-1.4212-1.0534-2.1277-1.555-1.137-0.80678-2.0524-0.43056-3.3191-0.06673-1.2917 0.36784-1.8351 1.4129-3.0432 1.7891-2.9805 0.92382-4.8907-2.855-7.5367-1.2415-0.94892 0.58107-3.9293 4.017-5.1876 2.0566-0.45145-0.70645-1.3418-1.4756-2.0775-1.9396-1.0325-0.65212-2.228 0.21731-3.1935 0.59775-1.2081 0.47654-2.2155 1.1244-3.3398 1.7139-1.1662 0.61033-2.692 0.39715-3.9543 0.86113-1.3168 0.48488-2.483 1.2373-3.7704 1.7682-1.5174 0.62701-3.1645 0.65629-4.7695 0.96561-2.671 0.52253-5.1583-0.18823-7.8629-0.18823-2.4244 0.0067-4.2889-1.346-6.3413-2.3534-1.0576-0.51834-2.554 0-3.6158 0.25083-1.3502 0.31768-2.6879 0.36784-4.0756 0.35948-1.5717-0.0067-3.1935-0.15487-4.7571 0.03765-0.94889 0.11699-2.1152 0.36784-3.1435 0.22572 0 0.0067 0.0043 0.0067 0.0043 0.01352 0.54759 1.6888-0.81932 4.0463 0.56434 5.4719 0.73151 0.75246 1.2707 1.1496 1.3293 2.228 0.05433 0.95306-0.43892 2.2447-0.04599 3.1435 0.57685 1.3293 2.9762 0.8277 4.1133 0.65212-0.43054 0.76916-1.0618 4.7111-1.7222 4.9701-0.89871 0.35112-1.6135 0.12962-2.4161 0.80259-0.26753 0.22572-0.55596 0.48071-0.87367 0.66463 0.45982 1.3376 0.34278 2.7713 0.96981 4.017 0.58522 1.1621 2.1152 1.8393 2.2238 3.1895 0.06673 0.81095 0.36367 2.6376-0.56013 3.1185-1.5007 0.78169 0.43472 0.9029 0.56432 2.0023 0.12962 1.091-0.55179 1.8894-1.0576 2.8006-0.70223 1.2666-0.53506 2.4914 0.4849 3.549 0.58519 0.60611-1.5048 1.3962-1.764 1.9438-0.49744 1.045 0.54762 3.0558 0.66048 4.1885 0.15487 1.5257 0.03359 3.0599 0.13796 4.5898 0.04599 0.65211-0.40968 1.1537-0.31356 1.8017 0.62291 0.33438 1.2708 0.6521 1.8226 1.0784 1.3711 1.0576 1.4547 2.8216 1.7097 4.3348 0.01352 0.0667 0.02502 0.12528 0.03765 0.19229 1.1119-0.1046 3.0222 0.37623 3.733 0.0962 1.7515-0.68972 3.1392-1.8602 5.0873-2.1235 2.0984-0.28426 3.3691 0.69807 5.1876-0.39295 0.93635-0.56016 1.9228 0.96561 3.0265 0.94052 4.1633-0.10032-0.68136-2.7339 0.57266-3.6117 2.1612-1.5132 4.2429 0.74826 6.2451 0.74826 2.7882 0 4.5395 1.2958 6.7593-1.1454 1.3794-1.5174 3.6953-4.5104 6.0068-2.4077 0.38457 0.35115 0.52252 1.1955 1.2081 1.0618 0.42636-0.0837 1.0409-0.43475 1.3168 0.12127 0.61864 1.2499 1.5801 1.7431 2.8216 1.02 1.2541-0.73151 2.1904-1.137 3.5154-0.32605 1.4087 0.8653 2.621 0.73988 1.5717-0.97397-0.60611-0.98649-2.8969-2.4997-2.4454-3.7287 0.32607-0.89456 1.8643-1.2331 2.692-0.82768 1.0534 0.50997 4.4852 3.0849 4.1426 0.17989-0.113-0.9531 0.49744-2.5917 1.6679-1.4296 0.69811 0.69387 1.2206 2.0566 2.5164 1.601 1.5926-0.56016 1.9438 0.28425 3.5405 0.38039 1.2917 0.0751 2.483 1.1328 1.948 2.391-0.4264 1.0074-2.3617 1.3962-2.3367 2.5917 0.01797 0.80679 1.6804 1.9062 2.1904 2.5247 0.81515 0.99486 1.6135 1.045 2.8216 0.71061 0.7315-0.20491 1.8016-0.54343 1.973 0.45562 0.15486 0.89873-1.3084 5.2126 1.0116 4.3222 2.7213-1.045 5.2126-3.4278 7.3528-5.221 2.4497-2.0525 3.4737 2.2991 4.7861 2.6126 2.1319 0.5016 4.5395 2.7506 6.0278 4.3932 0.39291-0.65625 0.97814-0.58103 1.7849-0.99486z" fill="#abacda" id="Ludhiana" />
  <path d="m208.27 141.67c0.0503-0.73987-0.0376-1.8602-0.74823-2.3827-0.85276-0.62705-1.8769-0.0796-2.8592-0.35531-0.60195-0.17156-2.2447-1.2123-2.3784-1.7933-0.27173-1.1913 0.83599-0.67297 1.5216-0.62281 3.1435 0.22992 2.8926-3.1059 2.9679-5.246 0.0252-0.67719 0.15036-1.6136 0-2.2698-0.26335-1.1496-1.4296-1.693-2.111-2.6043-0.84439-1.137-1.5132-2.0859-2.8132-2.9093-0.53509-0.33859-0.76918-0.35114-1.3084-0.54758-0.63539-0.2299-0.8444-0.41802-1.438-0.72318-0.42635-0.21731-1.045-0.21731-1.4797-0.40965-0.49743-0.22159-0.86947-0.73573-1.3585-0.9447-0.90293-0.38042-2.1778-0.1756-3.2019-0.17154-0.9698 6e-3 -1.6804-0.1339-2.2948-0.3637-0.05 0.45564-0.0376 0.92384-0.0336 1.3836 0.0136 1.3544 0.66464 2.1528-0.93638 2.8843-1.555 0.71063-1.5592 2.0525-2.0023 3.4151-0.83603 2.5583-1.8936 6.241-5.0621 3.4528-1.6678-1.4672-1.4923 0.92379-2.0692 1.7348-0.59354 0.83183-1.4881 1.4129-1.8476 0.0543-0.30095-1.1328-0.59355-1.672-2.0023-1.5968-1.555 0.0837-1.0952-1.5425-1.0366-2.4454 0.0796-1.1872-1.3544-2.4037-2.6377-2.4663-1.0408-0.0503-1.6553 1.3962-2.2824 1.9688-1.091 0.99488-0.0627 2.2824-0.71898 3.3651-0.84439 1.392-2.4036 0.22159-3.6534 0.55596-3.0306 0.80675-7.1314 3.8833-6.73 6.9475 0.46817 3.5657-1.4756 4.2679-5.1457 3.8876-2.0064-0.20897-4.0003-0.62702-6.0237-0.28008-1.3251 0.22575-2.4537 1.1454-3.7871 1.2457-1.6679 0.12528-0.94055-4.4561-3.0139-1.9062-1.7724 2.182-3.3608-2.7339-4.3265-3.5281-2.3994-1.9772-5.6389-0.60195-8.3685-0.35951-1.7808 0.1587-3.6117 0.33862-5.3463 0.74826-1.4672 0.34696-1.7139 0.0712-2.7213-0.89039-0.45147-0.43052-2.508 0.83606-2.7046 1.5425-0.30092 1.0659-0.0962 1.6762-1.5968 1.6512-1.0325-0.018-1.3126-0.2216-1.927 0.58939-0.33443 0.43891-0.8444 1.1537-1.4714 0.63539-1.1788-0.97397-1.5299-1.7348-3.1352-1.0701-1.6093 0.66461-4.7278 0.22573-6.6589-0.53089-0.10033 0.4055-0.25918 0.81516-0.50163 1.229-0.60613 1.0325-1.1914 2.0733-2.1862 2.8466-1.0116 0.78588 0.76915 1.5634 1.392 2.111 2.0817 1.8183 0.75664 2.9638-1.0952 4.5021-1.8184 1.5132-2.228 4.5395-3.5867 6.4333-1.0283 1.4296-2.7799 3.7956-4.7027 4.0422-1.4046 0.1799-0.96563 0.86946-0.30514 1.5926 0.48072 0.52671 0.45563 1.4756 0.85272 2.1152 1.0074 1.6218 3.4404 0.59358 5.2963 0.57264 2.0984-0.0203 3.9879 1.6679 4.9241 3.3024 1.2666-0.84438 4.2262-3.0306 5.7478-1.8727 0.62701 0.47653 1.1872 1.3502 2.1402 1.2248 0.87782-0.11701 1.4965-1.0116 2.4413-0.53089 1.3752 0.70225 3.2855 2.9469 4.2219 4.13 0.65207 0.82347 0.92794 1.9103 0.1086 2.7337-1.0451 1.0492-2.157 0.11701-2.4956 1.4798-0.2173 0.8778-0.0794 1.9981-0.45562 2.8216-0.32607 0.71483-1.3585 0.15892-1.9187 0.0963-1.2415-0.12962-0.87367 1.0367-1.8476 1.1872-1.2039 0.18394-2.3284-0.56012-3.4444 0.15036-0.95726 0.6103-1.5299 1.5007-2.7589 1.6678-0.96561 0.12963-2.1026-0.1756-2.9052 0.45983-1.1119 0.88198-3.3232 4.0296-1.8225 5.083 2.0232 1.4213 1.7055 1.9939 1.3293 4.2178-0.20897 1.2457 0.719 1.7431 1.6386 2.4663 0.35111 0.30095 0.6897 0.61866 1.0158 0.9447 0.61031 0.62284 0 0.90293 0.29262 1.5341 0.21731 0.47235 1.3209 0.37621 1.7598 0.64375 1.0242 0.61866 0.24662 1.9981-0.12127 2.7589-0.59776 1.2415-0.72316 3.8416-1.9103 4.6901-0.69807 0.50164-1.8602 0.071-2.5624-0.1756-1.7556-0.61867-1.555 0.12961-2.2238 1.4965-1.0994 2.2405-1.2206 4.4309-2.8299 6.4333-0.70647 0.882-1.4589 1.9856-0.974 3.1099 0.61866 1.4296 0.68555 1.5007-0.17561 2.855-0.78169 1.2289-4.1592 2.6167-3.9 4.2512-1.3544-0.22571-3.1392-1.1913-4.3725-0.16298-1.1202 0.93218-1.0994 3.1101 0.69392 3.3651 2.1946 0.30933 3.9419-1.5425 5.9568 0.26756 1.3335 1.1955 1.9312 2.9679 3.9419 3.3942 1.0451 0.22573 2.1277 0.12128 3.1895 0.17562-0.0336 0.765 0.69807 1.3586 0.72315 2.1319 0.0292 0.94053 1.3042 1.7766 2.2238 1.8644 1.4547 0.13795 3.4821-0.56432 4.5145 0.68554 1.1496 1.3878-0.48491 3.1435-1.0617 4.5438 0.0251-0.0251 0.046-0.05 0.071-0.0751 0.62284 0.56017 0.61865 1.7599 1.346 2.1277 1.2958 0.65216 2.2657-0.47233 2.8969-1.1621 0.836-0.91543 1.0994-1.7975 2.1151-2.3117 1.0618-0.53926 1.8811-0.1463 3.0599-0.48491 1.5383-0.44309 0.98234-1.3251 2.1068-2.1528 0.93638-0.68975 1.4756-0.22991 2.5793-0.2341 2.0859-6e-3 4.5521-1.7849 3.4151-3.6534s-4.4225-2.6167-6.2953-3.6367c-1.647-0.89875-1.5884-1.4213-2.0984-3.0222-0.33858-1.0618-1.183-2.157-1.4296-3.1812 0.34279 0.0584 0.81517-0.12528 1.1119-0.11287-0.0584-0.27592 0.11701-0.68974 0.0627-0.96564 1.3042-0.16726 3.7244 0.90293 4.3558-0.7524 0.44723-1.1705-1.3753-2.7756-1.4297-3.946-0.0627-1.4045 1.1956-2.554 1.5634-3.9 0.28423-1.045 0.12127-2.1235 0.21731-3.1895 0.13367-1.438 1.0743-2.9179 2.1862-4.2722 0.85691-1.0408 1.81-2.0065 2.5623-2.8216 0.15488-0.16726 0.63542-0.48904 0.71064-0.67718 0.1587-0.38038-0.28424-0.76077 0.27174-0.97815-1.0033-0.35115-1.9438-0.2926-2.9553-0.49742-1.0116-0.20491-1.208-0.97399-1.7139-1.693-0.6061-0.86109-1.4337-1.0994-2.3827-1.5299-0.83601-0.38041-1.3167-1.0492-1.9646-1.6386-0.54763-0.50164-1.066-0.7608-0.68556-1.5049 0.33022-0.64376 1.346-1.7599 2.2196-1.6261 0.92385 0.13796 1.7097 1.438 2.4787 1.9061 0.9071 0.55178 1.7348 0.9238 2.4956 1.6637 0.79004 0.76498 1.6177 1.2248 2.5457 1.8142 0.6061 0.38459 1.0408 1.4505 1.6972 1.6554 0.81092 0.25077 1.509-0.78589 2.3577-0.71065 1.1788 0.1046 1.6302 1.5258 2.579 2.0023 0.99907 0.50164 1.9897-0.22992 2.8132-0.71895 0.68971-0.40969 1.856-0.94055 1.8643-1.8226 0.0136-1.3627-2.0399-1.8894-2.717-2.8886-0.5016-0.73988 0.0203-1.3126 0.89038-1.4589 1.0994-0.18396 2.0692 0.37201 2.462 1.3 0.34696 0.81096 0.30934 1.693 1.091 2.3074 0.65211 0.51416 1.7473 0.66046 2.575 0.45147 0.88203-0.2216 0.52669-0.89875 0.79423-1.6261 0.31769-0.87781 1.5884-0.76077 1.7431-1.8267 0.22159-1.5257-1.1119-2.4537-1.8142-3.6367-0.68555-1.1537-0.33441-3.6367 1.6595-3.4988 1.4338 0.10033 2.8802 3.1769 2.7882 4.3265-0.0667 0.87778-0.76078 1.7013-0.32189 2.575 0.45147 0.91126 1.484 1.1704 2.412 1.4756-0.0919 0.82766 0.12962 1.3794 0.23825 2.1569 0.0584 0.40968-0.12963 0.84021 0.0627 1.229 0.17562 0.3553 0.61866 0.55178 0.88204 0.84438 0.46814 0.51832 1.4881 1.3335 2.2112 1.4505 0.35115 0.0584 0.74826-0.018 1.1078 6e-3 0.45983 0.0293 0.75241 0.28008 1.1913 0.29261 0.37207 1.0827-0.57685 2.2071-0.53505 3.3065 0.0376 1.0826 1.5174 0.76496 2.2448 0.41382 0.38458-0.18394 0.67301-0.48908 1.0618-0.66881 0.61028-0.28427 1.2707-0.40131 1.8351-0.78588 0.84441-0.57267 1.3042-1.438 2.2197-1.9521 1.0743-0.60614 2.3408-0.94471 3.1685-1.8644 1.2373-1.3669 2.7589-3.1392 4.2555-4.2345 0.86113-0.63117 2.1152-0.77748 2.6963-1.7431 0.50159-0.83184 0.10033-1.8685 0.26753-2.7422 0.21731-1.1286 1.1537-1.2958 1.509-2.3117 0.37206-1.0618 0.42221-2.5373 0.67719-3.6577-1.693-0.7817-3.4361-0.89874-5.2169-1.7515-0.1756-1.1578 1.0618-1.9772 1.1579-3.0389-1.5592-0.53505-2.717-2.2781-4.7401-1.6219-1.555 0.50577-2.1402 2.2489-3.9753 2.5793-0.51835-0.85275 1.1746-3.2312 1.7389-4.0213 0.85691-1.1955 2.3493-0.0376 3.808 0.15893 2.1277 0.28424 2.2364-1.0367 3.4988-2.3994 0.64371-0.69811 1.4589-1.045 2.1528-1.6637 0.50161-0.44729 0.80674-1.438 1.3418-1.7515 0.81512-0.47654 1.8351 0.62281 2.7506 0.15488 1.1161-0.57273 0.24661-2.6796 0.30515-3.5867 1.2498 0.0796 1.6428-0.93634 2.5874-0.92798 0.84858 6e-3 1.484 0.82764 2.4454 0.37619 1.0994-0.51413 0.99483-1.8936 1.7222-2.6586 0.61866-0.6479 2.6963-1.1955 1.137-2.2489-0.78586-0.53089-2.2865-0.11701-3.2479-0.25081 0.0627-0.7357 0.65213-1.3752 0.53509-2.0859-0.8193-0.0251-1.9354-0.83602-1.6512-1.7055 1.3585 6e-3 1.4923-0.40965 2.1987-1.392 0.64795-0.90292 1.183-0.79422 1.902-1.5383 0.78166-0.81095 0.59359-1.4965 1.9103-1.7306 1.183-0.20897 1.718-0.10459 2.7046-0.79838-0.0136 0.52668-0.17562 1.2916 0.17155 1.7473 0.54343 0.71482 1.0199 0.28006 1.8936 0.43473 0.63122 0.113 1.0826 0.47238 1.7055 0.61867 1.0534 0.24665 1.1036-0.11286 1.8727-0.39293 1.2541-0.45146 2.6293-2.0065 3.7413-1.1913 0.88619 0.64789 1.3669 1.9187 2.2907 2.6376 0.98236 0.76499 2.3117 1.7849 3.6744 1.4924-0.10032-1.0994 0.15893-2.2781 0.14631-3.4151-0.0136-1.3711 0.22991-1.9437 0.74826-3.1644 0.43054-1.0074 0.65628-2.2489 0.22988-3.2062-0.61449-1.3794-1.4296-1.7515-1.3418-3.3565 1.718-0.5727 2.8049-2.2741 2.9136-3.9544z"  fill="#e2b584" id="Patiala" />
  <path d="m170.87 123.57c0.0836-0.57685 0.25499-1.183 0.56015-1.6972 0.38458-0.63957 1.254-0.67719 1.5383-1.3167 0.21325-0.47654 0.20491-1.0534 0.12962-1.5509-0.12541-0.84852-1.8727-0.48483-2.621-0.38871-2.2614 0.29678-3.5574 1.2457-5.6935-0.046-1.5341-0.92802-3.3565-1.137-4.8824-2.0316-2.3117-1.3544-1.0785-2.5666-1.3251-4.5312-0.0627-0.49745-0.73155-0.69811-0.80678-1.1955-0.11287-0.76914 1.2875-0.52669 1.5717-0.91127 0.45979-0.62704-2.6376-2.9136-3.1058-3.2855-1.2081-0.95305-2.7799-0.91126-4.2469-0.49741-1.6595 0.47232-2.6043 0.45143-2.3158-1.4547 0.0962-0.62701 0.34696-1.229 0.36367-1.8685-0.86112-0.4222-1.7222-0.86528-2.4664-1.4505-1.7222-1.346-2.5876-3.4611-3.8164-5.1626-0.77752-1.0701-1.7807-3.4444-3.0932-4.0087-2.2406-0.96142-2.0984-1.0701-2.0901-3.3818 6e-3 -1.4129-1.0199-2.8802-2.7673-2.2948-0.8653 0.28843-1.7473 0.77335-2.1152 1.5843-0.14224 0.38878-0.31351 0.76916-0.50582 1.1412-0.25915 0.02029-0.49743 0.09198-0.71061 0.21325 0.2759 0.40961 0.10032 0.74405-0.6939 1.4839-1.0158 0.9447-0.54757 1.7013-0.75242 2.8843-0.29679 1.7222-1.0868 3.0055-1.8058 4.5688-0.40969 0.87786 0.62283 2.4287 0.61866 3.3985-6e-3 1.0367-0.73153 1.927-1.7223 2.3493-0.7273 0.30932-1.5842 0.36364-2.2113 0.74407-0.51833 0.31349-2.1653 2.3158-2.0357 2.6503 0.63539 1.647 3.1645 2.2781 4.0296 3.6868 0.38877 0.63123 1.5718 1.3293 1.2791 2.1486-1.4672 0.57268-3.0139 0.93221-4.5605 1.2749-1.5049 0.33441-3.7871 0.71064-4.7027 1.9103-0.71898 0.94053-1.1119 2.2405-1.9898 3.0599-0.76079 0.71481-1.6554-0.35114-2.4204-0.38037-1.2708-0.05-1.4588 2.8509-1.9647 3.6034-1.2122 1.8016-3.3065 3.9084-5.0956 5.2293-1.7222 1.2749-0.1799 2.391-0.74406 4.1802-0.29261 0.92385-0.70642 2.1236-1.6888 2.6293-0.80679 0.41383-1.392 0.33861-1.7849 0.97813 0.0919 0.10033 0.17989 0.20063 0.26333 0.2968-0.0836-0.0962-0.17155-0.19634-0.26333-0.2968-0.0836 0.13797-0.1632 0.30516-0.22991 0.52255-0.54342 1.7222-0.0419 3.3065-0.45147 4.9451 1.9312 0.75241 5.0497 1.1955 6.6589 0.53086 1.6052-0.66462 1.9563 0.0961 3.1352 1.0701 0.62704 0.51836 1.137-0.19228 1.4714-0.63538 0.61866-0.81097 0.89454-0.60195 1.927-0.58942 1.5007 0.0203 1.2958-0.58519 1.5968-1.6511 0.19634-0.70224 2.2574-1.973 2.7046-1.5425 1.0074 0.96561 1.254 1.2415 2.7213 0.89039 1.7348-0.40967 3.5657-0.58943 5.3463-0.74824 2.7296-0.24246 5.9692-1.6178 8.3685 0.35949 0.96562 0.7942 2.554 5.7101 4.3265 3.5281 2.0734-2.55 1.346 2.0316 3.0139 1.9062 1.3335-0.10033 2.4663-1.0199 3.7873-1.2457 2.0232-0.34695 4.0172 0.0751 6.0237 0.28005 3.6701 0.38038 5.6139-0.32186 5.1457-3.8876-0.40131-3.0598 3.6994-6.1364 6.73-6.9475 1.2499-0.33439 2.809 0.84021 3.6534-0.55595 0.65628-1.0868-0.37203-2.3744 0.71898-3.3651 0.34697-0.31771 0.6939-0.90712 1.1119-1.3586-1.0534-0.88617-1.2916-2.5373-1.1161-3.7704z" fill="#a2b0a2" id="Fategarh Sahib" />
  <path d="m108.86 235.62c-1.0325-1.2499-3.0599-0.54759-4.5145-0.68555-0.91965-0.0879-2.1946-0.9238-2.2238-1.8643-0.025-0.76915-0.7566-1.3669-0.72318-2.1319-1.0617-0.0543-2.1444 0.05-3.1895-0.1756-2.0107-0.43055-2.6084-2.1988-3.9419-3.3944-2.0148-1.8058-3.7621 0.046-5.9568-0.26754-1.7975-0.25495-1.8142-2.4287-0.69391-3.3651 1.2331-1.0283 3.0179-0.0627 4.3725 0.1632-0.25916-1.6345 3.1185-3.0222 3.9-4.2512 0.8611-1.3544 0.79422-1.4212 0.1756-2.855-0.4849-1.1244 0.26336-2.228 0.97398-3.1099 1.6093-2.0023 1.7306-4.1926 2.8299-6.4333 0.67301-1.3669 0.47234-2.1151 2.2238-1.4965 0.70228 0.24665 1.8643 0.67719 2.5624 0.17561 1.1871-0.85272 1.3125-3.4485 1.9103-4.6901 0.36785-0.76493 1.1454-2.1402 0.12127-2.7589-0.43892-0.26754-1.5425-0.17156-1.7599-0.64376-0.28843-0.62702 0.3177-0.90709-0.29259-1.5341-0.32605-0.32607-0.66464-0.63957-1.0158-0.94476-0.91963-0.71894-1.8476-1.2164-1.6386-2.4663 0.37622-2.2239 0.69388-2.7966-1.3293-4.2178-1.5007-1.0534 0.71065-4.201 1.8226-5.083 0.80256-0.63955 1.9396-0.33442 2.9052-0.45983 1.229-0.1632 1.8016-1.0575 2.7589-1.6679 1.1119-0.71061 2.2364 0.0376 3.4444-0.15035 0.97818-0.15036 0.61031-1.3168 1.8476-1.1872 0.56013 0.0584 1.5926 0.61451 1.9187-0.0963 0.37619-0.8235 0.23825-1.9437 0.45562-2.8216 0.33861-1.3669 1.4505-0.43055 2.4956-1.4797 0.82351-0.82352 0.54344-1.9103-0.1086-2.7339-0.93214-1.183-2.8426-3.4278-4.2219-4.1299-0.94474-0.4807-1.5634 0.41386-2.4413 0.53089-0.95306 0.12528-1.509-0.74408-2.1402-1.2248-1.5257-1.1579-4.4812 1.0284-5.7478 1.8727-0.93216-1.6344-2.8259-3.3232-4.9241-3.3022-1.8602 0.0203-4.2889 1.045-5.2963-0.57272-0.39711-0.64371-0.37203-1.5884-0.85276-2.1151-0.66464-0.72316-1.0994-1.4129 0.30516-1.5926 1.9229-0.25084 3.6744-2.6126 4.7027-4.0423 1.3627-1.8936 1.7682-4.9241 3.5865-6.4333 1.8518-1.5383 3.1769-2.6836 1.0952-4.5021-0.62705-0.54758-2.4037-1.3251-1.392-2.111 0.99488-0.77333 1.5801-1.8142 2.1862-2.8466 0.24241-0.41381 0.40126-0.8235 0.5016-1.229-0.33861-0.13391-0.64377-0.2717-0.89456-0.41803 0.25079 0.1463 0.55595 0.28843 0.89456 0.41803 0.41383-1.6386-0.0877-3.2229 0.45147-4.9451 0.0667-0.21733 0.14631-0.38459 0.22991-0.52255-1.4882-1.6428-3.896-3.8917-6.0278-4.3932-1.3126-0.30932-2.3367-4.6651-4.7861-2.6126-2.1361 1.7933-4.6315 4.1759-7.3528 5.221-2.32 0.89035-0.85691-3.4194-1.0116-4.3222-0.17154-0.99907-1.2415-0.65627-1.973-0.45564-1.2081 0.33443-2.0065 0.28842-2.8216-0.71062-0.50997-0.61865-2.1737-1.7181-2.1904-2.5247-0.02495-1.1956 1.9103-1.5843 2.3367-2.5917 0.53506-1.2624-0.66048-2.3158-1.9479-2.391-1.5968-0.0919-1.948-0.94055-3.5405-0.38039-1.2959 0.45567-1.8184-0.90708-2.5164-1.601-1.1705-1.1621-1.7807 0.47655-1.6679 1.4296 0.34693 2.9052-3.0892 0.33023-4.1426-0.17988-0.83185-0.40132-2.366-0.0628-2.692 0.82766-0.45145 1.229 1.8393 2.7422 2.4454 3.7287 1.0492 1.7139-0.16298 1.8393-1.5717 0.97395-1.3251-0.81512-2.2614-0.40547-3.5154 0.32607-1.2415 0.72315-2.2029 0.22574-2.8216-1.02-0.27589-0.55593-0.89039-0.20491-1.3168-0.12128-0.68136 0.13369-0.82346-0.71063-1.2081-1.0618-2.3117-2.1026-4.6274 0.89039-6.0068 2.4077-2.2197 2.4413-3.971 1.1453-6.7593 1.1453-2.0023 0-4.084-2.2657-6.2451-0.74823-1.254 0.87783 3.5907 3.5154-0.57268 3.6117-1.1035 0.0251-2.0901-1.5007-3.0265-0.94053-1.8184 1.0952-3.0892 0.1086-5.1876 0.39295-1.948 0.26335-3.3398 1.4338-5.0873 2.1235-0.71064 0.28009-2.621-0.19657-3.733-0.0961 0.32605 1.7932 0.92382 3.0892 1.7348 4.7318 0.62701 1.2792-0.04193 2.3493-1.0325 3.2731-2.2657 2.1109-4.3306 2.1862-6.4793 0.0503-1.9605-1.9563-3.5741-2.0316-5.0747-1.0325 0.10032 0.0251 0.20063 0.046 0.30518 0.0837-0.10437-0.0336-0.20491-0.0584-0.30518-0.0837-0.81095 0.5434-1.5926 1.4003-2.3744 2.4496-1.81 2.4287-4.9158 5.4843-3.808 8.6571 1.0534 3.0222 5.0997 3.2938 5.079 6.7092-0.00427 1.0408-0.16727 2.5164 0.95727 3.1602 0.98651 0.56434 2.2238 0.40967 3.2855 0.76498-1.254 1.2666-1.9061 2.9052-0.66883 4.4225 1.0367 1.2666-0.58104 1.7682-1.7389 2.1319-1.7598 0.55594-0.34695 1.6512-0.19657 2.8299 0.071005 0.5518-0.17132 1.4087 0.66883 1.555 0.53925 0.0919 1.6135 0.0836 1.8602-0.50995 0.72734 1.7347 1.8016 2.0901 3.3567 3.0432-1.0074 0.39297 1.254 5.3423 1.4003 5.9191 0.17989 0.73151 0.99487 1.973 0.37621 2.508-0.66044 0.5685-0.87784 2.2071-1.463 2.4873 0.71481 0.92384 3.7287-2.1319 4.2179-0.2926 0.18395 0.69391 0.49324 1.5466 0.69389 2.3701 0.8486-0.12128 1.6637-0.38875 2.5207-0.45147 0.97815-0.071 1.9479 0.17561 2.9219-0.018 1.8434-0.36365 2.6836 0.3386 3.9586 1.5132 1.8183 1.6762 3.2355 5.9691 6.2911 5.6222 1.6804-0.19229 3.0096-0.10032 4.5271-0.85276 1.4965-0.73987 2.1402 0.64377 3.4235 1.0116 2.2322 0.6354 5.4592-1.9605 5.3756 1.4254-0.03359 1.2164 1.5216 1.994 1.275 3.1852-0.23829 1.1453-1.8434 1.672-1.7682 2.9219 0.04599 0.74826 0.43889 1.4547 0.53504 2.2029 0.11293 0.90291-0.17989 1.7473-0.2926 2.6336-0.13796 1.0785 0.26331 3.0932 1.8978 2.9638 1.0367-0.0795 1.3418-1.346 2.3744-1.4004 1.1955-0.0584 2.3034 1.5842 2.5793 2.4913 0.45145 1.4881-0.86947 2.692-1.9521 3.6117-1.137 0.96981-1.8016 0.93639-3.2479 1.112 0.06673 1.3 0.38459 2.5833 0.32188 3.8917-0.04193 0.80259-0.43475 1.718-0.17989 2.5164 0.32188 0.99904 1.6553 1.1328 2.4706 1.6344 0.66878 0.40966 1.1746 1.0032 1.7724 1.4881 1.7765 1.4421 3.1769 0.45562 4.5438-0.85273 1.5467-1.484 3.1018-0.81932 4.4811 0.49742 1.948 1.8601 1.1035 3.3565 0.9907 5.6808-0.10459 2.1695-0.5978 3.3275 1.0701 4.987 1.81 1.8016-0.33441 2.0692-2.0817 2.2531-1.626 0.17155-2.8342 1.4881-3.5781 2.8216 0.53506 6e-3 0.98234-0.0963 1.5132 0.19229 0.61448 0.33854 0.81094 0.74821 1.6428 0.61027 1.2791-0.21325 1.8936-1.3669 3.0055-1.8434 1.0576-0.45566 1.7389 1.4004 2.6836 1.7975 0.64373 0.27171 1.0576 0.33023 1.7139 0.17561 0.31351-0.0751 0.68972-0.10033 0.98654-0.17155 0.24244-0.0584 0.57682-0.37204 0.80256-0.35951 0.89874 0.0419 1.5676 3.0639 1.9312 3.737 0.72735 1.3544 1.8017 2.7129 3.1728 3.5238 0.50999 0.30101 0.99485 0.56434 1.4756 0.88202 0.33862 0.21731 0.7441 0.60195 1.1454 0.72319 1.045 0.30512 2.2364-0.32189 3.0432 0.57266 0.90293 0.99489 1.6052 1.902 3.1352 2.1235 1.0701 0.15465 2.1528 0.0251 3.2228-0.0667 0.78169-0.0667 1.9898 0.11701 2.6543-0.32188 0.49324-0.32606 0.71479-1.0074 1.1119-1.4296 0.63959-0.67723 1.3126-1.1287 2.0984-1.6261 0.01797-6e-3 0.02922-0.018 0.04189-0.0294 0.39294-0.24662 0.55596-0.49743 0.97815-0.68556 1.6888-0.73153 1.7807 1.6679 3.3651 1.6386 0.68552-0.0136 1.2331-1.2248 1.4421-1.8184 0.63954-1.8225 2.4037-1.3585 3.6117-2.575 0.46401-0.46816 0.31352-1.0158 0.5476-1.6595 0.41804-1.1412 1.3126-2.3284 2.1737-3.2395 0.56015-1.3711 2.1946-3.1268 1.045-4.5145z" fill="#f9d3c6" />
 </g>
 <g fill="none" stroke="#345">
  <path d="m202.48 31.766 1.9821 1.9679-1.9821 1.3624-1.6772 0.60552 0.91482 1.211-1.5247 1.0597 0.60987 0.90828-4.5741 3.4818 1.0673 1.8166 1.6772 1.8166-2.287 1.8166-2.2871 1.211-3.6593 1.3624 3.9642 8.0232-1.5247 1.8166-2.287 1.8166-2.7445 1.9679-2.1346 1.5138-7.6235 3.7845v1.6652l-5.489 5.1469-5.0315 5.2983-1.9821 2.5735-4.4217 4.39-5.0315 3.9359 1.0673 2.1193v0.75691l-4.7266 6.0552-1.0673 1.8166-0.91483 0.90828-1.0673-0.45416-0.60988-0.75689-3.8118-1.5138-4.2692-2.8762-0.45742-0.15138-4.4216 1.5138-1.5247 0.15137-1.9821 1.0597-2.2871 1.0597-2.1346 0.60551-8.9958 1.3624-3.9642 0.90827h-2.897l-3.6593-0.15137-3.5068-0.15137-1.8296-0.15139-2.8969 1.6652-7.776-0.90829-9.4532 2.2707-0.76235 0.90828-1.3722-0.7569-3.0494 0.7569-1.5247-1.0597" stroke-width=".5px"/>
  <path d="m202.48 31.766-1.4022-2.2844-0.7011 0.19036-4.1771 2.9731-1.1389 1.5461-6.4061 5.1023-2.4201 0.15461-0.9965 0.77307h-0.99652l-0.9965 1.0823h-1.8507l-0.85414 0.61846-0.85416-0.30923-1.4236 0.46384-2.4201-0.30923-3.8437 2.4738-0.9965 0.92768-0.85416 1.2369-2.7048 1.0823-2.8472 1.0823-2.1354 0.77307h-7.2603l-2.2777-0.61846-9.8227 1.2369" stroke-width=".5px"/>
  <path d="m190.57 37.834-1.8298-2.656-2.2365 1.7074-7.3194-1.8972-1.6265-1.5177-1.6266 0.18971-3.863-1.5177-7.5227-2.2766-3.2531 1.328-4.4729-2.0869-3.2531 0.37943-4.6763-0.18972-8.336-3.984-5.2862-0.37943-5.2862-0.75886-5.2862-0.56915-4.6763-1.1383-7.3194-1.7074-6.7094-0.37943-3.4564-0.56915-2.0332-0.56915-2.8464-0.94858-3.6597-0.18972-5.2862-2.4663-7.5227-3.0355-3.4564-0.37943" stroke-width=".5px"/>
  <path d="m143.1 49.962-0.73857 1.6002 0.73857 3.816 0.98476 0.86167 0.73858 29.051-0.36929 2.3388v1.1079l-0.24619 1.4771v1.231l-0.1231 1.3541-0.12309 0.86166-0.49238 0.86167-0.1231 1.1079" stroke-width=".5px"/>
  <path d="m162.47 49.341-0.63502 3.7354-0.79379 0.84895-1.5876 1.0187-1.4288 2.0375-1.7463 1.8677-2.0638 1.6979-2.0638 1.6979-1.27 0.67916-1.5876 1.3583-1.2701 0.84895-1.27 0.84895-2.3813 0.50937" stroke-width=".5px"/>
  <path d="m76.925 12.719 2.7662 1.8771 4.2481 2.5686 3.0626 1.9759 3.853 2.6674 3.359 2.5686 4.0505 3.1614 6.5204 5.1373 3.853 1.7783 5.1373 2.4698 7.8047 3.9517 1.4819 0.98794 10.768 7.3107 9.2866 6.224" stroke-width=".5px"/>
  <path d="m76.925 12.719 0.30346 7.2896-0.50576 0.39403-0.10115 0.78807 1.1127 0.78807 0.70807 5.615-2.0231 2.1672-0.10115 2.1672-0.2023 1.4776-0.10115 0.98509-0.10115 0.68956v2.1672l0.10115 1.1821-0.10115 1.2806-0.2023 0.88658v0.88658l0.50576 0.68956v0.98509l-0.10115 0.68956 0.40461 1.5761-0.50576 2.6597 3.2369 5.812 0.30346 2.4627 0.40461 4.9254-0.2023 3.0538 1.2138 2.0687-0.20231 2.5612-0.2023 3.5463v1.3791l0.50576 1.4776 0.2023 4.1374-1.6184 2.3642-1.6184 5.0239-4.0461 11.624-0.2023 1.1821 0.10115 1.4776 0.10115 1.5762v4.0388" stroke-width=".5px"/>
  <path d="m76.542 107.3-2.5511-0.50996" stroke-width=".5px"/>
  <path d="m139.8 53.095-1.6774 1.3871-0.98668 0.79263-1.0854 1.4862-0.78935 0.19816-1.3814 1.7834-1.184 1.9816-0.19733 1.288v0.69355l-0.0987 1.5852-1.8747 0.09908-1.3814 0.99078-4.8348 4.1613-0.296 1.5852-0.88802 2.576-0.88803 3.5668-1.5787 3.2696-2.7627 4.7557-1.8747 0.8917-1.184 1.8825-1.0854 0.8917-1.0854 0.19816-1.3814-0.19816-0.39467 0.19816h-1.776l-0.98669-0.29724h-0.69068l-0.88803 0.19816-0.9867 0.29724-1.0853-0.09908-0.59203-0.09908-1.0854 0.19816h-0.69068l-0.98671 0.19816h-0.78935l-0.78934 0.29723-1.0854 0.29724-0.69068 0.19816-1.184 0.09908-0.29601-0.8917-1.2827-0.09908-1.184 0.99078-0.78935 0.79262-0.88802 1.1889-4.4401 3.0714-2.4667 2.6751-2.0721 1.5853-3.1574 2.1797-2.0721 1.5852-3.9468 3.2696" stroke-width=".5px"/>
  <path d="m156.44 92.318-4.6927 3.6414-2.7236 1.5563-5.6715-1.8857-2.3118 2.7431" stroke-width=".5px"/>
  <path d="m149.02 97.516 1.7748 6.4585" stroke-width=".5px"/>
 </g>
 <g fill-rule="evenodd" stroke-width=".2888">
  <ellipse cx="77.281" cy="12.598" rx="1.9923" ry="2.0427"/>
  <ellipse cx="74.121" cy="107.05" rx="1.9923" ry="2.0427"/>
  <ellipse cx="143.57" cy="95.376" rx="1.9923" ry="2.0427"/>
  <ellipse cx="142.21" cy="50.631" rx="1.9923" ry="2.0427"/>
  <ellipse cx="202.33" cy="31.371" rx="1.9923" ry="2.0427"/>
 </g>
 <g fill="#000000" font-family="sans-serif" letter-spacing="0px" stroke-width=".26458" word-spacing="0px">
  <text x="181.89842" y="26.896721" font-size="3.5277px" style="line-height:1.25" xml:space="preserve"><tspan x="181.89842" y="26.896721" font-size="4.2333px" stroke-width=".26458">Chandigarh</tspan></text>
  <text x="59.985817" y="116.39412" font-size="3.5277px" style="line-height:1.25" xml:space="preserve"><tspan x="59.985817" y="116.39412" font-size="4.2333px" stroke-width=".26458">Sangrur</tspan></text>
  <text x="67.347717" y="8.1469822" font-size="3.5277px" style="line-height:1.25" xml:space="preserve"><tspan x="67.347717" y="8.1469822" font-size="4.2333px" stroke-width=".26458">Ludhiana</tspan></text>
  <text x="127.60619" y="93.217773" font-size="3.5277px" style="line-height:1.25" xml:space="preserve"><tspan x="127.60619" y="93.217773" font-size="4.2333px" stroke-width=".26458">Patiala</tspan></text>
  <text x="135.24074" y="41.684509" font-size="4.2333px" style="line-height:1.25" xml:space="preserve"><tspan x="135.24074" y="41.684509">Fategarh</tspan><tspan x="135.24074" y="46.976101">Sahib</tspan></text>
 </g>
</svg>
