<svg width="322.17mm" height="184.34mm" version="1.1" viewBox="0 0 322.1718 184.33625" xmlns="http://www.w3.org/2000/svg" xmlns:cc="http://creativecommons.org/ns#" xmlns:dc="http://purl.org/dc/elements/1.1/" xmlns:rdf="http://www.w3.org/1999/02/22-rdf-syntax-ns#">
 <g fill="none" stroke="#000">
  <g transform="translate(114.17 -38.138)" stroke-width=".5" stroke="#fff">
   <polygon fill="#e2b584" transform="matrix(.74294 0 0 .74294 -306.4 18.019)" points="675.66 85.299 676.99 85.299 676.99 83.305 676.99 81.365 679.14 81.365 677.65 79.983 677.65 78.488 677.15 75.665 675.66 75.665 673.99 73.665 672.83 73.665 671.17 72.675 670.18 71.844 671.67 70.017 670.01 68.854 668.18 70.017 668.18 68.19 666.69 66.695 668.18 66.695 669.18 66.031 668.68 64.536 666.36 63.539 666.36 61.048 668.51 61.048 667.52 59.719 665.69 59.719 665.69 56.397 664.2 56.397 664.53 55.4 665.86 55.4 667.35 54.57 666.52 51.746 667.85 51.746 669.18 49.587 669.68 47.76 671.01 45.933 672.83 45.933 672.83 43.109 676.16 43.109 677.32 40.285 678.65 38.87 680.97 38.125 681.3 36.298 681.47 34.471 683.3 34.139 684.46 32.728 683.46 30.983 684.79 30.153 685.95 27.329 671.17 27.329 648.75 29.156 646.92 31.814 646.09 30.817 644.76 31.814 644.76 34.471 642.77 34.471 642.77 36.298 641.61 36.298 640.28 38.125 637.58 39.355 637.58 39.355 639 38.87 639 41.37 636.5 41.37 636.5 44.203 634.83 45.703 633 47.203 631.33 47.203 631.33 49.037 629.17 49.037 629.17 51.537 630.17 52.537 629.83 59.203 629.17 60.537 626.33 59.87 624.5 59.37 623.33 60.537 620.17 62.87 617.16 61.869 620.84 71.512 619.68 73.665 618.02 73.665 617.36 74.336 616.19 74.336 616.03 75.167 617.19 76.661 616.03 76.994 615.36 77.99 616.36 79.153 616.36 80.481 615.53 81.365 613.37 81.365 611.87 82.309 611.87 84.136 611.87 86.461 611.87 88.953 613.2 89.119 614.36 89.617 613.2 91.112 614.2 92.441 615.53 91.943 617.36 91.444 619.35 91.112 619.35 93.271 620.34 94.268 622.17 93.77 624.99 93.77 624.99 94.933 625.99 94.933 627.65 93.77 629.98 94.102 632.64 95.099 633.63 97.258 634.96 95.763 636.95 96.427 636.45 99.085 634.8 99.916 636.29 102.41 633.63 105.4 635.46 106.06 636.12 107.56 635.13 108.46 633.63 109.55 635.46 112.21 636.29 109.38 637.28 108.46 637.95 109.88 638.99 111.04 639 111.04 640.28 109.05 641.61 108.46 643.27 108.46 645.76 110.21 647.42 110.21 647.25 112.21 648.42 113.37 650.41 112.21 652.07 111.54 653.56 112.21 656.56 110.71 658.88 109.55 660.38 109.55 662.37 109.55 663.86 108.46 666.19 107.72 667.85 107.39 668.51 106.06 670.34 105.4 670.67 106.39 672.67 106.06 675.82 104.4 675.66 106.23 676.49 107.72 677.98 108.46 679.81 108.46 680.47 106.23 679.98 105.06 682.63 104.23 686.28 101.74 686.78 100.41 688.12 100.41 687.28 99.085 689.11 98.42 689.11 97.092 691.27 96.095 692.1 94.102 690.61 92.275 688.94 92.275 688.94 90.614 687.45 90.282 687.45 89.119 685.95 88.123 685.95 89.617 684.46 89.119 684.46 87.458 681.47 87.79 679.98 89.119 679.98 90.78 678.81 92.275 678.31 90.946 678.81 87.624 677.65 87.79 676.99 89.285 675.32 89.451 676.49 90.946 674.99 90.946 673.99 88.787 674.32 87.125 675.66 87.125"/>
   <polygon fill="#abacda" transform="matrix(.74294 0 0 .74294 -306.4 18.019)" points="532.45 104.55 533.36 104.19 533.09 103.1 534.99 102.1 535.63 102.46 536.72 102.01 538.08 102.01 539.18 101.83 542.99 106.37 541.99 107.64 541.9 108.37 542.99 108.46 543.9 107.37 544.08 108.28 545.99 107.46 547.4 107.69 550.33 104.87 548.81 102.2 550.33 102.04 552 103.2 553.67 103.2 552 101.37 553.5 99.87 555.83 99.87 554.5 97.37 555.33 96.37 557 96.37 558.5 95.203 557 92.703 558.17 91.537 560.67 91.537 561.5 89.87 563.5 89.87 564.17 87.703 565.67 84.87 568.67 84.037 571 82.537 570 79.703 571.67 79.703 574.17 76.703 577.33 73.37 579.83 72.37 581.33 69.703 583.5 69.703 585.33 65.537 587.5 64.703 589.83 65.537 590.83 63.37 592.17 62.87 593.67 64.037 596.5 64.037 600 64.037 600 61.703 607 59.203 608.67 58.537 608.67 60.703 607 62.537 610.5 64.037 613 64.037 614.33 64.037 615.67 61.37 617.16 61.869 620.17 62.87 623.33 60.537 624.5 59.37 626.33 59.87 629.17 60.537 629.83 59.203 630.17 52.537 629.17 51.537 629.17 49.037 631.33 49.037 631.33 47.203 633 47.203 634.83 45.703 636.5 44.203 636.5 41.37 639 41.37 639 38.87 637.58 39.355 626.33 43.203 619.5 39.703 573 56.537 572.67 58.703 571 60.037 569.17 60.037 567.17 59.87 565.83 61.37 564.83 61.537 563.83 63.703 561.67 63.703 561.17 62.703 560.17 63.203 559.5 64.537 558 63.87 557.17 63.537 555.83 64.203 556.17 65.87 554.5 65.537 553.17 66.37 551.83 67.87 550.83 67.703 548.81 68.703 546.33 69.37 544.83 70.537 543.33 71.203 541.67 71.703 540.17 72.203 539.83 73.37 538.17 74.537 535.5 74.037 534.33 76.37 534.17 75.037 531.33 72.87 531.5 71.537 529.67 71.537 528 73.37 527.17 72.87 526 73.37 524.5 74.537 519 72.87 517.33 71.37 515.83 72.87 515.33 71.703 513.67 70.703 514.5 69.203 514.5 68.203 512.83 67.37 511.5 67.537 510.33 70.87 508.67 70.203 509.17 72.037 510.5 73.037 510 75.37 512.17 75.37 513.33 77.037 513.33 78.037 513.91 81.395 513.98 81.365 516 82.836 515.82 86.925 519.09 90.65 518.46 92.922 518.73 95.103 516.73 96.738 514.37 94.558 512.55 95.375 513.37 97.011 515.19 98.829 517.55 99.737 518.36 100.46 517.82 102.28 518.64 103.83 520.64 103.74 525.55 102.1 527.27 102.19 529 101.1 529 102.19 530 101.74 531.18 101.83 531.18 103.37 532.36 103.37"/>
   <polygon fill="#c2f0c2" transform="matrix(.74294 0 0 .74294 -306.4 18.019)" points="532.7 147.2 530.96 146.33 529.46 147.2 528.58 144.7 530.96 143.2 532.46 143.2 533.08 141.45 535.46 140.08 535.7 137.08 536.58 135.58 539.33 134.95 541.46 132.2 543.46 131.08 543.7 129.42 545.2 127.83 547.12 123.56 544.36 119.09 544.36 120 543.17 119.82 541.27 120.79 540.63 122 541.63 122.64 541.63 123.54 539.54 123.45 539.99 125.54 538.9 126.18 538.36 125.54 537.18 124.27 535.9 124.27 535.9 127 534.91 127.36 534.27 126.45 532.54 126.36 530.91 126.63 530.91 129.27 530 129.45 528.64 128.72 527 129 525.72 127.71 523.01 129.82 520.9 129.52 520.9 132.22 519.4 132.52 519.4 129.82 515.78 128.61 513.98 131.02 510.67 133.43 509.77 136.06 507.96 136.06 506.45 136.06 507.06 139.75 505.55 139.75 501.94 141.55 503.15 143.36 498.03 143.36 495.32 144.86 494.12 140.95 490.51 144.26 491.41 147.87 490.2 148.78 487.8 146.67 485.69 149.08 485.33 148.9 485.33 152.7 486.58 153.95 488.33 153.95 489.33 156.95 488.83 160.21 486.83 161.45 485.33 163.7 487.33 164.95 485.33 167.25 488.58 167.25 488.58 168.7 491.08 168.7 492.83 168.7 492.83 172.2 492.83 174.28 494.58 178.7 495.83 178.7 498.08 179.7 498.83 181.45 497.33 183.45 495.83 185.2 497.83 187.45 499.33 188.7 500.33 191.45 499.33 194.75 497.83 198.44 499.83 200.95 502.58 202.05 502.58 203.7 499.83 205.2 499.83 207.45 502.08 210.7 502.08 212.95 505.33 212.95 506.83 208.45 505.33 205.45 506.83 203.7 506.83 201.7 508.67 201.7 509.83 198.44 511.58 196.2 514.08 194.75 514.08 191.45 518.08 189.45 518.08 190.2 518.08 193.45 518.08 195.95 518.08 198.44 519.08 201.7 522.33 201.7 522.33 198.44 524.08 198.44 524.08 196.2 526.83 196.2 526.83 194.75 528.58 192.95 530.08 191.2 528.58 188.95 531.08 188.2 529.83 185.2 528.58 183.95 532.58 182.7 534.58 181.45 536.58 181.45 534.58 178.2 536.33 178.2 539.58 178.2 539.58 175.7 541.58 175.7 541.58 173.95 542.83 172.2 544.36 172.95 544.36 175.7 546.83 175.7 546.83 173.24 548.81 174.28 549.83 172.2 551.07 170.46 550.46 170.2 550.46 169.45 549.33 169.58 547.96 170.7 546.7 169.08 546.7 167.95 544.36 167.45 542.83 166.83 541.83 166.58 540.7 165.45 541.46 163.83 541.46 161.95 540.7 161.08 539.46 160.21 537.58 159.08 538.7 156.95 537.58 156.08 538.83 155.7 538.2 153.45 536.7 152.33 537.58 150.02 536.7 148.58 535.96 147.08 535.2 146.7"/>
   <polygon fill="#a3b0a3" transform="matrix(.74294 0 0 .74294 -306.4 18.019)" points="578.87 120.14 573.83 128.17 573.83 129.42 571.99 129.42 570.95 129.42 569.07 129.42 570.32 126.5 567.2 126.29 563.23 123.58 565.94 121.39 565.53 118.78 566.57 115.86 565.32 113.37 565.53 111.69 563.23 111.69 563.23 108.46 560.73 108.46 560.73 113.37 559.69 112.32 559.69 109.4 557.19 111.9 554.48 111.9 553.02 112.32 551.35 115.24 551.35 118.94 547.39 124 547.12 123.56 545.2 127.83 543.7 129.42 543.46 131.08 541.46 132.2 539.33 134.95 536.58 135.58 535.7 137.08 535.46 140.08 533.08 141.45 532.46 143.2 530.96 143.2 528.58 144.7 529.46 147.2 530.96 146.33 532.7 147.2 535.2 146.7 535.96 147.08 536.7 148.58 537.58 150.02 536.7 152.33 538.2 153.45 538.83 155.7 537.58 156.08 538.7 156.95 537.58 159.08 539.46 160.21 540.7 161.08 541.46 161.95 541.46 163.83 540.7 165.45 541.83 166.58 542.83 166.83 544.36 167.45 546.7 167.95 546.7 169.08 547.96 170.7 549.33 169.58 550.46 169.45 550.46 170.2 551.07 170.46 551.96 170.83 551.96 172.2 554.08 171.08 555.96 171.08 559.58 170.08 561.2 167.7 563.08 166.83 563.7 165.2 565.46 166.08 565.46 164.95 566.58 164.95 566.58 163.45 568.58 161.58 570.08 161.58 569.33 160.21 570.83 160.21 571.33 157.58 571.33 156.45 573.2 155.58 573.2 153.95 574.58 153.95 574.58 152.45 575.96 150.7 577.08 148.33 578.08 147.58 579.58 146.45 580.96 146.45 582.2 145.58 582.96 147.08 585.08 146.2 586.46 146.45 586.46 148.08 587.46 148.08 588.2 149.08 589.2 149.08 590.33 147.58 592.2 147.58 593.83 145.83 595.08 145.83 597.08 144.58 598.7 144.58 600.7 143.08 600.7 141.33 603.83 139.45 605.33 139.45 605.33 138.58 607.2 137.33 608.96 134.7 610.08 134.7 610.96 135.95 612.96 133.95 614.46 134.33 614.46 135.95 615.7 134.95 617.83 134.08 617.83 132.45 620.08 130.7 621.33 129.42 622.7 128.83 624.2 127.83 625.78 126.82 625.78 125.04 625.78 122.95 625.78 120.79 624.74 120.14 622.86 117.74 620.57 117.95 619.12 116.91 617.45 117.74 614.53 117.95 614.53 120.14 611.87 120.14 609.32 120.79 606.6 123.79 604.52 124.41 602.22 123.58 600.77 125.04 599.31 123.79 594.93 123.79 593.68 121.7 590.76 122.95 586.8 122.74 587.84 120.79 586.8 118.99 585.54 113.37"/>
   <polygon fill="#e7de69" transform="matrix(.74294 0 0 .74294 -306.4 18.019)" points="622.17 93.77 620.34 94.268 619.35 93.271 619.35 91.112 617.36 91.444 615.53 91.943 614.2 92.441 613.2 91.112 614.36 89.617 613.2 89.119 611.87 88.953 611.87 86.461 611.87 84.136 611.87 82.309 613.37 81.365 615.53 81.365 616.36 80.481 616.36 79.153 615.36 77.99 616.03 76.994 617.19 76.661 616.03 75.167 616.19 74.336 617.36 74.336 618.02 73.665 619.68 73.665 620.84 71.512 617.16 61.869 615.67 61.37 614.33 64.037 613 64.037 610.5 64.037 607 62.537 608.67 60.703 608.67 58.537 607 59.203 600 61.703 600 64.037 596.5 64.037 593.67 64.037 592.17 62.87 590.83 63.37 589.83 65.537 587.5 64.703 585.33 65.537 583.5 69.703 581.33 69.703 579.83 72.37 577.33 73.37 574.17 76.703 571.67 79.703 570 79.703 571 82.537 568.67 84.037 565.67 84.87 564.17 87.703 563.5 89.87 561.5 89.87 560.67 91.537 558.17 91.537 557 92.703 558.5 95.203 557 96.37 555.33 96.37 554.5 97.37 555.83 99.87 553.5 99.87 552 101.37 553.67 103.2 552 103.2 550.33 102.04 548.81 102.2 550.33 104.87 547.4 107.69 548.81 107.92 547.17 109.28 547.17 110.73 547.81 111.46 547.08 113.19 546.45 115.28 547.08 117.37 545.99 118.82 544.36 118.73 544.36 119.09 547.12 123.56 547.39 124 551.35 118.94 551.35 115.24 553.02 112.32 554.48 111.9 557.19 111.9 559.69 109.4 559.69 112.32 560.73 113.37 560.73 108.46 563.23 108.46 563.23 111.69 565.53 111.69 565.32 113.37 566.57 115.86 565.53 118.78 565.94 121.39 563.23 123.58 567.2 126.29 570.32 126.5 569.07 129.42 570.95 129.42 571.99 129.42 573.83 129.42 573.83 128.17 578.87 120.14 585.54 113.37 586.8 118.99 587.84 120.79 586.8 122.74 590.76 122.95 593.68 121.7 594.93 123.79 599.31 123.79 600.77 125.04 602.22 123.58 604.52 124.41 606.6 123.79 609.32 120.79 611.87 120.14 614.53 120.14 614.53 117.95 617.45 117.74 619.12 116.91 620.57 117.95 622.86 117.74 624.74 120.14 625.78 120.79 625.78 122.95 625.78 125.04 625.78 126.82 625.78 126.92 628.08 126.92 629.96 126.92 631.62 124 633.92 124 636.73 124 636.73 120.79 636.73 118.58 635.59 115.86 636.63 114.61 637.88 113.37 638.99 111.04 637.95 109.88 637.28 108.46 636.29 109.38 635.46 112.21 633.63 109.55 635.13 108.46 636.12 107.56 635.46 106.06 633.63 105.4 636.29 102.41 634.8 99.916 636.45 99.085 636.95 96.427 634.96 95.763 633.63 97.258 632.64 95.099 629.98 94.102 627.65 93.77 625.99 94.933 624.99 94.933 624.99 93.77"/>
   <polygon fill="#fcc" transform="matrix(.74294 0 0 .74294 -306.4 18.019)" points="485.33 167.25 487.33 164.95 485.33 163.7 486.83 161.45 488.83 160.21 489.33 156.95 488.33 153.95 486.58 153.95 485.33 152.7 485.33 148.9 480.88 146.67 479.67 150.28 476.96 152.09 477.26 155.4 473.95 155.1 471.24 156.3 471.24 160.21 468.84 160.21 466.78 160.21 465.13 157.38 463.47 158.84 463.47 161.5 462.14 163.27 462.14 161.72 458.82 160.84 457.49 163.27 455.06 163.27 452.4 163.27 452.4 167.91 453.73 169.68 454.4 173 452.4 174.28 443.56 171.55 442.01 169.24 442.01 168.14 438.69 167.91 436.48 167.91 428.95 168.8 426.96 168.36 424.09 168.8 421.66 170.57 420.55 173.22 417.45 174.28 417.13 174.28 418.43 176.3 417.41 178.58 418.43 180.77 417.41 182.39 415.59 180.97 415.59 182.39 415.59 184.82 415.59 188.88 416.66 189.54 417.66 189.54 419.83 186.87 420.83 188.54 422.16 188.37 424.16 189.04 426 188.37 427.16 189.87 429.5 189.54 431.83 188.7 432.83 189.87 434.16 189.87 435.66 188.04 437.16 187.37 435.5 186.54 437.83 185.2 438.66 186.87 440 186.87 441.16 186.87 442.66 185.2 444.5 185.2 445.83 186.87 445.83 188.37 446.5 189.87 447.83 188.7 449.16 189.54 450.5 187.2 452.83 186.54 455.83 186.54 458.16 185.2 459.66 185.2 461.5 187.54 462.16 189.87 461.33 193.04 463.16 194.75 464 196.54 465.33 198.44 465.33 200.04 466.78 202.05 466.78 204.37 466.78 206.04 466.78 207.87 466.78 209.04 465.16 209.87 466.78 210.87 468.16 211.2 468.16 209.7 470.66 208.54 470.66 206.54 473 208.04 475.33 209.7 476.83 211.04 476.83 213.04 476.83 214.87 476.83 217.2 475 219.2 475.16 221.87 474.83 223.87 473.33 225.7 473.33 226.87 474.16 227.7 473.66 228.87 472 228.7 471.83 231.37 470.33 234.04 470.33 237.54 470 240.2 468.66 242.54 469 245.54 467.5 246.7 466.78 248.54 466.78 250.37 467.66 252.04 466.78 253.37 467.83 254.2 466.78 255.2 465.66 256.87 465.58 257.93 466.78 259.45 466.78 261.2 466.78 263.45 466.78 265.45 466.78 269.2 466.78 271.95 467.83 274.95 469.58 274.95 470.83 272.95 472.33 270.04 474.08 270.04 475.58 272.2 476.83 271.7 478.83 270.04 480.33 267.45 482.83 267.2 483.33 265.45 485.58 264.95 487.33 262.95 486.33 260.45 486.83 258.2 485.08 257.2 485.83 254.35 484.58 254.35 486.08 251.45 485.83 249.7 487.08 248.45 488.08 246.29 487.83 244.2 489.33 242.95 489.33 241.2 488.58 239.95 490.08 238.4 489.58 235.83 489.58 233.45 492.83 231.7 492.83 228.7 494.08 225.2 495.58 224.95 496.58 222.45 497.83 220.73 499.08 219.7 499.83 217.7 501.33 217.7 501.33 215.95 503.31 216.45 506.83 215.2 506.83 213.2 505.33 212.95 502.08 212.95 502.08 210.7 499.83 207.45 499.83 205.2 502.58 203.7 502.58 202.05 499.83 200.95 497.83 198.44 499.33 194.75 500.33 191.45 499.33 188.7 497.83 187.45 495.83 185.2 497.33 183.45 498.83 181.45 498.08 179.7 495.83 178.7 494.58 178.7 492.83 174.28 492.83 172.2 492.83 168.7 491.08 168.7 488.58 168.7 488.58 167.25"/>
   <polygon fill="#e2b584" transform="matrix(.74294 0 0 .74294 -306.4 18.019)" points="509.77 136.06 510.67 133.43 513.98 131.02 515.78 128.61 519.4 129.82 519.4 132.52 520.9 132.22 520.9 129.52 523.01 129.82 525.72 127.71 527 129 528.64 128.72 530 129.45 530.91 129.27 530.91 126.63 532.54 126.36 534.27 126.45 534.91 127.36 535.9 127 535.9 124.27 537.18 124.27 538.36 125.54 538.9 126.18 539.99 125.54 539.54 123.45 541.63 123.54 541.63 122.64 540.63 122 541.27 120.79 543.17 119.82 544.36 120 544.36 119.09 544.36 118.73 545.99 118.82 547.08 117.37 546.45 115.28 547.08 113.19 547.81 111.46 547.17 110.73 547.17 109.28 548.81 107.92 547.4 107.69 545.99 107.46 544.08 108.28 543.9 107.37 542.99 108.46 541.9 108.37 541.99 107.64 542.99 106.37 539.18 101.83 538.08 102.01 536.72 102.01 535.63 102.46 534.99 102.1 533.09 103.1 533.36 104.19 532.45 104.55 532.36 103.37 531.18 103.37 531.18 101.83 530 101.74 529 102.19 529 101.1 527.27 102.19 525.55 102.1 520.64 103.74 518.64 103.83 517.82 102.28 518.36 100.46 517.55 99.737 515.19 98.829 513.37 97.011 512.55 95.375 514.37 94.558 516.73 96.738 518.73 95.103 518.46 92.922 519.09 90.65 515.82 86.925 516 82.836 513.98 81.365 513.91 81.395 509.77 83.171 509.77 85.278 507.36 83.321 503.15 87.083 503.15 89.491 499.53 91.597 495.62 95.208 495.62 99.422 491.71 99.422 488.7 102.43 485.69 103.64 472.45 120.49 468.54 122.9 466.78 125.9 470.04 127.71 472.15 130.42 470.95 132.22 466.78 133.73 464.93 133.73 463.12 136.06 459.81 138.54 457.81 141.21 459.7 142.92 461.48 144.46 462.58 146.23 461.48 148.35 462.58 150.22 462.58 152.21 465.02 152.21 466.78 155.75 465.24 157.3 465.13 157.38 466.78 160.21 468.84 160.21 471.24 160.21 471.24 156.3 473.95 155.1 477.26 155.4 476.96 152.09 479.67 150.28 480.88 146.67 485.33 148.9 485.69 149.08 487.8 146.67 490.2 148.78 491.41 147.87 490.51 144.26 494.12 140.95 495.32 144.86 498.03 143.36 503.15 143.36 501.94 141.55 505.55 139.75 507.06 139.75 506.45 136.06 507.96 136.06"/>
  </g>
  <g>
   <path d="m2.038 150.13 1.611 2.377 3.2219-0.4754 2.1479-0.71312 4.2959 2.1394 1.8794-2.1394 3.7589 0.23771 6.1753-0.47541 3.4904 1.1885 2.1479-0.71312 2.9534 1.4262 4.8328-1.4262 2.6849-0.95082h1.611l3.2219 2.6148h2.1479l2.1479-1.6639v-2.1394l0.80548-1.9016 6.7123-3.0902h2.1479l8.5917-4.041 1.8794-1.664 4.0274-0.7131 4.2959-1.4262 0.80548-1.6639 2.1479-1.1885 3.2219-1.4262v-1.9016l3.7589-1.1885 1.3425-1.9016h2.4164l3.2219-1.664 2.4164-3.5656-0.53698-2.3771h-2.4164l4.5644-4.041 4.8328 1.6639h1.3425l1.3425-1.4262 3.7589 0.95082 2.9534-1.1885 5.3698 0.95082 6.1753-0.71312 10.471-0.95081 9.3972-3.5656 5.9068 0.71312 4.5644-1.4262 2.1479 0.95082 2.4164-0.71311 2.9534 0.2377 2.9534-1.6639h4.2959l2.4164-1.1885 5.6383-4.2787 2.4164-0.2377 6.4438 1.9016 5.6383-2.6148 0.53698-2.1393 1.074-0.47543 5.1014 0.71313 9.1287-3.0902 1.3424-1.6639 1.8794-0.47541h5.1014l2.9534-5.7049-0.53699-0.23771 1.074-2.8525h4.0274v-2.8525l4.8328-0.2377 3.2219-5.2295 4.0274-4.7541 2.9534-0.2377 2.6849-1.4262 2.4164 2.377h1.3425l4.0274-4.9918-0.53699-3.3279-0.537-2.1393 0.8055-4.2787-1.8795-1.1885-1.074-2.1393 0.80549-2.6147v-0.95083l3.4904-6.418" stroke-width=".40421px"/>
   <path d="m251.47 46.73h1.0451l2.2208 1.3292 1.8289-0.16615 1.9595-0.49845 1.3063-0.6646h1.0451l2.2208-1.163h1.1757l2.482 1.163 1.3063-0.6646" stroke-width=".23572px"/>
   <path d="m95.205 119.71-2.49-1.4525-0.83001-1.0375-1.0375-3.32-0.62251-1.245-1.245-1.4525 2.075-2.075-1.66-3.1126 0.2075-2.6975 0.62251-2.2825 0.20751-1.8675 3.735-0.2075 1.245 2.075h0.83001l3.5276-1.0375 2.075 0.62249 3.1126-0.83001 3.1126 0.41501 3.32-0.41501 2.2825 0.20752 2.905-0.41502 2.9051-1.0375 4.9801 0.83001 4.3576-0.415 4.9801-1.245 3.9426-1.4525h2.49l2.2826-1.245 2.6975-1.8675 6.2251-1.66 2.6975 2.2825 3.1126-3.5276 1.4525-1.66 1.66-0.2075 2.6975-3.5276 1.66-2.2825 1.66-0.415 1.4525-3.32-0.415-2.2825-1.245-2.2825 2.075-1.66 1.66-0.62251 2.075-0.83001 2.2825-2.49 0.6225-1.4525 3.1126-0.83001 1.8675-2.49 2.2825-4.7726 1.66-3.5276 0.83001-2.49-0.6225-1.4525 1.8675-2.075 1.66-0.62251 2.905 0.62251 2.2825 0.83001 1.8675-0.415 2.4901 0.83001 3.32 1.0375h3.1126l2.075-1.4525 1.66-1.245h1.245l1.245-2.49" stroke-width=".38181px"/>
   <path d="m247.98 54.099-4.4165 1.1775-6.232 4.5733-10.823-10.921 3.1422-9.2148-1.7457-1.0239-3.8405 1.3652-0.34908-2.7303-1.3966-1.7065-3.1422-0.34128-1.0474 3.0716h-2.0948l-2.4439 0.68258-0.6983 2.3891-0.69822 3.0716-2.444 2.389" stroke-width=".63515px"/>
   <path d="m158.03 111.62 6.9165 5.8423 8.1741 4.78h3.7726l4.4014-0.79666 0.94316-3.7178v-2.6556l4.087-1.0622 0.62877-2.6556 1.5719-1.0622 1.2576-0.53111 5.0302-10.091" stroke-width=".46231px"/>
  </g>
 </g>
 <g fill-rule="evenodd">
  <g stroke-width=".33434">
   <ellipse cx="195.13" cy="101.35" rx="2.5018" ry="2.6594"/>
   <ellipse cx="173.43" cy="122.57" rx="2.5018" ry="2.6594"/>
   <ellipse cx="251.87" cy="46.476" rx="2.5018" ry="2.6594"/>
   <ellipse cx="268.02" cy="45.072" rx="2.5018" ry="2.6594"/>
   <ellipse cx="209.95" cy="46.476" rx="2.5018" ry="2.6594"/>
   <ellipse cx="2.5018" cy="150.67" rx="2.5018" ry="2.6594"/>
  </g>
  <ellipse cx="177.99" cy="65.581" rx="2.1506" ry="2.2861" stroke-width=".28741"/>
 </g>
 <g fill="#000000" font-family="sans-serif" font-size="3.5278px" letter-spacing="0px" stroke-width=".26458" word-spacing="0px">
  <text x="7.6530118" y="147.15898" style="line-height:1.25" xml:space="preserve"><tspan x="7.6530118" y="147.15898" font-size="5.6445px" stroke-width=".26458">Guwahati</tspan></text>
  <text x="151.8867" y="130.76878" style="line-height:1.25" xml:space="preserve"><tspan x="151.8867" y="130.76878" font-size="5.6445px" stroke-width=".26458">Golaghat</tspan></text>
  <text x="130.11116" y="61.461693" style="line-height:1.25" xml:space="preserve"><tspan x="130.11116" y="61.461693" font-size="5.6445px" stroke-width=".26458">North Lakhimpur</tspan></text>
  <text x="191.45729" y="109.69569" style="line-height:1.25" xml:space="preserve"><tspan x="191.45729" y="109.69569" font-size="5.6445px" stroke-width=".26458">Jorhat</tspan></text>
 </g>
 <ellipse cx="229.86" cy="84.174" rx="2.1506" ry="2.2861" fill-rule="evenodd" stroke-width=".28741"/>
 <g fill="#000000" font-family="sans-serif" font-size="3.5278px" letter-spacing="0px" stroke-width=".26458" word-spacing="0px">
  <text x="224.94011" y="91.432335" style="line-height:1.25" xml:space="preserve"><tspan x="224.94011" y="91.432335" font-size="5.6445px" stroke-width=".26458">Sivasagar</tspan></text>
  <text x="190.52072" y="41.559315" style="line-height:1.25" xml:space="preserve"><tspan x="190.52072" y="41.559315" font-size="5.6445px" stroke-width=".26458">Dhemaji</tspan></text>
  <text x="233.83766" y="42.261753" style="line-height:1.25" xml:space="preserve"><tspan x="233.83766" y="42.261753" font-size="5.6445px" stroke-width=".26458">Dibrugarh</tspan></text>
  <text x="273.40826" y="42.261753" style="line-height:1.25" xml:space="preserve"><tspan x="273.40826" y="42.261753" font-size="5.6445px" stroke-width=".26458">Tinsukia</tspan></text>
 </g>
</svg>
