<svg width="212.79mm" height="186.98mm" version="1.1" viewBox="0 0 212.78604 186.97788" xmlns="http://www.w3.org/2000/svg" xmlns:cc="http://creativecommons.org/ns#" xmlns:dc="http://purl.org/dc/elements/1.1/" xmlns:rdf="http://www.w3.org/1999/02/22-rdf-syntax-ns#">
 <metadata>
  <rdf:RDF>
   <cc:Work rdf:about="">
    <dc:format>image/svg+xml</dc:format>
    <dc:type rdf:resource="http://purl.org/dc/dcmitype/StillImage"/>
    <dc:title/>
   </cc:Work>
  </rdf:RDF>
 </metadata>
 <g transform="translate(-1.6763 -49.3)" stroke="#fff" stroke-width=".5">
  <path d="m201.12 176.58c-1.029-1.5338-1.6567-3.1711-3.3394-4.2326-1.8832-1.1843-4.4329-0.85426-5.8052-2.7634-1.2813-1.7862-0.46593-4.1481-1.5532-6.0188-1.5014-2.5822-3.6372-4.5303-5.8893-6.5492-2.1227-1.9027-3.6759-5.3975-6.1028-6.8148-1.2943-0.75715-2.3427-0.5371-3.7859-0.34941-2.0774 0.27186-2.3686 0.16822-3.9478-1.1843-1.9415-1.6632-5.8181-5.2419-8.5685-5.4363-0.18777-0.0105 1.4238-4.6789 1.3784-5.1902-0.16822-1.8703-1.9286-3.307-2.0515-5.3001-0.10323-1.6891 0.96425-3.1646 1.029-4.9896 0.0775-2.0709-0.1553-2.7634 1.0808-4.3879 0.8413-1.1001 2.5822-2.2909 2.8604-3.6693 0.53711-2.6727-1.825-1.5855-3.566-2.2521-1.8444-0.70538-1.9738-2.4721-1.9479-4.0769 0.0314-2.1292 0.60185-3.624-0.5954-5.5138-1.0355-1.6373-2.1032-2.9316-0.31724-4.6985 1.2426-1.2296 2.0515-2.5498 3.1776-3.624 1.3202-1.2684 3.514-2.7957 5.1127-3.8504 0.97071-0.64074 6.1933-1.8574 2.5951-2.7505-1.1779-0.29141-2.414 0.44005-3.5269 0.64712-1.3332 0.24605-2.3362 0.05832-3.663-0.09736-3.1128-0.36883-3.9349 1.5726-6.6658 1.9286-3.5465 0.46596-1.0678-2.4398 0.67305-3.1064 3.3458-1.2943 3.4818-2.4851 0.9319-4.8796-2.1162-1.9803-3.9478-2.8669-6.6075-1.139-2.6663 1.7279-3.7663 0.91252-2.7957-2.0644 0.38182-1.1714 1.1908-2.6987-0.56949-3.3458-1.3591-0.49838-2.6081 0.83485-3.8829 1.029-1.5079 0.2265-2.5757-0.36883-4.0512 0.32352-1.3978 0.65365-2.0256 1.7021-3.7405 1.8509-0.20695-2.291 1.1131-4.9121-0.38181-6.7174-0.6989-0.84134-2.1033-1.6567-3.3458-1.5856-0.85429 0.05199-1.9609 1.152-2.8605 1.0225-1.372-0.19404-5.2615-4.2842-5.6757-5.5333-0.31062-0.92553 0.34306-2.1745 0.0279-3.0805-0.34949-0.99015-1.9026-2.3427-2.8087-3.0158-1.0613-0.78309-2.7569-0.73134-3.3199-2.0127-0.58249-1.3267 0.80895-2.7505 1.1196-3.9607 0.89951-3.4688-1.961-6.2515-4.4849-8.4456-4.679-4.0707-1.1196 3.4882-4.8409 4.4008-1.9415 0.47241-4.213-0.49185-5.682 1.1908-1.5468 1.7732-0.28479 2.5304 1.4302 3.0158 5.5592 1.5661 0.29107 4.9962-2.3039 6.8989-1.7797 1.3072-2.3751 2.8281-3.4688 4.5624-1.0096 1.5985-2.4851 2.7569-4.0965 3.8054 0.89311 1.5855 0.28479 5.7661 3.0287 5.8568 1.385 0.04536 2.9058-0.25896 1.6956 1.5467-1.042 1.5596 2.0386 3.7147 3.087 4.4591 1.6955 1.1973 3.7663 2.1357 2.7892 4.4137-0.63421 1.4755-1.2361 2.6598-0.84135 3.9799 0.51779-0.18114 1.0614-0.41424 1.6438-0.71838-0.58242 0.30398-1.126 0.53714-1.6438 0.71838 0.12946 0.42708 0.36244 0.86716 0.73134 1.3331 1.3655 1.7214 3.4688 2.8734 4.9704 4.4912 1.8897 2.0321 2.0126 4.5107 2.8152 6.9568 1.249 3.7988 6.2515 6.5104 9.6039 8.4586 3.4494 2.0127-2.1356 5.7078-0.0841 8.5231 1.1972 1.6503 4.3813 3.0611 5.0736 4.8343 0.72489 1.8509 0.67309 3.2746 2.3557 4.7177 1.2879 1.1067 1.7732 2.9834 3.1646 4.226 1.8056 1.6115 4.9895 2.8152 3.4494 5.281-0.89313 1.4368-2.1292 3.5078-3.7405 4.3684-1.9803 1.0549-5.7402 0.6019-7.9082 0.30434-3.8054-0.51774-9.4807-1.2814-11.092 2.8087-0.9125 2.3233-9.2414-2.9446-11.306-2.6857-0.69894 0.0904-1.0678 0.41423-1.2361 0.86068 0.3818 0.065 0.76365 0.13609 1.1455 0.19403-0.37539-0.0583-0.76373-0.12945-1.1455-0.19403-0.45302 1.1973 0.55009 3.3005 0.63423 4.2389 0.26525 2.8216-0.25896 5.6886-0.80897 8.4586-0.34305 1.7473-0.78955 2.3039 0.81544 3.7471 0.53066 0.47889 0.91249 0.82838 1.126 1.1454 0.33015-0.18776 0.69895-0.30432 1.1002-0.33015 0.30398-0.57599 0.56305-1.1649 0.78305-1.7668 0.56951-1.2555 1.9285-2.0062 3.2747-2.4528 2.7051-0.90601 4.2905 1.3655 4.2842 3.5528-0.0105 3.5723-0.23278 3.7405 3.2358 5.2356 2.0321 0.87368 3.5852 4.5495 4.7889 6.2065 1.9091 2.6275 3.2488 5.9085 5.9085 7.9923 1.152 0.90604 2.4851 1.592 3.8184 2.2457-0.0279 0.99013-0.41424 1.9221-0.56307 2.8928-0.44655 2.9446 1.016 2.977 3.5852 2.2522 2.2716-0.6407 4.7048-0.70544 6.575 0.77011 0.72477 0.56946 5.5204 4.116 4.8084 5.0866-0.44005 0.60188-2.6081 0.22021-2.4334 1.4109 0.1162 0.77012 1.152 1.0872 1.2491 1.8508 0.38182 3.0417-1.5273 4.9184 2.0515 7.0155 2.3622 1.3849 5.184 1.7085 7.5589 3.1452 3.307 1.9998 5.3131 0.53073 8.8142 0.0711 1.1585-0.1553 3.8637-0.71832 4.0577 0.6019 0.11619 0.7766 0.12312 1.6632-0.20067 2.4009-0.44007 0.9967-1.7862 1.0484-2.3815 2.0386-0.47894 0.79596-0.74429 1.7344-0.86724 2.6275-0.27187 1.9026 0.0971 4.4654 1.728 5.8505 0.51124-0.55659 1.1002-0.97724 1.812-0.93837 1.9868 0.0971 4.2068 1.9803 4.0836 3.8183-0.0904 1.3979-0.80245 3.9154 1.605 3.7859 2.181-0.1162 2.6339 0.71835 3.0999 2.4722 0.55658 2.0968 1.9415 1.1973 2.8605-0.0844 0.89307-1.2555 0.62127-4.9571 3.2034-2.6857 4.9054 4.31 6.5429-1.385 7.837-5.3456 0.68603-2.1097 0.69252-4.1872 3.1-5.2872 2.4786-1.1326 1.469-2.3751 1.4496-4.4654-0.0105-0.7119-0.0279-1.4302 0.052-2.1421-1.8056-0.67302-3.0287-1.8638-5.2743-3.0999-1.6762-0.92548-2.9381-1.1779-3.8117-2.8087-1.3332-2.4916-2.5692-4.7048-4.472-6.8664-0.97716-1.1131-4.6465-4.3425-3.7147-6.025 0.41416-0.75074 2.2197-1.0225 3.0028-1.3396 1.7667-0.72485 4.7955-2.5304 6.1479-3.9283 1.2166-1.2555 3.7276-5.7402 5.378-1.6244 0.45303 1.1325-0.30434 2.375 1.3461 2.9511 1.2814 0.44658 2.8669-0.68604 4.2842-0.4401 0.27188 0.052 0.64074 3.6889 2.6081 4.0965 2.2522 0.46599 3.7534-1.0613 4.4462-2.841 0.75077-1.9221 2.401-4.1418 2.6081-6.1545 0.46594-4.472-4.0902-6.7823-6.3227-10.109z" fill="#e2b584" id="Rupnagar" />
  <path d="m21.598 84.511c-1.0743 0.40122 0.21987 1.5726 0.62128 1.9285 3.2228 2.8345 1.0484 3.074-1.9738 4.2455-1.7344 0.67309-1.2491-2.388-1.9027-3.3134-0.80897-1.1455-1.4691-2.0256-1.8638-3.3653-0.49833-1.7149-3.7663-2.1097-4.5237-0.31724-1.1778 2.7828 5.0737 6.7886 0.41418 8.0635-2.6728 0.73127-4.4395 3.0158-7.1704 2.0774-2.1485 1.2749-0.72479 3.9995-2.4268 5.5008-1.372 1.2102-0.66658 1.8961-0.44654 3.566 0.22022 1.6826-0.34948 3.3005-0.38832 4.9704 0.44657-0.29771 0.96427-0.5307 1.7539-0.57601 3.8054-0.22649 7.3324-0.42061 10.782-2.0579 3.9087-1.8574 1.3785 3.5465 3.9866 3.1128 2.0968-0.35594 6.8277 4.4525 8.1738 5.7598 1.3655 1.3332 4.9379 4.2389 5.3714 6.0446 0.23976 1.0031-0.7831 2.6405-0.77016 3.7925 0.02093 1.7473 0.49832 2.9769 1.5726 4.4137 1.7861 2.3945 1.7085 5.3522 2.1162 8.1542 0.53714 3.6951-0.16194 4.1677-2.9705 6.3035 0.42064 0.23977 0.85426 0.44651 1.3267 0.59537 2.1939 0.69898 4.5107 1.0937 6.7303 1.7215 4.4071 1.249 8.7625-0.2785 13.176-0.33016 9.4487-0.11032 18.929-0.0711 28.301 0.0387 3.7147 0.0454 7.0671 2.2068 10.788 2.1162 2.0774-0.052 4.0382 1.139 6.0379 1.5532 1.4885 0.31061 3.0222 0.58241 4.5432 0.83485 0.16822-0.44658 0.53715-0.77015 1.2361-0.86079 2.0644-0.25896 10.393 5.0091 11.306 2.6858 1.6114-4.0836 7.2807-3.3264 11.092-2.8087 2.168 0.29769 5.928 0.75073 7.9082-0.30433 1.6115-0.86068 2.8475-2.9316 3.7405-4.3684 1.5402-2.4657-1.6438-3.6693-3.4494-5.281-1.3914-1.2426-1.8768-3.1194-3.1646-4.226-1.6827-1.4432-1.6309-2.8669-2.3557-4.7177-0.69249-1.7668-3.87-3.1776-5.0736-4.8343-2.0515-2.8152 3.5398-6.5105 0.0841-8.5231-3.3588-1.9545-8.3549-4.666-9.6039-8.4586-0.8025-2.4398-0.9319-4.925-2.8152-6.9569-1.5079-1.6179-3.611-2.7698-4.9704-4.4912-0.36893-0.47235-0.60193-0.91246-0.73134-1.3331-3.7796 1.3202-5.9796-0.52421-8.3161-3.8442-1.0096-1.4367-1.8703-1.3073-3.4817-0.80249-2.1227 0.66655-3.0805-0.69249-4.3359-2.0062-2.8928-3.0352-5.4946 5.5075-5.4167 7.339 0.03903 0.82184 0.78306 3.3782-0.51774 3.7534-1.3461 0.38834-2.6275-1.3461-3.8442-1.5856-0.65364 3.5981 1.0937 7.2807 0.44011 10.982-0.34952 1.9609-1.482 3.5464-1.3915 5.5979 0.03873 0.96421 0.61486 2.8346-0.563 3.4623-2.1874 1.1584-4.3101-2.6663-4.9962-3.9799-1.592-3.0481-2.2391-6.174-4.9833-8.646-0.41419 0.59538-2.058 3.2229-2.4981 2.9122-2.0385-1.4432-3.0481-3.9216-4.6078-5.7469-2.1875-2.5693-0.33644-6.6982-3.7796-8.4324-0.64714 0.83485-0.87372 2.1291-1.8186 2.7504-1.4496 0.95138-3.3005-2.1162-3.9153-2.8993-0.95136-1.2167-2.9187-3.6372-4.5624-4.0707-0.91251-0.23976-1.6632 0.79601-2.5369 0.31061-0.67952-0.38183-0.46601-1.2102-1.359-1.5014-1.8056-0.58895-4.1289 0.07776-6.0446-0.26559-2.8734-0.51126-3.8375-1.9156-5.9992-3.4235-1.7085-1.1973-4.3942-1.1843-6.3164-2.5304-0.46598-0.33016-0.86076-0.6666-1.2426-0.97721-1.0419 0.84776-1.016 2.7375-2.375 3.2487z"  fill="#a2b0a2" id="Shaheed Bhagat Singh Nagar" />
 </g>
 <path d="m192.31 155.34-3.7142-6.8018 2.2857-1.8383 0.14288-1.4707-2.5714-2.206-0.71427-1.4707-0.14284-1.6545-1.4286-1.4707-0.85715-4.0443-1.7142-2.9413-0.57142-2.5736-1.4286 1.2868-2.8571 1.4707h-6.9999l-4.5714 0.55151-1.5714-0.36768-1 1.103-1.5714 0.36766-2-2.206-2.1428-1.8383-0.14286-2.5737-2.5714-11.581-0.71427-1.8383v-2.0222l-1-4.2282-0.85713 0.36765-0.57143-0.55149-0.71427-0.55149-1.1428-1.6545-1.1428-2.0222-0.57143-1.8383-0.71427-1.8383-0.28572-1.4707-4.2857-2.9413-2.7142-1.2868-2.4285-1.103h-2l-2.1428-1.2868-1.8571-0.36766-1.5714-0.5515-2.8571-0.91917-2.1428-0.36767-1.7143-1.6545-2-0.91915-2.1428-1.2868-2-1.4707-2.2857-2.3898-0.71427-1.2868-1.8571-0.18384-0.28572-0.36766-0.14285-2.206-5.7142-3.309-2.2857 1.6545-1 0.36767-1.7142 0.5515-1.4286 1.103h-1.4286l-1.5714 0.91916-1.8571 0.18383-2 0.36766h-1.2857l-2.1428 0.91916h-1.4286l-1.4286 0.36766-2.1428-0.5515-2.8571-0.91916-3.1428-1.2868-2.7143-1.2868 0.42857-4.0443" fill="none" stroke="#345" stroke-width=".5px"/>
 <g fill-rule="evenodd" stroke-width=".29398">
  <ellipse cx="77.157" cy="71.415" rx="1.8648" ry="1.9745"/>
  <ellipse cx="143.02" cy="93.727" rx="1.8648" ry="1.9745"/>
  <ellipse cx="192.58" cy="155.33" rx="1.8648" ry="1.9745"/>
 </g>
 <g fill="#000000" font-family="sans-serif" letter-spacing="0px" stroke-width=".26458" word-spacing="0px">
  <text x="38.961563" y="72.797249" font-size="4.2333px" style="line-height:1.25" xml:space="preserve"><tspan x="38.961563" y="72.797249">Shaheed Bhagat</tspan><tspan x="38.961563" y="78.088928">Singh Nagar</tspan></text>
  <text x="135.31755" y="88.790756" font-size="3.5278px" style="line-height:1.25" xml:space="preserve"><tspan x="135.31755" y="88.790756" font-size="4.2333px" stroke-width=".26458">Rupnagar</tspan></text>
  <text x="188.82671" y="161.45265" font-size="3.5278px" style="line-height:1.25" xml:space="preserve"><tspan x="188.82671" y="161.45265" font-size="4.2333px" stroke-width=".26458">Chandigarh</tspan></text>
 </g>
</svg>
