<svg width="380.58mm" height="242.96mm" version="1.1" viewBox="0 0 380.57557 242.96102" xmlns="http://www.w3.org/2000/svg" xmlns:cc="http://creativecommons.org/ns#" xmlns:dc="http://purl.org/dc/elements/1.1/" xmlns:rdf="http://www.w3.org/1999/02/22-rdf-syntax-ns#">
 <metadata>
  <rdf:RDF>
   <cc:Work rdf:about="">
    <dc:format>image/svg+xml</dc:format>
    <dc:type rdf:resource="http://purl.org/dc/dcmitype/StillImage"/>
    <dc:title/>
   </cc:Work>
  </rdf:RDF>
 </metadata>
 <g transform="translate(-3.1091 -7.2107)" stroke="#fff" stroke-width=".5">
  <path d="m87.13 84.842c-0.88216-2.0389-1.796-4.0569-2.7468-6.0694-0.49654-1.0458-1.3575-1.965-1.4051-3.1431-0.05299-1.2466-0.39086-1.1145-1.4738-1.6851-1.0829-0.5705-2.7521-2.3929-4.0885-2.1605-0.09514 0.61804-0.35921 4.2894-2.2186 3.1323-1.1199-0.69723-0.61277-4.3791-1.0089-5.4353-0.94555-2.5355 3.9564-0.92968 4.7594-2.6148 0.57579-1.2044-0.72367-3.7715-0.8663-4.9813-0.33275-2.7521 0.33278-5.4143 0.34864-8.119 0.01146-1.8964-3.5128-3.0055-4.7118-4.3896-1.5847-1.8277-2.1023-4.6377-1.0406-6.8246 0.23245-0.48071-0.37505-1.5424-0.90854-2.3189-0.77124 0.27461-1.7854 0.21678-2.5091 0.12163-3.6077-0.45427-7.2844-3.238-10.132-5.1767-3.4334-2.3348-7.0308-4.4899-9.9942-7.3319-2.7257-2.6147-7.1892-1.8752-10.86-2.2714-1.8277-0.1957-3.2063 0.412-4.8597 1.0037-1.9703 0.7078-3.7769 0.0228-5.8159 0.62858-1.833 0.54933-4.5534 1.0247-6.2013 1.8699-1.8541 0.95082-2.6676 2.1763-4.9548 2.5091-1.8435 0.26948-3.5074 0.39619-4.7645 1.8224-1.1251 1.2783-1.4157 2.9688-2.3929 4.2945-1.2836 1.7431-6.117-0.76067-5.9213 3.2485 0.068709 1.3998 0.46483 2.6464 0.36977 4.1307-0.13206 2.0812-0.010541 3.5707 0.67613 5.5516 0.2694 0.77645 0.47013 1.5635 0.60219 2.3611 1.1621-0.12676 3.0742-0.37502 3.518-0.03162 0.34334 0.26407-0.095088 0.81343 0.5071 1.1885 0.54934 0.33805 1.3153 0.0085 1.8699-0.1111 3.275-0.71315 7.1733 1.5107 10.042 2.6464 2.4246 0.96136 1.236 2.1604 2.2978 3.8826 0.87157 1.421 2.0178 2.9107 3.0901 4.2099 1.0142 1.2255 1.6903 3.2804 3.1536 4.1096 1.2678 0.72367 2.2872 0.88216 3.0955 2.171 2.1605 3.4494 6.6505 5.0816 9.4817 7.9763 2.4246 2.4826-4.0199 4.9494-1.5794 7.4376 1.236 1.2625 2.2925 3.275 3.8561 4.1572 1.5794 0.89265 3.3966 1.5424 3.1377 3.6026-0.34334 2.7309-1.479 6.9832 1.7167 8.8055 0.90328 0.51241 4.9337-8e-3 7.0254 0.26948 1.1568-0.18487 3.048-0.40146 3.6923-0.0256 1.1621 0.68675 1.9175 1.9914 3.4283 2.113 1.6322 0.13217 2.3453-1.2836 3.2539-2.2186 1.0617-1.0987 3.1536 1.0882 4.0145 1.8752 3.1217 2.8682 4.9969 0.61801 8.0976-0.89267 2.208-1.0776 6.4602-3.1588 8.9428-2.0231 2.5619 1.178 5.6837 2.8893 5.3246-1.3628-0.22704-2.6834-2.2767-4.0094-3.6977-6.154-0.79238-1.1938-0.90327-2.3295-0.19029-3.5815 0.57576-1.0195 2.1393-2.6464 1.1832-3.8456-0.51768-0.65498-0.94552-0.79235-1.0564-1.1991-1.4209 0.07378-1.3417 0.5758-2.0865-1.1515z" fill="#abacda" id="Faridkot" />
  <path d="m204.84 201.23c2.2133-0.23245 4.9178-0.57046 2.6306-2.8472-2.1129-2.1024-1.4843-3.5601-1.3522-6.3019 0.14271-2.9369 1.2149-4.8226-1.252-7.1787-1.7432-1.664-3.7029-2.5038-5.6627-0.62862-1.7273 1.6534-3.4969 2.8999-5.7419 1.0776-0.75534-0.61275-1.3946-1.3628-2.2397-1.8805-1.0301-0.63387-2.7204-0.79758-3.1217-2.0654-0.32224-1.0089 0.17974-2.1657 0.22731-3.1799 0.0795-1.648-0.32224-3.275-0.40676-4.9177 1.8277-0.22192 2.6728-0.17975 4.1042-1.4051 1.3628-1.1621 3.0374-2.6887 2.4668-4.564-0.34864-1.1463-1.7537-3.2223-3.2593-3.1483-1.31 0.0632-1.6956 1.6639-3.0004 1.7696-2.0654 0.1638-2.5725-2.3823-2.3982-3.7453 0.14271-1.1198 0.51239-2.1868 0.36976-3.3277-0.1162-0.94554-0.61805-1.833-0.67616-2.7838-0.0949-1.5794 1.9334-2.245 2.2345-3.6923 0.31162-1.5054-1.6481-2.4879-1.6111-4.025 0.10569-4.2788-3.9669-0.99836-6.793-1.8013-1.6216-0.4648-2.4352-2.2133-4.3261-1.2783-1.9174 0.94548-3.5972 0.83458-5.7208 1.0776-3.8561 0.43846-5.6521-4.9864-7.9498-7.1046-1.6111-1.4843-2.6728-2.3717-5.0023-1.9121-1.2308 0.24297-2.4563-0.0689-3.6923 0.0228-1.0882 0.0793-2.1182 0.41727-3.1853 0.5705 0.16921 0.70252 0.26949 1.3892 0.21138 1.9914-0.27462 2.6781-3.5496 2.9793-2.3084 5.6891 1.1463 2.5038 0 3.6077-2.5144 4.6591-1.9016 0.79238-14.046 3.8245-10.818 6.9408 1.2783 1.2361 1.0036 1.0459 0.17974 2.5091-0.53878 0.96138-0.58107 2.0231-0.58107 3.0796-5e-3 1.3364 0.5758 2.34 0.729 3.592 0.12159 0.97194-1.0829 1.7009-1.6639 2.3401-1.1832 1.2994 0.66031 5.9427-2.1552 4.7964-2.5778-1.0459-2.5196 1.1357-4.6748 1.9914-2.2027 0.87156-3.5972-2.0443-5.3667-2.731-2.8787-1.1145-2.377 2.7732-2.2397 4.1993 0.25353 2.731-0.50711 6.3016 0.47014 8.8955 0.71307 1.9017 4.0515 4.1888 1.6744 6.3862-0.69726 0.64445-1.9069 0.80295-2.4457 1.5952-0.51236 0.75013-0.412 1.9756-0.75004 2.8208-0.28003 0.692-0.94025 1.965-1.2995 3.1006 0.24812-0.0842 0.47014-0.17974 0.59164-0.31164 0.64444 0.75538 1.1463 1.5002 1.833 2.2291 0.19541 0.20624 0.75537 0.68139 0.75537 0.96139 0 0.36977-0.6022 0.54935-0.7501 0.90326-1.5636 3.8296 3.8721 4.9813 4.358 8.1771 0.16921 1.104 0.0425 2.3031 0.0527 3.4177 0.0115 1.2044 0.44901 2.4986-1.1304 2.7891-1.0036 0.18488-2.2397-8e-3 -3.1958 0.33281-1.1252 0.40143-1.3787 1.5107-1.3681 2.4352 0.0171 1.0195-0.0115 1.8963 0.61804 2.7837 0.19542 0.27461 0.54406 0.51239 0.68669 0.80295 0.19001 0.39615 0.0115 0.80815 0.33808 1.1779-1.8911 0.67613-4.004 1.347-5.5991 2.5355-1.9175 1.4262-0.78708 2.9528 0.18488 4.585 0.55462 0.92969 1.0195 1.8752 1.3681 2.8893 0.26407 0.76067 0.41203 1.6481 0.97198 2.2872 1.2625 1.4474 3.6553 0.86629 5.2294 1.8013 1.5741 0.93494 1.1093 2.9739 1.553 4.4267 0.2219 0.72364 0.60747 1.3892 0.85043 2.1076 0.28002 0.83461 0.33807 1.7273 0.62333 2.5566 0.77121 2.2291 2.9528 0.85046 4.5215 0.15327 2.2502-0.99834 3.7664-0.14273 6.064 0.0425 3.3066 0.26949 1.8963-2.7204 1.2255-4.4688-1.0301-2.6887-1.7855-4.6853-4.807-5.8316 0.40146-0.36981 0.39089-1.2361 0.95081-1.3998 0.29581-0.0842 1.1357 0.17434 1.4843 0.18488 1.5424 0.0317 1.8805-0.28002 2.4616-1.5847 0.70782-1.5741 0.97195-3.2434 1.2308-4.9126 0.13224-0.85046 0.94554-3.0425 2.2027-1.7484 0.59689 0.61277 0.28002 1.59 1.1779 2.0548 1.1727 0.60746 2.282-0.10056 1.8699-1.2942-0.60215-1.7431-3.9036-2.4985-1.9386-4.4529 1.1885-1.1833 3.085-1.6956 4.5429-2.5513 0.87153-0.51239 1.8277-1.0301 2.4668-1.796 0.59696-0.71313 0.8399-1.6111 1.2889-2.4035 0.47541-0.8346 1.2044-1.5794 1.4262-2.5196 0.20625-0.87156-0.25894-1.8911 0.12159-2.7151 0.41729-0.91382 1.6217-1.0353 2.5461-1.2466 1.0089-0.23245 1.8805-0.54406 2.6781-1.1727 0.70782-0.5546 1.2519-1.1991 1.4156-2.0548 0.15839-0.86627-0.13731-1.9016 0.44373-2.6782 1.4051-1.891 4.0093 1.5055 5.1451 2.2133 0.94549 0.59166 1.8857 1.009 2.6358 1.8277 0.71313 0.78175 1.199 1.7801 2.0073 2.488 1.5054 1.3153 4.0674 0.5599 5.5148-0.46487 2.2185 1.1251 3.0796 3.3066 4.6907 5.0289 0.88747 0.95085 1.1885 0.35392 1.8752-0.31167 0.89271-0.86099 2.1816-0.78178 3.4072-0.87686 1.1568-0.09 2.1869-0.30634 3.2434-0.78703 0.47544-0.21678 1.384-0.58106 1.5794-1.0776 0.25353-0.63388-0.34867-0.76597-0.54936-1.2783-0.45429-1.1568 1.3576-1.7221 2.2397-1.8488 0.57578-0.0844 1.0934-0.1957 1.6639-0.32754 0.35392-0.0842 1.2942-0.47534 1.6164-0.41196 0.69201 0.13731 0.77653 1.6586 1.2202 2.2291 0.38558 0.50183 0.99307 1.2572 1.5583 1.59 0.55466 0.32747 2.1816 0.78705 2.657 0.24299 0.4437-0.50711 0.0898-2.0178 0.17433-2.6887 0.32224-2.5038 1.5055-4.6378 2.0812-7.0784 0.10029 8e-3 0.20083 8e-3 0.29053 8e-3 0.9297-1.6798 2.4616-3.3385 4.5164-3.555z" fill="#e2b584" id="Mansa" />
  <path d="m117.97 193.89c0.53879-0.79236 1.7484-0.95083 2.4457-1.5952 2.377-2.2028-0.96136-4.4899-1.6745-6.3865-0.97193-2.5936-0.21137-6.1643-0.47011-8.8952-0.13189-1.4262-0.63918-5.314 2.2397-4.1993 1.7748 0.68671 3.1693 3.6026 5.3667 2.731 2.1552-0.8557 2.0971-3.0374 4.6748-1.9914 2.8155 1.141 0.96665-3.5023 2.1552-4.7964 0.58633-0.63912 1.7907-1.3734 1.6639-2.34-0.15867-1.2519-0.73423-2.2555-0.72896-3.592 5e-3 -1.0565 0.0425-2.1182 0.58106-3.0796 0.82403-1.4632 1.0987-1.273-0.17974-2.5091-3.2274-3.1166 8.9166-6.1486 10.818-6.9408 2.5197-1.0511 3.6658-2.1499 2.5144-4.6588-1.2413-2.7151 2.0337-3.0161 2.3084-5.6891 0.0635-0.6022-0.0425-1.2889-0.21136-1.9914-0.13731 0.0228-0.27462 0.0371-0.41203 0.0476 0.13731-8e-3 0.2746-0.0319 0.41203-0.0476-0.24841-1.0406-0.63916-2.1129-0.87687-2.995-0.61805-2.3295-4.4267 1.5318-5.33 0.36979 0.73424-0.35392 1.0142-2.4246 1.8488-3.1431 0.78708-0.67613-0.24298-2.2502-0.4754-3.1693-0.17975-0.73427-3.0425-6.9833-1.7696-7.4798-1.965-1.2044-3.3226-1.6533-4.2418-3.8456-0.30636 0.7501-1.6692 0.76067-2.3506 0.64444-1.0565-0.17975-0.75535-1.2677-0.84516-1.965-0.19029-1.4896-1.9756-2.8736 0.24839-3.5761 1.4632-0.46481 3.5074-1.0987 2.1974-2.694-1.5688-1.9175-0.7395-3.988 0.84517-5.5886-1.3416-0.44897-2.9052-0.25353-4.1518-0.96665-1.421-0.81346-1.215-2.6781-1.2097-3.9934 0.0285-4.3156-5.087-4.6591-6.4181-8.4782-1.3998-4.0145 2.525-7.876 4.8121-10.94 0.9878-1.3259 1.9756-2.4087 3.0004-3.0956-2.8419-0.68672-4.1042 1.8805-5.7684 3.5866-1.8911 1.9439-5.2559 3.4334-7.9763 1.9862-2.3242-1.2361-5.4829-0.44373-7.5168-1.8541-2.8049-1.9438-0.34338-7.4957-1.3364-10.248-1.1093-3.069-4.6221-1.9491-6.566-0.25353-1.8805 1.6375 0.97722 5.7473 0.4754 7.9657-0.73426 3.2539-5.4143 0.1373-7.4692 0.1373-1.4104 0-0.51238 1.6956-1.0195 2.4299-1.0617 1.5372-3.2434 1.7009-4.9864 2.0337-1.4526 0.27461-2.7838 0.69199-3.2539 2.097-0.17975 0.54406-0.2165 0.86103-0.15326 1.0881 0.10568-0.0085 0.22191-0.0085 0.34332-0.0085-0.12676 0-0.23758 0-0.34332 0.0085 0.11082 0.40673 0.53879 0.54406 1.0564 1.1991 0.95609 1.1991-0.60747 2.8313-1.1832 3.8456-0.71312 1.2519-0.5969 2.3876 0.19029 3.5815 1.4209 2.1446 3.4704 3.4653 3.6977 6.1537 0.35918 4.2524-2.7574 2.5408-5.3246 1.3628-2.4827-1.1357-6.7348 0.94552-8.9428 2.0231-3.1061 1.5107-4.9813 3.7609-8.0976 0.8927-0.861-0.79232-2.9528-2.9739-4.0145-1.8752-0.90857 0.935-1.6217 2.3506-3.2539 2.2185-1.5107-0.12163-2.2661-1.4314-3.4282-2.1129-0.64442-0.38032-2.5302-0.15838-3.6923 0.0256 0.98252 0.12677 1.5424 0.43316 1.141 1.104-1.7379 2.9053-3.5128 6.55-5.9373 9.0434-1.1198 1.1515-5.2929 0.93495-5.108 2.2767 0.16377 1.2044 0.95082 2.5672 0.83987 3.7453-0.29053 3.1536-5.4778 5.2505-4.358 8.5574 0.36977 1.0882 1.2783 1.9439 0.64443 3.1431-0.51237 0.97722-1.3153 1.7854-1.8752 2.7362-0.69727 1.178-1.1621 2.039 0.64443 1.7854 4.9707-0.69193 1.6322 4.8015-0.40145 6.0324-1.7801 1.0776-3.9512 0.19028-5.8792 0.13224-1.7907-0.0581-3.1588 0.96139-4.1942 2.2027-2.5302 3.0374-2.2872 5.7946 1.9016 7.4903 0.88741 0.35918 4.7118-0.82929 4.6853 0.56522-0.01595 0.98252-1.1199 1.9122-1.6903 2.6676-1.6481 2.1816 3.1642 3.4282 3.518 5.5729 0.29052 1.7696-1.3259 4.1572-0.55991 5.7208 0.69197 1.4051 2.8313 1.9756 3.2169 3.5496 0.36974 1.5002-2.3242 1.3892-3.0161 2.2661-0.80819 1.0301-0.51767 2.3929-0.655 3.6182 0.01595-0.0228 0.03168-0.0476 0.04754-0.0689 0.57048 0.30108 1.3153 0.32749 1.9016 0.5969 0.61276 0.28526 1.1199 0.64974 1.7484 0.88744 1.3734 0.52298 3.555 0.5969 4.6167-0.49125 0.56521-0.58106 0.69197-1.104 1.6428-0.94027 0.84517 0.14783 1.4738 0.47014 2.414 0.41203 1.1357-0.0686 1.8435-0.85044 2.6781-1.5689 1.0036-0.8557 1.5055-1.9227 2.1869-2.9739 0.6022 0.1957 1.3259 1.2678 1.6428 1.7748 0.54406 0.86633 1.3945 2.3189 2.5038 2.5672 0.04757 0.36978 1.0353 0.98781 1.3311 1.3153 0.5599 0.62332 1.0248 1.273 2.0706 0.9878 0.85573-0.23245 1.5689-0.82403 2.488-1.0301 0.38562-0.0844 0.75537-0.1162 1.1146-0.20596 0.3011-0.0737 0.83986-0.49654 1.2413-0.24298 0.36975 0.23245 0.80818 1.7009 0.90327 2.0759 0.15326 0.60753 0.01709 1.5372 0.44373 2.0496 1.3311 1.6111 2.9739-1.1304 3.7134-1.8541 2.039 2.4616 2.2344 5.594 3.7134 8.3195 0.66556 1.2308 1.5424 2.3929 2.583 3.3807 1.1568 1.0987 2.4563 1.5424 3.8402 2.2926 1.0248 0.54936 1.3259 1.5899 2.2186 2.245 0.99839 0.73421 2.6676 0.64442 3.8666 0.51763 1.8699-0.19002 2.3453-1.2625 2.7468-2.8102 0.40673-1.553 0.70253-1.8118 2.0812-0.78707 1.0248 0.76064 1.4421 0.53351 2.5197 0.21677 1.1832-0.3486 1.3259-0.52296 1.4421-1.7379 0.10028-1.0723-0.15326-2.1763 0-3.2434 1.0142-0.12132 2.2872-0.12132 3.312-0.0228 0.0792 1.0089 0.69726 1.7801 0.8874 2.7521 0.19029 0.97195 0.72894 2.7204-0.12676 3.4282-0.6814 0.55991-3.011 0.8399-3.2009 1.7062-0.1638 0.72897 1.4632 1.8964 1.9756 2.3559 0.7131 0.64441 1.6322 1.6111 1.8963 2.5355 0.21137 0.72897-0.2219 1.141-0.49651 1.7801-0.28526 0.66556-0.21137 1.2466-0.19029 1.9439 0.0256 0.93498-0.20083 2.4457 1.3892 2.2132 1.1938-0.17434 1.6111-2.1868 2.6095-0.42252 0.64972 1.1515 0.79235 2.7203 2.002 3.5445 1.0829 0.73953 2.414 1.6375 3.7453 1.8594 0.93495-0.88741 0.21649-2.3665-0.39619-3.1958-0.87157-1.1727-1.067-2.5461-0.85573-3.988 0.0897-0.60218 0.36978-0.90851 0.76064-1.3522 0.42789-0.49125 0.88214-1.2572 1.3787-1.6586 0.38032-0.31169 1.0195-0.35391 1.3998-0.54406 0.24299-0.12159 0.64442-0.21679 0.99306-0.33281 0.35392-1.1357 1.0195-2.4087 1.2994-3.1006 0.36451-0.85045 0.26407-2.0759 0.77648-2.8313z"  fill="#cc2" id="Bathinda" />
 </g>
 <g fill="none" stroke="#000">
  <path d="m376.79 31.273 2.8112 2.5557-4.6002 2.8113 1.2778 1.789-2.8112 1.0223 1.2778 1.5334-6.6448 3.8335 4.0891 4.6002-10.223 5.6225 4.6002 10.223-6.9003 6.6448-3.578 2.5557-10.478 5.1114-0.25553 2.0445-14.056 14.567-6.3892 7.4115-7.4115 4.8558 2.3001 2.8112-7.1559 11.501-2.0445 0.25556-13.29-6.1336-4.0891 2.0446h-2.3001l-5.8781 2.5557-19.168 4.0891-15.334-1.2778-7.667 4.6002-6.3892 4.8558-3.578 6.1336-5.3669 4.6002-15.845 6.1336-3.3224-0.51113-12.267 4.0891-2.5557 0.76669-4.6002 2.0446-19.168 5.3669-13.29 4.3446-15.334 3.0668-1.789 8.1782" stroke-width=".5px"/>
  <path d="m242.87 128.9-7.7863-0.88986-10.456 2.0022-2.6637 2.6696-1.2678 1.0867-1.2679 0.90561-1.8112 0.7245h-1.449l-1.2679-0.7245-1.0867-0.36223-0.7245-0.54338v-1.6301l0.18112-1.0867-5.2526-4.1658-21.191 2.898-1.6301-1.449-5.0714-3.6224-1.449-0.54338h-0.36224l-3.0791-9.5995-8.1505 0.36225-10.686 4.5281-7.426 2.7168-2.898 0.9056-2.898 0.54338-3.6225 0.90562-8.1505 2.5357-2.7168 0.36224-2.3546-0.18112-2.1735-0.18112-2.898 0.72449-5.9771 1.9924-3.4413 0.90561-3.0791 0.90562-3.8036 1.9923h-4.1658l-6.1582 0.18112h-11.773" stroke-width=".5px"/>
  <path d="m376.79 31.273-1.9045-3.0398-4.1752 3.7723h-1.1354l-6.4093 5.6768h-2.6736l-2.637 1.5382-2.2707 1.1354h-6.8122l-6.446 4.9077-3.0032 1.9045-4.5414 1.1354-2.637 0.7325-5.3106 0.40287-3.4061-2.2707-4.5415 1.8679-5.6768 4.5415v2.6736l-27.615-18.569-18.935-9.4492-4.1386-1.9045-5.3106-4.1386-4.5414-4.1752-3.4061 3.4061-12.855-5.3106-2.2708-1.1354-6.0431-6.0431-3.809-3.0032-2.2707-2.6736-2.637-1.8679-3.7723-1.1354-8.7167 3.4061-13.991 5.274-10.585 3.809-17.03 3.3695-6.8122-0.36625-25.747-0.36625h-9.0829l-13.991-1.1354-15.126-1.9045-15.529-1.8679-11.354-0.76912-1.5016 3.4061-3.7723 6.0431-0.76912 4.1752-4.1386 5.6768-3.809 4.5415-3.4061 3.0032-4.9077 2.6736-9.4492 2.637" stroke-width=".5px"/>
  <path d="m35.888 41.857 16.614 19.473 16.614 27.651 5.7288 22.978 8.0204 4.6734-1.7187 13.241 1.7187 3.8946" stroke-width=".5px"/>
  <path d="m82.843 133.77-0.15205 3.5386 2.7369 4.5215 6.0819 13.958h2.5848l4.1053 0.98292 5.7778 1.7693h1.2164l1.3684-0.78636 1.6725-0.78632 1.0643-0.78636 11.708 6.0942 3.4971 0.78633 4.7135 1.1795 3.6492 0.78634 8.2899 4.7651" stroke-width=".5px"/>
 </g>
 <g fill-rule="evenodd" stroke-width=".24549">
  <ellipse cx="36.201" cy="41.129" rx="3.6154" ry="3.7798"/>
  <ellipse cx="139.68" cy="178.46" rx="3.6154" ry="3.7798"/>
  <ellipse cx="82.562" cy="133.52" rx="3.6154" ry="3.7798"/>
  <ellipse cx="376.96" cy="31.05" rx="3.6154" ry="3.7798"/>
 </g>
 <g fill="#000000" font-family="sans-serif" font-size="3.5278px" letter-spacing="0px" stroke-width=".26458" word-spacing="0px">
  <text x="147.23822" y="180.97986" style="line-height:1.25" xml:space="preserve"><tspan x="147.23822" y="180.97986" font-size="5.6444px" stroke-width=".26458">Mansa</tspan></text>
  <text x="47.704674" y="46.588573" style="line-height:1.25" xml:space="preserve"><tspan x="47.704674" y="46.588573" font-size="5.6444px" stroke-width=".26458">Faridkot</tspan></text>
  <text x="89.281982" y="128.48326" style="line-height:1.25" xml:space="preserve"><tspan x="89.281982" y="128.48326" font-size="5.6444px" stroke-width=".26458">Bathinda</tspan></text>
  <text x="334.12613" y="31.049582" style="line-height:1.25" xml:space="preserve"><tspan x="334.12613" y="31.049582" font-size="5.6444px" stroke-width=".26458">Chandigarh</tspan></text>
 </g>
</svg>
