<svg width="252.16mm" height="249.54mm" version="1.1" viewBox="0 0 252.15803 249.55188" xmlns="http://www.w3.org/2000/svg" xmlns:cc="http://creativecommons.org/ns#" xmlns:dc="http://purl.org/dc/elements/1.1/" xmlns:rdf="http://www.w3.org/1999/02/22-rdf-syntax-ns#">
 <metadata>
  <rdf:RDF>
   <cc:Work rdf:about="">
    <dc:format>image/svg+xml</dc:format>
    <dc:type rdf:resource="http://purl.org/dc/dcmitype/StillImage"/>
    <dc:title/>
   </cc:Work>
  </rdf:RDF>
 </metadata>
 <g transform="translate(-3.0983 -62.886)" stroke="#fff" stroke-width=".5">
  <path id="Ludhiana" d="m101.55 265.99c1.4002-0.17268 2.8604-0.0376 4.272-0.0338 1.2463 6e-3 2.4476-0.0374 3.66-0.32282 0.95346-0.22524 2.2974-0.68698 3.247-0.22524 1.8394 0.90093 3.5173 2.1134 5.6946 2.1134 2.4249 0 4.6586 0.63818 7.0611 0.16903 1.4415-0.28154 2.9166-0.30405 4.2831-0.86715 1.1562-0.47673 2.2035-1.1524 3.3859-1.5879 1.1337-0.41668 2.5039-0.22897 3.5511-0.77331 1.0136-0.52928 1.9145-1.1112 2.9994-1.5391 0.86338-0.34162 1.9407-1.1224 2.8679-0.5368 0.66072 0.41667 1.4603 1.1111 1.8657 1.7418 1.1262 1.7606 3.8027-1.3251 4.6586-1.8469 2.3762-1.449 4.0918 1.9445 6.7682 1.1149 1.0848-0.33785 1.5766-1.2763 2.7328-1.6066 1.1374-0.3266 1.9595-0.66445 2.9806 0.06 0.63441 0.45049 1.2238 1.0023 1.9107 1.3964 1.6292-1.2388 2.0383-1.509 1.723-3.6564-0.23648-1.6254-0.19151-3.341-1.2275-4.7298-0.62314-0.83337-0.90094-1.5466-0.91219-2.5602-7e-3 -0.66817 0.58559-1.6179 0.44671-2.1999-0.25152-1.0473-2.3237-2.7365-3.1157-3.5062-0.77705-0.75824-3.5211-3.5474-4.7412-3.3409-1.5165 0.25523-0.0452-2.8831-2.3124-1.8056-2.0008 0.94967-4.0466 1.0623-6.254 1.1937-0.45799 0.0264-0.7583 0.16155-1.0173 0.33411 0 0.0376-7e-3 0.0715-7e-3 0.10891 0-0.0376 7e-3 -0.0715 7e-3 -0.10891-0.40167 0.27029-0.70947 0.6344-1.3476 0.85589-0.82211 0.28529-1.738 0.26653-2.5901 0.10891-1.4752-0.27404-3.8814-0.39793-4.6511-1.4565-0.72074-0.991-2.1885-2.3424-1.937-3.6638 0.22522-1.1787 1.6817-0.76951 2.1885-1.5428 0.2928-0.45049-0.12006-1.4828-0.22901-1.952-0.17652-0.75825-2.0158-2.7891-1.9032-0.93844 0.10509 1.7643-1.952 1.1262-1.8619-0.42796 0.0787-1.3326-0.16519-2.3537-0.83712-3.5511-0.67944-1.2088-1.8169-2.3049 0.65692-2.3387 1.8732-0.0264-0.0901-2.6577 0.16883-3.1871 1.1299-0.12389 2.0948-0.37539 3.2096-0.5556 0.80709-0.13137 1.3139-0.47674 1.1712-1.3776-0.12004-0.75832-3.3972-2.4474-0.29279-2.211 1.0661 0.0787 1.8093 0.26276 2.1322 1.2688 0.32658 1.021 1.7793 1.0698 2.6389 0.56683 0.75828-0.44675 0.51052-1.8657 0.88217-2.5452 0.47298-0.86337 1.5841-1.0098 2.3537-1.5504 0.33781-0.24023 0.31156-0.44293 0.20646-0.65691-0.13503-6e-3 -0.2778-6e-3 -0.43169-6e-3 0.15385 0 0.29656 0 0.43169 6e-3 -0.0901-0.18016-0.24026-0.36787-0.27404-0.58559-0.0862-0.54057 0.41291-1.0173 0.76202-1.3777 0.79583-0.81457 1.4452-1.8769 1.9708-2.8568 1.3514-2.53-2.0421-4.681-2.7853-6.9671-0.48425-1.4865-1.6367-1.1337-2.8116-1.9783-0.88213-0.6344-2.3612-1.5729-2.8792-2.4887-0.49928-0.88591-0.64945-1.9633-1.404-2.7215-0.77329-0.7808-2.9768-0.39415-3.3296-1.2801-0.48422-1.2087 1.7268-2.0046 0.60813-3.5474-0.90091-1.2463-2.0196-2.3235-2.8717-3.6151-0.57433-0.87088-1.0548-2.395-2.1735-2.8191-1.175-0.4467-2.6802 0.28532-3.7877 0.58185-0.81835 0.22148-1.4528-0.2177-2.0646-0.65315h-7e-3c-0.0182 1.5278-0.30405 3.0405-0.36788 4.5646-0.0449 1.0886 0.0121 1.9032-1.1111 2.5039-0.90846 0.48425-1.5879 0.85963-2.3124 1.5729-0.90091 0.88965-2.594-0.53681-3.5248-0.82208-0.86714-0.26653-2.7365-0.10892-2.7328 1.0173 4e-3 1.1186 1.6066 1.3889 1.2763 2.7215-0.35663 1.449-0.74327 2.8379-0.91222 4.3169-0.22147 1.9408-1.2087 2.0909-2.744 0.96475-0.88215-0.64565-1.4189-1.5954-2.2974-2.211-0.79957-0.55555-2.7215-0.0864-2.5752 0.97227 0.33784 2.4964 4.8537 3.4912 1.5466 5.7135-1.4227 0.95348-1.0398 1.0286-1.0173 2.4363 0.0182 1.1149-0.33786 2.1772-0.39042 3.2847-0.18766 3.7764 2.6203-0.13139 3.8628 0.0751 0.77706 0.13138 1.2463 1.5804 1.0511 2.1622-0.4317 1.2988-1.1224 1.5691-0.0901 2.8005 1.7305 2.0608-2.4737 3.7201-4.1217 3.9715-2.4588 0.37915 1.1149 5.0001 1.7118 5.6384 0.47673 0.5068 1.0135 0.97226 1.6104 1.3627-0.1915 0.52549-0.16155 1.0698-0.11255 1.6104 0.15405 1.7531-1.4039 0.51426-2.41 0.99102-0.82207 0.39037-0.33408 1.5916-0.732 2.1998-0.28152 0.42793-1.8919 0.2027-2.2936 0.064-0.96476-0.33407-0.62315-1.5541-1.3101-2.061-0.59312-0.4317-2.4438 0.33784-2.9843 0.68695-0.93094 0.60436-1.4678 1.1149-1.7193 2.1434-0.37164 1.5128-1.235-0.12389-1.6254-0.52927-2.6428 1.2162-6.3327 2.8418-8.1421 5.0752-0.84837 1.0473-0.27778 4.2756-2.4626 3.7049-1.1036-0.28904-2.7065 0.21398-3.3784-0.81833-0.79582-1.2238-1.3289-2.5638-2.3237-3.6788-0.56309 0.78457-1.4565 2.7065-2.4324 3.0482-1.265 0.44296-2.8792 0.0122-4.1555-0.1915-1.6855-0.26653-3.6938-0.57811-4.6772 1.0511-0.68321 1.1337-2.4063 1.6029-3.8138 1.4903 0.83336 0.96099 1.5203 2.0984 1.9483 2.7778 0.97975 1.5541 1.6142 3.8215 3.8551 4.1367 4.8576 0.68319 9.0356 1.19 12.729 4.3995 0.76204 0.66069 1.6892 1.723 2.8229 1.7718 0.79957 0.0338 1.8807-0.62312 2.6203-0.14657 1.3852 0.88966 0.78081 3.3296 2.395 4.2157 1.7268 0.94598 4.4258 1.7042 5.079 3.6788 0.9197 0.14272 1.9633-0.0826 2.8191-0.18767z" fill="#f2c0f2"/>
  <path id="Kapurthala" d="m123.45 187.96c-1.1411-0.0864-2.4061-1.6367-2.6952-2.5752-0.33032-1.0811-0.0901-1.5241-1.7305-1.1337-1.7568 0.41666-2.2598 0.15021-3.7088-0.70197-2.8266-1.6667-6.0137 0.43168-7.7742 2.4588-0.80333 0.92718-1.7643 1.5316-2.7029 2.3199-1.0848 0.91219-1.7793 0.73952-2.6239-0.15769-0.42043 0.61936-0.80331 1.2275-1.16 1.7605-1.3852 2.0759-2.9393 3.8703-4.0353 6.1188-0.70948 1.4603-1.5879 2.5752-2.9243 3.615-1.1975 0.93098-2.0121 2.1098-3.1383 3.0896-1.8844 1.6367-3.6938 3.3972-5.9011 4.7262-1.3702 0.82584-2.6841 2.8116-3.7312 3.9865-0.95348 1.0698-1.738 2.181-2.7966 3.1794-1.2012 1.1337-0.83336 1.9107-0.6757 3.2883 0.14266 1.2463-0.48049 2.5075-1.0586 3.5962-1.4452 2.7178-3.7952 4.6924-5.5558 7.2224-1.3551 1.952-2.898 3.7426-4.4746 5.5782-1.7868 2.0834-3.1195 5.1464-5.4732 6.7457-1.19 0.80711-2.594 1.5428-3.615 2.5377-0.87091 0.85212-1.5203 1.6442-2.5713 2.2673 0.02251 0.0182 0.0413 0.0338 0.06383 0.0524 1.1224 0.92346 4.073 1.175 5.1353 0.12389 1.1562-1.145 2.3612-2.4889 4.3058-2.395 0.96099 0.049 1.8769 0.79208 2.6614 1.6968 1.4077 0.11255 3.1306-0.36041 3.8138-1.4903 0.9835-1.6292 2.9956-1.3176 4.6772-1.051 1.2726 0.20268 2.8905 0.63061 4.1555 0.1915 0.97601-0.34161 1.8694-2.2636 2.4324-3.0482 0.99478 1.1149 1.5278 2.4551 2.3237 3.6788 0.67196 1.0323 2.2749 0.52927 3.3784 0.81833 2.1847 0.57058 1.6142-2.6578 2.4626-3.7051 1.8094-2.2336 5.4995-3.859 8.142-5.0752 0.39419 0.40542 1.2576 2.0421 1.6254 0.52932 0.2515-1.0323 0.78829-1.5391 1.7193-2.1434 0.54054-0.34908 2.395-1.1187 2.9843-0.68693 0.68696 0.50297 0.3491 1.7268 1.3101 2.0608 0.40168 0.13887 2.0121 0.36415 2.2936-0.064 0.3979-0.60812-0.0864-1.8094 0.73198-2.1998 1.006-0.48053 2.5638 0.75827 2.41-0.99102-0.0488-0.54054-0.079-1.0849 0.11256-1.6104-0.5969-0.39036-1.1337-0.85587-1.6104-1.3626-0.59684-0.63819-4.1705-5.2592-1.7118-5.6384 1.648-0.25523 5.8524-1.9107 4.1217-3.9715-1.0323-1.2275-0.34158-1.5015 0.0901-2.8005 0.19516-0.58561-0.27404-2.0308-1.0511-2.1622-1.2425-0.21026-4.0505 3.6976-3.8628-0.0752 0.0565-1.1036 0.4092-2.1697 0.39042-3.2847-0.0225-1.4077-0.40542-1.4828 1.0173-2.4363 3.3071-2.2223-1.2087-3.2171-1.5466-5.7135-0.14251-1.0586 1.7793-1.5278 2.5752-0.9722 0.88217 0.61187 1.4152 1.5616 2.2974 2.211 1.5354 1.1262 2.5225 0.97225 2.7442-0.96473 0.16883-1.4828 0.55557-2.8679 0.91216-4.3169 0.33035-1.3364-1.2763-1.6066-1.2763-2.7215-4e-3 -1.1262 1.8657-1.2838 2.7328-1.0173 0.93097 0.2853 2.6203 1.7118 3.525 0.8221 0.72072-0.71322 1.4002-1.0886 2.3124-1.5728 1.1262-0.59689 1.0699-1.4152 1.1111-2.5039 0.0638-1.5241 0.34911-3.0369 0.36789-4.5646-0.43169 0.28528-0.98352 0.47672-1.5316 0.43168zm34.385 42.598c-0.23275-0.20272-0.98352-0.88593-0.36036-1.1186 0.7883-0.29281 0.77328-1.3927 1.3776-1.8882-0.53682-0.43546-1.0248-0.75454-1.9445-0.55933-1.0924 0.23274-2.7666 0.99475-3.0181-0.69073-0.17268-1.1674 0.73198-1.7493 1.7493-2.0834 1.6555-0.54431 0.87465-1.6254 1.7606-2.6276-1.175-0.73955-2.4474-1.3289-3.5924-2.1021-0.7245-0.488-3.8889-3.9302-3.6525-1.3927 0.1089 1.175-1.0173 0.96852-1.8206 0.49551-0.85963-0.50676-1.3964-0.72826-2.3049-0.76578 0.10508 0.21397 0.13138 0.41667-0.20646 0.65691-0.76955 0.54057-1.8807 0.68699-2.3537 1.5504-0.37165 0.67949-0.1239 2.0984-0.88216 2.5452-0.85962 0.50306-2.3124 0.458-2.6389-0.56682-0.32284-1.006-1.0624-1.19-2.1322-1.2688-3.1045-0.23651 0.17267 1.4527 0.29278 2.211 0.14251 0.89718-0.36787 1.2463-1.1712 1.3777-1.1149 0.18018-2.0834 0.42796-3.2096 0.5556-0.25903 0.52927 1.7042 3.1608-0.16904 3.1871-2.4737 0.0338-1.3364 1.1262-0.65691 2.3387 0.67193 1.1975 0.91218 2.2185 0.8371 3.5511-0.0901 1.5541 1.967 2.1924 1.8619 0.42795-0.11256-1.8544 1.7268 0.18017 1.9032 0.93842 0.10891 0.47302 0.52177 1.5016 0.22899 1.952-0.50302 0.7733-1.9633 0.36413-2.1885 1.5428-0.25152 1.3214 1.2162 2.6766 1.937 3.6638 0.76953 1.0586 3.1758 1.1862 4.6511 1.4565 0.85209 0.1577 1.7643 0.17653 2.5901-0.10891 0.63815-0.22144 0.94599-0.58933 1.3476-0.85587 0.0227-0.96848 0.35286-1.9032 0.22523-2.8831-0.12754-0.9685-0.5368-1.3664 0.25901-2.0685 0.98728-0.87093 0.16519-2.4551 1.4077-3.1908 1.5841 0.54053 2.609-0.7808 4.1592-1.205 2.7029-0.7395-0.92344-3.0632-0.24024-4.6772 0.43921-1.0398 2.3348-0.81084 2.6239 0.18402 0.22525 0.77705 0.61189 1.2876 1.0811 1.952 0.37537 0.53306 0.0976 2.3124 1.1036 1.922 1.753-0.67193 3.0142-0.81085 1.1449-2.4551z" fill="#cc2"/>
  <path id="Hoshiarpur" d="m121.06 133.72c-0.98354 2.2223-2.7553 3.979-3.6225 6.2803-0.90842 2.4061-1.5053 5.507 0.31155 7.6467 1.8056 2.1248 3.1045 4.5234 3.2209 7.2036 0.14253 3.3296-0.97602 6.3815-1.3627 9.6473-0.31531 2.6539-2.4174 4.8651-2.8867 7.504-0.50302 2.8268-2.3274 4.7975-4.1104 7.0386-0.83711 1.0511-1.7305 2.1059-2.4926 3.1982-0.79579 1.1487-1.7681 1.1562-3.0668 1.5466-2.0646 0.62315-3.6037 2.5677-4.8313 4.392 0.84461 0.89717 1.5391 1.0698 2.6239 0.15769 0.93849-0.79203 1.8995-1.3964 2.7029-2.3199 1.7606-2.0272 4.9438-4.1256 7.7742-2.4587 1.4452 0.85211 1.9482 1.1186 3.7088 0.70197 1.6404-0.38664 1.4002 0.0563 1.7305 1.1337 0.28904 0.93847 1.5504 2.4887 2.6952 2.5752 0.54806 0.0413 1.0999-0.15021 1.5428-0.43544 0-0.0787 4e-3 -0.15771 4e-3 -0.24023 0 0.0787-4e-3 0.15769-4e-3 0.24023h4e-3c0.60815 0.43169 1.2425 0.87465 2.0646 0.65319 1.1037-0.30031 2.6126-1.0286 3.7877-0.58185 1.1149 0.42416 1.5992 1.9483 2.1735 2.8191 0.85213 1.2913 1.9708 2.3687 2.8717 3.6151 1.1187 1.5428-1.0924 2.3387-0.60812 3.5474 0.35287 0.88593 2.5563 0.49927 3.3296 1.2801 0.75077 0.75827 0.90466 1.8319 1.4039 2.7215 0.51428 0.91595 1.997 1.8544 2.8792 2.4887 1.175 0.84837 2.3274 0.49178 2.8116 1.9783 0.74328 2.2861 4.1367 4.4369 2.7855 6.9671-0.52554 0.97976-1.1787 2.0422-1.9708 2.8567-0.3491 0.36037-0.84839 0.83713-0.76206 1.3777 0.0338 0.21772 0.18402 0.40544 0.27406 0.58561 0.90842 0.0376 1.4452 0.25898 2.3049 0.76578 0.80332 0.47298 1.9295 0.67945 1.8206-0.49552-0.23649-2.5377 2.928 0.90095 3.6525 1.3927 1.1449 0.77329 2.4174 1.3627 3.5924 2.102-0.88592 1.0023-0.10509 2.0834-1.7606 2.6278-1.0173 0.33409-1.922 0.91594-1.7493 2.0834 0.25152 1.6855 1.9257 0.92344 3.0181 0.69074 0.92346-0.19515 1.4077 0.1239 1.9445 0.5593 0.0121-7e-3 0.0162-0.0182 0.0262-0.0264-0.0121 7e-3 -0.0182 0.0182-0.0262 0.0264 0.22148 0.18016 0.45047 0.37912 0.72074 0.56683 1.1149 0.78079 2.6727 0.77329 3.6638 1.4678 1.2538 0.8784 1.8094 1.693 3.4798 1.9858 1.1111 0.19514 2.4626-0.18766 3.5061 0.15405 0.51804 0.16883 0.39417 0.64942 0.78832 0.87091 0.50673 0.28527 0.9422-0.3191 1.4715-0.18017 0.95346 0.25148 2.0909 1.6592 2.6464 2.3612 0.35661 0.45421 1.4302 2.2334 2.2711 1.6817 0.5481-0.36039 0.67947-1.1111 1.0549-1.5954 1.997 1.006 0.92344 3.4011 2.1922 4.8912 0.90467 1.0586 1.4903 2.4964 2.6727 3.3335 0.25526 0.18018 1.2087-1.3476 1.449-1.6892 1.5916 1.434 1.967 3.247 2.8905 5.0151 0.39791 0.76203 1.6292 2.9806 2.898 2.3085 0.68321-0.36036 0.35287-1.449 0.32659-2.0083-0.0488-1.1862 0.60815-2.1059 0.80708-3.247 0.3829-2.1472-0.63439-4.2831-0.25523-6.3704 0.70945 0.13907 1.449 1.1449 2.2298 0.9197 0.7508-0.21773 0.31911-1.7005 0.30034-2.1772-0.0488-1.0623 1.4602-6.0173 3.142-4.2568 0.72823 0.76202 1.2801 1.5504 2.515 1.1637 0.93472-0.2928 1.434-0.36789 2.0196 0.46551 1.3551 1.9257 2.6314 2.9956 4.8238 2.2298-0.23275-0.76578 0.12004-1.4528 0.48798-2.3085 0.56307-1.3214-0.63815-1.8657-1.6179-2.5602-0.61185-0.4317-2.395-1.6817-1.7906-2.5863 0.702-1.0474-0.18016-0.87093-0.98348-0.89718-1.5916-0.0524-1.2388-2.4776-1.7568-3.3972-0.16519 0.10891-0.33036 0.21397-0.49551 0.31532 0.24025-0.15001-1.2388-0.65314-1.5128-0.60436-0.49176 0.0864-1.22 0.66444-1.6892 0.8897-1.3927 0.66814-2.9092 1.6742-4.5721 1.3739-2.9843-0.53679-2.8379-3.127-2.699-5.1952-0.84837-0.0563-1.3101-0.93471-1.8957-1.3702-0.60063-0.44668-1.509-0.67192-1.8394-1.3739-0.81461-1.738 1.0961-2.8642 1.708-4.2306 0.68694-1.5316-0.10509-2.4662-1.0361-3.66-0.81081-1.0436-1.4415-2.2636-2.2148-3.3748-0.58559-0.84459-1.2613-1.6104-1.8244-2.4513-0.52176-0.77703-0.50676-1.6367-0.90469-2.4887-0.45795-0.97976-0.99103-1.753-1.5278-2.609-0.95351-1.5316-0.96853-3.3822-2.1472-4.8762-1.2613-1.5991-1.8356-2.8041-2.4175-4.591-0.45045-1.3814-1.6329-2.7365-2.6952-3.7764-1.1149-1.0924-2.8867-2.1322-3.112-3.7651-0.14636-1.0548-0.38291-1.509-0.79955-2.4474-0.16519-0.37163-0.0826-0.78456-0.2778-1.1487-0.26652-0.49549-0.84837-0.75451-1.1412-1.235-0.42418-0.69446-0.12004-1.5916-0.0862-2.3762 0.0789-1.7305-0.43169-2.8341-1.5128-4.1893-1.0211-1.2801-1.4115-2.8754-2.395-4.1481-0.34913-0.45046-0.71323-0.93846-1.1186-1.3401-0.39792-0.39412-0.90093-0.69069-0.8221-1.3026 0.0449-0.34912 0.30031-0.5706 0.39415-0.89341 0.0901-0.30408-7e-3 -0.64569 0.0413-0.95349 0.45422 0.20647 1.0135 0.5781 1.5203 0.62691 0.60062 0.0601 0.85212-0.35289 1.4227-0.0601 0.48049 0.24399 1.5053 1.2237 2.1209 0.98724 0.8634-0.33407-0.52179-1.9107-0.76577-2.3274-0.43923-0.7508-0.90095-1.419-1.16-2.226-0.15405-0.48426-0.16155-0.95724-0.39037-1.4565-0.20649-0.44672-0.27027-0.79582-0.36037-1.2425-0.0752-0.39038-0.31534-0.77704-0.48051-1.1562-0.16884-0.37917-0.25527-0.85215-0.43546-1.1712-0.36413-0.6494-1.1299-1.0548-1.4865-1.663-0.12004-0.20647-0.0675-0.45046-0.18016-0.67569-0.12774-0.25152-0.42421-0.44296-0.61564-0.65317-0.48049-0.51804-0.8146-1.1262-1.1675-1.6742-0.55558-0.86712-0.93094-1.5616-1.4903-2.3875-0.60064-0.88593-1.3964-1.3139-2.2749-1.9595-0.46548-0.34161-0.91218-0.69448-1.3589-1.0548-0.58934-0.47297-1.1975-0.76201-1.8732-1.1487-0.52928-0.3003-0.96474-0.73202-1.494-1.0136-0.63817-0.33784-1.3101-0.64191-1.9445-1.0173-0.25901-0.15385-0.49925-0.46926-0.77703-0.58561-0.18766-0.0787-0.38665-0.0338-0.54807-0.1014-0.57809-0.24398-1.1674-0.68696-1.7042-1.0173-1.0961-0.67572-2.3875-1.3289-3.2922-2.2223-1.3101-1.2951-2.5225-2.6353-3.8778-3.8853-0.60064-0.55559-1.2087-1.0436-1.8544-1.5578-0.64568-0.51429-1.2988-1.0023-1.9821-1.4753-0.63436-0.43919-1.1186-1.0773-1.7605-1.4865-1.265-0.80707-2.8154-0.63065-4.2531-0.48048-0.85587 0.0901-1.7418 0.18402-2.579 0.35285-0.77707 0.15769-1.449 0.6194-2.2223 0.74704-0.32284 0.0524-0.60815-0.12774-0.81085-0.40169-1.434 0.16884-2.7403 4.4258-3.0893 5.2216z" fill="#abacda"/>
  <path id="Gurdaspur" d="m51.138 135.89c-0.33035 1.4602-1.8356 2.1772-1.7868 3.874 0.04506 1.5091 0.66819 1.8994-1.0473 2.3725-1.7868 0.49175-0.30782 1.8094 0.49175 2.3836 0.34535 0.25151 2.7365 2.2822 1.2087 2.5338-1.1149 0.18402-2.2711-0.59686-3.3484-0.28905-1.7118 0.49176-0.5443 1.8844 0.23648 2.7403 0.27029 0.29658 2.9243 2.4324 1.5504 2.4175 0.40541 0.99478 2.7478 3.2021 3.9341 3.3784 0.65694 0.0976 1.8469-0.58562 2.2598 0.13886 0.41292 0.72451 0.22523 1.5691 0.77706 2.2749 1.2876 1.6517 3.2922 2.8492 4.7711 4.3582 1.5991 1.633 3.4798-0.0374 5.1841 0.96476 1.5466 0.90843 3.5663 2.1547 4.3432 3.7464 0.97975 2.0046-1.0586 3.844 2.4063 3.157 1.997-0.39417 5.079-0.16519 6.5505 1.3326 0.55184 0.56308 1.6855 1.0473 1.8319 1.8657 0.15391 0.88588-0.94222 1.1487-1.0999 1.9257 2.1284 0.78831 3.3446 2.2711 5.0977 3.5738 0.71323 0.52927 2.1735-0.78834 2.8529-1.0887 1.7531-0.76952 2.1247-0.96096 3.1946 0.72828 1.2838 2.0233 2.7891 4.88 5.1126 5.8147 1.25 0.503 2.166 1.4115 3.326 1.967 1.2313 0.58557 2.1472 0.87837 3.097 1.952 0.0524 0.0601 0.1014 0.11256 0.1502 0.16519 1.2313-1.8243 2.7667-3.7689 4.8313-4.392 1.2951-0.39041 2.2672-0.40167 3.0669-1.5466 0.76204-1.0962 1.6555-2.1511 2.4926-3.1983 1.7831-2.2373 3.6074-4.2118 4.1104-7.0386 0.46923-2.6389 2.5713-4.8499 2.8867-7.504 0.38664-3.2659 1.509-6.3177 1.3626-9.6474-0.1164-2.6766-1.4152-5.0752-3.2207-7.2036-1.8169-2.1434-1.2237-5.2404-0.31156-7.6467 0.86713-2.3011 2.6389-4.0541 3.6225-6.2803 0.34911-0.79207 1.6555-5.0489 3.0594-5.2254-0.28156-0.37915-0.39792-0.93472-0.20273-1.2913 0.47301-0.86715 1.6705-1.1149 2.4476-1.6179 0.70571-0.45798 1.3063-1.0586 1.9295-1.6029 1.3364-1.1674 3.0632-2.4025 3.6337-4.0843 0.33033-0.9685 0.0901-1.4978-0.83336-2.0196-0.41294-0.23274-0.92721-0.31534-1.3214-0.56684-0.36787-0.24024-0.69822-0.61939-1.0323-0.90093-0.70572-0.59311-1.4452-1.2237-1.753-2.0796-0.35661-1.0023-0.70571-2.1472-0.84462-3.1982-0.15405-1.1637 0.30408-2.0496 1.5766-2.3725 1.5616-0.39414 3.1045-0.75076 4.6398-1.2425 1.1637-0.37539 2.3912-0.58559 3.5474-0.97976 1.3476-0.46172 2.301-1.4602 3.54-2.0946 1.28-0.65694 2.8905-1.1262 3.9604-2.0685 0.99101-0.87089 1.5166-1.8131 1.7944-3.0031 0.1502-0.63442 0.5931-1.0736 0.82585-1.663 0.24023-0.60813-0.30408-1.2163-0.0901-1.753 0.24776-0.61564 1.1787-0.41669 1.6817-0.73576 0.90846-0.57058 1.5016-0.61564 2.5752-0.70949 0.92344-0.07884 1.6592-0.37914 1.8469-1.2951 0.16904-0.81833-0.1164-1.9257 0.71323-2.5039 1.723-1.1937 4.4408 0.47673 6.1451-0.68696 0.81086-0.55182 1.0661-1.723 0.7508-2.5677-0.38667-1.0323-1.5616-1.494-2.1772-2.3762-0.65318-0.94222-0.24027-1.8769-0.36789-2.898-0.12005-0.93472-0.42418-1.4753-1.0811-2.1885-0.26652-0.2928-0.57433-0.72451-0.84461-0.9685-0.0862-0.07883-0.31533-0.09385-0.43922-0.20646-0.16883-0.15391-0.26275-0.3566-0.41289-0.51803-0.29657-0.32284-0.63441-0.56309-0.96851-0.85212-0.64942-0.56684-1.2275-1.1712-1.8694-1.738-0.3979-0.35286-0.63438-0.79582-0.98726-1.1674-0.30032-0.31156-0.73574-0.46924-0.84463-0.91218-0.93846 0.72449-1.2388 2.316-0.69443 3.3221 0.24023 0.44296 0.61186 0.6269 0.48422 1.1787-0.16519 0.70198-0.93844 0.90093-1.5654 1.1599-1.1712 0.49175-2.2974-0.01883-3.2584 0.87089-0.55558 0.51428-0.69073 0.92346-0.96476 1.5691-0.30779 0.72825-0.86335 0.89342-1.6179 1.1074-1.0774 0.30782-2.5602 0.87465-3.311 1.6742-0.91217 0.9685-0.58561 2.4551-1.5278 3.4798-0.67568 0.732-2.0834 1.2538-3.0519 1.6104-1.2125 0.44671-2.1284 1.1675-3.4723 1.3364-1.4527 0.18395-2.898 0.25527-4.362 0.25527-1.4828 0.0043-2.579 0.37162-3.979 0.70572-0.30406 0.50677-1.0173 0.99852-1.4903 1.4377-0.52177 0.48425-1.3214 0.79583-1.708 1.3927-0.37539 0.57433-1.0173 0.98351-1.6367 1.4377-0.54804 0.40167-0.72449 0.41293-1.3626 0.54806-0.64941 0.14272-1.1449 0.64193-1.8019 0.75827-0.28154 0.0488-0.85963 0.07125-1.1224-0.0488-0.20269-0.09012-0.20269-0.34911-0.42418-0.43918-0.17268-0.07125-0.39792-0.01421-0.58185-0.01421-0.36414-0.0043-0.72823 0.01215-1.0924 0.0076-0.66443-0.0043-0.60813-0.244-1.1487-0.51428-1.0023-0.50302-1.7155 0.74702-2.3648 1.2575-0.29279 0.23275-0.64943 0.37541-0.95351 0.59685-0.3228 0.23649-0.84083 0.96474-1.2951 0.97225-0.52929 0.0076-1.5466-1.2463-1.967-1.6142-0.61188-0.5368-1.4678-0.82961-2.2412-1.205-0.7395-0.35662-1.5053-0.58938-2.3498-0.27028-0.79208 0.30032-1.5278 0.58559-2.3762 0.63063-0.85212 0.04132-1.738-0.07505-2.5788 0.03384-0.20272 1.3814 0.39039 3.0857 0.66068 4.4371 0.30405 1.5316 0.60813 3.0857 0.67195 4.6248 0.06398 1.5391 1.1674 2.9505 1.738 4.3582 0.13138 0.31909 0.33784 0.6832 0.27778 1.0398-0.0976 0.60061-0.42044 0.42418-0.95722 0.47672-0.91221 0.0901-1.7981 0.46924-2.6952 0.54056-0.16883 0.38664-0.70197 0.44296-0.87839 0.75078-0.05997 0.10892 0.03384 0.4054 0.01919 0.53681-0.03373 0.28155-0.19521 0.36789-0.25149 0.58938-0.19896 0.75452-0.0076 1.7643 0 2.5452 0.0076 0.8371 0.0043 1.5616-0.76579 2.0946-0.72074 0.49928-1.1524 1.1562-1.8281 1.6968-0.31533 0.24776-0.70572 0.40919-1.0286 0.66818-0.3979 0.31908-0.72451 0.77706-1.1487 1.0511-0.87465 0.57057-1.7943 1.0661-2.6201 1.7305-0.88216 0.70572-1.6367 1.3176-2.6616 1.8094-1.1186 0.53303-2.2672 1.2162-3.3146 1.8619-1.1562 0.71323-2.515 0.74326-3.8928 0.66443-0.64566-0.0376-1.449-0.7245-2.0646-0.52554-0.53679 0.17269-1.006 1.1299-1.3289 1.5166-0.85212 1.0098-2.316 1.3852-3.6638 1.2162-0.72074-0.0901-0.99477-0.24774-1.6817 0.11256-0.55932 0.2928-1.1149 0.59686-1.6742 0.88965-1.0886 0.57436-2.4025 0.62691-3.4122 1.2838-1.1937 0.77704-1.9107 1.4753-3.4499 1.5391-0.92346 0.0374-1.1337 0.0601-1.0924-0.78454 0.03756-0.79206-0.46924-1.3176-1.2763-1.6742-0.70572-0.31157-1.4114 0.11255-2.1247-0.29657-1.0886-0.62689-1.22-1.4452-2.7065-1.2838-1.4565 0.1577-1.4452 1.1299-2.2185 2.0759 0.99477 0.87839 2.9055 2.3725 2.6539 3.476z" fill="#e2b584"/>
  <path id="Amritsar" d="m42.895 246.34c2.4474-0.86713 4.3995-2.3687 7.0647-2.6691 2.6239-0.28904 3.3972 0.75828 5.1578 2.2185 1.0511-0.61937 1.7005-1.4152 2.5713-2.2672 1.0173-0.99478 2.4213-1.7268 3.615-2.5377 2.3537-1.5992 3.69-4.6622 5.4732-6.7457 1.5729-1.8394 3.1156-3.63 4.4746-5.5783 1.7606-2.5338 4.1104-4.5045 5.5558-7.2224 0.57808-1.0886 1.205-2.3537 1.0586-3.5962-0.15766-1.3776-0.52179-2.1547 0.6757-3.2883 1.0586-0.99851 1.8432-2.1098 2.7966-3.1794 1.0473-1.175 2.3612-3.1608 3.7312-3.9867 2.2035-1.3288 4.0167-3.0895 5.9011-4.726 1.1299-0.97976 1.9407-2.1586 3.1381-3.0895 1.3326-1.036 2.211-2.1511 2.9243-3.615 1.0961-2.2486 2.6539-4.043 4.0353-6.1188 0.35662-0.53303 0.73952-1.1412 1.1599-1.7606-0.0488-0.0526-0.1014-0.10892-0.15021-0.16519-0.94597-1.0774-1.8657-1.3664-3.097-1.952-1.1599-0.55559-2.0759-1.464-3.326-1.967-2.3237-0.93472-3.829-3.7877-5.1129-5.8147-1.0699-1.6892-1.4415-1.4978-3.1946-0.72824-0.67945 0.30029-2.1434 1.6179-2.8529 1.0886-1.753-1.3026-2.9693-2.7855-5.0977-3.5737 0.15768-0.77705 1.2576-1.0436 1.0999-1.9257-0.14266-0.8221-1.2801-1.3064-1.8319-1.8657-1.4715-1.4978-4.5533-1.7268-6.5505-1.3326-3.4648 0.68321-1.4265-1.1524-2.4063-3.157-0.77704-1.5916-2.7966-2.8379-4.3432-3.7464-1.7042-0.99854-3.5849 0.66818-5.1841-0.96476-1.479-1.509-3.4798-2.7065-4.7711-4.3582-0.55181-0.70574-0.36414-1.5503-0.77706-2.2749s-1.6029-0.0413-2.2598-0.13887c-1.1862-0.17633-3.5325-2.3836-3.9341-3.3784 1.3739 0.0142-1.2801-2.1247-1.5504-2.4174-0.7808-0.85589-1.9483-2.2486-0.23648-2.7404 1.0774-0.3078 2.2336 0.47298 3.3484 0.28907 1.5278-0.25151-0.86338-2.2861-1.2087-2.5339-0.79957-0.57434-2.2747-1.8919-0.49175-2.3836 1.7193-0.47298 1.0924-0.8634 1.0473-2.3725-0.04881-1.6967 1.4565-2.4138 1.7868-3.874 0.2515-1.1036-1.6592-2.5976-2.6614-3.4499-0.01498 0.0182-0.03002 0.0376-0.04881 0.0601-0.6907 0.80709-1.3401 0.1014-2.2073-0.15769-0.36037-0.10892-0.81459-0.33785-1.1937-0.10509-0.39416 0.24398-0.22899 0.57434-0.24025 0.96472-0.01883 0.52932-0.22899 1.0173-0.2928 1.5316-0.06006 0.49175-0.21774 0.57434-0.60813 0.98351-0.2515 0.2665-0.42794 0.57433-0.72074 0.79206-0.34161 0.25525-0.83336 0.33408-1.1787 0.58185-0.71323 0.5105-0.30031 1.4715-0.67945 2.1998-0.80333 1.5278-1.7455 2.6464-3.0219 3.8703-0.65692 0.63063-1.2237 1.1299-2.1697 1.3589-0.87465 0.21021-1.7568 0.24399-2.6389 0.37163-0.81083 0.1164-1.5578 0.22522-2.3387 0.47298-0.73576 0.23274-1.6892 0.36789-2.3387 0.74327-0.52179 0.30407-1.0173 1.235-0.8371 1.7455 0.30405 0.84839 0.61188 1.2425-0.49175 1.7981-1.0699 0.54054-1.4865 0.1502-2.4288-0.43545-0.76578-0.47674-1.4265-1.2313-2.3537-0.66444-0.93472 0.57061-1.5466 1.5654-2.3573 2.2523-0.78831 0.67194-1.8094 1.6742-2.8754 1.8394-0.49552 0.0752-1.1036 0.0826-1.5015 0.42045-0.35661 0.30032-0.32658 0.75078-0.53305 1.1337-0.22148 0.40914-0.63064 0.57057-0.96099 0.93095-0.42043 0.45798-0.30406 0.79583-0.42794 1.3138-0.06006 0.24776-0.22523 0.42793-0.27029 0.67569-0.0413 0.2215 0.01133 0.50304 0.0075 0.72826-0.0038 0.46922 0.01883 0.9422 0.01133 1.4115-0.01883 0.99476-0.76955 1.6554-1.0811 2.5752-0.32284 0.94973 0.27778 2.1472 0.01883 3.1045-0.09385 0.34913-0.42043 0.66817-0.51803 1.0436-0.12764 0.488 0.02253 1.0023-0.05255 1.4978-0.27029 1.7868-2.9693 1.907-4.5535 2.1885-1.1149 0.199-2.3387 0.75076-2.9881 1.5992-0.47298 0.61938-0.45047 1.509-0.732 2.2035-0.24025 0.59312-0.42794 1.3176-0.51428 1.9558-0.086336 0.6344 0.30782 0.80707 0.75076 1.1487 0.46924 0.35662 0.79957 0.77329 1.19 1.1787 0.54807 0.56685 1.0886 0.45047 1.8619 0.49176 0.078831 1.0849 0.15766 1.9408 0.62315 2.9657 0.41292 0.91219 0.96099 1.7042 1.5278 2.5264 1.0361 1.5015 0.55558 3.6037 2.3011 4.6622 0.75453 0.45799 1.3214 0.97978 1.5916 1.8019 0.26652 0.81461 0.21021 1.3589 1.2275 1.6254 0.53681 0.14251 2.6278 0.0563 2.8905 0.54055 0.26276 0.49178-0.72449 1.2125-0.8784 1.6667-0.26276 0.77331 0.19144 1.7268 0.21772 2.5189 0.02628 0.81457-0.86338 1.0361-1.6329 1.2763-0.75453 0.23651-1.4603 0.24401-1.907 0.91595-0.45797 0.6907-0.34535 1.0511 0.27778 1.5578 0.65692 0.53684 1.1524 1.0286 1.8844 1.464 0.39416 0.23648 0.49175 0.46548 0.9685 0.2928 0.44294-0.16155 0.40916-0.43169 0.93471-0.33412 0.79957 0.14657 1.0699 0.76208 1.4603 1.3139 0.17268 0.24401 0.36788 0.43545 0.46173 0.71699 0.15391 0.46174 0.07883 0.82211 0.41669 1.2425 0.27778 0.3491 0.70572 0.57432 0.93095 0.96471 0.37914 0.66445 0.26278 1.5091 0.19145 2.2223-0.04882 0.51049 0.45422 1.9182 0.03756 2.2672-0.54807 0.45797-1.1149-0.53303-1.4114-0.83708-0.50301-0.51432-0.95722-0.60064-1.6254-0.31534-2.5563 1.0774-3.7952 3.3071-4.3507 5.7135-0.12389 0.53678-0.12013 1.0548-0.75827 1.2124-0.29654 0.0751-0.62313-0.0563-0.91969 7e-3 -0.35661 0.0715-0.58936 0.27781-0.87089 0.48047-0.97975 0.70574-1.4377 1.5804-1.4227 2.7029 0.00748 0.85213 0.3979 2.6203-0.23648 3.2922-0.42418 0.45045-0.92346 0.42418-1.0211 1.1036-0.082595 0.58559 0.018827 1.2876 0.03004 1.8807 0.011333 0.63439 0.11636 1.0586-0.39041 1.5353-0.57809 0.54054-0.732 0.64944-0.69821 1.434 0.022536 0.52929-0.22899 0.94974-0.29657 1.4453-0.075079 0.54053 0.1464 1.2312 0.35286 1.7305 0.15391 0.36787 0.37539 0.4617 0.041297 0.7583-0.24776 0.22146-0.76955 0.15405-1.0098 0.11639-0.30782-0.0488-0.61938-0.33787-0.76204 0.16884-0.045039 0.16519 0.086336 0.66442 0.15017 0.80333 0.22899 0.53302 0.47299 1.1374 0.86714 1.5578 0.46173 0.49174 0.58185 0.85963 0.57809 1.5165-0.0038 0.81838-0.3341 1.1375-0.55558 1.8544-0.052554 0.17269 0.056317 0.39415 0.00748 0.56307-0.030019 0.10509-0.16142 0.26655-0.18019 0.34164-0.067575 0.27025-0.22899 0.61184-0.30406 0.90466-0.16893 0.65692-0.5293 1.2012-0.20271 1.8957 0.27778 0.58937 0.76578 1.0361 0.59311 1.7831-0.097593 0.42046-0.29657 0.64942-0.28529 1.1337 0.011333 0.39417-0.033771 0.80331 0.030019 1.1937 1.0736 0.16883 2.5264 1.066 3.127 1.8769 0.80334 1.0886 0.61938 2.2786 1.0886 3.4385 0.52554 1.2988 2.0796 1.4602 3.3634 1.0323 1.8544-0.61563 1.8919-2.0083 2.0608-3.5663 0.09385-0.85213-0.12015-1.1824-0.40167-1.9595-0.28906-0.79956 0.26652-1.3364 0.93846-1.7906 0.55932-0.37538 1.3739-0.7095 1.6404 0.10509 0.22148 0.67942 0.06757 1.1599 0.54806 1.8056 0.33784 0.45794 0.79957 0.82206 1.464 0.64937 0.65694-0.16883 0.94973-1.4452 1.6517-1.2726 0.60813 0.15021 0.51428 0.98725 1.3214 1.036 0.83336 0.0524 0.88967-0.93846 1.6555-0.82959 1.5428 0.22149 0.67194 2.8191 1.4828 3.54 0.59685 0.52927 1.6667 0.0976 2.38 0.2515 0.30031 0.0638 0.53305 0.33033 0.69821 0.66066 2.1397-0.62689 3.7952-2.211 5.8297-3.0519 2.609-1.0811 5.3793-1.0773 8.0145-2.012z" fill="#a2b0a2"/>
 </g>
 <g transform="translate(.24506 10.746)" fill="none" stroke="#345">
  <g stroke-width=".5px">
   <path d="m250 236.46-1.515-3.939-2.727-3.6361-3.03-6.6661-3.333 2.121-13.635 0.90902-3.636-15.453-1.818-1.212-2.727-3.9391-4.242-3.03h-4.2421l-5.7571-1.212-3.939-1.818-3.3331-1.515-2.121-1.818-1.818-1.212 0.30301-4.242-3.636-4.2421-1.818-1.515-3.636-3.03-13.938-18.483-6.0601-15.15-8.4841-12.423-2.121-3.9391-3.939-5.4541-8.4841-14.241-3.03-2.424-2.121-4.2421-12.12-10.605-5.7571-18.786 1.212-17.271-1.515-3.636 0.90901-5.1511 1.515-3.333 2.424-0.60601 2.121-2.727-0.60601-3.333-2.121-4.2421"/>
   <path d="m114.4 155.39 2.016-6.3359 4.0319-12.96 0.28801-4.0319 0.57598-4.0319-0.28799-13.536 0.57598-2.0159v-2.8799l1.44-15.552"/>
   <path d="m114.46 155.5 7.2524 4.1038 8.7633 4.6901 5.7415 2.0519 5.7415 4.6901 19.642 2.9313 13.598 7.3283 17.224 8.5008"/>
  </g>
  <path d="m114.4 155.39-4.5105-7.8182-4.5105-6.3146-10.524-4.2098-7.5174-3.6084-5.1119-3.007-6.3146-2.1049-7.2168-1.8042-7.5174-1.2028-7.2167-1.2028-4.8112-1.5035-5.7133-2.7063-8.7202-4.5104" stroke-width=".5172px"/>
  <g stroke-width=".5px">
   <path d="m49.147 122.61 0.94704 2.075-4.3781 3.4263-5.5202 7.043"/>
   <path d="m114.4 155.39-2.4398-0.57215-3.2531-0.57217-1.7892-0.38143-1.6265-0.38145-1.3012-0.76288-1.9518-1.1443-1.3012-0.76288-1.6265-0.9536"/>
   <path d="m121.22 34.96h-5.7874l-3.046 2.3571-1.523 2.3571-1.523 1.1785-1.2184 4.7142-3.046 1.4732-1.2184 3.8303-0.9138 2.9464-2.1322 1.1785-0.91382 2.0624-1.2184 2.9464-0.3046 2.0625-2.1322 1.4732-1.8276 2.0625-2.4368 0.58927-5.4828 5.8927-0.30462 4.1249-3.6552 2.6517-1.523 2.6517-1.2184 1.7678-2.1322 1.7678-3.046 2.0624-2.7414 1.4732-2.4368 0.8839-1.8276 3.5356-1.8276 2.6517-12.489 7.3659-0.91381 0.29464-12.184 8.5444-5.4828 3.5356"/>
   <path d="m99.112 149.86 3.2007-2.0115 1.7604-1.2378 1.1202-1.0831 2.2405-1.702"/>
   <path d="m100.83 139.4-2.6649 6.0302v1.206l0.57106 1.005 0.57106 1.407-0.19035 0.80403"/>
   <path d="m99.112 149.86-4.0101-1.8746-1.7544-0.31243h-3.0076l-2.005 1.5622h-4.7619l-1.7544-0.62485h-1.7544l-1.2531 0.62485-1.5038 0.9373-0.25063 3.7492-6.5164-2.8119h-1.0025l-2.005 0.31242-0.50126 1.2497-7.7695-4.6865-3.7594-3.4367-3.7594-2.8119-4.762-2.187-2.2557-0.62486-2.5063-0.62487-2.005-3.1243"/>
   <path d="m34.727 115.4 1.0937 3.9515 0.43748 3.1196 0.21874 3.1196 0.43747 2.7037 0.43748 1.4558 0.65621 1.8718 2.1874 3.5356"/>
  </g>
 </g>
 <g transform="translate(-.0016936 10.313)" fill-rule="evenodd" stroke-width=".33805">
  <ellipse cx="120.87" cy="34.711" rx="1.9633" ry="2.0045"/>
  <ellipse cx="35.123" cy="116.29" rx="1.9633" ry="2.0045"/>
  <ellipse cx="40.735" cy="135.74" rx="1.9633" ry="2.0045"/>
  <ellipse cx="99.666" cy="150.37" rx="1.9633" ry="2.0045"/>
  <ellipse cx="114.7" cy="155.78" rx="1.9633" ry="2.0045"/>
  <ellipse cx="250.2" cy="236.96" rx="1.9633" ry="2.0045"/>
  <ellipse cx="147.97" cy="124.31" rx="1.9633" ry="2.0045"/>
 </g>
 <g transform="translate(-.0016936 10.313)" font-family="sans-serif" font-size="3.5279px" letter-spacing="0px" stroke-width=".26459" word-spacing="0px">
  <text x="112.69542" y="30.501545" style="line-height:1.25" xml:space="preserve"><tspan x="112.69542" y="30.501545" font-size="4.2334px" stroke-width=".26459">Pathankot</tspan></text>
  <text x="41.33646" y="115.69132" style="line-height:1.25" xml:space="preserve"><tspan x="41.33646" y="115.69132" font-size="4.2334px" stroke-width=".26459">Amritsar</tspan></text>
  <text x="44.744053" y="136.73822" style="line-height:1.25" xml:space="preserve"><tspan x="44.744053" y="136.73822" font-size="4.2334px" stroke-width=".26459">Tarn Taran</tspan></text>
  <text x="109.48828" y="164.80074" style="line-height:1.25" xml:space="preserve"><tspan x="109.48828" y="164.80074" font-size="4.2334px" stroke-width=".26459">Jalandhar</tspan></text>
  <text x="79.020409" y="156.58243" style="line-height:1.25" xml:space="preserve"><tspan x="79.020409" y="156.58243" font-size="4.2334px" stroke-width=".26459">Kapurthala</tspan></text>
  <text x="152.18341" y="125.31277" style="line-height:1.25" xml:space="preserve"><tspan x="152.18341" y="125.31277" font-size="4.2334px" stroke-width=".26459">Hoshiarpur</tspan></text>
  <text x="221.93881" y="238.36461" style="line-height:1.25" xml:space="preserve"><tspan x="221.93881" y="238.36461" font-size="4.2334px" stroke-width=".26459">Chandigarh</tspan></text>
 </g>
 <path d="m128.17 27.172 1.0713 0.93743 1.54-0.3348-0.60264-1.0044 1.4061-0.60264 1.9418 0.20088-0.067 0.87046 0.53568-0.8035h2.0757l-0.6696 1.607 1.54 0.26784 0.60264 1.0044 0.40174-0.60265 0.3348 0.46873 0.73656-0.46873-0.26783 1.0044 1.54-0.40174 0.20088 1.0044 0.60264-0.13392 0.40176 1.2722 0.60263-0.20088-0.1691-0.62933 1.3254 0.94673v-0.89941l0.0947-0.33134 0.85206 1.2781-0.0473 0.37869 1.5148 1.4201 0.0947-1.0414h-0.47336v-1.0887l-0.52071 0.28402 0.142-0.89941 0.66273-0.33134-0.56804-0.61538 0.0474-1.2308 0.75739 0.28402 0.14201-0.14202-0.28402-0.47336 0.56805-0.47338 2.0828 1.8461 1.2781-0.85205v-0.14202l-0.89941 0.18936v-0.56805l-0.66271-0.33137-0.3787 0.42604-1.1834-0.75738 0.33136-0.2367 0.75739 0.37869 0.33135-0.37869 0.42604-0.0473 0.61539 0.37869-0.42605-0.75738-1.2307 0.18935 0.47338-0.61538-0.47338-0.56805 1.8934 0.0473-0.142-0.89942-1.1361-0.80472 0.52072 1.1361-1.1834-0.61539v0.56806l-0.18935 0.0947-0.52071-0.33134 0.3787 1.8461-0.56804-0.33136-1.2307-0.0947-0.3787 1.1834-0.52071-0.33136 0.0473 0.71005-1.1834-0.8994-0.0474 0.75739-0.85207-0.0474 0.0947 1.7041-0.47336-0.8994-0.56804 0.23668-0.94675-0.99408 0.14202 0.75739-0.56805-0.28402 0.0473-0.56805-2.6508-0.142-0.18935-0.0947-0.3787-1.1834 1.4674 0.8994 2.0355-0.99408-0.23668-1.0887-0.85208-0.14201 1.9408-0.85205v-0.28404l0.42604-0.71005 0.42604-0.18935 0.75738-1.4201 1.6568-0.0473 0.80471-1.2781h0.14202l0.75739 0.23668-0.23668-0.42602-0.33138-0.33137 0.47339-0.33136 0.33136-0.56804 0.0947-0.3787-0.0473-0.28402-0.0947-0.14201v-0.0947l0.28402-0.42603 0.14201-0.14201 0.3787 0.71006 0.42604-0.71006v-0.33136l0.23667-0.33136h0.66272l0.0947-0.33136 0.33135-0.71006-0.14201-0.47336-0.71006-1.2307 0.85207 0.0947 1.2308 0.23668 0.56804 1.7041 1.5621 1.2781-0.37869-1.5621-0.0474-0.142-0.66272-0.0947-0.71006-1.7514-1.0887 0.0474-0.56805-0.99409 0.61539-0.0473 0.61538-1.1834 0.18934-0.0947 0.75739 0.80473 0.0473-0.3787-0.0947-0.28403v-0.23667l0.61538-0.0947 0.2367-1.0414 0.142 0.47337 1.1361 0.47338-0.3787-0.47338-0.37869-0.42603-0.18936-0.66272 0.14201-0.094701 0.80474-0.094702 0.85206-0.66272-0.37869-0.61538h0.66271l0.28401-0.52071 0.94675-1.5621-0.42604-0.52071-0.23668-0.47337-1.1834-0.75739-0.23668-0.18934 0.75739-1.0414 1.3254-0.14201 0.33136-2.9348-0.61538 2.1775-2.7928 1.3728 0.52071 0.14201 0.75739-0.3787-0.71005 0.94674 1.4201 1.2308-0.18934 0.94674-3.3136 1.7041v0.37871l0.37869 0.61538-0.33137 0.047301-1.0887-1.2781-0.23668-0.28401-0.28404 0.142 0.56805 0.66272 0.61539 0.71005 0.28401 0.7574-1.4201 1.5621-1.3254-1.7041-0.71005 0.8994-0.23669-0.33135 0.0473-0.47338-1.7041-0.47338-0.14202 0.18936 0.52071 0.23667 0.94675 0.23668v0.71005l1.1361 1.1834-0.61538 0.18935 0.18934 0.66271 0.85207 0.5207-1.4201 0.0947 0.47338 1.4674-2.6035 0.61538 1.1361 1.7041-2.3668 0.3787-0.56804-0.80473-2.2248 1.4201-0.47336 0.47337-2.5088 2.8402-1.0887-0.37869 2.8402-3.361 1.0414-0.85206-0.71005 0.0947-0.75739 0.3787-0.75741 1.0414-0.0947-0.71006 0.47337-4.2604-1.2307 1.6568v2.1301l-0.0473 0.8994-0.23668 0.94674-0.80473 0.85206-0.18935-0.28403-0.0473-0.142 0.5207-1.7988-0.71005-0.23667-0.18935 0.89939-0.28402 2.1775-1.0887-1.0887 0.71005-0.80473 0.33135-1.7988-0.23669-0.14202 0.37869-1.6568-0.61538-0.85206 0.0947 1.3728-0.71005 0.42604 0.47337 0.80471-0.42603 1.3254h-0.66273l-0.85206-0.0947 0.66272-0.33136-0.0947-1.5621 0.94675-1.2781-0.89942 0.66272 0.0473-1.8934-0.42603 0.7574-0.28402-0.47338-0.0947-0.52071-0.56804-0.56805 0.33136 2.4615-0.71006 0.56804 0.7574 0.47337v0.66272l-0.61537-0.42604v0.47337l-0.61538-0.28401-0.28403-1.1834-0.0947 1.5621 0.89942 0.23668v0.33136l0.28401 0.61538h-0.66271l-0.42604 0.8994-0.33135-0.33136 0.5207-1.2307h-1.1834l-0.42604-0.42602 0.0947 0.75738-0.52071 0.47338-0.0947-1.1361-0.33135 0.71005v0.42605l-0.75739 0.28401-0.18935-0.56805v-0.28401l1.0887-1.9408-0.71004 0.56805-0.42604-0.37871v1.1361l-0.7574-0.56804-0.0473-0.3787 0.47337-0.56804v-0.28402l1.0887-0.47337 0.8994-1.5621-1.0414-0.23669-0.18936 0.42605-0.75739 1.0887-0.0473-1.9881-0.66271 1.3728 0.23667 0.75738-0.42602 0.56805-0.33136-1.2307h0.33136l-0.42603-0.94674 0.66271-0.75738-0.71005-0.52072 0.28402-1.136-0.52069 0.94674-0.80475-0.99409 0.23669 1.2307-0.94674-0.142 1.2781 0.61538-0.85207 0.42604 0.71007 0.14201 0.142 0.0474-0.42603 0.42604 0.37869 0.28402 0.0947 0.66271-0.71005-0.75739 0.3787 1.0887v0.42602l-1.5621-1.7041-0.37868 0.99407 0.66271-0.0473 0.61538 0.52072-0.0473 0.14201-0.71007-0.0473-0.142 0.28401 0.8994 0.66271 0.61538 0.99408-0.42603 0.52072 0.75739 0.42604v0.28402l-0.37869 0.18935v1.8934l-0.28403-1.0414-0.61538 0.3787h-0.37869l0.14201-0.71005h0.66272l-0.0947-0.99408-1.2307-0.28403-0.47337 0.89941h-0.33136l-0.0473-0.33138 0.61538-0.52069-1.3728-0.71007 0.80473-1.8934h-0.94674l0.0947-0.52071-0.56805-0.14201-0.0947-0.0947 0.23668-0.33136-0.8994-0.18934v-0.14201l0.61537-1.3254-1.2781 0.3787 0.0947 1.9881-0.47338 0.14201-0.33135-0.52071-0.33137 0.14201h-0.37869v-0.23668l0.23669-0.66272-1.0414 0.80472 0.28403 0.7574 0.33135-0.47338 0.66271 0.0473 0.28403 0.61539 1.1361-0.28404 0.99407 2.4142 0.85207 0.142v0.14201l-0.52071 0.33137 0.56804 0.89939-0.71005-0.28402v0.56805l-0.80474 0.28402 1.2781 0.0947 0.3787 0.23668 0.33136-0.85206 0.99408-0.33137-1.4201 2.0355 2.0355 0.28403 0.33136 0.47336h-0.80473l0.5207 0.80473 0.80473-0.52071 1.0414 0.47338-0.42603-0.66273-0.0473-0.142 0.3787-0.3787 0.94674 0.47337 1.2781-0.28402-0.0947 0.71005 1.7988 0.80473h-0.85206l1.0414 1.5148-2.0828-1.3727 1.5148 1.8461-0.85206-0.42603 0.89941 0.94674-0.0473 0.18935-0.47337 0.47337 0.42603 0.80473-0.142 0.28402-0.33136 0.14201z" fill="#85c5e3"/>
 <text x="155.81078" y="14.987828" fill="#000000" font-family="sans-serif" font-size="3.5279px" letter-spacing="0px" stroke-width=".26459" word-spacing="0px" style="line-height:1.25" xml:space="preserve"><tspan x="155.81078" y="14.987828" font-size="2.8223px" stroke-width=".26459">Ranjit Pratap Sagar Lake</tspan></text>
</svg>
