<svg width="568.25mm" height="187.52mm" version="1.1" viewBox="0 0 568.24646 187.51598" xmlns="http://www.w3.org/2000/svg" xmlns:cc="http://creativecommons.org/ns#" xmlns:dc="http://purl.org/dc/elements/1.1/" xmlns:rdf="http://www.w3.org/1999/02/22-rdf-syntax-ns#">
 <metadata>
  <rdf:RDF>
   <cc:Work rdf:about="">
    <dc:format>image/svg+xml</dc:format>
    <dc:type rdf:resource="http://purl.org/dc/dcmitype/StillImage"/>
    <dc:title/>
   </cc:Work>
  </rdf:RDF>
 </metadata>
 <g transform="translate(-3.2447 -60.655)" stroke="#fff" stroke-width=".5">
  <path d="m202.37 141.46c-0.59447-0.45587-1.2872-0.79555-1.9487-1.1531-0.0984-0.69279 0.38433-1.2291 0.33523-1.9264-0.11611-1.6314 0.0145-3.2763-0.14751-4.9076-0.1208-1.2112-1.2381-3.3611-0.70623-4.4785 0.27714-0.58107 2.512-1.4302 1.8862-2.0783-1.0906-1.1308-1.2694-2.4404-0.51847-3.7948 0.54081-0.97437 1.2694-1.828 1.1308-2.9945-0.13859-1.171-2.208-1.3051-0.60342-2.141 0.9878-0.514 0.67046-2.4672 0.59897-3.3344-0.11624-1.4437-1.7521-2.1677-2.3778-3.4103-0.67044-1.3319-0.5453-2.8651-1.037-4.2951-0.35312 0.2056-0.74194 0.32626-1.1844 0.24137 0.44248 0.0805 0.83132-0.0403 1.1844-0.24137-0.0583-0.16969-0.1208-0.33971-0.20126-0.50954-0.53187-1.1263 0.1386-1.3364-1.2515-1.6984-1.2336-0.32184-2.342-0.92522-3.5489-1.3096-1.4616-0.46481-1.5197 1.0235-2.7576 1.4839-1.4035 0.52296-3.0885 0.37993-4.568 0.38884-1.761 7e-3 -3.5621-0.0624-5.2518-0.56761-0.63018-0.18776-1.4749-0.82241-2.1454-0.80899-0.71067 0.0145-1.5286 0.87603-2.2392 1.0638-1.4973 0.40223-3.4282 0.42906-4.8719-0.11619-1.2202-0.46038-3.142-1.4303-4.4337-1.5331-1.0235-0.0803-3.4506 0.21451-4.4116 0.53634-1.9576 0.65701-2.8338-0.30394-4.3399-1.4705-1.0369-0.80006-2.1364-1.5912-3.2896-2.2526-2.0381-1.1665-2.3197 0.21452-4.0136 1.0906-2.342 1.2113-4.8138 1.1353-7.0886 2.6414-1.1755 0.77772 0.27711 1.9934 0.33522 2.9364 0.0805 1.2872 0.26816 2.7978-0.10722 4.0495-0.8537 2.8292-4.4518 4.8808-4.903 7.9694-0.14318 0.98776 0.54976 1.9308 0.30839 2.9186-0.11625 0.47821-0.46036 0.75532-0.88945 0.90732 0.4559 0.65253 0.96542 1.5554 0.76879 1.9621-0.89842 1.8459-0.46038 4.2238 0.88046 5.7746 1.0146 1.1711 3.9914 2.1096 3.9869 3.7142-0.01 2.2884-0.57211 4.541-0.295 6.8698 0.12081 1.019 1.2202 3.1958 0.733 4.2149-0.67934 1.4302-4.8271 0.0671-4.0271 2.2124 0.33074 0.8939-0.0984 4.0136 0.85366 4.5993 1.5733 0.97883 1.7968-2.1275 1.8772-2.6503 1.1353-0.19235 2.5431 1.3498 3.4595 1.828 0.91626 0.48272 1.2023 0.37094 1.247 1.4258 0.0403 1.0012 0.77323 1.7744 1.1889 2.6593 0.80451 1.7029 1.5777 3.4103 2.3242 5.1356 0.63023 1.4571 0.56318 1.0369 1.7566 0.98333-0.0535-0.19234-0.0217-0.46037 0.12966-0.92072 0.3933-1.1889 1.5241-1.542 2.7533-1.7744 1.4749-0.28158 3.3209-0.42015 4.2192-1.7208 0.42909-0.62121-0.33072-2.0515 0.86265-2.056 1.7386 0 5.7032 2.6371 6.32-0.11623 0.42014-1.8817-1.9934-5.3591-0.40224-6.7401 1.6492-1.4347 4.6215-2.3823 5.5557 0.21453 0.8403 2.3286-1.2425 7.0216 1.1308 8.671 1.7208 1.1934 4.398 0.52745 6.3602 1.5688 2.3018 1.2246 5.1488-0.0358 6.749-1.6806 1.4034-1.4436 2.4761-3.6159 4.8808-3.0348 1.6001-1.0682 3.3252-0.98332 5.426 1.1039 2.2928 2.284 4.5053 2.2035 6.9279-0.0537 1.0637-0.98778 1.7789-2.132 1.104-3.4997-0.86707-1.761-1.5062-3.142-1.8548-5.0594-0.35757 0.0313-0.63912 0.1208-0.78664 0.30388 0.14318-0.18342 0.42907-0.2726 0.78664-0.30388-0.0145-0.067-0.0267-0.13402-0.0403-0.20562-0.26818-1.6136-0.35758-3.4997-1.8191-4.6304z" fill="#e2b584" id="Moga" />
  <path d="m114.82 232.16c-0.32628-1.3275-2.1364-1.8146-2.7219-3.0037-0.64808-1.3185 0.71962-3.3433 0.47376-4.8406-0.29945-1.8102-4.3713-2.8694-2.9767-4.7155 0.48271-0.63911 1.4124-1.4213 1.4303-2.2571 0.0224-1.1799-3.2136-0.17883-3.9644-0.47828-3.5443-1.4347-3.7545-3.7723-1.609-6.3378 0.87604-1.0504 2.0337-1.9085 3.5489-1.8638 1.6314 0.0491 3.4684 0.80004 4.9746-0.1118 1.7253-1.0414 4.5456-5.6897 0.33968-5.1043-1.5331 0.21453-1.1353-0.514-0.54528-1.5107 0.47376-0.80452 1.1532-1.4884 1.5867-2.3152 0.53188-1.0146-0.23244-1.7342-0.54528-2.6593-0.95201-2.7935 3.4371-4.5723 3.6875-7.2407 0.0939-0.99671-0.57655-2.1499-0.71065-3.169-0.15197-1.1353 3.3744-0.95201 4.3221-1.9264 2.0515-2.1097 3.5578-5.1937 5.0238-7.6519 0.33967-0.56761-0.13401-0.82687-0.96543-0.93412-0.4693 0.0761-0.79559 0.14292-0.79559 0.14749 0-7e-3 0.33075-0.0713 0.79559-0.14749-1.7699-0.23238-5.1802 0.20559-5.9445-0.22804-2.7041-1.5419-1.7476-5.1399-1.4526-7.4506 0.21899-1.7431-1.3185-2.2928-2.6549-3.0483-1.323-0.74643-2.2169-2.4493-3.2628-3.5176-2.0604-2.1052 3.3925-4.1881 1.3364-6.293-2.3912-2.4493-6.1949-3.8304-8.0229-6.749-0.68384-1.0906-1.542-1.2291-2.6192-1.837-1.2336-0.70172-1.8102-2.4404-2.6684-3.4773-0.90732-1.0996-1.8772-2.3599-2.6147-3.5622-0.89839-1.4615 0.10723-2.4761-1.9443-3.2852-2.4269-0.96098-5.73-2.8427-8.4967-2.2392-0.46484 0.10294-1.1174 0.37992-1.5822 0.094-0.514-0.31735-0.14306-0.78222-0.42908-1.0057-0.37545-0.29497-1.9934-0.0802-2.9767 0.027 0.45591 2.7174-0.02687 5.5198-1.6314 7.8575-1.8146 2.6503-4.2327 4.6304-3.4727 8.0496 0.81347 3.674-2.3778 1.5465-4.7333 1.5778-0.12967 0.72853 1.0101 3.1912-0.03131 3.5846-1.2828 0.4827-2.1946 0.50059-3.084 1.7074-1.8191 2.4718-0.8805 5.2472-3.6024 7.214-2.6012 1.8817-5.6227 2.9767-8.3803 4.5901-0.71065 0.41566-1.3677 0.86262-1.9309 1.4347-0.43802 0.4425-0.98778 0.1697-1.3766 0.51401-1.2917 1.1442 3.1242 1.4884 3.5311 1.618 1.4169 0.45144 3.1555 1.2247 4.6574 1.2247 1.2336 0 3.0929-0.33969 3.9153 0.80006 0.70173 0.97434 0.70619 1.8772 0.13409 2.914-0.65256 1.1845-3.075-0.25925-4.0584-0.33524-3.9734-0.30391-1.4705 4.237-1.0012 5.6765 0.46485 1.4258-0.39331 2.4493-0.97884 3.7142-0.83581 1.8102-0.45142 3.8304-0.97436 5.6943-0.50505 1.8102-2.1007 1.6672-3.7321 2.056-1.1308 0.26817-3.0707 1.7297-1.9174 2.8918 2.7176 2.7443 5.7702 1.1085 9.1894 0.94755 3.0124-0.14317 3.2315 1.7744 2.7443 4.0584-0.64362 3.008-1.6448 5.9669 1.3319 8.233 0.9699 0.73749 2.3152 1.1621 2.847 2.2974 0.54528 1.1576 0.62573 2.0426 1.7387 2.9008 0.54081 0.42016 2.0515 1.3543 1.7655 2.1766-0.31289 0.885-2.8381-0.0401-3.4327-0.10262-1.4079-0.14751-1.8325 0.70172-1.542 1.8862 0.33522 1.3543 1.4884 1.3006 2.0158 2.2973 0.5855 1.1174-0.42908 3.1823 0.77769 4.0003 0.42462 0.29053 0.99225 0.2816 1.3677 0.65258 0.60788 0.60337 0.33073 1.5688 1.1844 2.0336 1.77 0.96096 4.1657 0.17427 5.8775 1.3006 1.6403 1.0772 1.1174 3.7143-0.8671 3.9645-0.91625 0.11624-2.1409 0.0893-2.9232 0.59887-0.94308 0.61236 0.33522 1.6985 0.58999 2.3287 0.47376 1.1666 0.37097 2.5342 1.0682 3.6202 0.24136 0.37546 0.77324 1.3364 1.2738 1.9934 1.1308 0.0848 2.2616 0.10724 3.3476 0.0714 0.79559-0.0267 1.5599-0.1697 2.3599-0.12511 0.7643 0.0403 1.6448 0.33523 2.3331-0.0984 0.59445-0.37546 0.70172-1.1889 1.2872-1.5465 0.64362-0.39335 1.3722-7e-3 1.8772 0.44248 0.97435 0.87155 0.21454 2.1543 1.4794 2.8068 1.314 0.68386 3.1331 1.0504 4.568 1.4794 1.6984 0.5095 2.9454 1.0101 4.407 1.9442 0.7911 0.50952 2.4493 2.1856 3.4192 1.2068 0.97883-0.99672-0.3084-2.6549 0.65255-3.8394 0.9967-1.2336 2.6282-1.9308 3.6875-3.151 1.0325-1.1889 2.2795-2.1856 3.1242-3.5041 0.11624-1.0325-0.12967-2.1901 0.55422-3.0616 0.58105-0.73301 2.8559-0.63913 2.5477-1.9041z" fill="#cc2" id="Sri Muktsar Sahib" />
  <path d="m76.829 235.85c-0.25477-0.63023-1.5331-1.7118-0.58999-2.3286 0.78216-0.50953 2.0068-0.48272 2.9232-0.59893 1.9845-0.25031 2.5028-2.8873 0.8671-3.9644-1.7074-1.1263-4.103-0.33968-5.8775-1.3006-0.85368-0.46486-0.57656-1.4303-1.1844-2.0336-0.37545-0.371-0.94307-0.36204-1.3677-0.65257-1.2068-0.81792-0.18771-2.8873-0.7777-4.0004-0.52293-0.9967-1.6806-0.9431-2.0158-2.2973-0.295-1.1844 0.13408-2.0381 1.542-1.8862 0.59892 0.0625 3.1242 0.98777 3.4327 0.10263 0.28605-0.82242-1.2247-1.761-1.7655-2.1767-1.1129-0.85818-1.1934-1.7431-1.7387-2.9008-0.53187-1.1308-1.8772-1.5554-2.847-2.2974-2.9724-2.2616-1.9755-5.225-1.3319-8.233 0.49165-2.284 0.27265-4.2014-2.7444-4.0584-3.4192 0.16078-6.4718 1.7967-9.1894-0.94756-1.1532-1.1666 0.78664-2.6236 1.9175-2.8918 1.6314-0.38889 3.2271-0.2414 3.7321-2.056 0.52293-1.8682 0.13409-3.8839 0.97436-5.6943 0.58551-1.2649 1.4437-2.2884 0.97884-3.7142-0.4693-1.4392-2.9724-5.9802 1.0012-5.6762 0.98778 0.0761 3.4057 1.5196 4.0584 0.33519 0.5721-1.0369 0.56765-1.9398-0.13409-2.914-0.82239-1.1397-2.6863-0.79555-3.9153-0.80001-1.5018 0-3.245-0.77324-4.6574-1.2247-0.40674-0.12967-4.8182-0.47378-3.5311-1.618 0.3844-0.34414 0.93861-0.0714 1.3766-0.51399 0.56762-0.57212 1.2202-1.0191 1.9309-1.4347 2.7533-1.6135 5.7791-2.7087 8.3803-4.5901 2.7219-1.9666 1.7789-4.7466 3.6024-7.214 0.88944-1.2068 1.8012-1.2247 3.084-1.7074 1.0414-0.39331-0.1028-2.8562 0.03131-3.5846 2.3554-0.0267 5.5468 2.0962 4.7333-1.5777-0.75537-3.4192 1.6582-5.3993 3.4727-8.0496 1.6001-2.3376 2.0873-5.1399 1.6314-7.8575-0.2637 0.0267-0.48719 0.0491-0.62127 0.0491 0.1341 0 0.35757-0.0217 0.62127-0.0491-0.1118-0.67487-0.28159-1.3408-0.50954-1.9979-0.58104-1.6716-0.67935-2.9364-0.5721-4.6974 0.08049-1.2559-0.25476-2.3108-0.31285-3.4951-0.1654-3.3879 3.9242-1.2738 5.0103-2.7487 0.82687-1.1263 1.0727-2.552 2.0247-3.6337 1.0638-1.2068 2.4718-1.3141 4.0314-1.542 1.9398-0.28602 2.6236-1.323 4.1924-2.123 1.3945-0.71515 3.6964-1.1174 5.2472-1.5822 1.7297-0.51846 3.2539 0.067 4.9211-0.53189 1.399-0.50058 2.5655-1.0146 4.112-0.84921 3.1018 0.33525 6.883-0.28604 9.1894 1.9219 2.5074 2.4046 5.5557 4.2281 8.4565 6.2038 2.4046 1.6404 5.5154 3.9958 8.5726 4.3802 0.61235 0.0761 1.4705 0.12967 2.123-0.10262-0.18317-0.26373-0.35754-0.4872-0.47375-0.62126 0.1118 0.13401 0.28607 0.35753 0.47375 0.62126 0.43357-0.1521 0.77325-0.42912 0.88946-0.90736 0.24137-0.98775-0.45589-1.9353-0.30839-2.9186 0.45141-3.084 4.0449-5.1399 4.903-7.9694 0.37992-1.2514 0.18775-2.7622 0.10722-4.0493-0.0581-0.94756-1.5107-2.1588-0.33521-2.9364 2.275-1.5063 4.7466-1.4303 7.0886-2.6414 1.694-0.87156 1.9711-2.2571 4.0136-1.0906 1.1487 0.65706 2.2526 1.4482 3.2896 2.2527 1.5062 1.1666 2.3823 2.1275 4.34 1.4705 0.95646-0.32178 3.3879-0.61676 4.4115-0.53633 1.2917 0.10294 3.2136 1.0727 4.4337 1.533 1.4437 0.54085 3.3746 0.5185 4.8719 0.1162 0.71068-0.19235 1.533-1.0504 2.2393-1.0638 0.67044-0.0145 1.5152 0.62126 2.1454 0.80898 1.685 0.50504 3.4908 0.57658 5.2517 0.56764 1.4795-7e-3 3.1645 0.13401 4.568-0.38884 1.2381-0.46038 1.2962-1.9487 2.7576-1.4839 1.2068 0.3844 2.3197 0.98776 3.5489 1.3096 1.3945 0.36203 0.72405 0.56762 1.2515 1.6984 0.0802 0.16969 0.14317 0.33969 0.20102 0.50952 0.34418-0.19668 0.64812-0.46932 0.93413-0.71066 0.8582-0.71513 1.6225-0.4827 2.5834-0.85816 0.70617-0.27261 1.3811-4.4918 1.8414-5.3142-1.2157 0.18776-3.7769 0.72404-4.398-0.69727-0.42015-0.96098 0.10724-2.342 0.0492-3.3611-0.0625-1.1531-0.63913-1.5778-1.4213-2.3823-1.4794-1.5197-0.0145-4.0406-0.60343-5.8507 0-0.0071-5e-3 -0.0071-5e-3 -0.01446-0.41118-0.05809-0.80004-0.16969-1.1531-0.37098 0.34863 0.20126 0.74196 0.31286 1.1531 0.37098-0.77309-2.3465-3.9911-3.2493-6.0473-4.3802-1.9219-1.0548-1.2023-3.9601-2.8516-5.0192-0.8805-0.56761-2.1677 0.21452-3.1199 0.17451-1.3498-0.05833-2.4537-1.323-3.3612-2.1096-4.3934-3.8215-9.3726-4.4248-15.156-5.2383-2.6684-0.37543-3.4235-3.075-4.5901-4.9254-0.50956-0.80903-1.3275-2.1678-2.3197-3.3074-0.0671-0.0071-0.13402-0.0071-0.19668-0.01928 0.0671 0.0071 0.12967 0.01446 0.19668 0.01928-0.93412-1.0771-2.0292-1.9666-3.169-2.0202-2.3152-0.11184-3.7499 1.4839-5.1267 2.8516-1.2649 1.2514-4.7779 0.95647-6.1144-0.14751-0.0267-0.02169-0.0491-0.04026-0.0759-0.06242-0.13859 0.0805-0.27712 0.16559-0.42909 0.24137 0.15185-0.07593 0.29055-0.15643 0.42909-0.24137-2.0962-1.7342-3.0215-2.9856-6.1412-2.6414-3.1734 0.35312-5.4976 2.1409-8.4116 3.1777-3.1377 1.113-6.4362 1.1085-9.5604 2.4047-2.4226 1.0057-4.3935 2.8873-6.9411 3.6337 0.28156 0.56764 0.40225 1.3006 0.34862 1.7521-0.0671 0.54529-0.13858 0.31286-0.67044 0.67938-0.73303 0.50056-1.39 0.55867-2.199 0.93413-0.85816 0.3978-1.6001 0.97886-2.4718 1.3498-0.6749 0.28599-1.3364 0.27707-1.9174 0.72402-0.58549 0.45589-0.60339 0.96992-1.256 1.3096-0.74193 0.38884-1.3409 0.06267-2.1096 0.24581-0.72853 0.17885-1.3096 0.74643-1.7968 1.2291-0.4827 0.47378-0.82239 0.60786-1.5107 0.85815-0.78217 0.28158-1.3542 0.71066-1.542 1.5018-0.23244 0.98327 0.86263 3.3655-0.30394 3.7456-1.5867 0.52292-2.5164-3.1107-3.9109-1.7431-0.51398 0.5006-0.98777 0.99672-1.4973 1.5286-0.53633 0.55872-0.91628 1.1889-1.4392 1.7744-0.21454 0.24137-0.55422 0.47378-0.73747 0.72409-0.26817 0.37095-0.31286 0.79561-0.6883 1.1084-0.33075 0.27266-0.8224 0.36652-1.1934 0.59444-0.68384 0.42463-1.3454 1.0057-1.9577 1.5152-0.6168 0.51398-1.2426 1.1889-1.9577 1.5733-1.3051 0.69724-2.6147 0.3844-4.0314 0.54081-1.171 0.13402-3.3074 0.19234-4.2238 0.9207-1.1084 0.88501 0.0091 2.9276-1.2917 3.6829-0.59445 0.3441-1.2023 0.25026-1.8593 0.40221-0.68385 0.16101-1.3319 0.4112-2.0158 0.57212-0.94756 0.22344-3.1288 0.62572-3.7275 1.3945-0.3978 0.514 0.29051 1.1218-0.01788 1.6538-0.29945 0.51844-1.2917 0.5095-0.91178 1.3676 0.13854 0.31734 0.68384 0.6928 0.89837 1.028 0.33074 0.51847 0.6168 0.91626 0.72408 1.5152 0.13854 0.77768 0.12511 1.3051-0.71065 1.6537-0.64362 0.26818-1.9219 0.3084-2.5968 0.20994-0.85367-0.1251-1.4437-0.61678-2.342-0.63467-0.9565-0.0192-1.2872 0.0314-1.9979 0.62575 0.44248 1.1263 1.2872 2.3107 0.39331 3.5176-0.35311 0.47375-0.93413 1.0191-1.4481 1.39-0.42014 0.30837-1.1129 0.81791-1.694 0.83132-0.59445 0.77772-0.19666 1.1666 0.36651 1.9174 0.48719 0.6481 0.85368 1.1174 0.64362 1.9889-0.02682 0.12081-0.26817 0.57656-0.35311 0.66151-0.12068 0.1208-0.51848 0.23693-0.5855 0.34866-0.21903 0.3486 0.04023 0.96538 0.16986 1.3185 0.2816 0.75982 0.57211 1.3543 0.62573 2.1721 0.1162 1.8639-3.7545 0.75541-3.6964 2.9186 0.03129 1.2336 1.5777 1.4705 1.8549 2.5655 0.37991 1.5107 0.16986 2.4939-0.46036 3.9063-0.42908 0.96988-1.1978 2.552-2.5342 2.132-1.39-0.43802-2.0917-1.2917-3.6875-1.0056-0.84476 0.15208-2.4046 1.2738-2.6058 2.056-0.14305 0.54079 0.16986 1.0414-0.09834 1.6001-0.21454 0.44696-0.65702 0.95647-0.9699 1.3543-0.91627 1.1666-1.8504 1.2783-3.2896 1.3007-1.4079 0.0217-2.7622 0.51839-3.9555 1.1799-1.399 0.77324-2.2839 1.5867-3.9734 0.9118 0.05366 0.36202-0.19666 0.47374-0.26817 0.75979-0.076 0.29949 0.0046 0.67045-0.1788 0.90288-0.24582 0.30391-1.3856 0.69277-1.7878 0.87155-0.59893 0.25923-1.247 0.35754-1.3051 1.1084-0.03574 0.45589 0.22795 0.94309 0.36651 1.3722 0.18774 0.58103 0.18774 1.0414 0.19666 1.6314 0.02242 1.5375 2.1946 3.2628 0.95648 4.8762-0.43802 0.57214-1.1576 1.0682-1.6627 1.6582-0.48271 0.56315-1.1397 1.0548-1.6716 1.5554-0.33074 0.31289-0.99224 0.76875-0.9699 1.2425-0.88496 0.18775-1.1084-0.86262-1.8593-0.58104-0.49613 0.18776-0.88496 1.0548-1.1398 1.3721-0.53188 0.65703-1.0727 1.2828-1.5196 1.9979-0.35308 0.56767-0.9565 0.89392-1.2604 1.5152-0.29051 0.59889-0.37991 1.2917-0.7643 1.8862-0.33522 0.51843-0.88944 1.0458-1.0504 1.6582-0.03574 0.12967 0.08048 0.32628 0.04023 0.45143-0.04471 0.13402-0.26371 0.19234-0.28605 0.26815-0.07152 0.23694-0.0046 0.53634-0.16092 0.74641-0.25028 0.33523-0.76876 0.37097-1.18 0.29054-0.42014-0.0802-0.64362-0.39332-1.0459-0.44246 0.13409 0.5676-1.1353 1.3676-1.6001 1.7297-0.62128 0.48267-1.2515 0.9341-1.8236 1.5018-1.4258 1.4213-3.0526 2.3912-4.635 3.6516-0.71959 0.57658-1.4794 1.1442-2.1901 1.7386-0.6749 0.56318-1.1844 1.2515-1.9174 1.7476-0.36205 0.24582-0.91179 0.42012-1.1487 0.7911-0.098336 0.15209 0.035742 0.33969-0.053661 0.46928-0.15643 0.21911-0.40673 0.27715-0.62127 0.43806-0.026799 0.0194-0.14305 0.27263-0.23689 0.35307-0.15197 0.12512-0.42908 0.16077-0.60339 0.26373-0.54978 0.3218-1.2649 0.81788-1.8057 1.2068 0.21454 0.34412 0.84922 0.45589 1.1934 0.69723 0.72407 0.50952 1.4303 0.91179 2.0203 1.5554 0.90284 0.98778 1.761 1.9532 2.5701 3.008 0.57656 0.75089 1.0727 1.5465 1.5197 2.3644 0.42459 0.77324 0.71065 1.7565 1.2917 2.4358 1.1844 1.3811 2.5163 2.5566 3.084 4.3132 0.63022 1.9443 0.54976 3.9242 0.88944 5.9088 0.33074 1.9398 0.45142 3.7545 0.49611 5.7254 0.04917 2.199 0.31734 4.599-0.01325 6.7758-0.16091 1.0727-0.56762 2.1364-1.2917 2.9991-0.54082 0.64363-1.1532 1.1129-1.4705 1.8951-0.35308 0.86263-0.46482 1.7878-0.89839 2.6282-0.42908 0.83135-1.095 1.533-1.6895 2.2705-0.6615 0.82244-1.1934 1.7253-1.8415 2.552-0.49613 0.63463-1.1487 1.028-1.8147 1.5018-1.3364 0.9565-2.4448 2.1364-3.1377 3.5622-0.84027 1.7208-0.92521 3.6964-0.38439 5.493 0.19666 0.65256 0.37096 2.2303 1.2515 2.4046 0.50505 0.0984 1.0459-0.24582 1.6359-0.15642 0.63916 0.094 1.247 0.31734 1.8906 0.3844 0.31734 0.031 0.70173 0.14317 1.0056 0.15643 0.50059 0.0217 0.61679-0.17451 1.0593-0.29054 0.76876-0.19669 1.8459-0.0217 2.6549-0.0313 0.88944-0.0145 1.1844-0.61236 2.0426-0.6526 2.3197-0.10262 4.6439 0.7375 6.9411 0.93417 1.0772 0.0941 2.1186 0.0313 3.1958 0.0941 1.4079 0.0802 2.7935 0.40218 4.197 0.44244 3.3611 0.0984 6.6953-0.20128 10.052 0.1251 2.5923 0.25477 5.1399 0.0358 7.7235 0.41569 1.2783 0.18777 2.5923 0.25923 3.875 0.3486 0.5855 0.0401 1.1084 0.29501 1.694 0.36649 0.85367 0.10294 1.7968 0.1118 2.6595 0.094 1.4526-0.0267 2.78 0.12081 4.2192 0.31286 1.4973 0.20127 2.9945 0.0848 4.5053 0.29051 1.6225 0.2191 3.2539 0.34416 4.8852 0.4425 1.3766 0.0851 2.8559 7e-3 4.1611 0.45146 1.6716 0.57208 3.5489 0.89838 5.4125 1.0414-0.50059-0.6615-1.0369-1.618-1.2738-1.9934-0.69279-1.0995-0.58999-2.4672-1.0638-3.6292z"  fill="#a2b0a2" id="Firozpur" />
 </g>
 <g fill="none" stroke="#000">
  <path d="m565.44 77.463-2.2729-5.0832-2.6663 4.5896h-2.71l-5.4201 5.626-4.065 3.0597-4.9829 0.98702-2.7101 2.5663-3.628 1.0364-6.7751-0.54286-6.7751 6.1195-3.5842 2.5663-5.4201 2.0234h-10.84l-3.1472-0.98703-4.5459 2.5169-6.775 4.5896v4.0962l-36.105-27.538-13.113-6.613-11.714-6.1195-10.84-11.252-4.065 4.5896-20.325-9.1793-4.983-5.5767-5.4201-5.626-3.1471-4.0961-7.2122-4.5403-11.321 4.5403-9.4851 4.0961-7.6493 4.5896-15.823 4.5896-12.632 3.5533-17.178 0.54286-6.7751-5.626-4.9392-2.5663h-9.4851l-20.325-16.286-18.052-10.216-15.342-1.5299-14.031-5.5767-22.554-2.0727-7.693 2.0727-8.5672 2.5169-13.55 4.0961-7.693 1.5299-14.424 2.0234" stroke-width=".5px"/>
  <path d="m276.9 48.395-9.2974 3.8739-13.171 5.8109-7.3604 2.7117-13.171 2.7117-7.7478 1.5496h-22.081l-6.5856-0.38739-8.1352-0.38739-6.973-0.38739-14.334-0.77478" stroke-width=".5px"/>
  <path d="m168.01 63.16-3.2824 2.553-1.4588 2.1883h-2.553l-4.7412 4.0118-2.1882 4.3765-2.1883 6.5648-0.72942 4.0118-1.2252 2.3129-3.2584 2.3698-11.553 5.6282-7.1093 2.9622-12.737 4.4433-6.8131 2.3698-1.4811 0.29623-5.0358 2.666-5.6282 3.5546-7.7017 4.7395-8.8866 1.7773-6.8131 1.4811-14.515 6.2206" stroke-width=".5px"/>
  <path d="m168.05 63.116-5.187-2.0937-3.5272-1.5703-4.9796-2.6172-4.3571-3.1406-2.9047-2.6172-5.602-5.7579-6.8469-20.414" stroke-width=".5px"/>
  <path d="m134.67 24.953v9.6586l-8.5368 19.65-3.6586 9.3255-6.0977 7.6603-17.074 18.318-9.7563 8.6594-9.7563 9.9916-1.2195 4.6628 9.7563 5.3289" stroke-width=".5px"/>
 </g>
 <g fill-rule="evenodd" stroke-width=".28222">
  <circle cx="58.922" cy="127.42" r="2.5198"/>
  <circle cx="134.83" cy="25.366" r="2.5198"/>
  <circle cx="168.22" cy="63.164" r="2.5198"/>
  <circle cx="565.73" cy="77.338" r="2.5198"/>
 </g>
 <g fill="#000000" font-family="sans-serif" font-size="3.5278px" letter-spacing="0px" stroke-width=".26458" word-spacing="0px">
  <text x="122.54852" y="19.06683" style="line-height:1.25" xml:space="preserve"><tspan x="122.54852" y="19.06683" font-size="5.6445px" stroke-width=".26458">Firozpur</tspan></text>
  <text x="60.497299" y="133.71985" style="line-height:1.25" xml:space="preserve"><tspan x="60.497299" y="133.71985" font-size="5.6445px" stroke-width=".26458">Sri Muktsar Sahib</tspan></text>
  <text x="170.74059" y="59.384377" style="line-height:1.25" xml:space="preserve"><tspan x="170.74059" y="59.384377" font-size="5.6445px" stroke-width=".26458">Moga</tspan></text>
  <text x="528.55878" y="74.188469" style="line-height:1.25" xml:space="preserve"><tspan x="528.55878" y="74.188469" font-size="5.6445px" stroke-width=".26458">Chandigarh</tspan></text>
 </g>
</svg>
