<svg width="208.54mm" height="188.23mm" version="1.1" viewBox="0 0 208.5442 188.22597" xmlns="http://www.w3.org/2000/svg" xmlns:cc="http://creativecommons.org/ns#" xmlns:dc="http://purl.org/dc/elements/1.1/" xmlns:rdf="http://www.w3.org/1999/02/22-rdf-syntax-ns#">
 <metadata>
  <rdf:RDF>
   <cc:Work rdf:about="">
    <dc:format>image/svg+xml</dc:format>
    <dc:type rdf:resource="http://purl.org/dc/dcmitype/StillImage"/>
    <dc:title/>
   </cc:Work>
  </rdf:RDF>
 </metadata>
 <g fill="none" stroke="#000">
  <g transform="translate(-.51287 -49.591)" stroke="#fff" stroke-width=".5">
   <path fill="#cc2" id="Sawai Madhopur" d="m130.54 216.87-1.995 2.1852-3.5008 4.6676-3.209 2.9172-3.209 2.0421h-5.2511l-2.6256 2.0421-2.3338 3.7925-1.7232 2.9446h-4.3052l-2.6908 0.35873-3.5876-0.71748-2.6908-1.6145-2.332-1.9732-2.1526-0.71757-1.2557 1.2557-0.84621 0.10168-0.78999-1.185-1.185-2.1725 0.39499-3.3576 0.39502-2.37 1.185-1.7775 0.79004-2.7651-0.98752-1.975-1.3825-0.19733-1.3825 1.185-1.3826 0.79004-1.185 1.3825-2.5676-0.59249-0.39505-2.3701 0.39505-3.16-0.59254-1.58-1.7775-1.1851-2.5675-0.59246-0.79001-1.5801v-2.9626l0.59247-1.975 3.16-0.39502 2.9627-0.78999 2.1726-1.185 0.39499-1.7775v-2.9626l0.19734-2.9627-0.395-1.7776 0.19734-1.975 1.3825-1.3826-0.79002-2.37-2.1726-1.1851 2.3701-1.3825 1.7776-0.19734 1.975 0.59254 1.58 1.975 1.7776 1.58 1.58 1.3825 2.5676 1.975 2.5675 0.5925 2.9627-1.975 1.7776-3.7526 0.19734-2.3701-1.7776-2.1725-1.3825-1.3825 0.98752-3.7526 1.58-3.16 0.68313 0.71935 1.2539 1.3263 2.2179 2.033 3.8811 1.1089 2.2178 1.109 2.7723 0.73929 3.3267 0.55446 2.2178-1.6634 1.4786-2.2179 1.8482-2.2178 2.5875-1.1089 2.4026-0.92412 2.2179-0.55446 2.4027 0.36966v1.6634l-0.92412 3.5115-1.2938 2.5875-2.033 2.9571-2.4027 2.4026-2.7723 4.251-2.9571 3.5115-3.6963 2.7723-3.3267 3.6963-1.8482 2.4027-0.1848 3.8811 1.6634 0.73926 2.5875 0.73928 4.0659 0.36963 1.8482 0.36966 3.3267 0.73926 2.033 1.2938 1.8482 2.2179z"/>
   <path fill="#abacda" id="Karauli" d="m158.11 198.42 0.32284-2.6328-1.109-2.4026-3.1419-1.4786-2.4026-0.92409-2.4027-1.109-0.1848-2.9571 0.36969-3.5115 2.033-1.8482 2.2179-0.1848h2.2178l2.2178-0.92407 0.55446-2.4027-1.6634-2.9571 0.87153-1.5963-0.87153-1.5456-0.55446-2.5875 1.1089-2.4027-0.92409-2.033-1.1089 0.73926-3.1419 0.73935h-1.4786l-0.92409-1.2938-2.2178 0.55446-1.6634 0.36967-1.1089-1.4786-2.5875-1.8482h-3.3267l-2.4027 1.2937-1.8482 0.92411-2.7723 0.36964-2.0331-0.55448-4.0659-1.8482c-1.9948-0.63782-3.639-1.8099-5.3598-2.9571l-1.8482-0.1848-0.36963 1.4786-2.4027 1.1089-2.033 1.6634-3.3267 2.033-3.1419 2.4027-2.7723 1.4786-1.2937 2.5875-2.2178 2.2178 1.8482 2.2178 2.2179 2.033 3.8811 1.1089 2.2178 1.1089 2.7724 0.73929 3.3267 0.55449 2.2179-1.6634 1.4786-2.2178 1.8482-2.2178 2.5875-1.1089 2.4027-0.92411 2.2179-0.55448 2.4027 0.36965v1.6634l-0.92412 3.5115-1.2938 2.5874-2.033 2.9571-2.4027 2.4027-2.7724 4.251-2.9571 3.5115-3.6966 2.7723-3.3267 3.6963-1.8482 2.4026-0.1848 3.8812 1.6634 0.73929 2.5874 0.73926 4.0662 0.36966 1.8483 0.36963 3.3267 0.73927 2.033 1.2937 1.8482 2.2178 1.8482 2.5875 2.6727-2.7741 3.7925-3.209 5.5429-2.3338 4.3758-2.9172 6.4179-2.6255 2.9172-3.7925z"/>
   <path fill="#e2b584" id="Dholpur" d="m164.09 172.62-3.4264 0.26729-2.5875 0.1848-0.92409 2.0331 1.6634 2.9571-0.55447 2.4027-2.2178 0.92406h-2.2178l-2.2179 0.1848-2.033 1.8482-0.36968 3.5115 0.1848 2.9571 2.4027 1.109 2.4027 0.92412 3.1419 1.4786 1.1089 2.4026 0.3642 2.4725 4.1566 0.0698 0.87522-2.0421-2.0421-1.1669 3.209-1.4586h4.6676l3.2089-3.209 2.9172-2.3339 6.7097-2.042 5.8347-3.5007 1.7504-3.5008 3.5008-1.7503 3.5007-0.29201 2.9172-0.29168 3.5008-4.9593 4.3758-4.0843 0.87521-4.0843 0.29197-2.3338-4.6676-1.1669-4.9593 1.4586-2.0421 2.9172-3.5007-1.7504-4.3758-0.58343-4.6675-0.29202h-6.7097l-3.209 3.5008-3.5007 1.1669-3.7925 1.4587-2.3338 2.6255-1.2104 1.9868z"/>
   <path fill="#f9d3c6" id="Bharatpur" d="m163.8 172.62-3.1273 0.25914-2.12 0.31898-1.3916-1.243-0.55446-2.5875 1.1089-2.4027-0.9241-2.033-1.1089 0.73926-3.1419 0.73933h-1.4786l-0.92412-1.2938-4.9902-0.55446-2.5875-1.8482h-3.3267l-1.0546 0.24282-1.0002-2.5005-1.1669-3.0006-0.16672-2.3338-2.0004-2.5005 0.16672-2.8339v-2.1672l0.16674-1.3336-0.66683-1.1669-1.0002-1.1669v-0.83351l0.83347-0.83349h3.1673l1.5003-0.16673 2.3339 1.0002 2.0004-0.66682-0.50011-1.3336-1.667-1.1669-1.667-1.667 0.16673-1.8337 1.8337-1.5004 2.1672-0.83351 2.0004-1.667-0.16673-2.0004 0.16673-1.3336-2.6672-0.66681-2.8339-0.50008-1.667-2.1671-1.5003-1.3336-2.3338-0.83351-2.0004-0.66681-1.0002-0.50007-1.3336-2.1672-0.33341-2.1671 1.5003-0.50012 1.8337 2.1671 1.667 0.83354 1.667 0.66675 2.0004 0.50014 2.3338 0.66682 0.5001-1.3336-2.0004-1.3336-0.83351-1.3336 0.33339-1.8337-0.16672-1.8337-1.1669-1.0002 0.62512-2.0838 2.6256-2.6255 0.5834-2.0421-0.5834-2.3338 3.209 0.29168 3.5007 1.1669v-1.4586l2.9172 0.87514 2.6256 0.58346h2.6255l1.167 1.4586 1.1669 3.5008 0.87521 2.9172-1.7504 1.7504 0.58348 2.6255 1.4586 2.6256 0.87516 1.4586 1.4586 2.9172 2.0421 2.9172 1.4586 3.7925 4.3758 2.0421 3.5008 1.1669 1.4586 3.5007 0.292 1.7504 1.4586 1.4586 0.29168 2.9172-2.3338 2.0421-2.6255 2.9172 0.58344 2.6255 2.6256 2.0421 3.7925 2.6255-1.7504 2.9172-5.2511 2.0421-6.4179 1.4586-1.7504 4.3758z"/>
   <path fill="#a2c0a2" id="Alwar" d="m136.66 113.77-1.4169 0.54183-2.0421 0.29196-1.7504-2.9172 0.58341-4.0843 1.167-4.3758 0.58347-5.2511v-4.6676l-0.292-3.7925 2.9172-3.5008-1.7503-4.084-1.7504-3.2089-2.6255-1.4587-3.209-0.29172-0.87519 3.7925-2.0421 1.4586-2.9172 0.29169-2.3338 2.9172v2.9172l-3.5007 3.209-1.7503-1.1669-2.0421-1.1669-3.209-0.58342-0.29201-2.3338 0.29201-3.209-3.5007-2.9172h-4.0843l-1.1669 1.7504 2.6256 2.9172 0.58343 2.9172-1.4586 0.29169-3.5007-0.58344-4.3758-2.0421-3.5007 1.1669-1.4586 2.3338 1.7504 2.9172-0.87522 2.3338 2.0421 2.6255 2.9172 1.7504-1.7503 2.6255-1.2575 1.5166-0.74291 1.234-0.50007 1.3336-0.5001 2.0004 0.16673 2.1671-2.0004 1.5003-1.1669 1.8337v1.667l0.16672 2.1671 0.83348 3.0006-0.3334 3.0005-1.1669 2.6672-2.3338 1.8337-1.5003 2.8339-1.3336 2.5005-0.83351 2.6672 1.667 1.667 1.0002 1.5004 0.33343 0.33335 0.33334 1.5004 1.667 1.1669h1.3336l1.0002-0.50012 0.16673-1.5003 1.5003-1.3336 0.83357 0.83349 0.33337 2.3338 1.1669 3.0006 0.37324 2.6165 2.294 0.88421 2.5005-0.16673 0.83351-2.3338 1.667-0.33341 1.667 0.33341 2.0004 1.3336 1.8337 0.83351 1.1669-1.8337 2.1671-1.8337 1.8337-2.0004 1.8337-2.0005 1.1669 0.16673v4.8343l1.0002 2.1671 2.1671 1.1669 2.0004-0.83351 1.0002-1.1669 2.1671-0.50009 2.0004-0.66684 1.3336-1.3336 1.0002-2.3338 0.33343-2.1671 0.83351-0.33343 1.1669 2.834 1.5003 0.8335 1.0002 0.50005 2.1672 0.16674 0.83346-0.66679h3.1673l1.5003-0.16673 2.3339 1.0002 2.0004-0.66682-0.50009-1.3336-1.667-1.1669-1.667-1.667 0.16674-1.8337 1.8337-1.5004 2.1671-0.83348 2.0004-1.667-0.16673-2.0004 0.16673-1.3336-2.6672-0.66681-2.8339-0.50009-1.667-2.1671-1.5003-1.3336-2.3338-0.83351-2.0004-0.66681-1.0002-0.50008-1.3337-2.1671-0.33335-2.1671 1.5003-0.50007 1.8337 2.1671 1.667 0.8335 1.667 0.66679 2.0004 0.50011 2.3338 0.66681 0.5001-1.3336-2.0004-1.3336-0.83353-1.3336 0.3334-1.8337-0.16673-1.8337z"/>
   <path fill="#f2c0f2" id="Dausa" d="m132.55 143.09-2.2015-0.31899-1.0002-0.50013s-1.12-0.40611-1.5003-0.8335c-0.67911-0.76319-1.1669-2.8339-1.1669-2.8339l-0.8335 0.33338s-0.13236 1.4645-0.33342 2.1671c-0.2329 0.81371-1.0002 2.3338-1.0002 2.3338l-1.3336 1.3336-2.0004 0.6668-2.1671 0.50009-1.0002 1.1669-2.0004 0.83344-2.1671-1.1669-1.0003-2.1671v-4.8343l-1.1669-0.16673-1.8337 2.0004-1.8337 2.0004-2.1671 1.8338-1.1669 1.8337-1.8337-0.8335-2.0004-1.3336-1.667-0.33343-1.667 0.33343-0.83351 2.3338-2.5005 0.16673-2.5005-1.0002-1.667 1.1669-0.66682 2.0004-1.0002 1.6671-0.66684 2.5005-0.83346 3.1673 0.33339 3.1673 1.0002 1.8337 1.8337 1.8337 0.66681 1.5003 0.50007 2.8339-0.66674 3.5007-1.8337 2.8339-2.0004 2.3338-2.1671 1.8337-2.1672 2.3338v2.5006l0.66682 2.0003 1.8627-0.26088 1.975 0.59254 1.5801 1.975 1.7775 1.58 1.58 1.3825 2.5676 1.9751 2.5675 0.59252 2.9627-1.975 1.7775-3.7526 0.19732-2.3701-1.7776-2.1726-1.3825-1.3825 0.98749-3.7526 1.5801-3.16 0.80629-0.96942 1.5004-1.4206s0.62089-1.8967 1.2937-2.5874c0.73076-0.75025 2.7723-1.4786 2.7723-1.4786 1.9951-1.7242 4.4372-2.7736 6.4686-4.4356l2.033-1.6633 2.4027-1.1089 0.36962-1.4786 1.8482 0.18481 2.7723 1.8482s1.729 0.72996 2.5875 1.109c1.362 0.6013 4.0662 1.8482 4.0662 1.8482l2.033 0.55446 2.7723-0.36963 1.8482-0.92412 1.3481-1.0509-1.0002-2.5005-1.1669-3.0006-0.16674-2.3338-2.0004-2.5005 0.16674-2.8339v-2.1671l0.16673-1.3336-0.66684-1.1669-1.0002-1.1669 0.0343-0.84797z"/>
   <path fill="#e2b584" id="Jaipur" d="m82.326 183.64 0.75201 1.9369-1.8546 1.4813-2.8856-1.0862-1.3825 0.19735-2.1725 0.79003-3.555 0.79005-2.3701-1.185-3.16-1.58-1.7775 0.39499-2.3701 1.9751-1.3825 2.1725-1.58 2.1726-1.3825 0.79004-2.37-0.98755-0.5925-1.5801-2.1726 0.19732-0.39502 1.58-2.3701-0.98751-1.58-2.765-1.58-0.39504h-5.5301l-1.3825-1.185-0.9875-0.98756-3.3576-0.98753-2.3701 0.59257-1.975 1.58-0.83714 2.0693-0.15012 1.2883-1.3825-0.98753-1.58-2.1725-1.975-1.7775-1.3826-1.3825s-1.3825-2.7651-1.3825-3.555c0-0.79001 0.39499-1.7776 0.39499-1.7776l-2.1726-1.7775-1.3825-0.39499-1.185-1.185 0.79001-1.185 0.98752-0.79006 0.98752-1.7776-0.39502-0.78996-1.975-0.39503-1.9751-0.19733-1.7775-1.7775v-2.37l-0.5925-2.9626 0.79001-1.975 0.98752-1.975 2.5676-0.39503 1.58 1.185 0.98755 0.98753h2.765l1.7776-0.39504 3.5549-0.59249v-1.9751l-0.58527-0.89689 1.5003-1.5004-0.16673-2.0003 1.667-1.5004 1.5003-0.66682 0.83353-1.667 0.16673-2.6672 1.667-1.0002 1.8337 0.16673 1.3336-1.8337 1.0002-3.0006 0.83353-1.3336h2.5005l0.66677-1.3336-1.0002-1.1669v-1.1669s0.66683-0.66683 1.3336-0.66683c0.6668 0 3.1673-0.16672 3.1673-0.16672h1.8337l0.3334-1.6671 2.0004-0.8335 1.667 1.0002 2.1671 0.50015 2.6672-1.667 1.8337-2.3338 2.5005-3.0005 2.6672-2.0004 3.334-0.83347 2.5005-1.1669 1.5003-0.66678 1.667-1.3336 1.1669-2.8339 0.50007-2.5005-1.1669-2.6672-1.8337-1.667 1.5003-3.0006 1.3336-2.6672 2.1671-1.8337 2.2704-2.9382 4.1892-0.1041 3.7925 0.87518 2.9953 1.9143-0.24426 1.5864-0.50013 2.0004 0.16673 2.1671-2.0004 1.5003-1.1669 1.8337v1.667l0.16673 2.1672 0.83351 3.0006-0.3334 3.0005-1.1669 2.6672-2.3338 1.8337-1.5003 2.8339-1.3336 2.5005-0.83349 2.6673 1.667 1.667 1.0002 1.5003 0.33342 0.3334 0.33334 1.5003 1.667 1.1669h1.3336l1.0002-0.50012 0.16672-1.5003 1.5003-1.3336 0.83352 0.83346 0.3334 2.3338 1.1669 3.0006-0.09622 2.6201-1.4043 1.0473-0.66682 2.0005-1.0002 1.667-0.66684 2.5005-0.83354 3.1673 0.33345 3.1673 1.0002 1.8337 1.8337 1.8337 0.66678 1.5003 0.5001 2.8339-0.6668 3.5007-1.8337 2.8339-2.0004 2.3338-2.1671 1.8337-2.1671 2.3338z"/>
   <path fill="#88f" id="Sikar" d="m78.508 102.2 0.73568-1.2955-2.0421-3.5007 1.7504-3.209 0.14114-1.4387-1.6-0.64501h-2.6672l-2.5005 0.6668h-3.0005l-3.6675 1.1669-2.3338 0.33343-1.667 2.3338-0.8335 2.0004-0.50007 1.8337-1.1669 2.3339v3.0005l-0.8335 1.667-1.667-1.3336-0.8335-1.167h-1.5004l-1.8337 0.33344v1.1669l-0.6668 1.0002-1.5003-0.66681-1.5003-1.0002s-1.0002-0.5001-1.667 0c-0.66677 0.50008-0.83347 0.6668-0.83347 0.6668l-1.1669 0.33339h-2.6673l-2.0004-1.8337-0.83353-1.1669-1.667-1.667-0.8335-3.334-0.66683-2.6672-1.5003-1.5003-2.0004-2.1671-0.5001-1.0002-1.8337-2.0004-1.1669-2.0004-0.5001-2.0004-1.0002-1.3336-1.5003-2.6672-0.33337-3.0006-1.5004-2.3338-2.0004-1.667-0.94225-1.7032-0.64506-0.70303-1.9569 0.19588-2.3483 0.19588-2.544 0.39137-1.7612 1.3698-1.7612 1.7612-0.97846 1.9569-2.7397 0.97851-0.19588 2.1526-0.39144 3.1311v2.9353l0.19588 2.1526 1.7612 1.3698 0.97846 1.7613-2.544 0.97842-1.1742-0.39135-2.1526 1.7613 1.5655 1.5655 0.58708 3.1311-1.5655 1.7612-1.957 1.5656-0.39138 2.3483 0.39138 2.9352-0.19588 3.3267-0.58711 2.1526h1.9569l1.1742 1.1742-0.97846 1.5655-2.544 0.58705-0.39141 2.1527 1.3699 0.97848 2.3483 0.39134 1.9569 0.39137 0.19588 0.97849 1.957 0.97844 1.7612 1.1742 0.39143 2.1526 0.58702 1.957 0.19588 2.544 1.1741 0.58707 1.5655 0.78275 1.1742-0.19587 0.97846-0.97846 0.97846-0.3914 1.9569 0.9785h1.3699l0.97846-0.9785 0.58708-1.3698 0.97846 0.19588 2.9353-0.58707 1.7613 0.58707 0.58705 0.97845v2.1526l-2.1526 2.9352-1.7613 2.1527-0.39138 2.1526 1.9569 0.97845 1.7613 0.97846 1.1741 1.5656 1.7612 1.3699 1.9569 0.19589 2.2867 1.0799 2.0911 0.0726 1.3336-1.8337 1.0002-3.0005 0.83347-1.3336h2.5005l0.6668-1.3336-1.0002-1.1669v-1.1669s0.66683-0.66678 1.3336-0.66678c0.66683 0 3.1673-0.16673 3.1673-0.16673h1.8337l0.33343-1.667 2.0004-0.83352 1.667 1.0002 2.1672 0.50008 2.6672-1.667 1.8337-2.3338 2.5005-3.0006 2.6672-2.0004 3.334-0.8335 2.5005-1.1669 1.5003-0.66683 1.667-1.3336 1.1669-2.8339 0.50007-2.5005-1.1669-2.6672-1.8337-1.667 1.5003-3.0005 1.3336-2.6672 2.1671-1.8337 1.3481-1.7467z"/>
   <path fill="#ccc0c2" id="Jhunjhunu" d="m79.236 91.266-1.7504 0.83352h-2.6672l-2.5005 0.66681h-3.0005l-3.6675 1.1669-2.3338 0.33343-1.667 2.3338-0.83353 2.0004-0.50007 1.8337-1.1669 2.3338v3.0005l-0.8335 1.667-1.667-1.3336-0.83353-1.1669h-1.5003l-1.8337 0.33342v1.1669l-0.6668 1.0002-1.5003-0.66681-1.5003-1.0002s-1.0002-0.5001-1.667 0c-0.6668 0.50007-0.8335 0.6668-0.8335 0.6668l-1.1669 0.33339h-2.6672l-2.0004-1.8337-0.8335-1.1669-1.667-1.667-0.83347-3.334-0.66683-2.6672-1.5003-1.5003-2.0004-2.1671-0.5001-1.0002-1.8337-2.0004-1.1669-2.0004-0.5001-2.0004-1.0002-1.3336-1.5003-2.6672-0.33337-3.0006-1.5004-2.3338-2.0003-1.667-1.5004-2.5005v-2.0004l1.8337-1.6671 2.3338-0.83346 1.5003 0.66678 2.0004-1.0002-0.83347-3.1673-0.6668-3.334 0.5001-1.667 1.8337-0.6668 1.3336 1.0002s0 1.0002 0.6668 1.0002 1.3336-1.3336 1.3336-1.3336l0.66683-2.8339 0.6668-1.167h2.5005l1.667 0.83352-0.5001 2.5005 0.5001 2.1671 1.667 1.667 1.5003 0.16672 1.667-1.1669 1.1669-1.1669 2.5005-0.83349 0.16673 2.0004-0.50007 1.5003 2.8339 0.50016 0.83351-2.0005 1.667-2.1671 1.8337-1.3336 1.5003-2.1671 0.6668-2.6672v-3.1673l1.2503 0.66684 2.1671 2.2088 2.0421 3.7925 2.9172 1.7504 2.6255 1.7504 2.0421 3.5007h2.3338l4.0843 2.3338 4.0843 3.7925 1.4587 3.209 2.6255 5.5429 1.4586 4.0843-2.0421 2.9172-0.5834 4.3758z"/>
  </g>
  <g>
   <path d="m56.931 110.81 3.2434 2.535 0.67105-1.6132 1.4539 0.57615 2.5723 0.9218 2.9079 0.3457 0.89473 0.9218 3.0197 0.57614h2.5723l4.25-0.34568 3.5789 0.34568 1.0066-0.8066 4.3618-1.7284 14.763-1.9588 5.2565-2.1893 1.2302-0.23046 14.204-1.7284 0.67104-0.34569 3.4671-2.8807 2.9079-1.6132 0.44737-0.1152 1.1184 0.23046 0.44736-0.11519 0.22368-0.9218 0.33553-0.34569 1.3421-0.4609 1.3421-0.46091 0.89472-0.92181 0.78288-0.23046h0.67105l1.2303-0.23044 0.67105-0.69137 1.1184-0.57614h2.6842l0.44736-0.11519 0.55921-0.57613 1.7894-0.23046 1.7895-0.57613 6.2631-2.4198 1.2303-0.57614 2.0131-0.34567 3.0197-0.46091h1.1184l1.2302-0.46091 1.3421-0.57613 1.1184 0.23046 0.33553-0.57613 1.7894-0.11523 1.0066-0.34568 0.22369-0.4609-0.55921-1.3827" stroke-width=".5px"/>
   <path d="m56.932 110.82-0.71993-2.8842-0.17998-5.3246-1.9798-4.8809v-1.553l0.53995-4.2153-3.9596-3.9934v-1.3312l-1.2599-0.66557-2.5198-7.3213-1.4399-0.66558-1.6198-1.9967-1.7998-2.2186-2.3398-0.88743-2.1598-1.9967h-2.1598l-1.0799-0.44372 0.53995-2.4404-1.2599-0.22186-1.6198-0.22186-1.0799-1.1093-0.89991-1.1093-6.8393-4.8809" stroke-width=".5px"/>
   <path d="m96.564 111.36 2.8524-1.8337 1.2225-2.0375 8.7611-4.2787 1.2225-1.4262-0.20375-1.0187-0.20374-3.8712 0.40749-1.8337 1.0187-1.63 2.0375-2.0375-1.0187-2.6487v-1.2225l0.61123-2.445 0.4075-3.0562v-7.1311l-0.61123-2.445 0.61123-4.8899" stroke-width=".5px"/>
   <path d="m23.096 60.455 5.1264-10.749 0.33074-2.6459-0.66147-6.284 1.6537-4.4649 6.6147-3.6381" stroke-width=".5px"/>
   <path d="m56.926 110.8 1.4466 1.1573-0.6751 3.5684-0.57865 0.28933 0.28933 0.86797 4.4363 5.883 0.77154 0.77154 0.09644 0.77153 0.6751 0.0964 0.57865 1.5431 2.9897 0.77154 0.57865 2.2182 0.28933 1.3502-0.48221 1.736-1.5431 2.0253 0.19288 2.6039 5.4008 0.77154 1.4466-0.86798 1.1573-0.19288 2.7968 0.28932 1.3502-0.19288 1.0609-0.77154 1.3502-0.28932 1.3502-0.0965 1.6395-0.0964 1.2537-0.0964 1.2537-0.38577 0.48222-0.77153 1.5431-0.0965 2.5075 5.9794 0.38577 1.0609-0.28932 1.3502-0.96442 1.9288 0.09643 0.48221 0.86799 0.48221-0.19289 0.86798-0.09644 0.77154v0.57866l0.38577 1.0609-0.28932 0.38576 0.48222 1.736-0.96442 2.0253-0.38578 1.1573v1.8324l-0.6751 0.96443 0.48222 1.2538-0.19288 0.67509-0.09644 0.86798v0.48221l0.28932 1.0609-0.38577 0.77154v0.96442l0.48221 0.57865v0.6751l-0.28932 1.0609-0.86798 0.96442" stroke-width=".5px"/>
   <path d="m88.076 133.66 6.394 4.8954 5.8944-0.0999 1.8982-1.099 1.9981-0.19982 1.9981-0.0999 0.89915 0.19982 1.3987-0.0999 3.3968 2.098h0.89915l1.3987 0.29971 0.99906-0.99905 1.2988 0.89915 2.6974 0.79925 2.5976 0.79924h1.5985l0.99906-0.0999 0.69935-0.39961 0.99904-0.0999 0.59943 0.0999 0.99907-0.49953 1.2988-0.19982 1.5985 0.19982 0.59942 0.39961 0.49953-0.79923 2.1979-0.89916" stroke-width=".5px"/>
   <g stroke-width=".5px">
    <path d="m167.99 87.767 9.7003 9.6729 4.4098-1.5564 1.5564 2.594-0.5188 1.8158 1.8158 3.3722-3.891 5.4474 2.0752 0.2594 2.594 0.5188h3.6316l-6.2256 22.568"/>
    <path d="m133.93 138.76l0.95521-2.925h1.5564l2.3346 1.0376 0.5188 0.2594 1.8158 0.7782h1.0376l2.0752-0.5188 1.0376-1.0376 0.7782-1.0376 3.019-1.4811 2.6878 0.70289 1.8158 1.5564 1.297 0.51881h3.3722l1.297-1.5564 1.0376-1.5564 3.1128-0.5188 1.5564-1.8158 2.0752-0.7782h3.6316l2.3346 1.297 2.594 0.2594 2.594 0.2594 4.6692 0.2594"/>
    <path d="m173.38 93.396-1.2533 1.1141-0.83555 0.9748-0.83554 1.2533-0.41777 1.3926 0.015 2.1908 1.3776 1.1514-0.79411 1.4741l6.5036 7.4384-0.41777 7.9377-0.27851 1.5318v1.5318l2.2281 2.5066 1.1141 2.2281 0.41777 1.3926 0.55703 1.9496 2.381 2.9954"/>
   </g>
   <path d="m88.544 112.34 0.65997 2.1198-0.13199 1.4132v0.70658l0.26399 1.4132v1.6958l-0.13199 0.56527-0.13199 0.42396v1.9784l-0.52798 0.70659-0.132 0.8479v1.5545l-0.13199 1.1305v0.84792l0.39598 2.1198v0.56527l0.132 1.6958-0.7301 1.5368" stroke-width=".5px"/>
   <path d="m28.819 64.738 2.946-0.99105 1.7676-0.49552 1.7676-0.33035 3.9279-0.6607v-1.1562l1.5712 0.33035 1.7676-1.1562 1.7676-0.82587 2.3568-0.99105 2.5532 0.33035 1.3748-1.1562h3.9279l0.58919 1.4866 2.1604 0.82587 1.3748 2.3124 2.1604-1.8169 2.5532-1.6517 2.3568-0.99105 1.7676-0.33035h2.5532l2.3568-0.33035 1.5712-1.1562 1.5712-0.82587 1.3748-0.16517 2.1604 0.49552 0.78559 0.82587 1.964 0.6607 1.1784 0.33035 0.98199 0.99104 1.5712 0.6607 2.946 0.6607 1.714 0.16381h3.3761l0.90895 0.32762 0.51939 0.32762 0.90895-0.1092h0.5194l1.0388 0.32762h0.90895l0.90895-0.32762 0.90895-0.32762h1.0388l1.2985 0.21841 0.77909 0.21841 0.90895-0.54603 0.90894-0.43682 0.5194-0.10921 0.64925-0.32762v-0.32762l0.38954-0.87365 0.64924-0.65524 0.77908-0.54603 3.1164 2.8394 1.0388 1.8565 1.3504 6.2357" stroke-width=".5px"/>
   <path d="m105.69 59.345-2.8514-3.3698-1.5553-0.51844-0.90725-0.64804-0.90728-0.77765-4.1475-4.1475-2.2034-0.25922h-2.5922l-0.51844 0.38883-1.4257-1.4257-11.017-11.794-3.2402 1.6849-4.1475-4.6659-2.0738-2.333-1.2961 1.4257-1.9441 0.51843-2.0737 0.77766-1.1665 0.38882-0.90728 0.77766-1.6849-0.90726-0.51843-0.90726-1.4257-0.77766-1.4257-1.1665-0.38883-0.51844-0.38883-0.77765-0.51843-1.5553-0.38882-0.25922-0.64805-0.38883-0.90728-0.51844-0.64803-0.38882-1.0369-1.1665-2.2034-1.6849" stroke-width=".5px"/>
   <path d="m48.532 24.35-2.1951 3.2296-1.0976 0.49687-1.1973 0.37265-1.4967 0.7453-1.2971 0.99373-1.1973 0.37265-1.4967 0.86952-1.796 1.1179-0.59866 0.12422" stroke-width=".5px"/>
  </g>
 </g>
 <g fill-rule="evenodd" stroke-width=".3027">
  <ellipse cx="167.27" cy="87.08" rx="1.7213" ry="1.7455"/>
  <ellipse cx="23.703" cy="59.978" rx="1.7213" ry="1.7455"/>
  <ellipse cx="113.74" cy="67.879" rx="1.7213" ry="1.7455"/>
  <ellipse cx="96.832" cy="111.24" rx="1.7213" ry="1.7455"/>
  <ellipse cx="88.829" cy="165.13" rx="1.7213" ry="1.7455"/>
  <ellipse cx="183.01" cy="132" rx="1.7213" ry="1.7455"/>
  <ellipse cx="134.13" cy="138.25" rx="1.7213" ry="1.7455"/>
  <ellipse cx="57.144" cy="110.69" rx="1.7213" ry="1.7455"/>
  <ellipse cx="36.381" cy="32.417" rx="1.7213" ry="1.7455"/>
 </g>
 <path d="m88.364 165.68 1.0909-0.55472 0.81818-0.6934h0.54546l0.81818-0.83209 0.40909-0.83208 0.27273-0.69341h-0.13637l0.13637-0.8321 0.68181-0.27735 0.68182-0.55472v-0.69341l0.27272-0.55472 0.27273-0.97077 0.68181-0.27736 0.4091-0.13868 0.54545 0.55472 0.27272 0.27737 0.13636-1.2481 0.54545-0.55473 0.81818-0.27736 0.68182-0.27736 0.89915-0.0433 0.26847-0.27302 0.17897-0.45503 0.62642-0.18202 0.26848-0.54605 0.26846-0.54606 0.89487-0.36405 0.44745-0.54605 0.26847-0.36403v-0.54606l-0.0895-0.91009 0.0895-0.54606 0.35794-0.45505 0.8054-0.18202h0.62643l1.2528-0.18202 0.71591-0.18202 0.8054-0.54606 0.7159-0.72806 0.71591-0.72809 0.0895-0.63706 0.0895-0.27303 0.0895-0.54605 0.35796-0.54606v-0.45505l0.17898-0.63706 0.44744-0.81908 0.17897-0.63708 0.62642-1.0011 0.71591-0.81908 0.62643-0.54606 0.53693-0.36404 0.53693-0.27303 0.62641-0.27303 0.71591-0.54606" fill="none" stroke="#000" stroke-width=".5px"/>
 <g fill="#000000" font-family="sans-serif" font-size="3.5278px" letter-spacing="0px" stroke-width=".26459" word-spacing="0px">
  <text x="93.175995" y="166.54442" style="line-height:1.25" xml:space="preserve"><tspan x="93.175995" y="166.54442" font-size="4.2334px" stroke-width=".26459">Sawai Madhopur</tspan></text>
  <text x="129.87447" y="144.62065" style="line-height:1.25" xml:space="preserve"><tspan x="129.87447" y="144.62065" font-size="4.2334px" stroke-width=".26459">Karauli</tspan></text>
  <text x="179.91783" y="139.61632" style="line-height:1.25" xml:space="preserve"><tspan x="179.91783" y="139.61632" font-size="4.2334px" stroke-width=".26459">Dholpur</tspan></text>
  <text x="59.813744" y="108.39879" style="line-height:1.25" xml:space="preserve"><tspan x="59.813744" y="108.39879" font-size="4.2334px" stroke-width=".26459">Jaipur</tspan></text>
  <text x="93.175995" y="117.21595" style="line-height:1.25" xml:space="preserve"><tspan x="93.175995" y="117.21595" font-size="4.2334px" stroke-width=".26459">Dausa</tspan></text>
  <text x="144.17258" y="87.666527" style="line-height:1.25" xml:space="preserve"><tspan x="144.17258" y="87.666527" font-size="4.2334px" stroke-width=".26459">Bharatpur</tspan></text>
  <text x="98.656929" y="69.317291" style="line-height:1.25" xml:space="preserve"><tspan x="98.656929" y="69.317291" font-size="4.2334px" stroke-width=".26459">Alwar</tspan></text>
  <text x="33.600552" y="38.576366" style="line-height:1.25" xml:space="preserve"><tspan x="33.600552" y="38.576366" font-size="4.2334px" stroke-width=".26459">Jhunjhunu</tspan></text>
  <text x="13.821503" y="65.981064" style="line-height:1.25" xml:space="preserve"><tspan x="13.821503" y="65.981064" font-size="4.2334px" stroke-width=".26459">Sikar</tspan></text>
 </g>
</svg>
