<svg width="207.46mm" height="313.38mm" version="1.1" viewBox="0 0 207.45818 313.38647" xmlns="http://www.w3.org/2000/svg" xmlns:cc="http://creativecommons.org/ns#" xmlns:dc="http://purl.org/dc/elements/1.1/" xmlns:rdf="http://www.w3.org/1999/02/22-rdf-syntax-ns#">
 <metadata>
  <rdf:RDF>
   <cc:Work rdf:about="">
    <dc:format>image/svg+xml</dc:format>
    <dc:type rdf:resource="http://purl.org/dc/dcmitype/StillImage"/>
    <dc:title/>
   </cc:Work>
  </rdf:RDF>
 </metadata>
 <g fill="none" stroke="#000">
  <g transform="translate(-1.4713 61.062)" stroke="#fff" stroke-width=".5">
   <path fill="#cc2" id="Jhalawar" d="m149.9 187.21-1.6286 4.8561 4.7498 7.5999 4.7498 4.275-0.95007 5.2249-6.6501 4.275h-4.7499l-2.85-3.8-3.325-0.47548-6.1751-3.325 1.425-2.375 4.7499-3.7999-0.94997-5.2249-6.1751 0.9499-2.375 5.2249-6.6502 2.375-1.4249 4.275h-5.2249l-2.85-3.325h-9.9752l-5.2249-3.3251-2.85 0.95001-1.9 3.8h-5.2249l-1.425-5.2249-3.3249-0.94996-2.8501 1.9 0.47546 8.55-2.85 7.5998-6.6502 3.8-3.8 3.8v5.7l0.95001 4.7499-8.55 2.375-3.325 0.94997-4.7499 0.95001-3.7999 1.425-2.85-3.8-3.8 0.94997v4.275l-2.85 3.325-0.47541 6.175-7.5998-4.275-4.7498-3.325-1.425-5.225-4.275-3.3249-2.375-1.9-2.85-3.3251 0.47541-4.2749 4.7498-4.275 3.8 0.47545 4.7498 2.3749 4.7498-0.47493h4.275l3.8 4.2749 3.325-0.94992v-2.85l1.9-4.7498 4.275-0.47542v-3.325l-4.7498-2.85-0.47495-7.5998 0.95001-6.6497 3.8-5.2249-5.2249-0.95001-2.85-3.8v-4.275l-1.9-5.2249 5.7-1.425 4.275 0.47493 5.2249 2.8501 4.275-0.95007-0.95006-4.275 0.95006-7.5998 0.41907-4.3163 0.58424-1.5076 2.6287-1.7525-0.87625-4.6733 2.3367-3.797h4.3812l3.2129 2.3366 3.797 0.87622h4.3812l2.6288-1.1683 2.9208-3.7971 0.58414-5.8414 3.505-0.29187 2.3366 3.2129 2.3367 2.3367 1.7524-2.3367 1.7525-3.7971 4.0891-2.3366 3.2129 3.505 1.1682 3.2129 2.0446 4.0891 2.6288 4.0892 2.9208 6.1338v4.0891l-1.4604 4.9653 1.7525 4.0891 4.9653 2.6288h11.099l7.5942 3.2129 7.0099 3.505z"/>
   <path fill="#a2c0a2" id="Kota" d="m125.26 67.519-2.6509-3.7203-3.325-5.7 1.9-7.1252-2.375-7.5999 0.99426-2.8057h-7.0099l-4.3812 0.58415-5.8414-1.1682-4.3812-2.6287-3.797-3.2129-3.505-1.1684-2.0446 2.0446-4.6733 0.29234h-2.9208l-3.2129 2.0446 1.7525 5.2572 3.505 2.6287 6.4257 2.0446 5.2572 4.0892-0.58415 3.797-1.1683 4.3812-1.7524 5.2572-5.2577 3.797-4.3812 1.4604-1.4604 5.5496-2.3366 5.2572-4.3812 5.5495-5.2577 4.6733-6.1338 3.2129h-4.9653l-6.1338 0.58414-3.505 4.0891-2.3366 4.9653 0.58415 7.5941-1.7525 5.2577-2.3366 4.6732-2.6996 2.5181 0.94707 1.8631v3.505l3.2129 2.6286 3.2128 1.4604 1.1683 3.797 1.1683 2.6286 0.31608 4.1438 4.1157 3.3796 0.47493 5.2249v3.8l1.9 3.325 6.1604 2.8809 2.2216-1.4324-0.87626-4.6733 2.3366-3.797h4.3813l3.2128 2.3367 3.797 0.87622h4.3812l2.6288-1.1683 2.9207-3.797 0.58414-5.8414 3.505-0.29189 2.3366 3.213 2.3367 2.3366 1.7524-2.3366 1.7525-3.7971 2.9709-1.6123 2.5786-3.3531 2.0446-2.6287 1.1682-2.9208-3.2128-3.5049-4.9653-0.5842h-4.6732l-2.9209-2.3366-3.5049-6.1338-2.6288-4.0891-0.87622-4.0892 1.4605-6.718 3.797-7.0099 1.7524-8.4702 1.7525-4.6733 2.0446-4.6732 0.29187-3.2129 4.3812-1.1683 6.4257-1.1683 4.3812-0.29189 5.8414-2.3367 4.0892-2.6287z"/>
   <path fill="#abacda" id="Baran" d="m150.66 183.99-0.74635 3.2188-3.7971-1.7524-7.0099-3.505-7.5942-3.2129h-11.099l-4.9653-2.6288-1.7524-4.0891 1.4604-4.9653v-4.0891l-2.9208-6.1338-2.6287-4.0892-2.0446-4.0891-1.1683-3.2129-2.7172-2.3485-1.0798-0.8644 2.0446-2.9208 2.0446-2.6287 1.1683-2.9208-3.2129-3.5049-4.9653-0.5842h-4.6733l-2.9208-2.3366-3.5049-6.1338-2.6287-4.0891-0.87628-4.0891 1.4605-6.718 3.797-7.0099 1.7524-8.4702 1.7525-4.6733 2.0446-4.6732 0.29187-3.2129 4.3811-1.1684 6.4257-1.1683 4.3812-0.29189 5.8414-2.3367 4.0891-2.6288 3.9962-3.1331 1.6241 3.8795 0.47548 6.6502 3.325 4.275h6.1751l4.275 2.85 5.7 2.8499 6.1751-1.4249 5.7 0.94991 4.7499 3.8001 6.175-1.9 2.375-2.85 4.7499 0.4754 6.6501 1.425 4.7499-3.325 1.4249-4.2749 3.325-4.275 7.1247 1.425-1.9 6.1751 3.325 2.375 0.94997 5.225 3.8 3.325 2.3749 1.9-2.85 5.225-0.94993 5.7-5.7 4.275-6.1751 0.95-5.7-5.2249-5.7 3.325-8.55 3.3249-9.5001 0.95006-9.0251 3.325 2.3749 6.6501 1.9 6.6502-0.47493 4.7498-6.175 1.425-5.7 1.4249 0.95001 5.225 6.1751 3.3249 4.7498 0.95005 7.5999 1.425 5.2249 6.6497 1.425 9.0251-3.325 4.7498-4.7498 3.325-3.325 3.8-3.325-4.7498-3.325-4.7498-6.1751 2.85 2.85 5.2249z"/>
   <path fill="#f0c2f0" id="Bundi" d="m38.886 123.38 2.9208-1.8986 2.3366-4.6732 1.7525-5.2577-0.58415-7.5941 2.3366-4.9653 3.505-4.0891 6.1338-0.58412h4.9653l6.1338-3.2129 5.2577-4.6733 4.3812-5.5495 2.3366-5.2572 1.4604-5.5496 4.3812-1.4604 5.2577-3.797 1.7524-5.2572 1.1683-4.3812 0.58415-3.797-5.2572-4.0892-6.4257-2.0446-3.505-2.6287-0.87627-2.9208-1.7525 0.29189-4.6733-1.7525-4.0891-3.7971-2.0446-3.5049-2.9207-2.3366h-2.6288l-2.9208 2.6287h-2.3366l-2.0446-1.4603-3.505-2.9208-1.1683 2.3366v4.6733l0.29236 4.6733-4.3812 2.0445-3.2128 2.0446-2.9208 3.5049-4.6733 2.9208-3.797-2.0445-3.797-2.9207-1.4605-3.505-3.797-1.1684-4.0891 0.8763-2.3367 1.7525 1.4604 1.7525 1.4604 2.3366v9.6388l-2.0445 4.9653-2.9208 4.6733-2.6287 4.6733-2.9208 4.9653-5.2577 2.9209 1.1683 2.6287 2.6287 2.3366 3.2129 1.7525 4.0891 4.0892 2.9208-0.29187 4.3812 2.6287 0.87626 2.3366v4.9653l0.58414 4.3812-1.4604 5.2577-2.9208 2.3366 1.1682 3.2129 2.6288 2.9208 1.3143 2.7748 5.1115 0.43806 4.0891 1.7525h4.0891z"/>
  </g>
  <g>
   <path d="m67.831 2.7234 3.181 4.1353v1.9086l2.5448 3.181 0.95431 2.8629 0.3181 2.2267-1.5905 1.5905 3.4991 3.181 1.5905 4.1353 5.4078 1.5905 1.2724 4.1353-0.63622 2.2267-0.6362 1.9086-2.5448 2.5448 0.6362 4.1353v4.4535l-1.2724 2.2267 1.2724 7.6345-3.181 2.2267-1.2724 2.5448-0.95431 2.5448-2.2267 1.9086-1.2724 5.7259-2.8629 1.9086-1.9086 3.4991-2.5448 0.95431-2.5448 3.4991-1.2724 2.8629-1.2724 3.8172-1.9086 1.9086-1.2724 2.8629-2.5448 2.2267-3.8173 4.4535-3.8172 3.8172-5.0896 3.4991-7.6345 4.4534v3.8172l3.181 2.5448v5.0896l3.181 3.181v4.4534l2.8629 1.9086 4.4535 9.5431 4.4535 1.5905v3.181l4.4534 0.6362 0.95431 3.8172 4.1354 4.1353 2.8629 3.181 0.63622 3.181 2.8629 2.8629 5.0896 4.7716-0.3181 7.3164 1.2724 1.9086v2.8629l5.0896 5.4078 5.7259 15.269v9.8612l2.5448 3.4991 1.9086 4.1354v0.95431l2.8629 0.63621 3.181 2.8629 4.4535 0.31811" stroke-width=".5px"/>
   <path d="m67.746 2.4636 2.8704 3.5083 2.2325-2.5515 13.714 4.4651 14.033-0.31894 6.0598-2.5515 5.1029-0.9568 2.5515 0.9568 1.5947 3.8272 0.31893 3.1893-0.63787 6.0597-1.5946 3.1893 0.63785 15.309 4.1462 7.0165 0.31892 8.9301-0.63787 0.9568 1.5947 1.5947-0.63787 3.1893 0.63787 6.0597-1.5947 4.4651v5.1029l-0.95679 3.8272 0.31894 2.8704 1.5947 1.9136-2.8704 4.4651v2.2325l0.63785 1.2757 2.2326 1.2757-0.95681 1.2757-0.63785 1.9136 0.9568 1.5947 3.5083-0.63786 1.9136 2.5515 4.784 1.2757 3.5083 2.5515 3.8272 1.5947 0.31895 2.8704 5.1029 2.8704 0.63786 2.8704 2.5515 1.9136 2.5514 7.3355-2.8704 1.5947 0.63788 2.8704-2.8704 7.3355 0.9568 3.5083-0.63785 2.8704-5.103 3.1893-3.1893 2.2325-1.9136 3.8272-1.2757 3.8272v3.5083l0.31894 3.5083-0.95679 2.8704-1.2758 2.5515 0.63787 3.1893v2.5515l1.2757 4.1461v1.2757l-3.5083 5.4219 0.63787 5.103-5.4219 6.6976-0.31894 8.6112-2.2325 3.8272v4.1461l-1.5947 3.1894-2.5515 2.2325-1.5947 1.9136-2.2326 2.5515-1.2757 1.5947-0.63787 3.5083-2.2325 0.9568-3.1894-0.31893-4.784-1.5947" stroke-width=".5px"/>
   <path d="m129.3 165.44h-5.3314l-2.488-1.0952h-3.1989l-2.488-0.27379-2.488-0.82136-1.0663-1.6427-1.4217-0.54757-3.5543-0.54757-2.1325 0.54757-1.7772 0.27379h-0.71084l-2.1326-1.0952-9.2411-0.54757h-4.6206l-3.5543 0.27378-1.4217-0.54757-2.8434-1.0952-6.0423 0.27379h-7.8194" stroke-width=".5px"/>
  </g>
 </g>
 <g fill-rule="evenodd" stroke-width=".19747">
  <ellipse cx="35.92" cy="111.19" rx="2.7764" ry="2.8468"/>
  <ellipse cx="64.626" cy="158.25" rx="2.7764" ry="2.8468"/>
  <ellipse cx="129.27" cy="165.28" rx="2.7764" ry="2.8468"/>
  <ellipse cx="100.46" cy="224.23" rx="2.7764" ry="2.8468"/>
  <ellipse cx="68.31" cy="2.8466" rx="2.7764" ry="2.8468"/>
 </g>
 <g fill="#000000" font-family="sans-serif" font-size="3.5278px" letter-spacing="0px" stroke-width=".26459" word-spacing="0px">
  <text x="54.578781" y="11.889417" style="line-height:1.25" xml:space="preserve"><tspan x="54.578781" y="11.889417" font-size="4.9389px" stroke-width=".26459">Jaipur</tspan></text>
  <text x="135.62924" y="165.28244" style="line-height:1.25" xml:space="preserve"><tspan x="135.62924" y="165.28244" font-size="4.9389px" stroke-width=".26459">Baran</tspan></text>
  <text x="86.731026" y="232.93614" style="line-height:1.25" xml:space="preserve"><tspan x="86.731026" y="232.93614" font-size="4.9389px" stroke-width=".26459">Jhalawar</tspan></text>
  <text x="43.861359" y="115.04456" style="line-height:1.25" xml:space="preserve"><tspan x="43.861359" y="115.04456" font-size="4.9389px" stroke-width=".26459">Bundi</tspan></text>
  <text x="52.569263" y="167.29196" style="line-height:1.25" xml:space="preserve"><tspan x="52.569263" y="167.29196" font-size="4.9389px" stroke-width=".26459">Kota</tspan></text>
 </g>
</svg>
