<svg width="206.6mm" height="205.28mm" version="1.1" viewBox="0 0 206.59999 205.27927" xmlns="http://www.w3.org/2000/svg" xmlns:cc="http://creativecommons.org/ns#" xmlns:dc="http://purl.org/dc/elements/1.1/" xmlns:rdf="http://www.w3.org/1999/02/22-rdf-syntax-ns#">
 <metadata>
  <rdf:RDF>
   <cc:Work rdf:about="">
    <dc:format>image/svg+xml</dc:format>
    <dc:type rdf:resource="http://purl.org/dc/dcmitype/StillImage"/>
    <dc:title/>
   </cc:Work>
  </rdf:RDF>
 </metadata>
 <g fill="none" stroke="#000">
  <g transform="translate(-1.4797 -30.697)" stroke="#fff" stroke-width=".5">
   <path id="Bhilwara" d="m77.774 231.39-1.8813 0.11742-1.8813-0.23519-2.5868-1.411-2.1165-1.4109-0.4703-1.8813-1.1758-1.6461-2.5868-0.70545-1.4109-1.411-0.2352-2.1165 1.8813-1.1758v-2.5868l-1.6461-0.94064-1.411-0.23519-0.47027-1.6461-0.47033-2.822v-2.5868l-0.94066-1.1758 0.47033-2.1165 2.1164-1.1758 0.4703-1.411-0.2352-2.1164-0.94066-1.1758 1.1758-1.1758 1.8813-0.94063 0.94068-1.6462v-1.4109l-0.94068-2.5868v-2.1164l2.1165-1.6462 0.47033-1.4109-0.7055-1.1758-0.94064-1.8813v-3.0571l2.3516-1.1758 3.2921-0.94067 1.411-0.9406 0.47026-2.822v-2.1164s0.94068-0.94067 1.8813-1.1758c0.94062-0.23521 3.2922-1.8813 3.2922-1.8813l2.8219-1.1758 1.0817-1.7096h3.0366l4.2514 0.2023 1.822 0.60734 2.4293 1.0122h2.8342l2.2269-0.60735 2.0244-0.4049 2.4293 0.20231h2.2269l2.0244-1.2147 2.8342-1.2147 1.2146 1.2147 1.2147 1.6195 1.6196 2.6318 1.4171 0.80974 2.2269 0.60732 1.6196 0.20229 3.0366 1.2147h3.2391l2.8342 0.80971 2.4293 0.80981 0.6073 1.8219-0.40486 3.0367 2.6318 1.822h1.822l2.8342 0.80972 1.0122 1.4171 2.0244 1.0122 2.0245-0.20229 2.4293-0.40488h1.2146l1.4171-1.2147 1.8221-0.60734 2.6317-0.80974 3.1501 0.0198 0.69626 0.9907 1.0122 1.6196v6.6807l-1.4171 3.4415-2.0244 3.239-1.822 3.2391-2.0244 3.4415-3.6442 2.0244 0.80977 1.822 1.822 1.6195 2.2269 1.2147 2.8342 2.8342 2.0244-0.2023 3.0366 1.822 0.60739 1.6196v3.4415l0.40483 3.0366-1.0122 3.6441-2.0244 1.6196 0.80971 2.2268 1.8221 2.0244 0.6073 2.0244-1.6195 0.20231-2.4294 0.60734h-4.4537l-0.60732-1.2147-1.417-2.0244-0.37016-0.57256-2.3046-1.6461-4.5152 0.28225v-1.8813l-0.23518-1.411-0.70548-3.0571-2.822-1.1758-3.0571-0.94061-1.8813 1.4109-1.8813 1.6461-1.8813-0.2352-3.0571-1.4109-2.8219-0.2352-2.1164-1.8813-2.1164-2.3516-2.5868-0.9407-2.3516 1.411-0.94068 2.1164h-2.3516l-1.6461-2.1164 2.1164-1.1758-0.70546-2.1165h-2.5868l-2.1164 0.2352-1.8813 1.6461-1.8813 2.1165-3.0571 0.70546-2.8219-0.23518-2.8219-2.1164-2.1164-1.8813-2.1165 0.47033-2.1164 1.6461-1.8813-0.70554-2.1164-1.1758-2.8219 1.8813-0.94065 2.8219-0.23519 3.2922-3.0571 1.1758-1.4109 2.1165z" fill="#e2b584"/>
   <path id="Tonk" d="m201.07 123.86-3.4619-1.461-1.5602 0.22271-2.4518 0.89162-4.0119 0.89159-2.6748-1.3374-3.5662-1.7832-2.006 0.44576-2.6747 2.229-1.5602 2.4518-1.7831 2.4518-1.5602 0.89159-2.6747-1.1145-0.66867-1.7832-2.4519 0.2227-0.4458 1.7831-2.6747-1.1144-1.7831-3.1204-1.7831-0.44581h-6.2409l-1.5602-1.3373-1.1144-1.1145-3.7892-1.1144-2.6747 0.66868-2.2289 1.7831-1.3374 3.1205-0.66873 2.8976-0.22269 3.5662-1.3374 2.4518 0.44576 2.8976-1.1144 3.5662 0.2227 2.8976 1.1144 2.2289 0.2227 2.4518 1.1145 3.7892 1.7832 1.1144h2.006l1.5602-0.89159 1.5603-1.3374 2.6747 0.22271-0.22271 2.4518 0.22271 2.4518 0.66873 2.8976 0.66868 1.7831-0.66868 1.5602-2.2289 0.44579-2.6747 1.7831-1.5602 3.1205v2.2289l3.3434 2.8976 1.7831 2.4517 0.44581 2.4519 0.4458 3.5662 1.9774-0.40284h3.0366l1.4171-1.4171 2.8342-0.6073 2.6317 0.80975 1.0122 2.4293 2.6318 2.0244 2.6318 1.4171 3.2391-2.0244 2.0244-2.4293 2.2269-1.4171 3.0366-1.4171-0.20231-3.2391v-3.2391l0.8098-1.6195 2.4293 2.0244 1.4171 1.0122h1.6195l2.0244-1.8219h1.822l2.0244 1.6195 1.4171 2.4293 2.8342 2.6318 3.2391 1.2147 1.2147-0.2023-0.60732-1.6196 2.2268-1.4171h2.0245l2.2841-0.0881-0.89156-1.3374-1.3374-2.4517 0.4458-3.7892 0.44579-2.6747 1.3373-2.006 0.89155-3.1205-1.1144-2.2288-1.5602-0.22271-1.5602 1.3374-1.5603 0.89152-1.3373 1.5603-2.8976-0.6687-0.44581-2.6747 0.44581-3.5662-0.66867-1.7831-2.006-1.3374-2.8976-0.66867-0.89163-1.7831v-3.3435l0.66867-2.2289 3.5662-0.44579 3.3434-0.89155 2.4518-1.3374 0.44578-2.006v-3.3434l0.2227-3.3435-0.44576-2.006 0.2227-2.229 1.5602-1.5602-0.89155-2.6747-1.6646-0.99074z" fill="#c2f0c2"/>
   <path id="Ajmer" d="m151.26 182.54 0.65435-0.40692-0.44586-3.5661-0.44573-2.4519-1.7832-2.4517-3.3434-2.8976v-2.2289l1.5602-3.1205 2.6747-1.7831 2.229-0.44583 0.66866-1.5602-0.66866-1.7831-0.66872-2.8976-0.2227-2.4518 0.2227-2.4518-2.6747-0.22269-1.5603 1.3374-1.5602 0.89159h-2.006l-1.7832-1.1145-1.1144-3.7892-0.2227-2.4518-1.1145-2.2289-0.2227-2.8976 1.1145-3.5662-0.44583-2.8975 1.3374-2.4519 0.22271-3.5662 0.69017-1.9784-1.3589-1.3649-1.7832-2.4519-2.2289-2.006-1.5603-1.5602s-1.5602-3.1205-1.5602-4.0119c0-0.89155 0.44576-2.006 0.44576-2.006l-2.4518-2.006-1.5602-0.44583-1.3374-1.3374 0.89157-1.3373 1.1144-0.89156 1.1145-2.0061-0.44586-0.89151-2.2288-0.4458-2.229-0.22271-2.006-2.006v-2.6747l-0.66867-3.3435 0.89156-2.2289 1.1145-2.2289 2.8976-0.44579 1.7831 1.3373 1.1144 1.1144h3.1205l2.006-0.44577 4.0119-0.66865v-2.2289l-2.0061-2.2289-1.7831-1.3374-2.8976-0.44579-2.4518-3.1204h-4.6807l-2.6747 1.1144-2.229 1.1145-2.8976 0.4458-1.7831 2.2289-1.3374 2.4518-0.66867 4.0119-2.4518 3.3435-2.4518 2.4518-2.006 0.2227-4.458 1.1144v1.5603l1.5602 1.7831 2.2289 0.89156 1.3374 0.89159-0.66865 1.7831-0.89161 2.2289-2.6747 1.5603-0.66865 3.1205-2.2289 0.22269-1.7831-1.3373-1.5603-1.3373-3.3434 0.66866-0.22271 2.2289-1.3373 2.229-2.0061 1.3373-2.006 1.3373-2.229 1.3374-2.4518 1.5603-3.3435 1.7831-2.6506 1.9133 0.42165 2.5445 0.89156 2.2289 1.3373 2.006-1.5602 2.006-2.0061 1.3373 0.2227 1.7831 2.8976 0.2227 3.1204-1.3373 2.006 0.4458-1.7831 3.3435-1.3373 3.1205-1.1145 1.7831h-2.2289l-3.5662 0.89159-0.44573 3.3435v3.7892l-2.0061 2.006-1.3373 1.1144-1.5603 1.3373-2.006 3.7892-0.22271 2.006-0.03889 3.0724 1.5296 0.69626 2.1165-0.2352 1.4109-1.1758 1.4109-1.8813 1.8813-1.411 0.70548 1.1758 2.3516-0.47033v-2.1165l0.70554-2.5868 2.3516-1.4109 1.6461 1.4109-0.47027 1.8813-1.411 3.0571-0.79951 1.3476h3.0366l4.2514 0.2023 1.822 0.60734 2.4293 1.0122h2.8342l2.2269-0.60734 2.0244-0.40488 2.4293 0.20231h2.2269l2.0244-1.2146 2.8342-1.2147 1.2146 1.2147 1.2147 1.6195 1.6195 2.6318 1.4171 0.80971 2.2269 0.60734 1.6195 0.2023 3.0366 1.2147h3.2391l2.8342 0.80971 2.4293 0.80983 0.60737 1.8219-0.4049 3.0367 2.6318 1.822h1.822l2.8342 0.80971 1.0122 1.4171 2.0244 1.0122 2.0244-0.20232 2.4294-0.40487h1.2147l1.4171-1.2146 1.8219-0.60739z" fill="#f2c0f2"/>
   <path id="Nagaur" d="m79.715 127.18-1.5602-1.4488-1.5603 0.44579-2.2289 1.5603-1.5603 1.5602-1.7831-1.3374-2.4518-4.2349-1.1145 0.89153 0.2227 2.6747-2.006 2.6747-0.89163 0.66869-2.2289-1.5602-3.1205-0.6687h-6.2409l-0.89152-2.8976-3.3435-2.6747-3.3435-3.1205-2.8976-1.3373-1.5603-2.6747-1.7832-4.235-1.5602-5.7952-0.2227-4.0119-2.006-4.4579-2.8976-3.1205-3.3435-3.1204-4.9037-0.2227h-4.0119l-6.0182-0.2227-5.7951-2.4518-4.6807-2.4519-0.89159-2.8976 0.22276-4.2349-0.89159-4.0119-0.89159-5.5725v-3.5665l0.22276-1.9549 0.097895-1.5357 2.6502 0.44164 1.7667-0.22106h2.6502l1.9877 1.5459 0.22092 2.4293 2.4293 2.4293 0.44171 1.9877 1.3251 1.5459 1.1042-1.9876v-3.7543l0.66254-1.9877 2.6502-1.7668 2.6502-1.1042 2.871-1.5459 0.44172-2.4293 2.2085-1.546-0.22106-3.0918v-3.7543l-0.22106-1.7668 0.8834-1.5459 2.871 0.22106 2.2085 0.44169 1.1042-1.7668-0.22105-1.9876 1.1042-0.88339 1.3251 1.3251 1.9877 0.88339 1.7668 1.5459h1.7667l1.9877 0.44174 1.5459 1.3251s0.88334 0.44169 1.7667 0c0.8834-0.4417 2.2085-1.1043 2.2085-1.1043l1.1042-1.3251 1.3251 0.22105 0.22105 1.3251 2.6501 0.88341 2.2085-0.44172 2.4293-1.5459 1.9876 0.44175s1.5459-0.22105 2.6502 0.88333c1.1042 1.1043 3.3125 2.871 3.3125 2.871l1.5459 1.9877 1.9876 1.9876 2.6502 0.44169 2.2085-1.7668v-2.871l-0.66255-1.1042-0.22105-2.2084s1.546-0.66258 1.9876-1.7668c0.44169-1.1042 0.88341-3.5336 0.88341-3.5336l1.5459-2.871 2.2085-1.9876 3.3125-1.546 3.3125-0.88336 3.9754 0.22105 1.9876 0.44169h2.6502l1.7668 0.88341 1.5459 0.22105 1.1042-3.0918 2.2084-1.3251h1.3251l-0.22105 3.3129 1.5459 1.9876h1.7668l3.3126-1.5459v3.7543l-0.66254 2.4293h2.2085l1.3251 1.3251-1.1043 1.7668-2.871 0.66249-0.44168 2.4293 1.5459 1.1043 2.6501 0.44167 2.2085 0.44166 0.22106 1.1043 2.2085 1.1042 1.9876 1.3251 0.44168 2.4293 0.66254 2.2085 0.22107 2.871 1.3251 0.66258 1.7668 0.88339 1.3251-0.22105 1.1042-1.1043 1.1043-0.44169 2.2085 1.1042h1.5459l1.1042-1.1042 0.66254-1.5459 1.1042 0.22107 3.3125-0.66255 1.9876 0.66255 0.66257 1.1042v2.4293l-2.4294 3.3125-1.9876 2.4293-0.44169 2.4293 2.2084 1.1043 1.9876 1.1042 1.3251 1.7668 1.9876 1.5459 2.2084 0.22105 2.6502 1.3251-1.6605 0.91603-0.18814 3.0101-0.94064 1.8813-1.6932 0.75255-1.8813 1.6931 0.18814 2.2575-1.6932 1.6932-1.3455-1.2167-1.7832-1.3373-2.8976-0.44579-2.4518-3.1204h-4.6807l-2.6747 1.1145-2.229 1.1145-2.8976 0.4458-1.7831 2.2289-1.3374 2.4518-0.66867 4.0119-2.4518 3.3435-2.4518 2.4518-2.006 0.22271-4.458 1.1144v1.5602l1.5602 1.7832 2.2289 0.89156 1.3374 0.89159-0.66864 1.7831-0.89157 2.2289-2.6747 1.5602-0.66865 3.1205-2.2289 0.2227-1.7832-1.3373-1.5602-1.3374-3.3435 0.66866-0.2227 2.229-1.3373 2.2289-2.006 1.3374-2.006 1.3373-2.2289 1.3373-2.4518 1.5603-3.3435 1.7831-2.6747 1.6716z" fill="#cc2"/>
  </g>
  <g stroke-width=".4px">
   <path d="m175.38 45.604-3.7253 1.9513-10.644 4.4349-2.6609 0.70958-4.6123 0.88697-2.8383 1.0644-4.0801 1.9513-3.0157 1.9513-4.6123 3.1931-2.4835 2.4835-3.7253 0.70958-3.3705 0.88697-2.4835 1.4192-1.7739 1.0644-3.0157 0.17739-4.2575 0.88697-2.3061 0.70958-1.2418 1.2418-2.1287 2.4835-2.1287 2.6609-0.35479 1.4192-2.1287 2.4835-0.70959 1.2418-0.70958 3.0157-1.0644 3.0157-0.88697 1.9513v1.5966l0.70958 0.70958-0.53219 1.9513-2.1287 1.0644 0.70958 3.3705-0.88697 3.1931-1.0644 4.0801-0.53218 2.3061-1.2418 2.8383-1.7739 3.7253-1.0644 3.1931v5.854l-0.88697 2.1287-0.35479 4.0801 1.2418 2.1287 0.35479 1.5966-1.2418 4.2575-1.4192 3.3705-0.35479 2.6609-0.1774 3.0157v2.1287l0.53218 2.4835 0.70958 1.5965 0.53218 1.9514v2.3061l-0.53218 1.9513-1.2418 3.0157-1.7739 3.5479 1.5966 0.53217"/>
   <path d="m175.38 45.604 0.42332 3.3865-0.21166 3.8098 9.7361 14.181 4.8681 1.4816 0.21165 2.9632 0.21165 2.3282v1.6932l-1.9049 2.7515-0.42332 1.9049 0.42332 2.7515-0.21166 1.9049-0.63497 2.7515-0.42331 1.6932 0.21165 3.1748 0.42332 2.5399v2.3282l-2.1166 2.1166-0.84663 1.4816-0.63496 1.4816-1.0583 0.84661-1.6932 1.2699-0.84662 1.2699-0.63497 2.1165-0.21165 1.9049-1.4816 1.6932-1.0583 1.0583-2.1166 1.2699"/>
   <path d="m175.38 45.618-12.875-5.2424-14.163 1.613h-3.0043l-2.1458-2.4196h-5.5794l-2.575 2.4196-6.0086-5.2424-7.7252 0.80653-8.5836-2.0163-1.2876-4.0326-0.85836-3.6294-10.3 3.6294-9.8711-4.8391-3.0043 2.0163-6.8669-0.80653-1.7167 2.0163-3.4335 1.613-3.0043-1.2098-6.8669-0.80652-2.1459-0.40327-3.8626 0.40327h-3.8626l-3.4334-0.40327-3.0043-1.2098-4.721-0.40326-8.5836-3.6294"/>
   <path d="m35.987 23.903 5.7527 8.1497 2.397 4.7939 8.629 1.4382 2.397 3.3557 0.47939 7.1909 5.2733 4.3145 1.9176 4.3145-0.47939 7.1909-2.397 7.1909 4.3145-0.95878h4.3145l5.2733 1.4382 7.1909 1.9176 3.8351 2.397 2.397 0.95878h2.8764l6.7115 1.4382 1.4382 2.8764-0.4794 2.8763h4.7939l2.8764 2.397"/>
   <path d="m175.37 113.76 0.82303-2.9997 0.16461-1.4999v-1.9284l-0.49382-0.6428-0.49382-1.2856-1.1523-0.64278-0.98766-0.42852-1.9753-0.21427h-1.9753l-1.6461-0.42852-1.9753-0.21428-0.32922-1.4998-0.49383-1.0713-0.32921-0.85706v-1.4998l-1.9753-1.2856-0.98765-0.85705h-0.65844l-1.4815 0.21426-1.3169 0.21425h-1.4815l-1.6461-1.0713-0.32922 2.1426-0.98765 0.85705-0.65844 0.64279-0.82304 0.64278-1.1522 0.85706-1.8388 0.78989-4.56-1.7147-1.1147 1.0552-1.0133 0.1319h-1.7227l-1.0133 0.39571-0.912-0.1319-0.91201-0.26381-0.81067-0.2638-1.0134-0.1319-0.40533-0.65951-0.40533-0.6595-0.20268-0.79141-0.60801-0.3957-0.81066-0.52761-0.81067-0.65951-0.608-0.3957-0.40535-1.0552-0.20266-0.79141-0.20267-0.92331-0.40533-0.79141-0.10135-0.65951-0.40532-0.52761-0.40534-0.79141-0.70934-1.0552-0.50667-0.79141-0.40533-0.6595-0.70935-0.52761-7.1947 4.0889-0.81069 0.39571-0.50667 0.2638-1.216-0.1319-1.0133 0.1319h-0.20267l-0.60801-0.3957-1.0133-0.79141-3.04-3.1656-1.0133-0.79141-1.3173 0.39571-0.70934 0.52761-1.824-0.92331-0.70934-0.2638-1.1147-0.2638"/>
   <path d="m175.37 113.76-1.6399 1.5381-0.98394 1.0857-0.65594 0.81428-1.2026 1.0857-1.3119 3.5285-0.87461 1.1762-0.65596 0.36191-0.4373 0.90474-0.65595 0.90475-1.4212 0.99523-0.98394 0.45236-1.2026 0.81428-0.87461 1.0857-0.76528 1.1762-1.2026 1.1762-1.5305 0.99522-1.7492 1.1762-2.7332 1.3571-2.6238 1.4476-1.8585 0.90475-1.2026 0.90475-1.3119 1.0857-1.0932 1.2666-0.43731 0.90475-1.4212 1.6286-1.5306 1.4476-0.98393 0.99523-0.4373 0.45236-0.32798 0.54286-0.21864 0.81427-0.4373 0.81428-1.5306-0.27143-0.8746-0.18095-1.4212-0.27142-0.4373-0.0905-0.8746-0.27142-1.3119-0.18096-0.54663 0.99523-0.32797 0.63333-0.32799 0.54284-1.0932 0.0905-1.0933 0.3619-1.0932 0.81427-1.2026 1.0857-0.32798 0.90475-0.32798 0.7238-0.32796 1.1762-0.76529 0.72381-0.98392 0.27141-0.87461 0.63333-0.54663 0.18095-0.98393 0.0905h-1.0933l-0.87459 0.27143-1.3119 0.54285-0.54662 0.63332-0.32797 0.63332-0.87461 0.27142-0.54663 0.27144-0.54663 0.45236-0.32797 0.7238-0.76528 0.3619-0.76528 0.63333-0.21865 0.36189-0.32798 0.3619-0.65595 0.18096-1.4212 0.0905-1.0933 0.18095-1.6399 0.3619-1.4212 0.27143-0.54663 0.81427-0.8746 0.27142-0.98394 0.18095h-1.2026l-1.5306 0.54285-0.76528 0.3619-1.2026 0.45237-1.3119 0.3619-2.8425 0.81428-1.8585 0.0905-1.8585 0.18095"/>
  </g>
 </g>
 <g fill-rule="evenodd" stroke-width=".40025">
  <ellipse cx="175.04" cy="45.49" rx="2.1154" ry="2.1734"/>
  <ellipse cx="36.097" cy="24.229" rx="2.1154" ry="2.1734"/>
  <ellipse cx="105.27" cy="86.784" rx="2.1154" ry="2.1734"/>
  <ellipse cx="175.57" cy="113.62" rx="2.1154" ry="2.1734"/>
  <ellipse cx="94.683" cy="166.16" rx="2.1154" ry="2.1734"/>
 </g>
 <g font-family="sans-serif" font-size="3.5278px" letter-spacing="0px" stroke-width=".26458" word-spacing="0px">
  <text x="98.651779" y="169.93886" style="line-height:1.25" xml:space="preserve"><tspan x="98.651779" y="169.93886" font-size="4.2333px" stroke-width=".26458">Bhilwara</tspan></text>
  <text x="160.45088" y="114.94333" style="line-height:1.25" xml:space="preserve"><tspan x="160.45088" y="114.94333" font-size="4.2333px" stroke-width=".26458">Tonk</tspan></text>
  <text x="178.97173" y="45.962681" style="line-height:1.25" xml:space="preserve"><tspan x="178.97173" y="45.962681" font-size="4.2333px" stroke-width=".26458">Jaipur</tspan></text>
  <text x="109.80208" y="84.516243" style="line-height:1.25" xml:space="preserve"><tspan x="109.80208" y="84.516243" font-size="4.2333px" stroke-width=".26458">Ajmer</tspan></text>
  <text x="39.309525" y="22.339167" style="line-height:1.25" xml:space="preserve"><tspan x="39.309525" y="22.339167" font-size="4.2333px" stroke-width=".26458">Nagaur</tspan></text>
 </g>
 <path d="m153.15 119.28 1.3458-0.12234 0.97873 0.36702 0.6117 0.85639 0.48937 0.61171 0.24468 0.36704-0.85637 0.97873 1.2234 0.24468-0.12234 0.61171-0.48937 0.36703h-0.61169l-1.2234-0.24467-0.12234 1.7128v0.85639l-0.2447 0.85639-0.24467 0.12234-0.73405-0.12234-0.48938-0.12234-0.48937-0.36702-0.6117-0.24469-1.5904 0.24469 0.85637 0.73406 0.48938 0.12234 0.61169 0.12233 0.61173 0.73406 0.24468 0.85639h0.73407l0.24468-1.1011 0.85637-0.73405 1.1011-0.2447 1.1011-0.61169 0.85638-1.1011 0.85641-1.5904 0.61169-1.2234 0.12234-1.1011-0.61173-0.2447-0.73406-0.48937-0.24467-0.61169v-1.2234l-0.48938-0.24468h-1.7127v-1.2234l-0.61175 0.36701z" fill="#85c5e3" stroke="none" stroke-width=".51873px"/>
 <text x="140.22916" y="115.72836" fill="#000000" font-family="sans-serif" font-size="3.5278px" letter-spacing="0px" stroke-width=".26458" word-spacing="0px" style="line-height:1.25" xml:space="preserve"><tspan x="140.22916" y="115.72836" font-size="2.8222px" stroke-width=".26458">Bisalpur Dam</tspan></text>
 <path d="m132.02 51.435 1.0532-0.45137h2.7082l-0.15055 1.3541 0.90273-0.60183h0.90275l1.0532 0.90274 0.60184 1.5046-0.90275 0.60183-0.75228 0.90274 1.3541 0.75228 1.0532 0.60183 0.90272-0.45137 0.90275-0.60182 1.0532-0.30091 0.30091-0.30091 2.2568 0.60183v-0.90274l-0.60181-1.0532-0.75229-0.90274-1.2037-0.15044-0.45137-0.75229-0.45138-0.75228-1.0532-0.60183h-3.9119l-1.0532-1.2036-0.75227-0.60183-1.3541-0.30092-1.3541 0.30092-0.45137 0.90274-0.3009 0.75228z" fill="#85c5e3" stroke="none" stroke-width=".67856px"/>
 <text x="115.1955" y="46.936691" fill="#000000" font-family="sans-serif" font-size="3.5278px" letter-spacing="0px" stroke-width=".26458" word-spacing="0px" style="line-height:1.25" xml:space="preserve"><tspan x="115.1955" y="46.936691" font-size="2.8222px" stroke-width=".26458">Sambhar salt lake</tspan></text>
</svg>
