<svg width="290.71mm" height="174.35mm" version="1.1" viewBox="0 0 290.7163 174.35097" xmlns="http://www.w3.org/2000/svg">
 <g fill="none">
  <g transform="translate(-1.679 -60.526)" stroke="#fff" stroke-width=".5">
   <path fill="#cc2" id="Jaisalmer" d="m26.988 144.68-0.23189 0.99586 2.5651 0.69958h1.6323l2.3319 1.3991 1.8655 0.93275 0.93273-0.93275 2.3319-0.69959 1.8655 1.1659 1.1659-1.1659 0.69956-1.1659 1.3991-0.23324 0.69956 1.6323h4.6637l2.3319-0.93276 1.8655-0.93275 1.3991-0.23319 1.6323 1.1659 0.46637 2.0986 1.1659 0.46638h1.8655l2.0986 0.23318 1.6323 2.7982 1.6323 2.3317 1.1659-1.3991v-1.8655l0.2332-1.3991 1.8655-1.3991v-1.1659l-1.8655-0.69953-1.6323-0.93276-1.3991-1.3991 1.1659-0.69955 2.0986-0.93275 2.5651-1.1659 2.3319-0.46639 1.6323-1.3991 0.69956-1.1659 1.3991-1.6323 0.69954-1.6323 2.3319 0.46635h3.7309l0.69956-1.1659 1.1659-1.166 1.1659-0.69956 0.93273 1.8655 0.93274 0.69955 0.69956-0.69955 1.3991-1.166h1.6323l1.1659 1.8655 0.46637 2.7982h1.8655l1.6323 0.93276 1.8655 1.6323 1.8655-0.4664 1.1659-1.1659 0.93274 1.1659 1.3991 2.0986 2.7983-0.23317v-0.69954l1.6323-0.69956 1.8655-0.23319v-0.93275l1.7238-1e-3 -0.85029-1.5305-0.85029-1.5305-0.17015-2.721 0.34011-1.8706 1.7006-1.1904-0.85027-2.2107-0.85029-1.3605-0.51015-1.5305 0.68022-1.1904 0.34011-1.3605-0.85029-1.8706 0.85029-1.0204 1.5305-1.3605-0.17015-2.2107-1.7006-2.5508-0.68023-2.0407-0.51017-2.3809 1.1904-0.85029-1.1904-2.0407h-2.0407l-1.0203-0.51018-1.0203-2.8909-1.1904-1.1904-2.5508-0.51018-1.7006-0.85027-0.85029-1.8706 1.0203-1.0204 0.85029-1.3605 0.51018-2.8909-0.51018-2.5508 0.85029-1.5305 1.5305-0.17015h1.3605l0.85027-2.0407 2.2107-0.34011 2.3809-1.0203 1.1904-0.68024 1.7006-0.34011 0.34011 1.5305s-0.85029 1.3605-0.17015 1.8706c0.68022 0.5102 2.2107 0.17015 2.2107 0.17015l0.68022 1.3605 0.17015 0.85027 1.5305-1.1904 1.0203-2.0407 1.3604-1.7006 1.7006-1.8706 0.17014-1.8706-1.1904-0.68022-2.2107 1.7006-2.2107-0.51018-1.0203-1.7006-1.3605-0.51016-1.3604-1.0204 1.0203-1.7006 0.34011-2.3808 0.17015-2.2107-1.1904-1.1904-0.85027-0.68022-1.0203-1.5305-2.5508-0.17015-1.7006 1.0204-1.7006 0.17015-1.1904-1.0204-0.85031-0.85029-0.89667 1.144-6.6785 1.2523h-7.0961l-6.6787-0.83485-4.5915 1.6697-5.8437 2.087-4.5916 2.922-4.5915 1.2523-3.7568-2.087-3.3394-2.9221-1.6697-5.8437-0.83483-3.3394-5.0089-2.922-5.4263 0.41743-5.4263 3.7567-2.5046 4.5916-3.7568 5.0089-3.3394 4.5916-2.5046 3.7567-2.087 2.5044-4.5916 4.1742-6.6785 3.3394-3.7568 2.087-1.2522 6.2611-1.2522 5.4263-2.087 3.3394 0.83483 4.1742 1.2522 2.922 1.6697 1.2523 4.5916 3.3394 3.3394 2.5046 2.5046 2.5044 2.5046-0.8348h3.7568l1.6697 0.41741 2.5046 1.2522 3.3394 2.5046 0.41742 5.009-0.41742 5.8437-2.922 3.7568z"/>
   <path fill="#e2b584" id="Barmer" d="m68.73 212.59-1.6697-2.386-2.087-4.1742-2.922-2.5044-2.087-3.7568-2.5046-5.009-4.1742-5.8437-2.087-5.4263-1.2522-6.6787-1.2522-5.0089v-3.3394l-4.1742-1.2523-5.4263-0.41741h-5.0089l-2.087-1.2522-0.83483-2.5044-2.5046-0.83486v-2.9218l-0.41742-2.087-2.922-3.3394-0.83483-6.2611 2.2727-1.926 2.5651 0.69956h1.6323l2.3319 1.3991 1.8655 0.93276 0.93273-0.93276 2.3319-0.69957 1.8655 1.1659 1.1659-1.1659 0.69956-1.1659 1.3991-0.23322 0.69956 1.6323h4.6637l2.3319-0.93275 1.8655-0.93277 1.3991-0.23316 1.6323 1.1659 0.46637 2.0986 1.1659 0.46639h1.8655l2.0986 0.23317 1.6323 2.7983 1.6323 2.3317 1.1659-1.3991v-1.8655l0.2332-1.3991 1.8655-1.3991v-1.1659l-1.8655-0.69954-1.6323-0.93276-1.3991-1.3991 1.1659-0.69956 2.0986-0.93274 2.5651-1.1659 2.3319-0.4664 1.6323-1.3991 0.69956-1.1659 1.3991-1.6323 0.69954-1.6323 2.3319 0.46634h3.7309l0.69956-1.1659 1.1659-1.1659 1.1659-0.69956 0.93274 1.8655 0.93273 0.69956 0.69956-0.69956 1.3991-1.1659h1.6323l1.1659 1.8655 0.46637 2.7982h1.8655l1.6323 0.93274 1.8655 1.6323 1.8655-0.4664 1.1659-1.1659 0.93274 1.1659 1.3991 2.0986 2.7982-0.23317v-0.69955l1.6323-0.69955 1.8655-0.23318v-0.93277l1.8655-0.23318 1.1659 0.46635 1.1659 1.8655 1.3991 2.0986 2.5651 1.1659 2.332-0.23317 1.8654-1.1659 1.6323 0.93273h1.3991l-0.2332-1.3991 1.166-1.6323h3.4977l2.0986 0.69954 2.0986 1.6323 1.1659 1.6323 0.46638 1.6323 0.23317 2.3319 0.23319 2.5651 0.69955 1.6323-1.6323 0.69953-2.0986 0.46636-0.23318 0.93276 2.3319 0.93273 2.7983 1.3991 1.8655 0.69957 1.3991 1.6323 1.3991 2.0986h-1.6323l-2.0986 0.4664v1.1659l-0.46637 2.3319-1.8655 1.8655-1.1659 1.3991-0.46639 1.3991-1.6323 0.69953-1.3991 0.2332-1.1659 1.3991-0.93276 2.332s-1.1659 1.1659-2.5651 1.1659c-1.3991 0-0.93273 1.6323-0.93273 1.6323l-0.69958 1.3991-2.0986-0.69959h-1.6323l-0.46637 1.6323-0.46639 0.69957-2.0986 0.23317-2.5651-0.23317-1.3991-1.6323-2.5651-1.1659-0.93274-0.69957-1.8655-1.3991-2.5651 1.1659v1.6323l-0.69956 1.1659-1.8655 0.93276-0.93273 1.6323 0.46638 2.0986-0.46638 1.1659-1.3991 0.46635-0.93273 1.6323-1.1659 1.8655-0.69956 2.5651-0.46636 2.0986h-1.6323l-1.6323 0.2332-0.93273 1.6323-0.93273 1.3991-2.3319-1.1659-2.3319-0.46638-0.46637 1.6323-0.93274-0.69956-1.6323-0.69956-2.3319 0.46639-3.0314 1.8655-0.46637 1.6323h-1.3991l-0.2332 1.6323 0.69956 0.69956-0.69956 1.3991-2.0986 1.3991-0.23319 3.0314-1.6323 1.8654-3.0314 0.93273z"/>
   <path fill="#a2c0a2" id="Jalore" d="m69.433 216.76 1.7347 1.8958 3.5261 0.20739h1.8668l2.2816 1.452 2.2816-1.452 3.1112-1.0371 3.7336 0.41481 2.2816 1.2445 1.6593 0.20762 2.6965-1.2445 2.904 1.6594 1.6594 0.41485 1.6593-1.8668 2.489 1.0371 1.8668-0.20762 2.0741-1.8668 2.489 1.4519 2.0741 1.6594 1.0667 0.1778 1.1853-1.1853 1.6297-1.4816 1.7779-1.7779 1.7779-1.4816 0.44446-1.926 0.88898-2.2223 1.1852-1.6297h2.3705l1.4816-0.44443 0.59262-2.6669 1.4816-2.6668 0.88894-1.6297 2.6669-1.1853 0.88893-2.0741 2.2223-2.0741 0.88893-3.1112 2.5187-1.926 0.59262-3.2594 2.3705-1.7779 2.0741-0.44446 1.6297 0.44446 1.6297 1.3334 0.74076 1.0371 0.29632-2.0741-0.44446-2.0741-1.6297-1.4815-0.29632-1.0371h2.0741l1.9261-1.0371 1.0371-1.4816 0.59262-2.815v-2.5187l-0.88894-2.3705-1.926-1.6297-2.6669-2.2223-1.1852-2.3705-1.4816-1.7778-0.22929-1.6394-1.6761-0.23125-2.0986 0.4664v1.1659l-0.46637 2.3319-1.8655 1.8655-1.1659 1.3991-0.4664 1.3991-1.6323 0.69958-1.3991 0.23317-1.166 1.3991-0.93273 2.332s-1.1659 1.1659-2.5651 1.1659c-1.3991 0-0.93273 1.6323-0.93273 1.6323l-0.69956 1.3991-2.0986-0.69955h-1.6323l-0.46639 1.6323-0.46637 0.69957-2.0986 0.23318-2.5651-0.23318-1.3991-1.6323-2.5651-1.1659-0.93274-0.69957-1.8654-1.3991-2.5651 1.1659v1.6323l-0.69956 1.166-1.8655 0.93274-0.93275 1.6323 0.4664 2.0986-0.4664 1.166-1.3991 0.46634-0.93273 1.6323-1.1659 1.8655-0.69956 2.5651-0.46637 2.0986h-1.6323l-1.6323 0.23321-0.93273 1.6323-0.93273 1.3991-2.3319-1.1659-2.3319-0.4664-0.46637 1.6323-0.93273-0.69955-1.6323-0.69958-2.3319 0.46641-3.0314 1.8655-0.46637 1.6323h-1.3991l-0.23319 1.6323 0.69956 0.69961-0.69956 1.3991-2.0986 1.3991-0.23319 3.0314-1.6323 1.8654-3.0314 0.93272-2.0986 1.1659 1.2522 0.95338z"/>
   <path fill="#f8f" id="Sirohi" d="m139.36 234.4 0.19274-1.7927 1.4816-2.2223 1.3334-1.7779 2.5187-1.0371 1.6297-1.1852 0.88892-0.29633-0.88892-1.6297 0.74075-2.5187 1.1852-2.6668 1.0371-2.9632 2.0741-2.815 1.4816-2.3705 1.7779-1.926-0.14818-1.926-1.3334-1.7779-2.9632-1.3334-2.0741-0.7408-1.1853-0.74076 1.1853-2.3705 2.6668-2.0741 1.4816-1.9261 0.44446-1.7779-0.59262-1.7779-1.0371-1.0371-1.4816 0.88894-1.1853 0.88895-1.1852 0.29631-0.74076-1.6297-1.3334-0.59264-0.59262-0.74078 1.1852-1.1853 0.74081-0.88892-0.59263-1.0371-1.6297-1.3334-1.6297-0.44447-2.0742 0.44447-2.3705 1.7779-0.59262 3.2594-2.5187 1.926-0.88895 3.1112-2.2223 2.0741-0.88897 2.0741-2.6668 1.1852-0.88894 1.6297-1.4816 2.6668-0.59264 2.6669-1.4816 0.44446h-2.3705l-1.1852 1.6297-0.88894 2.2223-0.44448 1.926-1.7779 1.4816-1.7779 1.7778-1.6297 1.4816-1.1852 1.1853 1.2149 0.23704 3.3186-0.20758 0.20754 2.6965s-0.62226 1.2445 0.41484 1.2445h2.6965v1.8667l0.82965 0.8297h2.2816l0.82966 2.0741 0.20754 2.2816 2.0741-1.8668-0.20754-2.2816 1.4519-0.62225 1.2445 1.6594h2.6965l1.8668 0.41481v3.1112l2.489 2.2816z"/>
   <path fill="#f0c2f0" id="Jodhpur" d="m185.57 140.85-0.42128-1.8255-2.1064-1.6851-2.1065-1.966-1.8255-0.84256-0.98299-1.6851-1.1234-2.6681-0.98299-3.6511-0.14031-2.5276-1.2638-2.8086-1.8256-1.966-2.1064-1.9659-3.0894-0.1403h-2.5278l-3.7916-0.1403-3.6511-1.5447-2.9489-1.5447-0.56173-1.8255 0.14031-2.6681-0.56172-2.5276-0.56168-3.5108v-2.247l0.14031-1.966v-2.2468l-0.28089-1.8255 0.28089-1.1234-2.2468-0.14031-1.966 0.70213-2.2468-0.28084-1.5447-0.98303-1.8255 0.28088-1.4042-1.6851-1.4043-1.8255-0.14031-1.2638 1.1234-1.5447-0.56173-1.4042-1.966 0.70211-0.42127 1.2638-1.5447 0.14031-1.1234-1.8255-1.6851-1.1234-2.5276-0.14031-2.3873 0.28086-1.2638 0.70215h-1.2638l-1.4043 0.14031-0.98299 0.98299-1.2638 0.70215-0.983 1.6851-0.70213 0.70213-1.4043-0.1403h-0.84254l-0.42129 1.2638-0.42129 0.98299-1.1234 0.28084-1.2638-1.5447-0.56172-0.42127-0.38005-0.94179-0.68022-1.3604s-1.5305 0.34011-2.2107-0.17015c-0.68024-0.51018 0.17015-1.8706 0.17015-1.8706l-0.34011-1.5305-1.7006 0.34009-1.1904 0.68022-2.3809 1.0204-2.2107 0.34013-0.85029 2.0407h-1.3604l-1.5305 0.17015-0.85028 1.5305 0.51016 2.5508-0.51016 2.8909-0.85029 1.3605-1.0203 1.0204 0.85029 1.8706 1.7006 0.85029 2.5508 0.51016 1.1904 1.1904 1.0203 2.8909 1.0203 0.51018h2.0407l1.1904 2.0407-1.1904 0.85031 0.51016 2.3809 0.68024 2.0407 1.7006 2.5508 0.17014 2.2107-1.5305 1.3604-0.85026 1.0203 0.85026 1.8706-0.34011 1.3604-0.68022 1.1904 0.51018 1.5305 0.85027 1.3604 0.85028 2.2107-1.7006 1.1904-0.34011 1.8707 0.17015 2.7209 0.85028 1.5305 0.92113 1.4146 1.2368 0.35044 1.1659 1.8655 1.3991 2.0986 2.5651 1.166 2.3319-0.23322 1.8655-1.1659 1.6323 0.93276h1.3991l-0.23317-1.3991 1.1659-1.6323h3.4977l2.0986 0.69954 2.0986 1.6323 1.1659 1.6323 0.46639 1.6323 0.23317 2.3317 0.23319 2.5651 0.69957 1.6323-1.6323 0.69955-2.0986 0.46637-0.23317 0.93277 2.3319 0.93272 2.7983 1.3991 1.8655 0.69957 1.3991 1.6323 0.82707 1.3837 0.2306 0.90436 1.9659-0.5617 1.8256-1.1234 1.5447-1.4043 1.5447-1.4043 1.4043-0.84257 0.42127-1.966 0.56172-1.2638 1.6851 0.84254 0.98296 0.8426h2.2468l0.14031-1.966 0.28086-1.5447 1.2638 0.28086 1.2638 1.4043 1.1234 1.1234h1.5447l1.4043-0.70214h1.5447l1.2638 1.1235 1.6851 1.4042 1.8256-0.1403 1.5447-1.6851 1.1234-1.5447 0.84254-1.1234 1.6851 0.70214 0.14031 1.6851 0.84257 2.1065 0.98299 0.42126 0.56169-0.98299 1.4043-0.28083 1.6851 0.98296 1.2639-0.1403 0.70213-1.6851-0.28085-0.98302-0.5617-1.966 0.5617-1.5447 0.84253-2.1065 0.70216-1.8255 0.28086-2.1064 0.28084-1.966z"/>
   <path fill="#abacda" id="Pali" d="m141.78 161.94 0.4445 1.926 1.4816 1.7779 1.1852 2.3705 2.6668 2.2223 1.926 1.6297 0.88895 2.3705v2.5187l-0.59262 2.815-1.0371 1.4816-1.9261 1.0371h-2.0741l0.29631 1.0371 1.6297 1.4815 0.44446 2.0741-0.44446 2.0741-0.74078 0.88892-1.1852 1.1853 0.59262 0.74078 1.3334 0.59264 0.74078 1.6297 1.1853-0.29631 1.1852-0.88895 1.4816-0.88894 1.0371 1.0371 0.59259 1.7779-0.44446 1.7779-1.4816 1.9261-2.6669 2.0741-1.1852 2.3705 1.1852 0.74078 2.0741 0.74081 2.9632 1.3334 1.3334 1.7779 0.14819 1.6297 1.6297-0.29632 0.74077-1.926 0.74077-2.2223 2.2223-1.0371h1.4816l0.59262-1.0371-0.14818-2.0741v-2.3705l0.88894-1.6297 0.44447-1.1852h1.4816l0.44449 0.59258 0.14817 1.1853 0.14818 1.7779-0.14818 2.0741 0.14818 2.0741 1.6297-1.6297 1.6297-0.88894 1.4816-1.0371 1.6298-1.4816-0.29633-1.4816 1.0371-2.0741 1.6297-1.1852 1.1853-1.1853 0.74081-2.9632 1.926-0.88894 0.88896-1.926 0.59259-1.6297 1.6297-1.7779 0.29631-2.9632 1.4816-2.3705 1.1852-1.926 1.1852-1.4816 1.9261 0.88891 1.7778 0.7408 0.88895-0.44447 0.29629-1.0371 0.14818-1.4816 0.88894-1.7779h1.926l0.44446-1.1853-0.59262-0.88891-1.0371-0.44446-0.14819-1.4816 1.6297-1.0371 1.9789 0.023 0.34139-1.8036 0.1403-1.2638 1.2638-2.3873 0.98296-0.84256 0.84255-0.70213 1.2639-1.2638v-2.3873l0.28086-2.1064 2.2468-0.5617h1.4043l0.7021-1.1234 0.8426-1.966 1.1234-2.1064-1.2638-0.28087-1.966 0.84256-1.8255-0.1403-0.14031-1.1234 1.2638-0.84251 0.98296-1.2638-0.84255-1.2639-0.56169-1.4043-0.28087-1.8256-0.98295-0.84254-0.983 0.28084-1.4043 0.98299-0.98298 0.98295-1.1234-0.84254-1.5447-2.6681-0.7021 0.56168 0.14031 1.6852-1.2638 1.6851-0.56171 0.42127-1.4043-0.98299-1.966-0.42127h-4.2127l-1.6851 1.4043-0.28086 1.966-0.28086 2.1064-0.70211 1.8255-0.8426 2.1065-0.5617 1.5447 0.5617 1.9659 0.28088 0.98301-0.70215 1.6851-1.2638 0.14031-1.6852-0.98296-1.4042 0.28083-0.5617 0.98302-0.98301-0.42129-0.84253-2.1065-0.14031-1.6851-1.6851-0.70212-0.84259 1.1234-1.1234 1.5447-1.5447 1.6851-1.8255 0.14031-1.6851-1.4042-1.2638-1.1234h-1.5447l-1.4043 0.70213h-1.5447l-1.1234-1.1234-1.2638-1.4042-1.2638-0.28086-0.28087 1.5447-0.1403 1.966h-2.2468l-0.98299-0.84255-1.6851-0.84258-0.56173 1.2639-0.42126 1.9659-1.4042 0.84256-1.5447 1.4043-1.5447 1.4043-1.8256 1.1234-1.966 0.56171"/>
  </g>
  <g stroke="#000">
   <g>
    <path d="m288.97 48.878-15.221 6.0037-4.9044 2.0294-7.1452 5.1581-4.0588 1.4375-4.0165 1.4375-5.454 0.88786-4.3125 0.25368-6.8915 3.1709v4.6084l-7.1875 6.8915-1.6912 1.7334-3.1709 3.4246-0.84556 1.7334-3.171 1.1415-0.59191 1.7335-1.4375 2.875-0.54962 1.1416h-1.4375l-1.7335-1.7334-2.0294 1.4375h-4.5662l-10.908 2.875-21.562 10.612-1.4375 0.59193-2.2831 0.59191-1.7334 2.579-3.4246-2.579-1.1838-3.171-6.2996-7.7794-1.1415-3.4246-4.6084-3.1709-6.2996 0.5919-2.6213 2.875-5.7077-0.88785-5.4963 2.3254h-2.2831l-5.4541 4.0166-2.579 1.4375-4.0165 0.29597-5.75-1.4375-4.3125 1.9871-3.7206-0.84558-3.7628 1.1415h-3.4246l-2.875 0.59192h-2.579l-2.579 1.1415h-5.454l-6.6378 6.2996" stroke-width=".5px"/>
    <path d="m288.96 48.889-8.9756-4.1138-11.968 1.4959-1.4959-2.2439-5.6098 1.4959-4.1138-4.1138-5.2358 1.4959-6.7317-1.4959v-4.1138l-1.4959-2.2024-7.0642 2.9503-7.1057-3.6983-2.6179 2.2439-4.8618-0.74797-2.2439 1.8284-4.1138-0.74797-4.8618-0.33243-4.4878 0.33243-3.3658-0.33243-2.2439-1.122-8.6017-2.2439-3.7398-1.8699-1.4959 1.4959-6.3162-0.74797-5.6098 2.6179-1.8699 2.5763-2.6179-0.70642-2.2439 1.8284-2.6179-2.9503h-1.122l-2.9919 2.2024-2.9919-1.8284-3.7399-0.74797-4.4878-1.8699-2.6179 2.2439-3.3659 1.122-3.7398 0.70642h-2.6179l-3.3658-0.37398-4.8202 0.37398-4.8618 1.8699-4.8618 2.2439-4.1138 1.122-4.8618 0.74797h-1.8699l-2.6179-0.37398-1.122 1.8699v4.1138l-4.4878-1.8699-2.6179-1.4959-1.8699-2.2439-3.3659-1.4959h-3.7398l-4.1138 0.37398-5.1942 1.8699-4.8618 1.8699-4.8618 1.8699-3.7398 1.122-1.8699-1.122-7.1057 1.122" stroke-width=".5px"/>
    <path d="m219.45 37.642-14.745 5.6622-11.857 6.1943-3.6103 1.5581-3.1162 1.026-3.8763 1.2921-3.0782 1.2921-1.5581 1.2921-1.5581 1.5581-1.2921 1.2921-2.3182 2.3181-3.3442 2.0521-2.8502 1.8241-4.6364 2.5841-5.7004 2.3181-4.1043 1.5581-3.1162 1.7861-1.5581 1.8241-0.49404 1.2921" stroke-width=".5px"/>
   </g>
   <path d="m170.59 111.51-0.94685 5.8969-5.6811 8.081-1.8937 5.4601-1.2625 2.6209-1.5781 1.092-0.63123 0.4368-7.8904-0.4368-1.8937-0.65522h-4.103l-2.2093-0.87362-2.5249-1.092-1.2625-0.21841-2.5249-0.21839-2.8406-0.43682-0.94685-0.21841h-4.103l-2.2093 1.3104h-3.7874" stroke-width=".5px"/>
   <path d="m158.65 134.91-2.4889 3.9847-4.3556 1.8975-2.4889 0.759-0.62222 2.0872-6.2223 3.4155-3.4222 3.9847-0.93334 2.0872" stroke-width=".5px"/>
   <path d="m170.59 111.51h-2.6072l-1.4484 0.40838h-3.1866l-2.6072 0.4084-2.8969 0.81677-3.1866 2.0419-2.6072 0.20419-2.0278 0.20419-2.6072 1.4294-2.6072 1.4294-1.7381 0.61258-0.86906 0.81678-1.4484 2.0419-0.86907 2.0419-1.4484 1.6336-1.7381 2.0419-1.1588 1.6336-0.57937 2.0419" stroke-width=".5px"/>
   <path d="m57.348 48.981 12.035 11.659 0.37609 3.3848-1.8804 4.8891 1.1283 2.6326 0.37609 2.6326 1.5044 1.8804-1.5044 5.2652v1.8804l3.0087 5.6413 4.137 7.5218 1.5043 5.6413 1.1283 8.274" stroke-width=".5px"/>
   <path d="m146.64 76.366 1.5904 2.4772 0.61059 3.867-0.61059 4.2741-0.56063 4.9765" stroke-width=".5px"/>
   <path d="m146.64 76.366-1.2529-1.672-0.53698-0.5016-1.9689-0.1672h-5.9068l-2.3269 1.5048-1.9689-1.3376-0.53698 0.3344-3.2219-3.344v-1.1704l-1.2529-0.33439-1.253-0.1672-1.074-2.1736-1.253-2.1736-1.9689-1.1704 0.35797-8.5271-0.35797-1.3376-1.074-0.50159-4.4748-1.3376-3.0429-0.66879-3.0429-0.6688-1.9689-0.50159-3.4008-1.5048" stroke-width=".5px"/>
   <path d="m122.3 132.26-0.11794 2.964v1.4247l-0.40705 1.8318-1e-5 2.0353 0.40706 1.4247h2.2388l1.8318 1.4247 0.61058 2.0353-0.40706 1.8318v2.0353l0.81412 0.40706 1.6282 0.20353h2.2388l2.8494 1.0176 1.8318 1.4247 2.3011 0.80895" stroke-width=".5px"/>
   <path d="m78.416 110.9h3.9891l0.79782 0.69445 2.7924 0.34723 1.5956-0.52083 0.66485 1.9098 1.1967 1.0417h1.4627l1.1967 1.3889 1.5956 0.34723 1.8616 3.4723 1.3297 0.69445 2.1275 1.7362 0.66485 2.6042 0.39891 1.0417 1.1967 2.4306 1.0638 0.34724 1.4627 1.2153 4.9199 2.0834 3.8562 1.3889 1.1967 1.0417h1.5956v-1.2153l0.39891-0.52084 3.4572-3.4723 0.9308 0.34723 2.1275 2.9514" stroke-width=".5px"/>
  </g>
 </g>
 <g fill-rule="evenodd" stroke-width=".38886">
  <ellipse cx="57.269" cy="48.619" rx="2.0516" ry="2.137"/>
  <ellipse cx="79.234" cy="110.59" rx="2.0516" ry="2.137"/>
  <ellipse cx="122.59" cy="132.37" rx="2.0516" ry="2.137"/>
  <ellipse cx="138.05" cy="153.13" rx="2.0516" ry="2.137"/>
  <ellipse cx="288.66" cy="48.924" rx="2.0516" ry="2.137"/>
  <ellipse cx="146.6" cy="76.197" rx="2.0516" ry="2.137"/>
  <ellipse cx="170.62" cy="111.41" rx="2.0516" ry="2.137"/>
 </g>
 <g fill="#000000" font-family="sans-serif" font-size="3.5278px" letter-spacing="0px" stroke-width=".26459" word-spacing="0px">
  <text x="276.04599" y="58.897133" style="line-height:1.25" xml:space="preserve"><tspan x="276.04599" y="58.897133" font-size="4.2334px" stroke-width=".26459">Jaipur</tspan></text>
  <text x="174.48535" y="113.03565" style="line-height:1.25" xml:space="preserve"><tspan x="174.48535" y="113.03565" font-size="4.2334px" stroke-width=".26459">Pali</tspan></text>
  <text x="151.89371" y="76.400566" style="line-height:1.25" xml:space="preserve"><tspan x="151.89371" y="76.400566" font-size="4.2334px" stroke-width=".26459">Jodhpur</tspan></text>
  <text x="143.14198" y="155.36957" style="line-height:1.25" xml:space="preserve"><tspan x="143.14198" y="155.36957" font-size="4.2334px" stroke-width=".26459">Sirohi</tspan></text>
  <text x="121.16093" y="125.85795" style="line-height:1.25" xml:space="preserve"><tspan x="121.16093" y="125.85795" font-size="4.2334px" stroke-width=".26459">Jalore</tspan></text>
  <text x="85.339951" y="108.76157" style="line-height:1.25" xml:space="preserve"><tspan x="85.339951" y="108.76157" font-size="4.2334px" stroke-width=".26459">Barmer</tspan></text>
  <text x="53.793064" y="42.614872" style="line-height:1.25" xml:space="preserve"><tspan x="53.793064" y="42.614872" font-size="4.2334px" stroke-width=".26459">Jaisalmer</tspan></text>
 </g>
</svg>
