<svg width="216.28mm" height="297.57mm" version="1.1" viewBox="0 0 216.28365 297.57127" xmlns="http://www.w3.org/2000/svg" xmlns:cc="http://creativecommons.org/ns#" xmlns:dc="http://purl.org/dc/elements/1.1/" xmlns:rdf="http://www.w3.org/1999/02/22-rdf-syntax-ns#">
 <metadata>
  <rdf:RDF>
   <cc:Work rdf:about="">
    <dc:format>image/svg+xml</dc:format>
    <dc:type rdf:resource="http://purl.org/dc/dcmitype/StillImage"/>
    <dc:title/>
   </cc:Work>
  </rdf:RDF>
 </metadata>
 <g fill="none" stroke="#000">
  <g transform="translate(-.94577 29.882)" stroke="#fff" stroke-width=".5">
   <path id="Udaipur" d="m118.79 218.52 0.24229-3.9969 0.24229-4.6028 0.24229-2.9069 2.1802-2.6647 0.24228-4.1182-1.4535-4.1182-1.4535-2.6647h-2.6648l-1.6957-0.72673-1.2112-1.6958-0.72673-4.3605-1.2112-2.6647-1.938-2.4225-2.6647-1.6957 0.24228-3.3913-1.2112-3.8759-1.6958-1.938-2.6647-0.72676-1.6958-1.2112v-1.4535l1.9379-1.4535-0.48446-2.907-1.938-3.3913-1.938-2.4225-1.6957-1.4535-4.3605-2.4225-4.1182-1.938-3.6336-1.938-3.1492-1.938h-2.4225l-2.6647 1.4535-1.938 0.72673h-1.6957l-1.6957 2.6647-0.48451 0.969-1.938 0.48451-2.6647-0.96902-1.6957-0.48449h-2.1802l-1.938 1.4535-2.1802 0.24229-2.1802-2.1802-2.4225-3.8759-1.938-3.6336-1.4535-3.3913-2.1802-2.907-1.4535-3.3914-0.96898-2.1802-0.24232-4.845v-3.3914l-0.24232-4.1182 0.24232-3.3914-0.24232-2.9069-0.24232-1.938-0.72673-0.9689h-2.4223l-0.72676 1.9379-1.4535 2.6647v3.8759l0.24222 3.3913-0.96898 1.6957h-2.4225l-3.6336 1.6958-1.2112 3.6336-1.2112 3.1492-2.6647 0.72675-2.907 3.3913-2.4225 3.8759-3.3913 4.6028-1.6957 4.8451-1.938 4.3605-1.2113 4.1182 1.4535 2.6647-1.4535 0.48451-2.6647 1.938-4.1182 1.6958-2.1802 2.907-2.4225 3.6336-0.31497 2.9312 2.7859-0.31481 4.409 2.374 2.7131-2.7132 1.6957-4.0698 3.3913-4.0697h3.3913l0.67827 5.7654 4.0697 1.6957 2.7132 1.6958-2.374 4.0697-4.0697 2.3739-2.0349 4.0698 2.374 4.409 3.0523 3.3913 2.374 1.0175 2.374 3.3913 0.33934 3.7305 4.409 0.67826 2.0349-4.0698 1.6957-3.3913 1.3566 3.0523 2.7131 1.6958 1.6957 2.374 0.3149 4.6028 2.0591 1.4051 5.087 1.6957 5.087 0.24228 5.087 1.4535 5.3293 1.4535 4.6028-1.2113 3.6336-1.4535 5.3293-0.96898 5.087 0.96898 2.9069 0.72675 1.4535-1.4535 2.4225-0.72676 2.4225 1.2112 0.96894 2.4225 1.4535 0.72675 1.2112 0.24229 1.6957 0.48448 1.938-0.48448 3.3914-0.48449 2.6647 2.9069 2.6584 1.5746 2.671-1.0901 2.4225 0.72676z" fill="#cc2"/>
   <path id="Dungarpur" d="m82.704 245.29-4.4089-2.0349-4.409 0.67827-2.374-2.0348-3.7306-0.3391-1.3566-2.3741h-3.0523l-1.6957-2.7132-4.7481-0.67826-3.3913-1.6957-3.0523-3.3913-3.3913-3.3914-2.0348-4.0697-7.4611-2.7131-0.33934-3.3914 0.6783-5.087 2.7131-2.7132 2.1413-2.0138 2.6067 0.89948 5.087 1.6957 5.087 0.24229 5.0874 1.4535 5.3293 1.4535 4.6028-1.2113 3.6336-1.4535 5.3293-0.96894 5.087 0.96894 2.9069 0.72673 1.4535-1.4534 2.4225-0.72673 2.4224 1.2112 0.96902 2.4225 1.4535 0.72669 1.2113 0.24228 1.6957 0.4845 1.9379-0.4845 3.3913-0.48448 2.6647 2.9069 2.4224 1.6958-3.8759 0.72668-3.6336 1.938-3.8759 1.938-2.4225 2.6647-5.5716 2.6647-0.48449 5.087v3.6336l-1.6957 2.6647-1.4535 2.6647-2.6647 1.6957z" fill="#abacda"/>
   <path id="Banswara" d="m135.06 230.48 0.45925-0.9395v-2.4224l0.48444-2.6647-0.72672-3.6336-1.6958-0.7267-2.1802-0.48453-5.087-1.6957h-3.8759l-4.1182 0.72673-3.3914-1.4534-2.4225-0.72672-2.9069 0.96894-3.8759 0.96897-3.6336 1.938-3.8759 1.938-2.4224 2.6647-5.5716 2.6647-0.48451 5.087v3.6336l-1.6957 2.6647-1.4535 2.6647-2.6647 1.6957-1.2112 1.938 0.67826 0.67826 0.67835 2.7132h3.3913l2.7132 2.374-1.6958 2.7131 1.6958 3.7305 4.409 0.3395h3.0523l1.3566 3.3913v3.3913l3.0523 2.7132 2.7131-3.3913 2.0349-0.67829 3.7305 2.0349 3.0524-0.33944 4.0697-3.0523 6.7827-2.0348 3.0524-3.3914-1.0174-4.0697-2.7132-0.67822-4.7482-2.374-1.6957-2.374 1.3566-6.1046 3.3913-1.6958 0.67828-3.0523 5.087-1.6957 4.4089-1.6957z" fill="#e2b584"/>
   <path id="Chittorgarh" d="m176.3 131.67 1.7379-2.1233 1.4598 2.0854 0.62564 1.2512h4.5879l2.5025-0.62563 2.294-0.41707 3.3367 0.41707 2.9196 1.2512h2.9196l2.294 1.0428 0.83421 2.0854v2.5025l2.294 1.8769 2.2939 1.0427 0.83417 2.7111 0.83415 1.8768v2.9197l-1.3123 0.46973-2.9849 0.28668-5.7654 4.7481-4.4089 3.0523h-4.409l-5.4262-2.0349-3.0523-1.6957-4.0697-2.0349-3.0523-0.67829h-4.4089l-3.0523-3.3913 0.3391-3.3914 3.0523-0.67827h3.7306l3.7305 0.67827 3.0523-1.3565 3.3914-0.67834-2.0349-3.0523-3.3913 0.33909-6.1046 1.0174-2.7132-2.374 1.3566-1.6958 2.374-1.0174 1.6957-2.0349zm-41.477 97.647 4.5099 1.384 4.7482-2.374 4.0698-3.7305-1.0174-4.7482-0.67831-3.7305 2.374-4.7481 1.0174-6.1046-1.0174-4.0698-3.7306-2.7132 0.33947-4.7481-0.33947-3.7306-2.3739-2.374h-3.3913l-2.7132-1.0174-0.3391-2.7132 2.7131-5.4262 2.0348-3.7305-3.0523-3.7306-4.7482-3.3913 0.67833-4.409 1.6957-4.0698 3.3913-4.7482 4.7482-1.6957 5.087 2.7132 5.087-0.67833 2.7132-3.7305-2.0348-4.0697-3.7306-0.67834h-4.4089l-2.7132-1.0174-1.6957-5.4262v-3.0523l4.7482-0.33943 3.0523 3.0523 2.374 2.0349 3.3914-0.33947 3.3913-0.67826 2.374-4.409 4.0698-2.7132 0.33909-2.7131 1.6958-3.0523 3.1491-0.0485v-1.938l-0.24229-1.4535-0.72671-3.1492-2.907-1.2112-3.1492-0.96898-1.938 1.4534-1.938 1.6957-1.938-0.24228-3.1492-1.4535-2.907-0.24229-2.1802-1.938-2.1802-2.4225-2.6647-0.96905-2.4224 1.4535-0.96901 2.1802h-2.4225l-1.6957-2.1802 2.1802-1.2112-0.72673-2.1802h-2.6648l-2.1802 0.24229-1.938 1.6957-1.938 2.1803-3.1492 0.72669-2.9069-0.24229-2.907-2.1802-2.1802-1.9379-2.1802 0.4845-2.1802 1.6957-1.938-0.72676-2.1802-1.2112-2.907 1.938-0.96899 2.907-0.24229 3.3913-3.1492 1.2112-1.4535 2.1802 0.96901 2.907 1.938 1.938-2.1802 2.6647-0.72673 2.6647v3.8759l-1.6957 1.938 1.6957 1.6957v2.6648l-0.96901 4.6028-1.6957 4.1182-1.938 2.6646 1.464 1.6136 0.95844 1.0511 1.938 3.3914 0.48447 2.907-1.938 1.4535v1.4535l1.6957 1.2112 2.6647 0.72676 1.6957 1.938 1.2113 3.8759-0.24229 3.3914 2.6647 1.6957 1.938 2.4225 1.2113 2.6647 0.72669 4.3605 1.2113 1.6957 1.6957 0.72671h2.6647l1.4535 2.6647 1.4535 4.1182-0.24229 4.1182-2.1802 2.6647-0.24229 2.907-0.24229 4.6028 0.24229 3.8759 3.1492-0.48451h3.8759l5.087 1.6957 2.1802 0.48451 1.6957 0.72673 0.72678 3.6336-0.48451 2.6647-0.6825 2.2013z" fill="#f2c0f2"/>
   <path id="Rajsamand" d="m97.241 156.98-1.4535-1.3324-4.3605-2.4225-4.1182-1.938-3.6336-1.938-3.1492-1.938h-2.4225l-2.6647 1.4535-1.938 0.72672h-1.6957l-1.6957 2.6647-0.4845 0.96901-1.938 0.48451-2.6647-0.96901-1.6957-0.48451h-2.1802l-1.938 1.4535-2.1802 0.24228-2.1802-2.1802-2.4225-3.8759-1.938-3.6337-1.4535-3.3913-2.1802-2.907-1.4535-3.3913-0.96898-2.1802-0.24232-4.8451v-3.7549l2.6648-3.0281 2.6647-1.4535 2.4225-1.6958 2.6647-2.4224-0.48451-2.4224 1.6957-3.3914 2.6647-1.938 1.938-1.938 1.2112-4.8451 3.1492-1.4535 1.4535-3.1492 0.969-2.6647 2.6647-2.907 0.48451-4.8451 2.4224-3.8759 1.938-3.1492 1.938-2.4225 3.1492 1.4535 2.9069 1.2113 1.4535-0.72677 0.48451-1.6957 0.24229-2.4225 1.4535-2.907h3.1492l0.7268-1.938-0.96902-1.4535-1.6957-0.72673-0.24229-2.4225 2.6647-1.6958h2.907l2.4225 0.969 2.1802-0.24229 1.4535-1.2113 1.4535-1.938 1.938-1.4534 0.72672 1.2112 2.4225-0.48449v-2.1802l0.72673-2.6647 2.4225-1.4535 1.6958 1.4535-0.48451 1.938-1.4535 3.1492-1.938 3.1493-2.907 1.2112s-2.4225 1.6957-3.3914 1.938c-0.96898 0.24229-1.938 1.2112-1.938 1.2112v2.1802l-0.48447 2.907-1.4535 0.96898-3.3913 0.96898-2.4225 1.2112v3.1492l0.96892 1.938 0.72678 1.2112-0.48451 1.4535-2.1802 1.6957v2.1802l0.96902 2.6647v1.4535l-0.96902 1.6957-1.938 0.96898-1.2113 1.2112 0.96902 1.2112 0.24229 2.1802-0.48444 1.4535-2.1802 1.2112-0.48451 2.1802 0.96902 1.2112v2.6647l0.48451 2.907 0.48443 1.6957 1.4535 0.24228 1.6957 0.96899v2.6647l-1.938 1.2112 0.24229 2.1802 1.4535 1.4535 2.6647 0.72676 1.2112 1.6957 0.48451 1.938 2.1802 1.4534 2.6647 1.4535 1.938 0.24229 1.938-0.12092 2.1802 1.8168-2.1802 2.6647-0.72673 2.6647v3.8759l-1.6957 1.938 1.6957 1.6957v2.6647l-0.96899 4.6028-1.6957 4.1182z" fill="#c2f0c2"/>
  </g>
  <g stroke-width=".5px">
   <path d="m213.5 3.1828-31.206 11.393-8.4206 7.43-7.9253 2.972-6.9347 2.4766-6.4393 1.9813-5.944-0.99067-11.888 6.4393v1.9813l0.99068 4.458-9.9066 8.916-1.486 0.99064-3.4673 2.4767-3.4673 5.4486-0.49531 0.99067-5.944 3.4673-2.972 5.944-10.402 14.86-6.4393 4.9533 0.99067 4.458-0.99067 4.458-2.972 3.4673-1.9813 2.972-6.9346 2.972-2.972 4.458-2.4767 6.4393-0.99067 1.486-3.9627 4.9533-0.99067 5.4487 1.9813 5.944 2.972 4.9533 1.9813 6.4393 0.49534 4.458-2.972 8.4207 0.99067 1.9813-4.9533 4.9533-0.99067 3.9626v4.458l-1.486 5.944-1.486 1.486-0.99064 3.9627v3.9626l-2.4767 3.4673-1.9813 2.4767 1.486 1.486-2.972 3.9627v3.4673l1.486 1.486 2.972 2.4766v5.4486l1.486 1.486-0.99067 3.4673v11.393l-6.9346 3.9627v2.972l8.916 8.4206"/>
   <path d="m146.71 28.632-9.6521 12.41-1.3789 5.9751 0.91928 2.7577-3.677 3.2174 0.45961 5.9751-5.0558 13.789-1.3789 4.5962 0.45963 2.7578-1.3789 5.0558v4.1366l1.8385 1.8385-2.7578 7.354-0.45961 7.8136v5.5155l1.3788 3.2174-2.7577 3.677-0.45963 3.2174v1.3789l1.3789 3.2174 3.2174 2.2981-1.8385 5.5155v5.9751l1.3789 4.5963 0.91927 3.677-0.45964 2.2981-0.91925 4.5962 1.3789 6.4348-0.45964 1.8385v3.2174l2.2981 2.7577 0.91925 3.2174-0.91925 3.2174v4.1366l-0.45963 2.2981 1.8385 3.2173 1.3788 6.8944 3.2174 2.2982v1.3788l-4.1366 8.2732 6.4347 14.708-3.677 2.7577-0.91927 3.677-0.91924 3.2174-2.2981 3.677-2.2981 1.3789h-4.1366l-11.491 5.5154-1.8385 3.2174 3.2174 10.112"/>
   <path d="m65.887 182 4.5514 1.2872 2.2757 0.85813 3.6411 0.42906 2.7309 1.7162 2.2757 3.4325v3.0034l1.3654 1.2872 5.0066 2.5744-2.2757 3.4325 0.45512 2.5744 2.7308 0.42906 0.91029 3.8616-4.0962 3.0034 2.2757 3.0034-1.8206 2.1453v2.1453l3.6411 1.7162 0.45514 2.5744-1.3654 4.7197 4.5514 4.2906 2.2757 5.5778 4.5514 2.1453 0.91029 5.5778 10.923 9.4394"/>
   <path d="m66.873 182.46 5.3886-2.9392 3.4291-2.4494 1.4696-3.4291 1.4696-0.48987 2.9392-4.8987 6.3683 1.4696 2.4493-2.9392 4.4088-0.97974h1.9595l3.4291-1.9595 2.9392-1.9595 2.9392 0.48987 9.3075-3.919 4.4088-0.48987 7.838 3.4291"/>
   <path d="m64.401 247.38 8.2633 2.5299 3.2463-0.27167 5.076 1.4602h3.1873l3.7185 0.79801 5.0761-0.52635v1.0527l0.94438 0.13583 2.7151-0.66218 2.3019-0.13583 2.7741 0.66218 2.302 0.79801h7.8502"/>
   <path d="m81.358 168.14-6.9439-12.779"/>
  </g>
 </g>
 <g fill-rule="evenodd" stroke-width=".3432">
  <ellipse cx="213.59" cy="2.7098" rx="2.6985" ry="2.7119"/>
  <ellipse cx="112.84" cy="253.66" rx="2.6985" ry="2.7119"/>
  <ellipse cx="64.397" cy="247.76" rx="2.6985" ry="2.7119"/>
  <ellipse cx="65.008" cy="183.85" rx="2.6985" ry="2.7119"/>
  <ellipse cx="74.777" cy="148.64" rx="2.6985" ry="2.7119"/>
  <ellipse cx="127.08" cy="156.98" rx="2.6985" ry="2.7119"/>
 </g>
 <g font-family="sans-serif" font-size="3.5279px" letter-spacing="0px" stroke-width=".26459" word-spacing="0px">
  <text x="200.68188" y="13.905322" style="line-height:1.25" xml:space="preserve"><tspan x="200.68188" y="13.905322" font-size="4.2334px" stroke-width=".26459">Jaipur</tspan></text>
  <text x="132.62263" y="157.04578" style="line-height:1.25" xml:space="preserve"><tspan x="132.62263" y="157.04578" font-size="4.2334px" stroke-width=".26459">Chittorgarh</tspan></text>
  <text x="48.088734" y="154.07494" style="line-height:1.25" xml:space="preserve"><tspan x="48.088734" y="154.07494" font-size="4.2334px" stroke-width=".26459">Rajsamand</tspan></text>
  <text x="43.497437" y="188.6447" style="line-height:1.25" xml:space="preserve"><tspan x="43.497437" y="188.6447" font-size="4.2334px" stroke-width=".26459">Udaipur</tspan></text>
  <text x="60.242168" y="254.00317" style="line-height:1.25" xml:space="preserve"><tspan x="60.242168" y="254.00317" font-size="4.2334px" stroke-width=".26459">Dungarpur</tspan></text>
  <text x="105.07484" y="260.7551" style="line-height:1.25" xml:space="preserve"><tspan x="105.07484" y="260.7551" font-size="4.2334px" stroke-width=".26459">Banswara</tspan></text>
 </g>
 <path d="m32.294 157.09-0.81627 2.993 2.1767 0.54419-2.1767 3.2651-2.1767 3.2651-2.993 2.993h2.1767l4.0812-0.27216-3.5371 3.2651-3.5371 1.6325-1.3604 0.27215-1.6325 2.1767-1.6325 2.1767 2.1767 4.0812-3.5371 2.993-3.2651 3.2651-1.3604 2.1767 2.4488 1.9046 4.6255 0.54417v-4.6255l0.27207-1.6326 1.9046-1.6326v2.993l-0.27207 2.4488v1.9046l-0.81624 3.8094 0.54416 4.3534-1.6326 2.1767-0.81627 1.3605-3.8094 0.27216-2.993 4.0812 4.3533 2.7209v3.2651l-4.6255-1.9046 1.3604 2.4488v2.4488l2.7209 3.2651v2.1767l-1.3604 2.993 1.3604 2.993-1.6325 7.0742 3.8094 0.54414-0.54419 2.993 4.0812 4.3533 0.81627 5.9859 1.9046-4.0812 0.81628-4.0812 1.6326-5.1698 5.4416-3.8094 0.5442-1.3604-1.3604-1.9046-2.993-0.54418v-2.4488l0.54416-1.3604 0.81628-2.1767 2.7209-0.81626-0.54416-7.6185-2.4488-0.54415-0.27208-2.4488v-2.7209l0.5442-2.9929-1.0884-1.9046 0.54416-3.5372 0.81628-3.5371v-0.5442l1.0884-2.993 2.1767-0.54415 2.4488 4.8976-0.27207-3.2651 0.81628-4.3533v-2.1767l2.4488 2.7209v-13.06h-2.7209l-1.0884 3.5372-1.0884 4.8977 0.27208 2.993-2.7209 0.54418v-4.8977h-1.6325v-7.6184l1.9046-4.3533 2.4488-2.4488 1.3604-0.81626h0.81627l-1.3604 3.8094 0.81627 2.7209 3.8094-1.6326 3.2651-6.5302v-0.54421l-6.258-3.2651 0.08931-3.812-3.092-0.88345 0.44171-3.5337z" fill="green" stroke-width=".86798px"/>
 <text x="34.768147" y="204.42075" fill="#000000" font-family="sans-serif" font-size="3.5278px" letter-spacing="0px" stroke-width=".26459" word-spacing="0px" style="line-height:1.25" xml:space="preserve"><tspan x="34.768147" y="204.42075" stroke-width=".26459">Hill forest</tspan></text>
 <path d="m191.35 164.45 0.2214 5.9755v1.9919l-1.5492 1.1066-2.6558 0.66396-1.5492 0.66393-5.9755 2.4345h-1.1066l-2.8771-0.88524 0.66393 1.9918 1.9918 1.5492h2.6558l3.7624-0.66393 2.2131-0.44264-0.2214-1.7705 2.2132 0.66393h1.7705l2.8771 1.9919 1.7705-2.2132 2.2132-1.9918-0.88529-0.88526-1.1065-3.541-0.88528-3.0984-0.66386-1.7705z" fill="#85c5e3" stroke="none" stroke-width=".7569px"/>
 <text x="178.22357" y="185.53336" fill="#000000" font-family="sans-serif" font-size="3.5278px" letter-spacing="0px" stroke-width=".26459" word-spacing="0px" style="line-height:1.25" xml:space="preserve"><tspan x="178.22357" y="185.53336" font-size="2.8223px" stroke-width=".26459">Rana Pratap Sagar</tspan></text>
</svg>
