<svg width="240.12mm" height="216.72mm" version="1.1" viewBox="0 0 240.11875 216.71739" xmlns="http://www.w3.org/2000/svg" xmlns:cc="http://creativecommons.org/ns#" xmlns:dc="http://purl.org/dc/elements/1.1/" xmlns:rdf="http://www.w3.org/1999/02/22-rdf-syntax-ns#">
 <metadata>
  <rdf:RDF>
   <cc:Work rdf:about="">
    <dc:format>image/svg+xml</dc:format>
    <dc:type rdf:resource="http://purl.org/dc/dcmitype/StillImage"/>
    <dc:title/>
   </cc:Work>
  </rdf:RDF>
 </metadata>
 <g fill="none" stroke="#000">
  <g transform="translate(-1.092 -51.886)" stroke="#fff" stroke-width=".5">
   <path fill="#cc2" id="Churu" d="m208.38 150.28-1.2556-4.9095 1.0817-4.5971-0.27066-3.5155-2.9746-2.7041-0.54079-3.786 1.6225-3.786v-2.4338l-2.8722-1.0044-1.9618 0.98089-2.9427-1.2261-1.2261 1.4714-0.98087 2.207-1.4714-0.73571-1.9619-2.6975h-1.4713l-1.9618 1.9618-1.9618 3.4331-1.2262 1.2261-3.1881 0.24533-3.188 0.24533h-2.207l-0.73566-1.2261 1.2261-1.2261v-2.207l-1.7166-0.24535-1.2262 0.49047-2.4522 0.49042-2.6974-0.49042-2.6975-1.2261h-2.6975l-3.4331 0.49046v1.2261l1.4714 1.9618 1.4714 3.4331h-3.4331l-1.2262-1.2261h-2.2069l-1.9618 0.49046-1.7165 1.9618h-5.395l-1.9618-0.24535-3.6785-2.207-0.98091-1.4713-2.6975 0.24535-2.4523 2.4522-1.4714 0.49048h-7.3569l-1.4713 1.7166 0.98091 1.4713 0.98089 2.207-1.4713 1.2261-2.207 0.98089-1.7166 1.9618 0.73566 1.9618 1.2261 0.49042-0.73568 1.9618-0.98092 2.4523-1.7166 3.1878-0.73568 3.4331 0.73568 2.207 0.73566 1.9618v2.207l-1.9618 1.2261h-1.7166l-1.9618 0.98092-2.4523 1.4713-1.4714 0.49044-2.6975-1.7166-1.9618-0.73568-1.7166-0.49044-1.4714 0.98092-1.4714 2.4522 0.24534 3.9235-1.7166 1.4713-1.7166 1.4714-1.4714 1.9618 0.98094 2.6975 1.2261 2.2071 0.49046 2.6975 0.73567 1.9618 2.207 1.4713 1.4714 0.24533 2.6975 1.4714 1.7166 2.207v1.9618l-0.24534 3.188-0.24533 2.9427v2.207l0.24533 3.188 1.2261 2.4522 0.73571 1.9618-0.24533 3.188-1.8596 1.1601 0.34452 0.96297 2.1768 0.72561 1.814-0.36284 1.9953-1.2698 1.6326 0.36281s1.2698-0.18156 2.1768 0.72559c0.90699 0.90699 2.7209 2.3582 2.7209 2.3582l1.2698 1.6326 1.6326 1.6326 2.1768 0.36278 1.814-1.4512v-2.3582l-0.54419-0.90699-0.18158-1.814s1.2698-0.5442 1.6326-1.4512c0.36282-0.90695 0.72561-2.9024 0.72561-2.9024l1.2698-2.3582 1.814-1.6326 2.7209-1.2698 2.7209-0.72562 3.2653 0.18158 1.6326 0.36281h2.1768l1.4512 0.72561 1.2698 0.18158 0.90699-2.5396 1.814-1.0884h1.0884l-0.18158 2.7211 1.2698 1.6326h1.4512l2.543-1.0548-3e-3 -2.9359 0.36284-2.1768 1.814-1.4512 1.4512-1.6326-0.54419-2.9024-1.4512-1.4512 1.9954-1.6326 1.0884 0.36279 2.3581-0.90698-0.90698-1.6326-1.6326-1.2698-0.18156-1.9954v-2.7209l0.36284-2.9025 0.18156-1.9954 2.5396-0.90699 0.90699-1.814 1.6326-1.6326 1.6326-1.2698 2.3582-0.36282 2.1768-0.18157 1.567-0.1295 0.32756-1.9937 1.6998-1.5453 2.1634-0.77262 1.3907 0.61806 1.8543-0.92712-0.77265-2.9359-0.61809-3.0905 0.46359-1.5453 1.6997-0.61813 1.2362 0.92718s0 0.92713 0.61809 0.92713c0.61813 0 1.2362-1.2362 1.2362-1.2362l0.61808-2.627 0.61813-1.0817h2.3179l1.5453 0.77265-0.4636 2.3179 0.4636 2.0088 1.5452 1.5452 1.3907 0.15456 1.5453-1.0817 1.0817-1.0817 2.3179-0.7726 0.15456 1.8543-0.46355 1.3907 2.6269 0.46361 0.77264-1.8543 1.5452-2.0088 1.6998-1.2362 1.3908-2.0089 0.61812-2.4724 0.0965-2.3918z"/>
   <path fill="#f0c2f0" id="Hanumangarh" d="m134.56 65.971 0.62985-0.38459h7.5717l6.2196 0.54082h4.5971l5.4085 0.54082-0.54085 1.6225-2.1634 1.6225-4.0562 2.4338-1.6225 1.6225-1.6226 1.6225 0.81129 2.9746 3.786-0.54085 2.4338 0.27057-0.27038 2.9746-1.0817 3.2451 0.81123 4.0562 0.27067 4.3267-2.9746 1.8929 0.27069 2.9746 1.3521 1.6225 0.81123 2.4337 1.8929 0.81126 1.6225-2.4338 1.8929 0.81126h2.7041l2.4338 0.81126 1.8929-2.9746 2.4338 0.81126 2.7041 1.3521 1.352 2.1633 1.0817 2.7041 1.3521 1.6225h2.4338l2.9746 1.3521 1.3521 1.3521 1.6225-0.81125 2.4338-0.54083h2.1634l2.4338 0.27058 2.1634-1.0817 2.1634-0.27058 4.3267 1.6225-0.81129 4.5971-0.54078 3.786 1.0816 3.2451 1.6225 1.6225 1.1842 0.88851-1.9618 0.98089-2.9427-1.2261-1.2261 1.4714-0.98089 2.207-1.4713-0.73569-1.9618-2.6975h-1.4714l-1.9618 1.9618-1.9618 3.4331-1.2261 1.2261-3.1881 0.24533-3.188 0.24533h-2.207l-0.73568-1.2261 1.2261-1.2262v-2.207l-1.7166-0.24534-1.2262 0.49047-2.4522 0.49045-2.6974-0.49045-2.6975-1.2261h-2.6975l-3.4331 0.49047v1.2261l1.4714 1.9618 1.4714 3.4331h-3.4331l-1.2261-1.2261h-2.2075l-1.9618 0.49045-1.7166 1.9618h-5.395l-1.9618-0.24533-3.6784-2.207-0.98089-1.4714-2.6975 0.24534-2.4522 2.4522-1.4714 0.49043h-7.3569l-1.9173 1.594-2.2516-0.85831h-1.9618l-1.4714-1.2261 3.188-2.6975 1.2261-3.4331-1.4714-3.1878-0.71974-1.0414 0.96497-3.3726 1.4714-3.4331 2.4522-2.207v-2.9427l-1.4714-3.4331-3.9235-1.9618-2.207-1.2261-2.207-1.4713-0.24507-2.207 1.7165-1.9618-1.4713-3.4331h-2.9427l-1.9618-0.73571 0.49043-2.6975-1.4713-3.4331-3.1881-2.9427-0.24533-2.4523 2.6975-0.49046 4.6593-1.4713 4.6592-1.7166 3.9235-1.9618 2.9427-1.7166 3.188-3.188 2.6975-2.9427z"/>
   <path fill="#a2c0a2" id="Sri Ganganagar" d="m134.8 65.96-2.8311 3.0721-2.1348 2.2675-3.188 3.188-2.9427 1.7166-3.9235 1.9618-4.6593 1.7166-4.6592 1.4713-2.6975 0.49046 0.24534 2.4523 3.188 2.9427 1.4714 3.4331-0.49046 2.6975 1.9618 0.73566h2.9427l1.4714 3.4331-1.7166 1.9618 0.24533 2.2071 2.2071 1.4714 2.207 1.2261 3.9235 1.9618 1.4713 3.4331v2.9427l-2.4523 2.207-1.4713 3.4331-1.1035 3.1881-1.594-1.4714h-0.98089l-1.2261 1.4714 0.98086 1.9618-0.49048 1.4713-1.2261 0.98089h-0.73566l-0.98091-2.6975-0.73566-1.2261-2.207 0.98089-1.2261 0.73569-1.7166-0.49046-0.98092-2.207-2.207-2.207-1.7166-1.2261h-7.8473l-1.7166 0.49045-3.188 0.24507h-10.3l-2.9427 1.7166-0.73569 2.2071-2.9427 0.73568-1.2261 0.98089v1.9618l-0.73569 2.6975-1.4714 1.4714-0.73569 1.4713-1.4714 0.98086-0.49046 1.7166 0.24518 2.2071 0.73569 1.9618-0.49046 2.207-2.207 1.2261-3.4331 0.49045-1.9618 1.2262-2.9427 0.24533h-3.188l-2.9427-0.24533-3.4331-1.4714-2.4522-2.207-2.4522-0.98089-0.73569-1.4713-1.4713-2.6975 4.8106-2.7511 5.9862-2.7209 5.9862-3.8095 5.442-3.8095 3.8095-7.6187 3.2653-5.442 3.8095-5.9862 4.3537-7.0745 1.6326-5.9862 3.8092-8.1629 1.6326-4.3536-0.54423-7.6187 4.3537-3.8095 5.9862-1.0884h11.972l1.6326-4.8978 4.8978-4.8978 3.2888-2.4506 0.27041 1.893-0.27041 2.4338-0.27065 3.245 0.54082 2.9746h2.9746l5.138 1.6225 4.8676 0.81126z"/>
   <path fill="#abacda" id="Bikaner" d="m109.38 212.58 1.8291-1.0078 0.24534-3.1881-0.73569-1.9618-1.2261-2.4522-0.24534-3.188v-2.207l0.24534-2.9427 0.24533-3.1881v-1.9618l-1.7166-2.207-2.6975-1.4714-1.4714-0.24535-2.207-1.4713-0.73566-1.9618-0.49045-2.6975-1.2261-2.207-0.98092-2.6975 1.4714-1.9618 1.7166-1.4713 1.7166-1.4714-0.24533-3.9235 1.4714-2.4522 1.4714-0.98092 1.7165 0.49042 1.9618 0.73572 2.6975 1.7166 1.4713-0.49042 2.4523-1.4714 1.9618-0.98092h1.7166l1.9618-1.2262v-2.207l-0.73565-1.9618-0.73569-2.207 0.73569-3.4331 1.7165-3.1881 0.98089-2.4523 0.73569-1.9618-1.2262-0.49044-0.73566-1.9618 1.7166-1.9618 2.207-0.98089 1.4713-1.2261-0.98088-2.207-1.2261-1.7166-2.4523-0.73563h-1.9618l-1.4714-1.2262 3.1878-2.6975 1.2261-3.4331-1.4713-3.188-1.2261-1.2261-1.2261-1.4714h-0.98089l-1.2261 1.4714 0.98089 1.9618-0.49049 1.4714-1.2261 0.98087h-0.73566l-0.98094-2.6974-0.73566-1.2261-2.207 0.98089-1.2261 0.73568-1.7166-0.49045-0.98089-2.207-2.207-2.207-1.7166-1.2261h-7.8473l-1.7166 0.49046-3.1878 0.24506h-10.3l-2.9427 1.7166-0.7357 2.2071-2.9427 0.73569-1.2261 0.98089v1.9618l-0.73569 2.6975-1.4714 1.4714-0.73569 1.4713-1.4714 0.98086-0.49046 1.7166 0.24518 2.207 0.73566 1.9618-0.49046 2.207-2.207 1.2261-3.4331 0.49046-1.9618 1.2261-2.9427 0.24535h-3.188l-2.9427-0.24535-3.4331-1.4714-2.4522-2.207-2.4522-0.98088-0.73569-1.4714-1.4713-2.6975-2.8084 1.6024-4.8978 1.6326-3.8095 2.1768-4.3537 6.5304-3.2653 4.8978v3.2653l-0.5442 4.8979-1.6326 3.2653-4.3537 2.1768-7.0745 3.265-2.1768 6.5304-1.6326 7.6187-2.8722 2.9578-1.4008 0.99267 1.1086 1.1086 1.552 1.3302 2.2171-0.22183 2.2171-1.3302 3.3256 0.22183 1.3303 1.9954 1.1085 0.88683 1.552 1.552-0.22186 2.8822-0.44342 3.104-1.3303 2.2171 1.7737 1.3303 1.7737 0.66514 1.3303 2.2171 2.8822 0.66511 2.8822-2.2171 1.552 0.88689-0.22186 2.4388-2.2171 2.4388-1.7737 2.2171-1.3303 2.6605-1.7216 1.6713 0.73234 0.54919 1.6477 2.0139 1.4646-0.36618 0.54923-1.2815 0.54925-1.6478h1.0985l1.8308 0.18293 0.91542-0.91543 1.2816-2.197 1.6477-0.91539 1.2816-1.2815 1.8308-0.18293h1.6477l1.6477-0.9154 3.1124-0.36617 3.2953 0.18293 2.197 1.4647 1.4646 2.38 2.0139-0.18293 0.54923-1.6477 2.5631-0.91542 0.73234 1.8308-1.4646 2.0139 0.18298 1.6477 1.8308 2.38 1.8308 2.197 2.38-0.36617 2.0139 1.2816 2.9292 0.36617 2.5631-0.9154 2.9292 0.18292-0.36617 1.4647 0.36617 2.38 0.08041 2.6253 2.1768 0.36278 1.4512-0.18156h2.1768l1.6326 1.2698 0.18146 1.9954 1.9954 1.9954 0.36282 1.6326 1.0884 1.2698 0.90702-1.6326v-3.0838l0.5442-1.6326 2.1768-1.4512 2.1768-0.90696 2.3582-1.2698 0.36282-1.9954 1.814-1.2698-0.18157-2.5396v-3.0838l-0.18157-1.4512 0.72561-1.2698 2.3582 0.18157 1.814 0.36282 0.90697-1.4512-0.18157-1.6326 0.90699-0.72557 1.0884 1.0884 1.6326 0.72557 1.4512 1.2698h1.4512l1.6326 0.36281 1.2698 1.0884s0.72562 0.36276 1.4512 0c0.72564-0.36284 1.814-0.90705 1.814-0.90705l0.90699-1.0884 0.95571 0.15456z"/>
  </g>
  <g>
   <path d="m238.53 215.67-0.49813-7.4721-2.4907-9.4647 1.4944-2.4907-7.9703-6.4759-2.9888-7.4721-15.941-8.9665 0.49814-2.9889h-3.9851l-5.9777-4.9814-3.9851 1.4944-4.4833-4.4832 0.49817-6.4758-1.9926-3.487-0.99627-2.4907-2.4907-2.9889-2.4907-7.4721v-4.4833l-6.974-5.4796-5.4795 0.49816-2.4907-0.99629-10.461-0.49814-8.4684 2.4907-5.9777-1.4944-8.9666-1.9926-4.9814 1.4944-3.9851-1.9925-13.45-0.99631h-3.487l-3.487-0.49815-7.9703 1.9926-2.9888 0.49815-4.4833-0.49815-4.9814 0.49815-14.446 3.487" stroke-width=".5px"/>
   <path d="m141.71 39.69v3.0885l2.059 6.3829v2.6767l2.059 5.9711-2.2649 2.8826-1.8531 3.0885-0.2059 2.059-1.0295 2.059-0.4118 3.0885-4.5298 7.0006 1.8531 2.4708 0.4118 1.6472 2.2649 1.2354 2.2649 5.1475 0.8236 2.6767 0.4118 4.5298 0.61771 2.059 5.3534 4.9416-0.2059 2.4708 2.059 2.2649 1.0295 1.8531 0.2059 1.8531v2.6767l0.61769 1.0295v1.4413l0.41181 1.4413 1.2354 1.8531v1.4413l0.2059 1.4413 1.6472 4.118-0.8236 1.6472v1.6472" stroke-width=".5px"/>
   <path d="m184.73 134.97v-10.359l1.1919-2.9006 1.1919-4.9724 0.79459-2.0718-0.39731-2.9005-2.3837-3.3149 1.5892-7.8729" stroke-width=".5px"/>
   <path d="m102.01 16.49v34.648l3.1498 4.7247-1.5749 5.5122-3.1498 7.4808 1.5749 7.4808-1.9686 4.331 2.3623 9.4494-5.1184 9.8431-6.2996 6.2996-6.6933 3.9372-1.5749 1.9686-1.5749 2.7561-5.1184 3.5435-1.5749 2.7561v5.1184l-2.7561 5.1184" stroke-width=".5px"/>
   <path d="m102.14 16.625 4.8878 2.1417 7.8204 1.0709 0.97754 3.2126 8.3092 5.0867 8.3092 2.9449 7.8204 1.874 1.4663 6.693" stroke-width=".5px"/>
   <path d="m141.73 39.648 3.9779 4.7959 2.172 6.7133 4.9363 6.9108 9.0828 8.0955 4.5414 9.2802 8.6879 13.032 5.5286 8.8853 6.0614 3.216" stroke-width=".5px"/>
  </g>
 </g>
 <g fill-rule="evenodd" stroke-width=".20555">
  <ellipse cx="187" cy="100.22" rx="1.8063" ry="1.8758"/>
  <ellipse cx="72.058" cy="131.72" rx="1.8063" ry="1.8758"/>
  <ellipse cx="102.47" cy="16.604" rx="1.8063" ry="1.8758"/>
  <ellipse cx="141.96" cy="39.706" rx="1.8063" ry="1.8758"/>
  <ellipse cx="238.31" cy="214.84" rx="1.8063" ry="1.8758"/>
 </g>
 <g fill="#000000" font-family="sans-serif" font-size="3.5278px" letter-spacing="0px" stroke-width=".26458" word-spacing="0px">
  <text x="208.69472" y="209.90863" style="line-height:1.25" xml:space="preserve"><tspan x="208.69472" y="209.90863" font-size="4.2334px" stroke-width=".26458">Jaipur</tspan></text>
  <text x="70.676216" y="137.444" style="line-height:1.25" xml:space="preserve"><tspan x="70.676216" y="137.444" font-size="4.2334px" stroke-width=".26458">Bikaner</tspan></text>
  <text x="183.42094" y="94.991951" style="line-height:1.25" xml:space="preserve"><tspan x="183.42094" y="94.991951" font-size="4.2334px" stroke-width=".26458">Churu</tspan></text>
  <text x="145.90518" y="39.310665" style="line-height:1.25" xml:space="preserve"><tspan x="145.90518" y="39.310665" font-size="4.2334px" stroke-width=".26458">Hanumangarh</tspan></text>
  <text x="73.243088" y="10.285316" style="line-height:1.25" xml:space="preserve"><tspan x="73.243088" y="10.285316" font-size="4.2334px" stroke-width=".26458">Sri Ganganagar</tspan></text>
 </g>
</svg>
