<svg width="206.01mm" height="131.69mm" version="1.1" viewBox="0 0 206.01244 131.69463" xmlns="http://www.w3.org/2000/svg" xmlns:cc="http://creativecommons.org/ns#" xmlns:dc="http://purl.org/dc/elements/1.1/" xmlns:rdf="http://www.w3.org/1999/02/22-rdf-syntax-ns#">
 <g fill="none" stroke="#000">
  <g transform="translate(-2.0712 -77.235)" stroke-width=".5" stroke="#fff">
   <polygon fill="#e2b584" transform="matrix(.81213 0 0 .81213 -37.39 -43.528)" points="128.54 200.08 125.92 198.53 125.82 198.89 124.92 200.15 123.12 200.51 123.3 201.41 124.74 201.95 124.74 203.31 123.48 203.31 123.3 204.64 124.2 205.9 124.2 206.8 125.1 208.6 126.31 210.68 127.19 210.86 127.19 213.56 128.99 212.21 128.99 215 130.07 216.26 130.07 217.88 128.63 219.13 128.63 220.93 127.19 221.83 125.75 221.83 126.83 222.91 125.75 224.71 123.77 224.71 122.69 224.71 121.07 226.51 119.46 225.61 119.46 227.41 119.33 227.77 120.52 227.97 125.44 227.97 126.72 228.7 126.72 230.34 130.07 230.52 132.01 229.25 135.02 228.7 137.66 228.34 140.4 227.61 142.77 226.51 145.14 225.05 145.98 225.51 147.75 223.38 149.57 222.62 152.15 222.62 153.22 221.7 154.58 221.7 153.82 220.49 154.89 218.66 156.71 217.9 157.32 216.08 158.23 216.08 159.14 217.6 162.64 216.99 162.64 216.08 160.82 215.32 160.82 214.56 161.88 214.56 162.34 212.74 162.94 211.98 163.86 210.46 165.68 211.07 167.05 211.22 168.11 211.22 168.57 210.46 167.05 207.42 166.74 205.9 167.35 204.84 168.87 204.84 168.41 202.4 167.5 201.19 165.83 202.4 164.16 203.31 162.79 204.08 161.58 204.08 160.82 203.31 160.82 201.95 162.18 201.19 163.1 202.1 164.46 201.19 163.86 200.08 163.55 198.91 162.18 198.15 162.18 195.41 163.4 195.41 164.46 195.41 165.68 194.5 166.59 194.5 167.05 192.83 167.35 191.77 165.53 191.16 165.07 188.96 160.56 190.93 158.12 190.93 154.16 190.93 149.28 187.58 147.45 188.19 147.45 190.93 147.45 192.76 143.48 192.76 142.14 189.71 139.52 190.63 139.52 194.59 139.52 197.64 136.16 199.16 136.16 197.94 136.16 194.59 133.42 194.59 133.42 197.64 133.42 199.16 131.59 199.16 130.07 197.34 128.54 197.34 128.54 199.16"/>
   <polygon fill="#a3b0a3" transform="matrix(.81213 0 0 .81213 -37.39 -43.528)" points="109.02 230.46 111 231.36 112.62 231.36 113.7 232.44 116.94 231.72 118.74 230.82 118.74 229.57 119.33 227.77 119.46 227.41 119.46 225.61 121.07 226.51 122.69 224.71 123.77 224.71 125.75 224.71 126.83 222.91 125.75 221.83 127.19 221.83 128.63 220.93 128.63 219.13 130.07 217.88 130.07 216.26 128.99 215 128.99 212.21 127.19 213.56 127.19 210.86 126.31 210.68 124.49 210.32 123.41 209.24 120.35 209.24 121.43 207.26 120.53 206.18 118.74 207.26 118.74 206 117.66 204.56 116.22 203.31 113.88 204.74 113.88 206.72 112.44 206.72 112.08 208.34 112.62 210.86 111 211.4 109.56 213.2 108.66 214.28 107.94 212.84 106.32 212.3 105.07 213.2 104.17 213.38 103.81 212.12 104.71 210.14 104.53 208.16 103.63 206.72 101.11 208.34 101.11 209.42 98.412 210.86 97.152 210.86 95.713 210.86 91.756 212.12 85.102 216.08 83.303 214.64 84.382 213.02 83.124 211.76 81.325 212.48 80.246 212.12 81.145 210.86 80.246 210.86 77.548 210.86 74.31 212.12 72.872 210.86 71.433 210.86 70.354 212.48 69.274 212.48 67.296 215 64.958 215.9 63.699 215 61.72 214.1 59.562 215 57.403 213.74 56.778 213.39 55.785 212.84 54.526 212.84 54.526 215 52.907 215.54 51.828 213.92 51.108 216.08 53.087 218.24 52.008 219.85 50.389 217.7 48.59 219.85 51.828 221.83 50.029 223.99 48.59 223.99 48.59 224.89 50.569 225.79 50.749 227.05 48.59 227.05 48.59 227.95 49.849 229.93 51.288 229.93 51.288 230.64 51.288 232.08 53.806 232.08 54.526 234.06 55.425 234.42 55.605 235.14 53.806 236.58 54.526 238.44 57.044 238.44 57.044 241.08 58.303 240.18 58.482 242.7 57.044 243.06 56.145 245.57 57.583 246.83 57.583 248.27 59.022 247.91 60.461 245.75 60.461 248.63 60.461 250.79 61.36 251.69 62.799 252.05 63.159 249.53 63.517 250.14 64.418 251.69 65.857 252.23 64.958 252.95 63.699 252.77 62.439 253.67 62.799 254.57 60.461 255.82 63.339 257.08 66.756 256.36 66.756 258.34 64.058 260.86 61.54 263.92 61.54 267.52 60.461 269.85 60.461 270.93 61.181 272.01 61.181 274.17 62.439 276.87 60.461 279.03 60.461 280.47 61.9 282.8 63.159 282.8 61.9 285.14 63.878 286.58 64.598 288.38 65.677 288.92 65.857 292.7 64.778 296.11 64.598 299.17 64.238 300.97 61.9 301.87 63.339 304.57 62.799 306.55 61.9 307.8 62.979 309.96 62.979 310.86 64.058 310.14 65.137 308.7 65.857 306.55 66.756 306.55 66.756 303.85 65.137 303.85 66.217 303.13 66.217 301.33 69.814 299.71 72.512 299.71 74.31 298.99 76.289 298.99 77.008 297.01 78.987 297.73 80.605 295.93 80.785 294.68 80.246 293.24 78.807 292.16 77.548 292.16 75.749 290.18 74.31 288.92 73.411 288.92 73.411 286.94 72.512 285.5 71.073 284.42 70.713 282.8 68.915 281.01 68.915 279.39 71.433 280.29 73.051 278.49 75.03 276.15 75.03 273.63 75.03 271.65 75.929 271.65 77.188 269.5 79.167 269.5 79.167 268.6 80.785 267.88 82.404 265.18 80.785 263.92 82.224 262.66 83.843 263.92 84.742 262.3 86.181 260.68 87.44 260.68 88.519 259.42 89.778 258.34 90.857 256.9 93.195 256 93.195 255.18 93.195 254.39 95.894 252.59 97.872 252.59 98.231 251.33 98.951 249.35 99.311 246.29 98.052 246.29 96.792 244.85 98.052 244.85 98.591 242.7 97.332 242.7 95.894 241.98 98.231 239.46 99.311 237.12 97.872 237.12 95.894 236.04 95.894 235.14 95.894 232.44 99.311 232.44 101.29 232.44 103.63 232.44 107.04 230.82"/>
   <polygon fill="#c2f0c2" transform="matrix(.81213 0 0 .81213 -37.39 -43.528)" points="97.152 210.86 98.412 210.86 101.11 209.42 101.11 208.34 103.63 206.72 104.53 208.16 104.71 210.14 103.81 212.12 104.17 213.38 105.07 213.2 106.32 212.3 107.94 212.84 108.66 214.28 109.56 213.2 111 211.4 112.62 210.86 112.08 208.34 112.44 206.72 113.88 206.72 113.88 204.74 116.22 203.31 117.66 204.56 118.74 206 118.74 207.26 120.53 206.18 121.43 207.26 120.35 209.24 123.41 209.24 124.49 210.32 126.31 210.68 125.1 208.6 124.2 206.8 124.2 205.9 123.3 204.64 123.48 203.31 124.74 203.31 124.74 201.95 123.3 201.41 123.12 200.51 124.92 200.15 125.82 198.89 125.92 198.53 126.54 196.37 129.06 195.11 129.24 190.97 127.44 191.51 127.08 190.61 124.74 190.08 122.94 191.15 120.42 190.79 121.32 189.36 118.8 187.92 119.7 185.94 118.44 185.22 118.62 183.96 118.08 183.24 120.24 183.24 122.04 181.89 122.94 181.89 122.58 184.5 124.02 185.04 126 185.22 128.52 184.14 130.07 184.86 130.07 186.66 131.75 186.66 131.75 184.68 133.01 184.68 133.19 186.12 134.63 185.76 134.63 184.5 135.71 184.32 135.71 185.22 136.97 185.4 136.97 183.96 137.87 181.89 137.87 180.54 136.43 178.02 136.97 175.15 136.97 174.07 134.27 170.83 132.83 168.85 132.83 166.87 131.93 164.53 131.93 163.09 133.19 161.84 132.65 160.04 134.46 157.08 134.63 156.8 124.38 148.7 122.22 148.7 118.44 148.7 116.82 150.5 116.82 152.12 112.33 155 108.73 153.56 105.49 153.56 103.15 155.36 102.08 156.8 100.82 159.5 100.82 163.45 93.195 165.97 86.247 167.95 82.829 167.95 78.152 169.03 78.152 168.31 71.677 168.31 67.54 166.15 67.54 170.65 68.979 172.45 67.54 173.89 68.26 175.33 68.799 176.94 67.54 177.84 66.281 178.92 67.181 180.18 68.62 180.18 68.439 181.44 67.9 182.7 68.761 183.35 69.339 183.78 66.281 184.68 67.54 185.94 67.54 187.74 66.281 188.82 67.181 189.9 66.281 191.33 66.281 192.77 66.281 194.03 66.281 195.83 67.181 195.83 67.36 197.45 67.36 198.71 66.281 199.79 66.281 201.23 64.842 202.13 66.281 203.31 64.123 203.31 63.043 204.46 63.943 204.46 65.562 204.46 66.281 205.54 65.022 206.44 63.043 206.44 63.043 207.52 61.964 207.52 61.964 209.5 60.885 207.7 59.626 209.5 57.827 210.22 57.827 212.02 56.778 213.39 57.403 213.74 59.562 215 61.72 214.1 63.699 215 64.958 215.9 67.296 215 69.274 212.48 70.354 212.48 71.433 210.86 72.872 210.86 74.31 212.12 77.548 210.86 80.246 210.86 81.145 210.86 80.246 212.12 81.325 212.48 83.124 211.76 84.382 213.02 83.303 214.64 85.102 216.08 91.756 212.12 95.713 210.86"/>
   <polygon fill="#abacda" transform="matrix(.81213 0 0 .81213 -37.39 -43.528)" points="130.07 186.66 130.07 184.86 128.52 184.14 126 185.22 124.02 185.04 122.58 184.5 122.94 181.89 122.04 181.89 120.24 183.24 118.08 183.24 118.62 183.96 118.44 185.22 119.7 185.94 118.8 187.92 121.32 189.36 120.42 190.79 122.94 191.15 124.74 190.08 127.08 190.61 127.44 191.51 129.24 190.97 129.06 195.11 126.54 196.37 125.92 198.53 128.54 200.08 128.54 199.16 128.54 197.34 130.07 197.34 131.59 199.16 133.42 199.16 133.42 197.64 133.42 194.59 136.16 194.59 136.16 197.94 136.16 199.16 139.52 197.64 139.52 194.59 139.52 190.63 142.14 189.71 143.48 192.76 147.45 192.76 147.45 190.93 147.45 188.19 149.28 187.58 154.16 190.93 158.12 190.93 160.56 190.93 165.07 188.96 165.44 188.8 165.44 186.97 166.66 186.97 168.18 183.92 170.93 182.39 172.76 178.73 172.76 177.21 172.76 177.12 172.76 173.55 174.59 173.55 174.59 169.28 177.33 167.45 177.33 164.71 178.51 163.14 179.16 162.27 171.54 163.49 163.61 163.79 156.29 163.79 153.85 165.01 151.72 164.4 149.89 162.88 147.14 163.18 145.62 160.74 143.33 160.74 137.87 158.61 136.47 157.08 134.46 157.08 132.65 160.04 133.19 161.84 131.93 163.09 131.93 164.53 132.83 166.87 132.83 168.85 134.27 170.83 136.97 174.07 136.97 175.15 136.43 178.02 137.87 180.54 137.87 181.89 136.97 183.96 136.97 185.4 135.71 185.22 135.71 184.32 134.63 184.5 134.63 185.76 133.19 186.12 133.01 184.68 131.75 184.68 131.75 186.66"/>
   <polygon fill="#e7de69" transform="matrix(.81213 0 0 .81213 -37.39 -43.528)" points="210.51 182.39 209.6 184.02 208.08 185.08 206.86 185.69 207.93 186.45 210.51 186.45 212.94 186.9 212.94 189.18 210.66 189.79 209.75 191.01 207.47 192.22 207.47 194.65 209.14 195.56 210.51 196.79 208.99 198.3 208.53 200.08 207.32 200.08 207.17 202.1 205.8 203.31 206.71 205.44 207.93 206.96 206.25 208.36 207.01 210 208.23 211.37 210.36 209.55 210.66 212.13 211.57 214.26 209.75 214.26 210.2 216.08 208.53 216.99 208.38 218.36 208.84 220.03 206.86 221.4 205.34 220.64 204.43 221.55 204.43 222.92 206.71 222.92 206.71 225.05 205.34 225.05 203.37 226.26 204.13 228.24 205.49 228.24 207.17 229.15 208.08 230.52 206.86 231.28 206.25 232.8 205.25 232.8 209.83 234.45 212.94 234.45 215.08 233.7 217.53 233.7 218.58 233.95 221.08 236.7 223.58 237.2 225.08 236.45 225.33 233.2 224.58 230.52 223.58 229.45 225.08 228.45 225.83 226.2 223.58 223.7 225.33 222.2 226.58 223.2 228.33 221.45 228.33 218.7 228.33 216.7 233.58 216.7 232.33 212.03 236.33 210.2 236.33 207.86 237.33 204.95 238.58 203.7 238.58 201.95 240.33 200.08 238.58 196.79 239.83 194.75 238.58 193.2 240.33 192.95 240.33 190.45 240.33 188.95 243.08 187.58 243.08 185.72 242.92 185.81 242.22 184.23 238.76 183.84 237.28 186.9 235.4 187.1 232.63 184.33 227.39 186.21 223.23 186.5 221.35 187.69 220.07 190.96 217.1 192.34 215.72 191.85 214.83 189.37 216.7 183.04 216.11 182.45 211.66 182.35 209.68 179.19 208.4 178.58 208.36 178.6 208.08 180.82 206.71 183.1 209.29 182.39"/>
   <polygon fill="#a3b0a3" transform="matrix(.81213 0 0 .81213 -37.39 -43.528)" points="183.46 237.66 184.52 239.18 186.8 238.44 188.32 236.14 189.69 234.77 192.27 233.79 194.1 234.77 197.14 234.77 198.35 233.86 200.94 232.8 203.67 232.8 205.25 232.8 206.25 232.8 206.86 231.28 208.08 230.52 207.17 229.15 205.49 228.24 204.13 228.24 203.37 226.26 205.34 225.05 206.71 225.05 206.71 222.92 204.43 222.92 204.43 221.55 205.34 220.64 206.86 221.4 208.84 220.03 208.38 218.36 208.53 216.99 210.2 216.08 209.75 214.26 211.57 214.26 210.66 212.13 210.36 209.55 208.23 211.37 207.01 210 206.25 208.36 207.93 206.96 206.71 205.44 205.8 203.31 207.17 202.1 207.32 200.08 208.53 200.08 208.99 198.3 210.51 196.79 209.14 195.56 207.47 194.65 207.47 192.22 209.75 191.01 210.66 189.79 212.94 189.18 212.94 186.9 210.51 186.45 207.93 186.45 206.86 185.69 208.08 185.08 209.6 184.02 210.51 182.39 209.29 182.39 206.71 183.1 208.08 180.82 208.36 178.6 205.13 179.88 203.85 179.58 201.87 174.83 199.1 173.55 198.01 173.94 198.01 177.6 199.2 184.13 198.8 185.91 196.23 187 194.15 188.38 188.02 184.72 186.83 184.72 185.05 186.31 182.58 190.16 181.2 190.66 181.2 189.37 182.18 185.32 181.2 184.13 178.62 185.62 176.94 186.41 176.05 185.22 176.05 183.64 177.14 179.88 177.14 178.58 176.05 177.7 172.76 177.12 172.76 177.21 172.76 178.73 170.93 182.39 168.18 183.92 166.66 186.97 165.44 186.97 165.44 188.8 165.07 188.96 165.53 191.16 167.35 191.77 167.05 192.83 166.59 194.5 165.68 194.5 164.46 195.41 163.4 195.41 162.18 195.41 162.18 198.15 163.55 198.91 163.86 200.08 164.46 201.19 163.1 202.1 162.18 201.19 160.82 201.95 160.82 203.31 161.58 204.08 162.79 204.08 164.16 203.31 165.83 202.4 167.5 201.19 168.41 202.4 168.87 204.84 167.35 204.84 166.74 205.9 167.05 207.42 168.57 210.46 168.11 211.22 167.05 211.22 165.68 211.07 163.86 210.46 162.94 211.98 162.34 212.74 161.88 214.56 160.82 214.56 160.82 215.32 162.64 216.08 162.64 216.99 159.14 217.6 158.23 216.08 157.32 216.08 156.71 217.9 154.89 218.66 153.82 220.49 154.58 221.7 153.22 221.7 152.15 222.62 149.57 222.62 147.75 223.38 145.98 225.51 147.14 226.15 149.15 228.7 149.15 230.71 150.61 233.08 150.79 234.9 151.88 234.9 152.8 236.72 156.81 236.72 159.91 236.72 162.1 237.27 163.19 238.44 165.02 238.44 165.38 239.82 166.66 238.44 168.48 239.28 168.84 240.92 173.22 241.65 175.04 241.46 176.69 242.01 176.95 242.17 181.79 239.18 183.46 239.18"/>
   <polygon fill="#abacda" transform="matrix(.81213 0 0 .81213 -37.39 -43.528)" points="168.48 239.28 166.66 238.44 165.38 239.82 165.02 238.44 163.19 238.44 162.1 237.27 159.91 236.72 156.81 236.72 152.8 236.72 151.88 234.9 150.79 234.9 150.61 233.08 149.15 230.71 149.15 228.7 147.14 226.15 145.98 225.51 145.14 225.05 142.77 226.51 140.4 227.61 137.66 228.34 135.02 228.7 132.01 229.25 130.07 230.52 126.72 230.34 126.72 228.7 125.44 227.97 120.52 227.97 119.33 227.77 118.74 229.57 118.74 230.82 116.94 231.72 113.7 232.44 112.62 231.36 111 231.36 109.02 230.46 107.04 230.82 103.63 232.44 101.29 232.44 99.311 232.44 95.894 232.44 95.894 235.14 95.894 236.04 97.872 237.12 99.311 237.12 98.231 239.46 95.894 241.98 97.332 242.7 98.591 242.7 98.052 244.85 96.792 244.85 98.052 246.29 99.311 246.29 98.951 249.35 98.231 251.33 97.872 252.59 95.894 252.59 93.195 254.39 93.195 255.18 94.806 254.6 95.535 255.69 97.541 256.05 97.541 257.08 99 257.08 99 256.05 101.37 255.14 101.37 257.08 112.5 254.41 113.22 252.59 114.68 251.68 116.87 249.85 118.88 249.85 120.15 249.85 122.34 250.77 122.34 252.41 123.62 252.59 129.09 249.85 130.07 251.13 131.28 251.13 132.19 254.78 134.38 256.24 133.65 259.15 132.19 259.15 132.19 263.17 136.02 261.07 135.29 259.52 138.39 258.61 137.48 257.08 139.12 256.24 140.76 257.08 143.5 258.97 140.76 261.07 142.22 263.53 143.68 263.53 143.68 261.07 148.42 259.52 149.51 257.88 152.62 257.08 153.89 257.08 155.53 256.24 156.44 257.08 154.8 258.42 156.44 259.7 155.53 261.49 157.17 261.49 157.17 262.25 159 262.25 159.91 259.88 162.28 257.08 164.83 258.42 165.74 258.42 168.3 258.42 169.94 258.42 171.22 259.88 173.95 262.16 173.22 258.42 175.04 258.42 176.14 258.42 177.6 260.25 178.51 262.8 178.51 264.99 178.51 265.9 180.7 264.99 182.89 264.99 184.35 264.99 184.4 264.9 185.99 262.07 186.9 260.43 186.9 259.15 188.18 257.08 189.45 255.51 191.09 254.96 191.09 252.59 191.09 251.13 191.09 249.31 190 248.21 187.99 247.3 186.72 247.67 185.62 246.94 183.43 247.12 181.61 245.11 179.06 245.11 178.51 243.11 176.95 242.17 176.69 242.01 175.04 241.46 173.22 241.65 168.84 240.92"/>
   <polygon fill="#fcc" transform="matrix(.81213 0 0 .81213 -37.39 -43.528)" points="259.43 181.46 258.74 180.08 259.43 180.08 257.56 178.58 258.84 177.7 258.84 175.43 258.15 174.74 258.84 173.75 258.35 171.27 257.65 169.59 256.47 167.61 255.97 165.64 255.97 163.76 255.04 161.23 254.57 161.3 253.5 161.48 247.27 159.7 243.9 161.58 239.26 162.57 235.89 163.06 233.42 163.06 229.86 161.58 224.82 157.52 221.65 162.67 217.4 164.35 213.44 163.76 211.46 161.98 207.9 160.59 203.45 160.59 198.6 160.89 193.16 159.01 188.42 163.86 182.78 162.57 180.5 162.47 178.51 163.14 177.33 164.71 177.33 167.45 174.59 169.28 174.59 173.55 172.76 173.55 172.76 177.12 176.05 177.7 177.14 178.58 177.14 179.88 176.05 183.64 176.05 185.22 176.94 186.41 178.62 185.62 181.2 184.13 182.18 185.32 181.2 189.37 181.2 190.66 182.58 190.16 185.05 186.31 186.83 184.72 188.02 184.72 194.15 188.38 196.23 187 198.8 185.91 199.2 184.13 198.01 177.6 198.01 173.94 199.1 173.55 201.87 174.83 203.85 179.58 205.13 179.88 208.36 178.6 208.4 178.58 209.68 179.19 211.66 182.35 216.11 182.45 216.7 183.04 214.83 189.37 215.72 191.85 217.1 192.34 220.07 190.96 221.35 187.69 223.23 186.5 227.39 186.21 232.63 184.33 235.4 187.1 237.28 186.9 238.76 183.84 242.22 184.23 242.92 185.81 243.08 185.72 244.7 184.82 245.59 185.52 244.7 189.18 245.88 191.15 245.88 192.84 248.36 190.46 252.81 196.79 255.18 196.79 260.03 192.44 262.18 192.91 262.3 192.94 262.15 192.27 261.71 190.26 261.02 189.28 261.02 187.79 259.43 187.1 259.93 185.81 259.43 185.81 259.43 184.82 258.25 184.82 259.43 183.04 257.75 181.96"/>
   <polygon fill="#c2f0c2" transform="matrix(.81213 0 0 .81213 -37.39 -43.528)" points="260.08 201.7 260.83 200.08 262.3 200.08 262.3 197.95 262.3 196.79 262.18 192.91 260.03 192.44 255.18 196.79 252.81 196.79 248.36 190.46 245.88 192.84 245.88 191.15 244.7 189.18 245.59 185.52 244.7 184.82 243.08 185.72 243.08 187.58 240.33 188.95 240.33 190.45 240.33 192.95 238.58 193.2 239.83 194.75 238.58 196.79 240.33 200.08 238.58 201.95 238.58 203.7 237.33 204.95 236.33 207.86 236.33 210.2 232.33 212.03 233.58 216.7 228.33 216.7 228.33 218.7 228.33 221.45 226.58 223.2 225.33 222.2 223.58 223.7 225.83 226.2 225.08 228.45 223.58 229.45 224.58 230.52 225.33 233.2 225.08 236.45 223.58 237.2 221.08 236.7 218.58 233.95 217.53 233.7 215.08 233.7 212.94 234.45 209.83 234.45 205.25 232.8 203.67 232.8 200.94 232.8 198.35 233.86 197.14 234.77 194.1 234.77 192.27 233.79 189.69 234.77 188.32 236.14 186.8 238.44 184.52 239.18 183.46 237.66 183.46 239.18 181.79 239.18 176.95 242.17 178.51 243.11 179.06 245.11 181.61 245.11 183.43 247.12 185.62 246.94 186.72 247.67 187.99 247.3 190 248.21 191.09 249.31 191.09 251.13 191.09 252.59 191.09 254.96 189.45 255.51 188.18 257.08 186.9 259.15 186.9 260.43 185.99 262.07 184.4 264.9 185.33 265.9 184.83 267.7 182.83 267.7 182.58 270.2 181.33 271.95 182.33 271.95 183.58 271.95 186.08 270.2 189.08 268.95 189.33 270.7 186.83 271.95 187.58 273.7 191.09 272.2 193.58 270.95 196.58 269.45 199.83 270.2 201.83 268.7 203.08 270.7 201.33 272.45 200.83 275.2 199.33 278.2 200.83 279.45 200.58 282.7 202.33 283.95 204.83 283.95 206.58 282.7 207.33 281.45 209.33 280.95 216.08 271.2 220.08 271.95 225.33 269.7 227.33 271.45 229.58 269.95 232.83 268.95 234.83 268.45 235.83 268.2 236.58 265.9 231.08 267.45 230.83 265.9 233.08 265.9 236.83 260.7 232.83 261.95 234.83 259.7 235.33 257.7 238.33 254.95 239.33 252.45 241.08 251.2 240.33 249.7 243.08 249.95 245.83 249.95 246.58 251.2 245.58 253.95 246.58 256.2 247.83 257.7 246.33 259.7 243.83 259.45 243.83 260.7 248.58 264.2 250.58 263.95 253.08 260.2 255.58 259.7 255.58 256.95 255.58 250.7 256.83 246.7 259.33 245.48 259.29 245.46 250.58 242.17 246.83 239.95 243.08 238.44 243.08 233.7 245.58 231.7 252.58 227.95 252.83 225.05 254.57 222.45 256.08 223.95 258.08 225.05 262.14 225.05 262.3 225.05 262.3 222.45 262.3 217.45 263.83 217.45 265.58 215.7 265.58 213.7 265.58 210.2 264.33 209.05 263.58 207.86 262.3 207.86 260.83 203.95"/>
   <polygon fill="#e2b584" transform="matrix(.81213 0 0 .81213 -37.39 -43.528)" points="289.45 228.28 288.55 229.19 286.91 229.19 286.91 230.1 285.64 229.37 284.64 229.74 281.55 226.92 280.74 226.92 280.74 224.82 280.74 224.47 277.56 225.19 276.2 225.01 274.38 226.38 272.29 228.28 271.02 227.74 269.02 228.56 268.02 228.46 265.58 229.19 264.2 229.19 262.93 229.37 261.66 229.83 258.94 228.65 260.66 227.56 262.57 225.92 262.14 225.05 258.08 225.05 256.08 223.95 254.57 222.45 252.83 225.05 252.58 227.95 245.58 231.7 243.08 233.7 243.08 238.44 246.83 239.95 250.58 242.17 259.29 245.46 260.84 245 261.84 243.54 262.48 244.36 263.57 243.91 264.11 242.82 265.2 242.54 265.58 241.91 266.48 241.09 266.38 240.46 267.02 240.64 270.74 242.27 271.65 242.45 271.38 244.63 270.65 246 270.65 247.81 270.11 248.45 271.02 249.72 272.38 250.99 273.02 250.99 274.83 251.45 274.47 252.54 274.74 253.08 275.2 253.9 275.74 254.35 277.1 253.81 277.38 252.63 278.65 252.63 280.56 251.72 282.28 250.99 282.91 250.81 283.46 249.72 284.19 249.9 287.36 249.27 289.18 250.26 291.55 249.72 293.54 248.18 295.36 248.27 296.72 248.72 297.54 248.81 298.45 248.54 298.45 247.9 299.27 247.36 301.78 245.3 302.26 244.91 302.26 243.27 302.26 241.91 302.26 240.18 301.36 237.2 301.81 236.46 301.81 234.39 301.36 234.39 300.27 233.64 299.45 233.64 299.45 234.39 297.99 233.64 297.99 232.55 297.27 232.55 295 233.46 294 233.01 294 231.82 293.54 231.82 292.82 231.82 292.82 231.19 291.45 230.46 290.91 230.46"/>
  </g>
  <g>
   <path d="m168.63 71.364-0.94025 2.2834-0.94025 0.40296-2.5521-0.94024-0.40296-0.80592 0.40296-1.8805-1.0746-0.26864-1.6119 1.4775-1.6118 0.40296-0.94025 1.7462-0.26864 2.0148-1.2089-0.26864h-0.53726l-1.2089 1.8805-2.0148-1.2089-1.3432-0.80592-1.2089-0.26864-0.94025 0.26864-4.2982 2.6864h-2.8207l-2.6864 2.4178-4.0296 1.0746-5.7758 3.358-2.0148 0.6716-3.2236 2.8207-1.4775 0.94024-2.1491 0.80592-2.2834 0.13432-0.6716 0.40296-8.3279-2.0148-5.6414-1.2089-2.2834 0.53728h-10.208l-7.3876-2.5521-4.8355-2.6864-1.4775-1.0746-2.0148-1.0746-1.8805-1.2089-1.7462-1.3432-1.4775-0.40296-1.4775-0.53728 1.7462-3.358-2.4178-2.955-0.53728-1.6118 1.3432-1.6118v-3.358l1.3432-1.0746 0.94024-1.3432 0.26864-2.0148 1.3432-1.0746 1.2089-1.8805 0.26864-1.8805 0.53728-0.40296-0.26864-0.94024 0.13432-0.80592 0.53728-0.40296 0.13908-1.3848-0.30668-0.51113-1.4312-0.71558-2.0445 0.40891-1.5334-0.30668-1.3289-0.30668-2.4534 0.92004-1.8401 2.9646-0.71558 0.61336-1.5334 0.30668-1.2267 0.81781-0.20445 0.51113-0.92003 1.5334-0.4089 0.61336-0.30668 1.7378-2.0445 0.81781-1.9423 1.0223-1.7378 1.0223-0.61336 0.61336-0.81781 0.20445-2.6579 1.1245-0.51113 0.61336-0.20445 0.51113h-0.92004l-0.61335 0.10223-0.51113-0.30668-0.20445-0.71558-0.4089-0.71558-0.61336-0.71558v-1.4312l-0.30668-0.71558-3.169 0.61336-2.7601 0.81781-4.6002 1.7378-1.3289 0.30668-0.30668 2.0445h-0.92003l-1.1245 0.30668-1.4312 0.61336-1.4312 0.92003-1.3289 1.9423-2.0445 1.1245-1.5334 3.3735-2.249 1.2267-1.4312 0.10223-0.61335 1.0223-0.30668 2.0445v1.0223l1.2267 2.8623" stroke-width=".5px"/>
   <path d="m74.883 49.813l0.14577-2.5104 2.9191-4.6432-1.2511-1.3266-1.4596-2.4322 0.87501-2.5996 0.54959-0.5828 1.0992 0.8742-0.1374 0.5828 0.68699 1.6027 1.374-0.1457 1.7862-0.7285 2.748 1.6027 1.2366-0.2914h1.6488l1.5114 0.4371 0.687-0.1457v-1.8941l1.6488-0.1457 1.6488 0.1457 3.2976 1.7484 0.4122-1.1656h1.6488l0.5496-1.1656 0.2748-0.4371 4.9464 0.7285-0.13741 1.7484 0.13741 3.2054 0.54959 1.457 0.96179 1.457 1.9236-0.5828 2.748-1.0199 2.1984-3.3511 3.7098-2.1855h1.0992l1.374-1.8941 3.1602-1.1656 2.4732 0.7285h2.748l3.0228-1.1656 7.2822-0.8742 1.2366 1.457 0.4122 2.914 3.435 3.7882 1.5742-0.47146 2.2425-0.1189h12.333l1.3455 1.189 0.56059 0.95117 0.56063 4.9936 7.4001 5.9448-1.9061 7.3716v1.4268l1.1212 1.189-0.33637 1.4268-1.9061 0.59448-0.33638 1.0701-0.5241 3.8213" stroke-width=".5px"/>
   <path d="m76.112 36.301-3.3628 0.46793-3.3966-0.25987-2.0379-0.38982-0.40758 5.1976 3.6683 5.7173 0.54345 1.1694 1.7193 2.0112" stroke-width=".5px"/>
   <path d="m62.207 55.231-2.6629-2.0212-1.4977-0.37442-1.7473 0.12481-1.8721-2.2465-0.87366-0.49923-1.7473-0.49923-3.245-2.1217-1.4977-0.74885-1.6225-0.1248-1.9969-0.37442" stroke-width=".5px"/>
   <path d="m67.315 36.119-2.7462-0.82279-3.0631-1.293-3.4856-1.293-1.69-0.94033-1.5844-0.82279-1.2675-0.35263-1.1619 0.35263-1.4787 0.94033-1.4787-0.82279-0.845 1.4105-0.63375 1.1754-2.0069 5.2894-1.1619 3.6438-1.2675 3.7613" stroke-width=".5px"/>
   <path d="m40.313 62.607-0.48929-3.0318-1.7473-4.8675-0.49923-1.1233 0.74884-0.87365 0.87366 0.24961 2.1217-3.3698 0.62404-1.3729 1.4977-1.8721" stroke-width=".5px"/>
   <path d="m164.72 67.404-2.3261-0.95618-0.44306-1.2749v-0.63746l-0.88613 0.10624-0.44306-0.63746-1.9938-0.95618-0.99689-1.2749-1.6615-0.42497-0.99689-0.31873-0.55383-0.10624-1.7722 0.31873-0.77536-0.63746-0.22154-0.21249-0.33229-1.2749-2.8799 0.10624-4.1648-2.0202-1.445 0.34652-1.2644 0.51977-1.1741-0.08663h-1.0838l-0.81286 0.95291-0.99349 0.51977-1.987-0.17326-0.72253-0.08663h-1.8966l-1.8063-0.6064-0.72255-0.17326-1.6257 0.08663-1.8967 1.2128-1.2644-0.43314-0.81284-0.6064h-0.45158l-0.63222 0.6064-0.36127 0.25989-0.72254-0.34651-0.81283-0.43314-0.27097-0.17326-0.72252 0.08663-0.27094 0.08663-0.5419-0.6064-0.27096-0.43314h-0.72253l-0.72252 0.25988h-0.36128v-1.2128l-1.0838-0.51977-0.45159 0.17326-1.2644 0.08663-0.72253-0.34651-0.63221 0.6064-0.72253-0.25989-0.90317-0.34651-1.1741-0.51977-1.3548-0.86629-1.716-0.95291-0.99348-1.2128-0.45158-1.2128-0.27095-1.2994-0.45158-1.4727-0.27095-0.86628-0.27095-0.69303 0.0694-1.8793" stroke-width=".5px"/>
   <path d="m136.98 33.678-1.6997-7.2814 0.74882-1.9969 0.37443-1.9969-0.12481-1.1233-0.24962-0.62404-0.24959-1.2481" stroke-width=".5px"/>
  </g>
 </g>
 <g fill-rule="evenodd" stroke-width=".38415">
  <ellipse cx="20.671" cy="83.186" rx="1.9753" ry="2.1167"/>
  <ellipse cx="136" cy="19.684" rx="1.9753" ry="2.1167"/>
  <ellipse cx="168.98" cy="71.544" rx="1.9753" ry="2.1167"/>
  <ellipse cx="161.22" cy="64.664" rx="1.9753" ry="2.1167"/>
  <ellipse cx="141.78" cy="42.826" rx="1.9753" ry="2.1167"/>
  <ellipse cx="107.85" cy="53.18" rx="1.9753" ry="2.1167"/>
  <ellipse cx="43.425" cy="45.99" rx="1.9753" ry="2.1167"/>
  <ellipse cx="74.486" cy="36.211" rx="1.9753" ry="2.1167"/>
  <ellipse cx="68.159" cy="35.924" rx="1.9753" ry="2.1167"/>
  <ellipse cx="71.898" cy="67.56" rx="1.9753" ry="2.1167"/>
 </g>
 <path d="m142.06 41.838-0.6077 2.1273-1.3613 0.52496-1.7016 0.34998-1.3614 1.2249h-3.5735l-0.68065 0.87494-1.1912 0.52496-0.85082 1.3999-1.021 1.2249-1.3614 0.34998-1.1912-0.34998-0.85081-0.17499h-2.042v1.0499l-0.68068 0.87493-0.68068 0.52497-1.7016 0.52497-2.042 0.34997-2.042 0.69995-1.1912 0.34998-1.556 1.8748" fill="none" stroke="#000" stroke-width=".5px"/>
 <g fill="#000000" font-family="sans-serif" font-size="3.5279px" letter-spacing="0px" stroke-width=".26459" word-spacing="0px">
  <text x="15.240441" y="92.005737" style="line-height:1.25" xml:space="preserve"><tspan x="15.240441" y="92.005737" font-size="5.6446px" stroke-width=".26459">Dhubri</tspan></text>
  <text x="16.966045" y="42.250816" style="line-height:1.25" xml:space="preserve"><tspan x="16.966045" y="42.250816" font-size="5.6446px" stroke-width=".26459">Kokrajhar</tspan></text>
  <text x="72.185379" y="74.749695" style="line-height:1.25" xml:space="preserve"><tspan x="72.185379" y="74.749695" font-size="5.6446px" stroke-width=".26459">Goalpara</tspan></text>
  <text x="93.467819" y="61.520065" style="line-height:1.25" xml:space="preserve"><tspan x="93.467819" y="61.520065" font-size="5.6446px" stroke-width=".26459">Barpeta</tspan></text>
  <text x="171.69522" y="71.58609" style="line-height:1.25" xml:space="preserve"><tspan x="171.69522" y="71.58609" font-size="5.6446px" stroke-width=".26459">Guwahati</tspan></text>
  <text x="140.63434" y="19.817965" style="line-height:1.25" xml:space="preserve"><tspan x="140.63434" y="19.817965" font-size="5.6446px" stroke-width=".26459">Mushalpur</tspan></text>
  <text x="132.58153" y="50.016037" style="line-height:1.25" xml:space="preserve"><tspan x="132.58153" y="50.016037" font-size="5.6446px" stroke-width=".26459">Nalbari</tspan></text>
  <text x="130.01801" y="66.66275" style="line-height:1.25" xml:space="preserve"><tspan x="130.01801" y="66.66275" font-size="5.6446px" stroke-width=".26459">Amingaon</tspan></text>
  <text x="63.557362" y="29.883987" style="line-height:1.25" xml:space="preserve"><tspan x="63.557362" y="29.883987" font-size="5.6446px" stroke-width=".26459">Bongaigaon</tspan></text>
  <text x="47.139198" y="43.889431" style="line-height:1.25" xml:space="preserve"><tspan x="47.139198" y="43.889431" font-size="5.6446px" stroke-width=".26459">Kajalgaon</tspan></text>
 </g>
</svg>
