<svg width="198.22mm" height="201.76mm" version="1.1" viewBox="0 0 198.22035 201.76113" xmlns="http://www.w3.org/2000/svg">
 <g transform="translate(-22.091 .79323)">
  <g fill="#85c5e3" stroke-width="1.5px">
   <path d="m22.978 132.71 2.0817-9.483 5.0944-4.8328 2.2365-6.4517-1.2489-3.1548 2.1814-9.4446 3.8262-1.6373 1.7046-7.3397 3.0679-3.973-4.5653-7.4322 5.9258-6.3272-1.2769-3.3671-12.725-6.1977-4.5295-9.1578 3.6563-7.2754-0.67062-2.5573 2.0996-3.5841 13.642 6.2731 0.97378-4.9073 4.4367-1.073 2.4845-1.3737 2.5447 5.7033 3.7849-2.345 3.3761 0.39314 2.5029-2.53 3.1101-0.18038 3.8676-3.733 2.5539 0.47223 7.8284-2.9735 4.602 2.2525 5.9162-1.1059 2.4349-4.2737 10.321-4.5128 2.4988-5.6515 3.9819-3.6076 7.9088 4.8786 4.2304-0.60589 0.9329-11.309 3.0867-2.474 3.1652 1.7247 3.8313-1.2349 4.1928-6.2033 4.2902-1.9241 3.4119 6.1658 3.2704 2.9976 3.1331 3.418 2.3931-1.9282 10.418 1.5494 4.4234-1.8362 6.9685 7.3998 5.0494 5.985 6.5905 3.6923 1.502 16.48-1.5847 3.8713 3.0401 2.4257 4.5995 4.4658 2.6503 5.2778 1.2264 8.8665-1.7138 6.6973-5.0393 3.603 0.62054 6.1052-1.2443 6.7111 2.8704 6.0123-1.8516 4.0054-0.83597 2.808-3.6792 2.4472 1.7229 2.2428 0.39043 7.0802-3.5878 5.8319-2.0945 1.2493-3.9783 3.9129 3.6976 3.4124-3.179 3.6451-3.7063 3.7422 0.0146 3.2839-4.2304 0.81357-0.0602 4.2639 0.0873 3.7704 4.3508 2.5993-2.1051 11.997-1.13 4.449 3.5548 5.6006 1.3141 4.7732 1.9802 0.86027-0.53329 2.5397-6.8516-2.1894-5.309 1.7472-9.8363 0.53142-4.8303 3.8511-6.0645 0.77282-6.5225 1.6196-5.5717-0.58786-5.8435-1.2332-8.71-0.661-8.3356 1.7489-6.1847 3.5411-9.9767-4.1499-5.3224-6.9552-1.7637-5.8457-1.3489-8.285-14.239-12.28-7.5551-0.0911-6.469 2.7914-11.387-11.428-5.0802-6.3504-6.8522-1.8676-5.6507-2.9674-4.3442-1.482z" stroke="#85c5e3"/>
   
   <path d="m139.2 197.27c1.0614-8.491 6.899-7.4297 1.0614-8.491-5.8376-1.0614 0.53069-5.3069-5.8376-1.0614-6.3683 4.2455-9.5524 1.5921-9.5524 1.5921v-4.7762l-4.2455 3.7148 1.5921-6.899-2.6534 2.1228v-10.614l5.8376-20.697 10.614 1.5921 2.6534-5.3069 12.206-5.3069-1.5921-10.614-6.3683-6.3683-3.7148-8.491-2.1228-6.899-6.899-6.899-5.8376-13.267 3.7148-11.145-1.5921-11.144v-5.3069l-4.2455-10.083 1.0614-6.3683 9.5524-4.2455 4.2455-10.614 0.53071-7.9604 9.5524-4.7762 4.7762 1.0614 10.083-2.6534 10.539 8.2945" stroke="#f99"/>
   <path d="m149.29 132.53 5.2156-5.2156 3.9884-1.534 6.136-0.9204 4.2952-6.7496 0.92041-3.9884 4.602-7.3632-1.2272-2.7612 1.2272-3.3748-3.068-2.7612 0.3068-3.068-2.4544-2.7612-3.068-2.4544-3.6816-11.352v-3.3748l-1.8408-4.602-0.92039-4.602 1.2272-6.7496 3.068-5.8292v-3.9884l3.6816-3.9884 2.7612-1.534" stroke="#fcc"/>
  </g>
  <g font-family="sans-serif" letter-spacing="0px" stroke-width=".26458" word-spacing="0px">
   <text x="146.7645" y="198.78227" font-size="10.583px" style="line-height:1.25" xml:space="preserve"><tspan x="146.7645" y="198.78227" font-size="6.35px" stroke-width=".26458">Gangtok</tspan></text>
   <g font-size="6.35px">
    <text x="167.43338" y="52.62611" style="line-height:1.25" xml:space="preserve"><tspan x="167.43338" y="52.62611" stroke-width=".26458">Zero point</tspan></text>
    <text x="104.6869" y="134.03806" style="line-height:1.25" xml:space="preserve"><tspan x="104.6869" y="134.03806" stroke-width=".26458">Chungthang</tspan></text>
    <text x="95.175392" y="159.38663" style="line-height:1.25" xml:space="preserve"><tspan x="95.175392" y="159.38663" stroke-width=".26458">Mangan</tspan></text>
    <text x="144.31226" y="107.22591" style="line-height:1.25" xml:space="preserve"><tspan x="144.31226" y="107.22591" stroke-width=".26458">Lachung</tspan></text>
   </g>
  </g>
  <g fill="#000000" fill-rule="evenodd" stroke-width=".26458">
   <ellipse cx="174.17" cy="107.23" rx="2.6458" ry="2.2679"/>
   <ellipse cx="148.85" cy="132.17" rx="2.6458" ry="2.2679"/>
   <ellipse cx="124.66" cy="158.63" rx="2.6458" ry="2.2679"/>
   <ellipse cx="139.78" cy="198.7" rx="2.6458" ry="2.2679"/>
   <ellipse cx="169.26" cy="43.726" rx="2.6458" ry="2.2679"/>
   <ellipse cx="163.97" cy="18.779" rx="2.6458" ry="2.2679"/>
  </g>
 </g>
 <text x="98.498024" y="11.301193" font-size="6.35px" stroke-width=".60939" style="line-height:1.25" xml:space="preserve"><tspan x="98.498024" y="11.301193">Gurudongmar</tspan><tspan x="98.498024" y="16.138214">Lake</tspan></text>
 <ellipse cx="151.55" cy="27.268" rx="2.6458" ry="2.2679"/>
 <text x="150.43056" y="14.924512" fill="#000000" font-family="sans-serif" font-size="6.35px" letter-spacing="0px" stroke-width=".26458" word-spacing="0px" style="line-height:1.25" xml:space="preserve"><tspan x="150.43056" y="14.924512">Tso lhamu</tspan><tspan x="150.43056" y="22.862047">Lake</tspan></text>
 <text x="79.176064" y="102.44977" fill="#000000" font-family="sans-serif" font-size="6.35px" letter-spacing="0px" stroke-width=".26458" word-spacing="0px" style="line-height:1.25" xml:space="preserve"><tspan x="79.176064" y="102.44977" stroke-width=".26458">Lachen</tspan></text>
 <ellipse cx="107.79" cy="100.77" rx="2.6458" ry="2.2679"/>
 <ellipse cx="101.62" cy="51.954" rx="2.6458" ry="2.2679"/>
 <text x="50.562019" y="53.6376" fill="#000000" font-family="sans-serif" font-size="6.35px" letter-spacing="0px" stroke-width=".26458" word-spacing="0px" style="line-height:1.25" xml:space="preserve"><tspan x="50.562019" y="53.6376" stroke-width=".26458">Thangu valley</tspan></text>
 <text x="106.66791" y="65.980911" fill="#000000" font-family="sans-serif" font-size="6.35px" letter-spacing="0px" stroke-width=".26458" word-spacing="0px" style="line-height:1.25" xml:space="preserve"><tspan x="106.66791" y="65.980911" stroke-width=".26458">Yumthang</tspan></text>
 <ellipse cx="140.89" cy="72.714" rx="2.6458" ry="2.2679"/>
 <ellipse cx="155.48" cy="81.691" rx="2.6458" ry="2.2679"/>
 <text x="162.55327" y="69.347252" fill="#000000" font-family="sans-serif" font-size="4.9389px" letter-spacing="0px" stroke-width=".26458" word-spacing="-.0026458px" style="line-height:1.25" xml:space="preserve"><tspan x="162.55327" y="69.347252" dx="0.07" dy="-0.0099999998" style="line-height:4.93891096px">Shingba</tspan><tspan x="162.55327" y="77.28479" style="line-height:4.93891096px">Rhododendron</tspan><tspan x="162.55327" y="85.222321" style="line-height:4.93891096px">Sanctuary</tspan></text>
 <text x="1.3688822" y="181.18895" fill="#000000" font-family="sans-serif" font-size="3.5278px" letter-spacing="0px" stroke-width=".26458" word-spacing="0px" style="line-height:1.32292259px" xml:space="preserve"><tspan x="1.3688822" y="181.18895">Gangtok----Zero point=153km</tspan><tspan x="1.3688822" y="182.51187"/><tspan x="1.3688822" y="183.83479"/><tspan x="1.3688822" y="185.15771"/><tspan x="1.3688822" y="186.48064">Gangtok----Tso Lhamu lake=181km</tspan></text>
</svg>
