<svg width="174.65mm" height="129.46mm" version="1.1" viewBox="0 0 174.65229 129.45748" xmlns="http://www.w3.org/2000/svg" xmlns:cc="http://creativecommons.org/ns#" xmlns:dc="http://purl.org/dc/elements/1.1/" xmlns:rdf="http://www.w3.org/1999/02/22-rdf-syntax-ns#">
 <metadata>
  <rdf:RDF>
   <cc:Work rdf:about="">
    <dc:format>image/svg+xml</dc:format>
    <dc:type rdf:resource="http://purl.org/dc/dcmitype/StillImage"/>
    <dc:title/>
   </cc:Work>
  </rdf:RDF>
 </metadata>
 <g transform="translate(-25.425 -84.804)" clip-rule="evenodd" fill="#fff" fill-rule="evenodd" shape-rendering="geometricPrecision" stroke="#85c5e3" stroke-width=".7">
  <path class="fil0 str0" fill="#85c5e3" d="m44.285 93.505 2.9045-0.3749c0.7893-0.3019 1.6171-1.1306 2.288-1.671 0.6948-0.5595 2.9728-0.2332 4.0041-0.6922 0.6543-0.2913 0.4216-2.5639 0.858-3.2705 1.0664-1.7262 4.0502-1.8105 5.8392-2.3632 0.9878-0.3052 5.0712 2.9998 5.6725 3.8433l4.1232 4.6072c0.4231 0.4727 0.88439 1.48 1.5968 1.48 2.4493 0 4.3922 2.9622 6.2445 4.5357 1.6674 1.4163 2.5866 3.5659 4.5284 4.6788l-0.21451 0.549c-0.47849 0.2994-0.82129 0.7747-1.3347 1.0026-0.4049 0.1798-0.69781 0.4572-1.0725 0.7162-0.82139 0.5679-1.4301 1.5916-1.4301 2.602 0 0.599 0.0814 1.7031-0.30981 2.1484-0.4752 1.0732-1.8507 3.2214-1.573 4.3924 0.19259 0.8119 1.544 2.5891 2.288 2.984 1.8485 0.9811 3.0206 3.6528 1.5492 5.4666-0.902 1.1118-0.6912 3.4332-0.6912 4.9175 0 1.1142 0.2957 2.7748 0 3.7956 0 1.6931-0.3592 4.9144 0.5244 6.3021 1.4028 2.2028-0.0715 2.7094-0.0715 4.8221 0 0.9114 1.2768 2.2812 2.0973 1.5277 1.8425-1.6919 1.1679-2.1451 1.1679-4.3207 1.0827 0 1.3531 0.8366 2.2403 0.9549 1.1107 0.148 2.3551-0.1728 3.4321 0.0477 1.8225 0.3731 2.034 3.096 1.5253 4.7504-0.6739 2.1912-0.5773 1.8556-2.5025 2.3156-1.0174 0.2431-1.383 0.5703-2.0259 1.3368-1.9076 1.9122-0.2065 3.7583-3.3843 5.3472-1.4208 0.7103-4.8949 2.2759-3.5036 4.3685 0.6992 1.0518 2.3834 1.965 2.3834 3.3659 0 3.0353-1.9459 2.3919-4.0041 3.3659-1.1945 0.5653-2.3465 1.4062-2.4787 2.8169 0 1.999 3.6029 3.2318 4.7906 4.5595 1.5971 1.7856-0.7173 4.5899 0.2383 6.9227 0.4735 1.1559 2.2059 1.7407 3.0507 2.6736 0.9897 1.0927 2.2586 4.5988 1.8591 6.1112-0.4908 1.308-1.22 0.9787-2.4787 0.9787-1.0873 0-2.4313 1.9158-3.1223 2.6975-1.7526 1.983-2.6699 4.6305-4.5045 6.5408l-0.5108 2.6719c-0.4575 0.16921-0.917 0.4292-1.3343 0.5769-2.1692 0.7676-4.2231 1.9462-6.6734 1.5516-1.9175-0.30879-1.7712-2.9808-3.9087-3.1272-0.5797-0.0397-1.16-0.0796-1.7399-0.1193-2.6371-0.1807-4.9925-0.8278-6.4589 1.8858-0.9836 1.8203-2.3542 3.0131-4.5045 2.4827-1.4782-0.3646-1.4077-1.5163-3.1699-1.7426-1.3628-0.175-1.4791-0.8499-2.5026-1.4801-1.0649-0.6557-2.9912-0.5376-3.861-1.4084-0.4914-0.492-1.0292-0.6545-1.287-1.3846-0.2293-0.6494-0.5017-1.4044-0.429-2.1245 0.088-0.8714 0.1392-1.998 0.0531-2.8453-0.01-0.0939-0.8551-1.6156-1.0472-1.904-0.7306-1.0964-0.9996-1.6099-0.9996-3.1416 0-0.56349 0.7578-3.2746 0.2856-3.4748-0.0919-0.039-0.6653-0.4885-0.8092-0.71399-0.6023-0.9432-0.3189-1.7235-1.4756-2.2372-0.6571-0.2918-1.5714 0.2691-2.1896-0.0952-1.0516-0.6198-1.5474-1.7236-2.8084-2.0468-0.9714-0.2489-3.0957 0.8192-3.8499 1.322l-7e-3 -1.1219 0.0239-3.3659c7e-3 -0.9511 0.4902-1.8448 0.8103-2.7094 0.629-1.6991 1.6939-3.1919 2.3119-4.8579 0-2.8421 0.9069-5.7634 1.3466-8.4983 0.1098-0.6829 0.4598-1.3228 0.5243-1.9933 0.7022-1.5173 1.6593-2.9898 2.4072-4.452l1.9782-3.8672c0.4799-0.9382 0.1193-1.5154-0.2264-2.423 0-0.7516-0.6161-1.0737-0.7627-1.5874-0.3398-0.0428-1.8991-1.4763-2.0735-1.7904-0.4011-0.722-0.2666-1.7278-0.1073-2.5065l1.0725-5.2399c0-2.1218 1.0782-2.6099 2.443-3.8791 1.3061-1.2148 2.0361-1.6501 1.4538-3.5449-0.2714-0.8829-0.2328-2.5563-0.7746-3.2704-0.2596-1.5624-1.0954-2.5588-1.9067-3.8792-0.728-1.1847-1.8171-2.2792-1.8828-3.7359-0.0511-1.1339 0.514-1.6554 0.9057-2.59 0.5497-0.8816 1.6281-1.8896 1.8113-2.9004 0.1316-0.7258 0.0815-1.7063 0.4767-2.3275 0.4122-0.6477 0.3271-0.6968 0.143-1.3965-0.1755-0.6668-0.3909-1.6396-0.7389-2.2559-0.4701-0.8352 0.8374-0.8257 1.2751-1.5278 0.5327-0.6255 0.8819-1.2542 0.8819-2.1007 0-0.5125 1.0933-0.4254 1.43-0.728 1.1683-1.0496 0.2887-3.527 0.5482-4.8937 0.2246-1.1835 1.183-1.6872 1.859-2.5543 0.4678-0.6003 2.0343-2.1744 3.4485-3.4393z" image-rendering="optimizeQuality"/>
  <path class="fil0 str0" d="m82.345 104.28c1.9489-1.0445 4.1336-0.909 6.173-1.3367 2.3236-0.4872 3.3135-0.7575 5.5294 0.0955 2.3282 0.8963 6.066-0.4997 7.5075 1.5994 1.4896 2.169 2.2837 3.0316 5.2673 3.0316 0.21901 0.8796-0.3337 1.9166-0.3337 2.8646 0 1.7798-0.89359 1.2401-1.1202 2.1484-0.3855 0.1285 0.32939 1.2758-0.3575 1.5517-0.0185 0.0931-0.51131 0.6564-0.59581 0.6684-0.14619 0.8796-4.512 6.3519-4.8621 6.6601-0.8059 0.7096 0.16641 2.4387 0.42901 3.2942 0.31879 1.0387 0.73749 1.8636 0.9057 2.9601 0.2546 1.6601 0.46039 2.9238 1.2632 4.4401 0.78379 1.4802 0.4766 2.6306 0.4766 4.3207-0.4615 3.935-4.5769 8.6071-1.6921 12.461 1.8636 2.4895 4.9359 0.629 7.1739-0.382 1.2583-0.5685 2.6984-1.1059 4.0993-1.0503 1.5948 0.0632 1.8677 0.7002 2.9316 1.5516-0.3814 0.5631-0.87099 1.0375-1.1679 1.671-0.7874 1.6799 0.3337 3.8544 0.3337 5.562 2.2819 4.1427-4.7548 4.7242-6.0299 7.2808-0.9655 1.9357-1.5217 4.8018-1.8828 6.9705-0.6264 3.763 0.77339 3.4243 2.9315 5.5859 1.1811 1.5056 3.9183 2.5343 5.6247 3.3897 2.2842 1.145 0.38129 6 0.38129 8.1163 0 3.4676 4.4148 5.0657 6.9681 6.1983-0.80631 1.0709 1.7723 2.7347 0.86199 3.6467-0.5324 0.5332-0.42579 1.9869-2.11 2.8314-1.1982 0.6009-3.0735 1.1031-3.3962 2.1484-0.2579 0.8351-1.2273 2.2799-2.4073 2.3515-1.1326 0.0687-0.94101-0.2412-2.6546 0.43711-0.8949 0.35419-0.6512-0.0649-1.2898 1.4129-2.4516 5.673-1.3493 5.9197-5.9823 6.5647-0.34839 0.0485-0.4591 0.3371-0.44469 0.7415-0.87451-5e-3 -3.4539-1.8624-4.2604-2.3626-0.91561-0.5679-2.3644-0.1917-3.575-0.74-1.5117-0.6847-3.2473-1.253-4.9097-0.74-2.2135 0.6829-2.9487-1.7563-4.0994-2.5065-0.3415-0.22271-0.6833-0.44571-1.0249-0.66841-0.864-0.56349-0.6641 1.1227-1.2632 0.9071-0.8767-0.3156-1.0906 0.2138-1.8828 0.1671-0.39561-0.0228-0.14301-1.608-0.14301-1.8859 0-0.7806-0.35689-1.2335-1.1202-1.4323-0.0982-0.0255-0.3328-0.6325-0.4052-0.7639-0.2163-0.3926-2.3745-0.8503-3.003-0.2864-0.3151 0.2827-1.0032-0.3149-1.3824-0.3581-0.5578-0.0637-1.3555 0.4479-1.7875-0.0716-0.50441-0.6067-1.1208-0.54349-1.7403-0.3143l0.5108-2.6719c1.8346-1.9103 2.7519-4.5578 4.5045-6.5408 0.69099-0.7817 2.035-2.6975 3.1223-2.6975 1.2587 0 1.9879 0.3293 2.4787-0.9787 0.3995-1.5124-0.86939-5.0185-1.8591-6.1112-0.84479-0.9329-2.5772-1.5177-3.0507-2.6736-0.9556-2.3328 1.3588-5.1371-0.2383-6.9227-1.1877-1.3277-4.7906-2.5605-4.7906-4.5595 0.13221-1.4107 1.2842-2.2516 2.4787-2.8169 2.0582-0.974 4.0041-0.3306 4.0041-3.3659 0-1.4009-1.6842-2.3141-2.3834-3.3659-1.3913-2.0926 2.0828-3.6582 3.5036-4.3685 3.1778-1.5889 1.4767-3.435 3.3843-5.3472 0.64289-0.7665 1.0085-1.0937 2.0259-1.3368 1.9252-0.46 1.8286-0.1244 2.5025-2.3156 0.50869-1.6544 0.29719-4.3773-1.5253-4.7504-1.077-0.2205-2.3214 0.1003-3.4321-0.0477-0.8872-0.1183-1.1576-0.9549-2.2403-0.9549 0 2.1756 0.67461 2.6288-1.1679 4.3207-0.82049 0.7535-2.0973-0.6163-2.0973-1.5277 0-2.1127 1.4743-2.6193 0.0715-4.8221-0.8836-1.3877-0.52441-4.609-0.52441-6.3021 0.29571-1.0208 0-2.6814 0-3.7956 0-1.4843-0.21079-3.8057 0.6912-4.9175 1.4714-1.8138 0.2993-4.4855-1.5492-5.4666-0.744-0.3949-2.0954-2.1721-2.288-2.984-0.27771-1.171 1.0978-3.3192 1.573-4.3924 0.39121-0.4453 0.3098-1.5494 0.3098-2.1484 0-1.0104 0.6087-2.0341 1.4301-2.602 0.3747-0.259 0.66761-0.5364 1.0725-0.7162 0.5134-0.2279 0.85619-0.7032 1.3347-1.0026z" image-rendering="optimizeQuality" stroke-width=".1"/>
  <path class="fil0 str0" d="m115.14 149.16c-0.3814 0.5631-0.871 1.0375-1.1679 1.671-0.7874 1.6799 0.3337 3.8544 0.3337 5.562 2.2819 4.1427-4.7548 4.7242-6.0299 7.2808-0.96551 1.9357-1.5217 4.8018-1.8828 6.9705-0.62639 3.763 0.77341 3.4243 2.9315 5.5859 1.1811 1.5056 3.9183 2.5343 5.6247 3.3897 2.2842 1.145 0.3813 6 0.3813 8.1163 0 3.4676 4.4148 5.0657 6.9681 6.1983 0.19029-0.2527 0.56919-0.4725 1.2272-0.6415 1.0854-0.3273 1.8168 0.5641 2.203-0.3486 0.7437-1.7577 1.9324-1.5232 3.0464-1.5232 1.1657 0 2.9616-0.93419 4.2364-1.2376 1.1444-0.2723 2.5742 0.4285 3.6613-0.0705 0.6872 0.4587 1.3914 2.0396 2.2053 2.2309 1.5036 0.35331 2.4652-0.4577 3.8611 0.7401 0.9924 0.8517 1.6162 3.1941 3.0745 3.4852 3.2979 0.37789 3.3623-1.8041 5.9584-2.7691 3.8272-1.4225 7.1954 1.3228 8.3895 4.7027 0.5502 1.5572 0.2412 3.2331 1.9782 4.2014 2.1356 1.1904 4.6718-0.987 6.6088-1.6331-0.422-0.4227-0.612-1.0176-0.4243-1.8521 0.7279-1.0926 1.2513-4.0293 2.3596-4.5953 1.0463-0.53421 3.8053-1.6606 4.1589-2.8169 0.246-0.8047 0.9773-1.8671 1.001-2.7094 0.8297-2.1533 1.1725-4.1997 1.2394-6.505 0.0573-1.9771 0.4483-2.449 1.6802-3.7956 1.7115-1.5203 5.2009-1.995 7.3646-2.6856 2.3073-0.7363 4.4553 0.8155 6.7449-0.2983l3.7538-1.8262c0.7942-0.896 1.2004-1.4605 1.2393-2.6736 0.0265-0.8248-0.0192-1.7358 0.1669-2.5304 0.3465-1.4795 1.0863-3.3478 1.6802-4.7386l-0.037-1.6444c-0.1175 5e-3 -0.2324 1e-3 -0.3443-0.0146l-6.1491-3.7837c-0.0911-0.9211-1.6859-3.7149-2.5144-4.1298 0-0.1591-2.1043-1.2124-2.3118-1.7187-0.3851-0.9399-0.4701-1.6877-1.2513-2.4707-1.6458-1.6493-4.0812 0.1835-5.6843-2.0411-0.8612-1.1952-2.5439-2.1188-3.2056-3.3658-0.9924-0.9944-1.6026-2.7935-2.4668-3.9627-0.0812-0.1098-0.1585-0.226-0.2323-0.3473-2.3667-0.2624-2.8156-0.6713-4.0336 0.4069-0.6647 0.5885-3.1071-0.2036-3.8849-0.4296-3.8705-1.1247-6.5412-0.4861-9.462 2.2439-2.042 1.9087-2.3243 1.8716-5.0289 1.4562-2.2133-0.34-3.3409 2.2225-6.1967 1.8858-1.7181-0.2026-2.0843 0.845-3.5274 0.6684l-5.4579-0.6684c-1.2443 0-1.1839-1.7525-3.0746-1.1697-1.2323 0.3799-2.7472 0.5668-4.0517 0.6207-3.0627 0.1266-3.9632-1.0185-6.5543-2.0291-1.4825-0.5781-3.1424 1.2732-4.1232 2.1484-0.9202 0.8212-3.8318 3.3186-4.9812 3.4611z" image-rendering="optimizeQuality" stroke-width=".1"/>
 </g>
 <g fill="none" stroke-width=".7">
  <path d="m122.57 67.513-1.0844-1.0844 0.36146 2.1688 1.3254 0.84341-0.84341 0.60244 0.48195 2.5302-1.6868 1.5663-1.6868 2.5302 0.60243-2.8917-1.4458 1.3254-0.36146 4.5785 1.2049 1.0844-0.60244 1.5663 0.60244 0.9639-1.6868 2.4098v1.0844l-1.4459-0.48195-3.4941 2.1688-1.4459-0.9639-3.4941 2.1688-1.2049 1.5663-1.6868-0.12049-2.4098 2.4098-1.3254 0.36146-0.9639 1.0844-1.2049 0.12049-1.9278 1.0844-1.5663-0.48195-0.9639-1.9278-2.1688-0.72293-0.8434 0.60244-1.0844-0.84341-2.5302 0.36146-1.0844-0.84341-0.12049 1.3254-0.84341-0.84341-0.36147 0.9639-0.84341-0.9639-1.4459 0.60244-0.96389-0.72293 1.6868-1.3254-0.84342-1.2049-0.12048 1.2049-1.3254-0.24098-2.4097 1.2049-2.6507 0.12049-1.3254 1.0844-1.2049-0.60244-0.9639 0.48195-0.84341-0.48195 1.2049-1.2049 1.6868-1.9278-1.5663-2.0483-2.4098 0.24097-1.2049 0.72292-0.72292-0.84341h-0.72293l-0.60244 0.84341-2.2893-2.5302 1.0844-1.3254 1.3254 0.48195 0.72293-0.84341-1.2049-0.9639-1.0844-5.6629-1.5664-0.12049-0.12048 1.4459-0.84341 1.0844-2.4098 2.8917-1.2049 0.12049-0.72292 0.60244-2.4098-0.48195-0.9639-0.36146-1.3254 0.72293-3.9761-1.3254 2.0483-1.2049h-2.2893l-3.3736 2.2893-0.72294-0.12049 0.9639-1.8073-2.0483 1.0844-0.72293 0.9639-0.12048 0.84341h-1.4459l-0.48195-1.2049 1.3254-1.6868-1.8073 0.9639-0.36146 1.5663-1.5663 0.24097-0.72292-0.9639-0.36147-1.0844-1.5663-0.84341 2.0483-0.36146 1.2049 1.2049 0.48196-0.36146v-0.72293l-1.0844-0.72292 1.5663-0.12049 2.6507-1.4459-1.6868-0.72293-0.48195-2.7712 1.3254-0.9639-2.1688-1.5663-4.8195 0.24098" stroke="#f99"/>
  <path d="m36.781 73.175-0.54938-0.71843 0.16903 1.2255-0.59164 0.38035 0.2113 0.12678-0.63391 0.4226 1.0142-0.33808 0.16904 0.25356-0.08452 0.16904 0.29582-0.12678-0.46487 0.50712 0.50713 0.16904-0.2113 0.25356 0.29582 0.33808-0.4226 0.4226 0.8452-0.25356-0.38034 0.46486v0.29583l-0.59164 0.4226 0.33808 0.12678-0.76068 0.4226-0.88747-0.25356-0.50713-0.6339-0.59164 0.71842-0.59163 0.04227-0.54939 0.2113-0.80294-0.4226-0.38034 0.08452-0.2113-0.16904-0.16904 0.08453-0.4226-0.33809-0.50713-0.04227-0.12678-0.2113-0.33808-0.08452-1.0142-0.80295-0.33808 0.33809-0.08453 0.25356h-0.29582l-1.141-0.8452-0.16904 0.29582-0.59165 0.12679-0.38034 0.6339-0.50713 0.12678-0.67616-0.12678 0.25356-0.92972 0.71843-0.2113 0.25356 0.12678 0.59164-0.71842 0.54938-0.08452 0.71842 0.46486-0.12677-0.50712 0.38034-0.42261-0.16903-0.08452-0.46487 0.38034-0.80294-0.2113-0.50711 0.16903-0.25357-0.16903-0.38034 0.16903-0.2113-0.16903 0.97198-0.46487h0.59165l0.84521-0.50712 0.54938 0.16904 1.141-0.2113 0.92973 0.25356h0.6339l0.50713-0.50713 0.33808 0.12679 1.0142-0.59165-0.2113-0.46486 0.2113-0.25356-0.12679-0.2113 0.2113-0.2113-0.25356-0.25356 0.54938-0.8452-0.12678-0.46486-0.59165-0.50712 0.67617 0.08452 0.29583-0.2113 0.2113 0.08452 0.33808-0.38034-0.04227-0.33808 0.25356-1.0988-0.29583-0.16904-0.38034 0.29582-0.92972-0.50712-0.88746-0.54938-0.21131-0.25356-0.54938 0.12678-0.33808-0.12678-1.0143 0.12678-0.76068-0.71842-0.04227-0.29582-0.33808-0.25356 0.25356-1.0565-0.29582-0.4226-0.63391-0.33808h1.0565l0.33808-0.71842-0.33808-0.16904 0.4226-0.33808-0.54938-0.29582 0.67617-0.25356-0.2113-0.08452 0.50713-0.67617 0.46485 0.33808-0.50711 0.59164 0.29581 0.38034 0.67617 0.12678 0.04226 0.38034-0.42261 0.38034 0.50714 0.80294 0.25356 0.46486 0.29582 0.08452 1.0988-0.4226 0.46487 0.46486 0.42259-0.12678-0.08451-0.76068-0.54939 0.25356 0.54939-0.8452-0.84521 0.6339h-0.25356l0.12679-0.80295 0.67616-1.0142 0.25356-0.29582-0.29582-0.38034 0.59165-0.46486-0.71843-0.16904 0.29582-0.4226" stroke="#f99"/>
  <path d="m40.396 80.525-0.02589-0.38776-0.67265-0.74966-0.75025-0.07753-0.51742 0.36191-0.15523-0.49116-0.33631-0.12925-0.15523-0.28436-0.41394-0.05174-0.51742 0.41362 0.59503-0.80136 0.64678 0.18095 0.2587-0.07754 0.43981 0.5687-0.25871-0.72382 0.31045 0.33607h0.25872l0.20696-0.33607h0.46566l-0.23283-0.18095h-0.56916l-0.25871-0.3102-0.28458-0.05175 1.009-0.25851 0.36219-0.31021-0.36219-0.10341-0.54328 0.05174-0.15523-0.28435-0.25871 0.05166-0.12936 0.15511h-0.31045l-0.12935 0.18096-0.64677 0.02579-0.85374 0.54286-0.2587-0.10341" stroke="#fcc"/>
 </g>
 <g fill="#fff" fill-rule="evenodd" stroke-width=".26459">
  <ellipse cx="106.84" cy="49.117" rx=".48666" ry=".44242"/>
  <ellipse cx="116.4" cy="47.214" rx=".57514" ry=".044242"/>
  <ellipse cx="113.52" cy="46.285" rx=".5309" ry=".70787"/>
 </g>
 <g stroke-width=".31525">
  <ellipse cx="123.41" cy="67.777" rx=".83408" ry=".71494"/>
  <ellipse cx="32.421" cy="59.648" rx=".83408" ry=".71494"/>
  <ellipse cx="37.638" cy="72.319" rx=".83408" ry=".71494"/>
  <ellipse cx="40.247" cy="80.145" rx=".83408" ry=".71494"/>
  <ellipse cx="65.588" cy="76.915" rx=".83408" ry=".71494"/>
 </g>
 <path transform="matrix(.26459 0 0 .26459 0 -.0021134)" d="m245.9 292.29c-1.1207-1.2383-0.77179-2.9539 0.74839-3.6801 2.7356-1.3069 5.4989 1.8801 3.2259 3.7206-1.3713 1.1104-2.9473 1.0943-3.9743-0.0405z" fill="#ccc" fill-rule="evenodd" stroke-width=".46948"/>
 <g font-family="sans-serif" letter-spacing="0px" stroke-width=".26459" word-spacing="0px">
  <text x="124.4676" y="67.59845" font-size="6.3501px" style="line-height:1.25" xml:space="preserve"><tspan x="124.4676" y="67.59845" font-size="4.2334px" stroke-width=".26459">Gangtok</tspan></text>
  <text x="66.543228" y="77.874962" font-size="6.3501px" style="line-height:1.25" xml:space="preserve"><tspan x="66.543228" y="83.668335" stroke-width=".26459"/></text>
  <text x="66.543228" y="77.874962" font-size="4.2334px" style="line-height:1.25" xml:space="preserve"><tspan x="66.543228" y="83.668335" font-size="4.2334px" stroke-width=".26459"/></text>
  <g font-size="6.3501px">
   <text x="59.732082" y="74.993324" style="line-height:1.25" xml:space="preserve"><tspan x="59.732082" y="74.993324" font-size="4.2334px" stroke-width=".26459">Ravangla</tspan></text>
   <text x="23.577042" y="57.942562" style="line-height:1.25" xml:space="preserve"><tspan x="23.577042" y="57.942562" font-size="4.2334px" stroke-width=".26459">Yuksom</tspan></text>
   <text x="36.231621" y="71.430695" style="line-height:1.25" xml:space="preserve"><tspan x="36.231621" y="71.430695" font-size="4.2334px" stroke-width=".26459"><tspan font-size="2.8223px">Pelling</tspan></tspan></text>
   <text x="19.909502" y="82.305504" style="line-height:1.25" xml:space="preserve"><tspan x="19.909502" y="82.305504" font-size="4.2334px" stroke-width=".26459">Geyzing</tspan></text>
   <text x="116.99596" y="8.3923225" style="line-height:1.25" xml:space="preserve"><tspan x="116.99596" y="8.3923225" font-size="3.175px" stroke-width=".26459">Gangtok---Pelling=<tspan fill="#ff0000">112km</tspan></tspan></text>
  </g>
 </g>
 <path d="m50.3 81.564c0.51712-0.70942 0.51712-0.73029 0.51712-0.73029l1.7963-0.77201 0.73486 0.02087 0.46269-0.20865 0.51712 0.16692 0.16331 0.14606 0.3266 0.08347 0.02722-0.56337 0.78929-0.50077 0.68042-0.18778-0.10888-0.39644h-0.43548l0.40826-0.16692 0.29938-0.89721 0.78929-0.41731-0.19052-0.56336 0.3266-0.27125 0.0272-0.31298-0.6532-0.37557-0.626-0.98067 0.43548 1.0015 0.51712 0.5425-0.40826 0.37558-0.29939 0.68856-0.54433 0.22952-1.2248 0.93894 0.78928-1.0433 0.51713-0.14605v-0.50078l0.38106-0.58423-0.35382-0.33384-0.70764-0.12519v-0.18779l-0.73485-0.50077-0.0272-0.16692-0.81651-0.33385-0.46268-0.08345-1.5241-1.0224 0.38104 0.41731-0.27217-0.02085-0.84372-0.91807-0.02721-0.37558-0.38102-0.35471 0.19051-0.43817-0.1633-0.22952 0.27216-0.5425 0.35382 1.085 0.3266-0.56336-0.08165-0.5425 0.21773 0.12519-0.4899-0.64682 0.54433 0.45904-0.62599-1.0433-0.35382-0.06259-0.35381 0.27125-0.38104-0.37558-1.3609 0.14606-0.38104-0.16692-0.1633-0.25038 0.38104-0.50077 0.05446 0.68856 0.19052-0.68856 0.21774-0.43817 0.0272-0.98067-0.35382-0.79288 0.16329-0.41731-0.43547-0.39644-0.21774 0.22952h-0.51712l-0.35381-0.16692-0.40826 0.10433-0.54433 0.22952 0.29937 0.08347-0.51711 0.10433 0.0272 0.27125-0.3266 0.27125-0.46269-0.10433-0.21773 0.20865-0.70765 0.02085v0.20865l-0.29938 0.39644-1.3336 0.04174-0.10888 0.12519-1.252 0.10433-1.5786 0.66769-0.29939-0.25038-0.54434-0.16692-0.3266-1.0433-1.2248-0.56336-0.29938-0.62596-0.78929-0.29212 0.13609-0.75115-0.21774-0.22952-0.51712 0.60509-0.3266 0.06259-0.3266-0.27125-0.68043-0.10433-0.24495-0.85548-0.40825-0.43817 0.51712 0.20865 0.27216 0.77202-0.10885-0.89721-0.40826-0.25038-0.13607-0.31298h-0.35384l-0.0272-0.43817-0.19052 0.10433-0.19052-0.08347 0.0272 0.18779-0.27217 0.04174 0.21774 0.08348 0.0058 0.63197" fill="none" stroke="#f99" stroke-width=".7px"/>
 <g font-family="sans-serif" font-size="6.3501px" letter-spacing="0px" stroke-width=".26459" word-spacing="0px">
  <text x="114.81612" y="19.012806" style="line-height:1.25" xml:space="preserve"><tspan x="114.81612" y="19.012806" font-size="3.175px" stroke-width=".26459">Gangtok---Yuksom=<tspan fill="#ff0000">119km</tspan></tspan></text>
  <text x="96.853325" y="24.838572" style="line-height:1.25" xml:space="preserve"><tspan x="96.853325" y="24.838572" font-size="3.175px" stroke-width=".26459">Gangtok--Yuksom(Via Pelling)=<tspan fill="#ff0000">153km</tspan></tspan></text>
  <text x="91.027565" y="30.664335" style="line-height:1.25" xml:space="preserve"><tspan x="91.027565" y="30.664335" font-size="3.175px" stroke-width=".26459">Gangtok--Yuksom(Except Pelling)=<tspan fill="#ff0000">143km</tspan></tspan></text>
  <text x="114.57336" y="13.672522" style="line-height:1.25" xml:space="preserve"><tspan x="114.57336" y="13.672522" font-size="3.175px" stroke-width=".26459">Gangtok---Geyzing=<tspan fill="#ff0000">104km</tspan></tspan></text>
 </g>
</svg>
