<svg width="183.62mm" height="163.34mm" version="1.1" viewBox="0 0 183.62202 163.34206" xmlns="http://www.w3.org/2000/svg" xmlns:cc="http://creativecommons.org/ns#" xmlns:dc="http://purl.org/dc/elements/1.1/" xmlns:rdf="http://www.w3.org/1999/02/22-rdf-syntax-ns#">
 <metadata>
  <rdf:RDF>
   <cc:Work rdf:about="">
    <dc:format>image/svg+xml</dc:format>
    <dc:type rdf:resource="http://purl.org/dc/dcmitype/StillImage"/>
    <dc:title/>
   </cc:Work>
  </rdf:RDF>
 </metadata>
 <g transform="translate(-14.39 -58.269)" clip-rule="evenodd" fill="#fff" fill-rule="evenodd" shape-rendering="geometricPrecision" stroke="#85c5e3">
  <path class="fil0 str0" fill="#85c5e3" d="m26.198 60.895c2.853-1.529 6.0511-1.3307 9.0366-1.9568 3.4015-0.71321 4.8506-1.1089 8.0944 0.1398 3.4082 1.3121 8.88-0.73151 10.99 2.3413 2.1806 3.1752 3.3431 4.4379 7.7108 4.4379 0.32059 1.2876-0.4885 2.8057-0.4885 4.1935 0 2.6054-1.3081 1.8154-1.6399 3.145-0.56433 0.18811 0.48221 1.8676-0.52334 2.2715-0.02708 0.13629-0.74849 0.9609-0.87219 0.97847-0.21402 1.2876-6.6051 9.2985-7.1176 9.7497-1.1798 1.0388 0.24359 3.57 0.62801 4.8224 0.46669 1.5205 1.0796 2.7281 1.3258 4.3333 0.37271 2.4302 0.67398 4.2801 1.8492 6.4998 1.1474 2.1669 0.69769 3.8509 0.69769 6.325-0.67559 5.7604-6.7001 12.6-2.4771 18.241 2.7281 3.6444 7.2256 0.92079 10.502-0.55921 1.842-0.83222 3.9502-1.6189 6.0009-1.5375 2.3346 0.0925 2.7341 1.025 4.2915 2.2714-0.55833 0.82432-1.275 1.5188-1.7097 2.4462-1.1527 2.4592 0.4885 5.6424 0.4885 8.1422 3.3405 6.0645-6.9605 6.9157-8.8271 10.658-1.4134 2.8336-2.2276 7.0293-2.7562 10.204-0.91698 5.5086 1.1322 5.0128 4.2914 8.1772 1.729 2.204 5.736 3.7099 8.234 4.9622 3.3438 1.6762 0.55818 8.7834 0.55818 11.881 0 5.0762 6.4628 7.4156 10.201 9.0736-1.1803 1.5677 2.5945 4.0033 1.2619 5.3384-0.77937 0.78055-0.62332 2.9086-3.0888 4.1449-1.754 0.87966-4.4993 1.6148-4.9717 3.145-0.37754 1.2225-1.7966 3.3375-3.524 3.4423-1.658 0.10058-1.3775-0.35309-3.886 0.63988-1.31 0.51851-0.95329-0.0951-1.8881 2.0683-3.5889 8.3047-1.9752 8.6658-8.7574 9.61-0.51002 0.071-0.67207 0.49349-0.65099 1.0855-1.2802-7e-3 -5.0561-2.7264-6.2368-3.4586-1.3403-0.83134-3.4612-0.28063-5.2334-1.0833-2.213-1.0023-4.7537-1.8343-7.1873-1.0833-3.2403 0.99969-4.3166-2.571-6.0011-3.6692-0.49992-0.32601-1.0003-0.65246-1.5003-0.97847-1.2648-0.82491-0.97217 1.6435-1.8492 1.3279-1.2834-0.462-1.5965 0.31298-2.7562 0.24461-0.57912-0.0333-0.20934-2.3539-0.20934-2.7608 0-1.1427-0.52246-1.8057-1.6399-2.0967-0.14375-0.0373-0.48718-0.9259-0.59317-1.1183-0.31664-0.57472-3.476-1.2448-4.3961-0.41926-0.46127 0.41384-1.4686-0.46098-2.0237-0.52421-0.81656-0.0932-1.9843 0.65567-2.6167-0.10479-0.73839-0.88814-1.6407-0.79563-2.5476-0.4601l0.74776-3.9114c2.6857-2.7965 4.0285-6.6721 6.5941-9.575 1.0115-1.1443 2.979-3.9489 4.5707-3.9489 1.8426 0 2.9101 0.48207 3.6285-1.4327 0.58482-2.214-1.2727-7.3465-2.7215-8.9461-1.2367-1.3657-3.7727-2.2218-4.4659-3.9139-1.3989-3.415 1.9891-7.5202-0.34885-10.134-1.7387-1.9436-7.0129-3.7483-7.0129-6.6746 0.19353-2.0651 1.8799-3.2961 3.6286-4.1236 3.013-1.4258 5.8616-0.48397 5.8616-4.9273 0-2.0508-2.4655-3.3876-3.489-4.9273-2.0367-3.0633 3.049-5.3552 5.1289-6.395 4.652-2.326 2.1617-5.0285 4.9543-7.8277 0.94114-1.1221 1.4763-1.6011 2.9657-1.9569 2.8183-0.67338 2.6769-0.1821 3.6634-3.3898 0.74468-2.4219 0.43507-6.4079-2.2329-6.9541-1.5766-0.3228-3.3983 0.14682-5.0242-0.0698-1.2988-0.17318-1.6946-1.3979-3.2796-1.3979 0 3.1848 0.98754 3.8483-1.7097 6.325-1.2011 1.103-3.0702-0.9022-3.0702-2.2364 0-3.0928 2.1582-3.8344 0.10467-7.059-1.2935-2.0314-0.76766-6.7471-0.76766-9.2256 0.43287-1.4943 0-3.9253 0-5.5563 0-2.1729-0.30859-5.5711 1.0118-7.1987 2.154-2.6552 0.43814-6.5663-2.2679-8.0025-1.0891-0.57809-3.0674-3.1797-3.3494-4.3683-0.40652-1.7142 1.6071-4.859 2.3027-6.43 0.57267-0.65187 0.45351-2.2682 0.45351-3.145 0-1.4791 0.89107-2.9777 2.0935-3.809 0.54852-0.37915 0.97729-0.78523 1.57-1.0484 0.75156-0.33362 1.2534-1.0294 1.9539-1.4677z" image-rendering="optimizeQuality"/>
  <path class="fil0 str0" d="m74.206 126.59c-0.55833 0.82432-1.275 1.5188-1.7097 2.4462-1.1527 2.4592 0.4885 5.6424 0.4885 8.1422 3.3405 6.0645-6.9605 6.9157-8.8271 10.658-1.4134 2.8337-2.2276 7.0293-2.7562 10.204-0.91698 5.5086 1.1322 5.0128 4.2914 8.1772 1.729 2.204 5.736 3.7099 8.234 4.9622 3.3438 1.6762 0.55818 8.7834 0.55818 11.881 0 5.0762 6.4628 7.4156 10.201 9.0736 0.27857-0.36994 0.83325-0.6917 1.7965-0.9391 1.5889-0.47913 2.6596 0.82579 3.225-0.5103 1.0887-2.5731 2.8288-2.2298 4.4596-2.2298 1.7065 0 4.3355-1.3676 6.2016-1.8117 1.6753-0.39861 3.7684 0.62728 5.3597-0.10322 1.006 0.67149 2.0369 2.9858 3.2283 3.2658 2.2011 0.51719 3.6088-0.67002 5.6522 1.0834 1.4528 1.2468 2.3659 4.6758 4.5007 5.102 4.8278 0.55321 4.922-2.641 8.7224-4.0537 5.6026-2.0824 10.533 1.9364 12.281 6.8842 0.80543 2.2796 0.35309 4.7329 2.8959 6.1504 3.1263 1.7426 6.839-1.4449 9.6746-2.3907-0.61776-0.61879-0.8959-1.4896-0.62113-2.7113 1.0656-1.5994 1.8318-5.8985 3.4542-6.727 1.5317-0.78202 5.5706-2.431 6.0882-4.1236 0.36012-1.178 1.4307-2.7332 1.4654-3.9663 1.2146-3.1522 1.7164-6.1479 1.8144-9.5226 0.0839-2.8943 0.65626-3.5851 2.4596-5.5564 2.5054-2.2256 7.6136-2.9205 10.781-3.9314 3.3776-1.0779 6.5221 1.1938 9.8738-0.43667l5.4952-2.6734c1.1626-1.3116 1.7572-2.138 1.8142-3.9139 0.0389-1.2074-0.0281-2.541 0.24433-3.7042 0.50724-2.1658 1.5902-4.9008 2.4596-6.9368l-0.0541-2.4072c-0.172 7e-3 -0.3402 1e-3 -0.50401-0.0214l-9.0016-5.5389c-0.13336-1.3484-2.468-5.4382-3.6808-6.0456 0-0.23292-3.0805-1.7748-3.3842-2.516-0.56374-1.3759-0.68816-2.4706-1.8318-3.6168-2.4093-2.4144-5.9744 0.26862-8.3212-2.988-1.2607-1.7496-3.724-3.1017-4.6927-4.9272-1.4528-1.4557-2.346-4.0894-3.6111-5.801-0.11886-0.16074-0.23203-0.33084-0.34006-0.50841-3.4646-0.38412-4.1217-0.98271-5.9048 0.59566-0.97304 0.86151-4.5485-0.29805-5.6871-0.62889-5.666-1.6464-9.5756-0.71159-13.851 3.2848-2.9893 2.7941-3.4025 2.7398-7.3618 2.1317-3.24-0.49772-4.8907 3.2535-9.0713 2.7606-2.5151-0.29659-3.0512 1.237-5.1637 0.97846l-7.9898-0.97846c-1.8215 0-1.7331-2.5655-4.5009-1.7123-1.804 0.55613-4.0216 0.82973-5.9313 0.90863-4.4835 0.18533-5.8017-1.491-9.5948-2.9704-2.1702-0.84628-4.6001 1.8638-6.0359 3.145-1.3471 1.2021-5.6093 4.8581-7.2919 5.0667z" image-rendering="optimizeQuality" stroke-width=".3"/>
 </g>
 <path d="m94.598 77.036-1.0207-2.1278 0.08655 3.3215 1.851 0.91687-1.2975 0.84767 0.65738 3.3215-2.5084 1.6607 0.46707 1.1072-2.5776 2.5949 0.91688-4.0654-2.6814 2.3873v5.3628l1.2975 1.5742-0.08655 3.5983-1.9548 3.7886v1.4878l-1.7473-1.0207-4.8957 3.235-1.7645-1.2975-4.1519 2.5084-3.4253 1.2802-3.1312 2.7852-0.84767 1.5569-2.024 0.10377-0.91688 1.4705-5.6396 1.7645-1.6608 4.619 0.36329 3.4253-1.5743 1.8338 3.3215 4.7227 0.38059 1.9375 1.6607-1.2974 2.4046 2.9582h1.1072l1.7473 1.9375-0.3633 0.93416 1.0207 1.1937-2.1278 0.0866 3.1485 2.8717-2.5949 0.19031-1.4704-1.7646-2.5084-0.55356-1.9375-0.0865-0.27678 4.5325-2.5776-3.8924-2.2316 1.1072-0.44978-1.1937-2.0413 1.8511 0.83038-2.7679-3.4253-3.5118-3.0447 2.024-2.2143-1.4704-2.7679 2.9582 0.36328 1.1937h-2.3008l1.1072 1.2975-0.46709 2.2143-3.4253-2.1278-1.1937 1.211-2.3181-1.7645-1.851 0.7439-1.1937-0.7439 0.64008-0.83036-3.8751-2.4911-0.55359 2.1278h-1.1936l0.72658 1.8338-2.1278 0.84767-0.44978-1.4012 0.72658-0.72659-0.2768-2.6814-1.384 1.1071-4.0654 0.19031" fill="none" stroke="#f99" stroke-width=".7px"/>
 <path d="m66.046 112.21-2.7748-3.3324-2.0228-0.75854-1.6857-3.3713-1.2642 1.18 2.1071 2.0228-7.8383-0.42141-1.0957-1.2642-0.58998 0.50569 0.42141 1.18-0.75854 0.92711-0.25285-2.1071-1.0957-0.42141 0.58998-0.50569-0.84283-0.0843 0.75855-1.18-0.5057-1.3485-2.5285-2.3599-1.2642-0.42141v-2.4442l0.50569-1.0957-0.58998-0.67426-0.75854 0.84282h-2.1071l1.9385-1.5171 0.50569-2.1071 0.42141-0.50569 0.16857-2.0228-0.75855-1.6856-0.33713-4.3827 1.0114-2.4442-0.42142-0.42141-0.9271 1.18v0.67426l-1.0957 1.0957-1.0957 6.6583-0.9271 1.18 0.16856-1.18-0.50569-0.84283-0.08431-6.7426-1.2642 2.4442-0.58998 2.7813 0.08431 1.6014-0.92711 1.5171-2.2756-1.0114-1.8542-0.42141-0.92711-0.67426v-0.50569l-2.2756-1.0114-2.2756-2.4442-0.16856-1.18-4.467-2.4442 0.75854 1.5171-0.08431 3.5399-0.67426-3.3713-1.4328-1.3485-0.42141 0.67426 0.92711 1.8542-0.33713 0.67426-1.18-2.3599 0.9271-2.9499-1.3485 2.0228v2.6128l-0.08431 3.0342-1.0957 2.697 0.25285 1.4328-0.75854 0.33713-0.42141 2.4442-0.58998 1.5171-1.18 0.58998-0.42141 1.5171 1.0957 2.8656 0.84283 1.18 2.4442 0.84282 1.7699-0.16856 0.33714 0.67425h1.18l0.33713 0.5057h0.84283l0.08431 1.4328-1.9385 0.84283-0.58998 1.9385 1.6856 1.8542h2.8656l-0.16856 0.75855 1.18 1.0957 1.8542 0.16856 0.50569 0.75855 0.75854 1.6014-0.08431 1.0957 1.8542 2.1071-0.67426 1.2642-0.92711 0.42141-1.0957 2.1071 0.67426 2.1071-1.7699 2.7813-0.08431 1.9385-1.0957 0.75855-0.9271-0.50571-0.84283 0.50571-1.2642-0.75855-1.2642 2.0228 0.08431 1.0957-0.75854 2.1071 1.18 0.0843-3.7862 3.0407" fill="none" stroke="#fcc" stroke-width=".7px"/>
 <ellipse cx="94.852" cy="76.852" rx=".83408" ry=".71494"/>
 <ellipse cx="22.215" cy="81.096" rx=".83408" ry=".71494"/>
 <ellipse cx="18.596" cy="137.51" rx=".83408" ry=".71494"/>
 <g font-family="sans-serif" font-size="6.3501px" letter-spacing="0px" stroke-width=".26459" word-spacing="0px">
  <text x="96.848564" y="76.852173" style="line-height:1.25" xml:space="preserve"><tspan x="96.848564" y="76.852173" font-size="4.2334px" stroke-width=".26459">Gangtok</tspan></text>
  <text x="18.970219" y="77.975418" style="line-height:1.25" xml:space="preserve"><tspan x="18.970219" y="77.975418" font-size="4.2334px" stroke-width=".26459">Ravangla</tspan></text>
  <text x="6.4897156" y="143.37326" style="line-height:1.25" xml:space="preserve"><tspan x="6.4897156" y="143.37326" font-size="4.2334px" stroke-width=".26459">Namchi</tspan></text>
  <text x="131.95766" y="9.0761843" style="line-height:1.25" xml:space="preserve"><tspan x="131.95766" y="9.0761843" font-size="3.175px" stroke-width=".26459">Gangtok---Namchi=<tspan fill="#ff0000">80km</tspan></tspan></text>
  <text x="127.79854" y="15.503926" style="line-height:1.25" xml:space="preserve"><tspan x="127.79854" y="15.503926" font-size="3.175px" stroke-width=".26459">Gangtok--Ravangla=<tspan fill="#ff0000">64.5km</tspan></tspan></text>
 </g>
</svg>
