<svg width="198.26mm" height="133.71mm" version="1.1" viewBox="0 0 198.26025 133.71242" xmlns="http://www.w3.org/2000/svg">
 <g transform="translate(-2.4017 -65.153)" fill="#fff" stroke="#85c5e3">
  <path class="fil0 str0" d="m21.274 84.551c-0.80899 1.1944-1.8475 2.2006-2.4772 3.5444-1.6702 3.5632 0.70781 8.1756 0.70781 11.798 4.8401 8.7871-10.085 10.021-12.79 15.443-2.0479 4.1058-3.2277 10.185-3.9936 14.785-1.3287 7.9817 1.6405 7.2633 6.218 11.848 2.5052 3.1935 8.3111 5.3755 11.931 7.1899 4.845 2.4287 0.80878 12.727 0.80878 17.215 0 7.3551 9.3642 10.745 14.78 13.147 0.40364-0.53601 1.2073-1.0022 2.603-1.3607 2.3022-0.69424 3.8536 1.1965 4.6728-0.73942 1.5775-3.7282 4.0988-3.2309 6.4617-3.2309 2.4726 0 6.2818-1.9815 8.9858-2.6251 2.4274-0.57757 5.4601 0.90889 7.766-0.14954 1.4576 0.97296 2.9513 4.3262 4.6777 4.732 3.1893 0.74939 5.2289-0.97082 8.1898 1.5698 2.105 1.8065 3.4281 6.775 6.5213 7.3924 6.9952 0.80157 7.1318-3.8267 12.638-5.8735 8.1179-3.0173 15.262 2.8058 17.795 9.9749 1.167 3.303 0.5116 6.8577 4.196 8.9116 4.5298 2.525 9.9094-2.0935 14.018-3.464-0.8951-0.8966-1.2981-2.1584-0.89998-3.9285 1.544-2.3175 2.6541-8.5465 5.005-9.7471 2.2193-1.1331 8.0714-3.5223 8.8214-5.9749 0.52179-1.7068 2.073-3.9603 2.1232-5.7469 1.7599-4.5674 2.487-8.908 2.6289-13.798 0.12148-4.1936 0.95088-5.1946 3.5639-8.0508 3.6303-3.2247 11.032-4.2316 15.621-5.6964 4.894-1.5618 9.4501 1.7298 14.307-0.63271l7.9622-3.8736c1.6846-1.9005 2.5462-3.0979 2.6287-5.671 0.0562-1.7495-0.0407-3.6818 0.35401-5.3672 0.73495-3.1382 2.3042-7.101 3.5639-10.051l-0.0784-3.488c-0.24926 0.0105-0.49297 3e-3 -0.73033-0.0309l-13.043-8.0256c-0.19323-1.9537-3.5759-7.8797-5.3333-8.7597 0-0.33747-4.4634-2.5716-4.9036-3.6455-0.81683-1.9936-0.99713-3.5798-2.6542-5.2406-3.4909-3.4983-8.6566 0.38922-12.057-4.3294-1.8267-2.5351-5.3959-4.4942-6.7994-7.1392-2.105-2.1092-3.3993-5.9253-5.2324-8.4053-0.17223-0.2329-0.33617-0.47937-0.4927-0.73666-5.02-0.55658-5.9722-1.4239-8.5557 0.86308-1.4099 1.2483-6.5905-0.43186-8.2403-0.91122-8.2097-2.3856-13.875-1.0311-20.07 4.7595-4.3313 4.0485-4.9301 3.9698-10.667 3.0887-4.6946-0.72117-7.0864 4.7141-13.144 4-3.6443-0.42973-4.421 1.7923-7.482 1.4177l-11.577-1.4178c-2.6393 0-2.5112-3.7172-6.5215-2.481-2.6138 0.80581-5.8271 1.2022-8.5941 1.3166-6.4963 0.26853-8.4063-2.1603-13.902-4.3039-3.1445-1.2262-6.6653 2.7006-8.7457 4.557-1.9518 1.7418-8.1276 7.0391-10.566 7.3413z" clip-rule="evenodd" fill-rule="evenodd" image-rendering="optimizeQuality" shape-rendering="geometricPrecision" stroke-width=".7"/>
 </g>
 <path d="m69.056 38.119 0.38771-2.714 1.0339 3.6187 1.1632 1.1631 1.0339-1.9386-0.51695 3.8772 1.1631-2.3263 0.6462 1.9386 1.9386-3.3602 1.5509 1.4216-0.25848-2.4555 2.0678 0.6462 1.8093-3.1017 3.4894-1.0339-0.90466-2.8433 1.8093-2.9725 2.5848 1.1632v-3.1017l2.9725 1.6801 2.4555-1.5509 0.51695-1.6801 1.8093 0.38772 1.4216-1.6801 4.1356 1.9386 2.0678-0.51695-1.1632-4.3941 1.0339-1.1632 2.714 1.9386 1.6801-2.8433 1.6801 0.51696 1.8093 6.9789 1.5509-0.51696 4.7818-3.4895 1.0339 1.2924 5.6865 1.1631 3.3602-1.1631 1.8094-1.2924 6.8497-0.51695-1.2924 2.8433 1.8093 0.25848-0.38771 1.9386 4.1356-4.9111 1.5509 0.77543-1.0339 3.8772 1.4216 0.6462 1.8094-1.4216 2.8433-4.6526 3.231-1.2924 1.8094 0.38772 2.0678 1.1632 4.5234-4.0064" fill="none" stroke="#f99" stroke-width=".7"/>
 <g stroke-width="2.737">
  <ellipse cx="156.54" cy="17.136" rx="2.2828" ry="1.9568"/>
  <ellipse cx="131.08" cy="20.709" rx="2.2828" ry="1.9568"/>
  <ellipse cx="67.453" cy="38.442" rx="2.2828" ry="1.9568"/>
 </g>
 <g fill="#000000" font-family="sans-serif" font-size="6.3501px" letter-spacing="0px" stroke-width=".26459" word-spacing="0px">
  <text x="51.458447" y="44.700348" style="line-height:1.25" xml:space="preserve"><tspan x="51.458447" y="44.700348" font-size="4.2334px" stroke-width=".26459">Gangtok</tspan></text>
  <text x="115.08818" y="15.493255" style="line-height:1.25" xml:space="preserve"><tspan x="115.08818" y="15.493255" font-size="4.2334px" stroke-width=".26459">Tsongmo lake</tspan></text>
  <text x="158.2034" y="12.016219" style="line-height:1.25" xml:space="preserve"><tspan x="158.2034" y="12.016219" font-size="4.2334px" stroke-width=".26459">Nathula Pass</tspan></text>
  <text x="3.8230822" y="119.80428" style="line-height:1.25" xml:space="preserve"><tspan x="3.8230822" y="119.80428" font-size="3.1751px" stroke-width=".26459">Gangtok---Nathula Pass=<tspan fill="#ff0000">56.3km</tspan></tspan></text>
  <text x="4.1707759" y="125.36754" style="line-height:1.25" xml:space="preserve"><tspan x="4.1707759" y="125.36754" font-size="3.1751px" stroke-width=".26459">Gangtok---Tsongmo Lake=<tspan fill="#ff0000">39.7km</tspan></tspan></text>
 </g>
</svg>
