<!-- Created with Inkscape (http://www.inkscape.org/) -->
<svg width="215.98mm" height="259.94mm" version="1.1" viewBox="0 0 215.97911 259.93386" xmlns="http://www.w3.org/2000/svg" xmlns:cc="http://creativecommons.org/ns#" xmlns:dc="http://purl.org/dc/elements/1.1/" xmlns:rdf="http://www.w3.org/1999/02/22-rdf-syntax-ns#">
 <metadata>
  <rdf:RDF>
   <cc:Work rdf:about="">
    <dc:format>image/svg+xml</dc:format>
    <dc:type rdf:resource="http://purl.org/dc/dcmitype/StillImage"/>
    <dc:title/>
   </cc:Work>
  </rdf:RDF>
 </metadata>
 <g fill="none">
  <g transform="translate(-1.6025 -22.269)" stroke="#fff" stroke-width=".5">
   <path fill="#cc2" id="Vellore" d="m87.492 67.082c-3.3419 2.0414-4.2985 6.8371-5.349 10.298-1.7757 0.34077-3.5419-0.54709-5.299-0.10306-1.263 0.3192-2.2165 1.5787-3.4323 1.6569-2.0821 0.13451-5.269-1.4787-7.2372-2.204-1.263-0.46582-1.5506-2.0352-2.8635-2.2978-1.3349-0.26886-2.7428-0.07184-4.0966-0.25011-3.1187-0.4158-3.7922 0.94726-3.961 3.8297-1.535 0.56585-2.0518-1.7101-2.6386-2.6041-1.1067-1.6913-3.6328-0.70654-5.2739-1.0692-1.6538-0.36889-3.276-1.2067-4.7549 0.06244-1.4099 1.2068-2.768 2.0102-4.6436 1.1567-0.93037-0.42204-2.3446-1.9633-2.9792-0.45643-0.76592 1.8257-1.0692 3.8077-2.8332 5.0051-0.76937 0.52207-1.3696 0.90974-2.3275 0.93474-0.91285 0.02113-1.5725-0.87847-2.4151-0.08757-1.1849 1.1098-1.5306 1.5506-3.1872 1.6725-0.22818 0.94101 0.85971 2.3541 1.2911 3.1107 0.91847 1.5975 0.74905 2.4478-0.07793 4.0579-0.79092 1.5412-1.8445 3.0137-2.4806 4.6237-0.64118 1.6225-0.26726 3.3825-0.47673 5.0676-0.21574 1.7288 0.05329 3.5919-1.0004 5.1115-0.94445 1.363-2.4571 2.4384-3.5325 3.7264-0.7231 0.86598-1.7132 0.65339-1.7366 2.0977 0.09038 0.74404 0.18616 1.4881 0.2798 2.2352-0.0093 0.53458-1.2048 1.8257-1.1789 1.9664-0.35356-1.7788-1.2914-3.1295-3.2825-2.9198-0.08615 1.8664-0.26602 3.5607-0.66932 5.3866-3.1795 1.1848-2.9325 2.0883-3.761 5.1582-1.7651 0.14063-3.6764 0.2094-5.5554 0.0313 0.077935 0.16245 0.15165 0.33139 0.22208 0.50022 1.0779 2.7041 1.3371 6.3932 1.4393 9.2879 0.07512 2.0227-0.55458 4.7706 0.51582 6.615 1.0704 1.8445 3.7764 1.6538 4.8363 3.9485-1.4881 0.63774-2.0227 4.5394-0.032395 4.8206 0.71902 0.103 1.8257-1.1286 2.3884-1.4662 1.2289-0.74091 3.0731-0.24383 4.3427 0.13761 2.2134 0.66585 9.4865 3.6858 8.4081 6.8932-0.17208 0.0188-0.34701 0.0436-0.51897 0.0716-1.0376 1.6756 0.54711 5.1634-0.88783 6.6432 1.0748 1.7538 3.9203 0.93788 5.5648 1.4944 0.58775 0.2 1.0629 0.52521 1.4725 0.92535 0.19062-0.21269 0.49739-0.41889 0.90661-0.65961 2.5947-1.5162 3.68-5.308 5.0582-7.7656 1.9073-3.3919 3.9828-6.6888 5.3678-10.338 2.8543-7.528 6.5935-14.781 10.388-21.877 1.7194-3.2138 2.7766-4.5955 6.4993-3.7046 1.8964 0.45329 7.1653 1.8539 6.9022-1.8226 1.8954-0.12818 3.2912-0.39392 4.4342-2.0227 1.0654-1.5193 1.5697-3.2043 3.7795-2.995 0.94727 0.0906 1.1758-0.44079 1.9695-0.75654 1.5319-0.60649 3.2241-0.5596 4.8392-0.52833 2.209 0.0436 4.9272 1.6037 6.9625 1.1879 0.21879-1.5162 0.0087-3.1449 0.11075-4.683 2.3121-0.21269 2.9698-3.3764 5.6338-1.9226-1.2539 1.1974-0.25947 1.4662 0.8844 1.7476 1.6479 0.40953 1.5134 1.9008 1.6091 3.2356 2.4313 0.0657 4.631 2.5853 6.3143 4.0985 2.3663 2.129 2.0536-1.2317 4.0431-0.90972 0.51456 2.8168-3.06 4.7643-2.4034 7.7656 0.18826 0.86281 0.82221 1.9695 1.8629 1.8851 1.6291-0.12817 1.1817-2.1883 2.6135-2.701 2.748-0.9879 4.3767-1.163 4.6852-4.5549 0.13717-1.5162-0.0243-3.0792 0.32106-4.5706 0.40735-1.7663 1.3505-3.4483 1.0004-5.3178-0.18429 0.0117-0.35326-0.0312-0.5096-0.12817-0.63459-1.8945-1.4943-2.2634-0.39733-4.3861 1.0095-1.957 1.3334-4.1828 1.646-6.3369 3.6795-0.51583 6.7244 2.3977 9.8591 4.583 0.14953-0.20001 0.30104-0.40328 0.44954-0.60961 1.0035-1.4037-0.28452-2.4041 0.18123-3.8858 0.48143-1.5381 2.3853-1.8945 3.7764-1.8101 0.5252-1.0066 4.3722-2.5698 5.6272-2.7135 0.32825-1.8414-0.42482-2.8323 1.46-4.0173 1.373-0.85972 2.9325-1.3693 4.4143-2.0039 1.4975-0.644 4.4455-3.6734 6.6432-4.2455-0.0376-0.18123-0.0702-0.3595-0.0948-0.54052-0.22536-1.6163 1.1404-3.0011-1.032-3.8828-1.3817-0.5596-2.9374-0.48145-4.3974-0.51897-0.12462-1.8788 0.0614-3.4513-0.76248-5.177-0.48956-1.0254 1.8445-1.288 1.9576-2.5104 0.1655-1.7601-4.3575-1.2067-5.3519-1.4693-0.31918-0.83469-0.68214-1.6256-0.90565-2.4447-0.83472-0.06244-2.364 0.34077-2.7356-0.74405-0.20259-0.59085-0.17208-1.1973-0.94443-1.3474-1.1886 1.882-0.27169 4.4485-1.625 6.2181-0.46076 0.60024-3.5088 0.98164-4.2204 0.91913 4e-3 0.63151 4e-3 1.3224-0.11062 1.9289-0.81348 0.16268-2.1818 0.26259-2.8137-0.42204-0.3995-0.43141-0.2256-1.263-0.70995-1.5443-1.4284-0.82847-4.4643-0.96601-6.0711-0.71905-1.8954 0.29074-2.5466 3.8358-4.5528 3.2356-1.4881-0.44392-2.0727-2.8668-3.8753-2.5259 0.18992 1.1786-0.81064 1.7757-0.88474 2.8356-0.0873 1.2817 1.5294 1.7819 2.2168 2.5571 2.0727 2.3384-5.6523 2.2946-6.4179 2.2384-2.2418-0.1594-7.4836-0.23147-8.3433-3.0198-0.19015-0.61585-0.06202-1.3505 0.1648-2.0946-0.86816-0.8691-1.6072-1.9726-1.9292-2.4416-1.3483-1.9758-3.8699-1.9945-5.7707-0.83471z"/>
   <path fill="#e2b584" id="#Tiruvannamalai" d="m114.28 94.086c-0.31263 2.154-0.63182 4.3798-1.646 6.3369-1.0973 2.1258-0.2376 2.4947 0.39736 4.3861 0.15634 0.097 0.32511 0.14063 0.50954 0.12818 0.35327 1.8695-0.59242 3.5513-1.0004 5.3176-0.3439 1.4912-0.18124 3.0574-0.32201 4.5706-0.30762 3.395-1.9364 3.567-4.6842 4.5549-1.4318 0.51586-0.98351 2.5729-2.6135 2.7011-1.041 0.0813-1.6725-1.0223-1.8632-1.8851-0.65652-3.0011 2.9198-4.9518 2.4039-7.7656-1.9911-0.32202-1.6784 3.0355-4.0438 0.90971-1.6819-1.5131-3.8828-4.0297-6.3146-4.0985-0.09835-1.338 0.03707-2.8292-1.6088-3.2356-1.1442-0.2845-2.1384-0.55021-0.8847-1.7476-2.6604-1.4537-3.3166 1.71-5.6338 1.9226-0.1017 1.5381 0.11075 3.1701-0.10988 4.6831-2.0352 0.41578-4.7516-1.1442-6.9625-1.188-1.6125-0.0313-3.3069-0.0781-4.8392 0.52834-0.79404 0.31574-1.0226 0.8472-1.9695 0.75657-2.2102-0.20941-2.714 1.4756-3.7795 2.995-1.1411 1.6287-2.5386 1.8945-4.4349 2.0226 0.26415 3.6764-5.0051 2.2759-6.9026 1.8226-3.7189-0.89099-4.7791 0.49079-6.4984 3.7046-3.7962 7.0965-7.535 14.349-10.388 21.877-1.3849 3.6513-3.4607 6.9465-5.3678 10.338-1.3787 2.4541-2.4635 6.2463-5.0582 7.7656-0.41267 0.24101-0.71592 0.44891-0.90661 0.65964-0.36889 0.41267-0.31574 0.85316 0.2501 1.6319 0.62211 0.85656-0.12371 2.4759-0.49397 3.3356-0.76214 1.7882-2.1883 0.79721-3.0687 2.0852-0.20564 0.30011-0.37016 0.71902-0.37452 1.1008-0.01168 0.43643 0.18757 0.82532 0.76904 0.91284 0.57521 1.9508-1.4134 3.0414-1.3536 4.6699 2.3165 0.47394 3.9485-0.57524 5.3803 1.6338 1.2696-0.53144 4.7866-3.7189 5.6523-1.141 0.55645 1.6506-1.5441 4.8988-2.1446 6.4493-0.89098 2.299-2.6574 6.1784-2.2165 8.741 0.15635 0.91287 0.70338 1.2139 1.4162 1.1974 1.51-0.0376 3.7727-1.5053 4.7082-1.6247 2.0821-0.2679 4.1715-0.48864 6.2277-0.90441 2.0611-0.41577 3.949-1.4725 5.981-1.8601 1.831-0.34984 3.8232 0.10727 5.4669-0.9835 1.2914-0.85659 2.0977-2.2293 3.2168-3.2703 1.3912-1.2971 3.78-1.5797 5.5709-1.9473 3.5546-0.73154 1.1658 1.1658 3.6858 2.8231 2.0777 1.3661 5.308-2.6198 5.7991 1.041 0.54052 4.0316 3.2295 0.87223 5.0176-0.26698 0.96598-0.61585 1.8976 0.0662 2.9076 0.20635 1.7691 0.24699 2.8727-1.1598 4.4014-1.7154 2.5259-0.92127 3.6452-0.95442 5.6927-2.8177 1.2724-1.1561 3.5992-2.5822 1.6882-4.1609-0.9313-0.77375-6.9902-2.3947-4.9025-4.411 0.69903-0.67525 1.9451-0.55958 2.5341-1.2411 0.99663-1.1598-0.20236-3.2891-0.04363-4.6143 0.4064-3.3732 0.94412-6.8902 2.948-9.5819-0.66901-1.535-8.0283-0.5252-7.0902-3.7321 4.2281-0.36171 0.49327-7.9428 1.5837-10.102 2.0771-4.0985 11.082-0.69715 14.286-0.73467 3.4551-0.0406 5.1051 1.9633 7.235 4.3614 2.0111 2.2665 4.6699 3.0196 7.1738 4.533 1.3505 0.81566 2.6241 0.1373 3.9122-0.43641 1.2667-0.56678 2.2537-0.24102 3.5614-0.0501 2.5726 0.37515 4.2767-0.30607 6.4587 1.2005 0.44707 0.3095 0.82221 0.44079 1.1433 0.44392 1.584 0.0188 1.9092-3.0938 3.163-4.1579 1.4196-1.2036 1.0751-3.2889 3.0677-4.1955 1.3537-0.61586 2.9325-0.55958 4.3767-0.76902 0.43455-2.9886-1.2005-4.7237-1.3974-7.4247-0.12039-1.6382 2.7541-2.1633 3.7588-2.8604-1.2161-0.85971-2.254-1.1036-3.714-1.1255 0.2094-2.154-1.6069-3.7482-1.5225-5.9866-2.1133-0.13758-4.281 0.0751-6.3993-0.0624-0.80278-2.4541-0.39733-3.7328-2.7287-5.446 0.74901-1.2568 1.1914-2.4447 1.6822-3.8704 2.1946 0.6096 3.8668-0.85658 5.8618-1.4443 0.9966-0.29387 2.6072-0.22514 3.2759-1.1755 0.95384-1.3474-0.32822-2.8727 0.28138-4.2361 0.14954-0.33764 1.8382-1.3161 1.7782-1.5319-0.20493-0.72839-6.5681-2.7698-5.3861-3.9328-1.1567 1.138-2.7513 1.9038-4.308 0.93787-0.66275-0.41268-0.3095-1.2443-0.40328-1.8695-0.38137-2.5165-3.4579-2.6104-5.3991-2.9292-1.6041-0.26572-3.1074-1.1348-4.5924-2.1693-3.126-2.1852-6.174-5.0988-9.8535-4.583z"/>
   <path fill="#abacda" id="Kanchipuram" d="m134.14 103.76c0.0941 0.62521-0.25944 1.46 0.40332 1.8695 1.5568 0.96601 3.1513 0.19696 4.3079-0.93787-1.1817 1.1598 5.1798 3.2013 5.3861 3.9328 0.059 0.21574-1.6303 1.1942-1.7785 1.5318-0.60958 1.363 0.66905 2.8886-0.28136 4.2361-0.66899 0.94723-2.279 0.88157-3.2759 1.1754-1.9946 0.58772-3.667 2.0539-5.8617 1.4444-0.49392 1.4255-0.93162 2.6135-1.6819 3.8703 2.3322 1.7101 1.9258 2.9886 2.7288 5.446 2.1136 0.13756 4.2861-0.0751 6.3993 0.0624-0.0845 2.2384 1.7322 3.8328 1.5225 5.9866 1.4603 0.0251 2.4978 0.26885 3.714 1.1254-1.0094 0.69715-3.8781 1.2224-3.7591 2.8605 0.19697 2.7011 1.8301 4.4361 1.3974 7.4247-1.4443 0.20939-3.0231 0.15328-4.3767 0.76905-1.9874 0.90535-1.6478 2.99-3.0673 4.1955-1.2552 1.0661-1.5803 4.1798-3.1638 4.1579 0.52552 0.57836 1.0726 1.1379 1.6616 1.6631 1.61 1.435 3.7859-0.58459 5.5815-0.67212 1.8386-0.0906 3.4673 1.1567 5.3056 0.60021 1.8823-0.56897 3.0104-1.957 4.9575-0.54052 1.3821 1.0066 2.8015 2.4229 3.8708 3.7591 2.0395 2.559 2.9231 8.5816 7.5527 6.3462 0.19554-0.0946 0.39077-0.1479 0.58678-0.17607 0.046-0.11688 0.10379-0.23757 0.17607-0.36482 1.0288-1.8173 4.1391-0.0165 5.7554-0.62213 2.0126-0.75654 3.9298-2.9574 5.4552-4.433 2.0942-2.0258 2.8292-5.2958 4.78-7.5611 1.7601-2.0395 3.7795-3.8405 5.4916-5.9272 1.3624-1.6566 3.4635-4.6861 1.1561-6.4932-2.6248-2.057 0.2033-1.5131 2.0517-2.1571 1.4069-1.9508 1.5006-4.8112 2.2628-7.0496 0.78531-2.3009 1.5059-4.6018 2.0764-6.9684 0.5968-2.4853 1.1598-4.9927 2.0445-7.3999 0.74061-2.0164 2.1009-3.7234 2.8043-5.7335 0.95754-2.7323 0.60614-4.5361 0.54393-7.2717-0.0536-2.2078 0.50961-4.4831 0.488-6.7371-0.0309-3.4483 0.65307-6.6517 1.4697-9.8765-0.47144 0.03544-1.0201-0.02441-1.6669-0.20189-1.238-0.34077-2.7541 0.76593-3.7015 0.42204-1.0351-0.37516-0.48144-1.51-0.61869-2.3009-0.20284-1.1473-0.7231-2.2103-1.2571-3.2607-0.38138 0.06879-0.76217 0.12818-1.1442 0.16879-1.3068 0.14391-1.5566-0.96289-2.5574-1.3724-1.1724-0.47829-2.2008 0.3814-3.2762 0.66902-1.4021 0.37204-2.6508-0.34077-4.0448-0.34701-1.8258-0.0047-3.7713 0.26572-5.5901 0.45331-3.0762 0.32201-5.1704-1.6131-8.2154-1.1442-1.4037 0.21574-2.7949 0.28757-4.2138 0.29072-1.0351 0-3.0156-0.90347-3.9236-0.25321 0.42514 0.55644 0.61868 1.1442 0.69684 1.8445 1.0748 0.43767 4.3302 1.1254 3.6323 2.9168-1.5187 0.72527-3.2506 0.47207-4.6828 0.06879-0.15636 1.0723 0.98477 1.5287 1.2536 2.4665-0.88471 0.64715-2.4229 2.5165-3.4513 2.6635-1.5412 0.21879-3.295-1.0035-4.3673-1.9726-1.9664-1.7726-1.1473-5.693-3.5701-6.9559-0.41266-0.21269-0.89723-0.21574-1.4265-0.07817-2.1968 0.57212-5.1418 3.6013-6.6432 4.2455-1.4784 0.63773-3.0414 1.1442-4.4142 2.0039-1.8823 1.1817-1.1311 2.1727-1.4603 4.0173-1.2543 0.14391-5.1007 1.7101-5.6272 2.7135-1.3902-0.08757-3.2947 0.27199-3.7762 1.8101-0.46485 1.485 0.82625 2.4822-0.18029 3.8858-0.14907 0.20635-0.30079 0.40955-0.45017 0.60963 1.4849 1.0348 2.9916 1.9039 4.5924 2.1696 1.9439 0.32481 5.0174 0.41859 5.3983 2.932z"/>
   <path fill="#c2f0c2" id="Tiruvallur" d="m103.36 75.468c0.7659 0.05328 8.494 0.1 6.4181-2.2384-0.68777-0.77532-2.304-1.2755-2.2165-2.5571 0.0716-1.0629 1.0723-1.6569 0.88471-2.8356 1.8038-0.34077 2.3884 2.0852 3.8753 2.5259 2.007 0.59712 2.6574-2.948 4.5528-3.2356 1.6069-0.24699 4.6424-0.10939 6.0711 0.71902 0.48454 0.28138 0.31261 1.1129 0.70961 1.5444 0.63184 0.68402 2.0008 0.5846 2.8138 0.42204 0.11251-0.60649 0.11251-1.2974 0.11062-1.9289 0.71091 0.06244 3.7591-0.31574 4.2204-0.91911 1.3536-1.7694 0.43645-4.3391 1.6244-6.2181 0.77343 0.15329 0.74031 0.75966 0.94444 1.3474 0.37142 1.0848 1.9008 0.68154 2.7356 0.74405 0.22185 0.81906 0.58772 1.61 0.90661 2.4447 0.9941 0.2626 5.5166-0.29074 5.3514 1.4693-0.11497 1.2255-2.4522 1.4881-1.9582 2.5104 0.82845 1.7257 0.63776 3.2983 0.76281 5.177 1.4599 0.04061 3.0156-0.04061 4.3966 0.51897 2.1727 0.88159 0.80654 2.2665 1.0335 3.8828 0.024 0.17818 0.0564 0.35953 0.0941 0.54085 0.5277-0.13757 1.016-0.13451 1.4256 0.07817 2.4229 1.263 1.6047 5.1833 3.5715 6.9559 1.0729 0.96599 2.8299 2.1915 4.368 1.9726 1.0286-0.14696 2.5665-2.0164 3.4513-2.6635-0.26885-0.93789-1.4134-1.3943-1.2542-2.4665 1.4305 0.40328 3.1626 0.65651 4.6828-0.06879 0.69681-1.7945-2.5571-2.4792-3.6326-2.9168-0.0782-0.70027-0.27198-1.288-0.69683-1.8445 0.90534-0.65027 2.8867 0.25323 3.9234 0.25323 1.4193 0 2.8104-0.07512 4.2138-0.29074 3.045-0.46894 5.1382 1.4656 8.2158 1.1442 1.8195-0.19062 3.764-0.4627 5.5897-0.45331 1.3984 0.0047 2.6447 0.71903 4.0452 0.34701 1.0748-0.2845 2.1036-1.1442 3.276-0.669 1.0004 0.40638 1.2505 1.5162 2.559 1.3724 0.37828-0.04061 0.75968-0.1 1.1439-0.16879-0.83596-1.6381-1.7082-3.2419-1.469-5.077 0.21268-1.6538 1.0973-3.1292 1.2595-4.7988 0.086-0.88162-0.41546-2.0446 0.0847-2.8604 1.1567-1.8914 2.8417 1.3661 3.8703-1.1067 0.43172-1.041 3.2138-0.45019 4.1267-0.66276 0.96598-0.22513 1.9201-0.5177 2.8963-0.67372 0.48394-3.7067 2.1818-7.4987 3.4126-10.84 1.4565-3.9485 2.9614-8.3877 1.5256-12.589-0.34109-0.99727-2.7762-5.3615-2.2009-6.2524-1.7635 2.7323-3.7549 0.09062-4.977-1.9914-1.3905-2.3759-2.7856-4.164-5.562-4.8331-1.5412-0.37201-3.3412-1.4599-4.9425-1.2192-1.0254 0.15632-1.7519 0.4877-2.6386-0.16569-0.2216-0.16287-0.68557-0.62369-1.2048-1.0426-1.4521 0.32638-2.7236 0.78999-3.1004 1.524-0.44954 0.87222 0.28794 1.7382-1.0566 2.1321-1.0698 0.31262-2.2081-0.0058-3.287-0.0781-0.0613-2.1884-1.2505-4.7049 4e-3 -6.3805-0.63775-1.2099-2.7027-0.03437-3.4729 0.38764-1.5506 0.84095-2.2756 1.1942-4.0516 0.74716-1.4134-0.35638-2.3541 0.5127-1.2505 1.8882 0.74402 0.92534 2.1383 0.98164 3.2168 1.0598 0.15636 0.82531-0.16878 1.6381 0.59709 2.2634-1.9164 1.0442-3.7107 1.0442-5.2458 2.9543-0.64085 0.79407-1.9914 3.0356-0.73685 3.8516-1.1401-0.49706-1.8823 1.5256-2.6574 1.7132-0.37453 1.8038-0.78157 4.1734-1.7357 5.7897-0.81466 1.3818-3.2954 1.2724-4.5265 2.6853-2.8177 3.2295-6.6648 0.45019-9.4485 2.8886-1.8713 1.6413-1.4762 0.78781-3.5952 0.18452-0.94157-0.26886-1.7975 0.85971-2.4639 1.3318-3.4194 2.4229 2.7447 4.8488 4.4236 6.2181-1.1136 2.451-3.4703 1.9289-5.1551 0.82532-2.0383-1.3352-5.5927-0.10939-4.8082-3.8546 0.4886-2.3259-1.8382-5.3772-4.1549-3.367-0.90974 0.78779-1.7694 1.9383-2.8201 2.5229-0.8663 0.48143-1.8886 0.17512-2.782 0.63149-5.5739 2.8356-4.3429-7.3465-7.8222-7.7531-2.3853-0.27823-5.0631 0.10007-7.4735 0.10634-1.3699 0.0035-2.7809 0.10007-4.0608 0.62212-1.263 0.51585-2.2915 1.5225-3.761 1.3318 0.0998 1.1786 3.3823 2.2728 4.4586 2.6698 0.55896 3.2919-0.61868 6.143 3.4429 5.7772-0.11222 2.4853-0.98758 4.1767-3.5046 4.4549-1.7129 0.18757-4.3359 0.91911-5.6894 1.9977-2.329 1.857-2.8635 5.793-4.9519 8.0844-0.9066 0.99413-2.0914 0.30325-3.1015-0.70651-0.23101 0.74403-0.35796 1.4787-0.1655 2.0946 0.85753 2.7917 6.1014 2.8604 8.3412 3.0198z"/>
   <path fill="#f2c0f2" id="Chennai" d="m190.1 74.883c-0.23759 1.8351 0.63462 3.4389 1.4693 5.077 0.53457 1.0473 1.0535 2.1102 1.257 3.2607 0.13716 0.79093-0.41577 1.9258 0.6187 2.3009 0.94722 0.34389 2.4635-0.76281 3.7015-0.42204 0.64528 0.17747 1.193 0.23759 1.6638 0.20259 0.42457-1.6781 0.88475-3.3619 1.2999-5.0889 0.50643-2.1133 0.26261-5.2582 1.4271-7.0623 1.1114-1.7132 0.85972-3.4513 0.7003-5.4084-0.0789-0.97413-0.0317-1.9651 0.0983-2.9619-0.97505 0.15635-1.9298 0.44861-2.8982 0.67339-0.91285 0.21269-3.694-0.37828-4.1258 0.66278-1.0248 2.4729-2.7147-0.78469-3.8713 1.1067-0.50048 0.81596 4e-3 1.9789-0.0847 2.8604-0.16173 1.6694-1.042 3.145-1.2561 4.7988z"/>
   <path fill="#f9d3c6" id="Villupuram" d="m26.269 205.43c0.64183-0.15634 1.2958-0.23757 1.9164-0.21573 1.4659 0.047 2.5306 1.0832 3.9419 1.2098 0.10306 2.329-0.47206 3.0886-1.3068 5.1504-1.8141 0.086-1.4234 1.9867-2.3006 2.9043-0.57554 0.60054-1.2755 0.20988-1.8882 1.0113-0.5099 0.67212-0.64559 1.5146-0.64432 2.3369 0.01878 3.3684 1.1914 7.6015 2.6508 10.622 0.33764 0.1125 0.87534 0.0875 1.1814-0.0406 0.19038-3.263 0.06902-4.696 3.9485-4.1455 3.0198 0.42801 5.843-2.208 8.7318-0.37512 2.6992 1.71-0.90034 5.4551-0.72839 7.728 0.12348 1.5919 1.2552 1.9452 2.3571 2.7698 1.5972 1.1911 1.0751 3.2201 1.177 4.9143-0.02488-0.41889 2.5339 1.1067 2.8011 1.3662 0.61587 0.60024 1.0476 1.2755 1.349 1.9977 0.5796 0.0117 1.1317 0.18872 1.6347 0.64211 0.36919 0.33202 0.68777 0.70718 0.99102 1.0942 1.0254-0.44047 2.1977-0.46076 3.3168-1.0779 2.0127-1.1161 0.42204-3.7483 2.0508-5.0145 3.6452-2.8332 7.928-0.55958 8.9539-6.0589 1.6288 0.96944 2.6898 2.8262 4.7596 2.9168 1.8914 0.0817 2.7557-2.0321 0.61587-2.5475-0.19391-1.0317 1.1974-1.9874 2.1793-1.8064-0.18123 3.9926 9.1443 5.5115 11.17 3.276 1.6741-1.8507 5.6885-4.2011 8.278-4.1422 1.3199 0.0316 2.3898 1.0038 3.6767 1.0038 1.2064 0 2.2131-1.1139 3.229-1.6325 1.3252-0.67836 2.8332-0.9172 4.045-1.8063 0.92189-0.67839 1.776-1.2824 2.9734-1.3221 1.197-0.0412 4.6765 3.11 5.4333 1.1233 0.6909-1.8142-0.56804-4.1488-0.80657-5.9563-0.0972-0.73531-0.73621-1.9373-0.43142-2.664 0.42797-1.0129 1.8551-0.65778 2.5076-1.4037-0.89721-1.1508-2.9574-1.3974-3.1058-3.1046-0.12374-1.4408 1.6478-1.9038 1.8973-3.176 5.5709 0.45332 1.0501-5.1617 1.6729-7.5029 3.3166-0.77839 7.0137 3.0288 10.074 3.6823 1.9576 0.41576 3.6201 0.48799 5.0148 2.1011 0.8428 0.97849 1.7 2.5635 3.044 2.9236 3.0807 0.82631 4.2293-2.8299 6.2068-3.9143 1.707-0.93787-0.70712-3.6487-0.58115-5.6469-0.0146-4e-3 -0.025-9e-3 -0.0373-9e-3 -1.9789-0.53862-0.5843-1.7851 0.76094-1.7035 0.14953-0.92562-0.3192-2.2699 0.69904-2.7104 1.0485 0.37828 1.2095 2.234 2.3644 2.6766 2.1261 0.80968 0.67526-2.8011 0.21877-3.3412-0.74092-0.87941-2.4642-2.9862-3.4586-3.4353-0.83816-0.3817-3.6412 0.15282-4.5171 0.20071 0.10289 0.42455 0.23883 0.9094 0.41952 1.3537 0.85096 0.26823 1.6538 1.5297 1.4031 2.5043-0.7728 0.0693-4.6828 2.8299-4.1741-0.094-2.1227-0.27543-0.20071-3.6201 0.14008-4.6396 0.63432-1.9042-1.9289-5.1258-0.10603-6.6237 2.756-2.2665 1.625 3.9269 1.7694 4.5521 0.79748 3.4797 2.1509 0.77499 4.1992 1.0782-0.0446 0.27543 0.18451 0.81502 0.10984 1.1402 1.5347 0.3214 4.5396-2.2452 2.3769-3.2534-1.6094-0.74995-3.402 1.032-4.862-0.0591-1.4606-1.0942 0.43553-1.6072 1.3286-1.8542 0.27918-0.84063 1.0735-2.1393 2.2991-1.8142 0.19695 1.6625 1.7032 4.2617 3.5255 3.2619 1.4134-0.77497 3.5293-2.0821 4.0319 0.79405-0.66933 0.61586-2.0446 0.81313-2.8595 0.99946-0.48553 1.5797 0.7881 4.5903 1.7391 5.7462 1.5881-1.1886 2.0358-2.6785 4.0018-3.5293 1.3752-0.59368 1.0751-1.5972 1.8138-2.1762 0.55148-0.4333 2.2234 1.2571 3.7123 2.4553 0.22232-1.0188 0.4571-2.0373 0.71781-3.0555 0.23123-0.90538 0.55556-1.7526 0.93068-2.5703-0.47049-0.14343-0.99947-0.25419-1.4494-0.52771-0.0998-1.3286-0.0939-2.768-9e-3 -4.0985-0.0146 0.23077 1.5087 0.5221 3.4081 1.0132 0.82749-1.4274 1.645-2.8706 2.2184-4.4767 1.4887-4.1668 3.8424-7.7705 6.3061-11.414 1.057-1.5597 4.7838-4.1298 4.0392-6.3338-2.3607 0.14976-2.9858 3.2891-5.4014 3.5757-1.5556 0.1871-4.5035-0.28008-3.6471-2.3884-0.19344 0.0281-0.38542 0.0817-0.57956 0.17536-4.6309 2.2381-5.5115-3.7847-7.5529-6.3465-1.0692-1.3377-2.4844-2.7546-3.8704-3.7605-1.9473-1.4149-3.0762-0.0285-4.9575 0.5405-1.8385 0.55649-3.471-0.69088-5.3058-0.60022-1.7935 0.0906-3.9696 2.1065-5.5805 0.67091-0.59149-0.52585-1.1386-1.0876-1.6628-1.6619-0.32137-4e-3 -0.69684-0.13571-1.1439-0.44392-2.1818-1.51-3.8865-0.82688-6.4582-1.2014-1.3077-0.18968-2.2952-0.51488-3.5616 0.0498-1.284 0.57556-2.5597 1.2543-3.9112 0.43706-2.5048-1.5172-5.162-2.2696-7.1745-4.533-2.1262-2.3978-3.7795-4.3985-7.2343-4.361-3.2013 0.0375-12.212-3.367-14.287 0.73466-1.0908 2.154 2.6445 9.7379-1.5847 10.101-0.93784 3.2074 6.4216 2.1977 7.0909 3.7321-2.003 2.6896-2.5417 6.2066-2.9487 9.5809-0.15987 1.3255 1.0448 3.4544 0.04465 4.6145-0.58803 0.68435-1.8348 0.56681-2.5348 1.2424-2.0893 2.0158 3.9701 3.6408 4.9025 4.4098 1.9095 1.5791-0.41546 3.0025-1.6869 4.1619-2.0449 1.8633-3.1673 1.8945-5.6932 2.8168-1.5259 0.55645-2.6323 1.9664-4.4014 1.7163-1.0095-0.14083-1.9414-0.82318-2.9076-0.20637-1.7888 1.1382-4.4746 4.2985-5.0183 0.26606-0.4899-3.6574-3.7192 0.32508-5.7995-1.0411-2.5222-1.6572-0.13499-3.5541-3.6856-2.8217-1.791 0.36921-4.1797 0.65368-5.5704 1.9473-1.1192 1.041-1.9255 2.4142-3.2168 3.2703-1.645 1.0942-3.6361 0.63429-5.4674 0.98443-2.032 0.38671-3.9203 1.4443-5.9805 1.8592-2.057 0.4158-4.1488 0.63776-6.2277 0.90444-0.93443 0.12258-3.1978 1.5881-4.7091 1.6256-0.07793 1.0654 0.27543 2.2009 0.4283 3.4295 0.1756 1.3943 1.9698 3.148 0.96633 4.5455-0.93788 0.18123-1.6626 0.84035-2.5755 1.0876-1.1761 0.31667-2.386 0.26789-3.5616 0.64178-1.1192 0.35642-3.7924 1.1598-2.9236 2.8574 0.12536 0.0255 0.23663 0.0662 0.34011 0.11007z"/>
   <path fill="#a2c0a2" id="Cuddalore" d="m54.134 246.89c1.4002 1.2286 2.8168 2.2165 4.0981 3.6109 2.4466 2.6604 3.3797 5.1176 7.3017 4.5737 3.7516-0.52205 7.7123 0.32825 11.476 0.45642 1.6038 0.0532 3.2825 0.35672 4.7551 1.0226 1.2346 0.55461 2.5632 2.1834 4.0391 1.6319 3.7811-1.4192 7.2811-0.90661 11.301-1.1504 0.42828-2.6947 1.3627-3.1814 4.261-2.8841 1.2296 0.12491 4.0891 0.0709 4.899 1.2961 0.89224 1.3412 0.32168 3.1574 1.3411 4.5455 1.1814 1.6087 3.2865 1.9739 5.1267 1.4674 0.1655 1.4693 1.1914 3.2109 2.5452 3.8297 1.4349 0.65964 3.2863 1.0085 3.3572 2.9574 0.069 1.8932-0.51334 4.0281-0.61867 5.9524-0.0817 1.4693-1.1724 2.7104-1.6528 4.0837-0.41237 1.1808-1.6754 2.2471-2.7421 3.3152 0.58772 0.43765 1.2349 0.52707 1.9226-0.0363 1.3352-1.0904 1.4506-3.1431 3.5452-3.3039 0.37139-0.0279 0.71186 0.0116 1.0316 0.0968 0.45988-0.46238 0.99102-0.90349 1.62-1.3162 1.8954-1.2439 4.1013-2.0477 6.1742-2.9323 1.942-0.83157 2.2834-2.4917 3.8363-3.5264 0.8097 0.70994 2.1196 0.53956 3.0637 0.20964 0.22677-1.0642 0.64493-4.4354-0.71119-4.7906-0.47331-2.2352 9.5938-5.127 10.781-5.7103 2.0161-0.98351 4.9204-2.3635 6.3773-4.1016 0.98067-1.1727 1.3005-2.6975 1.8544-4.0997-1.645-3.1874-1.5244-1.2311-4.4429-1.7322 0.0847-2.0005 1.0851-2.6246 0.21549-4.8392-0.85625-2.1915-1.7066-4.3891-2.2665-6.6808-1.1158-4.5706-0.18498-7.8611 1.3365-12.123 0.79404-2.2215-0.0188-4.565 0.60523-6.8113 0.29323-1.0654 0.63149-2.0658 0.26575-3.1757-0.23124-0.70028-0.84727-1.041-0.37832-1.8226 0.42237-0.70026 1.3753-0.69714 1.8977-1.283 0.16714-0.18828 0.30602-0.42268 0.42856-0.6803-0.61958-0.15963-1.2573-0.24668-1.9229-0.19508-0.48484 0.0376-6.5312 2.179-6.6402 0.30323-0.0406-0.72339-0.23452-1.5631 0.0532-2.2665 0.25165-0.61275 1.1317-0.70968 1.1767-1.4474 0.0693-1.1192-1.6828-2.229 0.40358-2.5095 1.2333-0.1648 3.8612 1.0942 5.1455 1.3827 1.1724 0.2626 2.4308 0.9035 2.394 2.2946 0.0347 9e-3 0.0774 0.0117 0.11426 0.0165 0.20636-0.7956 0.44143-1.5897 0.67496-2.3846-1.178-1.3412-2.7586-2.5334-3.891-1.1217-0.3251-0.0782-0.94097-0.2751-1.2708-0.4283-0.64494-1.9258-2.5226-0.34389-3.4966-1.5225-1.1223-1.3568-1.0816 0.4627-2.1346 0.2751 0.22162-2.34-1.4068-2.204-3.1262-2.6635-0.12739 1.9977 2.2878 4.7049 0.58087 5.646-1.9754 1.0879-3.1262 4.7394-6.2059 3.9142-1.3483-0.3595-2.2008-1.9451-3.0447-2.9243-1.3943-1.6122-3.0574-1.685-5.0145-2.1008-3.0607-0.65339-6.7557-4.4643-10.073-3.6828-0.62524 2.3416 3.8952 7.9562-1.6738 7.5029-0.25011 1.2724-2.0227 1.7366-1.8964 3.1762 0.14742 1.7069 2.2077 1.9508 3.1048 3.1053-0.65023 0.74469-2.0789 0.39078-2.5076 1.4028-0.30606 0.72527 0.33322 1.9289 0.43171 2.664 0.23793 1.8057 1.4972 4.1422 0.80593 5.9554-0.75749 1.987-4.2326-1.163-5.434-1.1223-1.1964 0.0406-2.0511 0.64086-2.9734 1.3221-1.213 0.89409-2.7198 1.1286-4.0448 1.807-1.016 0.51892-2.0236 1.6288-3.2288 1.6319-1.288 0-2.3574-0.97039-3.6776-1.0035-2.5874-0.0586-6.6017 2.2915-8.2778 4.1422-2.023 2.2353-11.352 0.71589-11.17-3.276-0.98224-0.18123-2.3733 0.77499-2.1796 1.8054 2.1427 0.51552 1.2789 2.6288-0.61589 2.5475-2.0661-0.0906-3.1292-1.9473-4.7586-2.9168-1.0279 5.499-5.308 3.2294-8.9548 6.0587-1.6319 1.2664-0.03709 3.899-2.0508 5.0145-1.1192 0.62212-2.2915 0.63776-3.317 1.0786 0.6615 0.84597 1.2411 1.7588 2.0508 2.4684z"/>
  </g>
  <g stroke="#000">
   <path d="m200.38 48.569-4.3776 0.6038-3.4719-0.15095-3.4719 1.6605h-3.17l-1.5095 0.9057-3.17-0.45285-1.0722 1.0517-3.6491 1.0263-5.5876 3.0789-1.4824 2.0526-2.0526 1.3684-1.2544 0.79823-0.11403 0.57016-0.45613 0.45614-0.91227 0.6842-1.3684 0.91227-0.91227 0.79823-1.0263 0.79823-1.4824 0.45614-1.2544 1.0263-1.3684 0.11404-2.5087 1.2544-2.3947 0.22806-1.2544 0.57017-3.307 2.1666-1.2544 0.79824-1.5965 0.22807-3.9912 0.3421-3.7631-0.3421h-1.1403l-1.2544 0.3421-2.1666 0.22806-3.0789-0.45614-1.3684-0.6842-0.68421-0.22806-0.57016-0.91227-1.1403-0.57016-2.8508-0.34211-3.6491-0.11403-4.4473-0.45614-3.7631 0.11404-2.0526-0.22807-3.9912-1.4824-1.2544 0.22806-1.3684 0.11404h-1.2544l-1.9386-0.79823-1.4824 0.91227-1.1403 0.22806-1.2544-0.11404-1.7105-0.45613-2.0526-1.0263-0.45613-0.79823-4.1052-1.7105h-0.79823l-0.91227 0.22806-7.6402 1.4824-0.57017 1.8245" stroke-width=".3px"/>
   <path d="m196 49.17 0.75371 6.6848-1.7587 1.0284-0.25125 2.5711-0.25127 3.5995-0.25119 1.5426-0.25126 3.3424-0.50251 2.8282-0.50246 3.0853v3.8566l0.2512 3.8566 0.50251 0.77131-3.5174 9.7701-1.2562 4.628-1.005 2.0569-3.0149 2.0569-1.7587 1.7998-0.50247 7.7132 0.75373 1.7998-3.5174 2.8282-0.25128 3.3424-0.7537 3.0853-0.75371 2.0569-7.5374 8.9988-0.75372 1.2856h-1.7587l-1.7587 2.5711-0.75377 2.5711v3.8566l-3.7687 3.8566-1.2562 4.1138-5.5274 10.027-3.2662 8.4846-3.5174 3.0853 0.75372 3.3424-5.2761 18.255" stroke-width=".3px"/>
   <path d="m196 49.17-1.1528 1.1758v1.5447l-1.9367 1.9367v0.57639l-0.7839 1.9367v3.8733l-1.1528 0.76084-1.3603 1.1758 0.57638 2.6975-1.3372 1.1528-0.96832 2.5131-0.96835 2.5361-1.9367 1.5447-2.5131 3.4814-1.7522 2.905-0.5764 1.5447-0.57639 1.1528-1.9367 2.3286-0.18444 2.3056-2.1442 2.5131 0.20751 3.6889-1.5447 0.18445-0.59946-0.36889-2.513 5.6025v3.0895l-0.57639 2.3286-1.3603 3.0894-2.1211 1.5447-1.5447 2.905-1.3603 1.3603-0.76083 1.3372-2.3286 5.0492-1.1528 1.1528-1.7522 1.9367-0.96833 1.7292-0.57639 2.1442-0.39194 1.7292-1.5447 1.5447-1.9367 1.7522-3.0894 1.7292-2.9281 1.8906-1.7983 1.6139-0.53028 1.4525-0.18445 1.9597-2.1672 0.73778-4.6803 8.277-4.3345 5.9484-0.53028 1.6139-0.89917 3.5967-0.3689 1.2681-0.34583 0.71472-1.9828 1.268-0.71474 2.1672-0.92221 1.2681-3.4122 2.882-0.71473 1.245-1.4525 0.18444-0.71473-0.36888-0.36889-0.71474-1.245-1.0836-0.89915-0.34583-1.2681-0.55334h-1.7983l-1.7984 0.3689-2.1672-1.0836h-1.0836l-1.9828-0.89917-1.6139-0.36891-1.4525 2.3517" stroke-width=".3px"/>
   <path d="m200.38 48.566-0.11741-0.70453-0.0588-0.46969-0.11743-0.35226v-0.23484l0.23485-0.46969 0.11742-0.41098-0.58711-0.64582-0.0588-0.46969h-0.58711v-0.46969l-0.23485-0.05871-0.76324-0.35227-1.6439-1.2329-3.8749-2.9355-0.23484-0.17613-0.23485-0.93937-0.11742-0.5284-0.64583-0.88066-0.46968-0.70453v-0.82195l-0.99808-0.99808-0.35226-0.05871-0.76325 0.41098-4.051-1.1155h-1.2329l-1.9375-0.5284-2.5246-0.64582-2.231-0.11742-1.9962-0.05871-3.2878-0.82195 0.11742-0.5284-0.46969-0.41098 0.17614-0.58711-0.5284-0.17613-0.46969-0.5284-0.29355-1.5852-0.93937-0.35227" stroke-width=".3px"/>
   <path d="m77.052 66.897v11.005l-0.21497 2.8461 3.0097 2.6564-0.64493 2.0872 1.9348 4.1743-0.42995 10.436 0.42995 3.6051-3.8696 5.6922-0.85991 0.94871-0.64493 1.5179-0.85991 1.8974v1.8974l-0.64493 2.6564-1.2899 3.4154-1.5048 2.8461-0.85991 2.2769-1.0749 1.8974-0.21498 1.3282v2.2769l0.42996 7.0205" stroke-width=".3px"/>
   <path d="m69.743 139.38 3.8569 1.4008 2.8284 0.35021 1.0285 0.52531 1.5696 0.47635 1.3648 1.195 0.7799 0.79668 5.4593 2.6556 2.9246 1.9917 6.4342 1.9917 2.3397 1.5934 1.1699 0.13277 2.7296 2.5228 0.58493 1.8589 3.7045 3.1867-2.3202 7.6888" stroke-width=".3px"/>
   <path d="m122.87 170.26 1.3731 0.12848 0.54675 0.14896 0.54674 0.59582 0.36449-0.14896h0.729l0.91123 0.44687 1.1846 0.59584 0.91124 0.59582 0.3645 0.44687h0.82012l0.91123-0.29791h1.0024l1.2757 0.14896 1.7314 1.4896 0.54675 0.74479 0.54674 1.0427 0.45561 1.4896 0.3645 1.4896 1.8225 2.6812 1.7314 4.9156 0.729 1.1916 0.63786 1.0427 0.72899 1.6385 0.63787 3.277" stroke-width=".3px"/>
  </g>
 </g>
 <g fill-rule="evenodd" stroke-width=".31286">
  <ellipse cx="77.131" cy="67.018" rx="1.5478" ry="1.5618"/>
  <ellipse cx="168.64" cy="27.422" rx="1.5478" ry="1.5618"/>
  <ellipse cx="199.16" cy="48.619" rx="1.5478" ry="1.5618"/>
  <ellipse cx="104.6" cy="167.83" rx="1.5478" ry="1.5618"/>
  <ellipse cx="69.871" cy="139.72" rx="1.5478" ry="1.5618"/>
  <ellipse cx="143.83" cy="194.14" rx="1.5478" ry="1.5618"/>
  <ellipse cx="144.67" cy="76.552" rx="1.5478" ry="1.5618"/>
 </g>
 <path d="m144.31 71.58 0.19671 4.9729" fill="none" stroke="#000" stroke-width=".26607px"/>
 <g fill="#000000" font-family="sans-serif" font-size="3.5278px" letter-spacing="0px" stroke-width=".26459" word-spacing="0px">
  <text x="135.21666" y="198.83234" style="line-height:1.25" xml:space="preserve"><tspan x="135.21666" y="198.83234" stroke-width=".26459">Cuddalore</tspan></text>
  <text x="95.807159" y="173.48772" style="line-height:1.25" xml:space="preserve"><tspan x="95.807159" y="173.48772" stroke-width=".26459">Villupuram</tspan></text>
  <text x="49.295597" y="144.6617" style="line-height:1.25" xml:space="preserve"><tspan x="49.295597" y="144.6617" stroke-width=".26459">Tiruvannamalai</tspan></text>
  <text x="62.107166" y="67.931549" style="line-height:1.25" xml:space="preserve"><tspan x="62.107166" y="67.931549" stroke-width=".26459">Vellore</tspan></text>
  <text x="147.47119" y="77.400963" style="line-height:1.25" xml:space="preserve"><tspan x="147.47119" y="77.400963" stroke-width=".26459">Kanchipuram</tspan></text>
  <text x="171.42326" y="26.850971" style="line-height:1.25" xml:space="preserve"><tspan x="171.42326" y="26.850971" stroke-width=".26459">Tiruvallur</tspan></text>
  <text x="201.92465" y="50.333584" style="line-height:1.25" xml:space="preserve"><tspan x="201.92465" y="50.333584" stroke-width=".26459">Chennai</tspan></text>
 </g>
</svg>
