<!-- Created with Inkscape (http://www.inkscape.org/) -->
<svg width="245.53mm" height="330.85mm" version="1.1" viewBox="0 0 245.5296 330.8466" xmlns="http://www.w3.org/2000/svg" xmlns:cc="http://creativecommons.org/ns#" xmlns:dc="http://purl.org/dc/elements/1.1/" xmlns:rdf="http://www.w3.org/1999/02/22-rdf-syntax-ns#">
 <metadata>
  <rdf:RDF>
   <cc:Work rdf:about="">
    <dc:format>image/svg+xml</dc:format>
    <dc:type rdf:resource="http://purl.org/dc/dcmitype/StillImage"/>
    <dc:title/>
   </cc:Work>
  </rdf:RDF>
 </metadata>
 <g fill="none">
  <g transform="translate(-1.0455 109.49)" stroke="#fff" stroke-width=".5">
   <path  fill="#cc2" id="Perambalur" d="m103.6 57.972c-3.1104 1.3366-1.9486 2.7484-0.18478 4.7313 1.92 2.1641 0.77199 4.2178-1.7827 4.8358-2.6211-2.9043-5.6215-6.3409-9.9433-4.6437-1.3506 0.52965-4.2836 2.009-4.2692 3.7528 0.01077 1.4605 0.8241 2.4637 0.87846 3.6912 0.97864-0.51504 2.252-0.39203 3.385-0.3176 0.19682 0.97284-3.0941 2.7786-3.5367 3.8188-0.92995 2.179 2.7243 1.8857 3.7941 1.8713 1.4879-0.01935 3.7513-0.34736 4.707 1.1331 1.156 1.7884-0.21742 3.3392-1.2344 4.7152-1.2819 1.7311-1.0845 4.1074-2.3579 5.8744-1.2341 1.714-2.764 2.4024-2.4523 4.8158 0.48646 3.7541 2.4551 9.0592 5.6572 11.261 0.13859-1.8067-0.16588-3.7137 0.25182-5.4479 1.6393-1.0791 4.1632-2.5526 6.1591-1.6599 1.2702 0.56942 0.76947 2.6171 1.2845 3.6912 1.5738 0.19187 2.7498 0.89275 3.9688-0.53051 1.0616-1.2384 1.2455-1.5211 3.1074-1.1022 2.7526 0.62408 5.6398-0.372 8.3869 0.53195 2.5266 0.8315 3.5653 3.6929 3.5968 6.1744 0.0255 2.2969-4.2664 3.2486-3.0343 6.0384-0.88817 0.29445-2.025 0.55772-2.8835 1.0759 0.81751-0.47784 4.1871 3.2017 4.7152 3.7739 1.0158 1.1034 0.43209 1.7915-0.52076 2.2323 2.5455 0.31188 5.1162 0.46951 7.042-0.37226 1.2018-0.52681 2.126-1.8683 2.7756-2.951 1.2344-2.0519 3.0646-0.64695 4.9389-1.3105 1.7168-0.60629 2.8242-1.4939 4.7442-1.0189 2.4237 0.6009 2.6697-1.6765 4.75-1.9744 1.9375-0.27471 2.4894-1.3134 3.7741-2.6291 1.6751-1.7168 3.8859-2.7714 5.5369-4.478 1.2962-1.3391 2.312-2.2892 4.1551-2.8014 1.9314-0.53509 3.5767-1.3277 4.521-3.2013 0.75544-1.5022 1.1386-3.0573 2.0917-4.4726 0.27469-0.40659 0.64381-0.80636 1.0444-1.2086 0.97573-0.97518 2.1317-1.9544 2.5096-3.0346 0.44095-1.2576 1.4387-2.3919 1.514-3.7378 0.0982-1.7623 0.62869-3.7137 0.56629-5.4481-0.0653-1.7847-1.7569-2.1031-3.073-2.7069-1.239-0.56628-2.1757-2.1603-2.3291-3.5053-1.6825 0.46353-3.611 0.12871-4.6927-1.3446-0.93281-1.2699-0.41148-2.9329-1.2276-4.1602-0.74397-1.1217-3.3622-1.0671-4.4838-1.1852-2.6525-0.27183-3.5081 0.17254-3.9 2.6381-3.6798 0.22604-6.8873-0.24323-10.344 1.0544-1.3477 0.50674-2.5668-0.98405-3.697-1.4943-1.3477-0.61031-2.8844-0.8879-4.3521-0.93596-3.4451-0.11452-7.0706-0.89275-10.504-0.41775-3.5911 0.49703-4.4439-1.7512-6.6828-4.1862-1.1743-1.2768-2.4662-2.1774-3.7511-3.3057-0.74112-0.64982-1.2705-1.4845-1.8742-2.2597-0.27926-0.35481-0.56942-0.69761-0.90706-1.0015-0.4607-0.41487-0.96886-0.57825-1.4965-0.58657-1.443-0.0043-3.0556 1.1672-4.3412 1.7191z"/>
   <path fill="#f9d3c6" id="Thiruchirapalli" d="m121.83 116.05c-0.52678-0.57516-3.8945-4.2503-4.7157-3.7737 0.85841-0.51562 1.9944-0.78 2.8844-1.0776-1.2304-2.7898 3.0618-3.7382 3.0343-6.0375-0.0297-2.4808-1.0699-5.3422-3.5964-6.1748-2.744-0.90423-5.6342 0.08942-8.3877-0.53109-1.8631-0.42176-2.0448-0.13687-3.1061 1.1022-1.2192 1.4247-2.3949 0.72393-3.9688 0.52936-0.51502-1.0759-0.0129-3.1212-1.2848-3.6901-1.9944-0.89563-4.5182 0.57943-6.16 1.6596-0.41803 1.7343-0.11217 3.6368-0.25206 5.4481-3.2013-2.2032-5.1692-7.5083-5.6572-11.262-0.3119-2.4144 1.219-3.1018 2.4512-4.8158 1.2727-1.7707 1.073-4.1431 2.3573-5.8731 1.0195-1.3772 2.3921-2.9269 1.2361-4.7152-0.95571-1.4793-3.2191-1.1526-4.7071-1.1331-1.0702 0.0129-4.7242 0.30617-3.7943-1.8714 0.44353-1.0387 3.7341-2.8438 3.535-3.8171-1.1359-0.07434-2.4048-0.19682-3.3839 0.31676-0.39602 0.20864-0.7451 0.51878-1.0124 0.98233-0.70848 1.2075-1.0015 2.6171-2.7984 2.2548-1.9744-0.40004-1.4487 1.3706-2.6839 2.1057-0.8241 0.48958-2.4265 1.2161-3.4108 0.91448-0.14031-1.4129 0.53422-2.8689-0.04168-4.2432-0.6856-1.6487-2.7928-2.7069-4.3437-3.347-0.23747-1.0278 0.86987-1.2576 0.70107-2.2236-1.2087-0.50363-1.9057-0.31478-2.4293 0.3385-0.27757 0.3468-0.50934 0.82092-0.73824 1.3932-0.31476 0.78689-0.53794 1.6419-1.0441 2.3382-0.55255 0.75739-1.5677 1.1594-1.8539 2.1154 3.2131 1.1675 0.75541 4.4043-0.24892 6.2865-1.7798 3.3364-3.1504 6.9389-4.8386 10.332-1.3414 2.7036-4.9731 4.4694-5.4166 7.5405-0.14912 1.0212 1.7626 9.7583-1.2221 5.4398-1.6714-2.417-4.1561-1.7915-5.9913-3.749-2.0717-2.2116-3.0646-1.9833-3.2595 1.0386-0.21465 3.3319-5.6785-1.5818-5.7455 2.2748-0.01077 0.66988 1.6156 2.2372 0.72966 2.819-0.49503 0.32364-1.0195 0.7497-1.5566 1.1368 0.20026 0.66125 0.38914 1.3766 0.62092 2.1753 0.60205 2.0599 1.1263 3.949 3.099 5.1651 2.1547 1.33 4.8158-1.1592 7.0373-1.457 2.9329-0.39142 5.8693-0.10187 8.7908 0.24093 2.8872 0.33997 10.933 0.52997 9.3396 5.388 1.2504 0.75744 2.2634 2.0745 3.7615 2.3721 2.1998 0.44009 2.0777 0.28928 3.4754 1.9506 0.88132 1.047 2.3205 2.0634 2.3349 3.5767 0.01077 1.1185-0.84125 2.5835-2.1175 2.5036-0.26611 1.7086 0.87417 1.9724 1.5397 3.2716 1.0513 2.0482-3.1278 6.152-4.8347 6.7274-1.8427 0.62091-3.6626 1.1386-5.5455 1.6276-1.2911 0.33479-2.5122 1.7349-3.9344 1.4845-0.66987-1.2467-1.0244-2.7034-1.9841-3.7799-0.81721-0.91852-1.9503-1.4567-2.819-2.3184-0.9723 1.0925-2.2262 3.7163-4.1377 3.156-0.95915-0.28013-2.312-1.7025-3.2846-0.63782-1.5426 1.6865-1.3477 6.6306-1.6038 8.6935-0.16588 1.3397-0.20627 4.8349-1.5054 5.6922-0.80264 0.52966-3.076 1.1363-3.961 0.64009-0.47812-0.2667-0.59-0.77859-0.80574-1.2273-2.252 2.481-2.5335 4.4464 0.27754 6.7305 1.694 1.3769 2.4729 1.079 4.4866 1.3769 1.8527 0.27499 3.212 1.8716 5.122 1.9575 0.23434 1.4161 0.22604 2.9735-0.49475 4.2612-0.62492 1.114-1.841 2.0181-1.5082 3.4518 3.3278 1.6765 5.4595 3.46 4.1916 7.4434 0.38773 0.0792 0.79293 0.13129 1.2004 0.16115 1.1388 0.083 2.3349-0.0255 3.4755-0.33193 1.1131-0.29757 2.1643-0.77829 3.0462-1.4487 0.86985-0.66188-0.95285-2.0708 0.0376-3.0532 1.1271-1.1188 2.6852-2.6549 4.3577-2.7221 0.18027-2.0937-0.38057-1.9426 1.2304-3.6185 1.2705 0.85041 2.4121 1.9495 3.3622 1.8659 0.60374-0.0518 1.1302-0.58031 1.5623-1.9624 1.0244-3.2709 5.7227-1.3532 6.6671-5.2997 0.34652-1.4487-0.80404-1.5706-1.2647-2.6291-0.40917-0.94168 0.26897-2.0596-0.2332-2.9594-1.6453-2.9362-3.9198 1.8716-4.6383 2.5234-2.0227 1.837-3.3321-2.9559-3.8689-3.8027-0.48932-0.77258-1.556-0.76115-1.4845-1.8342 0.11215-1.7134-0.82922-2.3184-1.4759-3.8171 1.3414-1.7655 2.1117-2.5982 4.2092-3.5139 1.0387-0.45182 2.0202-1.0126 2.6766-1.9687 0.50934-0.7411 0.73826-2.4516 2.003-2.3491 0.80979 0.0656 1.3975 0.91081 2.1163 1.2081 1.0805 0.44725 2.2832-0.18091 3.1551-0.78688 1.5291-1.065 2.3801-3.2984 3.848-4.143 1.5366-0.8813 1.4009 2.4263 1.7094 3.0532 1.1065 2.2357 2.6087 0.19511 2.8689-1.1626 0.1315-0.69246 1.0195-4.3343 2.1832-2.9063 1.0015 1.2304 3.5584 3.1046 2.7958 4.9503 1.5423 0.88904 3.1046 1.7592 5.016 1.4502 0.26838-5.1099 7.265-0.71906 8.8131-4.0096 0.0417-0.0908 0.0771-0.18477 0.10593-0.28012 0.51504-1.6751-1.0994-3.6224-0.25638-5.538 0.42636-0.96747 0.77258-1.9492 0.79834-3.0223 0.0194-0.87646-1.1474-2.4664-0.21749-3.107-0.77541-2.1839-3.3592-0.54136-4.7642-0.12073-1.6155 0.48327-4.62 0.384-5.7829-1.0238 2.0144-1.746 6.1864-0.95285 8.6374-1.5515 3.5938-0.87586 6.7466-3.1246 10.398-3.8478 0.60092-0.1205 1.6024-0.31246 2.3663-0.66297 0.95858-0.44465 1.5423-1.1317 0.52678-2.2363z"/>
   <path fill="#c2f0c2" id="Karur" d="m38.157 101.57c-1.9858-1.5692-3.8517-2.3865-6.4125-2.4024-1.156-0.0108-2.6325 0.34907-3.7513 0.01716-1.2791-0.37598-1.7855-1.3992-3.2963-1.0951-1.793 0.36139-3.8629 1.5082-5.55 2.6527-0.09733 0.0653-0.19458 0.13149-0.28902 0.20025-0.33764 0.23319-0.65811 0.46927-0.9557 0.69246-1.1303 0.85554-3.4565 3.8628-5.0601 3.0674-2.2623-1.1245-3.5878-3.0388-6.2614-3.5053-1.0581-0.1848-4.9273 0.0915-3.2191 2.1003 1.6997 1.9973 0.9271 2.8558-0.68559 4.4769-1.8301 1.8302 0.63781 5.7646 0.66956 7.7973 0.030275 1.7956-2.6295 2.8644-1.9375 4.6069 0.73108 1.8456 4.1317 1.0473 4.3102 2.8078 0.98146 0.33537 1.053 1.6488 2.1998 1.8147 0.75368 0.10875 1.3446-1.1789 2.3878-0.95973 0.95284 0.20026 1.6024 3.2763 1.1268 3.3021 0.86127-0.0487 3.9316 1.3294 3.3392 2.5098-1.4479 2.8912-4.4466-1.0075-5.9672-1.5366-1.3037-0.45494-4.8472 1.6969-3.7496 3.1132 0.94799 1.219 4.4466 1.6393 3.2019 3.8886-0.54939 0.99318-2.9529 2.3577-2.6171 3.7741 0.034271 0.14868 0.10133 0.29757 0.2003 0.44636 0.35767 0.5322 1.4507 0.26895 1.9629 0.76825 0.76916 0.74429 1.0959 1.8786 1.619 2.7855 1.6602 2.8958 2.7006 0.1474 4.845 0.0571 3.053-0.12548 6.0833 0.60661 9.1266 0.60207 0.05268-0.85099-0.0032-1.7249 0.05664-2.5694 3.3884 0.40063 3.2943-4.547 2.951-6.8759-2.0688-0.0859-4.1205 0.46669-6.1864 0.28618-1.5452-0.1345-1.1858-1.6596 0.15079-1.8302 2.1652-0.27471 2.021 0.28212 3.4757-1.2504 1.2101-1.2733 3.3541-1.4004 4.9883-1.2876 1.6078 0.11178 3.0582 1.3363 4.5068 1.405 1.3251 0.0629 2.6955-1.9744 3.3472-2.9673 0.83924-1.2802 0.77229-2.4035 2.2698-3.1418 1.2221-0.60203 3.5343-0.53449 4.3411 0.76113-0.76772 0.74111-1.6977 1.3191-1.9612 2.4323-0.26841 1.1302 0.40002 2.335-0.06553 3.4368-0.37743 0.89992-1.4081 1.2502-1.4504 2.3307-0.04576 1.1732 0.56942 2.2576 0.41147 3.4411-0.18049 1.3589-0.64696 2.3236-0.17361 3.7125 0.24379 0.71536 0.72678 1.8513 0.03073 2.4548-0.42922 0.37226-0.30073 1.2044-0.60977 1.736-0.53794 0.92998-1.6565 1.9395-1.5246 3.1166 1.3884 0.92196 1.9732 1.7689 3.7973 1.7317 0.68961-0.0129 1.6682-0.1545 2.2973 0.23752 0.24894 0.15428 0.39516 0.37654 0.50876 0.61772 0.21832 0.4484 0.32821 0.96001 0.80635 1.2267 0.88445 0.49331 3.1587-0.11323 3.9604-0.6401 1.2957-0.85527 1.3363-4.3519 1.5057-5.6922 0.25696-2.0631 0.06339-7.0068 1.6044-8.6933 0.9723-1.0647 2.3266 0.35769 3.2847 0.6378 1.9085 0.56114 3.1622-2.0631 4.1377-3.1559 0.86645 0.86184 2.003 1.3998 2.8193 2.3184 0.96059 1.079 1.3134 2.5335 1.9832 3.7799 1.423 0.24897 2.6437-1.1477 3.9344-1.4845 1.8797-0.48928 3.7021-1.0075 5.5459-1.6276 1.7085-0.57571 5.8849-4.6789 4.8349-6.7276-0.66673-1.2991-1.8064-1.5624-1.54-3.2709 1.2733 0.08 2.1266-1.3886 2.1172-2.5038-0.0129-1.5134-1.4536-2.5333-2.3347-3.5766-1.4001-1.6633-1.2765-1.5106-3.4761-1.9509-1.4962-0.3007-2.5096-1.6158-3.7604-2.3719 1.5915-4.8583-6.4529-5.0498-9.3404-5.388-2.9217-0.34281-5.8577-0.63238-8.7906-0.24093-2.2213 0.29757-4.8824 2.787-7.0364 1.457-1.9727-1.2161-2.4957-3.1052-3.0986-5.1654-0.23264-0.79833-0.42148-1.5137-0.6212-2.1749-0.51106-1.7406-1.1348-3.0913-2.9344-4.516z"/>
   <path fill="#f0c2f0" id="Ariyalur" d="m163.53 97.55c0.75713-1.4994 1.1386-3.0562 2.0925-4.4724 0.2744-0.40634 0.64381-0.80691 1.0433-1.2098 0 0.0018 5e-3 0.0043 5e-3 0.0043 5e-3 -0.0043 5e-3 -0.0043 5e-3 -0.0086 0.97599-0.9752 2.1317-1.9544 2.5096-3.0343 0.44036-1.2579 1.439-2.3921 1.5134-3.7378 0.0991-1.7623 0.62981-3.7138 0.56628-5.4481-0.0194-0.55114-0.19682-0.95975-0.46758-1.2839-0.61166-0.7119-1.6919-0.99374-2.5938-1.4084-0.46724-0.21229-0.89101-0.57372-1.2467-1.0089-0.59003-0.72133-0.99292-1.653-1.0908-2.4922-1.5835 0.43264-3.3768 0.16051-4.4823-1.0976-0.0748-0.0838-0.14568-0.17275-0.21293-0.26556-0.9331-1.2699-0.4115-2.9329-1.2278-4.1598-0.0432-0.06533-0.0945-0.12527-0.14998-0.18479-0.90218-0.91708-3.2683-0.87874-4.3218-0.98605-2.6527-0.27069-3.5088 0.17275-3.9004 2.6405-3.6794 0.22091-6.8854-0.24609-10.343 1.053-0.7929 0.29785-1.5426-0.09584-2.2533-0.57374-0.64209 0.24265-1.3801 2.2713-1.3801 2.9716 0 0.72309-1.2381 1.6527-2.0659 1.9627-0.82665 0.30988-0.72163 1.3414-0.20713 2.0659 0.51649 0.72282 0.41234 1.4461-0.30988 1.4461-0.72279 0-1.2396-0.10141-1.6525 0.51852-0.41146 0.61979-0.3099 1.756 0.5185 1.9612 0.82666 0.20821 0.41147 1.1374 0.10137 1.4479-0.30991 0.30932-1.1365 1.3414-1.8593 1.9612-0.72138 0.61976-0.82667 2.6869-0.82667 2.6869s-1.4464-0.10227-2.3762 0c-0.92965 0.10249-0.51818 1.6519-0.3099 2.2718 0.2067 0.61978 0.61979 2.3758 0.10162 2.9957-0.51679 0.61976-0.82665 1.6528-0.51679 2.0676 0.30991 0.41145 0.82667 1.4464 0.72137 2.376-0.10247 0.92967-2.3762 2.066-2.8912 2.066-0.51504 0-1.8591 0.62008-2.3758 1.2398-0.51189 0.61404-1.5269 1.429-1.544 1.4427 0.6178 1.1514 0.9048 2.53 0.9211 3.8094 5e-3 0.21746-0.0318 0.42236-0.10052 0.61606-0.49817 1.4891-2.7492 2.4383-3.1087 4.024-0.0915 0.41465-0.054 0.87305 0.17577 1.3958-1e-3 2.9e-4 -5e-3 8.6e-4 -6e-3 1e-3 1e-3 1e-3 1e-3 5e-3 1e-3 6e-3 -0.88015 0.2933-1.999 0.55511-2.8554 1.0587 0.86156-0.38859 4.1658 3.2185 4.6892 3.7853 1.0163 1.1028 0.43291 1.7912-0.51992 2.2318 2.5438 0.31189 5.1155 0.46954 7.0403-0.37168 1.1986-0.52968 2.1183-1.8677 2.7718-2.9478 0.30961-0.5142 0.65558-0.81037 1.0307-0.97743 1.1262-0.50678 2.5086 0.16114 3.9162-0.33768 1.7168-0.60576 2.8235-1.4939 4.7444-1.0189 0.67901 0.16845 1.1864 0.1102 1.6127-0.0664 0.94772-0.39746 1.4845-1.3849 2.593-1.7735 0.16694-0.0591 0.34938-0.10465 0.54424-0.13474 0.48327-0.0675 0.881-0.18478 1.2252-0.33992 1.0299-0.47098 1.5798-1.2999 2.5427-2.2853 1.675-1.7168 3.8828-2.7698 5.538-4.478 0.97171-1.0052 1.7878-1.791 2.9147-2.3373 0.37569-0.18243 0.78544-0.33852 1.2462-0.467 0.60229-0.16695 1.178-0.35939 1.7128-0.60203 1.1738-0.53507 2.1517-1.312 2.7986-2.5984z"/>
   <path fill="#e2b584" id="Nagapattinam" d="m191.1 161.47c-1.2361-0.11456-4.7735 0.13452-5.388 1.5082-0.95858 2.1429-0.91565 5.5977 0.27756 7.6329 0.86441 1.4716 2.6862 2.5178 4.1735 3.547 0.64581 0.24925 1.3205 0.4352 2.0699 0.45213 1.1589 0.0255 2.1661-0.3119 3.2907-0.41147 1.1872-0.10489 1.322 1.3171 2.4151 1.2424 1.219-0.0828 1.4404 1.6256 2.2348 2.2249 0.57225 0.43352 1.362 0.56914 2.0545 0.63782 1.6751 0.16868 3.7399-0.0313 5.1437-1.0473 2.1757-1.5738 0.40629-5.3996 0.72219-7.6056 0.42921-2.9587-0.52334-5.7423-0.46352-8.7242 0.13623-6.6187-0.12721-13.44-0.60491-20.047-0.41177-5.7111-0.91023-11.296-1.0155-16.996-0.36767-0.0891-0.68729-0.17189-0.90475-0.21804-1.0327-0.2206-1.6196-2.3547-2.1616-3.1332-0.29219-0.41775-0.63264-0.42062-0.76715-0.96429-0.13687-0.56085 0.69761-0.65812 0.36055-1.3326-0.46642-0.93595-1.999-0.54965-2.8042-0.58745-0.0457-0.61404-0.0109-1.2458-0.0571-1.8599-0.75257-0.14591-1.2161 0.45209-1.4493 1.0959-0.62639-0.9975-2.8698-1.2533-4.2735-1.8885-2.486 0.4521-4.8815 0.55453-6.1368 3.5135-0.66614 1.5678-1.7849 2.092-0.54284 3.6218 1.1738 1.4459-0.97027 2.5812-0.51531 4.0545 2.033-0.0604 3.8173-1.5886 5.9062-1.5886 3.535-5e-3 0.35164 3.4516-0.25495 4.6125-0.65872 1.259-1.0358 2.9645-1.3103 4.3553-0.38371 1.9254-1.1368 1.0999-2.2696 2.0256-1.0427 0.8527 0.9955 2.4254-0.0869 3.966-0.55456 0.79289-2.1635 1.7312-2.2204 2.7722-0.0598 1.0659 1.6739 1.1986 1.8064 2.3904 0.15772 1.4421 0.50073 2.495 0.82009 3.9 0.26753 1.1703-1.1386 1.6224-0.90334 2.6173 0.44092 1.8791 4.819-0.24808 5.1914 2.2814 0.11323 0.78691-1.1935 2.7152-1.382 3.5943-0.31308 1.4542-0.69364 2.8934-0.95431 4.3586z"/>
   <path fill="#e2b584" id="Nagapattinam" d="m172.6 109.73c1.2447 0.47499 2.5294 0.76975 3.9048 0.53052 1.8302-0.3159 3.6912 0.067 5.3022-0.92709 1.631-1.0075 2.8794-1.4965 4.192-2.9389 1.3734-1.5091 4.0016-1.4376 5.6215-0.40631 1.1989 0.76396 2.5696 0.30901 3.7945 0.88813 2.342-1.8485 3.5736 1.1847 5.5457 1.0553 0.29015-2.1043 1.3185-2.2851 3.1143-1.1131 0.68962 0.45068 1.4725 0.97919 2.2576 1.5735-0.1229-1.5037-0.15922-3.0025 0.0194-4.6151 0.70935-6.3701 0.79435-13.211-0.31761-19.555-0.50362-2.8811-1.4794-5.8512-1.2341-8.8048 0.22976-2.7473 0.71536-4.0204-2.195-4.853 0.67472-0.33476 1.9655-0.48354 1.9432-1.465-0.0343-1.4679-0.99551-2.81-1.6342-4.0715-0.0297-0.06102-0.06-0.11603-0.0896-0.17318-0.50907 1.2871-0.80206 2.6826-1.6991 3.7556-1.3297 1.5918-3.9909 2.8528-5.8364 3.7541-1.0879 0.53223-10.301 3.1762-9.869 5.2249 1.2419 0.32793 0.85843 3.4108 0.6524 4.3865-0.86701 0.30045-2.0631 0.45898-2.8044-0.19188-1.4232 0.94798-1.7349 2.4695-3.5114 3.2277-1.8971 0.81265-3.9168 1.5446-5.6514 2.6841-0.57513 0.37772-1.0616 0.78092-1.4822 1.2047 1.4762 0.39488 2.4093 1.9458 3.591 2.8356-0.78688-0.59233-1.6392 2.7041-1.7348 3.1104-0.50075 2.1283 1.2238 4.1663 0.91476 6.3551-2.0568 0.10012-1.3992 2.126-1.0787 3.4565 0.50079 2.0802-1.0558 2.7413-1.5938 4.4982-0.0571 0.19898-0.0969 0.39061-0.12247 0.57373z"/>
   <path fill="#a2c0a2" id="Thiruvarur" d="m150.66 128.79c-0.12049 0.12139-0.22637 0.20755-0.3394 0.32019 0.62949 1.7815 1.2046 2.7226 1.342 4.7588-0.0227-0.35337 1.9801 0.86441 2.1346 0.97146 1.1028 0.76684 2.5455 2.9815 1.4336 4.2664-1.2991 1.4977 0.42919 1.7226 1.1073 2.9999 1.0416 1.9658 0.6009 4.3338 1.0502 6.4382 2.9129 0.21465 6.215 1.079 8.9277 2.1732-2.3006 2.7473 2.8614 4.5126 3.365 7.0994 0.44066 2.2606-1.4367 4.1862-0.9786 6.3409 0.18028 0.84984 0.41146 1.5652 0.28299 2.4437-0.0683 0.46644-0.61091 0.97573-0.53193 1.4018 0.40346 0.0291 4.0289 0.0974 3.0245 1.3532-1.0673 1.34-2.3992 0.86445-2.2937 2.8728 0.0271 0.50359 0.0468 1.0035 0.0615 1.5002 0.81091 0.19209 1.6155 0.41147 2.4052 0.61406 3.7973 0.98174 3.0274-0.62207 3.3506-3.3287 0.14633-1.2338 1.6596 0.21144 2.0777 0.41749 1.386 0.6819 3.8326-0.33478 5.385-0.0786-0.68646 3.0189-6.3325-0.38055-6.3925 3.859 1.8885 0.3388 3.7685-0.0224 5.677 0.3757 1.6256 0.33794 3.2372 0.68445 4.8467 1.0911 1.9255 0.48475 3.9172 0.54422 5.8776 0.87014-8e-3 -0.65298-0.0869-1.1614-0.4209-1.6773-0.84382-0.10428-1.6696-0.37572-2.4748-0.91737-0.96399-0.64782-4.383-1.1074-4.3489-2.312 1.8991-0.12893 3.3233 0.90021 4.9374 1.5232-1.4885-1.0312-3.3152-2.08-4.1787-3.552-1.1941-2.0327-1.2358-5.4855-0.27869-7.6316 0.61492-1.3744 4.1491-1.6233 5.388-1.5083 0.26008-1.465 0.64065-2.9037 0.95255-4.3577 0.18887-0.88103 1.4962-2.8094 1.3821-3.5947-0.37253-2.5326-4.7507-0.39972-5.1912-2.2808-0.23406-0.99548 1.1703-1.4505 0.90363-2.6179-0.32018-1.405-0.66181-2.4578-0.82091-3.9-0.13128-1.1904-1.8659-1.3251-1.8065-2.3895 0.06-1.0429 1.6648-1.9806 2.2209-2.7724 1.0813-1.5426-0.95571-3.1132 0.0864-3.9651 1.1334-0.9265 1.886-0.10102 2.2696-2.0253 0.27782-1.3904 0.65554-3.0941 1.3105-4.3562 0.60632-1.162 3.7879-4.6157 0.25494-4.6123-2.0891 0-3.8689 1.5317-5.9062 1.5889-0.45526-1.4733 1.6908-2.6095 0.51533-4.0547-1.2453-1.532-0.12356-2.0559 0.54309-3.6224 1.2567-2.9559 3.6542-3.0614 6.1374-3.5135-0.73337-0.33482-1.2356-0.77203-1.1563-1.4794 0.0896-0.76913 0.63608-1.382 0.47838-2.1998-0.15147-0.78685-1.2573-0.28985-0.53192-1.3254 1.0908-1.5654 2.2832 1.9655 3.4677 0.42321 0.66184-0.86129-0.48301-2.6923-0.92653-3.4366 0.0487-0.0415 0.0944-0.0754 0.13967-0.11282-1.2241-0.57826-2.5947-0.12548-3.7943-0.88731-1.623-1.0327-4.2501-1.1028-5.6222 0.40629-1.314 1.4422-2.5606 1.9315-4.1916 2.9389-1.611 0.99552-3.4709 0.6135-5.3014 0.92685-1.3772 0.23748-2.662-0.054-3.9052-0.52965-0.27153 1.9346 1.1474 2.9701-1.603 3.8547-2.14 0.6893-1.8113 3.6566-1.0244 5.2281-0.84069 1.1111-2.3347 1.8828-3.4903 0.83237-1.6859-1.5283-3.0274-0.35168-4.9391-0.81579-2.3904-0.57825-3.957-3.6886-6.412-4.0835-1.0015-0.16052-6.0124 3.5693-5.1168 4.5708 2.9969 3.3433-0.72996 5.6637 0.64097 9.4784z"/>
   <path fill="#f8f" id="Thanjavur" d="m105.69 125.38c1.4078-0.42232 3.9881-2.0631 4.7631 0.12014-0.93281 0.64064 0.2375 2.2318 0.2192 3.1056-0.0273 1.0702-0.37372 2.0562-0.79835 3.0225-0.84412 1.9114 0.76917 3.8628 0.25467 5.5369 0.22606 0.0896 0.44722 0.1575 0.66383 0.20026 1.3992 0.27185 2.85 0.22316 4.272 0.48929 1.7512 0.32907 2.7612-1.1474 4.1834-1.8113 2.6439-1.2361 7.088 0.39805 8.464 2.9329 0.70393 1.2962 1.0244 3.0567 2.601 3.611 1.9257 0.67816 2.7784-0.41779 4.1519 1.6024 0.93591 1.3752 2.3878 2.9628 3.8177 3.8332 0.72333 0.44064 1.7884 0.80119 1.9955 1.7397 0.32622 1.4905-0.66183 2.8001-2.0144 3.2105-1.7369 0.52649-2.021 1.9086-3.0275 3.2365-0.94428 1.243-0.76973 3.3104 1.1417 3.6037 1.1863 0.18348 2.3491-0.44724 3.547-0.32878 0.44926 1.9801-1.6682 1.4936-2.7984 2.0568-1.4221 0.70734-0.48928 4.0775-0.60087 5.3459-0.22034 2.474-1.9543 4.544-2.066 7.0018-0.12376 2.6989 1.4708 5.2792-0.94425 7.4687-2.5954 2.3547 3.614 1.5778 4.1147 1.536 0.97173-0.0788 3.5236 1.1417 3.1504 2.3723-0.5923 1.9375-3.0988 0.40034-4.1785 1.1758-2.214 1.5915 1.3926 3.024 2.4514 3.162 2.3895 0.31218 4.1785 0.58229 6.1333 1.8485 0.29384-1.2456 0.80149-2.4009 1.4481-3.2728 1.053-1.4201 2.1976-2.4851 2.7468-4.2292 0.48359-1.5428 0.59518-3.2597 1.623-4.5814 1.3557-1.748 3.6705-1.8453 5.6181-2.4662 1.8256-0.58086 3.2131-1.914 4.8788-2.7958 2.489-1.3174 5.1529-0.98003 7.7481-0.36426-0.015-0.4956-0.0357-0.99547-0.0639-1.4968-0.10464-2.0087 1.2244-1.5326 2.2935-2.8728 1.0015-1.2562-2.6239-1.3248-3.0244-1.3532-0.0772-0.42637 0.46357-0.936 0.53225-1.4021 0.12762-0.87758-0.10295-1.5929-0.28331-2.4437-0.45495-2.1542 1.4192-4.0803 0.9786-6.3409-0.50359-2.5868-5.6656-4.3521-3.365-7.0992-2.7127-1.0931-6.015-1.9575-8.9277-2.1721-0.44781-2.1057-0.0109-4.4767-1.0502-6.4383-0.67817-1.2805-2.4033-1.5022-1.1074-3.0012 1.1145-1.2848-0.32794-3.4993-1.4336-4.2664-0.1517-0.10597-2.1575-1.3248-2.1346-0.97002-0.13686-2.0373-0.71245-2.9787-1.342-4.7593 0.11323-0.11371 0.21466-0.1994 0.33935-0.31961-1.3706-3.8113 2.3573-6.1348-0.63808-9.4807-0.89562-0.99774 4.1192-4.729 5.1164-4.5704 2.4551 0.39488 4.024 3.5083 6.4125 4.0836 1.9128 0.45896 3.2531-0.71536 4.9391 0.81549 1.1557 1.0473 2.6508 0.27468 3.4903-0.83268-0.78689-1.5701-1.1131-4.541 1.0244-5.2277 2.7499-0.88446 1.3306-1.92 1.6027-3.8558 0.0271-0.1835 0.0656-0.37511 0.12569-0.57542 0.53794-1.754 2.0942-2.4179 1.5935-4.498-0.3202-1.328-0.97862-3.3562 1.079-3.4565 0.30619-2.1891-1.4161-4.2292-0.91535-6.3553 0.0944-0.40634 0.94969-3.7026 1.7349-3.1104-1.1818-0.88962-2.116-2.4409-3.5913-2.8356-0.29216-0.07714-0.60346-0.11323-0.9454-0.08874-1.92 0.1517-2.0253 2.0259-3.2449 3.0234-0.62924 0.5162-1.2192 0.43322-1.7586 0.03373-0.40063 0.4006-0.76945 0.8026-1.0445 1.2092-0.9528 1.4147-1.3362 2.9729-2.0922 4.4724-0.94512 1.8742-2.5904 2.6652-4.5219 3.2013-1.8422 0.51218-2.8575 1.4622-4.155 2.8014-1.6539 1.7094-3.8628 2.7612-5.538 4.478-1.2836 1.3162-1.837 2.3547-3.7737 2.6291-2.0805 0.29443-2.3264 2.5752-4.7511 1.9741-1.9197-0.475-3.0262 0.41145-4.7436 1.0195-1.8748 0.66301-3.7022-0.74194-4.9398 1.3103-0.65098 1.081-1.5738 2.4248-2.7744 2.951-1.9254 0.84383-4.4993 0.6856-7.0414 0.37201-0.764 0.35163-1.7655 0.54334-2.3668 0.66382-3.6514 0.72107-6.8033 2.9731-10.399 3.8478-2.4493 0.59883-6.6213-0.19531-8.6357 1.5514 1.1603 1.4061 4.1647 1.5062 5.7801 1.0227z"/>
   <path fill="#acabda" d="m70.086 151.44c-0.07133 1.073 0.99546 1.0619 1.4845 1.8342 0.53938 0.8501 1.8456 5.643 3.8689 3.8027 0.7182-0.65067 2.9931-5.4593 4.6383-2.5221 0.50361 0.89849-0.17748 2.0173 0.23436 2.9587 0.45926 1.0616 1.6113 1.1818 1.265 2.6291-0.9414 3.9458-5.6398 2.029-6.6673 5.2997-0.43352 1.3775-0.95973 1.9085-1.5635 1.9615 0.09841 1.2358-1.4596 2.1172-0.74424 3.4048 0.6524 1.1703 2.0685 1.0616 2.4722 2.7612 0.41491 1.7508 0.23262 3.6854-1.0914 4.9845-1.9257 1.89-4.2864 5.3308-1.7998 7.969 1.8113 1.92 5.0218-4.6641 6.5813-5.5083 1.3849-0.74967 2.1916-0.88903 2.7299-2.4628 0.47099-1.3783 1.6991-0.48158 2.5036-0.0408 1.2047 0.66186 2.8414 0.55514 3.8452 1.6052 0.83584 0.87561 0.43782 2.2404 0.65528 3.3092 3.0275 0.4375 0.01719 6.7741 3.4052 7.1578 1.1983-1.3772 1.9057-1.5623 3.8214-1.1483 0.96117 0.20862 3.0242 0.78088 3.7378-0.25668 0.67245-0.98232 0.58659-2.5096 1.5137-3.3201 1.3177-1.1483 3.0674 1.2816 3.4709 2.2832 0.5637 1.4018 0.64984 2.3893 2.3066 2.738 1.6078 0.33794 2.8582 1.5243 4.538 0.92564 1.8571-0.66094 2.7382 0.32907 4.0088 1.5452 1.5202 1.4536 3.7541 0.22891 5.1705 1.6339 1.5394 1.5308-0.59001 2.0937-1.6167 2.8614-1.2762 0.95571-2.518 2.4351-3 3.9746-1.0673 3.3882 4.4174 3.8671 6.2904 4.7255 1.348 0.61405 1.352 2.1234 1.2876 3.4067-0.0286 0.59199-0.25926 1.0355-0.60206 1.3889 0.289 0.32791 0.50651 0.67817 0.62611 1.0473 0.53222 1.6339 1.2536 3.298 2.0945 4.8072 0.87847 1.5709 2.1998 1.5022 3.7486 1.9686 1.4061 0.42463 2.7436 1.1108 4.0577 1.8779 1.0256-1.1025 0.93626-2.474 1.3906-3.9542 0.53196-1.7398 2.0113-2.6697 3.1302-4.0027 2.7441-3.2709 4.6955-7.0248 8.5646-9.0766 0.99546-0.52651 2.9754-1.6049 2.6648-3.0339-0.2521-1.1595-1.8181-1.7318-2.5838-2.4957-1.6888-1.6854-1.9446-4.5405-1.3532-7.033-1.9532-1.2664-3.7402-1.5363-6.1329-1.8488-1.0581-0.13688-4.6641-1.5703-2.4514-3.162 1.0768-0.77256 3.5844 0.76113 4.1785-1.176 0.37488-1.2272-2.1775-2.4506-3.1506-2.3719-0.50074 0.0415-6.7096 0.81811-4.1153-1.5363 2.4145-2.1878 0.82067-4.7734 0.94512-7.4687 0.11179-2.4581 1.8448-4.5261 2.0659-7.0018 0.11177-1.2688-0.82123-4.6355 0.60091-5.3463 1.1302-0.56428 3.2488-0.0775 2.7984-2.0568-1.2018-0.11735-2.3607 0.50932-3.547 0.32821-1.9126-0.29216-2.0854-2.3607-1.1411-3.6029 1.0072-1.3282 1.2905-2.7103 3.0275-3.2367 1.3532-0.41002 2.3429-1.72 2.0144-3.2105-0.20735-0.93852-1.2693-1.3034-1.9958-1.7397-1.4307-0.86987-2.8801-2.4578-3.8173-3.8332-1.3735-2.0173-2.2256-0.92396-4.1518-1.6024-1.5766-0.55254-1.8971-2.315-2.601-3.611-1.3772-2.538-5.8241-4.169-8.464-2.9329-1.4192 0.66385-2.4293 2.1432-4.1834 1.8113-1.4221-0.26868-2.8728-0.21747-4.2722-0.4893-0.21465-0.043-0.43779-0.1124-0.66383-0.20025-0.0291 0.0944-0.063 0.18886-0.10592 0.28041-1.548 3.2862-8.5435-1.1028-8.8132 4.0088-1.9143 0.30904-3.4748-0.56084-5.016-1.4508 0.75827-1.8456-1.7944-3.7228-2.7958-4.9503-1.1643-1.4278-2.0516 2.2148-2.1839 2.9071-0.25952 1.356-1.7663 3.3966-2.8691 1.1618-0.31216-0.62607-0.17275-3.9344-1.7091-3.053-1.4685 0.8441-2.3229 3.0788-3.8478 4.1433-0.87359 0.60663-2.0745 1.2333-3.1562 0.7869-0.72135-0.29757-1.3077-1.1417-2.1149-1.2078-1.2616-0.1027-1.495 1.6038-2.003 2.3489-0.65498 0.95629-1.6393 1.5171-2.6781 1.9692-2.0974 0.91223-2.8674 1.7455-4.2092 3.5122 0.64325 1.5071 1.5852 2.1108 1.4745 3.8248z"/>
  </g>
  <g stroke="#000">
   <path d="m243.75 1.8583-2.3559 1.6705-4.0265-0.64252h-1.6705l-2.3131 1.3279-1.3707 1.6706-0.29983 1.3279-2.3559 1.6705v4.0265l-2.0132 2.0132v3.6838l-2.0132 2.9984-1.3279 2.9984-2.0132 1.6705-1.3279 2.0132-2.6986 4.7118-2.0132 3.9836-0.9852 2.3559-1.6706 2.3559v2.9984l-2.3559 1.6706-4.0264 12.722-4.3264 4.0264-2.9984 7.3676-3.3839 2.3131-0.98518 6.0397-5.697 2.6557-2.6557 2.3559-2.3559 3.3411-2.3559 2.3559-3.3411 5.697-4.0265 4.3263-1.9704 4.0265-0.68535 5.697-2.3559 1.6706-1.6706 3.6838-2.3559 0.68535-0.98523 4.3263-1.6705 3.3411-1.3279 3.6838-3.0413 5.3543-1.9704 2.6986-3.0413 2.3131-3.3411 4.0264-5.0117 2.3559-5.3543 3.6838-2.9984 2.0132-2.6986 4.3263-3.3411 4.0264-3.6838 3.6838-3.6838 2.6557-1.6706 2.0132-0.98517 3.0412-3.6838 2.9984-2.6986 2.9984-2.0132 2.6986-2.3131 3.3411-0.68533 2.9984-0.34267 2.6986-2.0132 3.9836-5.0117 9.3808-1.3279 7.3676-9.3808 13.707v7.3675l-1.3279 2.3559 3.6838 10.023 1.3279 6.6822 2.6986 4.3691v8.6954l0.9852 4.7118v5.6542l2.9984 0.68536 2.6986 2.3559 6.3395-1.3707 2.3559 2.6986" stroke-width=".55685px"/>
   <path d="m199.84 240.01 4.2204 1.2058-0.30146-4.2204 1.2058-3.6175-1.2058-2.1102 1.2058-1.5073v-2.4117l-0.90438-3.0146-0.90439-3.919 0.60293-4.5219-2.1102-3.0146v-4.5219l-0.90439-1.2058-2.7131-2.4117-0.30147-3.6175-0.30146-1.8088h-3.316l0.60293-1.8088 0.30146-3.0146-0.90439-4.5219-0.30147-1.8088-1.2058-1.5073-2.1102-3.316 2.4117-1.8088 0.60292-3.0146-0.30146-1.5073 1.5073-3.0146v-4.8234l-0.9044-1.8088 5.4263-12.36-1.5073-2.7131 5.1248-15.073-0.9044-2.7131 3.0146-2.1102 2.1102-6.0292 3.316-6.6321 2.4117-4.5219 2.1102-3.6175 2.4117-3.919 2.7132-4.8234 1.5073-1.5073 3.0146-4.2204 2.4117-3.0146 1.2058-2.4117 0.60291-2.4117v-2.7131l3.3161-2.4117v-0.90438l-0.60294-2.1102v-4.5219l2.4117-2.1102 2.1102-0.90438 1.2058-2.4117 0.60292-2.7131 0.60292-2.7131 1.5073-2.7131 0.90438-2.1102v-2.1102l-0.30148-2.4117-0.30145-1.2058-0.30145-0.90438v-1.8088l0.90438-2.1102 0.30145-2.7131-0.30145-2.1102 0.30145-2.1102 0.60292-1.2058-0.30146-0.60292-0.30146-2.7131 0.60292-0.90437 1.8088-0.90439 0.30147-0.30146 0.30147-2.4117-0.9044-2.1102 0.4679-2.5941-1.8352-1.5294-0.61175-2.7528v-2.447l0.30588-3.0587-1.8352-2.1411-2.1411-2.447-0.9176-3.6705 1.2235-2.7528 2.447-3.9764 1.8352-1.2235" stroke-width=".48234px"/>
   <path d="m184.44 87.405 0.49542 3.9726 1.4862 2.9795 0.99078 11.918-0.99078 7.4487-0.49541 9.9316v13.408l1.9816 5.9589-1.4862 7.9452-1.4862 1.9863-1.4862 0.99316-8.4216 31.781 0.49539 4.9658-4.9539 5.4624-2.477 5.9589 2.9724 2.4829v2.9795l4.4585 2.9795v3.476l3.9631 3.476-2.477 4.9658 3.9631 4.9658 1.4862 10.428" stroke-width=".60014px"/>
   <path d="m128.93 159.72-1.8258-1.8701-2.4344-0.62336-2.1301 0.62336-1.8258-0.93503h-2.4344l-2.4344-1.2467-3.6516-0.93503-3.9559-0.62335h-3.043l-2.4344 0.31167-3.043 3.1168-1.5215 2.1817-0.6086 1.2467-2.4344 2.8051-2.4344 1.8701-2.4344 1.8701-3.3473 0.31167h-7.9118l-3.3473-0.31167-1.2172-1.2467-1.8258-0.62335-2.4344-1.5584-1.5215-0.31168-1.5215-0.93503-2.1301-0.62336-2.4344-0.31167h-3.043l-3.043 0.62335-2.1301 0.93504-2.4344-1.5584-1.8258-0.62336-2.7387-0.31167-3.9559 0.62335h-2.7387l-2.1301 1.2467-2.4344 1.5584v9.3503l0.6086 2.4934v5.6102l0.60861 2.8051 0.3043 3.1168 0.3043 3.7401v4.9868l-2.1301 0.93503-0.9129 2.4934-1.8258 1.2467-4.5645 2.1817-2.1301 0.62335-0.91291 3.4284-0.6086 2.1817-0.6086 0.93503 0.9129 2.8051 2.1301 0.31168 2.1301 0.93503v3.7401l0.6086 3.7401" stroke-width=".4588px"/>
   <path d="m108.03 189.2 3.1601 1.264 2.2121 0.94804 3.7922 0.63202 3.7922-0.94804 4.1082 7.2683 2.8441 1.264-0.94803 2.8441 0.94803 2.5281-1.264 2.5281v4.1082l0.94804 2.8441v3.1601l1.5801 4.4242 1.5801 0.94804v6.9523l3.4762 9.4804" stroke-width=".58146px"/>
   <path d="m127.17 212.77-1.763 0.13561-1.4918 0.27123-1.2206 0.13563-1.763 0.13561-1.4918 0.94932-0.94931 0.8137-2.0343 2.3055-1.4918 1.8986-1.2206 1.3562-1.4918 1.4918-1.4918 1.2206-1.8986 0.94932-2.0343 0.8137-1.763 1.0849-1.0849 0.94932-1.3562 0.94932-1.4918 2.0343-3.1192 0.13568-2.3055 0.27123h-5.5603" stroke-width=".46381px"/>
   <path d="m134.21 239.48-1.874 3.506-1.6866 2.7547-0.93698 2.0034-1.4992 3.506-0.93697 2.2538-0.93699 3.506-1.6866 1.2521-0.88635 1.4124-0.65367 1.5287-0.81708 1.0919-0.98051 0.87353-0.9805 1.5287-0.98049 2.1838-0.81708 2.1838-1.6342 1.0919-1.1439 1.0919-1.4708 1.3103-1.1439 2.4022" stroke-width=".3986px"/>
   <path d="m89.898 230.51-4.2103-0.35086-4.5611-0.70171-3.8594-1.0526-2.1051-0.70172-1.4034-0.70171-2.1051-0.70172-3.5086-1.0526-2.456-1.0526-2.1051-2.1051-1.4034 3.1577-2.8069-1.7543h-10.877l-2.456-1.4034-1.7543 3.1577h-4.2103l-1.7543-1.4034h-2.8069l-5.2629-1.4034" stroke-width=".52269px"/>
   <path d="m133.36 236.74 2.7363 1.7982 1.607 1.8831 1.7855 1.6739 1.2498 1.0462 2.6783 0.83694 1.9641 0.41847 2.8568 0.83693 2.4997 1.0462 2.8568 1.4646 2.6783 1.0462 1.7855 0.83694 1.7855 0.83693 1.9641 0.20924h1.2498l2.4997-1.8831 3.9282-4.6031 2.1426-0.20923 1.0713-0.20923 1.4284-0.83694 2.4997-3.1385 1.2498-0.83694 2.4997-1.0462 3.7496 0.41846 2.1426 0.20923h2.1426l2.3212-0.20923 2.1426-0.6277 1.9641 0.20923 1.2499 1.2554 3.2139 0.83694h0.53565" stroke-width=".5759px"/>
   <path d="m30.36 222.48 1.047 2.6755 1.396 0.29728 1.396-0.14864 1.9195-0.89182 0.87251 1.635 0.52351 1.635v0.44591l0.349 3.5673 1.745 0.44592 1.396 0.29727 0.52351 0.29728v1.3377l-0.1745 2.0809 1.2215 0.29728 1.047 3.5673 1.745 0.89183-0.69801 0.74319 0.87251 1.4864v1.4864l9.5976 4.7564 6.4566 1.0405 0.87251 0.44591 11.517 0.14864 2.094 3.5673 3.6646 1.7837 1.396 2.0809 7.8526 4.6078 2.2685 1.3377 1.9195 0.74319 2.094 1.9323 3.4281 3.5426" stroke-width=".47986px"/>
  </g>
 </g>
 <g fill-rule="evenodd">
  <g stroke-width=".17743">
   <ellipse cx="112.92" cy="274.07" rx="1.9091" ry="2.0214"/>
   <ellipse cx="30.423" cy="222.51" rx="1.9091" ry="2.0214"/>
   <ellipse cx="200.11" cy="240.22" rx="1.9091" ry="2.0214"/>
   <ellipse cx="134.51" cy="238.69" rx="1.9091" ry="2.0214"/>
   <ellipse cx="90.337" cy="229.95" rx="1.9091" ry="2.0214"/>
   <ellipse cx="108.27" cy="189.27" rx="1.9091" ry="2.0214"/>
   <ellipse cx="128.38" cy="204.8" rx="1.9091" ry="2.0214"/>
   <ellipse cx="182.39" cy="237.82" rx="1.9091" ry="2.0214"/>
  </g>
  <ellipse cx="242.96" cy="2.7151" rx="2.5651" ry="2.716" stroke-width=".2384"/>
 </g>
 <g fill="#000000" font-family="sans-serif" font-size="3.5278px" letter-spacing="0px" stroke-width=".26458" word-spacing="0px">
  <text x="211.25822" y="6.9082837" style="line-height:1.25" xml:space="preserve"><tspan x="211.25822" y="6.9082837" font-size="4.2333px" stroke-width=".26458">Chennai</tspan></text>
  <text x="134.94443" y="233.22571" style="line-height:1.25" xml:space="preserve"><tspan x="134.94443" y="233.22571" stroke-width=".26458">Thanjavur</tspan></text>
  <text x="160.30946" y="236.06834" style="line-height:1.25" xml:space="preserve"><tspan x="160.30946" y="236.06834" stroke-width=".26458">Thiruvarur</tspan></text>
  <text x="184.58119" y="246.12691" style="line-height:1.25" xml:space="preserve"><tspan x="184.58119" y="246.12691" stroke-width=".26458">Nagapattinam</tspan></text>
  <text x="134.06976" y="205.45537" style="line-height:1.25" xml:space="preserve"><tspan x="134.06976" y="205.45537" stroke-width=".26458">Ariyalur</tspan></text>
  <text x="15.55378" y="223.16716" style="line-height:1.25" xml:space="preserve"><tspan x="15.55378" y="223.16716" stroke-width=".26458">Karur</tspan></text>
  <text x="113.51534" y="185.77559" style="line-height:1.25" xml:space="preserve"><tspan x="113.51534" y="185.77559" stroke-width=".26458">Perambalur</tspan></text>
  <text x="118.32594" y="275.42792" style="line-height:1.25" xml:space="preserve"><tspan x="118.32594" y="275.42792" stroke-width=".26458">Pudukkotai</tspan></text>
  <text x="95.584869" y="235.41235" style="line-height:1.25" xml:space="preserve"><tspan x="95.584869" y="235.41235" stroke-width=".26458">Thiruchirapalli</tspan></text>
 </g>
</svg>
