<!-- Created with Inkscape (http://www.inkscape.org/) -->
<svg width="232.03mm" height="295.74mm" version="1.1" viewBox="0 0 232.03018 295.73702" xmlns="http://www.w3.org/2000/svg" xmlns:cc="http://creativecommons.org/ns#" xmlns:dc="http://purl.org/dc/elements/1.1/" xmlns:rdf="http://www.w3.org/1999/02/22-rdf-syntax-ns#">
 <metadata>
  <rdf:RDF>
   <cc:Work rdf:about="">
    <dc:format>image/svg+xml</dc:format>
    <dc:type rdf:resource="http://purl.org/dc/dcmitype/StillImage"/>
    <dc:title/>
   </cc:Work>
  </rdf:RDF>
 </metadata>
 <g fill="none">
  <g transform="translate(14.816 15.013)" stroke="#fff" stroke-width=".5">
   <path fill="#cc2" id="Tirunelveli" d="m131.79 122.64c-1.1707-0.82584-2.3628-0.7534-3.7205-0.83454-1.334-0.0781-1.4604-1.1677-1.9617-2.3149-0.53897-1.2347 0.21301-3.0125-1.2054-3.831-1.0113-0.58244-2.2031 1.5154-2.8889 2.011-2.037 1.4662-1.5937-1.388-1.8412-2.2775-0.32454-1.1678-2.1385-2.7527-3.1296-3.3613-3.4455-2.1124-8.4293 0.53029-11.935 0.98402-0.0196-0.41145-0.20628-0.79219-0.46131-1.1243-2.3064 0.2724-4.3957 0.96493-5.2458 3.1467-0.58822 1.5062 1.8863 6.5602-1.1892 5.9223-1.8371-0.38076-1.924 0.82698-3.4712 1.3196-1.6169 0.51321-2.0023 1.0756-3.2453 2.0695-1.2923 1.0321-3.3439-0.40862-4.6942-0.59407-1.6969-0.23556-2.8452 0.60213-3.877 1.8603-2.5847-1.3735-5.4969-1.5155-8.3597-1.5213-1.0229-4e-3 -3.6916 0.57956-4.3232-0.59429-0.81712-1.5274-0.03011-2.88-1.9834-3.6611-0.26977-0.10602-3.011-1.3225-2.9587-1.3764-0.90697 0.9084-3.8045 2.0823-5.0622 2.0585-1.4228-0.0259-2.3358-1.3851-3.7031-1.6575-3.3961-0.67221-1.7415 3.749-3.4655 4.4866-2.8976 1.2402-6.1416-0.13316-7.7813 3.6076-0.69832 1.5908-0.15649 2.9762-1.7652 4.1263-0.6253 0.44628-1.3312 0.77373-2.0597 1.0258 0 0.0227-0.0033 0.0423-0.0033 0.0664-0.08399 8e-3 -0.17155 0.013-0.25558 0.0233-0.49956 0.15994-1.0066 0.28688-1.5097 0.39698 0.03361-0.0725 0.07239-0.14493 0.10602-0.21737-2.5355 0.44072-5.181 1.5329-6.9382 3.3622 0.26659 0.25996 0.51838 0.53696 0.7357 0.84672-1.0927 0.46503-0.97187 3.5384-1.3575 4.5637-0.93828 2.4922-3.793 0.3086-4.3754 2.5038-0.28397 1.0664-0.42884 2.2196-0.51085 3.3815 1.8681 1.0722 4.1835 0.75919 6.2528 1.3503 2.5656 0.73305 5.4331 3.4975 6.4134 5.9603 1.4259 0.36803 3.5497-0.22339 4.9059-0.73047 0.22572-1.2892 0.0033-2.9613 1.8632-2.5614 1.636 0.3506 3.2309 1.6922 4.1713 3.031 0.5407 0.77079 0.73888 1.962 1.0478 2.8432 0.58763 1.6743 3.1683 1.4685 4.7591 1.7583 4.4594 0.81509 8.2004 0.65484 12.177 3.0686 1.5143 0.91854 3.1191 2.0051 4.9085 2.2572 0.95333 0.13729 1.8835-0.029 2.8397 0.0114 0.9594 0.0423 1.4459 0.58304 2.0863 1.0345 0.57084-1.0519 2.2535-1.2431 2.5614 0.21737 0.46625 2.2224 1.785 3.5843 4.2277 2.2834 0.91568-0.4871 1.7589-1.075 2.6835-1.5474 1.0417-0.53025 1.0255-2.1124 1.9066-2.7944 0.83134-0.64385 1.8994-0.24369 2.6741-1.1205 0.82292-0.92694 1.5734-2.3364 1.6459-3.5956 2.8571 0.1943 3.3874-3.9581 4.5639-5.7604 2.1431-3.2899 7.4991-1.3996 10.641-1.1892 0.31989 1.4549 1.7568 2.2266 2.7116 3.2105 1.3039 1.3471 2.2775 2.7903 4.1755 3.3262 1.419 0.40048 2.8164 0.77888 4.1955 1.177 1.9061-0.0114 4.766 0.59399 6.079-0.92379 2.2862-2.6463 2.0709-4.8996 0.98431-7.9796-1.2497-3.5464-3.6983-3.012-6.7217-2.5536-0.96202 0.14492-2.4746 0.36511-3.2407-0.42306-0.91041-0.93881-0.32422-2.6078-2.1353-2.5007-0.15099-0.73888 0.0231-1.5328 0.19431-2.2224 2.264-1.1359 5.0167 0.17079 7.1262-1.472 2.3726-1.8519 2.8099-2.6572 3.6975-5.4767 1.5067-0.7809 4.6827 0.48855 4.9198-1.9936 0.19429-2.0052-0.10219-4.1668 2.0283-5.1548 1.106-0.51286 1.4671-1.5635 1.8223-2.5993-1.8875-0.40099-2.1164-2.1946-3.729-3.3278z"/>
   <path fill="#e2b584" id="Theni" d="m39.807 132.37c1.8835-3.8857 4.8361-7.2935 7.0703-10.965 1.153-1.895 1.5676-4.1609 2.6802-6.0672 0.83973-1.4419 2.5238-1.7887 3.6598-2.9037 2.8164-2.7644 2.7644-7.7685 4.5434-11.103 0.99968-1.8716 1.1254-2.7348 2.8861-4.0251 1.0229-0.74759-0.26658-2.5551 1.2938-2.6165 1.2956-0.05225 1.3373-3.3003 1.4404-4.123 0.20862-1.7241 0.3199-2.7007 1.5995-3.8924 0.2521-0.23556 0.3593-0.49519 0.39698-0.76989-2.0284-2.6955-0.28369-7.3831-3.4829-9.2422-3.2916-1.9124 2.8658-3.0878 3.9118-3.4163 0.30714-1.1996-1.5531-2.5732-2.0822-3.6063-1.5734-0.54996-3.0993-1.0866-4.7928-1.0368-1.9168 0.05642-2.7557-0.77946-4.4594-1.1561-1.2634-0.28108-1.6806 1.2344-2.8454 1.4343-1.5636 0.26948-2.8397 0.9591-4.1111 1.8835-2.5355 1.8371-5.5095 2.638-8.4119 3.7553-1.8081 0.69425-2.999 0.07224-4.6218-0.7018-1.7502-0.83103-3.0658-0.28223-4.7232 0.44538-2.715 1.1906-7.0644 1.4992-10.474 0.29411-0.0036 0-0.0036 0-0.0063 5e-3 -1.756 0.42308-2.6687-0.16319-3.9988 1.3445-1.0258 1.1591-2.0706 2.2196-0.84321 3.6402 1.217 1.4065 3.0627 2.4093 4.0219 4.0306 0.78527 1.33 0.60937 3.2899 1.2547 4.7767 0.58561 1.346 1.2692 3.5045 0.14779 4.7739-1.4401 1.6282-2.9439 2.4935-3.9407 4.6096-1.1301 2.4024 1.0432 2.7823 0.71832 4.751-0.25788 1.5647-1.2616 2.9672-0.07937 4.4566 1.5502 1.953 0.01741 1.5792-0.01176 3.447-0.01633 1.0368-0.11591 2.0738-0.2405 3.1034-0.17964 1.4546-1.4749 1.5995-1.8719 3.0919-0.39699 1.4952-0.37699 2.9237-1.2199 4.2769-1.6844 2.7007-4.2897 5.8859 0.35351 6.236 0.70992 1.8985 3.5436 2.3216 5.2593 2.7348 3.0003 0.72731 4.1089-0.89246 6.679-1.585 0.76497-0.20583 0.90407 2.7642 2.1907 1.2892 0.57663-0.66036 1.2315-1.9034 2.2518-1.1286 0.45319 1.7328-1.1359 3.0745 0.15068 4.7405 0.77772 1.0055 1.8777 1.6952 2.7788 2.578 1.7487-1.824 4.3931-2.9165 6.9286-3.3569z"/>
   <path fill="#c2f0c2" id="Madurai" d="m119.6 70.68c0.16797 0.54184 0.75338 0.77948 0.91565 1.3358 0.31989 1.1052-0.21041 2.2224-0.64039 3.2059-1.3851 3.1498-2.8906 6.5661-7.0616 5.4632-2.7644-0.73051-3.615-6.6762-4.5754-8.9652-1.5937-3.8017-4.5465-2.509-7.8729-2.1008-2.1732 0.26687-4.1407 1.2964-6.2067 1.9414-1.8197 0.57081-2.1894 2.7296-3.5612 3.8078-1.1793 0.92697-3.0627 0.54535-3.1498 2.5438-0.084 1.9443-0.72151 2.7122-2.7557 2.8802-2.0226 0.16755-4.0845-0.17972-6.0911 0.22892-1.8719 0.38074-3.5787 1.4778-5.3809 2.097-1.501 0.51493-3.1526 0.56156-4.6202 1.1365-0.53868 0.21127-2.65 2.279-2.7988 2.1387-0.15936-0.15362-0.30136-0.31296-0.42769-0.4845-0.03771 0.27414-0.14026 0.53376-0.39552 0.76962-1.2776 1.1909-1.3877 2.1663-1.5998 3.8933-0.10142 0.82583-0.142 4.0741-1.4401 4.123-1.5589 0.06073-0.27122 1.869-1.2923 2.6165-1.7589 1.2894-1.8835 2.15-2.8861 4.0251-1.7809 3.3367-1.7241 8.3392-4.5452 11.103-1.1359 1.1159-2.819 1.4633-3.6598 2.9037-1.1127 1.9061-1.5271 4.1748-2.6802 6.0672-2.2342 3.6714-5.1838 7.0761-7.0692 10.965-0.03473 0.0723-0.07241 0.14492-0.10723 0.21738 0.50102-0.10729 1.0113-0.23646 1.5097-0.39695 0.08695-0.029 0.17098-0.0608 0.25788-0.0898 0.73048-0.25499 1.4343-0.57951 2.0602-1.0258 1.6053-1.1474 1.0663-2.5353 1.7647-4.1263 1.6401-3.7408 4.8855-2.3673 7.7831-3.6076 1.7224-0.73889 0.0678-5.1607 3.4655-4.4873 1.3703 0.27008 2.2805 1.632 3.7014 1.658 1.2593 0.023 4.1524-1.1509 5.0639-2.0585-0.05509 0.054 2.6872 1.27 2.9585 1.3764 1.9513 0.7795 1.162 2.1356 1.982 3.6607 0.63167 1.1773 3.3003 0.59492 4.3232 0.59492 2.8628 8e-3 5.775 0.15078 8.3597 1.5212 1.0324-1.2616 2.182-2.095 3.8774-1.8606 1.35 0.18581 3.4015 1.6279 4.6938 0.59431 1.2431-0.99476 1.6285-1.5561 3.2453-2.0704 1.5505-0.49116 1.6349-1.6966 3.4714-1.3187 3.0728 0.63744 0.59809-4.4155 1.188-5.9223 0.84903-2.182 2.9411-2.8791 5.2475-3.1467-0.26804-0.34771-0.60736-0.64037-0.90408-0.84611 0.71284-0.1386 1.5636-0.0435 2.2757-0.15948 0.03-0.86932 0.59548-3.576 2.0585-2.119 1.049 1.046 1.8067 1.556 2.7527 0.18647 2.1384-3.0969 0.25963-4.6094-2.9933-3.3987-0.85481 0.31993-4.1102 0.17494-2.7181-1.4549 1.25-1.4671 2.8745-1.5018 4.6043-1.944 1.8922-0.48448 2.7875-1.5711 4.9116-1.4671 0.907 0.0435 1.8307 0.12158 2.7383 0.12487 1.3384 9e-3 2.3443-0.87245 3.6017-1.1663 3.0136-0.7099 3.7236-3.4394 6.1285-5.4099 0.61314-0.50417 2.947-1.1214 3.7814-1.3312 1.7241-0.43465 3.5612-0.64386 5.1318-1.5436 3.2829-1.8834 1.6314-4.5095 0.0523-6.8253-2.1646-3.1787 3.0686-3.9379 2.0979-7.1538-1.1301-3.7495-5.4244-1.962-6.6414-5.6011-0.66068-1.982 0.74178-3.9179 0.99387-5.8387 0.30801-2.3297 0.15644-3.7854-1.5097-5.4673-0.70125-0.70877-1.2576-1.6505-1.6632-2.6983-1.1504 0.30773-2.3634 0.41986-3.5177 0.33613-1.2605 2.9875-0.45494 6.592-2.8338 9.1356-0.70121 0.75979-3.7725 2.2318-3.3987 3.4344z"/>
   <path fill="#f2c0f2" id="Sivaganga" d="m138.14 46.789c-1.6331 1.698-1.0652 1.5444-1.2478 3.6652-1.6951 0.06637-3.2742 1.623-4.4129 2.756-1.0025 0.99391 0.84323 2.4206-0.0377 3.0917-0.89248 0.67804-1.9605 1.1648-3.086 1.4662 0.4057 1.046 0.96 1.9878 1.6633 2.6985 1.6626 1.6806 1.8168 3.138 1.5097 5.468-0.25502 1.9211-1.6546 3.8578-0.99418 5.8376 1.2135 3.6424 5.5086 1.8534 6.6416 5.6011 0.97069 3.2175-4.2671 3.976-2.0979 7.1543 1.5758 2.3138 3.2296 4.9375-0.0524 6.8239-1.5673 0.90061-3.4048 1.1098-5.1326 1.5444-0.83803 0.21127-3.1676 0.82583-3.7821 1.33-2.405 1.9704-3.1178 4.697-6.1272 5.4099-1.2585 0.29586-2.264 1.1736-3.6034 1.1678-0.90699-5e-3 -1.8296-0.0814-2.7368-0.12601-2.1208-0.10297-3.0201 0.98086-4.9111 1.4671-1.727 0.44335-3.3506 0.47754-4.6061 1.9443-1.3908 1.6285 1.8649 1.7734 2.7194 1.4549 3.2555-1.2115 5.1318 0.30108 2.992 3.3987-0.94491 1.3703-1.7041 0.86058-2.7527-0.18604-1.4636-1.457-2.0283 1.2495-2.0576 2.1188-0.71282 0.11577-1.5676 0.0196-2.2775 0.1595 0.29585 0.21041 0.63746 0.50012 0.90405 0.84609 0.25498 0.33208 0.44333 0.71427 0.46101 1.126 3.5073-0.45494 8.4915-3.0965 11.935-0.9852 0.99389 0.60849 2.8049 2.1935 3.1293 3.3613 0.24922 0.88959-0.19714 3.744 1.8412 2.2775 0.68992-0.49547 1.8774-2.5934 2.8894-2.0107 1.4187 0.81684 0.66642 2.5978 1.2054 3.8321 0.50101 1.144 0.62529 2.234 1.9617 2.3149 1.3579 0.0797 2.5499 8e-3 3.7205 0.83449 1.6119 1.1362 1.8412 2.9281 3.7368 3.3263 0.23472 0.0493 0.48682 0.0812 0.77887 0.084 1.5184 0.013 3.0355-0.3535 4.5117 0.19128 1.1651 0.42855 2.2636 1.0142 3.4337 1.4227 4.8235 1.6922 9.1856 1.982 12.605 6.3601 1.2779-1.3196 2.7614-2.1324 3.7379-3.7551 0.78818-1.3126 1.304-2.9252 3.1296-2.5893 2.638 0.48856 6.0502 1.0298 8.5422-0.26948 3.3584-1.7502-0.89247-6.0126-1.3309-7.9597-0.20628-0.97187 0.69052-2.2033 0.10614-3.1816-0.65775-1.1098-3.8626-0.44625-4.8824-0.50999-0.0786-0.11601-0.0463-0.38251-0.0607-0.5187-1.1651-0.41463-0.7215-5.8476-0.95619-6.9138-0.35643-1.6125 0.17885-3.1108-0.12158-4.6622-0.23296-1.1938-1.213-1.9559-1.8171-2.9439 1.8293-2.9498 6.8396-0.71284 9.6173-0.54941-0.0813 1.5441 1.3384 2.6861 1.4401 4.2277 0.0927 1.4024-0.0348 2.5203 0.99967 3.5902 2.1037 2.1704-0.33324 2.5508-0.61717 4.6305 2.2224 0.31236 4.758-1.3824 7.0609-1.4952 0.36571-1.9269-0.58558-3.8626-0.81652-5.7489-0.1632-1.3312-0.11386-2.9296-0.82698-4.1176 0.60674-0.878 1.7658-1.0837 2.3987-1.933 0.53027-0.70966 0.77079-1.663 1.4198-2.2877 1.3822-1.3213 3.3554-1.7907 5.0824-2.4774 0.91476-0.36511 2.0167-0.69545 2.6861-1.3825 0.34771-0.35408 0.5836-0.80294 0.6114-1.4059 0.0638-1.3008 0.0638-2.8251-1.3039-3.4511-1.9017-0.8693-7.453-1.3532-6.3718-4.7841 0.48971-1.556 1.7473-3.0571 3.0397-4.026 1.0374-0.77714 3.1933-1.3462 1.636-2.8976-1.4308-1.4256-3.6979-0.18603-5.2349-1.6543-1.2866-1.2315-2.1794-2.2344-4.0602-1.5638-1.7006 0.6056-2.9666-0.59777-4.595-0.93857-1.6748-0.35029-1.7617-1.3535-2.3364-2.7718-0.40769-1.0142-2.1794-3.474-3.5153-2.3121-0.93739 0.81715-0.85133 2.3673-1.5323 3.3621-0.72092 1.0519-2.8108 0.46915-3.7849 0.25995-1.9414-0.41958-2.6572-0.23182-3.8709 1.1625-3.4311-0.38889-0.38157-6.8033-3.447-7.2476-0.22109-1.0831 0.18582-2.4659-0.66325-3.3519-1.0183-1.0634-2.6774-0.95651-3.8944-1.6244-0.81423-0.44623-2.0573-1.3572-2.5356 0.0409-0.54762 1.5937-1.3613 1.7354-2.7642 2.4946-1.5786 0.85394-4.8304 7.5224-6.6647 5.578-2.5175-2.6687-0.12686-6.1547 1.8226-8.0712 1.3419-1.319 1.5274-3.2749 1.1069-5.048-0.40858-1.7206-1.8429-1.6114-2.5046-2.7951-0.72441-1.3011 0.8513-2.1963 0.75454-3.4483-0.96344 0.09052-2.1199-1.0249-3.4059-1.8855z"/>
   <path fill="#f9d3c6" id="Dindigul" d="m29.752 74.27c1.6574-0.72729 2.9729-1.2778 4.7232-0.44623 1.6227 0.77076 2.8136 1.3966 4.6218 0.70122 2.9035-1.1167 5.8794-1.9182 8.4102-3.7553 1.275-0.92374 2.5501-1.6122 4.1117-1.8835 1.1648-0.19932 1.5821-1.7125 2.8445-1.4326 1.7047 0.37958 2.5414 1.2135 4.4603 1.1544 1.6922-0.04941 3.2179 0.48854 4.7928 1.0373 0.52447 1.0345 2.3874 2.4109 2.0805 3.6076-1.0443 0.33032-7.2065 1.5033-3.9118 3.4163 3.199 1.8603 1.4575 6.5487 3.4833 9.2405 0.12692 0.16798 0.26948 0.33208 0.42595 0.48392 0.15068 0.14208 2.2601-1.9258 2.799-2.1385 1.4674-0.57489 3.1178-0.62008 4.6202-1.1359 1.8038-0.6201 3.5088-1.7154 5.3807-2.0976 2.0052-0.41177 4.0654-0.06401 6.0911-0.2292 2.0318-0.16668 2.6694-0.93564 2.7562-2.8795 0.08691-1.9994 1.9675-1.6169 3.1498-2.5442 1.3703-1.0779 1.7415-3.2366 3.5612-3.8076 2.066-0.64906 4.0336-1.6748 6.2067-1.9414 3.3262-0.40855 6.2791-1.7009 7.8729 2.1008 0.95912 2.2921 1.8076 8.235 4.5754 8.9652 4.1748 1.104 5.6794-2.3123 7.0609-5.4632 0.43086-0.9823 0.96086-2.1008 0.64095-3.2061-0.16297-0.55749-0.74759-0.79078-0.91567-1.3355-0.37377-1.1999 2.6976-2.6715 3.4109-3.4346 2.3789-2.5432 1.5705-6.1455 2.8336-9.1354-0.41441-0.03004-0.82296-0.08115-1.217-0.16298 1.2854-4.0336-0.87627-5.8418-4.2438-7.5368-0.33614-1.4517 0.89537-2.3673 1.5271-3.4953 0.73311-1.3077 0.73915-2.8798 0.50129-4.3154-1.9371-0.08704-3.3134-1.7038-5.1868-1.982-2.04-0.30133-2.8282 0-4.5434-1.394-2.8456-2.3121-2.5621-4.3041-0.28251-6.8155-0.11728-0.24341-0.26657-0.46942-0.51433-0.62593-0.63748-0.39696-1.6285-0.25497-2.3269-0.24048-1.8458 0.03481-2.4398-0.81976-3.8454-1.7531-0.13361-1.188 0.99911-2.2142 1.5444-3.1559 0.31238-0.53868 0.18365-1.3825 0.61837-1.7586 0.70413-0.6114 0.21279-1.7646-0.0318-2.4861-0.47809-1.4054-8e-3 -2.3819 0.17668-3.7582 0.15928-1.2002-0.46479-2.2982-0.41727-3.486 0.0435-1.0895 1.0837-1.4488 1.4691-2.3586 0.47232-1.1168-0.20279-2.3364 0.0664-3.4809 0.26655-1.1281 1.2083-1.7116 1.986-2.4631-0.81713-1.3118-3.1585-1.3825-4.3957-0.76991-1.5155 0.74761-1.4488 1.8864-2.2994 3.1813-0.65892 1.0061-2.0469 3.0693-3.3896 3.0049-1.4668-0.06963-2.9359-1.31-4.5639-1.4228-1.6549-0.11315-3.828 0.01305-5.0513 1.3039-1.4749 1.5531-1.3271 0.9881-3.5195 1.2663-1.3538 0.17494-1.72 1.7192-0.15358 1.8545 2.0921 0.18256 4.1714-0.37381 6.2648-0.28978 0.34626 2.3604 0.44161 7.3688-2.9883 6.9626-0.06085 0.85366-5e-3 1.7421-0.05756 2.6019-3.0834 0.0043-6.1514-0.7389-9.2422-0.60878-2.1703 0.09009-3.2251 2.8748-4.9057-0.05766-0.52737-0.9223-0.86234-2.0695-1.6401-2.8223-0.51868-0.50101-1.6256-0.23673-1.9878-0.77659-0.10147-0.15101-0.16807-0.30134-0.20253-0.45288-1.361 0.33613-2.6863 0.97648-3.7062 1.7849-1.4752 1.1678-2.4894 2.7588-4.6087 2.5123-0.12256-2.1761 1.3703-5.7258-0.33613-7.5513-2.1327-2.2834-3.6866 1.6169-4.3898 3.0192-1.6624 3.3208-5.4708 0.97942-8.2987 1.7647-2.9091 0.80844-3.5612 4.1494-7.0074 4.0336-1.6583-0.0544-2.833-1.7183-4.5754-0.9794-1.4671 0.62271-2.2955 2.0715-3.9002 2.4831-0.17472 0.04222-0.35121 0.08726-0.5265 0.12903-1.3242 0.33206-2.65 0.72152-2.7063 2.4109-0.06087 1.7734-0.13908 2.4746-1.7925 3.266-0.88377 0.42423-2.3251 2.3482-0.93797 3.0958 0.89624 0.48102 2.7942 0.21128 3.3025 1.3561 0.24718 0.55054-2.0892 1.8429-2.5294 2.1124-0.9881 0.60966 0.06637 3.1237 0.37351 3.8165-2.1915 1.6861-8.7389-3.4009-5.5139 2.7192 1.2979 2.4631 0.47232 5.5463 1.3039 8.2383 0.56794 1.8342 1.1764 5.9945 0.57084 7.8148-1.4488 0.34483-2.4824 1.3503-3.6766 2.1617-0.53404 0.36219-1.1049 0.61429-1.6931 0.80553 0.17879 0.69486-0.0079 1.6227-0.10693 2.1616-0.28369 1.53-1.197 7.1601-2.9509 7.5946 3.4044 1.2022 7.7572 0.89798 10.472-0.29584z"/>
   <path fill="#a2c0a2" id="Kanyakumari" d="m14.48 267.68c2.0846 1.4184 9.2174 4.3552 8.7307 7.5803 6.2184-1.6256 10.389 3.9379 16.574 3.9264 1.6039-4e-3 2.9846-0.33616 4.5695 0.11575 1.0982 0.31294 2.3182 0.77363 3.4742 0.46361 1.9936-0.53315 0.90986-2.0849 1.3329-3.4729 0.28369-0.93567 1.0452-1.6099 1.4019-2.4992-0.89596-0.34107-1.7876-0.68212-2.6711-1.024-1.7386-0.67513-0.849-1.3578-0.93564-2.7575-0.05475-0.85739 0.19936-1.5757 0.2999-2.4124 0.13473-1.0794-0.54764-1.7238-0.7273-2.7222 1.4952-0.59692 3.4583-0.10146 4.7549-1.286-2.4109-3.2947-4.8356-6.085-5.2506-10.365-0.09122-0.94175 0.2637-2.9353-0.6708-3.6104-0.9878-0.7128-2.5584-0.20258-3.6768-0.64037-3.6424-1.4257-0.7186-5.6129-3.3874-7.2818-1.4604-0.91158-0.39553-2.6049-1.4778-3.7582-0.77946-0.83162-2.0602-0.9533-3.1178-1.0982-1.8487-0.2492-2.8066-1.1507-4.4612-1.7966-1.6661-0.65194-3.1411-2.0828-4.8217-2.4942-1.7212-0.41901-3.2105-1.7612-4.7636-2.7418 0.01828 0.0383 0.0391 0.0725 0.05504 0.10729 0.991 2.1794 0.34772 7.6991-3.0366 6.8396-1.1892-0.30137-2.8798-1.8293-3.8696-0.30804-1.1185 1.7195 0.51548 3.1874 1.8574 4.06-0.2376 1.2283-2.0344 2.5473-2.6687 3.6768-0.53026 0.94464-0.82004 2.0255-1.3648 2.9498-0.63342 1.075-4.2856 1.0837-2.3732 3.315 0.98258 1.1443 1.6053 3.5902-0.65198 4.0915-1.7206 0.38073-3.5961-0.46943-3.5264 2.1309-0.014573-0.53607-1.9066 0.43175-2.0254 0.8151-0.0043 0.013-0.0063 0.0281-0.011258 0.042 4.1498 3.45 7.941 7.1003 12.439 10.155z"/>
   <path fill="#f8f" id="Virudhunagar" d="m18.823 203.69c-0.66647 1.6977-2.4746 2.4831-3.1382 4.1607-0.68211 1.7186-1.9095 3.9179-3.2048 5.2478-1.0982 1.1243-3.2018 1.3937-1.924 3.4104 1.0443 1.6517 1.6951 3.3091 2.5732 5.0448 1.5705 3.1065 5.0273 5.0885 6.5267 8.2611 1.5531 0.97972 3.0425 2.3216 4.7636 2.7416 1.6806 0.41147 3.1554 1.8426 4.8217 2.4946 1.6517 0.6433 2.6126 1.5445 4.4612 1.7965 1.06 0.14493 2.3367 0.2666 3.1178 1.0982 1.0805 1.153 0.01741 2.8441 1.4778 3.7582 2.6659 1.669-0.25501 5.8561 3.3874 7.2817 1.1182 0.43755 2.6889-0.0725 3.6766 0.6404 0.93564 0.67515 0.57954 2.6687 0.67197 3.6104 0.41466 4.2801 2.8397 7.0676 5.2506 10.365-1.2952 1.1852-3.2599 0.68963-4.7549 1.286 0.17964 0.99677 0.86088 1.643 0.72759 2.7218-0.10283 0.83828-0.35612 1.5554-0.30136 2.4128 0.09067 1.3995-0.80294 2.0834 0.93564 2.7574 0.88349 0.34251 1.7751 0.68296 2.6711 1.0229 0.02343-0.0571 0.05038-0.11462 0.07009-0.17494 5.1115-1.5013 10.536-1.7568 15.606-3.2686 2.0692-0.61722 4.0628-1.9522 5.6231-3.424 1.4688-1.3845 0.18806-3.4712 2.3225-4.4646 2.2485-1.049 4.4871-2.0321 6.7139-3.1572 1.445-0.73139 2.7701-1.6719 4.2096-2.4165 0.7928-0.40858 1.7493-0.40276 2.4172-1.0686 0.54881-0.54939 0.80353-1.1168 1.1892-1.63-0.41117-0.10272-0.8354-0.20976-1.2868-0.30741-1.5213-0.33034-3.2638 0.80552-4.6403 0.0578-1.0687-0.57951-2.3027-1.64-3.172-2.5036-1.0643-1.0576-0.47319-2.0718 0.14866-3.121 0.8461-1.4372-1.3387-2.3819-1.5868-3.7136-0.45203-2.4363 0.19531-5.0286-0.42595-7.4347-0.31585-1.2286-1.6401-1.556-2.2081-2.601-0.90986-1.6615-0.69253-3.1324-2.1077-4.5824-2.4931-2.5558 0.39987-4.2277 1.5966-6.6529 1.2741-2.589 1.0779-6.9967 0.09564-9.6434-1.1623-3.1346 3.8045-3.4396 2.9613-6.4443-0.41667-1.4833-1.7299-2.4687-2.46-3.7742-0.95333-1.7044-2.0689-3.3596-3.6278-4.5637-0.90695-0.7021-2.0602-0.86205-2.6889-1.8803-0.55635-0.90118-1.188-2.0254-2.2921-2.3151-1.0721-0.28108-2.5412 0.29264-3.4842-0.3535-1.133-0.77369-0.59982-2.6837-0.52738-3.7971 1.7125-0.36567 2.3789-2.1998 0.7302-3.2216-1.3877-0.86319-1.5326-1.1295-0.79684-2.6304 0.71312-1.4575 0.40452-3.2599 1.9721-4.2403 0.52565-0.32771 1.204-0.0829 1.7154-0.47985 0.99794-0.77455-0.12172-1.8533-0.04929-2.7568-1.5752-0.0798-3.4818 0.70931-4.9203 0.28367-0.17964-2.715 0.3825-3.8132 1.6633-6.2482 0.88899-1.6925 2.492-3.8393 4.0386-1.5152 1.3503 2.0283 5.4392 0.89828 7.3951 0.60272 2.3963-0.36543 3.9233-2.1501 3.848-4.4914-0.01138-0.31007 0.06376-0.58564 0.19011-0.82004-0.63633-0.44915-1.1278-0.99419-2.0851-1.0345-0.95334-0.0407-1.8835 0.12233-2.8408-0.0114-1.7913-0.25499-3.3965-1.3382-4.9081-2.2572-3.9781-2.413-7.7195-2.2527-12.179-3.0686-1.5896-0.28976-4.1696-0.084-4.758-1.7574-0.30889-0.8806-0.50709-2.0716-1.0489-2.8434-0.94174-1.3387-2.5384-2.6802-4.1696-3.031-1.8641-0.39986-1.6401 1.273-1.8641 2.5614-1.3584 0.50709-3.4809 1.0953-4.9066 0.7305-0.9794-2.4631-3.8471-5.2273-6.4125-5.9604-2.0689-0.59111-4.3842-0.27818-6.253-1.3503-0.07532 1.075-0.09184 2.1541-0.113 3.1641-0.01828 1.0026-0.11591 2.3967-1.046 3.024-0.76671 0.51868-1.8139 0.37379-2.4137 1.1776-1.2373 1.6516-2.15 3.341-1.479 5.2823 0.84611 2.457-1.1251 5.4638-2.037 7.6486-0.91276 2.1852 0.78816 4.1352-1.055 6.1007-1.4416 1.536-3.3367 2.6226-5.14 3.6674-0.15357 2.1794-0.3825 3.0462-1.7809 4.8574-1.1289 1.4665-3.0715 2.1648-3.4118 4.2133-0.47695 2.8676 3.9057 6.6608 5.3143 8.8984 1.5888 2.5283 5.996 5.1248 4.6157 8.6284z"/>
   <path fill="#acabda" id="Thoothkudi" d="m66.572 177.23c-0.07239 0.90377 1.046 1.9788 0.04929 2.757-0.50998 0.39235-1.188 0.15057-1.7154 0.47955-1.5676 0.98085-1.2576 2.7842-1.9704 4.2408-0.73601 1.5033-0.59112 1.7675 0.79684 2.6302 1.6488 1.0252 0.98229 2.8563-0.7302 3.2216-0.06954 1.113-0.60735 3.0249 0.52565 3.7971 0.94781 0.64587 2.4137 0.0722 3.486 0.35354 1.104 0.28973 1.7357 1.414 2.2921 2.3151 0.63167 1.02 1.7809 1.1767 2.6878 1.88 1.5598 1.2089 2.6741 2.8634 3.628 4.5639 0.73048 1.3074 2.0428 2.2879 2.46 3.7745 0.84262 3.0049-4.1233 3.3095-2.9629 6.4443 0.98374 2.651 1.1791 7.0587-0.09501 9.6434-1.1976 2.425-4.0876 4.0972-1.5975 6.6529 1.4187 1.4546 1.2014 2.9204 2.1095 4.5824 0.57084 1.0443 1.8951 1.3706 2.2081 2.601 0.6172 2.4078-0.02644 4.9984 0.42596 7.4354 0.24745 1.3341 2.4339 2.2757 1.5853 3.7131-0.62038 1.0489-1.2086 2.0631-0.14809 3.1211 0.8693 0.86322 2.104 1.924 3.1728 2.5035 1.3764 0.74762 3.1178-0.38823 4.6392-0.0581 0.45318 0.0982 0.87855 0.20519 1.2906 0.30803 0.25731-0.34428 0.57142-0.66326 1.0712-0.93564 0.76208-0.41435 1.585-0.70644 2.408-0.97073 1.698-0.54475 3.6337-0.81193 5.2219-1.6357 2.1846-1.1289 1.0805-3.5497 2.0588-5.3986 0.99157-1.8678 2.6395-3.4309 4.0227-5.0099 2.4896-2.8439 3.628-9.084 2.6763-12.715-1.1057-4.2247-0.42855-8.1251 1.8313-11.944 0.79686-1.3474 2.0168-2.7527 3.7372-2.5819 1.7565 0.17407 1.5132-2.6311 1.0333-3.7031-0.2466-0.0799-0.65486-0.0781-0.90377-8e-3 0.0232 0.4691-0.24371 0.79685-0.24687 1.2506-5.476 0.37385-1.0142-12.402 0.12208-14.96 2.4596-5.546 8.7222-11.984 14.699-13.587 0.75802-2.0828 3.0712-3.6522 5.7338-4.8246-0.4871-0.35265-1.0397-0.60677-1.7809-0.65979-2.2224-0.15689-3.3621-0.92695-5.3492-1.758-1.0637-0.44623-3.4363-0.20562-3.7851-1.6603-0.50708-2.1153 1.6514-4.123 1.1362-6.2937-3.2864 0.26365-2.0898-5.9778-2.0223-7.534 0.12473-0.0114 0.25789-0.0114 0.3932-0.0114-1.3801-0.39698-2.7758-0.77367-4.1955-1.177-1.8951-0.53723-2.8715-1.9756-4.1755-3.3262-0.95334-0.98808-2.3935-1.7565-2.7111-3.2107-3.1415-0.21127-8.4985-2.1008-10.641 1.1889-1.1738 1.8032-1.7073 5.9556-4.5639 5.7615-0.07236 1.2604-0.82322 2.6685-1.6462 3.595-0.77713 0.87539-1.8426 0.47726-2.6741 1.1211-0.88 0.68209-0.86552 2.2614-1.9058 2.7944-0.92376 0.47233-1.7687 1.0606-2.6842 1.5474-2.4431 1.3011-3.7588-0.0607-4.2279-2.2834-0.30771-1.4575-1.9907-1.2692-2.5619-0.21736-0.12693 0.2353-0.19935 0.50996-0.19095 0.81974 0.07566 2.3408-1.452 4.1254-3.8476 4.4914-1.9559 0.29757-6.0472 1.4259-7.3951-0.60244-1.5476-2.3243-3.1493-0.17669-4.0386 1.5152-1.277 2.4335-1.842 3.5317-1.6624 6.2482 1.4491 0.4245 3.3532-0.36946 4.9264-0.28512z"/>
   <path fill="#ffae3d" d="m117.88 147.38c0.76673 0.78847 2.2775 0.57112 3.2414 0.42307 3.0245-0.45782 5.4736-0.99388 6.7226 2.5536 1.082 3.0802 1.2993 5.3374-0.98517 7.98-1.3126 1.5175-4.1727 0.90985-6.0789 0.92375-0.13643 0-0.26977 8e-3 -0.39264 0.0114-0.0638 1.5532-1.2634 7.7976 2.0223 7.5339 0.51316 2.1732-1.643 4.1783-1.1359 6.2939 0.34769 1.4549 2.7226 1.2138 3.7851 1.6601 1.9861 0.8316 3.1265 1.5998 5.3489 1.7588 0.74267 0.0527 1.2961 0.30714 1.7838 0.65922 3.1467-1.3845 6.7883-2.2155 8.9404-2.6741 2.3673-0.50418 5.0286-1.3688 7.4151-0.62586 0.87361 0.2718 3.7292 1.133 2.1547-0.68964 2.6948-0.73601 8.9596 0.0174 4.7658-3.5913 1.2845-2.1622 7.9491-1.159 8.2169-2.4287 0.29265-1.3729 3.286-1.5502 4.3378-1.7458 2.7829-0.51869 5.7056-1.7429 8.206-3.0425 2.8774-1.4987 5.8361 0.2321 8.4872-1.1773 2.6167-1.388 5.1781-1.8516 8.1597-1.4402 1.6806 0.2318 3.1324 1.2431 4.8187 1.4517 1.4894 0.18649 2.9324-0.3477 4.3378-0.75337 1.1909-0.34484 6.8276-0.18844 6.9963-1.8994 0.16363-1.6662-4.8359-0.79685-5.5602-0.71603-1.9066 0.21127-3.6598-0.0114-5.2998-1.0605-3.4916-2.2342-6.511-4.6246-9.1739-7.7968-2.153-2.5666-4.2203-5.1239-5.8561-8.0564-1.2662-2.2718-1.0634-4.0304 0.13708-6.401 0.59488-1.1788 1.0788-2.0921 0.94172-3.4712-0.10334-1.0341-0.33987-2.1069 0.0877-3.1089 0.68966-1.6285 2.2155-2.744 2.8774-4.3842 1.5415-3.8215 4.1111-7.0328 6.7369-10.162 2.6426-3.1491 4.7318-7.5109 7.9482-9.9929 0.17494-0.13447 0.32337-0.27325 0.45639-0.41669-1.3297-0.77656-2.6835-1.4706-4.1074-1.9011-1.5676-0.4726-2.9063-0.40454-3.7964-1.9939-0.85132-1.5274-1.5824-3.2148-2.1205-4.8692-0.12157-0.37409-0.34249-0.72444-0.63458-1.0603-0.67108 0.68617-1.7693 1.0182-2.6861 1.3825-1.7241 0.68675-3.7005 1.1561-5.0824 2.4774-0.6491 0.62125-0.89249 1.5763-1.4198 2.2875-0.6317 0.84956-1.7908 1.0524-2.398 1.9333 0.71281 1.188 0.66328 2.7866 0.82641 4.1176 0.22892 1.8863 1.1788 3.8215 0.81657 5.7488-2.3001 0.1131-4.8385 1.8072-7.0616 1.4952 0.28368-2.0822 2.7216-2.46 0.61775-4.6305-1.0373-1.0687-0.9075-2.1878-0.99966-3.5902-0.10366-1.5415-1.5242-2.6837-1.4401-4.2277-2.7795-0.16537-7.7894-2.3993-9.6173 0.54937 0.60678 0.98811 1.5862 1.7502 1.8171 2.944 0.30079 1.5531-0.23238 3.0512 0.12158 4.6622 0.235 1.0675-0.20931 6.4967 0.95624 6.9138 0.013 0.1362-0.0174 0.39986 0.0607 0.51867 1.0202 0.0663 4.2246-0.59981 4.8837 0.50995 0.58242 0.97943-0.31004 2.2142-0.10728 3.1816 0.43817 1.9472 4.6907 6.2097 1.3303 7.9598-2.4927 1.2978-5.9057 0.75542-8.542 0.26948-1.8258-0.33613-2.3408 1.275-3.1298 2.5891-0.97244 1.623-2.4596 2.44-3.737 3.7551-3.4161-4.3778-7.7822-4.6675-12.605-6.3598-1.1704-0.41146-2.2686-0.99564-3.4346-1.4228-1.4784-0.54475-2.9934-0.17646-4.5108-0.19127-0.28974-4e-3 -0.54531-0.0348-0.77887-0.084-0.35613 1.0344-0.7163 2.0831-1.8226 2.5993-2.1303 0.9881-1.8342 3.1498-2.0283 5.1553-0.2405 2.4814-3.413 1.2126-4.9198 1.9944-0.88957 2.8191-1.3242 3.6281-3.6983 5.4754-2.1089 1.643-4.8596 0.33615-7.1255 1.472-0.16796 0.68964-0.34247 1.4836-0.19431 2.2224 1.8012-0.10727 1.2127 1.5647 2.124 2.5007z"/>
  </g>
  <g stroke="#000">
   <path d="m2.6409 2.5257 4.0125 2.2436 6.6875-0.4746 4.444-1.7689 4.9186-0.90606 5.7815 2.2435h3.1496l3.9694 0.43145 3.1496 3.5811 0.8629 3.1065 0.08628 2.7613h2.5024l0.30202 2.5024h3.1496l4.0556 1.8984 2.8476 1.8552 2.5024 2.8476 1.8984 3.4516 1.8552 2.2004-0.60404 2.1573 1.2512 1.5964h1.8552l3.1496 1.8553 3.4516 2.8476 6.5581 8.1544 2.2004 1.5532 3.7968 7.2052 4.3577 2.8476 3.4516 7.8093 0.94919 0.94919 1.8984 3.7536 2.5024 9.1036 3.1065 3.1496 0.34515 6.5581 0.94921 2.5024 1.8552 2.5456 3.7536 1.5532v3.4516l2.8476 1.5532 1.2512 2.5024 0.60404 1.8984-0.30202 2.5024 3.7536 2.8476-0.90606 3.4085-1.2944 2.5456-0.90606 1.5532-1.5964 2.8044-3.4516 0.6472-1.5532 0.94917 2.5024 2.2004-0.60403 2.5025-0.34518 2.5024-0.30201 3.7536-1.8984 9.7077-2.1573 3.1496 1.2512 3.7536-0.34515 4.0988-0.60404 2.5024-0.94919 3.1496-2.5024 5.3069 1.2512 4.4008 0.64719 3.4516-0.64719 2.8044-0.94919 2.8476-1.2512 3.7536-1.2512 1.5532-3.1496 2.2004 0.64717 3.1496-3.1496 3.1064-2.2004 2.8476v2.8044l-1.2512 3.7536-1.2512 4.0988-1.2512 4.0556 0.64717 2.5024-1.2512 2.2004 2.5024 3.7968-5.35 6.8601v2.5456l4.0988 4.0556v4.0556l-1.2512 1.5964-3.7968 0.60403-3.4516 4.0988 0.64719 1.8552v2.5456l-1.2512 3.4516-2.2004 2.8044-0.94919 0.60404v1.8984l2.5024 0.9492-2.1573 4.4008-1.2943 1.8553-2.8045 1.5964 0.64719 1.8552-1.2512 1.8984-0.64717 2.8044-2.5024 6.2992 1.5532 10.657-0.30202 2.1573-2.5024 1.2944-1.5964 3.7536" stroke-width=".3px"/>
   <path d="m108.44 118.01 2.4799 2.4799 2.2043-0.55109 3.582 1.3777-0.55109 4.6842v3.3065l1.6532 3.3065-2.4799 2.7554 2.4799 3.8576-1.6532 3.031-0.55109 4.6842 3.031 3.3065v2.2043l-2.2043 3.031v5.2353l1.6532 3.031-11.022 24.523v1.9288l0.27554 1.3777 11.297 25.901-3.8576 4.6842 5.5108 4.9598" stroke-width=".3px"/>
   <path d="m35.604 4.2946 5.1982 1.6415 6.8397 0.82076 5.1982-1.9151h4.1038l4.651-1.9151 8.2076 4.651 2.4623-0.27359 4.9246 1.6415 0.27359 3.0095 2.4623 0.82076 1.6415 3.0095v1.9151l1.0943 1.0944 1.0944 1.3679 0.54717 2.7359 12.859 3.5566 0.82077 0.82076-0.27359 1.3679 1.9151 5.1982-0.82077 1.6415 1.9151 4.1038-1.3679 4.3774v1.6415l1.6415 3.2831-1.6415 2.4623v1.9151l2.1887 3.5566-1.0944 2.4623 3.5566 9.302" stroke-width=".3px"/>
   <path d="m111.8 109.4 4.9955 2.6167 1.903 2.3788 3.3303 1.4273 3.8061 3.8061 6.4228 3.5682 3.0924 1.1894 5.2334 4.7576 4.2819 3.5682 6.1849 4.7576 0.45683 4.4708 9.0217 7.0369 0.54131 3.6087 3.0674 2.1652 3.0674 4.3304 6.3152 5.2326 9.0218 1.263 3.0674 1.0826 2.7065 0.54129 6.6761 2.1652 5.413 2.1652 5.413 2.3456 5.7739 0.36086 7.7587-0.54128 9.563-0.54132" stroke-width=".3px"/>
   <path d="m103.98 68.608-12.078 9.9953-6.247 9.1623-16.659 4.5812-9.1623-0.41647-6.247 12.494" stroke-width=".3px"/>
   <path d="m104 68.588 4.1918 7.3632 8.9824 5.7269 4.7906 0.40907 5.09 3.2725 8.4339-1.2562v1.8679l18.686 9.0284 0.22786 3.7359-3.1902-0.62264-1.5951 3.7359-0.91149 2.8019-0.45575 1.8679 2.2787 4.9812" stroke-width=".3px"/>
   <path d="m119.86 114.97 2.4138 1.6092 1.0057-1.6092 6.2808 1.0273 1.068 3.8143 0.76286-0.15257 3.0514 0.61029 3.5091-0.30514 2.136 0.45771 4.8823 0.30514 0.30514-0.45771-0.15257-2.136 3.0514-4.4246 2.2886-2.136" stroke-width=".3px"/>
   <path d="m53.612 104.67 6.1464 0.51413 3.3293 0.25705h3.0732l3.0732 0.51413 3.5854 0.51411 2.561 1.0282 5.3781 1.7994 3.3293 0.51411 3.0732 0.25705 4.0976 0.51413 6.6586 1.7994h13.317" stroke-width=".3px"/>
   <path d="m205.82 173.87-5.4323 0.55035-2.1028-0.18345h-3.6799l-2.6285 0.36689-2.6285 1.4676-1.9276-0.73381-1.9275-1.1007-1.5771 1.8345-1.172 1.3002-0.56906 0.89359v1.0426l-4.5525 1.0425-3.9834 0.89361-0.56905-0.89361-0.28453-1.4894-4.268-0.29787-3.5566 2.8298-2.703 0.74467-2.4185 0.4468-2.134 1.4894-1.8494 1.0425-1.7072 0.59573-1.4227 0.44682h-1.7072l-1.4226 0.14895-0.14227 0.74469-1.8495-0.14895-2.703-0.59574-1.1381 1.3404-1.8494 0.74467-0.56905 0.74468-0.56907 1.7872-2.5608 1.3404-0.71133 0.59578-1.7072 2.6808-2.134 2.383-1.5649 1.6383-1.5649 1.4894-1.5649 0.89363-2.8453 0.89359-0.42679 0.89362 0.56905 1.3404-1.9917 1.7872 0.14228 4.4681-2.9876 5.8085-0.42679 1.4894 0.56905 1.7872 0.56906 1.7872v1.0426l-0.99585 1.4893-0.8536 2.383" stroke-width=".3px"/>
  </g>
 </g>
 <g fill-rule="evenodd" stroke-width=".34679">
  <ellipse cx="2.0619" cy="2.1314" rx="2.0619" ry="2.1338"/>
  <ellipse cx="103.92" cy="68.705" rx="2.0619" ry="2.1338"/>
  <ellipse cx="228.53" cy="173.47" rx="2.0619" ry="2.1338"/>
  <ellipse cx="120.35" cy="227.03" rx="2.0619" ry="2.1338"/>
  <ellipse cx="60.386" cy="293.61" rx="2.0619" ry="2.1338"/>
  <ellipse cx="100.93" cy="141.89" rx="2.0619" ry="2.1338"/>
  <ellipse cx="53.558" cy="104.77" rx="2.0619" ry="2.1338"/>
  <ellipse cx="150.86" cy="111.59" rx="2.0619" ry="2.1338"/>
  <ellipse cx="83.004" cy="232.15" rx="2.0619" ry="2.1338"/>
  <ellipse cx="119.49" cy="107.97" rx="2.0619" ry="2.1338"/>
 </g>
 <path d="m151.14 111.57-4.8718 7.2697-0.74954 5.8157 5.9961-2.9079 12.367 2.5444h11.992l18.363 7.2697-1.1243 8.7236-1.499 5.8158-0.74948 5.8158v6.9062l0.37475 2.1809 3.7475 8.3601" fill="none" stroke="#000" stroke-width=".3px"/>
 <g fill="#000000" font-family="sans-serif" font-size="3.5279px" letter-spacing="0px" stroke-width=".26459" word-spacing="0px">
  <text x="203.57242" y="181.83459" style="line-height:1.25" xml:space="preserve"><tspan x="203.57242" y="181.83459" font-size="4.2334px" stroke-width=".26459">Rameswaram</tspan></text>
  <text x="125.39843" y="230.543" style="line-height:1.25" xml:space="preserve"><tspan x="125.39843" y="230.543" font-size="4.2334px" stroke-width=".26459">Tutikorin</tspan></text>
  <text x="66.767944" y="292.18018" style="line-height:1.25" xml:space="preserve"><tspan x="66.767944" y="292.18018" font-size="4.2334px" stroke-width=".26459">Kanyakumari</tspan></text>
  <text x="86.01078" y="238.66107" style="line-height:1.25" xml:space="preserve"><tspan x="86.01078" y="238.66107" font-size="4.2334px" stroke-width=".26459">Virudhunagar</tspan></text>
  <text x="73.683342" y="145.75429" style="line-height:1.25" xml:space="preserve"><tspan x="73.683342" y="145.75429" font-size="4.2334px" stroke-width=".26459">Tirunelveli</tspan></text>
 </g>
 <path d="m111.8 109.39 6.9784-1.2123" fill="none" stroke="#000" stroke-width=".29688px"/>
 <g fill="#000000" font-family="sans-serif" font-size="3.5279px" letter-spacing="0px" stroke-width=".26459" word-spacing="0px">
  <text x="154.69913" y="111.38103" style="line-height:1.25" xml:space="preserve"><tspan x="154.69913" y="111.38103" font-size="4.2334px" stroke-width=".26459">Sivaganga</tspan></text>
  <text x="48.436829" y="112.87468" style="line-height:1.25" xml:space="preserve"><tspan x="48.436829" y="112.87468" font-size="4.2334px" stroke-width=".26459">Theni</tspan></text>
  <text x="113.94392" y="103.48604" style="line-height:1.25" xml:space="preserve"><tspan x="113.94392" y="103.48604" font-size="4.2334px" stroke-width=".26459">Madurai</tspan></text>
  <text x="107.75594" y="67.211761" style="line-height:1.25" xml:space="preserve"><tspan x="107.75594" y="67.211761" font-size="4.2334px" stroke-width=".26459">Dindigul</tspan></text>
  <text x="1.4936454" y="9.5996666" style="line-height:1.25" xml:space="preserve"><tspan x="1.4936454" y="9.5996666" font-size="4.2334px" stroke-width=".26459">Coimbatore</tspan></text>
 </g>
</svg>
