<!-- Created with Inkscape (http://www.inkscape.org/) -->
<svg width="301.66mm" height="220.77mm" version="1.1" viewBox="0 0 301.65616 220.7743" xmlns="http://www.w3.org/2000/svg" xmlns:cc="http://creativecommons.org/ns#" xmlns:dc="http://purl.org/dc/elements/1.1/" xmlns:rdf="http://www.w3.org/1999/02/22-rdf-syntax-ns#">
 <metadata>
  <rdf:RDF>
   <cc:Work rdf:about="">
    <dc:format>image/svg+xml</dc:format>
    <dc:type rdf:resource="http://purl.org/dc/dcmitype/StillImage"/>
    <dc:title/>
   </cc:Work>
  </rdf:RDF>
 </metadata>
 <g fill="none">
  <g transform="translate(-1.7073 -23.395)" stroke="#fff" stroke-width=".5">
   <path fill="#cc2" id="The Nilgiris" d="m41.717 160.67c1.437-0.43322 1.961-1.2204 3.149-1.9748 1.4216-0.9013 3.2454-0.55568 4.6674-1.4011 2.0525-1.2178-1.2018-5.2258 2.9937-5.3423 1.5479-0.0441 2.9348 0.31207 4.4689-0.16912 1.1086-0.34562 2.1637-0.90364 3.1744-1.5138 5e-3 -0.78347-0.30534-1.59-0.08619-2.3592 0.29462-1.0266 1.5721-1.1296 2.3232-1.6741-0.58482-1.1436-1.6371-3.6076-0.44228-4.644 1.6443-1.4254 0.33072-3.3981-0.85475-4.5756-2.9063-2.8926-7.4411-1.3825-10.995-2.9649-0.1656-0.0742-0.32396-0.156-0.47512-0.24221-0.74249 0.41061-1.4791 0.107-2.6268-0.36329-1.7905-0.73367-3.6894-1.1808-5.5922-1.4999-2.7029-0.45137-6.3211-0.98052-8.5128 1.1156-1.5998-0.45415-3.6842-0.72666-4.8883-1.9937-1.0783-1.1366-1.3764-3.1968-2.3036-4.5182-1.1855-1.6932-2.1147-3.4866-4.2069-1.9145-1.2623 0.94676-3.1002 1.8283-4.1574 2.9719 0.55453 0.63116 0.01628 2.411-0.16536 3.1006-1.069-0.53055-2.9348-0.50868-3.7239 0.50959-0.68007 0.8757-0.48001 2.3732-1.4463 3.0301-1.1764 0.80024-3.7407-0.63117-4.0784 1.3243-1.458-0.23989-1.645-0.14218-2.2125-1.5444-0.75693-0.22104-2.9259 0.59156-3.5703 0.92669-0.041919 0.66845-0.19563 1.3508 0.20518 1.9423 0.2166 0.24757 0.37963 0.52402 0.48979 0.83147 0.030758 0.74528-0.81025 1.0597-0.74481 1.9308 0.15604 2.0913-1.0059 3.3349 1.3732 3.95 2.2473 0.58226 4.4691 1.6816 6.7484 2.329 2.4664 0.69871 4.6604 1.7631 6.8484 3.0859 1.168 0.70571 2.5528 0.89668 3.7298 1.5814 0.91529 0.53337 1.6631 1.3765 2.4783 2.045 0.62185 0.50773 2.3687 1.1482 2.6202 1.94 0.18632 0.58691-0.41247 1.7398-0.58923 2.2798-0.84543 2.5948-2.1686 3.361-4.6046 4.2739-1.5069 0.56595-3.45 0.61487-3.1695 2.8601 0.10458 0.83847 1.8514 4.0126 2.557 1.7398 0.74761-2.4129 2.329-0.36567 3.794 0.24454 1.0918 0.4565 2.5095-0.32841 3.6251-0.43554 1.0876-0.10389 2.2102-0.0642 3.2753 0.18937 2.301 0.54824 3.6076-0.30743 5.5752-1.4137 0.88269-0.4961 2.0593-2.1704 2.8599-1.6837 0.67612-0.83753 1.3585-1.634 2.4904-1.9741z"/>
   <path fill="#a2c0a2" id="Krishnagiri" d="m124.19 88.75c1.1305-0.63114 1.4927-4.3367 1.7095-5.4801 0.41691-2.2055 2.9624-1.7826 4.0828-3.3211 1.134-1.5604 0.31441-3.7753 0.4169-5.5313 0-0.01224 2.322 0.49607 2.4892 0.53332 1.1715 0.25387 2.0728 0.24922 2.8647-0.84309 0.80957-1.1156 0.7327-2.5432 1.416-3.6705 0.89434-1.4743 0.73597-1.5535 0.74996-3.1908-1.1762-0.42386-3.0511-2.0285-3.0035-3.3654 0.0722-2.0822-1.0853-2.0892-2.2032-3.745 1.0821-0.18633 2.4199-0.11176 3.5355-0.03953 0.18165 0.53102 0.46812 0.98982 0.67542 1.5022 1.2507 0.21893 1.9365-1.0993 3.3608-0.87803 0.22825 0.56127 0.67542 1.0434 1.2414 1.2414-0.2166 1.2879 1.614 1.416 2.3592 2.0193 0.75227-1.847 2.9811-0.60323 3.1231 1.0364 2.7459 0.17701 3.815 2.0263 4.481 4.4904 0.42855 1.5868 1.805 2.0845 2.666 3.3281 0.66447 0.95722 1.9091 0.80956 2.9292 1.2321 0.13502-0.59716 0.84307-0.78954 1.3522-0.74762 0.0825 2.0472 0.60557 2.1427 1.7468 3.673 0.47049 0.63118 0.56363 1.4519 1.0784 2.0565 0.44019 0.51472 1.1212 0.71269 1.5195 1.274 0.87336-2.3267 3.7114 0.62602 4.8209-0.51704 0.56363 0.86032 0.57993 1.9727 1.1179 2.8493 0.65912 1.076 2.2965 0.69406 3.2466 1.3555-0.42181 0.57526-1.6513 0.60087-1.0432 1.4952 0.49979 0.07293 1.5167 0.4707 2.0103 0.17244 0.57737-0.34702 0.67073-1.1366 1.3811-1.2374 2.2825-0.31536 3.8406 2.9112 4.0571 4.637 0.79187 0.02798 1.465 0.0745 2.1592 0.35634 0.732-1.2926 1.2686-4.8839 3.7108-3.4143 0.91998-0.74064 1.3532-0.85476 2.3146-1.2414 0.1075 3.6403 2.3267 1.239 4.3614 1.498 7e-3 -0.28462 0.12819-0.59669 0.27876-0.82006 0.65609-0.95953 1.7193-0.22125 2.2863-1.5535 0.27554-0.64281 0.83147-1.8493 0.368-2.485-0.42178-0.58226-0.46347-0.91063-0.18633-1.2162-0.30741-0.29602-0.65911-0.53987-1.0969-0.68985-1.2258-0.41361-3.3446 0.19052-4.1459-1.1123 1.0693-1.104-0.11135-3.7031 0.66171-4.9492 0.12801-0.02098 0.25732-0.03953 0.38635-0.05369 0.80257-2.3895-4.6144-4.6394-6.2638-5.1354-0.94559-0.28414-2.3197-0.65445-3.2351-0.10197-0.4192 0.2506-1.2439 1.1694-1.7804 1.0918-1.4803-0.20868-1.082-3.1161 0.0252-3.5913-0.79049-1.7095-2.8019-1.5674-3.6031-2.9416-0.79977-1.3718-0.33072-3.4213-0.38428-4.9282-0.0768-2.1543-0.26991-4.9049-1.0732-6.9194-0.0516-0.12802-0.10699-0.25153-0.16544-0.37266-1.8001-0.16999-3.5578-0.64282-4.9831-1.6839-1.2374-0.90367-2.79-0.98052-4.12-1.7048-1.4603-0.79421-2.322-1.3904-3.9544-1.7281 0.12574-1.5185 0.83846-1.947 0.15354-3.5843-0.4199-1.0015-0.67146-1.7212-1.8024-1.989-1.3343-0.31672-2.5736-0.93625-3.9105-1.2507-1.097-0.25852-2.1217-0.2888-3.0207-1.0597-1.9846-1.7002-3.4888-3.4402-5.8878-4.7047-2.7879-1.4696-3.3886 2.4572-3.5028 4.4088-1.509 0.56362-3.4402-2.676-4.507-3.3888-1.382-0.92462-0.85521 1.3042-2.0352 1.2064-0.74296-0.06051-2.103-1.0387-1.4584-1.9215 0.64329-0.8827 1.6518-1.7748 0.082-2.5945-1.0015-0.5217-2.1216 0.14446-3.0836 0.43553-1.1738 0.35401-2.415 0.26784-3.5394 0.82681-0.84239 0.41921-1.3538 1.5115-2.4238 1.4207-0.25712 0.83609 0.6032 1.8213 0.50958 2.7366-0.0769 0.76857-0.35565 1.5232-0.67309 2.2219-0.63419 1.4021-1.6024 2.7179-1.9285 4.2435-0.23965 1.1156-0.10485 3.3678-1.3459 3.964-1.1694 0.55896-1.8416 0.45882-2.9603 0.33771-0.8757 2.6317-3.1931 0.71734-4.5378 0.07923-2.0262-0.95956-3.2171 0.82912-5.0167 1.3229-0.15138 2.3522-0.74201 4.488-1.2537 6.7914-0.52403 2.3592-0.1684 3.0346 1.1894 4.7442 1.0178 1.281 0.10949 2.5549 2.0006 3.4539 1.4812 0.7057 0.7872 2.3057 0.48444 3.617-0.40991 1.77-0.15371 3.7797-1.2437 5.3311-1.0201 1.451-2.676 2.1265-3.8773 3.3715-1.0821 1.1203-1.805 3.6831-3.6538 3.411-2.0658-0.30275-3.7505 0.53334-4.4927 2.6317-0.28879 0.81514 0.20497 0.59529 0.53569 1.3671 0.30276 0.71337-0.04889 1.3648 0.73246 1.9264 1.5686 1.1273 4.236-0.53658 5.9341-0.67446 2.1427-0.17087 4.3907 0.15145 6.4165 0.85939 1.7444 0.61022 3.6987 0.35401 5.3872 1.1575 0.72896 0.34702 1.3695 0.88038 1.9028 1.5139 0.0308-0.0088 0.0582-0.02098 0.089-0.03026 1.7218-0.46117 3.681 1.919 4.9955 1.1855z"/>
   <path fill="#f2c0f2" id="Dharmapuri" d="m195.46 102.12c-0.32837-1.9122 0.98613-4.7987 1.6513-6.5119 0.44715-1.1552 2.0122-3.5751 1.5963-4.8047-0.64514-1.9168-3.2653 0.45417-4.2095 0.85012-1.0667-1.6434-2.2854-0.86409-4.0084-1.2172-0.0431-1.2134 1.4396-2.0235 1.0073-3.479-0.43413-0.06751-0.58225-0.35424-0.57292-0.68008-2.0331-0.2571-4.2528 2.1413-4.36-1.499-0.96186 0.3843-1.3951 0.50074-2.3146 1.2414-2.4406-1.4696-2.9785 2.1217-3.7113 3.4143-0.69379-0.28182-1.3671-0.32841-2.159-0.35635-0.21799-1.7281-1.7723-4.9539-4.0574-4.6366-0.71338 0.0988-0.80328 0.88922-1.3823 1.2374-0.49375 0.29579-1.509-0.10004-2.01-0.17227-0.60693-0.89437 0.62187-0.91999 1.0432-1.4952-0.95-0.66145-2.5861-0.27949-3.2464-1.3555-0.53826-0.87803-0.5543-1.989-1.1179-2.8493-1.1112 1.1435-3.9478-1.8099-4.8211 0.51703-0.39825-0.56127-1.0807-0.75925-1.5208-1.274-0.51472-0.60321-0.60649-1.4253-1.0783-2.0565-1.1403-1.5302-1.6606-1.6256-1.7468-3.6732-0.50957-0.03953-1.2157 0.1504-1.3508 0.74762-1.0201-0.4225-2.2659-0.2725-2.9299-1.2321-0.86173-1.2437-2.2405-1.7419-2.6667-3.3281-0.66471-2.4664-1.7323-4.3133-4.4801-4.4899-0.1416-1.6396-2.3729-2.8834-3.1228-1.0364-0.74529-0.60088-2.5766-0.73132-2.3596-2.0193-0.5671-0.19797-1.0152-0.68008-1.2411-1.2413-1.423-0.22125-2.1107 1.097-3.3622 0.87803-0.20728-0.51239-0.49304-0.9712-0.67447-1.5022-1.1156-0.07223-2.4525-0.149-3.5366 0.03953 1.121 1.6559 2.2756 1.6629 2.2038 3.745-0.0461 1.3368 1.829 2.9392 3.0037 3.3654-0.0145 1.6373 0.14438 1.7165-0.75017 3.1908-0.68451 1.1272-0.60765 2.5554-1.416 3.6705-0.79163 1.0923-1.6953 1.0974-2.8647 0.84309-0.16862-0.03673-2.4895-0.54497-2.4895-0.53334-0.10196 1.756 0.71734 3.974-0.41689 5.5313-1.1205 1.5395-3.6652 1.1156-4.0822 3.3223-0.21708 1.1424-0.57736 4.8479-1.71 5.4791-1.3136 0.73272-3.2723-1.6489-4.9929-1.1794-0.0303 0.0088-0.0582 0.02098-0.0885 0.03026 0.82006 0.97118 1.3906 2.1822 1.6606 3.3431 0.45904 1.975 1.3343 2.2746-0.0581 4.1433-1.0294 1.3834-2.5278 2.4804-3.2674 4.0605-0.62184 1.3231-1.7587 3.6917-1.9098 5.3895 0.4658 0.58923 0.9223 1.1391 1.9238 1.1878 1.0306 0.0529 2.1125 0.0619 3.0814 0.45417 1.1668 0.47514 1.2903 1.7328 2.6941 1.8493 2.6809 0.221 5.378-0.0675 8.063 0.21844 1.9764 0.21193 4.4675 2.0728 6.3862 1.5232 0.80072-0.23009 1.3173-0.97353 2.0346-1.3578 1.0061-0.53565 2.1357-7e-3 3.1791-0.57293 2.2522-1.2227 4.7395-1.6184 7.1151-2.5007 2.5383-0.94628 4.7769-1.008 7.4597-1.008 0.72315 0 1.6024-0.18751 2.3197-0.071 1.2996 0.21449 0.23035 1.5907 0.10453 2.222 1.1112-0.0365 2.1604 0.27599 2.5806 1.4121 0.30645 0.8338 0.80837 1.4696 1.7652 0.79651 0.54894-0.38659 1.5769-1.8027 2.3632-1.083 0.57967 0.52894 0.41012 1.5166 1.0268 2.024 0.44044-0.43808 1.8445-0.80581 2.4691-0.62208-0.0365 1.345 0.26366 1.6422-0.52659 2.7366-0.57294 0.79351-0.73829 1.5672-0.84799 2.5271-0.12329 1.0853-0.77299 2.169-1.526 2.9416-0.48724 0.50073-1.5996 1.3159-1.3974 2.148 1.5655 1.3082 4.2942-3.2428 4.9252-4.1922 0.56105-0.84263 0.98983-2.4059 1.9638-2.8316 1.4345-0.62628 2.4892 2.0838 3.4595 2.7858 2.5154 1.826 6.9355 3.0394 9.6654 1.0388 1.3138-0.96212 2.2707-2.3452 3.7216-3.1293 0.45671-0.2469 0.98077-0.44392 1.5171-0.57294-0.0768-0.0327-0.16054-0.0628-0.25827-0.0854-0.64725-1.2654 1.3441-1.8633 2.1779-2.1294 0.87663-0.27668 1.7772-0.24222 2.6539-0.47744 0.68008-0.18398 1.22-0.67541 1.9187-0.8105 0.75041-1.041-0.58875-2.3438-0.72033-3.3855-0.11311-0.91623-0.37404-1.7615-0.31909-2.5558-0.52823 0.0107-0.9358-0.21426-1.0523-0.89644z"/>
   <path fill="#c2f0c2" id="Salem" d="m185.82 116.16c-2.7311 1.9983-7.1501 0.78489-9.6654-1.0387-0.96887-0.70358-2.024-3.4143-3.4594-2.7854-0.97355 0.42485-1.4021 1.989-1.9633 2.8307-0.63116 0.95025-3.3617 5.5011-4.9259 4.1922-0.2026-0.82912 0.91065-1.6452 1.3974-2.1473 0.75227-0.77322 1.4044-1.8583 1.5255-2.9416 0.11089-0.95957 0.27625-1.7305 0.84916-2.527 0.79095-1.0974 0.48908-1.3928 0.52635-2.7366-0.62416-0.18399-2.0285 0.18352-2.4687 0.62183-0.61719-0.50912-0.44716-1.4952-1.0271-2.024-0.78722-0.71965-1.8167 0.69638-2.364 1.083-0.95581 0.67305-1.4579 0.0368-1.7653-0.79654-0.41923-1.1373-1.4705-1.45-2.5805-1.4121 0.12349-0.63115 1.1952-2.0075-0.10345-2.222-0.71732-0.11875-1.5963 0.0675-2.3197 0.0705-2.6833 0-4.9189 0.0631-7.4598 1.0078-2.3757 0.88642-4.8606 1.2786-7.1151 2.5014-1.0434 0.56666-2.1707 0.0372-3.1791 0.57292-0.71733 0.38337-1.2344 1.1272-2.0355 1.3578-1.9183 0.54965-4.4107-1.3112-6.3862-1.5232-2.6854-0.28622-5.3811 3e-3 -8.063-0.21843-1.4035-0.11651-1.5278-1.3741-2.6933-1.8493-0.96886-0.39312-2.0542-0.40269-3.0814-0.45416-1.0015-0.0488-1.458-0.59714-1.9238-1.1878-0.0209 0.24224-0.024 0.47047 0 0.67777-0.57527 0.0922-1.1529 0.18958-1.7282 0.28738 0.30511 0.33537 0.61254 0.67216 0.80071 1.0923 0.4516 1.0201 0.13113 3.9173-0.26014 4.8816-0.47838 1.1738-1.0173 2.322-1.4342 3.5215-0.49374 1.416-0.0465 1.3205 1.3695 1.3182 1.6934-7e-3 3.3491 0.1041 3.2179 2.2265-0.14136 2.329-1.3236 4.3645-1.256 6.748 0.0444 1.5353-1.0336 4.9729 0.76626 5.8565 1.2344 0.60788 2.8482-0.49839 3.9923-0.87826 0.30347 1.5993-1.3452 3.6032-0.53009 4.9798 0.85708 1.443-0.27272 1.3266-0.91996 2.3839-0.71966 1.1771-0.41455 2.8898-1.0627 4.1971-0.27855 0.5636-1.4279 1.6303-1.5106 2.1473-0.01 0.0653-0.01 0.12802-5e-3 0.18933 0.0769-0.0928 0.19098-0.18141 0.36402-0.27248 1.9274 0.60927 2.9203 1.9729 5.2554 1.5188 0.0371-0.64049 8e-3 -1.2996 0.0464-1.9355 1.6729-0.142 1.3555 1.8865 2.5107 2.3048 1.0294 0.375 1.1694-2.8669 2.2452-1.7374 0.72921 0.76623 0.35284 1.898 1.2938 2.5278 0.8303 0.55684 2.0345 0.53917 2.9474 1.0259 3.0649 1.6373 2.0427-2.6622 4.226-2.7017 2.7646-0.0488 2.577-1.805 3.2024-3.957 0.5266-1.811 2.9418-1.2686 4.382-1.1296 0.89202 0.0862 2.2067 0.33302 2.9672-0.30744 0.50819-0.42853 0.77324-1.0853 1.4489-1.2761 2.4243-0.68448 5.0469 0.014 7.4562-0.85218 0.90738-0.3284 1.6631-1.053 2.5987-1.2926 1.0147-0.26086 1.9652 0.33303 2.9743 0.2862 1.8353-0.0827 2.2917-3.6915 4.1686-1.4314 0.76878 0.92672 1.3604 1.4489 1.4768 2.6784 0.1042 1.1028 1.4927-0.56386 1.6836-0.87827 1.4405-2.3523 2.819-1.1831 4.9796-2.201 2.3197-1.0918 2.8075 1.0627 3.9318 2.4547 2.1819 2.7064-0.28481 3.1536-1.802 4.7932-1.3834 1.4952-0.53334 3.1791 0.22592 4.8909 0.5613 1.2658 1.8725 3.5494 3.4304 2.0312 0.11311 0.10238 0.21849 0.21168 0.32165 0.32489 0.42621-0.52891 0.99473-0.68475 1.9764-0.27505 0.13833 0.78371-0.763 0.9714-0.56991 1.8099 1.2626 0.5217 2.9755 1.3858 3.5359 2.725 0.46811 1.1179-0.082 2.3034 0.0325 3.4538 0.80351 0.24454 2.1054-0.347 2.7769-0.74528 1.0054-0.59852 0.57738-2.0402 2.1847-1.7142 1.4619 0.29604 1.7041-0.85102 2.277-1.8353 0.22127-0.3773 0.50306-0.62859 0.82446-0.79889-0.0438-0.99911-0.70498-1.8166-0.7143-3.0044-0.0107-1.4184 2.3729-2.6224 3.4752-3.0554 3.5149-1.3813 5.9574 1.4158 8.0933 3.7797 2.0777-0.50541 3.0133-2.1786 1.4507-3.936-1.4344-1.614-2.3802-2.7669 0.1511-3.8522 1.045-0.44951 2.3596-1.4021 3.5373-1.3844-0.2259-0.53871-0.54731-1.0425-1.0054-1.4896-0.19867-0.19332-2.1051-1.3299-2.0868-1.0178-0.074-1.2647 0.31511-2.7762-0.87637-3.6613-0.82425-0.61485-1.6671-0.87827-1.7559-2.0633-0.13064-1.6934 2.5527-4.4834 0.54267-5.7575-2.1494-1.3634-4.2554 0.59855-6.5051 0.27947-2.8904-0.40991-2.7998 0.65492-2.9416 3.0883-0.22804 0.0954-0.6314 0.11417-0.88039 0.0303-1.0851-2.2487-1.9584-5.4056-1.9748-7.9137-7e-3 -0.61255 0.0983-1.239 0.48046-1.7398 0.45417-0.59856 0.97821-0.30741 1.4067-0.75459 0.65494-0.68263 0.36383-2.0985 1.7137-2.1637 0.62185-1.5379 1.0481-2.1011 0.97402-3.836-1.053-0.093-1.8445-0.86428-2.9367-0.90132-0.46092-0.014-0.95024 0.0465-1.4279 0.16021-0.53566 0.13099-1.0597 0.3284-1.5162 0.57318-1.4645 0.78647-2.4218 2.17-3.7352 3.1319z"/>
   <path fill="#e2b584" id="Namakkal" d="m117.35 145.77c0.0886 1.0108-0.79885 1.7398-1.1948 2.5736 1.3974 0.96559 2.4944 2.8367 3.7506 4.0385 1.6769 1.6023 2.9951 3.5168 4.7116 5.0911 2.4603 2.2564 7.3705 3.3911 6.0065 7.4133-0.30579 0.89668-0.56363 1.912 0.0533 2.7506 0.53334 0.72434 1.1985 1.2647 0.87105 2.2755-0.59692 1.8538 0.12811 2.8601 0.74762 4.6487 0.48001 1.3895 2.2475 1.2078 3.5681 1.756 0.0675 0.028 0.13136 0.0582 0.19797 0.0922 1.372-0.93161 3.0579-1.8655 4.5161-2.1592 1.2318-0.24687 1.6431 0.58598 2.6833 0.892 0.91063 0.27017 2.1125-0.0208 3.053-0.014 2.0833 0.014 3.6032 0.67449 5.2181 1.9554 1.465 1.1599 1.9741 2.2592 2.4003 3.6658 0.43785-0.31439 0.86404-0.66142 1.2665-0.9246 0.72293-0.47512-0.60322-1.7504-0.5939-2.2951 0.0582-3.1392 4.502 0.85941 4.6767-1.8503 0.15845-2.4601 0.96583-2.6455 2.6527-0.8466 1.4906 1.5942 3.5147 1.083 4.8769 3.052 2.4292 3.5121 0.87337-3.596 0.99449-4.4276 0.36238-2.4988 3.3166-3.9381 4.4101-6.1378 1.3718-2.7646 2.4892-5.6944 3.9376-8.4093 0.81518-1.5318 2.8189-4.1672 0.20193-5.1176 0.23058-0.7779 1.0609-1.1035 1.5092-1.7212 0.4099-0.56595 0.5939-1.2623 0.84915-1.9028 0.18725-0.46813 0.37448-0.85241 0.6004-1.1342-0.10217-0.11171-0.20726-0.22125-0.32139-0.32373-1.5576 1.5162-2.8682-0.76997-3.4304-2.0322-0.76016-1.7118-1.6094-3.3956-0.22684-4.8909 1.5187-1.6396 3.9836-2.0868 1.8022-4.7932-1.1219-1.3925-1.6089-3.5469-3.9313-2.4547-2.1613 1.0178-3.5401-0.1504-4.9794 2.201-0.19331 0.31533-1.5814 1.9822-1.6836 0.87827-0.1165-1.2277-0.70801-1.7517-1.4771-2.6784-1.8772-2.2592-2.3339 1.3448-4.1679 1.4314-1.008 0.0465-1.9582-0.54495-2.9743-0.28623-0.93652 0.23896-1.6909 0.96421-2.5992 1.2926-2.4054 0.86639-5.0306 0.16773-7.4551 0.85243-0.67332 0.1898-0.94093 0.84774-1.4486 1.2761-0.76181 0.64047-2.0752 0.39358-2.9672 0.30741-1.4412-0.14044-3.8573-0.68285-4.383 1.1296-0.62442 2.152-0.43809 3.908-3.2024 3.957-2.1816 0.0397-1.1596 4.339-4.2251 2.7022-0.91298-0.48723-2.117-0.47069-2.9486-1.0264-0.94091-0.6314-0.5636-1.7615-1.2926-2.528-1.076-1.1296-1.2158 2.1125-2.2456 1.7375-1.1552-0.41923-0.83657-2.4502-2.5102-2.3048-0.0397 0.63558-0.01 1.2949-0.0465 1.9355-2.3339 0.45416-3.3281-0.9074-5.2561-1.5188-0.17467 0.0887-0.28787 0.17957-0.3638 0.27272-0.3836 0.46395 0.31512 0.97167 0.36938 1.6005z"/>
   <path fill="#f9d3c6" id="Erode" d="m132.29 174.56c-0.61952-1.791-1.3438-2.7949-0.7476-4.6487 0.32605-1.0141-0.33771-1.5534-0.87105-2.2757-0.61628-0.83842-0.35868-1.8538-0.0534-2.7506 1.3634-4.0224-3.5448-5.1578-6.0065-7.4132-1.7165-1.5746-3.0346-3.4911-4.7116-5.0911-1.2567-1.2018-2.3533-3.0716-3.7506-4.0385 0.39594-0.83377 1.2833-1.5628 1.1948-2.5737-0.0559-0.62881-0.75228-1.1365-0.36798-1.6024-5e-3 -0.0619-8e-3 -0.12346 5e-3 -0.18934 0.0855-0.51912 1.2313-1.586 1.5108-2.1473 0.64747-1.3066 0.34285-3.0231 1.0628-4.1972 0.64607-1.0571 1.777-0.94068 0.91926-2.3836-0.81516-1.3764 0.83308-3.3771 0.53033-4.9794-1.1459 0.37962-2.7576 1.4822-3.992 0.87803-1.8003-0.88501-0.72293-4.3227-0.76624-5.8572-0.0675-2.3823 1.1133-4.4161 1.2553-6.7473 0.13113-2.1195-1.5255-2.2312-3.2172-2.2265-1.416 4e-3 -1.8633 0.10024-1.3706-1.3182 0.4169-1.1994 0.95934-2.3452 1.4344-3.5215 0.39268-0.96185 0.71337-3.8615 0.26087-4.8816-0.18632-0.42157-0.49376-0.75692-0.80073-1.0923-2.1485 0.35633-4.3038 0.68704-6.4813 0.68704-1.4323 0-2.9859-0.17472-4.4066 0.0582-0.71338 0.1165-1.3925 0.79091-2.1359 0.65909-0.22382 0.67774-0.12133 2.0822-0.93486 2.4213-0.83379 0.34933-1.4114 0.26688-1.5106 1.3695-0.20588 2.2428-0.68078 4.339-1.3271 6.5027-0.74202 2.4796-1.3052 2.6639-3.7295 1.5963-1.9399-0.85101-2.6153 1.1403-4.4282 0.91065-1.7323-0.21847-2.8227-1.9517-4.3038-2.6969-0.84567-0.42247-1.805-0.45391-2.5163 0.23778-0.74761 0.73131-1.9243 0.52403-2.8778 0.49376-1.1694-0.0397-8.5433 0.70103-8.2005 2.3146 0.27949 1.3182 0.94698 2.8717-1.0574 1.798-1.6236-0.86851-2.9579-2.5037-3.9803-3.999-1.1412-1.6699-2.5805-2.5619-4.6162-1.6932-0.75693 0.32375-1.2472 1.1435-1.9983 1.3974-0.52891 0.17936-1.3205-0.1165-1.8877-0.0768-1.3695 0.0926-3.4446 0.32376-4.2842 1.5884-0.56036 0.85103-0.63117 1.8633-1.2591 2.7143-0.67752 0.92273-1.1247 1.818-1.3702 2.9425-0.28786 1.3303-2.2094 7.6945-0.04914 8.3509-0.28764 0.35634-0.55686 0.59157-0.82425 0.74108 0.15091 0.0858 0.30952 0.16982 0.47489 0.24174 3.5567 1.5852 8.0884 0.073 10.995 2.9649 1.1831 1.1785 2.499 3.1511 0.85568 4.5758-1.1957 1.0336-0.14184 3.4999 0.44159 4.6436-0.75018 0.545-2.0285 0.64747-2.3223 1.6743-0.2187 0.7688 0.09106 1.5747 0.08617 2.3596-0.0036 0.26689-0.03984 0.53009-0.14719 0.79095 0.62812 0.2771 1.3441 0.21798 2.0068 0.28876 0.91996 0.10024 1.6 0.74762 2.4897 0.88807 0.60322-1.8905 4.0032-2.7676 5.6036-1.6669 2.1567 1.4789 3.0486 4.488 5.2939 6.0921 0.1989-0.35241 0.39453-0.62816 0.33491-1.0879 1.1575-0.14411 2.117-1.1705 3.3306-1.0392 0.96653 0.1075 1.4836 1.0457 2.096 1.6676 1.7072 1.7328 3.1604-1.7468 3.7148-0.18868 0.35633 1.0054-0.361 2.0775 0.15021 3.0644 0.44367 0.85776 1.2835 1.652 2.1592 2.0535 1.0155 0.46581 1.6769-0.16981 2.103-1.0758 0.62185-1.3231-0.35866-1.8584-0.35424-3.0829 1.2297-0.0763 1.791 0.12137 2.3998 1.1766 0.33096 0.57295 0.70476 0.95492 1.1461 1.4393 0.6675 0.73367 0.26342 1.6632 0.6463 2.4922 0.28647 0.61484-1.1703 1.5744-0.45135 2.5922 0.98051 1.3858 1.9853 1.968 1.5777 3.922-0.15605 0.75227-3.815 5.4943-0.28182 3.7055 0.95374-0.4819 1.4289-0.19331 1.9075 0.48441 0.60552 0.0158 1.2367 0.0724 1.9028 0.17702 2.5875 0.41061 4.8654 0.82981 7.4924 0.36121 2.6387-0.47067 5.2846-1.4791 7.9723-0.72919 2.5093 0.70244 4.4834 2.2987 6.9987 2.9066 1.2367 0.30044 2.0354 1.0457 3.1392 1.5628 0.71337-0.34937 1.9456-0.3843 2.4362-0.29812 2.1765 0.37962 3.255 1.9378 5.0968 2.8531 1.3047 0.64744 3.1975-1.8001 4.1181-2.4967 0.23967-0.18168 0.50284-0.37335 0.77789-0.56363 0.0117-0.0837 0.0256-0.16773 0.0372-0.25388-1.3198-0.54847-3.0873-0.36678-3.5676-1.7548z"/>
   <path fill="#f8f" id="Coimbatore" d="m69.36 230.15c-0.95723-2.2498-4.3297-2.4757-2.7366-5.4079 1.1792-2.1707 2.169-3.8498 2.024-6.4327-0.06312-1.1156-0.54033-2.4827 0.31209-3.4143 0.99915-1.0918 2.887-0.66469 4.1665-0.60647 1.4798 0.0676 2.3921-0.15986 3.052-1.5963 0.53568-1.1668 0.68939-2.5712-0.30744-3.4958-0.86407-0.80353-2.215-0.82985-2.8554-1.94-0.58225-1.0085-0.27016-2.3779-0.19098-3.4726 0.08386-1.1831 0.06987-2.3351 0.69871-3.3794 0.61952-1.0271 1.7468-1.6934 2.0402-2.9299 0.32839-1.383-0.50959-2.4082-1.2996-3.4493-0.67657-0.89506-1.5721-2.6914-2.6165-3.1875-1.3462-0.63561-7.2423 2.1055-5.2356-1.1086 0.97586-1.5628 1.6326-2.5712 0.29602-4.176-0.97493-1.1715-2.038-1.7128-1.5139-3.4236 1.7398-0.13501 1.09-2.0752 1.225-3.2186 0.2166-1.811 0.27482-3.0618 1.7258-4.2015 1.2623-0.99216 1.7342-1.5232 0.38335-2.9136-1.5441-1.5907-6.003-3.3139-5.9053-5.7498 0.04659-1.1892 0.66167-2.488 0.76648-3.7408 0.10339-1.2297 0.34563-2.6412 1.1063-3.6683 0.86639-1.1694 2.0621-0.94325 3.2662-1.5628 1.1694-0.60322 1.621-2.124 2.8809-2.4504 1.0627-0.27529 1.8703-9e-3 2.7391-0.12137-1.0238-1.4254-1.8867-2.9904-3.2606-3.9341-1.6026-1.1002-5.0006-0.22407-5.6038 1.6671-0.89201-0.14026-1.5693-0.78765-2.4892-0.88781-0.6647-0.073-1.3823-0.014-2.0075-0.2888 0.10713-0.25759 0.14671-0.52404 0.14671-0.79115-1.0108 0.60994-2.0656 1.1675-3.1744 1.5138-1.5348 0.48046-2.9206 0.12276-4.4691 0.16841-4.1922 0.11893-0.94091 4.1247-2.993 5.3423-1.4228 0.84568-3.2464 0.4996-4.6674 1.4009-1.1883 0.75343-1.7123 1.5409-3.149 1.9748-1.13 0.34001-1.8138 1.1342-2.4946 1.9846 0.27599 0.16773 0.50586 0.58691 0.66587 1.3939 0.34936 1.7594-2.3729 2.0936-2.0123 3.702 0.30534 1.3625 1.9652 2.3313 2.8834 3.2573 1.2462 1.2572 1.069 3.0123 1.6978 4.6092-0.25432 0.0646-0.35633 0.25714-0.68939 0.19308 0.58458 0.4381 0.87337 1.3832 1.5837 1.6487 0.6102 0.22639 1.3247-0.14674 1.9449-0.10948-1.7437 3.2699-5.6571 0.36568-7.863 2.878-1.5576 1.7777-3.9825 6.1478-1.4119 7.9217 4.8355 3.3334 13.28 1.3112 14.682 8.8168 1.0918 0.19656 2.1571-0.41247 3.034 0.50026-0.73154 1.6913-0.25642 3.7965-0.93416 5.6226-0.51914 1.4023-1.7629 2.4454-0.74063 3.9157 0.69381 0.99614-0.79163 3.5028-1.7615 3.9449-1.0432 0.47835-1.9983-0.87828-2.9838-0.14953-1.3157 0.97541-0.2378 2.385 0.74086 3.0133 1.0038 0.64536 1.5695 1.174 1.4789 2.4334-0.18633 2.6046-0.97353 5.6874-1.5576 8.2244-0.3957 1.7132-0.99658 3.0326-0.10713 4.7019 0.71058 1.3296 1.3115 2.2889 0.92484 3.8362-0.28437 1.1396-0.97376 2.5464-0.2485 3.6653 0.73853 1.1398 2.0523 0.56714 2.9757 1.2411 0.69872 0.51005 0.50052 2.3547 0.93394 3.1326 0.68356 1.2251 1.8912 1.9982 3.2151 2.3823 2.8949 0.84288 5.9729 0.77509 7.9607-1.5959 1.0876-1.2968 0.90739-2.4019 1.6643-3.8005 0.61253-1.1342 2.0262-1.2199 3.12-1.577 0.41223-0.135 0.83938-0.23594 1.2716-0.33073-0.67727-1.9259 0.54336-3.9264-0.32793-5.9736z"/>
   <path fill="#acabda" id="Tiruppur" d="m129.78 197.89c0.38662-0.0208-0.13975-2.5247-0.91717-2.6876-0.8501-0.17934-1.3322 0.86637-1.9425 0.78021-0.93648-0.13502-0.99354-1.2041-1.791-1.4766-0.14438-1.4347-2.9136-0.78113-3.5075-2.2847-0.56128-1.4184 1.6024-2.2854 1.5768-3.7507-0.028-1.6536-2.0331-4.8559-0.545-6.3465 1.3159-1.3168 1.9425-2.0156 0.55897-3.6426-0.59857-0.70358-0.35635-1.1458 0.18399-1.409-1.104-0.51472-1.904-1.2623-3.1396-1.5628-2.5154-0.6102-4.488-2.2067-6.9987-2.9066-2.6877-0.74995-5.3358 0.25851-7.9723 0.72899-2.6258 0.46951-4.9049 0.0529-7.4924-0.36101-0.66469-0.10485-1.2949-0.16299-1.9028-0.177-0.47979-0.67773-0.95584-0.96652-1.907-0.48443-3.5334 1.7888 0.12579-2.9532 0.28182-3.7055 0.40758-1.954-0.59856-2.5362-1.5791-3.922-0.71733-1.0155 0.74062-1.9748 0.45137-2.5922-0.38522-0.83147 0.0223-1.7583-0.64607-2.492-0.44157-0.48207-0.81515-0.86639-1.1459-1.4393-0.6102-1.055-1.1694-1.253-2.4003-1.1768-0.0054 1.2258 0.97586 1.759 0.35424 3.0829-0.4262 0.90738-1.0876 1.5418-2.103 1.076-0.87572-0.40269-1.7128-1.1971-2.159-2.0537-0.51006-0.98494 0.20728-2.0593-0.15046-3.064-0.55151-1.5581-2.0072 1.9215-3.7134 0.18864-0.61393-0.62186-1.1305-1.5604-2.096-1.6676-1.2134-0.13133-2.1707 0.89201-3.332 1.0387 0.06195 0.45651-0.13508 0.73596-0.33491 1.0884-0.81515-0.58227-1.451-1.3483-2.0332-2.1606-0.86849 0.11136-1.676-0.15373-2.7389 0.12119-1.26 0.32606-1.7118 1.8493-2.8809 2.4504-1.2041 0.61926-2.4012 0.39314-3.2674 1.5628-0.76183 1.0238-1.004 2.4385-1.1063 3.6683-0.10364 1.2507-0.71874 2.5474-0.76531 3.7403-0.09548 2.4362 4.362 4.1596 5.9053 5.7503 1.3508 1.3925 0.87827 1.9238-0.38336 2.9136-1.451 1.1389-1.5092 2.3921-1.7258 4.2015-0.13508 1.1436 0.51471 3.0859-1.2262 3.2186-0.52404 1.7118 0.54011 2.2522 1.5139 3.4222 1.3343 1.6061 0.67752 2.6146-0.29601 4.1774-2.0053 3.2141 3.8918 0.47184 5.2354 1.1086 1.0453 0.49375 1.9397 2.2895 2.6174 3.1861 0.7872 1.0425 1.628 2.0635 1.2996 3.45-0.29346 1.2367-1.4207 1.9028-2.0402 2.9299-0.62882 1.0432-0.61555 2.1962-0.69871 3.3794-0.07685 1.0946-0.38895 2.4641 0.19075 3.4725 0.64047 1.111 1.989 1.1389 2.8556 1.94 0.99658 0.92464 0.8431 2.329 0.30674 3.4958-0.65865 1.437-1.5691 1.663-3.0518 1.5954-1.2786-0.0582-3.1651-0.48351-4.1669 0.60787-0.85219 0.93162-0.37473 2.301-0.31256 3.4143 0.14392 2.5829-0.84589 4.262-2.0234 6.4327-1.5907 2.9322 1.7793 3.1581 2.7366 5.4079 0.87105 2.0472-0.34935 4.0478 0.34004 5.9763 1.0828-0.23989 2.1847-0.44717 3.1097-1.06 1.5229-1.0117 2.7457-1.0245 4.4925-1.4065 1.9306-0.42014 2.7415-0.0862 2.5562 2.0775-0.14206 1.649 0.57293 3.1393 1.1785 4.6246 0.72291 1.765 1.4137 1.8176 2.8904 2.6232 0.2378 0.12836 0.36798 0.35189 0.43785 0.61507 0.47512-0.15616 0.93394-0.35631 1.3601-0.64743 0.95956-0.65215 1.7902-1.4603 2.9556-1.7374 0.48444-1.4615-5e-3 -4.8072-0.45952-6.2813-0.66772-2.1637-5e-3 -4.6419-1.048-6.6216-2.5952-4.9163 2.6693-0.82771 4.4315-2.1845-0.24687-0.55779-1.0942-2.578-0.30044-3.0682 0.35423-0.21684 2.2312-1.2567 2.0332-1.6972-0.4106-0.91949-1.9378-0.70197-2.6551-1.0909-1.1156-0.60087 0.04429-2.1472 0.7546-2.4876 1.3247-0.63557 1.3904-1.1992 1.4393-2.6251 0.04653-1.3576 1.1112-1.6722 2.1758-1.9365 0.14159-0.0346 0.28507-0.0704 0.4234-0.10485 1.2903-0.33069 1.9561-1.498 3.1349-1.996 1.4-0.59392 2.3452 0.7427 3.6775 0.78743 2.7699 0.0928 3.2938-2.5894 5.6321-3.2423 2.2741-0.63347 5.333 1.2507 6.6713-1.4184 0.56597-1.1298 1.8143-4.2648 3.5275-2.4267 1.3704 1.4673 0.1698 4.3202 0.26995 6.0702 1.7048 0.19868 2.52-1.0788 3.7055-2.0194 0.82004-0.65003 1.8818-1.1645 2.9789-1.4344-0.27507-1.1552 1.6815-2.2644 2.1287-3.0716 1.0117-1.8304-1.8375-2.1707-2.6056-3.1653-0.89457-1.1526 1.9913-2.9047 3.0511-2.534 1.2374 0.43112 3.6776 3.6067 4.8584 1.2504 0.48071-0.95653-2.0179-2.0745-2.7202-2.0348z"/>
  </g>
  <g stroke="#000">
   <path d="m295.74 1.7484-3.4496 0.5307-1.8574 0.26535-1.8575 0.79606-1.5921 0.5307-0.26539 1.3268-1.0614 1.0614-0.5307 1.8575-1.0614 3.1842-0.53072 1.0614v1.5921l-0.5307 2.1228-0.26537 0.5307-2.1228 2.6535-2.3882 3.1842-1.8574 2.9189-1.5921 3.1842-0.79605 2.1228v2.1228l-2.1228 1.0614-2.9189 9.022-1.0614 1.0614-1.3267 1.3268-1.0614 1.8575-2.3882 5.0417-2.1228 1.0614-1.0614 4.511-2.1228 1.3268-2.6535 2.1228-2.6535 2.1228-0.26534 1.8575-1.8575 1.0614-4.2456 6.6338-1.5921 2.6535-0.79605 1.5921-0.26535 1.5921v1.3268l-1.8575 1.8575-1.0614 2.6535-1.8575 1.0614v2.9189l-2.3882 1.5921-0.53069 2.9189-0.26535 1.0614-1.0614 0.79605-0.5307 1.3268-1.0614 1.5921-1.0614 1.8575-1.8575 1.8575-1.5921 0.79605-1.3268 2.9189-2.9189 0.26536-0.79607-1.3268-1.3268-0.5307-2.6535-0.26536h-1.0614l-2.3882-1.0614h-1.8574l-1.8575-0.79605-2.6535-0.79607h-2.9189l-3.1842 0.5307-0.79606 1.0614-2.6535 1.5921-2.3882 3.1842-1.5921 0.79606-1.5921 1.0614-2.1228 1.8575-2.6535 1.0614-10.614 0.26535-1.5921-0.26535-1.0614-0.79606-1.8575-0.5307-2.1228-1.0614-1.3268-0.79606-1.3268-0.79605-2.3882-0.5307-2.6535-0.53072-3.4496 0.26536-2.3882 0.26536-1.8575-0.26536-2.1228-0.53071h-6.6338l-2.3882 1.3268-1.8574 0.5307-3.4496 0.5307-4.2456 2.9189-3.7149 2.3882-3.4496 1.5921-3.7149 2.9189-1.5921 2.9189-2.3882 2.1228-2.9189 2.6535-3.1842 2.1228-2.9189 2.6535-3.4496 3.1842-4.7763 3.1842-2.6535 1.3268-6.8992 3.4496-2.3882 1.5921h-1.8575l-1.8575 0.79604-1.0614 0.53069-1.0614 1.3268-1.5921 0.5307-2.6535 0.5307-2.1228-0.79605-3.4496 0.79605-3.9803 2.1228-4.511 2.3882-2.1228 1.5921-2.1228 1.8574-1.3268-0.79604-1.0614-1.8575-4.2456 1.0614" stroke-width=".3px"/>
   <path d="m125.15 118.9-4.6363 0.46363-2.7818 3.0136h-2.0863l-4.4045 0.46363-2.55 0.92725-2.55 1.1591-1.6227 3.709-0.92725 3.4772-1.8545 2.0863-2.0863 1.1591h-1.8545l-0.46363 2.3181-2.3181 1.6227-3.9409 0.69545-2.7818 2.0863-0.92726 0.46364h-2.0863l-2.0863-0.92727h-1.6227l-0.69544 0.69546-2.55 0.46362-1.8545 1.8545h-2.55l-0.23182-2.0863-2.55-0.69545-5.3317-0.92725-6.259-1.6227-5.0999-1.8545-4.6363-3.0136-2.3181-1.8545-1.6227-0.69545-1.8545-0.46363h-2.3181l-2.3181 1.1591-1.8545-2.3181-6.9544-4.1727" stroke-width=".3px"/>
   <path d="m57.194 154.06-0.46488-4.1813 0.30992-2.8433 1.2397-3.6795-1.8595-5.352" stroke-width=".3px"/>
   <path d="m150.14 106.84-0.37293 6.679 0.71197 3.492 0.33903 2.102v3.492l0.71197 3.153v4.543l0.33904 8.408" stroke-width=".3px"/>
   <path d="m294.69 0.80169-2.3622 0.50268-1.5228-0.28291-2.5887 1.1316h-4.8729l-6.7003 2.829-0.60911 0.84871-5.3298 4.385-6.0912 1.8389-3.807 1.8389-7.7662 0.84871-4.1115-1.9803-9.8981-0.42435-3.1978-1.1316-1.5228 0.42436-2.4365-0.42436-1.2182 0.84871-1.8273-0.2829-1.8273-0.99016-0.91369-0.70725-2.2842-0.70726-2.1319 0.28291-3.5024 0.84871-3.0456 1.1316-2.4364-0.28291-2.4364 0.28291-3.6547 0.42435-3.807 0.99016-5.3298 1.9803-2.5887 1.2731-3.1979 1.9803-1.6751 1.556-1.2182 1.4145-0.30457 1.2731-2.4365 1.6974-1.8273 2.1218-1.2182 1.4145-1.9796 0.70726-2.1319 2.5461-1.9796 0.99016-2.741 1.4145-1.5228 1.2731-3.9592 1.1316-1.3705 0.14145-1.8273-1.1316h-1.8273l-1.3705 0.84871-4.4161 0.42436-1.2182 1.556-1.3705-2.5461-3.5024-2.6876-1.066-0.56581-2.2842-0.42435-1.8274-1.8389-3.0456-1.6974-1.5228 0.84871 0.7614 1.2731" stroke-width=".3px"/>
   <path d="m156.66 37.644-0.8399 2.7064 1.0266 3.383-0.6766 1.7032-0.34996 1.8665v1.8665l-0.3733 1.2132v1.0266l0.13998 1.2832-0.51327 1.3065-0.39664 0.51328v1.9365l-0.39662 0.76992v1.0266l-0.37329 2.1931-1.3065 2.4498-1.1432 1.1665-1.6798 4.1296" stroke-width=".3033px"/>
   <path d="m149.15 68.647-1.8091 2.9397-0.90454 4.0704-4.0704 4.0704 0.22614 4.7488 1.2044 1.2241 1.0569 1.4797 0.21137 1.9025-1.4797 2.1138-0.42277 3.8049-0.63416 2.3252-0.21138 2.1138 2.3252 1.6911 3.3822 3.5936 2.1139 2.1138" stroke-width=".3px"/>
   <path d="m142.32 99.437-4.1722 2.3202-1.5825 4.0945-2.0142 1.5013-0.28773 1.0918-0.71934 4.504 0.14387 0.54594" stroke-width=".3px"/>
   <path d="m151.86 138.71-7.6455-5.4807-2.7971-1.8899-2.6106-2.0789-0.37297-0.37798h-2.0512l-2.7971-2.0789-1.6783-1.1339-1.6783-0.56698-1.4918-1.3229h-0.37296l0.18649-2.8348-0.55943-1.1339-0.37295-2.6458" stroke-width=".3px"/>
   <path d="m151.83 138.8-3.3562 1.2365-3.1795 1.4131-4.5926 2.2963-0.8832 3.0029-0.35328 1.5898h-3.1795l-1.5898 1.4131h-5.2992l-1.2365 0.52992-4.5926 1.2365-5.4758 1.4131-3.3562 0.88319-2.473 0.8832-3.7094 1.2365-2.6496 0.52992-2.8262 0.70657-1.7664-1.0598-1.943-1.5898-2.473-1.943-3.0029-1.2365-3.5328-1.7664-2.1197-1.4131-1.4131-1.7664" stroke-width=".3px"/>
  </g>
 </g>
 <g fill-rule="evenodd" stroke-width=".23151">
  <ellipse cx="149.23" cy="68.058" rx="1.9023" ry="1.985"/>
  <ellipse cx="151.87" cy="138.86" rx="1.9023" ry="1.985"/>
  <ellipse cx="142.04" cy="30.721" rx="1.9023" ry="1.985"/>
  <ellipse cx="149.98" cy="106.72" rx="1.9023" ry="1.985"/>
  <ellipse cx="111.79" cy="130.73" rx="1.9023" ry="1.985"/>
  <ellipse cx="84.564" cy="146.23" rx="1.9023" ry="1.985"/>
  <ellipse cx="57.152" cy="154.17" rx="1.9023" ry="1.985"/>
  <ellipse cx="30.685" cy="126.38" rx="1.9023" ry="1.985"/>
  <ellipse cx="295.73" cy="1.985" rx="1.9023" ry="1.985"/>
 </g>
 <g fill="#000000" font-family="sans-serif" font-size="3.5278px" letter-spacing="0px" stroke-width=".26458" word-spacing="0px">
  <text x="286.65829" y="9.3579559" style="line-height:1.25" xml:space="preserve"><tspan x="286.65829" y="9.3579559" stroke-width=".26458">Chennai</tspan></text>
  <text x="134.47333" y="24.292875" style="line-height:1.25" xml:space="preserve"><tspan x="134.47333" y="24.292875" stroke-width=".26458">Krishnagiri</tspan></text>
  <text x="153.50699" y="69.723656" style="line-height:1.25" xml:space="preserve"><tspan x="153.50699" y="69.723656" stroke-width=".26458">Dharmapuri</tspan></text>
  <text x="151.04935" y="101.67303" style="line-height:1.25" xml:space="preserve"><tspan x="151.04935" y="101.67303" stroke-width=".26458">Salem</tspan></text>
  <text x="154.26318" y="134.18958" style="line-height:1.25" xml:space="preserve"><tspan x="154.26318" y="134.18958" stroke-width=".26458">Namakkal</tspan></text>
  <text x="111.91608" y="137.97057" style="line-height:1.25" xml:space="preserve"><tspan x="111.91608" y="137.97057" stroke-width=".26458">Erode</tspan></text>
  <text x="74.295204" y="152.71643" style="line-height:1.25" xml:space="preserve"><tspan x="74.295204" y="152.71643" stroke-width=".26458">Tiruppur</tspan></text>
  <text x="35.161934" y="122.27945" style="line-height:1.25" xml:space="preserve"><tspan x="35.161934" y="122.27945" stroke-width=".26458">Ooty</tspan></text>
  <text x="41.967716" y="159.52223" style="line-height:1.25" xml:space="preserve"><tspan x="41.967716" y="159.52223" stroke-width=".26458">Coimbatore</tspan></text>
 </g>
</svg>
