<svg width="204.54mm" height="208.31mm" version="1.1" viewBox="0 0 204.53275 208.31968" xmlns="http://www.w3.org/2000/svg">
 <g transform="translate(-2.7687 -84.286)" stroke="#fff" stroke-width=".5">
  <path id="Nirmal" class="enabled" d="m17.551 146.35-3.0281-2.0187v-2.0188l4.3738-1.6822 2.0187-1.3458 6.3926 3.7008 3.0281 2.0188v2.6915l4.3738 0.33679 5.7196 2.355 4.3738-1.3457-1.6822-3.7009 2.0187-3.0281 3.7009 3.7008 4.3738 3.3644 0.33642 3.3645 3.3645 1.3457 3.7009 3.7009 6.3926-5.3832 5.3832 1.3458 3.0281-4.3738h3.0281l2.3551-1.6823 2.3551-3.7009 3.3645-0.67284 3.7009-2.0187 2.0187 2.6916 1.0093 3.3644h3.0281l2.3551 4.7103 5.7196-5.0468 3.7009-0.67284 5.7196 3.7008-4.3738 4.7103-3.7009 1.6822 0.6729 3.0281 1.6822 2.3551 2.0187-2.0188 4.3738 5.7196-7.4019 4.3738-4.0374-2.6915-6.729 4.3738-8.0747-2.3551-4.0374 5.0468-10.093 2.0187-3.0281-1.0093-5.0468 2.3551-6.729-5.7196-3.7009 4.7102-5.3832 0.33677v-5.3832l-8.7477-0.33605-5.7196 5.7196-5.7196 0.33678-2.0187 6.0559h-5.7196l-6.3926-3.7009-3.0281-4.3738-3.7009 0.33678v-2.6915l-5.3832 0.67283v-5.0468l-0.6729-3.028 5.3832 0.67284v-4.0375l4.7102 2.3551-1.3458-5.7196 1.0093-4.7102 3.0281-5.7196z" fill="#a69d98" />
  <path id="Adilabad" class="enabled" d="m45.14 142.31-5.3832-7.0654-3.3645-0.33677 4.0374-3.3645 6.056-1.6822 3.0281 2.0187 2.6917-3.3644-0.33649-2.0187 2.0187 1.0093 2.6915-2.6915-2.3551-2.0188v-1.6822l-1.6822-3.7009 2.3551-5.3832-2.0187-3.3645-2.0187-2.0187 1.0093-2.0187 2.3551 1.0093 3.0281-2.3551 3.0281-4.0374 0.33642-4.0374-1.6822-2.6915-2.3551-1.3457h-3.0281l3.0281-6.3926 1.6822 2.3551h4.7102l-1.0093 3.7009 4.0374 3.3645 4.3738-0.67283 3.0281 3.3644 1.3458-3.3644 6.729 1.0093 6.3926 1.3458 4.0375 1.3458 1.0093 2.0187 3.7009-1.3458 5.0468 0.67283 1.6822 2.3551 3.0281 6.056-1.0093 2.0187 10.43 1.6822 1.0094 4.0374-0.33642 2.0187-2.3551 3.3645 0.67291 5.3832 0.33641 2.0188-2.0187 1.3457-2.6915-2.0187-2.6915 4.7102-3.3645 0.67284-2.6915 2.6915-3.7009 1.3458 4.0374 1.0093 3.0281 2.3551 3.0281 6.729-3.7009 0.67284-5.7196 5.0468-2.3551-4.7103h-3.0281l-3.0281-6.056-7.0653 2.6915-2.3551 3.7009-5.3832 1.6822-3.0281 4.3738-5.3832-1.3458-6.3926 5.3832-7.0653-5.0468-0.33642-3.3645z" fill="#e2b584" />
  <path id="Mancherial" class="enabled" d="m138.34 167.54 1.6822-3.7008 4.3738 0.33605 3.0281-4.3738 2.3551-0.33604-1.0094-5.0468 1.6823-2.6915 3.3644 2.6915 3.0281 1.6823 4.7102 2.0187 2.0188-3.3645 4.7102 0.67284-3.3644-6.3926v-2.6915l4.3738 3.3644 5.3832 2.6915 4.0375 3.3645h10.43l-0.33677 3.7008 4.3738-1.6822 3.3644-0.67282 5.7196 1.0093-5.0468 5.0468-0.67281 5.7196 4.7102-1.6822 2.3551 5.3832 0.67282 5.3832v5.3832c-7.6216 9.1457-5.0754 6.0906-5.0468 6.0559l-5.0468-4.3738c-1.5874 1.4493-4e-3 4.484 2.6915 8.0747l-7.4019 7.7384-11.776 2.6915-1.3458-4.0374-8.4111-5.7196h-4.0374l-3.3644-4.0375-2.6915-0.33679-3.3644-3.7008-3.3644 3.3645-6.3926 1.3458c-5.5451-2.7059-12.127-5.4204-11.439-8.0747l-3.7011-1.6822-7.0653-12.112-8.0747-3.0281-4.3738-5.7196-2.0187 2.0187-2.3551-5.3832 3.7009-1.6822 4.3738-4.7103 6.729 3.7008 7.0655 5.7196 2.0187 4.0375 5.0468 5.0468z" fill="#c2f0c2" />
  <path id="komaram bheem" class="enabled" d="m136.64 128.85 3.0281-1.0093-2.6916-2.3551 2.0188-3.3644 1.0093-3.7009 0.33604-4.3738 6.056 3.0281-0.33604 1.6822 5.3832-0.67282 4.7102 4.7102 2.0187-1.6822 3.0281 3.7008 3.7009-1.3457 0.33678-3.7009h3.0281c-1.1682 2.6697 1.1801 4.1674 5.3832 5.0467l1.3458-5.7196 5.0468-2.0187 4.3738-1.0093 1.6822-1.6822 5.0468 3.3644 5.7196 6.3926 3.3645 1.6822 3.3645 3.0281 2.0187 2.6915 1.3458 5.0468-1.3458 5.7196 1.3458 2.0187-4.7102 3.0281v10.766l-5.7196-1.0094-7.7383 2.3551 0.33679-3.7009h-10.43l-13.794-9.4204c-1.4807 0.87718 1.151 5.1534 3.3645 9.0841l-4.7103-0.67282-2.0187 3.3644-11.103-6.3925-1.6822 2.6915-1.3458 5.3832-3.0281 4.3738-4.3738-0.33604-1.6822 3.7008-3.7009 1.0094-5.0468-5.0468-2.0187-4.0375-13.794-9.4204-5.7196-3.7009-3.0281-6.729-7.0653-3.3644 6.3926-4.0375 3.3645-0.67282 2.6915-4.7103 4.7102 0.67284-1.0094-7.402 9.084 1.0094 5.0468 2.6915 5.3832 4.0374z" fill="#a3b0a3" />
 </g>
 <g fill="none" stroke="#000">
  <path d="m73.049 26.721-3.5231 5.8719 2.9359 5.8718-1.7616 3.8167-4.6975 3.5231 0.58718 3.2295-3.2295 7.3398 2.9359 3.2295-3.2295 1.468 0.88078 1.7615h2.0551l2.6423 2.6423v2.0551l-4.4039 0.58719-1.7616 2.9359-0.88077 2.3487-2.0551 1.1744 2.9359 6.1654-2.0551 4.4039 0.58719 2.6423-2.0551 2.0551-2.0551 4.1103 0.88078 3.5231-2.9359 0.58719-1.1744 2.3487v1.7616l-2.9359 2.9359-2.0551 3.2295 3.2295 5.8718-0.29359 1.1744-0.58718 1.1744-1.468 2.6423 0.88078 3.8167 2.9359 1.7616 0.29359 1.7615 1.468 0.58718 1.1744 3.2295 3.2295 0.29358 0.29359 4.9911 2.0551 2.3487v1.7615l1.7616 2.3488-0.58719 1.468 2.0551 4.1103-0.58718 0.88078 1.7616 1.7615-0.88078 2.0552v2.0552l3.8167 7.0462-1.468 1.7616 1.1744 4.991-0.58718 2.3488 0.58718 9.3949 1.468 4.6975-0.58718 1.468 0.88078 6.1654-2.0551 5.8718 1.7615 3.2295-0.29359 4.1103" stroke-width=".5px"/>
  <path d="m144.42 87.202 5.5501 1.7344-1.0406 7.2845h-3.8157l-1.7344 1.3875-1.3875 2.4282-2.775 5.5501v3.1219l-3.1219 5.5501-3.1219 1.7344-3.8157 1.0406-3.4688 2.4282-2.775 1.0406-2.0813 2.0813-0.69375 3.4688 2.0813 3.1219 0.69375 2.0813v2.0813l-2.4282 1.0406-2.0813-0.34687-2.4282 2.4282-0.69375 1.7344-4.8563 3.1219-2.4282 3.4688-4.8563 1.3875-2.775 2.0813-1.0406 4.1626 1.7344 3.4688v2.775l-2.0813 3.8157-3.8157 2.775-2.4282 2.4282-3.4688 1.3875-2.775 2.775-2.0813 1.7344-1.0406 3.4688-3.1219 3.8157-2.0813 3.1219-1.7344 2.4282 0.34688 4.5094-3.4688 3.4688-0.34688 4.5094-2.775 6.5907" stroke-width=".5px"/>
  <path d="m144.42 87.106-12.089 0.31476-8.0594-3.1477-1.679-4.092-1.0074-2.5181-5.3729-6.2953-14.104-5.9806-2.6865 1.5738-2.6865 2.8329-3.0223 2.5181h-9.4026l-4.3655-0.62953h-8.0594l-5.3729-0.31477-4.0297-0.31476" stroke-width=".5px"/>
  <path d="m72.476 38.52 10.671 2.4916 7.5727 8.0977 5.8516-2.1802 1.7211 0.31145 2.4095 3.1145h2.0653l3.4421-0.6229 2.4095-3.426 1.3768-0.93434 8.6053-0.31145 6.5401 2.8031 3.0319 0.78406h1.695l1.6951 0.87641v1.9719l2.4215 1.7528h2.1794l1.2107 0.8764 2.6636 3.2865 1.2108 1.9719 0.72646 3.0674 0.48429 2.6292 3.6322 7.4495v7.4495l-1.2108 3.5056-0.46428 3.6215" stroke-width=".5px"/>
 </g>
 <g fill-rule="evenodd" stroke-width=".53843">
  <ellipse cx="73.984" cy="25.684" rx="3.1295" ry="3.2749"/>
  <ellipse cx="62.29" cy="71.784" rx="3.1295" ry="3.2749"/>
  <ellipse cx="144.16" cy="86.898" rx="3.1295" ry="3.2749"/>
  <ellipse cx="131.31" cy="49.112" rx="3.1295" ry="3.2749"/>
  <ellipse cx="70.099" cy="205.04" rx="3.1295" ry="3.2749"/>
 </g>
 <g fill="#000000" font-family="sans-serif" font-size="3.5279px" letter-spacing="0px" stroke-width=".26459" word-spacing="0px">
  <text x="67.050339" y="19.924387" style="line-height:1.25" xml:space="preserve"><tspan x="67.050339" y="19.924387" font-size="5.6446px" stroke-width=".26459">Adilabad</tspan></text>
  <text x="31.213137" y="71.838089" style="line-height:1.25" xml:space="preserve"><tspan x="31.213137" y="71.838089" font-size="5.6446px" stroke-width=".26459">Nirmal</tspan></text>
  <text x="139.72949" y="48.058262" style="line-height:1.25" xml:space="preserve"><tspan x="139.72949" y="48.058262" font-size="5.6446px" stroke-width=".26459">Asifabad</tspan></text>
  <text x="150.11224" y="83.895462" style="line-height:1.25" xml:space="preserve"><tspan x="150.11224" y="83.895462" font-size="5.6446px" stroke-width=".26459">Mancherial</tspan></text>
  <text x="77.433075" y="204.46919" style="line-height:1.25" xml:space="preserve"><tspan x="77.433075" y="204.46919" font-size="5.6446px" stroke-width=".26459">Hyderabad</tspan></text>
 </g>
</svg>
