<svg width="204.82mm" height="111.93mm" version="1.1" viewBox="0 0 204.81848 111.93248" xmlns="http://www.w3.org/2000/svg" xmlns:cc="http://creativecommons.org/ns#" xmlns:dc="http://purl.org/dc/elements/1.1/" xmlns:rdf="http://www.w3.org/1999/02/22-rdf-syntax-ns#">
 <g transform="translate(-3.535 -100.7)" stroke="#fff" stroke-width=".5">
  <path id="Nizamabad" class="enabled" d="m19.053 132.74-1.5998-5.9423 2.2855-2.2855 2.7426-0.91421 2.2855-6.8564h3.6568l2.9711 0.22878 0.91419-3.8854h3.8853l1.3713-4.1138 3.8853-0.22878 2.2855-1.8283 1.5998-2.057 5.9423 0.22828v3.6568l3.6568-0.22828 2.514-3.1997 4.571 3.8853 3.4283-1.5998 2.057 0.68567-1.1427 2.514 1.8283 4.1138 1.1427 4.3425 0.22858 2.9711 4.571 0.91415 2.514 7.085-0.4571 2.057-6.6279 2.514-1.5998 6.628-2.514 1.3713-0.9142-1.8284-5.4851-0.45704-1.1428 1.3713-1.3713-1.8284-3.8853 1.5998-1.8285-0.22878-1.5998-2.2855-2.9711-1.3713-2.514 1.8283-5.2566-2.2855-1.5998 0.68562-1.3713 4.1138-4.1138-2.7426-10.97-2.057z" fill="#a69d98" />
  <path id="Jagtial" class="enabled" d="m74.361 106.92 2.7426-3.4283 3.1997 0.68569 2.2855 0.91416 4.571-2.9712 2.7426 1.8284 5.0281-2.9712 5.4851 2.057 3.8853 5.4851 0.91418 2.7426 2.5141 1.1427 1.5998 2.2855 6.1708 3.1996-3.6568 4.3424-5.0281-1.3713-2.057 6.3993-2.2855 1.3714-1.5998-0.91421-1.8283 1.1427-1.8283-2.7426-2.2855 1.5998v5.0281l-1.5998 0.91419-3.1997-1.5998h-2.057l-2.7426-1.5998-2.514 0.68563-4.571-2.2855-1.5998 1.3713-2.514-7.085-4.571-0.91421c-0.75572-5.854-1.8093-9.749-3.1996-11.427l1.1427-2.514z" fill="#85c5e3" />
  <path id="Peddapalle" class="enabled" d="m111.85 122.23 3.6568-4.3425 4.3425-0.91421 2.2855-2.2855 2.2855 2.514 1.8283 0.22876 2.2855 2.7426h2.7426l5.7136 3.8853 0.91419 2.7426 7.9993-1.8283 1.5998 2.514-2.7427 6.3993-3.1996-0.45704-3.6568 6.8564-4.571 1.1427v4.3424l-6.1708 0.22878-10.742-7.085-3.8853 2.514-1.8283-3.6568 0.22853-3.4283-3.626-4.4193-2.5448-2.6656 2.057-6.3993z" fill="#e7de69" />
  <path id="Jaya Shankar" class="enabled" d="m133.78 156.05-2.057-4.1138 1.5998-6.1708v-4.3425l4.571-1.1428 3.6568-6.8564 3.1996 0.45704 2.7427-6.3993-1.5998-2.514 2.057-2.2855 2.9712-2.9711-2.057-3.4283 0.22827-2.0569 3.4283 2.9712 1.5998 2.2855 5.9423 2.2855 5.2566 4.7995 4.3424-0.22878 0.9142 1.3713 1.5998-1.8283 3.1996-0.22878 1.1428-1.5998 2.9711 5.9423 0.91416 2.2855h3.1997l3.4283-2.514 3.1996 1.5998 5.7137 4.1139 2.9712 3.6568 3.6568 2.7426v2.2855l2.0569 1.5998 0.68567 4.7995c2.0566 3.9921-1.1056 3.4078-0.22878 6.3993l2.9712 3.8853-2.2855 3.8853-2.7427-2.057c-3.3816 1.3527-8.2101 3.284-5.7136 2.2855-2.6063 5.2586-6.2375 2.0603-9.3706 2.9712l-3.8853-1.5998-4.7997 6.1708-8.4563-3.8854-2.9711-2.7426-4.1139 1.5998-2.2855-1.8284-7.5421 1.1427-5.7138-1.5998 2.2855-3.1997-4.1138-2.057h-2.514l-2.514-5.4851-2.514 2.057z" fill="#a3b0a3" />
  <path id="Kamareddy" class="enabled" d="m8.7678 134.57 3.6568 0.68561 3.6568-1.1427 2.2855 0.22828 0.68564-1.5998 1.3713 2.7426v1.8283l3.6568 0.68567h2.514l4.7995 1.3713 1.8283 1.8283 2.2855 0.91419 1.5998-2.9711-0.22852-1.1427 1.5998-0.68564 5.2566 2.2855 2.514-1.8283 2.9711 1.3713 1.5998 2.2855 1.8285 0.22828 3.8853-1.5998 1.3713 1.8283 1.1427-1.3713 5.4851 0.45706 0.91419 1.8283 2.514-1.3713 0.22853 2.057 1.3713 1.8283-1.8285 0.91419 0.68566 2.9712-0.91421 2.7426-1.5998 0.68569 2.9711 1.3713 0.9142 2.057-0.22853 3.1996-0.91421 0.68567-1.3713-0.91419-2.7426 2.514 0.4571 1.3713-2.057 0.45706-1.1427-0.45706v-2.2855h-1.1428v1.5998l-2.9711 0.68567-3.6568-5.2566-2.7426 3.6568-1.5998 0.68564-1.8283-2.514v-2.514l-2.9711 1.3713-0.4571 2.9711 1.1428 1.3714-0.91419 2.2855-1.8285 1.1427-2.057-1.8283-0.91419 1.3713-2.2855 0.45706-3.8853-1.5998-5.0281-0.22878 0.9142-2.514-2.7426-1.1427 0.9142-2.057-3.1996-1.8283-5.9423 0.68563-0.22853-1.3713-5.2566-4.571h-2.9711l-1.8283 2.9711 1.8283-2.9711-3.4283-3.1996-2.7426-1.3714 2.514-2.2855-0.9142-2.514 3.6568-1.1427-2.057-1.8283h2.057z" fill="#c2f0c2" />
  <path id="Jangaon" class="enabled" d="m96.987 188.05-0.22852-3.6568-8.9134-0.22827 5.0281-4.571h9.8276l4.571-7.9992 3.6568 0.45704 0.22853-5.7136 2.7426 0.45706 1.3713-4.114 10.513-2.7426 4.1138 3.8853-3.8853 2.2855-4.7995 4.114-3.4283-0.45706-3.1996 1.3713 0.68565 2.9712 3.1996 0.22878 3.4283 3.6568 0.91419-1.5998 2.057 2.057h4.571l0.22852 4.5709-2.514 9.142 6.3993 2.9711 1.3713 9.8276-5.9423-2.057-0.4571 2.2855-2.9711-1.1428-7.5421 0.91421-4.114 1.1427-0.68564-2.514-1.5998 2.057-2.514-2.7426-4.114-1.3714 1.5998-4.3425-4.3424-7.085-1.8283 1.5998z" fill="#e7de69" />
  <path id="Warangal" class="enabled" d="m133.78 156.05 5.0281 0.45704 2.514-2.057 2.514 5.4851 6.628 2.057-2.2855 3.1997 5.7138 1.5998 7.5421-1.1427-0.22878 4.1138-3.6568 5.0281 1.3713 5.0281-3.4283 0.22828-2.057 9.142-2.7426-0.68567-3.6568 2.514-6.6279-0.22828-3.8853 5.2567-9.3704-3.8854 3.6568-1.3713 0.22853-2.0569h5.2566l1.3713-6.3993-3.4283-3.1996 2.2855-4.3425 2.2855-6.1708-4.114-0.22878 1.3713-2.2855-1.1428-6.8565z" fill="#fcc" />
  <path id="Warangal urban" class="enabled" d="m121.22 170.22 8.6848-6.3993-1.3713-2.9711-2.7426-0.91421 5.9423-7.9992 3.1996 7.3136 1.1427 6.8564-1.3713 2.2855 4.114 0.22828-0.22878 3.6568-2.514 5.9423 1.5998 4.1138 0.45706 2.7426-1.8284 3.6568h-5.2566l-0.22853 2.057-2.9711-0.45704 1.5998-11.885h-4.571l-2.057-2.057-0.9142 1.5998-3.4283-3.6568-3.1996-0.22878-0.68564-2.9712 3.1996-1.3713z" fill="#abacda" />
  <path id="Siddipet" class="enabled" d="m69.79 156.05 5.2566-2.514 5.7138 2.7426 1.3713-1.8283 7.3136 2.057 3.1996-2.057 1.5998 2.2855 2.514-1.8283-0.4571-4.3425h2.514l-0.4571-4.7995 2.7426-2.2855 4.3425 2.2855-1.3713 3.6568 0.91419 4.1138-1.3713 2.514 3.1996 3.6568 5.2566-0.68563 3.1996 3.6568-1.3713 4.1139-2.7426-0.45705-0.22852 5.7137-3.6568-0.45706-2.2855 5.7138-2.2855 2.2855h-9.8276l-5.0281 4.571-1.5998 3.6568-3.6568 4.7994-2.057-0.22826-2.057 1.8284-3.6568-3.6568-2.514 2.2855-0.91419-2.057-2.514 1.1427-4.571-6.8565 5.7138-5.7138-3.8853-0.68564 1.3713-1.3713-0.68564-4.114 3.4283-3.4282z" fill="#f3d6e9" />
  <path id="Rajanna Sircilla" class="enabled" d="m67.962 141.43 1.5998-6.628 6.6279-2.514 2.057-3.4283 4.571 2.2855 2.514-0.68567 4.7995 1.5998 3.1997 1.5998 5.0281 12.113 0.4571 4.7995h-2.514l0.4571 4.3424-2.514 1.8283 0.22853-2.0569-1.8283-0.22828-3.1996 2.057-7.3136-2.057-1.3713 1.8283-5.7138-2.7426-5.2566 2.514-0.91419-2.057-2.9711-1.3713 2.514-3.4283-0.68566-2.9712 1.8283-0.91421z" fill="#dcc" />
  <path id="Karimnagar" class="enabled" d="m93.331 133.66 1.5998-0.91421v-5.0281l2.2855-1.5998 7.5421 1.1428 6.1708 7.085 1.5998 7.085 3.8853-2.514 10.742 7.085 6.1708-0.22878-1.5998 6.1708-5.9423 7.9993-6.1861 1.5537-4.3271 1.1888-3.1996-3.6568-5.2566 0.68567-3.1996-3.6568 1.3713-2.514-0.91419-4.1138 1.3713-3.6568-4.3425-2.2855-2.7426 2.2855z" fill="#c2f0c2" />
 </g>
 <g fill="none" stroke="#000">
  <path d="m60.431 111.88-0.26517-0.72922-0.53035-0.26518v-0.33146l0.72923-1.2596v-0.79552l1.1933-1.6573 0.19888-1.8562 0.33147-0.46405 0.19888-1.591 0.66293-0.59664 0.19888-0.53034 1.3259-1.127h0.79552l-0.06629-0.46405-0.39776-1.127 0.39776-0.72922-0.26517-1.0607 1.0607-1.7236 0.53035-1.8562 0.86181-1.127 0.53035-0.13259 1.0607-1.591 0.72923-0.66293 0.19888-0.86181 0.59664-1.8562 0.92811-0.39776 0.86181-0.9944 1.2596-1.9225 0.86181-0.59664 1.3922-0.19888 1.5247-0.72923 0.53035-1.127 1.1933-0.66293 0.66293-0.86181 1.0607-0.66293 0.59664-0.06629 0.33147-1.0607 0.86181-0.66293v-0.59664l-0.13259-0.39776 0.66294-1.591-0.46406-0.86181-0.06629-0.46405-0.9944-1.6573-0.06629-0.72923-0.66294-1.9225" stroke-width=".5px"/>
  <path d="m60.431 111.88h0.93852l0.76788-0.42659 1.1092-0.25596 1.5358-0.68256 2.6449 0.17064 0.93852-0.51192 2.3889-0.68255 1.2798-0.4266 1.6211-1.1092 1.0238-0.76788h0.76788l1.1945-0.68256 0.93852-0.34128 1.0238-0.25596 0.4266-0.0853h0.59724l0.59724-0.51192 2.6449-0.0853 0.93852-0.59724 0.68256-0.0853 1.7917-0.93851 1.2798-0.93852 1.5358-0.17064 1.5358 0.34128h0.34128l0.68256-0.93852 1.1945-0.34127 0.93852-0.93852 0.4266-0.68256 0.93851-0.42659 2.3036-2.389 0.59724-0.25596 1.2798-2.9009 2.6449-2.3036 1.4504-0.4266 1.6211-0.93852 1.7917-1.7064 0.8532-0.25596 3.2421-2.5596-0.34126-0.51192" stroke-width=".5px"/>
  <path d="m48.431 47.241 1.1206 2.6381 2.5613 2.3278v1.3967l1.4408 2.3278-0.9605 1.707 2.2412 3.2589-0.32017 1.8622 1.7609 0.9311-1.1206 2.1726v2.3278l1.921 2.0174 0.32017 2.1726 1.7609 1.5518-1.7609 1.0863 1.1206 5.1211-0.80042 1.3967 0.48025 2.6381v3.8796l0.16008 2.9485 0.32017 1.5518 1.2807 2.7933-0.64034 0.93111v1.2415l0.48025 1.8622 0.16008 4.19-1.4408 2.6381-0.16008 2.6381 1.2807 1.707" stroke-width=".5px"/>
  <path d="m30.913 22.8 2.5648 1.3578 2.263-0.15087 1.8104 3.0174 1.2069 0.15087 2.1122 3.9226-0.15087 0.90521-0.45261 1.0561v0.75434l-1.207 0.60348v0.75434l0.15087 1.5087 0.90521 2.4139 1.6596 1.3578 0.60347 1.3578 1.9613 1.6596 0.45261 1.6596 2.8665 0.4526 0.75434 0.90521v0.75434" stroke-width=".5px"/>
  <path d="m75.383 41.33 2.6241 0.21867-1.0934 2.8427-0.87469 2.1867 1.5307 4.5921-0.87469 2.4054 1.312 2.8427-0.21867 3.9361 1.312 4.3734 0.21867 2.6241 1.5307 1.9681" stroke-width=".5px"/>
  <path d="m47.817 45.892h3.2575l2.1215 0.62335 1.1223-0.30407 2.4089-0.31928 1.834-1.566 1.2729-0.16724 0.42429-0.94263 0.71171-0.77539h0.84858l1.4097-1.1099 2.2583 0.16724 1.9846 1.0947h2.2583l1.5603 0.47131 1.136 0.62335 2.9563-2.3566" stroke-width=".5px"/>
  <path d="m102.78 37.814 1.1245 2.5759 0.18743 2.5759 1.1244 1.387 0.56225 0.99073 0.93705 2.3777 0.18741 0.99073-0.93706 2.5759h-2.2489l-2.4363-0.39629-1.4993 2.1796-1.4993 0.79258v2.1796l-5.2475 3.3684-1.8741 2.9722-1.3119 0.99072-1.3119 0.99072h-1.1245l-4.6853 2.3777-1.8741 2.5759" stroke-width=".5px"/>
  <path d="m85.011 13.748-0.19937 3.4743 2.3924 6.4-2.1931 5.12-1.3956 0.91429-1.3956 6.9486-3.5887 2.56-0.59811 2.3772" stroke-width=".5px"/>
  <path d="m102.78 37.814-2.7084-2.8383-1.58-1.4192-2.0313-1.0644-4.5141-1.9513-2.7085-4.6123-2.0313-2.3061" stroke-width=".5px"/>
  <path d="m102.78 37.955-6.2522-1.4528-2.5871 2.9055-4.5275-0.48426-3.2339-0.24213-3.2339-0.48425-4.3119 0.96851" stroke-width=".5px"/>
  <path d="m110.6 85.261 1.8044-0.81097 2.5262-0.54065 1.0826-1.3516 0.84206-0.67581 0.96234-0.67581 1.2029-0.54065 1.2029-1.7571 1.2029-1.4868 0.96235-0.94613 0.72177-1.0813 1.3232-1.2165 1.0826-0.81097 1.0826-1.2165 1.3232-2.4329 1.2029-0.40548 0.60146-0.67581 1.4435-0.94613 2.5262-0.54065" stroke-width=".5px"/>
  <path d="m152.35 36.137-2.5334 5.5417v3.4834l-1.425 3.4834-4.75 3.1667-1.7417 0.31667-0.31667 0.95 0.79168 2.375v1.7417l-0.15833 2.5333-0.79168 2.375-2.375 1.7417-2.5334 1.2667-1.7417 0.475-1.1083 1.5833" stroke-width=".5px"/>
  <path d="m30.913 22.8 1.6016-1.708 1.2457-1.9215 0.53387-0.85401h0.88978l3.0253-1.4945 0.53387-0.85401 5.5166-2.989 3.2032-0.85401 11.567-3.416 2.8473 1.281 3.0253-1.708 2.3134 0.42701 0.88978 1.281 3.915 0.2135 6.0505 2.135 1.4236 0.2135 1.4236-0.64051 4.093 1.708" stroke-width=".5px"/>
  <path d="m120.85 24.092-1.4464 3.2545-1.0848 1.808-1.808 1.2656-2.3504 0.90402-2.1696 0.90402-1.4464 0.54241-1.2656 0.36161-1.6272 1.6272-1.0848 1.2656-2.5313 0.90402-1.2656 0.90402" stroke-width=".5px"/>
  <path d="m152.35 36.137-1.7672-0.44225-0.88359-0.14742h-1.7672l-3.0925 1.0319-1.1781-0.14742-1.6199-0.29483-0.73632-0.8845-0.58905-0.44225-0.29453-0.73708-0.88358-0.14742-0.44178 0.73708-0.44179 0.58967-1.1781 1.4742-0.73631-0.29484-0.88359-1.4742-0.44178-0.44225-0.73633-0.44225-0.44179-0.14742-0.44181-0.58967-0.58903-0.29483-0.88359-0.44225h-0.73633l-1.1781-0.73709-1.6199-0.8845-0.58906-0.14742v-1.4742l-0.58905-0.8845-1.3254-1.1793-1.6199-1.4742-2.0617-1.3268-1.7672-0.44225" stroke-width=".5px"/>
  <path d="m133.67 67.171-3.0419-2.0076 0.64041-0.71699-1.1207-1.0038-1.601-3.0114-2.5616-1.434-1.9212-0.43019-2.4015-4.0151-2.2414-3.2981-1.7611-2.4378-2.0813-1.5774-1.1207-0.57359-2.8818-2.868-1.4409-0.86039-2.4015-2.4378-3.3621-2.2944-1.601-0.43019" stroke-width=".5px"/>
  <path d="m110.94 85.773-0.84921-0.12591-0.60658-0.50364-2.0624-0.16788-1.941-0.33576-0.24264-0.37773-3.3968-0.50364-2.4263-0.58758-1.8197-0.08394-0.12132-0.54561-1.2132-0.50364-0.84919-1.8467-1.6984-1.1752-1.9411-0.75546-1.2131-0.37773-1.5771-1.0073-1.6984-0.54561-1.0918-0.37773-1.6984-0.4197-1.4558-0.62955" stroke-width=".5px"/>
 </g>
 <g fill-rule="evenodd" stroke-width=".58211">
  <circle cx="31.235" cy="22.562" r="1.6824"/>
  <circle cx="85.28" cy="13.592" r="1.6824"/>
  <circle cx="78.036" cy="41.374" r="1.6824"/>
  <circle cx="152.37" cy="36.174" r="1.6824"/>
  <circle cx="133.1" cy="67.069" r="1.6824"/>
  <circle cx="80.942" cy="69.363" r="1.6824"/>
  <circle cx="110.92" cy="85.116" r="1.6824"/>
  <circle cx="102.97" cy="37.857" r="1.6824"/>
  <circle cx="48.517" cy="46.574" r="1.6824"/>
 </g>
 <path d="m121.12 53.724 3.749-2.1274 0.68163-1.9638 4.4306-6.5459v-0.49094l-0.51121-0.3273 0.3408-1.6365h0.85205l-0.17042-3.2729-0.34082-0.3273 1.1929-1.4728-0.34082-0.81824-0.51124-0.65459-1.7041-3.1093" fill="none" stroke="#000" stroke-width=".5px"/>
 <circle cx="121.02" cy="23.721" r="1.6824" fill-rule="evenodd" stroke-width=".58211"/>
 <circle cx="59.854" cy="110.18" r="1.6824" fill-rule="evenodd" stroke-width=".58211"/>
 <g fill="#000000" font-family="sans-serif" font-size="3.5279px" letter-spacing="0px" stroke-width=".26459" word-spacing="0px">
  <text x="29.932503" y="109.93191" style="line-height:1.25" xml:space="preserve"><tspan x="29.932503" y="109.93191" font-size="4.9391px" stroke-width=".26459">Hyderabad</tspan></text>
  <text x="116.48181" y="88.912796" style="line-height:1.25" xml:space="preserve"><tspan x="116.48181" y="88.912796" font-size="4.9391px" stroke-width=".26459">Jangaon</tspan></text>
  <text x="137.00635" y="69.871956" style="line-height:1.25" xml:space="preserve"><tspan x="137.00635" y="69.871956" font-size="4.9391px" stroke-width=".26459">Warangal</tspan></text>
  <text x="156.54176" y="37.477783" style="line-height:1.25" xml:space="preserve"><tspan x="156.54176" y="37.477783" font-size="4.9391px" stroke-width=".26459">Bhupalpally</tspan></text>
  <text x="119.37724" y="18.474882" style="line-height:1.25" xml:space="preserve"><tspan x="119.37724" y="18.474882" font-size="4.9391px" stroke-width=".26459">Pedapalle</tspan></text>
  <text x="85.571335" y="70.613808" style="line-height:1.25" xml:space="preserve"><tspan x="85.571335" y="70.613808" font-size="4.9391px" stroke-width=".26459">Siddipet</tspan></text>
 </g>
 <path d="m85.011 13.619 1.2357-0.83305 1.5887 0.11901 2.6478 1.0711 2.1182 0.23802h1.0591l1.4122-0.35702 1.9417-0.35702h1.0591l1.4122-0.11901 0.88262 0.47603 3.0009 0.71405 1.5887 0.47603 1.5887 0.71405v0.83305l2.6478 0.83306 1.9417 0.11901 1.2356 0.95206 3.5304 1.3091 2.6478 0.59504 1.7652 1.3091 0.52956 2.3802" fill="none" stroke="#000" stroke-width=".5px"/>
 <g fill="#000000" font-family="sans-serif" font-size="3.5279px" letter-spacing="0px" stroke-width=".26459" word-spacing="0px">
  <text x="37.768387" y="21.804708" style="line-height:1.25" xml:space="preserve"><tspan x="37.768387" y="21.804708" font-size="4.9391px" stroke-width=".26459">Nizamabad</tspan></text>
  <text x="17.048889" y="49.804031" style="line-height:1.25" xml:space="preserve"><tspan x="17.048889" y="49.804031" font-size="4.9391px" stroke-width=".26459">Kamareddy</tspan></text>
  <text x="91.667076" y="33.284431" style="line-height:1.25" xml:space="preserve"><tspan x="91.667076" y="33.284431" font-size="4.9391px" stroke-width=".26459">Karimnagar</tspan></text>
  <text x="82.287308" y="7.9450445" style="line-height:1.25" xml:space="preserve"><tspan x="82.287308" y="7.9450445" font-size="4.9391px" stroke-width=".26459">Jagtial</tspan></text>
  <text x="61.147812" y="38.324306" style="line-height:1.25" xml:space="preserve"><tspan x="61.147812" y="38.324306" font-size="4.9391px" stroke-width=".26459">Sircilla</tspan></text>
 </g>
</svg>
