<svg width="197.01mm" height="134.12mm" version="1.1" viewBox="0 0 197.00539 134.11635" xmlns="http://www.w3.org/2000/svg">
 <g transform="translate(-7.7116 -62.876)" fill="#e7de69" stroke="#85c5e3" stroke-miterlimit="10" stroke-width="1.5">
  <polygon transform="matrix(.30551 0 0 .30551 -6.9025 54.68)" points="136.16 194.59 133.42 194.59 133.42 197.64 133.42 199.16 131.59 199.16 130.07 197.34 128.54 197.34 128.54 199.16 128.54 200.08 125.92 198.53 125.82 198.89 124.92 200.15 123.12 200.51 123.3 201.41 124.74 201.95 124.74 203.31 123.48 203.31 123.3 204.64 124.2 205.9 124.2 206.8 125.1 208.6 126.31 210.68 127.19 210.86 127.19 213.56 128.99 212.21 128.99 215 130.07 216.26 130.07 217.88 128.63 219.13 128.63 220.93 127.19 221.83 125.75 221.83 126.83 222.91 125.75 224.71 123.77 224.71 122.69 224.71 121.07 226.51 119.46 225.61 119.46 227.41 119.33 227.77 120.52 227.97 125.44 227.97 126.72 228.7 126.72 230.34 130.07 230.52 132.01 229.25 135.02 228.7 137.66 228.34 140.4 227.61 142.77 226.51 145.14 225.05 145.98 225.51 147.75 223.38 149.57 222.62 152.15 222.62 153.22 221.7 154.58 221.7 153.82 220.49 154.89 218.66 156.71 217.9 157.32 216.08 158.23 216.08 159.14 217.6 162.64 216.99 162.64 216.08 160.82 215.32 160.82 214.56 161.88 214.56 162.34 212.74 162.94 211.98 163.86 210.46 165.68 211.07 167.05 211.22 168.11 211.22 168.57 210.46 167.05 207.42 166.74 205.9 167.35 204.84 168.87 204.84 168.41 202.4 167.5 201.19 165.83 202.4 164.16 203.31 162.79 204.08 161.58 204.08 160.82 203.31 160.82 201.95 162.18 201.19 163.1 202.1 164.46 201.19 163.86 200.08 163.55 198.91 162.18 198.15 162.18 195.41 163.4 195.41 164.46 195.41 165.68 194.5 166.59 194.5 167.05 192.83 167.35 191.77 165.53 191.16 165.07 188.96 160.56 190.93 158.12 190.93 154.16 190.93 149.28 187.58 147.45 188.19 147.45 190.93 147.45 192.76 143.48 192.76 142.14 189.71 139.52 190.63 139.52 194.59 139.52 197.64 136.16 199.16 136.16 197.94"/>
  <polygon transform="matrix(.30551 0 0 .30551 -6.9025 54.68)" points="97.872 237.12 95.894 236.04 95.894 235.14 95.894 232.44 99.311 232.44 101.29 232.44 103.63 232.44 107.04 230.82 109.02 230.46 111 231.36 112.62 231.36 113.7 232.44 116.94 231.72 118.74 230.82 118.74 229.57 119.33 227.77 119.46 227.41 119.46 225.61 121.07 226.51 122.69 224.71 123.77 224.71 125.75 224.71 126.83 222.91 125.75 221.83 127.19 221.83 128.63 220.93 128.63 219.13 130.07 217.88 130.07 216.26 128.99 215 128.99 212.21 127.19 213.56 127.19 210.86 126.31 210.68 124.49 210.32 123.41 209.24 120.35 209.24 121.43 207.26 120.53 206.18 118.74 207.26 118.74 206 117.66 204.56 116.22 203.31 113.88 204.74 113.88 206.72 112.44 206.72 112.08 208.34 112.62 210.86 111 211.4 109.56 213.2 108.66 214.28 107.94 212.84 106.32 212.3 105.07 213.2 104.17 213.38 103.81 212.12 104.71 210.14 104.53 208.16 103.63 206.72 101.11 208.34 101.11 209.42 98.412 210.86 97.152 210.86 95.713 210.86 91.756 212.12 85.102 216.08 83.303 214.64 84.382 213.02 83.124 211.76 81.325 212.48 80.246 212.12 81.145 210.86 80.246 210.86 77.548 210.86 74.31 212.12 72.872 210.86 71.433 210.86 70.354 212.48 69.274 212.48 67.296 215 64.958 215.9 63.699 215 61.72 214.1 59.562 215 57.403 213.74 56.778 213.39 55.785 212.84 54.526 212.84 54.526 215 52.907 215.54 51.828 213.92 51.108 216.08 53.087 218.24 52.008 219.85 50.389 217.7 48.59 219.85 51.828 221.83 50.029 223.99 48.59 223.99 48.59 224.89 50.569 225.79 50.749 227.05 48.59 227.05 48.59 227.95 49.849 229.93 51.288 229.93 51.288 230.64 51.288 232.08 53.806 232.08 54.526 234.06 55.425 234.42 55.605 235.14 53.806 236.58 54.526 238.44 57.044 238.44 57.044 241.08 58.303 240.18 58.482 242.7 57.044 243.06 56.145 245.57 57.583 246.83 57.583 248.27 59.022 247.91 60.461 245.75 60.461 248.63 60.461 250.79 61.36 251.69 62.799 252.05 63.159 249.53 63.517 250.14 64.418 251.69 65.857 252.23 64.958 252.95 63.699 252.77 62.439 253.67 62.799 254.57 60.461 255.82 63.339 257.08 66.756 256.36 66.756 258.34 64.058 260.86 61.54 263.92 61.54 267.52 60.461 269.85 60.461 270.93 61.181 272.01 61.181 274.17 62.439 276.87 60.461 279.03 60.461 280.47 61.9 282.8 63.159 282.8 61.9 285.14 63.878 286.58 64.598 288.38 65.677 288.92 65.857 292.7 64.778 296.11 64.598 299.17 64.238 300.97 61.9 301.87 63.339 304.57 62.799 306.55 61.9 307.8 62.979 309.96 62.979 310.86 64.058 310.14 65.137 308.7 65.857 306.55 66.756 306.55 66.756 303.85 65.137 303.85 66.217 303.13 66.217 301.33 69.814 299.71 72.512 299.71 74.31 298.99 76.289 298.99 77.008 297.01 78.987 297.73 80.605 295.93 80.785 294.68 80.246 293.24 78.807 292.16 77.548 292.16 75.749 290.18 74.31 288.92 73.411 288.92 73.411 286.94 72.512 285.5 71.073 284.42 70.713 282.8 68.915 281.01 68.915 279.39 71.433 280.29 73.051 278.49 75.03 276.15 75.03 273.63 75.03 271.65 75.929 271.65 77.188 269.5 79.167 269.5 79.167 268.6 80.785 267.88 82.404 265.18 80.785 263.92 82.224 262.66 83.843 263.92 84.742 262.3 86.181 260.68 87.44 260.68 88.519 259.42 89.778 258.34 90.857 256.9 93.195 256 93.195 255.18 93.195 254.39 95.894 252.59 97.872 252.59 98.231 251.33 98.951 249.35 99.311 246.29 98.052 246.29 96.792 244.85 98.052 244.85 98.591 242.7 97.332 242.7 95.894 241.98 98.231 239.46 99.311 237.12"/>
  <polygon transform="matrix(.30551 0 0 .30551 -6.9025 54.68)" points="80.246 212.12 81.325 212.48 83.124 211.76 84.382 213.02 83.303 214.64 85.102 216.08 91.756 212.12 95.713 210.86 97.152 210.86 98.412 210.86 101.11 209.42 101.11 208.34 103.63 206.72 104.53 208.16 104.71 210.14 103.81 212.12 104.17 213.38 105.07 213.2 106.32 212.3 107.94 212.84 108.66 214.28 109.56 213.2 111 211.4 112.62 210.86 112.08 208.34 112.44 206.72 113.88 206.72 113.88 204.74 116.22 203.31 117.66 204.56 118.74 206 118.74 207.26 120.53 206.18 121.43 207.26 120.35 209.24 123.41 209.24 124.49 210.32 126.31 210.68 125.1 208.6 124.2 206.8 124.2 205.9 123.3 204.64 123.48 203.31 124.74 203.31 124.74 201.95 123.3 201.41 123.12 200.51 124.92 200.15 125.82 198.89 125.92 198.53 126.54 196.37 129.06 195.11 129.24 190.97 127.44 191.51 127.08 190.61 124.74 190.08 122.94 191.15 120.42 190.79 121.32 189.36 118.8 187.92 119.7 185.94 118.44 185.22 118.62 183.96 118.08 183.24 120.24 183.24 122.04 181.89 122.94 181.89 122.58 184.5 124.02 185.04 126 185.22 128.52 184.14 130.07 184.86 130.07 186.66 131.75 186.66 131.75 184.68 133.01 184.68 133.19 186.12 134.63 185.76 134.63 184.5 135.71 184.32 135.71 185.22 136.97 185.4 136.97 183.96 137.87 181.89 137.87 180.54 136.43 178.02 136.97 175.15 136.97 174.07 134.27 170.83 132.83 168.85 132.83 166.87 131.93 164.53 131.93 163.09 133.19 161.84 132.65 160.04 134.46 157.08 134.63 156.8 124.38 148.7 122.22 148.7 118.44 148.7 116.82 150.5 116.82 152.12 112.33 155 108.73 153.56 105.49 153.56 103.15 155.36 102.08 156.8 100.82 159.5 100.82 163.45 93.195 165.97 86.247 167.95 82.829 167.95 78.152 169.03 78.152 168.31 71.677 168.31 67.54 166.15 67.54 170.65 68.979 172.45 67.54 173.89 68.26 175.33 68.799 176.94 67.54 177.84 66.281 178.92 67.181 180.18 68.62 180.18 68.439 181.44 67.9 182.7 68.761 183.35 69.339 183.78 66.281 184.68 67.54 185.94 67.54 187.74 66.281 188.82 67.181 189.9 66.281 191.33 66.281 192.77 66.281 194.03 66.281 195.83 67.181 195.83 67.36 197.45 67.36 198.71 66.281 199.79 66.281 201.23 64.842 202.13 66.281 203.31 64.123 203.31 63.043 204.46 63.943 204.46 65.562 204.46 66.281 205.54 65.022 206.44 63.043 206.44 63.043 207.52 61.964 207.52 61.964 209.5 60.885 207.7 59.626 209.5 57.827 210.22 57.827 212.02 56.778 213.39 57.403 213.74 59.562 215 61.72 214.1 63.699 215 64.958 215.9 67.296 215 69.274 212.48 70.354 212.48 71.433 210.86 72.872 210.86 74.31 212.12 77.548 210.86 80.246 210.86 81.145 210.86"/>
  <polygon transform="matrix(.30551 0 0 .30551 -6.9025 54.68)" points="135.71 185.22 135.71 184.32 134.63 184.5 134.63 185.76 133.19 186.12 133.01 184.68 131.75 184.68 131.75 186.66 130.07 186.66 130.07 184.86 128.52 184.14 126 185.22 124.02 185.04 122.58 184.5 122.94 181.89 122.04 181.89 120.24 183.24 118.08 183.24 118.62 183.96 118.44 185.22 119.7 185.94 118.8 187.92 121.32 189.36 120.42 190.79 122.94 191.15 124.74 190.08 127.08 190.61 127.44 191.51 129.24 190.97 129.06 195.11 126.54 196.37 125.92 198.53 128.54 200.08 128.54 199.16 128.54 197.34 130.07 197.34 131.59 199.16 133.42 199.16 133.42 197.64 133.42 194.59 136.16 194.59 136.16 197.94 136.16 199.16 139.52 197.64 139.52 194.59 139.52 190.63 142.14 189.71 143.48 192.76 147.45 192.76 147.45 190.93 147.45 188.19 149.28 187.58 154.16 190.93 158.12 190.93 160.56 190.93 165.07 188.96 165.44 188.8 165.44 186.97 166.66 186.97 168.18 183.92 170.93 182.39 172.76 178.73 172.76 177.21 172.76 177.12 172.76 173.55 174.59 173.55 174.59 169.28 177.33 167.45 177.33 164.71 178.51 163.14 179.16 162.27 171.54 163.49 163.61 163.79 156.29 163.79 153.85 165.01 151.72 164.4 149.89 162.88 147.14 163.18 145.62 160.74 143.33 160.74 137.87 158.61 136.47 157.08 134.46 157.08 132.65 160.04 133.19 161.84 131.93 163.09 131.93 164.53 132.83 166.87 132.83 168.85 134.27 170.83 136.97 174.07 136.97 175.15 136.43 178.02 137.87 180.54 137.87 181.89 136.97 183.96 136.97 185.4"/>
  <polygon transform="matrix(.30551 0 0 .30551 -6.9025 54.68)" points="216.11 182.45 211.66 182.35 209.68 179.19 208.4 178.58 208.36 178.6 208.08 180.82 206.71 183.1 209.29 182.39 210.51 182.39 209.6 184.02 208.08 185.08 206.86 185.69 207.93 186.45 210.51 186.45 212.94 186.9 212.94 189.18 210.66 189.79 209.75 191.01 207.47 192.22 207.47 194.65 209.14 195.56 210.51 196.79 208.99 198.3 208.53 200.08 207.32 200.08 207.17 202.1 205.8 203.31 206.71 205.44 207.93 206.96 206.25 208.36 207.01 210 208.23 211.37 210.36 209.55 210.66 212.13 211.57 214.26 209.75 214.26 210.2 216.08 208.53 216.99 208.38 218.36 208.84 220.03 206.86 221.4 205.34 220.64 204.43 221.55 204.43 222.92 206.71 222.92 206.71 225.05 205.34 225.05 203.37 226.26 204.13 228.24 205.49 228.24 207.17 229.15 208.08 230.52 206.86 231.28 206.25 232.8 205.25 232.8 209.83 234.45 212.94 234.45 215.08 233.7 217.53 233.7 218.58 233.95 221.08 236.7 223.58 237.2 225.08 236.45 225.33 233.2 224.58 230.52 223.58 229.45 225.08 228.45 225.83 226.2 223.58 223.7 225.33 222.2 226.58 223.2 228.33 221.45 228.33 218.7 228.33 216.7 233.58 216.7 232.33 212.03 236.33 210.2 236.33 207.86 237.33 204.95 238.58 203.7 238.58 201.95 240.33 200.08 238.58 196.79 239.83 194.75 238.58 193.2 240.33 192.95 240.33 190.45 240.33 188.95 243.08 187.58 243.08 185.72 242.92 185.81 242.22 184.23 238.76 183.84 237.28 186.9 235.4 187.1 232.63 184.33 227.39 186.21 223.23 186.5 221.35 187.69 220.07 190.96 217.1 192.34 215.72 191.85 214.83 189.37 216.7 183.04"/>
  <polygon transform="matrix(.30551 0 0 .30551 -6.9025 54.68)" points="168.48 239.28 168.84 240.92 173.22 241.65 175.04 241.46 176.69 242.01 176.95 242.17 181.79 239.18 183.46 239.18 183.46 237.66 184.52 239.18 186.8 238.44 188.32 236.14 189.69 234.77 192.27 233.79 194.1 234.77 197.14 234.77 198.35 233.86 200.94 232.8 203.67 232.8 205.25 232.8 206.25 232.8 206.86 231.28 208.08 230.52 207.17 229.15 205.49 228.24 204.13 228.24 203.37 226.26 205.34 225.05 206.71 225.05 206.71 222.92 204.43 222.92 204.43 221.55 205.34 220.64 206.86 221.4 208.84 220.03 208.38 218.36 208.53 216.99 210.2 216.08 209.75 214.26 211.57 214.26 210.66 212.13 210.36 209.55 208.23 211.37 207.01 210 206.25 208.36 207.93 206.96 206.71 205.44 205.8 203.31 207.17 202.1 207.32 200.08 208.53 200.08 208.99 198.3 210.51 196.79 209.14 195.56 207.47 194.65 207.47 192.22 209.75 191.01 210.66 189.79 212.94 189.18 212.94 186.9 210.51 186.45 207.93 186.45 206.86 185.69 208.08 185.08 209.6 184.02 210.51 182.39 209.29 182.39 206.71 183.1 208.08 180.82 208.36 178.6 205.13 179.88 203.85 179.58 201.87 174.83 199.1 173.55 198.01 173.94 198.01 177.6 199.2 184.13 198.8 185.91 196.23 187 194.15 188.38 188.02 184.72 186.83 184.72 185.05 186.31 182.58 190.16 181.2 190.66 181.2 189.37 182.18 185.32 181.2 184.13 178.62 185.62 176.94 186.41 176.05 185.22 176.05 183.64 177.14 179.88 177.14 178.58 176.05 177.7 172.76 177.12 172.76 177.21 172.76 178.73 170.93 182.39 168.18 183.92 166.66 186.97 165.44 186.97 165.44 188.8 165.07 188.96 165.53 191.16 167.35 191.77 167.05 192.83 166.59 194.5 165.68 194.5 164.46 195.41 163.4 195.41 162.18 195.41 162.18 198.15 163.55 198.91 163.86 200.08 164.46 201.19 163.1 202.1 162.18 201.19 160.82 201.95 160.82 203.31 161.58 204.08 162.79 204.08 164.16 203.31 165.83 202.4 167.5 201.19 168.41 202.4 168.87 204.84 167.35 204.84 166.74 205.9 167.05 207.42 168.57 210.46 168.11 211.22 167.05 211.22 165.68 211.07 163.86 210.46 162.94 211.98 162.34 212.74 161.88 214.56 160.82 214.56 160.82 215.32 162.64 216.08 162.64 216.99 159.14 217.6 158.23 216.08 157.32 216.08 156.71 217.9 154.89 218.66 153.82 220.49 154.58 221.7 153.22 221.7 152.15 222.62 149.57 222.62 147.75 223.38 145.98 225.51 147.14 226.15 149.15 228.7 149.15 230.71 150.61 233.08 150.79 234.9 151.88 234.9 152.8 236.72 156.81 236.72 159.91 236.72 162.1 237.27 163.19 238.44 165.02 238.44 165.38 239.82 166.66 238.44"/>
  <polygon transform="matrix(.30551 0 0 .30551 -6.9025 54.68)" points="181.61 245.11 179.06 245.11 178.51 243.11 176.95 242.17 176.69 242.01 175.04 241.46 173.22 241.65 168.84 240.92 168.48 239.28 166.66 238.44 165.38 239.82 165.02 238.44 163.19 238.44 162.1 237.27 159.91 236.72 156.81 236.72 152.8 236.72 151.88 234.9 150.79 234.9 150.61 233.08 149.15 230.71 149.15 228.7 147.14 226.15 145.98 225.51 145.14 225.05 142.77 226.51 140.4 227.61 137.66 228.34 135.02 228.7 132.01 229.25 130.07 230.52 126.72 230.34 126.72 228.7 125.44 227.97 120.52 227.97 119.33 227.77 118.74 229.57 118.74 230.82 116.94 231.72 113.7 232.44 112.62 231.36 111 231.36 109.02 230.46 107.04 230.82 103.63 232.44 101.29 232.44 99.311 232.44 95.894 232.44 95.894 235.14 95.894 236.04 97.872 237.12 99.311 237.12 98.231 239.46 95.894 241.98 97.332 242.7 98.591 242.7 98.052 244.85 96.792 244.85 98.052 246.29 99.311 246.29 98.951 249.35 98.231 251.33 97.872 252.59 95.894 252.59 93.195 254.39 93.195 255.18 94.806 254.6 95.535 255.69 97.541 256.05 97.541 257.08 99 257.08 99 256.05 101.37 255.14 101.37 257.08 112.5 254.41 113.22 252.59 114.68 251.68 116.87 249.85 118.88 249.85 120.15 249.85 122.34 250.77 122.34 252.41 123.62 252.59 129.09 249.85 130.07 251.13 131.28 251.13 132.19 254.78 134.38 256.24 133.65 259.15 132.19 259.15 132.19 263.17 136.02 261.07 135.29 259.52 138.39 258.61 137.48 257.08 139.12 256.24 140.76 257.08 143.5 258.97 140.76 261.07 142.22 263.53 143.68 263.53 143.68 261.07 148.42 259.52 149.51 257.88 152.62 257.08 153.89 257.08 155.53 256.24 156.44 257.08 154.8 258.42 156.44 259.7 155.53 261.49 157.17 261.49 157.17 262.25 159 262.25 159.91 259.88 162.28 257.08 164.83 258.42 165.74 258.42 168.3 258.42 169.94 258.42 171.22 259.88 173.95 262.16 173.22 258.42 175.04 258.42 176.14 258.42 177.6 260.25 178.51 262.8 178.51 264.99 178.51 265.9 180.7 264.99 182.89 264.99 184.35 264.99 184.4 264.9 185.99 262.07 186.9 260.43 186.9 259.15 188.18 257.08 189.45 255.51 191.09 254.96 191.09 252.59 191.09 251.13 191.09 249.31 190 248.21 187.99 247.3 186.72 247.67 185.62 246.94 183.43 247.12"/>
  <polygon transform="matrix(.30551 0 0 .30551 -6.9025 54.68)" points="261.02 187.79 259.43 187.1 259.93 185.81 259.43 185.81 259.43 184.82 258.25 184.82 259.43 183.04 257.75 181.96 259.43 181.46 258.74 180.08 259.43 180.08 257.56 178.58 258.84 177.7 258.84 175.43 258.15 174.74 258.84 173.75 258.35 171.27 257.65 169.59 256.47 167.61 255.97 165.64 255.97 163.76 255.04 161.23 254.57 161.3 253.5 161.48 247.27 159.7 243.9 161.58 239.26 162.57 235.89 163.06 233.42 163.06 229.86 161.58 224.82 157.52 221.65 162.67 217.4 164.35 213.44 163.76 211.46 161.98 207.9 160.59 203.45 160.59 198.6 160.89 193.16 159.01 188.42 163.86 182.78 162.57 180.5 162.47 178.51 163.14 177.33 164.71 177.33 167.45 174.59 169.28 174.59 173.55 172.76 173.55 172.76 177.12 176.05 177.7 177.14 178.58 177.14 179.88 176.05 183.64 176.05 185.22 176.94 186.41 178.62 185.62 181.2 184.13 182.18 185.32 181.2 189.37 181.2 190.66 182.58 190.16 185.05 186.31 186.83 184.72 188.02 184.72 194.15 188.38 196.23 187 198.8 185.91 199.2 184.13 198.01 177.6 198.01 173.94 199.1 173.55 201.87 174.83 203.85 179.58 205.13 179.88 208.36 178.6 208.4 178.58 209.68 179.19 211.66 182.35 216.11 182.45 216.7 183.04 214.83 189.37 215.72 191.85 217.1 192.34 220.07 190.96 221.35 187.69 223.23 186.5 227.39 186.21 232.63 184.33 235.4 187.1 237.28 186.9 238.76 183.84 242.22 184.23 242.92 185.81 243.08 185.72 244.7 184.82 245.59 185.52 244.7 189.18 245.88 191.15 245.88 192.84 248.36 190.46 252.81 196.79 255.18 196.79 260.03 192.44 262.18 192.91 262.3 192.94 262.15 192.27 261.71 190.26 261.02 189.28"/>
  <polygon transform="matrix(.30551 0 0 .30551 -6.9025 54.68)" points="263.83 217.45 265.58 215.7 265.58 213.7 265.58 210.2 264.33 209.05 263.58 207.86 262.3 207.86 260.83 203.95 260.08 201.7 260.83 200.08 262.3 200.08 262.3 197.95 262.3 196.79 262.18 192.91 260.03 192.44 255.18 196.79 252.81 196.79 248.36 190.46 245.88 192.84 245.88 191.15 244.7 189.18 245.59 185.52 244.7 184.82 243.08 185.72 243.08 187.58 240.33 188.95 240.33 190.45 240.33 192.95 238.58 193.2 239.83 194.75 238.58 196.79 240.33 200.08 238.58 201.95 238.58 203.7 237.33 204.95 236.33 207.86 236.33 210.2 232.33 212.03 233.58 216.7 228.33 216.7 228.33 218.7 228.33 221.45 226.58 223.2 225.33 222.2 223.58 223.7 225.83 226.2 225.08 228.45 223.58 229.45 224.58 230.52 225.33 233.2 225.08 236.45 223.58 237.2 221.08 236.7 218.58 233.95 217.53 233.7 215.08 233.7 212.94 234.45 209.83 234.45 205.25 232.8 203.67 232.8 200.94 232.8 198.35 233.86 197.14 234.77 194.1 234.77 192.27 233.79 189.69 234.77 188.32 236.14 186.8 238.44 184.52 239.18 183.46 237.66 183.46 239.18 181.79 239.18 176.95 242.17 178.51 243.11 179.06 245.11 181.61 245.11 183.43 247.12 185.62 246.94 186.72 247.67 187.99 247.3 190 248.21 191.09 249.31 191.09 251.13 191.09 252.59 191.09 254.96 189.45 255.51 188.18 257.08 186.9 259.15 186.9 260.43 185.99 262.07 184.4 264.9 185.33 265.9 184.83 267.7 182.83 267.7 182.58 270.2 181.33 271.95 182.33 271.95 183.58 271.95 186.08 270.2 189.08 268.95 189.33 270.7 186.83 271.95 187.58 273.7 191.09 272.2 193.58 270.95 196.58 269.45 199.83 270.2 201.83 268.7 203.08 270.7 201.33 272.45 200.83 275.2 199.33 278.2 200.83 279.45 200.58 282.7 202.33 283.95 204.83 283.95 206.58 282.7 207.33 281.45 209.33 280.95 216.08 271.2 220.08 271.95 225.33 269.7 227.33 271.45 229.58 269.95 232.83 268.95 234.83 268.45 235.83 268.2 236.58 265.9 231.08 267.45 230.83 265.9 233.08 265.9 236.83 260.7 232.83 261.95 234.83 259.7 235.33 257.7 238.33 254.95 239.33 252.45 241.08 251.2 240.33 249.7 243.08 249.95 245.83 249.95 246.58 251.2 245.58 253.95 246.58 256.2 247.83 257.7 246.33 259.7 243.83 259.45 243.83 260.7 248.58 264.2 250.58 263.95 253.08 260.2 255.58 259.7 255.58 256.95 255.58 250.7 256.83 246.7 259.33 245.48 259.29 245.46 250.58 242.17 246.83 239.95 243.08 238.44 243.08 233.7 245.58 231.7 252.58 227.95 252.83 225.05 254.57 222.45 256.08 223.95 258.08 225.05 262.14 225.05 262.3 225.05 262.3 222.45 262.3 217.45"/>
  <polygon transform="matrix(.30551 0 0 .30551 -6.9025 54.68)" points="291.09 190.53 291.09 193.76 292.63 194.75 295.16 194.75 295.58 193.34 296.29 189.55 294.6 187.86 292.77 187.86 291.79 186.45 291.09 183.92 291.79 182.8 293.06 179.99 295.58 177.88 300.08 176.19 303.32 175.35 305.43 175.63 307.4 176.47 309.5 181.39 310.77 182.8 313.02 181.95 314.99 178.58 316.67 175.91 318.44 174.28 318.5 174.22 319.63 173.55 318.5 171.13 319.35 171.13 318.5 170.28 318.5 169.44 318.5 167.61 319.49 166.77 318.5 165.93 320.19 164.66 318.5 163.96 318.5 161.57 319.2 161.01 318.5 159.18 319.77 158.05 320.82 156.08 319.77 153.55 320.61 152.57 320.61 150.46 321.88 148.35 321.56 148.35 320.33 148.35 315.97 148.35 315.69 150.88 312.88 151.73 310.91 150.18 304.58 152.57 301.07 152.85 297.41 152.71 296.99 152.01 295.02 153.55 295.3 155.24 290.66 157.52 286.73 157.52 284.2 156.37 283.35 156.37 281.53 154.54 281.66 153.55 280.54 152.71 274.22 149.06 273.51 149.9 270.56 149.62 267.89 153.98 266.62 155.8 263.53 157.52 261.7 157.52 261.7 158.9 258.75 160.3 257.48 160.72 256.36 160.72 254.57 161.3 255.04 161.23 255.97 163.76 255.97 165.64 256.47 167.61 257.65 169.59 258.35 171.27 258.84 173.75 258.15 174.74 258.84 175.43 258.84 177.7 257.56 178.58 259.43 180.08 258.74 180.08 259.43 181.46 257.75 181.96 259.43 183.04 258.25 184.82 259.43 184.82 259.43 185.81 259.93 185.81 259.43 187.1 261.02 187.79 261.02 189.28 261.71 190.26 262.15 192.27 263.67 192.92 265.92 190.53 269.01 188.98 270.14 188.98 272.11 188.14 274.64 187.3 276.32 185.89 278.57 185.05 280.96 185.05 283.07 186.17 284.76 185.47 287.43 185.89 289.54 186.73 290.52 188.14"/>
  <polygon transform="matrix(.30551 0 0 .30551 -6.9025 54.68)" points="328.65 225.9 327.45 225.14 326.8 224.38 327.12 223.07 328.65 223.07 329.96 222.08 332.36 221.98 334.54 221.98 337.05 221.87 339.89 220.88 340.98 219.25 342.51 217.28 343.05 214.78 343.05 213.9 344.47 211.94 343.92 211.4 342.4 211.4 342.18 210.85 341.41 210.41 340.11 211.61 337.7 211.18 336.07 210.19 335.09 210.52 333.89 211.83 332.8 210.74 329.63 211.72 329.09 210.63 329.09 207.9 329.2 205.18 329.96 203.32 329.96 202.05 328.22 201.03 327.45 199.4 327.56 197.54 326.71 194.75 326.53 194.75 319.91 196.42 320.27 196.79 317.33 198.2 314.7 200.7 312.96 202.7 310.58 202.7 308.96 203.45 308.96 204.95 306.08 206.95 305.2 205.83 302.26 205.58 299.83 207.86 297.83 209.95 296.2 212.95 295.08 212.95 295.08 214.95 295.08 215.33 293.08 215.33 292.46 218.2 290.96 218.2 289.2 222.45 286.83 223.08 286.08 221.33 283.58 223.08 282.7 222.45 280.74 224.82 280.74 226.92 281.55 226.92 284.64 229.74 285.64 229.37 286.91 230.1 286.91 229.19 288.55 229.19 289.45 228.28 290.91 230.46 291.45 230.46 292.82 231.19 292.82 231.82 293.54 231.82 294 231.82 294 233.01 295 233.46 297.27 232.55 297.99 232.55 297.99 233.64 299.45 234.39 299.45 233.64 300.27 233.64 301.36 234.39 301.81 234.39 301.81 236.46 301.36 237.2 302.26 240.18 302.26 241.91 302.26 243.27 302.26 244.91 301.78 245.3 306.83 245.7 309 246.7 311.17 246.28 311.13 246.13 314.8 243.88 315.75 243.88 316.94 242.1 319.19 241.03 321.21 240.56 322.04 238.4 323.7 237 326.84 237.86 328.11 236.81 327.23 233.98 328 231.21 329.2 229.83 328.11 227.65"/>
  <polygon transform="matrix(.30551 0 0 .30551 -6.9025 54.68)" points="295 233.46 294 233.01 294 231.82 293.54 231.82 292.82 231.82 292.82 231.19 291.45 230.46 290.91 230.46 289.45 228.28 288.55 229.19 286.91 229.19 286.91 230.1 285.64 229.37 284.64 229.74 281.55 226.92 280.74 226.92 280.74 224.82 280.74 224.47 277.56 225.19 276.2 225.01 274.38 226.38 272.29 228.28 271.02 227.74 269.02 228.56 268.02 228.46 265.58 229.19 264.2 229.19 262.93 229.37 261.66 229.83 258.94 228.65 260.66 227.56 262.57 225.92 262.14 225.05 258.08 225.05 256.08 223.95 254.57 222.45 252.83 225.05 252.58 227.95 245.58 231.7 243.08 233.7 243.08 238.44 246.83 239.95 250.58 242.17 259.29 245.46 260.84 245 261.84 243.54 262.48 244.36 263.57 243.91 264.11 242.82 265.2 242.54 265.58 241.91 266.48 241.09 266.38 240.46 267.02 240.64 270.74 242.27 271.65 242.45 271.38 244.63 270.65 246 270.65 247.81 270.11 248.45 271.02 249.72 272.38 250.99 273.02 250.99 274.83 251.45 274.47 252.54 274.74 253.08 275.2 253.9 275.74 254.35 277.1 253.81 277.38 252.63 278.65 252.63 280.56 251.72 282.28 250.99 282.91 250.81 283.46 249.72 284.19 249.9 287.36 249.27 289.18 250.26 291.55 249.72 293.54 248.18 295.36 248.27 296.72 248.72 297.54 248.81 298.45 248.54 298.45 247.9 299.27 247.36 301.78 245.3 302.26 244.91 302.26 243.27 302.26 241.91 302.26 240.18 301.36 237.2 301.81 236.46 301.81 234.39 301.36 234.39 300.27 233.64 299.45 233.64 299.45 234.39 297.99 233.64 297.99 232.55 297.27 232.55"/>
  <polygon transform="matrix(.30551 0 0 .30551 -6.9025 54.68)" points="280.74 224.47 280.74 224.82 282.7 222.45 283.58 223.08 286.08 221.33 286.83 223.08 289.2 222.45 290.96 218.2 292.46 218.2 293.08 215.33 295.08 215.33 295.08 214.95 295.08 212.95 296.2 212.95 297.83 209.95 299.83 207.86 302.26 205.58 305.2 205.83 306.08 206.95 308.96 204.95 308.96 203.45 310.58 202.7 312.96 202.7 314.7 200.7 317.33 198.2 320.27 196.79 319.91 196.42 319.58 196.08 317.33 196.08 317.96 194.75 320.27 194.2 320.7 193.7 323.2 193.7 323.2 192.33 321.88 190.7 321.88 189.08 320.58 189.08 321.88 187.58 321.33 186.83 319.83 188.08 318.27 187.2 317.33 185.95 319.2 185.95 318.27 184.82 317.33 184.08 317.96 182.08 319.2 181.33 317.96 179.83 319.2 177.95 319.2 175.45 318.44 174.28 316.67 175.91 314.99 178.58 313.02 181.95 310.77 182.8 309.5 181.39 307.4 176.47 305.43 175.63 303.32 175.35 300.08 176.19 295.58 177.88 293.06 179.99 291.79 182.8 291.09 183.92 291.79 186.45 292.77 187.86 294.6 187.86 296.29 189.55 295.58 193.34 295.16 194.75 292.63 194.75 291.09 193.76 291.09 190.53 290.52 188.14 289.54 186.73 287.43 185.89 284.76 185.47 283.07 186.17 280.96 185.05 278.57 185.05 276.32 185.89 274.64 187.3 272.11 188.14 270.14 188.98 269.01 188.98 265.92 190.53 263.67 192.92 262.15 192.27 262.3 192.94 262.18 192.91 262.3 196.79 262.3 197.95 262.3 200.08 260.83 200.08 260.08 201.7 260.83 203.95 262.3 207.86 263.58 207.86 264.33 209.05 265.58 210.2 265.58 213.7 265.58 215.7 263.83 217.45 262.3 217.45 262.3 222.45 262.3 225.05 262.14 225.05 262.57 225.92 260.66 227.56 258.94 228.65 261.66 229.83 262.93 229.37 264.2 229.19 265.58 229.19 268.02 228.46 269.02 228.56 271.02 227.74 272.29 228.28 274.38 226.38 276.2 225.01 277.56 225.19"/>
  <polygon transform="matrix(.30551 0 0 .30551 -6.9025 54.68)" points="678.31 90.946 678.81 87.624 677.65 87.79 676.99 89.285 675.32 89.451 676.49 90.946 674.99 90.946 673.99 88.787 674.32 87.125 675.66 87.125 675.66 85.299 676.99 85.299 676.99 83.305 676.99 81.365 679.14 81.365 677.65 79.983 677.65 78.488 677.15 75.665 675.66 75.665 673.99 73.665 672.83 73.665 671.17 72.675 670.18 71.844 671.67 70.017 670.01 68.854 668.18 70.017 668.18 68.19 666.69 66.695 668.18 66.695 669.18 66.031 668.68 64.536 666.36 63.539 666.36 61.048 668.51 61.048 667.52 59.719 665.69 59.719 665.69 56.397 664.2 56.397 664.53 55.4 665.86 55.4 667.35 54.57 666.52 51.746 667.85 51.746 669.18 49.587 669.68 47.76 671.01 45.933 672.83 45.933 672.83 43.109 676.16 43.109 677.32 40.285 678.65 38.87 680.97 38.125 681.3 36.298 681.47 34.471 683.3 34.139 684.46 32.728 683.46 30.983 684.79 30.153 685.95 27.329 671.17 27.329 648.75 29.156 646.92 31.814 646.09 30.817 644.76 31.814 644.76 34.471 642.77 34.471 642.77 36.298 641.61 36.298 640.28 38.125 637.58 39.355 637.58 39.355 639 38.87 639 41.37 636.5 41.37 636.5 44.203 634.83 45.703 633 47.203 631.33 47.203 631.33 49.037 629.17 49.037 629.17 51.537 630.17 52.537 629.83 59.203 629.17 60.537 626.33 59.87 624.5 59.37 623.33 60.537 620.17 62.87 617.16 61.869 620.84 71.512 619.68 73.665 618.02 73.665 617.36 74.336 616.19 74.336 616.03 75.167 617.19 76.661 616.03 76.994 615.36 77.99 616.36 79.153 616.36 80.481 615.53 81.365 613.37 81.365 611.87 82.309 611.87 84.136 611.87 86.461 611.87 88.953 613.2 89.119 614.36 89.617 613.2 91.112 614.2 92.441 615.53 91.943 617.36 91.444 619.35 91.112 619.35 93.271 620.34 94.268 622.17 93.77 624.99 93.77 624.99 94.933 625.99 94.933 627.65 93.77 629.98 94.102 632.64 95.099 633.63 97.258 634.96 95.763 636.95 96.427 636.45 99.085 634.8 99.916 636.29 102.41 633.63 105.4 635.46 106.06 636.12 107.56 635.13 108.46 633.63 109.55 635.46 112.21 636.29 109.38 637.28 108.46 637.95 109.88 638.99 111.04 639 111.04 640.28 109.05 641.61 108.46 643.27 108.46 645.76 110.21 647.42 110.21 647.25 112.21 648.42 113.37 650.41 112.21 652.07 111.54 653.56 112.21 656.56 110.71 658.88 109.55 660.38 109.55 662.37 109.55 663.86 108.46 666.19 107.72 667.85 107.39 668.51 106.06 670.34 105.4 670.67 106.39 672.67 106.06 675.82 104.4 675.66 106.23 676.49 107.72 677.98 108.46 679.81 108.46 680.47 106.23 679.98 105.06 682.63 104.23 686.28 101.74 686.78 100.41 688.12 100.41 687.28 99.085 689.11 98.42 689.11 97.092 691.27 96.095 692.1 94.102 690.61 92.275 688.94 92.275 688.94 90.614 687.45 90.282 687.45 89.119 685.95 88.123 685.95 89.617 684.46 89.119 684.46 87.458 681.47 87.79 679.98 89.119 679.98 90.78 678.81 92.275"/>
  <polygon transform="matrix(.30551 0 0 .30551 -6.9025 54.68)" points="518.64 103.83 520.64 103.74 525.55 102.1 527.27 102.19 529 101.1 529 102.19 530 101.74 531.18 101.83 531.18 103.37 532.36 103.37 532.45 104.55 533.36 104.19 533.09 103.1 534.99 102.1 535.63 102.46 536.72 102.01 538.08 102.01 539.18 101.83 542.99 106.37 541.99 107.64 541.9 108.37 542.99 108.46 543.9 107.37 544.08 108.28 545.99 107.46 547.4 107.69 550.33 104.87 548.81 102.2 550.33 102.04 552 103.2 553.67 103.2 552 101.37 553.5 99.87 555.83 99.87 554.5 97.37 555.33 96.37 557 96.37 558.5 95.203 557 92.703 558.17 91.537 560.67 91.537 561.5 89.87 563.5 89.87 564.17 87.703 565.67 84.87 568.67 84.037 571 82.537 570 79.703 571.67 79.703 574.17 76.703 577.33 73.37 579.83 72.37 581.33 69.703 583.5 69.703 585.33 65.537 587.5 64.703 589.83 65.537 590.83 63.37 592.17 62.87 593.67 64.037 596.5 64.037 600 64.037 600 61.703 607 59.203 608.67 58.537 608.67 60.703 607 62.537 610.5 64.037 613 64.037 614.33 64.037 615.67 61.37 617.16 61.869 620.17 62.87 623.33 60.537 624.5 59.37 626.33 59.87 629.17 60.537 629.83 59.203 630.17 52.537 629.17 51.537 629.17 49.037 631.33 49.037 631.33 47.203 633 47.203 634.83 45.703 636.5 44.203 636.5 41.37 639 41.37 639 38.87 637.58 39.355 626.33 43.203 619.5 39.703 573 56.537 572.67 58.703 571 60.037 569.17 60.037 567.17 59.87 565.83 61.37 564.83 61.537 563.83 63.703 561.67 63.703 561.17 62.703 560.17 63.203 559.5 64.537 558 63.87 557.17 63.537 555.83 64.203 556.17 65.87 554.5 65.537 553.17 66.37 551.83 67.87 550.83 67.703 548.81 68.703 546.33 69.37 544.83 70.537 543.33 71.203 541.67 71.703 540.17 72.203 539.83 73.37 538.17 74.537 535.5 74.037 534.33 76.37 534.17 75.037 531.33 72.87 531.5 71.537 529.67 71.537 528 73.37 527.17 72.87 526 73.37 524.5 74.537 519 72.87 517.33 71.37 515.83 72.87 515.33 71.703 513.67 70.703 514.5 69.203 514.5 68.203 512.83 67.37 511.5 67.537 510.33 70.87 508.67 70.203 509.17 72.037 510.5 73.037 510 75.37 512.17 75.37 513.33 77.037 513.33 78.037 513.91 81.395 513.98 81.365 516 82.836 515.82 86.925 519.09 90.65 518.46 92.922 518.73 95.103 516.73 96.738 514.37 94.558 512.55 95.375 513.37 97.011 515.19 98.829 517.55 99.737 518.36 100.46 517.82 102.28"/>
  <polygon transform="matrix(.30551 0 0 .30551 -6.9025 54.68)" points="405 292.54 401.33 292.54 399.66 290.37 400.66 286.87 401.74 284.18 401.74 283.28 400.65 282.41 399.89 281.98 400.21 280.45 398.58 280.67 397.92 279.58 396.5 278.92 394.87 279.9 393.45 280.23 394.54 278.59 393.89 278.27 392.58 279.03 392.58 277.94 391.38 277.07 390.55 276.47 389.76 276.97 388.93 276.02 387.98 276.02 387.98 276.97 387.03 277.8 387.03 275.67 387.51 274.24 387.03 273.18 385.38 273.18 384.43 275.49 385.14 277.8 384.43 277.8 382.41 275.49 383.48 274.95 383.48 274.12 382.41 274.12 381.7 275.49 380.51 275.49 378.97 275.49 378.97 276.97 378.97 279.34 374.46 281 371.5 281.6 370.43 281.6 369.72 282.43 368.18 282.9 367.47 283.95 367.47 286.12 367.47 287.53 366.4 287.53 365.21 289.19 363.43 289.78 363.43 291.56 364.38 292.51 364.38 293.81 363.43 294.41 361.53 295.83 361.53 297.02 360.47 298.32 360.47 299.51 359.28 299.51 357.98 299.51 357.38 298.79 355.13 298.56 354.54 299.51 353.23 301.28 351.69 301.88 351.66 301.76 351.08 304.25 348.49 305.95 340.83 312.45 339.58 314.45 339.58 316.2 343.63 315.45 344.47 317.7 345.37 320.95 348.49 320.2 350.83 321.45 353.83 321.95 357.08 324.95 359.08 324.95 360.08 328.2 362.83 329.45 364.69 329.45 363.33 331.95 364.69 333.45 364.69 335.45 362.33 336.7 363.33 338.2 361.83 338.2 361.83 339.45 362.58 341.2 364.69 341.7 366.33 342.7 364.69 343.2 363.58 344.45 360.33 343.2 358.33 344.45 355.58 346.2 353.33 346.2 351.33 346.95 351.08 349.2 349.58 349.2 347.33 351.45 347.33 353.45 344.47 352.45 340.58 351.95 338.58 351.7 336.58 351.7 338.25 355.04 338.96 356.45 341.46 356.45 345.37 354.83 347.08 356.2 348.2 355.7 350.2 354.7 351.7 355.58 354.08 354.7 355.08 355.2 356.7 354.83 358.83 354.08 359.7 353.45 359.7 352.2 361.33 352.2 361.58 354.2 361.96 356.33 363.58 357.95 365.33 357.83 368.82 359.63 368.2 360.83 369.58 362.08 372 360.33 372.7 360.58 375.08 359.08 376.58 358.95 379.33 358.95 380.96 360.08 382.33 359.08 382.58 357.39 383.9 358.14 386.2 356.91 388.84 356.17 389.98 355.72 390.83 356.12 390.16 357.04 389.5 358.12 388.33 358.12 387.75 360.29 388.41 361.37 389.08 362.45 390.33 363.62 391.41 363.7 392.08 364.79 391.75 366.12 392.5 366.79 393.83 367.79 404.75 367.95 407.83 369.87 409.41 369.2 410.09 369.72 412.33 371.45 412.54 369.67 412.83 367.2 412.83 364.95 415.59 361.7 415.59 362.95 418.43 361.95 418.43 359.45 421.07 357.2 422.08 354.95 422.08 351.95 422.08 347.95 425.08 343.7 426.58 341.7 427.58 337.7 428.96 337.7 430.08 336.2 433.33 333.95 435.83 333.95 435.83 331.2 434.08 331.2 433.83 329.2 433.83 326.95 435.83 326.95 435.83 323.95 434.08 322.7 434.08 320.45 434.08 317.95 431.33 315.45 428.58 315.45 427.33 315.45 427.33 312.95 425.58 311.7 425.58 309.45 423.58 309.45 423.58 307.37 422.08 305.95 421.22 304.49 420.83 305.04 419.16 306.7 417.33 306.7 416.66 305.04 414.83 307.37 413.5 306.2 413.5 305.04 411.5 305.04 409.66 305.04 408.33 306.2 405 300.7 405 298.04 406.5 296.04 405 295.04"/>
  <path d="m101.01 146.73 0.39869-0.54351 0.18209-0.28991 0.68862 0.0723 0.18117 0.21751h0.76164v-0.36262l0.32506-0.3987v-0.36233l0.57985-0.43475 0.28993-0.18146v-0.39869l-0.28993-0.28963v-0.54351l0.54349-0.18116 0.36234-0.50745h0.32628v-1.0916l0.21722-0.32141 0.4711-0.1451 0.21722-0.25357h0.32506l0.90675-0.18149 1.3769-0.50715v-1.1765h0.83343l0.2172-0.41671h0.32629v0.25357l-0.32629 0.16314 0.61684 0.70632h0.21751l-0.21751-0.70632 0.289-0.70633h0.50715l0.14603 0.32596-0.14603 0.43475v0.65224l0.28993-0.25357v-0.28992h0.28992l0.25358 0.28992 0.24104-0.15428-0.11454-0.0832-0.0329-0.33329-0.33331-0.19981-0.30001-0.86672-0.46559-0.23341-0.36631-0.93302-2.8663 0.46651-0.79983-0.20011-0.69991-1.2663 0.31192-0.26669-0.24563-0.36663-0.69992 0.33332-0.1995-0.33332-0.56642 0.1665-0.16649-0.30001-0.30001-0.23341v-0.2334l0.63332-0.33331-0.19951-0.49982-0.43352 0.0333-0.49981 0.60002-0.4659-0.5664 0.366-0.33333-0.23342-0.36659 0.29941-0.19981 0.33392-0.23341-0.63333 0.0665-0.13381-0.2001 0.66724-0.26673-0.1338-0.26669h-0.53312l0.33362-0.46652-0.33362-0.16649-0.2991-0.13352v-0.20009l0.1995-0.13322-0.1995-0.46651-0.86642 0.1-0.33332 0.26672 0.1665 0.3999 0.16651 0.1332-0.1 0.36662-0.40022 0.1998-0.3663-0.0666-0.23401-0.26671-0.46591-0.0666-0.4332 0.33331v0.76653l-0.46652-0.0333v0.29972l-0.63332 0.2001-0.23341 0.33331-0.40022-0.1665-0.33392 0.49981-0.29909-0.1665-0.40053 0.19981-0.50042-0.36662 0.1665-0.3 0.1665-0.43322 0.10024-0.49981 0.93332-0.39992-0.06686-0.30001-0.2991-0.1v-0.43321l0.23341-0.43322 0.36661-0.43321-0.1338-0.43321-0.66662-0.39992 0.1338-0.19979v-0.33331l-0.33392-0.2667-0.33332-0.0665-0.50012 0.26671v0.33331l-0.43321 0.0665-0.30001-0.13351v-0.49981l0.1665-0.26671 0.13381-0.30399v-0.59573l-0.30002-0.1998-0.23341 0.49981-0.33331 0.13349v-0.43321h-0.5664l-0.1665 0.30001-0.33331-0.30001-0.33331 0.39992-0.43321 0.49981-0.33362 0.26671v0.26672l-0.3663-0.16652-0.53342-0.1335 0.1665-0.53738 0.21172-0.17506-0.95991-0.26396-0.50745 0.42832-0.25266 0.65868-0.61713 0.14512-0.68831 0.32597-0.36233 0.54351h-0.28996l-1.1237 0.6883 0.01343 0.0453 0.16772 0.5707-0.28993 0.5435-0.5435 0.6159-0.94219 0.73567-0.68831 0.5328-0.68831 0.43474-0.50745 0.61593 0.18208 0.18115-0.03636 0.97824 0.62568 0.21752 0.28015-0.50745h0.36234l0.07242 0.32598h0.79707l0.21722 0.28992-0.28993 0.43474-0.68831 0.18118-0.75094 0.61621v0.90582l-0.51723 0.76073-0.25357 0.50746v1.3406l0.36294 0.57985 0.03636 0.64737-0.39961 0.2945 0.43474 1.8844 0.65318-0.72468 0.68831-0.50745 0.39869-0.54318 0.36294 0.25876h1.3036l0.4711-0.22273 0.65226-0.43933 0.25357 0.25849h0.65226l0.50714-0.47111 0.43474-0.3987 0.5435-0.18116 0.18117 0.47111 0.36295-0.18148 0.36264 0.25387v0.24869h0.36294l0.36234 0.2945 0.21752 0.21753 0.28993 0.5435-0.28993 0.10842v0.28993l0.83374 0.50714 0.86948 1.8844 0.25388 0.036 0.86949 0.14512 0.28992-0.1084 0.28993 0.14481v1.2321l0.21722 0.47108 0.57984 0.18118v0.25357h0.68833v-0.32598h0.28901s0.40602-0.27067 0.49186-0.27312c-0.0042-0.0988 0.01532-0.37914 0.01532-0.37914l0.4711-0.32598 0.32597-0.0363 0.17018 0.57925 0.0117 0.0366z" stroke-width=".5"/>
  <polygon transform="matrix(.30551 0 0 .30551 -6.9025 54.68)" points="465.33 200.04 465.33 198.44 464 196.54 463.16 194.75 461.33 193.04 462.16 189.87 461.5 187.54 459.66 185.2 458.16 185.2 455.83 186.54 452.83 186.54 450.5 187.2 449.16 189.54 447.83 188.7 446.5 189.87 445.83 188.37 445.83 186.87 444.5 185.2 442.66 185.2 441.16 186.87 440 186.87 438.66 186.87 437.83 185.2 435.5 186.54 437.16 187.37 435.66 188.04 434.16 189.87 432.83 189.87 431.83 188.7 429.5 189.54 427.16 189.87 426 188.37 424.16 189.04 422.16 188.37 420.83 188.54 419.83 186.87 417.66 189.54 416.66 189.54 415.59 188.88 415.59 189.31 413.76 189.31 412.13 189.31 410.7 190.93 412.53 192.15 414.57 192.15 415.59 194.75 415.79 196.79 414.57 196.79 412.94 194.75 410.7 193.37 409.08 192.96 408.27 193.58 408.27 195.81 407.05 196.79 407.05 194.75 407.05 193.37 405.02 194.75 402.78 194.75 404.81 193.17 406.84 191.95 408.47 189.92 406.03 189.51 402.78 191.74 401.36 190.73 399.32 192.96 397.49 194.75 396.48 192.76 394.65 191.74 392.06 191.74 390.78 192.56 390.78 194.75 387.74 196.79 387.74 198.44 387.74 199.47 392.06 198.44 393.22 196.79 396.07 196.79 394.65 198.44 393.02 199.47 394.85 199.47 396.07 200.89 398.71 198.44 399.32 199.47 397.49 202.05 399.53 202.05 397.6 203.43 395.96 203.43 394.11 204.52 396.83 204.52 398.03 204.52 396.62 205.4 395.2 205.94 394.32 206.81 392.91 206.81 391.27 206.81 392.06 205.07 390.94 204.3 389.63 205.61 388.22 205.94 386.8 205.72 385.38 206.81 384.07 206.81 383.09 207.58 381.67 209.1 380.69 208.23 378.4 209.1 377.09 208.34 376.54 209.1 375.56 209.65 374.25 210.52 375.12 211.83 376.11 211.07 376.43 210.19 377.41 210.85 378.4 210.3 379.27 211.18 378.4 211.83 377.85 213.36 377.09 214.01 378.07 214.01 378.94 213.58 379.92 214.01 380.91 214.78 381.02 216.08 380.8 217.18 379.16 217.83 378.62 218.7 377.74 217.94 375.99 219.14 375.78 220.67 375.34 221.65 374.25 221.65 373.27 220.67 372 220.45 372 219.36 371.09 219.36 370.43 219.68 370.43 220.56 370.43 221.65 369.56 222.74 367.92 223.5 367.92 224.48 367.92 226.23 367.92 227.76 368.8 228.19 368.36 229.28 367.49 229.83 365.96 228.85 365.31 229.28 365.85 230.81 366.83 230.81 367.92 230.81 369.56 230.81 370.76 230.81 372 231.25 373.38 230.27 375.12 230.59 377.52 230.81 378.72 231.25 380.14 231.25 381.02 232.34 382.22 233.76 381.56 235.83 380.36 236.48 379.16 237.03 379.38 238.44 381.02 237.9 382.22 238.44 383.2 239.21 384.51 239.21 385.49 239.98 386.8 239.98 387.67 241.39 389.31 241.39 390.18 242.05 390.28 243.68 391.27 243.68 392.06 244.34 393.89 244.34 395.52 245.43 397.49 244.78 395.96 249.9 397.49 249.9 399.12 249.9 399.45 251.43 400.76 252.08 401.52 253.72 402.5 254.59 402.62 255.79 402.94 257.54 402.94 258.85 404.14 258.85 404.47 260.48 405.56 263.1 405.56 264.96 406.54 265.61 407.74 267.79 409.16 268.99 409.7 270.41 410.91 270.41 410.91 272.59 411.67 273.36 411.45 275.43 412.11 277.5 412.11 278.81 409.92 280.67 410.14 282.08 409.92 285.03 407.74 285.03 405.45 284.38 404.47 286.12 403.16 285.03 402.28 286.12 401.74 286.12 401.74 284.18 400.66 286.87 399.66 290.37 401.33 292.54 405 292.54 405 295.04 406.5 296.04 405 298.04 405 300.7 408.33 306.2 409.66 305.04 411.5 305.04 413.5 305.04 413.5 306.2 414.83 307.37 416.66 305.04 417.33 306.7 419.16 306.7 420.83 305.04 421.22 304.49 422 303.37 423.66 304.25 426 302.29 427.66 299.7 428.83 298.04 430.33 296.54 431.83 295.54 434 295.87 434.16 294.54 435.83 294.54 437.66 293.2 438.83 291.87 440 290.37 440 289.2 442.16 288.7 443.16 286.87 442.66 284.54 444.33 283.7 445.66 281.7 448.16 279.87 450.66 278.54 450.83 276.2 452.66 274.37 455.33 274.37 456.66 272.7 458.5 272.04 460.66 271.37 459.33 270.04 457.83 266.54 457.33 264.37 459 264.2 460.16 262.7 462.83 262.2 464 261.54 464 260.2 465.5 258.87 465.58 257.93 465.66 256.87 466.78 255.2 467.83 254.2 466.78 253.37 467.66 252.04 466.78 250.37 466.78 248.54 467.5 246.7 469 245.54 468.66 242.54 470 240.2 470.33 237.54 470.33 234.04 471.83 231.37 472 228.7 473.66 228.87 474.16 227.7 473.33 226.87 473.33 225.7 474.83 223.87 475.16 221.87 475 219.2 476.83 217.2 476.83 214.87 476.83 213.04 476.83 211.04 475.33 209.7 473 208.04 470.66 206.54 470.66 208.54 468.16 209.7 468.16 211.2 466.78 210.87 465.16 209.87 466.78 209.04 466.78 207.87 466.78 206.04 466.78 204.37 466.78 202.05"/>
  <polygon transform="matrix(.30551 0 0 .30551 -6.9025 54.68)" points="338.47 236.48 338.47 238.44 338.03 239.43 337.49 240.3 337.49 241.94 338.47 242.38 339.89 242.16 339.89 241.07 341.52 240.19 342.62 240.41 343.7 241.28 343.7 242.38 343.27 243.03 345.45 244.34 345.89 245.76 344.69 247.18 343.92 248.59 343.92 250.01 344.91 250.34 345.12 251.32 342.07 252.63 341.74 254.27 341.2 255.68 340.65 256.67 342.29 257.87 343.6 257.21 344.58 257.76 345.67 256.12 346.98 256.67 347.74 255.58 349.82 254.92 349.82 253.94 351.34 254.05 351.34 251.54 352.76 250.45 354.28 250.67 355.05 251.54 356.25 251.76 357.56 251.1 357.89 249.9 357.34 249.47 356.8 248.16 357.89 247.28 360.72 246.96 361.38 248.48 360.72 248.92 360.72 249.58 361.7 250.01 362.8 250.56 361.7 252.08 363.45 252.08 363.89 252.96 361.7 253.83 362.14 254.48 364.22 254.27 363.12 255.03 362.14 255.68 362.91 256.88 361.7 257.98 363.23 259.83 364.87 257.87 366.28 257.76 366.94 259.39 364.87 260.48 364.87 261.25 365.85 262.01 366.4 262.99 368.25 262.45 368.91 263.54 371.2 262.45 372 263.65 370.98 264.52 373.27 268.67 375.89 269.32 385.27 267.79 386.47 270.85 387.99 271.61 388.98 274.45 390.07 275.1 390.18 276.19 390.55 276.47 391.38 277.07 392.58 277.94 392.58 279.03 393.89 278.27 394.54 278.59 393.45 280.23 394.87 279.9 396.5 278.92 397.92 279.58 398.58 280.67 400.21 280.45 399.89 281.98 400.65 282.41 401.74 283.28 401.74 284.18 401.74 286.12 402.28 286.12 403.16 285.03 404.47 286.12 405.45 284.38 407.74 285.03 409.92 285.03 410.14 282.08 409.92 280.67 412.11 278.81 412.11 277.5 411.45 275.43 411.67 273.36 410.91 272.59 410.91 270.41 409.7 270.41 409.16 268.99 407.74 267.79 406.54 265.61 405.56 264.96 405.56 263.1 404.47 260.48 404.14 258.85 402.94 258.85 402.94 257.54 402.62 255.79 402.5 254.59 401.52 253.72 400.76 252.08 399.45 251.43 399.12 249.9 397.49 249.9 395.96 249.9 397.49 244.78 395.52 245.43 393.89 244.34 392.06 244.34 391.27 243.68 390.28 243.68 390.18 242.05 389.31 241.39 387.67 241.39 386.8 239.98 385.49 239.98 384.51 239.21 383.2 239.21 382.22 238.44 381.02 237.9 379.38 238.44 379.16 237.03 380.36 236.48 381.56 235.83 382.22 233.76 381.02 232.34 380.14 231.25 378.72 231.25 377.52 230.81 375.12 230.59 373.38 230.27 372 231.25 370.76 230.81 369.56 230.81 367.92 230.81 366.83 230.81 365.85 230.81 365.31 229.28 365.96 228.85 367.49 229.83 368.36 229.28 368.8 228.19 367.92 227.76 367.92 226.23 367.92 224.48 367.92 223.5 369.56 222.74 370.43 221.65 370.43 220.56 370.43 219.68 371.09 219.36 372 219.36 372 220.45 373.27 220.67 374.25 221.65 375.34 221.65 375.78 220.67 375.99 219.14 377.74 217.94 378.62 218.7 379.16 217.83 380.8 217.18 381.02 216.08 380.91 214.78 379.92 214.01 378.94 213.58 378.07 214.01 377.09 214.01 377.85 213.36 378.4 211.83 379.27 211.18 378.4 210.3 377.41 210.85 376.43 210.19 376.11 211.07 375.12 211.83 374.25 210.52 375.56 209.65 376.54 209.1 377.09 208.34 378.4 209.1 380.69 208.23 381.67 209.1 383.09 207.58 384.07 206.81 385.38 206.81 386.8 205.72 388.22 205.94 389.63 205.61 390.94 204.3 392.06 205.07 391.27 206.81 392.91 206.81 394.32 206.81 395.2 205.94 396.62 205.4 398.03 204.52 396.83 204.52 394.11 204.52 395.96 203.43 397.6 203.43 399.53 202.05 397.49 202.05 399.32 199.47 398.71 198.44 396.07 200.89 394.85 199.47 393.02 199.47 394.65 198.44 396.07 196.79 393.22 196.79 392.06 198.44 387.74 199.47 387.74 198.44 387.74 196.79 390.78 194.75 390.78 192.56 392.06 191.74 394.65 191.74 396.48 192.76 397.49 194.75 399.32 192.96 401.36 190.73 402.78 191.74 406.03 189.51 408.47 189.92 406.84 191.95 404.81 193.17 402.78 194.75 405.02 194.75 407.05 193.37 407.05 194.75 407.05 196.79 408.27 195.81 408.27 193.58 409.08 192.96 410.7 193.37 412.94 194.75 414.57 196.79 415.79 196.79 415.59 194.75 414.57 192.15 412.53 192.15 410.7 190.93 412.13 189.31 413.76 189.31 415.59 189.31 415.59 188.88 415.59 184.82 415.59 182.39 415.59 180.97 417.41 182.39 418.43 180.77 417.41 178.58 418.43 176.3 417.13 174.28 415.9 174.28 414.57 176.54 412.36 176.54 411.26 176.54 409.7 179.42 409.7 182.29 403.74 184.82 400.64 187.38 396.88 188.93 394.22 186.05 391.12 186.28 386.92 186.28 386.92 184.82 384.27 183.84 381.39 183.62 379.84 184.82 378.3 186.94 376.08 186.05 373.65 187.82 370.77 187.82 367.9 188.93 365.68 191.36 363.25 190.26 363.25 192.91 361.26 194.75 361.26 195.79 359.71 195.79 358.61 195.79 358.61 193.35 356.62 193.35 355.28 195.79 353.52 195.79 351.53 195.79 348.65 195.79 344.45 195.79 344.45 197.34 341.79 196.23 339.58 196.23 336.04 196.01 333.39 198.44 331.62 197.34 331.62 194.75 326.71 194.75 327.56 197.54 327.45 199.4 328.22 201.03 329.96 202.05 329.96 203.32 329.2 205.18 329.09 207.9 329.09 210.63 329.63 211.72 332.8 210.74 333.89 211.83 335.09 210.52 336.07 210.19 337.7 211.18 340.11 211.61 341.41 210.41 342.18 210.85 342.4 211.4 343.92 211.4 344.47 211.94 343.05 213.9 343.05 214.78 342.51 217.28 340.98 219.25 339.89 220.88 337.05 221.87 334.54 221.98 332.36 221.98 329.96 222.08 328.65 223.07 327.12 223.07 326.8 224.38 327.45 225.14 328.65 225.9 328.11 227.65 329.2 229.83 328 231.21 327.23 233.98 328.11 236.81 326.84 237.86 326.14 238.44 325.6 240.19 327.34 240.63 328.54 241.18 328.54 240.3 329.63 239.43 331.05 237.79 332.14 236.48 333.23 237.47 333.78 236.48 335.63 236.48 335.63 237.9 336.72 237.47 337.49 235.83"/>
  <polygon transform="matrix(.30551 0 0 .30551 -6.9025 54.68)" points="537.58 159.08 538.7 156.95 537.58 156.08 538.83 155.7 538.2 153.45 536.7 152.33 537.58 150.02 536.7 148.58 535.96 147.08 535.2 146.7 532.7 147.2 530.96 146.33 529.46 147.2 528.58 144.7 530.96 143.2 532.46 143.2 533.08 141.45 535.46 140.08 535.7 137.08 536.58 135.58 539.33 134.95 541.46 132.2 543.46 131.08 543.7 129.42 545.2 127.83 547.12 123.56 544.36 119.09 544.36 120 543.17 119.82 541.27 120.79 540.63 122 541.63 122.64 541.63 123.54 539.54 123.45 539.99 125.54 538.9 126.18 538.36 125.54 537.18 124.27 535.9 124.27 535.9 127 534.91 127.36 534.27 126.45 532.54 126.36 530.91 126.63 530.91 129.27 530 129.45 528.64 128.72 527 129 525.72 127.71 523.01 129.82 520.9 129.52 520.9 132.22 519.4 132.52 519.4 129.82 515.78 128.61 513.98 131.02 510.67 133.43 509.77 136.06 507.96 136.06 506.45 136.06 507.06 139.75 505.55 139.75 501.94 141.55 503.15 143.36 498.03 143.36 495.32 144.86 494.12 140.95 490.51 144.26 491.41 147.87 490.2 148.78 487.8 146.67 485.69 149.08 485.33 148.9 485.33 152.7 486.58 153.95 488.33 153.95 489.33 156.95 488.83 160.21 486.83 161.45 485.33 163.7 487.33 164.95 485.33 167.25 488.58 167.25 488.58 168.7 491.08 168.7 492.83 168.7 492.83 172.2 492.83 174.28 494.58 178.7 495.83 178.7 498.08 179.7 498.83 181.45 497.33 183.45 495.83 185.2 497.83 187.45 499.33 188.7 500.33 191.45 499.33 194.75 497.83 198.44 499.83 200.95 502.58 202.05 502.58 203.7 499.83 205.2 499.83 207.45 502.08 210.7 502.08 212.95 505.33 212.95 506.83 208.45 505.33 205.45 506.83 203.7 506.83 201.7 508.67 201.7 509.83 198.44 511.58 196.2 514.08 194.75 514.08 191.45 518.08 189.45 518.08 190.2 518.08 193.45 518.08 195.95 518.08 198.44 519.08 201.7 522.33 201.7 522.33 198.44 524.08 198.44 524.08 196.2 526.83 196.2 526.83 194.75 528.58 192.95 530.08 191.2 528.58 188.95 531.08 188.2 529.83 185.2 528.58 183.95 532.58 182.7 534.58 181.45 536.58 181.45 534.58 178.2 536.33 178.2 539.58 178.2 539.58 175.7 541.58 175.7 541.58 173.95 542.83 172.2 544.36 172.95 544.36 175.7 546.83 175.7 546.83 173.24 548.81 174.28 549.83 172.2 551.07 170.46 550.46 170.2 550.46 169.45 549.33 169.58 547.96 170.7 546.7 169.08 546.7 167.95 544.36 167.45 542.83 166.83 541.83 166.58 540.7 165.45 541.46 163.83 541.46 161.95 540.7 161.08 539.46 160.21"/>
  <polygon transform="matrix(.30551 0 0 .30551 -6.9025 54.68)" points="602.22 123.58 600.77 125.04 599.31 123.79 594.93 123.79 593.68 121.7 590.76 122.95 586.8 122.74 587.84 120.79 586.8 118.99 585.54 113.37 578.87 120.14 573.83 128.17 573.83 129.42 571.99 129.42 570.95 129.42 569.07 129.42 570.32 126.5 567.2 126.29 563.23 123.58 565.94 121.39 565.53 118.78 566.57 115.86 565.32 113.37 565.53 111.69 563.23 111.69 563.23 108.46 560.73 108.46 560.73 113.37 559.69 112.32 559.69 109.4 557.19 111.9 554.48 111.9 553.02 112.32 551.35 115.24 551.35 118.94 547.39 124 547.12 123.56 545.2 127.83 543.7 129.42 543.46 131.08 541.46 132.2 539.33 134.95 536.58 135.58 535.7 137.08 535.46 140.08 533.08 141.45 532.46 143.2 530.96 143.2 528.58 144.7 529.46 147.2 530.96 146.33 532.7 147.2 535.2 146.7 535.96 147.08 536.7 148.58 537.58 150.02 536.7 152.33 538.2 153.45 538.83 155.7 537.58 156.08 538.7 156.95 537.58 159.08 539.46 160.21 540.7 161.08 541.46 161.95 541.46 163.83 540.7 165.45 541.83 166.58 542.83 166.83 544.36 167.45 546.7 167.95 546.7 169.08 547.96 170.7 549.33 169.58 550.46 169.45 550.46 170.2 551.07 170.46 551.96 170.83 551.96 172.2 554.08 171.08 555.96 171.08 559.58 170.08 561.2 167.7 563.08 166.83 563.7 165.2 565.46 166.08 565.46 164.95 566.58 164.95 566.58 163.45 568.58 161.58 570.08 161.58 569.33 160.21 570.83 160.21 571.33 157.58 571.33 156.45 573.2 155.58 573.2 153.95 574.58 153.95 574.58 152.45 575.96 150.7 577.08 148.33 578.08 147.58 579.58 146.45 580.96 146.45 582.2 145.58 582.96 147.08 585.08 146.2 586.46 146.45 586.46 148.08 587.46 148.08 588.2 149.08 589.2 149.08 590.33 147.58 592.2 147.58 593.83 145.83 595.08 145.83 597.08 144.58 598.7 144.58 600.7 143.08 600.7 141.33 603.83 139.45 605.33 139.45 605.33 138.58 607.2 137.33 608.96 134.7 610.08 134.7 610.96 135.95 612.96 133.95 614.46 134.33 614.46 135.95 615.7 134.95 617.83 134.08 617.83 132.45 620.08 130.7 621.33 129.42 622.7 128.83 624.2 127.83 625.78 126.82 625.78 125.04 625.78 122.95 625.78 120.79 624.74 120.14 622.86 117.74 620.57 117.95 619.12 116.91 617.45 117.74 614.53 117.95 614.53 120.14 611.87 120.14 609.32 120.79 606.6 123.79 604.52 124.41"/>
  <polygon transform="matrix(.30551 0 0 .30551 -6.9025 54.68)" points="636.45 99.085 636.95 96.427 634.96 95.763 633.63 97.258 632.64 95.099 629.98 94.102 627.65 93.77 625.99 94.933 624.99 94.933 624.99 93.77 622.17 93.77 620.34 94.268 619.35 93.271 619.35 91.112 617.36 91.444 615.53 91.943 614.2 92.441 613.2 91.112 614.36 89.617 613.2 89.119 611.87 88.953 611.87 86.461 611.87 84.136 611.87 82.309 613.37 81.365 615.53 81.365 616.36 80.481 616.36 79.153 615.36 77.99 616.03 76.994 617.19 76.661 616.03 75.167 616.19 74.336 617.36 74.336 618.02 73.665 619.68 73.665 620.84 71.512 617.16 61.869 615.67 61.37 614.33 64.037 613 64.037 610.5 64.037 607 62.537 608.67 60.703 608.67 58.537 607 59.203 600 61.703 600 64.037 596.5 64.037 593.67 64.037 592.17 62.87 590.83 63.37 589.83 65.537 587.5 64.703 585.33 65.537 583.5 69.703 581.33 69.703 579.83 72.37 577.33 73.37 574.17 76.703 571.67 79.703 570 79.703 571 82.537 568.67 84.037 565.67 84.87 564.17 87.703 563.5 89.87 561.5 89.87 560.67 91.537 558.17 91.537 557 92.703 558.5 95.203 557 96.37 555.33 96.37 554.5 97.37 555.83 99.87 553.5 99.87 552 101.37 553.67 103.2 552 103.2 550.33 102.04 548.81 102.2 550.33 104.87 547.4 107.69 548.81 107.92 547.17 109.28 547.17 110.73 547.81 111.46 547.08 113.19 546.45 115.28 547.08 117.37 545.99 118.82 544.36 118.73 544.36 119.09 547.12 123.56 547.39 124 551.35 118.94 551.35 115.24 553.02 112.32 554.48 111.9 557.19 111.9 559.69 109.4 559.69 112.32 560.73 113.37 560.73 108.46 563.23 108.46 563.23 111.69 565.53 111.69 565.32 113.37 566.57 115.86 565.53 118.78 565.94 121.39 563.23 123.58 567.2 126.29 570.32 126.5 569.07 129.42 570.95 129.42 571.99 129.42 573.83 129.42 573.83 128.17 578.87 120.14 585.54 113.37 586.8 118.99 587.84 120.79 586.8 122.74 590.76 122.95 593.68 121.7 594.93 123.79 599.31 123.79 600.77 125.04 602.22 123.58 604.52 124.41 606.6 123.79 609.32 120.79 611.87 120.14 614.53 120.14 614.53 117.95 617.45 117.74 619.12 116.91 620.57 117.95 622.86 117.74 624.74 120.14 625.78 120.79 625.78 122.95 625.78 125.04 625.78 126.82 625.78 126.92 628.08 126.92 629.96 126.92 631.62 124 633.92 124 636.73 124 636.73 120.79 636.73 118.58 635.59 115.86 636.63 114.61 637.88 113.37 638.99 111.04 637.95 109.88 637.28 108.46 636.29 109.38 635.46 112.21 633.63 109.55 635.13 108.46 636.12 107.56 635.46 106.06 633.63 105.4 636.29 102.41 634.8 99.916"/>
  <polygon transform="matrix(.30551 0 0 .30551 -6.9025 54.68)" points="498.83 181.45 498.08 179.7 495.83 178.7 494.58 178.7 492.83 174.28 492.83 172.2 492.83 168.7 491.08 168.7 488.58 168.7 488.58 167.25 485.33 167.25 487.33 164.95 485.33 163.7 486.83 161.45 488.83 160.21 489.33 156.95 488.33 153.95 486.58 153.95 485.33 152.7 485.33 148.9 480.88 146.67 479.67 150.28 476.96 152.09 477.26 155.4 473.95 155.1 471.24 156.3 471.24 160.21 468.84 160.21 466.78 160.21 465.13 157.38 463.47 158.84 463.47 161.5 462.14 163.27 462.14 161.72 458.82 160.84 457.49 163.27 455.06 163.27 452.4 163.27 452.4 167.91 453.73 169.68 454.4 173 452.4 174.28 443.56 171.55 442.01 169.24 442.01 168.14 438.69 167.91 436.48 167.91 428.95 168.8 426.96 168.36 424.09 168.8 421.66 170.57 420.55 173.22 417.45 174.28 417.13 174.28 418.43 176.3 417.41 178.58 418.43 180.77 417.41 182.39 415.59 180.97 415.59 182.39 415.59 184.82 415.59 188.88 416.66 189.54 417.66 189.54 419.83 186.87 420.83 188.54 422.16 188.37 424.16 189.04 426 188.37 427.16 189.87 429.5 189.54 431.83 188.7 432.83 189.87 434.16 189.87 435.66 188.04 437.16 187.37 435.5 186.54 437.83 185.2 438.66 186.87 440 186.87 441.16 186.87 442.66 185.2 444.5 185.2 445.83 186.87 445.83 188.37 446.5 189.87 447.83 188.7 449.16 189.54 450.5 187.2 452.83 186.54 455.83 186.54 458.16 185.2 459.66 185.2 461.5 187.54 462.16 189.87 461.33 193.04 463.16 194.75 464 196.54 465.33 198.44 465.33 200.04 466.78 202.05 466.78 204.37 466.78 206.04 466.78 207.87 466.78 209.04 465.16 209.87 466.78 210.87 468.16 211.2 468.16 209.7 470.66 208.54 470.66 206.54 473 208.04 475.33 209.7 476.83 211.04 476.83 213.04 476.83 214.87 476.83 217.2 475 219.2 475.16 221.87 474.83 223.87 473.33 225.7 473.33 226.87 474.16 227.7 473.66 228.87 472 228.7 471.83 231.37 470.33 234.04 470.33 237.54 470 240.2 468.66 242.54 469 245.54 467.5 246.7 466.78 248.54 466.78 250.37 467.66 252.04 466.78 253.37 467.83 254.2 466.78 255.2 465.66 256.87 465.58 257.93 466.78 259.45 466.78 261.2 466.78 263.45 466.78 265.45 466.78 269.2 466.78 271.95 467.83 274.95 469.58 274.95 470.83 272.95 472.33 270.04 474.08 270.04 475.58 272.2 476.83 271.7 478.83 270.04 480.33 267.45 482.83 267.2 483.33 265.45 485.58 264.95 487.33 262.95 486.33 260.45 486.83 258.2 485.08 257.2 485.83 254.35 484.58 254.35 486.08 251.45 485.83 249.7 487.08 248.45 488.08 246.29 487.83 244.2 489.33 242.95 489.33 241.2 488.58 239.95 490.08 238.4 489.58 235.83 489.58 233.45 492.83 231.7 492.83 228.7 494.08 225.2 495.58 224.95 496.58 222.45 497.83 220.73 499.08 219.7 499.83 217.7 501.33 217.7 501.33 215.95 503.31 216.45 506.83 215.2 506.83 213.2 505.33 212.95 502.08 212.95 502.08 210.7 499.83 207.45 499.83 205.2 502.58 203.7 502.58 202.05 499.83 200.95 497.83 198.44 499.33 194.75 500.33 191.45 499.33 188.7 497.83 187.45 495.83 185.2 497.33 183.45"/>
  <polygon transform="matrix(.30551 0 0 .30551 -6.9025 54.68)" points="490.51 144.26 494.12 140.95 495.32 144.86 498.03 143.36 503.15 143.36 501.94 141.55 505.55 139.75 507.06 139.75 506.45 136.06 507.96 136.06 509.77 136.06 510.67 133.43 513.98 131.02 515.78 128.61 519.4 129.82 519.4 132.52 520.9 132.22 520.9 129.52 523.01 129.82 525.72 127.71 527 129 528.64 128.72 530 129.45 530.91 129.27 530.91 126.63 532.54 126.36 534.27 126.45 534.91 127.36 535.9 127 535.9 124.27 537.18 124.27 538.36 125.54 538.9 126.18 539.99 125.54 539.54 123.45 541.63 123.54 541.63 122.64 540.63 122 541.27 120.79 543.17 119.82 544.36 120 544.36 119.09 544.36 118.73 545.99 118.82 547.08 117.37 546.45 115.28 547.08 113.19 547.81 111.46 547.17 110.73 547.17 109.28 548.81 107.92 547.4 107.69 545.99 107.46 544.08 108.28 543.9 107.37 542.99 108.46 541.9 108.37 541.99 107.64 542.99 106.37 539.18 101.83 538.08 102.01 536.72 102.01 535.63 102.46 534.99 102.1 533.09 103.1 533.36 104.19 532.45 104.55 532.36 103.37 531.18 103.37 531.18 101.83 530 101.74 529 102.19 529 101.1 527.27 102.19 525.55 102.1 520.64 103.74 518.64 103.83 517.82 102.28 518.36 100.46 517.55 99.737 515.19 98.829 513.37 97.011 512.55 95.375 514.37 94.558 516.73 96.738 518.73 95.103 518.46 92.922 519.09 90.65 515.82 86.925 516 82.836 513.98 81.365 513.91 81.395 509.77 83.171 509.77 85.278 507.36 83.321 503.15 87.083 503.15 89.491 499.53 91.597 495.62 95.208 495.62 99.422 491.71 99.422 488.7 102.43 485.69 103.64 472.45 120.49 468.54 122.9 466.78 125.9 470.04 127.71 472.15 130.42 470.95 132.22 466.78 133.73 464.93 133.73 463.12 136.06 459.81 138.54 457.81 141.21 459.7 142.92 461.48 144.46 462.58 146.23 461.48 148.35 462.58 150.22 462.58 152.21 465.02 152.21 466.78 155.75 465.24 157.3 465.13 157.38 466.78 160.21 468.84 160.21 471.24 160.21 471.24 156.3 473.95 155.1 477.26 155.4 476.96 152.09 479.67 150.28 480.88 146.67 485.33 148.9 485.69 149.08 487.8 146.67 490.2 148.78 491.41 147.87"/>
  <polygon transform="matrix(.30551 0 0 .30551 -6.9025 54.68)" points="358.61 195.79 359.71 195.79 361.26 195.79 361.26 194.75 363.25 192.91 363.25 190.26 365.68 191.36 367.9 188.93 370.77 187.82 373.65 187.82 376.08 186.05 378.3 186.94 379.84 184.82 381.39 183.62 384.27 183.84 386.92 184.82 386.92 186.28 391.12 186.28 394.22 186.05 396.88 188.93 400.64 187.38 403.74 184.82 409.7 182.29 409.7 179.42 411.26 176.54 412.36 176.54 414.57 176.54 415.9 174.28 417.13 174.28 417.45 174.28 420.55 173.22 421.66 170.57 424.09 168.8 426.96 168.36 428.95 168.8 436.48 167.91 438.69 167.91 442.01 168.14 442.01 169.24 443.56 171.55 452.4 174.28 454.4 173 453.73 169.68 452.4 167.91 452.4 163.27 455.06 163.27 457.49 163.27 458.82 160.84 462.14 161.72 462.14 163.27 463.47 161.5 463.47 158.84 465.13 157.38 465.24 157.3 466.78 155.75 465.02 152.21 462.58 152.21 462.58 150.22 461.48 148.35 462.58 146.23 461.48 144.46 459.7 142.92 457.81 141.21 457.49 140.92 454.17 144.24 450.86 144.46 447.1 145.79 441.56 146.01 436.7 148.35 435.59 146.23 433.38 148.35 432.27 146.01 427.85 145.13 421.66 144.69 416.57 145.79 413.69 145.79 408.82 146.23 403.95 148.35 397.54 148.35 395.99 150.44 392.9 148.35 388.25 150.66 384.27 147.12 378.52 145.35 378.74 142.69 375.2 140.04 370.99 139.16 368.12 138.05 362.81 136.06 357.5 137.61 351.53 136.06 350.2 138.71 350.64 140.92 343.78 144.91 340.24 144.91 336.26 143.58 332.06 144.91 330.07 144.91 328.52 147.12 326.75 146.23 325.42 149.33 323.2 147.56 321.56 148.35 321.88 148.35 320.61 150.46 320.61 152.57 319.77 153.55 320.82 156.08 319.77 158.05 318.5 159.18 319.2 161.01 318.5 161.57 318.5 163.96 320.19 164.66 318.5 165.93 319.49 166.77 318.5 167.61 318.5 169.44 318.5 170.28 319.35 171.13 318.5 171.13 319.63 173.55 318.5 174.22 318.44 174.28 319.2 175.45 319.2 177.95 317.96 179.83 319.2 181.33 317.96 182.08 317.33 184.08 318.27 184.82 319.2 185.95 317.33 185.95 318.27 187.2 319.83 188.08 321.33 186.83 321.88 187.58 320.58 189.08 321.88 189.08 321.88 190.7 323.2 192.33 323.2 193.7 320.7 193.7 320.27 194.2 317.96 194.75 317.33 196.08 319.58 196.08 319.91 196.42 326.53 194.75 326.71 194.75 331.62 194.75 331.62 197.34 333.39 198.44 336.04 196.01 339.58 196.23 341.79 196.23 344.45 197.34 344.45 195.79 348.65 195.79 351.53 195.79 353.52 195.79 355.28 195.79 356.62 193.35 358.61 193.35"/>
  <polygon transform="matrix(.30551 0 0 .30551 -6.9025 54.68)" points="355.37 410.82 354.14 409.32 352.08 409.32 352.08 403.98 350.85 403.98 350.16 402.74 351.12 402.06 351.12 396.99 351.26 394.52 352.22 392.33 352.49 390.14 354.14 389.45 354.14 387.81 352.22 387.81 349.89 387.81 348.79 386.44 349.89 384.93 349.89 382.88 347.7 382.88 346.19 382.88 345.09 380.82 343.47 381.62 343.63 381.62 343.63 384.98 339.66 389.26 339.66 393.54 336.6 395.67 336.6 398.12 333.54 403.31 335.38 404.84 335.38 411.25 334.46 412.78 336.6 415.84 334.46 420.73 334.46 430.81 334.46 438.44 331.41 444.86 329.27 449.14 326.05 451.28 326.05 458.64 327.83 459.32 327.83 463.02 329.06 463.57 330.02 464.53 331.12 465.22 332.76 463.98 332.76 461.93 333.31 461.93 334.95 461.93 336.32 460.7 337.28 460.7 337.83 460.7 337.83 459.05 339.75 455.62 339.75 452.61 341.94 451.58 344.27 452.61 345.64 452.61 346.32 451.58 347.42 448.23 346.6 446.99 347.42 442.61 348.79 442.06 349.34 443.29 350.16 443.29 351.53 441.51 352.49 441.51 353.86 441.51 354.89 440.01 354.89 438.09 356.06 438.09 358.38 430.28 359.62 428.22 361.95 420.69 362.09 420.56 363.45 419.32 363.45 417.81 364.69 416.58 363.86 415.9 362.49 416.58 361.12 414.31 358.93 413.43 358.93 414.31 357.84 415.35 357.84 416.58 355.37 416.03 353.73 414.31 352.36 413.43 352.08 410.82"/>
  <polygon transform="matrix(.30551 0 0 .30551 -6.9025 54.68)" points="343.63 384.98 343.63 381.62 343.47 381.62 341.49 381.62 337.52 381.62 336.6 380.4 334.82 380.4 334.46 380.4 332.32 381.62 330.18 381.62 328.66 383.45 325.6 382.54 325.6 384.98 323.16 384.37 321.94 380.4 319.49 380.4 316.74 380.4 313.38 380.4 310.32 377.04 307.57 378.56 307.57 380.7 307.27 383.15 308.49 385.59 310.63 386.2 311.85 390.17 312.16 394.45 313.38 396.9 311.55 399.34 309.41 403.31 307.57 405.45 308.49 407.28 307.57 411.86 306.66 416.75 305.13 422.56 307.27 423.47 307.27 425.61 306.66 428.36 309.41 429.89 309.1 432.95 310.02 434.78 311.55 435.7 309.41 439.97 305.13 451.58 319.19 451.58 325.6 451.58 326.05 451.28 329.27 449.14 331.41 444.86 334.46 438.44 334.46 430.81 334.46 420.73 336.6 415.84 334.46 412.78 335.38 411.25 335.38 404.84 333.54 403.31 336.6 398.12 336.6 395.67 339.66 393.54 339.66 389.26"/>
  <polygon transform="matrix(.30551 0 0 .30551 -6.9025 54.68)" points="388.33 358.12 389.5 358.12 390.16 357.04 390.83 356.12 389.98 355.72 388.84 356.17 386.2 356.91 383.9 358.14 382.58 357.39 382.33 359.08 380.96 360.08 379.33 358.95 376.58 358.95 375.08 359.08 372.7 360.58 372 360.33 369.58 362.08 368.2 360.83 368.82 359.63 365.33 357.83 363.58 357.95 361.96 356.33 361.58 354.2 361.33 352.2 359.7 352.2 359.7 353.45 358.83 354.08 356.7 354.83 355.08 355.2 354.08 354.7 351.7 355.58 350.2 354.7 348.2 355.7 347.08 356.2 345.37 354.83 341.46 356.45 338.96 356.45 338.25 355.04 337.5 355.37 335.66 355.37 334.66 354.37 332.83 354.87 332.83 357.87 332.83 359.04 332.83 360.87 330.16 360.87 331.16 362.7 328.83 361.7 328.83 362.7 326.83 364.2 326.83 365.87 326.05 368.54 326.83 370.7 329 370.7 330.83 370.7 331.78 371.7 330.83 372.54 329.5 372.54 329.83 374.2 331.78 374.2 333.66 372.87 334 374.2 333 374.2 333.33 377.04 334.66 377.04 334.66 378.04 334.82 380.4 336.6 380.4 337.52 381.62 341.49 381.62 343.47 381.62 345.09 380.82 346.19 382.88 347.7 382.88 349.89 382.88 349.89 384.93 348.79 386.44 349.89 387.81 352.22 387.81 354.14 387.81 354.14 389.45 352.49 390.14 352.22 392.33 351.26 394.52 351.12 396.99 351.12 402.06 350.16 402.74 350.85 403.98 352.08 403.98 352.08 409.32 354.14 409.32 355.37 410.82 352.08 410.82 352.36 413.43 353.73 414.31 355.37 416.03 357.84 416.58 357.84 415.35 358.93 414.31 358.93 413.43 361.12 414.31 362.49 416.58 363.86 415.9 364.69 416.58 363.45 417.81 363.45 419.32 362.09 420.56 363.16 424.04 364.69 428.87 364.69 431.37 366.66 433.54 369 434.54 367.83 437.2 369 438.54 370.83 438.54 372 435.04 373.66 435.87 375 434.87 376.66 436.37 376.66 433.87 378 433.87 378.83 435.2 380.33 436.04 381.5 434.87 382.83 436.2 384.16 434.2 386.66 435.2 388 433.2 389 434.04 391 433.54 389.83 431.7 391 428.04 391.83 427.04 390 424.37 390.83 423.02 390.33 421.7 391.83 421.54 391.83 418.7 393 418.54 393 417.04 393 415.7 394.83 415.7 397 414.31 396.16 413.04 394.83 413.54 393.66 412.2 395.33 411.2 394.5 409.7 395.66 409.04 394.83 406.54 397 406.2 397 404.2 396.16 403.04 394.5 400.37 395.83 400.04 396.16 397.87 398 396.45 396.5 394.7 397.33 393.04 398 388.87 399.16 388.04 400.66 388.54 402.16 391.2 403.5 389.87 405.33 390.2 406.66 388.87 406.66 387.2 406.66 384.2 407.83 384.04 410.16 380.82 410.16 378.2 412.33 377.04 411.33 375.04 412.33 372.7 413.16 370.87 412.54 369.67 412.33 371.45 410.09 369.72 409.41 369.2 407.83 369.87 404.75 367.95 393.83 367.79 392.5 366.79 391.75 366.12 392.08 364.79 391.41 363.7 390.33 363.62 389.08 362.45 388.41 361.37 387.75 360.29"/>
 </g>
 <g fill="none" stroke="#f99" stroke-width=".45982px">
  <path d="m65.785 64.042 0.20847 1.2508 2.7102-0.41694 1.6678 0.83389-1.0423 4.8991 0.72965 0.10424 0.52119 2.7102-0.52119 2.2932 1.0423 4.5864 2.0847-1.6678 1.1466 0.52119 0.20848 1.4593 1.5636 0.83388-0.72968 1.2508 0.93812 0.10424-0.62541 1.8762h1.5636l2.0847 1.2508-0.10431 1.2508 0.8339 0.93811 1.772-0.93811 1.6678 0.52119-0.41695 1.5636 1.1466 1.5636 1.4593 0.41695-0.31271 1.0424 0.62542 0.62542-0.41694 3.8568 1.0423 0.83389-1.2509 0.83389 1.0424 0.83389-1.3551 0.83389 0.62541 1.1466 6.3584 3.4398 3.3355 2.1889 1.3551 0.10424 1.772 2.2932-1.9805-0.3127-2.0847 0.93813-1.8762-1.6678h-1.2508l0.72965-1.1466 0.93813-1.772 3.4398-0.72965 0.10418-1.1466 1.3551-0.62542 0.93812-0.93813 0.20848-1.4593h1.2508l1.1466-0.83389 3.2313 0.41693 2.2932-2.7102 2.0847 0.10424 2.0847-2.7102-1.9804-1.8762 0.3127-1.1466-0.93812-1.9805 0.62543-1.1466v-1.772l-0.93811-0.41693-0.41695-3.2313 0.52117-0.72966v-1.3551l0.83391-3.2313 1.9804-0.20847-4.5864-1.2508-2.8144-4.4822-5.5245-5.1076-2.7102-3.2313-1.1466 0.10424-1.1466-1.6678-0.93812 0.20847-3.3355-0.52118-5.6288 1.5636-1.3551 1.5636-5.8373 0.72966-2.9186-1.9805 0.8339-1.1466-2.189-1.5636-2.1889 1.0424-0.72965 0.93812-2.8144-0.10423z"/>
  <path d="m70.372 65.71 0.81725-0.9194 5.6186-0.10215 1.7366 0.81724 3.0647-1.1237 1.6346 1.2259 1.7366-0.81724-0.10218-1.4302 0.7151-0.91941 6.1294-2.2474 0.81724-1.0215h1.0215l2.0431-0.71509 1.1237-1.4302 0.71508-0.20431 0.10219-0.51078h0.91939l-0.20429-0.9194 1.6345-0.7151 0.30647-0.61294h0.91941l1.4302-1.1237 0.61294-1.5323-0.81725-1.0215 1.5324-1.5323 2.5539 1.0215 0.61295-0.9194 1.6345 0.81725 0.51081-0.61294 4.3927 0.30647 0.81723-0.71509 3.6776-0.10215 3.5754-1.7366 3.1669 0.51078 1.2259-0.61294 0.81724 0.61294 0.61294-0.51078 0.51077 0.40862 1.6346-1.1237h2.5539l2.8603-2.4517 1.8388 0.20432 1.328 0.71509 2.3496-1.2259 0.40864-1.2259 1.8388 0.40862 4.4948-1.5324 1.2259-0.9194h1.6345l0.91943-2.1453-0.5108-0.81725 0.71508-0.81725h1.4302l0.2043-1.328h2.0431l2.4517-4.8013 1.6346 0.30647 0.61291-0.81725 1.1237 1.1237 4.4949-4.4949 1.2259 1.4302 0.10219 0.9194 2.656-0.20432 1.7366-1.0215-0.51079-1.1237 0.61295-0.61294 2.2474 0.51078 1.7366-1.0215-0.30646-2.2474 3.269 0.9194 2.4517-1.1237 2.0432-0.51078 1.0215-1.0215 1.4302-0.10215"/>
  <path d="m162.13 19.794-0.96837 1.9368-2.0752 1.3835 1.3835 2.0752 1.2451 0.41505 0.83009 3.4586"/>
  <path d="m9.8605 68.452-0.49002-0.91881 0.1225-1.2863 0.42879-0.42878h0.49003l0.73504-0.42878 0.61253-1.2863 0.79629-0.42878 0.49003-0.85755 1.7764-0.67379 0.1225-0.61254 2.8789-1.1025 1.6539-0.30627 0.0613 0.73505 0.36753 0.36752 0.1225 0.61253 0.67379 0.1225 0.12251-0.42878 1.4088-0.42877 0.30626-0.36752 2.2663-0.98005 0.06129-0.55128 0.61253-0.91881 0.0613-0.36752 1.3475-0.55128 0.98005-1.5314 2.9402 0.24502-0.06129 1.3475-0.24503 0.9188-0.85754 1.2863-0.55128 1.4089-0.67379 0.24502 0.0613 1.2863-0.49003 0.61254 1.0413 1.8376-0.67379 1.1025 1.1638 0.36752 3.0627 2.1438 3.7977 1.5314 4.2878 0.24502 0.79629-0.36752 5.4516 1.3475 1.8376-0.42876 1.8989-1.6539 1.7151-0.67379 0.91882-0.67379 1.6539-0.49002 1.1638-0.91881h0.98006l1.8376-1.225 1.6539 0.85755 0.79629-0.55128 0.73504 0.18376-0.18376-0.73504 0.49003-0.79629 1.2863-0.85755 0.30628 0.42878-0.1225 0.73505 0.91881 0.42878h0.42877l0.55129-0.98005"/>
  <path d="m66.097 63.26v-0.57331l0.5096-0.82811-0.8918 0.3185-0.7007 0.637-0.9555-0.0637-0.1274-1.1466 0.63701-0.3185 0.3185-0.7007-0.50962-0.63701 0.89182-2.9302-2.8029-1.911-0.44592-2.2296-8.0899-0.0637-5.0323-1.5925-7.0071-0.2548-3.6946 0.63701-1.5925-0.76441-0.82811 0.637-3.4398-0.4459-3.4398 0.8918"/>
  <path d="m28.898 51.742 0.08193-0.30611-3.0721-0.9566-0.94216-0.49743-0.73732-0.11479-0.73732 0.19132-0.28673 0.22959-0.53251-0.26785-0.57346 0.88007h-0.28673v1.0331l-0.28673 0.15305-1.1879 2.9081h-0.20481l0.04097 0.34437-0.3277 0.26785-0.94216 1.5688-0.77829-0.22958 0.6554 1.3775 0.40962 0.4209-0.08193 0.72702 0.36866 0.65048"/>
 </g>
 <g stroke-width=".91963">
  <ellipse cx="66.165" cy="63.671" rx=".99661" ry="1.0005"/>
  <ellipse cx="10.155" cy="68.608" rx=".99661" ry="1.0005"/>
  <ellipse cx="28.977" cy="51.391" rx=".99661" ry="1.0005"/>
  <ellipse cx="98.304" cy="109.01" rx=".99661" ry="1.0005"/>
  <ellipse cx="162.35" cy="19.944" rx=".99661" ry="1.0005"/>
  <ellipse cx="184.84" cy="21.091" rx=".99661" ry="1.0005"/>
 </g>
 <ellipse cx="31.32" cy="62.873" rx=".99661" ry="1.0005" stroke-width="1.2931"/>
 <path d="m30.566 62.336-0.40335 0.36973-0.87392-0.2689-0.2689 0.16806-0.5378-0.03362" fill="none" stroke="#f99" stroke-width=".30898px"/>
 <g fill="#000000" font-family="sans-serif" font-size="3.5277px" letter-spacing="0px" stroke-width=".26458" word-spacing="0px">
  <text x="3.1980493" y="65.181389" style="line-height:1.25" xml:space="preserve"><tspan x="3.1980493" y="65.181389" font-size="2.8222px" stroke-width=".26458">Dhubri</tspan></text>
  <text x="27.506563" y="47.373211" style="line-height:1.25" xml:space="preserve"><tspan x="27.506563" y="47.373211" font-size="2.8222px" stroke-width=".26458">Bongaigaon</tspan></text>
  <text x="22.572317" y="66.029617" style="line-height:1.25" xml:space="preserve"><tspan x="22.572317" y="66.029617" font-size="2.8222px" stroke-width=".26458">Goalpara</tspan></text>
  <text x="162.6317" y="22.920195" style="line-height:1.25" xml:space="preserve"><tspan x="162.6317" y="22.920195" font-size="2.8222px" stroke-width=".26458">Dibrugarh</tspan></text>
  <text x="178.91336" y="18.109699" style="line-height:1.25" xml:space="preserve"><tspan x="178.91336" y="18.109699" font-size="2.8222px" stroke-width=".26458">Digboi</tspan></text>
  <text x="65.521179" y="60.559025" style="line-height:1.25" xml:space="preserve"><tspan x="65.521179" y="60.559025" font-size="2.8222px" stroke-width=".26458">Guwahati</tspan></text>
  <text x="95.469803" y="113.5795" style="line-height:1.25" xml:space="preserve"><tspan x="95.469803" y="113.5795" stroke-width=".26458">Silchar</tspan></text>
 </g>
</svg>
