<svg width="162.07mm" height="289.42mm" version="1.1" viewBox="0 0 162.06863 289.42065" xmlns="http://www.w3.org/2000/svg">
 <g transform="translate(-11.81 -5.8755)">
  <path id="IN-KL" class="land" d="m12.827 9.0968 7.9273-2.3228 1.0344 1.9357-1.5092 1.972 1.7361 0.4504-0.32065 0.88021 2.6949-0.35323-0.11797 3.5236 2.2351-0.4081 0.19056-2.0235 4.0862 1.3823-0.48697 2.7735 1.0253 1.0494 2.6767-0.52013 1.358 4.0257 3.4056-3.1576 3.2393 1.7058-3.2302 1.3551 0.27218 2.9609 3.4026 1.7996 0.37803 2.2049 4.6638-2.6193 0.50812 2.3622-3.5387 0.54185-0.06401 2.8734 3.5327 2.5919-0.14209 5.1751 4.0257 0.01135 5.9583 8.7167 3.6869 0.53842 1.73 3.2968 2.4801-0.58643 0.97692 2.4589 5.2325-0.58414 1.5637 5.5893 3.3149 2.8007 7.4525 1.1191 7.1833-3.0427 0.0091 7.6793 4.809-0.81048 2.1837 4.0952 3.3875-0.22405 3.9863 4.685 4.6003-1.4577 0.71079 2.3319-1.4246 1.0288 1.7119 2.6827l0.0846 2.3168-2.834 0.05717-1.8934 2.5498-3.3058 1.1826-1.7058-1.8329-2.8612 1.8268 0.90731 6.7265 2.4015-0.95566 2.713 1.9176 0.81059-0.90193 4.8574 1.6122 2.4045 3.3481 3.8684 2.2291 1.8178-0.3178 0.127 3.8018-5.9372 3.9712 0.40226 3.2241 2.2079-1.4487 8.5715 1.0974 4.679-2.9308 1.8117 1.4427-2.1777 4.1254 3.0124 1.488-0.10285 4.7304 3.5054 0.32694-5.4412 0.70417-3.6325 6.8687 10.661 3.9955 1.4488 3.4661 3.0306 0.49955 0.58368 1.8631-2.6586 6.1127 1.0828 2.9338-4.2828 0.19662 1.5667 2.6435-1.4185 10.885 2.0264 3.5327-1.2461 4.1194 1.1947 1.1248 1.6302-0.79561-0.12701 1.47 2.7342 2.704 4.1346 1.0311 4.2888-2.5255 0.84387-2.3864 7.0351-3.8866 3.7474 0.38409-0.4839 2.2049 2.2835 3.3301-0.25412 2.1172 2.1474 0.85278-1.3096 5.6316-4.558 1.6998 3.817 4.6185 0.69261 4.2706-1.5395 0.67446-2.2533 4.9058 1.5546 1.0826-0.93462 2.2019 1.5848 1.6605-1.5304 0.54985-0.0994 3.7171-1.1584 0.39325-2.4075 6.9897 2.7886 0.11775 3.7414 2.5013 3.1213-1.7905 1.2975 1.9024 1.0192-2.0325 0.61101 4.3856 2.8945 1.8963-1.1191 2.9217-2.8068 1.2552-1.4518 6.5784-1.721 0.0342-1.0949 2.3289v5.2299l-1.9115 1.8903 0.95875 2.3048-3.5387 3.4751-0.87107 3.3089-3.1606 1.5727 3.0397 4.1286 0.0148 1.9901 1.5365-0.10274 2.4226 3.702-1.7936 5.3172-2.4136 2.592-1.3429-0.16339 6.9534 12.73-1.116 2.2956-3.8654 0.50871 1.4548 3.5387-4.7274 3.7625 1.5728 4.2011-2.3894-0.66529-1.6121 1.5818-7.6974-5.5379-21.722-28.697-5.417-4.2102-1.7421-7.392-11.448-25.33-6.3667-35.064 1.0041-0.26633 2.6888 5.0904 4.1104 4.3614 6e-3 7.7338 1.8661 1.2914-2.093 9.8752 1.6514 1.2008v-1.2461l7.5099-0.33608-5.4351-2.214 0.8953-2.8884-0.56254-2.4983-1.1796 0.19319 0.70475-3.1546-1.972-0.42639-0.33265-10.302-2.3561-3.4933-1.0374 0.33608 0.74098 1.9357-1.0556-0.30522-4.3795-9.0101 0.94971-3.1606-3.7293-4.3312 2.3924 10.613-1.231 0.24807-7.8967-25.793-11.977-26.344-3.3239-14.484-7.7186-21.468-3.3603-6.0945-4.1345-1.854-4.7485-13.148-8.6865-10.048-3.1486-1.3761-5.665-9.4094-2.2321-1.1705-1.848 1.2037-1.2491-5.7708-13.19-25.99z" fill="#c2f0c2" stroke="#85c5e3" stroke-width=".5" title="Kerala"/>
 </g>
 <g fill="none" stroke="#f99">
  <path d="m128.79 267.17-0.57589-1.9196-3.2634-0.95981-1.1518-4.2232-2.6875-3.8393v-2.8794l-5.7589-7.6785-8.8303-1.5357-2.3036-3.4553-0.38394-2.1116 1.1518-2.8794-2.3036-7.8705-2.8794-7.4866-1.5357-0.76784-0.95983-2.4955-2.3036 0.76785-2.4955-7.6785-0.95981-3.6473-0.38392-7.6785 1.5357-2.6875-1.9196-3.0714v-5.183l-0.95982-4.991 1.1518-2.4955-0.76785-6.9107 1.5357-2.8794 0.76786-2.1116-0.5759-1.3437 1.1518-0.19196-0.38393-1.7277 2.3036-2.1116-1.1518-4.0312-2.1116-2.4955-0.95981-4.991-2.8794-2.4955-0.95982-4.991-2.8795-3.2634 0.38394-3.2634 0.95981-2.3036-0.57588-2.6875v-4.4152l-3.6473-1.7277 1.5357-1.9196 0.38392-6.1428-2.4955-2.6875 3.0714-2.1116-1.3438-1.1518 0.19196-1.5357-4.0312-4.0312-0.38393-2.6875-2.8794-3.0714-0.57588-2.6875-3.0714-3.6473-0.38393-2.1116-2.1116-3.2634-1.5357-3.6473 2.3036-3.6473h2.6875l1.1518-5.375 2.8794-1.9196 0.38394-2.1116 2.1116-0.95982 0.19196-3.0714" stroke-width=".5px"/>
  <path d="m90.204 173.49-1.89-2.5988-0.23628-2.3625-3.3076-2.3625-1.6538-6.8514-3.3076-4.0163-0.94502-4.0163-5.6701-11.104-6.1426-10.868 3.5438-4.0163-1.89-0.47251-1.89-6.6151-2.5988-2.5988-0.4725-3.7801-3.3076-7.0876 0.94503-1.89-1.4175-1.89 0.70876-2.3625-2.1263-0.70876" stroke-width=".5px"/>
  <path d="m128.08 268.6 0.75233-0.91952-0.0836-2.4242 0.58516-0.58516-0.83593-0.66873-0.58515-2.5914-1.2539-1.0031-0.75233-4.932-1.0867-1.4211 0.33437-0.58514-0.25079-0.58513 0.1672-1.3375-0.33438-2.1734-0.50154-1.0867v-0.91952l-0.83596-1.0867 0.2508-1.2539-1.3375-1.839 0.41797-0.9195-0.91954-1.2539v-0.9195l1.5882-0.66877 0.2508-3.6781-0.50155-0.50156 0.33436-2.3406 0.0836-1.7555 0.25076-0.75232-0.83592-1.0867 0.41794-1.3375-0.58513-1.0867-1.5882-0.41797-0.58517-0.91953-0.41794-1.0031 0.33436-1.9226-0.50156-0.58514-0.33436-1.6718-0.75235-1.0031v-0.58516l1.1703-1.0867v-3.093l0.0837-0.66873 2.5913-0.16717 0.41798-1.839 1.1703 0.41797 0.2508-0.66875h0.66871l0.1672-1.0867-0.25078-1.0031 1.7554 0.16718-0.0836-1.3375 1.3375 0.75234 0.0836-0.83592h0.83593l1.0867 0.50154 0.50156-0.66874-0.75235-1.1703v-0.66874l-0.0836-0.91953 0.75234-0.83593 0.16718-1.5047 0.75233-0.83592 2.0898-0.75234-0.16717-1.2539 1.4211-0.83592-0.16717-1.1703 2.5078-0.9195 0.75232-1.3375 0.33438-0.41794-0.41797-1.0867-0.0836-1.1703-0.75235-3.2601-0.50157-0.83593v-0.58514l-0.91948-1.5047 0.16718-0.58517 2.1734 0.75234" stroke-width=".5px"/>
  <path d="m128.08 268.6-0.31048 1.8629-1.5524 0.15523-0.93143-1.2419-1.3971-2.1733v-1.5524l-3.26-3.7257-2.4838-2.0181-0.31047-1.0867-1.2419-1.0867v-0.77619l-0.93143-0.62095-0.77619-1.3971-2.9495-3.1048-0.77618-0.15524v-2.3286l-1.2419-0.62095-1.8629-2.7943-2.4838-1.2419 2.4838-1.2419-0.46571-2.4838-0.31048-1.7076-1.0867-0.62095 0.77619-1.0867-0.62096-2.3286-1.3971-1.0867-2.1733-0.77619-1.5524-5.7438-0.93142-1.7076 1.3971-4.0362 1.8628-1.8628 1.7076-0.62094v-1.8629l1.3971-1.2419-0.15524-1.8629-2.0181-4.5019-0.93142-0.46571 0.15524-1.3971-2.0181-2.639-0.46572-3.4152v-2.0181l1.0867-2.0181-1.2419-1.0867 1.2419-1.3972 0.31048-3.8809-2.7943-3.881-2.0181-1.7076 0.31048-0.93142-1.8628-3.7257-1.0867-0.46571-2.0181-1.3971-1.2419-3.26-0.93143-1.5524-1.0867-0.46572-0.93143-1.8628-2.7943-0.46572" stroke-width=".5px"/>
  <path d="m87.9 149.11 6.5751-1.7702 5.3107-1.5173 5.0578-0.75866 2.0231-2.5289 3.2876-1.5173 3.0347-5.5636h2.7818l1.2644-1.2644-1.7702-2.0231" stroke-width=".5px"/>
  <path d="m58.546 97.891-2.5149-8.4876-3.7723-5.9728-3.4579-0.6287-2.8292-8.802-5.0297-7.859-4.401-4.7154-2.5149-5.9728-4.0867-1.2574-6.2871-11.003-1.8862-4.0866-9.4307-13.832-6.2871-8.1733-2.8292-8.4877" stroke-width=".5px"/>
 </g>
 <g stroke-width="1.6707">
  <ellipse cx="80.683" cy="69.761" rx="1.8106" ry="1.8176"/>
  <ellipse cx="4.9419" cy="9.1362" rx="1.8106" ry="1.8176"/>
  <ellipse cx="59.022" cy="97.525" rx="1.8106" ry="1.8176"/>
  <ellipse cx="86.062" cy="171.38" rx="1.8106" ry="1.8176"/>
  <ellipse cx="138.11" cy="187.37" rx="1.8106" ry="1.8176"/>
  <ellipse cx="128.8" cy="268.49" rx="1.8106" ry="1.8176"/>
  <ellipse cx="93.621" cy="211.5" rx="1.8106" ry="1.8176"/>
  <ellipse cx="115.43" cy="131.83" rx="1.8106" ry="1.8176"/>
  <ellipse cx="88.097" cy="148.99" rx="1.8106" ry="1.8176"/>
  <ellipse cx="29.365" cy="55.366" rx="1.8106" ry="1.8176"/>
  <ellipse cx="106.41" cy="244.35" rx="1.8106" ry="1.8176"/>
  <ellipse cx="121.24" cy="226.33" rx="1.8106" ry="1.8176"/>
  <ellipse cx="82.282" cy="111.19" rx="1.8106" ry="1.8176"/>
 </g>
 <g fill="#000000" font-family="sans-serif" font-size="3.5278px" letter-spacing="0px" stroke-width=".26458" word-spacing="0px">
  <text x="71.233269" y="66.704956" style="line-height:1.25" xml:space="preserve"><tspan x="71.233269" y="66.704956" stroke-width=".26458">Wayanad</tspan></text>
  <text x="34.025616" y="55.452667" style="line-height:1.25" xml:space="preserve"><tspan x="34.025616" y="55.452667" stroke-width=".26458">Kannur</tspan></text>
  <text x="6.9771776" y="12.043666" style="line-height:1.25" xml:space="preserve"><tspan x="6.9771776" y="12.043666" stroke-width=".26458">Kasargod</tspan></text>
  <text x="36.633835" y="98.687622" style="line-height:1.25" xml:space="preserve"><tspan x="36.633835" y="98.687622" stroke-width=".26458">Kozhikode</tspan></text>
  <text x="102.34368" y="128.34428" style="line-height:1.25" xml:space="preserve"><tspan x="102.34368" y="128.34428" stroke-width=".26458">Palakkad</tspan></text>
  <text x="85.770836" y="111.77145" style="line-height:1.25" xml:space="preserve"><tspan x="85.770836" y="111.77145" stroke-width=".26458">Malappuram</tspan></text>
  <text x="89.841362" y="142.00961" style="line-height:1.25" xml:space="preserve"><tspan x="89.841362" y="142.00961" stroke-width=".26458">Thrissur</tspan></text>
  <text x="63.363373" y="172.31064" style="line-height:1.25" xml:space="preserve"><tspan x="63.363373" y="172.31064" stroke-width=".26458">Ernakulam</tspan></text>
  <text x="129.38358" y="183.58707" style="line-height:1.25" xml:space="preserve"><tspan x="129.38358" y="183.58707" stroke-width=".26458">Idukki</tspan></text>
  <text x="123.56854" y="221.38478" style="line-height:1.25" xml:space="preserve"><tspan x="123.56854" y="221.38478" stroke-width=".26458">Pathanamthitta</tspan></text>
  <text x="107.57721" y="275.1738" style="line-height:1.25" xml:space="preserve"><tspan x="107.57721" y="275.1738" stroke-width=".26458">Thiruvananthapuram</tspan></text>
  <text x="91.295128" y="245.80791" style="line-height:1.25" xml:space="preserve"><tspan x="91.295128" y="245.80791" stroke-width=".26458">Kollam</tspan></text>
  <text x="73.850029" y="216.15125" style="line-height:1.25" xml:space="preserve"><tspan x="73.850029" y="216.15125" stroke-width=".26458">Alappuzha</tspan></text>
 </g>
 <ellipse cx="86.643" cy="178.06" rx="1.8106" ry="1.8176" stroke-width="1.6707"/>
 <text x="72.396271" y="178.6443" fill="#000000" font-family="sans-serif" font-size="3.5278px" letter-spacing="0px" stroke-width=".26458" word-spacing="0px" style="line-height:1.25" xml:space="preserve"><tspan x="72.396271" y="178.6443" stroke-width=".26458">Kochi</tspan></text>
</svg>
